<?xml version="1.0" encoding="utf-8"?>
<!-- Generator: Adobe Illustrator 24.2.0, SVG Export Plug-In . SVG Version: 6.00 Build 0)  -->
<svg version="1.1" id="レイヤー_1" xmlns="http://www.w3.org/2000/svg" xmlns:xlink="http://www.w3.org/1999/xlink" x="0px"
	 y="0px" viewBox="0 0 214 88" style="enable-background:new 0 0 214 88;" xml:space="preserve">
<g id="グループ_1204" transform="translate(42.617 -2122.613)">
	<g id="グループ_1205" transform="translate(-42.617 2124.746)">
		<path id="パス_2182" d="M23.8,9c0.3,0.2,0.6,0.4,0.8,0.7c0.7,0.7,1.6-0.5,0.9-1.2c-0.5-0.4-1-0.7-1.5-1c0-0.4-0.1-0.9-0.1-1.2
			c0-0.7-0.1-1.7-0.1-2.8c0.3-0.1,0.6-0.1,1-0.2c1.2-0.3,0.6-1.5-0.3-1.2c-0.2,0.1-0.5,0.1-0.7,0.2c0-0.7,0-1.2,0-1.6
			c0.1-0.7-1.3-0.8-1.3,0c0,0.4,0,1.1,0,1.9c-0.6,0.1-1.3,0.1-1.9,0c-0.3-0.1-0.7,0.1-0.8,0.4c-0.1,0.3,0.1,0.7,0.4,0.8
			c0.1,0,0.1,0,0.2,0c0.7,0.1,1.5,0,2.2-0.1c0,1.1,0.1,2.1,0.1,2.7c0,0.3,0,0.5,0,0.7C22,6.9,21.1,7,20.4,7.3
			c-0.8,0.3-1.2,1.1-1,1.9c0.1,0.4,0.4,0.7,0.8,0.9C21.5,10.8,23.1,10.3,23.8,9C23.8,9,23.8,9,23.8,9z M17.2,10.3
			c0.3-0.3,0.2-0.7,0.3-1.1c0.1-0.2,0.1-0.5,0.2-0.8C17.8,8,18,7.7,18.1,7.3c0.5-1-0.5-1.5-0.8-0.8c0,0.1-0.1,0.3-0.2,0.4
			c-0.1,0.3-0.1,0.2-0.2,0c0-0.9,0.1-1.9,0.3-2.8c0.2-1.1,0.4-2.3,0.5-2.9c0-0.4-0.2-0.7-0.6-0.7c-0.4,0-0.7,0.2-0.7,0.6
			c0,0,0,0.1,0,0.1c-0.1,0.9-0.4,2.4-0.5,4c-0.2,1.6-0.2,3.2,0.2,4.7C16.2,10.6,16.8,10.6,17.2,10.3L17.2,10.3z M22.7,8.4
			c-0.3,0.7-1.1,1.1-1.8,0.8c0,0-0.1,0-0.1-0.1c-0.2-0.1-0.3-0.4-0.1-0.6c0.1-0.1,0.1-0.1,0.2-0.2C21.4,8.1,22.1,8.1,22.7,8.4
			L22.7,8.4z M38.5,2.3C39,2.9,39.8,2,39.2,1.4c-0.4-0.4-0.9-0.6-1.5-0.8c-0.7-0.2-1.2,0.7-0.5,0.9C37.7,1.7,38.1,2,38.5,2.3
			L38.5,2.3z M37,3.6c0.5,0.6,1.3-0.3,0.8-0.9c-0.4-0.4-0.9-0.7-1.5-0.9c-0.7-0.3-1.3,0.6-0.5,0.9C36.3,3,36.7,3.3,37,3.6L37,3.6z
			 M39,8.8c0.3-0.2,0.4-0.7,0.2-1c-0.2-0.3-0.7-0.4-1-0.2c0,0,0,0-0.1,0.1c-2.3,1.8-4.7,2-4.8,0c0-1.3,0.1-2.6,0.2-4
			c0.1-0.9,0.2-2.2,0.2-3c0-0.4-0.4-0.7-0.8-0.7c-0.4,0-0.7,0.3-0.7,0.7c0,0.8-0.1,2.2-0.1,3c-0.1,1.4-0.2,2.6-0.2,4
			C32.1,11.4,36.4,11,39,8.8L39,8.8z M49,7.4c0,0,0.1,0,0.1,0.1c0.3,0.2,0.7,0.1,0.9-0.1c0.2-0.2,0.2-0.6-0.1-0.8c0,0,0,0,0,0
			c-0.1,0-0.1-0.1-0.2-0.1c0.5-0.9,1-1.8,1.4-2.7c0.1-0.1,0.1-0.3,0.1-0.4c0.9,0.2,1.5,0.9,1.7,1.8c0.3,1.3-0.2,2.8-2.5,3.5
			c-1.2,0.3-0.5,1.6,0.5,1.3c2.3-0.8,4-2.7,3.3-5.2c-0.4-1.3-1.4-2.2-2.7-2.4c0.1-0.5,0.2-0.9,0.2-1.4c0.1-1-1.3-1.1-1.3-0.1
			c0,0.5-0.1,1-0.2,1.5c-0.8,0-1.6,0.2-2.3,0.6c-0.1,0-0.2,0.1-0.3,0.1c0-0.1-0.1-0.2-0.1-0.3c-0.1-0.4-0.1-0.7-0.1-1.1
			c-0.1-1-1.6-1-1.3,0.1c0.1,0.3,0.2,0.9,0.3,1.2c0.1,0.3,0.2,0.6,0.3,0.9c-1.1,0.9-1.7,2.4-1.5,3.8c0.4,1.7,1.8,2.3,3.4,0.6
			C48.6,7.8,48.8,7.6,49,7.4z M49.9,3.1c0,0.1,0,0.1-0.1,0.2c-0.3,0.8-0.6,1.5-1,2.2c-0.4-0.5-0.7-1-0.9-1.6
			c0.1-0.1,0.3-0.2,0.4-0.2C48.8,3.3,49.3,3.2,49.9,3.1L49.9,3.1z M48.1,6.6c-0.2,0.3-0.4,0.5-0.6,0.8c-0.4,0.4-1,0.7-1.2-0.4
			c-0.1-0.8,0.2-1.6,0.8-2.3C47.3,5.4,47.6,6,48.1,6.6L48.1,6.6z M66.7,10.4c1.4,0,1.3-1.6-0.1-1.5c-3,0.1-3.9-2.7-2.7-4.7
			c0.4-0.7,1-1.2,1.7-1.6c0.6-0.2,1.3-0.4,2-0.4C68.6,2.2,68.9,2,69,1.7c0.1-0.4-0.1-0.9-0.5-1c-0.1,0-0.3-0.1-0.4,0
			c-1.2,0.1-2.5,0.4-3.7,0.8c-1.4,0.4-2.5,0.7-3.2,0.8c-0.4,0.1-1.2,0.3-1.5,0.3c-1.1,0.2-0.7,1.8,0.5,1.5C60.5,4,61,3.9,61.3,3.7
			C62.3,3.4,62,3.4,63,3c0.3-0.1,0.3-0.1,0.1,0.2c-0.2,0.2-0.3,0.5-0.4,0.7c-1.2,2-0.5,4.7,1.5,5.9C65,10.2,65.8,10.4,66.7,10.4
			L66.7,10.4z M78.4,2.5c0.6,0,1.2,0.2,1.7,0.5c1.3,0.9,1.7,2.7,0.8,4c0,0,0,0.1-0.1,0.1c-0.6,0.8-1.5,1.3-2.5,1.5
			c-1.2,0.3-0.7,1.6,0.4,1.3c1.3-0.3,2.5-1.1,3.3-2.2C83.3,6,82.8,3.5,81,2.3c-0.1,0-0.1-0.1-0.2-0.1c-1.8-1-4.1-0.9-5.8,0.3
			c-1.8,1.3-2.7,3.8-1.9,5.4c0.6,1.2,1.7,1.7,2.8,0.7c1.4-1.5,2.4-3.4,2.7-5.4C78.6,2.9,78.6,2.7,78.4,2.5L78.4,2.5z M77.3,2.6
			c-0.1,0.1-0.1,0.3-0.1,0.4c-0.2,1.7-0.9,3.2-2.1,4.5c-0.3,0.3-0.7,0.1-0.9-0.3c-0.6-1,0.1-2.8,1.4-3.8C76.1,3,76.7,2.7,77.3,2.6
			L77.3,2.6z M97.3,2.3c0.3,0,0.6-0.2,0.6-0.6c0,0,0,0,0-0.1c0-0.3-0.2-0.6-0.6-0.6c0,0,0,0,0,0H93v-1.3c0-0.3-0.3-0.6-0.7-0.6
			c0,0,0,0,0,0c-0.3,0-0.7,0.2-0.7,0.6c0,0,0,0,0,0V1h-4.4c-0.4,0-0.6,0.3-0.6,0.6c0,0,0,0,0,0c0,0.3,0.2,0.6,0.5,0.6c0,0,0,0,0.1,0
			h0l4.1,0c-0.1,3.1-1.9,5.9-4.7,7.3c-0.3,0.1-0.4,0.3-0.4,0.6c0,0.4,0.3,0.7,0.7,0.7c0.1,0,0.3,0,0.4-0.1c2.4-1.2,4.1-3.3,4.8-5.9
			h2.1c0.2,0,0.5,0.2,0.5,0.4c0,0,0,0.1,0,0.1c0,3.9-1.5,4.2-2.2,4.2c-0.5,0-0.9-0.1-1.3-0.3c-0.1,0-0.2-0.1-0.3-0.1
			c-0.4,0-0.6,0.4-0.6,0.7c0,0.3,0.2,0.5,0.4,0.6c0.6,0.2,1.2,0.3,1.8,0.3c2.2,0,3.4-1.5,3.5-5.6V5.2c0.1-0.7-0.5-1.4-1.2-1.4
			c-0.1,0-0.1,0-0.2,0c-0.7,0-1.5,0-2.3,0c0.1-0.5,0.2-1,0.2-1.5L97.3,2.3z M110.4,3.4c0.4,0.1,0.7-0.1,0.8-0.5
			c0.1-0.4-0.1-0.7-0.5-0.8c0,0-0.1,0-0.1,0c-1.2-0.2-2.4-0.2-3.5,0.1c-0.3,0-0.6,0.4-0.6,0.7c0,0.3,0.4,0.6,0.7,0.6c0,0,0,0,0,0
			C108.3,3.2,109.4,3.2,110.4,3.4L110.4,3.4z M111.1,9.6c0.9-0.2,0.8-1.7-0.3-1.4c-1,0.2-2.7,0.4-3.4-0.2c-0.3-0.3-0.7-0.3-0.9,0
			c-0.2,0.3-0.3,0.7,0,0.9C107.5,9.9,109.7,9.9,111.1,9.6L111.1,9.6z M104,10.2c0.3-0.3,0.2-0.7,0.3-1.1c0.2-0.7,0.4-1.3,0.8-1.9
			c0.1-0.3,0.1-0.6-0.2-0.7c-0.3-0.1-0.6-0.1-0.7,0.2l0,0c-0.1,0.1-0.2,0.4-0.2,0.4c-0.1,0.1-0.1,0.2-0.1,0
			c-0.3-1.3,0.5-4.4,0.7-5.5c0.1-0.4-0.2-0.7-0.5-0.7s-0.7,0.2-0.7,0.5c0,0,0,0.1,0,0.1c-0.2,1.6-1.3,5.6-0.2,8.2
			C103.2,10.5,103.7,10.5,104,10.2L104,10.2z M125.5,10.3c0.8,0,1.4-0.6,1.5-1.4c0,0,0-0.1,0-0.1c0-1,0.1-2.1,0.1-3.1s0-2.1-0.1-3.1
			c0-0.8-0.6-1.4-1.3-1.4c0,0-0.1,0-0.1,0c-0.4,0-0.8,0-1.2,0c-1.2,0-2.3,0-2.3,1.3c0,1,0,2.1,0,3.2s0,2.2,0,3.2
			c0,1.5,1.1,1.5,2.5,1.5C124.9,10.3,125.2,10.3,125.5,10.3L125.5,10.3z M121.1,5.4c0.3,0,0.6-0.2,0.6-0.5c0,0,0,0,0,0
			c0-0.3-0.2-0.6-0.5-0.6c0,0,0,0,0,0h-1.6c0-0.6,0-1.4,0-2l1.3,0h0c0.3,0,0.6-0.2,0.6-0.5c0,0,0,0,0-0.1c0-0.3-0.2-0.6-0.5-0.6
			c0,0,0,0,0,0H118c0.2-0.4,0.3-0.9,0.3-1.4c0-0.3-0.4-0.6-0.7-0.6c-0.3,0-0.5,0.1-0.5,0.4c-0.2,1.2-0.6,2.4-1.3,3.4
			c-0.1,0.1-0.2,0.3-0.2,0.4c0,0.3,0.3,0.6,0.6,0.5c0.4,0,0.8-0.3,1.3-1.7l0.6,0v2h-2c-0.3,0-0.6,0.3-0.6,0.6c0,0,0,0,0,0
			c0,0.3,0.2,0.6,0.5,0.6c0,0,0,0,0.1,0h1.9c-0.1,1.8-1,3.4-2.6,4.2c-0.2,0.1-0.3,0.3-0.3,0.6c0,0.4,0.3,0.6,0.7,0.6
			c0.2,0,0.3-0.1,0.5-0.2c1.2-0.7,2-1.7,2.6-3c0.6,0.5,1.1,1.1,1.5,1.7c0.1,0.2,0.3,0.3,0.5,0.3c0.4,0,0.7-0.4,0.7-0.8
			c0-0.7-1.6-2-2.4-2.5c0.1-0.4,0.1-0.8,0.1-1.1L121.1,5.4z M125.7,8.4c0,0.5-0.3,0.7-1.1,0.7c-1.1,0-1.2-0.1-1.2-0.6
			c0-0.9-0.1-1.9-0.1-3c0-1,0-1.9,0.1-2.7c0-0.4,0.1-0.6,1.2-0.6c1,0,1.1,0.1,1.2,0.6c0,0.8,0,1.8,0,2.8S125.7,7.6,125.7,8.4
			L125.7,8.4z M138.7,8.9c1.2-1,1.7-2.5,0.6-3.7c-1-0.8-2.4-1.1-3.6-0.7c-1.1,0.3-2.1,0.7-3.1,1.2c-0.3,0.1-0.5,0.5-0.4,0.8
			s0.5,0.5,0.8,0.4c0,0,0.1,0,0.1-0.1c0.9-0.5,1.8-0.9,2.8-1.3c0.8-0.4,1.8-0.2,2.5,0.4c0.4,0.5,0.4,1.2-0.4,1.9
			c-0.8,0.6-1.8,1-2.8,1.1c-0.9,0.1-0.8,1.4,0.2,1.3C136.6,10.2,137.8,9.7,138.7,8.9L138.7,8.9z M152.7,10.4c1.4,0,1.3-1.6-0.1-1.5
			c-3,0.1-3.9-2.7-2.7-4.7c0.4-0.7,1-1.2,1.7-1.6c0.6-0.2,1.3-0.4,2-0.4c0.9,0.1,1.2-0.2,1.3-0.4c0.1-0.4-0.1-0.9-0.5-1
			c-0.1,0-0.3-0.1-0.4,0c-1.2,0.1-2.5,0.4-3.7,0.8c-1.4,0.4-2.5,0.7-3.2,0.8c-0.4,0.1-1.2,0.3-1.5,0.3c-1.1,0.2-0.7,1.8,0.5,1.5
			c0.4-0.1,0.8-0.2,1.2-0.4c0.9-0.4,0.7-0.4,1.7-0.7c0.3-0.1,0.3-0.1,0.1,0.2c-0.2,0.2-0.3,0.5-0.4,0.7c-1.2,2-0.5,4.7,1.5,5.9
			C150.9,10.2,151.8,10.4,152.7,10.4z M168.4,1.6c1.1-0.3,0.6-1.5-0.2-1.2c-1.1,0.3-2.2,0.5-3.4,0.4c-0.3-0.1-0.6,0-0.8,0.4
			c-0.1,0.3,0,0.6,0.4,0.8c0,0,0.1,0,0.1,0C165.8,2.2,167.1,2,168.4,1.6z M167.8,8.8c0.3,0.2,0.6,0.4,0.8,0.7c0.7,0.7,1.5-0.4,0.9-1
			c-0.5-0.4-1-0.8-1.6-1c0-0.3-0.1-0.5-0.1-0.8c-0.1-0.6-0.1-1.3,0-1.9c0.4-0.1,0.7-0.2,1-0.4c1-0.4,0.3-1.5-0.4-1.1
			c-0.2,0.1-0.4,0.2-0.5,0.2c0-0.3,0-0.7-0.2-1c-0.2-0.6-1.4-0.4-1.3,0.3c0.1,0.4,0.2,0.7,0.2,1.1c-0.7,0.2-1.5,0.3-2.2,0.1
			c-0.3-0.1-0.7,0-0.8,0.3c-0.1,0.3,0,0.7,0.3,0.8c0,0,0,0,0.1,0c0.9,0.2,1.8,0.2,2.7-0.1c0,0.6,0,1,0.1,1.7c0,0.1,0,0.2,0,0.3
			c-0.8-0.2-1.6-0.1-2.3,0.2c-0.7,0.2-1.2,1-1,1.7c0.1,0.5,0.5,0.8,0.9,1c1.2,0.7,2.7,0.3,3.4-0.9C167.8,9,167.8,8.9,167.8,8.8
			L167.8,8.8z M161.4,10.3c0.2-0.2,0.1-0.8,0.2-1c0.1-0.8,0.4-1.5,0.7-2.1c0.3-0.6-0.6-1.3-1-0.5c-0.1,0.2-0.1,0.2-0.2,0.3
			C161,7.3,161,7.1,161,6.7c0-1.2,0.2-2.4,0.5-3.6c0.1-0.7,0.3-1.3,0.4-1.9c0.1-0.8-1.2-0.9-1.3-0.1c-0.1,0.7-0.2,1.2-0.3,1.9
			c-0.5,2.2-0.5,4.5,0.1,6.7C160.5,10.5,161.1,10.6,161.4,10.3L161.4,10.3z M166.6,8.3c-0.2,0.7-0.9,1-1.6,0.8
			c-0.1,0-0.2-0.1-0.2-0.1c-0.2-0.1-0.3-0.3-0.2-0.5c0-0.1,0.1-0.2,0.3-0.2c0.6-0.2,1.3-0.2,1.8,0L166.6,8.3z M183.1,8.8
			c0.3-0.2,0.4-0.7,0.2-1c-0.2-0.3-0.7-0.4-1-0.2c0,0,0,0-0.1,0.1c-2.3,1.8-4.7,2-4.8,0c0-1.3,0.1-2.6,0.2-4c0.1-0.9,0.2-2.2,0.2-3
			c0-0.4-0.4-0.7-0.8-0.7c-0.4,0-0.7,0.3-0.7,0.7c0,0.8-0.1,2.2-0.1,3c-0.1,1.4-0.2,2.6-0.2,4C176.2,11.4,180.5,11,183.1,8.8
			L183.1,8.8z M198.3,5.9c-0.3-1.3-1-2.4-2-3.1c-0.8-0.6-1.5,0.4-0.9,0.8c0.8,0.7,1.3,1.6,1.5,2.6c0.1,0.4,0.5,0.6,0.9,0.5
			C198.2,6.7,198.4,6.3,198.3,5.9L198.3,5.9z M192.4,8.2c0.2-0.3,0.4-0.7,0.5-1c0.1-0.4-0.1-0.7-0.5-0.8c-0.3-0.1-0.6,0.1-0.8,0.3
			c-0.1,0.3-0.3,0.5-0.4,0.8c-0.3,0.4-0.5,0.4-0.8,0c-0.8-1-1.1-2.2-1.1-3.5c0-0.6,0-0.6,0-1.2c0-0.4-0.3-0.7-0.7-0.7
			c-0.4,0-0.7,0.3-0.7,0.7c0,0.5,0,1,0.1,1.5c0,1.6,0.5,3.1,1.5,4.3C190.4,9.4,191.6,9.6,192.4,8.2z"/>
		<path id="パス_2181" d="M9.2,33.3c0-0.6-0.5-1.1-1.1-1.1c0,0-0.1,0-0.1,0c-0.6,0-1.1,0.4-1.2,1c0,0,0,0.1,0,0.1
			c0,0.6,0,1.9,0,2.8c-1,0-2,0-2.9,0s-2.9,0.5-2.8,2.5c0,1.1,0,2.6,0,3.3c0,1.4,2.4,1.3,2.4-0.1c0-0.7-0.1-2.1-0.1-2.6
			c0-0.6,0.4-1.1,1-1.1c0,0,0,0,0,0c1.4-0.1,4.9-0.1,6.8,0c0.6,0,1.1,0.4,1.1,0.9c0,0.1,0,0.2,0,0.3c-0.2,3.5-2.7,7.5-8.1,8.6
			c-0.6,0.1-1.1,0.7-1,1.3s0.7,1.1,1.3,1c0.1,0,0.2,0,0.2-0.1c6.9-1.7,9.8-6.6,10.1-11.4c0.1-1.7-1.1-2.5-2.8-2.6c-0.9,0-1.9,0-3,0
			L9.2,33.3z M28.6,49.7c6.4-2.5,9.2-6.9,10.8-11.5c0.7-1.9-0.6-3.3-2.5-3.3c-2.9,0-7.2,0-10.2,0.1c-0.6,0-1.1,0.5-1.2,1.1
			s0.5,1.1,1.1,1.2c0,0,0.1,0,0.1,0c3.3-0.1,6.9-0.3,9.2-0.2c0.8,0,0.9,0.6,0.7,1.2c-1.4,4.3-4.8,7.7-9.1,9.1
			C25.8,48,26.7,50.4,28.6,49.7L28.6,49.7z M53.4,49.7c6.4-2.5,9.2-6.9,10.8-11.5c0.7-1.9-0.6-3.3-2.5-3.3c-2.9,0-7.2,0-10.2,0.1
			c-0.6,0-1.1,0.5-1.2,1.1c0,0.6,0.5,1.1,1.1,1.2c0,0,0.1,0,0.1,0c3.3-0.1,6.9-0.3,9.2-0.2c0.8,0,0.9,0.6,0.7,1.2
			c-1.4,4.3-4.8,7.7-9.1,9.1C50.6,48,51.5,50.4,53.4,49.7L53.4,49.7z M89,34.7c0.8,0.8,2.1-0.7,1.1-1.6c-0.7-0.5-1.6-0.9-2.5-1.2
			c-1.1-0.3-1.9,1.2-0.7,1.6C87.7,33.8,88.4,34.2,89,34.7L89,34.7z M86.9,36.9c0.8,0.9,2.1-0.6,1.1-1.6c-0.7-0.6-1.5-1-2.4-1.3
			c-1.1-0.3-2,1.1-0.8,1.6C85.6,35.9,86.3,36.3,86.9,36.9L86.9,36.9z M81.6,40.7c1.6,0.4,3.1,1,4.5,1.9c1.3,1,2.6-1,1.4-2
			c-1.2-1.1-4.2-1.8-5.5-2c-0.1,0-0.3,0-0.4,0c0-2.2,0-4.2,0.1-5.4c0-0.7-0.6-1.2-1.2-1.2c-0.6,0-1.1,0.5-1.2,1.1
			c0.1,3.3,0,12.3-0.1,16c-0.1,0.7,0.5,1.3,1.2,1.3c0.7,0.1,1.3-0.5,1.3-1.2c0-0.1,0-0.2,0-0.3C81.5,47.2,81.5,43.9,81.6,40.7
			L81.6,40.7z M114.3,41.8c0.6,0,1.1-0.4,1.2-1c0,0,0-0.1,0-0.1c0-0.6-0.5-1.1-1.1-1.1c0,0-0.1,0-0.1,0H99.9c-0.6,0-1.2,0.5-1.2,1.1
			c0,0,0,0,0,0c0,0.6,0.5,1.1,1.1,1.1c0,0,0.1,0,0.1,0H114.3z M133.6,40.1c1.8,0,3.5,0,5.2,0.1c0.7,0.1,1.3-0.3,1.4-1
			c0,0,0-0.1,0-0.1c0-0.6-0.4-1.1-1.3-1.2c-1.7,0-3.5,0-5.3,0c0-1.1,0-2.2-0.1-3.5c-0.1-1.4-2.5-1.6-2.4,0.2c0,0.8,0.1,2.1,0.1,3.4
			c-2.2,0-4.3,0.1-6.3,0.1c-0.6-0.1-1.2,0.4-1.2,1c-0.1,0.6,0.4,1.2,1,1.2c0.1,0,0.2,0,0.4,0c2.1-0.1,4.2-0.2,6.3-0.2
			c-0.1,3.6-2.5,6.8-6,7.9c-1.5,0.5-0.8,2.8,1.1,2.1C130.6,48.5,133.5,44.6,133.6,40.1z M158.2,41.5c2.3,0,4.3,0,5.6,0.1
			c0.6,0.1,1.1-0.3,1.2-0.8s-0.3-1.1-0.8-1.2c-0.1,0-0.2,0-0.3,0c-1.1,0-3.2,0-5.6,0c0-1.1,0-2.3,0-3.2c0.9-0.2,1.9-0.5,2.8-0.8
			c1.3-0.4,0.8-2.8-1.1-2c-2.7,1-5.5,1.5-8.4,1.5c-1.7-0.1-1.7,2.1,0,2.1c1.5,0,3-0.1,4.5-0.4c0,0.8,0,1.8,0,2.8
			c-2.6,0-5.1,0-6.8,0.1c-0.6,0-1.1,0.4-1.1,1s0.4,1.1,1,1.1c0,0,0.1,0,0.1,0c1.8,0,4.3-0.1,6.8-0.1c-0.4,3.2-2.6,5.8-5.7,6.6
			c-1.7,0.4-1.1,2.9,1.2,2.1C155.3,49,157.9,45.6,158.2,41.5L158.2,41.5z M182.5,45.9c0.3-1,0.6-2.2,0.8-3.2c0.3-0.9-0.1-1.9-1-2.2
			c-0.2-0.1-0.5-0.1-0.7-0.1c-1.1,0-3.2-0.1-5.3,0c-0.5,0-1,0.5-1,1c0,0.5,0.5,1,1,1c0,0,0.1,0,0.1,0c1.5-0.1,3.1,0,4,0
			c0.4,0,0.5,0.2,0.5,0.5c-0.1,0.7-0.4,2-0.7,3.1c-2.3,0-4.6,0-6.1,0.1c-0.6,0-1,0.5-1,1.1c0,0.6,0.5,1,1.1,1c3-0.2,7.6-0.2,11-0.1
			c0.6,0,1-0.4,1.1-0.9c0-0.6-0.4-1-0.9-1.1c0,0-0.1,0-0.1,0C184.4,45.9,183.5,45.9,182.5,45.9z M205.6,36.5c1,0.1,2,0.4,2.8,0.9
			c2.3,1.5,2.9,4.6,1.4,6.9c0,0.1-0.1,0.1-0.1,0.2c-1.1,1.3-2.6,2.3-4.3,2.6c-2,0.5-1.3,2.8,0.8,2.2c2.3-0.5,4.3-1.9,5.6-3.8
			c2-3.3,1.4-7.5-2.1-9.6c-3.1-1.7-7-1.5-9.9,0.5c-3.1,2.1-4.6,6.4-3.2,9.2c1,2,2.9,2.9,4.7,1.2c2.4-2.6,4-5.8,4.6-9.3
			C206,37.1,205.8,36.7,205.6,36.5L205.6,36.5z M203.7,36.6c-0.1,0.2-0.2,0.5-0.2,0.7c-0.2,2.5-1.8,6.1-3.6,7.6
			c-0.6,0.5-1.2,0.2-1.5-0.5c-1-1.8,0.2-4.8,2.3-6.5C201.7,37.3,202.7,36.8,203.7,36.6L203.7,36.6z M43.3,72.9
			c-0.7,0-1.2,0.5-1.2,1.2c0,0.7,0.5,1.2,1.2,1.2c0.1,0,0.2,0,0.3,0h0.2c1.5-0.2,2.8,0.9,3,2.3c0,0.2,0,0.5,0,0.7
			c0,1.8-1.5,3.2-3.3,3.1c0,0,0,0,0,0c-1.3,0.1-2.6-0.5-3.3-1.6c-0.2-0.3-0.5-0.4-0.9-0.4c-0.7,0-1.3,0.6-1.4,1.4
			c0,1.1,2.1,3.1,5.5,3.1c3.5,0,5.9-2.3,5.9-5.5c0-1.9-1-3.6-2.7-4.4c1.2-0.7,1.9-2,1.9-3.4c0-2.6-1.9-4.4-4.8-4.4
			c-2,0-4.6,1.3-4.6,2.6c0,0.7,0.6,1.2,1.3,1.3c0.3,0,0.6-0.1,0.8-0.3c0.6-0.7,1.5-1.2,2.4-1.2c1.2-0.1,2.3,0.8,2.4,2c0,0,0,0,0,0.1
			c0.1,1.1-0.6,2.1-1.8,2.3c-0.1,0-0.2,0-0.3,0L43.3,72.9z M75.1,80c2.8-2.3,3.7-5.6,1.3-8.2c-2.1-2.2-5.6-2.2-8.2-1.6
			C65.7,71,63.3,71.9,61,73c-0.7,0.2-1,1-0.8,1.6c0.2,0.7,1,1,1.6,0.8c0.1,0,0.2-0.1,0.3-0.2c1.1-0.5,2.2-1.1,3.2-1.6
			c1.1-0.5,2.2-1,3.3-1.4c2.1-0.6,4.7-0.7,6.1,1c1.1,1.2,0.9,3.1-1,4.8c-1.9,1.6-4.3,2.5-6.7,2.7c-1.8,0.3-1.7,2.8,0.5,2.4
			C70.2,82.9,72.9,81.8,75.1,80L75.1,80z M94.6,70.6c1,0.1,2,0.4,2.8,0.9c2.3,1.5,2.9,4.6,1.4,6.9c0,0.1-0.1,0.1-0.1,0.2
			c-1.1,1.3-2.6,2.3-4.3,2.6c-2,0.5-1.3,2.8,0.8,2.2c2.3-0.5,4.3-1.9,5.6-3.8c2-3.3,1.4-7.5-2.1-9.6c-3.1-1.7-7-1.5-9.9,0.5
			c-3.1,2.1-4.6,6.4-3.2,9.2c1,2,2.9,2.9,4.7,1.2c2.4-2.6,4-5.8,4.6-9.3C95,71.3,94.9,70.9,94.6,70.6L94.6,70.6z M92.8,70.7
			c-0.1,0.2-0.2,0.5-0.2,0.7c-0.2,2.5-1.8,6.1-3.6,7.6c-0.6,0.5-1.2,0.2-1.5-0.5c-1-1.8,0.2-4.8,2.3-6.5
			C90.7,71.4,91.7,71,92.8,70.7L92.8,70.7z M120,75.7c2.3,0,4.3,0,5.6,0.1c0.6,0.1,1.1-0.3,1.2-0.8c0.1-0.6-0.3-1.1-0.8-1.2
			c-0.1,0-0.2,0-0.3,0c-1.1,0-3.2,0-5.6,0c0-1.1,0-2.3,0-3.2c0.9-0.2,1.9-0.5,2.8-0.8c1.3-0.4,0.8-2.8-1.1-2c-2.7,1-5.5,1.5-8.4,1.5
			c-1.7-0.1-1.7,2.1,0,2.1c1.5,0,3-0.1,4.5-0.4c0,0.8,0,1.8,0,2.8c-2.6,0-5.1,0-6.8,0.1c-0.6,0-1.1,0.4-1.1,1c0,0.6,0.4,1.1,1,1.1
			c0,0,0.1,0,0.1,0c1.8,0,4.3-0.1,6.8-0.1c-0.4,3.2-2.6,5.8-5.7,6.6c-1.7,0.4-1.1,2.9,1.2,2.1C117,83.2,119.7,79.7,120,75.7
			L120,75.7z M144.2,80c0.3-1,0.6-2.2,0.8-3.2c0.3-0.9-0.1-1.9-1-2.2c-0.2-0.1-0.5-0.1-0.7-0.1c-1.1,0-3.2-0.1-5.3,0
			c-0.5,0-1,0.5-1,1c0,0.5,0.5,1,1,1c0,0,0.1,0,0.1,0c1.5-0.1,3.1,0,4,0c0.4,0,0.5,0.2,0.5,0.6c-0.1,0.7-0.4,2-0.7,3
			c-2.3,0-4.6,0-6.1,0.1c-0.6,0-1,0.5-1,1.1c0,0.6,0.5,1,1.1,1l0,0c3-0.2,7.6-0.2,11-0.1c0.6,0,1-0.4,1.1-0.9c0-0.6-0.4-1-0.9-1.1
			c0,0-0.1,0-0.1,0C146.2,80,145.2,80,144.2,80L144.2,80z M172.5,75.9c0.6,0,1.1-0.4,1.2-1c0,0,0-0.1,0-0.1c0-0.6-0.5-1.1-1.1-1.1
			c0,0-0.1,0-0.1,0h-14.4c-0.6,0-1.2,0.5-1.2,1.1c0,0,0,0,0,0c0,0.6,0.5,1.1,1.1,1.1c0,0,0.1,0,0.1,0L172.5,75.9z"/>
	</g>
</g>
</svg>
