<?xml version="1.0" encoding="utf-8"?>
<!-- Generator: Adobe Illustrator 24.2.0, SVG Export Plug-In . SVG Version: 6.00 Build 0)  -->
<svg version="1.1" id="レイヤー_1" xmlns="http://www.w3.org/2000/svg" xmlns:xlink="http://www.w3.org/1999/xlink" x="0px"
	 y="0px" viewBox="0 0 596 84" style="enable-background:new 0 0 596 84;" xml:space="preserve">
<g id="グループ_1203" transform="translate(-387.853 -2242.366)">
	<path id="パス_2182" d="M573.7,2256.3c0.4,0.3,0.8,0.6,1.1,0.9c0.9,1,2.2-0.6,1.2-1.5c-0.6-0.5-1.3-1-2-1.3
		c0-0.6-0.1-1.2-0.1-1.6c0-0.9-0.1-2.3-0.1-3.7c0.4-0.1,0.9-0.2,1.3-0.3c1.5-0.4,0.8-2-0.4-1.7c-0.3,0.1-0.6,0.2-0.9,0.3
		c0-0.9,0-1.6,0.1-2.1c0.1-1-1.7-1.1-1.7,0c0,0.6,0,1.5,0,2.5c-0.8,0.2-1.7,0.2-2.5,0.1c-0.5-0.2-1,0.1-1.1,0.5
		c-0.2,0.5,0.1,1,0.5,1.1c0.1,0,0.1,0,0.2,0c1,0.1,2,0,3-0.1c0.1,1.4,0.1,2.8,0.1,3.5c0,0.3,0.1,0.6,0.1,0.9
		c-1.1-0.3-2.2-0.2-3.2,0.2c-1.1,0.3-1.7,1.5-1.3,2.6c0.2,0.5,0.6,1,1.1,1.2C570.6,2258.7,572.8,2258.1,573.7,2256.3
		C573.7,2256.3,573.7,2256.3,573.7,2256.3z M564.8,2258c0.4-0.4,0.2-0.9,0.4-1.4c0.1-0.3,0.2-0.7,0.3-1.1c0.2-0.5,0.3-1,0.6-1.4
		c0.6-1.3-0.7-2-1.1-1.1c0,0.1-0.2,0.4-0.2,0.5c-0.2,0.4-0.2,0.3-0.2,0c0-1.3,0.1-2.5,0.3-3.8c0.2-1.5,0.5-3.1,0.7-3.9
		c0-0.5-0.3-0.9-0.8-1c-0.5,0-0.9,0.3-1,0.8c0,0,0,0.1,0,0.1c-0.1,1.2-0.5,3.2-0.7,5.4c-0.3,2.1-0.2,4.3,0.3,6.3
		C563.6,2258.4,564.4,2258.5,564.8,2258z M572.1,2255.4c-0.4,1-1.5,1.4-2.4,1c-0.1,0-0.1-0.1-0.2-0.1c-0.3-0.2-0.4-0.6-0.2-0.8
		c0.1-0.1,0.2-0.2,0.3-0.2C570.5,2255,571.3,2255.1,572.1,2255.4L572.1,2255.4z M593.3,2247.4c0.7,0.7,1.8-0.5,1-1.3
		c-0.6-0.5-1.2-0.9-2-1.1c-0.9-0.3-1.7,0.9-0.6,1.3C592.3,2246.6,592.9,2246.9,593.3,2247.4z M591.4,2249.1c0.6,0.8,1.8-0.4,1-1.2
		c-0.6-0.5-1.2-0.9-1.9-1.2c-0.9-0.3-1.7,0.8-0.7,1.2C590.4,2248.2,590.9,2248.6,591.4,2249.1z M594.1,2256.1c0.4-0.3,0.5-1,0.2-1.4
		c-0.3-0.4-1-0.5-1.4-0.2c0,0,0,0-0.1,0c-3.1,2.5-6.3,2.6-6.4,0c0-1.8,0.1-3.5,0.3-5.3c0.1-1.2,0.2-2.9,0.3-4.1c0-0.5-0.5-1-1-0.9
		c-0.5,0-0.9,0.4-0.9,1c0,1.1-0.1,2.9-0.1,4.1c-0.1,1.9-0.3,3.4-0.2,5.3C584.8,2259.5,590.6,2258.9,594.1,2256.1L594.1,2256.1z
		 M607.4,2254.1c0.1,0,0.1,0.1,0.1,0.1c0.4,0.3,0.9,0.2,1.2-0.2c0.3-0.3,0.2-0.8-0.1-1.1c0,0,0,0,0,0c-0.1-0.1-0.2-0.1-0.2-0.2
		c0.7-1.1,1.3-2.4,1.8-3.6c0.1-0.2,0.1-0.4,0.2-0.5c1.2,0.3,2.1,1.2,2.3,2.4c0.4,1.7-0.3,3.8-3.4,4.7c-1.6,0.5-0.7,2.2,0.7,1.7
		c3.1-1.1,5.3-3.6,4.4-6.9c-0.5-1.7-1.9-3-3.6-3.3c0.1-0.6,0.2-1.3,0.3-1.9c0.1-1.3-1.8-1.5-1.8-0.2c0,0.7-0.1,1.3-0.2,1.9
		c-1.1,0-2.1,0.3-3.1,0.8c-0.1,0.1-0.2,0.1-0.4,0.2c0-0.1-0.1-0.3-0.1-0.4c-0.1-0.5-0.1-1-0.2-1.5c-0.1-1.3-2.1-1.3-1.8,0.2
		c0.1,0.4,0.3,1.2,0.3,1.6c0.1,0.4,0.2,0.8,0.3,1.2c-1.5,1.3-2.2,3.2-2,5.1c0.5,2.3,2.4,3.1,4.5,0.8
		C606.9,2254.7,607.1,2254.4,607.4,2254.1L607.4,2254.1z M608.6,2248.4c0,0.1-0.1,0.2-0.1,0.3c-0.4,1-0.8,2-1.4,2.9
		c-0.5-0.7-0.9-1.4-1.2-2.2c0.2-0.1,0.3-0.2,0.5-0.3C607.1,2248.7,607.9,2248.5,608.6,2248.4L608.6,2248.4z M606.2,2253
		c-0.3,0.4-0.6,0.7-0.9,1c-0.5,0.5-1.4,0.9-1.6-0.5c-0.1-1.1,0.3-2.2,1-3C605.1,2251.4,605.6,2252.3,606.2,2253z M631.1,2258.1
		c1.9,0,1.8-2.1-0.1-2c-4,0.1-5.2-3.6-3.7-6.3c0.5-0.9,1.3-1.7,2.3-2.1c0.9-0.3,1.8-0.5,2.7-0.5c1.3,0.1,1.7-0.3,1.8-0.6
		c0.2-0.6-0.1-1.2-0.7-1.4c-0.2-0.1-0.4-0.1-0.6,0c-1.7,0.2-3.3,0.5-4.9,1.1c-1.8,0.5-3.4,0.9-4.3,1.1c-0.6,0.1-1.6,0.3-2,0.4
		c-1.4,0.3-1,2.4,0.6,1.9c0.5-0.1,1-0.3,1.6-0.5c1.2-0.5,0.9-0.5,2.3-0.9c0.3-0.1,0.4-0.1,0.1,0.3c-0.2,0.3-0.4,0.6-0.6,0.9
		C623.8,2253.1,625.7,2258.1,631.1,2258.1z M646.8,2247.6c0.8,0,1.6,0.3,2.2,0.7c1.8,1.2,2.3,3.6,1.1,5.4c0,0-0.1,0.1-0.1,0.1
		c-0.8,1.1-2,1.8-3.3,2c-1.5,0.4-1,2.2,0.6,1.8c1.8-0.4,3.3-1.5,4.4-3c1.7-2.4,1-5.7-1.4-7.4c-0.1-0.1-0.2-0.1-0.3-0.2
		c-2.5-1.3-5.5-1.2-7.8,0.4c-2.4,1.7-3.6,5-2.5,7.3c0.8,1.5,2.3,2.2,3.7,1c1.9-2,3.2-4.6,3.6-7.3
		C647.1,2248.2,647,2247.8,646.8,2247.6z M645.3,2247.7c-0.1,0.2-0.2,0.4-0.2,0.6c-0.3,2.2-1.3,4.3-2.8,6c-0.4,0.4-0.9,0.1-1.2-0.4
		c-0.8-1.4,0.1-3.8,1.8-5.1C643.7,2248.3,644.5,2247.9,645.3,2247.7L645.3,2247.7z M672,2247.3c0.4,0,0.8-0.3,0.8-0.7
		c0,0,0-0.1,0-0.1c0-0.4-0.3-0.8-0.8-0.8c0,0,0,0-0.1,0h-5.7v-1.7c0-0.5-0.4-0.8-0.9-0.8c0,0,0,0-0.1,0c-0.5,0-0.9,0.3-0.9,0.8
		c0,0,0,0,0,0.1v1.7h-5.8c-0.5,0-0.8,0.4-0.8,0.9c0,0,0,0,0,0c0,0.4,0.3,0.8,0.7,0.8c0,0,0.1,0,0.1,0h0l5.5,0
		c-0.3,4-2.1,7.8-6.2,9.8c-0.3,0.1-0.6,0.4-0.6,0.8c0,0.5,0.5,0.9,1,0.9c0.2,0,0.4,0,0.5-0.1c3.2-1.6,5.5-4.5,6.5-7.9h2.8
		c0.3,0,0.6,0.2,0.7,0.5c0,0,0,0.1,0,0.1c0,5.2-2,5.6-2.9,5.6c-0.6,0-1.2-0.2-1.8-0.4c-0.1,0-0.2-0.1-0.3-0.1c-0.5,0-0.9,0.5-0.8,1
		c0,0.4,0.2,0.7,0.5,0.8c0.8,0.3,1.6,0.4,2.4,0.4c2.9,0,4.6-2,4.7-7.5v-0.1c0.1-1-0.6-1.8-1.6-1.9c-0.1,0-0.2,0-0.3,0
		c-1,0-2.1,0-3,0c0.1-0.7,0.2-1.3,0.3-2L672,2247.3z M689.6,2248.9c0.5,0.1,1-0.1,1.1-0.6c0.1-0.5-0.1-1-0.6-1.1c-0.1,0-0.1,0-0.2,0
		c-1.6-0.3-3.2-0.3-4.7,0.1c-0.5,0.1-0.8,0.5-0.7,0.9c0.1,0.5,0.5,0.8,0.9,0.7c0,0,0,0,0.1,0
		C686.8,2248.6,688.2,2248.6,689.6,2248.9z M690.6,2257.1c1.2-0.3,1.1-2.2-0.4-1.9c-1.4,0.3-3.6,0.6-4.5-0.3c-0.3-0.4-0.9-0.4-1.3,0
		s-0.4,0.9,0,1.3C685.7,2257.5,688.6,2257.6,690.6,2257.1z M681,2257.9c0.5-0.4,0.2-1,0.3-1.4c0.2-0.9,0.6-1.7,1.1-2.5
		c0.2-0.4,0-0.8-0.3-1c-0.3-0.2-0.8-0.1-1,0.3c-0.1,0.1-0.3,0.5-0.3,0.6c-0.1,0.2-0.1,0.2-0.2,0c-0.4-1.7,0.6-5.9,0.9-7.4
		c0-0.5-0.3-0.9-0.8-0.9c-0.5,0-0.9,0.3-0.9,0.8c0,0,0,0,0,0c-0.3,2.1-1.7,7.5-0.3,11C679.9,2258.3,680.6,2258.3,681,2257.9z
		 M709.8,2258c1,0,1.9-0.8,1.9-1.9c0,0,0-0.1,0-0.1c0.1-1.3,0.1-2.8,0.1-4.2c0-1.4,0-2.9-0.1-4.1c0-1-0.8-1.9-1.8-1.9
		c0,0-0.1,0-0.1,0c-0.5,0-1,0-1.5,0c-1.6,0-3,0-3.1,1.8c0,1.3-0.1,2.8-0.1,4.3c0,1.5,0,2.9,0.1,4.3c0.1,2,1.5,2,3.3,2
		C708.9,2258,709.4,2258,709.8,2258z M703.9,2251.5c0.4,0,0.8-0.3,0.8-0.7c0,0,0,0,0-0.1c0-0.4-0.3-0.8-0.7-0.8c0,0,0,0-0.1,0h-2.1
		c0-0.8,0-1.9,0-2.7l1.7,0h0c0.4,0,0.7-0.3,0.8-0.7c0,0,0,0,0-0.1c0-0.4-0.3-0.8-0.7-0.8c0,0,0,0-0.1,0h-3.7
		c0.2-0.6,0.4-1.2,0.5-1.8c0-0.4-0.5-0.7-1-0.7c-0.3,0-0.7,0.2-0.7,0.5c-0.2,1.6-0.8,3.2-1.7,4.6c-0.1,0.2-0.2,0.4-0.2,0.6
		c0,0.4,0.4,0.7,0.8,0.7c0.6,0,1-0.4,1.8-2.2l0.8,0v2.7h-2.6c-0.4,0-0.8,0.3-0.8,0.8c0,0,0,0,0,0c0,0.4,0.3,0.7,0.7,0.8
		c0,0,0.1,0,0.1,0h2.6c-0.1,2.4-1.4,4.5-3.5,5.7c-0.3,0.1-0.5,0.4-0.5,0.7c0,0.5,0.4,0.9,0.9,0.8c0.2,0,0.5-0.1,0.6-0.2
		c1.5-0.9,2.7-2.3,3.4-4c0.8,0.7,1.5,1.4,2,2.3c0.1,0.3,0.4,0.5,0.7,0.5c0.5,0,0.9-0.5,1-1c0-1-2.2-2.6-3.2-3.3
		c0.1-0.5,0.2-1,0.2-1.5L703.9,2251.5z M710,2255.5c0,0.7-0.4,0.9-1.5,0.9c-1.4,0-1.6-0.2-1.7-0.8c-0.1-1.2-0.1-2.6-0.1-4
		c0-1.3,0-2.6,0.1-3.6c0-0.6,0.1-0.8,1.6-0.8c1.4,0,1.5,0.2,1.5,0.8c0,1.1,0.1,2.4,0.1,3.7C710.1,2253.1,710,2254.4,710,2255.5z
		 M727.5,2256.2c1.6-1.4,2.2-3.4,0.7-4.9c-1.3-1.3-3.3-1.3-4.8-0.9c-1.4,0.4-2.8,0.9-4.1,1.5c-0.5,0.2-0.7,0.7-0.5,1.2
		c0.2,0.5,0.7,0.7,1.2,0.5c0,0,0.1,0,0.1-0.1c1.2-0.6,2.4-1.2,3.7-1.7c1.2-0.3,2.6-0.4,3.4,0.5c0.5,0.6,0.5,1.6-0.6,2.6
		c-1.1,0.9-2.4,1.4-3.8,1.5c-1.2,0.2-1.1,1.9,0.3,1.7C724.6,2257.9,726.2,2257.2,727.5,2256.2z M746.1,2258.1c1.9,0,1.8-2.1-0.1-2
		c-4,0.1-5.2-3.6-3.7-6.3c0.5-0.9,1.3-1.7,2.3-2.1c0.9-0.3,1.8-0.5,2.7-0.5c1.3,0.1,1.7-0.3,1.8-0.6c0.2-0.6-0.1-1.2-0.7-1.4
		c-0.2-0.1-0.4-0.1-0.6,0c-1.7,0.2-3.3,0.5-4.9,1.1c-1.8,0.5-3.4,0.9-4.3,1.1c-0.6,0.1-1.6,0.3-2,0.4c-1.4,0.3-1,2.4,0.6,1.9
		c0.5-0.1,1-0.3,1.6-0.5c1.2-0.5,0.9-0.5,2.3-0.9c0.3-0.1,0.4-0.1,0.1,0.3c-0.2,0.3-0.4,0.6-0.6,0.9
		C738.8,2253.1,740.7,2258.1,746.1,2258.1z M767.1,2246.4c1.4-0.4,0.8-1.9-0.3-1.6c-1.5,0.4-3,0.6-4.5,0.6c-0.4-0.1-0.9,0.1-1,0.5
		c-0.1,0.4,0.1,0.9,0.5,1c0,0,0.1,0,0.1,0C763.6,2247.1,765.4,2247,767.1,2246.4z M766.4,2256.1c0.4,0.3,0.7,0.6,1.1,0.9
		c0.9,1,2-0.6,1.2-1.4c-0.6-0.6-1.3-1-2.1-1.4c0-0.3-0.1-0.7-0.1-1c-0.1-0.8-0.1-1.7,0-2.6c0.5-0.1,0.9-0.3,1.4-0.5
		c1.3-0.6,0.4-2-0.6-1.5c-0.2,0.1-0.5,0.2-0.7,0.3c0-0.5,0-0.9-0.2-1.4c-0.3-0.8-1.9-0.6-1.7,0.3c0.1,0.5,0.2,1,0.3,1.5
		c-1,0.3-2,0.4-3,0.2c-0.4-0.2-0.9,0-1.1,0.4c-0.2,0.4,0,0.9,0.4,1.1c0,0,0.1,0,0.1,0c1.2,0.2,2.4,0.2,3.6-0.1c0,0.8,0,1.4,0.1,2.3
		c0,0.1,0,0.2,0,0.3c-1-0.2-2.1-0.1-3.1,0.3c-1,0.3-1.6,1.3-1.3,2.3c0.2,0.6,0.6,1.1,1.2,1.3c1.6,0.9,3.6,0.3,4.5-1.3
		C766.3,2256.3,766.4,2256.2,766.4,2256.1z M757.8,2258c0.3-0.3,0.2-1,0.3-1.4c0.2-1,0.5-2,1-2.9c0.5-0.8-0.8-1.7-1.3-0.7
		c-0.1,0.2-0.2,0.3-0.2,0.4c-0.2,0.5-0.3,0.3-0.3-0.2c0-1.6,0.2-3.2,0.7-4.8c0.2-0.9,0.4-1.8,0.5-2.5c0.2-1.1-1.6-1.3-1.8-0.1
		c-0.1,0.9-0.3,1.7-0.4,2.6c-0.4,2.2-1,5.7,0.1,9C756.6,2258.4,757.4,2258.4,757.8,2258z M764.8,2255.4c-0.3,0.9-1.3,1.3-2.1,1
		c-0.1,0-0.2-0.1-0.3-0.2c-0.3-0.1-0.4-0.4-0.3-0.7c0.1-0.2,0.2-0.3,0.3-0.3c0.8-0.3,1.7-0.3,2.5,0L764.8,2255.4z M786.9,2256.1
		c0.4-0.3,0.5-1,0.2-1.4c-0.3-0.4-1-0.5-1.4-0.2c0,0,0,0-0.1,0c-3.1,2.5-6.3,2.6-6.4,0c0-1.8,0.1-3.5,0.3-5.3
		c0.1-1.2,0.2-2.9,0.3-4.1c0-0.5-0.5-1-1-0.9c-0.5,0-0.9,0.4-0.9,1c0,1.1-0.1,2.9-0.1,4.1c-0.1,1.9-0.3,3.4-0.2,5.3
		C777.6,2259.5,783.4,2258.9,786.9,2256.1z M807.2,2252.2c-0.4-1.7-1.3-3.2-2.7-4.2c-1.1-0.8-2.1,0.5-1.2,1.1c1.1,0.9,1.8,2.1,2,3.5
		c0.1,0.5,0.6,0.8,1.2,0.7C807,2253.2,807.3,2252.7,807.2,2252.2L807.2,2252.2L807.2,2252.2z M799.4,2255.2c0.3-0.4,0.5-0.9,0.7-1.4
		c0.1-0.5-0.1-1-0.6-1.1c-0.4-0.1-0.9,0.1-1,0.5c-0.2,0.4-0.4,0.7-0.6,1.1c-0.4,0.5-0.6,0.5-1.1,0c-1-1-1.4-2.8-1.4-4.6
		c0-0.8,0-0.9,0-1.6c0-0.5-0.4-0.9-0.9-0.9c-0.5,0-0.9,0.4-0.9,0.9l0,0c0,0.7,0,1.3,0.1,2c0,2.1,0.7,4.1,2,5.8
		C796.6,2256.9,798.2,2257,799.4,2255.2L799.4,2255.2z"/>
	<path id="パス_2181" d="M402.7,2297.2c0-1-0.8-1.8-1.8-1.8c0,0-0.1,0-0.1,0c-1-0.1-1.9,0.7-2,1.7c0,0.1,0,0.1,0,0.2
		c0,0.9,0,3.1,0,4.6c-1.7,0-3.3,0-4.8,0.1c-1.5,0-4.8,0.9-4.7,4.2c0,1.9,0,4.4,0,5.5c0,2.4,4,2.2,4-0.2c0-1.1-0.1-3.5-0.1-4.4
		c-0.1-1,0.7-1.8,1.7-1.9c0,0,0,0,0,0c2.2-0.1,8.1-0.2,11.2,0c0.9-0.1,1.7,0.6,1.8,1.6c0,0.2,0,0.3,0,0.5
		c-0.3,5.9-4.5,12.5-13.4,14.2c-2.9,0.6-1.7,4.4,1,3.7c11.4-2.9,16.2-10.9,16.7-19c0.2-2.8-1.9-4.2-4.6-4.3c-1.5,0-3.2-0.1-5-0.1
		L402.7,2297.2z M435,2324.3c10.6-4.1,15.3-11.4,17.9-19c1.1-3.1-1.1-5.4-4.1-5.5c-4.8-0.1-11.9,0-16.9,0.2c-1,0-1.9,0.8-1.9,1.8
		c0,1,0.8,1.9,1.8,1.9c0.1,0,0.1,0,0.2,0c5.5-0.2,11.5-0.4,15.2-0.3c1.4,0,1.5,1,1.2,2c-2.3,7.2-7.9,12.8-15.1,15.2
		C430.3,2321.5,431.7,2325.5,435,2324.3z M476,2324.3c10.6-4.1,15.3-11.4,17.9-19c1.1-3.1-1.1-5.4-4.1-5.5c-4.8-0.1-11.9,0-16.9,0.2
		c-1,0-1.9,0.8-1.9,1.8c0,1,0.8,1.9,1.8,1.9c0.1,0,0.1,0,0.2,0c5.5-0.2,11.5-0.4,15.2-0.3c1.4,0,1.5,1,1.2,2
		c-2.3,7.2-7.9,12.8-15.1,15.2C471.4,2321.5,472.8,2325.5,476,2324.3L476,2324.3z M535,2299.4c1.4,1.4,3.5-1.2,1.8-2.7
		c-1.2-0.9-2.6-1.6-4.1-2c-1.9-0.5-3.2,2-1.1,2.6C532.8,2297.9,533.9,2298.6,535,2299.4L535,2299.4z M531.6,2303.1
		c1.4,1.4,3.5-1,1.9-2.6c-1.2-0.9-2.5-1.7-4-2.1c-1.9-0.6-3.3,1.9-1.3,2.6C529.4,2301.5,530.5,2302.2,531.6,2303.1L531.6,2303.1z
		 M522.7,2309.5c2.6,0.6,5.1,1.6,7.4,3.1c2.2,1.6,4.3-1.7,2.4-3.4c-2.1-1.7-7-3-9.1-3.3c-0.2,0-0.4,0-0.6,0c0-3.7,0.1-7,0.1-8.9
		c0.1-2.6-4-2.6-4,0c0.2,5.5,0,20.4-0.2,26.5c-0.2,3,4.2,2.9,4.1-0.2C522.6,2320.2,522.6,2314.7,522.7,2309.5L522.7,2309.5z
		 M576.9,2311.2c1,0.1,1.9-0.7,1.9-1.7c0,0,0-0.1,0-0.1c0-1-0.8-1.9-1.8-1.9c-0.1,0-0.1,0-0.2,0H553c-1.1,0-2,0.8-2,1.9
		c0,0,0,0.1,0,0.1c0,1,0.8,1.8,1.8,1.8c0.1,0,0.1,0,0.2,0H576.9z M608.9,2308.4c2.9,0,5.9,0,8.7,0.2c1.1,0.2,2.1-0.6,2.3-1.7
		c0-0.1,0-0.1,0-0.2c0-1-0.6-1.9-2.2-1.9c-2.8,0-5.8,0-8.9,0c0-1.8,0-3.6-0.2-5.9s-4.1-2.6-4,0.3c0,1.3,0.1,3.4,0.2,5.6
		c-3.6,0-7.1,0.1-10.5,0.2c-3,0.1-2.6,3.8,0.1,3.6c3.4-0.1,6.9-0.3,10.4-0.3c-0.3,5.5-3.3,10.6-9.9,13c-2.5,0.9-1.4,4.7,1.8,3.4
		C604.6,2321.8,608.7,2315.5,608.9,2308.4z M649.7,2310.8c3.8,0,7.2,0,9.3,0.1c2.7,0.1,2.7-3.4,0.1-3.4c-1.8,0-5.3-0.1-9.3-0.1
		c0-1.8,0-3.8,0-5.3c1.6-0.3,3.1-0.8,4.6-1.3c2.1-0.7,1.4-4.6-1.9-3.3c-3.1,1.3-10.1,2.7-13.9,2.5c-2.8-0.2-2.9,3.4-0.1,3.5
		c2.5,0,5-0.2,7.4-0.6c0,1.3,0,3,0,4.6c-4.3,0-8.5,0-11.3,0.1c-0.9,0-1.7,0.7-1.8,1.6s0.7,1.7,1.6,1.8c0.1,0,0.1,0,0.2,0
		c3-0.1,7.1-0.2,11.2-0.2c-0.5,3.6-3,9.3-9.5,11c-2.7,0.7-1.8,4.9,2.1,3.5C644.8,2323.2,649.2,2317.5,649.7,2310.8L649.7,2310.8z
		 M689.9,2318c0.5-1.6,1-3.6,1.4-5.3c0.4-2-0.4-3.7-2.8-3.8c-1.9-0.1-5.4-0.2-8.7,0c-0.9,0-1.6,0.8-1.6,1.7c0,0.9,0.8,1.6,1.7,1.6
		c0.1,0,0.1,0,0.2,0c2.5-0.1,5.1-0.1,6.7-0.1c0.7,0,0.9,0.3,0.8,0.9c-0.2,1.2-0.7,3.3-1.2,5.1c-3.8,0-7.6,0.1-10.1,0.2
		c-0.9,0-1.7,0.8-1.6,1.7c0,0.9,0.8,1.7,1.7,1.6c0,0,0,0,0,0c5-0.3,12.6-0.3,18.2-0.1c0.9,0,1.7-0.7,1.8-1.6c0-0.9-0.7-1.7-1.6-1.8
		c0,0-0.1,0-0.1,0C693.1,2318.1,691.6,2318,689.9,2318z M728.1,2302.4c1.7,0.1,3.3,0.6,4.7,1.5c3.8,2.4,4.8,7.4,2.1,11.6
		c-1.3,2-4.2,3.6-7.1,4.3c-3.3,0.8-2.1,4.6,1.3,3.7c3.8-1,7.5-3.3,9.3-6.3c3.3-5.4,2.4-12.4-3.5-16c-4.8-2.9-11.7-2.4-16.4,0.9
		c-5.1,3.5-7.6,10.6-5.2,15.3c1.7,3.3,4.9,4.8,7.8,2.1c3.6-3.4,7.1-10.6,7.7-15.4C728.8,2303.5,728.6,2302.9,728.1,2302.4z
		 M725.1,2302.6c-0.2,0.4-0.3,0.8-0.3,1.2c-0.4,4.1-3,10.2-5.9,12.7c-1,0.8-1.9,0.3-2.5-0.8c-1.6-2.9,0.3-8,3.8-10.7
		C721.7,2303.8,723.3,2303,725.1,2302.6L725.1,2302.6z M766.3,2306.2c-1.1,0-2,0.9-2,2c0,1.1,0.9,2,2,2c0.2,0,0.3,0,0.6,0h0.3
		c2.7,0,5,1.2,5,5.1c-0.1,2.9-2.5,5.2-5.4,5.2c0,0,0,0,0,0c-2.6,0-3.8-0.7-5.6-2.6c-0.4-0.4-0.9-0.7-1.5-0.7
		c-1.2,0.1-2.2,1.1-2.2,2.3c0,1.8,3.4,5.1,9.1,5.1c5.7,0,9.8-3.8,9.8-9.2c0.1-3.1-1.7-6-4.5-7.3c2-1.1,3.2-3.3,3.1-5.6
		c0-4.3-3.1-7.3-7.9-7.3c-3.3,0-7.7,2.2-7.7,4.3c0.1,1.2,1,2.1,2.1,2.1c0.5,0,1-0.2,1.3-0.6c1-1.2,2.5-1.9,4-2c2,0,4,1.3,4,3.4
		c0,2.2-1.1,3.8-3.4,3.8L766.3,2306.2z M819,2318.1c4.7-3.9,6.2-9.3,2.1-13.6c-3.5-3.6-9.3-3.7-13.6-2.6c-4.1,1.2-8,2.7-11.9,4.4
		c-2.9,1.2-1.2,5.2,1.9,3.8c1.9-0.9,3.6-1.7,5.3-2.6c1.7-0.9,3.6-1.6,5.4-2.2c3.4-1,7.7-1.1,10.1,1.7c1.7,2,1.5,5.1-1.7,8
		c-2.7,2.4-6.4,3.8-11.2,4.4c-3,0.4-2.8,4.6,0.8,4C811.8,2322.5,815.9,2320.6,819,2318.1z M851.2,2302.4c1.7,0.1,3.3,0.6,4.7,1.5
		c3.8,2.4,4.8,7.4,2.1,11.6c-1.3,2-4.2,3.6-7.1,4.3c-3.3,0.8-2.1,4.6,1.3,3.7c3.8-1,7.5-3.3,9.3-6.3c3.3-5.4,2.4-12.4-3.5-16
		c-4.8-2.9-11.7-2.4-16.4,0.9c-5.1,3.5-7.6,10.6-5.2,15.3c1.7,3.3,4.9,4.8,7.8,2.1c3.6-3.4,7.1-10.6,7.7-15.4
		C851.9,2303.5,851.7,2302.9,851.2,2302.4z M848.2,2302.6c-0.2,0.4-0.3,0.8-0.3,1.2c-0.4,4.1-3,10.1-5.9,12.7
		c-0.9,0.8-1.9,0.3-2.5-0.8c-1.6-2.9,0.3-8,3.8-10.7C844.8,2303.8,846.5,2303,848.2,2302.6L848.2,2302.6z M893.3,2310.8
		c3.8,0,7.2,0,9.3,0.1c2.7,0.1,2.7-3.4,0.1-3.4c-1.8,0-5.3-0.1-9.3-0.1c0-1.8,0-3.8,0-5.3c1.6-0.3,3.1-0.8,4.6-1.3
		c2.1-0.7,1.4-4.6-1.9-3.3c-3.1,1.3-10.1,2.7-13.9,2.5c-2.8-0.2-2.9,3.4-0.1,3.5c2.5,0,5-0.2,7.4-0.6c0,1.3,0,3,0,4.6
		c-4.3,0-8.5,0-11.3,0.1c-0.9,0-1.7,0.7-1.8,1.6c0,0.9,0.7,1.7,1.6,1.8c0.1,0,0.1,0,0.2,0c3-0.1,7.1-0.2,11.2-0.2
		c-0.5,3.6-3,9.3-9.5,11c-2.7,0.7-1.8,4.9,2.1,3.5C888.4,2323.2,892.8,2317.5,893.3,2310.8L893.3,2310.8z M933.5,2318
		c0.5-1.6,1-3.6,1.4-5.3c0.4-2-0.4-3.7-2.9-3.8c-1.9-0.1-5.4-0.2-8.7,0c-0.9,0-1.6,0.8-1.6,1.7c0,0.9,0.8,1.6,1.7,1.6
		c0.1,0,0.1,0,0.2,0c2.5-0.1,5.1-0.1,6.7-0.1c0.7,0,0.9,0.3,0.8,0.9c-0.2,1.2-0.7,3.3-1.2,5.1c-3.8,0-7.6,0.1-10.1,0.2
		c-0.9,0-1.7,0.8-1.6,1.7s0.8,1.7,1.7,1.6c0,0,0,0,0,0c5-0.3,12.6-0.3,18.2-0.1c0.9,0,1.7-0.7,1.8-1.6c0-0.9-0.7-1.7-1.6-1.8
		c0,0-0.1,0-0.1,0C936.7,2318.1,935.2,2318,933.5,2318L933.5,2318z M980.4,2311.2c1,0.1,1.9-0.7,1.9-1.7c0,0,0-0.1,0-0.1
		c0-1-0.8-1.9-1.8-1.9c-0.1,0-0.1,0-0.2,0h-23.9c-1.1,0-2,0.8-2,1.9c0,0,0,0.1,0,0.1c0,1,0.8,1.8,1.8,1.8c0.1,0,0.1,0,0.2,0H980.4z"
		/>
</g>
</svg>
