<?xml version="1.0" encoding="utf-8"?>
<!-- Generator: Adobe Illustrator 24.2.0, SVG Export Plug-In . SVG Version: 6.00 Build 0)  -->
<svg version="1.1" id="グループ_686" xmlns="http://www.w3.org/2000/svg" xmlns:xlink="http://www.w3.org/1999/xlink" x="0px"
	 y="0px" viewBox="0 0 150 148" style="enable-background:new 0 0 150 148;" xml:space="preserve">
<style type="text/css">
	.st0{fill:#F8EEE4;}
</style>
<path id="パス_188" class="st0" d="M146.7,58.4c-3.9-16.5-18.5-41.2-35.2-47.6C80.1-1.5,67.9-1.6,44.4,9.6
	C7.7,27.2-1.5,67.9,1.7,87s13.6,36.5,35.6,49.7c29.3,17.6,51.6,8.5,72.5-3.1C131.6,121.5,156.3,107.5,146.7,58.4z M86,87.9
	c-10.1,5-14.7,2.1-22-1.6c-4.1-4.6-9.2-14.4-3.8-22.5c7.4-11,10.1-12,21.4-9.9c9.2,1.7,13.1,1.3,16.6,12.6
	C100.5,75.8,95,83.5,86,87.9z"/>
</svg>
