<?xml version="1.0" encoding="utf-8"?>
<!-- Generator: Adobe Illustrator 24.2.0, SVG Export Plug-In . SVG Version: 6.00 Build 0)  -->
<svg version="1.1" id="レイヤー_1" xmlns="http://www.w3.org/2000/svg" xmlns:xlink="http://www.w3.org/1999/xlink" x="0px"
	 y="0px" viewBox="0 0 1452 486" style="enable-background:new 0 0 1452 486;" xml:space="preserve">
<style type="text/css">
	.st0{fill:#EAE7D3;}
	.st1{fill:#EADFD3;}
</style>
<g id="グループ_1095" transform="translate(34.318 -3434.007)">
	<path id="パス_654" class="st0" d="M164.3,3512.4c-5.3-22.5-25.2-55.9-47.8-64.7c-42.7-16.6-59.2-16.8-91.1-1.6
		c-49.9,23.9-62.4,79.2-58,105.2c4.4,26,18.5,49.6,48.3,67.5c39.8,23.9,70.1,11.6,98.5-4.2C143.8,3598.2,171.6,3543.4,164.3,3512.4z
		 M92.9,3559.3c-13.7,6.7-25.6,7.5-45.9-16.1c-15.3-17.7-6.3-28.9,1-39.8c10.1-15,22.2-15.9,37.6-13.1c12.5,2.3,22.2,10.1,27,25.3
		C119.6,3538.6,105.1,3553.3,92.9,3559.3z"/>
	<g id="グループ_685" transform="translate(1274.543 3918.045) rotate(-120)">
		<path id="パス_188" class="st1" d="M162.4,64.4c-4.4-18.6-20.8-46.3-39.6-53.5C87.5-2.9,73.8-3.1,47.4,9.5
			C6.1,29.3-4.3,75-0.6,96.6s15.3,41.1,40,55.9c33,19.8,58.1,9.6,81.6-3.5C145.4,135.3,173.1,119.6,162.4,64.4z M94.1,97.6
			c-11.3,5.6-16.6,2.4-24.8-1.8C64.7,90.6,59,79.6,65,70.6c8.3-12.4,11.3-13.5,24.1-11.1c10.4,1.9,14.7,1.5,18.6,14.1
			C110.5,83.9,104.2,92.6,94.1,97.6L94.1,97.6z"/>
	</g>
</g>
</svg>
