<?xml version="1.0" encoding="utf-8"?>
<!-- Generator: Adobe Illustrator 24.2.0, SVG Export Plug-In . SVG Version: 6.00 Build 0)  -->
<svg version="1.1" id="グループ_688" xmlns="http://www.w3.org/2000/svg" xmlns:xlink="http://www.w3.org/1999/xlink" x="0px"
	 y="0px" viewBox="0 0 238 234" style="enable-background:new 0 0 238 234;" xml:space="preserve">
<style type="text/css">
	.st0{fill:#EAE7D3;}
</style>
<path id="パス_188" class="st0" d="M233.4,92.1c-6.2-26.4-29.6-65.6-56.1-75.9c-50.1-19.5-69.5-19.8-107-1.8
	C11.8,42.4-3,107.3,2.2,137.8S24,196,58.9,217c46.7,28.1,82.3,13.6,115.6-4.9C209.3,192.8,248.6,170.4,233.4,92.1z M136.5,139.2
	c-16.1,7.9-23.5,3.3-35.1-2.5c-6.5-7.4-14.6-23-6-35.8c11.8-17.6,16-19.1,34.2-15.8c14.7,2.7,20.9,2.1,26.4,20
	C159.7,119.9,150.8,132.1,136.5,139.2L136.5,139.2z"/>
</svg>
