<?xml version="1.0" encoding="utf-8"?>
<!-- Generator: Adobe Illustrator 24.2.0, SVG Export Plug-In . SVG Version: 6.00 Build 0)  -->
<svg version="1.1" id="グループ_687" xmlns="http://www.w3.org/2000/svg" xmlns:xlink="http://www.w3.org/1999/xlink" x="0px"
	 y="0px" viewBox="0 0 286 282" style="enable-background:new 0 0 286 282;" xml:space="preserve">
<style type="text/css">
	.st0{fill:#EADFD3;}
</style>
<path id="パス_188" class="st0" d="M280.9,111c-7.5-31.8-35.7-79.1-67.7-91.6c-60.4-23.5-83.8-23.8-129-2.2
	C13.7,51-4.1,129.3,2.2,166.1s26.2,70.2,68.4,95.6c56.4,33.9,99.3,16.4,139.5-5.9C251.9,232.4,299.3,205.4,280.9,111z M164.1,167.8
	c-19.4,9.5-28.3,4-42.4-3c-7.9-8.9-17.6-27.8-7.3-43.2c14.3-21.2,19.3-23,41.2-19c17.7,3.3,25.2,2.6,31.9,24.2
	C192.1,144.5,181.4,159.3,164.1,167.8L164.1,167.8z"/>
</svg>
