<?xml version="1.0" encoding="utf-8"?>
<!-- Generator: Adobe Illustrator 24.2.0, SVG Export Plug-In . SVG Version: 6.00 Build 0)  -->
<svg version="1.1" id="レイヤー_1" xmlns="http://www.w3.org/2000/svg" xmlns:xlink="http://www.w3.org/1999/xlink" x="0px"
	 y="0px" viewBox="0 0 284 166" style="enable-background:new 0 0 284 166;" xml:space="preserve">
<style type="text/css">
	.st0{fill:#FCFBFA;}
	.st1{fill:#EADFD3;}
</style>
<g id="グループ_1104" transform="translate(-46 -3097)">
	<path id="長方形_198" class="st0" d="M61,3097h254c8.3,0,15,6.7,15,15v136c0,8.3-6.7,15-15,15H61c-8.3,0-15-6.7-15-15v-136
		C46,3103.7,52.7,3097,61,3097z"/>
	<g id="グループ_894" transform="translate(241.438 3106.932)">
		<path id="パス_188" class="st1" d="M70.1,27.5c-1.9-8-8.9-19.8-17-22.9c-15.1-5.9-21-6-32.3-0.6C3.2,12.4-1.3,32,0.3,41.3
			s6.6,17.6,17.1,23.9c14.1,8.5,24.9,4.1,34.9-1.5C62.9,57.9,74.7,51.1,70.1,27.5z M40.9,41.7c-4.9,2.4-7.1,1-10.6-0.8
			c-2-2.2-4.4-7-1.8-10.8c3.6-5.3,4.8-5.8,10.3-4.8c4.4,0.8,6.3,0.6,8,6.1C47.9,35.9,45.2,39.6,40.9,41.7L40.9,41.7z"/>
	</g>
	<path id="パス_2131" d="M118.6,3134.1c-0.2,0-0.2,0-0.2,0.2c0,0.1,0,0.3,0,0.5c0,0.5,0,1.1,0,1.6c0,0.2,0,0.4-0.1,0.7
		c-0.1,0.2-0.3,0.3-0.5,0.3c-0.6,0.1-1.2,0.2-1.8,0.2h-0.2c-0.2,0-0.4,0-0.4,0.3c0,0.4,0.1,0.8,0.3,1.2c0.1,0.2,0.1,0.4,0.4,0.4
		c0.6-0.1,1.1-0.2,1.7-0.4c0.1,0,0.2,0,0.3,0c0.2,0,0.3,0.2,0.3,0.3v0.2c0,0.2,0,0.4-0.1,0.6c-0.7,1.3-1.6,2.5-2.7,3.6
		c-0.1,0.1-0.4,0.4-0.4,0.5c0.2,0.5,0.7,1,1.2,1.2c0.1,0,0.2-0.1,0.2-0.2c0.2-0.4,0.9-1.2,1.2-1.6c0.1-0.1,0.2-0.3,0.3-0.3
		s0.2,0.1,0.2,0.3c0,0.5,0,1,0,1.6c0,0.1,0,0.8,0,1.3c0,0.1,0,0.4,0,0.5c0,0.3,0.2,0.3,0.7,0.3c1.1,0,1.2-0.1,1.2-0.3
		c0-0.2-0.1-1.7-0.1-2.1c0-0.9-0.1-1.9-0.1-2.8c0-0.2,0.1-0.5,0.2-0.6c1-1.2,2.5-2,4.1-2.3c1.2,0.1,2.2,1.1,2.1,2.3c0,0,0,0,0,0.1
		c0,2.1-2.1,3-3.9,3.4c-0.2,0-0.4,0.1-0.4,0.4c0,0.3,0.4,1.3,0.9,1.3c0.5-0.1,0.9-0.2,1.3-0.4c2.1-0.8,3.9-2.4,3.9-4.8
		c0.1-2.1-1.6-3.9-3.7-3.9c0,0,0,0-0.1,0c-1.5,0.1-3,0.8-4.1,1.9c0,0-0.1,0.1-0.2,0.1c-0.1,0-0.1-0.1-0.1-0.3
		c0.2-0.5,0.4-0.9,0.8-1.2c0.1-0.1,0.2-0.2,0.2-0.3c-0.1-0.3-0.3-0.6-0.6-0.9c-0.2,0-0.2-0.1-0.2-0.2c0-0.2,0.1-0.9,0.1-1.2
		c0.1-0.7,0.1-0.7,0.3-0.8c0.1-0.1,0.1-0.1,0.1-0.2c0-0.1-0.1-0.2-0.2-0.2C120.1,3134.3,118.8,3134.1,118.6,3134.1z M138.3,3144.2
		c-0.3,0-1,0.9-1,1.2c0,0.3,0.5,0.7,0.8,0.9c1.1,0.5,2.2,0.8,3.4,0.7c0.8,0,1.7-0.1,2.5-0.2c0.2-0.1,0.2-0.5,0.2-0.8
		c0-0.6,0-1-0.3-1c-0.1,0-0.1,0-0.2,0c-0.7,0.2-1.5,0.3-2.3,0.3c-1.1,0.1-2.1-0.2-2.9-0.9C138.5,3144.3,138.4,3144.2,138.3,3144.2
		L138.3,3144.2z M139.5,3140.5c0,0.3,0.1,0.4,0.4,0.4c0.2,0,0.4,0,0.6,0c0.9,0,1.7,0.1,2.5,0.4c0.1,0,0.2,0.1,0.3,0.1
		c0.2,0,0.2-0.1,0.3-0.2c0.2-0.4,0.3-0.7,0.3-1.1c0-0.1-0.1-0.3-0.2-0.3c-1-0.3-2.1-0.5-3.2-0.4
		C139.7,3139.2,139.4,3139.1,139.5,3140.5L139.5,3140.5z M137.4,3133.7c-0.2,0-0.2,0.2-0.2,0.4c-0.1,1-0.3,2-0.6,2.9
		c-0.1,0.2-0.4,0.3-1.4,0.3c-0.7,0-1.4-0.1-1.5-0.1c-0.2,0-0.2,0.1-0.2,0.3c0,0.4,0,0.8,0.1,1.2c0.1,0.3,0.4,0.3,0.7,0.3
		c0.5,0,1.2-0.1,1.4-0.1c0.2,0,0.3,0.1,0.3,0.2c0,0.1-0.1,0.3-0.1,0.4c-0.7,2.1-1.7,4.1-2.8,5.9c-0.1,0.2-0.2,0.3-0.3,0.5
		c0,0.4,1.1,0.9,1.4,0.9c0.2,0,0.4-0.2,0.6-0.6c1.2-2.3,2.2-4.6,3-7.1c0.1-0.4,0.2-0.5,0.7-0.6c0.9-0.2,1.8-0.4,2.6-0.6
		c0.3-0.1,0.3-0.3,0.3-0.6c0-0.2,0-1.2-0.3-1.2c-0.1,0-0.2,0-0.3,0.1c-0.6,0.2-1.2,0.4-1.8,0.6c-0.1,0-0.2-0.1-0.2-0.2c0,0,0,0,0,0
		c0-0.1,0.3-1.2,0.4-1.4c0.1-0.4,0.1-0.4,0.4-0.6c0,0,0.1-0.1,0.1-0.2c0-0.2-0.4-0.3-0.6-0.3C138.6,3134,137.5,3133.7,137.4,3133.7z
		 M152.7,3134.8c-0.2,0-0.2,0.2-0.2,0.4v0.2c0,0.7-0.1,2.2-0.2,2.9c-0.1,1.3-0.1,2.5-0.1,3.8c-0.1,1.3,0.2,2.6,0.8,3.7
		c0.7,0.8,1.7,1.3,2.8,1.2c2.1,0,3.9-1.2,4.9-3.1c0.3-0.6,0.5-1.2,0.7-1.9c0-0.5-1-1.3-1.3-1.3c-0.2,0-0.3,0.3-0.3,0.5
		c-0.1,0.9-0.5,1.7-1,2.4c-0.7,0.9-1.8,1.5-3,1.6c-1.7,0-1.7-1.9-1.7-3.2c0-0.9,0.1-6,0.7-6.4c0.1-0.1,0.2-0.1,0.2-0.2
		c0-0.1-0.2-0.2-0.3-0.2C153.9,3135,153.3,3134.9,152.7,3134.8z M172.8,3144.2c-0.3,0-1,0.9-1,1.2c0,0.3,0.5,0.7,0.8,0.9
		c1.1,0.5,2.2,0.8,3.4,0.7c0.8,0,1.7-0.1,2.5-0.2c0.2-0.1,0.2-0.5,0.2-0.8c0-0.6,0-1-0.3-1c-0.1,0-0.1,0-0.2,0
		c-0.7,0.2-1.5,0.3-2.3,0.3c-1.1,0.1-2.1-0.2-2.9-0.9C173,3144.3,172.9,3144.2,172.8,3144.2L172.8,3144.2z M174,3140.5
		c0,0.3,0.1,0.4,0.4,0.4c0.2,0,0.4,0,0.6,0c0.9,0,1.7,0.1,2.5,0.4c0.1,0,0.2,0.1,0.3,0.1c0.2,0,0.2-0.1,0.3-0.2
		c0.2-0.4,0.3-0.7,0.3-1.1c0-0.1-0.1-0.3-0.2-0.3c-1-0.3-2.1-0.5-3.2-0.4C174.3,3139.2,174,3139.1,174,3140.5L174,3140.5z
		 M171.9,3133.7c-0.2,0-0.2,0.2-0.2,0.4c-0.1,1-0.3,2-0.6,2.9c-0.1,0.2-0.4,0.3-1.4,0.3c-0.7,0-1.4-0.1-1.5-0.1
		c-0.2,0-0.2,0.1-0.2,0.3c0,0.4,0,0.8,0.1,1.2c0.1,0.3,0.4,0.3,0.7,0.3c0.5,0,1.2-0.1,1.4-0.1c0.2,0,0.3,0.1,0.3,0.2
		c0,0.1-0.1,0.3-0.1,0.4c-0.7,2.1-1.7,4.1-2.8,5.9c-0.1,0.2-0.2,0.3-0.3,0.5c0,0.4,1.1,0.9,1.4,0.9c0.2,0,0.4-0.2,0.6-0.6
		c1.2-2.3,2.2-4.6,3-7.1c0.1-0.4,0.2-0.5,0.7-0.6c0.9-0.2,1.8-0.4,2.6-0.6c0.3-0.1,0.3-0.3,0.3-0.6c0-0.2,0-1.2-0.3-1.2
		c-0.1,0-0.2,0-0.3,0.1c-0.6,0.3-1.2,0.4-1.9,0.6c-0.1,0-0.2-0.1-0.2-0.2c0,0,0,0,0,0c0-0.1,0.3-1.2,0.4-1.4
		c0.1-0.4,0.1-0.4,0.4-0.6c0,0,0.1-0.1,0.1-0.2c0-0.2-0.4-0.3-0.6-0.3C173.1,3134,172.1,3133.7,171.9,3133.7z M189,3134.2
		c-0.3,0-0.2,0.4-0.3,0.6c-0.1,0.7-0.2,1.4-0.3,2c-0.1,0.3-0.3,0.4-1.5,0.4c-0.6,0-1.6-0.1-1.8-0.1c-0.1,0-0.3,0-0.3,0.4
		c0,0.4,0.1,0.7,0.2,1.1c0,0.2,0.2,0.3,0.4,0.3c0.3,0,1.6-0.1,1.9-0.2c0.1,0,0.2,0,0.3,0c0.1,0,0.2,0.1,0.3,0.2c0,0,0,0,0,0
		c0,0.1,0,0.3-0.1,0.4c-0.2,0.9-0.5,1.8-0.9,2.7c-0.1,0.2-0.2,0.5-0.2,0.7c0,0.4,0.9,0.9,1.3,0.9c0.2,0,0.3-0.2,0.4-0.4
		c0.9-1.2,2.4-1.9,3.9-2c0.9,0,1.6,0.7,1.6,1.5c0,0,0,0.1,0,0.1c0,2.1-2.5,2.6-4.2,2.6c-0.6,0-1.1-0.1-1.3-0.1
		c-0.2,0-0.3,0.1-0.3,0.3c0,0,0,0,0,0c0,0.4,0.1,0.7,0.2,1.1c0.1,0.3,0.2,0.4,0.7,0.4c1.1,0,2.3-0.2,3.3-0.4
		c1.9-0.5,3.2-1.7,3.2-3.7c0.1-1.7-1.2-3.2-2.9-3.3c-0.1,0-0.3,0-0.4,0c-1,0-2,0.3-2.8,0.9c-0.1,0-0.1,0.1-0.2,0.1
		c-0.1,0-0.2,0-0.2-0.1c0-0.1,0-0.2,0-0.3c0.1-0.4,0.2-0.6,0.2-0.9c0.2-0.8,0.2-0.9,0.7-0.9c0.9-0.1,2.8-0.4,3.6-0.5
		c0.4-0.1,0.6-0.1,0.6-0.4c0-0.3-0.1-0.7-0.1-1c-0.1-0.2-0.1-0.4-0.3-0.4c-0.1,0-0.3,0.1-0.4,0.1c-1,0.3-2,0.6-3.1,0.7
		c-0.1,0-0.3-0.1-0.3-0.2c0,0,0,0,0,0c0-0.1,0.1-0.3,0.1-0.4c0-0.1,0.1-0.2,0.1-0.3c0-0.2,0.1-0.5,0.3-0.7c0.1-0.1,0.1-0.1,0.1-0.2
		C190.8,3134.6,189.2,3134.2,189,3134.2z M203.9,3137.4c-0.7,0-1.4,0-2.1,0c-0.4,0-0.4,0.2-0.4,1c0,0.4,0,0.8,0.4,0.8
		c0.5,0,1.3,0,2,0h6.7c0.3,0,0.6,0,0.6,0.2c0,0.2-0.8,1-1,1.1c-0.6,0.6-1.3,1.2-2,1.8c-0.1,0.1-0.2,0.2-0.4,0.2
		c-0.2,0-0.3-0.1-0.4-0.2c-0.2-0.2-1-1-1.2-1c-0.3,0-1.2,0.7-1.2,1c0,0.1,0.2,0.3,0.3,0.4c1.1,1,2.1,2.2,2.9,3.5
		c0.1,0.1,0.2,0.3,0.3,0.3c0.3,0,1.3-0.6,1.3-0.9c-0.2-0.3-0.4-0.7-0.6-1c-0.1-0.1-0.2-0.3-0.2-0.5c0-0.2,0.2-0.3,0.3-0.5
		c1.5-1.2,2.9-2.6,4.2-3.9c0.1-0.1,0.3-0.3,0.4-0.4c0.3-0.2,0.5-0.4,0.5-0.5c0-0.2-0.8-1.2-1.1-1.2c-0.1,0-0.1,0-0.2,0
		c-0.3,0-0.6,0.1-0.9,0L203.9,3137.4z M221.2,3137.4c-0.7,0-1.4,0-2.1,0c-0.4,0-0.4,0.2-0.4,1c0,0.4,0,0.8,0.4,0.8c0.5,0,1.3,0,2,0
		h6.7c0.3,0,0.6,0,0.6,0.2c0,0.2-0.8,1-1,1.1c-0.6,0.6-1.3,1.2-2,1.8c-0.1,0.1-0.2,0.2-0.4,0.2c-0.2,0-0.3-0.1-0.4-0.2
		c-0.2-0.2-1-1-1.2-1c-0.3,0-1.2,0.7-1.2,1c0,0.1,0.2,0.3,0.3,0.4c1.1,1,2.1,2.2,2.9,3.5c0.1,0.1,0.2,0.3,0.3,0.3
		c0.3,0,1.3-0.6,1.3-0.9c-0.2-0.3-0.4-0.7-0.6-1c-0.1-0.1-0.2-0.3-0.2-0.5c0-0.2,0.2-0.3,0.3-0.5c1.5-1.2,2.9-2.6,4.2-3.9
		c0.1-0.1,0.3-0.3,0.4-0.4c0.3-0.2,0.5-0.4,0.5-0.5c0-0.2-0.8-1.2-1.1-1.2c-0.1,0-0.1,0-0.2,0c-0.3,0-0.6,0.1-0.9,0L221.2,3137.4z
		 M240.4,3134.6c-0.1,0-0.2,0.1-0.2,0.2c0,0,0,0.4,0,0.6c0,0.7-0.1,1.4-0.2,2.1c0,0.3-0.2,0.4-0.5,0.5c-0.9,0.2-1.8,0.4-2.7,0.5
		c-0.2,0-0.5,0-0.5,0.3c0,0.1,0.3,1.7,0.7,1.7c0.1,0,0.2-0.1,0.3-0.1c0.6-0.2,1.2-0.4,1.8-0.6c0.1,0,0.2,0.1,0.2,0.2c0,0,0,0,0,0
		c-0.1,0.4-0.2,0.8-0.4,1.2c-0.6,1.7-1.6,3.2-2.9,4.4c-0.1,0.1-0.2,0.2-0.2,0.4c0,0.4,1,1,1.3,1c0.1,0,0.2-0.1,0.3-0.2
		c0.6-0.7,1.1-1.5,1.6-2.3c0.9-1.5,1.6-3.1,2-4.8c0.1-0.4,0.3-0.6,1.2-0.6c1,0,1,0.7,1,1.5c0,1.2-0.2,2.5-0.7,3.6
		c-0.3,0.7-1,1.1-1.7,1c-0.3,0-0.6-0.1-0.7-0.1c-0.2,0-0.2,0.1-0.2,0.3c0,0.4,0.1,0.8,0.3,1.2c0.2,0.3,0.4,0.4,0.7,0.4
		c1.3,0.1,2.4-0.6,3-1.7c0.7-1.5,1-3.2,1-4.9c0.1-0.9-0.3-1.8-1-2.3c-0.6-0.3-1.2-0.4-1.8-0.4h-0.2c-0.2,0-0.3-0.1-0.3-0.3
		c0,0,0,0,0-0.1c0-0.1,0-0.1,0-0.2c0-0.3,0.1-0.5,0.1-0.7c0.1-0.6,0.1-0.8,0.4-1.1c0.1-0.1,0.1-0.1,0.1-0.2c0-0.2-0.3-0.2-0.4-0.3
		C241.8,3134.9,240.6,3134.6,240.4,3134.6L240.4,3134.6z M246.9,3134.6c-0.2,0-0.8,0.5-0.8,0.7c0,0.1,0.1,0.2,0.1,0.2
		c0.4,0.4,0.8,0.8,1.1,1.2c0.1,0.1,0.1,0.2,0.2,0.2c0.2,0,0.8-0.5,0.8-0.7C248,3135.5,247.5,3135,246.9,3134.6L246.9,3134.6z
		 M248.4,3133.4c-0.2,0-0.8,0.5-0.8,0.7c0,0.1,0.1,0.2,0.2,0.2c0.4,0.4,0.8,0.8,1.1,1.2c0.1,0.1,0.1,0.2,0.2,0.2
		c0.2,0,0.8-0.5,0.8-0.7C249.5,3134.4,249,3133.9,248.4,3133.4z M245.8,3136.3c-0.3,0-1.1,0.5-1.1,0.8c0,0.1,0.1,0.2,0.1,0.3
		c0.9,1,1.6,2.2,2.1,3.4c0.1,0.2,0.2,0.4,0.4,0.4c0.3,0,1.3-0.6,1.3-1C248.7,3139.8,246.4,3136.3,245.8,3136.3z M252.8,3144.6
		c0,0.1,0.2,0.2,0.3,0.3c0.9,0.6,1.7,1.3,2.4,2.2c0.1,0.1,0.2,0.2,0.3,0.2c0.4,0,1.2-0.9,1.2-1.2c0-0.4-2.8-2.6-3.1-2.6
		C253.4,3143.7,253,3144.1,252.8,3144.6z M124.2,3166.4c-0.7,0.2-0.9,0.3-0.9,0.5c0,0.4,0.7,1.6,1.2,1.6c0.1,0,0.3-0.1,0.4-0.1
		c2-1,4.4-2.2,6.7-2.2c1.2-0.1,2.3,0.8,2.4,2c0,0.1,0,0.1,0,0.2c0,2.7-3.5,3.9-5.7,4.1c-0.2,0-0.5,0-0.5,0.3
		c0.1,0.4,0.2,0.7,0.4,1.1c0.1,0.2,0.2,0.4,0.5,0.4c1.1-0.1,2.1-0.4,3.1-0.8c2.1-0.9,4.1-2.6,4.1-5.1c0-1-0.4-2-1.1-2.8
		c-0.8-0.8-2-1.2-3.2-1.2c-2,0.2-4,0.7-5.9,1.5C125.1,3166.1,124.6,3166.3,124.2,3166.4z M149.5,3163.1c-0.2-0.2-0.6-0.7-0.8-0.7
		c-0.1,0-0.2,0.1-0.2,0.2c-0.9,1-1.9,2-3,2.8c-0.7,0.6-1.4,1.2-2.1,1.9c-0.2,0.3-0.4,0.7-0.4,1.1c0,0.6,0.3,1.3,0.8,1.7
		c0.8,0.9,1.7,1.8,2.5,2.7c0.7,0.7,1.3,1.3,1.9,2.1c0.1,0.1,0.3,0.4,0.5,0.4c0.4,0,1.4-0.9,1.4-1.3c0-0.3-1.1-1.2-1.4-1.5
		c-1-0.9-2-1.8-2.9-2.8c-0.3-0.3-0.8-0.9-0.8-1.3c0-0.3,0.4-0.6,0.7-0.9c0.8-0.8,1.7-1.5,2.6-2.3c0.4-0.3,0.8-0.6,1.2-0.9
		c0.1-0.1,0.3-0.2,0.4-0.2c0.1,0,0.3,0,0.3-0.1C150.3,3163.8,149.7,3163.2,149.5,3163.1z M159.3,3168.5c0,0.3,0.6,1.3,1,1.3
		c0.2,0,0.3-0.1,0.4-0.2c1.5-0.9,3.2-1.5,5-1.6c0.9-0.1,1.7,0.6,1.8,1.5c0,0.1,0,0.1,0,0.2c-0.1,1-0.7,1.9-1.6,2.3
		c-0.8,0.4-1.8,0.7-2.7,0.8c-0.2,0-0.5,0-0.5,0.3c0,0.1,0.2,1.2,0.8,1.2c0.8-0.1,1.7-0.3,2.5-0.7c1.7-0.7,3.1-1.9,3.1-3.9
		c0-1.7-1.3-3.1-3-3.1c-0.1,0-0.2,0-0.3,0c-1.6,0.1-3.1,0.5-4.6,1.2c-0.5,0.2-1,0.4-1.5,0.5C159.5,3168.2,159.3,3168.3,159.3,3168.5
		z M175.5,3164.9c0,0.2,0.1,1.7,0.5,1.7c0.1,0,0.2,0,0.2,0c1.2-0.3,2.3-0.5,3.5-0.7c0.2,0,0.9-0.1,1-0.1c0.1,0,0.2,0.1,0.2,0.2
		c0,0.1-0.2,0.3-0.3,0.4c-1.1,1.3-1.7,2.9-1.8,4.6c0,3.1,2.3,4,5.1,4c0.2,0,0.4,0,0.5-0.2c0.2-0.5,0.3-0.9,0.3-1.4
		c0-0.3-0.1-0.3-0.4-0.3c-0.2,0-0.5,0-0.8,0c-1.6,0-2.8-0.4-2.8-2.3c0-1,0.3-2,0.8-2.8c0.6-1.1,1.5-2,2.7-2.4
		c0.9-0.3,1.8-0.4,2.7-0.3c0.4,0,0.7,0,0.7-0.3c0-0.4-0.1-0.8-0.1-1.2c0-0.2-0.1-0.4-0.3-0.4c-0.1,0-0.1,0-0.2,0
		c-1.2,0.2-2.4,0.4-3.6,0.5c-2.3,0.3-4.7,0.5-7,0.7C175.7,3164.5,175.5,3164.5,175.5,3164.9z M197.9,3172.3c0.4,0,0.8,0,0.8,0.3
		c0,0.9-0.6,1.1-1.4,1.1c-0.4,0-1.1-0.1-1.1-0.6C196.2,3172.4,197.4,3172.3,197.9,3172.3z M198.5,3162.3c-0.1,0-0.2,0-0.2,0.2
		c0,0.1,0,0.2,0,0.3c0,0.3,0.1,1.3,0.1,1.6c0,0.4-0.4,0.4-1.8,0.4c-0.8,0-2.1-0.1-2.5-0.1c-0.3,0-0.3,0.2-0.3,0.4
		c0,0.4,0,0.8,0.2,1.2c0.1,0.1,0.5,0.1,0.9,0.1h0.5c0.9,0,2.1-0.1,2.7-0.1c0.4,0,0.4,0.7,0.4,1.1c0,0.4-0.2,0.4-0.8,0.4H197
		c-0.6,0-1.5-0.1-1.7-0.1c-0.2,0-0.3,0.1-0.3,0.3c0,0.4,0.1,0.8,0.2,1.1c0.1,0.3,0.4,0.3,1.1,0.3c0.7,0,1.6-0.1,1.9-0.1
		c0.4,0,0.4,0.6,0.4,1.1c0,0.2,0,0.4-0.3,0.4c-0.1,0-0.5,0-0.7,0c-1.3,0-3.1,0.5-3.1,2.1c0,1.5,1.4,2.1,2.7,2.1
		c1.3,0,2.6-0.4,2.9-1.8c0-0.1,0.1-0.4,0.3-0.4c0.6,0.2,1.2,0.6,1.7,1c0.1,0.1,0.3,0.2,0.5,0.3c0.4,0,0.9-0.8,0.9-1.2
		c0-0.6-2.1-1.5-2.6-1.6c-0.7-0.2-0.8-0.1-0.8-1.8c0-0.4,0.3-0.4,0.9-0.5c0.6-0.1,1.1-0.1,1.6-0.3c0.3-0.1,0.3-0.2,0.3-0.8
		c0-0.6,0-1-0.3-1c-0.1,0-0.2,0-0.3,0.1c-0.7,0.2-1.4,0.3-2,0.4c-0.2,0-0.2-0.2-0.3-0.3c0-0.3-0.1-0.6-0.1-0.8
		c0-0.4,0.4-0.4,0.7-0.5c0.8-0.1,1.8-0.2,2.7-0.4c0.3-0.1,0.4-0.1,0.4-0.4c0-0.3,0-1.3-0.4-1.3c-0.2,0-0.4,0.1-0.6,0.1
		c-0.6,0.2-1.2,0.3-1.7,0.4c-0.1,0-0.7,0.1-0.8,0.1c-0.3,0-0.3-0.2-0.3-0.5c0-1.3,0.3-1,0.3-1.3c0-0.2-0.2-0.2-0.6-0.3
		C199.5,3162.4,198.7,3162.3,198.5,3162.3z M214.8,3162.2c-0.3,0-0.2,0.4-0.3,0.6c-0.1,0.7-0.2,1.4-0.3,2c-0.1,0.3-0.3,0.4-1.5,0.4
		c-0.6,0-1.6-0.1-1.8-0.1c-0.1,0-0.3,0-0.3,0.4c0,0.4,0.1,0.7,0.2,1.1c0,0.2,0.2,0.3,0.4,0.3c0.3,0,1.6-0.1,1.9-0.2
		c0.1,0,0.2,0,0.3,0c0.1,0,0.2,0.1,0.3,0.2c0,0,0,0,0,0c0,0.1,0,0.3-0.1,0.4c-0.2,0.9-0.5,1.8-0.9,2.7c-0.1,0.2-0.2,0.5-0.2,0.7
		c0,0.4,0.9,0.9,1.3,0.9c0.2,0,0.3-0.2,0.4-0.4c0.9-1.2,2.4-1.9,3.9-2c0.9,0,1.6,0.7,1.6,1.5c0,0,0,0.1,0,0.1c0,2.1-2.5,2.6-4.2,2.6
		c-0.6,0-1.1-0.1-1.3-0.1c-0.2,0-0.3,0.1-0.3,0.3c0,0,0,0,0,0c0,0.4,0.1,0.7,0.2,1.1c0.1,0.3,0.2,0.4,0.7,0.4c1.1,0,2.3-0.2,3.3-0.4
		c1.9-0.5,3.2-1.7,3.2-3.7c0.1-1.7-1.2-3.2-2.9-3.3c-0.1,0-0.2,0-0.4,0c-1,0-2,0.3-2.8,0.9c-0.1,0-0.1,0.1-0.2,0.1
		c-0.1,0-0.2,0-0.2-0.1c0-0.1,0-0.2,0-0.3c0.1-0.4,0.2-0.6,0.2-0.9c0.2-0.8,0.2-0.9,0.7-0.9c0.9-0.1,2.8-0.4,3.6-0.5
		c0.4-0.1,0.6-0.1,0.6-0.4c0-0.3-0.1-0.7-0.1-1c-0.1-0.2-0.1-0.4-0.3-0.4c-0.1,0-0.3,0.1-0.4,0.1c-1,0.3-2,0.6-3.1,0.7
		c-0.1,0-0.3-0.1-0.3-0.2c0,0,0,0,0,0c0-0.1,0.1-0.3,0.1-0.4c0-0.1,0.1-0.2,0.1-0.3c0-0.3,0.1-0.5,0.3-0.7c0.1-0.1,0.1-0.1,0.1-0.2
		C216.7,3162.6,215,3162.2,214.8,3162.2z M235.7,3168c0.9,0.2,1.5,1.1,1.4,2c0.1,1-0.6,2-1.6,2.2c-0.1,0-0.2-0.1-0.3-0.2
		c0,0,0,0,0,0c0-0.1,0-0.2,0-0.2c0.1-0.7,0.2-1.5,0.2-2.2c0-0.4,0-1.2,0-1.3C235.4,3168.1,235.5,3168,235.7,3168
		C235.6,3168,235.7,3168,235.7,3168z M229.7,3166.4c-0.1,0-0.2,0.1-0.2,0.2c0,0.2-0.1,0.4-0.1,0.6c-0.2,1-0.3,2-0.3,3
		c0,0.9,0.1,1.9,0.3,2.8c0.1,0.5,0.2,0.8,0.5,0.8c0.2,0,1-0.2,1-0.5c0-0.1,0-0.2,0-0.2c-0.1-0.2-0.1-0.5-0.1-0.7
		c0.1-1.5,0.8-2.8,2-3.7c0.3-0.3,0.7-0.4,1.1-0.6c0.3,0,0.3,0.3,0.3,1.4c0,0.8-0.1,1.5-0.2,2.3c0,0.1-0.1,0.2-0.2,0.2
		c-0.2,0-0.8-0.4-0.8-1.6c0-0.1,0-0.3-0.3-0.3c-0.1,0-0.9,0.1-0.9,0.6c0,1,0.5,2,1.3,2.6c0.1,0.1,0.3,0.2,0.3,0.3
		c-0.1,0.4-0.4,0.7-0.6,1c-0.1,0.1-0.1,0.1-0.1,0.2c0,0.3,0.7,0.8,1,0.8c0.4,0,1-1.1,1.1-1.4c0.1-0.3,0.2-0.4,0.5-0.4
		c1.9-0.1,3.4-1.7,3.4-3.6c0,0,0,0,0,0c0.1-1.4-0.8-2.7-2.1-3.2c-0.2-0.1-0.5-0.1-0.7-0.2c-0.2,0-0.4-0.2-0.4-0.4
		c0-0.2-0.1-0.4-0.1-0.6c0-0.1,0-0.2,0.1-0.2c0.1-0.1,0.1-0.2,0.1-0.2c0-0.2-0.2-0.3-1.3-0.3c-0.2,0-0.5,0-0.5,0.2
		c0,0.1,0,0.2,0.1,0.3c0.1,0.3,0.2,0.7,0.3,1c0,0.3-0.2,0.3-0.4,0.4c-0.5,0.1-0.9,0.4-1.3,0.7c-0.5,0.4-1,1-1.4,1.6
		c0,0.1-0.1,0.2-0.2,0.2c-0.1,0-0.1-0.1-0.1-0.2c0-0.5,0.1-0.9,0.2-1.4c0-0.1,0.1-0.3,0.2-0.4c0.1-0.1,0.1-0.1,0.1-0.2
		c0-0.2-0.2-0.2-0.5-0.4l-0.2-0.1C230.2,3166.5,229.9,3166.4,229.7,3166.4z M246.3,3171.7c0.8,0,1.4,0.6,1.4,1.4c0,0,0,0,0,0
		c0,0.8-0.6,1.4-1.4,1.4s-1.4-0.6-1.4-1.4C244.9,3172.4,245.5,3171.7,246.3,3171.7L246.3,3171.7z M246.3,3170.9
		c-1.2,0-2.2,1-2.2,2.2s1,2.2,2.2,2.2s2.2-1,2.2-2.2l0,0C248.5,3171.9,247.5,3170.9,246.3,3170.9
		C246.3,3170.9,246.3,3170.9,246.3,3170.9L246.3,3170.9z"/>
</g>
</svg>
