<?xml version="1.0" encoding="utf-8"?>
<!-- Generator: Adobe Illustrator 24.2.0, SVG Export Plug-In . SVG Version: 6.00 Build 0)  -->
<svg version="1.1" id="レイヤー_1" xmlns="http://www.w3.org/2000/svg" xmlns:xlink="http://www.w3.org/1999/xlink" x="0px"
	 y="0px" viewBox="0 0 94 16" style="enable-background:new 0 0 94 16;" xml:space="preserve">
<style type="text/css">
	.st0{stroke:#000000;stroke-width:0.3;}
</style>
<path id="パス_2125" class="st0" d="M12.3,4c-0.3,0-0.9,0.7-0.9,0.9c0,0.2,0.2,0.3,0.3,0.4c0.8,0.6,1.6,1.3,2.3,2
	c0.1,0.1,0.2,0.2,0.4,0.2c0.3,0,0.9-0.7,0.9-1c-0.3-0.3-0.6-0.7-0.9-0.9c-0.5-0.4-1.4-1.1-1.8-1.4C12.6,4,12.5,4,12.3,4z M5.4,11.9
	c0,0.3,0.1,0.9,0.1,1c0,0.1,0,0.1-0.1,0.1c-0.1,0-0.2-0.1-0.3-0.2c-0.2-0.1-0.8-0.6-1-0.6c-0.2,0-0.3,0.1-0.3,0.3
	c0,0.1,0.1,0.2,0.2,0.3c0.5,0.4,0.8,0.9,1.1,1.4C5.2,14.7,5.3,15,5.7,15c0.4,0,1.3-0.3,1.3-1.2c0-0.1-0.1-1.9-0.2-2.2
	c0-0.3-0.1-1-0.1-1.3c0-0.2,0.1-0.4,0.2-0.5c1.1-0.6,2.3-1,3.5-1c1.1,0,2.4,0.6,2.4,1.9c0,1.5-1.6,1.9-2.8,1.9c-0.5,0-1-0.1-1.5-0.2
	c-0.2,0-0.3,0.2-0.3,0.3c0,0.4,0.1,0.8,0.3,1.1c0.1,0.1,0.4,0.1,0.7,0.1c1.3,0.1,2.6-0.2,3.7-0.7c0.9-0.5,1.5-1.5,1.4-2.6
	c0-2.1-1.9-3.3-3.8-3.3c-1.1,0-2.2,0.3-3.3,0.7C7.3,8.3,7.1,8.3,7,8.4C6.8,8.4,6.8,8,6.8,7.7c0-1.5-0.1-1.7,0.7-1.8
	C9,5.6,9.2,5.6,9.2,5.2C9.2,4.9,9.2,4,8.8,4c-0.1,0-0.2,0-0.3,0.1C8.1,4.2,7.6,4.4,7.2,4.4C7,4.5,6.9,4.4,6.9,4.2c0,0,0,0,0,0V4
	c0-0.2,0-0.3,0-0.5c0-0.4,0.1-0.8,0.3-1.2c0.1-0.1,0.2-0.2,0.2-0.3c0-0.1-0.2-0.2-0.3-0.2C6.9,1.8,5.9,1.6,5.7,1.6
	c-0.1,0-0.2,0.1-0.2,0.2c0,0,0,0,0,0c0,0.1,0,0.1,0,0.2c0,0.2,0,0.4,0,0.6c0,0.2-0.1,1.8-0.1,1.9C5.4,4.8,5.1,4.9,4.9,4.9
	C4.2,5,3.5,5.1,2.9,5.1c-0.3,0-0.4,0-0.4,0.5c0,1.1,0.3,1.1,0.5,1.1c0.2,0,0.3,0,0.5-0.1c0.2,0,1.5-0.3,1.6-0.3
	c0.3,0,0.4,0.2,0.4,0.4c0,0.7,0,1.3,0,2c0,0.5-0.1,0.5-0.8,1c-1,0.6-1.9,1.3-2.9,1.9c-0.2,0.1-0.4,0.2-0.4,0.3
	c0,0.3,0.6,1.4,0.9,1.4c0.1,0,0.2-0.1,0.3-0.1c0.9-0.8,1.9-1.5,2.9-2.1C5.5,11,5.4,11.3,5.4,11.9z M32.1,3C31.9,3,31,3.5,31,3.7
	c0,0.1,0.1,0.2,0.1,0.3c1,1.1,1.8,2.4,2.4,3.8c0.1,0.2,0.2,0.4,0.4,0.4c0.3,0,1.2-0.5,1.2-0.8C35.1,6.9,32.7,3,32.1,3z M25.7,1.2
	c-0.1,0-0.2,0.1-0.2,0.2v0.1c0,0.2,0,0.4,0,0.6c0,0.7-0.1,1.4-0.2,2c-0.1,0.5,0,0.8-0.6,0.9c-0.9,0.2-2.2,0.5-3.1,0.6
	c-0.2,0-0.5,0-0.5,0.3c0,0.2,0.3,1.5,0.7,1.5c0.1,0,0.1,0,0.2-0.1c0.8-0.3,1.7-0.6,2.5-0.8c0.1,0,0.2,0.1,0.2,0.2c0,0,0,0,0,0
	c0,0.1,0,0.2-0.1,0.3c-0.7,2.4-2,4.7-3.7,6.5c-0.1,0.1-0.3,0.3-0.3,0.4c0,0.3,0.9,0.9,1.1,0.9c0.1,0,0.2-0.1,0.3-0.1
	c0.7-0.8,1.3-1.7,1.8-2.6c1.1-1.7,1.8-3.6,2.3-5.5C26.5,6.2,26.6,6,27.9,6c1.2,0,1.3,0.9,1.3,1.9c0,1.4-0.3,2.8-0.8,4.1
	c-0.3,0.8-1.1,1.3-2,1.2c-0.4,0-0.7-0.1-0.9-0.1c-0.1,0-0.2,0.1-0.2,0.2c0,0.4,0.1,0.7,0.3,1c0.1,0.3,0.4,0.4,0.7,0.4
	c1.4,0,2.6-0.7,3.2-1.9c0.7-1.7,1.1-3.6,1.1-5.5c0-1.8-0.7-2.8-2.6-2.8c-0.3,0-0.8,0-0.9,0c-0.2,0-0.3-0.1-0.3-0.3c0,0,0,0,0-0.1
	c0-0.1,0-0.1,0-0.2C26.9,3.8,27,3.5,27,3.2c0.1-0.6,0.1-1,0.4-1.2c0.1-0.1,0.2-0.1,0.2-0.3c0-0.2-0.3-0.3-0.5-0.3
	C26.9,1.4,25.9,1.2,25.7,1.2z M49.5,4.5c0,0.1,0.1,0.2,0.1,0.3c1.6,1.2,2.6,3.1,2.7,5.1c0,0.3,0,0.6,0.5,0.6c0.3,0,0.6-0.1,0.9-0.2
	c0.2,0,0.3-0.2,0.3-0.4c0-0.2,0-0.4-0.1-0.6c-0.2-1.3-0.6-2.5-1.3-3.6c-0.6-0.9-1.4-1.6-2.3-2.1C50,3.7,49.7,4.1,49.5,4.5z
	 M41.3,3.5c-0.2,0-0.2,0.1-0.2,0.3c0,0.6-0.1,2.1-0.1,2.7c0,2.1,0.2,4.5,1.3,6.2c0.5,1,1.4,1.6,2.5,1.7c0.6,0,1.2-0.3,1.5-0.8
	c0.3-0.3,1.3-1.4,1.3-1.7c0-0.3-0.7-0.9-1-0.9c-0.2,0-0.4,0.3-0.5,0.4c-0.2,0.4-0.8,1.3-1.3,1.3c-0.7,0-1.4-1.2-1.7-1.7
	c-0.5-1.3-0.7-2.7-0.6-4.1c0-0.6,0-1.2,0.1-1.7c0.1-0.3,0.1-0.6,0.3-0.8c0.1-0.1,0.2-0.1,0.2-0.3c0-0.2-0.2-0.2-0.3-0.3
	C42.3,3.7,41.8,3.6,41.3,3.5L41.3,3.5z M66.5,0.8c-0.3-0.1-0.6-0.2-0.9-0.3c-0.2,0-0.2,0.2-0.3,0.4c-0.2,0.8-0.5,1.7-0.8,2.5
	c-0.1,0.2-0.1,0.4-0.4,0.4c-0.5-0.1-0.9-0.3-1.4-0.6c-0.2-0.1-0.4-0.3-0.6-0.3c-0.3,0-0.5,1-0.5,1.2c0,0.2,0.1,0.3,0.3,0.4
	C62.3,4.7,63,5,63.4,5.1c0.3,0.1,0.6,0.2,0.6,0.6c0,0.1,0,0.2-0.1,0.3c-0.1,0.4-0.2,0.8-0.3,1.1c-0.1,0.6-0.2,0.9-0.5,0.9
	c-0.5-0.1-0.9-0.3-1.3-0.6c-0.1-0.1-0.3-0.2-0.4-0.2c-0.3,0-0.5,1-0.5,1.2c0,0.2,0.1,0.3,0.3,0.4c0.3,0.2,0.7,0.3,1.1,0.5
	c0.3,0.1,0.8,0.2,0.8,0.6v0.2c0,0.4-0.1,1.1-0.1,1.5c0,1,0.3,2,0.9,2.7c0.8,0.9,2,1.3,3.2,1.2c2.3,0,4.8-1,4.8-3.6
	c0-1.1-0.2-2.2-0.6-3.3c-0.1-0.3-0.2-0.5-0.4-0.5c-0.2,0-1.2,0.2-1.2,0.5c0,0.1,0,0.2,0.1,0.3c0.4,0.8,0.6,1.7,0.6,2.7
	c0,0.5-0.1,1-0.4,1.4c-0.8,0.7-1.8,1-2.8,0.9c-1.8,0-2.6-1-2.6-2.7c0-1,0.1-1.4,0.5-1.4c0.1,0,0.2,0,0.3,0c0.6,0.1,1.3,0.2,1.9,0.2
	c0.3,0,0.3-0.1,0.4-0.3c0.1-0.3,0.2-0.6,0.2-0.9c0-0.2-0.1-0.3-0.5-0.3c-0.6,0-1.2,0-1.8-0.1c-0.3,0-0.6,0-0.6-0.4
	c0.1-0.6,0.2-1.3,0.4-1.9c0-0.1,0.1-0.4,0.5-0.4c0.1,0,0.1,0,0.2,0c0.8,0.2,1.7,0.3,2.5,0.3c0.2,0,0.3-0.1,0.3-0.3
	c0.1-0.3,0.2-0.6,0.2-1c0-0.3-0.3-0.3-0.6-0.3c-0.7,0-1.3-0.1-2-0.2C66.3,4.3,66,4.3,66,4c0-0.1,0-0.1,0.1-0.2
	C66.3,3,66.6,2.3,67,1.6c0.2-0.1,0.3-0.2,0.3-0.3C67.3,1.1,66.7,0.9,66.5,0.8z M84.9,3.9c0.2,0,0.3,0.2,0.3,0.4
	c0,1.8-0.4,3.6-1.1,5.3c-0.3,0.8-1.2,2.7-2.2,2.7c-1,0-1.3-1.8-1.3-2.6C80.5,7.2,82,5,84.3,4.1C84.5,4,84.7,4,84.9,3.9z M86.4,2.3
	c-4,0-7.3,3.2-7.4,7.3c0,0.1,0,0.1,0,0.2c0,0.9,0.2,1.7,0.5,2.5c0.4,0.9,1.3,1.5,2.3,1.6c0.9-0.1,1.7-0.6,2.2-1.3
	c1.7-2.1,2.4-5.4,2.6-8.1c0-0.3,0-0.7,0.5-0.7c0.3,0,0.5,0.1,0.8,0.2c2,0.6,3.3,2.5,3.2,4.6c0,2.5-1.8,4.5-4.3,4.9
	c-0.2,0-0.4,0.1-0.4,0.3c0,0.3,0.6,1.2,1,1.2c0.6-0.1,1.3-0.4,1.9-0.7c2.2-1.1,3.5-3.3,3.5-5.7c0-1.6-0.6-3.2-1.8-4.4
	C89.8,2.8,88.1,2.2,86.4,2.3z"/>
</svg>
