<?xml version="1.0" encoding="utf-8"?>
<!-- Generator: Adobe Illustrator 24.2.0, SVG Export Plug-In . SVG Version: 6.00 Build 0)  -->
<svg version="1.1" id="レイヤー_1" xmlns="http://www.w3.org/2000/svg" xmlns:xlink="http://www.w3.org/1999/xlink" x="0px"
	 y="0px" viewBox="0 0 222 94" style="enable-background:new 0 0 222 94;" xml:space="preserve">
<g id="グループ_1103" transform="translate(-78.924 -5760.838)">
	<path id="パス_2137" d="M92.4,5847.1c0,1.7-0.6,3.3-1.9,4.5c-1.2,1.2-2.8,1.9-4.5,1.9c-1.7,0-3.3-0.6-4.5-1.9
		c-1.2-1.2-1.9-2.8-1.9-4.5v-7.8c0-0.3,0.1-0.6,0.4-0.9c0.2-0.2,0.5-0.4,0.9-0.4c0.3,0,0.6,0.1,0.9,0.4c0.2,0.2,0.4,0.5,0.4,0.9v7.8
		c0,1,0.4,2,1.1,2.8c0.7,0.8,1.7,1.2,2.8,1.2c1,0,2-0.4,2.8-1.1c0.7-0.7,1.2-1.7,1.1-2.8v-7.8c0-0.3,0.1-0.6,0.4-0.9
		c0.2-0.2,0.5-0.4,0.9-0.4c0.3,0,0.6,0.1,0.9,0.4c0.2,0.2,0.4,0.5,0.4,0.9L92.4,5847.1z M101.4,5853.1c-0.2,0.2-0.5,0.4-0.9,0.4
		c-0.3,0-0.6-0.1-0.9-0.4c-0.2-0.2-0.4-0.5-0.4-0.9v-13c0-0.3,0.1-0.6,0.4-0.9c0.2-0.2,0.5-0.4,0.9-0.4h7.2c0.3,0,0.6,0.1,0.8,0.4
		c0.2,0.2,0.4,0.5,0.4,0.9c0,0.3-0.1,0.6-0.4,0.9c-0.2,0.2-0.5,0.4-0.8,0.4h-6v4h5.1c0.3,0,0.6,0.1,0.8,0.4c0.2,0.2,0.4,0.5,0.4,0.9
		c0,0.3-0.1,0.6-0.3,0.9c-0.2,0.2-0.5,0.4-0.9,0.4h-5.1v5.3C101.8,5852.5,101.7,5852.9,101.4,5853.1L101.4,5853.1z M127.2,5847.1
		c0,1.7-0.6,3.3-1.9,4.5c-1.2,1.2-2.8,1.9-4.5,1.9c-1.7,0-3.3-0.6-4.5-1.9c-1.2-1.2-1.9-2.8-1.9-4.5v-7.8c0-0.3,0.1-0.6,0.4-0.9
		c0.2-0.2,0.5-0.4,0.9-0.4c0.3,0,0.6,0.1,0.9,0.4c0.2,0.2,0.4,0.5,0.4,0.9v7.8c0,1,0.4,2,1.1,2.8c0.7,0.8,1.7,1.2,2.8,1.2
		c1,0,2-0.4,2.8-1.1c0.7-0.7,1.2-1.7,1.1-2.8v-7.8c0-0.3,0.1-0.6,0.4-0.9c0.2-0.2,0.5-0.4,0.9-0.4c0.3,0,0.6,0.1,0.9,0.4
		c0.2,0.2,0.4,0.5,0.4,0.9L127.2,5847.1z M136.2,5853.1c-0.2,0.2-0.5,0.4-0.9,0.4c-0.3,0-0.6-0.1-0.9-0.4c-0.2-0.2-0.4-0.5-0.4-0.9
		v-13c0-0.3,0.1-0.6,0.4-0.9c0.2-0.2,0.5-0.4,0.9-0.4h7.2c0.3,0,0.6,0.1,0.8,0.4c0.2,0.2,0.4,0.5,0.4,0.9c0,0.3-0.1,0.6-0.4,0.9
		c-0.2,0.2-0.5,0.4-0.8,0.4h-6v4h5.1c0.3,0,0.6,0.1,0.8,0.4c0.2,0.2,0.4,0.5,0.4,0.9c0,0.3-0.1,0.6-0.4,0.9
		c-0.2,0.2-0.5,0.4-0.9,0.4h-5.1v5.3C136.6,5852.5,136.4,5852.8,136.2,5853.1L136.2,5853.1z M161.9,5847.1c0,1.7-0.7,3.3-1.9,4.5
		c-1.2,1.2-2.8,1.9-4.5,1.9c-1.7,0-3.3-0.6-4.5-1.9c-1.2-1.2-1.9-2.8-1.9-4.5v-7.8c0-0.3,0.1-0.6,0.4-0.9c0.2-0.2,0.5-0.4,0.9-0.4
		c0.3,0,0.6,0.1,0.9,0.4c0.2,0.2,0.4,0.5,0.4,0.9v7.8c0,1,0.4,2,1.1,2.8c0.7,0.8,1.7,1.2,2.8,1.2c1,0,2-0.4,2.8-1.1
		c0.7-0.7,1.2-1.7,1.1-2.8v-7.8c0-0.3,0.1-0.6,0.4-0.9c0.2-0.2,0.5-0.4,0.9-0.4c0.3,0,0.6,0.1,0.9,0.4c0.2,0.2,0.4,0.5,0.4,0.9
		L161.9,5847.1z M178.4,5853.4c-0.3,0-0.6-0.1-0.9-0.4c-0.2-0.2-0.4-0.5-0.4-0.9v-13c0-0.3,0.1-0.6,0.4-0.9c0.2-0.2,0.5-0.4,0.9-0.4
		h7.2c0.3,0,0.6,0.1,0.8,0.4c0.2,0.2,0.4,0.5,0.4,0.9c0,0.3-0.1,0.6-0.4,0.9c-0.2,0.2-0.5,0.4-0.8,0.4h-6v4h5.1
		c0.3,0,0.6,0.1,0.8,0.4c0.2,0.2,0.4,0.5,0.4,0.9c0,0.3-0.1,0.6-0.4,0.9c-0.2,0.2-0.5,0.4-0.9,0.4h-5.1v4h6c0.3,0,0.6,0.1,0.8,0.4
		c0.2,0.2,0.4,0.5,0.4,0.9c0,0.3-0.1,0.6-0.4,0.9c-0.2,0.2-0.5,0.4-0.8,0.4H178.4L178.4,5853.4L178.4,5853.4z M197.2,5853.3
		c0,0-0.1,0-0.2-0.1h0c0,0-0.1-0.1-0.2-0.1c0,0,0-0.1-0.1-0.1c0,0-0.1-0.1-0.1-0.1c0,0,0-0.1-0.1-0.1c0,0,0-0.1-0.1-0.1l-5.4-12.8
		c-0.1-0.3-0.1-0.6,0-0.9c0.1-0.3,0.4-0.5,0.7-0.6c0.3-0.1,0.6-0.1,0.9,0c0.3,0.1,0.5,0.4,0.7,0.6l4.3,10.2l4.3-10.2
		c0.1-0.3,0.4-0.5,0.7-0.6c0.3-0.1,0.6-0.1,0.9,0c0.3,0.1,0.5,0.3,0.6,0.6c0.1,0.3,0.1,0.6,0,0.9l-5.4,12.9l-0.1,0.2c0,0,0,0,0,0
		l-0.3,0.3c0,0-0.1,0.1-0.1,0.1c-0.1,0-0.2,0.1-0.3,0.1h0c-0.1,0-0.2,0-0.2,0c-0.1,0-0.1,0-0.2,0h0
		C197.4,5853.4,197.4,5853.4,197.2,5853.3L197.2,5853.3L197.2,5853.3z M211.5,5853.4c-0.3,0-0.6-0.1-0.9-0.4
		c-0.2-0.2-0.4-0.5-0.4-0.9v-13c0-0.3,0.1-0.6,0.4-0.9c0.2-0.2,0.5-0.4,0.9-0.4h7.2c0.3,0,0.6,0.1,0.8,0.4c0.2,0.2,0.4,0.5,0.4,0.9
		c0,0.3-0.1,0.6-0.4,0.9c-0.2,0.2-0.5,0.4-0.8,0.4h-6v4h5.1c0.3,0,0.6,0.1,0.8,0.4c0.2,0.2,0.4,0.5,0.4,0.9c0,0.3-0.1,0.6-0.4,0.9
		c-0.2,0.2-0.5,0.4-0.9,0.4h-5.1v4h6c0.3,0,0.6,0.1,0.8,0.4c0.2,0.2,0.4,0.5,0.4,0.9c0,0.3-0.1,0.6-0.4,0.9
		c-0.2,0.2-0.5,0.4-0.8,0.4H211.5L211.5,5853.4L211.5,5853.4z M232.9,5846.4c1,0.8,1.6,1.9,1.5,3.2c0,0.4,0,0.9,0.1,1.3
		c0.4,0.1,0.7,0.4,0.8,0.8c0.1,0.4,0.1,0.8-0.2,1.1c-0.3,0.3-0.7,0.5-1.1,0.5h0c-0.7,0-1.3-0.4-1.6-1c-0.3-0.8-0.5-1.7-0.5-2.6
		c0-0.7-0.4-1.2-0.9-1.6c-0.4-0.2-0.8-0.4-1.2-0.5h-2.6v4.8c0,0.3-0.1,0.6-0.4,0.9c-0.2,0.2-0.5,0.4-0.9,0.4c-0.3,0-0.6-0.1-0.9-0.4
		c-0.2-0.2-0.4-0.5-0.4-0.9v-13c0-0.3,0.1-0.6,0.4-0.9c0.2-0.2,0.5-0.4,0.9-0.4h3.9c1.3,0,2.5,0.5,3.3,1.4c0.9,0.9,1.4,2.2,1.4,3.5
		C234.6,5844.2,234,5845.5,232.9,5846.4z M229.9,5845c0.6,0,1.2-0.2,1.6-0.7c0.4-0.4,0.7-1,0.7-1.6c0-0.6-0.2-1.2-0.7-1.6
		c-0.4-0.4-1-0.7-1.6-0.7h-2.7v4.5L229.9,5845z M249.3,5838.7c0.2-0.3,0.5-0.4,0.8-0.5c0.3-0.1,0.6,0,0.9,0.2
		c0.3,0.2,0.4,0.5,0.5,0.8c0.1,0.3,0,0.6-0.2,0.9l-4.5,6.2v5.9c0,0.3-0.1,0.6-0.4,0.9c-0.2,0.2-0.5,0.4-0.8,0.4
		c-0.3,0-0.6-0.1-0.9-0.4c-0.2-0.2-0.4-0.5-0.4-0.9v-5.9l-4.5-6.2c-0.2-0.2-0.3-0.6-0.2-0.9c0-0.3,0.2-0.6,0.5-0.8
		c0.3-0.2,0.6-0.3,0.9-0.2c0.3,0,0.6,0.2,0.8,0.5l3.8,5.1L249.3,5838.7z M255.6,5852.2v-13c0-0.3,0.1-0.6,0.4-0.9
		c0.2-0.2,0.5-0.4,0.9-0.4h2.6c2,0,4,0.8,5.4,2.3c1.5,1.4,2.3,3.4,2.2,5.4c0,2-0.8,4-2.2,5.4c-1.4,1.5-3.4,2.3-5.4,2.3h-2.6
		c-0.3,0-0.6-0.1-0.9-0.4C255.8,5852.8,255.6,5852.5,255.6,5852.2z M258.1,5840.5v10.5h1.4c1.4,0,2.7-0.6,3.7-1.6
		c1-1,1.6-2.3,1.5-3.7c0-1.4-0.5-2.7-1.5-3.7c-1-1-2.3-1.6-3.7-1.5H258.1z M282.1,5852.6l-1.1-2.9h-5.3l-1.1,2.9
		c-0.1,0.5-0.6,0.8-1.1,0.8c-0.4,0-0.9-0.2-1.1-0.5c-0.2-0.3-0.3-0.7-0.1-1.1l4.9-13c0.1-0.2,0.3-0.4,0.5-0.6
		c0.2-0.1,0.4-0.2,0.7-0.2c0.5-0.1,1,0.3,1.2,0.8l4.9,13c0.1,0.4,0.1,0.8-0.1,1.1c-0.2,0.4-0.7,0.6-1.1,0.5
		C282.7,5853.4,282.3,5853.1,282.1,5852.6z M276.6,5847.4h3.6l-1.8-4.7L276.6,5847.4z M297.9,5838.7c0.2-0.3,0.5-0.4,0.8-0.5
		c0.3-0.1,0.6,0,0.9,0.2c0.3,0.2,0.4,0.5,0.5,0.8c0.1,0.3,0,0.6-0.2,0.9l-4.5,6.2v5.9c0,0.3-0.1,0.6-0.4,0.9
		c-0.2,0.2-0.5,0.4-0.8,0.4c-0.3,0-0.6-0.1-0.9-0.4c-0.2-0.2-0.4-0.5-0.4-0.9v-5.9l-4.5-6.2c-0.2-0.2-0.3-0.6-0.2-0.9
		c0-0.3,0.2-0.6,0.5-0.8c0.3-0.2,0.6-0.3,0.9-0.2c0.3,0,0.6,0.2,0.8,0.5l3.8,5.1L297.9,5838.7z"/>
	<g id="グループ_865" transform="translate(1655.251 -429.175)">
		<path id="パス_623" d="M-1468.4,6201.4c1.1,0.4,2.3,0.7,3.4,0.9c1.2,0.2,2.5,0.2,3.8-0.1c0.1,0,0.2,0,0.3-0.1l0,0
			c-0.6-1.6-0.8-3.4-0.6-5.1c-0.9-0.2-1.7-0.3-2.6-0.4c-0.8,1.3-1.7,2.5-2.7,3.6C-1467.4,6200.7-1467.9,6201.1-1468.4,6201.4z"/>
		<path id="パス_624" d="M-1461.9,6193.8c-0.4-0.2-1,0.7-1.8,2c0.7,0.1,1.4,0.2,2.1,0.4C-1461.4,6194.9-1461.4,6194-1461.9,6193.8
			z"/>
		<path id="パス_625" d="M-1456.6,6237.4c0.6-2.5,2-3.2,4.2-7.3c2.4-4.3,2.7-9.4,0.8-13.9c-0.7-1.6-1.7-3.2-2.7-4.6
			c-3.8,1.9-9.1,1.2-12.8-0.1c-0.1,0-0.2-0.1-0.3-0.2c-5.7-0.8-10.1-3-11.9-5.9c-1.8,0.7-3.4,1.6-5,2.7c-6.6,4.7-5.9,10.3-6.5,14.2
			c-0.3,2.3-0.5,3.3-1.3,4.5c-0.7,1.1-1.9,1.9-3.2,2.2c1,2.4,4.5,3.3,6.3,2.9c1.8-0.5,4-2.3,5-6.4c3.4,1.7,6.9,3.1,10.6,4.2
			c5.7,1.8,8.8,2.7,11,2.8c-1.9,4.8-1.4,6.5,0.3,8.2c1.8,1.9,4.9,1.7,6.7,0.9C-1456.6,6240.6-1457,6239-1456.6,6237.4z"/>
		<path id="パス_626" d="M-1469.7,6202.1L-1469.7,6202.1c2,1.2,4.3,1.8,6.6,1.7C-1465.4,6203.8-1467.7,6203.2-1469.7,6202.1z"/>
		<path id="パス_627" d="M-1481,6229.1c-0.7-0.2-1.4,0.1-1.7,0.8c-0.2,0.7,0.1,1.4,0.8,1.7c0.7,0.2,1.4-0.1,1.6-0.8
			C-1479.9,6230.1-1480.3,6229.3-1481,6229.1C-1481,6229.1-1481,6229.1-1481,6229.1z"/>
		<path id="パス_628" d="M-1466.9,6233.8c-0.7-0.2-1.4,0.1-1.7,0.8c-0.2,0.7,0.1,1.4,0.8,1.7c0.7,0.2,1.4-0.1,1.6-0.8
			C-1465.9,6234.8-1466.2,6234.1-1466.9,6233.8C-1466.9,6233.8-1466.9,6233.8-1466.9,6233.8z"/>
		<path id="パス_629" d="M-1475.9,6242.2l0.3-0.9c0,0,0,0,0,0c-0.8,0-1.6-0.3-2.1-0.8c-0.2-0.2-0.3-0.5-0.2-0.8
			c0-0.3,0.2-0.6,0.4-0.7c0,0,0.1,0,0.1-0.1c0.2-0.2,0.5-0.4,1.3-0.1c0.2,0.1,0.3,0.1,0.4,0.2l0.2,0.1c0,0,0,0,0,0c0,0,0,0,0-0.1
			l0-0.1c0-0.1,0-0.1,0-0.1l0.1-0.4c0,0,0,0,0,0c0,0,0,0,0,0l-0.1-0.1c-0.5-0.2-0.9-0.4-1.3-0.7c-0.4-0.4-0.4-1,0-1.3c0,0,0,0,0,0
			c0.3-0.3,0.6-0.4,1-0.3c0.5,0.1,1,0.3,1.4,0.6c0,0,0.2,0.1,0.3,0.2l0.2-0.4c0-0.1,0.1-0.4,0.2-0.5c-0.4-0.3-0.8-0.6-1.3-0.8
			c-0.3-0.1-0.6-0.2-0.9-0.2c-0.7-0.1-1.4,0.2-1.8,0.7c-0.6,0.7-0.6,1.7,0,2.4l0,0l-0.1,0c-0.2,0-0.3,0.1-0.5,0.2
			c-0.4,0.3-0.7,0.7-0.8,1.2c-0.1,0.5,0.1,1,0.4,1.5c0.4,0.4,0.9,0.7,1.4,0.9C-1476.8,6242.1-1476.3,6242.2-1475.9,6242.2
			L-1475.9,6242.2L-1475.9,6242.2z"/>
		<path id="パス_630" d="M-1475.5,6241.4C-1475.5,6241.3-1475.6,6241.3-1475.5,6241.4c-0.9-0.1-1.6-0.3-2.2-0.9
			c-0.2-0.2-0.3-0.5-0.2-0.7c0-0.3,0.2-0.5,0.4-0.7c0,0,0.1,0,0.1-0.1c0.2-0.2,0.5-0.4,1.2-0.1c0.2,0.1,0.3,0.1,0.4,0.2l0.2,0.1
			c0,0,0.1,0,0.1,0c0,0,0.1-0.1,0.1-0.1l0-0.1c0-0.1,0-0.1,0-0.1l0.1-0.4c0-0.1,0-0.1-0.1-0.1l-0.1-0.1c-0.5-0.1-0.9-0.4-1.2-0.7
			c-0.4-0.3-0.4-0.9,0-1.2c0,0,0,0,0,0c0.2-0.3,0.6-0.4,0.9-0.3c0.5,0.1,0.9,0.3,1.4,0.6c0.3,0.2,0.4,0.2,0.4,0.2l0,0l0.2-0.4l0,0
			c0.1-0.2,0.1-0.3,0.2-0.5l0,0l0,0c-0.6-0.5-1.4-0.9-2.2-1c-0.7-0.1-1.4,0.2-1.9,0.8c-0.6,0.7-0.6,1.8,0,2.5
			c-0.2,0-0.3,0.1-0.5,0.2c-0.5,0.3-0.8,0.7-0.8,1.3c-0.1,0.5,0.1,1.1,0.4,1.5c0.4,0.4,0.9,0.8,1.5,1c0.1,0.1,0.2,0.1,0.3,0.1
			c0.3,0.1,0.6,0.2,1,0.2c0,0,0,0,0.1,0c0,0,0,0,0-0.1L-1475.5,6241.4L-1475.5,6241.4z M-1475.9,6242.3c-0.4,0-0.9-0.1-1.3-0.3
			c-0.5-0.2-1-0.5-1.5-1c-0.6-0.8-0.5-2,0.3-2.6c0,0,0.1-0.1,0.2-0.1c0.2-0.1,0.3-0.2,0.5-0.2c-0.6-0.7-0.6-1.8,0-2.5
			c0.5-0.5,1.1-0.8,1.8-0.7c0.8,0.1,1.6,0.4,2.2,0.9c0,0.2-0.1,0.3-0.2,0.5l-0.2,0.4c-0.1-0.1-0.2-0.1-0.4-0.2
			c-0.4-0.3-0.9-0.5-1.4-0.6c-0.4-0.1-0.7,0-1,0.3c-0.4,0.3-0.4,0.9,0,1.3c0,0,0,0,0,0c0.4,0.3,0.9,0.6,1.4,0.7c0,0,0,0,0,0.1
			l-0.1,0.3c0,0.1,0,0.1-0.1,0.2l0,0.1c0,0,0,0.1-0.1,0.1c-0.2-0.1-0.3-0.1-0.6-0.2c-0.8-0.3-1.1,0-1.3,0.1c-0.4,0.3-0.5,1-0.2,1.4
			c0,0,0,0,0,0c0.6,0.5,1.3,0.8,2.1,0.8c0,0,0,0,0.1,0L-1475.9,6242.3C-1475.8,6242.3-1475.9,6242.3-1475.9,6242.3
			C-1475.9,6242.3-1475.9,6242.3-1475.9,6242.3L-1475.9,6242.3z"/>
		<path id="パス_631" d="M-1475.6,6241.3c-0.8,0-1.5-0.3-2.1-0.8c-0.4-0.4-0.3-1.1,0.1-1.4c0,0,0,0,0.1,0c0.2-0.2,0.5-0.5,1.3-0.1
			c0.2,0.1,0.4,0.2,0.6,0.2c0.1,0,0.1-0.1,0.1-0.1l0-0.1c0-0.1,0-0.1,0.1-0.2l0.1-0.3c0,0,0-0.1,0-0.1c-0.5-0.2-1-0.4-1.4-0.7
			c-0.4-0.3-0.4-0.9-0.1-1.3c0,0,0,0,0,0c0.3-0.3,0.6-0.4,1-0.3c0.5,0.1,0.9,0.3,1.4,0.6c0.1,0.1,0.2,0.1,0.4,0.2l0.2-0.4
			c0.1-0.2,0.1-0.3,0.2-0.5c-0.6-0.5-1.4-0.9-2.2-0.9c-0.7-0.1-1.4,0.2-1.8,0.7c-0.6,0.7-0.6,1.8,0,2.5c-0.2,0-0.3,0.1-0.5,0.2
			c-0.9,0.6-1.1,1.7-0.5,2.6c0,0.1,0.1,0.1,0.1,0.2c0.4,0.4,0.9,0.8,1.5,1c0.4,0.2,0.8,0.3,1.3,0.3c0,0,0,0,0,0c0,0,0,0,0,0
			L-1475.6,6241.3C-1475.6,6241.3-1475.6,6241.3-1475.6,6241.3z M-1477.2,6242c-0.5-0.2-1-0.5-1.4-0.9c-0.3-0.4-0.5-0.9-0.4-1.5
			c0.1-0.5,0.4-1,0.8-1.2c0.1-0.1,0.3-0.2,0.5-0.2l0.1,0l0,0c-0.6-0.7-0.6-1.7,0-2.4c0.4-0.5,1.1-0.8,1.8-0.7c0.3,0,0.6,0.1,0.9,0.2
			c0.5,0.2,0.9,0.4,1.3,0.8c0,0.1-0.1,0.4-0.2,0.5l-0.2,0.4c-0.1,0-0.3-0.1-0.3-0.2c-0.4-0.3-0.9-0.5-1.4-0.6c-0.4-0.1-0.8,0-1,0.3
			c-0.4,0.4-0.4,1,0,1.3c0,0,0,0,0,0c0.4,0.3,0.8,0.6,1.3,0.7l0.1,0.1c0,0,0,0,0,0c0,0,0,0,0,0l-0.1,0.4c0,0,0,0.1,0,0.1l0,0.1
			c0,0,0,0.1,0,0.1c0,0,0,0,0,0l-0.2-0.1c-0.1,0-0.2-0.1-0.4-0.2c-0.8-0.3-1-0.1-1.3,0.1c0,0-0.1,0-0.1,0.1
			c-0.2,0.2-0.4,0.4-0.4,0.7c0,0.3,0.1,0.6,0.2,0.8c0.6,0.5,1.4,0.8,2.1,0.8c0,0,0,0,0,0l-0.3,0.9l0,0l0,0
			C-1476.3,6242.2-1476.8,6242.1-1477.2,6242z"/>
		<path id="パス_632" d="M-1457.2,6198.2c2,0.6,3.7,1.7,5.1,3.3c0.3,0.6,0.6,1.2,0.7,1.8c0.2,0.8,0.3,1.7,0.3,2.6
			c0.1,1.1-0.3,2.2-1.2,2.9c-0.2,0.3-1,0.7-1.3,1c-0.4,0.3-0.8,0.6-1.3,0.9c-0.1,0.1-0.2,0.1-0.3,0.2c0.3,0.3,0.5,0.6,0.7,0.9
			c1.8-0.9,3.2-2.4,3.9-4.3c1.9-4.9-2.7-9.3-8.1-10.5c-1-0.2-2-0.4-3.1-0.6c0,0.3,0,0.5-0.1,0.8
			C-1460.1,6197.3-1458.6,6197.7-1457.2,6198.2z"/>
		<path id="パス_633" d="M-1478.4,6202.3c0-0.2,0-0.4,0.1-0.6c0-0.5,0.2-1,0.4-1.4c0.4-0.8,1-1.4,1.7-1.9c1.5-1,3.2-1.6,5-1.7
			c0.5,0,2-0.1,2.5-0.1c1.5-0.1,3-0.1,4.6,0c0.2-0.3,0.4-0.6,0.5-0.8c-4.8-0.7-9.9-0.7-13.8,2c-2,1.2-3,3.5-2.6,5.8
			c0.1,0.7,0.4,1.3,0.8,1.8c0.5-0.2,1-0.4,1.4-0.6C-1478.2,6204.1-1478.4,6203.2-1478.4,6202.3z"/>
		<path id="パス_634" d="M-1461.6,6197c0-0.3,0-0.6,0.1-0.8c-0.7-0.1-1.4-0.2-2.1-0.4c-0.2,0.3-0.3,0.5-0.5,0.8
			C-1463.3,6196.8-1462.5,6196.9-1461.6,6197z"/>
		<path id="パス_635" d="M-1467.4,6211.4c0.1,0.1,0.2,0.1,0.3,0.1c3.7,1.3,9,2,12.8,0.1c-0.2-0.3-0.5-0.6-0.7-0.9
			c-0.8,0.5-1.8,0.8-2.8,0.7c-0.2,0-0.3,0-0.5,0c-3.8,0.8-7.9-0.5-11.6-1.9c-3.1-1.2-6.7-1.8-8-4.6c-0.5,0.2-1,0.4-1.4,0.6
			C-1477.5,6208.3-1473.1,6210.6-1467.4,6211.4z"/>
		<path id="パス_636" d="M-1468.4,6201.4c-0.4-0.1-0.9-0.3-1.3-0.5c-0.9-0.4-0.8,0.2-0.3,1c0.1,0.1,0.2,0.1,0.4,0.2
			C-1469.3,6201.9-1468.8,6201.7-1468.4,6201.4z"/>
		<path id="パス_637" d="M-1461,6202.2c0.2,0.4,0.3,0.9,0.5,1.3c0.1,0,0.2,0,0.3-0.1C-1459.3,6202.6-1459.8,6201.9-1461,6202.2z"
			/>
		<path id="パス_638" d="M-1460.5,6203.4c-0.1-0.4-0.3-0.8-0.5-1.3c-0.1,0-0.2,0-0.3,0.1c-1.2,0.2-2.5,0.3-3.8,0.1
			c-1.2-0.2-2.3-0.5-3.4-0.9c-0.4,0.2-0.8,0.5-1.3,0.7c2,1.1,4.3,1.7,6.6,1.7c0.7,0,1.5-0.1,2.2-0.3
			C-1460.8,6203.5-1460.7,6203.5-1460.5,6203.4z"/>
		<g id="グループ_677" transform="translate(-1487.941 6183.979) rotate(19)">
			<path id="パス_639" d="M2.8,13.5c-0.6-0.7-0.6-1.7-0.2-2.4c0.3-0.6,0.6-1.3,0.9-1.9c0.1-0.2,0-0.4-0.2-0.5
				c-1.2,0.8-1.9,2.1-2,3.5c0,0.2,0,0.3-0.1,0.5c0.5,1,1.3,2.3,2.4,2.5c0.1,0,0.1-0.1,0.2-0.2C3.4,14.6,3,14,2.8,13.5z"/>
			<path id="パス_640" d="M6.3,14c0,0.1,0.1,0.1,0.2,0.2c0,0,0,0,0.1,0c0.4,0.1,0.8,0.2,1.2,0.2c0,0,0.1,0,0.1,0
				c0,0,0.1-0.1,0.1-0.1c-0.1-0.1-0.2-0.2-0.3-0.3l0,0l0,0c-0.1-0.1-0.3-0.2-0.4-0.3c-0.2-0.2-0.4-0.4-0.6-0.7
				c-0.3-0.5-0.5-1.1-0.4-1.7c0.1-0.7,0.4-1.4,0.8-2C7.4,8.8,7.6,8.4,7.9,8C7.7,7.8,7.5,7.7,7.2,7.8C4.8,8.9,3.8,12.7,6.3,14z"/>
			<path id="パス_641" d="M50.5,3.8c-0.1-0.2-0.2-0.4-0.4-0.6c-0.1,0-0.2,0-0.2-0.1C49,2.5,48,2.2,46.9,2.3c0,0.1,0,0.1,0.1,0.2
				c0.5,0.1,0.9,0.4,1.3,0.7c0.1,0.1,0.2,0.2,0.4,0.3c0.1,0,0.1,0,0.2,0.1C48.9,3.6,49,3.7,49,3.8c0.2,0.1,0.3,0.3,0.5,0.5
				c0,0.1,0,0.2,0.1,0.2c0,0.1,0.1,0.1,0.1,0.2c0.1,0,0.1,0.1,0.2,0.2c0.3,0.9,0.3,2-0.2,2.9C49.9,8,50.2,8,50.4,7.9
				c0,0,0.1-0.1,0.1-0.1C51.2,6.6,51.2,5,50.5,3.8z"/>
			<path id="パス_642" d="M52.1,3.8c0.1,0.6,0.1,1.2,0.1,1.7c0,0.1,0.1,0.2,0.1,0.3c0.1,0,0.3-0.1,0.4-0.2C52.9,5.4,53,5,53,4.6
				c0,0,0,0,0,0s0,0,0,0c0,0,0,0,0-0.1c0-0.3-0.1-0.5-0.1-0.8c0-0.3-0.1-0.6-0.2-0.8c-0.6-0.8-1.5-1.4-2.5-1.7c0,0-0.1,0-0.1,0
				c-0.2,0-0.4,0.1-0.4,0.3c0.5,0.2,1,0.5,1.4,1c0.4,0.3,0.7,0.7,0.9,1.1C52,3.6,52,3.7,52.1,3.8z"/>
		</g>
		<path id="パス_643" d="M-1469.3,6241.6c0-0.3-0.2-0.5-0.5-0.5c-0.1,0-0.2,0-0.3,0c-0.1,0-0.2,0-0.2,0c-0.1-0.1-0.2-0.1-0.3-0.1
			c-0.3,0-0.6,0.1-0.6,0.4c0,0,0,0.1,0,0.1c0.1,0.4,0.5,0.7,0.9,0.7c0.4,0.1,0.8-0.1,1-0.5
			C-1469.3,6241.7-1469.3,6241.7-1469.3,6241.6z"/>
	</g>
</g>
</svg>
