<?xml version="1.0" encoding="utf-8"?>
<!-- Generator: Adobe Illustrator 24.2.0, SVG Export Plug-In . SVG Version: 6.00 Build 0)  -->
<svg version="1.1" id="レイヤー_1" xmlns="http://www.w3.org/2000/svg" xmlns:xlink="http://www.w3.org/1999/xlink" x="0px"
	 y="0px" viewBox="0 0 210 210" style="enable-background:new 0 0 210 210;" xml:space="preserve">
<style type="text/css">
	.st0{fill:#EAE7D3;}
</style>
<path id="パス_655" class="st0" d="M24.8,89.3c-3.2,18.4,1.1,49.6,15.1,63.3c26.5,25.8,38.8,31.3,67.4,30
	c44.7-2,71.5-39.2,76.4-60c4.9-20.8,1.9-42.8-14.6-65.5c-22.1-30.4-48.6-30.8-74.7-28C67.2,31.9,29.2,63.9,24.8,89.3z M92.9,76.9
	c12.3-0.7,21.4,2.5,29.1,26.5c5.8,18-4.4,23.5-13.3,29.3c-12.2,8-21.5,4.8-32.2-2.2c-8.6-5.7-13.4-14.5-12.1-27.4
	C66.4,84,81.9,77.6,92.9,76.9L92.9,76.9z"/>
</svg>
