<?xml version="1.0" encoding="utf-8"?>
<!-- Generator: Adobe Illustrator 24.2.0, SVG Export Plug-In . SVG Version: 6.00 Build 0)  -->
<svg version="1.1" id="レイヤー_1" xmlns="http://www.w3.org/2000/svg" xmlns:xlink="http://www.w3.org/1999/xlink" x="0px"
	 y="0px" viewBox="0 0 1122 460" style="enable-background:new 0 0 1122 460;" xml:space="preserve">
<style type="text/css">
	.st0{fill:#EADFD3;}
	.st1{fill:#E6DFD8;}
	.st2{fill:#EAE7D3;}
</style>
<g id="グループ_1097" transform="translate(-122 -883.293)">
	<g id="グループ_449" transform="translate(150.473 1106.254)">
		<path id="パス_188" class="st0" d="M210,46c-5.6-23.9-26.7-59.4-50.8-68.7c-45.3-17.6-62.9-17.9-96.8-1.7
			C9.5,1-3.8,59.7,0.9,87.3S20.5,140,52.2,159c42.3,25.4,74.5,12.3,104.6-4.4C188.2,137.1,223.8,116.8,210,46z M122.3,88.6
			c-14.5,7.2-21.2,3-31.8-2.3c-5.9-6.7-13.2-20.8-5.5-32.4C95.8,38,99.6,36.6,116,39.7c13.3,2.4,18.9,1.9,23.9,18.1
			C143.4,71.1,135.3,82.2,122.3,88.6L122.3,88.6z"/>
	</g>
	<g id="グループ_681" transform="translate(888.59 904.31) rotate(45)">
		<path id="パス_188-4" class="st1" d="M92.1,20.5C88.9,7.1,77.1-12.8,63.6-18c-25.4-9.9-35.2-10-54.2-0.9
			C-20.3-4.8-27.8,28.1-25.1,43.6s11,29.5,28.7,40.2c23.7,14.2,41.7,6.9,58.6-2.5C79.9,71.5,99.8,60.1,92.1,20.5z M42.9,44.3
			c-8.1,4-11.9,1.7-17.8-1.3c-3.3-3.8-7.4-11.7-3.1-18.2c6-8.9,8.1-9.7,17.3-8C46.8,18.3,50,18,52.8,27.1
			C54.7,34.5,50.2,40.7,42.9,44.3L42.9,44.3z"/>
	</g>
	<path id="パス_653" class="st2" d="M1173.5,1249.7c-4.1-17.6-19.7-43.7-37.4-50.6c-33.3-13-46.3-13.2-71.2-1.2
		c-39,18.6-48.8,61.9-45.3,82.2s14.5,38.8,37.7,52.7c31.1,18.7,54.8,9.1,77-3.3C1157.5,1316.7,1179.2,1273.8,1173.5,1249.7z
		 M1117.7,1286.3c-10.7,5.3-20,5.9-35.9-12.5c-11.9-13.8-4.9-22.6,0.8-31.1c7.9-11.7,17.3-12.4,29.4-10.2
		c9.8,1.8,17.4,7.9,21.1,19.8C1138.6,1270.1,1127.3,1281.6,1117.7,1286.3L1117.7,1286.3z"/>
</g>
</svg>
