<?xml version="1.0" encoding="utf-8"?>
<!-- Generator: Adobe Illustrator 24.2.0, SVG Export Plug-In . SVG Version: 6.00 Build 0)  -->
<svg version="1.1" id="レイヤー_1" xmlns="http://www.w3.org/2000/svg" xmlns:xlink="http://www.w3.org/1999/xlink" x="0px"
	 y="0px" viewBox="0 0 375 370" style="enable-background:new 0 0 375 370;" xml:space="preserve">
<style type="text/css">
	.st0{fill:#EAE7D3;}
	.st1{fill:#EADFD3;}
	.st2{fill:#E0D4C6;}
</style>
<g id="グループ_887" transform="translate(0 -751)">
	<g id="グループ_882" transform="translate(326.191 751) rotate(45)">
		<path id="パス_188" class="st0" d="M63.8,22.4C62,14.7,55.1,3.2,47.3,0.1C32.7-5.6,27-5.7,16-0.4C-1.2,7.8-5.5,26.8-4,35.8
			S2.4,52.9,12.7,59c13.7,8.2,24.1,4,33.9-1.4C56.7,51.9,68.3,45.3,63.8,22.4z M35.4,36.2c-4.7,2.3-6.9,1-10.3-0.7
			c-1.9-2.2-4.3-6.7-1.8-10.5c3.5-5.2,4.7-5.6,10-4.6c4.3,0.8,6.1,0.6,7.7,5.9C42.2,30.5,39.6,34.1,35.4,36.2L35.4,36.2z"/>
	</g>
	<g id="グループ_884" transform="translate(0 884.045)">
		<path id="パス_188-2" class="st1" d="M121.4,41.5C118.1,27.7,105.9,7.2,92,1.8C65.9-8.4,55.7-8.5,36.1,0.9
			C5.5,15.5-2.2,49.5,0.5,65.4s11.4,30.5,29.6,41.4c24.5,14.7,43.1,7.1,60.5-2.6C108.8,94.2,129.4,82.5,121.4,41.5z M70.7,66.2
			c-8.4,4.1-12.3,1.7-18.4-1.3c-3.4-3.9-7.7-12-3.2-18.7c6.2-9.2,8.4-10,17.9-8.2C74.8,39.3,78,39,80.9,48.4
			C82.9,56.1,78.2,62.5,70.7,66.2L70.7,66.2z"/>
	</g>
	<path id="パス_2094" class="st2" d="M322.9,1060.9c-2.4-10.2-11.4-25.2-21.6-29.2c-19.3-7.5-26.8-7.6-41.2-0.7
		c-22.5,10.8-28.2,35.8-26.2,47.5c2,11.7,8.4,22.4,21.8,30.5c18,10.8,31.7,5.2,44.5-1.9C313.6,1099.6,326.2,1074.9,322.9,1060.9z
		 M290.6,1082.1c-6.2,3-11.5,3.4-20.7-7.3c-6.9-8-2.8-13.1,0.5-18c4.6-6.8,10-7.2,17-5.9c5.7,1,10,4.5,12.2,11.4
		C302.7,1072.7,296.2,1079.4,290.6,1082.1z"/>
</g>
</svg>
