<?xml version="1.0" encoding="utf-8"?>
<!-- Generator: Adobe Illustrator 24.2.0, SVG Export Plug-In . SVG Version: 6.00 Build 0)  -->
<svg version="1.1" id="レイヤー_1" xmlns="http://www.w3.org/2000/svg" xmlns:xlink="http://www.w3.org/1999/xlink" x="0px"
	 y="0px" viewBox="0 0 110 18" style="enable-background:new 0 0 110 18;" xml:space="preserve">
<style type="text/css">
	.st0{stroke:#000000;stroke-width:0.3;}
</style>
<path id="パス_2122" class="st0" d="M3.5,4.8c-0.6,0-1.2,0-1.8,0C0.9,4.8,0.9,5,0.9,5.5c0,0.3,0,0.6,0,0.9v2.4c0,0.4,0,0.9,0,1.3
	c0,0.4,0.1,0.4,0.7,0.4c0.8,0,0.9,0,0.9-0.5c0-0.3,0-0.9,0-1.3v-2c0-0.3,0.2-0.5,0.5-0.5h7.3c0.4,0,0.9-0.1,0.9,0.5
	c-0.1,1-0.4,2-0.8,3c-0.7,1.6-1.7,2.9-3.1,4c-0.7,0.6-1.5,1.1-2.3,1.5c-0.3,0.1-0.5,0.2-0.5,0.4c0,0.3,0.6,1.1,0.9,1.1
	c0.8-0.3,1.5-0.7,2.1-1.2c3.3-2.3,4.6-4.7,5.3-8.6C13,6,13.1,5.8,13.1,5.7c0-0.3-0.7-0.9-1-0.9c-0.1,0-0.2,0-0.4,0
	c-0.2,0-0.4,0-0.6,0H8c-0.3,0-0.5-0.2-0.5-0.5c0,0,0,0,0,0V2.8c0-0.5,0-0.7,0.2-0.8c0.1-0.1,0.2-0.2,0.2-0.3c0-0.2-0.5-0.2-0.6-0.2
	c-0.2,0-1-0.1-1.2-0.1C6,1.4,5.9,1.5,5.9,1.6c0,0.1,0,0.2,0,0.2C6,2.4,6,2.9,6,3.5v0.8c0,0.3-0.2,0.5-0.5,0.5c0,0,0,0,0,0L3.5,4.8z
	 M23.1,3.6c-0.8,0-1.5,0-2.2,0c-0.5,0-0.5,0.2-0.5,0.8c0,0.7,0,0.8,0.5,0.8c0.7,0,1.5,0,2.2,0h6.7c0.4,0,0.6,0,0.6,0.4
	c0,0.1,0,0.3,0,0.4c-0.2,1.8-1,3.5-2.2,4.9c-1.5,1.6-3.4,2.7-5.4,3.3c-0.2,0.1-0.3,0.1-0.3,0.3c0,0.3,0.5,1.1,0.9,1.1
	c0.2,0,0.4-0.1,0.6-0.2c1.2-0.5,2.3-1.1,3.3-1.8c2.7-1.8,4.5-4.7,4.8-7.9c0.1-0.8,0.3-0.9,0.3-1.1c0-0.2-0.6-1-1-1
	c-0.1,0-0.2,0-0.3,0c-0.2,0-0.5,0-0.7,0L23.1,3.6z M42.5,3.6c-0.8,0-1.5,0-2.2,0c-0.5,0-0.5,0.2-0.5,0.8c0,0.7,0,0.8,0.5,0.8
	c0.7,0,1.5,0,2.2,0h6.7c0.4,0,0.6,0,0.6,0.4c0,0.1,0,0.3,0,0.4c-0.2,1.8-1,3.5-2.2,4.9c-1.5,1.6-3.4,2.7-5.4,3.3
	c-0.2,0.1-0.3,0.1-0.3,0.3c0,0.3,0.5,1.1,0.9,1.1c0.2,0,0.4-0.1,0.6-0.2c1.2-0.5,2.3-1.1,3.4-1.8c2.7-1.8,4.5-4.7,4.8-7.9
	c0.1-0.8,0.3-0.9,0.3-1.1c0-0.2-0.6-1-1-1c-0.1,0-0.2,0-0.3,0c-0.2,0-0.5,0-0.7,0L42.5,3.6z M64.1,4.6c0.2,0,0.3,0.2,0.3,0.4
	c0,1.8-0.4,3.6-1.1,5.3C63,11.1,62.1,13,61.1,13c-1,0-1.3-1.8-1.3-2.6c-0.1-2.4,1.4-4.7,3.7-5.5C63.7,4.7,63.9,4.6,64.1,4.6z
	 M65.7,3c-4,0-7.3,3.2-7.4,7.3c0,0.1,0,0.1,0,0.2c0,0.9,0.2,1.7,0.5,2.5c0.4,0.9,1.3,1.5,2.3,1.6c0.9-0.1,1.7-0.6,2.3-1.3
	c1.7-2.1,2.4-5.4,2.6-8.1c0-0.3,0-0.7,0.5-0.7c0.3,0,0.5,0.1,0.8,0.2c2,0.6,3.3,2.5,3.2,4.6c0,2.5-1.8,4.5-4.3,4.9
	c-0.2,0-0.4,0.1-0.4,0.3c0,0.3,0.6,1.2,1,1.2c0.6-0.1,1.3-0.4,1.9-0.7c2.2-1.1,3.5-3.3,3.5-5.7c0-1.6-0.6-3.2-1.8-4.4
	C69,3.5,67.4,2.9,65.7,3z M80.1,10.5c0,0-1.3,0.3-1.3,0.7c0.1,0.6,0.3,1.1,0.6,1.6c1.1,1.6,3.1,1.9,4.9,1.9c1.8,0,3.6-0.2,5.4-0.5
	c0.3-0.1,0.4-0.4,0.4-0.7c0-0.7-0.1-1-0.3-1c-0.1,0-0.1,0-0.2,0c-1.8,0.4-3.6,0.6-5.5,0.6c-1.1,0.1-2.3-0.2-3.1-1
	c-0.3-0.4-0.5-0.8-0.6-1.3C80.4,10.6,80.3,10.5,80.1,10.5z M81.1,3.5c-0.2,0-0.3,0.2-0.3,0.3c-0.1,0.3-0.1,0.6-0.1,0.8
	c0,0.1,0,0.3,0.1,0.3c0.6,0.4,3.2,0.5,4,0.5c1.1,0,2.2-0.1,3.3-0.2c0.4-0.1,0.5-0.1,0.5-0.5c0-0.3,0-1.2-0.4-1.2c-0.1,0-0.2,0-0.2,0
	C86.8,3.9,85.7,4,84.6,4c-1.1,0-2.1-0.1-3.1-0.4C81.4,3.6,81.2,3.5,81.1,3.5z M100.7,2.3c0,0.1,0,0.1,0.1,0.2
	c0.1,0.4,0.3,0.9,0.4,1.3c0.2,0.8,0.6,2.5,0.9,3.2c0,0.1,0.1,0.2,0.1,0.3c0,0.2-0.1,0.3-0.3,0.5c-1.5,1-3.3,2.2-3.3,4.2
	c0,1.1,0.6,2.1,1.6,2.6c1.1,0.6,2.3,0.9,3.6,0.8c1.7,0,3.3-0.1,5-0.3c0.3-0.1,0.3-0.3,0.3-0.7c0-0.4,0-1-0.2-1c-0.1,0-0.1,0-0.2,0
	c-1.6,0.3-3.1,0.4-4.7,0.4c-1,0.1-2.1-0.1-3-0.6c-0.4-0.2-0.7-0.7-0.8-1.2c0-1.5,2.1-2.8,3.3-3.4c1.7-1,3.5-1.9,5.4-2.6
	c0.1,0,0.3-0.1,0.3-0.3c0-0.2-0.7-1.5-1-1.5c-0.2,0-0.3,0.1-0.5,0.2c-1.2,0.8-2.5,1.5-3.9,2.1c-0.3,0-0.3-0.3-0.4-0.5
	c-0.3-1.2-0.5-2.4-0.7-3.6c0-0.4,0-0.6-0.5-0.6c-0.2,0-0.4,0-0.6,0.1C101.2,2.1,100.7,2.1,100.7,2.3z"/>
</svg>
