<?xml version="1.0" encoding="utf-8"?>
<!-- Generator: Adobe Illustrator 24.2.0, SVG Export Plug-In . SVG Version: 6.00 Build 0)  -->
<svg version="1.1" id="レイヤー_1" xmlns="http://www.w3.org/2000/svg" xmlns:xlink="http://www.w3.org/1999/xlink" x="0px"
	 y="0px" viewBox="0 0 660 118" style="enable-background:new 0 0 660 118;" xml:space="preserve">
<path id="パス_2098" d="M7.1,11c-1.7,0-3.4-0.1-5.2-0.1c-1,0-1,0.4-1,2.5c0,1.1,0,1.9,1,1.9c1.4,0,3.4-0.1,5.1-0.1h16.8
	c0.8,0,1.5,0,1.5,0.5c0,0.5-2.1,2.4-2.5,2.8c-1.6,1.5-3.3,3-5,4.4c-0.3,0.3-0.6,0.4-1,0.4c-0.5,0-0.7-0.3-1-0.6
	c-0.5-0.5-2.5-2.6-3.1-2.6c-0.8,0-3,1.8-3,2.4c0,0.4,0.5,0.8,0.8,1c2.8,2.5,5.3,5.4,7.2,8.6c0.2,0.3,0.4,0.7,0.8,0.7
	c0.8,0,3.3-1.6,3.3-2.4c-0.4-0.9-0.9-1.7-1.5-2.4c-0.2-0.4-0.6-0.7-0.6-1.2c0-0.5,0.4-0.8,0.8-1.2c3.7-3.1,7.2-6.4,10.6-9.8
	c0.4-0.4,0.7-0.7,1.1-1c0.7-0.6,1.2-1.1,1.2-1.4c0-0.5-2-3-2.8-3c-0.1,0-0.3,0-0.4,0C29.6,11,28.8,11,28.1,11H7.1z M50.3,11
	c-1.7,0-3.4-0.1-5.2-0.1c-1,0-1,0.4-1,2.5c0,1.1,0,1.9,1,1.9c1.4,0,3.4-0.1,5.1-0.1h16.8c0.8,0,1.5,0,1.5,0.5c0,0.5-2.1,2.4-2.5,2.8
	c-1.6,1.5-3.3,3-5,4.4c-0.3,0.3-0.6,0.4-1,0.4c-0.5,0-0.7-0.3-1-0.6c-0.5-0.5-2.5-2.6-3.1-2.6c-0.8,0-3,1.8-3,2.4
	c0,0.4,0.5,0.8,0.8,1c2.8,2.5,5.3,5.4,7.2,8.6c0.2,0.3,0.4,0.7,0.8,0.7c0.8,0,3.3-1.6,3.3-2.4c-0.4-0.9-0.9-1.7-1.5-2.4
	c-0.2-0.4-0.6-0.7-0.6-1.2c0-0.5,0.4-0.8,0.8-1.2c3.7-3.1,7.2-6.4,10.6-9.8c0.4-0.4,0.7-0.7,1.1-1c0.7-0.6,1.2-1.1,1.2-1.4
	c0-0.5-2-3-2.8-3c-0.1,0-0.3,0-0.4,0C72.8,11,72,11,71.3,11H50.3z M98.4,4c-0.4,0-0.5,0.3-0.5,0.6c0,0.1,0.1,0.9,0.1,1.6
	c0,1.7-0.2,3.5-0.4,5.2c-0.1,0.8-0.5,1.1-1.3,1.2c-2.2,0.4-4.4,1-6.7,1.2c-0.5,0-1.2,0-1.2,0.6c0,0.2,0.7,4.2,1.6,4.2
	c0.3-0.1,0.6-0.1,0.8-0.3c1.5-0.6,3-1,4.6-1.4c0.3,0,0.5,0.2,0.5,0.5c0,0,0,0,0,0c-0.2,1-0.6,2.1-1,3c-1.6,4.2-4,8-7.2,11.1
	c-0.3,0.2-0.5,0.6-0.6,0.9c0,0.9,2.6,2.4,3.3,2.4c0.3,0,0.5-0.2,0.7-0.4c1.5-1.8,2.8-3.7,4-5.7c2.3-3.7,4-7.7,5.1-12
	c0.3-1.1,0.7-1.4,3-1.4c2.4,0,2.6,1.7,2.6,3.6c0,3.1-0.6,6.2-1.8,9c-1,2-2,2.5-4.2,2.5c-0.8,0-1.4-0.2-1.8-0.2
	c-0.4,0-0.6,0.3-0.6,0.7c0.1,1,0.3,2,0.7,2.9c0.4,0.8,1,0.9,1.8,0.9c3.1,0.1,6.1-1.5,7.6-4.3c1.8-3.2,2.4-8.6,2.4-12.2
	c0-2.2-0.5-4.5-2.5-5.8c-1.4-0.7-3-1-4.5-0.9h-0.5c-0.4,0.1-0.8-0.2-0.9-0.7c0,0,0-0.1,0-0.1c0-0.2,0-0.3,0.1-0.5
	c0.1-0.6,0.2-1.2,0.3-1.6c0.2-1.4,0.3-2.1,1-2.6c0.2-0.2,0.4-0.3,0.4-0.5c0-0.4-0.7-0.6-1-0.6C101.8,4.8,98.8,4,98.4,4L98.4,4z
	 M114.7,4c-0.5,0-1.9,1.2-1.9,1.7c0,0.2,0.2,0.4,0.4,0.6c1,1,2,2,2.8,3.1c0.2,0.2,0.4,0.4,0.6,0.4c0.5,0,1.9-1.2,1.9-1.8
	C118.4,7.5,115.1,4,114.7,4L114.7,4z M118.4,1.2c-0.4,0-1.9,1.2-1.9,1.7c0,0.2,0.2,0.4,0.4,0.6c1,1,1.9,2,2.8,3.1
	c0.2,0.2,0.3,0.4,0.6,0.4c0.5,0,1.9-1.2,1.9-1.8C122.2,4.7,118.9,1.2,118.4,1.2L118.4,1.2z M111.9,8.4c-0.6,0-2.8,1.3-2.8,2
	c0,0.3,0.2,0.5,0.4,0.7c2.3,2.5,4.1,5.4,5.4,8.6c0.2,0.4,0.4,0.9,0.9,0.9c0.8,0,3.3-1.5,3.3-2.4C119,17.2,113.4,8.4,111.9,8.4z
	 M160.6,20.9c-0.4-1.1-1-2.2-1.7-3.2c-1-1.4-1.8-2.7-2.5-2.7s-2.2,0.9-2.2,1.6c0,0.3,0.2,0.5,0.4,0.7c1.1,1.5,2.1,3,2.9,4.6
	c0.2,0.4,0.4,0.6,0.8,0.6C158.9,22.6,160.6,21.8,160.6,20.9L160.6,20.9z M145.3,29.9c-0.9-0.6-1.7-1.2-2.4-1.9
	c-0.1-0.1-0.2-0.2-0.2-0.3c0-0.3,0.2-0.4,0.5-0.4h4.9c1.2,0,1.7,0,1.7,0.4c0,0.6-2.2,2-2.8,2.3c-0.3,0.2-0.6,0.2-0.9,0.2
	C145.8,30.1,145.5,30,145.3,29.9z M150.2,22.5c1.3,0,2.8,0,3.4-1.3c0.4-0.9,0.7-1.8,0.8-2.8c0-0.9-2-1.4-2.6-1.4
	c-0.4,0-0.5,0.2-0.6,0.6c-0.5,1.8-0.6,2-2.4,2h-4.5c-1.1,0-1.8,0.1-1.8-1.1v-1.2c0-1.1,0.1-1.2,0.6-1.6c0.2-0.1,0.3-0.2,0.3-0.4
	c0-0.5-0.7-0.5-1.1-0.5c-0.6-0.1-2.6-0.2-3.1-0.2c-0.3,0-0.6,0-0.6,0.4c0,0.2,0.1,0.8,0.1,1c0,0.3-0.1,0.6-0.5,0.6
	c-0.1,0-0.2,0-0.3,0c-0.8-0.4-1.7-0.8-2.6-1c-0.2,0-0.4,0.2-0.5,0.4c-0.7,1.6-1.7,3-2.8,4.2c-0.3,0.2-0.4,0.5-0.5,0.8
	c0,0.8,1.8,1.9,2.5,1.9c0.3,0,0.6-0.2,0.8-0.5c0.8-1,1.6-2.1,2.2-3.2c0.8-1.4,0.8-1.5,1.1-1.6c0.1,0,0.2,0,0.4-0.1
	c0.1,0,0.2,0,0.2,0.2v1.4c0,0.5,0,1,0,1.5c0,0.6,0.2,1.3,0.8,1.6c0.2,0.1,0.4,0.3,0.4,0.6c0,0.1-0.1,0.3-0.2,0.4
	c-2.5,2.4-5.4,4.3-8.5,5.7c-0.8,0.3-1.3,0.6-1.3,1c0,0.7,1.7,2.3,2.4,2.3c0.8,0,4.7-2.3,5.5-2.8c0.2-0.1,0.5-0.2,0.7-0.2
	c0.3,0,0.7,0.2,0.9,0.4c0.7,0.7,1.3,1.2,2,1.8c0.2,0.1,0.3,0.3,0.3,0.5c0,0.3-0.2,0.4-0.4,0.5c-3.4,1-6.9,1.6-10.4,1.8
	c-1.2,0.1-1.8,0-1.8,0.6c0,0.2,0.5,2.7,2,2.7c0.7,0,1.4-0.1,2.2-0.2c4-0.4,7.9-1.4,11.6-2.9c0.3-0.1,0.6-0.2,0.9-0.2
	c0.3,0,0.7,0.1,1,0.2c3.1,1.3,6.4,2.1,9.7,2.4c1.1,0.2,3.8,0.4,4.8,0.4c1.3,0,1.9-2.3,1.9-2.8c0-0.6-0.4-0.8-0.9-0.8
	c-3.9-0.1-7.8-0.6-11.6-1.5c-0.2,0-0.4-0.2-0.4-0.4c0-0.2,0.1-0.3,0.2-0.4c1.2-0.8,5.2-3.7,5.2-5.1c-0.2-1-1.1-1.8-2.1-1.7
	c-1,0-2,0-3.1,0h-5.8c-0.2,0-0.5-0.1-0.5-0.4c0-0.1,0-0.2,0.1-0.3l0.2-0.2c0.4-0.4,0.7-0.7,1-0.8c0.2,0,0.5,0,0.6-0.2
	c0.1-0.1,0.1-0.1,0.2-0.1H150.2z M141.2,10.5c-0.3,0-0.6-0.1-0.6-0.4c0-0.2,0-0.2,0-0.3c-0.2-0.5-0.5-1-0.9-1.5
	c-0.1-0.1-0.1-0.3-0.2-0.4c0-0.4,0.2-0.4,0.6-0.5l2.4-0.1c0.3,0,0.6,0.2,0.8,0.5c0.5,0.6,0.9,1.2,1.3,1.8c0.1,0.1,0.1,0.3,0.1,0.4
	c0,0.4-0.3,0.5-0.7,0.5H141.2z M152.9,6c0.3,0,0.5,0.2,0.5,0.4c0,0,0,0.1,0,0.1c0,0.1,0,0.2,0,0.3c-0.5,1-1,1.9-1.5,2.8
	c-0.3,0.6-1,0.9-1.6,0.8h-0.6c-0.3,0-0.6-0.2-0.6-0.5c0-0.1,0-0.3,0-0.3c-0.3-0.7-0.7-1.4-1.2-2c-0.1-0.1-0.1-0.3-0.2-0.4
	c0-0.3,0.2-0.5,0.6-0.5c1.5-0.2,3-0.4,4.4-0.6H152.9z M135.6,10.5c-1.4,0-2.7,0-4,0c-1.1,0-2.2,0.2-2.2,1.6c0,0.6,0.1,1.2,0.1,1.8
	v1.3c0,0.5-0.1,1.2-0.1,1.7c0,1,0.7,0.9,2.2,0.9c1.4,0,2.2,0.1,2.2-0.9c0-0.5-0.1-1.1-0.1-1.7v-0.3c0-0.8,0.3-1.1,1.1-1.1h10.8
	c0.2,0,0.3,0,0.3,0.2c0,0.1,0,0.2-0.1,0.2c-0.3,0.2-0.8,0.6-0.8,1c0,0.2,0.1,0.4,0.2,0.6c0.6,0.8,1.1,1.5,1.6,2.4
	c0.1,0.3,0.4,0.4,0.7,0.4c0.6,0,2.4-0.8,2.4-1.6c-0.3-0.8-0.8-1.6-1.3-2.3c-0.1-0.1-0.1-0.2-0.1-0.4c0-0.4,0.3-0.5,0.6-0.5h8.9
	c0.8,0,1.1,0.3,1.1,1.1v0.3c0,0.6-0.1,1.2-0.1,1.7c0,1,0.8,0.9,2.2,0.9c1.5,0,2.1,0.1,2.1-0.9c0-0.6-0.1-1.1-0.1-1.7v-1.3
	c0-0.6,0.1-1.2,0.1-1.8c0-1.3-1-1.6-2.1-1.6c-1.4,0-2.9,0.1-4.3,0c-0.4,0-0.7-0.1-0.7-0.5c0-0.1,0-0.3,0.1-0.4
	c0.4-0.7,0.7-1.2,1-1.9c0.2-0.3,0.3-0.3,0.7-0.4c0.2,0,0.4-0.1,0.4-0.4c0-0.3-0.2-0.4-1.3-0.8c-0.2-0.1-0.4-0.1-0.6-0.2
	c-0.1-0.1-0.2-0.2-0.2-0.3c0-0.2,0.1-0.2,0.3-0.3c0.7-0.2,1.5-0.4,2.3-0.5c0.2,0,0.5,0.1,0.7,0.2c0.2,0,0.3,0.1,0.5,0.1
	c0.2,0,0.4-0.2,0.4-0.4c0,0,0,0,0,0c0-0.4-0.9-1.2-1.2-1.6l-0.4-0.4c-0.7-0.7-1.1-1.2-1.5-1.2c-0.2,0-0.4,0.1-0.6,0.1
	c-5.6,1.9-15.8,2.5-21.8,2.5h-2.2c-0.6,0-1.4-0.1-1.4,0.8c0.1,0.8,0.3,1.5,0.6,2.2c0.3,0.5,0.7,0.5,1.4,0.5h0.5
	c1.2,0,1.9,1.2,2.5,2.1c0.1,0.1,0.1,0.2,0.1,0.4c0,0.4-0.3,0.5-0.6,0.5H135.6z M177,30.7c0,1.8-0.1,3.5-0.1,5.3c0,1,0.4,1.4,2,1.4
	c1.5,0,2-0.2,2-1.3c0-1.8-0.1-3.6-0.1-5.4V5.1c0-1.2,0-1.8,0.5-2.2c0.2-0.2,0.6-0.4,0.6-0.7c0-0.5-0.7-0.6-1-0.6
	c-0.7-0.1-2.4-0.2-3.1-0.2c-0.6,0-0.9,0.1-0.9,0.7c0,0.2,0.1,2.8,0.1,4.7L177,30.7z M173.5,8.7c-0.6,0-0.6,0.4-0.6,1.4
	c0,0.4,0,0.8-0.1,1.4c-0.3,2.4-0.8,4.9-1.5,7.2c0,0.2-0.1,0.3-0.1,0.5c0,0.8,1.4,1.3,2.1,1.3s1-0.4,1.6-3.7c0.4-2.1,0.6-3.6,0.8-5.7
	c0-0.4,0.2-0.7,0.6-0.8c0.2-0.1,0.4-0.3,0.4-0.5c0-0.5-0.7-0.6-1.5-0.7C174.7,8.8,174.1,8.7,173.5,8.7z M191.4,26.7
	c0-0.4,0.2-0.7,0.6-0.8c0,0,0.1,0,0.1,0h7.3c0.4,0,0.7,0.2,0.8,0.6c0,0,0,0.1,0,0.1V27c0,0.4-0.2,0.8-0.6,0.8c0,0-0.1,0-0.1,0h-7.3
	c-0.4,0-0.7-0.3-0.8-0.7c0,0,0-0.1,0-0.1V26.7z M192.1,23.3c-0.4,0-0.7-0.3-0.8-0.7c0,0,0-0.1,0-0.1v-0.2c0-0.4,0.2-0.7,0.6-0.8
	c0,0,0.1,0,0.1,0h7.3c0.4,0,0.7,0.2,0.8,0.6c0,0,0,0.1,0,0.1v0.2c0,0.4-0.2,0.8-0.6,0.8c0,0-0.1,0-0.1,0H192.1z M200.2,32
	c0,1.4-0.1,1.5-1.8,1.5c-0.6,0-1.1-0.1-1.7-0.1c-0.6,0-0.7,0.6-0.7,1.3c0,2.3,0.8,2.5,2.8,2.5c4.3,0,5.5-0.6,5.5-4.1
	c0-1-0.1-2-0.1-2.9V24c0-1.1,0.1-2.2,0.1-3.3c0-1.6-0.4-2.1-2-2.1c-1,0-2,0-3,0h-7c-1,0-2,0-3,0c-1.6,0-2,0.6-2,2.1
	c0,1.1,0.1,2.2,0.1,3.3V31c0,1.6-0.1,3.3-0.1,5c0,1.3,0.5,1.3,2.1,1.3c1.6,0,2,0,2-1.5c0-1.4-0.1-2.9-0.1-4.3c0-0.8,0.3-1.1,1.1-1.1
	h6.6c0.8,0,1.1,0.3,1.1,1.1L200.2,32z M190.1,4.7c-1.3,0-2.6,0-3.9,0c-0.9,0-0.8,0.3-0.8,1.5s0,1.5,0.8,1.5c1.3,0,2.6-0.1,3.9-0.1
	h2.9c0.6,0,0.8,0.2,0.8,0.8v0.3c0,0.5-0.2,0.8-0.8,0.8h-1.6c-1.3,0-2.6-0.1-4-0.1c-0.9,0-0.8,0.3-0.8,1.4c0,1,0,1.4,0.8,1.4
	c1.4,0,2.7-0.1,4-0.1h1.6c0.6,0,0.8,0.2,0.8,0.8v0.4c0,0.6-0.2,0.8-0.8,0.8h-3.2c-3.8,0-3.9,0.1-4-0.8c-0.3-1.2-0.7-2.3-1.1-3.5
	c-0.6-1.8-0.8-2.4-1.5-2.4c-0.4,0-1.8,0.4-1.8,1.1c0,0.2,0.1,0.4,0.2,0.6c0.6,1.5,1,3,1.4,4.5c0.2,0.6,0.2,1.1,1,1
	c0.4,0,0.6,0.1,0.6,0.6c0,1.5,0,1.8,0.9,1.8c1.5,0,2.9-0.1,4.4-0.1h12.3c1.5,0,2.9,0.1,4.4,0.1c0.9,0,0.8-0.3,0.8-1.5
	c0-1.2,0-1.5-0.8-1.5c-1.5,0-2.9,0.1-4.4,0.1h-3.6c-0.5,0-0.7-0.2-0.7-0.8v-0.4c0-0.5,0.2-0.8,0.8-0.8h2c1.3,0,2.6,0.1,4,0.1
	c0.9,0,0.8-0.3,0.8-1.4s0-1.4-0.8-1.4c-1.4,0-2.7,0.1-4,0.1h-2.1c-0.5,0-0.7-0.2-0.7-0.8V8.3c0-0.6,0.2-0.8,0.8-0.8h3.2
	c1.3,0,2.6,0.1,4,0.1c0.8,0,0.8-0.4,0.8-1.5s0-1.5-0.8-1.5c-1.3,0-2.6,0-3.9,0h-2.8c-0.8,0-1.1-0.2-1.1-1c0-0.3,0.2-0.6,0.5-0.8
	c0.2-0.1,0.5-0.3,0.5-0.6c0-0.4-0.4-0.4-0.7-0.4c-0.5-0.1-3.3-0.3-3.8-0.3c-0.4,0-0.7,0.1-0.7,0.6c0,0.1,0,0.2,0,0.3l0.1,1.2
	c0,0.8-0.4,1-1.1,1L190.1,4.7z M219.7,24.6c0.2,1.4,0.8,2.7,1.6,3.9c2.6,3.6,7.1,4.2,11.2,4.2c2.4,0,9.9-0.5,12-1.1
	c0.8-0.2,1-0.7,1-1.5c0-2.6-0.3-3.3-0.9-3.3c-0.2,0-0.4,0.1-0.6,0.1c-3.9,0.9-7.9,1.4-11.9,1.4c-3.8,0-7.2-0.6-8-4.8
	c-0.1-0.4-0.2-0.8-0.7-0.8C223.3,22.7,219.7,23.6,219.7,24.6z M223.7,10.8c0,0.4,0.2,0.7,0.6,0.8c2,0.8,6.9,1,9.1,1
	c2.4,0,4.8-0.2,7.2-0.5c0.9-0.2,1.1-0.2,1.1-1.2c0-1.6,0-3.4-1-3.4c-0.2,0-0.4,0-0.5,0.1c-2.4,0.5-4.8,0.8-7.2,0.8
	c-2.3,0-4.6-0.3-6.8-0.8c-0.4-0.1-0.8-0.2-1.2-0.2c-0.8,0-0.8,0.7-1,1.4C223.8,9.4,223.7,10.1,223.7,10.8z M275.1,13.7
	c0.3,0,0.5,0.2,0.6,0.4c0,0,0,0.1,0,0.1c0,1.1-2,7.7-3.1,7.7c-0.4,0-0.6-0.5-0.9-1.3c-0.6-1.4-1.2-2.9-1.6-4.4
	C270,15,274.1,13.7,275.1,13.7z M269.7,25.9c0,0.9-2.2,2.4-3.4,2.4c-1.4,0-1.5-1.9-1.5-2.9c0-2.6,1.2-5.5,1.9-5.5
	c0.3,0,0.5,0.4,0.6,0.6c0.7,1.7,1.5,3.3,2.3,4.9C269.6,25.5,269.7,25.7,269.7,25.9z M277,3.7c-0.5,0-0.6,0.3-0.6,0.7
	c0,0.6,0,1.2,0,1.8c0,3-0.1,3.3-1.4,3.5c-1.9,0.3-3.7,0.9-5.3,1.8c-0.2,0.1-0.4,0.2-0.7,0.2c-0.4,0-0.6-0.3-0.7-0.6
	c-0.2-0.9-0.6-2.4-0.7-3.4c-0.1-0.5-0.1-1.2-0.8-1.2c-1.1,0.2-2.1,0.4-3.2,0.8c-0.3,0.1-0.6,0.3-0.6,0.6c0,0.2,0.1,0.4,0.1,0.6
	c0.6,1.7,1,3.4,1.6,5.1c0.1,0.3,0.2,0.6,0.2,1c0,0.4-0.2,0.7-0.4,0.9c-2.4,2.7-3.8,6.2-3.7,9.9c0,3.1,1.2,7,5,7
	c3.6,0,6.8-2.8,8.8-5.5c2.6-3.6,4.3-7.8,5.1-12.2c0.1-0.4,0.3-1,0.9-1c1.1,0,6.4,1.9,6.4,7.3c0,5.4-4.8,8.8-9.4,10.3
	c-0.6,0.2-1.2,0.3-1.2,0.8c0,0.8,1.6,3.2,2.5,3.2c0.7-0.1,1.4-0.3,2-0.7c5.7-2.7,10.3-6.8,10.3-13.6c0-5.8-3.7-9.7-9.2-11.1
	c-0.6-0.2-1.3-0.2-1.3-1c0-0.1,0-0.3,0-0.4c0-0.9,0.2-1.8,0.7-2.6c0.1-0.2,0.3-0.4,0.3-0.7c0-0.4-0.4-0.6-0.7-0.7
	C279.6,4.2,278.3,3.9,277,3.7z M318.2,28.1c-0.6,0-2.5,2.4-2.5,3c0,0.8,1.3,1.8,2,2.3c2.2,1.5,5.9,1.8,8.6,1.8
	c2.1,0,4.2-0.2,6.2-0.5c0.5-0.3,0.4-1.2,0.4-2c0-1.6,0-2.5-0.7-2.5c-0.1,0-0.3,0-0.4,0.1c-1.8,0.6-3.8,0.8-5.7,0.8
	c-2.4,0-5.5-0.4-7.2-2.3C318.7,28.4,318.5,28.1,318.2,28.1z M321.2,18.9c0,0.7,0.2,0.9,1,0.9c0.5,0,1,0,1.5,0c2.2-0.1,4.3,0.3,6.4,1
	c0.3,0.1,0.5,0.2,0.8,0.2c0.4,0,0.6-0.2,0.7-0.5c0.4-0.9,0.6-1.8,0.8-2.8c0-0.4-0.2-0.7-0.6-0.8c-2.6-0.8-5.3-1.1-8-1.1
	C321.9,15.7,321.2,15.5,321.2,18.9z M315.9,1.9c-0.4,0-0.4,0.4-0.4,1c-0.2,2.5-0.7,4.9-1.5,7.3c-0.4,0.6-1,0.6-3.5,0.6
	c-1.7,0-3.4-0.2-3.8-0.2c-0.5,0-0.6,0.3-0.6,0.7c0,1,0.1,2,0.3,2.9c0.2,0.8,0.9,0.7,1.7,0.7c1.2,0,3-0.2,3.6-0.2
	c0.4,0,0.7,0.2,0.7,0.6c-0.1,0.4-0.2,0.7-0.3,1c-1.6,4.2-4.6,11.2-7.1,14.8c-0.3,0.4-0.6,0.8-0.7,1.3c0,0.9,2.8,2.2,3.4,2.2
	c0.6,0,0.9-0.6,1.4-1.5c2.9-5.7,5.4-11.6,7.4-17.6c0.4-1.1,0.5-1.3,1.6-1.6c2.2-0.4,4.4-0.9,6.6-1.6c0.7-0.2,0.8-0.8,0.8-1.4
	c0-0.6,0-3-0.8-3c-0.3,0-0.6,0.1-0.8,0.2c-1.5,0.6-3.1,1.1-4.6,1.5c-0.3,0-0.6-0.3-0.6-0.6c0,0,0,0,0,0c0-0.2,0.8-3.1,1-3.6
	c0.3-0.9,0.3-1,0.9-1.4c0.1-0.1,0.4-0.2,0.4-0.4c0-0.4-1.1-0.7-1.5-0.8C318.9,2.7,316.3,1.9,315.9,1.9z M373.9,3.5
	c-0.4,0-2,1.2-2,1.6c0,0.2,0.2,0.4,0.4,0.6c0.9,1,1.9,2.1,2.8,3.2c0.1,0.2,0.3,0.5,0.6,0.5c0.5,0,2-1.2,2-1.8
	C377.6,7,374.3,3.5,373.9,3.5z M369.8,6.3c-0.4,0-2,1.1-2,1.6c0,0.2,0.2,0.4,0.4,0.6c1,1,1.9,2.1,2.7,3.2c0.2,0.2,0.4,0.4,0.6,0.4
	c0.5,0,2-1.2,2-1.8S370.2,6.3,369.8,6.3z M362.8,15.2c-0.1,0.1-0.2,0.2-0.4,0.2c-0.1,0-0.3-0.1-0.3-0.4v-6c0-1,0-1.8,0-2.4
	c-0.1-0.7,0.1-1.5,0.4-2.1c0.1-0.2,0.2-0.3,0.2-0.5c0-0.6-1.6-0.7-3.4-1c-0.3,0-1.1-0.2-1.4-0.2c-0.4,0-0.5,0.2-0.5,0.6
	c0,0.2,0,0.5,0,0.7c0,1,0.1,2.1,0.1,3.1v22.8c0,1.8-0.1,3.6-0.1,5.4c0,1.3,0.7,1.4,2.3,1.4c2.4,0,2.5-0.2,2.5-2.1
	c0-1.6-0.1-3.2-0.1-4.8V19.1c0-0.3,0.1-0.6,0.5-0.6c0.1,0,0.3,0.1,0.4,0.2c2,1.4,4,3,5.8,4.7c0.2,0.3,0.5,0.5,0.9,0.5
	c0.8,0,2.7-2.1,2.7-2.8s-2.2-2.4-2.8-2.9c-0.8-0.7-4.8-3.8-5.6-3.8C363.5,14.3,363.1,14.9,362.8,15.2z M396.3,16.8
	c-1.7,0-4.4-0.1-5-0.1c-1,0-1.1,0.3-1.1,2.6c0,1.2,0,2,1.1,2c1.7,0,3.4-0.1,5-0.1h18.4c1.6,0,3.3,0.1,5,0.1c1,0,1.1-0.8,1.1-2
	c0-2.2,0-2.5-1.1-2.5c-0.5,0-3.1,0.1-5,0.1H396.3z M438.6,13.5c-1.6,0-3.9-0.1-5.1-0.1c-1,0-1,0.6-1,2.1c0,1.8,0.1,2.3,1.1,2.3
	c1.3,0,3.3-0.1,5-0.1h7.9c0.5,0,1,0.5,1,1c0,0.3-0.1,0.7-0.2,1c-1.1,5.6-4.3,10.2-9.7,12.4c-0.3,0.2-1.1,0.4-1.1,0.8
	c0,0.7,2.5,2.9,3.3,2.9c0.6,0,3-1.6,3.5-2c4.8-3.5,7.8-8.9,8.4-14.8c0.1-0.7,0.4-1.4,1.2-1.4h5.7c1.7,0,3.5,0.1,5.2,0.1
	c0.8,0,1.1-0.4,1.1-2.1c0-1.8,0-2.3-1-2.3c-1.8,0-3.5,0.1-5.3,0.1h-5.3c-0.8,0-1.2-0.7-1.2-1.4c0-1.8,0-3.5,0-5.3V6.1
	c0-0.7,0-1,0.4-1.3c0.1-0.1,0.2-0.2,0.2-0.4c0-0.3-0.4-0.4-0.6-0.5c-0.5-0.1-3.6-0.4-4.1-0.4c-0.2,0-0.4,0.1-0.4,0.3
	c0,0,0,0.1,0,0.1c0,0.1,0,0.4,0,0.5c0.1,0.7,0.2,5.7,0.2,6.7v0.6c0,0.9-0.1,1.9-1.2,1.9L438.6,13.5z M502.6,7.4
	c-0.3,0-0.4,0.4-0.4,0.6c-0.3,2.4-0.9,4.8-1.8,7.1c-3.3,8.5-9,13.7-17.8,15.9c-0.5,0.1-1.7,0.2-1.7,0.9c0,0.6,1.8,3.3,2.6,3.3
	c0.3,0,0.6-0.1,0.9-0.2c4.2-1.2,8.2-3.2,11.6-6c5.6-4.8,8.4-10.9,10.3-18c0.1-0.4,0.4-0.8,0.8-1c0.2-0.1,0.4-0.3,0.4-0.6
	c0-0.4-1-0.8-1.5-0.9C504.8,8.1,503.7,7.7,502.6,7.4z M490.1,6.4c-0.6,0-3,1.2-3,1.8c0.1,0.3,0.2,0.6,0.4,0.8c1.3,1.9,2.5,4,3.6,6.1
	c0.3,0.6,0.5,1,0.9,1c0.6,0,3.2-1.2,3.2-2c0-0.6-1.8-3.4-2.2-4.1C492.4,9,491.7,8,491,7C490.8,6.7,490.5,6.4,490.1,6.4z M480.1,9.3
	c-0.6,0-3,1.2-3,1.9c0.1,0.3,0.2,0.6,0.4,0.8c1.4,2,2.6,4,3.6,6.2c0.2,0.4,0.4,0.9,0.9,0.9c0.6,0,3.2-1.2,3.2-2c0-0.6-1.8-3.4-2.2-4
	c-0.5-0.8-1.6-2.6-2.2-3.3C480.6,9.5,480.4,9.3,480.1,9.3z M534.2,28.1c-0.6,0-2.5,2.4-2.5,3c0,0.8,1.3,1.8,2,2.3
	c2.2,1.5,5.9,1.8,8.6,1.8c2.1,0,4.2-0.2,6.2-0.5c0.5-0.3,0.4-1.2,0.4-2c0-1.6,0-2.5-0.7-2.5c-0.1,0-0.3,0-0.4,0.1
	c-1.8,0.6-3.8,0.8-5.7,0.8c-2.4,0-5.5-0.4-7.2-2.3C534.7,28.4,534.5,28.1,534.2,28.1z M537.2,18.9c0,0.7,0.2,0.9,1,0.9
	c0.5,0,1,0,1.5,0c2.2-0.1,4.3,0.3,6.4,1c0.3,0.1,0.6,0.2,0.8,0.2c0.4,0,0.6-0.2,0.7-0.5c0.4-0.9,0.6-1.8,0.8-2.8
	c0-0.4-0.2-0.7-0.6-0.8c-2.6-0.8-5.3-1.1-8-1.1C537.9,15.7,537.2,15.5,537.2,18.9z M548.5,2.4c-0.5,0-2,1.2-2,1.6
	c0,0.2,0.2,0.4,0.3,0.5c1,1,1.9,2.1,2.8,3.2c0.2,0.2,0.4,0.5,0.6,0.5c0.5,0,2-1.2,2-1.8C552.1,6,548.9,2.4,548.5,2.4z M531.9,1.9
	c-0.4,0-0.4,0.4-0.4,1c-0.2,2.5-0.7,4.9-1.5,7.3c-0.4,0.6-1,0.6-3.5,0.6c-1.7,0-3.4-0.2-3.8-0.2c-0.5,0-0.6,0.3-0.6,0.7
	c0,1,0.1,2,0.3,2.9c0.2,0.8,0.9,0.7,1.7,0.7c1.2,0,3-0.2,3.6-0.2c0.4,0,0.7,0.2,0.7,0.6c-0.1,0.4-0.2,0.7-0.3,1
	c-1.6,4.2-4.6,11.2-7.1,14.8c-0.3,0.4-0.6,0.8-0.7,1.3c0,0.9,2.8,2.2,3.4,2.2c0.6,0,0.9-0.6,1.4-1.5c2.9-5.7,5.4-11.6,7.4-17.6
	c0.4-1.1,0.5-1.3,1.6-1.6c2.2-0.4,4.4-0.9,6.6-1.6c0.7-0.2,0.8-0.8,0.8-1.4c0-0.6,0-3-0.8-3c-0.3,0-0.6,0.1-0.8,0.2
	c-1.5,0.6-3.1,1.1-4.6,1.5c-0.3,0-0.6-0.3-0.6-0.6c0,0,0,0,0,0c0-0.2,0.8-3.1,1-3.6c0.3-0.9,0.3-1,0.9-1.4c0.1-0.1,0.4-0.2,0.4-0.4
	c0-0.4-1.1-0.7-1.5-0.8C534.9,2.7,532.3,1.9,531.9,1.9z M544.3,5c-0.4,0-2,1.1-2,1.6c0,0.2,0.2,0.4,0.4,0.6c1,1,1.9,2.1,2.8,3.2
	c0.2,0.2,0.3,0.4,0.6,0.4c0.5,0,2-1.2,2-1.8C548,8.5,544.7,5,544.3,5z M588.8,7.7c-0.7,0-3,1.4-3,2.1c0,0.3,0.2,0.5,0.4,0.7
	c2.7,2.8,3.8,5.1,5.4,8.6c0.2,0.4,0.4,0.9,0.9,0.9c0.8,0,3.3-1.5,3.3-2.4C595.7,16.6,590.3,7.7,588.8,7.7z M574.3,3.7
	c-0.4,0-0.4,0.5-0.4,0.8c0,0.5,0,0.9,0,1.4c0,1.7-0.1,3.5-0.4,5.2c-0.1,0.8-0.5,1-1.3,1.2c-2.2,0.5-4.4,0.9-6.6,1.2
	c-0.5,0-1.2,0-1.2,0.6c0,0.2,0.7,4.1,1.7,4.1c0.3,0,0.6-0.1,0.8-0.2c1.5-0.6,3-1,4.6-1.4c0.3,0,0.5,0.2,0.5,0.4c0,0,0,0.1,0,0.1
	c-0.3,1-0.6,2-1,3c-1.6,4.2-4,8-7.1,11.2c-0.3,0.2-0.5,0.6-0.6,0.9c0,0.9,2.6,2.4,3.2,2.4c0.3,0,0.5-0.2,0.7-0.4
	c1.5-1.8,2.8-3.7,4-5.8c2.2-3.7,3.9-7.7,5.1-11.9c0.3-1.1,0.7-1.4,3-1.4c2.4,0,2.5,1.6,2.5,3.6c0,3.1-0.6,6.2-1.8,9
	c-1,2-2,2.4-4.2,2.4c-0.8,0-1.5-0.1-1.9-0.1c-0.4,0-0.5,0.3-0.5,0.7c0.1,1,0.3,1.9,0.7,2.8c0.3,0.7,1.1,1.1,1.8,1
	c3.1,0.1,6.1-1.5,7.6-4.3c1.8-3.2,2.4-8.6,2.4-12.3c0-2.2-0.4-4.5-2.4-5.8c-1.4-0.8-3-1.1-4.6-0.9c-0.2,0-0.3,0-0.5,0
	c-0.4,0-0.8-0.3-0.9-0.7c0,0,0-0.1,0-0.1c0-0.1,0-0.3,0.1-0.4c0.1-0.7,0.2-1.2,0.3-1.7c0.2-1.4,0.3-2,1.1-2.6
	c0.2-0.1,0.3-0.2,0.3-0.5c0-0.4-0.7-0.6-1-0.6C577.7,4.5,574.7,3.7,574.3,3.7z M613.6,10.1c-0.6,0-0.7,0.6-0.7,1.8
	c0,0.3,0,0.6,0,0.9c-0.1,2.9-0.4,5.8-1,8.7c-0.2,1.3-0.6,2.6-0.9,3.9c-0.2,0.4-0.3,0.9-0.4,1.4c0,1.2,2.7,1.6,3,1.6
	c0.6,0,0.9-0.4,1.2-0.8c2.5-3.2,6.8-6.7,11-6.7c2.6,0,4.8,1.5,4.8,4.2c0,3.4-3,4.6-5.8,5.4c-1.7,0.4-3.5,0.7-5.3,0.8
	c-0.5,0-1,0.1-1,0.7c0.1,0.9,0.3,1.8,0.7,2.6c0.4,0.8,0.6,1.1,1.5,1.1c1.8-0.2,3.5-0.5,5.2-1.1c4.8-1.4,9.1-3.8,9.1-9.5
	c0-5-3.8-8.3-8.7-8.3c-3.8,0-6.2,1.6-9.2,3.7c-0.1,0.1-0.3,0.2-0.5,0.2c-0.3,0-0.4-0.2-0.4-0.5c0-0.3,0.1-0.6,0.1-0.8
	c0.4-1.8,0.6-3.7,1-5.6c0.2-0.8,0.2-1.2,0.8-1.6c0.2-0.1,0.4-0.2,0.4-0.4c0-0.3-0.4-0.4-0.7-0.6C616.3,10.8,615,10.4,613.6,10.1z
	 M616.1,5.5c0,0.4,0.5,0.6,0.9,0.9c1.8,1,3.5,2.1,5,3.4c0.3,0.2,0.8,0.8,1.3,0.8c0.8,0,2.5-2.4,2.5-3.2c0-0.7-2.3-2-2.9-2.3
	c-0.7-0.4-4-2.5-4.6-2.5C617.4,2.6,616.1,5,616.1,5.5z M648.5,29c0,0.4,0.4,0.6,0.7,0.8c2.3,1.5,4.4,3.3,6.1,5.4
	c0.2,0.2,0.5,0.6,0.8,0.6c0.9,0,2.9-2.2,2.9-3.1c0-1-6.9-6.5-7.8-6.5C650.6,26.2,648.5,28.3,648.5,29z M179.7,83.5
	c-0.4,0-2,1.2-2,1.6c0,0.2,0.2,0.4,0.4,0.6c0.9,1,1.9,2.1,2.8,3.2c0.1,0.2,0.3,0.5,0.6,0.5c0.5,0,2-1.2,2-1.8
	C183.4,87,180.1,83.5,179.7,83.5z M175.6,86.3c-0.4,0-2,1.1-2,1.6c0,0.2,0.2,0.4,0.4,0.6c1,1,1.9,2.1,2.7,3.2
	c0.2,0.2,0.4,0.4,0.6,0.4c0.5,0,2-1.2,2-1.8S176,86.3,175.6,86.3z M168.6,95.2c-0.1,0.1-0.2,0.2-0.4,0.2c-0.1,0-0.3-0.1-0.3-0.4v-6
	c0-1,0-1.8,0-2.4c-0.1-0.7,0.1-1.5,0.4-2.1c0.1-0.2,0.2-0.3,0.2-0.5c0-0.6-1.6-0.7-3.4-1c-0.3,0-1.1-0.2-1.4-0.2
	c-0.4,0-0.5,0.2-0.5,0.6c0,0.2,0,0.5,0,0.7c0,1,0.1,2.1,0.1,3.1v22.8c0,1.8-0.1,3.6-0.1,5.4c0,1.3,0.7,1.4,2.3,1.4
	c2.4,0,2.5-0.2,2.5-2.1c0-1.6-0.1-3.2-0.1-4.8V99.1c0-0.3,0.1-0.6,0.5-0.6c0.1,0,0.3,0.1,0.4,0.2c2,1.4,4,3,5.8,4.7
	c0.2,0.3,0.5,0.5,0.9,0.5c0.8,0,2.7-2.1,2.7-2.8s-2.2-2.4-2.8-2.9c-0.8-0.7-4.8-3.8-5.6-3.8C169.3,94.3,168.9,94.9,168.6,95.2z
	 M202.1,96.8c-1.7,0-4.4-0.1-5-0.1c-1,0-1.1,0.3-1.1,2.6c0,1.2,0,2,1.1,2c1.7,0,3.4-0.1,5-0.1h18.4c1.6,0,3.3,0.1,5,0.1
	c1,0,1.1-0.8,1.1-2c0-2.2,0-2.5-1.1-2.5c-0.5,0-3.1,0.1-5,0.1H202.1z M244.4,93.5c-1.6,0-3.9-0.1-5.1-0.1c-1,0-1,0.6-1,2.1
	c0,1.8,0.1,2.3,1.1,2.3c1.3,0,3.3-0.1,5-0.1h7.9c0.5,0,1,0.5,1,1c0,0.3-0.1,0.7-0.2,1c-1.1,5.6-4.3,10.2-9.7,12.4
	c-0.3,0.2-1.1,0.4-1.1,0.8c0,0.7,2.5,2.9,3.3,2.9c0.6,0,3-1.6,3.5-2c4.8-3.5,7.8-8.9,8.4-14.8c0.1-0.7,0.4-1.4,1.2-1.4h5.7
	c1.7,0,3.5,0.1,5.2,0.1c0.8,0,1.1-0.4,1.1-2.1c0-1.8,0-2.3-1-2.3c-1.8,0-3.5,0.1-5.3,0.1h-5.3c-0.8,0-1.2-0.7-1.2-1.4
	c0-1.8,0-3.5,0-5.3v-0.6c0-0.7,0-1,0.4-1.3c0.1-0.1,0.2-0.2,0.2-0.4c0-0.3-0.4-0.4-0.6-0.5c-0.5-0.1-3.6-0.4-4.1-0.4
	c-0.2,0-0.4,0.1-0.4,0.3c0,0,0,0.1,0,0.1c0,0.1,0,0.4,0,0.5c0.1,0.7,0.2,5.7,0.2,6.7v0.6c0,0.9-0.1,1.9-1.2,1.9L244.4,93.5z
	 M287.2,96.7c-1.7,0-4-0.1-5.1-0.1c-1,0-1,0.7-1,2.4c0,1.3,0,2,1.1,2c1.3,0,3.2-0.1,5-0.1h8.1c0.4,0,0.7,0.3,0.7,0.6c0,0,0,0,0,0
	c-0.2,0.7-0.4,1.3-0.7,2c-1.9,4.5-4.6,6.8-8.9,9c-0.4,0.2-0.9,0.4-0.9,0.8c0,0.6,2.3,2.8,3,2.8c0.8,0,3.9-2.2,4.7-2.8
	c3.4-2.7,5.9-6.5,7.1-10.7c0.3-1,0.5-1.8,1.8-1.8h6c1.7,0,3.4,0,5.2,0c1,0,1.1-0.5,1.1-2c0-1.8,0-2.3-1-2.3c-1.5,0-3.4,0.1-5.2,0.1
	h-5.7c-0.7,0-0.9-0.5-0.9-1.1c0-0.7,0-1.4,0-2.2c0-0.7-0.1-1.4-0.1-2.2c0-0.7,0.5-1,1.1-1.1c0.8-0.2,1.7-0.4,2.6-0.7
	c0.7-0.2,3.4-1.1,3.8-1.1c0.1,0,0.2,0,0.4,0c0.1,0,0.3,0,0.4,0c0.2,0,0.5-0.1,0.5-0.4c0-0.5-1.6-2-2-2.4c-0.3-0.3-1.2-1.3-1.6-1.3
	c-0.2,0-0.5,0.1-0.7,0.3c-1.7,0.8-3.5,1.5-5.4,1.8c-4,0.9-8.1,1.3-12.2,1.3c-0.6,0-1.5-0.1-1.9-0.1c-0.5,0-0.8,0.2-0.8,0.7
	c0.1,0.9,0.4,1.8,0.8,2.6c0.3,0.8,0.5,0.9,1.4,0.9c2.8,0,8.2-0.6,8.4-0.6c1,0,1,0.8,1,2.8c0,1.2,0,2.6-1.2,2.6H287.2z M337.6,94.5
	c-1.6,0-3.3,0-4,0c-1,0-0.9,0.8-0.9,1.8c0,1.3,0,2,0.9,2c1,0,2.6-0.1,3.9-0.1h5.6c0.5,0,1.1,0.2,1.1,0.8c0,0.1-0.1,0.7-0.1,0.8
	l-0.8,7c-0.1,0.6-0.6,1-1.1,1h-9.6c-1.1,0-3.2-0.1-3.9-0.1c-0.9,0-1,0.7-1,2.1c0,0.8,0,1.7,1,1.7c1,0,2.5-0.1,3.8-0.1H349
	c1.3,0,2.6,0.1,3.9,0.1c1.1,0,1.1-0.7,1.1-1.8c0-1.3,0-2-1-2c-1.4,0-2.7,0.1-4,0.1h-1.1c-0.5,0-0.9-0.4-0.8-0.9c0,0,0-0.1,0-0.1
	l0.8-7.4c0-0.2,0.2-1.1,0.3-1.8c0.1-0.6,0.2-0.8,0.2-1.1c0-0.9-1.4-2-2.3-2c-0.2,0-0.4,0-0.6,0c-0.4,0-0.9,0-1.4,0H337.6z
	 M368.3,89.8c0.1,1,0.2,1.9,0.4,2.9c0.1,0.4,0.3,1.3,0.9,1.3c0.2,0,0.4,0,0.6-0.1c2.6-0.7,6.2-1.2,8.8-1.6c0.4,0,2.2-0.4,2.5-0.4
	s0.6,0.1,0.6,0.5c0,0.2-0.2,0.5-0.7,1c-2.8,3.2-4.3,7.3-4.4,11.5c0,7.8,5.8,10,12.6,10c0.7,0,1-0.1,1.3-0.7c0.4-1.1,0.6-2.2,0.6-3.3
	c0-0.6-0.3-0.7-0.9-0.7c-0.4,0-1.3,0-2,0c-4.1,0-7-1.1-7-5.8c0-2.5,0.7-4.9,1.9-7c1.4-2.8,3.9-4.9,6.8-6c2.1-0.7,4.4-0.9,6.6-0.8
	c1,0,1.8,0,1.8-0.8c0-1-0.2-2-0.4-2.9c-0.1-0.5-0.2-1-0.8-1c-0.2,0-0.3,0-0.5,0c-3,0.5-6,0.9-9.1,1.2c-5.8,0.7-11.6,1.3-17.5,1.6
	C368.9,88.9,368.3,88.8,368.3,89.8z M398.6,92.1c-0.5,0-2,1-2,1.5c0,0.2,0.1,0.4,0.3,0.5c0.9,1.1,1.8,2.2,2.6,3.3
	c0.2,0.2,0.3,0.5,0.6,0.5c0.5,0,2-1.1,2-1.7C402.1,95.9,399,92.1,398.6,92.1z M393.7,94.3c-0.4,0-2,1-2,1.5c0,0.2,0.2,0.4,0.4,0.6
	c0.9,1.1,1.8,2.2,2.6,3.4c0.2,0.2,0.3,0.5,0.6,0.5c0.4,0,2-1.1,2-1.7C397.2,98.1,394.2,94.3,393.7,94.3z M423.7,83
	c-0.6,0-0.6,0.9-0.7,1.4c-0.2,1.7-0.4,3.4-0.8,5.1c-0.4,0.8-0.8,1-3.6,1c-1.6,0-4-0.2-4.5-0.2c-0.2,0-0.8,0-0.8,1
	c0,0.9,0.2,1.8,0.4,2.6c0.1,0.5,0.5,0.9,1,0.8c0.8,0,3.9-0.4,4.8-0.4c0.2,0,0.6,0,0.8,0c0.3,0,0.6,0.2,0.6,0.5c0,0,0,0.1,0,0.1
	c0,0.3-0.1,0.7-0.2,1c-0.5,2.3-1.3,4.5-2.2,6.6c-0.3,0.6-0.5,1.1-0.6,1.8c0,1.1,2.3,2.2,3.2,2.2c0.5,0,0.8-0.5,1.1-0.9
	c2.4-3,5.9-4.8,9.7-5c2.2,0,3.9,1.7,4,3.8c0,0.1,0,0.2,0,0.3c0,5.3-6.4,6.5-10.5,6.5c-1.5,0-2.7-0.3-3.2-0.3c-0.4,0-0.8,0.3-0.8,0.8
	c0,0,0,0.1,0,0.1c0.1,0.9,0.3,1.8,0.5,2.6c0.2,0.8,0.4,1,1.8,1c2.8,0,5.6-0.4,8.4-1.1c4.6-1.2,8.1-4.3,8.1-9.4
	c0-4.9-3.2-8.3-8.1-8.3c-2.5,0-4.9,0.8-7,2.2c-0.1,0.1-0.3,0.1-0.4,0.2c-0.3,0-0.4-0.1-0.4-0.4c0-0.2,0-0.5,0.1-0.7
	c0.2-0.9,0.4-1.6,0.6-2.2c0.5-1.9,0.5-2.2,1.8-2.3c2.2-0.2,7-1,9.1-1.4c1-0.2,1.4-0.3,1.4-1c0-0.8-0.2-1.7-0.4-2.5
	c-0.2-0.6-0.2-1.1-0.8-1.1c-0.4,0-0.7,0.1-1.1,0.3c-2.5,0.8-5.1,1.4-7.7,1.8c-0.3,0-0.6-0.2-0.7-0.5c0,0,0,0,0-0.1
	c0-0.3,0.1-0.7,0.2-1c0.1-0.3,0.2-0.6,0.2-0.8c0.1-0.6,0.4-1.2,0.8-1.6c0.2-0.1,0.3-0.4,0.4-0.6C428.3,84.2,424.1,83,423.7,83z
	 M475.7,97.7c0.8,0,3.6,1.2,3.6,5c0,3.6-2.4,5.6-4,5.6c-0.3,0-0.6-0.2-0.6-0.6c0,0,0,0,0,0c0-0.2,0.1-0.4,0.1-0.6
	c0.3-1.8,0.5-3.6,0.5-5.5c0-1-0.1-2.9-0.1-3.3c0-0.3,0.1-0.5,0.4-0.6C475.6,97.7,475.7,97.7,475.7,97.7z M460.8,93.6
	c-0.3,0-0.5,0.3-0.5,0.6c-0.1,0.5-0.2,0.9-0.2,1.4c-0.4,2.5-0.7,5-0.7,7.5c0,2.3,0.2,4.7,0.6,7c0.2,1.2,0.4,2,1.2,2
	c0.5,0,2.6-0.4,2.6-1.3c0-0.2,0-0.4-0.1-0.6c-0.2-0.6-0.2-1.2-0.2-1.8c0.2-3.6,2-7,4.9-9.2c0.8-0.6,1.8-1.1,2.8-1.4
	c0.6,0,0.8,0.8,0.8,3.4c0,1.9-0.2,3.8-0.6,5.7c-0.1,0.2-0.3,0.4-0.5,0.4c-0.5,0-2-1.1-2.1-4.1c0-0.3,0-0.8-0.8-0.8
	c-0.3,0-2.2,0.2-2.2,1.6c0,2.6,1.3,5,3.3,6.5c0.3,0.2,0.7,0.4,0.7,0.8c-0.4,0.9-0.9,1.8-1.6,2.5c-0.2,0.2-0.3,0.4-0.3,0.6
	c0,0.6,1.8,2,2.4,2c1,0,2.4-2.8,2.8-3.6c0.3-0.6,0.5-1,1.2-1c5.1,0,8.4-4.4,8.4-9.2c0.2-3.6-2-6.8-5.4-8c-0.6-0.2-1.2-0.3-1.8-0.5
	c-0.5,0-0.9-0.4-1-0.9c-0.1-0.5-0.2-1-0.2-1.5c0-0.2,0.1-0.4,0.2-0.6c0.1-0.2,0.2-0.4,0.2-0.6c0-0.5-0.5-0.7-3.3-0.7
	c-0.4,0-1.2,0-1.2,0.6c0,0.2,0.1,0.5,0.2,0.7c0.3,0.8,0.5,1.6,0.6,2.5c0,0.7-0.5,0.8-0.9,0.9c-1.2,0.3-2.3,0.9-3.2,1.7
	c-1.3,1.1-2.5,2.4-3.4,3.9c-0.1,0.2-0.2,0.4-0.4,0.4c-0.2,0-0.3-0.2-0.3-0.4c0.1-1.2,0.3-2.3,0.5-3.4c0.1-0.4,0.3-0.7,0.6-0.9
	c0.2-0.2,0.4-0.3,0.4-0.6c0-0.4-0.5-0.6-1.3-0.9l-0.6-0.2C461.9,93.9,461.4,93.7,460.8,93.6z M502.3,107c1.9,0,3.5,1.5,3.6,3.5
	c0,0,0,0.1,0,0.1c0,2-1.6,3.6-3.6,3.6c-2,0-3.6-1.6-3.6-3.6S500.4,107,502.3,107L502.3,107z M502.3,105c-3.1,0-5.6,2.5-5.6,5.6
	s2.5,5.6,5.6,5.6c3.1,0,5.6-2.5,5.6-5.6c0,0,0,0,0,0C507.9,107.5,505.4,105,502.3,105C502.4,105,502.3,105,502.3,105z"/>
</svg>
