<?xml version="1.0" encoding="utf-8"?>
<!-- Generator: Adobe Illustrator 24.2.0, SVG Export Plug-In . SVG Version: 6.00 Build 0)  -->
<svg version="1.1" id="レイヤー_1" xmlns="http://www.w3.org/2000/svg" xmlns:xlink="http://www.w3.org/1999/xlink" x="0px"
	 y="0px" viewBox="0 0 1440 400" style="enable-background:new 0 0 1440 400;" xml:space="preserve">
<style type="text/css">
	.st0{fill:#EBE2D9;}
	.st1{fill:#EAE7D3;}
</style>
<g id="グループ_1100" transform="translate(33.705 -2102.161)">
	<g id="グループ_682" transform="translate(1403.959 2302.504) rotate(180)">
		<path id="パス_188" class="st0" d="M199.7,76.6c-5.4-22.8-25.6-56.8-48.5-65.7C107.8-6,91-6.2,58.6,9.3
			C7.9,33.5-4.8,89.7-0.3,116.1s18.8,50.4,49,68.6c40.5,24.3,71.2,11.8,100.1-4.2C178.8,163.7,212.8,144.3,199.7,76.6z M115.8,117.3
			c-13.9,6.8-20.3,2.9-30.4-2.2c-5.6-6.4-12.7-19.9-5.2-31C90.5,69,94.1,67.7,109.8,70.5c12.7,2.3,18.1,1.8,22.9,17.3
			C135.9,100.6,128.2,111.2,115.8,117.3L115.8,117.3z"/>
	</g>
	<g id="グループ_683" transform="translate(-33.705 2302.503)">
		<path id="パス_188-2" class="st1" d="M197.2,78.8c-5.3-22.3-25-55.4-47.4-64.1C107.5-1.8,91.1-2,59.5,13.1
			C10,36.8-2.4,91.6,2,117.4s18.4,49.2,47.9,66.9c39.5,23.7,69.5,11.5,97.7-4.1C176.9,163.8,210.1,144.9,197.2,78.8z M115.4,118.6
			c-13.6,6.7-19.8,2.8-29.7-2.1c-5.5-6.2-12.4-19.4-5.1-30.2c10-14.9,13.5-16.1,28.9-13.3c12.4,2.3,17.7,1.8,22.3,16.9
			C135,102.3,127.5,112.6,115.4,118.6z"/>
	</g>
</g>
</svg>
