<?xml version="1.0" encoding="utf-8"?>
<!-- Generator: Adobe Illustrator 24.2.0, SVG Export Plug-In . SVG Version: 6.00 Build 0)  -->
<svg version="1.1" id="レイヤー_1" xmlns="http://www.w3.org/2000/svg" xmlns:xlink="http://www.w3.org/1999/xlink" x="0px"
	 y="0px" viewBox="0 0 300 104" style="enable-background:new 0 0 300 104;" xml:space="preserve">
<style type="text/css">
	.st0{fill-rule:evenodd;clip-rule:evenodd;}
</style>
<g id="グループ_1106" transform="translate(-525.022 -2915.856)">
	<g id="グループ_1105" transform="translate(252.454 2539.968)">
		<path id="パス_2126" class="st0" d="M427.3,403.8c-0.1,0.5-0.3,1.4-0.5,1.8v2.5h-0.2v2.3h-0.2v2.5h-0.2v2.1h-0.2v1.8h-0.2v1.8
			h-0.2v2.1h-0.2c-0.1,2.5-0.2,5.1-0.2,7.6h-0.2v2.3h-0.2v1.8h-0.2v1.8H424v4.2h-0.2c-0.3,1.2-0.3,2.5,0,3.7l0.7-0.2v0.2h0.5v0.2
			h1.2v-0.2c0.6-0.1,0.7,0.5,1.2,0.5v-0.2h0.9v-0.2c0.8-0.8,0.1-2.4,0.5-3.7c0.4-1.3,0.5-3.3,0.9-4.6v-1.6h0.2v-2.5h0.2v-2.3h0.2
			v-1.8h0.2v-2.1h0.2v-2.5h0.2v-2.5h0.2v-1.8h0.2v-2.1h0.2v-2.8h0.2v-3.2l0.9-5.5h8.1v-0.2h2.1v-0.2h1.6c1.2-0.4,2.4-0.6,3.7-0.7
			V401h0.2l-0.2-0.7c0-0.6,0.2-0.7,0.2-0.7c0-0.2-0.1-0.4-0.2-0.5l0.2-0.5l-0.2-1.8l-8.3,0.2v0.2l-6,0.5l0.9-5.5l0.2-6.5
			c0.3-2.9,0.2-5.9-0.2-8.8h-0.5v0.5l-1.2-0.2V377c-0.2-0.1-0.4,0-0.5,0.2c-0.3,0.1-0.5,0-0.7-0.2l-0.9,0.2V377h-1.2v0.2h-0.2v1.8
			h-0.2v2.1h-0.2v1.8c-1.1,3.8-1,9.1-0.9,14.1l-2.3,0.2v-0.2h-0.9v-0.2l-0.7,0.2v-0.2l-1.6,0.2v-0.2c-0.6,0-1.3,0-1.8,0.2l-0.2,0.9
			h-0.2l0.2,0.7h-0.2v1.2h-0.2l0.2,0.5h-0.2c-0.1,0.8-0.2,1.7-0.2,2.5l6.9,0.7C427.2,403.8,427,403.6,427.3,403.8z"/>
		<path id="パス_2127" class="st0" d="M471.5,386.4h0.2v1.6h0.2v1.4h0.2v1.2h0.2v1.2h0.2l0.2,1.4h0.2l0.2,0.7
			c0.6,0,1.3-0.2,1.8-0.5v-0.2h0.7v-0.2h0.5v-0.2h0.9v-0.2c0.3-0.2,0.6-0.2,0.9-0.2c-0.1-2.2-0.5-4.4-1.4-6.5v-0.9h-0.2v-0.9h-0.2
			V383h-0.2v-0.9h-0.2v-1.2c-0.3-0.5-0.5-1.1-0.7-1.6l-2.1,0.5v0.5c-0.9,0.2-1.8,0.6-2.5,1.2c0.2,0.8,0.5,1.8,0.7,2.5
			C471.4,384.8,471.4,385.6,471.5,386.4z"/>
		<path id="パス_2128" class="st0" d="M460.8,392.2v1.2h0.2l0.2,1.6h0.2l0.2,0.7h1.4v0.2l0.7-0.2v0.2c0.4,0.1,0.5-0.2,0.5-0.2h0.2
			v0.2h0.2v-0.2l1.4,0.2c-0.1-1.8-0.2-3.7-0.2-5.5c0.2-0.8,0.3-1.7,0.2-2.5h-0.2c0-0.3,0.2,0.1,0.2-0.2V386h-0.2
			c-0.1-1.1-0.2-2.2-0.2-3.2c-0.4,0-0.8,0-1.2,0.2v0.2l-1.6,0.2v0.2h-1.6v0.2c-1.4,0.4-0.5,1.7-0.9,3h-0.2c0.2,1.8,0.3,3.5,0.5,5.3
			L460.8,392.2z"/>
		<path id="パス_2129" class="st0" d="M274.2,395.1l0.6,0.5c-0.2,0.3-0.3,0.5-0.5,0.8l0.2,0.1l-0.1,1.5l0.2,0.1l-0.4,0.3l0.3,0.4
			l-0.2,0.4l0.2,0.1l-0.2,0.6l0.3,0.4c0,0.4-0.4,0.3-0.4,0.3l0,0.7l0.2,0.1l-0.2,0.4l0.2,0.1l-0.2,0.6l0.5-0.1
			c0.2,0.5-0.2,0.1,0.1,0.5l0.2-0.4l0.4,0.2l0.4-0.3l0.6,0.5l0.1-0.2l0.4,0.2l0.4-0.3l0.9,0.3l0.1-0.2c0.6,0,1.2,0,1.8-0.1
			c0.6-1.9,0.3-2.5,0.2-3.9l0.3-2.1c-0.1-1.1-0.1-2.1,0-3.2c1.4,0.3,2.9,0.4,4.3,0.4l0.9,0.3l0.1-0.2l1.6,0.4l0.1-0.2l0.6,0.2
			l0.1-0.2l0.6,0.2l0.1-0.2l0.6,0.2l0.1-0.2l1.4,0.3l0.1-0.2l1.4,0.3l0.1-0.2l0.4,0.2l0.1-0.2l1.4,0.3l0.1-0.2l0.4,0.2l0.1-0.2
			l0.6,0.2l0.1-0.2l2.2,0.6c2.1,0.3,4.1,0.8,6.1,1.6c-1,2.5-2.3,4.8-3.9,6.9l-0.7,1.7c-1.5,2-2.8,4.8-4.3,6.8
			c-0.4,0.9-0.9,1.8-1.3,2.7l-5.1,8.2l-0.2-0.1l-0.7,1.2l-0.2-0.1l-0.2,0.6l-0.2-0.1l-0.2,0.6l-0.2-0.1l-0.2,0.6l-0.2-0.1l-0.2,0.6
			l-0.2-0.1l-0.2,0.6l-0.2-0.1L284,429c-0.9,1-1.7,2.1-2.3,3.3c0.7,0.3,1.3,0.7,1.8,1.2l-0.1,0.2l0.3-0.1l1,0.6l-0.1,0.2
			c0.7,0.6,1.1,0.3,1.4,0.8c1.5,0.3,0.8-0.3,1.7-1.1l0.5-0.1l0-0.7l0.2,0.1l0.2-0.4l0.2,0.1l0.2-0.6l0.2,0.1l0.4-1.1l0.5-0.1
			l0.2-0.6l0.5-0.1l1-1.9l0.4,0.2l-0.1-0.5l0.2,0.1c0.7-0.6,1.2-1.3,1.6-2.1l0.4,0.2l0.7-1.2l0.2,0.1l0.3-0.9l0.2,0.1l0.2-0.4
			l0.2,0.1l0.6-1l0.2,0.1l0.2-0.4l0.2,0.1l0.2-0.6l0.2,0.1l0.2-0.6l0.2,0.1l0.2-0.6l0.2,0.1l0.2-0.4l0.2,0.1c0.2-0.3-0.1,0-0.1-0.3
			c0.2-0.5,0.4-0.3,0.4-0.3l0.4-1.1l0.2,0.1l0.1-0.2l-0.2-0.1c0.1-0.3,0.1,0.2,0.3-0.1l0-0.7l0.2,0.1l0.3-0.9l0-0.7
			c0,0,0.3,0,0.4-0.3l-0.2-0.1l0.1-0.2l0.2,0.1l-0.1-0.5l0.2,0.1l0.6-1.5l0.2,0.1l0.5-1.3l0.2,0.1l0-0.7l0.2,0.1l0.4-1.1l0.2,0.1
			l0.5-1.3l0.2,0.1l0.7-1.7l0.2,0.1l0.3-0.9l0.2,0.1l0.9-2.4l0.2,0.1l0.6-1.5l0.2,0.1l0.2-0.6l0.2,0.1l0.1-0.9c0,0,0.3,0.1,0.4-0.3
			l-0.2-0.1l0.1-0.2l0.2,0.1l0.3-0.9l0.2,0.1l0.1-0.2l-0.2-0.1l0.1-0.2l0.2,0.1l0.4-1.1l0.2,0.1c0.2-0.7,0.4-1.5,0.6-2.2l0.1-0.2
			l0.2,0.1c0.4-1.2,0.8-2.5,1.2-3.7l-0.2-0.1c0-0.3,0,0.1,0.3-0.1c0.1-0.3-0.2,0-0.1-0.3l0.5-0.8c-0.1-0.3-0.2-0.5-0.2-0.8
			c-0.7-0.4-1.3-1.3-2.4-1.4l-13.6-1.3l-0.1-3.5l-0.3-0.4l0.1-0.9l-0.3-0.4l0.1-0.9l-0.3-0.4l0.2-0.4c0-0.2-0.2-0.3-0.3-0.6L295,381
			c-0.3-0.2,0.2-0.2-0.1-0.3l-0.1,0.2l-1.3-0.5l-0.4,0.3l-0.8-0.5l-0.1,0.2l-0.6-0.2l-0.4,0.3c-0.3,0-0.5-0.2-0.6-0.5l-0.7,0
			c-0.2,1.7-0.2,3.5,0,5.2l-0.2,0.6l0.2,0.1l-0.3,1.4l0.2,0.1l-0.2,0.4l-2.8,0.2l-0.6-0.2l-0.1,0.2l-0.4-0.2l-0.1,0.2l-1.4-0.3
			l-0.1,0.2l-0.6-0.2l-0.1,0.2l-0.6-0.2l-0.1,0.2l-0.6-0.2l-0.1,0.2l-2.3-0.4l-0.1,0.2l-0.4-0.2l-0.1,0.2l-1.4-0.3l-0.1,0.2
			l-2.2-0.1c-0.3,0.5-0.2,0.4-0.7,0.5l-0.1,0.2l0.4,0.2l-0.4,0.3l0.2,0.1l0,0.7c-0.3,0.2-0.2-0.2-0.3,0.1l0.5,0.7l-0.4,1.1
			c0,0,0.1,0.1,0.1,0.5c-0.5,0-0.2-0.1-0.5,0.1l0.4,0.2l-0.2,0.6C274.3,393.9,275.1,394,274.2,395.1z"/>
		<g id="グループ_1110" transform="translate(-0.741 -7.148)">
			<path id="パス_2130" class="st0" d="M557.1,439.6h0.5l0.2-0.5h0.7l0.5-0.7h0.5l0.5-0.7h0.7v-0.2c0.3-0.2,0.6-0.4,0.9-0.5v-0.5
				c0.9-0.1,0.6-0.3,1.4-0.5c0.2-0.6,0.6-1.2,1.2-1.6h0.2V434l0.5-0.2v-0.5l0.5-0.2l0.2-0.9l0.5-0.2l0.2-0.9l0.5-0.2l0.2-0.9
				l0.5-0.2l0.2-0.9l0.5-0.2l0.2-1.2h0.2v-0.5h0.2v-1.6h0.2v-0.7h0.2v-1.2h0.2l-0.2-0.7c0.1-1,0.2-2,0.2-3h0.2v-2.3h0.2v-2.1h0.2
				v-0.5h0.2v-0.2h-0.2v-1.4h0.2c0.1-0.5-0.3-0.6-0.2-0.9h0.2l0.2-0.7h-0.2c0-0.5,0.2-0.5,0.2-0.5v-2.3c0.4-1.7,0.4-3.5,0.2-5.3
				h-0.2v-1.6h-0.2v-1.2h-0.2v-0.9h-0.2v-0.7h-0.2v-0.9h-0.2v-0.7h-0.2v-0.7h-0.2L568,392h-0.2v-0.2l-3.7,0.7h-0.7v0.2h-0.2v-0.2
				h-0.2v0.2l-0.5,0.2c0.2,1.9,1.1,3.2,1.6,4.8v10.9c-0.1,2.8-0.2,5.5-0.2,8.3h-0.2v2.5h-0.2v1.6h-0.2v0.9h-0.2v0.9h-0.2v0.7h-0.2
				v0.5h-0.2v0.7H562v0.7h-0.2v0.7h-0.2v0.7h-0.2v0.5h-0.2v0.5l-0.5,0.2v0.5l-0.5,0.2v0.5l-0.7,0.5v0.5l-1.2,0.9v0.5l-0.7,0.5v0.2
				h-0.5l-0.7,0.9l-0.9,0.2l-0.2,0.5h-0.5l-0.5,0.5h-0.5v0.2h-0.5v0.2H553v0.2h-0.5v0.2h-0.5v0.2h-0.5v0.2l-0.9,0.2v0.2l-0.9,0.2
				v0.2h-0.5v0.2h-0.7c-0.4,0.2-1.1,0.5-1.6,0.7c0,1.6,0.3,4.2,0,5.1h0.5v0.2l2.1-0.5v-0.2h0.7v-0.2h0.7v-0.2h0.2v0.2h0.2v-0.2h0.9
				l0.2-0.5l0.7,0.2l0.2-0.5h1.2v-0.2h0.5v-0.2l1.6-0.2L557.1,439.6z"/>
			<path id="パス_2131" class="st0" d="M547.7,415.5c0.9-0.2,0.7-0.7,1.6-0.9c0.2-0.5,0.5-1,0.9-1.4c-0.2-1.4-0.9-1.6-1.2-2.8
				h-0.5l-0.2-1.2h-0.5c-0.1-0.8-0.2-0.9-0.7-1.2v-0.2H547l-3.5,3.7H543l-0.7,0.9h-0.2c-0.1-2-0.2-4.4-0.2-6.7v-2.1
				c0.4-1.4,0.4-2.9,0.2-4.4h-0.2v-1.6h-0.2v-0.9h-0.2v-2.8c-0.2-0.6-0.4-1.2-0.5-1.8h-0.2V392c-1.5,0-2.9,0.1-4.4,0.2v0.2h-0.2
				c-0.2,1.1-0.2,2.3,0,3.5h0.2v2.8c1,5.8-0.4,13.6,0.9,18.2v1.6l0.5,2.8l0.5,0.2v0.2c0.7-0.3,0.3-0.4,1.4-0.5l0.2-0.7
				c0.7-0.2,0.8-0.5,1.6-0.7v-0.5c0.9-0.3,1.2-0.8,2.3-0.9v-0.5c1.6-0.4,2.1-2,3.9-2.1L547.7,415.5z"/>
		</g>
		<path id="パス_2132" class="st0" d="M386.9,433.1c0.4-0.8,0.8-1,0.9-2.1h0.5c0.3-1.6,2.1-4,1.4-4.8v-0.2l0.5,0.2
			c0.2-0.7,0.1-0.3,0-1.2c0.3,0.3,0.1,0,0.2,0.5h0.2v-0.9h0.5v-0.5c-0.5-0.1-0.2,0-0.5-0.2l-0.2-0.2l0.7-0.2l-0.2-0.7h0.2l0.2-1.2
			h0.5c0-0.3-0.1-0.6-0.2-0.9h0.5v-0.9h0.2v-0.2H392v-0.7c0.2,0.2,0.2,0.3,0.5,0.5l0.7-3.5h0.5c-0.4-0.3,0.9-3.3,0.9-4.4l0.7-0.2
			l-0.2-0.7h0.2c0.2-0.5,0.2-1.1,0-1.6h0.5c0-1-0.1-1.4,0.7-1.6c0-0.3,0.1-0.6,0.2-0.9h-0.2v-0.2h0.2v-0.7h0.2v-0.2h-0.2
			c0,0,0-0.9,0.2-0.5v0.2h0.2l0.2-1.4h0.2v-1.2h0.2l-0.2-0.7c0.4-0.9,0.6-2,0.5-3h-0.2l0.2-0.9l-0.5-0.2v-0.5
			c-0.3-0.1-0.7-0.2-0.9-0.5v-0.2h-0.5v-0.2h-0.9v-0.2h-2.1c-1.9,0-4.3-0.2-5.8,0.2h-3.9v0.2h-1.2v0.2h-0.5v0.2l-0.7-0.2v0.2H380
			v-0.2h-0.2v0.2h-0.7v0.2h-1.4v0.2h-0.2c-0.3-0.1,0.1-0.4-0.2-0.2c-0.1,0.1,0,0.3-0.7,0.5v-0.5h-0.2v0.2l-1.4-0.2v0.5h-0.5v-0.2
			c-0.6-0.2-0.7,0.6-0.9,0.7l-1.4,0.2c0.5,1.3,0.9,2.9,0.2,3.7c0.1,0.8,1,0.7,0,1.4c0.3,0.3,0,0.1,0.5,0.2c0,0.4,0.1,0.8,0.2,1.2
			c6.8,1.1,12.4-2.1,19.2-2.1l-0.5,2.8h-0.2v0.7h-0.2l-0.2,1.4h-0.2l-0.2,0.9h-0.2v0.5h-0.2v0.7h-0.2v0.5h-0.2l-0.5,1.4H389v0.7
			h-0.2v0.5h-0.2l-0.5,1.4h-0.2v0.7h-0.2l-0.2,0.9h-0.2v0.7h-0.2v0.5h-0.2v0.7h-0.2v0.5h-0.2c-0.1,0.5-0.2,0.9-0.2,1.4
			c-1.7,3.9-3,8-3.7,12.2l1.2,0.2v0.5l2.1,0.2l0.2,0.5h0.9C387,433,386.6,433,386.9,433.1z"/>
		<path id="パス_2133" class="st0" d="M507.6,427.8h0.5v0.2l0.9,0.2l0.2,0.5h0.5v0.2c0.9,0.3,1-0.4,1.2-0.5h0.5
			c0.2-1.6,1.3-1.6,1.6-3c0.3-0.3,0.1,0,0.2-0.5c-0.3-0.2-0.3-0.4-0.5-0.5h-0.5l-0.5-0.7h-0.5l-0.5-0.7h-0.5l-0.2-0.5l-5.3-2.8V419
			h0.2c0-1.9-0.3-4.7,0.2-6.2c1.7,0.2,4,0.2,6,0.2c0-1.4,0.2-2.8,0.5-4.2c-0.3-0.2,0,0-0.2-0.2c-1.6-0.6-3.8-0.1-5.8-0.7h-1.4v-0.2
			c-0.5-0.5-0.2-1.4-0.5-2.1h-0.2c-0.1-0.5-0.2-1.1-0.2-1.6h-0.2c-0.1-0.6-0.2-1.2-0.2-1.8h-0.2v-0.9h-0.2l-0.2-1.6h-0.2v-0.7h-0.2
			v-0.7h-0.2c-0.4-0.9-0.2-1.5-0.9-2.1v-0.2c-1.6,0.5-3.4,0.7-5.1,0.7l0.2,1.8c0,0-0.3,0-0.2,0.5h0.2l-0.2,0.5h0.2v0.7h0.2v1.4h0.2
			v0.2c-0.1,0.2-0.3,0-0.2,0.5h0.2v0.9h0.2l-0.2,0.7h0.2v1.6h0.2v1.6h0.2v0.2l-0.7,0.2c0.1,1.6,0.3,3.3,0.7,4.8h0.7
			c0,2.1-0.1,4.2-0.5,6.2h-3.9v0.2l-2.1,0.5v0.2h-0.5v0.2l-0.9,0.2l-0.5,0.7h-0.5l-0.2,0.5l-1.4,0.5l-0.2,0.5h-0.5l-0.2,0.5
			l-1.4,1.2c-0.2,0.8-0.9,3.1-0.5,4.4h0.2v0.5h0.2v0.7h0.2v0.5l0.5,0.2v0.5l0.5,0.2v0.5l0.7,0.5v0.5l0.5,0.2l0.9,1.2h0.5l0.7,0.9
			l2.1,0.7c1.4,0.6,2.9,0.7,4.4,0.5c3.3-1,8-5.3,8.3-9.2C505.4,426.5,506.6,427.1,507.6,427.8z M494.3,427.5L494,428
			c-0.5,0.4-1.2,0.4-1.6,0.9c-0.5,0-0.9-0.1-1.4-0.2c0.1-0.8,0.7-3.8,1.2-4.2c0.7-0.5,2.7-0.7,3.9-0.7
			C496.1,425.3,495.4,426.7,494.3,427.5L494.3,427.5z"/>
		<path id="パス_2134" class="st0" d="M340.6,426.9h0.5v0.5c0,0,0.9,0,0.5-0.2h-0.2v-0.2c0.3,0.1,0.6,0.1,0.9,0.2v0.2h0.7l0.2,0.5
			l0.9-0.2v0.2h0.5v0.2h0.2v-0.2l0.5,0.2l5.5-12l0.5-2.3h0.2V413h0.2v-0.9h0.2v-0.9h0.2v-0.9h0.2v-0.9h0.2v-1.2h0.2V407h0.2v-1.4
			h0.2v-1.8h0.2l0.2-3c-0.2-0.7-0.6-1.4-0.9-2.1l-0.9-0.2v-0.2c-1.8-0.2-3.6-0.1-5.3,0.2h-1.8c-2.9,0.8-6.2,1.2-9,2.1h-1.2v0.2h-1.2
			v0.2c-1.1,0.3-2.3-0.2-3,0.5c-0.9,0-1.5-0.1-1.8,0.5c-0.1,0.1-0.4-0.1-0.2,0.2h0.2c0,0.7-0.5,2-0.2,3h0.2l-0.2,0.7h0.2l-0.2,0.2
			l0.2,0.2l-0.2,0.5c0.3,0.2,0,0,0.2,0.2c2.6-0.1,5.2-0.6,7.6-1.4l4.2-0.7c2-0.8,4.1-1.3,6.2-1.4c-0.3,4.9-1.5,9.8-3.5,14.3
			l-0.5,2.1h-0.2l-0.5,2.3h-0.2v0.7c-0.4,1-1.3,2.6-0.9,3.7h-0.2L340.6,426.9z"/>
		<path id="パス_2135" class="st0" d="M450.3,411.2h-0.7v0.2l-0.9,0.2v0.2c-1.2,0.4-2.3-0.4-3.2,0.5h-0.2
			c-0.1,0.1,0.4,0.5,0.2,0.9h-0.2v2.8H445v0.2h0.2l0.2,0.7c1.9,0.8,4.8,0.4,6.7-0.2h1.4v-0.2h0.7v-0.2h1.4V416h2.5v0.2
			c0.3,0.1,0.5,0,0.7-0.2c0.6-0.2,1.1,0.2,1.4,0.2V416h0.5l0.2-0.5l3-0.2c-0.2-0.4-0.3-0.9-0.2-1.4h0.2v-0.2l-0.5-0.2
			c0.2-0.7,0.2-1.4,0-2.1h-0.2l0.2-0.2l-0.2-0.2l0.2-0.7l-2.3,0.2c-1.1-0.3-2.3-0.4-3.5-0.2v0.2h-1.4v0.2h-1.6v0.2h-4.4L450.3,411.2
			z"/>
		<path id="パス_2136" class="st0" d="M460,429.2h1.6v-0.2l4.6-0.5v-0.2l0.7-0.2l-0.5-3.5h-0.2v-0.9H466l0.2-0.9l-0.7-0.2v-0.2
			l-3,0.7v0.2h-0.7c-2,0.8-4.8,0.7-7.6,0.7h-3c-1.1-0.3-2.3-0.5-3.5-0.5v0.5h-0.5v1.6l-0.5,0.2l0.2,0.5v0.7h-0.2v0.7h0.2
			c0,0.3-0.1-0.1-0.2,0.2v0.7h-0.2c0,0.3,0.1,0.6,0.2,0.9c1.5,0,3,0.1,4.4,0.5c1.8,0.2,3.6,0.1,5.3-0.2h2.1v-0.2h1.4L460,429.2z"/>
	</g>
	<path id="パス_2181" d="M600.7,3014.3c0,1.2-0.5,2.4-1.4,3.3c-0.9,0.9-2,1.4-3.3,1.4c-1.2,0-2.4-0.5-3.3-1.4
		c-0.9-0.9-1.4-2-1.4-3.3v-5.7c0-0.2,0.1-0.5,0.3-0.6c0.2-0.2,0.4-0.3,0.6-0.3c0.2,0,0.5,0.1,0.6,0.3c0.2,0.2,0.3,0.4,0.3,0.6v5.7
		c0,0.8,0.3,1.5,0.8,2c0.5,0.5,1.3,0.9,2,0.8c0.8,0,1.5-0.3,2-0.8c0.5-0.5,0.8-1.3,0.8-2v-5.7c0-0.2,0.1-0.5,0.3-0.6
		c0.2-0.2,0.4-0.3,0.6-0.3c0.2,0,0.5,0.1,0.6,0.3c0.2,0.2,0.3,0.4,0.3,0.6L600.7,3014.3z M607.3,3018.7c-0.2,0.2-0.4,0.3-0.6,0.3
		c-0.2,0-0.5-0.1-0.6-0.3c-0.2-0.2-0.3-0.4-0.3-0.6v-9.4c0-0.2,0.1-0.5,0.3-0.6c0.2-0.2,0.4-0.3,0.6-0.3h5.2c0.2,0,0.5,0.1,0.6,0.3
		c0.2,0.2,0.3,0.4,0.3,0.6c0,0.2-0.1,0.5-0.3,0.6c-0.2,0.2-0.4,0.3-0.6,0.3h-4.3v2.9h3.7c0.2,0,0.5,0.1,0.6,0.3
		c0.2,0.2,0.3,0.4,0.3,0.6c0,0.2-0.1,0.5-0.3,0.6c-0.2,0.2-0.4,0.3-0.6,0.3h-3.7v3.8C607.5,3018.3,607.5,3018.5,607.3,3018.7z
		 M626,3014.3c0,1.2-0.5,2.4-1.4,3.3c-0.9,0.9-2,1.4-3.3,1.4c-1.2,0-2.4-0.5-3.3-1.4c-0.9-0.9-1.4-2-1.4-3.3v-5.7
		c0-0.2,0.1-0.5,0.3-0.6c0.2-0.2,0.4-0.3,0.6-0.3c0.2,0,0.5,0.1,0.6,0.3c0.2,0.2,0.3,0.4,0.3,0.6v5.7c0,0.8,0.3,1.5,0.8,2
		c0.5,0.5,1.3,0.9,2,0.8c0.8,0,1.5-0.3,2-0.8c0.5-0.5,0.8-1.3,0.8-2v-5.7c0-0.2,0.1-0.5,0.3-0.6c0.2-0.2,0.4-0.3,0.6-0.3
		c0.2,0,0.5,0.1,0.6,0.3c0.2,0.2,0.3,0.4,0.3,0.6L626,3014.3z M632.5,3018.7c-0.2,0.2-0.4,0.3-0.6,0.3c-0.2,0-0.5-0.1-0.6-0.3
		c-0.2-0.2-0.3-0.4-0.3-0.6v-9.4c0-0.2,0.1-0.5,0.3-0.6c0.2-0.2,0.4-0.3,0.6-0.3h5.2c0.2,0,0.5,0.1,0.6,0.3c0.2,0.2,0.3,0.4,0.3,0.6
		c0,0.2-0.1,0.5-0.3,0.6c-0.2,0.2-0.4,0.3-0.6,0.3h-4.3v2.9h3.7c0.2,0,0.5,0.1,0.6,0.3c0.2,0.2,0.3,0.4,0.3,0.6
		c0,0.2-0.1,0.5-0.3,0.6c-0.2,0.2-0.4,0.3-0.6,0.3h-3.7v3.8C632.8,3018.3,632.7,3018.5,632.5,3018.7z M651.3,3014.3
		c0,1.2-0.5,2.4-1.3,3.3c-0.9,0.9-2,1.4-3.3,1.4c-1.2,0-2.4-0.5-3.3-1.4c-0.9-0.9-1.4-2-1.4-3.3v-5.7c0-0.2,0.1-0.5,0.3-0.6
		c0.2-0.2,0.4-0.3,0.6-0.3c0.2,0,0.5,0.1,0.6,0.3c0.2,0.2,0.3,0.4,0.3,0.6v5.7c0,0.8,0.3,1.5,0.8,2c0.5,0.5,1.3,0.9,2,0.8
		c0.8,0,1.5-0.3,2-0.8c0.5-0.5,0.8-1.3,0.8-2v-5.7c0-0.2,0.1-0.5,0.3-0.6c0.2-0.2,0.4-0.3,0.6-0.3c0.2,0,0.5,0.1,0.6,0.3
		c0.2,0.2,0.3,0.4,0.3,0.6V3014.3z M663.3,3019c-0.2,0-0.5-0.1-0.6-0.3c-0.2-0.2-0.3-0.4-0.3-0.6v-9.4c0-0.2,0.1-0.5,0.3-0.6
		c0.2-0.2,0.4-0.3,0.6-0.3h5.2c0.2,0,0.5,0.1,0.6,0.3c0.2,0.2,0.3,0.4,0.3,0.6c0,0.2-0.1,0.5-0.3,0.6c-0.2,0.2-0.4,0.3-0.6,0.3h-4.3
		v2.9h3.7c0.2,0,0.5,0.1,0.6,0.3c0.2,0.2,0.3,0.4,0.3,0.6c0,0.2-0.1,0.5-0.3,0.6c-0.2,0.2-0.4,0.3-0.6,0.3h-3.7v2.9h4.3
		c0.2,0,0.5,0.1,0.6,0.3c0.2,0.2,0.3,0.4,0.3,0.6c0,0.2-0.1,0.5-0.3,0.6c-0.2,0.2-0.4,0.3-0.6,0.3H663.3L663.3,3019L663.3,3019z
		 M677,3018.9c0,0-0.1,0-0.1-0.1h0c0,0-0.1-0.1-0.1-0.1c0,0,0,0,0-0.1c0,0,0,0,0-0.1c0,0,0,0,0-0.1c0,0,0-0.1-0.1-0.1l-3.9-9.3
		c-0.1-0.2-0.1-0.5,0-0.7c0.1-0.2,0.3-0.4,0.5-0.5c0.2-0.1,0.4-0.1,0.7,0c0.2,0.1,0.4,0.3,0.5,0.5l3.1,7.4l3.1-7.4
		c0.1-0.2,0.3-0.4,0.5-0.5c0.2-0.1,0.5-0.1,0.7,0c0.2,0.1,0.4,0.3,0.5,0.5c0.1,0.2,0.1,0.5,0,0.7l-4,9.3l-0.1,0.1c0,0,0,0,0,0
		l-0.2,0.2c0,0-0.1,0-0.1,0.1c0,0-0.1,0-0.2,0.1h0c-0.1,0-0.1,0-0.2,0c-0.1,0-0.1,0-0.2,0h0C677.1,3018.9,677,3018.9,677,3018.9
		L677,3018.9L677,3018.9z M687.3,3019c-0.2,0-0.5-0.1-0.6-0.3c-0.2-0.2-0.3-0.4-0.3-0.6v-9.4c0-0.2,0.1-0.5,0.3-0.6
		c0.2-0.2,0.4-0.3,0.6-0.3h5.2c0.2,0,0.5,0.1,0.6,0.3c0.2,0.2,0.3,0.4,0.3,0.6c0,0.2-0.1,0.5-0.3,0.6c-0.2,0.2-0.4,0.3-0.6,0.3h-4.3
		v2.9h3.7c0.2,0,0.5,0.1,0.6,0.3c0.2,0.2,0.3,0.4,0.3,0.6c0,0.2-0.1,0.5-0.3,0.6c-0.2,0.2-0.4,0.3-0.6,0.3h-3.7v2.9h4.3
		c0.2,0,0.5,0.1,0.6,0.3c0.2,0.2,0.3,0.4,0.3,0.6c0,0.2-0.1,0.5-0.3,0.6c-0.2,0.2-0.4,0.3-0.6,0.3H687.3L687.3,3019L687.3,3019z
		 M702.9,3013.8c0.7,0.5,1.1,1.4,1.1,2.3c0,0.3,0,0.6,0.1,0.9c0.3,0.1,0.5,0.3,0.6,0.6c0.1,0.3,0,0.6-0.1,0.8
		c-0.2,0.2-0.5,0.4-0.8,0.4h0c-0.5,0-0.9-0.3-1.1-0.7c-0.3-0.6-0.4-1.3-0.3-1.9c0-0.5-0.3-0.9-0.7-1.2c-0.3-0.2-0.6-0.3-0.9-0.4
		h-1.9v3.5c0,0.2-0.1,0.5-0.3,0.6c-0.2,0.2-0.4,0.3-0.6,0.3c-0.2,0-0.5-0.1-0.6-0.3c-0.2-0.2-0.3-0.4-0.3-0.6v-9.4
		c0-0.2,0.1-0.5,0.3-0.6c0.2-0.2,0.4-0.3,0.6-0.3h2.9c0.9,0,1.8,0.4,2.4,1c0.7,0.7,1,1.6,1,2.5
		C704.1,3012.3,703.7,3013.2,702.9,3013.8z M700.7,3012.8c0.4,0,0.9-0.2,1.2-0.5c0.3-0.3,0.5-0.7,0.5-1.2c0-0.4-0.2-0.9-0.5-1.2
		c-0.3-0.3-0.7-0.5-1.2-0.5h-2v3.3L700.7,3012.8z M714.8,3008.2c0.1-0.2,0.3-0.3,0.6-0.4c0.2,0,0.5,0,0.6,0.2
		c0.2,0.1,0.3,0.3,0.3,0.6c0,0.2,0,0.5-0.2,0.6l-3.3,4.5v4.3c0,0.2-0.1,0.5-0.3,0.6c-0.2,0.2-0.4,0.3-0.6,0.3
		c-0.2,0-0.5-0.1-0.6-0.3c-0.2-0.2-0.3-0.4-0.3-0.6v-4.3l-3.2-4.5c-0.1-0.2-0.2-0.4-0.2-0.6c0-0.2,0.2-0.4,0.4-0.6
		c0.2-0.1,0.4-0.2,0.7-0.2c0.2,0,0.4,0.2,0.6,0.4l2.7,3.7L714.8,3008.2z M719.4,3018.1v-9.4c0-0.2,0.1-0.5,0.3-0.6
		c0.2-0.2,0.4-0.3,0.6-0.3h1.9c1.5,0,2.9,0.6,4,1.6c1.1,1,1.7,2.5,1.6,4c0,1.5-0.6,2.9-1.6,4c-1,1.1-2.5,1.7-4,1.6h-1.9
		c-0.2,0-0.5-0.1-0.6-0.3C719.5,3018.5,719.4,3018.3,719.4,3018.1z M721.2,3009.5v7.6h1c1,0,2-0.4,2.7-1.1c0.7-0.7,1.1-1.7,1.1-2.7
		c0-1-0.4-2-1.1-2.7c-0.7-0.7-1.7-1.1-2.7-1.1H721.2z M738.7,3018.4l-0.8-2.1H734l-0.8,2.1c-0.1,0.3-0.4,0.6-0.8,0.6
		c-0.3,0-0.6-0.1-0.8-0.4c-0.2-0.2-0.2-0.5-0.1-0.8l3.5-9.4c0.1-0.2,0.2-0.3,0.3-0.4c0.1-0.1,0.3-0.2,0.5-0.1c0.4,0,0.7,0.2,0.8,0.6
		l3.5,9.4c0.1,0.3,0.1,0.6-0.1,0.8c-0.2,0.3-0.5,0.4-0.8,0.4C739.1,3019,738.8,3018.7,738.7,3018.4z M734.7,3014.6h2.6l-1.3-3.4
		L734.7,3014.6z M750.2,3008.2c0.1-0.2,0.3-0.3,0.6-0.4c0.2,0,0.5,0,0.6,0.2c0.2,0.1,0.3,0.3,0.3,0.6c0,0.2,0,0.5-0.2,0.6l-3.3,4.5
		v4.3c0,0.2-0.1,0.5-0.3,0.6c-0.2,0.2-0.4,0.3-0.6,0.3c-0.2,0-0.5-0.1-0.6-0.3c-0.2-0.2-0.3-0.4-0.3-0.6v-4.3l-3.2-4.5
		c-0.1-0.2-0.2-0.4-0.2-0.6c0-0.2,0.2-0.4,0.4-0.6c0.2-0.1,0.4-0.2,0.7-0.2c0.2,0,0.4,0.2,0.6,0.4l2.7,3.7L750.2,3008.2z"/>
</g>
</svg>
