<?xml version="1.0" encoding="utf-8"?>
<!-- Generator: Adobe Illustrator 24.2.0, SVG Export Plug-In . SVG Version: 6.00 Build 0)  -->
<svg version="1.1" id="レイヤー_1" xmlns="http://www.w3.org/2000/svg" xmlns:xlink="http://www.w3.org/1999/xlink" x="0px"
	 y="0px" viewBox="0 0 600 100" style="enable-background:new 0 0 600 100;" xml:space="preserve">
<path id="パス_722" d="M127.9,10c-1.5,0-2.9-0.1-4.4-0.1c-0.9,0-0.8,0.4-0.8,2.1c0,1,0,1.6,0.9,1.6c1.2,0,2.9-0.1,4.4-0.1h14.3
	c0.6,0,1.3,0,1.3,0.4s-1.8,2-2.1,2.4c-1.4,1.3-2.8,2.5-4.2,3.8c-0.2,0.2-0.5,0.4-0.8,0.4c-0.4,0-0.6-0.2-0.9-0.5
	c-0.4-0.4-2.1-2.2-2.7-2.2c-0.7,0-2.5,1.5-2.5,2c0,0.3,0.4,0.7,0.6,0.9c2.4,2.1,4.5,4.6,6.2,7.3c0.1,0.3,0.3,0.6,0.7,0.6
	c0.7,0,2.8-1.4,2.8-2c-0.3-0.7-0.8-1.4-1.3-2.1c-0.2-0.3-0.5-0.6-0.5-1s0.3-0.7,0.6-1c3.1-2.6,6.1-5.4,9-8.3
	c0.3-0.3,0.6-0.6,0.9-0.9c0.6-0.5,1.1-1,1.1-1.2c0-0.4-1.7-2.5-2.4-2.5c-0.1,0-0.2,0-0.3,0c-0.6,0.1-1.3,0.1-1.9,0.1L127.9,10z
	 M164.6,10c-1.5,0-2.9-0.1-4.4-0.1c-0.9,0-0.8,0.4-0.8,2.1c0,1,0,1.6,0.9,1.6c1.2,0,2.9-0.1,4.4-0.1H179c0.6,0,1.3,0,1.3,0.4
	s-1.8,2-2.1,2.4c-1.4,1.3-2.8,2.5-4.2,3.8c-0.2,0.2-0.5,0.4-0.8,0.4c-0.4,0-0.6-0.2-0.9-0.5c-0.4-0.4-2.1-2.2-2.7-2.2
	c-0.7,0-2.5,1.5-2.5,2c0,0.3,0.4,0.7,0.6,0.9c2.4,2.1,4.5,4.6,6.2,7.3c0.1,0.3,0.3,0.6,0.7,0.6c0.7,0,2.8-1.4,2.8-2
	c-0.3-0.7-0.8-1.4-1.3-2.1c-0.2-0.3-0.5-0.6-0.5-1s0.3-0.7,0.6-1c3.1-2.6,6.1-5.4,9-8.3c0.3-0.3,0.6-0.6,0.9-0.9
	c0.6-0.5,1.1-1,1.1-1.2c0-0.4-1.7-2.5-2.4-2.5c-0.1,0-0.2,0-0.3,0c-0.6,0.1-1.3,0.1-1.9,0.1L164.6,10z M205.5,4
	c-0.3,0-0.4,0.2-0.4,0.5c0,0.1,0.1,0.8,0.1,1.3c0,1.5-0.1,2.9-0.4,4.4c-0.1,0.7-0.4,0.9-1.1,1.1c-1.9,0.3-3.8,0.8-5.7,1
	c-0.4,0-1,0-1,0.5c0,0.2,0.6,3.5,1.4,3.5c0.2,0,0.5-0.1,0.7-0.2c1.3-0.5,2.6-0.9,3.9-1.2c0.2,0,0.4,0.2,0.4,0.4l0,0
	c-0.2,0.9-0.5,1.8-0.8,2.6c-1.3,3.5-3.4,6.8-6.1,9.5c-0.3,0.2-0.4,0.5-0.5,0.8c0,0.8,2.2,2.1,2.8,2.1c0.2,0,0.4-0.1,0.6-0.3
	c1.3-1.5,2.4-3.1,3.4-4.8c1.9-3.2,3.4-6.6,4.4-10.2c0.2-1,0.6-1.2,2.5-1.2c2.1,0,2.2,1.4,2.2,3.1c0,2.6-0.5,5.2-1.5,7.7
	c-0.8,1.7-1.7,2.1-3.6,2.1c-0.7,0-1.2-0.1-1.5-0.1c-0.4,0-0.5,0.3-0.5,0.6c0.1,0.8,0.3,1.7,0.6,2.4c0.3,0.7,0.8,0.8,1.6,0.8
	c2.7,0.1,5.2-1.3,6.4-3.7c1.5-2.7,2-7.3,2-10.4c0-1.9-0.4-3.8-2.1-5c-1.2-0.6-2.5-0.9-3.8-0.8h-0.4c-0.4,0-0.7-0.2-0.7-0.6V9.8
	c0-0.1,0-0.3,0.1-0.4c0.1-0.5,0.2-1,0.2-1.4c0.2-1.2,0.2-1.8,0.9-2.2c0.2-0.1,0.3-0.2,0.3-0.4c0-0.4-0.6-0.5-0.9-0.5
	C208.4,4.7,205.8,4,205.5,4z M219.3,4c-0.4,0-1.6,1-1.6,1.4c0,0.2,0.2,0.3,0.3,0.5c0.9,0.8,1.7,1.7,2.4,2.6c0.1,0.1,0.3,0.4,0.5,0.4
	c0.4,0,1.6-1,1.6-1.6C221.7,6.1,220.6,4.9,219.3,4z M222.5,1.6c-0.3,0-1.6,1-1.6,1.4c0,0.2,0.2,0.4,0.3,0.5c0.8,0.9,1.6,1.7,2.4,2.6
	c0.2,0.2,0.3,0.4,0.5,0.4c0.4,0,1.6-1,1.6-1.6C224.9,3.7,223.8,2.5,222.5,1.6L222.5,1.6z M217,7.7c-0.5,0-2.4,1.1-2.4,1.7
	c0,0.2,0.1,0.4,0.3,0.6c1.9,2.1,3.5,4.6,4.6,7.3c0.1,0.3,0.3,0.8,0.8,0.8c0.7,0,2.8-1.3,2.8-2C223,15.2,218.3,7.7,217,7.7L217,7.7z
	 M235.1,21.5c0.2,1.2,0.6,2.3,1.3,3.3c2.2,3.1,6,3.5,9.6,3.5c2,0,8.4-0.4,10.2-1c0.6-0.2,0.8-0.6,0.8-1.3c0-2.2-0.2-2.8-0.7-2.8
	c-0.2,0-0.3,0.1-0.5,0.1c-3.3,0.8-6.7,1.2-10.1,1.2c-3.2,0-6.1-0.5-6.8-4.1c-0.1-0.3-0.2-0.6-0.6-0.6
	C238.2,19.9,235.1,20.7,235.1,21.5z M238.5,9.8c0,0.3,0.2,0.6,0.5,0.7c1.7,0.7,5.9,0.9,7.8,0.9c2.1,0,4.1-0.1,6.2-0.4
	c0.8-0.1,1-0.2,1-1c0-1.4,0-2.9-0.9-2.9c-0.1,0-0.3,0-0.4,0.1c-2,0.4-4.1,0.7-6.2,0.7c-1.9,0-3.9-0.2-5.8-0.7
	c-0.3-0.1-0.7-0.2-1-0.2c-0.6,0-0.7,0.6-0.8,1.2C238.7,8.6,238.6,9.2,238.5,9.8L238.5,9.8z M291.6,5.2c-0.4,0-1.8,0.7-1.8,1.1
	c0,0.2,0.3,0.6,0.5,0.8c0.5,0.7,1.1,1.7,1.5,2.4c0.3,0.5,0.4,0.7,0.6,0.7c0.4,0,1.8-0.8,1.8-1.3c-0.3-0.8-0.8-1.6-1.3-2.2
	C292.7,6.4,292,5.2,291.6,5.2L291.6,5.2z M295.2,2.8c-0.3,0-1.8,0.7-1.8,1.2c0,0.1,0,0.2,0.1,0.3c0.7,1.1,1.4,2,2,3.2
	c0.1,0.2,0.2,0.5,0.5,0.5c0.4,0,1.8-0.8,1.8-1.3c-0.3-0.8-0.8-1.5-1.3-2.2C296.2,4,295.5,2.8,295.2,2.8z M277.7,4.4
	c-1.2,0.2-2.2,0.2-2.2,0.7c0,0.1,0.1,0.3,0.1,0.4c0.3,0.7,0.5,1.5,0.6,2.2c0.4,1.5,1.3,5,1.7,6.3c0.1,0.2,0.1,0.4,0.1,0.5
	c0,0.6-0.4,0.8-0.8,1.1c-2.7,1.7-5.1,4-5.1,7.4c0,2.2,1.2,4.2,3.1,5.3c2.2,1.1,4.6,1.6,7.1,1.4c1.8,0,7.5-0.2,9-0.5
	c0.9-0.2,1-0.5,1-1.4v-0.4c0-0.8,0-2.2-0.5-2.2c-0.1,0-0.2,0-0.3,0c-0.5,0.1-2.9,0.5-3.5,0.5c-1.8,0.2-3.5,0.3-5.3,0.3
	c-1.5,0.1-3.1-0.1-4.6-0.6c-1.2-0.3-2.1-1.3-2.2-2.5c0-3,5.1-5.6,7.4-6.8s4.6-2.3,7.1-3.2c0.2-0.1,0.6-0.2,0.6-0.5
	c0-0.5-1.6-3.5-2.2-3.5c-0.3,0.1-0.6,0.2-0.9,0.4c-0.8,0.5-5.2,3.2-5.8,3.2c-0.6,0-0.7-0.6-0.8-1c-0.4-2-0.9-4-1.1-6.1
	c-0.1-0.8,0-1.3-1-1.3C278.7,4.3,278.2,4.4,277.7,4.4L277.7,4.4z M319.5,2.9c-0.6-0.2-1.1-0.4-1.7-0.5c-0.3,0-0.4,0.3-0.5,0.7
	c-0.3,1-1,3.4-1.3,4.6c-0.1,0.4-0.2,0.8-0.8,0.8c-0.2,0-0.3,0-0.4-0.1c-0.8-0.3-1.6-0.7-2.3-1.2c-0.2-0.2-0.5-0.3-0.8-0.4
	c-0.7,0-1.3,2.3-1.3,2.9s0.7,0.9,3.1,1.8c0.5,0.2,1.1,0.4,1.1,1.1c0,0.3-0.1,0.5-0.1,0.7c-0.1,0.5-0.2,1-0.3,1.3
	c-0.2,1-0.3,1.5-0.9,1.5c-0.8-0.2-1.5-0.5-2.2-1c-0.3-0.2-0.5-0.3-0.9-0.3c-0.9,0-1.2,2.7-1.2,2.9c0,0.4,0.3,0.6,0.6,0.8
	c0.6,0.3,1.3,0.6,2,0.8c0.8,0.2,1.4,0.4,1.4,1.2c0,0.3-0.1,1.6-0.1,2.5c0,5.2,3,8.1,8.2,8.1c4.5,0,9.4-1.8,9.4-7.1
	c0-2-0.4-4-1.1-5.9c-0.3-0.7-0.4-1.3-0.9-1.3c-0.4,0-2.9,0.4-2.9,1.3c0,0.2,0.1,0.4,0.1,0.6c0.7,1.6,1.1,3.2,1.2,4.9
	c0.1,0.9-0.2,1.7-0.7,2.4c-1.1,1.2-3.4,1.6-4.9,1.6c-3,0-4.5-1.6-4.5-4.5c0-1.5,0-2.3,0.9-2.3c0.2,0,0.4,0,0.5,0.1
	c0.8,0.1,2.4,0.3,3.2,0.3c0.6,0,0.8-0.3,1-0.8c0.3-0.7,0.4-1.5,0.4-2.3c0-0.3-0.1-0.6-1-0.6c-1,0-2,0-3.1-0.1
	c-0.5,0-1.2-0.1-1.2-0.8c0-0.3,0.5-2.4,0.6-2.8c0.1-0.4,0.4-0.8,0.9-0.8c0.1,0,0.2,0,0.3,0.1c1.5,0.3,3.1,0.4,4.6,0.5
	c0.5,0,0.6-0.3,0.7-0.7c0.2-0.7,0.3-1.5,0.4-2.2c0-0.7-0.5-0.6-1.2-0.6c-1.2,0-2.3-0.1-3.5-0.3c-0.5-0.1-0.9-0.2-0.9-0.8
	c0-0.2,0-0.3,0.1-0.5c0.3-0.8,0.5-1.7,0.8-2.5c0.5-1.2,0.7-1.3,1.2-1.5c0.2-0.1,0.3-0.2,0.3-0.4C321.8,3.6,320,3.1,319.5,2.9z
	 M354.1,9.8c0.4,0,0.5,0.3,0.5,0.6c-0.1,2.2-0.5,4.5-1.1,6.6c-0.9,3.5-2.9,7.3-4.6,7.3s-2.2-3.2-2.2-4.4c-0.1-4.2,2.3-8,6.1-9.8
	C353.3,10,353.7,9.8,354.1,9.8z M357.4,5.8c-7.7-0.1-14.1,6.2-14.1,13.9c0,0.1,0,0.3,0,0.4c0,1.7,0.3,3.3,1.1,4.8
	c0.8,1.8,2.6,3.1,4.6,3.2c1.8-0.2,3.5-1.1,4.5-2.6c3.3-3.9,4.5-10,4.8-14.9c0-0.6,0-1.3,0.8-1.3c0.4,0.1,0.9,0.2,1.3,0.3
	c3.4,1.2,5.6,4.5,5.4,8.1c0,4.9-3.5,7.8-8,8.8c-0.3,0.1-0.8,0.1-0.8,0.5c0,0.7,1.4,2.9,2.3,2.9c1.3-0.3,2.5-0.7,3.7-1.4
	c4.1-2.1,6.7-6.4,6.6-11c0-3.1-1.2-6.2-3.4-8.4C363.9,6.9,360.7,5.7,357.4,5.8L357.4,5.8z M392.3,24.5c-0.5,0-2.1,2-2.1,2.5
	c0,0.7,1.1,1.6,1.7,1.9c1.9,1.3,5,1.5,7.3,1.5c1.8,0,3.5-0.2,5.3-0.4c0.4-0.2,0.4-1,0.4-1.7c0-1.4,0-2.1-0.6-2.1
	c-0.1,0-0.2,0-0.3,0.1c-1.6,0.5-3.2,0.7-4.8,0.7c-2.1,0-4.7-0.3-6.2-2C392.8,24.8,392.6,24.5,392.3,24.5z M394.9,16.7
	c0,0.6,0.2,0.7,0.9,0.7c0.4,0,0.9,0,1.3,0c1.8,0,3.7,0.2,5.4,0.8c0.2,0.1,0.5,0.2,0.7,0.2c0.3,0,0.5-0.1,0.6-0.4
	c0.3-0.8,0.5-1.6,0.6-2.4c0-0.3-0.2-0.6-0.5-0.7c-2.2-0.6-4.5-1-6.8-1C395.5,14,394.9,13.8,394.9,16.7z M390.4,2.2
	c-0.3,0-0.3,0.3-0.4,0.9c-0.2,2.1-0.6,4.2-1.3,6.2c-0.3,0.5-0.8,0.5-3,0.5c-1.5,0-2.9-0.1-3.2-0.1c-0.4,0-0.5,0.2-0.5,0.6
	c0,0.8,0.1,1.7,0.3,2.5c0.2,0.6,0.7,0.6,1.4,0.6c1.1,0,2.5-0.2,3-0.2c0.3,0,0.6,0.2,0.6,0.5c-0.1,0.3-0.2,0.6-0.3,0.9
	c-1.3,3.6-3.9,9.5-6,12.6c-0.3,0.3-0.5,0.7-0.6,1.1c0,0.7,2.3,1.8,2.9,1.8c0.5,0,0.8-0.5,1.2-1.3c2.5-4.8,4.6-9.8,6.3-15
	c0.3-1,0.4-1.1,1.4-1.3c1.9-0.3,3.7-0.8,5.6-1.3c0.6-0.2,0.6-0.6,0.6-1.2c0-0.5,0-2.6-0.7-2.6c-0.2,0-0.5,0.1-0.7,0.2
	c-1.3,0.5-2.6,1-3.9,1.3c-0.3,0-0.5-0.2-0.5-0.5l0,0c0-0.2,0.7-2.7,0.8-3c0.2-0.7,0.3-0.9,0.8-1.2c0.1-0.1,0.3-0.2,0.3-0.3
	c0-0.4-1-0.6-1.3-0.7C393,2.9,390.7,2.2,390.4,2.2z M429.1,12.2c0.2,0,0.4,0.1,0.5,0.4v0.1c0,1-1.7,6.6-2.6,6.6
	c-0.3,0-0.5-0.4-0.8-1.1c-0.6-1.2-1-2.4-1.4-3.7C424.8,13.3,428.3,12.2,429.1,12.2z M424.6,22.6c0,0.8-1.9,2-2.9,2
	c-1.2,0-1.3-1.6-1.3-2.5c0-2.2,1.1-4.7,1.6-4.7c0.2,0,0.4,0.3,0.5,0.5c0.6,1.4,1.3,2.8,1.9,4.2C424.5,22.3,424.5,22.4,424.6,22.6
	L424.6,22.6z M430.7,3.8c-0.4,0-0.5,0.3-0.5,0.6c0,0.5,0,1,0,1.5c0,2.6-0.1,2.8-1.2,3c-1.6,0.2-3.1,0.7-4.5,1.5
	c-0.2,0.1-0.4,0.2-0.6,0.2c-0.4,0-0.5-0.2-0.6-0.5c-0.2-0.8-0.5-2.1-0.6-2.9c-0.1-0.4-0.1-1-0.6-1c-0.9,0.2-1.8,0.4-2.7,0.7
	c-0.3,0.1-0.5,0.2-0.5,0.5c0,0.2,0,0.3,0.1,0.5c0.5,1.5,0.9,2.9,1.3,4.4c0.1,0.3,0.2,0.5,0.2,0.8s-0.1,0.6-0.4,0.8
	c-2.1,2.3-3.2,5.3-3.2,8.4c0,2.6,1.1,5.9,4.2,5.9c3,0,5.8-2.3,7.5-4.7c2.2-3.1,3.7-6.6,4.4-10.3c0.1-0.4,0.3-0.8,0.7-0.8
	c3.1,0.5,5.3,3.1,5.4,6.2c0,4.6-4,7.5-8,8.8c-0.5,0.2-1.1,0.3-1.1,0.7c0,0.7,1.4,2.8,2.1,2.8c0.6-0.1,1.2-0.3,1.7-0.6
	c4.9-2.3,8.8-5.8,8.8-11.6c0-4.9-3.2-8.3-7.8-9.5c-0.5-0.1-1.1-0.2-1.1-0.9c0-0.1,0-0.2,0-0.3c0-0.8,0.2-1.5,0.6-2.2
	c0.1-0.2,0.2-0.3,0.2-0.6c0-0.3-0.3-0.5-0.6-0.6C433,4.2,431.9,4,430.7,3.8z M464.9,22.2c-0.6,0-1.8,2.4-1.8,2.9s2.3,3.4,7.8,3.4
	c1.4,0,7.1-0.5,8.1-1c0.4-0.2,0.4-0.9,0.4-1.3c0-1.7-0.1-2.6-0.6-2.6c-0.2,0-0.5,0.1-0.7,0.1c-2.4,0.7-4.9,1.1-7.5,1.1
	c-2,0.2-4-0.7-5.2-2.4C465.3,22.3,465.1,22.2,464.9,22.2L464.9,22.2z M465.7,7.4c-0.5,0-0.7,0.5-0.7,2.1c0,0.4,0,1.1,0.3,1.3
	c0.7,0.5,4.9,0.7,6,0.7c1.9,0,3.8-0.2,5.7-0.5c0.6,0,0.6-0.3,0.6-1c0-0.6-0.1-1.2-0.1-1.8c-0.1-0.4-0.2-0.8-0.7-0.8
	c-0.2,0-0.4,0-0.6,0.1c-1.7,0.4-3.4,0.7-5.2,0.7c-1.5,0-3-0.2-4.5-0.5C466.3,7.5,466,7.5,465.7,7.4L465.7,7.4z M457.5,4.8
	c-0.4,0-0.4,0.4-0.5,0.7c-0.1,0.6-0.3,1.1-0.4,1.7c-1.1,3.7-1.7,7.4-1.7,11.3c-0.1,3.6,0.6,7.2,2.1,10.4c0.4,0.9,0.8,1.7,1.4,1.7
	c0.7,0,2.7-0.8,2.7-1.7c0-0.2,0-0.3-0.1-0.5c0-0.3-0.1-1.1-0.1-1.4c0-1.5,1.4-4.6,1.4-4.9c0-0.4-0.9-1.1-1.2-1.1
	c-0.3,0-0.5,0.4-0.7,0.8c-0.1,0.3-0.6,1.3-0.9,1.3c-0.8,0-0.9-4.1-0.9-4.8c0-3.3,0.7-6.6,1.9-9.7c0.3-0.9,0.5-1.2,1.1-1.5
	c0.3-0.2,0.5-0.2,0.5-0.4c0-0.3-0.4-0.5-0.7-0.6C460.7,6,457.8,4.8,457.5,4.8L457.5,4.8z M46,84.4c-0.4-1-0.9-1.9-1.5-2.7
	c-0.8-1.2-1.5-2.3-2.1-2.3c-0.6,0-1.9,0.7-1.9,1.4c0,0.2,0.1,0.4,0.3,0.6c0.9,1.2,1.8,2.6,2.5,3.9c0.2,0.3,0.3,0.5,0.7,0.5
	C44.6,85.8,46,85.1,46,84.4L46,84.4z M33,92c-0.7-0.5-1.4-1-2.1-1.6c-0.1-0.1-0.1-0.2-0.1-0.3c0-0.3,0.2-0.3,0.4-0.3h4.2
	c1,0,1.5,0,1.5,0.3c0,0.5-1.9,1.7-2.3,1.9c-0.2,0.1-0.5,0.2-0.7,0.2C33.4,92.2,33.2,92.1,33,92L33,92z M37.2,85.7
	c1.1,0,2.3,0,2.9-1.1c0.4-0.7,0.6-1.6,0.7-2.4c0-0.8-1.7-1.2-2.2-1.2c-0.3,0-0.4,0.2-0.5,0.5c-0.4,1.5-0.5,1.7-2,1.7h-3.8
	c-1,0-1.5,0.1-1.5-0.9v-1c0-1,0.1-1.1,0.5-1.4c0.1-0.1,0.3-0.2,0.3-0.4c0-0.4-0.6-0.4-0.9-0.4c-0.5-0.1-2.2-0.2-2.7-0.2
	c-0.3,0-0.5,0-0.5,0.3c0,0.1,0.1,0.6,0.1,0.8c0,0.3-0.1,0.5-0.4,0.5c-0.1,0-0.2,0-0.2,0c-0.7-0.4-1.4-0.7-2.2-0.9
	c-0.2,0-0.3,0.1-0.4,0.3c-0.7,1.4-1.5,2.6-2.5,3.7c-0.2,0.2-0.4,0.4-0.4,0.7c0,0.6,1.6,1.6,2.1,1.6c0.3,0,0.5-0.2,0.6-0.4
	c0.7-0.8,1.3-1.7,1.9-2.7c0.7-1.2,0.7-1.3,1-1.4c0.1,0,0.2,0,0.3-0.1c0.1,0,0.2,0,0.2,0.1v1.2c0,0.4,0,0.8,0,1.3s0.2,1.1,0.6,1.4
	c0.2,0.1,0.3,0.3,0.3,0.5c0,0.1,0,0.2-0.1,0.3c-2.1,2-4.6,3.7-7.2,4.9c-0.6,0.3-1.1,0.5-1.1,0.9c0,0.6,1.4,2,2,2s4-1.9,4.7-2.4
	c0.2-0.1,0.4-0.2,0.6-0.2c0.3,0,0.6,0.2,0.7,0.4c0.6,0.6,1.1,1,1.7,1.6c0.1,0.1,0.2,0.2,0.2,0.4c0,0.2-0.2,0.3-0.4,0.4
	c-2.7,0.8-5.7,1.3-8.7,1.5c-1,0.1-1.5,0-1.5,0.5c0,0.2,0.4,2.3,1.7,2.3c0.6,0,1.2-0.1,1.8-0.1c3.4-0.4,6.7-1.2,9.8-2.4
	c0.2-0.1,0.5-0.2,0.7-0.2c0.3,0,0.6,0.1,0.9,0.2c2.6,1.1,5.4,1.8,8.3,2c1,0.1,3.3,0.4,4.1,0.4c1.1,0,1.6-2,1.6-2.4
	c0-0.5-0.3-0.6-0.7-0.6c-3.3-0.1-6.6-0.5-9.8-1.3c-0.2,0-0.3-0.2-0.3-0.3c0-0.2,0.1-0.3,0.2-0.4c1-0.6,4.5-3.1,4.5-4.4
	c-0.1-0.9-0.9-1.5-1.8-1.5c-0.9,0-1.7,0-2.6,0h-4.9c-0.2,0-0.4-0.1-0.4-0.3c0-0.1,0-0.2,0.1-0.3l0.2-0.2c0.3-0.3,0.6-0.6,0.9-0.6
	c0.2,0,0.4,0,0.5-0.1c0-0.1,0.1-0.1,0.2-0.1L37.2,85.7z M29.5,75.5c-0.2,0-0.5-0.1-0.5-0.4c0-0.1,0-0.2,0-0.3
	c-0.2-0.5-0.4-0.9-0.7-1.3c-0.1-0.1-0.1-0.2-0.1-0.3c0-0.3,0.2-0.4,0.5-0.4l2-0.1c0.3,0,0.5,0.2,0.7,0.4c0.4,0.5,0.7,1.1,1.1,1.6
	c0.1,0.1,0.1,0.2,0.1,0.3c0,0.3-0.3,0.4-0.6,0.4L29.5,75.5z M39.4,71.7c0.2,0,0.4,0.2,0.4,0.4c0,0,0,0,0,0.1s0,0.2,0,0.2
	c-0.4,0.8-0.8,1.6-1.3,2.4c-0.3,0.5-0.8,0.8-1.4,0.7h-0.5c-0.3,0-0.5-0.1-0.5-0.4c0-0.1,0-0.2,0-0.3c-0.2-0.6-0.6-1.2-1-1.7
	C35,73,35,72.9,35,72.7c0-0.3,0.2-0.4,0.5-0.4c1.3-0.2,2.5-0.3,3.8-0.5L39.4,71.7L39.4,71.7z M24.8,75.5c-1.2,0-2.3,0-3.4,0
	c-1,0-1.9,0.1-1.9,1.3c0,0.5,0.1,1.1,0.1,1.6v1.1c0,0.4-0.1,1-0.1,1.4c0,0.8,0.6,0.8,1.8,0.8c1.2,0,1.8,0.1,1.8-0.8
	c0-0.4-0.1-1-0.1-1.4v-0.2c0-0.6,0.3-0.9,1-0.9h9.2c0.1,0,0.2,0,0.2,0.2c0,0.1,0,0.2-0.1,0.2c-0.2,0.2-0.6,0.5-0.6,0.8
	c0,0.2,0.1,0.3,0.2,0.5c0.5,0.6,0.9,1.3,1.3,2c0.1,0.2,0.4,0.4,0.6,0.4c0.5,0,2-0.7,2-1.4c-0.3-0.7-0.6-1.4-1.1-2
	c-0.1-0.1-0.1-0.2-0.1-0.3c0-0.3,0.2-0.4,0.5-0.4h7.6c0.7,0,1,0.3,1,0.9v0.2c0,0.5-0.1,1-0.1,1.5c0,0.8,0.7,0.7,1.9,0.7
	c1.3,0,1.8,0.1,1.8-0.8c0-0.5-0.1-1-0.1-1.4v-1.1c0-0.5,0.1-1.1,0.1-1.6c0-1.1-0.9-1.3-1.8-1.3c-1.2,0-2.4,0.1-3.7,0
	c-0.3,0-0.6-0.1-0.6-0.4c0-0.1,0-0.2,0.1-0.3c0.3-0.6,0.6-1.1,0.9-1.6c0.1-0.2,0.2-0.3,0.6-0.3c0.2,0,0.4-0.1,0.4-0.3
	c0-0.3-0.2-0.3-1.1-0.6c-0.1-0.1-0.3-0.1-0.5-0.2c-0.1,0-0.2-0.2-0.2-0.3c0-0.1,0.1-0.2,0.2-0.2c0.6-0.2,1.3-0.3,1.9-0.4
	c0.2,0,0.4,0.1,0.6,0.1c0.1,0,0.3,0.1,0.4,0.1c0.2,0,0.3-0.1,0.3-0.3l0,0c0-0.4-0.7-1.1-1-1.3l-0.4-0.4c-0.6-0.6-0.9-1-1.3-1
	c-0.2,0-0.3,0-0.5,0.1c-4.7,1.6-13.5,2.1-18.5,2.1h-1.9c-0.5,0-1.2-0.1-1.2,0.6s0.2,1.3,0.5,1.9c0.3,0.2,0.7,0.2,1.3,0.2h0.4
	c1,0,1.6,1,2.1,1.8c0.1,0.1,0.1,0.2,0.1,0.3c0,0.3-0.3,0.4-0.5,0.4L24.8,75.5z M59.9,92.7c0,1.5-0.1,3-0.1,4.5
	c0,0.9,0.3,1.2,1.7,1.2c1.3,0,1.7-0.2,1.7-1.1c0-1.5-0.1-3.1-0.1-4.6V71c0-1,0-1.6,0.4-1.9c0.2-0.2,0.5-0.3,0.5-0.6
	c0-0.4-0.6-0.5-0.9-0.5c-0.6-0.1-2.1-0.2-2.6-0.2s-0.8,0.1-0.8,0.6c0,0.2,0.1,2.4,0.1,4L59.9,92.7L59.9,92.7z M57,74
	c-0.5,0-0.5,0.3-0.5,1.2c0,0.3,0,0.7-0.1,1.2c-0.2,2.1-0.7,4.1-1.3,6.1c0,0.1-0.1,0.3-0.1,0.4c0,0.7,1.2,1.1,1.8,1.1
	s0.9-0.3,1.4-3.1c0.4-1.8,0.5-3.1,0.7-4.8c0-0.3,0.2-0.6,0.5-0.7c0.1-0.1,0.3-0.2,0.3-0.4c0-0.4-0.6-0.5-1.3-0.6
	C58,74.1,57.5,74,57,74z M72.2,89.3c0-0.3,0.2-0.6,0.5-0.6h0.1H79c0.3,0,0.6,0.2,0.6,0.5v0.1v0.2c0,0.3-0.2,0.6-0.5,0.7H79h-6.2
	c-0.3,0-0.6-0.2-0.6-0.6v-0.1V89.3z M72.8,86.5c-0.3,0-0.6-0.2-0.6-0.6v-0.1v-0.2c0-0.3,0.2-0.6,0.5-0.6h0.1H79
	c0.3,0,0.6,0.2,0.6,0.5v0.1v0.2c0,0.3-0.2,0.6-0.5,0.7H79H72.8z M79.7,93.8c0,1.2-0.1,1.3-1.5,1.3c-0.5,0-1-0.1-1.5-0.1
	s-0.6,0.5-0.6,1.1c0,1.9,0.7,2.1,2.4,2.1c3.7,0,4.7-0.5,4.7-3.5c0-0.8-0.1-1.7-0.1-2.5V87c0-1,0.1-1.9,0.1-2.8
	c0-1.3-0.3-1.8-1.7-1.8c-0.9,0-1.7,0-2.6,0H73c-0.9,0-1.7,0-2.5,0c-1.4,0-1.7,0.5-1.7,1.8c0,1,0.1,1.9,0.1,2.8v5.9
	c0,1.4-0.1,2.8-0.1,4.2c0,1.1,0.4,1.1,1.8,1.1c1.4,0,1.7,0,1.7-1.3s-0.1-2.4-0.1-3.6c0-0.7,0.3-1,1-1h5.6c0.6,0,0.9,0.3,0.9,1
	C79.7,93.3,79.7,93.8,79.7,93.8z M71.1,70.6c-1.1,0-2.2,0-3.3,0c-0.7,0-0.7,0.3-0.7,1.3s0,1.3,0.7,1.3c1.1,0,2.2-0.1,3.3-0.1h2.4
	c0.5,0,0.6,0.2,0.6,0.6V74c0,0.4-0.2,0.6-0.6,0.6h-1.4c-1.1,0-2.2-0.1-3.4-0.1c-0.7,0-0.7,0.2-0.7,1.2c0,0.9,0,1.2,0.7,1.2
	c1.2,0,2.3-0.1,3.4-0.1h1.4c0.5,0,0.6,0.2,0.6,0.7v0.3c0,0.5-0.2,0.6-0.6,0.6h-2.6c-3.2,0-3.3,0.1-3.4-0.6c-0.3-1-0.6-2-1-3
	c-0.5-1.5-0.7-2.1-1.3-2.1c-0.3,0-1.6,0.3-1.6,0.9c0,0.2,0.1,0.4,0.2,0.5c0.5,1.3,0.9,2.5,1.2,3.8c0.1,0.5,0.2,0.9,0.9,0.8
	c0.3,0,0.5,0.1,0.5,0.5c0,1.3,0,1.5,0.7,1.5c1.3,0,2.5-0.1,3.7-0.1h10.4c1.3,0,2.5,0.1,3.7,0.1c0.7,0,0.7-0.3,0.7-1.3s0-1.3-0.7-1.3
	c-1.3,0-2.5,0.1-3.7,0.1h-3.1c-0.4,0-0.6-0.2-0.6-0.6v-0.4c0-0.4,0.2-0.6,0.6-0.6h1.7c1.1,0,2.2,0.1,3.4,0.1c0.7,0,0.7-0.3,0.7-1.2
	c0-0.9,0-1.2-0.7-1.2c-1.2,0-2.3,0.1-3.4,0.1H78c-0.4,0-0.6-0.2-0.6-0.6v-0.3c0-0.5,0.2-0.6,0.6-0.6h2.7c1.1,0,2.2,0.1,3.4,0.1
	c0.7,0,0.7-0.3,0.7-1.3s0-1.3-0.7-1.3c-1.1,0-2.2,0-3.3,0h-2.4c-0.6,0-1-0.2-0.9-0.9c0-0.3,0.2-0.6,0.4-0.7c0.2-0.1,0.4-0.2,0.4-0.5
	S78,68,77.7,67.9c-0.4-0.1-2.8-0.2-3.2-0.2c-0.3,0-0.6,0.1-0.6,0.5c0,0.1,0,0.2,0,0.2l0.1,1.1c0,0.6-0.3,0.9-1,0.9L71.1,70.6z
	 M96.2,87.5c0.2,1.2,0.6,2.3,1.3,3.3c2.2,3.1,6,3.5,9.6,3.5c2,0,8.4-0.4,10.2-1c0.6-0.2,0.8-0.6,0.8-1.3c0-2.2-0.2-2.8-0.7-2.8
	c-0.2,0-0.3,0.1-0.5,0.1c-3.3,0.8-6.7,1.2-10.1,1.2c-3.2,0-6.1-0.5-6.8-4.1c-0.1-0.3-0.2-0.6-0.6-0.6C99.3,85.9,96.2,86.7,96.2,87.5
	z M99.6,75.8c0,0.3,0.2,0.6,0.5,0.7c1.7,0.7,5.9,0.8,7.8,0.8c2.1,0,4.1-0.1,6.2-0.4c0.8-0.1,1-0.2,1-1c0-1.4,0-2.9-0.9-2.9
	c-0.1,0-0.3,0-0.4,0.1c-2,0.4-4.1,0.7-6.2,0.7c-1.9,0-3.9-0.2-5.8-0.7c-0.3-0.1-0.7-0.2-1-0.2c-0.6,0-0.7,0.6-0.8,1.2
	C99.7,74.6,99.6,75.2,99.6,75.8L99.6,75.8z M143.3,78.2c0.2,0,0.4,0.1,0.5,0.4v0.1c0,1-1.7,6.6-2.6,6.6c-0.3,0-0.5-0.4-0.8-1.1
	c-0.6-1.2-1-2.4-1.4-3.7C139,79.3,142.5,78.2,143.3,78.2L143.3,78.2z M138.7,88.6c0,0.8-1.9,2-2.9,2c-1.2,0-1.3-1.6-1.3-2.5
	c0-2.2,1.1-4.7,1.6-4.7c0.2,0,0.4,0.3,0.5,0.5c0.6,1.4,1.3,2.8,1.9,4.2C138.7,88.3,138.7,88.4,138.7,88.6L138.7,88.6z M144.9,69.8
	c-0.4,0-0.5,0.3-0.5,0.6c0,0.5,0,1,0,1.5c0,2.6-0.1,2.8-1.2,3c-1.6,0.2-3.1,0.7-4.5,1.5c-0.2,0.1-0.4,0.2-0.6,0.2
	c-0.4,0-0.5-0.2-0.6-0.5c-0.2-0.8-0.5-2.1-0.6-2.9c-0.1-0.4-0.1-1-0.6-1c-0.9,0.2-1.8,0.4-2.7,0.7c-0.3,0.1-0.5,0.2-0.5,0.5
	c0,0.2,0,0.3,0.1,0.5c0.5,1.5,0.9,2.9,1.3,4.4c0.1,0.3,0.2,0.5,0.2,0.8s-0.1,0.6-0.4,0.8c-2.1,2.3-3.2,5.3-3.2,8.4
	c0,2.6,1.1,5.9,4.2,5.9c3,0,5.8-2.3,7.5-4.7c2.2-3.1,3.7-6.6,4.4-10.3c0.1-0.4,0.3-0.8,0.7-0.8c3.1,0.5,5.3,3.1,5.4,6.2
	c0,4.6-4,7.5-8,8.8c-0.5,0.2-1.1,0.3-1.1,0.7c0,0.7,1.4,2.8,2.1,2.8c0.6-0.1,1.2-0.3,1.7-0.6c4.9-2.3,8.8-5.8,8.8-11.6
	c0-4.9-3.2-8.3-7.8-9.5c-0.5-0.1-1.1-0.2-1.1-0.9c0-0.1,0-0.2,0-0.3c0-0.8,0.2-1.5,0.6-2.2c0.1-0.2,0.2-0.3,0.2-0.6
	c0-0.3-0.3-0.5-0.6-0.6C147.2,70.2,146.1,70,144.9,69.8z M167.4,75c0,0.3,0.3,3.6,1.1,3.6c0.2,0,0.3,0,0.5-0.1
	c2.5-0.6,5-1.1,7.5-1.4c0.4-0.1,1.9-0.3,2.2-0.3c0.2,0,0.5,0.1,0.5,0.4c0,0.2-0.4,0.6-0.6,0.8c-2.4,2.7-3.7,6.2-3.7,9.8
	c0,6.6,5,8.5,10.7,8.5c0.4,0,0.7,0,1-0.3c0.4-1,0.6-2,0.6-3c0-0.5-0.3-0.6-0.8-0.6c-0.3,0-1.1,0-1.7,0c-3.4,0-6-1-6-4.9
	c0-2.1,0.6-4.2,1.6-6c1.2-2.4,3.3-4.2,5.8-5.1c1.8-0.6,3.7-0.8,5.6-0.7c0.8,0,1.5,0,1.5-0.7c0-0.8-0.1-1.7-0.3-2.5
	c-0.1-0.4-0.2-0.8-0.7-0.8c-0.1,0-0.3,0-0.4,0c-2.6,0.4-5.2,0.7-7.7,1.1c-5,0.6-9.9,1.1-14.9,1.4C167.9,74.2,167.4,74.1,167.4,75z
	 M205.3,78.1c-1.4,0.4-1.8,0.6-1.8,1c0,1,1.5,3.4,2.6,3.4c0.3,0,0.6-0.1,0.9-0.3c4.1-2.1,9.4-4.7,14.1-4.7c2.9,0,5.2,1.7,5.2,4.7
	c0,5.8-7.4,8.4-12.2,8.7c-0.4,0-1.2,0.1-1.2,0.7c0.1,0.8,0.4,1.6,0.8,2.3c0.3,0.5,0.5,0.8,1.1,0.8c2.3-0.3,4.5-0.9,6.6-1.7
	c4.6-1.9,8.7-5.5,8.7-10.8c0-2.2-0.8-4.4-2.3-6c-1.8-1.7-4.2-2.6-6.7-2.5c-4.3,0-8.6,1.7-12.5,3.1C207.2,77.6,206.1,77.9,205.3,78.1
	L205.3,78.1z M259.2,71.2c-0.4-0.4-1.4-1.5-1.8-1.5c-0.2,0-0.4,0.2-0.5,0.4c-1.9,2.2-4.1,4.2-6.4,6c-1.6,1.2-3,2.5-4.4,4
	c-0.5,0.7-0.8,1.5-0.7,2.3c0,1.4,0.6,2.7,1.6,3.6c1.7,2,3.5,3.8,5.4,5.6c1.4,1.4,2.8,2.9,4.1,4.4c0.2,0.3,0.7,0.9,1.1,0.9
	c0.8,0,2.9-1.9,2.9-2.8c0-0.7-2.3-2.6-2.9-3.1c-2.1-1.9-4.2-3.8-6.2-5.8c-0.6-0.6-1.7-1.8-1.7-2.7c0-0.6,0.7-1.3,1.4-1.9
	c1.8-1.7,3.7-3.3,5.6-4.8c0.9-0.7,1.7-1.3,2.6-1.9c0.3-0.2,0.6-0.4,0.9-0.4c0.2,0,0.7,0,0.7-0.3C260.8,72.7,259.5,71.5,259.2,71.2z
	 M279.9,82.6c0,0.7,1.2,2.8,2.1,2.8c0.3,0,0.7-0.1,1-0.3c2.9-1.6,7.3-3.4,10.6-3.4c2.1,0,3.8,1.2,3.8,3.4c-0.1,2.1-1.4,4-3.3,4.9
	c-1.8,0.9-3.8,1.5-5.8,1.7c-0.4,0-1.1,0.1-1.1,0.7c0,0.3,0.5,2.6,1.6,2.6c1.8-0.2,3.6-0.7,5.2-1.4c3.6-1.5,6.7-4.1,6.7-8.3
	c0-4.1-3.1-6.7-7.1-6.7c-3.2,0-6.8,1.4-9.8,2.4c-1,0.4-2.1,0.7-3.1,1C280.3,82,279.9,82.2,279.9,82.6z M314.3,75
	c0,0.3,0.3,3.6,1.1,3.6c0.2,0,0.3,0,0.5-0.1c2.5-0.6,5-1.1,7.5-1.4c0.4-0.1,1.9-0.3,2.2-0.3c0.2,0,0.5,0.1,0.5,0.4
	c0,0.2-0.4,0.6-0.6,0.8c-2.4,2.7-3.7,6.2-3.7,9.8c0,6.6,5,8.5,10.7,8.5c0.4,0,0.7,0,1-0.3c0.4-1,0.6-2,0.6-3c0-0.5-0.3-0.6-0.8-0.6
	c-0.3,0-1.1,0-1.7,0c-3.4,0-6-1-6-4.9c0-2.1,0.6-4.2,1.6-6c1.2-2.4,3.3-4.2,5.8-5.1c1.8-0.6,3.7-0.8,5.6-0.7c0.8,0,1.5,0,1.5-0.7
	c0-0.8-0.1-1.7-0.3-2.5c-0.1-0.4-0.2-0.8-0.7-0.8c-0.1,0-0.3,0-0.4,0c-2.5,0.4-5.2,0.7-7.7,1.1c-5,0.6-9.9,1.1-14.9,1.4
	C314.8,74.2,314.3,74.1,314.3,75z M365.3,92.5c0,0.5-0.3,1.2-0.9,1.2c-1,0-2.7-0.6-2.7-1.8c0-0.8,0.7-1.4,1.5-1.4l0,0
	C364.3,90.5,365.2,91.4,365.3,92.5z M368.4,70.5c-0.4,0.1-0.9,0.2-1.3,0.4c-2.8,0.8-5.7,1.2-8.6,1.3h-0.8c-1,0-1.1,0.1-1.1,0.8
	c0,0.6,0.1,3.1,0.8,3.1c0.5,0,5.3-1,6.2-1.2c0.3-0.1,0.5-0.1,0.8-0.1s0.6,0.1,0.6,0.4s-0.6,1-0.9,1.2c-3.3,3.8-6.9,7.3-10.6,10.7
	c-0.3,0.2-0.8,0.6-0.8,1c0,0.5,1.7,2.4,2.4,2.4c0.2,0,0.3-0.1,0.4-0.2c1.2-1.4,2.4-2.8,3.8-4.1c2-2.1,4.7-3.3,7.6-3.3
	c3,0,5.7,1.4,5.7,4.7c0,2.5-1.7,4.6-4.1,5.2c-0.3,0-0.4-0.2-0.4-0.4c0.1-0.8-0.2-1.5-0.6-2.2c-1-1.5-2.7-2.4-4.5-2.4
	c-2.3,0-4.3,1.8-4.4,4.1c0,3.5,4,4.6,6.8,4.6c5.5,0,10.8-3.1,10.8-9.1c0.1-2.8-1.5-5.4-4-6.6c-1.3-0.6-2.7-1-4.2-1
	c-0.5,0-0.9,0-1.4,0.1c-0.1,0-0.3,0.1-0.4,0.1c-0.3,0-0.6-0.2-0.6-0.4c0-0.2,0.2-0.4,0.3-0.6c1.5-1.7,3.1-3.2,4.9-4.6
	c0.4-0.3,0.7-0.5,0.7-0.7C371.8,73.1,369.8,70.5,368.4,70.5z M410.6,73.1c-0.6,0-2.6,1.2-2.6,1.8c0,0.2,0.1,0.4,0.3,0.6
	c2,2.1,3.5,4.6,4.6,7.3c0.2,0.3,0.3,0.8,0.8,0.8c0.7,0,2.8-1.3,2.8-2C416.5,80.7,411.8,73.1,410.6,73.1L410.6,73.1z M398.2,69.8
	c-0.4,0-0.4,0.4-0.4,0.7c0,0.4,0,0.8,0,1.2c0,1.5-0.1,2.9-0.3,4.4c-0.1,0.7-0.4,0.9-1.1,1c-1.9,0.5-3.7,0.8-5.6,1.1
	c-0.4,0-1,0-1,0.5c0,0.2,0.6,3.5,1.4,3.5c0.2,0,0.5-0.1,0.7-0.2c1.3-0.5,2.6-0.9,3.9-1.2c0.2,0,0.4,0.2,0.4,0.4c0,0,0,0,0,0.1
	c-0.2,0.9-0.5,1.7-0.9,2.6c-1.4,3.5-3.4,6.8-6.1,9.5c-0.3,0.2-0.4,0.5-0.5,0.8c0,0.8,2.2,2.1,2.8,2.1c0.2,0,0.5-0.2,0.6-0.3
	c1.3-1.5,2.4-3.2,3.4-4.9c1.9-3.2,3.3-6.6,4.3-10.1c0.2-1,0.6-1.2,2.5-1.2c2,0,2.1,1.4,2.1,3.1c0,2.6-0.5,5.2-1.5,7.7
	c-0.9,1.7-1.7,2.1-3.5,2.1c-0.7,0-1.3-0.1-1.6-0.1s-0.4,0.2-0.4,0.6c0.1,0.8,0.3,1.6,0.6,2.4c0.3,0.6,0.9,0.9,1.6,0.8
	c2.7,0.1,5.2-1.3,6.4-3.7c1.5-2.7,2-7.3,2-10.4c0-1.9-0.4-3.8-2.1-4.9c-1.2-0.6-2.5-0.9-3.9-0.8c-0.1,0-0.3,0-0.4,0
	c-0.4,0-0.7-0.2-0.7-0.6v-0.1c0-0.1,0-0.3,0.1-0.4c0.1-0.6,0.2-1.1,0.2-1.5c0.2-1.2,0.3-1.7,0.9-2.2c0.1-0.1,0.3-0.2,0.3-0.4
	c0-0.4-0.6-0.5-0.8-0.5C401.2,70.4,398.6,69.8,398.2,69.8L398.2,69.8z M431.6,75.2c-0.5,0-0.6,0.5-0.6,1.5c0,0.2,0,0.5,0,0.7
	c-0.1,2.5-0.4,5-0.8,7.4c-0.2,1.1-0.5,2.2-0.8,3.3c-0.2,0.4-0.3,0.8-0.3,1.2c0,1,2.3,1.3,2.6,1.3c0.5,0,0.7-0.4,1-0.7
	c2.1-2.7,5.7-5.7,9.3-5.7c2.2,0,4.1,1.3,4.1,3.6c0,2.9-2.5,3.9-4.9,4.6c-1.5,0.4-3,0.6-4.5,0.7c-0.4,0-0.9,0.1-0.9,0.6
	c0.1,0.8,0.3,1.5,0.6,2.2c0.3,0.6,0.5,1,1.3,1c1.5-0.2,3-0.5,4.4-0.9c4.1-1.2,7.7-3.3,7.7-8.1c0-4.3-3.2-7.1-7.4-7.1
	c-3.2,0-5.3,1.4-7.8,3.1c-0.1,0.1-0.3,0.2-0.4,0.2c-0.2,0-0.3-0.2-0.3-0.4c0-0.2,0.1-0.5,0.1-0.7c0.3-1.6,0.5-3.2,0.8-4.7
	c0.1-0.7,0.2-1,0.7-1.3c0.1-0.1,0.3-0.2,0.3-0.4c0-0.3-0.4-0.4-0.6-0.5C433.9,75.8,432.8,75.5,431.6,75.2L431.6,75.2z M433.8,71.3
	c0,0.4,0.4,0.5,0.8,0.7c1.5,0.8,2.9,1.8,4.3,2.9c0.3,0.2,0.7,0.7,1.1,0.7c0.7,0,2.1-2.1,2.1-2.7s-2-1.7-2.5-2
	c-0.6-0.4-3.4-2.1-3.9-2.1C434.9,68.8,433.8,70.9,433.8,71.3L433.8,71.3z M462,75c0.1,0.8,0.2,1.6,0.4,2.4c0.1,0.4,0.3,1.1,0.7,1.1
	c0.2,0,0.3,0,0.5-0.1c2.2-0.6,5.2-1.1,7.5-1.4c0.3,0,1.9-0.3,2.1-0.3s0.5,0.1,0.5,0.4c0,0.2-0.2,0.4-0.6,0.8
	c-2.4,2.7-3.7,6.2-3.7,9.8c0,6.6,5,8.5,10.7,8.5c0.6,0,0.9-0.1,1.1-0.6c0.3-0.9,0.5-1.8,0.5-2.8c0-0.5-0.3-0.6-0.8-0.6
	c-0.4,0-1.1,0-1.7,0c-3.5,0-6-1-6-4.9c0-2.1,0.6-4.2,1.6-6c1.2-2.4,3.3-4.2,5.8-5.1c1.8-0.6,3.7-0.8,5.6-0.7c0.8,0,1.5,0,1.5-0.7
	c0-0.8-0.1-1.7-0.3-2.5c-0.1-0.4-0.1-0.8-0.6-0.8c-0.1,0-0.3,0-0.4,0c-2.6,0.4-5.1,0.7-7.7,1.1c-4.9,0.6-9.9,1.1-14.9,1.4
	C462.5,74.2,462,74.1,462,75L462,75z M487.7,76.9c-0.4,0-1.7,0.9-1.7,1.3c0,0.2,0.1,0.3,0.2,0.4c0.8,0.9,1.5,1.8,2.2,2.8
	c0.1,0.2,0.3,0.4,0.5,0.4c0.4,0,1.7-1,1.7-1.4C489.9,79.2,488.9,77.9,487.7,76.9L487.7,76.9z M483.6,78.8c-0.4,0-1.7,0.8-1.7,1.3
	c0,0.2,0.2,0.4,0.3,0.5c0.7,0.9,1.5,1.9,2.2,2.9c0.1,0.2,0.2,0.4,0.5,0.4c0.4,0,1.7-0.9,1.7-1.4C485.8,81,484.8,79.8,483.6,78.8
	L483.6,78.8z M509,69.2c-0.5,0-0.5,0.7-0.6,1.2c-0.1,1.5-0.4,2.9-0.7,4.3c-0.3,0.7-0.7,0.8-3.1,0.8c-1.4,0-3.4-0.1-3.8-0.1
	c-0.2,0-0.7,0-0.7,0.8s0.2,1.5,0.4,2.2c0.1,0.4,0.5,0.7,0.9,0.7c0.7,0,3.3-0.3,4.1-0.3c0.2,0,0.5,0,0.7,0c0.3,0,0.5,0.2,0.5,0.4v0.1
	c0,0.3-0.1,0.6-0.2,0.8c-0.5,1.9-1.1,3.8-1.9,5.6c-0.2,0.5-0.4,1-0.5,1.5c0,1,1.9,1.9,2.7,1.9c0.4,0,0.7-0.4,1-0.7
	c2-2.5,5-4.1,8.2-4.2c1.8,0,3.3,1.4,3.4,3.2c0,0.1,0,0.2,0,0.3c0,4.5-5.4,5.5-8.9,5.5c-1.3,0-2.3-0.2-2.8-0.2
	c-0.4,0-0.7,0.3-0.7,0.6c0,0,0,0,0,0.1c0.1,0.8,0.2,1.5,0.4,2.2s0.4,0.9,1.5,0.9c2.4,0,4.8-0.4,7.1-1c3.9-1.1,6.9-3.7,6.9-8
	c0-4.2-2.7-7-6.9-7c-2.1,0-4.2,0.7-6,1.8c-0.1,0.1-0.2,0.1-0.4,0.1s-0.3-0.1-0.3-0.3c0-0.2,0-0.4,0.1-0.6c0.2-0.7,0.4-1.4,0.5-1.8
	c0.4-1.6,0.4-1.8,1.6-2c1.9-0.2,5.9-0.8,7.8-1.2c0.8-0.2,1.2-0.3,1.2-0.8c0-0.7-0.1-1.4-0.3-2.1c-0.1-0.5-0.2-1-0.6-1
	c-0.3,0-0.6,0.1-0.9,0.2c-2.1,0.7-4.3,1.2-6.6,1.5c-0.3,0-0.5-0.2-0.6-0.5l0,0c0-0.3,0.1-0.6,0.2-0.8c0.1-0.3,0.1-0.5,0.2-0.7
	c0.1-0.5,0.3-1,0.7-1.4c0.2-0.1,0.3-0.3,0.3-0.5C512.9,70.2,509.4,69.2,509,69.2L509,69.2z M553.3,81.7c0.7,0,3,1.1,3,4.2
	s-2.1,4.7-3.4,4.7c-0.3,0-0.5-0.2-0.5-0.5l0,0c0-0.2,0.1-0.3,0.1-0.5c0.3-1.5,0.4-3.1,0.4-4.7c0-0.9-0.1-2.5-0.1-2.8
	c0-0.2,0.1-0.4,0.3-0.5C553.2,81.7,553.3,81.7,553.3,81.7z M540.6,78.2c-0.3,0-0.4,0.3-0.4,0.5c-0.1,0.4-0.1,0.8-0.2,1.2
	c-0.4,2.1-0.6,4.2-0.6,6.4c0,2,0.2,4,0.5,5.9c0.2,1,0.4,1.7,1,1.7c0.4,0,2.2-0.3,2.2-1.1c0-0.2,0-0.3-0.1-0.5
	c-0.1-0.5-0.2-1-0.2-1.6c0.2-3.1,1.7-5.9,4.1-7.8c0.7-0.5,1.5-0.9,2.3-1.2c0.5,0,0.7,0.6,0.7,2.9c0,1.6-0.2,3.2-0.5,4.8
	c-0.1,0.2-0.2,0.3-0.4,0.3c-0.4,0-1.7-0.9-1.8-3.5c0-0.3,0-0.7-0.6-0.7c-0.3,0-1.8,0.1-1.8,1.3c0,2.2,1.1,4.2,2.8,5.5
	c0.3,0.2,0.6,0.3,0.6,0.7c-0.3,0.8-0.7,1.5-1.3,2.1c-0.2,0.1-0.3,0.3-0.3,0.5c0,0.5,1.6,1.7,2,1.7c0.9,0,2.1-2.3,2.4-3.1
	c0.2-0.5,0.4-0.8,1.1-0.8c4.3,0,7.1-3.7,7.1-7.8c0.2-3-1.7-5.8-4.6-6.8c-0.5-0.2-1-0.3-1.6-0.4c-0.4,0-0.8-0.4-0.9-0.8
	c-0.1-0.4-0.2-0.8-0.2-1.3c0-0.2,0-0.3,0.1-0.5c0.1-0.1,0.2-0.3,0.2-0.5c0-0.4-0.4-0.6-2.8-0.6c-0.3,0-1,0-1,0.5
	c0,0.2,0.1,0.4,0.1,0.6c0.2,0.7,0.4,1.4,0.5,2.1c0,0.6-0.4,0.7-0.7,0.8c-1,0.3-1.9,0.8-2.8,1.4c-1.1,0.9-2.1,2-2.9,3.3
	c-0.1,0.1-0.2,0.3-0.3,0.3c-0.2,0-0.2-0.2-0.2-0.4c0.1-1,0.2-2,0.4-2.9c0.1-0.3,0.3-0.6,0.5-0.7s0.3-0.2,0.3-0.5
	c0-0.4-0.4-0.5-1.1-0.7l-0.5-0.2C541.6,78.4,541.1,78.3,540.6,78.2L540.6,78.2z M575.9,89.5c1.7,0,3,1.3,3,3c0,0,0,0,0,0.1
	c0,1.7-1.4,3-3,3s-3-1.4-3-3S574.2,89.5,575.9,89.5z M575.9,87.8c-2.6,0-4.7,2.1-4.7,4.7s2.1,4.7,4.7,4.7c2.6,0,4.7-2.1,4.7-4.7
	C580.6,90,578.5,87.8,575.9,87.8L575.9,87.8z"/>
</svg>
