<?xml version="1.0" encoding="utf-8"?>
<!-- Generator: Adobe Illustrator 24.2.0, SVG Export Plug-In . SVG Version: 6.00 Build 0)  -->
<svg version="1.1" id="レイヤー_1" xmlns="http://www.w3.org/2000/svg" xmlns:xlink="http://www.w3.org/1999/xlink" x="0px"
	 y="0px" viewBox="0 0 652 100" style="enable-background:new 0 0 652 100;" xml:space="preserve">
<path id="パス_731" d="M180.4,6.3c0.1-0.2,0.3-0.3,0.5-0.3c0.2,0,0.4,0.1,0.6,0.3c2.3,3,5,5.6,8.1,7.8c0.8,0.5,4.3,2.9,5.1,2.9
	c0.8,0,1.8-2,1.8-2.7c0-0.3-0.4-0.5-0.7-0.7c-4.9-2.3-9.2-5.8-12.4-10.1c0,0,0-0.1,0-0.1c0-0.1,0.1-0.2,0.2-0.2
	c0.2-0.1,0.4-0.2,0.4-0.5c0-0.5-0.7-0.5-1.3-0.7c-0.5-0.1-2.2-0.5-2.6-0.5c-0.3,0-0.4,0.2-0.5,0.5c-2.7,4.8-7.5,8.9-12.3,11.6
	c-0.7,0.4-1.3,0.6-1.3,1.1c0,0.7,1.2,2.4,2,2.4c0.6,0,2.7-1.5,3.2-1.9C174.6,12.6,177.8,9.6,180.4,6.3z M179.2,20c0,0.7-0.3,1-0.9,1
	H176c-1.3,0-2.7-0.1-4-0.1c-0.9,0-0.8,0.4-0.8,1.6s0,1.7,0.8,1.7c1.3,0,2.7-0.1,4-0.1h2.3c0.6,0,0.9,0.3,0.9,1v1.9
	c0,0.7-0.3,1-0.9,1h-6.8c-1.4,0-2.8-0.1-4.2-0.1c-0.8,0-0.8,0.5-0.8,1.7c0,1.3,0,1.7,0.8,1.7c1.4,0,2.8-0.1,4.2-0.1h19
	c1.4,0,2.8,0.1,4.2,0.1c0.8,0,0.8-0.4,0.8-1.7c0-1.3,0-1.7-0.8-1.7c-1.4,0-2.8,0.1-4.2,0.1h-6.7c-0.7,0-1-0.3-1-1V25
	c0-0.6,0.3-1,1-1h2.2c1.3,0,2.7,0.1,4,0.1c0.9,0,0.9-0.4,0.9-1.7c0-1.2,0-1.6-0.9-1.6c-1.3,0-2.7,0.1-4,0.1h-2.2c-0.7,0-1-0.3-1-1
	v-1.7c0-0.7,0.3-1,1-1h1.3c1.2,0,2.4,0.1,3.6,0.1c0.9,0,0.9-0.4,0.9-1.7c0-1.2,0-1.6-0.9-1.6c-1.2,0-2.4,0.1-3.6,0.1h-8.1
	c-1.2,0-2.4-0.1-3.7-0.1c-0.9,0-0.8,0.5-0.8,1.6c0,1.3,0,1.7,0.9,1.7c1.2,0,2.4-0.1,3.6-0.1h1.2c0.6,0,0.9,0.3,0.9,1L179.2,20z
	 M228.1,26.6c0,0.5-0.4,0.9-0.8,1c0,0,0,0-0.1,0h-18.8c-0.5,0-0.9-0.4-1-1V7.2c0-0.5,0.4-0.9,1-1h18.8c0.5,0,0.9,0.4,0.9,0.9
	c0,0,0,0,0,0.1V26.6z M227.3,30.7c0.4-0.1,0.7,0.2,0.8,0.6c0,0.1,0,0.1,0,0.2v0.3c0,0.9,0.4,0.9,1.8,0.9c1.4,0,1.9,0,1.9-0.9
	c0-1.5-0.1-2.9-0.1-4.4V8.1c0-1.2,0.1-2.2,0.1-2.9c0-1.5-0.3-2.1-1.9-2.1c-1.1,0-2.2,0.1-3.3,0.1h-17.3c-1.1,0-2.2-0.1-3.3-0.1
	c-1.3,0-1.9,0.4-1.9,1.8c0,1.1,0.1,2.1,0.1,3.2v19.3c0,1.4-0.1,2.9-0.1,4.3c0,0.9,0.4,1,1.8,1c1.5,0,1.8,0,1.8-1v-0.3
	c0-0.5,0.3-0.7,0.8-0.7H227.3z M219.3,18.6c0-0.7,0.3-1,1-1h0.7c1.1,0,2.1,0.1,3.2,0.1c0.8,0,0.8-0.5,0.8-1.5s0-1.4-0.8-1.4
	c-1.1,0-2.1,0.1-3.2,0.1h-0.7c-0.6,0-1-0.3-1-1v-1.5c0-0.7,0.3-1,1-1h1.5c1.2,0,2.4,0.1,3.6,0.1c0.8,0,0.7-0.4,0.7-1.5
	c0-1.1,0-1.5-0.7-1.5c-1.2,0-2.4,0.1-3.6,0.1H214c-1.2,0-2.4-0.1-3.6-0.1c-0.8,0-0.7,0.4-0.7,1.5c0,1,0,1.5,0.7,1.5
	c1.2,0,2.4-0.1,3.6-0.1h1c0.6,0,1,0.3,1,1v1.5c0,0.7-0.3,1-1,1h-0.2c-1.1,0-2.1-0.1-3.2-0.1c-0.8,0-0.8,0.4-0.8,1.4s0,1.5,0.8,1.5
	c1.1,0,2.1-0.1,3.2-0.1h0.2c0.6,0,1,0.3,1,1v3c0,0.7-0.3,1-1,1h-1.1c-1.2,0-2.4-0.1-3.7-0.1c-0.8,0-0.8,0.4-0.8,1.5
	c0,1,0,1.5,0.8,1.5c1.2,0,2.4-0.1,3.7-0.1h8c1.2,0,2.4,0.1,3.7,0.1c0.8,0,0.8-0.4,0.8-1.5c0-1.1,0-1.5-0.8-1.5h-0.6
	c-0.1,0-0.2-0.1-0.2-0.2c0-0.1,0-0.2,0.1-0.2c0.3-0.2,0.8-0.5,0.8-1s-1-1.5-1.2-1.9c-0.3-0.4-1.2-1.5-1.6-1.5
	c-0.5,0-2.1,1.1-2.1,1.5c0,0.2,0.1,0.4,0.3,0.5c0.5,0.6,1,1.2,1.5,1.9c0.1,0.1,0.1,0.2,0.1,0.3c0,0.3-0.2,0.4-0.5,0.4h-1.8
	c-0.6,0-1-0.3-1-1L219.3,18.6z M252.3,9.7c0.4,0,0.5,0.3,0.5,0.6c-0.1,2.2-0.5,4.5-1.1,6.6c-1,3.5-2.9,7.3-4.6,7.3
	c-1.7,0-2.2-3.2-2.2-4.4c-0.1-4.2,2.3-8,6.1-9.8C251.5,9.9,251.9,9.8,252.3,9.7L252.3,9.7z M255.5,5.8c-7.7-0.1-14.1,6.2-14.1,13.9
	c0,0.1,0,0.3,0,0.4c0,1.7,0.3,3.3,1.1,4.8c0.8,1.8,2.6,3.1,4.6,3.2c1.8-0.2,3.5-1.1,4.5-2.6c3.3-3.9,4.5-10,4.8-14.9
	c0-0.6,0-1.3,0.8-1.3c0.4,0.1,0.9,0.2,1.3,0.3c3.4,1.2,5.6,4.5,5.4,8.1c0,4.9-3.5,7.8-8,8.8c-0.3,0.1-0.8,0.1-0.8,0.5
	c0,0.7,1.4,2.9,2.3,2.9c1.3-0.3,2.5-0.7,3.7-1.4c4.1-2.1,6.7-6.4,6.6-11c0-3.1-1.2-6.2-3.4-8.4C262,6.8,258.8,5.6,255.5,5.8
	L255.5,5.8z M280.1,21.5c0.2,1.2,0.6,2.3,1.3,3.3c2.2,3.1,6,3.5,9.6,3.5c2,0,8.4-0.4,10.2-1c0.6-0.2,0.8-0.6,0.8-1.3
	c0-2.2-0.2-2.8-0.7-2.8c-0.2,0-0.3,0.1-0.5,0.1c-3.3,0.8-6.7,1.2-10.1,1.2c-3.2,0-6.1-0.5-6.8-4.1c-0.1-0.3-0.2-0.6-0.6-0.6
	C283.2,19.9,280.1,20.6,280.1,21.5z M283.5,9.8c0,0.3,0.2,0.6,0.5,0.7c1.7,0.7,5.9,0.9,7.8,0.9c2.1,0,4.1-0.1,6.2-0.4
	c0.8-0.1,1-0.2,1-1c0-1.4,0-2.9-0.9-2.9c-0.1,0-0.3,0-0.4,0.1c-2,0.4-4.1,0.7-6.2,0.7c-1.9,0-3.9-0.2-5.8-0.7
	c-0.3-0.1-0.7-0.2-1-0.2c-0.6,0-0.7,0.6-0.8,1.2C283.7,8.6,283.6,9.2,283.5,9.8L283.5,9.8z M336.6,5.1c-0.4,0-1.8,0.7-1.8,1.1
	c0,0.2,0.3,0.6,0.5,0.8c0.5,0.7,1.1,1.7,1.5,2.4c0.3,0.5,0.4,0.7,0.6,0.7c0.4,0,1.8-0.8,1.8-1.3c-0.3-0.8-0.8-1.6-1.3-2.2
	C337.7,6.4,336.9,5.1,336.6,5.1z M340.1,2.8c-0.3,0-1.8,0.7-1.8,1.2c0,0.1,0,0.2,0.1,0.3c0.7,1.1,1.4,2,2,3.2
	c0.1,0.2,0.2,0.5,0.5,0.5c0.4,0,1.8-0.8,1.8-1.3c-0.3-0.8-0.8-1.5-1.3-2.2C341.2,3.9,340.5,2.8,340.1,2.8z M322.7,4.4
	c-1.2,0.2-2.2,0.2-2.2,0.7c0,0.1,0.1,0.3,0.1,0.4c0.3,0.7,0.5,1.5,0.6,2.2c0.4,1.5,1.3,5,1.7,6.3c0.1,0.2,0.1,0.4,0.1,0.5
	c0,0.6-0.4,0.8-0.8,1.1c-2.7,1.7-5.1,4-5.1,7.4c0,2.2,1.2,4.2,3.1,5.3c2.2,1.1,4.6,1.6,7.1,1.4c1.8,0,7.5-0.2,9-0.5
	c0.9-0.2,1-0.5,1-1.4v-0.4c0-0.8,0-2.2-0.5-2.2c-0.1,0-0.2,0-0.3,0c-0.5,0.1-2.9,0.5-3.5,0.5c-1.8,0.2-3.5,0.3-5.3,0.3
	c-1.5,0.1-3.1-0.1-4.6-0.6c-1.2-0.3-2-1.3-2.2-2.5c0-3,5.1-5.6,7.4-6.8c2.3-1.2,4.6-2.3,7.1-3.2c0.2-0.1,0.6-0.2,0.6-0.5
	c0-0.5-1.6-3.5-2.2-3.5c-0.3,0.1-0.6,0.2-0.9,0.4c-0.8,0.5-5.2,3.2-5.8,3.2c-0.6,0-0.7-0.6-0.8-1c-0.4-2-0.8-4-1.1-6.1
	c-0.1-0.8,0-1.3-1-1.3C323.7,4.3,323.2,4.3,322.7,4.4z M364.5,2.9c-0.6-0.2-1.1-0.4-1.7-0.5c-0.3,0-0.4,0.3-0.5,0.7
	c-0.3,1-1,3.4-1.3,4.6c-0.1,0.4-0.2,0.8-0.8,0.8c-0.2,0-0.3,0-0.4-0.1c-0.8-0.3-1.6-0.7-2.3-1.2c-0.2-0.2-0.5-0.3-0.8-0.4
	c-0.7,0-1.3,2.3-1.3,2.9c0,0.6,0.7,0.9,3.1,1.8c0.5,0.2,1.1,0.4,1.1,1.1c0,0.3-0.1,0.5-0.1,0.7c-0.1,0.5-0.2,1-0.3,1.3
	c-0.2,1-0.3,1.5-0.9,1.5c-0.8-0.2-1.5-0.5-2.2-1c-0.3-0.2-0.5-0.3-0.8-0.3c-0.9,0-1.2,2.7-1.2,2.9c0,0.4,0.3,0.6,0.6,0.8
	c0.6,0.3,1.3,0.6,2,0.8c0.8,0.2,1.4,0.4,1.4,1.2c0,0.3-0.1,1.6-0.1,2.5c0,5.2,3,8.1,8.2,8.1c4.5,0,9.4-1.8,9.4-7.1c0-2-0.4-4-1.1-6
	c-0.3-0.7-0.4-1.3-0.9-1.3c-0.4,0-2.9,0.4-2.9,1.3c0,0.2,0.1,0.4,0.1,0.6c0.7,1.6,1.1,3.2,1.2,4.9c0.1,0.9-0.2,1.7-0.7,2.4
	c-1.1,1.2-3.4,1.6-4.9,1.6c-3,0-4.5-1.6-4.5-4.5c0-1.5,0-2.3,0.9-2.3c0.2,0,0.4,0,0.5,0.1c0.8,0.1,2.4,0.3,3.2,0.3
	c0.6,0,0.8-0.3,1-0.8c0.3-0.7,0.4-1.5,0.4-2.3c0-0.3-0.1-0.6-1-0.6c-1,0-2,0-3.1-0.1c-0.5,0-1.2-0.1-1.2-0.8c0-0.3,0.5-2.4,0.6-2.8
	c0.1-0.4,0.4-0.8,0.9-0.8c0.1,0,0.2,0,0.3,0.1c1.5,0.3,3.1,0.4,4.6,0.5c0.5,0,0.6-0.3,0.7-0.7c0.2-0.7,0.3-1.5,0.4-2.2
	c0-0.7-0.5-0.6-1.2-0.6c-1.2,0-2.3-0.1-3.5-0.3c-0.5-0.1-0.9-0.2-0.9-0.8c0-0.2,0-0.3,0.1-0.5c0.3-0.8,0.5-1.7,0.8-2.5
	c0.5-1.2,0.7-1.3,1.2-1.5c0.2-0.1,0.3-0.2,0.3-0.4C366.8,3.6,365,3.1,364.5,2.9L364.5,2.9z M400.6,24.4c-0.5,0-2.1,2-2.1,2.5
	c0,0.7,1.1,1.6,1.7,1.9c1.9,1.3,5,1.5,7.3,1.5c1.8,0,3.5-0.2,5.3-0.4c0.4-0.2,0.4-1,0.4-1.7c0-1.4,0-2.1-0.6-2.1
	c-0.1,0-0.2,0-0.3,0.1c-1.6,0.5-3.2,0.7-4.8,0.7c-2.1,0-4.7-0.3-6.2-2C401.1,24.7,400.8,24.4,400.6,24.4z M403.1,16.6
	c0,0.6,0.2,0.7,0.9,0.7c0.4,0,0.8,0,1.3,0c1.8,0,3.7,0.2,5.4,0.9c0.2,0.1,0.5,0.2,0.7,0.2c0.3,0,0.5-0.1,0.6-0.4
	c0.3-0.8,0.5-1.6,0.6-2.4c0-0.3-0.2-0.6-0.5-0.7c-2.2-0.6-4.5-1-6.8-1C403.8,13.9,403.1,13.7,403.1,16.6z M398.7,2.1
	c-0.3,0-0.3,0.3-0.4,0.9c-0.2,2.1-0.6,4.2-1.3,6.2c-0.3,0.5-0.8,0.5-3,0.5c-1.5,0-2.9-0.1-3.2-0.1c-0.4,0-0.5,0.2-0.5,0.6
	c0,0.8,0.1,1.7,0.3,2.5c0.2,0.6,0.7,0.6,1.4,0.6c1.1,0,2.6-0.2,3-0.2c0.3,0,0.6,0.2,0.6,0.5c-0.1,0.3-0.2,0.6-0.3,0.9
	c-1.3,3.6-3.9,9.5-6,12.6c-0.3,0.3-0.5,0.7-0.6,1.1c0,0.7,2.3,1.8,2.9,1.8c0.5,0,0.8-0.5,1.2-1.3c2.5-4.8,4.6-9.8,6.3-15
	c0.3-1,0.4-1.1,1.4-1.3c1.9-0.3,3.7-0.8,5.6-1.3c0.6-0.2,0.6-0.6,0.6-1.2c0-0.5,0-2.6-0.7-2.6c-0.2,0-0.5,0.1-0.7,0.2
	c-1.3,0.5-2.6,1-3.9,1.3c-0.3,0-0.5-0.2-0.5-0.5c0,0,0,0,0,0c0-0.2,0.7-2.7,0.8-3c0.2-0.7,0.3-0.9,0.8-1.2c0.1-0.1,0.3-0.2,0.3-0.3
	c0-0.4-1-0.6-1.3-0.7C401.2,2.8,399,2.1,398.7,2.1z M435,3.1c-0.5,0-0.5,0.7-0.6,1.2c-0.1,1.5-0.4,2.9-0.7,4.3
	c-0.3,0.7-0.7,0.8-3.1,0.8c-1.4,0-3.4-0.1-3.8-0.1c-0.2,0-0.7,0-0.7,0.9c0,0.8,0.2,1.5,0.4,2.2c0.1,0.4,0.5,0.7,0.9,0.7
	c0.7,0,3.3-0.3,4.1-0.3c0.2,0,0.5,0,0.7,0c0.3,0,0.5,0.2,0.5,0.4c0,0,0,0.1,0,0.1c0,0.3-0.1,0.6-0.2,0.9c-0.5,1.9-1.1,3.8-1.9,5.6
	c-0.2,0.5-0.4,1-0.5,1.5c0,1,1.9,1.9,2.7,1.9c0.4,0,0.7-0.4,1-0.7c2-2.5,5-4.1,8.2-4.2c1.8,0,3.3,1.4,3.4,3.3c0,0.1,0,0.2,0,0.3
	c0,4.5-5.4,5.5-8.9,5.5c-1.3,0-2.3-0.2-2.8-0.2c-0.4,0-0.7,0.3-0.7,0.6c0,0,0,0,0,0.1c0.1,0.8,0.2,1.5,0.4,2.2
	c0.2,0.7,0.4,0.9,1.5,0.9c2.4,0,4.8-0.4,7.1-1c3.9-1.1,6.9-3.7,6.9-8c0-4.2-2.7-7-6.9-7c-2.1,0-4.2,0.7-5.9,1.8
	c-0.1,0.1-0.2,0.1-0.4,0.1c-0.2,0-0.3-0.1-0.3-0.3c0-0.2,0-0.4,0.1-0.6c0.2-0.7,0.4-1.4,0.5-1.8c0.4-1.6,0.4-1.8,1.6-2
	c1.9-0.2,5.9-0.8,7.8-1.2c0.9-0.2,1.2-0.3,1.2-0.8c0-0.7-0.1-1.4-0.3-2.1c-0.1-0.5-0.2-1-0.6-1c-0.3,0-0.6,0.1-0.9,0.2
	c-2.1,0.7-4.3,1.2-6.6,1.5c-0.3,0-0.5-0.2-0.6-0.5c0,0,0,0,0,0c0-0.3,0.1-0.6,0.2-0.9c0.1-0.3,0.1-0.5,0.2-0.7
	c0.1-0.5,0.3-1,0.7-1.4c0.2-0.1,0.3-0.3,0.3-0.5C438.9,4.1,435.3,3.1,435,3.1z M473.2,22.1c-0.6,0-1.8,2.4-1.8,2.9
	c0,0.5,2.3,3.4,7.8,3.4c1.4,0,7.1-0.5,8.1-1c0.4-0.2,0.4-0.9,0.4-1.3c0-1.7-0.1-2.5-0.6-2.5c-0.2,0-0.5,0.1-0.7,0.1
	c-2.4,0.7-4.9,1.1-7.5,1.1c-2,0.2-4-0.7-5.2-2.4C473.5,22.2,473.4,22.1,473.2,22.1z M474,7.4c-0.5,0-0.7,0.5-0.7,2.1
	c0,0.4,0,1.1,0.3,1.3c0.7,0.5,4.9,0.7,5.9,0.7c1.9,0,3.8-0.2,5.7-0.5c0.6-0.1,0.6-0.4,0.6-1.1c0-0.6-0.1-1.2-0.1-1.8
	c-0.1-0.4-0.2-0.8-0.7-0.8c-0.2,0-0.4,0-0.6,0.1c-1.7,0.4-3.4,0.7-5.2,0.7c-1.5,0-3-0.2-4.5-0.5C474.6,7.5,474.3,7.4,474,7.4z
	 M465.8,4.7c-0.4,0-0.4,0.4-0.5,0.7c-0.1,0.6-0.3,1.1-0.4,1.7c-1.1,3.7-1.7,7.4-1.7,11.3c-0.1,3.6,0.6,7.2,2.1,10.4
	c0.4,0.9,0.9,1.7,1.4,1.7c0.7,0,2.7-0.8,2.7-1.7c0-0.2,0-0.3-0.1-0.5c0-0.3-0.1-1.1-0.1-1.4c0-1.5,1.4-4.6,1.4-4.9
	c0-0.4-0.9-1.1-1.2-1.1c-0.3,0-0.5,0.4-0.7,0.8c-0.1,0.3-0.6,1.3-0.9,1.3c-0.8,0-0.9-4.1-0.9-4.8c0-3.3,0.7-6.6,1.9-9.7
	c0.3-0.9,0.5-1.2,1.1-1.5c0.3-0.2,0.5-0.2,0.5-0.4c0-0.3-0.4-0.5-0.7-0.6C468.9,6,466.1,4.7,465.8,4.7L465.8,4.7z M16.7,89.9
	c-1.6-0.5-3.3-1-4.9-1.5c-0.3-0.1-0.5-0.2-0.5-0.6c0-0.1,0-0.3,0.1-0.4c0.5-0.9,1-1.8,1.5-2.7c0.2-0.5,0.8-0.8,1.3-0.7h6.2
	c0.4,0,0.7,0.2,0.7,0.6c0,0.1,0,0.2,0,0.3c-0.6,1.8-1.5,3.4-2.8,4.8C18,89.8,17.7,90,17.3,90C17.1,90,16.9,89.9,16.7,89.9z
	 M8.9,84.7c-0.9,1.7-1.9,3.4-3,5c-0.2,0.3-0.4,0.6-0.5,1c0,0.8,2,1.5,2.7,1.5c0.4,0,0.6-0.3,0.8-0.6C9.1,91.2,9.4,91,9.8,91
	c0.1,0,0.3,0,0.4,0c1.2,0.3,2.3,0.7,3.4,1.1c0.2,0,0.3,0.2,0.3,0.3c0,0.2-0.1,0.3-0.2,0.3c-3,1.3-6.2,1.9-9.5,2
	c-0.6,0-1.2,0-1.2,0.7c0,0.6,0.2,1.2,0.4,1.8C3.6,97.7,4,98,4.5,98c0.3,0,1.6-0.1,1.9-0.1c3.9-0.4,7.7-1.7,11.1-3.7
	c0.2-0.2,0.5-0.3,0.9-0.3c0.2,0,0.4,0.1,0.6,0.1c2.5,1,4.9,2.2,7.2,3.5c0.3,0.2,0.6,0.3,0.9,0.4c0.8,0,1.7-1.9,1.7-2.6
	c0-0.4-0.2-0.5-0.9-0.8c-2-1.1-4-2-6.2-2.9c-0.2-0.1-0.4-0.3-0.4-0.6c0-0.2,0.1-0.3,0.2-0.4c1.1-1.3,1.9-2.8,2.5-4.4
	c0.1-0.3,0.2-0.5,0.5-0.7c0.3-0.1,0.8-0.2,0.8-0.5c0-0.3-0.8-0.6-1.9-1c-0.1,0-0.1-0.1-0.1-0.2c0,0,0-0.1,0.2-0.1h2.5
	c1.4,0,2.8,0.1,4.2,0.1c0.8,0,0.8-0.4,0.8-1.7s0-1.7-0.8-1.7c-1.4,0-2.8,0.1-4.2,0.1H15.7c-0.2,0-0.6,0-0.6-0.5c0-0.1,0-0.2,0.1-0.3
	c1.1-2.3,1.1-2.5,1.7-2.7c0.2,0,0.5-0.2,0.5-0.4c0-0.5-1.4-0.9-2.5-1.3c-0.4-0.2-0.9-0.3-1.3-0.4c-0.3,0-0.4,0.3-0.5,0.7
	c-0.5,1.4-1.1,2.7-1.7,4c-0.2,0.5-0.8,0.9-1.3,0.8H6.1c-1.4,0-2.8-0.1-4.2-0.1c-0.8,0-0.8,0.4-0.8,1.7c0,1.3,0,1.7,0.8,1.7
	c1.4,0,2.8-0.1,4.2-0.1h2.3C8.7,84,9,84.1,9,84.4C9,84.5,8.9,84.6,8.9,84.7z M7.9,71.7c-1.3,0-2.5,0-3.7,0c-0.9,0-1.9,0.2-1.9,1.4
	c0,0.3,0.1,1,0.1,1.8v1.5c0,0.5-0.1,1.1-0.1,1.4c0,0.8,0.5,0.8,1.8,0.8c1.2,0,1.8,0,1.8-0.7c0-0.4-0.1-1-0.1-1.5v-0.5
	c0-0.6,0.3-0.9,0.9-0.9h18.7c0.6,0,0.9,0.3,0.9,0.9v0.6c0,0.5-0.1,1-0.1,1.5c0,0.7,0.6,0.7,1.8,0.7c1.3,0,1.8,0,1.8-0.8
	c0-0.4-0.1-1-0.1-1.4v-1.4c0-0.9,0.1-1.7,0.1-2c0-1.2-1-1.4-1.9-1.4c-1.2,0-2.4,0-3.7,0h-5.5c-0.7,0-0.9-0.2-1-0.9v-0.4
	c0-0.7,0-1.1,0.4-1.3c0.3-0.2,0.4-0.3,0.4-0.5c0-0.4-0.7-0.4-1-0.4c-0.6-0.1-2.3-0.2-2.9-0.2c-0.3,0-0.6,0-0.6,0.4
	c0,0.1,0,0.2,0,0.3c0.1,0.7,0.1,1.4,0.1,2.1c0,0.6-0.3,0.9-1,0.9L7.9,71.7z M52.3,94.2c-1.6,0-1.9-0.1-1.9-1.8V77.6
	c0-0.7,0-1.4,0.4-1.6c0.2-0.2,0.4-0.2,0.4-0.5c0-0.3-0.3-0.4-0.6-0.4c-0.5,0-2.9-0.2-3.3-0.2c-0.3,0-0.6,0.1-0.6,0.5
	c0,0.1,0,0.3,0,0.4c0.1,0.9,0.1,1.7,0.1,2.6v13.5c0,0.9,0,1.8,0,2.7c0,2.6,2,3.1,4.2,3.1h7.7c1.7,0,2.8,0,3.7-1.7
	c0.8-1.6,1.3-3.3,1.6-5.1c0-1.3-2.4-1.7-2.8-1.7c-0.6,0-0.7,0.6-0.8,1.4c-0.6,3.6-1.1,3.7-3.1,3.7H52.3z M68,88.1
	c-0.5-1.8-1-3.6-1.8-5.4c-0.7-1.6-1.4-3.2-2.2-4.7c-0.2-0.4-0.4-0.6-0.8-0.6c-0.5,0-2.5,0.7-2.5,1.4c0,0.2,0.1,0.5,0.2,0.7
	c1.5,3,2.8,6.1,3.7,9.2c0.1,0.3,0.2,0.8,0.9,0.8C66.2,89.5,68,88.8,68,88.1z M45.1,79.5c0-0.3-1-0.6-1.9-0.9
	c-0.3-0.1-1.6-0.4-1.8-0.4c-0.5,0-0.5,0.5-0.5,0.9c-0.4,3.2-1.3,6.3-2.7,9.1c-0.2,0.4-0.4,0.8-0.4,1.2c0,0.7,2,1.5,2.6,1.5
	c0.5,0,0.7-0.5,0.9-0.9c1.2-2.9,2.2-5.9,2.9-9c0.1-0.5,0.1-0.7,0.6-1C44.9,79.9,45.1,79.8,45.1,79.5z M58.8,74
	c0-0.2-0.1-0.5-0.3-0.6c-1-1-2.1-1.9-3.2-2.8c-0.7-0.5-3.6-2.8-4.3-2.8c-0.8,0-2.1,1.6-2.1,2c0,0.3,0.4,0.5,0.6,0.7
	c2.2,1.4,4.3,3.1,6.2,4.9c0.2,0.2,0.7,0.7,1.1,0.7C57.7,75.8,58.5,75,58.8,74z M82.7,70.5c-0.5,0-0.5,0.3-0.5,0.8v0.4
	c0,1.4-0.3,4.7-0.4,6.2c-0.2,2.7-0.3,5.4-0.3,8.1c0,2.5,0.2,5.8,1.7,7.8c1.5,1.7,3.7,2.7,6,2.6c4.4-0.1,8.3-2.6,10.3-6.5
	c0.7-1.2,1.2-2.6,1.4-4c0-1-2.1-2.8-2.8-2.8c-0.5,0-0.6,0.6-0.7,1.1c-0.3,1.8-1,3.6-2.1,5c-1.5,2-3.9,3.2-6.4,3.3
	c-3.7,0-3.6-4.1-3.6-6.8c0-1.9,0.3-12.7,1.5-13.6c0.2-0.2,0.4-0.3,0.4-0.5c0-0.3-0.4-0.4-0.7-0.5C85.2,70.9,84,70.6,82.7,70.5
	L82.7,70.5z M112.5,74.9c0,0.3,0.3,3.6,1.1,3.6c0.2,0,0.3,0,0.5-0.1c2.5-0.6,5-1.1,7.5-1.4c0.4-0.1,1.9-0.3,2.2-0.3
	c0.2,0,0.5,0.1,0.5,0.4c0,0.2-0.4,0.6-0.6,0.8c-2.4,2.7-3.7,6.2-3.7,9.8c0,6.6,5,8.5,10.7,8.5c0.4,0,0.7,0,1-0.3c0.4-1,0.6-2,0.6-3
	c0-0.5-0.3-0.6-0.8-0.6c-0.3,0-1.1,0-1.7,0c-3.4,0-6-1-6-4.9c0-2.1,0.6-4.2,1.6-6c1.2-2.4,3.3-4.2,5.8-5.1c1.8-0.6,3.7-0.8,5.6-0.7
	c0.8,0,1.5,0,1.5-0.7c0-0.8-0.1-1.7-0.3-2.5c-0.1-0.4-0.2-0.9-0.7-0.9c-0.1,0-0.3,0-0.4,0c-2.6,0.4-5.2,0.7-7.7,1.1
	c-5,0.6-9.9,1.1-14.9,1.4C113,74.1,112.5,74,112.5,74.9z M172.4,69.5c-0.4,0-1.7,1-1.7,1.4c0,0.2,0.2,0.3,0.3,0.5
	c0.8,0.8,1.6,1.8,2.3,2.7c0.1,0.1,0.3,0.4,0.5,0.4c0.4,0,1.7-1.1,1.7-1.5C174.7,71.6,173.7,70.5,172.4,69.5z M168.9,71.9
	c-0.4,0-1.7,1-1.7,1.4c0,0.2,0.1,0.3,0.3,0.5c0.8,0.9,1.6,1.8,2.3,2.7c0.1,0.1,0.3,0.4,0.5,0.4c0.4,0,1.7-1,1.7-1.5
	C172,74.9,169.2,71.9,168.9,71.9z M162.9,79.5c-0.1,0.1-0.2,0.1-0.3,0.1c-0.1,0-0.3-0.1-0.3-0.3v-5.1c0-0.8,0-1.5,0-2
	c-0.1-0.6,0-1.3,0.4-1.8c0.1-0.1,0.1-0.3,0.2-0.4c0-0.5-1.4-0.6-2.9-0.8c-0.2,0-1-0.1-1.2-0.1c-0.3,0-0.4,0.2-0.4,0.5
	c0,0.1,0,0.4,0,0.6c0,0.8,0.1,1.8,0.1,2.7v19.4c0,1.5-0.1,3.1-0.1,4.6c0,1.1,0.6,1.2,1.9,1.2c2.1,0,2.1-0.2,2.1-1.8
	c0-1.4-0.1-2.7-0.1-4v-9.3c0-0.3,0.1-0.5,0.4-0.5c0.1,0,0.2,0.1,0.3,0.1c1.7,1.2,3.4,2.5,4.9,4c0.2,0.2,0.5,0.4,0.7,0.4
	c0.7,0,2.3-1.8,2.3-2.3c0-0.6-1.9-2-2.4-2.4c-0.7-0.6-4.1-3.3-4.8-3.3C163.5,78.7,163.2,79.2,162.9,79.5z M191.5,80.9
	c-1.4,0-3.8-0.1-4.2-0.1c-0.9,0-1,0.3-1,2.2c0,1.1,0,1.7,0.9,1.7c1.4,0,2.9-0.1,4.2-0.1h15.6c1.4,0,2.8,0.1,4.2,0.1
	c0.9,0,0.9-0.6,0.9-1.7c0-1.9,0-2.1-1-2.1c-0.4,0-2.7,0.1-4.2,0.1H191.5z M227.4,78c-1.4,0-3.3-0.1-4.3-0.1c-0.8,0-0.8,0.5-0.8,1.8
	c0,1.5,0.1,2,0.9,2c1.1,0,2.8-0.1,4.2-0.1h6.7c0.5,0,0.8,0.4,0.8,0.9c0,0.3-0.1,0.6-0.1,0.9c-0.8,4.7-3.9,8.7-8.2,10.6
	c-0.3,0.1-0.9,0.3-0.9,0.7c0,0.6,2.1,2.5,2.8,2.5c1.1-0.4,2.1-1,3-1.7c4.1-3,6.7-7.6,7.2-12.6c0.1-0.6,0.3-1.2,1.1-1.2h4.8
	c1.5,0,3,0.1,4.4,0.1c0.7,0,0.9-0.3,0.9-1.8c0-1.5,0-1.9-0.8-1.9c-1.5,0-3,0.1-4.5,0.1H240c-0.7,0-1-0.6-1-1.2c0-1.5,0-3,0-4.5v-0.5
	c0-0.6,0-0.8,0.3-1.1c0.1-0.1,0.2-0.2,0.2-0.3c0-0.2-0.3-0.4-0.5-0.4c-0.4-0.1-3-0.4-3.5-0.4c-0.2,0-0.3,0.1-0.3,0.3
	c0,0,0,0.1,0,0.1c0,0.1,0,0.3,0,0.4c0.1,0.6,0.1,4.8,0.1,5.7v0.5c0,0.7-0.1,1.6-1,1.6L227.4,78z M263.8,80.7c-1.5,0-3.4-0.1-4.3-0.1
	c-0.9,0-0.8,0.6-0.8,2c0,1.1,0,1.7,0.9,1.7c1.1,0,2.7-0.1,4.2-0.1h6.9c0.3,0,0.6,0.2,0.6,0.6c0,0,0,0,0,0c-0.1,0.6-0.3,1.1-0.6,1.7
	c-1.6,3.8-3.9,5.8-7.5,7.7c-0.3,0.2-0.8,0.3-0.8,0.6c0.6,1.1,1.5,1.9,2.6,2.4c0.7,0,3.3-1.9,4-2.4c2.9-2.3,5-5.5,6.1-9.1
	c0.2-0.8,0.4-1.5,1.5-1.5h5.1c1.5,0,2.9,0,4.4,0c0.9,0,1-0.4,1-1.7c0-1.5,0-1.9-0.9-1.9c-1.3,0-2.9,0.1-4.5,0.1h-4.8
	c-0.6,0-0.8-0.4-0.8-0.9c0-0.6,0-1.2,0-1.9c0-0.6-0.1-1.2-0.1-1.9c0-0.6,0.4-0.8,0.9-1c0.7-0.2,1.5-0.4,2.2-0.6c0.6-0.2,2.9-1,3.3-1
	c0.1,0,0.2,0,0.3,0c0.1,0,0.3,0,0.3,0c0.2,0,0.4-0.1,0.4-0.3c0-0.4-1.3-1.7-1.7-2c-0.3-0.3-1-1.1-1.4-1.1c-0.2,0-0.4,0.1-0.6,0.2
	c-1.4,0.7-3,1.2-4.6,1.6c-3.4,0.7-6.9,1.1-10.4,1.1c-0.5,0-1.3-0.1-1.6-0.1c-0.4,0-0.7,0.2-0.7,0.6c0.1,0.8,0.3,1.5,0.6,2.2
	c0.3,0.6,0.4,0.8,1.2,0.8c2.4,0,7-0.5,7.1-0.5c0.8,0,0.8,0.7,0.8,2.4c0,1,0,2.2-1,2.2H263.8z M306.6,78.9c-1.4,0-2.8,0-3.4,0
	c-0.8,0-0.7,0.6-0.7,1.5c0,1.1,0,1.7,0.8,1.7c0.9,0,2.2-0.1,3.3-0.1h4.7c0.4,0,0.9,0.2,0.9,0.7c0,0.1-0.1,0.6-0.1,0.7l-0.6,5.9
	c-0.1,0.5-0.5,0.8-1,0.8h-8.1c-0.9,0-2.7-0.1-3.3-0.1c-0.8,0-0.9,0.6-0.9,1.8c0,0.7,0,1.5,0.9,1.5c0.8,0,2.1-0.1,3.3-0.1h13.9
	c1.1,0,2.2,0.1,3.3,0.1c1,0,1-0.6,1-1.5c0-1.1,0-1.7-0.8-1.7c-1.2,0-2.3,0.1-3.4,0.1h-0.9c-0.4,0-0.7-0.3-0.7-0.7c0,0,0-0.1,0-0.1
	l0.7-6.3c0-0.2,0.1-0.9,0.2-1.6c0.1-0.5,0.2-0.7,0.2-1c0-0.8-1.2-1.7-2-1.7c-0.1,0-0.3,0-0.5,0c-0.3,0-0.7,0-1.2,0L306.6,78.9z
	 M344.7,68c-0.3,0-0.4,0.3-0.5,0.7c-0.4,1.5-1,3-1.8,4.4c-0.3,0.4-1.2,0.4-2.1,0.4h-1c-1,0-1.9-0.1-2.4-0.1c-0.9,0-1,0.2-1,1.6
	c0,1.7,0.1,1.9,0.9,1.9c1.1,0,1.8-0.1,2.4-0.1c0.5,0,0.7,0.1,0.7,0.4c0,0.6-4.9,7.5-5.7,8.3c-0.2,0.2-0.4,0.5-0.4,0.7
	c0,0.6,2.3,2,2.9,2c0.2,0,0.4-0.1,0.5-0.3c0.8-1.4,1.8-2.8,2.9-4c1.3-1.4,4.5-3,6.4-3c0.7-0.1,1.4,0.4,1.5,1.2
	c0.1,0.3,0.1,0.6,0.2,1c0,0.4-0.3,0.6-0.6,0.8c-0.7,0.3-1.4,0.7-2.1,1.1c-2.3,1.4-4.8,3.1-4.8,6.1c0,2.2,1.4,4.1,3.4,4.9
	c1.7,0.7,3.5,1,5.4,0.9c2.2,0,4.4-0.1,6.5-0.4c0.7-0.2,0.8-0.4,0.8-1.5c0-1.9-0.2-2.3-0.7-2.3c-0.2,0-0.5,0-0.7,0.1
	c-2.1,0.6-4.2,0.8-6.3,0.9c-1.6,0-4.9-0.2-4.9-2.5c0-2.1,3.5-3.6,3.7-3.6c0.3,0,0.4,0.3,0.4,0.6c0,0.7-0.1,1.5-0.1,2.2
	c0,0.9,0.6,1,2.1,1c1.3,0,1.5-0.1,1.5-1.4c0-1.1,0-2.1,0-3.1v-0.4c0-0.7,0.3-0.9,0.9-1.1c1.3-0.6,2.7-1.2,4-1.7
	c0.2-0.1,0.3-0.1,0.5-0.2c0.6-0.2,1-0.3,1-0.7c0-0.6-0.8-3.2-1.5-3.2c-0.3,0.1-0.6,0.2-0.9,0.3c-1.3,0.7-2.6,1.4-4,1.9
	c-0.3,0-0.4-0.3-0.5-0.6c-0.4-2.1-1.7-3.1-3.9-3.1c-1.3,0-2.5,0.3-3.7,0.9c-0.2,0.1-0.4,0.2-0.6,0.2c-0.1,0-0.3-0.1-0.3-0.2
	c0.3-0.7,0.7-1.4,1.2-2c0.2-0.3,0.6-0.5,1-0.5c2.1-0.2,4.3-0.6,6.4-1.1c0.7-0.1,1.8-0.3,1.8-0.8c0-0.6-0.1-1.2-0.3-1.8
	c-0.1-0.5-0.3-1-0.8-1c-0.3,0-0.6,0.1-0.9,0.2c-1.3,0.4-2.6,0.7-3.9,1c-0.2,0-0.3-0.1-0.4-0.3c0,0,0,0,0-0.1
	c0.1-0.3,0.2-0.5,0.3-0.8c0.4-0.8,0.6-1,1.1-1.2c0.2-0.1,0.4-0.2,0.4-0.4C348.5,69.6,345,68,344.7,68L344.7,68z M387,83.9
	c0.4,0,0.8,0.3,0.8,0.7c0,0,0,0.1,0,0.1v0.4c0,0.4-0.3,0.8-0.8,0.8c0,0,0,0-0.1,0h-8.6c-0.4,0-0.8-0.3-0.8-0.8c0,0,0,0,0-0.1v-0.4
	c0-0.4,0.3-0.8,0.7-0.8c0,0,0.1,0,0.1,0H387z M378.4,81.6c-0.4,0-0.8-0.3-0.8-0.8c0,0,0,0,0-0.1v-0.3c0-0.4,0.3-0.8,0.8-0.8
	c0,0,0,0,0.1,0h8.6c0.4,0,0.8,0.3,0.8,0.8c0,0,0,0,0,0.1v0.3c0,0.4-0.3,0.8-0.8,0.8c0,0,0,0-0.1,0H378.4z M383.5,72.2
	c1.6,1.7,3.3,3.2,5.2,4.5c0.1,0.1,0.2,0.2,0.2,0.3c0,0.2-0.2,0.2-0.3,0.3c-0.7,0-1.4,0-2.1,0h-1.2c-0.6,0-0.9-0.2-0.9-0.9
	c0-0.3,0.1-0.6,0.4-0.9c0.2-0.2,0.4-0.3,0.4-0.5c0-0.4-0.5-0.4-0.9-0.5c-0.5-0.1-2.2-0.2-2.7-0.2c-0.3,0-0.5,0.1-0.5,0.5
	c0,0.1,0,0.3,0,0.4c0,0.4,0.1,1,0.1,1.2c0,0.6-0.3,0.9-1,0.9h-1.4c-0.5,0-1.1,0-1.6,0c-0.2,0-0.3-0.1-0.3-0.3c0-0.1,0.1-0.2,0.2-0.3
	c1.8-1.4,3.5-2.9,5.1-4.5c0.2-0.2,0.4-0.3,0.6-0.3C383.2,71.9,383.4,72,383.5,72.2z M386.5,88.4c1,0,2,0.1,3,0.1
	c1.1,0,1.7-0.3,1.7-1.5c0-0.9,0-1.8,0-2.7v-2.8c0-0.7,0-1.5,0-2.2c0-0.3,0.1-0.5,0.5-0.5c0.1,0,0.2,0,0.3,0.1
	c0.7,0.4,3.9,2.3,4.6,2.3c0.8,0,1.7-1.9,1.7-2.7c0-0.4-0.3-0.5-0.8-0.7c-4.2-1.8-8.9-4.6-12-8.1c-0.1-0.1-0.1-0.2-0.1-0.3
	c0-0.1,0.1-0.2,0.2-0.2c0.2-0.1,0.3-0.2,0.3-0.4c0-0.3-0.4-0.5-0.6-0.6c-0.5-0.1-2.8-0.7-3.2-0.7c-0.4,0-0.5,0.2-0.8,0.7
	c-2.9,4.4-8.1,7.6-12.8,9.8c-0.3,0.1-0.7,0.3-0.7,0.7c0,0.6,1.1,2.4,2,2.4c0.7,0,3-1.5,3.7-1.9c0.1-0.1,0.2-0.1,0.3-0.1
	c0.3,0,0.4,0.2,0.5,0.5c0,0.6,0,1.2,0,1.8v11.8c0.1,0.5-0.3,1-0.7,1c0,0-0.1,0-0.1,0c-0.6,0.1-1.2,0.2-1.8,0.2
	c-1.5,0.2-1.8,0.2-1.8,0.6c0.2,0.8,0.4,1.5,0.6,2.3c0.3,0.9,0.4,1.2,0.7,1.2c0.2,0,0.4-0.1,0.5-0.3c0.2-0.4,0.3-0.4,1.1-0.6
	c3.4-0.6,6.8-1.2,10.2-2c0.8-0.2,1.1-0.3,1.1-1.4v-0.4c0-1.1-0.2-1.3-0.6-1.3c-0.2,0-4.3,0.9-5.1,1.1h-0.2c-0.5,0-0.7-0.4-0.7-0.8
	v-3.4c0-0.7,0.3-1,1-1h1.9c0.6-0.1,1.1,0.3,1.3,0.8c2.1,3.3,5.1,5.8,8.6,7.3c1.8,0.8,3.7,1.4,5.7,1.8c1,0,1.6-1.7,1.6-2.6
	c0-0.7-0.5-0.7-1.1-0.8c-1.8-0.3-3.5-0.8-5.2-1.6c-0.2-0.1-0.3-0.2-0.3-0.4c0-0.2,0.1-0.4,0.3-0.4c1-0.6,1.9-1.3,3-1.9
	c0.1-0.1,0.2-0.2,0.4-0.2c0.2,0.1,0.4,0.1,0.6,0.1c0.2,0,0.3-0.2,0.3-0.4c0-0.5-2.5-2.5-3-2.5c-0.2,0-0.4,0.3-0.6,0.4
	c-1.1,1-2.3,2-3.5,2.9c-0.2,0.2-0.5,0.2-0.7,0.3c-0.3,0-0.5-0.1-0.7-0.3c-0.7-0.5-1.4-1.2-2-1.8c-0.1-0.1-0.1-0.2-0.1-0.3
	c0-0.3,0.2-0.4,0.5-0.4H386.5z M430.1,72.2c-0.4,0-1.6,1.1-1.6,1.5c0,0.2,0.2,0.3,0.3,0.4c0.8,0.7,1.9,1.8,2.6,2.7
	c0.1,0.1,0.3,0.3,0.4,0.3c0.4,0,1.6-1.1,1.6-1.6C433.4,75,430.4,72.2,430.1,72.2z M426.3,74.5c-0.3,0-1.6,1.1-1.6,1.5
	c0,0.2,0.1,0.3,0.3,0.4c0.7,0.7,1.4,1.4,1.9,2c0.6,0.6,1,1,1.1,1c0.4,0,1.6-1.1,1.6-1.6C429.6,77.4,426.6,74.5,426.3,74.5
	L426.3,74.5z M417.3,76.1c-1.8,0-3.4,1.6-4.7,2.8c-1.7,1.5-3.5,2.9-5.5,4.1c-0.3,0.1-1.1,0.5-1.1,0.8c0,0.6,2.2,3.4,2.8,3.4
	c0.3,0,0.6-0.4,0.8-0.6c1.2-1.3,3-2.8,4.3-4c0.7-0.7,2.3-2.3,3.2-2.3c0.7,0,1.5,0.9,2.5,2.1c2.6,3.2,5.5,6,8.7,8.5
	c0.8,0.6,1.7,1.2,2.7,1.5c0.9,0,2.5-2.5,2.5-3.2c0-0.4-0.4-0.5-0.7-0.7c-4.3-2.1-7.7-5.5-10.8-9.1C421,78,419.5,76.1,417.3,76.1
	L417.3,76.1z M443,74.9c0,0.3,0.3,3.6,1.1,3.6c0.2,0,0.3,0,0.5-0.1c2.5-0.6,5-1.1,7.5-1.4c0.4-0.1,1.9-0.3,2.2-0.3
	c0.2,0,0.5,0.1,0.5,0.4c0,0.2-0.4,0.6-0.6,0.8c-2.4,2.7-3.7,6.2-3.7,9.8c0,6.6,5,8.5,10.7,8.5c0.4,0,0.7,0,1-0.3c0.4-1,0.6-2,0.6-3
	c0-0.5-0.3-0.6-0.8-0.6c-0.3,0-1.1,0-1.7,0c-3.4,0-6-1-6-4.9c0-2.1,0.6-4.2,1.6-6c1.2-2.4,3.3-4.2,5.8-5.1c1.8-0.6,3.7-0.8,5.6-0.7
	c0.8,0,1.5,0,1.5-0.7c0-0.8-0.1-1.7-0.3-2.5c-0.1-0.4-0.2-0.8-0.7-0.8c-0.1,0-0.3,0-0.4,0c-2.5,0.4-5.2,0.7-7.7,1.1
	c-5,0.6-9.9,1.1-14.9,1.4C443.4,74.1,443,74,443,74.9L443,74.9z M495.4,90.9c0.5,0,1.8,0,1.8,0.7c0,1.5-1.1,1.8-2.5,1.8
	c-0.7,0-2.2-0.2-2.2-1.2C492.5,91,494.6,90.9,495.4,90.9z M503.2,70.9c-0.1,0-0.3,0-0.4,0.1c-2.9,0.9-5.8,1.3-8.8,1.2
	c-0.7,0-2.2,0-2.8-0.1c-0.1,0-0.3,0-0.4,0c-0.5,0-0.6,0.3-0.6,0.7c0,0.3,0.1,2,0.2,2.3c0.1,0.6,0.5,0.6,1.1,0.6
	c1.4,0,4.1-0.3,4.6-0.3c0.6,0,0.7,0.2,0.7,3.2c0,1.1-0.4,1.2-5.4,1.2c-0.8,0-1.6-0.1-2.2-0.1c-0.6,0-0.7,0.2-0.7,0.8
	c0,0.8,0.1,1.7,0.3,2.5c0.2,0.3,0.9,0.3,1.2,0.3c1.6,0,4.5-0.1,6.1-0.3c0.1,0,0.2,0,0.3,0c0.5,0,0.7,0.4,0.7,0.8
	c0,0.7,0.2,2.9,0.2,3.5c0,0.4-0.3,0.7-0.7,0.7c0,0,0,0,0,0c-0.2,0-0.7-0.1-1.3-0.1c-2.7,0-5.8,1.2-5.8,4.3c0,3,3,4.1,5.5,4.1
	c1.9,0,4.4-0.5,5.1-2.5c0.2-0.6,0.3-1,0.7-1c0.6,0,2,1.4,2.4,1.8c0.1,0.1,0.1,0.2,0.2,0.2c0.3,0.4,0.6,0.6,0.9,0.6
	c0.8,0,2.1-1.8,2.1-2.5c0-1-4-3.3-4.9-3.7c-0.9-0.4-1-0.5-1-1.5c0-1.1-0.2-3.7-0.2-4.6c0-1.1,1-1.1,2.4-1.3c2.9-0.4,3.5-0.6,3.5-1.3
	c-0.1-0.6-0.2-1.2-0.3-1.8c-0.1-0.5-0.3-1-0.6-1c-0.4,0-0.7,0.1-1,0.3c-1.2,0.4-2.4,0.7-3.6,0.9c-0.6,0-0.6-0.5-0.6-1.8v-1.2
	c0-0.8,0.3-1.2,1.2-1.3c2.3-0.3,3-0.4,3-1.1C504,73.3,503.8,70.9,503.2,70.9z M486.3,71.1c-0.8-0.4-1.6-0.8-2.5-1.1
	c-0.3,0-0.4,0.4-0.4,0.6c-0.2,1.1-0.5,2.2-0.8,3.3c-1.1,3.7-1.6,7.4-1.7,11.3c-0.1,3.7,0.6,7.3,1.9,10.7c0.2,0.5,0.4,1.2,1,1.2
	c0.5-0.1,1-0.2,1.5-0.4c0.5-0.2,1-0.4,1-1c0-0.4-0.1-0.8-0.1-1.2c0.1-1.8,0.6-3.6,1.4-5.3c0.2-0.5,0.4-1,0.5-1.5
	c0-0.4-1.1-1.1-1.5-1.1c-0.3,0-0.5,0.4-0.6,0.7c-0.1,0.2-0.2,0.5-0.3,0.7c-0.3,0.6-0.4,1-0.7,1c-0.2,0-0.3-0.1-0.3-0.3
	c-0.2-1.1-0.3-2.3-0.3-3.4c0.1-3.9,0.8-7.8,2-11.6c0.3-0.8,0.4-0.9,0.8-1.1c0.2-0.1,0.5-0.2,0.5-0.5
	C487.6,71.6,486.7,71.3,486.3,71.1L486.3,71.1z M523,70.4c-0.5,0-0.5,0.3-0.5,0.9v0.4c0,1.4-0.3,4.7-0.4,6.2
	c-0.2,2.7-0.3,5.4-0.3,8.1c0,2.5,0.2,5.8,1.7,7.8c1.5,1.7,3.7,2.7,6,2.6c4.4-0.1,8.3-2.6,10.3-6.5c0.7-1.2,1.2-2.6,1.4-4
	c0-1-2.1-2.8-2.8-2.8c-0.5,0-0.6,0.6-0.7,1.1c-0.3,1.8-1,3.6-2.1,5c-1.5,2-3.9,3.2-6.4,3.3c-3.7,0-3.6-4.1-3.6-6.8
	c0-1.9,0.3-12.7,1.5-13.6c0.2-0.2,0.4-0.3,0.4-0.5c0-0.3-0.4-0.4-0.7-0.5C525.5,70.9,524.3,70.6,523,70.4L523,70.4z M570.7,76.3
	c0,0.2,0.1,0.4,0.3,0.5c3.2,2.5,4.6,5.7,5,9.7c0.1,0.8,0,1.3,1.1,1.3c0.6,0,1.3-0.1,1.9-0.3c0.6-0.2,0.9-0.3,0.9-1
	c-0.2-2.5-0.9-4.9-2-7.1c-1.6-3.1-4.5-5.3-5.2-5.3C572.1,74.1,570.7,75.6,570.7,76.3L570.7,76.3z M555.4,74.1
	c-0.2,0-0.4,0.1-0.5,0.4c0,0,0,0,0,0c-0.1,0.3-0.2,4.6-0.2,5.2c0,3.6,0.3,7.9,2,11.1c1.1,2.1,3.1,4.4,5.6,4.4c1.6,0,2.7-1,3.6-2.1
	c0.5-0.5,2-2.3,2-3c0-0.6-1.7-2-2.4-2c-0.4,0-0.7,0.5-0.9,0.9c-0.4,0.7-1.4,2.2-2.3,2.2c-1.2,0-2.3-2-2.7-3
	c-0.8-2.3-1.2-4.7-1.1-7.1c0-1.2,0.1-2.4,0.3-3.6c0.1-0.6,0.1-1.3,0.6-1.6c0.2-0.2,0.3-0.2,0.3-0.4c0-0.3-0.5-0.4-0.7-0.5
	C558.3,74.7,555.8,74.1,555.4,74.1L555.4,74.1z M611.8,73.1c-0.6,0-2.6,1.2-2.6,1.8c0,0.2,0.1,0.4,0.3,0.6c2,2.1,3.5,4.6,4.6,7.3
	c0.2,0.3,0.3,0.8,0.8,0.8c0.7,0,2.8-1.3,2.8-2C617.7,80.7,613,73.1,611.8,73.1z M599.4,69.7c-0.4,0-0.4,0.4-0.4,0.7
	c0,0.4,0,0.8,0,1.2c0,1.5-0.1,2.9-0.3,4.4c-0.1,0.7-0.4,0.9-1.1,1c-1.9,0.5-3.7,0.8-5.6,1.1c-0.4,0-1,0-1,0.5c0,0.2,0.6,3.5,1.4,3.5
	c0.2,0,0.5-0.1,0.7-0.2c1.3-0.5,2.6-0.9,3.9-1.2c0.2,0,0.4,0.2,0.4,0.4c0,0,0,0,0,0.1c-0.2,0.9-0.5,1.7-0.8,2.5
	c-1.4,3.5-3.4,6.8-6.1,9.5c-0.3,0.2-0.4,0.5-0.5,0.8c0,0.8,2.2,2.1,2.8,2.1c0.2,0,0.5-0.2,0.6-0.3c1.3-1.5,2.4-3.2,3.4-4.9
	c1.9-3.2,3.3-6.6,4.3-10.1c0.2-1,0.6-1.2,2.5-1.2c2,0,2.1,1.4,2.1,3.1c0,2.6-0.5,5.2-1.5,7.7c-0.9,1.7-1.7,2.1-3.5,2.1
	c-0.7,0-1.3-0.1-1.6-0.1s-0.4,0.2-0.4,0.6c0.1,0.8,0.3,1.6,0.6,2.4c0.3,0.6,0.9,0.9,1.6,0.8c2.7,0.1,5.2-1.3,6.4-3.7
	c1.5-2.7,2-7.3,2-10.4c0-1.9-0.4-3.8-2.1-4.9c-1.2-0.6-2.5-0.9-3.9-0.8c-0.1,0-0.3,0-0.4,0c-0.4,0-0.7-0.2-0.7-0.6c0,0,0-0.1,0-0.1
	c0-0.1,0-0.3,0.1-0.4c0.1-0.6,0.2-1.1,0.2-1.5c0.2-1.2,0.3-1.7,0.9-2.2c0.1-0.1,0.3-0.2,0.3-0.4c0-0.4-0.6-0.5-0.9-0.5
	C602.4,70.4,599.8,69.7,599.4,69.7L599.4,69.7z M632.8,75.2c-0.5,0-0.6,0.5-0.6,1.5c0,0.2,0,0.5,0,0.7c-0.1,2.5-0.4,5-0.8,7.4
	c-0.2,1.1-0.5,2.2-0.8,3.3c-0.2,0.4-0.3,0.8-0.3,1.2c0,1,2.3,1.3,2.6,1.3c0.5,0,0.7-0.4,1-0.7c2.1-2.7,5.7-5.7,9.3-5.7
	c2.2,0,4.1,1.3,4.1,3.6c0,2.9-2.5,3.9-4.9,4.6c-1.5,0.4-3,0.6-4.5,0.7c-0.4,0-0.9,0.1-0.9,0.6c0.1,0.8,0.3,1.5,0.6,2.2
	c0.3,0.6,0.5,1,1.3,1c1.5-0.2,3-0.5,4.4-0.9c4.1-1.2,7.7-3.3,7.7-8.1c0-4.3-3.2-7.1-7.4-7.1c-3.2,0-5.3,1.4-7.8,3.1
	c-0.1,0.1-0.3,0.2-0.4,0.2c-0.2,0-0.3-0.2-0.3-0.4c0-0.2,0.1-0.5,0.1-0.7c0.3-1.6,0.5-3.2,0.8-4.7c0.1-0.7,0.2-1,0.7-1.3
	c0.1-0.1,0.3-0.2,0.3-0.4c0-0.3-0.4-0.4-0.6-0.5C635.2,75.7,634,75.4,632.8,75.2L632.8,75.2z M635,71.3c0,0.4,0.4,0.5,0.8,0.7
	c1.5,0.8,2.9,1.8,4.3,2.9c0.3,0.2,0.7,0.7,1.1,0.7c0.7,0,2.1-2.1,2.1-2.7c0-0.6-2-1.7-2.5-2c-0.6-0.4-3.4-2.1-3.9-2.1
	C636.1,68.8,635,70.8,635,71.3L635,71.3z"/>
</svg>
