<?xml version="1.0" encoding="utf-8"?>
<!-- Generator: Adobe Illustrator 24.2.0, SVG Export Plug-In . SVG Version: 6.00 Build 0)  -->
<svg version="1.1" id="レイヤー_1" xmlns="http://www.w3.org/2000/svg" xmlns:xlink="http://www.w3.org/1999/xlink" x="0px"
	 y="0px" viewBox="0 0 368 88" style="enable-background:new 0 0 368 88;" xml:space="preserve">
<path id="パス_728" d="M8.9,15.7c0-0.6-1.7-1.5-2.2-1.5c-0.3,0-0.4,0.1-0.5,0.4c-1,2.9-2.4,5.8-4,8.5c-0.1,0.2-0.7,1.1-0.7,1.2
	c0,0.2,0.5,0.6,0.9,0.8c0.2,0.1,0.4,0.3,0.6,0.4c0.4,0.3,0.8,0.5,1.3,0.7c0.2,0,0.3-0.2,0.3-0.4s-0.1-0.4-0.1-0.5
	c0-0.3,0.1-0.5,0.3-0.7c1.4-2.6,2.7-5.2,3.7-7.9C8.7,16.3,8.8,16,8.9,15.7z M8.3,6.6c0-0.4-1.6-2.1-1.9-2.5C5.8,3.5,5,2.8,4.4,2.3
	C4.3,2.1,4.1,2,3.9,2c-0.5,0-2,1.2-2,1.7c0,0.2,0.3,0.4,0.4,0.6c1.1,1,2.1,2.1,3.1,3.2c0.3,0.3,0.5,0.7,0.9,0.7
	C6.8,8.3,8.3,7.1,8.3,6.6z M19.4,10.9c0-0.4,0.3-0.7,0.7-0.7c0,0,0,0,0.1,0h2.4c0.4,0,0.7,0.3,0.7,0.6c0,0,0,0,0,0.1V11
	c0,0.4-0.2,0.7-0.6,0.7c0,0,0,0-0.1,0h-2.4c-0.4,0-0.7-0.3-0.7-0.7c0,0,0,0,0-0.1V10.9z M15.8,10.2c0.4,0,0.7,0.3,0.7,0.7
	c0,0,0,0,0,0.1V11c0,0.4-0.3,0.7-0.7,0.7c0,0,0,0-0.1,0h-2.4c-0.4,0-0.7-0.3-0.7-0.6c0,0,0,0,0-0.1v-0.1c0-0.4,0.2-0.7,0.6-0.7
	c0,0,0,0,0.1,0H15.8z M20.2,15.7c-0.5,0-0.7-0.2-0.7-0.7v-0.3c0-0.5,0.2-0.7,0.7-0.7h2.4c0.5,0,0.7,0.2,0.7,0.7V15
	c0,0.5-0.2,0.7-0.7,0.7H20.2z M13.4,15.7c-0.5,0-0.7-0.2-0.7-0.7v-0.3c0-0.5,0.2-0.7,0.7-0.7h2.4c0.5,0,0.7,0.2,0.7,0.7V15
	c0,0.5-0.2,0.7-0.7,0.7H13.4z M13.8,7.8c-0.8,0-1.6-0.1-2.4-0.1c-1,0-1.5,0.3-1.5,1.4c0,0.7,0,1.4,0,2.1v4.1c0,0.7-0.1,1.4-0.1,2.1
	c0,1,0.6,1,1.4,1c0.4,0,0.8,0,1.1-0.2c0.1-0.1,0.3-0.1,0.4-0.1h1c0.2,0,0.4,0.1,0.4,0.3c0,0.1,0,0.2-0.1,0.3
	c-1.7,1.9-3.6,3.5-5.8,4.8c-0.6,0.4-1,0.6-1,0.9c0,0.7,1.2,2,1.9,2c0.4-0.1,0.7-0.2,1-0.4c2.2-1.4,4.2-3.2,5.9-5.3
	c0.1-0.1,0.1-0.1,0.2-0.1c0.2,0,0.3,0.1,0.3,0.3v1.4c0,1.5-0.1,3-0.1,4.5c0,0.9,0.3,0.9,1.6,0.9s1.6,0,1.6-0.9c0-1.5-0.1-3-0.1-4.5
	v-1.5c0-0.2,0.1-0.3,0.3-0.3c0.1,0,0.2,0,0.2,0.1c1.2,1.4,2.6,2.7,4.1,3.9c0.5,0.4,2.2,1.7,2.8,1.7c0.9-0.3,1.6-1,1.9-2
	c0-0.3-0.3-0.5-0.6-0.6c-2.3-1.3-4.3-3-6.1-4.9c-0.1-0.1-0.1-0.2-0.1-0.3c0-0.2,0.2-0.3,0.4-0.3h0.9c0.1,0,0.3,0.1,0.4,0.1
	c0.3,0.2,0.7,0.2,1.1,0.2c0.8,0,1.5,0,1.5-1c0-0.7-0.1-1.4-0.1-2.1v-4.1c0-0.7,0-1.4,0-2.2c0-1.1-0.5-1.3-1.5-1.3
	c-0.8,0-1.6,0.1-2.4,0.1h-2.1c-0.5,0-0.7-0.2-0.7-0.7V6.6c0-0.5,0.2-0.7,0.7-0.7h4.5c1,0,2,0.1,3.1,0.1c0.7,0,0.7-0.3,0.7-1.3
	c0-0.9,0-1.3-0.7-1.3c-1,0-2,0.1-3.1,0.1h-4.3c-0.5,0-0.8-0.2-0.8-0.8c0-0.5,0-0.8,0.3-1c0.2-0.1,0.3-0.2,0.3-0.4
	c0-0.4-0.5-0.4-0.7-0.4c-0.6,0-1.9-0.1-2.5-0.1c-0.3,0-0.5,0-0.5,0.4c0,0.1,0,0.2,0,0.3c0.1,0.4,0.1,0.8,0.1,1.2
	c0,0.6-0.3,0.8-0.8,0.8h-3.5c-1,0-2-0.1-3-0.1c-0.7,0-0.7,0.3-0.7,1.3c0,1,0,1.3,0.7,1.3c1,0,2-0.1,3-0.1h3.6c0.5,0,0.7,0.2,0.7,0.7
	v0.5c0,0.5-0.2,0.7-0.7,0.7L13.8,7.8z M37.6,13.7c0,0.6,1.1,2.4,1.9,2.4c0.3,0,0.6-0.1,0.8-0.3c2.5-1.4,6.5-3,9.4-3
	c1.7-0.2,3.2,1.1,3.3,2.7c0,0.1,0,0.2,0,0.3c-0.1,1.9-1.3,3.5-2.9,4.3c-1.6,0.8-3.3,1.3-5.1,1.5c-0.4,0-1,0.1-1,0.6
	c0,0.2,0.4,2.3,1.4,2.3c1.6-0.2,3.1-0.6,4.6-1.3c3.2-1.4,5.9-3.6,5.9-7.4c0-3.6-2.7-5.9-6.2-5.9c-2.8,0-6,1.2-8.6,2.2
	c-0.9,0.4-1.8,0.7-2.8,0.9C37.9,13.2,37.6,13.4,37.6,13.7z M79,20.7c-0.5,0-1.9,1.8-1.9,2.2c0,0.6,1,1.4,1.5,1.7
	C80.3,25.7,83,26,85,26c1.6,0,3.1-0.1,4.7-0.4c0.4-0.2,0.3-0.9,0.3-1.5c0-1.2,0-1.9-0.5-1.9c-0.1,0-0.2,0-0.3,0.1
	c-1.4,0.4-2.8,0.6-4.3,0.6c-1.8,0-4.1-0.3-5.4-1.7C79.4,20.9,79.2,20.7,79,20.7z M81.2,13.8c0,0.5,0.2,0.7,0.8,0.7
	c0.4,0,0.8,0,1.1,0c1.6,0,3.2,0.2,4.8,0.8c0.2,0.1,0.4,0.1,0.6,0.1c0.3,0,0.4-0.1,0.5-0.4c0.3-0.7,0.5-1.4,0.6-2.1
	c0-0.3-0.2-0.5-0.4-0.6c-2-0.6-4-0.8-6-0.8C81.8,11.4,81.2,11.2,81.2,13.8z M77.3,1C77,1,77,1.3,77,1.8c-0.2,1.9-0.6,3.7-1.1,5.5
	c-0.3,0.5-0.7,0.5-2.6,0.5c-1.3,0-2.6-0.1-2.8-0.1c-0.4,0-0.4,0.2-0.4,0.5c0,0.7,0.1,1.5,0.2,2.2c0.2,0.6,0.7,0.5,1.3,0.5
	c0.9,0,2.2-0.1,2.7-0.1c0.3,0,0.5,0.1,0.5,0.4c-0.1,0.3-0.1,0.5-0.2,0.8c-1.4,3.9-3.2,7.6-5.3,11.1c-0.3,0.3-0.4,0.6-0.5,1
	c0,0.7,2.1,1.6,2.6,1.6c0.4,0,0.7-0.4,1.1-1.1c2.2-4.3,4.1-8.7,5.6-13.2c0.3-0.8,0.4-1,1.2-1.2c1.7-0.3,3.3-0.7,4.9-1.2
	c0.5-0.1,0.6-0.6,0.6-1.1c0-0.5,0-2.3-0.6-2.3c-0.2,0-0.4,0.1-0.6,0.1c-1.1,0.5-2.3,0.8-3.5,1.1c-0.2,0-0.4-0.2-0.4-0.4c0,0,0,0,0,0
	c0-0.1,0.6-2.3,0.7-2.7c0.2-0.7,0.2-0.8,0.7-1c0.1-0.1,0.3-0.1,0.3-0.3c0-0.3-0.8-0.5-1.1-0.6C79.6,1.6,77.6,1,77.3,1z M110,20.9
	c0.7,0,1.4,0,1.4,0.6c0,1.6-1.2,2-2.6,2c-0.8,0-2.1-0.2-2.1-1.2C106.8,21,109.1,20.9,110,20.9z M111.1,2.1c-0.3,0-0.4,0.1-0.4,0.4
	c0,0.2,0,0.3,0.1,0.5c0.1,0.5,0.3,2.5,0.3,3c0,0.8-0.8,0.8-3.4,0.8c-1.5,0-4-0.2-4.6-0.2c-0.5,0-0.5,0.4-0.5,0.8
	c0,0.7,0.1,1.5,0.3,2.2c0.2,0.2,0.9,0.3,1.7,0.3h0.9c1.6,0,4-0.1,5.1-0.1c0.8,0,0.8,1.2,0.8,2.1c0,0.7-0.4,0.8-1.5,0.8h-1.3
	c-1.1,0-2.8-0.1-3.2-0.1c-0.4,0-0.5,0.3-0.5,0.6c0,0.7,0.1,1.4,0.4,2.1c0.2,0.5,0.8,0.5,2,0.5c1.3,0,3-0.1,3.6-0.1
	c0.8,0,0.7,1.1,0.7,2.1c0,0.3,0,0.8-0.5,0.8c-0.2,0-0.9-0.1-1.2-0.1c-2.5,0-5.8,1-5.8,4c0,2.8,2.6,3.9,5,3.9c2.4,0,4.8-0.8,5.4-3.3
	c0.1-0.2,0.1-0.7,0.6-0.7c0.6,0,2.6,1.4,3.1,1.8c0.2,0.3,0.6,0.4,0.9,0.5c0.7,0,1.7-1.5,1.7-2.2c0-1.1-4-2.8-4.9-3.1
	c-1.3-0.4-1.4-0.2-1.4-3.3c0-0.8,0.6-0.8,1.7-1c1-0.1,2.1-0.3,3.1-0.5c0.5-0.1,0.6-0.4,0.6-1.4c0-1.1-0.1-1.8-0.5-1.8
	c-0.2,0-0.4,0.1-0.6,0.1c-1.3,0.3-2.5,0.6-3.8,0.7c-0.4,0-0.4-0.3-0.5-0.5c-0.1-0.5-0.1-1.1-0.2-1.6c0-0.8,0.7-0.8,1.3-0.9
	c1.6-0.2,3.4-0.5,5-0.8c0.6-0.1,0.8-0.2,0.8-0.8c0-0.5-0.1-2.5-0.8-2.5c-0.4,0.1-0.8,0.1-1.1,0.2c-1.1,0.3-2.2,0.5-3.3,0.7
	c-0.2,0-1.4,0.2-1.5,0.2c-0.5,0-0.6-0.5-0.6-0.9c0.1-2.4,0.6-1.9,0.6-2.5c0-0.3-0.4-0.4-1.2-0.5C112.9,2.3,111.5,2.1,111.1,2.1z
	 M142.4,20.9c0.7,0,1.4,0,1.4,0.6c0,1.6-1.2,2-2.6,2c-0.8,0-2.1-0.2-2.1-1.2C139.2,21,141.5,20.9,142.4,20.9z M143.5,2.1
	c-0.3,0-0.4,0.1-0.4,0.4c0,0.2,0,0.3,0.1,0.5c0.1,0.5,0.3,2.5,0.3,3c0,0.8-0.8,0.8-3.4,0.8c-1.5,0-4-0.2-4.6-0.2
	c-0.5,0-0.5,0.4-0.5,0.8c0,0.7,0.1,1.5,0.3,2.2c0.2,0.2,0.9,0.3,1.7,0.3h0.9c1.6,0,4-0.1,5.1-0.1c0.8,0,0.8,1.2,0.8,2.1
	c0,0.7-0.4,0.8-1.5,0.8h-1.4c-1.1,0-2.8-0.1-3.2-0.1c-0.4,0-0.5,0.3-0.5,0.6c0,0.7,0.1,1.4,0.4,2.1c0.2,0.5,0.8,0.5,2,0.5
	c1.3,0,3-0.1,3.6-0.1c0.8,0,0.7,1.1,0.7,2.1c0,0.3,0,0.8-0.5,0.8c-0.2,0-0.9-0.1-1.2-0.1c-2.5,0-5.8,1-5.8,4c0,2.8,2.6,3.9,5,3.9
	c2.4,0,4.8-0.8,5.4-3.3c0.1-0.2,0.1-0.7,0.6-0.7c0.6,0,2.6,1.4,3.1,1.8c0.2,0.3,0.6,0.4,0.9,0.5c0.7,0,1.7-1.5,1.7-2.2
	c0-1.1-4-2.8-4.9-3.1c-1.3-0.4-1.4-0.2-1.4-3.3c0-0.8,0.6-0.8,1.7-1c1-0.1,2.1-0.3,3.1-0.5c0.5-0.1,0.6-0.4,0.6-1.4
	c0-1.1-0.1-1.8-0.5-1.8c-0.2,0-0.4,0.1-0.6,0.1c-1.3,0.3-2.5,0.6-3.8,0.7c-0.4,0-0.4-0.3-0.5-0.5c-0.1-0.5-0.1-1.1-0.1-1.6
	c0-0.8,0.7-0.8,1.4-0.9c1.6-0.2,3.4-0.5,5-0.8c0.6-0.1,0.8-0.2,0.8-0.8c0-0.5-0.1-2.5-0.8-2.5c-0.4,0.1-0.8,0.1-1.1,0.2
	c-1.1,0.3-2.2,0.5-3.3,0.7c-0.2,0-1.4,0.2-1.5,0.2c-0.5,0-0.6-0.5-0.6-0.9c0.1-2.4,0.6-1.9,0.6-2.5c0-0.3-0.4-0.4-1.2-0.5
	C145.3,2.3,143.9,2.1,143.5,2.1z M164.8,7c0.1,0.7,0.2,1.5,0.3,2.2c0.1,0.3,0.2,1,0.7,1c0.2,0,0.3,0,0.4-0.1
	c1.9-0.5,4.6-0.9,6.6-1.2c0.3,0,1.7-0.3,1.9-0.3s0.4,0.1,0.4,0.4c0,0.1-0.2,0.4-0.5,0.7c-2.1,2.4-3.3,5.4-3.3,8.6
	c0,5.9,4.4,7.5,9.5,7.5c0.5,0,0.8-0.1,1-0.5c0.3-0.8,0.4-1.6,0.4-2.5c0-0.5-0.2-0.5-0.7-0.5c-0.3,0-1,0-1.5,0
	c-3.1,0-5.3-0.8-5.3-4.3c0-1.9,0.5-3.7,1.4-5.3c1.1-2.1,2.9-3.7,5.1-4.5c1.6-0.5,3.3-0.7,5-0.6c0.7,0,1.4,0,1.4-0.6
	c0-0.7-0.1-1.5-0.3-2.2c-0.1-0.4-0.1-0.8-0.6-0.8c-0.1,0-0.3,0-0.4,0c-2.2,0.4-4.5,0.7-6.8,0.9c-4.4,0.5-8.7,1-13.1,1.2
	C165.2,6.3,164.8,6.2,164.8,7z M187.4,8.7c-0.4,0-1.5,0.8-1.5,1.1c0,0.1,0.1,0.3,0.2,0.4c0.7,0.8,1.4,1.6,1.9,2.5
	c0.1,0.1,0.2,0.4,0.4,0.4c0.4,0,1.5-0.8,1.5-1.3C189.4,10.7,188.5,9.6,187.4,8.7z M183.8,10.4c-0.3,0-1.5,0.8-1.5,1.1
	c0,0.1,0.2,0.3,0.3,0.4c0.7,0.8,1.3,1.6,1.9,2.5c0.1,0.1,0.2,0.4,0.4,0.4c0.3,0,1.5-0.8,1.5-1.3C185.8,12.3,184.9,11.3,183.8,10.4z
	 M208.8,1.7c-0.5-0.2-1-0.4-1.5-0.5c-0.3,0-0.4,0.3-0.4,0.6c-0.2,0.9-0.9,3-1.2,4c-0.1,0.3-0.2,0.7-0.7,0.7c-0.1,0-0.3,0-0.4-0.1
	c-0.7-0.3-1.4-0.7-2-1c-0.2-0.2-0.4-0.3-0.7-0.3c-0.6,0-1.1,2.1-1.1,2.6c0,0.5,0.6,0.8,2.7,1.6c0.4,0.1,1,0.3,1,1
	c0,0.2-0.1,0.4-0.1,0.7c-0.1,0.4-0.2,0.8-0.3,1.2c-0.2,0.9-0.3,1.3-0.8,1.3c-0.7-0.2-1.3-0.4-1.9-0.8c-0.2-0.2-0.5-0.3-0.8-0.3
	c-0.8,0-1.1,2.4-1.1,2.6c0,0.4,0.2,0.5,0.6,0.7c0.6,0.3,1.2,0.5,1.8,0.7c0.7,0.2,1.2,0.4,1.2,1c0,0.3-0.1,1.4-0.1,2.2
	c0,4.6,2.7,7.2,7.2,7.2c4,0,8.3-1.6,8.3-6.3c0-1.8-0.4-3.6-1-5.2c-0.2-0.7-0.3-1.1-0.8-1.1c-0.3,0-2.6,0.4-2.6,1.1
	c0,0.2,0,0.4,0.1,0.5c0.6,1.4,0.9,2.9,1,4.3c0.1,0.8-0.2,1.5-0.7,2.1c-0.9,1-3,1.4-4.4,1.4c-2.6,0-4-1.4-4-4c0-1.3,0-2,0.8-2
	c0.2,0,0.3,0,0.5,0.1c0.7,0.1,2.1,0.3,2.8,0.3c0.5,0,0.7-0.2,0.8-0.7c0.2-0.6,0.4-1.3,0.4-2c0-0.3-0.1-0.5-0.9-0.5
	c-0.9,0-1.8,0-2.7-0.1c-0.4,0-1.1-0.1-1.1-0.7c0-0.2,0.4-2.1,0.5-2.5c0.1-0.4,0.3-0.7,0.8-0.7c0.1,0,0.2,0,0.3,0.1
	c1.4,0.2,2.7,0.4,4.1,0.4c0.4,0,0.5-0.2,0.7-0.7c0.2-0.6,0.3-1.3,0.3-2c0-0.6-0.4-0.6-1-0.6c-1,0-2-0.1-3.1-0.2
	c-0.4-0.1-0.8-0.2-0.8-0.7c0-0.1,0-0.3,0.1-0.4c0.2-0.7,0.5-1.5,0.8-2.2c0.4-1.1,0.6-1.1,1.1-1.3c0.1-0.1,0.3-0.2,0.3-0.3
	C210.8,2.3,209.3,1.9,208.8,1.7z M250.8,8.5c-0.7-0.6-1.4-1.2-2.2-1.6c-0.5,0-1.8,1.5-1.8,2c0,0.3,0.3,0.6,0.5,0.7
	c1.4,1,2.7,2.2,4,3.4c0.2,0.2,0.4,0.3,0.7,0.4c0.6,0,1.9-1.5,1.9-2c0-0.3-1.5-1.6-2.3-2.2C251.2,8.9,251,8.6,250.8,8.5z M236.6,20.3
	c0,0.1,0,0.3,0,0.4c0,0.1,0.1,1.3,0.1,1.3c0,0.1,0,0.2-0.2,0.2c-0.1,0-0.3-0.1-0.4-0.2c-0.5-0.4-1-0.7-1.5-0.9
	c-0.3,0-0.6,0.3-0.7,0.6c0,0.2,0.2,0.4,0.4,0.6c0.8,0.6,1.4,1.4,1.8,2.3c0.2,0.5,0.4,1.1,1.1,1.1c0.8,0,2.6-0.7,2.6-2.2
	c0-0.3-0.2-3-0.3-3.6c0-0.4-0.1-1.6-0.1-2c0-0.4,0.2-0.7,0.5-0.9c1.6-0.9,3.4-1.4,5.3-1.4c1.7,0,3.6,0.9,3.6,2.8
	c0,2.2-2.6,2.8-4.3,2.8c-0.8,0-1.6-0.1-2.5-0.3c-0.4,0-0.5,0.4-0.5,0.8c0,0.7,0.2,1.5,0.5,2.2c0.1,0.3,0.8,0.3,1.3,0.3h0.4
	c1.8,0,4.5-0.3,6-1.4c1.5-1,2.4-2.7,2.4-4.5c0-3.6-3.2-5.7-6.5-5.7c-1.7,0-3.4,0.4-5,1c-0.2,0.1-0.5,0.2-0.8,0.3
	c-0.4,0-0.4-0.7-0.4-1.2v-0.4c0-1.4,0.1-1.6,1.2-1.8c2.3-0.4,2.8-0.4,2.8-1.2c0-0.5-0.1-2.5-0.8-2.5c-0.2,0-0.3,0.1-0.5,0.1
	c-0.3,0.1-1.7,0.5-1.9,0.5c-0.3,0-0.5-0.2-0.5-0.5c0-0.1,0-0.3,0-0.4c0-0.3,0.1-0.5,0.1-0.7c0.1-0.9,0.1-1.3,0.6-1.6
	c0.1-0.1,0.3-0.3,0.3-0.5c0-0.3-0.4-0.4-0.6-0.4C239.5,3.4,237.5,3,237,3c-0.3,0-0.4,0.2-0.4,0.5c0,0.1,0.1,0.8,0.1,1.4
	c0,0.8,0,1.7-0.1,2.5c0,0.3,0,0.6-0.2,0.9c-0.3,0.3-0.7,0.4-1.1,0.4c-0.9,0.1-2,0.2-2.9,0.2c-0.6,0-0.6,0.1-0.6,1
	c0,2.2,0.5,2.2,0.9,2.2c0.4,0,2.5-0.4,3.1-0.5c0.1,0,0.1,0,0.2,0c0.4,0,0.7,0.3,0.7,0.6c0,0,0,0,0,0v0.3c0,0.4,0,0.9,0,1.4v1
	c0,0.9-0.1,1-1.3,1.6c-1.6,1-3.2,2.1-4.9,3.1c-0.4,0.2-0.7,0.3-0.7,0.6c0,0.6,1.2,2.8,1.8,2.8c0.2,0,0.3-0.1,0.4-0.2
	c1.4-1.2,2.9-2.3,4.4-3.3C236.6,19.5,236.6,19.8,236.6,20.3z M277.5,8.2c0,0.2,0.1,0.4,0.3,0.5c2.7,2.1,4.3,5.2,4.4,8.6
	c0.1,0.7,0,1.1,1,1.1c0.6,0,1.1-0.1,1.7-0.3c0.5-0.2,0.8-0.3,0.8-0.9c-0.2-2.2-0.8-4.3-1.8-6.2c-1.4-2.8-4-4.6-4.6-4.6
	C278.7,6.3,277.5,7.6,277.5,8.2z M264,6.2c-0.2,0-0.4,0.1-0.4,0.3c0,0,0,0,0,0c-0.1,0.3-0.1,4.1-0.1,4.6c0,3.2,0.2,7,1.7,9.8
	c1,1.8,2.7,3.8,5,3.8c1.3-0.1,2.5-0.8,3.2-1.9c0.4-0.5,1.8-2,1.8-2.6c0-0.5-1.5-1.8-2.2-1.8c-0.4,0-0.6,0.4-0.8,0.8
	c-0.4,0.7-1.2,2-2.1,2c-1,0-2-1.8-2.4-2.6c-0.7-2-1-4.1-1-6.3c0-1.1,0.1-2.1,0.2-3.2c0.1-0.5,0.1-1.1,0.5-1.4
	c0.2-0.1,0.3-0.2,0.3-0.4c0-0.3-0.4-0.4-0.7-0.4C266.6,6.8,264.4,6.2,264,6.2z M303.5,1.9c-0.5,0-0.5,0.7-0.5,1.1
	c-0.1,1.3-0.3,2.6-0.6,3.8c-0.3,0.6-0.6,0.7-2.7,0.7c-1.2,0-3-0.1-3.4-0.1c-0.1,0-0.6,0-0.6,0.8c0,0.7,0.1,1.3,0.3,2
	c0.1,0.4,0.4,0.6,0.8,0.6c0.6,0,2.9-0.3,3.6-0.3c0.2,0,0.5,0,0.6,0c0.2,0,0.5,0.1,0.5,0.4c0,0,0,0,0,0.1c0,0.3-0.1,0.5-0.1,0.8
	c-0.4,1.7-1,3.4-1.6,5c-0.2,0.4-0.4,0.9-0.4,1.3c0,0.8,1.7,1.7,2.4,1.7c0.4,0,0.6-0.4,0.8-0.7c1.8-2.2,4.4-3.6,7.3-3.8
	c1.6,0,2.9,1.3,3,2.9c0,0.1,0,0.2,0,0.2c0,4-4.8,4.9-7.9,4.9c-1.1,0-2-0.2-2.4-0.2c-0.3,0-0.6,0.2-0.6,0.6c0,0,0,0,0,0.1
	c0.1,0.7,0.2,1.3,0.4,2c0.2,0.6,0.3,0.8,1.3,0.8c2.1,0,4.2-0.3,6.3-0.8c3.5-0.9,6.1-3.2,6.1-7c0-3.7-2.4-6.2-6.1-6.2
	c-1.9,0-3.7,0.6-5.2,1.6c-0.1,0.1-0.2,0.1-0.3,0.1c-0.2,0-0.3-0.1-0.3-0.3c0-0.2,0-0.4,0.1-0.5c0.2-0.7,0.3-1.2,0.4-1.6
	c0.4-1.4,0.4-1.6,1.4-1.7c1.7-0.2,5.2-0.7,6.8-1c0.8-0.1,1.1-0.2,1.1-0.7c0-0.6-0.1-1.3-0.3-1.9c-0.1-0.4-0.2-0.8-0.6-0.8
	c-0.3,0-0.6,0.1-0.8,0.2c-1.9,0.6-3.8,1.1-5.8,1.3c-0.3,0-0.5-0.2-0.5-0.4c0,0,0,0,0,0c0-0.3,0.1-0.5,0.2-0.8
	c0.1-0.2,0.1-0.4,0.2-0.6c0.1-0.5,0.3-0.9,0.6-1.2c0.2-0.1,0.3-0.3,0.3-0.5C306.9,2.8,303.8,1.9,303.5,1.9z M342.3,8.2
	c0,0.2,0.1,0.4,0.3,0.5c2.7,2.1,4.3,5.2,4.4,8.5c0.1,0.7,0,1.1,1,1.1c0.6,0,1.1-0.1,1.7-0.3c0.5-0.1,0.8-0.3,0.8-0.9
	c-0.2-2.2-0.8-4.3-1.8-6.2c-1.4-2.8-4-4.7-4.6-4.7C343.5,6.3,342.3,7.6,342.3,8.2z M328.8,6.2c-0.2,0-0.4,0.1-0.4,0.3c0,0,0,0,0,0
	c-0.1,0.3-0.1,4.1-0.1,4.6c0,3.2,0.2,7,1.7,9.8c1,1.8,2.7,3.8,5,3.8c1.3-0.1,2.5-0.8,3.2-1.9c0.4-0.5,1.8-2,1.8-2.6
	c0-0.5-1.5-1.8-2.2-1.8c-0.4,0-0.6,0.4-0.8,0.8c-0.4,0.7-1.2,2-2.1,2c-1,0-2-1.8-2.4-2.6c-0.7-2-1-4.1-1-6.3c0-1.1,0.1-2.1,0.2-3.2
	c0.1-0.5,0.1-1.1,0.5-1.4c0.2-0.1,0.3-0.2,0.3-0.4c0-0.3-0.4-0.4-0.7-0.4C331.4,6.8,329.2,6.2,328.8,6.2z M358.6,21.4
	c0,0.3,0.3,0.5,0.5,0.6c1.7,1.1,3.3,2.5,4.6,4.1c0.1,0.2,0.4,0.4,0.6,0.4c0.7,0,2.2-1.6,2.2-2.3c0-0.8-5.2-4.9-5.9-4.9
	C359.7,19.7,359,20.5,358.6,21.4z M9.7,65.2c-1.3,0-2.6-0.1-3.9-0.1C5,65.1,5,65.5,5,66.8c0,1.3,0,1.6,0.9,1.6
	c1.3,0,2.5-0.1,3.8-0.1h10.6c0.5,0,1,0.1,1,0.6c0,0.2,0,0.5-0.1,0.7c-0.5,3.4-2.2,6.6-4.9,8.8c-2.2,1.8-4.7,3.2-7.5,4
	c-0.3,0.1-0.5,0.1-0.5,0.5c0,0.5,1.1,2.5,1.8,2.5c0.3,0,0.7-0.1,1-0.3c2-0.8,4-1.8,5.8-3.1c4.9-3.4,7-7.4,8-13.2
	c0.2-1.3,0.5-1.6,0.5-1.9s-1.3-1.9-2-1.9c-0.1,0-0.4,0.1-0.5,0.1c-0.6,0.1-2.1,0.1-2.7,0.1L9.7,65.2z M53.1,68.9
	c0.5,0,0.9,0.3,0.9,0.8c0,0,0,0,0,0.1v8.8c0,0.5-0.4,0.9-0.9,0.9h0H41.5c-0.5,0-0.9-0.4-0.9-0.9v0v-8.8c0-0.5,0.4-0.9,0.9-0.9
	c0,0,0,0,0,0L53.1,68.9z M41.6,65.8c-0.8,0-1.7,0-2.5,0c-1.2,0-1.8,0.3-1.8,1.6c0,0.9,0,1.8,0,2.7v10.2c0,1-0.1,2.1-0.1,3.2
	c0,1.1,0.2,1.1,1.7,1.1c1.8,0,1.7-0.2,1.7-1c0.1-0.9,0.5-0.9,1.5-0.9h10.4c1,0,1.4,0,1.4,0.9c0.1,0.8,0,1,1.7,1c1.4,0,1.7,0,1.7-1.1
	c0-1-0.1-2.1-0.1-3.2V70c0-0.9,0-1.8,0-2.7c0-1.4-0.7-1.6-1.9-1.6c-0.8,0-1.6,0-2.3,0H41.6z M72.8,72.2c-1.3,0-3.3-0.1-3.7-0.1
	c-0.8,0-0.8,0.2-0.8,1.9c0,0.9,0,1.5,0.8,1.5c1.3,0,2.5-0.1,3.8-0.1h13.8c1.2,0,2.5,0.1,3.8,0.1c0.8,0,0.8-0.6,0.8-1.5
	c0-1.6,0-1.9-0.8-1.9c-0.4,0-2.3,0.1-3.7,0.1H72.8z M120.5,62.6c-0.4,0-1.5,0.9-1.5,1.2c0,0.2,0.2,0.3,0.3,0.4
	c0.7,0.7,1.3,1.4,1.9,2.1c0.3,0.3,0.5,0.6,0.7,0.6c0.4,0,1.4-0.9,1.4-1.4C122.6,64.4,121.6,63.4,120.5,62.6z M123.5,60.6
	c-0.3,0-1.4,0.9-1.4,1.3c0,0.2,0.2,0.3,0.3,0.4c0.8,0.7,1.5,1.5,2.2,2.3c0.1,0.1,0.2,0.3,0.4,0.3c0.4,0,1.4-0.9,1.4-1.4
	C125.5,62.4,124.6,61.4,123.5,60.6z M108,65.6c-1.3,0-2.6-0.1-3.9-0.1c-0.8,0-0.7,0.5-0.7,1.6c0,1.2-0.1,1.7,0.8,1.7
	c1.3,0,2.6-0.1,3.8-0.1h6.1c0.4,0,1,0.1,1,0.5c-0.1,0.3-0.2,0.6-0.4,0.9c-2.9,4.7-8.2,9.5-13.4,11.5c-0.3,0.1-0.7,0.3-0.7,0.7
	c0,0.5,1.4,2.5,2,2.5c0.4-0.1,0.8-0.2,1.2-0.4c2.7-1.3,5.2-3.1,7.5-5.2c0.3-0.3,0.7-0.7,1.1-0.7c0.2,0,0.5,0.1,0.7,0.3
	c2.5,1.7,4.7,3.7,6.7,5.9c0.2,0.3,0.4,0.4,0.7,0.5c0.7,0,2.3-1.8,2.3-2.4c0-0.2-0.1-0.3-0.2-0.4c-0.7-0.7-1.4-1.3-2.2-2
	c-1.6-1.4-3.3-2.7-5.1-3.9c-0.3-0.1-0.4-0.4-0.4-0.7c0-0.2,0.1-0.4,0.3-0.6c1.2-1.5,2.3-3,3.3-4.6c0.4-0.7,0.9-1.5,1.3-2.1
	c0.1-0.2,0.5-0.6,0.5-0.9c0-0.4-1.3-2-1.9-2c-0.2,0-0.4,0-0.7,0.1c-0.4,0.1-1.7,0.1-2.2,0.1H108z M155,68.4c-0.2,0-0.4,0.2-0.5,0.3
	c-4.3,5.4-11.8,11.1-18.4,13c-0.4,0.1-0.9,0.2-0.9,0.5c0.2,0.6,0.5,1.2,0.9,1.8c0.2,0.4,0.8,1.6,1.2,1.6c0.1,0,0.2-0.1,0.3-0.2
	c0.2-0.5,0.3-0.5,1.3-1c6.1-2.7,11.6-6.5,16.3-11.3c0.4-0.4,1.6-1.6,1.6-2.1C156.7,70.7,155.6,68.4,155,68.4z M137.3,63.6
	c-0.7,0-1.9,1.9-1.9,2.4c0,0.3,0.2,0.4,0.5,0.6c1.4,0.8,2.7,1.8,4,2.8c0.3,0.4,0.7,0.6,1.2,0.8c0.6,0,2-1.6,2-2.3
	c0-0.4-1.4-1.4-1.8-1.7C140.6,65.7,137.8,63.6,137.3,63.6L137.3,63.6z M185.3,62.3c-0.3,0-1.5,0.9-1.5,1.2c0,0.2,0.1,0.3,0.3,0.4
	c0.7,0.7,1.4,1.6,2.1,2.4c0.1,0.1,0.2,0.4,0.4,0.4c0.4,0,1.5-0.9,1.5-1.3C187.3,64.1,186.4,63.1,185.3,62.3L185.3,62.3z M182.2,64.4
	c-0.3,0-1.5,0.8-1.5,1.2c0,0.1,0.1,0.3,0.3,0.4c0.7,0.8,1.4,1.6,2,2.4c0.1,0.1,0.3,0.3,0.4,0.3c0.4,0,1.5-0.9,1.5-1.3
	C184.2,66.2,183.3,65.2,182.2,64.4L182.2,64.4z M177,71c-0.1,0.1-0.2,0.1-0.3,0.1c-0.1,0-0.2-0.1-0.2-0.3v-4.5c0-0.8,0-1.3,0-1.8
	c-0.1-0.6,0-1.1,0.3-1.6c0.1-0.1,0.1-0.2,0.1-0.4c0-0.4-1.2-0.5-2.6-0.7c-0.2,0-0.8-0.1-1-0.1c-0.3,0-0.4,0.2-0.4,0.5
	c0,0.1,0,0.4,0,0.5c0,0.8,0.1,1.6,0.1,2.3v17.1c0,1.3-0.1,2.7-0.1,4.1c0,1,0.5,1,1.7,1c1.8,0,1.9-0.2,1.9-1.6c0-1.2-0.1-2.4-0.1-3.6
	v-8.2c0-0.2,0.1-0.5,0.4-0.5c0.1,0,0.2,0,0.3,0.1c1.5,1.1,3,2.2,4.4,3.5c0.2,0.2,0.4,0.3,0.7,0.4c0.6,0,2-1.6,2-2.1
	c0-0.5-1.7-1.8-2.1-2.2c-0.6-0.5-3.6-2.9-4.2-2.9C177.5,70.4,177.2,70.8,177,71L177,71z M202.1,72.2c-1.3,0-3.3-0.1-3.7-0.1
	c-0.8,0-0.8,0.2-0.8,1.9c0,0.9,0,1.5,0.8,1.5c1.3,0,2.5-0.1,3.8-0.1h13.8c1.2,0,2.5,0.1,3.8,0.1c0.8,0,0.8-0.6,0.8-1.5
	c0-1.6,0-1.9-0.8-1.9c-0.4,0-2.3,0.1-3.7,0.1H202.1z M233.8,69.8c-1.2,0-2.9-0.1-3.8-0.1c-0.8,0-0.8,0.4-0.8,1.6
	c0,1.3,0.1,1.7,0.8,1.7c1,0,2.5-0.1,3.8-0.1h5.9c0.4,0,0.7,0.3,0.7,0.8c0,0.3-0.1,0.5-0.1,0.8c-0.7,4.1-3.4,7.7-7.3,9.3
	c-0.2,0.1-0.8,0.3-0.8,0.6c0.5,1,1.4,1.8,2.5,2.2c0.9-0.4,1.8-0.9,2.6-1.5c3.6-2.6,5.9-6.7,6.3-11.1c0.1-0.5,0.3-1,0.9-1h4.3
	c1.3,0,2.6,0.1,3.9,0.1c0.6,0,0.8-0.3,0.8-1.6c0-1.4,0-1.7-0.8-1.7c-1.3,0-2.6,0.1-4,0.1h-4c-0.6,0-0.9-0.5-0.9-1.1c0-1.3,0-2.6,0-4
	v-0.5c0-0.5,0-0.7,0.3-1c0.1-0.1,0.1-0.2,0.1-0.3c0-0.2-0.3-0.3-0.4-0.4c-0.4-0.1-2.7-0.3-3.1-0.3c-0.1,0-0.3,0.1-0.3,0.2
	c0,0,0,0,0,0.1c0,0.1,0,0.3,0,0.4c0.1,0.5,0.1,4.3,0.1,5v0.4c0,0.7-0.1,1.4-0.9,1.4L233.8,69.8z M265.9,72.1c-1.3,0-3-0.1-3.8-0.1
	c-0.8,0-0.8,0.5-0.8,1.8c0,1,0,1.5,0.8,1.5c1,0,2.4-0.1,3.8-0.1h6.1c0.3,0,0.5,0.2,0.5,0.5c0,0,0,0,0,0c-0.1,0.5-0.3,1-0.5,1.5
	c-1.4,3.4-3.5,5.1-6.7,6.8c-0.3,0.2-0.7,0.3-0.7,0.6c0.5,1,1.3,1.7,2.3,2.1c0.6,0,2.9-1.7,3.5-2.1c2.6-2,4.4-4.8,5.3-8
	c0.2-0.8,0.4-1.3,1.3-1.3h4.5c1.3,0,2.6,0,3.9,0c0.8,0,0.8-0.4,0.8-1.5c0-1.3,0-1.7-0.8-1.7c-1.1,0-2.5,0.1-3.9,0.1h-4.3
	c-0.5,0-0.7-0.4-0.7-0.8c0-0.5,0-1.1,0-1.7c0-0.5-0.1-1.1-0.1-1.7c0-0.5,0.4-0.7,0.8-0.8c0.6-0.1,1.3-0.3,1.9-0.5
	c0.5-0.2,2.5-0.8,2.9-0.8c0.1,0,0.2,0,0.3,0c0.1,0,0.2,0,0.3,0c0.2,0,0.4-0.1,0.4-0.3c0-0.4-1.2-1.5-1.5-1.8c-0.2-0.2-0.9-1-1.2-1
	c-0.2,0-0.4,0.1-0.5,0.2c-1.3,0.6-2.6,1.1-4,1.4c-3,0.6-6.1,1-9.1,1c-0.5,0-1.1-0.1-1.4-0.1c-0.4,0-0.6,0.2-0.6,0.5
	c0.1,0.7,0.3,1.3,0.6,1.9c0.2,0.6,0.4,0.7,1,0.7c2.1,0,6.1-0.4,6.3-0.4c0.7,0,0.7,0.6,0.7,2.1c0,0.9,0,2-0.9,2H265.9z M303.7,70.5
	c-1.2,0-2.5,0-3,0c-0.7,0-0.7,0.6-0.7,1.3c0,1,0,1.5,0.7,1.5c0.8,0,1.9-0.1,2.9-0.1h4.2c0.4,0,0.8,0.2,0.8,0.6
	c0,0.1-0.1,0.5-0.1,0.6l-0.6,5.2c-0.1,0.4-0.4,0.7-0.8,0.7H300c-0.8,0-2.4-0.1-2.9-0.1c-0.7,0-0.8,0.5-0.8,1.6c0,0.6,0,1.3,0.8,1.3
	c0.7,0,1.9-0.1,2.9-0.1h12.3c1,0,2,0.1,2.9,0.1c0.8,0,0.8-0.5,0.8-1.4c0-1,0-1.5-0.8-1.5c-1,0-2,0.1-3,0.1h-0.8
	c-0.4,0-0.6-0.3-0.6-0.6c0,0,0-0.1,0-0.1l0.6-5.5c0-0.2,0.1-0.8,0.2-1.4c0.1-0.4,0.1-0.6,0.1-0.8c0-0.7-1-1.5-1.7-1.5
	c-0.1,0-0.3,0-0.4,0c-0.3,0-0.7,0-1,0H303.7z M330.1,79.9c1.5,0,2.7,1.1,2.7,2.6c0,0,0,0,0,0.1c0,1.5-1.2,2.7-2.7,2.7
	c-1.5,0-2.7-1.2-2.7-2.7C327.4,81.1,328.6,79.9,330.1,79.9z M330.1,78.4c-2.3,0-4.2,1.9-4.2,4.2c0,2.3,1.9,4.2,4.2,4.2
	c2.3,0,4.2-1.9,4.2-4.2C334.2,80.2,332.4,78.4,330.1,78.4C330.1,78.4,330.1,78.4,330.1,78.4z"/>
</svg>
