<?xml version="1.0" encoding="utf-8"?>
<!-- Generator: Adobe Illustrator 24.2.0, SVG Export Plug-In . SVG Version: 6.00 Build 0)  -->
<svg version="1.1" id="レイヤー_1" xmlns="http://www.w3.org/2000/svg" xmlns:xlink="http://www.w3.org/1999/xlink" x="0px"
	 y="0px" viewBox="0 0 318 90" style="enable-background:new 0 0 318 90;" xml:space="preserve">
<path id="パス_730" d="M10.8,6.9c0-0.5-1.8-1.8-2.2-2.2C7.7,4,6.8,3.4,5.8,2.9c-0.5,0-1.6,1.5-1.6,2c0,0.3,0.4,0.5,0.6,0.6
	C6,6.3,7.2,7.2,8.3,8.2c0.2,0.2,0.6,0.6,0.9,0.6C9.7,8.8,10.8,7.3,10.8,6.9z M10.4,17c0-0.7-1.9-1.4-2.2-1.4c-0.3,0-0.4,0.3-0.5,0.8
	c-1.1,3.1-2.4,6-4.1,8.8c-0.1,0.1-0.2,0.3-0.2,0.5c0,0.3,0.9,0.9,1.5,1.3C5.1,27,5.7,27.5,6,27.5c0.2,0,0.3-0.2,0.3-0.3c0,0,0,0,0,0
	c0-0.2-0.1-0.4-0.1-0.6c0-0.2,0.1-0.4,0.2-0.6c1.5-2.5,2.7-5.2,3.6-8C10.2,17.6,10.3,17.3,10.4,17z M16.8,23.8
	c0,1.3-0.1,2.6-0.1,3.9c0,0.9,0.4,0.9,1.6,0.9c1.3,0,1.6,0,1.6-0.9c0-1.3-0.1-2.6-0.1-3.9v-4.6c0-0.6,0.2-0.8,0.8-0.8h3.1
	c0.6,0,0.8,0.2,0.8,0.8v2.4c0,1.4,0.1,1.8-1.3,1.8c-0.4,0-0.8,0-1.1-0.1c-0.1,0-0.1,0-0.2,0c-0.5,0-0.6,0.4-0.6,0.8
	c0,0.7,0.1,1.3,0.4,1.9c0.2,0.3,1,0.3,1.4,0.3c2.2,0,4.6-0.1,4.6-2.9c0-0.4-0.1-0.8-0.1-1.2v-3.5c0-0.6,0.1-1.1,0.1-1.7
	c0-1.2-0.4-1.4-1.5-1.4c-0.5,0-1,0-1.5,0h-9.4c-1,0-1.9-0.1-2.9-0.1c-0.8,0-0.7,0.3-0.7,1.4c0,1.1,0,1.4,0.7,1.4c0.9,0,1.9,0,2.9,0
	h0.6c0.6,0,0.8,0.2,0.8,0.8V23.8z M22.5,10.6c-0.5,0-1,0-1.4,0h-2.6c-0.6,0-1.3,0-1.9-0.1c-0.2,0-0.4-0.1-0.4-0.3
	c0-0.1,0.1-0.2,0.1-0.2c1-1.2,1.9-2.4,2.7-3.6c0.1-0.2,0.3-0.3,0.5-0.3c0.2,0,0.3,0.1,0.4,0.2c0.9,1.3,1.9,2.5,2.9,3.7
	c0.1,0.1,0.1,0.2,0.1,0.3C22.9,10.5,22.7,10.6,22.5,10.6z M21.3,3.1c0.3-0.1,0.6-0.2,0.6-0.5c0-0.4-0.8-0.5-1.3-0.7
	c-0.3-0.1-1.9-0.5-2.1-0.5c-0.3,0-0.4,0.2-0.5,0.5c-2,4-4.7,7.5-8.2,10.3C9.6,12.4,9,12.9,9,13.2c0.3,0.9,1,1.5,1.9,1.8
	c0.7,0,3.1-2.6,3.7-3.2c0.1-0.1,0.2-0.1,0.3-0.1c0.2,0,0.2,0.1,0.3,0.3c0,1-0.1,1.4,0.8,1.4c0.8,0,1.6-0.1,2.4-0.1h2.6
	c0.8,0,1.6,0.1,2.4,0.1c0.8,0,0.8-0.4,0.8-1.2c0-0.1,0.1-0.3,0.3-0.3c0.1,0,0.2,0,0.2,0.1c0.9,0.8,1.8,1.6,2.7,2.3
	c0.2,0.2,0.5,0.4,0.9,0.4c0.6,0,1.9-1.6,1.9-2.1c0-0.4-0.6-0.8-0.9-1c-3.2-2.2-5.9-5-8.1-8.2c0-0.1-0.1-0.1-0.1-0.2
	C21.1,3.2,21.2,3.1,21.3,3.1z M43,16.5c0-0.6-1.7-1.5-2.2-1.5c-0.3,0-0.4,0.1-0.5,0.4c-1,2.9-2.4,5.8-4,8.5
	c-0.1,0.2-0.7,1.1-0.7,1.2c0,0.2,0.5,0.6,0.9,0.8c0.2,0.1,0.4,0.3,0.6,0.4c0.4,0.3,0.8,0.5,1.3,0.7c0.2,0,0.3-0.2,0.3-0.4
	s-0.1-0.4-0.1-0.5c0-0.3,0.1-0.5,0.3-0.7c1.4-2.6,2.7-5.2,3.8-7.9C42.9,17.1,43,16.8,43,16.5z M42.4,7.5c0-0.4-1.6-2.1-2-2.5
	c-0.6-0.6-1.3-1.4-1.9-1.9c-0.1-0.1-0.3-0.2-0.5-0.2c-0.5,0-2,1.2-2,1.7c0,0.2,0.3,0.4,0.4,0.6c1.1,1,2.1,2.1,3.1,3.2
	c0.3,0.3,0.5,0.7,0.9,0.7C41,9.1,42.4,8,42.4,7.5z M53.6,11.7c0-0.4,0.3-0.7,0.7-0.7c0,0,0,0,0.1,0h2.4c0.4,0,0.7,0.3,0.7,0.6
	c0,0,0,0,0,0.1v0.1c0,0.4-0.2,0.7-0.6,0.7c0,0,0,0-0.1,0h-2.4c-0.4,0-0.7-0.3-0.7-0.7c0,0,0,0,0-0.1V11.7z M49.9,11
	c0.4,0,0.7,0.3,0.7,0.7c0,0,0,0,0,0.1v0.1c0,0.4-0.3,0.7-0.7,0.7c0,0,0,0-0.1,0h-2.4c-0.4,0-0.7-0.3-0.7-0.6c0,0,0,0,0-0.1v-0.1
	c0-0.4,0.2-0.7,0.6-0.7c0,0,0,0,0.1,0H49.9z M54.3,16.5c-0.5,0-0.7-0.2-0.7-0.7v-0.3c0-0.5,0.2-0.7,0.7-0.7h2.4
	c0.5,0,0.7,0.2,0.7,0.7v0.3c0,0.5-0.2,0.7-0.7,0.7H54.3z M47.5,16.5c-0.5,0-0.7-0.2-0.7-0.7v-0.3c0-0.5,0.2-0.7,0.7-0.7H50
	c0.5,0,0.7,0.2,0.7,0.7v0.3c0,0.5-0.2,0.7-0.7,0.7H47.5z M47.9,8.7c-0.8,0-1.6-0.1-2.4-0.1c-1,0-1.5,0.3-1.5,1.4c0,0.7,0,1.4,0,2.1
	v4.1c0,0.7-0.1,1.4-0.1,2.1c0,1,0.6,1,1.4,1c0.4,0,0.8,0,1.1-0.2c0.1-0.1,0.3-0.1,0.4-0.1h1c0.2,0,0.4,0.1,0.4,0.3
	c0,0.1,0,0.2-0.1,0.3c-1.7,1.9-3.6,3.5-5.8,4.8c-0.6,0.4-1,0.6-1,0.9c0,0.7,1.2,2,1.9,2c0.4-0.1,0.7-0.2,1-0.5
	c2.2-1.4,4.2-3.2,5.9-5.3c0.1-0.1,0.2-0.1,0.2-0.1c0.2,0,0.3,0.1,0.3,0.3v1.4c0,1.5-0.1,3-0.1,4.5c0,0.9,0.3,0.9,1.6,0.9
	s1.6,0,1.6-0.9c0-1.5-0.1-3-0.1-4.5v-1.5c0-0.2,0.1-0.3,0.3-0.3c0.1,0,0.2,0,0.2,0.1c1.2,1.4,2.6,2.7,4.1,3.9
	c0.5,0.4,2.2,1.7,2.8,1.7c0.9-0.3,1.6-1,1.9-2c0-0.3-0.3-0.5-0.6-0.6c-2.3-1.3-4.3-3-6.2-4.9C56,19.4,56,19.3,56,19.2
	c0-0.2,0.2-0.3,0.4-0.3h0.9c0.1,0,0.3,0.1,0.4,0.1c0.3,0.2,0.7,0.2,1.1,0.2c0.8,0,1.5,0,1.5-1c0-0.7-0.1-1.4-0.1-2.1v-4
	c0-0.7,0-1.4,0-2.2c0-1.1-0.5-1.3-1.5-1.3c-0.8,0-1.6,0.1-2.4,0.1h-2.1c-0.5,0-0.7-0.2-0.7-0.7V7.5c0-0.5,0.2-0.7,0.7-0.7h4.5
	c1,0,2,0.1,3.1,0.1c0.7,0,0.7-0.3,0.7-1.3c0-0.9,0-1.3-0.7-1.3c-1,0-2,0.1-3.1,0.1h-4.4c-0.5,0-0.8-0.2-0.8-0.8c0-0.5,0-0.8,0.3-1
	c0.2-0.1,0.3-0.2,0.3-0.4c0-0.4-0.5-0.4-0.7-0.4c-0.6,0-1.9-0.1-2.5-0.1c-0.3,0-0.5,0-0.5,0.4c0,0.1,0,0.2,0,0.3
	c0.1,0.4,0.1,0.8,0.1,1.2c0,0.6-0.3,0.8-0.8,0.8h-3.5c-1,0-2-0.1-3-0.1c-0.7,0-0.7,0.3-0.7,1.3c0,1,0,1.3,0.7,1.3c1,0,2-0.1,3-0.1
	H50c0.5,0,0.7,0.2,0.7,0.7v0.5c0,0.5-0.2,0.7-0.7,0.7L47.9,8.7z M90.2,3.1c-0.3,0-1.5,0.9-1.5,1.2c0,0.1,0.2,0.3,0.3,0.4
	c0.7,0.7,1.4,1.6,2.1,2.4c0.1,0.1,0.2,0.4,0.4,0.4c0.4,0,1.5-0.9,1.5-1.4C92.2,4.9,91.3,3.9,90.2,3.1z M87,5.2
	c-0.3,0-1.5,0.8-1.5,1.2c0,0.1,0.1,0.3,0.3,0.4c0.7,0.8,1.4,1.6,2,2.4c0.1,0.1,0.3,0.3,0.4,0.3c0.4,0,1.5-0.9,1.5-1.3
	C89.1,7,88.1,6,87,5.2z M81.8,11.8c-0.1,0.1-0.2,0.1-0.3,0.1c-0.1,0-0.2-0.1-0.2-0.3V7.2c0-0.8,0-1.3,0-1.8c-0.1-0.6,0-1.1,0.3-1.6
	c0.1-0.1,0.1-0.2,0.2-0.4c0-0.4-1.2-0.5-2.6-0.7c-0.2,0-0.8-0.1-1-0.1c-0.3,0-0.4,0.1-0.4,0.5c0,0.1,0,0.4,0,0.5
	c0,0.8,0.1,1.6,0.1,2.3V23c0,1.4-0.1,2.7-0.1,4.1c0,1,0.5,1,1.7,1c1.8,0,1.9-0.2,1.9-1.6c0-1.2-0.1-2.4-0.1-3.6v-8.2
	c0-0.2,0.1-0.5,0.4-0.5c0.1,0,0.2,0,0.3,0.1c1.5,1.1,3,2.2,4.3,3.5c0.2,0.2,0.4,0.3,0.7,0.4c0.6,0,2-1.6,2-2.1s-1.7-1.8-2.1-2.2
	c-0.6-0.5-3.6-2.9-4.2-2.9C82.3,11.2,82,11.6,81.8,11.8z M107,13.1c-1.3,0-3.3-0.1-3.7-0.1c-0.8,0-0.8,0.2-0.8,1.9
	c0,0.9,0,1.5,0.8,1.5c1.3,0,2.5-0.1,3.8-0.1h13.8c1.2,0,2.5,0.1,3.8,0.1c0.8,0,0.8-0.6,0.8-1.5c0-1.6,0-1.9-0.8-1.9
	c-0.4,0-2.3,0.1-3.7,0.1H107z M138.6,10.6c-1.2,0-2.9-0.1-3.8-0.1c-0.8,0-0.8,0.4-0.8,1.6c0,1.3,0.1,1.7,0.8,1.7
	c1,0,2.5-0.1,3.8-0.1h5.9c0.4,0,0.7,0.3,0.7,0.8c0,0.3-0.1,0.5-0.1,0.8c-0.7,4.1-3.4,7.7-7.3,9.3c-0.2,0.1-0.8,0.3-0.8,0.6
	c0.5,1,1.4,1.8,2.5,2.2c0.9-0.4,1.8-0.9,2.6-1.5c3.6-2.6,5.9-6.7,6.3-11.1c0.1-0.5,0.3-1.1,0.9-1.1h4.3c1.3,0,2.6,0.1,3.9,0.1
	c0.6,0,0.8-0.3,0.8-1.6c0-1.4,0-1.7-0.8-1.7c-1.3,0-2.6,0.1-4,0.1h-4c-0.6,0-0.9-0.5-0.9-1.1c0-1.3,0-2.6,0-4V5.1c0-0.5,0-0.7,0.3-1
	c0.1-0.1,0.1-0.2,0.1-0.3c0-0.2-0.3-0.3-0.4-0.4c-0.4-0.1-2.7-0.3-3.1-0.3c-0.1,0-0.3,0.1-0.3,0.2c0,0,0,0,0,0.1c0,0.1,0,0.3,0,0.4
	c0.1,0.5,0.1,4.3,0.1,5v0.4c0,0.7-0.1,1.4-0.9,1.4H138.6z M170.8,12.9c-1.3,0-3-0.1-3.8-0.1c-0.8,0-0.8,0.5-0.8,1.8
	c0,1,0,1.5,0.8,1.5c1,0,2.4-0.1,3.8-0.1h6.1c0.3,0,0.5,0.2,0.5,0.5c0,0,0,0,0,0c-0.1,0.5-0.3,1-0.5,1.5c-1.4,3.4-3.5,5.1-6.7,6.8
	c-0.3,0.1-0.7,0.3-0.7,0.6c0.5,1,1.3,1.7,2.3,2.1c0.6,0,2.9-1.7,3.5-2.1c2.6-2,4.4-4.8,5.3-8c0.2-0.8,0.4-1.3,1.3-1.3h4.5
	c1.3,0,2.6,0,3.9,0c0.8,0,0.8-0.4,0.8-1.5c0-1.3,0-1.7-0.8-1.7c-1.1,0-2.6,0.1-3.9,0.1h-4.3c-0.5,0-0.7-0.4-0.7-0.8
	c0-0.5,0-1.1,0-1.7c0-0.5-0.1-1.1-0.1-1.6c0-0.5,0.4-0.7,0.8-0.8c0.6-0.1,1.3-0.3,1.9-0.5c0.5-0.1,2.6-0.8,2.9-0.8
	c0.1,0,0.2,0,0.3,0c0.1,0,0.2,0,0.3,0c0.2,0,0.4-0.1,0.4-0.3c0-0.4-1.2-1.5-1.5-1.8c-0.2-0.2-0.9-1-1.2-1c-0.2,0-0.4,0.1-0.5,0.2
	c-1.3,0.6-2.6,1.1-4,1.4c-3,0.6-6.1,1-9.1,1c-0.5,0-1.1-0.1-1.4-0.1c-0.4,0-0.6,0.1-0.6,0.5c0.1,0.7,0.3,1.3,0.6,1.9
	c0.2,0.6,0.4,0.7,1.1,0.7c2.1,0,6.1-0.5,6.3-0.5c0.7,0,0.7,0.6,0.7,2.1c0,0.9,0,2-0.9,2L170.8,12.9z M208.5,11.3c-1.2,0-2.5,0-3,0
	c-0.7,0-0.7,0.6-0.7,1.4c0,1,0,1.5,0.7,1.5c0.8,0,1.9-0.1,2.9-0.1h4.2c0.4,0,0.8,0.1,0.8,0.6c0,0.1-0.1,0.5-0.1,0.6l-0.6,5.2
	c-0.1,0.4-0.4,0.7-0.8,0.7h-7.2c-0.8,0-2.4-0.1-2.9-0.1c-0.7,0-0.8,0.5-0.8,1.6c0,0.6,0,1.3,0.8,1.3c0.7,0,1.9-0.1,2.9-0.1h12.3
	c1,0,1.9,0.1,2.9,0.1c0.8,0,0.8-0.5,0.8-1.4c0-1,0-1.5-0.8-1.5c-1,0-2,0.1-3,0.1h-0.8c-0.4,0-0.6-0.3-0.6-0.6c0,0,0-0.1,0-0.1
	l0.6-5.5c0-0.1,0.1-0.8,0.2-1.4c0.1-0.4,0.1-0.6,0.1-0.8c0-0.7-1.1-1.5-1.7-1.5c-0.1,0-0.3,0-0.4,0c-0.3,0-0.7,0-1,0H208.5z
	 M247.4,21.9c0,1.2-0.8,1.6-1.9,1.6c-0.8,0-2.2-0.3-2.2-1.3c0-0.9,1.5-1.2,2.2-1.2C246.1,21.1,247.4,21.1,247.4,21.9z M246.8,3.7
	c-0.2,0-0.4,0.1-0.4,0.3c0,0,0,0.1,0,0.1c0,0.1,0,0.2,0,0.3c0.1,0.8,0.4,3.7,0.4,4.3c0,0.7-0.7,0.7-1.4,0.7h-0.5
	c-1.6,0-4.2-0.3-4.6-0.3c-0.4,0-0.5,0.4-0.5,0.8s0,2.1,0.3,2.3c0.7,0.2,1.5,0.3,2.3,0.2h0.4c1.2,0,3.3-0.1,3.6-0.1
	c0.8,0,0.7,0.8,0.7,1.1c0,0.9,0.2,3.7,0.2,4.5c0,0.4-0.2,0.6-0.6,0.6h-0.2c-0.4-0.1-0.8-0.1-1.2-0.1c-2.3,0-4.7,1.1-4.7,3.8
	c0,2.8,2.6,3.9,5,3.9c1.8,0,3.8-0.6,4.4-2.5c0.1-0.2,0.1-0.5,0.4-0.5c0.8,0.4,1.6,1,2.2,1.6c0.2,0.2,0.5,0.4,0.8,0.5
	c0.7,0,1.7-1.4,1.7-2.1c0-0.5-0.4-0.8-0.8-1.1c-1-0.8-2.1-1.5-3.2-2.1c-0.7-0.3-1-0.4-1-1.2c0-0.8-0.2-5.4-0.2-6c0-0.8,0.4-0.9,1-1
	c3.5-0.5,3.8-0.7,3.8-1.3c0-0.5-0.2-2.5-0.8-2.5c-0.2,0-0.3,0-0.4,0.1c-1,0.3-2,0.6-3,0.8c-0.4,0-0.6-0.4-0.6-0.8V7.2
	c-0.1-0.7,0-1.5,0.3-2.1c0.1-0.3,0.3-0.3,0.3-0.6c0-0.2-0.1-0.2-0.3-0.3C249.1,4,247.9,3.8,246.8,3.7L246.8,3.7z M237.3,4.7
	c-0.6-0.3-1.3-0.6-1.9-0.8c-0.3,0-0.4,0.3-0.4,0.5c-0.3,1.3-0.8,2.6-1.1,3.9c-0.7,2.7-1,5.6-1.1,8.4c-0.1,3.2,0.5,6.3,1.8,9.2
	c0.2,0.4,0.4,1,1,1c0.1,0,2.3-0.4,2.3-1.5c0-0.5-0.1-1-0.1-1.4c0-1.7,1.5-5,1.5-5.5c0-0.4-1-1-1.3-1c-0.4,0-0.7,1-0.8,1.3
	c-0.3,0.7-0.4,1.1-0.7,1.1c-0.6,0-0.7-2.9-0.7-3.3c0-3.1,0.6-6.2,1.6-9.1c0.4-0.9,0.5-1.2,1.2-1.5c0.1-0.1,0.3-0.1,0.3-0.3
	c0-0.3-0.5-0.5-0.8-0.6C238,5.1,237.7,4.9,237.3,4.7z M14.5,74.6c1.6-0.9,2.6-2.6,2.5-4.5c0-2.7-2-5.2-6.9-5.2
	c-2.1,0-4.1,0.5-5.9,1.4c-0.4,0.2-0.6,0.4-0.6,0.6c0,0.2,0.1,0.4,0.2,0.6l0.7,1.4c0.2,0.4,0.3,0.6,0.5,0.6c0.2,0,0.4-0.1,0.6-0.3
	c1.3-0.8,2.7-1.2,4.2-1.2c2.3,0,3.8,1,3.8,2.6c0,1.6-1.4,2.9-5,2.9c-0.6,0-1.4,0-1.7,0c-0.8,0-0.9,0.1-0.9,0.9v1.3
	c0,0.8,0.1,0.9,0.9,0.9c0.3,0,1.3,0,2,0c3.9,0,5.6,1,5.6,3.1c0,1.9-1.8,3.7-5.3,3.7c-1.6,0-3.2-0.4-4.6-1.2
	c-0.2-0.1-0.4-0.2-0.6-0.2c-0.2,0-0.4,0.2-0.5,0.6l-0.5,1.5c-0.1,0.2-0.1,0.4-0.1,0.5c0,0.3,0.2,0.5,0.6,0.7
	c1.8,0.7,3.7,1.1,5.6,1.1c6.5,0,9-3.3,9-6.7c0.1-2.2-1.3-4.2-3.5-4.7c-0.3-0.1-0.5-0.2-0.4-0.3C14.1,74.8,14.3,74.7,14.5,74.6z
	 M32.9,64.9c-5.9,0-9.1,5-9.1,11.1c0,6.8,3.8,10.5,8.6,10.5c5,0,9.1-4.2,9.1-11.3C41.5,68.4,37.6,64.9,32.9,64.9z M32.9,68.3
	c3,0,5.2,2.3,5.2,7.1c0,4.9-2.4,8-5.6,8c-3,0-5.1-2.5-5.1-7.2C27.3,71.9,29.1,68.3,32.9,68.3z M63.4,65.5c0.7,0,0.9,0,1.4,1.1
	c1.3,2.7,3.1,5.2,5.3,7.3c0.1,0.1,0.2,0.2,0.3,0.3c0.6,0.5,1.3,1.3,1.8,1.3c0.8,0,1.9-1.6,1.9-2c0-0.3-0.4-0.6-0.6-0.8
	c-3-2.2-5.3-5.2-6.8-8.6c-0.4-0.8-0.5-1.4-1.5-1.4c-0.4,0-0.9,0-1.3,0h-1.4c-0.8,0-1.6-0.1-2.3-0.1c-0.8,0-0.8,0.2-0.8,1.5
	c0,1.1,0,1.5,0.8,1.5s1.6-0.1,2.4-0.1L63.4,65.5z M57.5,76.2c-0.2,1.7-0.8,3.4-1.7,4.9c-1.5,2-3.6,3.5-5.9,4.4
	c-0.4,0.2-0.9,0.3-0.9,0.7c0,0.7,1.1,2.1,1.9,2.1c1.1-0.4,2.2-0.9,3.2-1.6c3.7-2.3,6.1-6.2,6.5-10.5c0.1-0.6,0.3-0.8,0.9-0.8h3.3
	c1,0,1.3,0.1,1.3,0.9c0,2.6-0.3,5.2-0.8,7.7c-0.4,1.1-0.8,1.4-2.6,1.4c-0.6,0-1.1-0.1-1.7-0.1s-0.7,0.3-0.7,1c0,2.1,0.3,2.2,2.2,2.2
	c2.4,0,4.7-0.2,5.6-2.8c0.8-2.5,1.2-8.5,1.2-11.2c0-1.6-0.4-2-2-2c-1,0-1.9,0-2.9,0h-7.7c-0.9,0-1.9,0-2.8-0.1
	c-0.2,0-0.4-0.1-0.4-0.3c0-0.1,0-0.2,0.1-0.2c1.6-1.9,2.9-4.1,3.9-6.4c0.2-0.6,0.3-0.7,0.7-0.8c0.2,0,0.5-0.1,0.5-0.4
	s-0.5-0.5-0.8-0.7l-0.2-0.1c-0.6-0.4-1.3-0.7-2-1c-0.4,0-0.4,0.3-0.5,0.6c-1.5,4.1-4,7.7-7.4,10.4c-0.2,0.2-0.4,0.3-0.4,0.6
	c0,0.6,1.4,1.7,2,1.7s2.4-1.9,2.8-2.4c0.1-0.1,0.2-0.1,0.2-0.1c0.2,0,0.3,0.2,0.3,0.3v0.7c0,0.9,0.1,1.2,0.8,1.2
	c1.1,0,2.2-0.1,3.2-0.1h0.2c0.4,0,0.8,0.1,0.8,0.6L57.5,76.2z M81.2,67.8c0.1,0.7,0.2,1.5,0.3,2.2c0.1,0.3,0.2,1,0.7,1
	c0.2,0,0.3,0,0.4-0.1c1.9-0.5,4.6-0.9,6.6-1.2c0.3,0,1.7-0.3,1.9-0.3s0.4,0.1,0.4,0.4c0,0.2-0.2,0.4-0.5,0.7
	c-2.1,2.4-3.3,5.4-3.3,8.6c0,5.9,4.4,7.5,9.5,7.5c0.5,0,0.8-0.1,1-0.5c0.3-0.8,0.4-1.6,0.5-2.5c0-0.5-0.2-0.5-0.7-0.5
	c-0.3,0-1,0-1.5,0c-3.1,0-5.3-0.8-5.3-4.3c0-1.9,0.5-3.7,1.4-5.3c1.1-2.1,2.9-3.7,5.1-4.5c1.6-0.5,3.3-0.7,5-0.6
	c0.7,0,1.3,0,1.3-0.6c0-0.7-0.1-1.5-0.3-2.2c-0.1-0.4-0.1-0.8-0.6-0.8c-0.1,0-0.3,0-0.4,0c-2.2,0.4-4.5,0.7-6.8,0.9
	c-4.3,0.5-8.7,1-13.1,1.2C81.6,67.1,81.2,67,81.2,67.8z M103.9,69.6c-0.4,0-1.5,0.8-1.5,1.1c0,0.1,0.1,0.3,0.2,0.4
	c0.7,0.8,1.4,1.6,1.9,2.5c0.1,0.2,0.2,0.4,0.4,0.4c0.4,0,1.5-0.8,1.5-1.3C105.8,71.5,104.9,70.5,103.9,69.6z M100.3,71.2
	c-0.3,0-1.5,0.8-1.5,1.1c0,0.2,0.2,0.3,0.3,0.4c0.7,0.8,1.3,1.7,1.9,2.5c0.1,0.2,0.2,0.4,0.4,0.4c0.3,0,1.5-0.8,1.5-1.3
	C102.2,73.2,101.3,72.1,100.3,71.2z M112.7,82.2c0,0.3,0.3,0.5,0.5,0.6c1.7,1.1,3.3,2.5,4.6,4.1c0.2,0.2,0.4,0.4,0.6,0.4
	c0.7,0,2.2-1.6,2.2-2.3c0-0.8-5.2-4.9-5.8-4.9C113.8,80.5,113.1,81.3,112.7,82.2z M145.3,68.4c-0.5,0-0.4,0.4-0.4,0.9
	c-0.1,1.9-0.3,3.9-0.8,5.8c0,0.2-0.1,0.4-0.1,0.5c0,0.5,1.4,0.7,1.8,0.7c0.6,0,0.7-0.2,1-2.8c0.2-1.1,0.3-2.3,0.4-3.5
	c0-0.2,0.1-0.4,0.3-0.5c0.1-0.1,0.4-0.2,0.4-0.4c0-0.2-0.3-0.3-0.4-0.4C147,68.6,145.6,68.4,145.3,68.4z M164.4,73.5
	c0.4,0,0.8,0.3,0.8,0.7c0,0,0,0.1,0,0.1v1.1c0,0.5-0.4,0.8-0.8,0.8h-4.7c-0.5,0-0.8-0.4-0.8-0.8c0,0,0,0,0,0v-1.1
	c0.1-0.5,0.3-0.8,0.8-0.8H164.4z M160.9,80.3c0.1-0.1,0.4-0.2,0.4-0.4c0-0.3-0.7-0.4-2.2-0.8c0,0-0.1-0.1-0.1-0.1
	c0-0.1,0.1-0.1,0.1-0.1h2.6c0.6,0,0.8,0.2,0.8,0.8v4.6c0,0.4,0,0.9,0,1.4c0,1.8,0.6,2.4,2.4,2.4h2.3c1.4,0,2.5,0.1,3.1-1.4
	c0.4-1.1,0.7-2.3,0.8-3.5c0-1-1.6-1.2-2.1-1.2c-0.8,0-0.7,0.4-0.8,1c-0.2,2-0.4,2.3-1.2,2.3h-0.9c-0.7,0-0.8-0.2-0.8-1.4v-4.3
	c0-0.6,0.2-0.8,0.8-0.8h0.3c1.1,0,2.2,0.1,3.3,0.1c0.8,0,0.7-0.4,0.7-1.4s0-1.4-0.7-1.4c-0.3,0-0.7,0-1,0c-0.6,0-0.8-0.2-0.8-0.8
	v-1.1c0-0.6,0.2-0.8,0.8-0.8c0.5,0,1,0.1,1.4,0.1c0.7,0,0.7-0.3,0.7-1.4s0-1.4-0.7-1.4c-0.4,0-1,0-1.4,0c-0.4,0-0.8-0.2-0.8-0.6
	c0-0.1,0-0.1,0-0.1c0-0.2,0.1-0.4,0.3-0.5c0.2-0.2,0.4-0.2,0.4-0.5c0-0.3-0.5-0.4-0.7-0.4c-0.4-0.1-2.1-0.2-2.5-0.2
	c-0.3,0-0.5,0.1-0.5,0.4c0,0.1,0.1,0.9,0.1,1.2c0,0.5-0.2,0.7-0.7,0.7h-0.4c-0.5,0-0.7-0.2-0.7-0.7v-1.6c0-0.6,0.2-0.8,0.8-0.8h1.7
	c1.1,0,2.2,0.1,3.2,0.1c0.7,0,0.7-0.3,0.7-1.5c0-1.1,0-1.4-0.7-1.4c-1,0-2.2,0.1-3.2,0.1h-1.7c-0.5,0-0.8-0.2-0.8-0.8v-0.4
	c0-0.5,0-0.8,0.4-1c0.2-0.2,0.4-0.2,0.4-0.4c0-0.4-0.5-0.4-1.4-0.5c-0.1,0-0.3,0-0.5,0c-0.4-0.1-0.9-0.1-1.4-0.1
	c-0.3,0-0.5,0.1-0.5,0.4c0,0.1,0,0.2,0,0.3c0.1,0.6,0.1,1.2,0.1,1.8c0,0.6-0.2,0.8-0.8,0.8h-1.7c-1.1,0-2.2-0.1-3.3-0.1
	c-0.7,0-0.7,0.4-0.7,1.4c0,1.1,0,1.5,0.7,1.5c1.1,0,2.2-0.1,3.3-0.1h1.7c0.6,0,0.8,0.2,0.8,0.8v1.6c0,0.5-0.2,0.7-0.7,0.7h-0.4
	c-0.4,0-0.7-0.2-0.7-0.6v-0.1c0-0.3,0.1-0.5,0.3-0.6c0.2-0.2,0.4-0.2,0.4-0.4c0-0.3-0.3-0.3-0.5-0.4c-0.4-0.1-2.3-0.2-2.7-0.2
	c-0.3,0-0.5,0.1-0.5,0.4c0,0.1,0.1,0.9,0.1,1.1c0,0.5-0.2,0.8-0.8,0.8c-0.3,0-0.6,0-0.9,0c-0.2,0-0.4-0.1-0.4-0.3
	c0-0.1,0.1-0.2,0.1-0.2c0.1-0.1,0.3-0.2,0.4-0.2h0.3c0.1,0,0.3-0.1,0.3-0.2c0,0,0,0,0,0c0-0.3-0.9-1-1.1-1.2
	c-0.1-0.2-0.3-0.3-0.4-0.4c-0.4-0.3-0.6-0.6-0.8-0.6c-0.2,0-0.4,0.2-0.5,0.4c-0.2,0.4-0.5,0.8-0.8,1.2c-0.1,0.1-0.1,0.1-0.2,0.1
	c-0.2,0-0.2-0.1-0.2-0.3v-4.8c0-0.9,0-1.2,0.3-1.4c0.2-0.2,0.4-0.2,0.4-0.5c0-0.3-0.3-0.4-0.5-0.4c-0.4-0.1-2.3-0.2-2.7-0.2
	c-0.3,0-0.6,0.1-0.6,0.4c0,0.1,0,0.2,0,0.3c0.1,0.7,0.1,1.7,0.1,2.6v8.5c0,4.5-0.9,8.8-3.7,12.4c-0.1,0.2-0.4,0.5-0.4,0.7
	c0,0.5,1.3,1.9,2,1.9c0.3,0,0.6-0.4,0.8-0.7c1.4-1.8,2.4-3.8,3-6c0-0.1,0.1-0.3,0.3-0.3s0.2,0.1,0.3,0.2c0.3,0.5,1.9,3.2,2.4,3.2
	s1.8-1.4,1.8-2c0-0.3-0.3-0.5-0.4-0.7c-1.2-1.2-2.3-2.6-3.1-4.1c-0.2-0.3-0.3-0.7-0.3-1v-0.3c0-1,0.1-1.9,0.1-2.9
	c0-0.5,0.2-0.9,0.6-1.2c0.4-0.3,0.7-0.7,1.1-1.1c0.1-0.1,0.2-0.1,0.2-0.1c0.2,0,0.3,0.2,0.3,0.3c0,0,0,0,0,0c0,1.2,0,1.6,0.7,1.6
	c0.4,0,0.9,0,1.3-0.1c0.6,0,0.8,0.3,0.8,0.8v1.1c0,0.6-0.2,0.8-0.8,0.8c-0.3,0-0.6,0-0.9,0c-0.8,0-0.7,0.4-0.7,1.4
	c0,1,0,1.4,0.7,1.4c0.9,0,1.9-0.1,2.8-0.1c0.3,0,0.6,0.2,0.6,0.5c0,0,0,0,0,0v0.2c-0.4,3-2.5,5.1-5.1,6.4c-0.2,0.1-0.6,0.3-0.6,0.6
	c0,0.6,1.1,1.9,1.7,1.9c0.7,0,2.6-1.5,3.2-1.9c1.8-1.5,3-3.5,3.5-5.8C160.5,80.5,160.6,80.3,160.9,80.3z M188.2,62.5
	c-0.5,0-2.6,0.4-2.6,1c0.1,0.3,0.2,0.5,0.4,0.8c0.4,0.6,0.6,1.2,0.8,1.8c0,0.5-0.4,0.6-0.8,0.7c-0.8,0.1-1.5,0.2-2.3,0.3
	c-0.4,0-1.2,0-1.2,0.6c0.1,0.7,0.3,1.3,0.5,1.9c0.1,0.3,0.3,0.5,0.7,0.5c1.2-0.1,2.3-0.3,3.4-0.5c0.2,0,0.8-0.2,0.9-0.2
	c0.6,0,1.1,1.7,1.1,1.7c0,0.3-0.4,0.5-0.7,0.6c-2.1,0.6-4.2,0.9-6.4,1c-0.8,0.1-1.3,0-1.3,0.6c0,0.6,0.2,1.2,0.4,1.8
	c0.1,0.4,0.3,0.8,0.8,0.8c2.7-0.3,5.4-0.8,8-1.5c0.1-0.1,0.3-0.1,0.4-0.1c0.4,0,0.6,0.4,0.8,0.7c0.4,0.7,0.8,1.4,1.1,2.2
	c0,0.1-0.1,0.3-0.3,0.3c0,0,0,0,0,0c-0.1,0-0.2,0-0.3-0.1c-1-0.3-2-0.5-3-0.5c-3,0-5.7,1.6-5.7,4.9c0,2.2,1.5,4.2,3.6,4.8
	c1.9,0.6,3.8,0.9,5.8,0.8c1.4,0,1.7-0.1,1.7-1.9c0-0.9-0.1-1.4-0.7-1.4c-0.3,0-0.6,0-0.9,0.1c-0.6,0.1-1.2,0.1-1.8,0.2
	c-1.6,0-4.7-0.5-4.7-2.6c0-1.6,1.7-2,3-2c2,0,4,0.7,5.5,2.1c0.1,0.1,0.3,0.2,0.5,0.2c0.7,0,2.4-1.3,2.4-2c0-0.4-0.5-1-0.7-1.3
	c-0.5-0.7-3-4.6-3-5.2c0-0.5,0.5-0.7,0.8-0.8c0.8-0.3,1.6-0.7,2.4-1.1c0.6-0.3,1.3-0.6,1.3-1c0-0.5-1-2.3-1.5-2.3
	c-0.3,0.1-0.5,0.2-0.7,0.3c-1.1,0.7-2.3,1.3-3.6,1.7c-0.4,0-0.6-0.4-0.9-1.2c-0.1-0.1-0.1-0.3-0.1-0.4c0-0.4,0.4-0.5,0.7-0.6
	c0.7-0.3,1.5-0.6,2.2-1c0.3-0.2,0.6-0.4,0.6-0.7c0-0.5-0.8-2.3-1.3-2.3c-0.3,0.1-0.5,0.2-0.8,0.3c-0.7,0.4-1.5,0.8-2.3,1
	c-0.6,0-0.8-0.6-1-1.3C189,63,188.9,62.5,188.2,62.5L188.2,62.5z M221.7,81.5c-0.5,0-1.9,1.8-1.9,2.2c0,0.6,1,1.4,1.5,1.7
	c1.7,1.1,4.4,1.3,6.4,1.3c1.6,0,3.1-0.1,4.7-0.4c0.4-0.2,0.3-0.9,0.3-1.5c0-1.2,0-1.9-0.5-1.9c-0.1,0-0.2,0-0.3,0.1
	c-1.4,0.4-2.8,0.6-4.3,0.6c-1.8,0-4.1-0.3-5.4-1.7C222.1,81.8,221.9,81.5,221.7,81.5z M223.9,74.6c0,0.5,0.1,0.7,0.8,0.7
	c0.4,0,0.8,0,1.1,0c1.6,0,3.2,0.2,4.8,0.8c0.2,0.1,0.4,0.1,0.6,0.2c0.3,0,0.4-0.1,0.5-0.4c0.3-0.7,0.5-1.4,0.6-2.1
	c0-0.3-0.2-0.5-0.4-0.6c-2-0.6-4-0.8-6-0.8C224.4,72.2,223.9,72,223.9,74.6z M220,61.8c-0.3,0-0.3,0.3-0.3,0.8
	c-0.2,1.9-0.6,3.7-1.1,5.5c-0.3,0.4-0.7,0.5-2.6,0.5c-1.3,0-2.6-0.1-2.8-0.1c-0.4,0-0.4,0.2-0.4,0.5c0,0.7,0.1,1.5,0.2,2.2
	c0.2,0.6,0.7,0.5,1.3,0.5c0.9,0,2.2-0.2,2.7-0.2c0.3,0,0.5,0.2,0.5,0.4c-0.1,0.3-0.1,0.5-0.2,0.8c-1.4,3.9-3.2,7.6-5.3,11.1
	c-0.3,0.3-0.4,0.6-0.5,1c0,0.7,2.1,1.6,2.6,1.6c0.4,0,0.7-0.4,1.1-1.1c2.2-4.3,4.1-8.7,5.6-13.2c0.3-0.8,0.4-1,1.2-1.2
	c1.7-0.3,3.3-0.7,4.9-1.2c0.5-0.2,0.6-0.6,0.6-1.1c0-0.5,0-2.3-0.6-2.3c-0.2,0-0.4,0.1-0.6,0.1c-1.1,0.5-2.3,0.8-3.5,1.1
	c-0.2,0-0.4-0.2-0.4-0.4c0,0,0,0,0,0c0-0.2,0.6-2.3,0.7-2.7c0.2-0.7,0.2-0.8,0.7-1c0.1-0.1,0.3-0.2,0.3-0.3c0-0.3-0.8-0.5-1.1-0.6
	C222.2,62.4,220.2,61.8,220,61.8L220,61.8z M243,67.8c0,0.3,0.3,3.2,1,3.2c0.2,0,0.3,0,0.4-0.1c2.2-0.5,4.4-0.9,6.6-1.2
	c0.3-0.1,1.7-0.3,1.9-0.3c0.2,0,0.4,0.1,0.4,0.4c0,0.2-0.4,0.6-0.5,0.7c-2.1,2.4-3.3,5.4-3.3,8.6c0,5.8,4.4,7.5,9.5,7.5
	c0.3,0,0.7,0,0.9-0.3c0.3-0.8,0.5-1.8,0.5-2.7c0-0.5-0.2-0.5-0.7-0.5c-0.3,0-1,0-1.5,0c-3,0-5.3-0.8-5.3-4.3c0-1.9,0.5-3.7,1.4-5.3
	c1.1-2.1,2.9-3.7,5.1-4.5c1.6-0.5,3.3-0.7,5-0.6c0.7,0,1.3,0,1.3-0.6c0-0.7-0.1-1.5-0.2-2.2c-0.1-0.4-0.1-0.8-0.6-0.8
	c-0.1,0-0.2,0-0.4,0c-2.2,0.4-4.6,0.7-6.8,0.9c-4.4,0.5-8.8,1-13.1,1.2C243.4,67.1,243,67,243,67.8z M285.7,79.5
	c-0.6,0-1.6,2.1-1.6,2.6c0,0.5,2,3,6.9,3c1.2,0,6.3-0.4,7.1-0.9c0.4-0.2,0.4-0.8,0.4-1.1c0-1.5-0.1-2.2-0.5-2.2
	c-0.2,0-0.4,0-0.6,0.1c-2.1,0.6-4.4,0.9-6.6,1c-1.8,0.1-3.5-0.7-4.6-2.1C286,79.6,285.9,79.5,285.7,79.5z M286.4,66.5
	c-0.5,0-0.6,0.5-0.6,1.9c0,0.3,0,1,0.3,1.2c0.6,0.4,4.3,0.6,5.2,0.6c1.7,0,3.4-0.2,5-0.4c0.6-0.1,0.6-0.4,0.6-1
	c0-0.5-0.1-1.1-0.1-1.6c-0.1-0.4-0.2-0.7-0.6-0.7c-0.2,0-0.4,0-0.5,0.1c-1.5,0.4-3,0.6-4.6,0.6c-1.3,0-2.6-0.2-3.9-0.5
	C286.9,66.5,286.7,66.5,286.4,66.5z M279.2,64.1c-0.3,0-0.4,0.4-0.5,0.7c-0.1,0.5-0.2,1-0.4,1.5c-1,3.2-1.5,6.6-1.5,9.9
	c-0.1,3.2,0.5,6.3,1.8,9.2c0.4,0.8,0.8,1.5,1.3,1.5c0.6,0,2.3-0.7,2.3-1.5c0-0.2,0-0.3-0.1-0.4c0-0.3-0.1-1-0.1-1.3
	c0-1.3,1.2-4.1,1.2-4.3c0-0.3-0.8-1-1.1-1c-0.3,0-0.5,0.3-0.6,0.7c-0.1,0.3-0.5,1.2-0.8,1.2c-0.7,0-0.8-3.6-0.8-4.2
	c0-2.9,0.6-5.8,1.7-8.5c0.3-0.8,0.4-1,0.9-1.3c0.3-0.2,0.4-0.2,0.4-0.4c0-0.3-0.4-0.4-0.6-0.5C282,65.2,279.4,64.1,279.2,64.1z
	 M311,80.7c1.5,0,2.7,1.1,2.7,2.6c0,0,0,0,0,0.1c0,1.5-1.2,2.7-2.7,2.7c-1.5,0-2.7-1.2-2.7-2.7S309.6,80.7,311,80.7z M311,79.2
	c-2.3,0-4.2,1.9-4.2,4.2s1.9,4.2,4.2,4.2c2.3,0,4.2-1.9,4.2-4.2C315.2,81.1,313.3,79.2,311,79.2C311,79.2,311,79.2,311,79.2z"/>
</svg>
