<?xml version="1.0" encoding="utf-8"?>
<!-- Generator: Adobe Illustrator 24.2.0, SVG Export Plug-In . SVG Version: 6.00 Build 0)  -->
<svg version="1.1" id="レイヤー_1" xmlns="http://www.w3.org/2000/svg" xmlns:xlink="http://www.w3.org/1999/xlink" x="0px"
	 y="0px" viewBox="0 0 613 33" style="enable-background:new 0 0 613 33;" xml:space="preserve">
<path id="パス_727" d="M6.6,8.6c-1.3,0-2.5,0-3.7,0C1.2,8.6,1.2,9,1.2,10c0,0.6,0,1.2,0,1.8v4.7c0,0.9,0,1.7,0,2.6
	c0,0.8,0.2,0.9,1.7,0.9c1.8,0,2.1,0,2.1-1c0-0.6-0.1-1.7-0.1-2.6V13c0-0.5,0.4-1,0.9-1c0,0,0,0,0,0H19c0.6,0,1.3,0.1,1.3,0.9
	c-0.2,1.9-0.7,3.7-1.5,5.4c-2.2,4.5-5.9,8-10.4,10c-0.3,0.1-0.6,0.2-0.6,0.6c0,0.5,1.5,2.6,2.2,2.6c1.2,0,5.4-3.3,6.4-4.1
	c4.8-4.1,6.7-8.5,7.8-14.6c0.1-0.4,0.2-0.9,0.3-1.3c0.1-0.3,0.2-0.6,0.2-0.9c0-0.5-0.4-0.7-1-1.3c-0.3-0.4-0.8-0.6-1.3-0.7
	c-0.2,0-0.5,0-0.7,0c-0.5,0.1-1.1,0.1-1.6,0.1h-4.9c-0.5,0-0.9-0.4-1-0.9c0,0,0,0,0,0V6.2c0-2,0-2.4,0.4-2.7
	c0.1-0.1,0.4-0.3,0.4-0.5c0-0.4-1-0.4-1.3-0.4c-0.3,0-2.5-0.2-2.9-0.2c-0.2,0-0.5,0-0.5,0.3c0,0.1,0,0.3,0,0.4
	c0.1,1,0.1,2.1,0.1,3.1v1.4c0,0.5-0.4,0.9-0.9,1c0,0,0,0,0,0L6.6,8.6z M43.4,6.3c-1.5,0-2.9-0.1-4.4-0.1c-1,0-0.9,0.4-0.9,1.9
	c0,1.5,0,1.8,1,1.8c1.4,0,2.8-0.1,4.2-0.1h12.1c0.6,0,1.2,0.1,1.2,0.7c0,0.3,0,0.5-0.1,0.8C56,15.4,54,18.9,51,21.4
	c-2.5,2.1-5.4,3.6-8.5,4.5c-0.3,0.1-0.6,0.2-0.6,0.5c0,0.5,1.2,2.8,2,2.8c0.4,0,0.8-0.1,1.1-0.3c2.3-0.9,4.5-2.1,6.5-3.5
	c5.5-3.9,7.9-8.4,9.1-15c0.3-1.5,0.6-1.8,0.6-2.2S59.8,6.2,59,6.2c-0.1,0-0.5,0.1-0.6,0.1c-0.7,0.1-2.3,0.1-3.1,0.1H43.4z M80.1,6.3
	c-1.5,0-2.9-0.1-4.4-0.1c-1,0-0.9,0.4-0.9,1.9c0,1.5,0,1.8,1,1.8c1.4,0,2.8-0.1,4.2-0.1h12.1c0.6,0,1.2,0.1,1.2,0.7
	c0,0.3,0,0.5-0.1,0.8c-0.6,3.9-2.5,7.4-5.6,9.9c-2.5,2.1-5.4,3.6-8.5,4.5c-0.3,0.1-0.6,0.2-0.6,0.5c0,0.5,1.2,2.8,2,2.8
	c0.4,0,0.8-0.1,1.1-0.3c2.3-0.9,4.5-2.1,6.5-3.5c5.5-3.9,7.9-8.4,9.1-15C97.7,9.1,98,8.7,98,8.4s-1.5-2.2-2.3-2.2
	c-0.1,0-0.5,0.1-0.6,0.1c-0.7,0.1-2.3,0.1-3.1,0.1H80.1z M132.6,3c-0.4,0-1.7,1-1.7,1.4c0,0.2,0.2,0.3,0.3,0.5
	c0.8,0.8,1.6,1.8,2.3,2.7c0.1,0.1,0.3,0.4,0.5,0.4c0.4,0,1.7-1.1,1.7-1.5C134.9,5.1,133.9,4,132.6,3L132.6,3z M129.1,5.4
	c-0.4,0-1.7,1-1.7,1.4c0,0.2,0.1,0.3,0.3,0.5c0.8,0.9,1.6,1.8,2.3,2.7c0.1,0.1,0.3,0.4,0.5,0.4c0.4,0,1.7-1,1.7-1.5
	S129.4,5.4,129.1,5.4L129.1,5.4z M123.2,12.9c-0.1,0.1-0.2,0.1-0.3,0.1c-0.1,0-0.3-0.1-0.3-0.3V7.6c0-0.9,0-1.5,0-2
	c-0.1-0.6,0-1.3,0.4-1.8c0.1-0.1,0.1-0.3,0.2-0.4c0-0.5-1.4-0.6-2.9-0.8c-0.2,0-1-0.1-1.2-0.1c-0.3,0-0.4,0.2-0.4,0.5
	c0,0.1,0,0.4,0,0.6c0,0.9,0.1,1.8,0.1,2.7v19.4c0,1.5-0.1,3.1-0.1,4.6c0,1.1,0.6,1.2,1.9,1.2c2.1,0,2.1-0.2,2.1-1.8
	c0-1.4-0.1-2.7-0.1-4v-9.3c0-0.3,0.1-0.5,0.4-0.5c0.1,0,0.2,0.1,0.3,0.1c1.7,1.2,3.4,2.5,4.9,4c0.2,0.2,0.5,0.4,0.7,0.4
	c0.7,0,2.3-1.8,2.3-2.3s-1.9-2-2.4-2.4c-0.7-0.6-4.1-3.3-4.8-3.3C123.8,12.2,123.4,12.7,123.2,12.9L123.2,12.9z M151.7,14.3
	c-1.4,0-3.8-0.1-4.2-0.1c-0.9,0-1,0.3-1,2.2c0,1.1,0,1.7,0.9,1.7c1.4,0,2.9-0.1,4.2-0.1h15.6c1.4,0,2.8,0.1,4.2,0.1
	c0.9,0,0.9-0.6,0.9-1.7c0-1.9,0-2.1-1-2.1c-0.4,0-2.7,0.1-4.2,0.1L151.7,14.3z M187.6,11.5c-1.4,0-3.3-0.1-4.3-0.1
	c-0.9,0-0.9,0.5-0.9,1.8c0,1.5,0.1,2,0.9,2c1.1,0,2.8-0.1,4.2-0.1h6.7c0.5,0,0.8,0.4,0.8,0.9c0,0.3-0.1,0.6-0.1,0.9
	c-0.8,4.7-3.9,8.7-8.2,10.6c-0.3,0.1-0.9,0.3-0.9,0.7c0,0.6,2.1,2.5,2.8,2.5c1.1-0.4,2.1-1,3-1.7c4.1-3,6.7-7.6,7.2-12.6
	c0.1-0.6,0.3-1.2,1.1-1.2h4.8c1.5,0,3,0.1,4.4,0.1c0.7,0,0.9-0.3,0.9-1.8c0-1.5,0-1.9-0.8-1.9c-1.5,0-3,0.1-4.5,0.1h-4.5
	c-0.7,0-1-0.6-1-1.2c0-1.5,0-3,0-4.5V5.2c0-0.6,0-0.8,0.3-1.1c0.1-0.1,0.2-0.2,0.2-0.3c0-0.2-0.3-0.4-0.5-0.4
	c-0.4-0.1-3-0.4-3.5-0.4c-0.2,0-0.3,0.1-0.3,0.3c0,0,0,0.1,0,0.1c0,0.1,0,0.3,0,0.4c0.1,0.6,0.1,4.8,0.1,5.7v0.5
	c0,0.7-0.1,1.6-1,1.6L187.6,11.5z M224,14.2c-1.5,0-3.4-0.1-4.3-0.1c-0.9,0-0.9,0.6-0.9,2c0,1.1,0,1.7,0.9,1.7
	c1.1,0,2.7-0.1,4.2-0.1h6.9c0.3,0,0.6,0.2,0.6,0.6c0,0,0,0,0,0c-0.1,0.6-0.3,1.1-0.6,1.7c-1.6,3.8-3.9,5.8-7.5,7.7
	c-0.3,0.2-0.8,0.3-0.8,0.6c0.5,1.1,1.5,1.9,2.6,2.4c0.7,0,3.3-1.9,4-2.4c2.9-2.3,5-5.5,6.1-9.1c0.2-0.9,0.4-1.5,1.5-1.5h5.1
	c1.5,0,2.9,0,4.4,0c0.9,0,1-0.4,1-1.7c0-1.5,0-1.9-0.9-1.9c-1.3,0-2.9,0.1-4.5,0.1H237c-0.6,0-0.8-0.4-0.8-0.9c0-0.6,0-1.2,0-1.9
	c0-0.6-0.1-1.2-0.1-1.9c0-0.6,0.4-0.8,0.9-1c0.7-0.2,1.5-0.4,2.2-0.6c0.6-0.2,2.9-1,3.3-1c0.1,0,0.2,0,0.3,0c0.1,0,0.3,0,0.3,0
	c0.2,0,0.4-0.1,0.4-0.3c0-0.4-1.3-1.7-1.7-2c-0.3-0.3-1-1.1-1.4-1.1c-0.2,0-0.4,0.1-0.6,0.2c-1.4,0.7-3,1.2-4.6,1.6
	c-3.4,0.7-6.9,1.1-10.4,1.1c-0.5,0-1.3-0.1-1.6-0.1c-0.4,0-0.7,0.2-0.7,0.6c0.1,0.8,0.3,1.5,0.7,2.2c0.3,0.6,0.4,0.8,1.2,0.8
	c2.4,0,7-0.5,7.1-0.5c0.8,0,0.8,0.7,0.8,2.4c0,1,0,2.2-1,2.2L224,14.2z M266.8,12.4c-1.4,0-2.8,0-3.4,0c-0.8,0-0.7,0.6-0.7,1.5
	c0,1.1,0,1.7,0.8,1.7c0.9,0,2.2-0.1,3.3-0.1h4.7c0.4,0,0.9,0.2,0.9,0.7c0,0.1-0.1,0.6-0.1,0.7l-0.6,5.9c-0.1,0.5-0.5,0.8-1,0.8h-8.1
	c-0.9,0-2.7-0.1-3.3-0.1c-0.8,0-0.9,0.6-0.9,1.8c0,0.7,0,1.5,0.9,1.5c0.8,0,2.1-0.1,3.3-0.1h13.9c1.1,0,2.2,0.1,3.3,0.1
	c1,0,1-0.6,1-1.5c0-1.1,0-1.7-0.9-1.7c-1.2,0-2.3,0.1-3.4,0.1h-0.9c-0.4,0-0.7-0.3-0.7-0.7c0,0,0-0.1,0-0.1l0.7-6.3
	c0-0.2,0.1-0.9,0.2-1.6c0.1-0.5,0.2-0.7,0.2-1c0-0.8-1.2-1.7-2-1.7c-0.1,0-0.3,0-0.5,0c-0.3,0-0.7,0-1.2,0H266.8z M304.1,9.2
	c0.4,0,0.5,0.3,0.5,0.6c-0.1,2.2-0.5,4.5-1.1,6.6c-1,3.5-2.9,7.3-4.6,7.3c-1.7,0-2.2-3.2-2.2-4.4c-0.1-4.2,2.3-8,6.1-9.8
	C303.3,9.4,303.7,9.3,304.1,9.2L304.1,9.2z M307.4,5.2c-7.7-0.1-14.1,6.2-14.1,13.9c0,0.1,0,0.3,0,0.4c0,1.7,0.3,3.3,1.1,4.8
	c0.8,1.8,2.6,3.1,4.6,3.2c1.8-0.2,3.5-1.1,4.5-2.6c3.3-3.9,4.5-10,4.8-14.9c0-0.6,0-1.3,0.8-1.3c0.4,0.1,0.9,0.2,1.3,0.3
	c3.4,1.2,5.6,4.5,5.4,8.1c0,4.9-3.5,7.8-8,8.8c-0.3,0.1-0.9,0.1-0.9,0.5c0,0.7,1.4,2.9,2.3,2.9c1.3-0.3,2.5-0.7,3.7-1.4
	c4.1-2.1,6.7-6.4,6.6-11c0-3.1-1.2-6.2-3.4-8.4C313.8,6.3,310.6,5.1,307.4,5.2z M353.7,10c-0.8-0.7-1.6-1.3-2.6-1.8
	c-0.5,0-2,1.7-2,2.2c0,0.4,0.4,0.6,0.6,0.8c1.6,1.2,3.1,2.4,4.5,3.8c0.2,0.2,0.5,0.4,0.7,0.4c0.7,0,2.1-1.7,2.1-2.3
	c0-0.4-1.7-1.8-2.6-2.5C354.2,10.5,353.9,10.2,353.7,10z M337.7,23.5c0,0.1,0,0.3,0,0.5c0,0.1,0.1,1.5,0.1,1.5c0,0.1,0,0.3-0.2,0.3
	c-0.2,0-0.3-0.1-0.4-0.2c-0.5-0.4-1.1-0.8-1.7-1.1c-0.4,0-0.7,0.3-0.7,0.7c0,0.3,0.2,0.5,0.4,0.6c0.9,0.7,1.6,1.6,2.1,2.6
	c0.3,0.6,0.5,1.3,1.3,1.3c0.9,0,3-0.8,3-2.5c0-0.3-0.2-3.4-0.3-4.1c0-0.5-0.1-1.8-0.1-2.2c0-0.4,0.2-0.8,0.5-1.1
	c1.8-1,3.9-1.6,6-1.6c1.9,0,4.1,1.1,4.1,3.2c0,2.5-2.9,3.1-4.9,3.1c-0.9-0.1-1.9-0.2-2.8-0.3c-0.5,0-0.6,0.4-0.6,0.9
	c0,0.8,0.2,1.7,0.5,2.4c0.2,0.3,0.9,0.4,1.4,0.4h0.4c2,0,5.1-0.3,6.8-1.5c1.7-1.1,2.7-3,2.7-5.1c0-4.1-3.6-6.4-7.4-6.4
	c-1.9,0-3.8,0.4-5.6,1.1c-0.3,0.1-0.6,0.2-0.9,0.3c-0.4,0-0.5-0.7-0.5-1.3v-0.5c0-1.6,0.1-1.8,1.3-2c2.6-0.4,3.2-0.4,3.2-1.3
	c0-0.6-0.1-2.8-0.9-2.8c-0.2,0-0.4,0.1-0.6,0.2c-0.3,0.1-1.9,0.6-2.1,0.6c-0.3,0-0.6-0.3-0.6-0.6c0-0.1,0-0.3,0-0.5
	c0-0.3,0.1-0.6,0.1-0.8c0.1-1.1,0.1-1.5,0.6-1.9c0.1-0.1,0.3-0.3,0.3-0.5c0-0.3-0.5-0.4-0.7-0.4c-0.7-0.1-3-0.6-3.5-0.6
	c-0.3,0-0.4,0.2-0.4,0.5c0,0.1,0.1,0.9,0.1,1.6c0,1,0,1.9-0.1,2.9c0,0.4,0,0.7-0.3,1c-0.4,0.3-0.8,0.4-1.3,0.4
	c-1.1,0.1-2.2,0.2-3.3,0.2c-0.6,0-0.7,0.2-0.7,1.1c0,2.5,0.5,2.5,1,2.5c0.5,0,2.8-0.4,3.5-0.5c0.1,0,0.1,0,0.2,0
	c0.4,0,0.7,0.3,0.7,0.7c0,0,0,0,0,0v0.3c0,0.5,0,1,0,1.5v1.2c0,1.1-0.1,1.1-1.4,1.9c-1.9,1.2-3.7,2.4-5.6,3.5
	c-0.4,0.2-0.8,0.3-0.8,0.7c0,0.7,1.4,3.2,2,3.2c0.2,0,0.4-0.1,0.5-0.3c0.6-0.5,4.6-3.8,5-3.8C337.7,22.6,337.7,22.9,337.7,23.5z
	 M384,9.7c0,0.2,0.1,0.4,0.3,0.5c3.2,2.5,4.6,5.7,5,9.7c0.1,0.8,0,1.3,1.1,1.3c0.6,0,1.3-0.1,1.9-0.3c0.6-0.2,0.9-0.3,0.9-1
	c-0.2-2.5-0.9-4.9-2-7.1c-1.6-3.1-4.5-5.3-5.2-5.3C385.4,7.6,384,9.1,384,9.7z M368.7,7.5c-0.2,0-0.4,0.1-0.5,0.4c0,0,0,0,0,0
	c-0.1,0.3-0.2,4.6-0.2,5.2c0,3.6,0.3,7.9,2,11.1c1.1,2.1,3.1,4.4,5.6,4.4c1.6,0,2.7-1,3.6-2.1c0.5-0.5,2-2.3,2-3c0-0.6-1.7-2-2.4-2
	c-0.4,0-0.7,0.5-0.9,0.8c-0.4,0.7-1.4,2.2-2.3,2.2c-1.2,0-2.3-2-2.7-3c-0.8-2.3-1.2-4.7-1.1-7.1c0-1.2,0.1-2.4,0.3-3.6
	c0.1-0.6,0.1-1.3,0.6-1.6C372.8,9,373,9,373,8.8c0-0.3-0.5-0.4-0.7-0.5C371.7,8.2,369.1,7.5,368.7,7.5z M413.4,2.6
	c-0.5,0-0.5,0.7-0.6,1.2c-0.1,1.5-0.4,2.9-0.7,4.3C411.8,8.9,411.4,9,409,9c-1.4,0-3.4-0.1-3.8-0.1c-0.2,0-0.7,0-0.7,0.9
	c0,0.8,0.2,1.5,0.4,2.2c0.1,0.4,0.5,0.7,0.9,0.7c0.7,0,3.3-0.3,4.1-0.3c0.2,0,0.5,0,0.7,0c0.3,0,0.5,0.2,0.5,0.4c0,0,0,0.1,0,0.1
	c0,0.3-0.1,0.6-0.2,0.9c-0.5,1.9-1.1,3.8-1.9,5.6c-0.2,0.5-0.4,1-0.5,1.5c0,1,1.9,1.9,2.7,1.9c0.4,0,0.7-0.4,1-0.7
	c2-2.5,5-4.1,8.2-4.2c1.8,0,3.3,1.4,3.4,3.3c0,0.1,0,0.2,0,0.3c0,4.5-5.4,5.5-8.9,5.5c-1.3,0-2.3-0.2-2.8-0.2
	c-0.4,0-0.7,0.3-0.7,0.6c0,0,0,0,0,0.1c0.1,0.8,0.2,1.5,0.4,2.2c0.2,0.7,0.4,0.9,1.5,0.9c2.4,0,4.8-0.4,7.1-1c3.9-1.1,6.9-3.7,6.9-8
	c0-4.2-2.7-7-6.9-7c-2.1,0-4.2,0.7-5.9,1.8c-0.1,0.1-0.2,0.1-0.4,0.1c-0.2,0-0.3-0.1-0.3-0.3c0-0.2,0-0.4,0.1-0.6
	c0.2-0.7,0.4-1.4,0.5-1.8c0.4-1.6,0.4-1.8,1.6-2c1.9-0.2,5.9-0.8,7.8-1.2c0.8-0.2,1.2-0.3,1.2-0.8c0-0.7-0.1-1.4-0.3-2.1
	c-0.1-0.5-0.2-1-0.6-1c-0.3,0-0.6,0.1-0.9,0.2c-2.1,0.7-4.3,1.2-6.6,1.5c-0.3,0-0.5-0.2-0.6-0.5c0,0,0,0,0,0c0-0.3,0.1-0.6,0.2-0.9
	c0.1-0.3,0.1-0.5,0.2-0.7c0.1-0.5,0.3-1,0.7-1.4c0.2-0.1,0.3-0.3,0.3-0.5C417.3,3.6,413.8,2.6,413.4,2.6z M457.5,9.7
	c0,0.2,0.1,0.4,0.3,0.5c3.2,2.5,4.6,5.7,5,9.7c0.1,0.8,0,1.3,1.1,1.3c0.6,0,1.3-0.1,1.9-0.3c0.6-0.2,0.9-0.3,0.9-1
	c-0.2-2.5-0.9-4.9-2-7.1c-1.6-3.1-4.5-5.3-5.2-5.3C458.8,7.6,457.5,9.1,457.5,9.7L457.5,9.7z M442.1,7.5c-0.2,0-0.4,0.1-0.5,0.4
	c0,0,0,0,0,0c-0.1,0.3-0.2,4.6-0.2,5.2c0,3.6,0.3,7.9,2,11.1c1.1,2.1,3.1,4.4,5.6,4.4c1.6,0,2.7-1,3.6-2.1c0.5-0.5,2-2.3,2-3
	c0-0.6-1.7-2-2.4-2c-0.4,0-0.7,0.5-0.9,0.9c-0.4,0.7-1.4,2.2-2.3,2.2c-1.2,0-2.3-2-2.7-3c-0.8-2.3-1.2-4.7-1.1-7.1
	c0-1.2,0.1-2.4,0.3-3.6c0.1-0.6,0.1-1.3,0.6-1.6c0.2-0.2,0.3-0.2,0.3-0.4c0-0.3-0.5-0.4-0.7-0.5C445.1,8.2,442.6,7.5,442.1,7.5z
	 M494.1,17.4c0.4,0,0.8,0.3,0.8,0.7c0,0,0,0.1,0,0.1v0.4c0,0.4-0.3,0.8-0.8,0.8c0,0,0,0-0.1,0h-8.6c-0.4,0-0.8-0.3-0.8-0.8
	c0,0,0,0,0-0.1v-0.4c0-0.4,0.3-0.8,0.7-0.8c0,0,0.1,0,0.1,0H494.1z M485.5,15.1c-0.4,0-0.8-0.3-0.8-0.8c0,0,0,0,0-0.1V14
	c0-0.4,0.3-0.8,0.8-0.8c0,0,0,0,0.1,0h8.6c0.4,0,0.8,0.3,0.8,0.8c0,0,0,0,0,0.1v0.3c0,0.4-0.3,0.8-0.8,0.8c0,0,0,0-0.1,0H485.5z
	 M490.6,5.7c1.6,1.7,3.3,3.2,5.2,4.5c0.1,0.1,0.2,0.2,0.2,0.3c0,0.2-0.2,0.2-0.3,0.3c-0.7,0-1.4,0-2.1,0h-1.2
	c-0.6,0-0.9-0.2-0.9-0.9c0-0.3,0.1-0.6,0.4-0.9c0.2-0.2,0.4-0.3,0.4-0.5c0-0.4-0.5-0.4-0.8-0.5c-0.5-0.1-2.2-0.2-2.7-0.2
	c-0.3,0-0.5,0.1-0.5,0.5c0,0.1,0,0.3,0,0.4c0,0.4,0.1,1,0.1,1.2c0,0.6-0.3,0.9-1,0.9H486c-0.5,0-1.1,0-1.6,0c-0.2,0-0.3-0.1-0.3-0.3
	s0.1-0.2,0.2-0.3c1.8-1.4,3.5-2.9,5.1-4.5c0.2-0.2,0.4-0.3,0.6-0.3C490.3,5.3,490.5,5.5,490.6,5.7z M493.6,21.8c1,0,2,0.1,3,0.1
	c1.1,0,1.7-0.3,1.7-1.5c0-0.9,0-1.8,0-2.7V15c0-0.7,0-1.5,0-2.2c0-0.3,0.1-0.5,0.5-0.5c0.1,0,0.2,0,0.3,0.1c0.7,0.4,3.9,2.3,4.6,2.3
	c0.8,0,1.7-1.9,1.7-2.7c0-0.4-0.3-0.5-0.8-0.7c-4.2-1.8-8.9-4.6-12-8.1c-0.1-0.1-0.1-0.2-0.1-0.3c0-0.1,0.1-0.2,0.2-0.2
	c0.2-0.1,0.3-0.2,0.3-0.4c0-0.3-0.4-0.5-0.6-0.6c-0.5-0.1-2.8-0.7-3.2-0.7c-0.4,0-0.5,0.2-0.8,0.7c-2.9,4.4-8.1,7.6-12.8,9.8
	c-0.3,0.1-0.7,0.3-0.7,0.7c0,0.6,1.1,2.4,2,2.4c0.7,0,3-1.5,3.7-1.9c0.1-0.1,0.2-0.1,0.3-0.1c0.3,0,0.4,0.2,0.5,0.5
	c0,0.6,0,1.2,0,1.8v11.8c0.1,0.5-0.3,1-0.7,1c0,0-0.1,0-0.1,0c-0.6,0.1-1.2,0.2-1.8,0.2c-1.5,0.2-1.8,0.2-1.8,0.6
	c0.2,0.8,0.4,1.5,0.6,2.3c0.3,0.9,0.4,1.2,0.7,1.2c0.2,0,0.4-0.1,0.5-0.3c0.2-0.4,0.3-0.4,1.1-0.6c3.4-0.6,6.8-1.2,10.2-2
	c0.8-0.2,1.1-0.3,1.1-1.4v-0.4c0-1.1-0.2-1.3-0.6-1.3c-0.2,0-4.3,0.9-5.1,1.1h-0.2c-0.5,0-0.7-0.4-0.7-0.8v-3.4c0-0.7,0.3-1,1-1h1.9
	c0.6-0.1,1.1,0.3,1.3,0.8c2.1,3.3,5.1,5.8,8.6,7.3c1.8,0.8,3.7,1.4,5.7,1.8c1,0,1.6-1.7,1.6-2.5c0-0.7-0.5-0.7-1.1-0.8
	c-1.8-0.3-3.5-0.8-5.2-1.6c-0.2-0.1-0.3-0.2-0.3-0.4c0-0.2,0.1-0.4,0.3-0.4c1-0.6,1.9-1.3,3-1.9c0.1-0.1,0.2-0.2,0.4-0.2
	c0.2,0.1,0.4,0.1,0.6,0.1c0.2,0,0.3-0.2,0.3-0.4c0-0.5-2.5-2.5-3-2.5c-0.2,0-0.4,0.3-0.6,0.4c-1.1,1-2.3,2-3.5,2.9
	c-0.2,0.2-0.5,0.2-0.7,0.3c-0.3,0-0.5-0.1-0.7-0.3c-0.7-0.5-1.4-1.2-2-1.8c-0.1-0.1-0.1-0.2-0.1-0.3c0-0.3,0.2-0.4,0.5-0.4H493.6z
	 M537.2,5.7c-0.4,0-1.6,1.1-1.6,1.5c0,0.2,0.2,0.3,0.3,0.4c0.8,0.7,1.9,1.8,2.6,2.7c0.1,0.1,0.3,0.3,0.4,0.3c0.4,0,1.6-1.1,1.6-1.6
	C540.5,8.5,537.5,5.7,537.2,5.7z M533.4,8c-0.3,0-1.6,1.1-1.6,1.5c0,0.2,0.1,0.3,0.3,0.4c0.7,0.7,1.4,1.4,1.9,2c0.6,0.6,1,1,1.1,1
	c0.4,0,1.6-1.1,1.6-1.6C536.7,10.8,533.7,8,533.4,8L533.4,8z M524.4,9.6c-1.8,0-3.4,1.6-4.7,2.8c-1.7,1.5-3.5,2.9-5.5,4.1
	c-0.3,0.1-1.1,0.5-1.1,0.8c0,0.6,2.2,3.4,2.8,3.4c0.3,0,0.6-0.4,0.8-0.6c1.2-1.3,3-2.8,4.3-4c0.7-0.7,2.3-2.3,3.2-2.3
	c0.7,0,1.5,0.9,2.5,2.1c2.6,3.2,5.5,6,8.7,8.5c0.8,0.6,1.7,1.2,2.7,1.5c0.9,0,2.5-2.6,2.5-3.2c0-0.4-0.4-0.5-0.7-0.7
	c-4.3-2.1-7.7-5.5-10.8-9.1C528.1,11.4,526.6,9.6,524.4,9.6L524.4,9.6z M572,6.5c-0.6,0-2.6,1.2-2.6,1.8c0,0.2,0.1,0.4,0.3,0.6
	c2,2.1,3.5,4.6,4.6,7.3c0.2,0.3,0.3,0.8,0.8,0.8c0.7,0,2.8-1.3,2.8-2C577.9,14.1,573.2,6.5,572,6.5L572,6.5z M559.6,3.2
	c-0.4,0-0.4,0.4-0.4,0.7c0,0.4,0,0.8,0,1.2c0,1.5-0.1,2.9-0.3,4.4c-0.1,0.7-0.4,0.9-1.1,1c-1.9,0.5-3.7,0.8-5.6,1.1
	c-0.4,0-1,0-1,0.5c0,0.2,0.6,3.5,1.4,3.5c0.2,0,0.5-0.1,0.7-0.2c1.3-0.5,2.6-0.9,3.9-1.2c0.2,0,0.4,0.2,0.4,0.4c0,0,0,0,0,0.1
	c-0.2,0.9-0.5,1.7-0.8,2.6c-1.4,3.5-3.4,6.8-6.1,9.5c-0.3,0.2-0.4,0.5-0.5,0.8c0,0.8,2.2,2.1,2.8,2.1c0.2,0,0.5-0.2,0.6-0.3
	c1.3-1.5,2.4-3.2,3.4-4.9c1.9-3.2,3.3-6.6,4.3-10.1c0.2-1,0.6-1.2,2.5-1.2c2,0,2.1,1.4,2.1,3.1c0,2.6-0.5,5.2-1.5,7.7
	c-0.9,1.7-1.7,2.1-3.5,2.1c-0.7,0-1.3-0.1-1.6-0.1c-0.3,0-0.4,0.2-0.4,0.6c0.1,0.8,0.3,1.6,0.6,2.4c0.3,0.6,0.9,0.9,1.6,0.8
	c2.7,0.1,5.2-1.3,6.4-3.7c1.5-2.7,2-7.3,2-10.4c0-1.9-0.4-3.8-2.1-4.9c-1.2-0.6-2.5-0.9-3.9-0.8c-0.1,0-0.3,0-0.4,0
	c-0.4,0-0.7-0.2-0.7-0.6c0,0,0-0.1,0-0.1c0-0.1,0-0.3,0.1-0.4c0.1-0.6,0.2-1.1,0.2-1.5c0.2-1.2,0.3-1.7,0.9-2.2
	c0.1-0.1,0.3-0.2,0.3-0.4c0-0.4-0.6-0.5-0.9-0.5C562.6,3.8,560,3.2,559.6,3.2L559.6,3.2z M599.3,23.9c-0.5,0-2.1,2-2.1,2.5
	c0,0.7,1.1,1.6,1.7,1.9c1.9,1.3,5,1.5,7.3,1.5c1.8,0,3.5-0.2,5.3-0.4c0.4-0.2,0.4-1,0.4-1.7c0-1.4,0-2.1-0.6-2.1
	c-0.1,0-0.2,0-0.3,0.1c-1.6,0.5-3.2,0.7-4.8,0.7c-2.1,0-4.7-0.3-6.2-2C599.8,24.2,599.6,23.9,599.3,23.9z M601.9,16.1
	c0,0.6,0.2,0.7,0.8,0.7c0.4,0,0.8,0,1.3,0c1.8,0,3.7,0.2,5.4,0.8c0.2,0.1,0.5,0.2,0.7,0.2c0.3,0,0.5-0.1,0.6-0.4
	c0.3-0.8,0.5-1.6,0.6-2.4c0-0.3-0.2-0.6-0.5-0.7c-2.2-0.6-4.5-1-6.8-1C602.5,13.4,601.9,13.2,601.9,16.1z M597.4,1.6
	c-0.3,0-0.3,0.3-0.4,0.9c-0.2,2.1-0.6,4.2-1.3,6.2c-0.3,0.5-0.8,0.5-3,0.5c-1.5,0-2.9-0.1-3.2-0.1c-0.4,0-0.5,0.2-0.5,0.6
	c0,0.8,0.1,1.7,0.3,2.5c0.2,0.6,0.7,0.6,1.4,0.6c1.1,0,2.5-0.2,3-0.2c0.3,0,0.6,0.2,0.6,0.5c-0.1,0.3-0.2,0.6-0.3,0.9
	c-1.3,3.6-3.9,9.5-6,12.6c-0.3,0.3-0.5,0.7-0.6,1.1c0,0.7,2.3,1.8,2.9,1.8c0.5,0,0.8-0.5,1.2-1.3c2.5-4.8,4.6-9.8,6.3-15
	c0.3-1,0.4-1.1,1.4-1.3c1.9-0.3,3.7-0.8,5.6-1.3c0.6-0.2,0.6-0.6,0.6-1.2c0-0.5,0-2.6-0.7-2.6c-0.2,0-0.5,0.1-0.7,0.2
	c-1.3,0.5-2.6,1-3.9,1.3c-0.3,0-0.5-0.2-0.5-0.5c0,0,0,0,0,0c0-0.2,0.7-2.7,0.8-3c0.2-0.7,0.3-0.9,0.8-1.2c0.1-0.1,0.3-0.2,0.3-0.3
	c0-0.4-1-0.6-1.3-0.7C600,2.3,597.7,1.6,597.4,1.6z"/>
</svg>
