<?xml version="1.0" encoding="utf-8"?>
<!-- Generator: Adobe Illustrator 24.2.0, SVG Export Plug-In . SVG Version: 6.00 Build 0)  -->
<svg version="1.1" id="レイヤー_1" xmlns="http://www.w3.org/2000/svg" xmlns:xlink="http://www.w3.org/1999/xlink" x="0px"
	 y="0px" viewBox="0 0 334 90" style="enable-background:new 0 0 334 90;" xml:space="preserve">
<path id="パス_729" d="M13.7,12.1c-0.1,0.1-0.2,0.1-0.3,0.1c-0.1,0-0.2-0.1-0.2-0.3V7.5c0-0.8,0-1.3,0-1.8c-0.1-0.6,0-1.1,0.3-1.6
	c0.1-0.1,0.1-0.2,0.1-0.4c0-0.4-1.2-0.5-2.6-0.7c-0.2,0-0.8-0.1-1-0.1C9.7,2.9,9.6,3,9.6,3.3c0,0.1,0,0.4,0,0.5
	c0,0.8,0.1,1.6,0.1,2.3v17.1c0,1.4-0.1,2.7-0.1,4.1c0,1,0.5,1,1.7,1c1.8,0,1.9-0.2,1.9-1.6c0-1.2-0.1-2.4-0.1-3.6V15
	c0-0.2,0.1-0.5,0.4-0.5c0.1,0,0.2,0,0.3,0.1c1.5,1.1,3,2.2,4.4,3.5c0.2,0.2,0.4,0.3,0.7,0.4c0.6,0,2-1.6,2-2.1s-1.7-1.8-2.1-2.2
	c-0.6-0.5-3.6-2.9-4.2-2.9C14.2,11.5,13.9,11.9,13.7,12.1z M38.9,13.4c-1.3,0-3.3-0.1-3.7-0.1c-0.8,0-0.8,0.2-0.8,1.9
	c0,0.9,0,1.5,0.8,1.5c1.3,0,2.5-0.1,3.8-0.1h13.8c1.2,0,2.5,0.1,3.8,0.1c0.8,0,0.8-0.6,0.8-1.5c0-1.6,0-1.9-0.8-1.9
	c-0.4,0-2.3,0.1-3.7,0.1H38.9z M74.5,6.4c-1.3,0-2.6-0.1-3.9-0.1c-0.8,0-0.7,0.5-0.7,1.5c0,1.4-0.1,1.8,0.8,1.8
	c1.3,0,2.6-0.1,3.9-0.1h6.2c0.4,0,0.9,0.1,0.9,0.5c-0.1,0.4-0.3,0.7-0.5,1c-3,4.7-8.1,9.3-13.4,11.4c-0.3,0.1-0.6,0.2-0.6,0.6
	c0,0.5,1.4,2.6,2,2.6c0.5-0.1,0.9-0.3,1.3-0.6c2.7-1.4,5.3-3.2,7.5-5.2c0.2-0.3,0.5-0.5,0.9-0.5c0.3,0,0.5,0.1,0.7,0.3
	c2.5,1.7,4.7,3.7,6.6,5.9c0.2,0.3,0.4,0.4,0.8,0.5c0.6,0,2.3-1.8,2.3-2.4c0-0.2-0.1-0.3-0.2-0.4c-0.7-0.7-1.4-1.4-2.2-2
	c-1.6-1.4-3.3-2.7-5.1-3.9c-0.3-0.1-0.5-0.4-0.4-0.7c0-0.2,0.1-0.4,0.2-0.6c1.4-1.8,2.8-3.7,3.9-5.7c0.1-0.2,0.3-0.5,0.5-0.8
	c0.3-0.4,0.5-0.8,0.7-1.2c0-0.4-1.3-2-1.9-2c-0.2,0-0.5,0.1-0.7,0.1c-0.4,0.1-0.9,0.1-1.3,0.1L74.5,6.4z M111.3,7.4
	c-0.3,0-0.5-0.1-0.5-0.5c0-0.2,0.1-0.4,0.2-0.6c0.2-0.3,0.4-0.6,0.5-0.8c0.4-0.7,0.4-0.8,0.9-1c0.2-0.1,0.3-0.1,0.3-0.3
	c0-0.2-1.5-0.9-1.8-1c-0.5-0.3-1.1-0.6-1.7-0.7c-0.3,0-0.4,0.5-0.5,0.8c-1.7,4.2-4.4,7.9-7.8,10.8c-0.2,0.1-0.4,0.3-0.4,0.6
	c0,0.5,1.9,1.8,2.5,1.8c0.4-0.1,0.7-0.3,1-0.6c1.4-1.4,2.7-3,3.9-4.6c0.4-0.5,0.6-0.8,1.3-0.8h5.7c0.4,0,1.2,0,1.2,0.6
	c-0.2,0.7-0.4,1.4-0.8,2c-0.1,0.1-0.1,0.3-0.2,0.4c-0.8,1.6-1.1,2.2-1.7,2.2c-0.2,0-0.4-0.1-0.6-0.2c-1.2-0.8-2.5-1.4-3.9-1.9
	c-0.7,0-1.8,1.8-1.8,2.2c0,0.3,0.6,0.5,0.9,0.7c0.8,0.4,2.3,1.2,3,1.6c0.2,0.1,0.4,0.4,0.4,0.6c0,0.3-0.2,0.6-0.4,0.8
	c-2.4,2.5-5.3,4.3-8.6,5.4c-0.8,0.2-1.3,0.3-1.3,0.7c0,0.4,1.4,2.3,2.2,2.3c1.3-0.4,2.5-0.9,3.6-1.5c2.5-1.3,4.7-3,6.5-5.1
	c0.3-0.3,0.6-0.7,1-0.7c0.2,0,0.5,0.1,0.7,0.3c0.4,0.4,0.8,0.7,1.2,1c0.1,0.1,0.3,0.2,0.4,0.2c0.6,0,1.9-1.8,1.9-2.3
	c0-0.4-1.3-1.3-1.7-1.6c-0.3-0.2-0.5-0.4-0.5-0.8c0-0.2,0.1-0.4,0.2-0.6c1.1-1.8,2-3.7,2.8-5.6c0.2-0.5,0.4-1,0.8-1.5
	c0.1-0.1,0.2-0.3,0.2-0.5c0-0.5-1.1-2-1.6-2c-0.1,0-0.2,0-0.3,0.1c-0.6,0.1-1.2,0.2-1.8,0.1H111.3z M136.1,13.4
	c-1.3,0-3.3-0.1-3.7-0.1c-0.8,0-0.8,0.2-0.8,1.9c0,0.9,0,1.5,0.8,1.5c1.3,0,2.5-0.1,3.8-0.1h13.8c1.2,0,2.5,0.1,3.8,0.1
	c0.8,0,0.8-0.6,0.8-1.5c0-1.6,0-1.9-0.8-1.9c-0.4,0-2.3,0.1-3.7,0.1H136.1z M163.5,8.1c0.1,0.7,0.2,1.5,0.3,2.2c0.1,0.3,0.2,1,0.7,1
	c0.2,0,0.3,0,0.4-0.1c1.9-0.5,4.6-0.9,6.6-1.2c0.3,0,1.7-0.3,1.9-0.3s0.4,0.1,0.4,0.4c0,0.1-0.2,0.4-0.5,0.7
	c-2.1,2.4-3.3,5.4-3.3,8.6c0,5.9,4.4,7.5,9.5,7.5c0.5,0,0.8-0.1,1-0.5c0.3-0.8,0.4-1.6,0.4-2.5c0-0.5-0.2-0.5-0.7-0.5
	c-0.3,0-1,0-1.5,0c-3.1,0-5.3-0.8-5.3-4.3c0-1.9,0.5-3.7,1.4-5.3c1.1-2.1,2.9-3.7,5.1-4.5c1.6-0.5,3.3-0.7,5-0.6
	c0.7,0,1.4,0,1.4-0.6c0-0.7-0.1-1.5-0.3-2.2c-0.1-0.4-0.1-0.8-0.6-0.8c-0.1,0-0.3,0-0.4,0c-2.2,0.4-4.5,0.7-6.8,0.9
	c-4.4,0.5-8.7,1-13.1,1.2C163.9,7.4,163.5,7.3,163.5,8.1z M186.2,9.9c-0.4,0-1.5,0.8-1.5,1.1c0,0.1,0.1,0.3,0.2,0.4
	c0.7,0.8,1.4,1.6,1.9,2.5c0.1,0.1,0.2,0.4,0.4,0.4c0.4,0,1.5-0.8,1.5-1.3C188.1,11.8,187.2,10.8,186.2,9.9L186.2,9.9z M182.6,11.5
	c-0.3,0-1.5,0.8-1.5,1.1c0,0.1,0.2,0.3,0.3,0.4c0.7,0.8,1.3,1.6,1.9,2.5c0.1,0.1,0.2,0.4,0.4,0.4c0.3,0,1.5-0.8,1.5-1.3
	C184.5,13.5,183.6,12.4,182.6,11.5L182.6,11.5z M198,19.2c0.2,1,0.6,2,1.2,2.9c1.9,2.7,5.3,3.1,8.4,3.1c3,0,6-0.3,9-0.8
	c0.6-0.2,0.7-0.5,0.7-1.1c0-1.9-0.2-2.5-0.7-2.5c-0.2,0-0.3,0-0.4,0.1c-2.9,0.7-5.9,1.1-8.9,1c-2.8,0-5.4-0.4-6-3.6
	c-0.1-0.3-0.1-0.6-0.5-0.6C200.7,17.8,198,18.5,198,19.2L198,19.2z M201,8.9c0,0.3,0.2,0.5,0.4,0.6c1.5,0.6,5.2,0.8,6.8,0.8
	c1.8,0,3.6-0.1,5.4-0.4c0.7-0.1,0.8-0.2,0.8-0.9c0-1.2,0-2.6-0.8-2.6c-0.1,0-0.3,0-0.4,0.1c-1.8,0.4-3.6,0.6-5.4,0.6
	c-1.7,0-3.4-0.2-5.1-0.6c-0.3-0.1-0.6-0.1-0.9-0.2c-0.6,0-0.6,0.5-0.7,1C201.1,7.8,201,8.3,201,8.9L201,8.9z M228.8,23.7
	c0,0.1-0.5,1.3-0.5,1.3c0,0.5,2.4,1.4,2.9,1.4c0.5,0,0.6-0.5,0.7-0.9c0.6-2.2,1.5-4.4,2.8-6.3c0.8-1.1,1.8-2.1,3.1-2.7
	c0.8-0.5,1.7-0.8,2.6-0.8c0.9,0,1.1,0.6,1.1,1.4c0,0.8-0.1,1.6-0.3,2.4c-0.2,1.1-0.4,2.3-0.4,3.5c0,1.9,0.9,3.7,3,3.7
	c2.3,0,4.4-1.6,6-3.1c0.7-0.7,1.4-1.4,2.1-2c0.2-0.2,0.3-0.4,0.3-0.7c0-0.4-1-2.8-1.6-2.8c-0.2,0-0.4,0.2-0.6,0.4
	c-0.9,1.3-3.8,4.9-5.5,4.9c-0.6,0-0.8-0.6-0.8-1.1c0.1-1,0.2-2,0.5-2.9c0.2-1,0.4-1.9,0.4-2.9c0-0.6-0.1-1.3-0.3-1.9
	c-0.7-1.1-1.9-1.8-3.2-1.8c-1.1,0.1-2.2,0.4-3.2,1c-0.2,0.1-0.3,0.2-0.5,0.2c-0.2,0-0.3-0.1-0.3-0.3c0.9-1.7,1.9-3.3,3-4.8
	c0.6-0.9,1.2-1.7,1.9-2.5c0.2-0.2,0.5-0.4,0.8-0.4c0.3,0,0.5-0.1,0.5-0.5s-1.1-1.1-1.4-1.3c-0.5-0.5-1.1-0.8-1.7-1.1
	c-0.2,0-0.4,0.3-0.4,0.5c-0.4,0.7-0.8,1.4-1.2,2.1c-2.3,3.4-4.4,6.9-6.3,10.6C231,18.6,229.9,21.1,228.8,23.7z M268.4,3.8
	c-0.3,0-0.4,0.2-0.4,0.5c0,0.1,0.1,0.7,0.1,1.2c0,1.3-0.1,2.6-0.3,3.9c-0.1,0.6-0.4,0.8-1,0.9c-1.6,0.3-3.3,0.7-5,0.9
	c-0.4,0-0.9,0-0.9,0.5c0,0.2,0.5,3.1,1.2,3.1c0.2,0,0.4-0.1,0.6-0.2c1.1-0.4,2.3-0.8,3.5-1.1c0.2,0,0.4,0.2,0.4,0.4c0,0,0,0,0,0
	c-0.2,0.8-0.4,1.5-0.8,2.3c-1.2,3.1-3,6-5.4,8.3c-0.2,0.2-0.4,0.4-0.4,0.7c0,0.7,1.9,1.8,2.5,1.8c0.2,0,0.4-0.1,0.5-0.3
	c1.1-1.3,2.1-2.7,3-4.3c1.7-2.8,3-5.8,3.8-9c0.2-0.8,0.5-1.1,2.2-1.1c1.8,0,1.9,1.3,1.9,2.7c0,2.3-0.5,4.6-1.4,6.8
	c-0.5,1.3-1.8,2.1-3.1,1.9c-0.6,0-1-0.1-1.4-0.1c-0.3,0-0.4,0.2-0.4,0.5c0,0.7,0.2,1.5,0.5,2.2c0.3,0.6,0.7,0.7,1.4,0.7
	c2.4,0.1,4.6-1.2,5.7-3.2c1.3-2.4,1.8-6.5,1.8-9.2c0-1.7-0.4-3.4-1.9-4.4c-1-0.5-2.2-0.8-3.4-0.7h-0.4c-0.3,0-0.6-0.2-0.7-0.5
	c0,0,0-0.1,0-0.1c0-0.1,0-0.2,0.1-0.4c0.1-0.5,0.1-0.9,0.2-1.2c0.1-1.1,0.2-1.6,0.8-2c0.1-0.1,0.3-0.2,0.3-0.4
	c0-0.3-0.5-0.4-0.8-0.5C270.9,4.3,268.7,3.8,268.4,3.8z M280.6,3.8c-0.4,0-1.4,0.9-1.4,1.3c0,0.1,0.1,0.3,0.3,0.4
	c0.8,0.7,1.5,1.5,2.1,2.3c0.1,0.1,0.3,0.3,0.4,0.3c0.4,0,1.4-0.9,1.4-1.4C282.7,5.6,281.7,4.6,280.6,3.8z M283.4,1.6
	c-0.3,0-1.4,0.9-1.4,1.3c0,0.1,0.2,0.3,0.3,0.4c0.8,0.8,1.4,1.5,2.1,2.3c0.1,0.2,0.2,0.3,0.4,0.3c0.4,0,1.4-0.9,1.4-1.4
	C285.5,3.4,284.5,2.4,283.4,1.6z M278.5,7c-0.5,0-2.1,1-2.1,1.5c0,0.2,0.1,0.4,0.3,0.5c1.7,1.9,3.1,4.1,4,6.4
	c0.1,0.3,0.3,0.7,0.7,0.7c0.6,0,2.5-1.1,2.5-1.8C283.9,13.6,279.7,7,278.5,7L278.5,7z M308.1,4.4c0,0.1,0,0.3,0.1,0.4
	c0.8,2.7,1.1,5.5,1,8.4c0.1,2.6-0.4,5.2-1.4,7.6c-0.9,1.9-2.3,3.5-4.1,4.7c-0.2,0.1-0.5,0.3-0.5,0.5c0,0.6,1.7,2.1,2.2,2.1
	c0.7,0,1.9-1.2,2.4-1.7c3.8-3.8,4.6-8.2,4.6-13.4c0-2.9-0.3-5.8-0.9-8.6c-0.1-0.5-0.2-0.8-0.8-0.8C310.5,3.4,308.1,3.7,308.1,4.4
	L308.1,4.4z M299.4,4.8c-0.2-0.1-1.5-0.6-1.6-0.6c-0.3,0-0.4,0.5-0.4,0.8c-0.1,0.8-0.3,1.5-0.5,2.2c-0.5,2-0.7,4.1-0.7,6.1
	c0,2.4,0.3,4.7,1,7c0.2,0.6,0.4,1.1,1,1.1c0.6,0,2.2-0.4,2.2-1.2c0-0.2-0.1-0.5-0.1-1c0.1-1.3,0.5-2.5,1-3.7l0.3-0.7
	c0.3-0.7,0.7-1.8,0.7-1.9c0-0.4-0.9-0.9-1.2-0.9c-0.4,0-0.9,1.3-1,1.6c-0.1,0.3-0.3,0.8-0.5,0.8c-0.3,0-0.3-1.3-0.3-1.5
	c0-1.1,0.1-2.3,0.4-3.4c0.2-0.9,0.5-1.7,0.9-2.5c0.1-0.3,0.3-0.5,0.6-0.6c0.1-0.1,0.4-0.2,0.4-0.4C301.4,5.7,300,5.1,299.4,4.8
	L299.4,4.8z M20.8,67.7c0,0.2,0.2,0.3,0.3,0.4c0.6,0.5,1.2,1.1,1.7,1.7c0.1,0.1,0.1,0.2,0.2,0.3c0.3,0.3,0.5,0.6,0.7,0.6
	c0.4,0,1.4-1,1.4-1.4c-0.8-1.1-1.8-2.1-2.9-2.8C21.9,66.4,20.8,67.3,20.8,67.7z M19.3,68.7c-0.3,0-1.4,0.9-1.4,1.3
	c0,0.2,0.2,0.3,0.3,0.4c0.8,0.7,1.5,1.5,2.2,2.3c0.1,0.1,0.2,0.3,0.4,0.3c0.4,0,1.4-1,1.4-1.4C21.5,70.4,20.5,69.5,19.3,68.7z
	 M11.2,69.1c-1.1,0.1-2.1,0.5-2.9,1.2c-1.9,1.8-4,3.5-6.2,4.9c-0.2,0.1-0.8,0.4-0.8,0.7c0,0.4,2,2.8,2.5,2.8c0.3,0,0.5-0.2,0.7-0.4
	c1.3-1.3,3-3,4.4-4.3c0.5-0.5,1.5-1.4,2.3-1.4c0.6,0,1.1,0.7,1.5,1c2.5,2.7,5.1,5.3,7.8,7.8c0.4,0.4,1.6,1.4,2,1.4
	c0.9,0,2.4-2.1,2.4-2.6c0-0.3-0.3-0.5-0.5-0.6c-3.3-2.4-6.3-5.1-9.1-8C14.2,70.5,12.9,69.1,11.2,69.1z M48.2,71.8
	c0-0.5,0.2-1,0.7-1.3c1.4-1.4,2.8-2.9,4.1-4.5c0.3-0.4,0.7-0.7,1.2-0.7c0.2-0.1,0.3-0.1,0.3-0.3c0-0.4-0.8-0.9-1.2-1.1
	c-0.6-0.5-1.3-0.9-2-1.2c-0.2,0-0.4,0.3-0.5,0.4c-1.1,1.9-2.5,3.6-4.1,5.1c-3.5,3.3-7.4,6-11.8,8c-0.2,0.1-0.5,0.2-0.5,0.5
	c0.5,1,1.3,1.9,2.3,2.4c0.8,0,5.5-3.2,6.5-3.8c0.2-0.2,0.9-0.7,1.2-0.7c0.6,0,0.5,0.7,0.5,0.8v8.2c0,1.3-0.1,2.6-0.1,3.9
	c0,0.8,0.3,0.9,2,0.9c1.1,0,1.5-0.1,1.5-0.9c0-1.3-0.1-2.6-0.1-3.9L48.2,71.8z M78.7,67.7c-0.3,0-0.5-0.2-0.5-0.5
	c0.1-0.4,0.3-0.7,0.5-1.1c0.5-0.9,0.6-1.1,1-1.2c0.1-0.1,0.3-0.2,0.3-0.3c0-0.3-1.5-0.9-1.8-1c-0.5-0.3-1-0.5-1.6-0.7
	c-0.3,0-0.4,0.4-0.5,0.7c-1.8,4.2-4.5,7.9-8,10.7c-0.2,0.1-0.3,0.2-0.3,0.4c0,0.6,2.2,1.8,2.6,1.8c0.8,0,4.3-4.1,4.8-4.9
	c0.4-0.5,0.6-0.8,1.3-0.8h5.7c0.4,0,0.9,0,0.9,0.4c0,0.8-1.8,3.7-2.3,4.4c-2.9,4.2-6.9,7.6-11.6,9.6c-0.2,0.1-0.6,0.2-0.6,0.5
	c0,0.6,1.9,2,2.6,2c0.6,0,3.4-1.8,4.1-2.2c5.5-3.6,8.5-8,11.4-13.7c0.3-0.6,0.6-1.1,0.9-1.6c0.2-0.2,0.3-0.5,0.4-0.8
	c0-0.4-1.3-2-1.9-2c-0.1,0-0.2,0-0.3,0c-0.6,0.1-1.1,0.2-1.7,0.2H78.7z M119,63.4c-0.3,0-1.5,0.9-1.5,1.2c0,0.2,0.2,0.3,0.3,0.4
	c0.7,0.7,1.4,1.6,2.1,2.4c0.1,0.1,0.2,0.4,0.4,0.4c0.4,0,1.5-0.9,1.5-1.3C121,65.2,120.1,64.2,119,63.4z M115.8,65.5
	c-0.3,0-1.5,0.8-1.5,1.2c0,0.2,0.1,0.3,0.3,0.4c0.7,0.8,1.4,1.6,2,2.4c0.1,0.1,0.3,0.3,0.4,0.3c0.4,0,1.5-0.9,1.5-1.3
	C117.9,67.3,116.9,66.3,115.8,65.5L115.8,65.5z M110.6,72.1c-0.1,0.1-0.2,0.1-0.3,0.1c-0.1,0-0.2-0.1-0.2-0.3v-4.5
	c0-0.8,0-1.3,0-1.8c-0.1-0.6,0-1.1,0.3-1.6c0.1-0.1,0.1-0.2,0.2-0.4c0-0.4-1.2-0.5-2.6-0.7c-0.2,0-0.8-0.1-1-0.1
	c-0.3,0-0.4,0.2-0.4,0.5c0,0.1,0,0.4,0,0.5c0,0.8,0.1,1.6,0.1,2.3v17.1c0,1.3-0.1,2.7-0.1,4.1c0,1,0.5,1,1.7,1
	c1.8,0,1.9-0.2,1.9-1.6c0-1.2-0.1-2.4-0.1-3.6V75c0-0.2,0.1-0.5,0.4-0.5c0.1,0,0.2,0,0.3,0.1c1.5,1.1,3,2.2,4.3,3.5
	c0.2,0.2,0.4,0.3,0.7,0.4c0.6,0,2-1.6,2-2.1c0-0.5-1.7-1.8-2.1-2.2c-0.6-0.5-3.6-2.9-4.2-2.9C111.1,71.5,110.8,71.9,110.6,72.1
	L110.6,72.1z M142.9,72.1c-1.9-0.1-3.6,1.4-3.7,3.3c0,0.1,0,0.2,0,0.4c0,1.7,1.3,3.1,3.1,3.2c0.1,0,0.1,0,0.2,0
	c1.9,0.1,3.5-1.4,3.6-3.3c0-0.1,0-0.2,0-0.3c0-1.7-1.3-3.1-3-3.2C143.1,72.1,143,72.1,142.9,72.1z M183.8,63.4
	c-0.3,0-1.5,0.9-1.5,1.2c0,0.2,0.1,0.3,0.3,0.4c0.7,0.7,1.4,1.6,2.1,2.4c0.1,0.1,0.2,0.4,0.4,0.4c0.4,0,1.5-0.9,1.5-1.3
	C185.8,65.2,184.9,64.2,183.8,63.4z M180.6,65.5c-0.3,0-1.5,0.8-1.5,1.2c0,0.2,0.1,0.3,0.3,0.4c0.7,0.8,1.4,1.6,2,2.4
	c0.1,0.1,0.3,0.3,0.4,0.3c0.4,0,1.5-0.9,1.5-1.3C182.7,67.3,181.7,66.3,180.6,65.5z M175.4,72.1c-0.1,0.1-0.2,0.1-0.3,0.1
	c-0.1,0-0.2-0.1-0.2-0.3v-4.5c0-0.8,0-1.3,0-1.8c-0.1-0.6,0-1.1,0.3-1.6c0.1-0.1,0.1-0.2,0.1-0.4c0-0.4-1.2-0.5-2.6-0.7
	c-0.2,0-0.8-0.1-1-0.1c-0.3,0-0.4,0.2-0.4,0.5c0,0.1,0,0.4,0,0.5c0,0.8,0.1,1.6,0.1,2.3v17.1c0,1.3-0.1,2.7-0.1,4.1c0,1,0.5,1,1.7,1
	c1.8,0,1.9-0.2,1.9-1.6c0-1.2-0.1-2.4-0.1-3.6V75c0-0.2,0.1-0.5,0.4-0.5c0.1,0,0.2,0,0.3,0.1c1.5,1.1,3,2.2,4.4,3.5
	c0.2,0.2,0.4,0.3,0.7,0.4c0.6,0,2-1.6,2-2.1c0-0.5-1.7-1.8-2.1-2.2c-0.6-0.5-3.6-2.9-4.2-2.9C175.9,71.5,175.6,71.9,175.4,72.1z
	 M200.6,73.4c-1.3,0-3.3-0.1-3.7-0.1c-0.8,0-0.8,0.2-0.8,1.9c0,0.9,0,1.5,0.8,1.5c1.3,0,2.5-0.1,3.8-0.1h13.8c1.2,0,2.5,0.1,3.8,0.1
	c0.8,0,0.8-0.6,0.8-1.5c0-1.7,0-1.9-0.8-1.9c-0.4,0-2.3,0.1-3.7,0.1H200.6z M232.2,70.9c-1.2,0-2.9-0.1-3.8-0.1
	c-0.8,0-0.8,0.4-0.8,1.6c0,1.3,0.1,1.7,0.8,1.7c1,0,2.5-0.1,3.8-0.1h5.9c0.4,0,0.7,0.3,0.7,0.8c0,0.3-0.1,0.5-0.1,0.8
	c-0.7,4.1-3.4,7.7-7.3,9.3c-0.2,0.1-0.8,0.3-0.8,0.6c0.5,1,1.4,1.8,2.5,2.2c0.9-0.4,1.8-0.9,2.6-1.5c3.6-2.6,5.9-6.7,6.3-11.1
	c0.1-0.5,0.3-1,0.9-1h4.3c1.3,0,2.6,0.1,3.9,0.1c0.6,0,0.8-0.3,0.8-1.6c0-1.3,0-1.7-0.8-1.7c-1.3,0-2.6,0.1-4,0.1h-4
	c-0.6,0-0.9-0.5-0.9-1.1c0-1.3,0-2.6,0-4v-0.5c0-0.5,0-0.7,0.3-1c0.1-0.1,0.1-0.2,0.1-0.3c0-0.2-0.3-0.3-0.4-0.4
	c-0.4-0.1-2.7-0.3-3.1-0.3c-0.1,0-0.3,0.1-0.3,0.2c0,0,0,0,0,0.1c0,0.1,0,0.3,0,0.4c0.1,0.5,0.1,4.3,0.1,5v0.4
	c0,0.7-0.1,1.4-0.9,1.4L232.2,70.9z M264.4,73.2c-1.3,0-3-0.1-3.8-0.1c-0.8,0-0.8,0.5-0.8,1.8c0,1,0,1.5,0.8,1.5
	c1,0,2.4-0.1,3.8-0.1h6.1c0.3,0,0.5,0.2,0.5,0.5c0,0,0,0,0,0c-0.1,0.5-0.3,1-0.5,1.5c-1.4,3.4-3.5,5.1-6.7,6.8
	c-0.3,0.2-0.7,0.3-0.7,0.6c0.5,1,1.3,1.7,2.3,2.1c0.6,0,2.9-1.7,3.5-2.1c2.6-2,4.4-4.8,5.3-8c0.2-0.8,0.4-1.3,1.3-1.3h4.5
	c1.3,0,2.6,0,3.9,0c0.8,0,0.8-0.4,0.8-1.5c0-1.3,0-1.7-0.8-1.7c-1.1,0-2.5,0.1-3.9,0.1h-4.3c-0.5,0-0.7-0.4-0.7-0.8
	c0-0.5,0-1.1,0-1.7c0-0.5-0.1-1.1-0.1-1.7c0-0.5,0.4-0.7,0.8-0.8c0.6-0.2,1.3-0.3,1.9-0.5c0.5-0.2,2.5-0.8,2.9-0.8
	c0.1,0,0.2,0,0.3,0c0.1,0,0.2,0,0.3,0c0.2,0,0.4-0.1,0.4-0.3c0-0.4-1.2-1.5-1.5-1.8c-0.2-0.2-0.9-1-1.2-1c-0.2,0-0.4,0.1-0.5,0.2
	c-1.3,0.6-2.6,1.1-4,1.4c-3,0.6-6.1,1-9.1,1c-0.5,0-1.1-0.1-1.4-0.1c-0.4,0-0.6,0.2-0.6,0.5c0.1,0.7,0.3,1.3,0.6,1.9
	c0.2,0.6,0.4,0.7,1,0.7c2.1,0,6.1-0.5,6.3-0.5c0.7,0,0.7,0.6,0.7,2.1c0,0.9,0,2-0.9,2L264.4,73.2z M302.1,71.6c-1.2,0-2.5,0-3,0
	c-0.7,0-0.7,0.6-0.7,1.3c0,1,0,1.5,0.7,1.5c0.8,0,1.9-0.1,2.9-0.1h4.2c0.4,0,0.8,0.2,0.8,0.6c0,0.1-0.1,0.5-0.1,0.6l-0.6,5.2
	c-0.1,0.4-0.4,0.7-0.8,0.7h-7.2c-0.8,0-2.4-0.1-2.9-0.1c-0.7,0-0.8,0.5-0.8,1.6c0,0.6,0,1.3,0.8,1.3c0.7,0,1.9-0.1,2.9-0.1h12.3
	c1,0,2,0.1,2.9,0.1c0.8,0,0.8-0.5,0.8-1.3c0-1,0-1.5-0.8-1.5c-1,0-2,0.1-3,0.1h-0.8c-0.4,0-0.6-0.3-0.6-0.6c0,0,0-0.1,0-0.1l0.6-5.5
	c0-0.2,0.1-0.8,0.2-1.4c0.1-0.4,0.1-0.6,0.1-0.8c0-0.7-1-1.5-1.7-1.5c-0.1,0-0.3,0-0.4,0c-0.3,0-0.7,0-1,0H302.1z M328.5,81
	c1.5,0,2.7,1.1,2.7,2.6c0,0,0,0,0,0.1c0,1.5-1.2,2.7-2.7,2.7c-1.5,0-2.7-1.2-2.7-2.7C325.9,82.2,327,81,328.5,81z M328.5,79.5
	c-2.3,0-4.2,1.9-4.2,4.2c0,2.3,1.9,4.2,4.2,4.2c2.3,0,4.2-1.9,4.2-4.2C332.7,81.4,330.8,79.5,328.5,79.5
	C328.5,79.5,328.5,79.5,328.5,79.5z"/>
</svg>
