<?xml version="1.0" encoding="utf-8"?>
<!-- Generator: Adobe Illustrator 24.2.0, SVG Export Plug-In . SVG Version: 6.00 Build 0)  -->
<svg version="1.1" id="レイヤー_1" xmlns="http://www.w3.org/2000/svg" xmlns:xlink="http://www.w3.org/1999/xlink" x="0px"
	 y="0px" viewBox="0 0 304 94" style="enable-background:new 0 0 304 94;" xml:space="preserve">
<style type="text/css">
	.st0{fill:#FFFFFF;}
</style>
<g id="グループ_1055" transform="translate(-527.491 -4219.156)">
	<g id="グループ_1049" transform="translate(559.98 4231.706)">
		<path id="パス_722" class="st0" d="M49.6,73.1c-0.5,0.7-0.8,1.5-0.9,2.4c0,2.2,1.9,3.4,5.8,3.4c1.7,0,3.3-0.1,5-0.4
			c0.2,0,0.3-0.1,0.3-0.3c-0.1-0.6-0.1-1.1-0.3-1.7c0-0.2-0.1-0.2-0.4-0.2c-1.5,0.3-3.1,0.5-4.6,0.5c-2.9,0-4-0.5-4-1.6
			c0-0.5,0.2-0.9,0.4-1.3c0.1-0.1,0.1-0.2-0.1-0.3C50.5,73.6,50.1,73.3,49.6,73.1z M50,66.7c0,0.6-0.1,1.1-0.1,1.5
			c0,0.2,0.1,0.3,0.2,0.3c1,0.2,2.1,0.3,3.1,0.3c0.4,0,0.8,0,1.2-0.1c-0.6,0.4-1.3,0.8-2.2,1.4c0.4,0.1,0.8,0.3,1.2,0.5
			c0.1,0.1,0.2,0.1,0.4,0.1c0.2,0,0.3-0.1,0.4-0.2c1.2-0.9,2.7-1.4,4.2-1.7c0.2,0,0.3-0.1,0.3-0.4c0-0.5-0.1-1-0.2-1.4
			c0-0.1-0.1-0.2-0.3-0.2c-1.1,0.1-2.3,0.2-3.5,0.2C53.2,67.2,51.6,67,50,66.7L50,66.7z M58.5,65.9c0.7,0.6,1.3,1.2,1.7,2
			c0,0.1,0.1,0.1,0.2,0.1c0,0,0,0,0.1,0l0.7-0.5c0.1,0,0.1-0.1,0.1-0.2c0,0,0,0,0,0c-0.4-0.7-1-1.3-1.6-1.8c-0.1-0.1-0.2-0.1-0.3,0
			L58.5,65.9z M60.1,64.7c0.7,0.6,1.2,1.2,1.7,2c0,0.1,0.1,0.1,0.2,0.1c0,0,0,0,0.1,0l0.7-0.5c0.1-0.1,0.1-0.2,0.1-0.3c0,0,0,0,0,0
			c-0.4-0.7-1-1.3-1.6-1.8c-0.1-0.1-0.2-0.1-0.3,0L60.1,64.7z M71.8,79.8c0.2,0,0.2,0,0.2-0.2v-0.8h7.7v0.8c0,0.2,0,0.2,0.2,0.2h1.5
			c0.2,0,0.2,0,0.2-0.2c0-0.1,0-1,0-5.5v-3.6c0-2.7,0-3.7,0-3.8c0-0.2,0-0.2-0.2-0.2c-0.1,0-0.7,0-2.4,0h-3.3
			c0.2-0.4,0.4-0.8,0.6-1.3c0.1-0.2,0.1-0.3,0.3-0.4c0.1-0.1,0.1-0.1,0.1-0.2c0-0.1-0.1-0.2-0.2-0.2c-0.5-0.1-1.2-0.2-1.8-0.3
			c0,0.3-0.1,0.5-0.2,0.8c-0.2,0.5-0.4,1.1-0.6,1.6h-1.1c-1.6,0-2.2,0-2.4,0c-0.2,0-0.2,0-0.2,0.2c0,0.1,0,1.1,0,4.2v3.1
			c0,4.5,0,5.4,0,5.5c0,0.2,0,0.2,0.2,0.2L71.8,79.8z M72,77.2v-2h7.7v2H72z M72,73.6v-1.9h7.7v1.9H72z M72,68.2h7.7v1.9H72V68.2z
			 M97.3,73.2v-2.1c1.1-0.3,2.2-0.6,3.3-0.9c0.3-0.1,0.5-0.1,0.7-0.2c0.2,0,0.3-0.1,0.3-0.2c0-0.1-0.1-0.3-0.2-0.3
			c-0.3-0.4-0.7-0.8-1.1-1.1c-0.4,0.2-0.8,0.4-1.3,0.5c-2.7,0.8-5.4,1.3-8.1,1.5c0.3,0.3,0.5,0.7,0.6,1.1c0.2,0.5,0.2,0.5,0.6,0.4
			c1.2-0.2,2.3-0.3,3.3-0.5v1.9L92,73.8c-1.5,0.2-1.9,0.2-2.1,0.2c-0.2,0-0.2,0-0.2,0.2l0.1,1.3c0,0.2,0.1,0.2,0.2,0.2
			c0.2,0,0.7-0.1,2.1-0.3l3.4-0.4v2.8c-0.1,0.7,0.3,1.4,1,1.7c1.1,0.2,2.2,0.3,3.2,0.3c1.9,0,3.1-0.2,3.6-0.6c0.6-0.6,1-1.4,1-2.2
			c0-0.5,0-0.5-0.4-0.6c-0.5-0.1-0.9-0.3-1.3-0.5c0,1.2-0.2,1.6-0.5,1.9c-0.3,0.3-1.1,0.4-2.4,0.4c-0.6,0-1.2,0-1.8-0.1
			c-0.4-0.1-0.5-0.3-0.5-0.8v-2.5l4.8-0.5c1.5-0.2,2-0.2,2.2-0.2c0.2,0,0.2-0.1,0.2-0.2l-0.1-1.3c0-0.2,0-0.2-0.2-0.2
			c-0.2,0-0.7,0.1-2.1,0.3L97.3,73.2z M97.8,66.1V66c0-0.3,0-0.7,0.1-1c0-0.1,0.1-0.2,0.1-0.3c0-0.1-0.1-0.2-0.3-0.2
			c-0.6-0.1-1.2-0.1-1.8-0.1c0.1,0.5,0.1,1.1,0.1,1.6v0.1h-3.7c-1.6,0-2.1,0-2.2,0c-0.2,0-0.2,0-0.2,0.2c0,0.1,0,0.4,0,1.1V68
			c0,1.5,0,1.8,0,1.9c0,0.2,0,0.2,0.2,0.2h1.4c0.2,0,0.2,0,0.2-0.2v-2.1h10.8v2.1c0,0.2,0,0.2,0.2,0.2h1.4c0.2,0,0.2,0,0.2-0.2
			c0-0.1,0-0.4,0-1.9v-0.7c0-0.5,0-0.8,0-0.9c0-0.2,0-0.2-0.2-0.2c-0.1,0-0.7,0-2.2,0L97.8,66.1z M125.1,68.1c0-1.8,0-2.7,0-2.8
			c0-0.2,0-0.2-0.2-0.2c-0.1,0-0.7,0-2.3,0h-8c-1.6,0-2.2,0-2.3,0c-0.2,0-0.2,0-0.2,0.2c0,0.1,0,1,0,2.8v2.8c0,4.1-0.5,6.1-1.8,7.7
			c0.4,0.2,0.9,0.5,1.2,0.9c0.2,0.2,0.3,0.3,0.4,0.3s0.2-0.1,0.3-0.3c0.9-1.4,1.4-3,1.5-4.7h3.9v2c0,1.6,0,2.4,0,2.5
			c0,0.2,0,0.2,0.2,0.2h1.5c0.2,0,0.2,0,0.2-0.2c0-0.1,0-0.9,0-2.5v-2h4v2.8c0,0.4-0.2,0.6-0.5,0.6c-0.6,0-0.9,0-1.6-0.1
			c0.2,0.4,0.4,0.8,0.5,1.3c0.1,0.5,0.1,0.5,0.6,0.5c1.4,0,1.9-0.2,2.2-0.4c0.4-0.3,0.6-0.9,0.6-1.4c0-0.7,0-1.6,0-2.3V68.1z
			 M119.3,73.1v-2.4h4v2.4H119.3z M123.3,66.8v2.4h-4v-2.4H123.3z M113.8,73.1c0-0.7,0.1-1.4,0.1-2.2v-0.2h3.7v2.4L113.8,73.1z
			 M113.8,69.1v-2.4h3.7v2.4H113.8z M136.7,70.2l-1.4,0.4c-1.1,0.3-2.1,0.5-3.2,0.6c0.2,0.6,0.4,1.2,0.7,1.7
			c0.1,0.2,0.2,0.3,0.3,0.3c0.1,0,0.1,0,0.2-0.1c0.8-0.3,1.6-0.5,2.4-0.7l1.1-0.3v3.4c0,2.3,1,3,4.2,3c1.4,0,2.7-0.1,4.1-0.2
			c0.3,0,0.4-0.1,0.4-0.3c0-0.5-0.1-1-0.2-1.4c0-0.3-0.1-0.4-0.3-0.3c-1.4,0.2-2.7,0.4-4.1,0.4c-1.8,0-2.1-0.3-2.1-1.2v-3.9l4.7-1.2
			c-0.7,1.3-1.7,2.4-2.8,3.4c0.5,0.2,1,0.4,1.4,0.6c0.1,0.1,0.2,0.1,0.3,0.1c0.2,0,0.3-0.1,0.4-0.3c1.1-1.1,2-2.3,2.7-3.7
			c0.1-0.3,0.3-0.5,0.5-0.7c0.1-0.1,0.2-0.2,0.2-0.3c0-0.1-0.1-0.2-0.2-0.3c-0.4-0.4-0.8-0.8-1.3-1.1c-0.1-0.1-0.1-0.1-0.2-0.1
			c-0.1,0-0.2,0-0.2,0.1c-0.3,0.3-0.8,0.4-1.2,0.5l-4.4,1V68c-0.1-0.5,0-1,0.2-1.5c0.1-0.1,0.1-0.2,0.1-0.3c0-0.2-0.1-0.3-0.3-0.3
			c-0.7-0.2-1.5-0.3-2.2-0.3c0.2,1,0.3,2,0.2,3V70.2z M155.4,70.6c0.7,0.8,1.2,1.7,1.6,2.7c0.1,0.2,0.2,0.3,0.4,0.2
			c0.4-0.1,0.7-0.3,1.1-0.5c0.1-0.1,0.2-0.1,0.2-0.2c0-0.1,0-0.2-0.1-0.3c-0.3-0.9-0.8-1.8-1.5-2.5c-0.1-0.1-0.2-0.2-0.4-0.1
			c0,0,0,0,0,0C156.4,70.1,156,70.3,155.4,70.6L155.4,70.6z M158.9,69.7c0.6,0.8,1.1,1.8,1.4,2.7c0.1,0.2,0.2,0.3,0.3,0.3
			c0.4-0.1,0.8-0.3,1.2-0.5c0.2-0.1,0.3-0.2,0.2-0.5c-0.3-0.9-0.8-1.7-1.3-2.5c-0.1-0.2-0.2-0.2-0.4-0.2c0,0,0,0-0.1,0
			C159.9,69.2,159.5,69.4,158.9,69.7L158.9,69.7z M164.2,69.3c0,0.6-0.2,1.2-0.4,1.8c-0.6,1.5-1.4,2.8-2.3,4.1
			c-1.1,1.4-2.5,2.6-4.1,3.5c0.5,0.1,1,0.4,1.4,0.7c0.1,0.1,0.2,0.1,0.3,0.1c0.2,0,0.3-0.1,0.4-0.2c1.4-0.9,2.5-2,3.5-3.3
			c1-1.4,1.9-2.9,2.6-4.5c0.1-0.3,0.3-0.6,0.5-0.9c0.1-0.1,0.2-0.2,0.2-0.3c0-0.1-0.1-0.2-0.2-0.3C165.5,69.8,164.9,69.5,164.2,69.3
			L164.2,69.3z M181.5,67.4c-0.1-0.5,0-1.1,0.1-1.6c0.1-0.1,0.1-0.3,0.1-0.4c0-0.1-0.1-0.2-0.3-0.3c-0.7-0.1-1.4-0.2-2.1-0.3
			c0.1,0.8,0.2,1.7,0.2,2.5v8.4c0,1.1,0,2.1-0.1,3.3c0,0.2,0.1,0.3,0.3,0.3c0.5,0,1,0,1.5,0c0.2,0,0.3-0.1,0.3-0.3
			c0-1.2-0.1-2.2-0.1-3.3V72c1.6,0.5,3.1,1.3,4.5,2.2c0,0.1,0.1,0.1,0.2,0.1c0.1,0,0.2-0.1,0.2-0.2c0.3-0.5,0.5-1,0.7-1.5
			c0.1-0.2,0-0.3-0.2-0.4c-1.7-1-3.5-1.8-5.4-2.3L181.5,67.4z"/>
		<g id="グループ_302" transform="translate(-32.489 -12.55)">
			<path id="パス_449" class="st0" d="M10.8,10.6c-1.6,0.5-2.6,2.1-2.1,3.8c0.8,2.7,1.4,5.4,1.9,8.2c0.5,2.7,1,5.4,1.4,8.1
				c0.3,2.8,0.7,5.5,1,8.3c0-0.3-0.1-0.5-0.1-0.8c0.2,1.5,0.4,3,0.6,4.5c0-0.3-0.1-0.5-0.1-0.8c0.6,4.6,1.4,9.2,2.1,13.8
				c0.1,0.7,0.2,1.3,0.2,2c0,1.7,1.4,3.1,3.1,3.1s3.1-1.4,3.1-3.1c-0.2-2.7-0.6-5.3-1.1-8c-0.4-2.6-0.8-5.2-1.2-7.8
				c0,0.1,0,0.1,0,0.2c-0.2-1.2-0.3-2.4-0.5-3.6c0,0.1,0,0.2,0,0.4c-0.1-0.6-0.2-1.2-0.2-1.8c-0.2-1.9-0.5-3.7-0.7-5.6
				c-0.3-2.3-0.7-4.5-1.1-6.8c-0.6-4-1.5-7.9-2.5-11.8c-0.4-1.3-1.6-2.2-3-2.3C11.3,10.5,11.1,10.5,10.8,10.6L10.8,10.6z"/>
			<path id="パス_450" class="st0" d="M2,10.6c0,0.2,0,0.5,0,0.7c0,1.8,0.1,3.6,0.2,5.4c0.1,0,0.2,0,0.2,0C4.7,16.9,7.1,17,9.4,17
				c2.3,0,4.5,0,6.8,0.2c2.5,0.4,4.9,1,7.2,1.9c1.3,0.6,2.6,1.3,3.7,2.1c0.6,0.5,1.2,1,1.7,1.6c0.4,0.6,0.8,1.2,1.1,1.9
				c0.4,1.1,0.7,2.3,1,3.5c0.2,1.2,0.5,2.5,0.7,3.7c0.1,1.1,0.2,2.2,0.2,3.3c0,1-0.1,2-0.2,3c-0.3,2-0.8,4-1.5,5.8
				c-0.4,0.8-0.8,1.6-1.4,2.4c-1,1.1-2.1,2.1-3.2,3c-0.9,0.7-1.8,1.3-2.7,1.8c-0.9,0.5-1.9,1-2.8,1.4c-1,0.5-1.9,1-2.9,1.5
				c-1,0.5-2,1.1-3,1.5c-0.1,0-0.1,0-0.2,0.1c-1.6,0.5-2.6,2.1-2.1,3.8c0.5,1.6,2.1,2.6,3.8,2.1c1.6-0.6,3.2-1.4,4.7-2.2
				c1.1-0.6,2.3-1.1,3.4-1.7c1.2-0.6,2.4-1.2,3.5-1.9c1.4-0.9,2.7-1.9,3.9-3c1.3-1.2,2.5-2.5,3.4-4c0.9-1.5,1.6-3.1,2.1-4.8
				c0.5-1.5,0.8-3,1-4.5c0.3-1.8,0.4-3.5,0.3-5.3c-0.1-1.8-0.3-3.6-0.7-5.4c-0.3-1.5-0.5-2.9-0.9-4.4c-0.2-0.6-0.4-1.2-0.7-1.8
				c-0.3-0.8-0.7-1.7-1.2-2.4c-0.8-1.2-1.7-2.3-2.8-3.2c-1.2-1-2.4-1.8-3.8-2.5c-1.5-0.8-3-1.4-4.6-1.9c-3.2-1-6.5-1.5-9.8-1.6
				c-3.7,0-7.3,0-11-0.2c0,0-0.1,0-0.1,0C2.2,10.6,2.1,10.6,2,10.6L2,10.6z"/>
			<path id="パス_451" class="st0" d="M65.6,13.2c-1.5,0.2-3,0.6-4.5,1c-1.7,0.5-3.3,1.3-4.8,2.1c-0.9,0.5-1.7,1.1-2.5,1.7
				c-1,0.8-1.8,1.7-2.5,2.8c-0.5,0.8-0.9,1.6-1.2,2.5c-0.3,0.7-0.5,1.5-0.7,2.2c-0.4,1.7-0.7,3.3-0.8,5c-0.1,1.5-0.1,3.1,0,4.6
				c0.1,1.8,0.3,3.6,0.6,5.3c0.3,1.5,0.6,3,1.1,4.5c0.2,0.7,0.4,1.3,0.7,2c0.7,1.7,1.5,3.4,2.5,5c0.9,1.4,2,2.6,3.4,3.7
				c1,0.7,2,1.3,3.1,1.7c1.8,0.6,3.6,0.9,5.5,0.8c0.2,0,0.4,0,0.5,0c0.5,0.4,1.2,0.7,1.9,0.6c1.6-0.1,3.3-0.3,4.9-0.6
				c1.2-0.1,2.5-0.4,3.7-0.8c1.5-0.6,2.9-1.3,4.2-2.1c1.5-0.9,2.9-2,4-3.3c1.1-1.4,2-2.9,2.7-4.6c0.5-1.4,1-2.9,1.3-4.4
				c0.4-1.6,0.6-3.1,0.8-4.7c0.2-1.5,0.3-2.9,0.2-4.4c-0.1-1.6-0.3-3.2-0.6-4.8c-0.3-1.4-0.8-2.8-1.4-4.2c-0.7-1.6-1.5-3.2-2.4-4.7
				c-1.2-1.8-2.9-3.4-4.8-4.5c-1.5-0.9-3.1-1.6-4.8-2.1c-0.7-0.2-1.4-0.4-2.1-0.5c-1-0.2-2-0.3-3.1-0.3c-0.2,0-0.3,0-0.5,0
				C68.6,12.8,67.1,12.9,65.6,13.2L65.6,13.2z M71.7,19c0.6,0.1,1.3,0.2,1.9,0.4c0.7,0.2,1.5,0.4,2.2,0.7c0.9,0.4,1.8,0.9,2.6,1.4
				c0.6,0.5,1.1,1,1.6,1.6c0.8,1.1,1.4,2.4,2,3.6c0.3,0.7,0.6,1.5,0.8,2.3c0.3,0.9,0.5,1.9,0.6,2.9c0.1,1,0.2,2.1,0.2,3.1
				c0,1.1-0.1,2.2-0.2,3.3c-0.4,2.5-1,4.9-1.8,7.2c-0.4,0.8-0.8,1.5-1.3,2.2c-0.5,0.5-1,1-1.5,1.5c-1.3,0.9-2.7,1.7-4.1,2.3
				c-1.7,0.5-3.4,0.8-5.1,1c0.3,0,0.5-0.1,0.8-0.1c-0.8,0.1-1.6,0.2-2.4,0.2c-0.2,0-0.4,0-0.5,0.1c-0.5-0.4-1.2-0.7-1.9-0.7
				c-0.7,0-1.4,0-2.1-0.1c-0.5-0.1-0.9-0.2-1.3-0.4c-0.6-0.3-1.2-0.6-1.7-1c-0.4-0.4-0.8-0.8-1.2-1.2c-0.8-1.1-1.4-2.2-2-3.4
				c-0.5-1.1-0.9-2.3-1.2-3.4c-0.3-1.3-0.7-2.7-0.9-4c-0.4-2.8-0.4-5.7-0.2-8.6c0.2-1.7,0.7-3.4,1.2-5c0.2-0.4,0.4-0.9,0.7-1.3
				c0.3-0.4,0.6-0.7,1-1c1.2-0.8,2.5-1.5,3.8-2.1c2-0.7,4-1.2,6-1.5C69,18.9,70.4,18.9,71.7,19L71.7,19z M54.8,30.4l0,0.2
				C54.8,30.5,54.8,30.5,54.8,30.4z"/>
			<path id="パス_452" class="st0" d="M93.7,19.5c0.1,0.7,0.2,1.3,0.3,2c0.8,6.3,0.3,12.5,0.6,18.8c0.1,1.7,0.3,3.3,0.6,4.9
				c0.3,1.6,0.8,3.2,1.5,4.8c0.6,1.3,1.5,2.5,2.6,3.5c0.6,0.5,1.2,1,1.9,1.4c0.8,0.5,1.7,0.9,2.6,1.2c0.6,0.2,1.2,0.4,1.9,0.6
				c0.3,0.1,0.6,0.1,0.9,0.2c0.6,0.1,1.1,0.1,1.7,0.2c0.5,0,1.1-0.1,1.6-0.2c0.9-0.2,1.7-0.5,2.5-0.9c0.9-0.4,1.6-1,2.3-1.6
				c1.3-1.3,2.3-2.9,2.9-4.6c0.5-1.4,1-2.9,1.4-4.3c0.5-1.8,0.8-3.6,1-5.4c0.2-1.5,0.2-3.1,0.3-4.7c0.1-2.9,0.1-5.7,0.1-8.6
				c0-1.6,0-3.2-0.2-4.8c-0.8,0.1-1.5-0.1-2.2-0.4c-0.3-0.2-0.7-0.3-1-0.5l0,0c-0.1,0-0.1-0.1-0.2-0.1c-0.8-0.1-1.5-0.4-2.3-0.7
				c-0.3,0.5-0.5,1-0.4,1.6c0.2,1.5,0.2,3,0.2,4.6c0,1.4,0,2.8,0,4.3c0,3.3-0.1,6.6-0.4,9.9c-0.4,2.5-1.1,5-2,7.4
				c-0.2,0.5-0.5,0.9-0.7,1.3c-0.3,0.3-0.6,0.6-0.9,0.9c-0.2,0.1-0.5,0.3-0.7,0.4c-0.3,0.1-0.6,0.2-1,0.3c-0.3,0-0.5,0-0.7,0
				c-0.8-0.2-1.6-0.4-2.4-0.7c-0.6-0.3-1.2-0.6-1.7-1c-0.3-0.3-0.7-0.6-1-0.9c-0.2-0.4-0.4-0.7-0.6-1.1c-0.5-1.5-0.9-3-1.1-4.5
				c-0.2-1.6-0.3-3.3-0.2-4.9c0-2.1,0-4.2,0-6.3c0-2,0-4.1-0.2-6.1c-0.2-2.4-0.4-4.8-0.8-7.1c-1,0.1-2,0-3-0.1c-1-0.1-2-0.1-3-0.2
				C93.6,18.4,93.6,18.9,93.7,19.5L93.7,19.5z"/>
			<path id="パス_453" class="st0" d="M138.2,5.8c-1.4,0.7-2.6,1.6-3.6,2.7c-0.7,0.7-1.2,1.5-1.7,2.4c-0.5,0.8-0.8,1.7-1.1,2.6
				c-0.5,1.4-0.8,2.8-1,4.2c-0.3,1.6-0.6,3.3-0.7,5c-0.3,3.1-0.6,6.3-0.7,9.4c0,1.6-0.1,3.1-0.2,4.7c-0.1,1.5-0.2,3-0.2,4.5
				c0,1.7,0.2,3.4,0.5,5.1c0.1,0.6,0.3,1.1,0.5,1.7c0.3,0.9,0.8,1.8,1.3,2.7c0.5,0.7,1.1,1.4,1.8,2c1.1,0.8,2.3,1.5,3.5,1.9
				c1.4,0.5,2.8,0.8,4.2,1.1c1.7,0.3,3.3,0.4,5,0.3c1.6-0.1,3.2-0.4,4.8-0.9c0.8-0.2,1.5-0.5,2.2-0.9c0.9-0.5,1.7-1,2.5-1.7
				c1.3-1.1,2.5-2.3,3.5-3.7c0.4-0.5,0.7-1,1.1-1.5c0.5-0.8,0.9-1.7,1.2-2.6c0.5-1.4,1-2.8,1.3-4.2c0.7-2.9,1-5.9,1-8.9
				c0-0.5,0-1,0.1-1.5c0-0.9-0.3-1.8-0.9-2.5c-0.7-0.7-1.6-1-2.5-1c-1.3-0.1-2.6-0.2-3.9-0.3c-2-0.1-4-0.1-5.9,0.2
				c0.1,0.4,0.3,0.9,0.4,1.3c0.3,1.3,0.5,2.6,0.7,3.9c0,0.3,0.1,0.5,0.1,0.8c1.9-0.2,3.9-0.2,5.8,0c-0.1,1.3-0.2,2.6-0.3,4
				c-0.4,2.2-1,4.4-1.8,6.6c-0.4,0.9-0.9,1.7-1.5,2.4c-0.8,1-1.7,1.9-2.7,2.7c-0.4,0.3-0.8,0.5-1.2,0.7c-1,0.4-2.1,0.7-3.2,0.9
				c-1.3,0.1-2.6,0.1-4,0c-1.5-0.2-2.9-0.6-4.3-1.1c-0.4-0.2-0.8-0.4-1.2-0.6c-0.1-0.1-0.3-0.3-0.4-0.4c-0.3-0.4-0.5-0.8-0.7-1.2
				c-0.3-0.8-0.6-1.7-0.7-2.6c-0.3-3.5,0.1-7.1,0.2-10.6c0.1-3.7,0.4-7.3,0.8-11c0.3-2.5,0.8-4.9,1.6-7.3c0.3-0.7,0.7-1.3,1.1-1.9
				c0.3-0.4,0.7-0.7,1.1-1.1c0.4-0.3,0.7-0.5,1.1-0.7c0.2-0.1,0.3-0.1,0.5-0.1c0.2,0,0.5,0,0.7,0c0.4,0.1,0.9,0.2,1.3,0.4
				c0.4,0.2,0.8,0.4,1.1,0.6c0.2,0.2,0.3,0.3,0.5,0.5c0.2,0.3,0.3,0.6,0.5,0.8c0.1,0.2,0.1,0.5,0.2,0.7c0.1,1.5,0.1,3,0.1,4.5
				c0.3-0.1,0.6-0.1,0.9-0.2c0.7-0.2,1.3-0.3,2-0.4c1.1-0.2,2.1-0.4,3.2-0.5h0c0-0.9,0-1.9-0.1-2.8c0-1.4-0.3-2.7-0.9-3.9
				c-1.2-2.6-3.5-4.6-6.3-5.3C144,5.2,143.3,5,142.5,5c-0.2,0-0.5,0-0.8,0C140.5,4.9,139.3,5.2,138.2,5.8L138.2,5.8z"/>
			<path id="パス_454" class="st0" d="M172.2,13.8c-1.1,0.1-2.3,0.2-3.4,0.4c-0.5,0-1.1-0.1-1.5-0.4c-0.1,0.7-0.2,1.4-0.2,2.1
				c-0.1,1.8-0.2,3.5-0.3,5.3c-0.1,3.2-0.1,6.4-0.1,9.6c0,3.1,0.2,6.2,0.3,9.2c-0.1,3.2,0.1,6.5,0.4,9.7c0.1,0.3,0.1,0.7,0.2,1v0h0
				c0.3-0.1,0.6-0.1,0.9-0.1l1.1-0.2c0.8-0.2,1.7-0.3,2.5-0.6c0.2,0,0.4-0.1,0.5-0.1c0.2-0.4,0.5-0.7,0.8-0.9c0-0.2-0.1-0.3-0.1-0.5
				c-0.3-2.6-0.2-5.3-0.2-7.9c-0.1-2.9-0.3-5.8-0.3-8.7s0-5.8,0.1-8.8c0-2.9,0.2-5.8,0.5-8.7c0-0.1,0-0.2,0.1-0.4
				C173,13.7,172.6,13.7,172.2,13.8L172.2,13.8z"/>
			<path id="パス_455" class="st0" d="M190.8,29.3c-1.6,0.1-3.1,0.2-4.7,0.4c-1.8,0.1-3.6,0.3-5.4,0.4c-2,0.1-4.1,0.2-6.1,0.3
				c-2.1,0.1-4.2,0.2-6.3,0.4c-0.8,0-1.6,0.3-2.2,0.9c-1.2,1.2-1.2,3.1,0,4.3c0,0,0,0,0,0c0.6,0.6,1.4,0.9,2.2,0.9
				c2-0.2,4-0.3,6-0.4s4-0.2,6.1-0.3c1.9-0.1,3.7-0.2,5.5-0.4c1.6-0.1,3.2-0.3,4.8-0.4c0.8,0,1.6-0.3,2.2-0.9c1.2-1.2,1.2-3.2,0-4.4
				c-0.5-0.5-1.3-0.9-2-0.9C190.9,29.3,190.9,29.3,190.8,29.3L190.8,29.3z"/>
			<path id="パス_456" class="st0" d="M194.7,6.3c-1.3,0.2-2.6,0.3-3.9,0.3c-0.7,0-1.5,0.1-2.2,0.1c0.5,6.2,1.4,12.4,1.7,18.6
				c0.2,3.2,0.2,6.4,0.2,9.6c0,3,0,5.9-0.3,8.9c-0.2,2.5-0.4,5.1-0.4,7.6c0,2.3,0.2,4.6,0.3,6.9c0,0.2,0,0.4,0.1,0.6
				c0.2,0,0.5-0.1,0.7,0c0.5,0,1.1,0.1,1.6,0.1c0.8-0.3,1.7-0.4,2.5-0.4c0.4,0,0.8,0,1.1,0h0.1c0-0.1,0-0.1,0-0.2
				c-0.2-2.8-0.4-5.6-0.3-8.4c0.1-3.1,0.4-6.2,0.6-9.3c0.2-3,0.1-6,0.1-9.1c0-3.2-0.2-6.4-0.4-9.7c-0.2-2.7-0.4-5.3-0.7-8
				C195.2,11.5,194.9,8.9,194.7,6.3C194.7,6.3,194.7,6.3,194.7,6.3L194.7,6.3z"/>
			<path id="パス_457" class="st0" d="M209.4,11.9c-0.6,0.6-0.9,1.4-0.9,2.2c-0.3,2.5-0.4,5.1-0.6,7.6s-0.4,5.1-0.5,7.7
				c-0.2,4.6-0.2,9.3-0.2,13.9v0.9c0,0.6,0.2,1.2,0.6,1.8c0.1,0,0.3,0,0.4,0c0.5,0,1.1,0,1.6,0c1,0,2,0,3,0c0.4-0.5,0.6-1.1,0.6-1.8
				c0-4.9,0-9.9,0.2-14.8c0.1-2.6,0.4-5.1,0.5-7.7s0.3-5.1,0.6-7.6c0-0.8-0.3-1.6-0.9-2.2C212.6,10.7,210.7,10.7,209.4,11.9
				C209.4,11.9,209.4,11.9,209.4,11.9L209.4,11.9z"/>
			<path id="パス_458" class="st0" d="M212.9,12.2c-0.8,0.2-1.4,0.7-1.8,1.4c-0.4,0.7-0.5,1.6-0.3,2.4c1.1,5.2,2.8,10.2,5.2,15
				c0.5,1,1.2,2,1.8,2.9c0.7,1,1.4,2.1,2.1,3.2c0.6,0.9,1.1,1.8,1.7,2.7c0.7,1.2,1.2,2.5,1.8,3.8c0.9,1.5,2.7,2,4.2,1.1
				c0.7-0.4,1.2-1.1,1.4-1.8c0.2-0.8,0.1-1.6-0.3-2.4c-0.7-1.4-1.3-2.9-2.1-4.3c-0.6-1.2-1.4-2.3-2.1-3.4c-0.8-1.2-1.6-2.3-2.4-3.5
				c-0.7-1.2-1.4-2.4-1.9-3.7c-0.7-1.7-1.3-3.4-1.9-5.2c-0.6-2-1.2-4-1.6-6.1c-0.4-1.4-1.6-2.3-3-2.3
				C213.4,12.1,213.1,12.1,212.9,12.2L212.9,12.2z"/>
			<path id="パス_459" class="st0" d="M224.4,6.7c-0.3,0.1-0.6,0.1-0.9,0.2v0.1c-0.2,1.5-0.3,3-0.3,4.4c0,0.7,0,1.5,0.1,2.2
				c0.1,1.4,0.1,2.9,0.1,4.3c0.1,3,0.1,6,0.1,8.9c0,2.6,0,5.3,0.2,7.9c0.2,2.8,0.1,5.6,0.3,8.3c0,0.8,0.3,1.6,0.9,2.2
				c1.2,1.2,3.1,1.2,4.4,0c0.6-0.6,0.9-1.4,0.9-2.2c-0.2-2.7-0.2-5.5-0.3-8.2c-0.1-2.6-0.2-5.3-0.2-7.9c0-3-0.1-6-0.1-9
				c0-1.4-0.1-2.9-0.1-4.3c0-0.7,0-1.5-0.1-2.2c0-1.1,0-2.2,0.1-3.2c-0.3-0.2-0.6-0.5-0.8-0.9c-0.1,0-0.1-0.1-0.2-0.1
				c-0.6-0.2-1.1-0.4-1.7-0.6c-0.3,0-0.6,0-0.9,0c-0.3,0-0.6,0-0.9-0.1C224.8,6.7,224.6,6.7,224.4,6.7L224.4,6.7z"/>
			<path id="パス_460" class="st0" d="M242.9,17.7c-0.1,0-0.2,0-0.4,0c-0.4,3.4-0.6,6.7-0.6,10.1c-0.2,3-0.1,6,0.1,9
				c0.1,0.8,0.2,1.5,0.5,2.2c0.2,0.5,0.4,1,0.7,1.5c0.3,0.6,0.7,1.2,1.1,1.8c0.9,1.5,2,2.8,3.3,4c0.9,0.8,2,1.5,3.2,2
				c0.8,0.3,1.7,0.5,2.6,0.6c1.3,0.2,2.5,0,3.7-0.5c0.8-0.3,1.6-0.7,2.4-1.1c1.2-0.8,2.3-1.8,3.1-3c0.6-1,1.2-2.1,1.6-3.3
				c1-2.3,1.6-4.8,2-7.3c0.3-2.1,0.4-4.3,0.4-6.5c0-1,0-2.1-0.1-3.1c-0.1-1-0.2-1.9-0.1-2.9h-0.6c-0.3,0-0.6,0-0.8,0h-0.4
				c-0.1,0-0.2,0-0.3,0h-2.7c-0.4,0-0.9-0.1-1.2-0.2c0,0,0,0.1,0,0.1c-0.1,1,0,2,0.1,3c0.1,1.1,0.1,2.2,0.1,3.3c-0.1,2-0.2,4-0.4,6
				c-0.4,2.1-1,4.1-1.8,6.1c-0.3,0.6-0.6,1.2-0.9,1.7c-0.2,0.2-0.4,0.5-0.7,0.7c-0.4,0.3-0.8,0.5-1.2,0.7c-0.3,0.1-0.7,0.2-1,0.3
				c-0.2,0-0.4,0-0.5,0c-0.3-0.1-0.7-0.2-1-0.3c-0.2-0.1-0.4-0.2-0.6-0.4c-0.7-0.6-1.3-1.2-1.9-1.9c-0.7-0.9-1.3-1.8-1.8-2.8
				c-0.1-0.4-0.3-0.8-0.3-1.2c-0.1-1.3-0.2-2.5-0.1-3.8c0-1.5,0-3.1,0-4.6c0-3.4,0.2-6.8,0.6-10.2c-0.5,0-1,0-1.4,0
				C245.8,17.5,244.4,17.6,242.9,17.7L242.9,17.7z"/>
			<path id="パス_461" class="st0" d="M267.7,1.6c-0.2,2.1-0.2,4.1-0.2,6.2c3.4,1,6.8,1.9,10.2,2.6c2,0.4,4.1,0.8,6.2,1
				c1.9,0.2,3.7,0.4,5.6,0.6c1.8,0.2,3.6,0.5,5.4,0.9c1.1,0.2,2.1,0.5,3.2,0.7c1.2,0.2,2.4,0.4,3.6,0.5c0-0.3,0-0.7,0-1
				c0-0.5,0-1.1,0-1.6c0-1.1,0-2.2,0.1-3.3c0-0.1,0-0.2,0-0.2l-0.1,0L301.3,8c-1.3-0.2-2.6-0.5-3.8-0.8c-1.4-0.3-2.7-0.6-4.1-0.8
				c-2.9-0.5-5.8-0.7-8.7-1.1c-2.6-0.4-5.2-0.9-7.8-1.5c-2.7-0.7-5.4-1.4-8-2.2c-0.3-0.1-0.5-0.1-0.8-0.1
				C267.9,1.6,267.8,1.6,267.7,1.6L267.7,1.6z"/>
			<path id="パス_462" class="st0" d="M276.9,7.8c-0.1,1.3-0.1,2.5-0.1,3.8c0,1.1,0.1,2.3,0.2,3.4c0.2,2.7,0.6,5.4,1.1,8
				c0.8,4.6,2,9.2,2.7,13.9c0.3,3.8,0.5,7.7,0.4,11.5c0,0.4,0.1,0.8,0.2,1.2c1.9-0.1,3.8-0.2,5.7-0.3h0.1c0.1-0.3,0.1-0.5,0.1-0.8
				c0-2.5,0-4.9-0.1-7.4c-0.1-2.8-0.4-5.5-0.9-8.2c-0.4-2.6-1-5.3-1.6-7.9c-0.5-2.5-1-5.1-1.3-7.6c-0.2-1.5-0.3-2.9-0.4-4.4
				c-0.1-1.7,0-3.4,0.1-5.1c0-1.7-1.4-3.1-3.1-3.1S276.9,6.1,276.9,7.8L276.9,7.8L276.9,7.8z"/>
		</g>
	</g>
</g>
</svg>
