<?xml version="1.0" encoding="utf-8"?>
<!-- Generator: Adobe Illustrator 24.2.0, SVG Export Plug-In . SVG Version: 6.00 Build 0)  -->
<svg version="1.1" id="レイヤー_1" xmlns="http://www.w3.org/2000/svg" xmlns:xlink="http://www.w3.org/1999/xlink" x="0px"
	 y="0px" viewBox="0 0 166 56" style="enable-background:new 0 0 166 56;" xml:space="preserve">
<style type="text/css">
	.st0{fill:#FFFFFF;}
</style>
<g id="グループ_528" transform="translate(-0.262 -2)">
	<path id="パス_722" class="st0" d="M34.8,52.1c-0.4,0.5-0.6,1.1-0.6,1.7c0,1.6,1.4,2.4,4.1,2.4c1.2,0,2.4-0.1,3.5-0.3
		c0.1,0,0.2-0.1,0.2-0.2c0-0.4-0.1-0.8-0.2-1.2c0-0.1-0.1-0.1-0.3-0.1c-1.1,0.2-2.2,0.3-3.3,0.3c-2.1,0-2.8-0.4-2.8-1.1
		c0-0.3,0.1-0.6,0.3-0.9c0.1-0.1,0-0.2-0.1-0.2C35.4,52.4,35.1,52.2,34.8,52.1z M35,47.6c0,0.4,0,0.8,0,1.1c0,0.1,0,0.2,0.2,0.2
		c0.7,0.1,1.5,0.2,2.2,0.2c0.3,0,0.6,0,0.9,0c-0.4,0.3-0.9,0.6-1.6,1c0.3,0.1,0.6,0.2,0.8,0.4c0.1,0,0.2,0.1,0.3,0.1
		c0.1,0,0.2,0,0.3-0.1c0.9-0.6,1.9-1,2.9-1.2c0.1,0,0.2-0.1,0.2-0.3c0-0.3,0-0.7-0.1-1c0-0.1-0.1-0.1-0.2-0.1
		c-0.8,0.1-1.6,0.1-2.5,0.1C37.3,47.9,36.1,47.8,35,47.6z M41,47c0.5,0.4,0.9,0.9,1.2,1.4c0,0.1,0.1,0.1,0.2,0.1c0,0,0,0,0,0
		l0.5-0.4c0.1,0,0.1-0.1,0.1-0.2c0,0,0,0,0,0c-0.3-0.5-0.7-0.9-1.1-1.3c-0.1-0.1-0.1-0.1-0.2,0L41,47z M42.1,46.2
		c0.5,0.4,0.9,0.9,1.2,1.4c0,0.1,0.1,0.1,0.2,0.1c0,0,0,0,0,0l0.5-0.4c0.1,0,0.1-0.1,0.1-0.2c0,0,0,0,0,0c-0.3-0.5-0.7-0.9-1.1-1.2
		c-0.1-0.1-0.1-0.1-0.2,0L42.1,46.2z M50.4,56.8c0.1,0,0.1,0,0.1-0.1v-0.6H56v0.5c0,0.1,0,0.1,0.1,0.1h1.1c0.1,0,0.1,0,0.1-0.1
		c0-0.1,0-0.7,0-3.9v-2.5c0-1.9,0-2.6,0-2.7c0-0.1,0-0.1-0.1-0.1c-0.1,0-0.5,0-1.7,0h-2.3c0.2-0.3,0.3-0.6,0.4-0.9
		c0-0.1,0.1-0.2,0.2-0.3c0.1,0,0.1-0.1,0.1-0.2c0-0.1-0.1-0.1-0.2-0.2c-0.3-0.1-0.9-0.1-1.3-0.2c0,0.2-0.1,0.4-0.1,0.6
		c-0.1,0.4-0.3,0.8-0.4,1.1H51c-1.2,0-1.6,0-1.7,0c-0.1,0-0.1,0-0.1,0.1c0,0.1,0,0.7,0,3v2.2c0,3.2,0,3.8,0,3.9c0,0.1,0,0.1,0.1,0.1
		H50.4z M50.6,55v-1.4H56V55H50.6z M50.6,52.4v-1.3H56v1.3L50.6,52.4z M50.6,48.6H56v1.3h-5.4L50.6,48.6z M68.4,52.1v-1.5
		c0.8-0.2,1.6-0.4,2.4-0.7c0.2,0,0.3-0.1,0.5-0.1c0.1,0,0.2-0.1,0.2-0.1c0-0.1,0-0.2-0.1-0.2c-0.2-0.3-0.5-0.5-0.8-0.8
		c-0.3,0.2-0.6,0.3-0.9,0.4c-1.9,0.5-3.8,0.9-5.7,1.1c0.2,0.2,0.3,0.5,0.4,0.8c0.1,0.3,0.1,0.3,0.4,0.3c0.8-0.1,1.6-0.2,2.3-0.4v1.3
		l-2.5,0.3c-1,0.1-1.4,0.1-1.5,0.1c-0.1,0-0.1,0-0.1,0.1l0.1,0.9c0,0.1,0,0.1,0.2,0.1c0.2,0,0.5-0.1,1.5-0.2l2.4-0.3v2
		c-0.1,0.5,0.2,1,0.7,1.2c0.8,0.2,1.5,0.2,2.3,0.2c0.9,0.1,1.7-0.1,2.5-0.4c0.4-0.4,0.7-1,0.7-1.6c0-0.3,0-0.3-0.3-0.4
		c-0.3-0.1-0.6-0.2-0.9-0.3c0,0.8-0.1,1.2-0.3,1.3c-0.2,0.2-0.7,0.3-1.7,0.3c-0.4,0-0.9,0-1.3-0.1c-0.3,0-0.3-0.2-0.3-0.5v-1.7
		l3.4-0.4c1-0.1,1.4-0.1,1.5-0.2c0.1,0,0.1,0,0.1-0.2l-0.1-0.9c0-0.1,0-0.1-0.1-0.1c-0.1,0-0.5,0.1-1.5,0.2L68.4,52.1z M68.8,47.2
		L68.8,47.2c0-0.3,0-0.6,0.1-0.8c0-0.1,0.1-0.1,0.1-0.2c0-0.1-0.1-0.1-0.2-0.1c-0.4,0-0.8-0.1-1.3-0.1c0.1,0.4,0.1,0.8,0.1,1.1v0.1
		h-2.6c-1.1,0-1.5,0-1.6,0c-0.1,0-0.1,0-0.1,0.1c0,0.1,0,0.3,0,0.8v0.4c0,1.1,0,1.3,0,1.3c0,0.1,0,0.1,0.1,0.1h1
		c0.1,0,0.1,0,0.1-0.1v-1.5h7.6v1.5c0,0.1,0,0.1,0.1,0.1h1c0.1,0,0.1,0,0.1-0.1c0-0.1,0-0.3,0-1.3v-0.5c0-0.3,0-0.6,0-0.6
		c0-0.1,0-0.1-0.1-0.1c-0.1,0-0.5,0-1.6,0L68.8,47.2z M88,48.6c0-1.2,0-1.9,0-2c0-0.1,0-0.1-0.1-0.1c-0.1,0-0.5,0-1.7,0h-5.6
		c-1.1,0-1.6,0-1.6,0c-0.1,0-0.1,0-0.1,0.1c0,0.1,0,0.7,0,2v2c0,2.9-0.4,4.3-1.2,5.4c0.3,0.2,0.6,0.4,0.9,0.6
		c0.1,0.1,0.2,0.2,0.3,0.2c0.1,0,0.1-0.1,0.2-0.2c0.6-1,1-2.1,1-3.3h2.7v1.4c0,1.2,0,1.7,0,1.8c0,0.1,0,0.1,0.1,0.1h1
		c0.1,0,0.1,0,0.1-0.1c0-0.1,0-0.6,0-1.8v-1.4h2.8v2c0,0.3-0.1,0.4-0.4,0.4c-0.4,0-0.6,0-1.1,0c0.2,0.3,0.3,0.6,0.3,0.9
		c0.1,0.4,0.1,0.3,0.4,0.3c1,0,1.4-0.1,1.6-0.3c0.3-0.2,0.4-0.6,0.4-1c0-0.5,0-1.1,0-1.7L88,48.6z M84,52.1v-1.7h2.8v1.7H84z
		 M86.8,47.6v1.7H84v-1.7H86.8z M80.1,52.1c0-0.5,0-1,0-1.6v-0.1h2.6v1.7H80.1z M80.1,49.3v-1.7h2.6v1.7H80.1z M96.2,50.1l-1,0.3
		c-0.7,0.2-1.5,0.3-2.3,0.4c0.1,0.4,0.3,0.8,0.5,1.2c0.1,0.1,0.1,0.2,0.2,0.2c0.1,0,0.1,0,0.1,0c0.6-0.2,1.1-0.4,1.7-0.5l0.8-0.2
		v2.4c0,1.6,0.7,2.1,3,2.1c1,0,1.9,0,2.9-0.1c0.2,0,0.3-0.1,0.3-0.2c0-0.3,0-0.7-0.1-1c0-0.2,0-0.3-0.2-0.2c-1,0.2-1.9,0.3-2.9,0.3
		c-1.3,0-1.5-0.2-1.5-0.8V51l3.3-0.8c-0.5,0.9-1.2,1.7-2,2.4c0.4,0.1,0.7,0.3,1,0.5c0.1,0.1,0.1,0.1,0.2,0.1c0.1,0,0.2-0.1,0.3-0.2
		c0.7-0.8,1.4-1.7,1.9-2.6c0.1-0.2,0.2-0.3,0.4-0.5c0.1-0.1,0.1-0.1,0.2-0.2c0-0.1,0-0.2-0.1-0.2c-0.3-0.3-0.6-0.6-0.9-0.8
		c0,0-0.1-0.1-0.2-0.1c-0.1,0-0.1,0-0.2,0.1c-0.2,0.2-0.5,0.3-0.9,0.3l-3.1,0.7v-1.2c0-0.4,0-0.7,0.2-1.1c0-0.1,0.1-0.1,0.1-0.2
		c0-0.1-0.1-0.2-0.2-0.2c-0.5-0.1-1-0.2-1.5-0.2c0.1,0.7,0.2,1.4,0.2,2.1V50.1z M109.5,50.3c0.5,0.6,0.9,1.2,1.1,1.9
		c0.1,0.2,0.1,0.2,0.3,0.2c0.3-0.1,0.5-0.2,0.8-0.4c0.1-0.1,0.1-0.1,0.1-0.2c0-0.1,0-0.1,0-0.2c-0.2-0.6-0.6-1.2-1-1.8
		c-0.1-0.1-0.2-0.2-0.3-0.1c0,0,0,0,0,0C110.2,50,109.9,50.1,109.5,50.3z M111.9,49.7c0.4,0.6,0.8,1.2,1,1.9
		c0.1,0.2,0.1,0.2,0.2,0.2c0.3-0.1,0.6-0.2,0.8-0.4c0.2-0.1,0.2-0.1,0.1-0.3c-0.2-0.6-0.5-1.2-0.9-1.8c0-0.1-0.2-0.2-0.3-0.1
		c0,0,0,0,0,0C112.6,49.3,112.4,49.5,111.9,49.7L111.9,49.7z M115.7,49.4c0,0.4-0.1,0.9-0.3,1.3c-0.4,1-1,2-1.6,2.9
		c-0.8,1-1.8,1.9-2.9,2.5c0.4,0.1,0.7,0.3,1,0.5c0,0.1,0.1,0.1,0.2,0.1c0.1,0,0.2-0.1,0.3-0.1c1-0.6,1.8-1.4,2.5-2.3
		c0.7-1,1.3-2.1,1.8-3.2c0.1-0.2,0.2-0.4,0.4-0.6c0.1-0.1,0.1-0.1,0.1-0.2c0-0.1-0.1-0.1-0.2-0.2C116.6,49.7,116.1,49.5,115.7,49.4
		L115.7,49.4z M127.9,48.1c0-0.4,0-0.8,0.1-1.1c0.1-0.1,0.1-0.2,0.1-0.3c0-0.1-0.1-0.2-0.2-0.2c-0.5-0.1-1-0.2-1.5-0.2
		c0.1,0.6,0.1,1.2,0.1,1.8V54c0,0.8,0,1.5,0,2.4c0,0.1,0.1,0.2,0.2,0.2c0.4,0,0.7,0,1.1,0c0.2,0,0.2,0,0.2-0.2c0-0.9,0-1.6,0-2.4
		v-2.7c1.1,0.4,2.2,0.9,3.2,1.5c0,0,0.1,0.1,0.1,0.1c0.1,0,0.1,0,0.2-0.1c0.2-0.3,0.4-0.7,0.5-1c0.1-0.2,0-0.2-0.1-0.3
		c-1.2-0.7-2.5-1.2-3.8-1.6V48.1z"/>
	<g id="グループ_302" transform="translate(0.262 2)">
		<path id="パス_449" class="st0" d="M6.1,6.1C5.2,6.3,4.7,7.2,4.9,8.1c0.4,1.5,0.8,3,1,4.5c0.3,1.5,0.6,2.9,0.8,4.4
			c0.2,1.5,0.4,3,0.6,4.5c0-0.1,0-0.3-0.1-0.4c0.1,0.8,0.2,1.6,0.3,2.5c0-0.2,0-0.3-0.1-0.4c0.3,2.5,0.8,5,1.2,7.5
			c0,0.4,0.1,0.7,0.1,1.1c0,0.9,0.7,1.7,1.6,1.7s1.7-0.7,1.7-1.6c0,0,0-0.1,0-0.1c-0.1-1.5-0.3-2.9-0.6-4.3
			c-0.2-1.4-0.5-2.8-0.7-4.2c0,0,0,0.1,0,0.1c-0.1-0.7-0.2-1.3-0.3-2c0,0.1,0,0.1,0,0.2c0-0.3-0.1-0.6-0.1-1c-0.1-1-0.2-2-0.4-3
			c-0.2-1.2-0.4-2.5-0.6-3.7c-0.3-2.2-0.8-4.3-1.4-6.5C7.9,6.5,7.3,6,6.5,6C6.4,6,6.2,6,6.1,6.1L6.1,6.1z"/>
		<path id="パス_450" class="st0" d="M1.3,6.1c0,0.1,0,0.3,0,0.4c0,1,0,2,0.1,3c0,0,0.1,0,0.1,0c1.3,0.1,2.6,0.1,3.8,0.1
			c1.2,0,2.5,0,3.7,0.1c1.3,0.2,2.7,0.5,3.9,1c0.7,0.3,1.4,0.7,2,1.1c0.3,0.3,0.6,0.6,0.9,0.9c0.2,0.3,0.4,0.7,0.6,1
			c0.2,0.6,0.4,1.3,0.5,1.9c0.1,0.7,0.3,1.3,0.4,2c0.1,0.6,0.1,1.2,0.1,1.8c0,0.5,0,1.1-0.1,1.6c-0.2,1.1-0.4,2.2-0.8,3.2
			c-0.2,0.5-0.5,0.9-0.7,1.3c-0.5,0.6-1.1,1.2-1.8,1.7c-0.5,0.4-1,0.7-1.5,1c-0.5,0.3-1,0.5-1.5,0.8c-0.5,0.3-1.1,0.5-1.6,0.8
			c-0.5,0.3-1.1,0.6-1.6,0.8c0,0-0.1,0-0.1,0c-0.9,0.2-1.4,1.2-1.2,2.1c0.2,0.9,1.2,1.4,2.1,1.2c0.9-0.3,1.7-0.7,2.5-1.2
			c0.6-0.3,1.3-0.6,1.9-1c0.7-0.3,1.3-0.7,1.9-1.1c0.7-0.5,1.5-1,2.1-1.6c0.7-0.6,1.3-1.4,1.9-2.2c0.5-0.8,0.9-1.7,1.2-2.6
			c0.3-0.8,0.4-1.6,0.5-2.5c0.2-1,0.2-1.9,0.2-2.9c-0.1-1-0.2-2-0.4-2.9c-0.2-0.8-0.3-1.6-0.5-2.4c-0.1-0.3-0.2-0.7-0.4-1
			c-0.2-0.5-0.4-0.9-0.7-1.3c-0.4-0.7-0.9-1.2-1.5-1.7c-0.6-0.5-1.3-1-2.1-1.4c-0.8-0.4-1.7-0.8-2.5-1c-1.7-0.5-3.5-0.8-5.3-0.9
			c-2,0-4,0-6-0.1H1.4C1.4,6.1,1.3,6.1,1.3,6.1L1.3,6.1z"/>
		<path id="パス_451" class="st0" d="M35.9,7.5c-0.8,0.1-1.6,0.3-2.4,0.5c-0.9,0.3-1.8,0.7-2.6,1.2c-0.5,0.3-0.9,0.6-1.3,0.9
			c-0.5,0.4-1,0.9-1.3,1.5c-0.3,0.4-0.5,0.9-0.6,1.4c-0.2,0.4-0.3,0.8-0.4,1.2c-0.2,0.9-0.4,1.8-0.4,2.7c-0.1,0.8-0.1,1.7,0,2.5
			c0,1,0.1,1.9,0.3,2.9c0.1,0.8,0.3,1.7,0.6,2.5c0.1,0.4,0.2,0.7,0.4,1.1c0.4,0.9,0.8,1.9,1.3,2.7c0.5,0.8,1.1,1.4,1.8,2
			c0.5,0.4,1.1,0.7,1.7,0.9c1,0.3,2,0.5,3,0.4c0.1,0,0.2,0,0.3,0c0.3,0.2,0.7,0.4,1,0.4c0.9-0.1,1.8-0.2,2.7-0.3
			c0.7-0.1,1.4-0.2,2-0.4c0.8-0.3,1.6-0.7,2.3-1.1c0.8-0.5,1.6-1.1,2.2-1.8c0.6-0.7,1.1-1.6,1.5-2.5c0.3-0.8,0.5-1.6,0.7-2.4
			c0.2-0.9,0.4-1.7,0.5-2.6c0.1-0.8,0.2-1.6,0.1-2.4c0-0.9-0.1-1.8-0.3-2.6c-0.2-0.8-0.4-1.6-0.7-2.3c-0.4-0.9-0.8-1.8-1.3-2.6
			c-0.7-1-1.6-1.8-2.6-2.4c-0.8-0.5-1.7-0.9-2.6-1.1c-0.4-0.1-0.8-0.2-1.1-0.3c-0.6-0.1-1.1-0.2-1.7-0.2c-0.1,0-0.2,0-0.3,0
			C37.6,7.2,36.8,7.3,35.9,7.5L35.9,7.5z M39.3,10.6c0.4,0.1,0.7,0.1,1,0.2c0.4,0.1,0.8,0.2,1.2,0.4c0.5,0.2,1,0.5,1.4,0.8
			c0.3,0.3,0.6,0.6,0.9,0.9c0.4,0.6,0.8,1.3,1.1,2c0.2,0.4,0.3,0.8,0.4,1.2c0.2,0.5,0.3,1,0.3,1.6c0.1,0.6,0.1,1.1,0.1,1.7
			c0,0.6-0.1,1.2-0.1,1.8c-0.2,1.3-0.5,2.7-1,3.9c-0.2,0.4-0.4,0.8-0.7,1.2c-0.3,0.3-0.5,0.6-0.8,0.8c-0.7,0.5-1.5,0.9-2.2,1.3
			c-0.9,0.3-1.9,0.5-2.8,0.5c0.1,0,0.3,0,0.4-0.1c-0.4,0.1-0.9,0.1-1.3,0.1c-0.1,0-0.2,0-0.3,0c-0.3-0.2-0.7-0.4-1-0.4
			c-0.4,0-0.8,0-1.1,0c-0.2-0.1-0.5-0.1-0.7-0.2c-0.3-0.2-0.6-0.3-0.9-0.5c-0.2-0.2-0.4-0.4-0.6-0.7c-0.4-0.6-0.8-1.2-1.1-1.9
			c-0.3-0.6-0.5-1.2-0.7-1.9c-0.2-0.7-0.4-1.4-0.5-2.2c-0.2-1.5-0.2-3.1-0.1-4.7c0.1-0.9,0.4-1.9,0.7-2.7c0.1-0.2,0.2-0.5,0.4-0.7
			c0.2-0.2,0.3-0.4,0.5-0.6c0.6-0.4,1.3-0.8,2.1-1.2c1.1-0.4,2.2-0.6,3.3-0.8C37.8,10.6,38.5,10.6,39.3,10.6L39.3,10.6z M30.1,16.8
			l0,0.1L30.1,16.8z"/>
		<path id="パス_452" class="st0" d="M51.2,10.9c0.1,0.4,0.1,0.7,0.2,1.1c0.4,3.4,0.2,6.8,0.3,10.3c0,0.9,0.1,1.8,0.3,2.7
			c0.2,0.9,0.4,1.8,0.8,2.6c0.3,0.7,0.8,1.4,1.4,1.9c0.3,0.3,0.7,0.5,1,0.8c0.5,0.3,0.9,0.5,1.4,0.7c0.3,0.1,0.7,0.2,1,0.3
			c0.2,0,0.3,0.1,0.5,0.1c0.3,0.1,0.6,0.1,0.9,0.1c0.3,0,0.6,0,0.9-0.1c0.5-0.1,0.9-0.2,1.3-0.5c0.5-0.2,0.9-0.5,1.3-0.9
			c0.7-0.7,1.3-1.6,1.6-2.5c0.3-0.8,0.6-1.6,0.8-2.4c0.3-1,0.4-1.9,0.5-2.9c0.1-0.8,0.1-1.7,0.2-2.5c0.1-1.6,0.1-3.1,0.1-4.7
			c0-0.9,0-1.8-0.1-2.6c-0.4,0-0.8,0-1.2-0.2c-0.2-0.1-0.4-0.2-0.6-0.3h0c0,0-0.1,0-0.1,0c-0.4-0.1-0.8-0.2-1.2-0.4
			c-0.2,0.3-0.3,0.6-0.2,0.9c0.1,0.8,0.1,1.7,0.1,2.5c0,0.8,0,1.6,0,2.3c0,1.8-0.1,3.6-0.2,5.4c-0.2,1.4-0.6,2.7-1.1,4
			c-0.1,0.3-0.3,0.5-0.4,0.7c-0.1,0.2-0.3,0.3-0.5,0.5c-0.1,0.1-0.3,0.2-0.4,0.2c-0.2,0.1-0.3,0.1-0.5,0.1c-0.1,0-0.3,0-0.4,0
			c-0.4-0.1-0.9-0.2-1.3-0.4c-0.3-0.2-0.6-0.3-0.9-0.5c-0.2-0.2-0.4-0.3-0.5-0.5c-0.1-0.2-0.2-0.4-0.3-0.6c-0.3-0.8-0.5-1.6-0.6-2.5
			c-0.1-0.9-0.1-1.8-0.1-2.7c0-1.1,0-2.3,0-3.4c0-1.1,0-2.2-0.1-3.3c-0.1-1.3-0.2-2.6-0.5-3.9c-0.5,0-1.1,0-1.6,0
			c-0.5,0-1.1,0-1.6-0.1C51.2,10.3,51.2,10.6,51.2,10.9L51.2,10.9z"/>
		<path id="パス_453" class="st0" d="M75.5,3.4c-0.7,0.4-1.4,0.9-2,1.5c-0.4,0.4-0.7,0.8-0.9,1.3c-0.2,0.4-0.5,0.9-0.6,1.4
			c-0.3,0.7-0.5,1.5-0.6,2.3c-0.2,0.9-0.3,1.8-0.4,2.7c-0.2,1.7-0.4,3.4-0.4,5.1c0,0.9-0.1,1.7-0.1,2.6c-0.1,0.8-0.1,1.6-0.1,2.4
			c0,0.9,0.1,1.9,0.3,2.8c0.1,0.3,0.2,0.6,0.3,0.9c0.2,0.5,0.4,1,0.7,1.4c0.3,0.4,0.6,0.8,1,1.1c0.6,0.5,1.2,0.8,1.9,1.1
			c0.7,0.3,1.5,0.5,2.3,0.6c0.9,0.2,1.8,0.2,2.7,0.2c0.9-0.1,1.8-0.2,2.6-0.5c0.4-0.1,0.8-0.3,1.2-0.5c0.5-0.3,0.9-0.6,1.4-0.9
			c0.7-0.6,1.3-1.3,1.9-2c0.2-0.3,0.4-0.6,0.6-0.8c0.3-0.4,0.5-0.9,0.7-1.4c0.3-0.7,0.5-1.5,0.7-2.3c0.4-1.6,0.5-3.2,0.6-4.8
			c0-0.3,0-0.6,0-0.8c0-0.5-0.2-1-0.5-1.3c-0.4-0.4-0.8-0.6-1.4-0.6c-0.7-0.1-1.4-0.1-2.1-0.2c-1.1-0.1-2.2,0-3.2,0.1
			c0.1,0.2,0.1,0.5,0.2,0.7c0.2,0.7,0.3,1.4,0.4,2.1c0,0.1,0,0.3,0.1,0.4c1.1-0.1,2.1-0.1,3.2,0c0,0.7-0.1,1.4-0.2,2.2
			c-0.2,1.2-0.5,2.4-1,3.6c-0.2,0.5-0.5,0.9-0.8,1.3c-0.4,0.5-0.9,1-1.5,1.5c-0.2,0.1-0.4,0.3-0.7,0.4c-0.6,0.2-1.1,0.4-1.7,0.5
			c-0.7,0.1-1.4,0.1-2.2,0c-0.8-0.1-1.6-0.3-2.3-0.6c-0.2-0.1-0.4-0.2-0.6-0.3c-0.1-0.1-0.2-0.1-0.2-0.2c-0.1-0.2-0.3-0.4-0.4-0.7
			c-0.2-0.5-0.3-0.9-0.4-1.4c-0.1-1.9,0-3.8,0.1-5.8c0.1-2,0.2-4,0.4-6c0.1-1.3,0.4-2.7,0.9-4c0.2-0.4,0.4-0.7,0.6-1
			C76,7.2,76.2,7,76.4,6.8c0.2-0.1,0.4-0.3,0.6-0.4c0.1,0,0.2-0.1,0.3-0.1c0.1,0,0.3,0,0.4,0c0.2,0.1,0.5,0.1,0.7,0.2
			c0.2,0.1,0.4,0.2,0.6,0.3C79.1,7,79.2,7,79.2,7.1c0.1,0.2,0.2,0.3,0.3,0.5c0,0.1,0.1,0.3,0.1,0.4c0.1,0.8,0,1.6,0.1,2.4
			c0.2,0,0.3-0.1,0.5-0.1c0.4-0.1,0.7-0.2,1.1-0.2c0.6-0.1,1.2-0.2,1.7-0.3h0c0-0.5,0-1,0-1.5c0-0.7-0.2-1.5-0.5-2.1
			c-0.6-1.4-1.9-2.5-3.4-2.9C78.7,3.1,78.3,3,77.8,3c-0.1,0-0.3,0-0.4,0C76.7,3,76.1,3.1,75.5,3.4L75.5,3.4z"/>
		<path id="パス_454" class="st0" d="M94,7.8c-0.6,0-1.2,0.1-1.9,0.2c-0.3,0-0.6-0.1-0.8-0.2c-0.1,0.4-0.1,0.8-0.1,1.1
			c-0.1,1-0.1,1.9-0.1,2.9C91,13.5,91,15.3,91,17c0,1.7,0.1,3.4,0.2,5c0,1.8,0,3.5,0.2,5.3c0,0.2,0.1,0.4,0.1,0.5v0h0
			c0.2,0,0.3-0.1,0.5-0.1l0.6-0.1c0.5-0.1,0.9-0.2,1.4-0.3c0.1,0,0.2,0,0.3-0.1c0.1-0.2,0.3-0.4,0.4-0.5c0-0.1,0-0.2-0.1-0.3
			c-0.1-1.4-0.1-2.9-0.1-4.3c0-1.6-0.2-3.2-0.2-4.8s0-3.2,0-4.8c0-1.6,0.1-3.2,0.3-4.8c0-0.1,0-0.1,0-0.2C94.4,7.8,94.2,7.8,94,7.8
			L94,7.8z"/>
		<path id="パス_455" class="st0" d="M104.1,16.2c-0.8,0.1-1.7,0.1-2.5,0.2c-1,0.1-2,0.2-2.9,0.2c-1.1,0-2.2,0.1-3.3,0.2
			c-1.1,0.1-2.3,0.1-3.4,0.2c-0.4,0-0.9,0.2-1.2,0.5c-0.7,0.7-0.7,1.7,0,2.4c0,0,0,0,0,0c0.3,0.3,0.7,0.5,1.2,0.5
			c1.1-0.1,2.2-0.1,3.3-0.2s2.2-0.1,3.3-0.2c1,0,2-0.1,3-0.2c0.9-0.1,1.7-0.2,2.6-0.2c0.4,0,0.9-0.2,1.2-0.5c0.7-0.7,0.7-1.7,0-2.4
			C105,16.4,104.6,16.3,104.1,16.2C104.2,16.2,104.2,16.2,104.1,16.2L104.1,16.2z"/>
		<path id="パス_456" class="st0" d="M106.3,3.7c-0.7,0.1-1.4,0.1-2.1,0.2c-0.4,0-0.8,0-1.2,0c0.3,3.4,0.7,6.7,0.9,10.1
			c0.1,1.7,0.1,3.5,0.1,5.2c0,1.6,0,3.2-0.2,4.9c-0.1,1.4-0.2,2.8-0.2,4.2c0,1.2,0.1,2.5,0.2,3.8c0,0.1,0,0.2,0.1,0.3
			c0.1,0,0.2,0,0.4,0c0.3,0,0.6,0,0.9,0c0.4-0.2,0.9-0.2,1.4-0.2c0.2,0,0.4,0,0.6,0h0.1c0,0,0-0.1,0-0.1c-0.1-1.5-0.2-3-0.1-4.6
			c0-1.7,0.2-3.4,0.3-5.1c0.1-1.6,0.1-3.3,0-4.9c0-1.8-0.1-3.5-0.2-5.3c-0.1-1.5-0.2-2.9-0.4-4.3C106.5,6.5,106.4,5.1,106.3,3.7
			C106.3,3.7,106.3,3.7,106.3,3.7L106.3,3.7z"/>
		<path id="パス_457" class="st0" d="M114.3,6.8c-0.3,0.3-0.5,0.7-0.5,1.2c-0.2,1.4-0.2,2.8-0.3,4.2s-0.2,2.8-0.3,4.2
			c-0.1,2.5-0.1,5.1-0.1,7.6v0.5c0,0.3,0.1,0.7,0.3,1h0.2c0.3,0,0.6,0,0.9,0c0.6,0,1.1,0,1.7,0c0.2-0.3,0.3-0.6,0.3-1
			c0-2.7,0-5.4,0.1-8.1c0.1-1.4,0.2-2.8,0.3-4.2s0.1-2.8,0.3-4.2c0-0.4-0.2-0.9-0.5-1.2C116,6.1,114.9,6.1,114.3,6.8
			C114.3,6.8,114.3,6.8,114.3,6.8L114.3,6.8z"/>
		<path id="パス_458" class="st0" d="M116.1,6.9c-0.4,0.1-0.8,0.4-1,0.8c-0.2,0.4-0.3,0.9-0.2,1.3c0.6,2.8,1.5,5.6,2.8,8.2
			c0.3,0.6,0.6,1.1,1,1.6c0.4,0.6,0.8,1.1,1.2,1.7c0.3,0.5,0.6,1,0.9,1.5c0.4,0.7,0.7,1.4,1,2c0.5,0.8,1.5,1.1,2.3,0.6
			c0.4-0.2,0.7-0.6,0.8-1c0.1-0.4,0-0.9-0.2-1.3c-0.4-0.8-0.7-1.6-1.2-2.3c-0.4-0.6-0.8-1.2-1.2-1.8c-0.4-0.6-0.9-1.3-1.3-1.9
			c-0.4-0.6-0.7-1.3-1-2c-0.4-0.9-0.7-1.9-1-2.8c-0.3-1.1-0.6-2.2-0.9-3.3c-0.2-0.7-0.9-1.2-1.6-1.2C116.4,6.9,116.3,6.9,116.1,6.9
			L116.1,6.9z"/>
		<path id="パス_459" class="st0" d="M122.5,3.9c-0.2,0-0.3,0.1-0.5,0.1v0c-0.1,0.8-0.2,1.6-0.2,2.4c0,0.4,0,0.8,0,1.2
			c0,0.8,0.1,1.6,0.1,2.4c0,1.6,0.1,3.2,0.1,4.9c0,1.4,0,2.9,0.1,4.3c0.1,1.5,0,3,0.2,4.5c0,0.4,0.2,0.9,0.5,1.2
			c0.7,0.7,1.7,0.7,2.4,0c0.3-0.3,0.5-0.7,0.5-1.2c-0.1-1.5-0.1-3-0.2-4.5c-0.1-1.4-0.1-2.9-0.1-4.3c0-1.6,0-3.3-0.1-4.9
			c0-0.8,0-1.6-0.1-2.3c0-0.4,0-0.8,0-1.2c0-0.6,0-1.2,0.1-1.8c-0.2-0.1-0.3-0.3-0.4-0.5c0,0-0.1,0-0.1,0c-0.3-0.1-0.6-0.2-0.9-0.3
			c-0.2,0-0.3,0-0.5,0c-0.2,0-0.3,0-0.5-0.1C122.7,3.9,122.6,3.9,122.5,3.9L122.5,3.9z"/>
		<path id="パス_460" class="st0" d="M132.5,9.9c-0.1,0-0.1,0-0.2,0c-0.2,1.8-0.3,3.7-0.3,5.5c-0.1,1.6-0.1,3.3,0.1,4.9
			c0,0.4,0.1,0.8,0.3,1.2c0.1,0.3,0.2,0.6,0.4,0.8c0.2,0.3,0.4,0.7,0.6,1c0.5,0.8,1.1,1.5,1.8,2.2c0.5,0.5,1.1,0.8,1.7,1.1
			c0.5,0.2,0.9,0.3,1.4,0.3c0.7,0.1,1.4,0,2-0.3c0.5-0.2,0.9-0.4,1.3-0.6c0.7-0.4,1.3-1,1.7-1.7c0.4-0.6,0.6-1.2,0.9-1.8
			c0.5-1.3,0.9-2.6,1.1-4c0.1-1.2,0.2-2.3,0.2-3.5c0-0.6,0-1.1-0.1-1.7c-0.1-0.5-0.1-1.1-0.1-1.6H145c-0.2,0-0.3,0-0.5,0h-0.2
			c-0.1,0-0.1,0-0.2,0h-1.5c-0.2,0-0.5,0-0.7-0.1c0,0,0,0,0,0.1c0,0.5,0,1.1,0.1,1.6c0.1,0.6,0.1,1.2,0.1,1.8c0,1.1-0.1,2.2-0.2,3.3
			c-0.2,1.1-0.6,2.2-1,3.3c-0.1,0.3-0.3,0.6-0.5,0.9c-0.1,0.1-0.2,0.3-0.4,0.4c-0.2,0.1-0.4,0.3-0.7,0.4c-0.2,0.1-0.4,0.1-0.5,0.2
			c-0.1,0-0.2,0-0.3,0c-0.2,0-0.4-0.1-0.6-0.2c-0.1-0.1-0.2-0.1-0.4-0.2c-0.4-0.3-0.7-0.7-1-1c-0.4-0.5-0.7-1-1-1.5
			c-0.1-0.2-0.1-0.4-0.2-0.7c-0.1-0.7-0.1-1.4-0.1-2.1c0-0.8,0-1.7,0-2.5c0-1.9,0.1-3.7,0.3-5.6c-0.3,0-0.5,0-0.8,0
			C134.1,9.8,133.3,9.9,132.5,9.9L132.5,9.9z"/>
		<path id="パス_461" class="st0" d="M146,1.2c-0.1,1.1-0.1,2.2-0.1,3.4c1.8,0.5,3.7,1,5.6,1.4c1.1,0.2,2.2,0.4,3.4,0.6
			c1,0.1,2,0.2,3.1,0.3c1,0.1,2,0.3,2.9,0.5c0.6,0.1,1.2,0.3,1.7,0.4c0.7,0.1,1.3,0.2,2,0.3c0-0.2,0-0.4,0-0.6c0-0.3,0-0.6,0-0.9
			c0-0.6,0-1.2,0.1-1.8c0,0,0-0.1,0-0.1l0,0l-0.3,0c-0.7-0.1-1.4-0.3-2.1-0.4c-0.7-0.2-1.5-0.3-2.2-0.4c-1.6-0.3-3.2-0.4-4.8-0.6
			c-1.4-0.2-2.8-0.5-4.3-0.8c-1.5-0.4-2.9-0.7-4.4-1.2c-0.1,0-0.3-0.1-0.4-0.1C146.1,1.2,146.1,1.2,146,1.2L146,1.2z"/>
		<path id="パス_462" class="st0" d="M151,4.5c0,0.7-0.1,1.4-0.1,2.1c0,0.6,0.1,1.2,0.1,1.8c0.1,1.5,0.4,2.9,0.6,4.4
			c0.5,2.5,1.1,5,1.5,7.6c0.2,2.1,0.3,4.2,0.2,6.3c0,0.2,0,0.4,0.1,0.6c1-0.1,2.1-0.1,3.1-0.2h0c0-0.1,0.1-0.3,0.1-0.4
			c0-1.3,0-2.7,0-4c-0.1-1.5-0.2-3-0.5-4.5c-0.2-1.4-0.6-2.9-0.9-4.3c-0.3-1.4-0.5-2.8-0.7-4.2c-0.1-0.8-0.2-1.6-0.2-2.4
			c0-0.9,0-1.8,0-2.8c0-0.9-0.8-1.7-1.7-1.6C151.8,2.9,151.1,3.7,151,4.5L151,4.5z"/>
	</g>
</g>
</svg>
