<?xml version="1.0" encoding="utf-8"?>
<!-- Generator: Adobe Illustrator 24.2.0, SVG Export Plug-In . SVG Version: 6.00 Build 0)  -->
<svg version="1.1" id="レイヤー_1" xmlns="http://www.w3.org/2000/svg" xmlns:xlink="http://www.w3.org/1999/xlink" x="0px"
	 y="0px" viewBox="0 0 350 96" style="enable-background:new 0 0 350 96;" xml:space="preserve">
<style type="text/css">
	.st0{fill:#FFFFFF;}
	.st1{fill:#FFFFFF;stroke:#FFFFFF;stroke-width:2;}
</style>
<g id="グループ_755" transform="translate(-443.35 -120.72)">
	<path id="パス_677" class="st0" d="M533.9,204.1c2.8,0.3,5.5,0.9,8.2,1.7l0.6-1.8c-2.7-0.8-5.4-1.3-8.1-1.6L533.9,204.1z
		 M533.7,208.3c1.3,0.1,2.5,0.4,3.8,0.7c1.4,0.3,2.8,0.7,4.1,1.2l0.6-1.8c-2.6-0.8-5.2-1.4-7.8-1.7L533.7,208.3z M532.4,212.5
		c1.6,0.2,3.2,0.5,4.7,0.9c1.8,0.4,3.6,0.9,5.3,1.7l0.6-1.9c-3.2-1.2-6.6-1.9-10-2.4L532.4,212.5z M552.1,206
		c0.6-0.1,1.2-0.1,1.8-0.1h5.9c0.6,0,1.2,0,1.8,0.1v-2c-0.6,0.1-1.2,0.1-1.8,0.1h-5.9c-0.6,0-1.2,0-1.8-0.1L552.1,206z M550.6,213.3
		c0.6-0.1,1.3-0.1,1.9-0.1h8.7c0.6,0,1.3,0,1.9,0.1v-2c-0.6,0.1-1.3,0.1-1.9,0.1h-8.6c-0.6,0-1.3,0-1.9-0.1V213.3z M573.8,215.1
		c-0.1-0.6-0.1-1.1-0.1-1.7v-4c0-0.3,0-0.7-0.1-1c0.2,0.1,0.3,0.2,0.5,0.3c1.8,0.8,3.6,1.8,5.3,2.9l1-1.8c-2.2-1.2-4.5-2.3-6.8-3.2
		v-2.8c0-0.5,0-1.1,0.1-1.6h-2.1c0.1,0.5,0.1,1,0.1,1.5v9.6c0,0.6,0,1.1-0.1,1.7L573.8,215.1z M576.9,203.6c0.6,0.7,1.2,1.4,1.6,2.2
		l1.1-0.6c-0.4-0.8-1-1.5-1.6-2.2L576.9,203.6z M581.3,204.2c-0.4-0.8-0.9-1.5-1.6-2.1l-1,0.5c0.6,0.7,1.1,1.4,1.5,2.2L581.3,204.2z
		 M587.9,209.7c0.8-0.1,1.6-0.1,2.4-0.1h8c0.8,0,1.6,0,2.4,0.1v-2.1c-0.8,0.1-1.6,0.1-2.4,0.1h-8c-0.8,0-1.6,0-2.4-0.1L587.9,209.7z
		 M614.4,205.9c0-0.2,0-0.2,0-1.2l0-0.9c0-0.5,0-1,0.1-1.4h-2.1c0.1,0.5,0.1,1,0.1,1.4v0.9c0,0.3,0,0.5,0,1.2h-3.8
		c-0.7,0-1.3,0-1.9-0.1v1.9c0.6-0.1,1.3-0.1,1.9-0.1h3.7c0,1-0.3,2.1-0.7,3c-0.8,1.4-2.1,2.4-3.6,3c0.6,0.4,1,1,1.4,1.6
		c1.6-0.7,2.9-1.9,3.8-3.4c0.7-1.3,1.1-2.7,1.1-4.2h3.1c0.6,0,1.3,0,1.9,0.1v-1.9c-0.6,0.1-1.3,0.1-2,0.1L614.4,205.9z M635.7,202.2
		c-0.6,0.3-1.2,0.5-1.8,0.7c-2.1,0.6-4.3,0.8-6.4,0.9c-0.2,0-0.5,0-0.9,0c0.3,0.5,0.4,1.1,0.6,1.6c1.4,0,2.8-0.1,4.2-0.3
		c0,1.1,0,1.6,0,2.3h-3.8c-0.6,0-1.2,0-1.8-0.1v1.8c0.6-0.1,1.2-0.1,1.8-0.1h3.7c0,0.3-0.1,0.7-0.2,1c-0.3,1-0.9,1.9-1.7,2.6
		c-0.7,0.6-1.5,1-2.3,1.3c0.5,0.4,1,1,1.3,1.6c0.5-0.2,1-0.5,1.4-0.8c1-0.6,1.8-1.4,2.4-2.4c0.6-1,0.9-2.1,1-3.3h3.3
		c0.6,0,1.2,0,1.8,0.1v-1.8c-0.6,0.1-1.2,0.1-1.8,0.1h-3.2c0-0.5,0-0.5,0-2.5c0.8-0.1,1.7-0.4,2.5-0.6c1.1-0.4,1.1-0.4,1.3-0.4
		L635.7,202.2z M652.9,213.1c0.3-1.3,0.4-2.4,0.6-4.1c0-0.6,0.1-1.2,0.3-1.7l-0.8-0.7c-0.4,0.1-0.7,0.2-1.1,0.1h-3.8
		c-0.5,0-0.9,0-1.4-0.1v1.7c0.4-0.1,0.9-0.1,1.3-0.1h3.7c-0.1,1.4-0.5,3.5-0.7,4.8h-4.4c-0.5,0-0.9,0-1.4-0.1v1.7
		c0.5,0,0.9-0.1,1.4-0.1h7.8c0.5,0,0.9,0,1.4,0.1V213c-0.5,0.1-0.9,0.1-1.4,0.1H652.9z M666,203.2v0.2c0,0.5-0.1,1-0.1,1.5
		c-0.2,1.8-0.7,3.5-1.4,5.1c-0.5,1.2-1.2,2.3-2.1,3.2c0.6,0.3,1.2,0.8,1.7,1.3c2-2.3,3.2-5.3,3.8-9.6l0-0.4l0.1-0.4l0-0.3
		c0-0.1,0-0.2,0.1-0.3L666,203.2z M670.4,203.5c0.1,0.4,0.2,0.7,0.2,1.1c0.4,3.6,1.8,7,4,9.9c0.5-0.6,1-1,1.7-1.4
		c-1.6-1.8-2.8-4.1-3.3-6.5c-0.3-1.1-0.5-2.3-0.6-3.5L670.4,203.5z M672.4,202.6c0.5,0.8,0.9,1.6,1.2,2.4l1.1-0.4
		c-0.3-0.9-0.7-1.7-1.2-2.4L672.4,202.6z M676.8,204.1c-0.3-0.8-0.7-1.6-1.2-2.3l-1.1,0.3c0.5,0.7,0.9,1.5,1.2,2.4L676.8,204.1z
		 M681,209.7c0.8-0.1,1.6-0.1,2.4-0.1h8c0.8,0,1.6,0,2.4,0.1v-2.1c-0.8,0.1-1.6,0.1-2.4,0.1h-8c-0.8,0-1.6,0-2.4-0.1L681,209.7z"/>
	<g id="グループ_280" transform="translate(445.715 122.332)">
		<g id="グループ_290">
			<g id="グループ_281">
				<path id="パス_327" class="st1" d="M282,20.7h0.3v-0.1C282,20.6,282.2,20.5,282,20.7z"/>
				<path id="パス_328" class="st1" d="M287.1,3v0.1l0.1-0.1H287.1z"/>
				<path id="パス_329" class="st1" d="M289.8,3.2V3h-0.1C289.5,3.2,289.7,3.1,289.8,3.2z"/>
				<path id="パス_330" class="st1" d="M276,48.8v0.4h0.2l-0.2,0.1l0.2,0.3h-0.3c0.1,0.2,0,0,0.1,0.1V50h0.4
					c-0.1,0.3,0,0.1-0.1,0.3c0.1,0.4,0,0.3,0.4,0.4c-0.1,0.3,0,0.1-0.1,0.3v0.1c0.7,0,0.6-0.2,1.2-0.3c0.1-0.6,0.5-0.8,0.6-1.3h-0.3
					c0.1-0.2,0.1-0.4,0.1-0.6c0-0.4,0.1-0.8,0.2-1.2h-0.2v-0.6h0.2c0-0.4-0.2-0.3-0.3-0.7l0.4-0.1c-0.1-0.5-0.1-1-0.1-1.5h0.1v-0.3
					h0.1l-0.1-0.3l0.3-0.1v-1.2h0.1c0.1-0.4,0.1-0.8,0-1.2v-0.2l0.3,0.2l0.1-0.4h-0.3v-0.4h0.3v-0.1h-0.1v-0.1h0.1v-0.6h0.1l0.1-1
					h0.1l-0.1-0.7l0.4-0.1l-0.2-0.7h0.2v-0.3h0.1l0.1-0.4h-0.1l-0.1-0.4h0.1l0.1-0.7l0.3-0.1l-0.1-0.3l0.3-0.1V34h0.1v-0.4
					c0.1-0.2,0.1,0.1,0.2-0.1l-0.2-0.3h0.2l0.1-0.9h0.1v-0.4c0.2-0.3,0.3-0.7,0.4-1h-0.1v-0.1h0.1c0.2-0.2,0.3-0.4,0.3-0.6H282
					l0.1-0.6c0.3-0.1,0.1,0,0.3-0.1h0.2l-0.2-0.4h0.2v-0.3h0.1l-0.1-0.3h0.1c0.1-0.4,0-0.3,0.4-0.4c0-0.5,0.1-1,0.1-1.5h0.3v-0.9
					h0.1V25l0.3-0.2v-0.6c0.2-0.5,0.5-0.3,0.3-1h0.7v0.3c0.8,0,1.6-0.1,2.4-0.1v0.3h0.1c0-0.3,0.9-0.1,1.2-0.1v0.3
					c0.3-0.3,0.6-0.1,0.9,0v-0.3c0.5,0.1,1.1,0.2,1.6,0.1c0,0-0.1,0.5,0.1,0.3v-0.3l0.4,0.2v0.1l1.2-0.1v0.1h0.6v0.1
					c0.2,0.1,0.3,0,0.4-0.1c0.4-0.1,0.4,0.2,0.6,0.1h0.1v-0.1h0.6v-0.1l0.1,0.1l0.4-0.1c0.1,0.2,0.4,0.4,0.6,0.4
					c0.3,0.7,0.4,1.5,0.4,2.2h0.3c0,0.3,0,0.5,0.1,0.7h0.2c0.2,0.4,0.2,0.9,0,1.3c0.3,0.1,0.1,0,0.3,0.1c-0.2,0.1-0.2-0.1-0.1,0.1
					h0.1v0.3l0.3-0.1c0.1,0.1-0.3,0.3-0.1,0.6h0.1v0.3h0.1l0.3,0.6c-0.1,0.2-0.1-0.1-0.2,0.1h0.3c-0.1,0.3-0.1,0.6-0.1,0.9h0.4
					c0,0.3-0.1,0.5-0.1,0.7h0.3c-0.1,0.4,0,0.2,0,0.7h0.3c0,0.2-0.1,0.4-0.2,0.6l0.3,0.1v0.6l0.3,0.1v0.3h0.1v0.7l0.3,0.1v0.6
					l0.3,0.1v1l0.4,0.3v0.7h0.1v0.2l-0.1,0.1h0.3l0.1,1l0.3,0.1v0.4h0.2l-0.2,0.7h0.3v0.6h-0.1V42h0.3c-0.1,0.3-0.2,0.3,0,0.6h0.1
					l-0.1,0.4l0.3,0.4h-0.1v0.1c0.2,0.1,0,0,0.1,0.2h0.7v0.3h1V44h0.1v0.1h0.3c-0.1-0.4-0.1-0.4-0.6-0.4v-0.1h0.3l0.1-0.6
					c0.1-0.1,0.2,0,0.2-0.1H305v-0.4h-0.1v-0.4h-0.1v-0.7h-0.1l0.1-0.4l-0.3-0.1v-0.3h-0.2v-0.7l-0.3,0.1v-1.2h-0.4l0.1-0.4
					c-0.1-0.1-0.2,0-0.1-0.3h0.1v-0.1l-0.3-0.1c-0.1-0.3,0.1-0.4,0.1-0.6l-0.4-0.1c-0.1-0.2,0.1-0.1,0.1-0.1c0-0.2-0.1,0-0.1-0.1
					v-0.6h-0.1l-0.1-0.6h-0.1l0.1-0.3l-0.4-0.1l0.1-0.4h-0.1l-0.2-0.9h-0.3l0.1-0.4h-0.3l-0.1-0.9h-0.1l0.1-0.9h-0.4l-0.2-0.4
					c0.1-0.2,0.2,0.1,0.2-0.1h-0.3c-0.1-0.2,0.3-0.3,0.3-0.3c-0.1-0.2-0.1-0.4-0.2-0.6l-0.4-0.1l0.1-0.4h-0.1v-0.6h-0.1
					c-0.2-0.5,0-0.4,0-0.6h-0.1v-0.1h0.1v-0.1h-0.4l-0.1-0.4h0.1v-0.3c0,0-0.6,0-0.3-0.1h0.2v-0.4h-0.3v-0.9l-0.3-0.1l0.1-0.1
					c0-0.4,0-0.4-0.3-0.6v-0.2c0.4-0.1,0.8-0.1,1.2,0v0.2l1.2-0.2c0,0,0,0.6,0.1,0.3v-0.1c0.9,0,1-0.3,1.5-0.6v-0.4h-0.1
					c-0.3-0.4-0.3-0.2-0.1-0.7c-0.4-0.1-0.3,0-0.4-0.3c-0.5,0-1.5,0.1-1.8-0.1H299l0.1-0.3h-0.3v0.3l-0.4-0.3
					c-0.2,0.1,0.1,0.1-0.1,0.1v-0.7h-0.1v-0.3H298l0.1-0.3h-0.3c0-0.2,0.1-0.4,0.1-0.6h-0.3c-0.1-0.4-0.1-0.8-0.1-1.2
					c0,0-0.6,0-0.3-0.1h0.1v-0.1h-0.3l0.1-0.4h-0.1v-0.3l-0.3-0.1v-0.4h-0.1v-0.6l-0.3-0.1l0.1-0.3h-0.3V16c0.2-0.1,0.1-0.3,0.1-0.6
					H296l-0.3-0.9h0.3v-0.1h-0.4c0-0.3,0-0.5-0.2-0.7h-0.1v-0.7L295,13v-0.6h-0.1c0-0.2-0.1-0.5-0.1-0.7l-0.3-0.1l0.1-0.4l-0.4-0.1
					c-0.2-0.4-0.3-0.8-0.3-1.2c-0.3-0.1-0.1,0-0.3-0.1h-0.1l0.1-0.3h-0.1V8.8h-0.2V8.4l-0.6-0.4c-0.1-0.3,0.2-0.1,0.3-0.1V7.6h-0.4
					c-0.1-0.5-0.2-0.3,0-0.7l-0.3-0.1L292,6.9c0-0.2-0.1-0.4-0.1-0.6h0.1V6.1h-0.1V5.8l-0.6-0.3c0-0.2-0.1-0.5-0.1-0.7l-0.3-0.2V4.3
					h-0.1l-0.1-0.4h-0.4c0-0.2-0.1-0.4-0.1-0.6l0.1-0.1L289.8,3v0.1c-0.1-0.1-0.2,0-0.1-0.1h0.1V2.8l-0.6-0.1
					c0.2-0.4,0.1-0.4-0.4-0.4V1.8c-0.5,0-0.3,0.3-0.4-0.1h-0.1v0.4H288V1.3l-1,0.3V1.3l-0.3,0.1c-0.2,0,0.1-0.2-0.1-0.1v0.1h-0.3
					c-0.1,0.3-0.1,0.7-0.1,1c0.3-0.1,0.1,0,0.3-0.1h0.3l-0.1,0.4h0.3c0.1,0,0,0.3,0.3,0.3V3h0.2l-0.2,0.1c0,0.2,0.3,0.5,0.4,0.6
					c-0.2,0.3-0.7,0.4-0.9,0.7l0.1,0.3h-0.1v0.4c-0.1,0.1-0.4,0.1-0.3,0.3h0.1v0.1l-0.3,0.1c0,0.3-0.1,0.7-0.1,1L285.7,7l0.3,0.6
					l-0.3,0.1c-0.2,0.4,0,0.5,0,0.6h-0.2l-0.1,0.4h0.1c0,0.1,0.1,0.6-0.1,0.4V9.1h-0.1l0.1,0.6h-0.3l0.1,0.9H285
					c0,0.2,0.1,0.5,0.1,0.7H285v0.4h-0.1l-0.2,0.4l0.2,0.1h-0.2c-0.2,0.2,0.3,0.1,0.3,0.1v0.1h-0.3l-0.1,0.6c0,0.1,0.2,0,0.1,0.2
					h-0.3c0.2,0.4,0.2,0.9,0,1.3c0,0-0.6,0-0.3,0.1h0.3c-0.3,0.6-0.2,0.4-0.1,1.2c-0.3,0.1-0.1,0-0.3,0.2h-0.1
					c0.1,0.1,0.2,0.2,0.3,0.3c-0.1,0.2-0.3,0.2-0.3,0.3v0.3h-0.1l0.1,0.6h-0.1v0.3l-0.3,0.1l0.2,0.4l-0.3,0.1v0.6
					c-0.1,0.2-0.1-0.1-0.1,0.1h0.1v0.1H283v0.9c-0.3-0.3-0.2,0.1-0.6,0v-0.1h-0.1v0.1H282c0.2-0.2,0-0.1,0.3-0.1v-0.1l-0.7,0.1v-0.3
					l-0.4,0.1v-0.1c0,0,0.3,0,0.2-0.1l-0.9-0.1v-0.1h-0.4v-0.1l-0.4,0.1l-0.1-0.3h-0.1v0.1c-0.1,0-0.6,0.1-0.4-0.1h0.1v-0.1h-0.4
					v0.1c-0.5,0-1,0-1.2,0.3l0.1,0.4l-0.3,0.1v0.1h0.4c0.1,0.4,0.2,0.3,0.3,0.6c0.4-0.1,0.3,0,0.4-0.3h0.2l-0.2,0.6
					c0.8,0,0.9,0.3,1.5,0.4v0.3c0.2-0.3,0.8,0.2,1,0.3l0.3-0.1v0.1l0.4,0.1v-0.1c0.1,0,0.2,0.4,0.3,0.3v-0.3h0.2v0.4h0.3
					c-0.2,0.2,0,0.1-0.3,0.1c0.2,0.2,0,0.1,0.3,0.1v0.1H282v0.1c0.2,0.1,0.2-0.1,0.1,0.1H282v0.2l0.1,0.1h-0.3v0.7l-0.3,0.1v0.4
					l-0.3,0.1l-0.2,0.6h-0.1c-0.1,0.3,0,0.5,0.1,0.7v0.1l-0.4,0.1l-0.1,0.9l-0.3,0.1l0.1,0.7L280,29v0.3h-0.1
					c-0.1,0.3,0.1,0.4,0.1,0.6h-0.4l-0.1,1.9l-0.3,0.1v0.4l-0.3,0.1L279,33c0,0-0.2,0-0.1,0.3c0.1,0,0.2,0.2,0.1,0.3c0,0,0,0,0,0
					h-0.1v0.3h-0.1v0.3l-0.3,0.1c-0.1,0.2,0.3,0.3,0.1,0.6l-0.4,0.3l0.1,0.4h-0.1l0.1,0.4l-0.3,0.1c-0.3,0.8,0.3,1-0.4,1.5
					c0.1,0.1,0.2,0.2,0.3,0.3c-0.1,0.1-0.4,0.3-0.4,0.3c-0.1,0.2,0.1,0.1,0.1,0.1V39h-0.1l0.1,0.4h-0.1c-0.2,0.2,0,0.1-0.3,0.1
					c0.2,0.2,0,0.1,0.3,0.1v0.3c-0.3,0.1-0.1,0-0.3,0.1h-0.1c0,0,0,0.6,0.1,0.3v-0.1h0.1c0,0.2,0,0.4-0.1,0.6h-0.1l0.1,0.4l-0.4,0.3
					v0.1h0.1c0,0.3-0.1,0.3-0.1,0.3l0.1,0.3l-0.3,0.1l0.3,0.6h-0.3v0.1h0.1v0.7h-0.3c0,0.5-0.1,1-0.3,1.5h0.3l-0.3,0.9
					c0.1,0,0.2,0.2,0.2,0.3H276V47c0.1,0.1,0.2,0,0.2,0.4H276v0.1h0.2l0.1,0.3l-0.3-0.1c0,0.5-0.2,0.8-0.1,1L276,48.8z M285.9,17.5
					h0.3c-0.1-0.7-0.3-0.9,0.3-1.2v-0.7l-0.3,0.1c0.1-0.4,0.2-0.3,0.3-0.7h-0.1v-0.1l0.4-0.1v-1.5l0.3-0.1v-0.6h0.2
					c0-0.2-0.3-0.3-0.2-0.6h0.2l0.1-0.4h-0.1v-0.9h0.1v-0.3l0.3-0.1c0.2-0.4,0-0.9,0-1.2l0.3-0.1l-0.2-0.6c0.2,0.2,0.1,0,0.2,0.3
					h0.1c0.2-0.3-0.1-0.6-0.1-0.7h0.1V7.4h0.1V6.8h0.1l0.3-0.9h-0.1V5.7c0.3,0.2,0.6,0.3,0.9,0.4l0.4,1.5l0.3,0.1v0.4h0.1
					c0.2,0.2,0.4,0.5,0.4,0.7h0.3L291,9.6h0.4c-0.2,0.2-0.1,0.7,0,0.9h0.1v0.4l0.6,0.4v0.3l0.3-0.1v0.7h0.1v0.4l0.3,0.2v0.6h0.1v0.1
					c0,0.2-0.2,0-0.1,0.1l0.3,0.1v0.1h-0.1v0.3l0.4,0.1l0.1,0.1v0.6l0.3,0.1l-0.1,0.1c0,0.2,0.1,0.5,0.1,0.7l0.3,0.1l-0.1,0.3h0.1
					l0.2,0.4h-0.2v0.1l0.4,0.3v0.9h0.1c0.1,0.2,0.2,0.4,0.1,0.6h0.3v0.7c0.4,0.2,0.2,0,0.1,0.4l0.4-0.1l-0.3,0.4h0.1
					c0,0.7,0,0.8,0.4,1v0.1l-1.2-0.1v0.1h-0.1v-0.1c-0.5-0.1-0.9,0-1.3,0.3v-0.3h-1.3v-0.1c-0.3-0.1-0.7,0.2-0.7,0.1v-0.1l-0.4-0.1
					v-0.1l-0.4,0.1v0.1l-0.9-0.1v-0.1l-1.3,0.1v-0.1l-0.3,0.1l-0.2-0.3l-0.7,0.1v-0.1l-1.3,0.1V21c-0.3,0.1-0.1,0-0.3,0.1
					c-0.2-0.2-0.1,0-0.1-0.3C285,20.4,285.8,18.7,285.9,17.5L285.9,17.5z"/>
				<path id="パス_331" class="st1" d="M319.1,28l0.4,0.1v0.1l0.4,0.1l0.1,0.3l0.9-0.1v0.1h0.3l0.1,0.3l0.9,0.1l0.1,0.3l0.4-0.1
					v0.1h-0.1c0,0.2,0.2,0.2,0.3,0.3l-0.1,0.3c0,0,0.2,0,0.1,0.3l-0.3,0.1l0.1,0.3h-0.1V31c0,0.1,0.4,0.1,0.3,0.3l-0.3,0.1v0.3h0.3
					V32l-0.3,0.1v0.1h0.1l-0.1,0.4h0.3c0.1,0.2-0.1,0.1-0.1,0.1c0.1,0.2,0.1,0.5,0.1,0.7l-0.3,0.1v0.3h0.3l-0.3,1.9h0.3
					c-0.2,0.6-0.2,1.2-0.1,1.8h0.1c0,0.3-0.1,0.3-0.1,0.3c-0.1,0.3,0.1,0.4,0.1,0.4c0,0.3-0.1,0.6-0.1,0.9c0.3-0.1,0.1,0,0.3-0.1
					h0.1l-0.1,0.4h-0.3c0,0.3-0.1,0.6-0.1,0.9h0.3c-0.1,0.1-0.2,0.2-0.3,0.3c-0.1,0.2,0,0.3,0.1,0.4c0,0.2-0.1-0.1-0.1,0.1
					c-0.1,0.5,0.6,0.4-0.1,0.9c0.2,0.2,0,0.1,0.3,0.1v0.4c0.3,0.1,0.1,0,0.3,0.1H323c-0.1,0.4-0.1,0.8,0,1.2h0.1v0.3h0.1v0.4
					l0.3-0.1l-0.1,0.3h0.3c-0.1,0.3-0.2,0.1,0,0.3v0.1c0.3,0.1,0.5-0.1,0.6-0.1V46c0.5-0.1,0.9-0.3,1.2-0.6c0.1-0.1,0.2,0,0.1-0.1
					h-0.1V45c0.1-0.1,0.2-0.2,0.3-0.3h-0.3c0.1-0.4,0.2-0.3,0.3-0.7c-0.2-0.1-0.4-0.1-0.6-0.1c0-0.7,0-0.8-0.4-1
					c0.2-0.1-0.1-0.2,0.1-0.1v0.1h0.3v-0.1h-0.1c0.1-0.3,0.2-0.6,0.1-0.9h-0.1v-0.2h0.1v-1h0.1v-0.2h-0.1c0-0.3-0.1-0.6-0.1-0.9h0.1
					v-0.6h0.1c0-0.2-0.1-0.5-0.1-0.7c0.1-0.1,0.2-0.3,0.1-0.4h-0.1c-0.1-0.2-0.1-0.4-0.1-0.6h0.1l-0.1-0.4h0.1v-0.7h0.1v-0.1
					c-0.1,0-0.2,0-0.3-0.1c0,0,0,0,0,0l0.3-0.1v-0.2h-0.1v-0.9h-0.1c-0.1-0.6,0.5-0.5,0.3-1l-0.3-0.1l0.3-0.6h-0.1l0.1-0.4
					c0,0-0.2-0.1-0.1-0.4h0.1c0-0.3-0.2,0-0.3-0.1s0.1-0.1,0.1-0.1c0-0.1,0-0.2-0.1-0.3V31h0.1c0-0.3,0-0.5-0.1-0.7l0.4-0.2
					c0.2,0.7,0.4,0.4,0.7,0.7l-0.1,0.3l0.6,0.3v0.3l0.4,0.3c0.4,0.4,0.1,0.4,0.7,0.7v0.4c1,0.2,1.2,1.1,2.2,1.6v0.4h0.4v0.3h0.3v0.3
					h0.4v0.3h0.3l0.1,0.6c0.9,0.1,0.8,0.5,1.3,0.9v0.4c0.3-0.1,0.1,0,0.3-0.1h0.1v0.7h0.4c0.1,0.6,0.5,0.5,0.7,0.9l0.1,0.4l0.3-0.1
					v0.3h0.3v0.3h0.1l-0.1,0.4h0.1v0.2L336,41c0.2,0.5,0.2,0.8,0.7,0.9c0,0.3,0.1,0.5,0.3,0.7h0.1V43h0.1c0.1-0.1,0-0.1,0.1,0h0.1
					c0.4,0.5-0.1,0.5,0.7,0.9v0.3h0.3v0.3h0.3c0.1,0.3,0,0.1,0.1,0.3v0.1l0.3-0.1l0.1,0.3h0.1v-0.1h0.6l0.1-0.4h0.1
					c0.1,0.2,0.2,0.2,0.4,0.2l-0.1-0.3v-0.1h0.1c0-0.4-0.1-0.8-0.4-1V43h-0.4v-0.4c-0.6-0.2-0.6-0.6-1-0.9v-0.3l-0.4-0.1l-0.1,0.1
					l0.1-0.4l-0.4-0.3v-0.3l-0.3-0.1V40h-0.3v-0.6h-0.3c-0.1-0.3,0-0.1-0.1-0.3v-0.1h-0.4c-0.1-0.3,0-0.1-0.1-0.3
					c-0.1-0.4,0-0.3-0.4-0.4v-0.4c-0.2-0.4-0.6,0.1-0.7-0.9h-0.6v-0.4c0-0.1-0.3-0.1-0.3-0.3h0.1v-0.1h-0.4v-0.3
					c-0.1,0.1-0.4,0.2-0.4,0v-0.4c0-0.1-0.2-0.1-0.3-0.3H333v-0.4l-0.3,0.1v-0.1h-0.3V34c-0.4-0.1-0.4-0.3-0.7-0.4v-0.3h-0.4
					l-0.1-0.4h-0.3c-0.1-0.3,0-0.1-0.1-0.3v-0.1h-0.4c-0.1-0.7-0.3-0.5-0.6-0.9h-0.1V31h-0.4c-0.1-0.6-0.2-0.4-0.3-0.9l-0.4,0.2
					v-0.2h-0.3c0.1-0.2,0.1-0.4,0.1-0.6c0.4,0.1,0.9,0.1,1.3,0c0.1-0.3,0-0.1,0.1-0.3v0.3h0.3V29l0.3,0.1c0.2,0,0,0,0.1-0.1h0.1
					l-0.1,0.4c0.4-0.1,0.3,0,0.4-0.4l0.4,0.1l0.1-0.3l0.6-0.1v-0.1c0.2-0.1,0,0.1,0.1,0.1h0.1v-0.1l0.6,0.1v-0.1l0.4-0.1l0.1-0.3
					c0.2-0.1,0.1,0.1,0.1,0.1h0.1v-0.1h1.2l0.1-0.3l1-0.1l0.1-0.4h0.1l-0.1,0.3h0.1v0.1c0.2,0.1,0.6-0.2,0.7-0.3v-0.1h0.4l0.1-0.3
					l0.4,0.1l0.1-0.3c0.5-0.3,0.8,0.2,1.2,0v-0.2c0.5-0.3,0.2-0.3,0.7-0.1v-0.3h0.4v-0.3h0.4l0.3-0.4h0.4v-0.1h0.1v-0.4h0.1
					c0.3-0.3,0.5-0.6,0.6-1h0.3v-0.4h0.1c0.1-0.1,0.3-0.3,0.1-0.6h-0.1v-0.1l0.3,0.1l0.3-1h0.1l-0.1-0.3c0.2-0.2,0.3,0.1,0.4-0.3
					h-0.1l0.4-0.6h-0.1v-0.6l0.3,0.1l0.3-0.7h-0.3c-0.1-0.2,0.4-0.3,0.3-0.7h-0.1v-0.1c0.1-0.2,0.2,0.1,0.1-0.1l-0.3-0.1V18h0.1
					v-0.9c0-0.1,0.2,0,0.1-0.3c0,0-0.2,0-0.1-0.3c0-0.2,0.1,0.1,0.1-0.1h-0.1v-0.1h0.1V16h-0.1c-0.1-0.4,0.1-0.4,0.1-0.6
					c-0.1-0.1-0.3-0.1-0.3-0.3h0.1V15h-0.3l0.3-0.9l-0.4-0.3v0.1h-0.1c0.1-0.2,0.3-0.2,0.3-0.3l-0.3-0.4l0.1-0.1h-0.3v-0.3H344
					l0.1-0.4H344V12h-0.1v-0.4h-0.1v0.1h-0.1v-0.1h-0.1l0.1-0.3h-0.1v-0.4l-0.7-0.1l0.1-0.4l-0.4-0.1c-0.2-0.7-0.1-0.2-0.6-0.4
					l-0.1-0.3h-0.3L341,9V8.7l-0.4-0.1l-0.1-0.3h-0.3L340,7.8h-0.6c0,0,0-0.6-0.1-0.3v0.1h-0.1l0.1-0.3h-0.1c-0.2-0.3-0.6-0.5-1-0.4
					V6.6c-0.6-0.1-0.4-0.2-0.9-0.3V5.9H337V6l-0.7-0.2c-0.2-0.7-0.1-0.2-0.6-0.4l-0.1-0.3l-0.9-0.3V4.5l-1.5-0.1
					c-0.1-0.3,0-0.1-0.1-0.3V3.9l-0.6,0.1V3.9h-0.7l0.1-0.3c-0.4,0.1-0.9,0.1-1.3,0V3.5l-0.6,0.1l-0.1-0.3c-0.2-0.1-0.3,0.1-0.3,0.1
					c-0.3,0-0.6,0-0.9-0.1v0.1h-0.9V3.3c-0.3,0-0.3,0.1-0.3,0.1l-0.4-0.1c-0.1,0-0.1,0.3-0.3,0.3V3.3c-0.2,0-0.3,0.3-0.6,0.1
					c-0.1,0-0.1-0.3-0.3-0.3v0.1l-0.7,0.1l-0.1-0.3h-0.3l-0.1,0.4H324V3.3h-0.7v0.1h-0.1c-0.1-0.1,0-0.2-0.4-0.1
					c-0.2,0,0.1,0.1-0.1,0.1V3.3c-0.4-0.1-0.4,0.1-0.6,0.1V3.3h-0.1c-0.1,0.1-0.2,0.2-0.3,0.1V3.3c-0.7-0.1-0.9,0.6-1.8,0.3l-0.6,1
					c0.2,0.2,0.4,0.3,0.6,0.4c0.1-0.1,0-0.2,0.3-0.1v0.1h0.3v0.1h0.6l0.1,0.3l0.4-0.1v0.3l0.4-0.3v0.1h0.7c0,0,0,0.2,0.3,0.1V5.6
					h0.7v0.1h1V5.4h0.1v0.3c0.6-0.2,1,0.1,1.8-0.1V5.4h0.1v0.1l0.9,0.3l0.1-0.3c0.7,0.1,1.4,0.1,2.1,0v0.3h0.1V5.7l0.7,0.1V5.7h0.1
					l-0.1,0.4c0.2-0.1,0.5-0.2,0.7-0.3v0.3L332,6l0.1,0.4l0.4-0.1l0.1,0.3c0.2,0,0.3-0.3,0.6-0.2v0.2h-0.1v0.1h0.6v0.1
					c0.2,0.2,0.6,0.3,0.9,0.3v0.3l0.9,0.1l0.1,0.4h0.6v0.3c0.4,0.1,0.3,0.2,0.7,0.3V9l0.7,0.1l0.1,0.3h0.3v0.1
					c0.2,0.1,0.3,0.1,0.6,0.1l0.1,0.6c0.4,0.1,0.7,0.2,1,0.4v0.3l0.3,0.1v0.1c0.5,0.3,0.4-0.3,0.6,0.4h0.3v0.4h0.4
					c0,0.2,0,0.4,0.1,0.6h0.1v0.9l0.4,0.1c0,0-0.2,0.3-0.1,0.6h0.1v0.6h0.1l-0.1,0.4h0.1v0.3h0.1V16h-0.1c0,0.5,0.2,0.6,0,1.2h0.3
					c0,0.3,0,0.5-0.1,0.7h-0.1c0,0.4,0.1,0.8,0.1,1.2h-0.1v0.3l-0.4,0.3l0.1,0.3h-0.1v0.3h-0.1v0.3h-0.1l0.1,0.1
					c0,0.2-0.1,0.2-0.1,0.6h-0.4l0.1,0.4c-0.1,0.1-0.4,0.2-0.4,0.4h0.1v0.1l-0.4,0.1c-0.1,0.7-0.5,0.7-0.6,1.3l-1.3,0.3l-0.1,0.3
					h-0.6l-0.1,0.3h-1l-0.1,0.3l-0.7,0.1v0.3l-0.1-0.1c-0.2,0,0.1,0.1-0.1,0.1h-0.6v0.1l-0.7-0.1v0.3l-0.4,0.1
					c-0.3-0.2,0.2-0.2-0.1-0.3l-0.3,0.4H333v-0.2l-0.7,0.2c-0.1,0.3,0,0.1-0.1,0.3c-0.3,0.2-0.5-0.1-1,0.1l-0.1,0.3l-0.3-0.1V27
					h-0.4v0.1h-0.3v0.1h-0.7l-0.3,0.4l-0.9-0.3v0.1c-0.1,0-0.6,0.1-0.4-0.1h0.1v-0.1h-0.4v0.3h-1v-0.1h-0.1l-0.1-0.7l-0.4-0.1
					c0-0.2-0.1-0.4-0.1-0.6h0.1v-0.6l-0.3,0.1c0-0.2,0.1-0.5,0.1-0.7h0.1c0-0.3-0.1-0.6-0.1-0.9h0.1c0-0.1-0.2-0.4-0.1-0.7h0.1
					l-0.1-0.3h0.1v-0.1l-0.4-0.3v-0.1l0.3,0.1v-0.6H325v-0.1h0.1v-0.7c0,0,0.2,0,0.1-0.3c0-0.1-0.4-0.1-0.3-0.6h0.1v-0.4h0.1
					c0-0.2-0.3-0.2-0.3-0.3c0-0.2,0.1,0.1,0.1-0.1v-0.4h0.1L325,18c0.1-0.1,0.2-0.1,0.3-0.3H325c0.1-0.4,0.1-0.8,0-1.2h-0.1
					c0-0.2,0,0,0.1-0.1c0-0.2-0.1,0.1-0.1-0.1c-0.1-0.4,0.1-0.7,0.1-0.9l-0.3-0.2c-0.1-0.4-0.1-0.9,0-1.3c-0.3-0.1-0.1,0-0.3-0.1
					h0.3c-0.1-0.4-0.3-0.3-0.3-0.6c0.1-0.1,0.3-0.1,0.3-0.3l-0.4-0.1l0.3-0.6h-0.1v-0.7h0.1v-0.1c-0.2-0.4,0-1.1-0.1-1.5l-0.3,0.1V9
					c-0.3,0.1-0.7,0.2-1,0.1c-0.2,0.7-0.4,0.2-0.7,0.7h-0.1l0.1,0.4c0,0.2-0.2-0.1-0.1,0.1h0.1v1l-0.3,0.1V12h0.3v0.1
					c-0.4,0.1,0,0.3,0,0.4h-0.1v1l0.3,0.1c0.1,0.3-0.1,0.4-0.1,0.6h0.1v0.3h0.1v1.2l0.3,0.1c0,0.1,0,0.2-0.1,0.3c0,0,0,0,0,0
					c0.1,0.2,0.1,0.4,0.1,0.6c-0.3,0.1-0.1-0.1-0.3,0.1h0.3l-0.1,0.3l0.3,0.2c0.1,0.1-0.2,0.3-0.1,0.6h0.1c0,0.3-0.1,0.6-0.1,0.9
					h0.1c0,0.3-0.1,0.3-0.1,0.3c-0.1,0.4,0.1,0.4,0.1,0.6h-0.1c-0.1,0.2-0.2,0.4-0.1,0.6c0.3-0.1,0.1,0,0.3-0.1h0.1
					c-0.1,0.3-0.2,0.2-0.3,0.6h0.3c-0.1,0.1-0.2,0.2-0.3,0.3V22h0.1l-0.1,0.6h0.3v0.3c-0.4,0.1-0.3,0-0.4,0.4h0.3v0.4
					c-0.4-0.2-0.8-0.3-1.2-0.3c0.1-0.2,0.2-0.1,0.3-0.3l-0.1-0.1l-0.4,0.1l-0.1-0.3H321v-0.1h-0.1c-0.1,0.3-0.3,0.5-0.6,0.6
					l-0.1,0.4l0.4,0.3c0.2-0.1-0.1-0.1,0.1-0.1l-0.1,0.4c0.1,0,0.5,0.1,0.6,0.1l-0.1,0.3h0.3v0.3l0.3,0.1l0.1,0.4l0.4,0.1l-0.1,0.3
					h0.3c0.2,0.2,0.1,0.4,0.4,0.6v0.3c-0.5-0.1-0.1-0.1-0.6,0l-0.1-0.4l-1-0.3v-0.3l-0.6,0.2c-0.1-0.1-0.3-0.2-0.4-0.2
					c-0.1,0-0.3,0.5-0.4,0.6c-0.1-0.2,0-0.1-0.3-0.1l0.1,0.4c-0.4,0.1-0.3,0-0.4,0.4h0.3L319.1,28z"/>
				<path id="パス_332" class="st1" d="M255.2,54.8h0.2v-0.1h0.6v-0.1l0.4,0.1l0.1-0.3c0.4-0.2,0.8-0.3,1.2-0.3l0.1-0.4
					c0.4-0.2,0.9-0.3,1.3-0.3l0.1-0.4c0.3,0.1,0.1,0,0.3,0.2c0.2-0.1,0.2-0.3,0.3-0.4h0.3l0.1-0.4l0.7-0.1l0.1-0.4h0.6v-0.3
					c0.4-0.1,0.3,0,0.4-0.4l0.7-0.1c0.1-0.4,0.3-0.4,0.4-0.7h0.3v-0.3h0.3c0.1-0.3,0.2-0.6,0.4-0.9l0.3-0.1c0.3-0.6-0.3-0.7,0.6-0.9
					c0-0.2,0.1-0.4,0.3-0.6h0.2c0.1-0.2-0.1-0.1-0.2-0.1v-0.1h0.3l-0.1-0.3h0.1l0.1-0.4c-0.1-0.2-0.2,0.1-0.1-0.1l0.3-0.1
					c0.3-0.4,0.2-0.4,0.2-1c0.3-0.1,0.1,0,0.3-0.1c0.3-0.3,0.2-0.9,0.3-1.5h0.1c0-0.2,0,0-0.1-0.1c0-0.4,0.1-0.4,0.1-0.4l-0.1-0.3
					h0.3l-0.1-0.3h0.1v-0.6h-0.1v-0.3h-0.1l0.1-0.4h-0.1l0.1-1l-0.3-0.1v-0.4l-0.3-0.1c-0.1-0.2,0.1-0.2,0.3-0.1l-0.4-0.9
					c-0.2-0.2-0.2,0.2-0.3-0.1l0.3-0.1c-0.2-0.3-0.5-0.5-0.9-0.6c-0.1-0.5-0.3-0.6-0.4-1H265c-0.2-0.7-0.1-0.2-0.6-0.4l-0.4-0.6
					h-0.6c-0.1-0.3,0-0.1-0.2-0.3v-0.1h-0.4v-0.3c-0.1,0.2-0.8-0.1-1-0.3l-0.1-0.3l-0.4,0.2l-0.3-0.4H260l-0.1-0.4
					c0,0-0.6,0-0.3-0.1h0.2v-0.1l-1.3-0.1v-0.6l-0.4,0.1v-0.3c-0.3-0.1-0.6-0.2-0.9-0.4v-0.1h-0.7l-0.3-0.4h-0.6l-0.3-0.4
					c-0.3-0.2-0.4,0-0.6,0l-0.1-0.4c-0.3-0.2-0.4,0.1-0.6,0.1v-0.3l-0.4,0.1c-0.1-0.3,0-0.1-0.1-0.3v-0.1l-0.9-0.1l-0.1-0.3
					l-0.3,0.1l-0.3-0.4l-2.1-0.4v-0.3l-0.4,0.1v-0.1h-0.3l0.1-0.4l1.2-0.4l0.4,0.1v-0.1h0.3v-0.1h1l0.2-0.3l0.6-0.1v-0.3h0.7v-0.1
					c0.2-0.2,0.5-0.3,0.7-0.3c0.2-0.7,0.4-0.4,0.7-0.7h0.1V24c0.5,0,0.9-0.2,1.2-0.6l0.2-0.3c0.2-0.1,0.6-0.1,0.7-0.3v-0.3h0.1
					l0.2-0.4l0.3,0.1V22c0.5-0.4,0.1-0.5,0.9-0.6v-0.6l0.3,0.1v-0.4l0.7-0.1c0.1-0.4,0-0.3,0.4-0.4c0-0.8,0.6-1.6,0.3-2.5h-0.2
					l0.2-0.7h-0.2v-0.3H260l0.1-0.6l-0.4-0.1c0.2-0.2,0.2-0.5,0.2-0.7h-0.2v-0.1h0.2l-0.3-0.6h-0.1v-0.6l-0.4-0.1l0.1-0.3H259v-0.1
					h0.1v-0.3h-0.4l-0.6-1h0.1v-0.1h-0.4l-0.1-0.4l-0.3-0.2l-0.2,0.2c-0.1-0.2-0.1-0.4-0.1-0.6c-0.7-0.1-0.4-0.2-1-0.3
					c-0.1-0.3,0-0.1-0.1-0.3V9.6l-0.3,0.1V9.4c-0.3-0.1-0.7-0.2-1-0.3V8.7L254,8.9V8.6l-0.4,0.2V8.4c-0.3-0.1-0.6-0.1-0.9,0V8.1
					L252,8V7.8h-0.7l-0.3-0.4L250,7.5V7.4h-1c0,0,0-0.2-0.3-0.1c-0.1,0.1-0.2,0.2-0.3,0.1h-0.1V7.2h-0.6v0.1l-0.4-0.1v0.1
					c-0.1,0-0.5-0.3-0.9-0.1v0.1c-0.4,0-0.7,0-1-0.1V7.1C245,7,245,7.2,244.9,7.2l-1.5-0.1v0.1L243,7.4V7.1l-0.9,0.1v0.1
					c-0.2,0,0.1-0.1-0.1-0.1h-0.4V7.1h-0.2v0.1c-0.1,0-0.2,0-0.3-0.1h-0.1v0.1c-0.4,0.1-0.4-0.1-0.6-0.1l-0.2,0.3l-0.3-0.1v0.1h-0.4
					c-0.2,0.1,0.1,0.1-0.1,0.2c-0.1-0.1,0-0.3-0.3-0.2l-0.2,0.3h-0.3v0.1h-0.3V8c-0.1,0-0.4-0.3-0.7-0.1V8h-0.3v0.2
					c-0.2,0,0,0-0.1-0.2l-0.4,0.2V8h-0.1v0.2h-0.4v0.1l-0.3-0.1v0.1c-0.3,0.1-0.7,0.1-1,0c-0.1,0.2-0.2,0.1-0.3,0.3h0.1v0.2h-0.3
					V8.4h-0.3v0.7c0.2-0.2,0.1,0,0.2-0.3h0.1v0.6h0.6c0.1-0.3,0-0.1,0.1-0.3V9h0.2l-0.2,0.4h0.9v0.1h0.3v0.1l0.4-0.3v0.1h0.3
					l-0.2,0.4h0.3V9.7c0.8,0.1,0.6,0.2,1.2-0.1v0.3h0.3c-0.1-0.3,0-0.1-0.2-0.3V9.4c0.4,0.1,0.8,0.1,1.2,0c0.1,0.5,0.2,0.7,0.3,1.2
					h0.1l-0.1,0.4h-0.1l0.1,0.4h-0.1v0.9h-0.1l0.1,0.7h0.1v0.1h-0.1v0.4l-0.3,0.1c0,0.2,0.3,0.2,0.3,0.3v0.4h-0.3
					c-0.2,0.1,0.2,0.1,0.2,0.1l-0.2,0.4c0.3,0.1,0.1,0,0.3,0.1l-0.4,0.1c0,0.2,0.1,0.4,0.1,0.6h-0.1v0.4h-0.1
					c0.1,0.3,0.2,0.6,0.1,0.9c0,0.2-0.2-0.1-0.1,0.1c0.1,0,0.3,0,0.3,0.1l-0.3,0.1l-0.2,0.7h-0.2l0.2,0.4c0,0-0.3,0-0.3,0.3h0.1
					l0.2,0.4c-0.4,0.2-0.1,0.5-0.3,1h-0.1l0.1,0.3c-0.2,0.1-0.2,0.3-0.1,0.4c0,0.1,0.4,0.1,0.3,0.3h-0.1v0.3h-0.1
					c-0.1,0.3,0.2,0.4,0.1,0.6h-0.1l-0.2,1h-0.1c0,0.2,0.3,0.3,0.3,0.3v0.6h-0.2V25h0.2l-0.2,0.1l0.2,0.4c-0.3-0.1-0.1,0-0.3-0.1
					c-0.7,0.1-0.7,0.5-1.3,0.6l-0.2,0.6l-1.5-0.1l-0.1,0.3l-0.9,0.3l-0.3,1l1.3,0.4v0.1h0.9v0.1h0.6l0.2-0.3l0.4,0.1v0.1h0.1v-0.1
					h0.6v-0.1h0.1V29l0.4,0.3c-0.1,0.2-0.3,0.2-0.3,0.3c0,0.2,0.2,0.2,0.2,0.6c0,0-0.2,0-0.2,0.3h0.2c0.1,0.3,0,0.7-0.3,0.9
					c0.2,0.2,0,0.1,0.3,0.1c-0.1,0.6-0.1,0.8-0.2,1.3h0.3l-0.1,0.7h-0.2c-0.1,0.3,0.3,0.6,0.2,1c0,0.1-0.3,0.1-0.3,0.3h0.1v0.6h0.2
					c0,0.2,0,0.3-0.2,0.4c-0.1,0.4,0.2,0.4,0.2,0.4c0.1,0.6-0.2,0.6,0,1.2h-0.3l0.1,0.4h0.2c-0.1,0.3-0.2,0.6-0.2,0.9h0.2l-0.3,0.4
					l0.3,0.1l-0.2,1.8h0.2v0.9c0,0-0.2,0-0.2,0.3c0.1,0,0.2,0.2,0.2,0.3c0,0.2-0.2-0.1-0.2,0.1c0.1,0.1,0.2,0.3,0.2,0.4
					c0,0-0.2,0.1-0.2,0.3h0.2l-0.2,0.3c0,0.2,0.2-0.1,0.2,0.1c-0.1,0.1-0.2,0.3-0.2,0.4h0.2c0.1,0.4-0.1,0.4-0.2,0.4
					c0,0.2,0.2,0.2,0.2,0.6c0,0-0.2,0-0.2,0.3c0.1,0,0.2,0.2,0.2,0.3c-0.1,0-0.2,0.2-0.2,0.3h0.2V47h0.1c0,0.2-0.2,0.2-0.3,0.3
					l0.2,0.3h-0.3c0.1,0.2,0.2,0.5,0.3,0.7h0.1l-0.1,0.4h-0.2c-0.1,0.3,0.1,0.2,0.2,0.3l-0.2,0.3h0.2c0,0.2-0.3,0.3-0.2,0.6h0.2v0.1
					c-0.4,0-0.8-0.1-1.2-0.3l-0.2-0.3l-0.3,0.1l-0.2-0.4c-0.2-0.1-0.1,0.1-0.2,0.1c-0.3,0-0.2-0.3-0.3-0.3h-0.2v0.1l-0.6-0.1
					c-0.3,0.3-0.7,0.5-1,0.6v0.4l0.4-0.1l-0.1,0.4c0,0.2,0.2-0.1,0.1,0.1c-0.1,0.1-0.2,0.1-0.3,0.3l0.9,0.3c0,0,0,0.5,0.2,0.3v-0.1
					h0.1v0.1h0.1v-0.1h0.1l-0.1,0.3c0.6,0,1.2,0.3,1.6,0.7h0.6c-0.3,0.2,0.2,0.9,0.3,1.2l0.9,0.1c-0.2,0.2,0,0.1-0.3,0.1V54
					c0.6,0,0.6,0.1,0.9-0.3h-0.1v-0.1h0.4v-0.2c0.2-0.1,0.3-0.1,0.4-0.3c0.6,0,0.6,0,0.7,0.4c0.4-0.1,0.8-0.1,1.2,0
					c0,0,0,0.6,0.1,0.3v-0.1h0.7l-0.2,0.3h0.6v0.3h0.3v-0.1c0.1,0,1,0.1,1.3,0.1v0.3h0.2c0-0.2,0.4-0.2,0.6-0.1l0.4,0.1v0.1l0.6-0.1
					l0.1,0.4c0.4-0.1,0.8-0.2,1.2-0.1v0.1h0.1c0.1-0.1,0-0.2,0.3-0.1v0.1h0.2c0.1-0.1,0-0.2,0.3-0.1v0.1h0.1v-0.1l1.3,0.1v-0.1h0.3
					v-0.1h0.2v0.1h0.7v-0.1h0.2v0.1c0.3,0,0.5,0,0.7-0.1v0.3c0.4,0,0.8,0,1.2-0.1v-0.1h0.3v-0.1L255.2,54.8z M236.1,8.3
					c0.3,0.1,0.1,0,0.3,0.1C236.1,8.3,236.3,8.4,236.1,8.3L236.1,8.3z M239.2,18.7h-0.1v-0.3h0.1V18.7z M240.6,23.7h0.2v-0.1h-0.2
					v-0.6h0.2l-0.2-0.3h0.3l-0.3-0.4h0.2l0.1-0.9h-0.1v-0.1h0.1V21h-0.1v-0.1h0.1v-0.4h0.1l-0.1-0.3l0.3-0.1c0,0-0.3-0.6-0.1-0.9
					l0.3-0.2c0.1-0.2-0.3-0.6-0.2-1l0.3-0.1l-0.2-0.7h0.2c0.2-0.5,0-0.3,0-0.7h0.3c0.2-0.2-0.3-0.1-0.3-0.1v-0.1h0.1
					c-0.1-0.2-0.1-0.4-0.1-0.6h0.3c-0.1-0.3-0.3-0.8-0.2-1.2l0.3-0.1c0-0.1,0-0.3-0.1-0.3c0,0,0,0,0,0v-0.1h0.1l-0.1-0.4h0.1
					c0-0.1,0.1-0.6-0.1-0.4v0.1h-0.2c0.1-0.1,0.2-0.2,0.3-0.3c0.3-0.6-0.4-1-0.3-1.5h0.2l0.1-0.4h-0.3c0.1-0.5,0.2-0.4,0-0.9h0.3
					V9.3c0,0,0.6,0,0.3,0.1h-0.1v0.1l0.7-0.1l0.2-0.3c0.4-0.1,0.3,0.2,0.4,0.3h0.4v0.1l1.5-0.3v0.1c0.4,0.1,0.6-0.2,0.7-0.1v0.1
					c0.5,0.1,1.1,0.1,1.6,0v0.3l0.4-0.1V9.5l0.3,0.1h0.9V9.5h0.3v0.1l0.4-0.1v0.3l0.9,0.1v0.1l0.4-0.1l0.2,0.3h0.4v0.2
					c0.2,0.1,0.5,0.2,0.7,0.1v0.3l0.9,0.2v0.3l0.6,0.1v0.3h0.4v-0.1h0.1V12l0.9,0.3v0.3l0.6,0.1l0.1,0.9c0.4,0.1,0.3,0,0.4,0.3h-0.2
					c0,0.3,0.1,0.1,0.3,0.1l0.4,1.3h0.3c-0.1,0.5-0.1,1.1,0,1.6l0.3,0.1c0.2,0.5-0.2,0.5-0.3,0.6V18h0.2v0.7l-0.4,0.1V19
					c-0.4,0.3-0.3-0.2-0.4,0.4h-0.4c0,0.1,0.1,0.5-0.1,0.3c0,0,0-0.3-0.1-0.1l-0.2,0.7l-0.6,0.1c-0.1,0.4-0.3,0.4-0.4,0.7H255
					c-0.2,0.6-0.1,0.2-0.4,0.4l-0.1,0.3h-0.3l-0.2,0.3h-0.3l0.1,0.2v0.1l-0.4-0.1c-0.2,0.7-0.2,0.1-0.6,0.4v0.1
					c-0.1,0.2-0.2-0.1-0.1,0.1h0.1v0.1l-0.4-0.1v0.3H252v0.3c-0.5-0.1-0.3-0.1-0.7,0.1v0.1h-0.4v0.1H250v0.1h-0.3v0.1
					c-0.2-0.1-0.5-0.1-0.7-0.1v0.3h-2l-0.1,0.3l-0.4-0.1V25h-0.9v0.3c-1.1-0.5-1.8,0-3.4,0v0.3l-1.3-0.1c0-0.6-0.1-0.8,0-1.2h-0.3
					L240.6,23.7z M248.5,27.1v0.1l-0.9-0.1V27h0.7C248.5,27.1,248.3,27,248.5,27.1L248.5,27.1z M254.5,52.5l-0.1,0.3l-1-0.1V53h-0.1
					l0.1-0.4H253v0.3l-0.7-0.1c0,0,0,0.2-0.3,0.1c-0.1-0.1-0.2-0.2-0.3-0.1v0.1l-1-0.1v0.1h-0.7v-0.1c-0.2,0,0.1,0.1-0.1,0.1l-1-0.1
					v-0.1l-0.4,0.3v-0.1c-0.5-0.1-0.4-0.1-0.9,0v-0.3c-0.2,0-0.4,0.1-0.6,0.1v-0.1h-0.1c-0.2,0.1,0.1,0.2-0.1,0.1
					c0-0.1-0.2-0.2-0.3-0.1v0.1H246l-0.1-0.3c-0.3-0.1-0.7-0.2-1-0.1v-0.3l-0.3,0.1c-0.2,0,0,0.2-0.1,0.1l-0.4-0.6l-0.7,0.1v-0.1
					h-0.3v-0.1h-0.7l-0.1-0.3h-0.1v0.1l-1-0.3l0.1-0.9l-0.3-0.1l0.2-0.7h-0.2c0-0.1,0-0.3,0.2-0.3l-0.2-0.3l0.2-1.8h-0.3
					c0,0,0.4-0.4,0.3-0.6l-0.3-0.1c-0.1-0.3,0.1-0.3,0.1-0.3v-0.9h0.2v-0.3h0.1c-0.1-0.2-0.3-0.2-0.3-0.3l0.2-0.3h-0.2v-0.1h0.2
					c0-0.3,0.1-0.6,0.1-0.9l-0.3-0.1l-0.1,0.1l0.3-1.2h-0.3l0.1-0.6h0.2l-0.2-0.7c0-0.2,0.2,0.1,0.2-0.1h-0.2l-0.1-0.4h0.3l-0.2-0.3
					h0.2l-0.2-0.3l0.2-0.3h-0.2v-0.1h0.2v-0.1h-0.2l0.2-0.4l-0.3-0.1c-0.1-0.2,0.1-0.3,0.1-0.3c0-0.1,0-0.2-0.1-0.3
					c0-0.2,0.1,0.1,0.1-0.1v-0.9h0.2c0.1-0.4-0.3-0.4-0.3-0.4l0.3-1.5h-0.2l0.2-0.4h-0.2v-0.1c0-0.1,0.2,0,0.2-0.3h-0.2l-0.1-0.4
					h0.1c0.2-0.3,0.2-0.6,0.2-0.9l-0.3-0.1c0-0.2,0.4-0.3,0.3-0.9c-0.1-0.3-0.2-0.7-0.2-1c0,0,0.2,0,0.2-0.3c-0.1,0-0.2-0.2-0.2-0.3
					c0,0,0,0,0,0h0.2l0.1-0.6l0.4-0.1c0,0.1,0.2,0.2,0.3,0.1v-0.1h0.2v0.1h0.4v0.1l0.4-0.3l0.1,0.3h0.6v-0.3
					c0.9,0.3,1.9,0.4,2.8,0.1l0.1,0.3l-0.1,0.1c0.4-0.1,0.8-0.1,1.2,0l0.1,0.3h0.1v-0.1h0.3v0.1h0.7l0.1,0.3l0.6-0.1l-0.1,0.3h0.6
					l0.1,0.3l0.9,0.1c0.2,0.5,0.4,0,1,0.3c-0.5,0.4,0.6,0.4,0.9,0.6l0.1,0.3c0.2-0.1,0.5-0.1,0.7,0l-0.1,0.3l0.4-0.1v0.1l0.6,0.1
					c-0.1,0.3,0,0.1-0.2,0.3c0.4,0.4,0.7,0.1,1.2,0.3l-0.2,0.3l0.9,0.1v0.1l0.3,0.2v0.3h0.2c0.1-0.3,0.2-0.1,0.3,0
					c0.4,0.1,0.3,0,0.4,0.4c0.3,0.1,0.9,0.5,1.2,0.4l0.1-0.3h0.3l-0.1,0.6c0.4,0,0.7,0,0.9,0.1l0.2,0.4l0.9,0.1l0.3,0.4h0.4l0.2,0.3
					h0.6l0.1,0.3c0,0,0.3,0.3,0.3,0.3h0.3v0.1l0.3,0.1v0.3l0.4,0.1c0,0.3,0,0.4,0.2,0.6h0.2v0.3l0.3-0.1c-0.2,0.5-0.1,0.4,0,0.9h0.3
					c-0.1,0.4-0.1,0.9,0,1.3h0.1c0,0.2,0,0-0.1,0.1V41h0.1l-0.1,0.3h0.1L265,42c0,0.1,0.3-0.1,0.3,0.1h-0.1l-0.1,0.7h-0.1
					c0,0.1,0.3,0.4,0.1,0.7l-0.4,0.3v0.6l-0.3,0.1c0,0.3-0.1,0.7-0.1,1h-0.3c-0.3,0.5-0.6,1-0.7,1.5h-0.3v0.4l-0.4,0.1v0.4H262v0.3
					h-0.6v0.4h-0.5c-0.1,0.4-0.1,0.2-0.3,0.4l-0.1,0.3h-0.7c0.3,0.3-0.3,0.6-0.6,0.7v0.1l-0.4-0.1c-0.2,0.6,0,0.2-0.4,0.4v0.1h-0.3
					l-0.1,0.3h-0.3l-0.1,0.3l-0.4-0.1l-0.3,0.4l-0.7,0.1v-0.1h-0.2l-0.1,0.3h-0.3v0.1l-0.4,0.1C254.8,52.7,254.7,52.4,254.5,52.5z"
					/>
				<path id="パス_333" class="st1" d="M0.8,55.6h0.3v0.4h0.1v-0.3h0.3c-0.3,0.3,0.2,0.5,0.3,0.9l0.4-0.2c0.1,0,0,0.2,0.3,0.2
					v-0.2c0.2-0.1,0.5-0.2,0.7-0.1c0.1-0.2,0,0,0.1-0.1c0-0.1,0.1-0.6-0.1-0.4v0.1H3.2l0.1-0.4l-0.4-0.2L3.1,54h0.1l-0.1-0.4
					l0.3-0.1l-0.1-0.6h0.1l0.1-1.5c0.3-0.1,0.1,0,0.3-0.1H4V51H3.5v-0.3l0.3-0.1v-0.1H3.7l0.1-0.7l0.3-0.1C4,49.3,4,49,4,48.8
					c0.1-0.2,0.3-0.8,0.4-1H4.1c0.1-0.3,0.1-0.3,0.1-0.3v-0.7h0.1v-0.3h0.1c0.1-0.4-0.1-0.7-0.1-0.9c0.1-0.1,0.3-0.1,0.3-0.3H4.6V45
					h0.3c0.1-0.3,0-0.1,0.1-0.3v-0.1H4.6c0.1-0.2,0.2-0.4,0.1-0.6l-0.1-0.1l0.3-0.1l0.3-1.8c-0.3-0.1-0.1,0-0.3-0.1H4.7v-0.1
					c0.4,0.1,0.3,0,0.4,0.3h0.1c0.4-0.7-0.5-0.3,0.1-0.9c-0.1-0.1-0.3-0.2-0.4-0.3v-0.1l0.3,0.1v-0.3h0.3c0-0.3,0.2-0.5,0.1-0.6H5.6
					v-0.3H5.5c0-0.3,0.3-0.3,0.3-0.3V39H5.6c0.1-0.3,0.2-0.6,0.4-0.7c-0.2-0.2-0.3-0.2-0.4-0.4c0.2-0.1,0.4-0.1,0.6-0.1
					c-0.1-0.3-0.2-0.6-0.1-0.9c0.3-0.1,0.1,0,0.3-0.1H6.1v-0.3h0.3l-0.1-0.4h0.1v-0.1c-0.1-0.2-0.2,0.1-0.1-0.1h0.1l0.1-0.7h0.3
					l-0.1-1l0.4-0.3l0.1-1.3h0.1v-0.3h0.1L7.7,31h0.1v-0.9H7.7v-0.1L8,29.8v-0.3h0.1c0-0.2-0.3-0.4-0.1-0.7l0.3-0.1v-0.7h0.1v-0.3
					h0.1l-0.1-0.6h0.1v-0.4h0.1l0.1-0.9H8.8v-0.1h0.1c0.2-0.7,0.3-1,0.1-1.5h0.3L9.5,23H9.4v-0.1h0.1v-0.3h0.1l-0.1-1h0.3v-0.6H10
					v-0.1c-0.1-0.1-0.2,0-0.1-0.3l0.3-0.1c0-0.1-0.3-0.4-0.1-0.7c0,0,0.3-0.1,0.3-0.3h-0.1v-0.2h0.3c0.1-0.5,0.2-0.3,0-0.7h0.1v0.1
					h0.3L10.7,19h0.1v0.3H11l-0.1,0.3H11c0.2,0.5,0,0.6,0.4,0.9c-0.2,0.2,0,0.1-0.3,0.1l0.4,0.7h-0.1c0,0,0,0.6,0.1,0.3v-0.1h0.1
					l-0.1,0.1v0.1h0.1v0.4h0.1V23h0.3v0.9h0.3c-0.1,0.2-0.3,0.3-0.3,0.3l0.1,0.4h0.1v0.4h0.3V26h0.3v0.6h0.1v0.1
					c-0.1,0.1-0.2,0-0.1,0.3h0.1l0.1,0.7c0.3,0.1,0.1,0,0.3,0.2h-0.1l0.1,0.4H14v0.2c-0.2,0-0.2-0.1-0.1,0.1H14v0.1
					c0,0-0.3,0.1-0.1,0.4l0.4,0.3c0.1,0.2-0.1,0.6-0.1,0.6h0.4c-0.1,0.2-0.2,0.3-0.1,0.6h0.1V31h-0.1v0.4h0.3c0,0.5-0.2,0.3,0,0.7
					h0.1l-0.1,0.4h0.1v0.3H15l0.1,0.9h0.3l-0.1,0.7h0.1v0.1c-0.1,0.2-0.2-0.1-0.1,0.1l0.3,0.1l0.1,1.2h0.3l-0.1,0.3h0.3
					c-0.1,0.1-0.2,0.2-0.3,0.3c0.2,0.2,0,0.1,0.3,0.1l0.1,0.4h-0.1v0.1h0.3v0.1h-0.1c0,0.2,0.1-0.1,0.1,0.1v0.7l0.3,0.1
					c0.1,0.2-0.1,0-0.1,0.2l0.1,0.6c0,0,0.6,0,0.3,0.1H17c0,0.2,0.1-0.1,0.1,0.1L17,40.3l0.4,0.1c-0.3,0.4,0,0.4,0,0.6l-0.1,0.1h0.3
					c-0.1,0.3,0,0.1-0.1,0.3v0.1h0.4c0,0.2,0.1,0.4,0.1,0.6c0,0.1-0.3,0.1-0.1,0.4H18v0.4l0.3,0.1c0.2,0.4,0.1,0.8,0,1.2l0.4,0.2
					v0.3h-0.2c-0.2,0.4,0.4,0.3,0.3,0.7h-0.1v0.2l0.3,0.1l-0.1,0.4h0.1V47h0.1v0.1h-0.1v0.1h0.1v0.3h0.1l-0.1,0.6h0.1l0.1,0.6h0.1
					l-0.1,0.3c0.2,0.1,0.2,0.3,0.1,0.4h-0.1v0.1h0.1l0.1,0.4c0,0.1-0.3,0-0.1,0.1l0.6,0.3l-0.1,0.7h0.1v0.3h0.3v0.7h0.1
					c0,0.1-0.1,0.6,0.1,0.4v-0.1H21l-0.1,0.1V53H21v0.6h0.3c-0.1,0.1-0.2,0.2-0.3,0.3c0.2,0.2,0,0.1,0.3,0.1
					c0.1,0.5,0.4,0.5,0.6,0.9l0.4,0.1c0.3-0.4,0.6-0.3,0.9-0.6h0.3c-0.3-0.3,0.1-0.3,0.1-0.4v-0.3h0.1c0.1-0.2-0.1-0.3-0.1-0.3v-0.1
					h0.1c0.1-0.4-0.1-0.4-0.1-0.4c0.1-0.2,0.1-0.5,0.1-0.7c0.3-0.1,0.1,0,0.3-0.1h0.1c0.1-0.3-0.2-0.1-0.3-0.1l0.1-0.3L24,51.2
					l0.4-0.3c0.1-0.1-0.3-0.3-0.1-0.6h0.1v-0.4l0.3-0.1v-0.9h0.1v-0.3h0.1c0-0.2,0,0-0.1-0.1c0-0.6,0.5-0.8,0.3-1l0.1-0.9h-0.1v-0.1
					l0.3,0.1l0.1-0.6h0.1l-0.1-0.6h0.1v-0.4h0.1v-0.3h0.1l-0.1-0.3l0.3-0.1c0.1-0.5,0.1-1,0.1-1.5h0.3c-0.2-0.4,0-0.2-0.4-0.1
					l0.4-0.6h0.1c0-0.3-0.4,0-0.3-0.3l0.3-0.1l0.1-0.4h0.1L27,40.5h0.3l-0.1-0.4h0.1v-0.3l0.3-0.1c0.1-0.3,0.1-0.7,0-1l0.6-0.1
					c-0.2-0.2-0.1-0.6,0-0.9h0.1l-0.1-0.3h0.1c0.1-0.3,0.2-0.7,0.1-1h0.3l0.1-0.4h0.1l-0.1-0.1l0.1-0.7h0.1v-0.4h0.1l0.1-0.6h0.1
					l0.1-1H30v-0.3h0.1v-0.3l0.3-0.1l-0.1-0.6h0.1v-0.3h0.1v-0.4l0.3-0.1l-0.1-0.7H31l0.1-0.4c-0.1,0-0.2-0.2-0.2-0.3c0,0,0,0,0,0
					l0.3-0.1l-0.1-0.7c0.3-0.1,0.1,0,0.3-0.1h-0.3c0.1-0.4,0.3-0.4,0.4-0.7h0.1l-0.3-0.6l0.4-0.3l-0.1-0.6l0.4-0.3V25h0.1v-0.2
					c-0.1-0.1-0.3,0-0.1-0.3l0.3-0.1l-0.1-0.4l0.4-1.3h0.3v-0.3l-0.3-0.1l0.1-0.4h0.3v-0.1c-0.3-0.1-0.2,0.1-0.3-0.2h0.3v-0.6h0.4
					v-0.3h-0.3l0.1-0.4h0.1l-0.1-0.3l0.3-0.1v-0.3H34c0.1-0.2,0-0.4-0.1-0.4c0.1-0.2,0.2-0.2,0.3-0.3L34,18.3l0.3-0.1l0.1-0.6
					c-0.1,0-0.5,0.1-0.3-0.1h0.1c0.1-0.6,0.1-0.2,0.4-0.4c-0.1-0.3-0.1-0.7,0-1c0.3,0.3,0.4-0.1,0.4-0.4h-0.3v0.3h-0.1l0.1-0.4h0.1
					v-0.4h0.1l0.1-0.6h0.1v-0.7h0.1v-0.3L36,13c0.2-0.4-0.1-0.7-0.1-0.9H36l0.1-0.4H36v-0.1l0.3-0.1v-0.6l0.3-0.1
					c0.1-0.3-0.1-0.6-0.1-0.7h0.1c0.2-0.3,0.2-0.2,0.3-0.6l0.4,0.1c0,0.3,0,0.4,0.1,0.6h0.1v0.4h0.1v0.4h0.1l-0.1,0.3l0.3,0.1v0.3
					c0.1,0.2,0.4,0,0.3,0.6h-0.1c0.1,0.3,0.6,0.5,0.1,1v0.2h0.4l0.1,1.5l0.3,0.1c-0.1,0.4-0.2,0.3,0,0.7h0.1
					c0.1,0.3-0.1,0.4-0.1,0.4c0,0.2,0.1,0.3,0.1,0.6h0.3v1.2c0,0.2,0.2-0.1,0.1,0.1h-0.1v0.3H40c-0.1,0.3-0.3,0.6-0.1,1l0.3,0.1
					L40,20.5h0.3L40.1,21c0,0.2,0.2-0.1,0.1,0.1h-0.1v0.1h0.1l0.1,1.3h-0.1v0.3l0.3-0.1V23h0.1c-0.1,0.2-0.2,0.5-0.1,0.7h0.3
					l-0.1,0.9c0,0,0.2,0.1,0.1,0.4l-0.1,0.1l0.4,0.1c0.2,0.3-0.1,0.6-0.1,0.7h0.1v0.3h0.1v0.7h0.1v0.6h0.1v1.5h0.1l-0.1,0.3h0.1
					c0,0.6-0.1,1.3-0.1,1.9c0.3,0.1,0.1,0,0.3,0.1h-0.3c0,0.2,0.1,0.4,0.1,0.6h-0.1v0.3h0.3c-0.1,0.2-0.2,0.5-0.1,0.7h0.1
					c0,0.1,0,0.2-0.1,0.3v0.1h0.1l-0.1,0.7h0.3l-0.1,0.3h0.3c-0.2,0.4-0.3,0.8-0.1,1.2h0.1l-0.1,0.4c0,0,0.2,0.1,0.1,0.3L41.9,37
					v0.1h0.1v0.7h0.1c0,0.7-0.1,1.4-0.1,2.1h0.3l-0.1,0.4h0.1v0.1h-0.1V41h-0.3l0.1,1.3h0.3c-0.1,0.6-0.1,1.2,0,1.8h0.1L42.4,45h0.1
					v0.6h0.1l0.1,1c0,0-0.6,0-0.3,0.1h0.3l0.1,0.9c-0.1,0-0.2,0.2-0.2,0.3c0,0,0,0,0,0l0.3,0.1L43,48.8h0.1c0.1,0.4,0.1,0.9,0,1.3
					h0.3c0,0.2,0.1,0.4,0.1,0.6c0,0-0.2,0.1-0.1,0.3c0,0.1,0.4,0.1,0.3,0.3l-0.3,0.1c0,0,0,0.6,0.1,0.3c0.2,0-0.1-0.1,0.1-0.1
					l-0.1,0.4l0.3,0.1c0.2,0.4,0,0.6-0.1,1l0.4,0.1v0.3H44c-0.2,0.7,0.3,1,0,1.8c0.6,0.4,0.7,0.8,1.6,0.4c-0.2,0.3-0.1,0.2-0.4,0.3
					v0.1H46L45.8,56h0.4c0.1-0.6,0.8-2.7-0.1-3v-0.1h0.4v-0.1l-0.4-0.1L45.8,51c-0.5-0.2-0.1-0.5-0.3-1.2h-0.1c0-0.2,0.2-0.1,0-0.6
					h-0.1v-1.3h-0.1v-0.3h-0.1c0-0.1,0-0.3,0.1-0.3c0,0,0,0,0,0l-0.1-0.4l0.1-0.4c0,0-0.2-0.1-0.1-0.4c0-0.2,0.2,0.1,0.1-0.1h-0.1
					v-0.4h-0.1l0.1-0.4l-0.3-0.1v-0.6h-0.1l0.1-0.3c0-0.2-0.1,0.1-0.1-0.1c0-0.2,0-0.3,0.1-0.4l-0.1-0.4h-0.3
					c-0.2-0.1,0.1-0.1,0.1-0.1v-0.4c0,0,0.3-0.1,0.3-0.3h-0.1L44.3,41h0.1v-0.1c-0.1-0.2-0.2,0.1-0.1-0.1h0.1l-0.1-1.2h0.1l-0.1-0.7
					h0.1l-0.1-0.9h0.1l0.1-0.7h-0.3V37c0.1-0.1,0.2-0.3,0.1-0.4l-0.3-0.2c0-0.1,0-0.3,0.1-0.3l-0.1-0.4h0.3
					c-0.2-0.6-0.2-0.2-0.4-0.4c-0.1-0.1,0.3-0.2,0.3-0.3L44,34.7l0.1-1.3c-0.3-0.1-0.1,0-0.3-0.1h0.3v-0.3h-0.3L44,32h-0.1v-0.3
					h-0.1c0.1-0.2,0.2-0.5,0.1-0.7c0-0.2-0.2,0.1-0.1-0.1h0.1v-0.4H44v-0.1h-0.1l-0.1-0.6h0.1V29c0-0.2,0.1,0.1,0.1-0.1h-0.3
					c0.1-0.3,0.2-0.6,0.1-0.9h-0.1l0.1-0.7l-0.3-0.1c-0.1-0.3,0-0.6,0.1-0.9L43.3,26c0-0.3,0.1-0.5,0.1-0.7h-0.3
					c0.1-0.3,0-0.1,0.1-0.3c0-0.3,0-0.4-0.1-0.6h-0.3c0.2-0.2,0.3-0.4,0.3-0.6h-0.3c0-0.4-0.1-0.5-0.3-0.7v-0.1L43,23
					c-0.1-0.2-0.6-0.9-0.4-1.2h0.1v-0.1h-0.4v-0.4h0.1c0.1-0.2,0-0.4-0.1-0.4c0-0.2,0.1,0.1,0.1-0.1V20h-0.1l0.1-0.4h-0.3l0.1-0.4
					h-0.3c-0.1-0.2,0,0,0.1-0.1v-0.6h-0.3l0.1-0.7c0-0.2-0.2,0.1-0.1-0.1h0.1v-0.1h-0.1v-0.4l-0.3-0.1c0-0.2,0.3-0.7,0.1-1l-0.3-0.1
					V15h0.1l-0.1-0.4H41v-0.3h0.1L41,13.8h-0.1l0.1-0.3h-0.3l0.1-0.9h-0.4v-0.1h0.3V12h-0.1v-0.1L40.3,12l0.1-0.1
					c0.1-0.3-0.1-0.2-0.1-0.3c-0.1-0.3-0.1-0.6,0-0.9l-0.4-0.2V9.9h-0.3V9.7c0,0,0.2-0.1,0.1-0.3h-0.1V9.1c0-0.1-0.5-0.2-0.3-0.6
					h0.1V8.4h-0.4c-0.1-0.7-0.3-0.7-0.4-1.3h-0.3V6.4l-0.6-0.1V6.1c0.1-0.1,0.1-0.1,0-0.1V5.8L37.3,6V5.8H37V5.7h-0.1v0.1
					c-0.3,0-0.5,0-0.7-0.1l-0.6,0.7h-0.1l0.1,0.4L35,7.2l0.1,0.1C35,7.9,34.8,8.4,34.7,9h-0.3c-0.1,0.5-0.1,1-0.1,1.5L34,10.6
					l0.1,0.3h-0.4v1.3l-0.3,0.1V13h-0.1v0.3h-0.2L33,14.7h-0.3V15H33c0,0.1-0.1,0.5-0.1,0.6l-0.3-0.1v0.3h-0.1
					c-0.1,0.3,0.2,0.4,0.3,0.4c-0.1,0.2-0.3,0.3-0.4,0.4c-0.1,0.1,0.3,0.3,0.1,0.6l-0.3,0.1l-0.1,0.7l-0.3,0.1v1h-0.1v0.4h-0.1v0.4
					h-0.1l0.1,0.4h-0.1v0.3H31c-0.3,0.6,0.2,0.5-0.4,0.9c0.2,0.2,0,0.1,0.3,0.1v0.4h-0.3c-0.1,0.7-0.3,0.6-0.1,1.2h-0.3l0.1,0.9H30
					v0.3L29.7,25l0.1,0.6l-0.3,0.1v0.4h-0.1c0,0.2,0.3,0.3,0.1,0.6h-0.1v0.3h-0.1l-0.1,0.7h-0.1l0.1,0.6h-0.1v0.3h-0.1
					c-0.1,0.5-0.1,1.1-0.1,1.6h-0.1l-0.1,0.7H28l-0.3,1.9h-0.4v0.1h0.1l-0.1,0.1v0.7L27,34.3v0.3h-0.1L27,35l-0.3,0.1
					c-0.4,0.4-0.2,0.3-0.1,0.9h-0.3c0,0.3,0.2,0.5,0,0.9l-0.3,0.1c-0.1,0.3,0.3,0.3,0,0.7L25.6,38v0.1h-0.3c0.2,0.2,0,1.2-0.1,1.5
					H25v0.7l-0.3,0.1v0.6l-0.3,0.1c-0.1,0.3-0.1,0.6,0,0.9h-0.3v0.6H24v0.1h0.1v0.3c-0.3,0.1-0.1,0-0.3,0.1h-0.1v0.1H24l-0.3,0.9
					l-0.3,0.2l0.1,0.4l-0.1,0.3c0.1,0.1,0.3,0,0.1,0.3l-0.3,0.2v0.7h-0.1V47h-0.1v0.4l-0.4,0.3l0.1,1.2h-0.3v0.1h0.1v0.1
					c0,0.1-0.2,0-0.1,0.3h0.1v0.1h-0.1c-0.1,0.3,0,0.1-0.1,0.3l-0.3-0.9h-0.1c-0.1-0.5-0.1-1-0.1-1.5h-0.3v-0.1c0,0,0.2-0.1,0.1-0.3
					h-0.1l-0.1-0.4h0.1v-0.1h-0.1l0.1-0.3L21,46.1v-0.4h-0.1v-0.1h0.3c0-0.2-0.2-0.4-0.3-0.6h-0.1c-0.1-0.3,0.1-0.4,0.1-0.6
					l-0.3-0.1V44h0.1v-0.1h-0.1v-1l-0.4-0.3l0.1-0.4h-0.2L20,41.6c0.1-0.1,0.2,0,0.1-0.3H20c-0.2-0.4-0.3-0.8-0.3-1.2
					c-0.3-0.1-0.1,0-0.3-0.1h-0.2v-0.3h0.1l-0.1-0.4l0.1-0.1l-0.4-0.1l-0.1-1.3h-0.2v-0.4h-0.1v-0.6h-0.2v-0.3L18,36.1
					c-0.1-0.3,0.1-0.2,0.1-0.3c0-0.2-0.1,0.1-0.1-0.1c-0.2-0.6,0.2-0.4-0.3-0.7l0.1-0.7h-0.4l-0.1-1.3h0.1v-0.1L17,32.3
					c-0.1-0.3,0.2-0.4,0.1-0.6H17v-0.4h-0.1V31h-0.1v-0.7l-0.4-0.2c0.1-0.2,0-0.9,0.1-1.3h-0.3L15.9,28h-0.1l0.1-0.3h-0.3l0.1-0.1
					v-0.3h-0.3l0.1-0.3c-0.2-0.4-0.3-0.9-0.3-1.3h-0.4c0.2-0.5,0.1-0.6-0.1-1l0.1-0.3h-0.1c-0.2-0.3-0.1-0.2-0.4-0.3l0.1-0.9
					l-0.3-0.1c-0.1-0.3,0.2-0.4,0.1-0.6L14,22.2v-0.4h-0.1l0.1-0.3c0,0-0.2,0-0.1-0.3c0-0.2,0.2,0,0.1-0.1c0,0-0.2,0-0.3-0.4h-0.3
					l0.1-0.4l-0.3-0.1l-0.1-0.7c0.2-0.2,0.1,0,0.1-0.3c-0.3-0.1-0.1,0-0.3-0.1h-0.1l0.1-0.3h-0.1V18l-0.3-0.1v-0.4
					c-0.1-0.2-0.1,0.1-0.1-0.1h0.1v-0.1h-0.1c-0.1-0.2-0.2-0.5-0.1-0.7h-0.3c0-0.9-0.4-1-0.7-1.6h-0.6v0.1h-0.1v-0.3h-0.1v0.3
					c-0.3-0.1-0.7-0.1-1,0L9,15.3c0,0,0.2,0,0.1,0.3H9C8.9,16,8.9,16,9,16.3H8.7c-0.1,0.7-0.2,0.4-0.3,1h0.3
					c-0.1,0.3-0.2,0.2-0.3,0.6c-0.4,0.2-0.2,0-0.1,0.4H8c-0.2,0.1,0.1,0.1,0.1,0.1v0.6H7.8L8,19.6l-0.3,0.1v0.9H7.4V21
					c0.3,0.1,0.1,0,0.3,0.1H7.4c0.1,0.4,0.1,0.9,0,1.3l-0.4,0.3v0.7H6.8v0.1c0.1,0.1,0.4-0.1,0.3,0.1L6.8,24v0.1H7
					c-0.1,0.2-0.3,0.3-0.3,0.3c-0.1,0.3,0.1,0.2,0.1,0.3c0,0.2-0.1-0.1-0.1,0.1l0.1,0.7c-0.3,0.1-0.1,0-0.3,0.1H6.4
					c-0.2,0.3,0.2,0.6,0.1,0.7H6.4v0.4H6.2l-0.1,0.9L6.2,28c-0.2,0.5-0.5,0.4-0.3,1H5.6c-0.1,0.4-0.2,0.8-0.3,1.2h0.3
					c-0.1,0.2,0,0.5-0.1,0.7c-0.2,0.4-0.4,0.9-0.4,1.3c0,0-0.6,0.1-0.3,0.1h0.1L5,33.2l-0.4,0.3v0.7H4.4v0.4H4.3V35H4.1
					c0,0.2,0.3,0.3,0.1,0.6L4,35.8l0.1,0.1l-0.3,0.7L4,37.1H3.8v0.3H3.7l0.1,0.1L3.7,38c0.1,0.2,0.2-0.1,0.1,0.1H3.7v0.3H3.5
					l0.1,0.3H3.5l-0.1,0.6H3.2c0,0.3,0.3,0.2,0.3,0.3l-0.3,0.6h0.1v0.1H3.2c-0.1,0.3,0.1,0.2,0.1,0.3v0.1H3.2v0.4H3.1l0.1,0.1
					c-0.1,0.4-0.2,0.8-0.4,1.2c0,0,0,0.6,0.1,0.3v-0.1h0.1v0.6l-0.3,0.1l-0.3,1.3L2.9,45l-0.1,0.3l-0.3,0.1c0,0.2,0.1,0.2,0.1,0.6
					H2.3c-0.1,0.3,0,0.1-0.1,0.3c0.2,0.2,0,0.1,0.3,0.1l-0.1,0.6H2.2l0.1,0.4H2.2v0.3H2c0,0.2,0.3,0.2,0.3,0.3l-0.1,0.3
					c0.1,0.2,0.2-0.1,0.1,0.1H2.2L2,49.1H1.9c0,0.1,0,0.2,0.1,0.3c0,0,0,0,0,0v0.1H1.9v0.7H1.7l-0.1,1H1.4c0,0.2,0,0,0.1,0.1
					l-0.1,0.4h0.1v0.7l-0.3,0.1v0.3H1.1c-0.1,0.2,0,0,0.1,0.2v0.1H1.1c0,0.2,0.3,0.2,0.1,0.6H1.1v0.3H1v0.7H0.8
					c0.2,0.2,0,0.1,0.3,0.1v0.3C1.1,55.5,0.6,55.5,0.8,55.6z M34.2,11.3c-0.3-0.1-0.1,0-0.3-0.2C34.2,11.2,34,11.1,34.2,11.3
					L34.2,11.3z M18.2,36.8h0.1v0.3h-0.1V36.8z"/>
				<path id="パス_334" class="st1" d="M236.1,8.3c0.2,0.2,0,0.1,0.3,0.1C236.2,8.3,236.4,8.4,236.1,8.3z"/>
				<path id="パス_335" class="st1" d="M90.7,13.5v0.3h-0.4l-0.2,0.9h-0.1l0.1,0.3h-0.1v0.3h-0.1c0,0.1,0,0.3,0.1,0.3v0.3h-0.1
					l0.1,0.3h-0.1v0.1c0,0.1,0.4,0.1,0.3,0.3l-0.3,0.1v0.7c-0.2,0.5-0.3,0.5-0.2,1h-0.3v0.3h0.3v0.6h-0.3v0.1h0.1
					c-0.2,0.5,0,0.4,0,0.6h-0.1l-0.2,0.4h0.3c-0.1,0.2-0.1,0.3-0.1,0.6h-0.2l0.2,0.1c0,0.4-0.1,0.3-0.3,0.4c0.1,0.1,0.3,0.2,0.4,0.3
					c-0.1,0.2-0.2,0.2-0.3,0.3c0.1,0.4,0.1,0.9,0,1.3H89l0.3,0.6h-0.2V25c-0.2-0.2-0.1,0-0.1-0.3h-0.2l0.2,0.7h0.1v0.1H89v1h-0.2
					C88.8,27,89,27.1,89,27.3h-0.2v0.3h-0.1c0,0.2,0.1-0.1,0.1,0.1v0.4h-0.1l0.1,0.6l-0.1,0.4h0.1v0.1h-0.1v0.3h-0.1
					c0,0.2,0.3,0.3,0.1,0.6l-0.3,0.2c0,0.2,0.3,0.3,0.3,0.3l-0.1,0.7h0.1c0,0.2-0.1-0.1-0.1,0.1v0.9h-0.2l0.2,0.3h-0.2
					c-0.1,0.2-0.3,0.4-0.3,0.6h0.3c-0.2,0.2,0,0.1-0.3,0.1c0.2,0.2,0,0.1,0.3,0.1l-0.1,0.4h0.1v0.1l-0.3,0.1l0.2,0.9H88
					c0,0.7,0.2,0.7,0,1.3h-0.2c0,0.3,0.4,0,0.3,0.3H88v0.3h-0.2v0.9c0,0-0.1,0-0.1,0.3H88v0.3L87.7,39c-0.1,0.4-0.1,0.9-0.1,1.3h0.3
					c-0.2,0.4,0,0.8-0.1,1.2h-0.1l0.1,0.3h-0.1v0.6h-0.1c0,0.3,0.1,0.2,0.1,0.3c0.2,0.6,0.1,1.3-0.1,1.9v0.1h0.4
					c-0.1,0.1-0.2,0.2-0.3,0.3v0.1h0.1c0,0.3-0.1,0.3-0.1,0.3c0,0.1,0,0.3,0.1,0.3V46h-0.1c0,0.3,0.1,0.3,0.1,0.3
					c0.1,0.4-0.1,0.4-0.1,0.6h0.1V47h-0.1v0.6h-0.1l0.1,0.4h-0.1v0.1h0.1l0.1,0.4h0.1c-0.1,0.4-0.2,0.8-0.3,1.2h0.3v0.3l-0.3,0.1
					v0.1h0.1v0.7l0.3,0.1l-0.2,0.1v0.1H88c0,1.1,0.4,2,1.2,2.2v0.2l0.9-0.3v-0.3h-0.1c0-0.2,0.3-0.2,0.3-0.3c0-0.1,0-0.2-0.1-0.3
					c0,0,0,0,0,0c0-0.2,0.1,0.1,0.2-0.1c0-0.2,0-0.3-0.2-0.4c0.1-0.2,0.1-0.4,0.2-0.6h-0.3l0.1-0.9h-0.1c0-0.8-0.1-1.6-0.1-2.4
					c0.3-0.1,0.1,0,0.3-0.2h-0.3l0.1-0.6h-0.1v-0.7h0.1v-0.1h-0.3l0.3-0.6c0-0.2-0.1,0.1-0.1-0.2v-0.4h-0.2c0.1-0.2,0.1-0.4,0.2-0.6
					L89.6,44h0.2v-0.9h-0.2V43l0.3-0.1v-0.6h-0.1l0.1-0.3h-0.1l-0.2-0.6h0.2v-0.4h0.1c0.1-0.2-0.1-0.3-0.1-0.3v-0.1h0.1
					c0-0.2-0.3-0.2-0.1-0.6h0.1v-0.3h0.1l-0.1-0.7h0.1V38h0.2l0.1-0.7c0,0-0.5,0.1-0.3-0.1h0.2V37h-0.3c0.3-0.4,0.5-1,0.4-1.5h-0.3
					v-0.3h0.3l-0.1-0.7l0.3-0.1c0.1-0.3-0.2-0.6-0.2-0.7h0.2v-0.4h0.1v-0.3h0.1v-0.4h-0.1v-0.1h0.1c0-0.5,0-1-0.1-1.5h0.1v-0.6H91
					l-0.2-0.4H91v-0.3h0.1L91,28.5c0.2-0.8,0.3-0.2,0-1h0.3l-0.2-0.6h0.2v-0.1h-0.2v-0.1h0.2v-0.6c0-0.2-0.2,0.1-0.2-0.2
					c0-0.1,0.3-0.1,0.3-0.3c-0.1-0.1-0.4,0.2-0.3-0.1h0.2V25h0.1v-0.3h0.2c0-0.1-0.2-0.4-0.2-0.7h0.2v-0.1h-0.2v-0.3h-0.1l0.1-0.9
					h0.2c0.1-0.3-0.2-0.5-0.2-0.6c0,0,0.3-0.3,0.3-0.3h-0.3c0-0.8,0.3-0.9,0.4-1.5h-0.4c0.1-0.2,0.1-0.5,0.2-0.7h0.1v-0.3h0.1
					c0.1-0.4-0.2-0.6-0.1-0.7v-0.1h0.1v-1h0.3l0.3,0.9h0.1v0.1h0.4v0.3c0,0.1,0.3,0,0.3,0.3h-0.1V19h0.6v0.7h0.4v0.3
					c0.3,0.1,0.5,0.2,0.7,0.3V21h0.4v0.1c0.3,0.3,0.1,0.3,0.6,0.4V22l0.4,0.1c0,0.4,0.1,0.5,0.3,0.7v0.2h0.1v-0.2h0.1l-0.1,0.4
					l0.4,0.1l0.2,0.7h0.3L98,25l0.4,0.1v0.3h0.3v0.6c0.2,0.2,0.3,0.5,0.4,0.6l0.4,0.1v0.4l0.3,0.1v0.3l0.3,0.1l-0.2,0.3h0.3v0.1
					l0.4,0.1l-0.1,0.7l0.6,0.1c0.2,0.6,0.2,0.2,0.4,0.4l-0.1,0.4l0.4,0.3c0.3,0.4,0.1,0.6,0.6,0.9c-0.1,0.1-0.2,0.2-0.3,0.3
					c0.2,0.2,0,0.1,0.3,0.1l0.1,0.4h0.1c0.3,0.4-0.2,0.3,0.4,0.4l0.1,0.4c0,0.1-0.3,0-0.1,0.3l0.4,0.3v0.4h0.1v0.1h0.4l0.2,0.4h-0.2
					V35l0.3,0.1c0.3,0.3,0.3,0.5,0.3,1c0.4,0.1,0.3,0.2,0.6,0.3V37h0.4l-0.1,0.4l0.4,0.1c0,0.4,0.1,0.7,0.2,1c0.3,0.1,0.1,0,0.3,0.1
					h0.2v0.7h0.1l0.3,0.9l0.3,0.1V41h0.1c0.2,0.2,0,0.1,0.3,0.1v0.6h0.1c0.1,0.4,0,0.3,0.4,0.4v0.6l0.6,0.4v0.3l0.3,0.3h0.3
					c-0.2,0.3,0,0.3,0.3,0.4v0.4c0,0,0.5,0,0.3,0.2h-0.2c0.2,0.3,0.1,0.2,0.4,0.3l0.2,0.4h-0.2V46h0.4l-0.2,0.3h0.3v0.1h0.2
					l-0.2,0.3l0.3,0.1v0.9c0.3,0.1,0.1,0,0.3,0.1h0.1c-0.2,0.3,0,0.4,0,0.9h0.3l0.1,0.9h-0.1v0.1h0.1c0.1,0.2,0.2,0.4,0.2,0.6
					l0.6,0.2c-0.2,0.3-0.1,0-0.3,0.1c0.2,0.2,0.3,0.4,0.3,0.6h0.3v0.4h0.4c0.1,0.1,0.1,0.5,0.6,0.3l0.1-0.3l0.3,0.1
					c0.1,0,0.1-0.4,0.3-0.3v0.1h0.1v-0.4l0.3-0.1c-0.1-0.3-0.2-0.6-0.1-0.9h0.1v-0.7c0.3-0.1,0.1,0,0.3-0.1H116c0-0.2,0-0.4,0.1-0.6
					h0.2v-0.1H116l0.1-0.4H116v-0.1h0.1v-0.4h0.3c-0.2-1,0-1.8-0.1-2.5h0.4v-0.4l-0.4,0.1v-0.1h0.3l-0.2-0.4h0.2l0.1-0.4h-0.3
					c0.1-0.2,0.1-0.5,0.2-0.7h0.1v-0.3h0.1c-0.1-0.3-0.2-0.7-0.1-1h0.1v-0.3h0.2c0-0.1-0.2-0.4-0.2-0.7h0.2l-0.2-0.3h0.2l0.1-0.4
					h-0.3c0-0.2,0.1-0.4,0.2-0.6c0-0.1-0.3-0.1-0.3-0.3h0.1L117,38h-0.3l0.3-1.5h-0.2l-0.1-0.4h0.1v-0.4h0.2v-0.2h-0.3l0.1-0.4
					c0-0.2-0.2,0.1-0.1-0.1h0.1v-0.6h-0.1l0.1-0.9h-0.1l0.1-0.4h-0.1c-0.1-0.3,0.2-0.4,0.1-0.6h-0.1c-0.1-0.3,0.2-0.7,0.1-0.7h-0.1
					v-0.1h0.1c0-0.2-0.3-0.3-0.3-0.3c-0.1-0.3,0.2-0.6,0.1-0.7l-0.3-0.2c0-0.2,0.3-0.4,0.2-0.7c0,0-0.2-0.1-0.2-0.4h0.2v-0.1h-0.2
					v-0.4h-0.1c-0.1-0.3,0.4-0.7,0.1-1.2l-0.3-0.1v-0.3H116l0.3-0.9l-0.3-0.2c0-0.4-0.1-0.9-0.1-1.3c-0.3-0.1-0.1,0-0.3-0.1h0.3
					v-0.4h-0.3l0.1-0.4c-0.1-0.1-0.2,0-0.1-0.4c0-0.2,0.2,0.1,0.1-0.1h-0.1c0-0.4-0.1-0.8-0.2-1.2h-0.1V21h-0.2l0.2-0.7h-0.2v-0.4
					h-0.1v-0.6h-0.1l0.1-0.4h-0.1v-0.3h-0.1v-0.1h0.1c0-0.1-0.1-0.2-0.1-0.3v-0.1h0.1l-0.1-0.6h-0.3v-0.1l0.3-0.1l-0.2-0.1l0.2-0.6
					h-0.3l0.1-0.4c-0.1-0.1-0.2-0.3-0.1-0.4c0,0,0.2,0,0.1-0.3c0-0.1-0.4-0.1-0.3-0.3h0.3l-0.1-0.3c0-0.2,0.2,0.1,0.1-0.2h-0.1v-0.1
					h0.1l-0.4-1.2h0.3c-0.1-0.2-0.3-0.3-0.3-0.3c-0.1-0.3,0.2-0.6,0.1-0.7l-0.3-0.1c0-0.4,0.1-0.8,0.3-1.2h-0.3c0-0.7-0.2-0.9,0-1.3
					h-0.3l0.1-0.4h-0.1l-0.2-0.4H113V7.8c-0.8,0.1-0.4,0.3-1,0.2l-0.1,0.6h-0.4c0.3,0.5,0.4,1.1,0.1,1.6h0.3c-0.1,0.6-0.1,1.2,0,1.8
					h0.1l-0.1,0.1l0.1,0.3h-0.1v0.2l0.3,0.1l-0.2,0.1l0.2,0.4c-0.1,0-0.2,0.2-0.2,0.3h0.2v0.4h0.1l-0.1,0.7h0.1v0.7
					c-0.1,0.2-0.2-0.1-0.1,0.1h0.1V16h0.2l-0.2,0.1c0,0.4,0.1,0.4,0.2,0.4l-0.2,0.1c0,0.3,0.2,0.3,0.2,0.3c0,0.4,0,0.7-0.2,1h0.3
					c0,0.5,0.1,1,0.1,1.5h0.2l-0.2,0.4c0.5,0.2,0.1,0.5,0.3,1.2h0.1l-0.1,0.3h0.1v0.6h0.2v0.9h0.1v0.1c-0.1,0.1-0.2,0.1-0.1,0.4h0.1
					v0.6c0.1,0.2,0.1-0.1,0.2,0.1h-0.2v0.1h0.3v0.6h-0.1c0.2,0.2,0,0.1,0.3,0.2c0,0.2-0.1,0.3-0.1,0.3c0,0.2,0.3,0.3,0.1,0.6h-0.1
					c0.2,0.2,0,0.1,0.3,0.1v0.9h-0.2c0.2,0.2,0,0.1,0.3,0.1l-0.1,0.9h0.3v0.7H114c0.1,0.2,0.3,0.3,0.4,0.4l-0.3,0.7l0.3,0.2v0.9h0.2
					v0.1h-0.2v0.3h-0.1c-0.1,0.2,0.4,0.3,0.3,0.7h-0.2l-0.1,0.4h0.3v0.1h-0.3c0.1,0.2,0.3,0.4,0.4,0.4c-0.1,0.2-0.2,0.2-0.3,0.3V34
					h0.3c-0.1,0.2-0.1,0.2-0.3,0.3v0.6l0.3-0.1c-0.1,0.6-0.1,0.4,0,0.9h-0.3V36h0.3c-0.3,0.2,0.1,0.4,0,0.9h-0.1V37h0.1
					c0.1,0.4,0,0.7-0.1,1v0.1l0.3,0.1c-0.1,0.2-0.1,0-0.1,0.1v0.6l-0.3-0.2v0.3h0.3c0,0.3-0.2,1-0.1,1l0.3,0.1l-0.1,0.4h-0.1
					l0.1,0.6h-0.1v0.6h-0.2c-0.1,0.3,0.2,0.4,0.2,0.6h-0.2V43h-0.1c-0.1,0.5,0.2,0.8,0.1,1l-0.3,0.1l0.2,0.3h-0.2v0.1h0.3
					c0,0.2-0.3,0.3-0.3,0.3l0.2,0.4l-0.3,0.2c0,0.1,0,0.3,0.1,0.3c0,0.3-0.1,0.3-0.1,0.3c-0.1,0.3,0.2,0.5,0.1,0.6H114v0.1h-0.2
					v-0.6h-0.1v-0.1h0.1V46l-0.4-0.1l0.2-0.4h-0.2c-0.3-0.5-0.4-0.2-0.3-0.9h-0.3v-0.1l-0.3-0.1c-0.3-0.5,0.2-0.7-0.6-0.9
					c-0.1-0.7-0.3-0.5-0.7-0.9l0.2-0.3l-0.4-0.1c-0.2-0.4,0.2-0.6-0.3-0.7c-0.1,0.2,0.1,0.1-0.2,0.1v-0.4c0,0-0.6,0-0.3-0.1h0.1
					v-0.4h-0.5l0.2-0.4h-0.2c-0.2-0.4-0.3-0.3-0.3-0.9h-0.3v-0.3h-0.3c0-0.2,0.1-0.4,0.1-0.6h-0.3v-0.3h-0.3v-0.1
					c0.3-0.1,0.2,0.1,0.3-0.1l-0.4-0.1v-0.7h-0.4c0.2-0.1-0.1-0.9-0.3-1h-0.3c-0.2-0.8-0.7-1-0.7-1.9h-0.3v-0.1
					c-0.2-0.2-0.4-0.5-0.6-0.7l-0.3-0.1v-0.3h-0.2l0.2-0.3l-0.4-0.3v-0.3h-0.2l0.2-0.3l-0.6-0.3l0.1-0.1c-0.1-0.5-0.4-0.5-0.4-1.2
					h-0.3l-0.2-0.4l-0.4-0.3c-0.3-0.5,0.2-0.6-0.6-0.9v-0.4h0.1c-0.1-0.2-0.3-0.2-0.4-0.3v-0.3l-0.4-0.1c-0.1-0.6-0.2-0.8-0.7-0.9
					l0.2-0.6h-0.3v-0.3c-0.3-0.1-0.1,0-0.3-0.2h-0.1v-0.4l-0.3-0.2l0.2-0.4l-0.9-0.4c-0.1-0.3-0.1-0.7-0.1-1
					c-1.1-0.3-0.4-0.2-0.7-0.9L98.1,21v-0.3l-0.4-0.1l-0.3-0.4h-0.1v-0.4h-0.2c-0.1-0.2-0.1-0.3-0.3-0.4V19h-0.4v-0.3h-0.4
					c-0.1-0.6-0.2-0.4-0.3-0.9h-0.3c-0.1-0.5-0.4-0.8-0.9-0.9v-0.4h-0.2c0,0,0-0.6-0.1-0.3c-0.2,0,0.1,0.1-0.1,0.1l-0.2-0.4
					c-0.4-0.1-0.3,0-0.4-0.4H93v-0.6h-0.4c0.4-0.4-0.2-0.4-0.3-0.6l0.2-0.3h-0.3v-0.4C91.5,13.6,91.3,13.7,90.7,13.5z"/>
				<path id="パス_336" class="st1" d="M131.8,19.3h0.1l-0.1,0.3h0.4c0,0.4-0.2,0.4,0,0.9h0.2c0.1,0.3-0.2,0.4-0.2,0.6h0.2v0.1
					h-0.2v0.1h0.2c0.1,0.3-0.2,0.5-0.2,0.6l0.3,0.1v0.7h-0.2c0,0.3,0.2,0.3,0.2,0.3v1h-0.2v1.2h0.2v0.1h-0.2c-0.1,0.6,0,1.2,0.2,1.8
					l-0.3-0.1v0.3l0.3,0.1c0.2,0.5-0.2,1.3-0.2,1.5h0.2c0,0.4-0.2,0.4-0.2,0.4c-0.1,0.4,0.2,0.4,0.2,0.6v0.1h-0.2V31h0.2
					c0,0.3-0.2,0.3-0.2,0.3c0,0.4,0,0.7,0.2,1h-0.3l0.2,0.4h0.2v0.1h-0.2l0.2,0.3h-0.2v0.6h0.2V34h-0.2v0.4h-0.2v0.1l0.4,1.2h-0.1
					v0.3h-0.2c0,0.2,0.2,0.4,0.2,0.7c-0.2,0.1-0.2,0.3-0.2,0.4h0.2l0.1,0.4h-0.1v0.6h-0.2l0.2,0.4l-0.3,0.1v0.1h0.3
					c-0.1,0.2-0.2,0.4-0.2,0.7c0.1,0.1,0.2,0.3,0.2,0.4c0,0.2-0.2-0.1-0.2,0.2s0.2-0.1,0.2,0.1h-0.2v0.1h0.2c0,0.2-0.1-0.1-0.2,0.1
					l0.2,0.4c-0.1,0.1-0.2,0.3-0.2,0.4h0.2c0.1,0.3,0,0.5-0.2,0.7h-0.2c0,0.2,0.2,0.3,0.2,0.6h-0.2v0.7h0.2l-0.2,0.4l0.3,0.1
					c-0.1,0.3-0.4,0.3-0.4,0.4c0,0.2,0.4,0.4,0.3,0.7c0,0.1-0.3,0.1-0.3,0.3h0.1c0.1,0.8,0.3,0.6,0.4,1.2l0.9,0.1l0.2-0.3l0.7-0.1
					l0.2-0.6c-0.1-0.1-0.2-0.3-0.2-0.4h0.2v-0.1c-0.1-0.1-0.2-0.2-0.2-0.3c0-0.2,0.2,0.1,0.2-0.1c-0.1-0.1-0.2-0.3-0.2-0.4h0.2
					c0-0.2-0.2-0.4-0.2-0.7h0.2v-0.4h-0.2l0.2-0.4h-0.2V43c0-0.1,0.1,0.1,0.3-0.1l-0.4-0.1l0.1-0.4l0.3-0.1c0.1-0.3-0.4-0.2-0.3-0.6
					h0.2v-0.3h0.1l-0.1-0.7h-0.2c-0.1-0.2,0.3-0.2,0.3-0.3v-0.3h-0.3v-0.2l0.3-0.1v-0.7c-0.1-0.4-0.1-0.9-0.1-1.3h0.1l0.2-0.9h-0.3
					l0.1-0.9c-0.1,0-0.2-0.2-0.1-0.3h0.1v-0.2c0,0-0.2-0.1-0.1-0.3l0.3-0.1c0-0.3-0.3-0.2-0.3-0.3v-1.3c0,0-0.2,0-0.2-0.3h0.2
					l0.1-0.4h-0.1V32h-0.2l0.3-0.4h-0.3l0.2-0.4h0.1l-0.3-0.6h0.2c0-0.5-0.1-0.9-0.2-1.3l0.3-0.1l-0.1-0.1V28h0.1v-0.1
					c-0.1,0-0.2-0.2-0.1-0.3c0-0.2,0.2,0.1,0.1-0.1h-0.1c0-0.6,0-1.1,0.1-1.6l-0.3-0.1c-0.1-0.3,0.1-0.4,0.2-0.6l-0.2-0.3l0.3-0.1
					v-0.4c-0.3-0.1-0.1,0.1-0.3-0.1h0.2v-0.1h-0.2l0.2-0.4h-0.3c0.1-0.6,0.1-1.2,0-1.8h-0.4v-0.1h0.3c0.1-0.2-0.1-0.1-0.1-0.1
					c0-0.2,0.3-0.3,0.1-0.6l-0.3-0.1v-0.3h-0.3l-0.1-0.9h-0.2V19c-0.1,0.1-0.2,0.2-0.3,0.3h-0.1l0.4-0.6H133V18h-0.1l0.1-0.2
					c0-0.2-0.2-0.3-0.3-0.4c-0.1-0.5-0.4-0.5-0.9-0.6c-0.1,0.4-0.3,0.4-0.3,0.4c-0.1,0.2,0.1,0,0.1,0.1c-0.1,0.2-0.1,0.2-0.3,0.3
					c0.2,0.2,0,0.1,0.3,0.1c-0.2,0.7-0.3,0.2-0.1,0.9c-0.1,0-0.3,0-0.1,0.1h0.4C131.6,19.1,131.6,19.1,131.8,19.3z M131.6,18.4
					c0.3,0.1,0.1,0,0.3,0.2C131.6,18.5,131.8,18.6,131.6,18.4L131.6,18.4z"/>
				<ellipse id="楕円形_48" class="st1" cx="239.2" cy="18.6" rx="0.1" ry="0.2"/>
				<path id="パス_337" class="st1" d="M131.6,18.4c0.2,0.2,0,0.1,0.3,0.2C131.7,18.4,131.9,18.5,131.6,18.4z"/>
				<path id="パス_338" class="st1" d="M67,54.8c0.1-0.4-0.2-0.3-0.3-0.4V54h-0.1v-0.1h0.1l-0.1-1h0.3v-0.4h-0.4l0.3-0.6
					c-0.1-0.1-0.4,0.1-0.3-0.2c0-0.1,0.4-0.1,0.3-0.3l-0.3-0.1l0.1-0.3c-0.1-0.1-0.2-0.3-0.1-0.4h0.1v-0.3h0.1
					c0-0.2-0.2-0.2-0.3-0.3l0.1-0.3h-0.1v-0.2c0.1,0,0.2-0.2,0.1-0.3h-0.1v-0.1c0.1-0.1,0.2-0.3,0.1-0.4h-0.1v-1h-0.2l0.3-0.4
					l-0.3-0.1L66.1,45l0.3-0.1v-0.1h-0.3l0.1-0.1L66,44.1l0.3-0.1c0-0.3-0.2-0.4-0.3-0.7h0.3c-0.2-0.1,0-0.3,0-0.4h-0.1
					c-0.1-0.1-0.3-0.5-0.1-0.7h0.1c0,0,0-0.6-0.1-0.3c-0.2,0,0.1,0.1-0.1,0.1l0.1-0.4c-0.1-0.1-0.2-0.3-0.1-0.4c0,0,0.2-0.1,0.1-0.4
					h-0.1c0-0.3,0.4,0,0.3-0.3l-0.3-0.1v-0.4H66l-0.1-0.3H66v-0.1h-0.1v-0.4h-0.2c0-0.3,0.3-0.3,0.3-0.3c0.1-0.5-0.5-0.3,0.1-0.9
					v-0.3l-0.4,0.1l0.3-0.9h-0.3l0.2-0.9c0,0-0.2-0.1-0.2-0.4c0-0.2,0.2,0.1,0.2-0.1l-0.3-0.1v-1.8h-0.1v-0.1c0-0.1,0.2,0,0.1-0.3
					h-0.1v-0.3h0.1l-0.1-0.9h-0.1c0-0.2,0.4-0.4,0.3-0.7c0,0-0.3-0.1-0.3-0.3h0.3c0.1-0.2-0.3-0.2-0.3-0.3c-0.1-0.2,0.1-0.3,0.1-0.3
					L65.2,29h0.1v-0.6h-0.1l0.1-0.4h-0.1v-1.2c0-0.1-0.4,0-0.3-0.4l0.3-0.1V26h-0.1l0.1-0.7l-0.3-0.1l-0.1-0.7
					c0.1,0,0.2-0.2,0.2-0.3c0,0,0,0,0,0l-0.3-0.2v-0.7h-0.1V23h0.1v-0.1l-0.3-0.1v-0.4L64,22.1c-0.2-0.5,0-0.7,0-1.2h-0.3v-0.4
					l-0.3,0.2l0.1-0.4h-0.1c-0.1-0.5,0-0.3,0-0.7c-0.3-0.3-0.8-0.3-1.2-0.1c0.1,0.5,0.1,0.4,0.3,0.7l-0.3-0.1c-0.1,0.2,0,0-0.2,0.1
					c0,0.5,0.1,1,0.2,1.5h0.1l-0.1,0.3l0.3,0.1c0.1,0.3-0.2,0.6-0.1,0.7h0.1c0.1,0.4,0.1,0.8,0,1.2h0.3c-0.2,0.2,0,0.1-0.3,0.2
					c0.2,0.2,0,0.1,0.3,0.1v0.6H63V25h-0.3c0.2,0.2,0,0.1,0.3,0.1l0.2,0.9H63v0.1h0.2v0.5h0.1l-0.1,0.4h0.1v0.6h-0.1
					c0,0.2,0.2,0.2,0.1,0.6h-0.1v0.1c0,0.3,0,0.6,0.1,0.9h-0.1v0.7c0,0.2-0.1-0.1-0.2,0.1h0.3v0.1c-0.1,0.1-0.3,0.1-0.3,0.3l0.3,0.1
					c0,0.2-0.4,0.4-0.3,0.7l0.3,0.1v0.1h-0.1V32h0.1l-0.1,0.7h0.1v0.3h0.1c0.1,0.2-0.1,0.3-0.1,0.3l0.1,0.3c0,0-0.3,0-0.3,0.3h0.3
					l-0.1,0.4c0,0.2,0.1,0.4,0.3,0.4c0.1,0.2-0.3,0.2-0.3,0.3l0.1,0.4h0.3l-0.1,1.2h0.1V37h-0.1v0.1h0.1v0.1c-0.1,0-0.2,0.2-0.1,0.3
					h0.1v0.1h-0.1c0,0.2,0.3,0.3,0.1,0.6h-0.1v0.1h0.1c0,0.3-0.1,0.1-0.3,0.2c0.2,0.2,0,0.1,0.3,0.1c-0.1,0.3-0.1,0.4-0.3,0.6
					c0.2,0.2,0,0.1,0.3,0.1l-0.1,1.3h0.1v0.4h0.1l-0.3,0.6l0.3,0.1l-0.1,0.7h0.4V43h-0.3l0.1,0.9c0,0.2-0.2-0.1-0.1,0.1H64v0.1
					c-0.1,0.1-0.2,0.3-0.1,0.4H64l-0.1,0.4l0.3,0.1L64,45.7c0,0,0.2,0,0.2,0.3c0,0.1-0.4,0.1-0.3,0.3l0.3,0.1L64,46.7h0.2
					c0.2,0.7-0.3,1.4,0,2.4h0.1l-0.1,0.6l0.3,0.1c0,0.2-0.3,0.3-0.3,0.3c0,0.1,0,0.3,0.1,0.3v0.4h-0.1l0.1,0.4h-0.1
					c0,0.5,0.2,0.3,0.3,0.4c0,0.4-0.1,0.9-0.1,1.3h0.1v1.3h0.1c0,0.2-0.2,0.2-0.1,0.6h0.1l-0.1,0.3h0.1l0.1,0.9c0.5,0,1,0.1,1.5,0.3
					c0.2-0.3,0.3-0.3,0.4-0.7H67v-0.6l-0.3,0.1v-0.4L67,54.8z"/>
				<path id="パス_339" class="st1" d="M247.6,27v0.1l0.9,0.1v-0.1c-0.2-0.1,0,0-0.1-0.1H247.6z"/>
				<path id="パス_340" class="st1" d="M328.5,27.3h-0.3c0.2,0.2,0,0.1,0.3,0.1V27.3z"/>
			</g>
			<g id="グループ_279" transform="translate(157.838 6.267)">
				<path id="パス_341" class="st0" d="M48,19.9c-1.3-5.4-6-13.4-11.4-15.5c-10.2-4-14.2-4-21.8-0.4C2.9,9.8-0.1,23,1,29.2
					S5.4,41,12.5,45.3c9.5,5.7,16.8,2.8,23.5-1C43.1,40.4,49.7,27.3,48,19.9z M30,33.8c-3.6,1.8-6.7,2-12.1-4.2
					c-4-4.6-1.7-7.6,0.3-10.5c2.7-3.9,5.8-4.2,9.9-3.4c3.3,0.6,5.8,2.6,7.1,6.6C37,28.4,33.2,32.2,30,33.8z"/>
			</g>
		</g>
	</g>
</g>
</svg>
