<?xml version="1.0" encoding="utf-8"?>
<!-- Generator: Adobe Illustrator 24.2.0, SVG Export Plug-In . SVG Version: 6.00 Build 0)  -->
<svg version="1.1" id="レイヤー_1" xmlns="http://www.w3.org/2000/svg" xmlns:xlink="http://www.w3.org/1999/xlink" x="0px"
	 y="0px" viewBox="0 0 105 57" style="enable-background:new 0 0 105 57;" xml:space="preserve">
<style type="text/css">
	.st0{fill:#FFFFFF;stroke:#FFFFFF;stroke-width:2;stroke-linejoin:round;}
	.st1{fill:#FFFFFF;}
</style>
<g id="グループ_528" transform="translate(1 1)">
	<g id="グループ_532" transform="translate(0 0)">
		<path id="パス_342" class="st0" d="M39.9,15l-0.7-0.1v-0.1c-0.1,0-0.2,0.2-0.5,0.1v-0.1h-0.2v-0.1l-1.1-0.1v-0.1h-0.2v-0.1
			l-0.5,0.1v-0.1h-0.5l-0.1-0.2c-0.3-0.1-0.4,0.1-0.6,0.1v-0.1L34.4,14v-0.2c-0.5,0.1-0.4-0.1-0.6,0.3h-0.1l0.1-0.3l-0.3-0.1v0.2
			c-0.4-0.1-0.7-0.2-1.1-0.1v-0.2c-0.3,0.1-0.2,0-0.3,0.2c-0.1,0-0.3,0.1-0.2-0.1h0.1v-0.1h-0.7v0.1l-0.3-0.1v0.2h-0.1v-0.2
			l-0.6,0.1c0-0.1-0.1-0.1-0.2-0.1c0,0,0,0,0,0c-0.1,0-0.1,0.4-0.5,0.2l-0.1-0.3c-0.1,0.1-0.2,0.1-0.5,0.1v0.1h-0.1v-0.1l-1.4,0.1
			v-0.1h-0.2v-0.1c-0.3-0.1-0.2,0.2-0.3,0.2h-0.7l-0.1-0.2c-0.2,0-0.2,0.3-0.5,0.2v-0.1l-0.5-0.1v-0.1c-0.4-0.1-0.3,0.3-0.7,0.2
			v-0.1l-0.8,0.1v-0.1h-0.2v-0.1l-0.5,0.1v-0.1H22v-0.1h-0.3v-0.1L20.8,13v-0.1c-0.3-0.1-0.4,0.1-0.6,0.1v-0.1h-0.1V13
			c-0.3,0-0.3-0.1-0.5-0.1L19.3,13l-0.1-0.2c-0.3-0.1-0.4,0.1-0.5,0.2h-0.1l0.1-0.2c-0.7,0-0.7-0.2-1.4-0.2c0.1,0.1,0.1,0.1,0.2,0.2
			l-0.5-0.1v-0.1L16,12.8c0,0,0-0.4-0.1-0.2v0.1h-0.3c-0.1,0.2,0,0.1-0.1,0.2v0.6c0.1,0,0.2-0.1,0.2-0.2h0.1l-0.1,0.2h0.1v0.1
			l0.7,0.1V14h0.7c0,0,0,0.1,0.2,0.1c0.2,0,0-0.2,0.1-0.1v0.1h0.2v0.1h0.3v0.1h0.1v-0.1h0.6v0.1l0.1-0.1H19v0.1
			c0.4,0.1,0.8,0.1,1.1,0L20,14.7h0.1v0.1c0.2,0,0.3,0,0.5-0.1v-0.1l0.1,0.1H21v0.1c0.5,0.2,0.9-0.1,1.1,0.1c0.1,0,0.5-0.1,0.3,0.1
			c-0.1,0.1-0.1,0-0.1,0.1L23,15v-0.1c0,0,0.4,0,0.2,0.1h-0.1v0.1H24V15h0.1v0.1c0.1,0,0.2,0,0.2-0.1c0.2,0,0,0.1,0.1,0.1
			c0.1,0,0.2,0,0.2-0.1c0.1,0,0.3,0.1,0.5,0.1v0.2l0.7-0.2v0.1l0.2-0.1v0.1l1-0.1v0.2h0.1v-0.1c0.2,0,0.3,0.1,0.5,0.1l0.1-0.2h0.8
			v0.1l0.5-0.1l0.1,0.2l0.5-0.1l-0.1,0.3c0.1,0.1,0.1-0.1,0.2,0.1h-0.1v0.1l0.2,0.1l-0.1,0.3h-0.1c0,0.1,0.2,0.4,0.1,0.7l-0.2,0.1
			v0.2h0.2l-0.1,0.5h-0.1l0.1,0.2h-0.1v0.2h-0.1v0.6c0,0-0.2,0.1-0.2,0.2c0.1,0.1,0.1-0.1,0.2,0.1L29,19.3v0.3h-0.1v0.1
			c0,0.1,0.2,0,0.1,0.2l-0.2,0.1l0.1,0.3c0,0.1-0.2,0-0.2,0.3h0.1v0.1l-0.5,0.2l0.1,0.2h-0.1v0.3h-0.1l-0.1,0.5H28l0.1,0.2l-0.3,0.1
			c0.1,0.1,0.1,0.1,0.2,0.2h-0.2c-0.1,0.4-0.3,0.4-0.3,0.9h-0.2v0.3H27c0,0.3-0.1,0.7-0.3,0.9h-0.2l0.1,0.2L26,25.5l0.1,0.2h-0.2
			l-0.6,0.7l0.1,0.2h-0.1L25,27h-0.2v0.2h-0.3v0.3c-0.2,0.1-0.4,0.2-0.6,0.2v0.5h-0.1c-0.2,0.2-0.2,0.1-0.3,0.5h-0.2V29
			c0,0-0.7,0.1-0.3,0.1H23v0.1l-0.2-0.1v0.3h-0.2v0.2h-0.2v0.2h-0.1v-0.1l-0.3,0.1l-0.1,0.2h-0.5v0.1h-0.2v0.1l-0.2-0.1v0.2
			l-0.2-0.1v0.2h-0.5v0.1c-0.1,0-0.2,0-0.2-0.1c-0.2,0-0.2,0.1-0.2,0.1c-0.4,0.1-0.5-0.1-0.8,0.2c0,0-0.4,0-0.2-0.1h0.1v-0.1
			l-0.7,0.2v0.1h-0.5v0.1c-0.1,0-0.2,0-0.2-0.1c-0.2,0-0.2,0.1-0.2,0.1c-0.1,0-0.3,0-0.3-0.1h-0.1v0.1c-0.2,0-0.5,0-0.7-0.1v0.2
			l-0.6-0.1v-0.1c-0.3-0.1-0.5,0.1-0.7,0.1v-0.1h-0.8l0.1-0.2c-0.4,0-0.8,0-1.2,0v-0.2h-0.1v0.1c-0.4,0-0.4-0.2-0.6,0h-0.1v-0.2
			c-0.2-0.2-0.5,0-0.8,0v-0.2c-0.1,0.2-0.8-0.1-1-0.2v-0.1H9.8v-0.2H9.4l-0.1-0.2H8.9v-0.1c-0.2-0.1-0.4-0.1-0.6-0.1V29H8.1v-0.2
			H7.7v-0.2L7,28.5l-0.1-0.3L6.2,28v-0.2H6v-0.2l-0.5-0.1v-0.2l-0.3,0.1v-0.1h0.1C5.2,27,5.1,27,4.8,27c-0.1-0.3-0.2-0.3-0.2-0.7
			H4.3c-0.1-0.3,0-0.1-0.3-0.1c-0.1-0.4-0.1-0.3,0-0.7H3.7c0,0,0-0.4-0.1-0.2v0.1H3.5c0-0.2,0-0.4-0.1-0.6H3.3v-0.5l-0.2-0.1
			l0.1-0.2H3.1v-0.5l-0.2,0.1v-0.6H2.6l-0.1-0.3h0.2l-0.1-0.3H2.5v-0.2H2.4l0.1-0.3l-0.2-0.1v-0.3H2.2L2.3,21C2.2,20.9,2,21,2,20.8
			h0.1c0-0.2-0.2-0.2-0.1-0.5h0.1l0.1-0.9H2l0.1-0.8h0.1v-0.1H2.2v-0.5H1.9v-0.2h0.2L2,17.5h0.1v-0.2H1.9L2,17.1c0,0,0.2,0,0.1-0.1
			H1.9v-0.1l0.3-0.1v-0.2H1.9L2,15.6c0.2-0.1,0.1,0,0.2-0.1H2l0.1-1.1h0.1v-0.1H2.2L2.3,14H2.2v-0.1c0.1-0.3,0.3-0.5,0.5-0.8H2.4
			l0.2-0.7h0.1v-0.7h0.1l0.2-0.5H2.9c0-0.2,0.4-0.2,0.2-0.6H3.1v-0.1h0.3l0.1-0.9h0.2c-0.2-0.2,0-0.2,0.1-0.6C4.5,9,4.1,9,4.3,8.6
			l0.3-0.2V8.2h0.1L4.6,7.9c0.2,0.3,0.5-0.6,0.6-0.8h0.5c0-0.5,0-0.3,0.2-0.6V6.5h0.3L6.1,6.2l0.6-0.1c0.2-0.7,1-0.5,1.2-1.2
			c0.2,0,0.5-0.1,0.7-0.2V4.5L9,4.4l0.1-0.2h0.2L9.5,4l0.3,0.1l0.3-0.5c0.1-0.1,0.1,0.1,0.1,0.1c0.3,0,0.2-0.2,0.6-0.2L11,3.6
			l0.2-0.3h0.3c0.1-0.1-0.1-0.2,0.3-0.2c0.1,0,0,0.2,0.2,0.1L12.2,3h0.6c0,0,0-0.1,0.2-0.1V2.6l0.6,0.1V2.5h0.7V2.4l0.1,0.1l0.2-0.1
			v0.1h0.1l0.2-0.3l0.2,0.1V2.1c0.2,0.1,0.4,0.2,0.6,0.1c0.2,0,0-0.1,0.1-0.1h0.1v0.1c0.3,0.1,0.7-0.1,0.9-0.3h0.3L17,2.1h0.2
			l0.1-0.3l0.6,0.1V2l0.1-0.1L18.2,2c0.2,0,0-0.1,0.1-0.1c0.2,0,0.2,0.1,0.2,0.1h0.1V1.8h0.5V2c0.2,0,0.5,0,0.7-0.1
			c0.2,0,0.5,0,0.7,0.1V1.8c0.2,0,0.4,0,0.6,0.1V1.8c0.3,0,0.3,0.1,0.3,0.1L22,1.8c0,0,0,0.2,0.2,0.1l0.1-0.2c0.1,0,0.3,0,0.3,0.1
			c0.3,0,0.7,0,1-0.1c-0.1,0.2,0,0.1-0.1,0.2v0.1c0.5-0.1,1-0.2,1.5-0.2c0.1,0.3,0.4,0.2,0.6-0.1h0.1c0.1,0.2-0.1,0.4-0.1,0.5
			c0.2,0,0.2,0.1,0.2,0.1h1.2l0.1,0.3c0.3-0.2,0.6,0.1,0.9,0.2l0.3-0.1v0.1h-0.1c0.1,0.2,0.1,0.1,0.3,0.2v0.1l0.2-0.1v0.2h0.5v0.3
			h0.2c0.1,0.4,0.1,0.3,0.2,0.7H30c0.1,0.5,0.3,0.2,0.3,0.8l0.3,0.1v0.1H31l-0.1,0.2c0.5,0,0.4-0.1,0.7-0.2c0-0.4,0-0.5-0.3-0.6V4.5
			H31V4.3c0,0-0.4,0-0.2-0.1h0.1V4.1h-0.1V3.9l-0.3-0.1c0.1-0.2,0-0.2,0-0.5c-0.3-0.1-0.2-0.1-0.5-0.2V2.6h-0.5l0.1-0.3h-0.2V2.1
			L29.1,2L29,2.1V1.8c0,0-0.4,0-0.2-0.1h0.1V1.6h-0.4c0.1-0.2,0-0.1,0.1-0.2V1.3h-0.5V1.2h-0.2V1l-0.7-0.1V0.8H27V0.7h-0.8
			c-0.1,0-0.1-0.3-0.2-0.2l-0.1,0.2h-0.1l0.1-0.2c-0.3-0.1-0.6-0.1-0.9,0c-0.1-0.2,0-0.1-0.1-0.2V0.1l-0.7,0.2V0.3h-0.5V0.1
			l-0.6,0.1V0.1c-0.1,0-0.2,0-0.2,0.1l-0.2-0.1v0.1h-0.1V0.1h-0.5v0.1h-0.5V0.1l-0.3,0.1V0H21v0.1L20.7,0l-0.1,0.2h-0.2V0h-0.1
			l-0.1,0.2l-0.3-0.1v0.1h-0.5V0.1L19,0.3c-0.1-0.1-0.2-0.2-0.3-0.1v0.1h-0.6V0.1h-0.8v0.1h-0.5v0.1l-0.9-0.1v0.3l-0.5-0.1V0.4
			c-0.1,0-0.5,0.2-0.6,0.2v0.1l-1.4,0.2c-0.2,0,0-0.1-0.1-0.1v0.1L13,1v0.2h-0.2V1.2h-0.1v0.1h-1c-0.1,0-0.2,0.4-0.3,0.3V1.5h-0.2
			c-0.1,0.2,0,0.1-0.1,0.2v0.1l-0.8,0.1v0.1H9.7v0.1H9.4v0.1H9.2L9,2.5H8.8L8.7,2.7H8.6V2.6H8.5v0.1H8.1L7.9,3.2
			C7.7,3.3,7.4,3.1,7.2,3.3l0.1,0.2H7.1v0.2H6.8V4H6.3v0.2H6.1v0.3L5.8,4.4c-0.2,0.5-0.7,0.9-1.2,1v0.3L4.2,5.9v0.5
			c-0.5,0.2-1,0.6-0.9,1.1C3.1,7.5,3,7.6,2.8,7.6v0.3C2.6,8,2.7,7.9,2.6,8H2.5l0.1,0.3H2.5L2.4,8.7H2.2c0.2,0.2-0.4,0.9-0.5,1.5H1.5
			v0.9l-0.2,0.1c-0.2,0.2-0.3,0.5-0.3,0.8h0.2c-0.1,0.2-0.2,0.5-0.3,0.7H0.7c-0.1,0.2,0.1,0.3,0.1,0.5H0.7v0.3H0.6V14H0.5v0.5H0.4
			L0.5,15H0.4v0.1h0.1v0.7H0.4l0.1,0.5H0.4c-0.1,0.6,0.3,0.5-0.1,0.9c0.1,0.1,0,0,0.2,0.1L0.2,18l0.2,0.1c0,0.1-0.2,0.2-0.1,0.5h0.1
			c0,0.2,0,0-0.1,0.1v0.1h0.1C0.5,19,0.4,19,0.4,19.2c0,0,0.2,0,0.1,0.2l-0.2,0.1c0.1,0.3,0,0.1,0.3,0.1c-0.1,0.1-0.3,0.6-0.2,0.8
			l0.2,0.1v0.6H0.5c0,0.2,0.1,0.2,0.1,0.2V22h0.2c-0.1,0.3-0.1,0.6,0,0.9L1,23l-0.1,0.3h0.2L1,23.7l0.2,0.1v0.1c0.1,0.1,0,0,0.1,0.1
			l-0.1,0.6h0.3v0.5h0.2l-0.1,0.3L2,25.5v0.6l0.2,0.1l-0.1,0.2l0.5,0.2c0.2,0,0-0.1,0.1-0.1l-0.1,0.3h0.1l0.1,0.5h0.2l0.1,0.5
			l0.5,0.1c0.1,0.2,0,0.1,0.1,0.2v0.1L4,28.1c0.3,0.3,0.1,0.5,0.8,0.7v0.3h0.6v0.2c0.2-0.1,0.1,0,0.2-0.1h0.1v0.3h0.5
			c-0.1,0.2,0,0.1-0.1,0.2v0.1l0.3-0.1V30l0.6,0.1L7,30.4l1,0.3v0.1h0.2v0.1C8.4,31,8.5,31,8.7,31v0.2L9,31.2v0.1h0.2v0.2h0.3v-0.1
			h0.1l-0.1,0.2h0.1v0.1c0.1,0,0.4-0.1,0.5-0.1v-0.1h0.1v0.3l0.6,0.1v-0.1H11v0.1h0.3v0.1h0.2v0.1h0.6v0.1h0.2v0.1
			c0.2,0,0-0.1,0.1-0.1h0.5v0.2c0.2,0,0.3-0.1,0.5-0.1v0.2l0.3-0.1v0.1h1v0.1h0.2v0.1c0.1,0,0.3,0,0.3-0.1h0.5v0.1h0.8v-0.1
			c0.2,0,0.7,0.2,1,0.1v-0.1h0.6v-0.1l0.8-0.1v-0.1h0.8v-0.1h0.1v0.1h0.1c0,0,0-0.1,0.2-0.1c0.2,0,0,0.1,0.1,0.1v-0.1l0.7-0.1v-0.1
			h0.3V32h0.2v-0.1c0.3-0.1,0.3,0.1,0.5,0.1v-0.1l0.6-0.1v-0.2c0.4-0.1,0.3-0.1,0.7-0.2V31h0.2v-0.2h0.5l-0.1-0.2h0.1v0.1l0.5-0.3
			l-0.1-0.2h0.2V30l0.2,0.1c-0.1-0.2,0-0.1-0.1-0.2v-0.1h0.3l-0.1-0.3h0.3c0.1-0.4,0.3-0.4,0.3-0.8h0.3v-0.3
			c0.3-0.1,0.2-0.1,0.3-0.2h0.1v-0.2h0.1c0.1-0.1,0.2-0.3,0.2-0.5h0.3c0.1-0.5,0.3-0.2,0.3-0.8h0.3v-0.5h0.3c-0.1-0.3,0-0.1-0.3-0.1
			V26h0.1c0.1-0.2,0.1-0.2,0.3-0.2l0.1-0.5h0.2V25l0.3-0.1c0-0.2,0.1-0.4,0.2-0.6H29l0.1-0.7h0.3V23c0.2,0.1,0.1,0,0.2,0.1h0.1
			c-0.1,0.2-0.1,0.4-0.1,0.7c0,0,0.1,0,0.1,0.2c-0.1,0-0.1,0.1-0.1,0.2h0.1v0.3h0.1c0.1,0.4-0.3,0.2,0.1,0.6l-0.1,0.6h0.3
			c-0.1,0.1,0,0.5,0,0.9h0.2L30.4,27l0.2,0.1v0.2h0.1c0,0.2,0,0-0.1,0.1c0,0.1,0,0.2,0.1,0.2l-0.1,0.6h0.2v0.3
			c0.2,0,0.5,0.1,0.7,0.2v0.1c0.2,0.1,0.5-0.3,0.8-0.3c0.1-0.5,0.1-1,0-1.5c0,0-0.4,0.1-0.2-0.1c0.4,0.1-0.1-0.2,0-0.5h0.1
			c0-0.2-0.2-0.2-0.2-0.2v-0.5h-0.1v-0.5h-0.1c-0.1-0.2-0.1-0.4-0.1-0.6h-0.2c0.1-0.2,0-0.1,0.1-0.2v-0.7l-0.2,0.1l0.2-0.3h-0.2
			l0.1-0.7h-0.2l0.1-0.3h0.1c0.1-0.3-0.1-0.6-0.1-0.7l0.2-0.1l-0.1-0.2l0.2-0.1v-0.2h-0.2l0.1-1.1h0.2l-0.2-0.7
			c0.2-0.1,0.1,0,0.2-0.1h-0.2l0.2-1.5h-0.1v-0.3h-0.1v-0.1h0.1v-0.2h0.1c0-0.2-0.3-0.4-0.3-0.5v-0.1h0.1v-0.3h0.1l-0.1-0.5l0.2-0.1
			v-0.1h-0.3v-0.1h0.1l-0.1-0.2h0.5v0.1h0.1v-0.1h0.7v0.1l0.3-0.1v0.1l0.3-0.1v0.1c0.4,0.1,0.8,0.1,1.1,0v0.2H35v-0.1h0.1v0.2
			c0.5-0.2,0.8,0,1.2,0.2v0.1l0.2-0.1v0.1h0.6c0,0,0,0.2,0.2,0.1l0.1-0.2h0.1v0.3c0.2-0.1,0.5-0.1,0.7,0c0.1,0.2,0,0.1,0.1,0.2v-0.2
			l0.5,0.1v0.1h0.5v0.1c0.5,0,0.7-0.1,0.9-0.3h-0.1v-0.1h0.1v-0.8l0.1-0.1C40.1,15.2,40.1,15.5,39.9,15z M17.2,13.3
			c0.2,0.1,0.1,0,0.2,0.1C17.2,13.4,17.3,13.5,17.2,13.3L17.2,13.3z M30.6,4.5c-0.2-0.1-0.1,0-0.2-0.1C30.6,4.5,30.4,4.4,30.6,4.5
			L30.6,4.5z M26.2,1.8h0.1c0.1,0-0.2,0.2-0.2,0.2L26.2,1.8z M0.6,20.2h0.3v0.1C0.7,20.4,0.6,20.3,0.6,20.2L0.6,20.2z M1,22.5H0.9
			v-0.2H1V22.5z"/>
		<path id="パス_343" class="st0" d="M26.3,1.8h-0.1l-0.1,0.2C26.1,2.1,26.4,1.9,26.3,1.8z"/>
		<path id="パス_344" class="st0" d="M30.6,4.5c-0.1-0.1,0,0-0.2-0.1C30.5,4.6,30.4,4.5,30.6,4.5z"/>
		<path id="パス_345" class="st0" d="M102.5,8.3h-0.5V8c-0.3,0-0.3,0.1-0.5,0.1l-0.1-0.2h-0.2V7.8c-0.1,0-0.3,0.2-0.6,0.1V7.8
			h-1.2V7.6c-0.2,0.1-0.5,0.1-0.7,0V7.5h-0.1v0.1h-0.1V7.5h-0.5V7.4l-0.3,0.1V7.3l-1.1,0.2l-0.1-0.2l-0.3,0.1l-0.1-0.2
			c-0.2,0-0.2,0.2-0.2,0.2H95V7.1c-0.3,0.1-0.6,0.1-0.9,0.1v0.2c-0.3-0.1-0.7-0.1-1,0V7.4l-0.3,0.1V7.4h-0.1v0.1h-0.5V7.4H92v0.1
			c-0.6,0.1-0.7-0.3-1,0.1h-0.1L91,7.4c-0.3,0.1-0.5,0.1-0.8,0c0.1-0.2,0.1-0.4,0.2-0.6C90.2,6.6,90.1,6.3,90,6l-0.7-0.1V6h-0.1V5.9
			H89c-0.1,0.2-0.3,0.2-0.3,0.6h0.2v0.1l-0.3,0.1V7h-0.1v0.1l0.2,0.1v0.3h-0.3v0.1h-0.5V7.6l-0.5,0.1V7.5c-0.1-0.1-0.1,0.1-0.1,0.1
			h-0.5c-0.1,0.3,0,0.3-0.3,0.3V7.6h-0.3v0.1l-0.3-0.1l-0.1,0.2c-0.3,0.1-0.9-0.1-1-0.1v0.1l-0.3-0.1l-0.1,0.2h-0.3V8
			c-0.3,0.1-0.3-0.1-0.5-0.1V8l-0.3,0.1V7.9h-0.2v0.2c-0.3-0.1-0.7-0.1-1,0v0.1l-0.3-0.1v0.1l-0.3-0.1v0.1c-0.2,0.2-0.4,0.2-0.7,0.2
			c0,0.6-0.1,0.2-0.5,0.5c0.2,0.2,0,0.2-0.2,0.3L80,9.8h0.5c0.1,0,0,0.3,0.3,0.2l0.1-0.2l0.2-0.1V10l0.6,0.1V9.8l0.2,0.1V9.8h0.3
			V9.7h0.1V10c0.2,0,0.2-0.1,0.2-0.1h0.6V9.7h0.3V9.6c0.3-0.1,0.3,0.1,0.5,0.1V9.6h0.3V9.5c0.1,0,0.3,0.2,0.6,0.1V9.5h0.1v0.1h0.5
			l0.1-0.2c0.4-0.1,0.8,0.1,1-0.1h0.1l-0.1,0.2c0.2-0.1,0.3-0.1,0.5-0.2l0.6,0.1V9.2c0.4,0.1,0.8,0.1,1.1,0l0.1,0.6h0.1l-0.1,0.3
			h-0.1c0,0.2,0.2,0.2,0.2,0.2c0,0.2-0.2,0-0.2,0.2h0.1v1.4h-0.1c0,0.2,0.2,0.1,0.2,0.2l-0.1,1H89l-0.1,0.3l-0.2,0.1
			c-0.1,0.3,0.2,0.3,0.2,0.5h-0.1v0.5l-0.2-0.1v0.2h0.3l-0.1,0.3h-0.1V15h0.1l0.1,0.2l-0.2,0.1V16h-0.1l0.1,0.3h-0.1v0.1
			c0,0.1,0.2,0.1,0.1,0.3h-0.1l-0.1,0.7h0.2c-0.1,0.3-0.2,0.5-0.3,0.8c0,0.2,0.1,0,0.1,0.1l-0.1,0.3h0.2c0,0.1-0.2,0.4-0.1,0.6h0.1
			l-0.1,0.3h-0.2v0.1h0.2c-0.1,0.3,0,0.8-0.1,1.1h-0.1l0.1,0.1v0.1h-0.1v0.5L88,21.7c0,0.1,0,0.3,0.1,0.3c0.1,0.2-0.1,0.5-0.1,0.6
			h0.1v0.1c-0.1,0.4-0.3,0.2-0.1,0.8h-0.2v0.2H88c-0.2,0.4-0.1,1-0.2,1.5h-0.1l0.1,0.3h-0.1l0.1,0.7h-0.1l0.1,0.2v0.1h-0.1
			c0,0.1,0,0.3,0.1,0.3V27h-0.1c-0.1,0.3,0.1,0.4,0.1,0.6h-0.1V28h-0.1l0.1,0.5h0.1l-0.1,0.3h-0.2v0.1h0.2c-0.1,0.3-0.3,0.2,0.1,0.5
			c-0.1,0.2-0.2,0.2-0.2,0.5h0.1v0.1h-0.2c-0.1,0.1,0.2,0.2,0.2,0.2c0,0.1-0.2,0.3-0.1,0.6h0.1l-0.1,0.5h0.1v0.2h0.1l0.1,0.3h0.8
			v-0.1h0.1L88.7,32c0.3-0.1,0.2-0.1,0.5-0.2v-0.1h0.1l-0.1-0.3l0.2,0.1c0-0.2-0.1-0.2-0.1-0.2v-1h-0.1c0,0,0-0.4,0.1-0.2
			c0.2,0,0,0.1,0.1,0.1v-0.9h0.1V29h-0.2l0.1-0.2h-0.2v-0.1h0.1v-0.2h0.1c0-0.1-0.2-0.2-0.1-0.5h0.1c0.1-0.6-0.3-0.7,0.1-1.1
			c0,0,0-0.4-0.1-0.2c-0.2,0,0,0.1-0.1,0.1c0.1-0.2,0.1-0.4,0.1-0.6c0.2-0.1,0.1,0,0.2-0.1h-0.2l0.1-0.7h-0.1v-0.1h0.1v-0.2h0.1
			l-0.1-0.3c0,0,0.2,0,0.2-0.3h-0.2l0.1-0.7c0,0-0.2,0-0.1-0.2l0.2-0.1c0.1-0.2-0.2,0-0.2-0.2l0.2-0.1c0-0.1-0.2-0.2-0.1-0.5h0.1
			v-0.5h0.1V21l0.2-0.1l-0.1-0.5H90v-0.2h0.1c0.1-0.3-0.1-0.4-0.1-0.6h0.1c0-0.1-0.2-0.2-0.1-0.5c0,0,0.2,0,0.2-0.3h-0.3l0.1-0.3
			h0.1v-0.3h0.1c0-0.1,0-0.2-0.1-0.2l0.1-0.9h-0.1V17h0.2c0-0.2-0.2-0.2-0.2-0.2c0-0.2,0.2-0.2,0.2-0.2l-0.1-0.6h0.1
			c-0.1-0.3-0.1-0.7,0-1h0.1v-0.6h0.1v-0.1h-0.2v-0.1h0.1c0-0.2-0.1,0-0.1-0.1v-0.8c0,0,0.2,0,0.1-0.2h-0.1l-0.1-0.3h0.2
			c0-0.2-0.2-0.1-0.2-0.2c0-0.2,0.3-0.2,0.3-0.3l-0.1-0.2h0.1c0-0.2-0.2-0.2-0.2-0.2l0.1-0.8h-0.1v-0.1h0.1c0-0.5,0-1,0.1-1.5h-0.1
			V9.2l0.8-0.1V8.9l0.6,0.1v0.1h0.1V9.1h0.9v0.1c0.6,0.1,0.3-0.4,0.7,0l0.6-0.2v0.2c0.2,0,0.9-0.4,1.4-0.2v0.1l0.7-0.1
			c0,0,0,0.1,0.2,0.1V8.9h0.1v0.1h0.2v0.1L97,9.1V8.9l0.8,0.1V8.8h0.1v0.3c0.2,0,0.3,0,0.5-0.1v0.2L99,9.2v0.2l0.5,0.1V9.4h0.5v0.1
			h0.1c0-0.1,0.1-0.1,0.2-0.1v0.1h0.3v0.1c0.3,0.1,0.3-0.1,0.5-0.1v0.1h0.2v0.1c0.2,0,0-0.1,0.1-0.1c0.3,0,0.6,0,0.9,0.1l0.1-0.3
			h0.2V8.9h-0.2V8.7h0.3V8.6h-0.1L102.5,8.3z M86.6,9.1c0.2,0.1,0.1,0,0.2,0.1C86.6,9.1,86.8,9.2,86.6,9.1L86.6,9.1z"/>
		<path id="パス_346" class="st0" d="M76,6.9h-0.2V6.7h-1v0.1h-0.1L74,6.6v0.1c-0.3,0-0.4-0.2-0.6-0.2v0.1h-0.2v0.1
			c-0.5,0.2-0.7-0.1-1,0v0.1l-0.6-0.1v0.1l-0.2-0.1v0.1H71c0,0,0-0.2-0.2-0.1l-0.1,0.2h-0.3V7c-0.2,0-0.2-0.1-0.2-0.1
			C69.8,6.9,69.8,7,69.6,7l-0.1-0.2L69,7V6.8l-0.6,0.1V7H68V6.9h-0.1V7l-0.3-0.1v0.2L66.4,7v0.2c-0.3,0-0.6,0.1-0.9,0.2V7.3L65,7.4
			c-0.1-0.1-0.2-0.2-0.3-0.1v0.1h-0.6v0.1h-0.2v0.1c-0.1,0-0.3-0.2-0.6-0.1v0.1h-0.5v0.1l-0.3-0.1l-0.1,0.3
			c-0.2,0.1-0.2-0.1-0.2-0.1h-0.7c-0.1,0.2,0,0.1-0.1,0.2c0,0,0,0.2-0.1,0.1V7.9L61,8l-0.3-0.1V8c-0.1,0-0.3-0.1-0.2,0.1h0.1v0.1
			h-0.1v0.1c-0.1,0-0.8-0.4-1.4-0.2v0.1h-0.6l-0.2,0.3h-0.8v0.1c-0.1,0-0.2,0-0.2-0.1l-0.6,0.1v0.1h-0.1l0.1,0.3h-0.3v0.5h-0.2v0.2
			h0.2v0.2c0.1,0,0.5-0.1,0.3,0.1h-0.1v0.1c0.4,0,0.4,0.1,0.9,0v-0.1h0.8l0.1-0.2c0.5-0.2,0.5,0.5,0.9-0.1h0.1
			c0,0.2-0.1,0.3-0.1,0.5h0.1l0.1,0.5h-0.2v0.1h0.1l0.1,0.3c0,0.1-0.3,0.1-0.2,0.5h0.1V12h0.1l-0.1,0.3c0,0,0.2,0,0.1,0.2h-0.1v0.1
			c0,0,0.2,0,0.1,0.2h-0.1v0.6h0.1v0.5h-0.1l0.1,0.6l-0.2,0.1c0.1,0.1,0,0,0.2,0.1c0,0.2-0.1,0.8-0.1,0.8l0.3,0.1
			c-0.2,0.3-0.2,0.6-0.1,0.9l0.2,0.1l-0.1,0.6h-0.1c0,0.3,0.2,0.2,0.2,0.3c0.1,0.2-0.1,0.5-0.1,0.6h0.1v0.6h-0.1v0.1l-0.6-0.1
			l-0.1,0.2c-0.4,0.2-0.3-0.2-0.6,0.2h-0.1v0.1h0.1v0.1l-0.2-0.1c0.1,0.3,0.2,0.5,0.2,0.8h0.3v-0.1H59c-0.1,0.2-0.1,0.1,0,0.3h0.9
			c0,0,0,0.4,0.1,0.2v-0.1h0.3l-0.1,0.3h-0.1c-0.1,0.2,0.2,0.1,0.2,0.1c0,0.2,0,0-0.1,0.1v0.2h0.2l-0.1,0.3h0.2
			c-0.1,0.3-0.1,0.5-0.1,0.8h0.2l-0.1,0.7c0,0,0.2,0,0.1,0.2h-0.1v0.1l0.3,0.2c0.1,0.3-0.2,0.3-0.2,0.3v0.3h0.2
			c-0.1,0.1-0.1,0.3-0.1,0.5H61c-0.1,0.3-0.1,0.7,0,1h0.2c0.1,0.1-0.1,0.1-0.1,0.1c0,0.3-0.1,0.3-0.1,0.5l0.3,0.2
			c0,0.1-0.2,0.3-0.1,0.6h0.1v0.2l0.2,0.1L61.5,28h0.1v0.3h0.1l-0.1,0.2l0.2,0.1L61.7,29h0.1v0.6c0,0.2,0.1,0,0.1,0.1
			c-0.1,0.1-0.2,0-0.1,0.2L62,30l-0.1,0.3H62v0.3h0.1c0,0.2,0,0-0.1,0.1l0.1,0.2H62v0.6h0.1v0.7h0.1v0.2h0.1v0.3h0.1V33h-0.1v0.7
			h0.2c-0.1,0.4-0.1,0.4-0.1,0.8h0.2c0.1,0.2,0,0.1,0.1,0.2c0.2,0.2,0.6,0.3,0.9,0.1v-0.1h0.5l-0.1-0.3l0.2-0.1v-0.5h-0.1l0.1-0.6
			h-0.2c0.3-0.4-0.2-0.2-0.1-0.5h0.1v-0.1c-0.2-0.1-0.1,0.1-0.2-0.1h0.2v-0.2h-0.2c0.1-0.7,0.1-0.4-0.2-0.9h0.2l-0.1-0.8h-0.1v-0.3
			h-0.1c0-0.2,0.2-0.7,0.1-1l-0.2-0.1c-0.1-0.2,0.1-0.4,0.1-0.6h-0.2c0-0.4,0.1-0.3,0-0.7h-0.1v-0.8L63,27l0.1-0.1v-0.2H63l0.1-0.3
			h-0.2v-0.1c0.1-0.1,0.2-0.2,0.1-0.3h-0.1v-0.3c0-0.1-0.3-0.1-0.2-0.2h0.2v-0.1h-0.2l-0.1-0.7c0.1,0,0.1-0.1,0.1-0.2c0,0,0,0,0,0
			l-0.2-0.1v-0.1l0.2,0.1v-0.2h-0.2l0.1-1h-0.2c0-0.2,0-0.5-0.1-0.7h0.2V22H62c0.1-0.2,0.1-0.4,0.1-0.6c0,0-0.2,0-0.1-0.2h0.1v-0.3
			L61.8,21c0-0.2,0.1-0.4,0.3-0.5v-0.1l0.3,0.1v-0.1l0.1,0.1l0.1-0.1c0.2,0,0,0.1,0.1,0.1h0.7v0.1h0.3v0.1l0.8-0.1v0.1h0.5v-0.1
			l0.6,0.1v-0.1l0.2,0.1c0.1-0.1,0.2-0.2,0.3-0.1v0.1h1.1c0,0,0,0.2,0.2,0.1v-0.1h0.2v-0.1l0.5,0.1v-0.1h0.3v0.1l0.1-0.1l0.1,0.1
			l0.2-0.1v0.1h0.5v0.1h0.1l0.1-0.2c0.2,0,0.2,0.1,0.2,0.1h0.6v-0.1c0.1,0,0.3,0,0.3,0.1l0.7-0.1v0.1l0.3,0.1l0.2-0.3
			c0.2-0.1,0,0.4,0.2,0.2s-0.1-0.2,0.3-0.3l-0.1-0.3h0.1V20h-0.1v-0.3h-0.1v-0.1h0.2v-0.1l-0.9-0.3c-0.1,0-0.3,0.2-0.6,0.1
			c0,0,0-0.1-0.2-0.1v0.1l-1.2-0.1v0.1h-0.1v-0.1h-1.4l-0.3,0.1v-0.1L67.5,19v0.1H67V19c-0.3,0-0.3,0.2-0.3,0.2l-0.6-0.1v0.1
			c-0.2,0,0-0.1-0.1-0.1c-0.4,0-0.8,0-1.1,0.1L64.8,19c-0.3-0.1-0.5,0-0.8,0.1v-0.2h-0.3c0.1,0.1,0.1,0.1,0.2,0.2L63.2,19v0.1h-0.1
			l0.1-0.2c-0.3,0-0.5,0.1-0.8,0.1v-0.2c-0.3,0-0.4,0-0.6,0.2h-0.1c-0.1-0.2,0.2-0.4,0.1-0.5l-0.3-0.1v-0.1h0.1L61.5,18
			c0,0,0.1,0,0.1-0.2h-0.1v-0.1h0.1v-0.1h-0.1v-0.3h-0.1l0.1-0.2h-0.1c-0.1-0.1-0.2-0.3-0.2-0.5h0.3c0-0.1,0.1-0.5-0.1-0.3v0.1h-0.1
			v-1h-0.1V15H61c-0.1-0.2,0.2-0.6,0.1-1H61l0.1-0.2H61v-0.6h0.1v-0.5H61c0-0.1,0.2-0.2,0.1-0.5c0-0.2-0.1,0-0.1-0.1
			c0.1-0.1,0.1,0,0.1-0.1L61,11.9h0.1L61,11.3h0.1l0.1-0.5H61v-0.1c0.2,0,0.2-0.3,0.1-0.5H61v-0.1h0.1L61,9.8h0.1V9.7h-0.2V9.6
			l0.7,0.1V9.5h0.6V9.4h0.1v0.1h0.5c0,0,0-0.4,0.1-0.2c0.2,0,0,0.2,0.1,0.1c0.1,0,0-0.2,0.2-0.1v0.1h0.1c0.1,0,0-0.2,0.3-0.2v0.2
			c0.4-0.1,0.4-0.3,0.8-0.3c-0.1,0.1,0,0-0.2,0.1v0.1c0.3,0.2,0.4-0.2,0.5-0.2l0.1,0.1h0.1V9.1h0.5V8.9h0.1l-0.1,0.2h0.3V8.9
			l0.9-0.1V8.7c0.1,0,0.2,0.2,0.5,0.1l0.1-0.2c0.4-0.1,0.4,0.2,0.5,0.2c0.1,0,0.2,0,0.2-0.1c0,0,0,0,0,0h0.1v0.1h0.5V8.6h0.3V8.5
			c0.1,0,0.2,0,0.2,0.1c0.2,0,0.2-0.1,0.2-0.1h0.3v0.1l0.7-0.1V8.4c0,0,0.4,0,0.2,0.1h-0.1v0.1c0.2,0,0.3-0.1,0.5-0.1
			c0.1,0,0,0.2,0.3,0.1V8.5l0.8,0.1V8.5h0.3V8.4h0.7V8.3c0.2,0,0.2,0.3,0.6,0.2V8.4c0.1-0.1,0.3-0.1,0.5-0.1v0.2h0.2V8.3
			c0.5,0,0.9,0,1.4,0.1V8.2C76,8.1,75.8,8,76.3,7.9V7.6H76V6.9z M57.2,10c0.2,0.1,0.1,0,0.2,0.1C57.2,10,57.3,10.1,57.2,10L57.2,10z
			 M67.8,8.5c0.2,0.1,0.1,0,0.2,0.1C67.8,8.5,67.9,8.6,67.8,8.5L67.8,8.5z"/>
		<path id="パス_347" class="st0" d="M49.2,10.4L49,10.3l0.2-0.3h-0.1C49,9.5,49,9.1,49,8.7l-0.2-0.1C48.7,8.4,49,8.5,49,8.2h-0.1
			l-0.1-0.5h-0.1V7.1h-0.1V7c-0.2,0.2-0.2,0.1-0.5,0c-0.1,0.2-0.2,0.2-0.3,0.3h-0.1l0.1,0.6h-0.1v0.2h-0.1c-0.1,0.4,0.3,0.6,0,0.9
			c0,0.2,0.1,0.4,0.3,0.5v0.1h-0.2c-0.1,0.2,0,0.1-0.1,0.2c0.1,0.1,0.1,0.1,0.2,0.2h-0.2l0.1,0.6c0,0-0.1,0-0.1,0.2
			c0,0.2,0.1,0,0.1,0.1h-0.1v0.6h-0.1v0.1h0.1v0.2h-0.1l0.1,0.2l-0.1,0.2h0.2c-0.1,0.3-0.1,0.4-0.3,0.6c0.1,0.1,0,0,0.2,0.1
			l-0.1,0.3h-0.1v0.2h-0.1c0,0,0.2,0.4,0.1,0.7h-0.1L47,14.8h0.1v0.5H47l0.1,0.3l-0.2,0.1v0.1H47v0.7h-0.1l0.1,0.3
			c0,0-0.1,0-0.1,0.2H47v0.5c0,0-0.1,0-0.1,0.2l0.1,0.3h-0.1v0.1H47v0.5h-0.1L47,19h-0.1v0.1H47v0.3h0.1c0,0.3-0.1,0.7-0.1,1
			l0.2,0.1c0.1,0.2-0.1,0.2-0.1,0.2l0.1,0.2H47c-0.1,0.1,0.2,0.2,0.2,0.5h-0.1v0.1h0.1c0,0.1,0,0.2-0.1,0.2v0.1h0.1v0.9h0.1
			l-0.1,0.3h0.1v0.6h0.1v0.1h-0.2l0.1,0.2h-0.1v0.1h0.1v0.5h0.1c0,0.2,0,0-0.1,0.1v0.1h0.1v0.5h0.1c0.1,0.1,0.1,0.3,0.1,0.5
			c0.2,0,0.3,0.1,0.5,0.1c0.2,0,0.5-0.3,0.8-0.3l0.1-0.7h0.1L49,24.2c0.2-0.2,0.1,0.1,0.2-0.1H49c0-0.2,0.1-0.3,0.1-0.5H49l-0.1-0.3
			H49v-0.3h0.1v-0.1H49v-0.9h-0.1l0.1-0.7l-0.3-0.1V21c0.2-0.1,0.1-0.4,0.1-0.7h0.1v-0.1h-0.1v-0.6h0.1v-0.1h-0.1
			c0-0.2,0-0.4,0.1-0.6h-0.2l-0.1-0.3h0.1v-0.3c0-0.2,0.1,0,0.1-0.1h-0.1l-0.1-0.5h0.1v-0.2h0.1c0.1-0.3-0.3-0.2-0.2-0.6l0.2-0.1
			l-0.1-0.6c0-0.2,0.1,0,0.1-0.1h-0.2l0.1-0.2h-0.1v-0.1h0.1v-0.6h0.1l-0.1-0.6h0.1v-0.3h0.1l0.1-0.7h-0.1v-0.1H49v-0.2h0.1v-0.7
			h0.1l0.1-0.3h-0.1v-0.2h-0.1c-0.1-0.3,0.2-0.2,0.2-0.3l-0.1-0.2h0.1v-0.1c-0.1-0.1-0.1,0-0.1-0.2h0.1v-0.1h-0.1L49.2,10.4z"/>
		<path id="パス_348" class="st0" d="M67.8,8.5c0.1,0.1,0,0,0.2,0.1C67.9,8.5,68,8.6,67.8,8.5z"/>
		<path id="パス_349" class="st0" d="M69.2,8.7h0.3V8.6h-0.3V8.7z"/>
		<path id="パス_350" class="st0" d="M86.6,9.1c0.1,0.1,0,0,0.2,0.1C86.7,9,86.9,9.1,86.6,9.1z"/>
		<path id="パス_351" class="st0" d="M57.2,10c0.1,0.1,0,0,0.2,0.1C57.3,9.9,57.4,10,57.2,10z"/>
		<path id="パス_352" class="st0" d="M17.2,13.3c0.1,0.1,0,0,0.2,0.1C17.3,13.3,17.4,13.4,17.2,13.3z"/>
		<path id="パス_353" class="st0" d="M29.8,13.7h0.1c-0.1-0.2,0-0.1-0.1-0.2V13.7z"/>
		<path id="パス_354" class="st0" d="M46.8,15.1c0.1,0.1,0,0,0.2,0.1v-0.1H46.8z"/>
		<path id="パス_355" class="st0" d="M65.2,19v-0.1H65C65.1,19,65,18.9,65.2,19z"/>
		<path id="パス_356" class="st0" d="M0.9,20.2H0.6c0.1,0,0.1,0.2,0.3,0.1V20.2z"/>
		<path id="パス_357" class="st0" d="M48.8,20.9H49c-0.1-0.2,0-0.1-0.1-0.2V20.9z"/>
	</g>
	<path id="パス_722" class="st1" d="M15.7,48.2l-1.1,0.2c-0.8,0.1-1.5,0.2-2.1,0.3c0.1,0.4,0.2,0.8,0.3,1.2c0,0.1,0.1,0.2,0.2,0.1
		c0.3-0.1,1.1-0.3,1.8-0.4l1.1-0.2l0.3,1.5l-1.7,0.3c-0.9,0.1-1.5,0.2-2.2,0.3c0.1,0.4,0.2,0.8,0.3,1.2c0,0.1,0.1,0.2,0.2,0.2
		c0,0,0,0,0.1,0c0.5-0.1,1.1-0.3,1.9-0.4l1.6-0.3l0.3,1.4c0.2,0.8,0.3,1.6,0.4,2.1c0,0.1,0.1,0.2,0.2,0.1c0.4-0.1,0.7-0.1,1.1-0.3
		c0.1,0,0.2-0.1,0.2-0.1c-0.2-0.6-0.4-1.4-0.5-2.2l-0.3-1.3l1.7-0.3c0.9-0.1,1.6-0.3,1.9-0.3c0.1,0,0.2-0.1,0.2-0.2c0,0,0,0,0,0
		c0-0.3-0.1-0.6-0.2-1c0-0.1,0-0.2-0.2-0.1c-0.4,0.1-1,0.3-1.9,0.4l-1.7,0.3l-0.3-1.5l1.1-0.2c0.6-0.1,1.1-0.2,1.7-0.3
		c0.1,0,0.2,0,0.2-0.1c-0.1-0.3-0.1-0.7-0.2-1c0-0.1-0.1-0.1-0.1-0.1c-0.6,0.2-1.2,0.3-1.8,0.4l-1,0.2l-0.2-1
		c-0.1-0.3-0.1-0.6,0-0.9c0-0.1-0.1-0.2-0.2-0.2c-0.5,0-1,0-1.6,0c0.2,0.5,0.4,1,0.5,1.5L15.7,48.2z M19.7,46.3
		c0.5,0.4,0.9,0.9,1.2,1.4c0,0.1,0.1,0.1,0.2,0.1c0,0,0,0,0,0l0.5-0.4c0.1,0,0.1-0.1,0.1-0.2c0,0,0,0,0,0c-0.3-0.5-0.7-0.9-1.1-1.3
		c-0.1-0.1-0.1-0.1-0.2,0L19.7,46.3z M20.8,45.6c0.5,0.4,0.9,0.9,1.2,1.4c0,0.1,0.1,0.1,0.2,0.1c0,0,0,0,0,0l0.5-0.4
		c0.1,0,0.1-0.1,0.1-0.2c0,0,0,0,0,0c-0.3-0.5-0.7-0.9-1.1-1.2c-0.1-0.1-0.1-0.1-0.2,0L20.8,45.6z M34.1,48.3
		c-0.4,1.3-1.1,2.4-2,3.4c-1.1,1.3-2.4,2.3-3.9,3c0.4,0.2,0.8,0.4,1.1,0.7c0.1,0.1,0.2,0.1,0.3,0.1c0.1,0,0.2,0,0.3-0.1
		c1.3-0.8,2.4-1.7,3.4-2.9c1-1.2,1.8-2.5,2.3-3.9c0.1-0.2,0.2-0.3,0.3-0.5C36,48.1,36,48,36,47.9c0-0.1,0-0.1-0.1-0.2
		c-0.2-0.3-0.5-0.6-0.9-0.8c-0.1,0-0.1-0.1-0.2-0.1c-0.1,0-0.1,0-0.2,0C34.5,47,34.2,47,34,47h-4.3c-0.8,0-1.5,0-2.3-0.1
		c0,0.3,0.1,1,0.1,1.2c0,0.2,0.1,0.3,0.2,0.2c0.5,0,1.2-0.1,2-0.1L34.1,48.3z M46.3,47.4c0-0.4,0-0.8,0.1-1.1
		c0.1-0.1,0.1-0.2,0.1-0.3c0-0.1-0.1-0.2-0.2-0.2c-0.5-0.1-1-0.2-1.5-0.2c0.1,0.6,0.1,1.2,0.1,1.8v5.9c0,0.8,0,1.5,0,2.4
		c0,0.1,0.1,0.2,0.2,0.2c0.4,0,0.7,0,1.1,0c0.2,0,0.2,0,0.2-0.2c0-0.9,0-1.6,0-2.4v-2.7c1.1,0.4,2.2,0.9,3.2,1.5
		c0,0,0.1,0.1,0.1,0.1c0.1,0,0.1,0,0.2-0.1c0.2-0.3,0.4-0.7,0.5-1c0.1-0.2,0-0.2-0.1-0.3c-1.2-0.7-2.5-1.2-3.8-1.6L46.3,47.4z
		 M59.6,49.4l-1,0.3c-0.7,0.2-1.5,0.3-2.3,0.4c0.1,0.4,0.3,0.8,0.5,1.2c0.1,0.1,0.1,0.2,0.2,0.2c0.1,0,0.1,0,0.1,0
		c0.6-0.2,1.1-0.4,1.7-0.5l0.8-0.2v2.4c0,1.6,0.7,2.1,3,2.1c1,0,1.9,0,2.9-0.1c0.2,0,0.3-0.1,0.3-0.2c0-0.3,0-0.7-0.1-1
		c0-0.2,0-0.3-0.2-0.2c-1,0.2-1.9,0.3-2.9,0.3c-1.3,0-1.5-0.2-1.5-0.8v-2.7l3.3-0.8c-0.5,0.9-1.2,1.7-2,2.4c0.4,0.1,0.7,0.3,1,0.5
		c0.1,0.1,0.1,0.1,0.2,0.1c0.1,0,0.2-0.1,0.3-0.2c0.7-0.8,1.4-1.7,1.9-2.6c0.1-0.2,0.2-0.3,0.4-0.5c0.1-0.1,0.1-0.1,0.2-0.2
		c0-0.1,0-0.2-0.1-0.2c-0.3-0.3-0.6-0.6-0.9-0.8c0,0-0.1-0.1-0.2-0.1c-0.1,0-0.1,0-0.2,0.1c-0.2,0.2-0.5,0.3-0.9,0.3L61,49.1v-1.2
		c0-0.4,0-0.7,0.2-1.1c0-0.1,0.1-0.1,0.1-0.2c0-0.1-0.1-0.2-0.2-0.2c-0.5-0.1-1-0.2-1.5-0.2c0.1,0.7,0.2,1.4,0.2,2.1V49.4z
		 M72.9,49.6c0.5,0.6,0.9,1.2,1.1,1.9c0.1,0.2,0.1,0.2,0.3,0.2c0.3-0.1,0.5-0.2,0.8-0.4c0.1-0.1,0.1-0.1,0.1-0.2c0-0.1,0-0.1,0-0.2
		c-0.2-0.6-0.6-1.2-1-1.8c-0.1-0.1-0.2-0.2-0.3-0.1c0,0,0,0,0,0C73.6,49.3,73.3,49.4,72.9,49.6L72.9,49.6z M75.3,49
		c0.4,0.6,0.8,1.2,1,1.9c0.1,0.2,0.1,0.2,0.2,0.2c0.3-0.1,0.6-0.2,0.8-0.4c0.2-0.1,0.2-0.1,0.1-0.3c-0.2-0.6-0.5-1.2-0.9-1.8
		c0-0.1-0.2-0.2-0.3-0.1c0,0,0,0,0,0C76,48.6,75.8,48.8,75.3,49L75.3,49z M79.1,48.7c0,0.4-0.1,0.9-0.3,1.3c-0.4,1-1,2-1.6,2.9
		c-0.8,1-1.8,1.9-2.9,2.5c0.4,0.1,0.7,0.3,1,0.5c0.1,0.1,0.1,0.1,0.2,0.1c0.1,0,0.2-0.1,0.3-0.1c1-0.6,1.8-1.4,2.5-2.3
		c0.7-1,1.3-2.1,1.8-3.2c0.1-0.2,0.2-0.4,0.4-0.6c0.1-0.1,0.1-0.1,0.1-0.2c0-0.1-0.1-0.1-0.2-0.2C80,49,79.5,48.9,79.1,48.7
		L79.1,48.7z M91.3,47.4c0-0.4,0-0.8,0.1-1.1c0.1-0.1,0.1-0.2,0.1-0.3c0-0.1-0.1-0.2-0.2-0.2c-0.5-0.1-1-0.2-1.5-0.2
		c0.1,0.6,0.1,1.2,0.1,1.8v5.9c0,0.8,0,1.5,0,2.4c0,0.1,0.1,0.2,0.2,0.2c0.4,0,0.7,0,1.1,0c0.2,0,0.2,0,0.2-0.2c0-0.9,0-1.6,0-2.4
		v-2.7c1.1,0.4,2.2,0.9,3.2,1.5c0,0,0.1,0.1,0.1,0.1c0.1,0,0.1,0,0.2-0.1c0.2-0.3,0.4-0.7,0.5-1c0.1-0.2,0-0.2-0.1-0.3
		c-1.2-0.7-2.5-1.2-3.8-1.6L91.3,47.4z"/>
</g>
</svg>
