<?xml version="1.0" encoding="utf-8"?>
<!-- Generator: Adobe Illustrator 24.2.0, SVG Export Plug-In . SVG Version: 6.00 Build 0)  -->
<svg version="1.1" id="レイヤー_1" xmlns="http://www.w3.org/2000/svg" xmlns:xlink="http://www.w3.org/1999/xlink" x="0px"
	 y="0px" viewBox="0 0 188 54" style="enable-background:new 0 0 188 54;" xml:space="preserve">
<style type="text/css">
	.st0{fill:#FFFFFF;}
	.st1{fill:#FFFFFF;stroke:#FFFFFF;stroke-width:2;stroke-linejoin:round;}
</style>
<g id="グループ_530" transform="translate(1.02 1.001)">
	<path id="パス_722" class="st0" d="M31.4,43.9c1.6,0.3,3.1,0.7,4.5,1.4c0.1,0.1,0.2,0.1,0.3-0.1c0.2-0.3,0.3-0.7,0.4-1
		c0.1-0.2,0-0.2-0.1-0.3c-1.4-0.6-2.8-1-4.3-1.3c-0.2,0-0.2,0-0.3,0.2S31.6,43.6,31.4,43.9z M30.6,47c1.4,0.3,2.7,0.7,3.9,1.3
		c0,0,0.1,0,0.2,0c0.1,0,0.1,0,0.2-0.2c0.2-0.3,0.3-0.6,0.4-0.9c0.1-0.2,0-0.3-0.2-0.3c-1.2-0.5-2.4-0.9-3.7-1.2
		c-0.2,0-0.3,0-0.3,0.1C31,46.3,30.8,46.6,30.6,47L30.6,47z M30.5,50.6c2.1,0.4,4.1,1,5.9,2c0.1,0,0.1,0.1,0.2,0.1
		c0.1,0,0.1,0,0.2-0.1c0.2-0.3,0.3-0.6,0.5-1c0.1-0.1,0-0.2-0.1-0.3c0,0,0,0-0.1,0c-1.8-0.9-3.7-1.5-5.7-1.9c-0.1,0-0.3,0-0.3,0.1
		C30.8,49.8,30.6,50.2,30.5,50.6z M49.9,45.8c0.8,0,1.5,0,2.1,0c0.1,0,0.1-0.1,0.2-0.2c0-0.4,0-0.7,0-1.1c0-0.1,0-0.2-0.1-0.2
		c-0.5,0-1.2,0.1-2.2,0.1h-2.4c-0.7,0-1.3,0-2-0.1c0,0.4,0,0.9,0.1,1.3c0,0.2,0,0.3,0.2,0.3c0.6,0,1.1,0,1.8,0L49.9,45.8z
		 M50.9,50.9c0.8,0,2.1,0,2.6,0c0.2,0,0.2-0.1,0.2-0.3c0-0.3,0-0.7,0-1c0-0.2,0-0.2-0.2-0.2c-0.6,0-1.4,0.1-2.7,0.1h-4.4
		c-0.8,0-1.6,0-2.5-0.1c0,0.6,0.1,1,0.1,1.3c0,0.2,0.1,0.2,0.2,0.2c0.6,0,1.4-0.1,2.2-0.1H50.9z M63.2,44.2c0-0.4,0-0.8,0.1-1.1
		c0.1-0.1,0.1-0.2,0.1-0.3c0-0.1-0.1-0.2-0.2-0.2c-0.5-0.1-1-0.2-1.5-0.2c0.1,0.6,0.1,1.2,0.1,1.8v5.9c0,0.8,0,1.5,0,2.4
		c0,0.1,0.1,0.2,0.2,0.2c0.4,0,0.7,0,1.1,0c0.2,0,0.2,0,0.2-0.2c0-0.9,0-1.6,0-2.4v-2.7c1.1,0.4,2.2,0.9,3.2,1.5
		c0,0,0.1,0.1,0.1,0.1c0.1,0,0.1,0,0.2-0.1c0.2-0.3,0.4-0.7,0.5-1c0.1-0.2,0-0.2-0.1-0.3c-1.2-0.7-2.5-1.2-3.8-1.6V44.2z M65.3,43.4
		c0.5,0.4,0.9,0.9,1.2,1.4c0,0.1,0.1,0.1,0.2,0.1c0,0,0,0,0,0l0.5-0.4c0.1,0,0.1-0.1,0.1-0.2c0,0,0,0,0,0c-0.3-0.5-0.7-0.9-1.1-1.3
		C66.1,43,66,43,66,43L65.3,43.4z M66.4,42.7c0.5,0.4,0.9,0.9,1.2,1.4c0,0.1,0.1,0.1,0.2,0.1c0,0,0,0,0,0l0.5-0.4
		c0.1,0,0.1-0.1,0.1-0.2c0,0,0,0,0,0c-0.3-0.5-0.7-0.9-1.1-1.2c-0.1-0.1-0.1-0.1-0.2,0L66.4,42.7z M80.6,48.4c0.9,0,1.8,0,2.7,0
		c0.2,0,0.2,0,0.2-0.2c0-0.4,0-0.8,0-1.1c0-0.1,0-0.2-0.2-0.2c-0.9,0-1.8,0-2.8,0h-3.9c-0.9,0-1.7,0-2.6-0.1c0,0.5,0.1,1,0.2,1.5
		c0,0.2,0.1,0.3,0.3,0.3c0.6-0.1,1.2-0.2,1.8-0.1H80.6z M94.8,45.6c0-0.7,0-1.1,0-1.6c0-0.2,0-0.5,0.1-0.7c0-0.1,0.1-0.2,0.1-0.3
		c0-0.1,0-0.1-0.2-0.2c-0.5-0.1-1.1-0.2-1.6-0.2c0.1,0.4,0.1,0.8,0.1,1.2c0,0.5,0,1.2,0,1.8H91c-0.6,0-1.3,0-2-0.1
		c0,0.4,0,0.9,0.1,1.2c0,0.2,0.1,0.2,0.2,0.2c0.5,0,1.1-0.1,1.7-0.1h2.3c0,1-0.2,1.9-0.7,2.8c-0.7,1-1.6,1.7-2.7,2.2
		c0.4,0.2,0.7,0.4,1,0.7c0.1,0.1,0.2,0.1,0.3,0.1c0.1,0,0.2,0,0.3-0.1c1-0.5,1.9-1.4,2.6-2.4c0.6-1,0.8-2.1,0.8-3.3h1.7
		c0.7,0,1.6,0,2,0c0.2,0,0.2,0,0.2-0.2c0-0.3,0-0.6,0-0.9c0-0.2-0.1-0.2-0.2-0.2c-0.6,0-1.4,0-2.1,0H94.8z M106.2,46.6
		c-0.6,0-1.5,0-2.3-0.1c0,0.4,0,0.7,0.1,1.1c0,0.2,0.1,0.3,0.2,0.3c0.6,0,1.5,0,1.9,0h2.1c0,0.7-0.2,1.4-0.5,2
		c-0.5,1-1.3,1.7-2.2,2.2c0.4,0.1,0.9,0.2,1.3,0.5c0.1,0,0.1,0.1,0.2,0.1c0.1,0,0.1,0,0.2-0.1c0.8-0.6,1.5-1.3,1.9-2.2
		c0.4-0.8,0.6-1.6,0.6-2.4h1.5c0.9,0,1.6,0,2.3,0c0.1,0,0.1,0,0.2-0.2c0-0.3,0-0.6,0-1c0-0.1,0-0.2-0.1-0.2c-0.5,0-1.6,0.1-2.3,0.1
		h-1.5c0-0.4,0-0.7,0-0.9c0-0.1,0-0.3,0.1-0.4c0-0.1,0.1-0.1,0.1-0.2c0-0.1-0.1-0.2-0.2-0.2c-0.3-0.1-0.5-0.1-0.8-0.2
		c0.7-0.1,1.4-0.3,2.2-0.5c0.3-0.1,0.5-0.2,0.8-0.2c0.2,0,0.3,0,0.3-0.2c0-0.1-0.1-0.3-0.2-0.3c-0.3-0.3-0.6-0.6-1-0.8
		c-0.3,0.2-0.7,0.4-1,0.5c-0.6,0.2-1.3,0.4-2,0.5c-1.2,0.2-2.4,0.4-3.6,0.4c0.2,0.2,0.5,0.5,0.6,0.8c0,0.1,0.1,0.3,0.3,0.3
		c1-0.1,1.9-0.2,2.8-0.4c0,0.2,0,0.4,0.1,0.6c0,0.3,0,0.8,0,1.2L106.2,46.6z M125.3,50.6l0.4-2.5c0-0.2,0.1-0.4,0.2-0.6
		c0.1-0.1,0.1-0.1,0.1-0.2c0-0.1,0-0.2-0.1-0.2c-0.2-0.2-0.5-0.5-0.7-0.7c-0.1,0-0.1-0.1-0.2-0.1c0,0-0.1,0-0.1,0
		c-0.2,0.1-0.5,0.1-0.7,0.1h-1.7c-0.5,0-0.9,0-1.7-0.1c0,0.4,0,0.8,0.1,1c0,0.2,0.1,0.2,0.2,0.2c0.3,0,0.9,0,1.3,0h1.9l-0.4,2.9
		h-2.8c-0.6,0-1,0-1.7,0c0,0.3,0,0.7,0.1,1c0,0.2,0.1,0.2,0.2,0.2c0.6,0,1.1,0,1.6,0h4.4c0.6,0,1.1,0,1.7,0c0.2,0,0.2,0,0.2-0.2
		c0-0.2,0-0.5,0-0.8c0-0.2-0.1-0.2-0.3-0.2c-0.5,0-1,0-1.5,0H125.3z M133,50.2c0.4,0.1,0.7,0.3,1.1,0.5c0.1,0.1,0.2,0.1,0.3,0.1
		c0.1,0,0.3-0.1,0.3-0.2c1.1-1.2,2-2.5,2.6-4c0.1-0.3,0.2-0.5,0.4-0.7c0.1-0.1,0.1-0.1,0.1-0.2c0-0.1-0.1-0.2-0.1-0.2
		c-0.5-0.2-1-0.4-1.5-0.6c-0.1,0.6-0.3,1.2-0.5,1.8C135,48,134.1,49.2,133,50.2z M139.1,45.6c1.3,1.4,2.3,2.9,3,4.7
		c0,0.2,0.1,0.2,0.3,0.1c0.4-0.2,0.7-0.4,1-0.6c0.1,0,0.1-0.1,0.1-0.2c0-0.1,0-0.1-0.1-0.2c-0.7-1.6-1.8-3.1-3-4.4
		c0-0.1-0.1-0.1-0.2-0.1c-0.1,0-0.1,0-0.2,0.1C139.9,45.1,139.6,45.4,139.1,45.6z M140.9,44c0.5,0.4,0.9,0.9,1.2,1.4
		c0,0.1,0.1,0.1,0.2,0.1c0,0,0,0,0,0l0.5-0.4c0.1,0,0.1-0.1,0.1-0.2c0,0,0,0,0,0c-0.3-0.5-0.7-0.9-1.1-1.3c-0.1-0.1-0.1-0.1-0.2,0
		L140.9,44z M142,43.2c0.5,0.4,0.9,0.9,1.2,1.4c0,0.1,0.1,0.1,0.2,0.1c0,0,0,0,0,0l0.5-0.4c0.1,0,0.1-0.1,0.1-0.2c0,0,0,0,0,0
		c-0.3-0.5-0.7-0.9-1.1-1.2c-0.1-0.1-0.1-0.1-0.2,0L142,43.2z M155.3,48.4c0.9,0,1.8,0,2.7,0c0.2,0,0.2,0,0.2-0.2c0-0.4,0-0.8,0-1.1
		c0-0.1,0-0.2-0.2-0.2c-0.9,0-1.8,0-2.8,0h-3.9c-0.9,0-1.7,0-2.6-0.1c0,0.5,0.1,1,0.2,1.5c0,0.2,0.1,0.3,0.3,0.3
		c0.6-0.1,1.2-0.2,1.8-0.1H155.3z"/>
	<g id="グループ_280" transform="translate(0)">
		<g id="グループ_290">
			<g id="グループ_281">
				<path id="パス_327" class="st1" d="M151.8,10.7h0.2v-0.1C151.8,10.7,151.9,10.6,151.8,10.7z"/>
				<path id="パス_328" class="st1" d="M154.5,1.2L154.5,1.2L154.5,1.2L154.5,1.2z"/>
				<path id="パス_329" class="st1" d="M156,1.3L156,1.3L156,1.3C155.8,1.3,155.9,1.3,156,1.3z"/>
				<path id="パス_330" class="st1" d="M148.5,25.9v0.2h0.1l-0.1,0.1l0.1,0.2h-0.2c0.1,0.1,0,0,0.1,0.1v0.1h0.2
					c0,0.2,0,0.1-0.1,0.2c0.1,0.2,0,0.2,0.2,0.2c0,0.2,0,0.1-0.1,0.2v0.1c0.4,0,0.3-0.1,0.6-0.2c0.1-0.3,0.2-0.4,0.3-0.7h-0.2
					c0-0.1,0.1-0.2,0.1-0.3c0-0.2,0.1-0.4,0.1-0.6h-0.1V25h0.1c0-0.2-0.1-0.2-0.2-0.4l0.2-0.1l-0.1-0.8h0.1v-0.2h0.1l-0.1-0.2
					l0.2-0.1v-0.6h0.1c0.1-0.2,0.1-0.4,0-0.6v-0.1l0.2,0.1l0.1-0.2h-0.2v-0.2h0.2v-0.1h-0.1v-0.1h0.1V21h0.1l0.1-0.6h0.1l-0.1-0.4
					l0.2-0.1l-0.1-0.4h0.1v-0.2h0.1l0.1-0.2h-0.1l-0.1-0.2h0.1l0.1-0.4l0.2-0.1l-0.1-0.2l0.2-0.1v-0.3h0.1v-0.2c0-0.1,0.1,0,0.1-0.1
					l-0.1-0.2h0.1l0.1-0.5h0.1v-0.2c0.1-0.2,0.2-0.4,0.2-0.6h-0.1V16h0.1c0.1-0.1,0.1-0.2,0.2-0.3h-0.2l0.1-0.3c0.2,0,0.1,0,0.2-0.1
					h0.1l-0.1-0.2h0.1v-0.2h0.1l-0.1-0.2h0.1c0.1-0.2,0-0.2,0.2-0.2c0-0.3,0.1-0.5,0.1-0.8h0.2v-0.5h0.1v-0.2l0.2-0.1v-0.3
					c0.1-0.3,0.3-0.2,0.2-0.6h0.4v0.2c0.4,0,0.9,0,1.3-0.1v0.2h0.1c0-0.1,0.5-0.1,0.6-0.1v0.2c0.2-0.1,0.3-0.1,0.5,0v-0.2
					c0.3,0.1,0.6,0.1,0.9,0.1c0,0,0,0.3,0.1,0.2v-0.2l0.2,0.1v0.1l0.6-0.1v0.1h0.3v0.1c0.1,0,0.2,0,0.2-0.1c0.2,0,0.2,0.1,0.3,0.1
					h0.1v-0.1h0.3v-0.1l0.1,0.1l0.2-0.1c0.1,0.1,0.2,0.2,0.3,0.2c0.1,0.4,0.2,0.8,0.2,1.2h0.2c0,0.1,0,0.3,0.1,0.4h0.1
					c0.1,0.2,0.1,0.5,0,0.7c0.2,0.1,0.1,0,0.2,0.1c-0.1,0-0.1,0-0.1,0.1h0.1v0.2l0.2-0.1c0,0-0.1,0.2-0.1,0.3h0.1v0.2h0.1l0.2,0.3
					c-0.1,0.1-0.1,0-0.1,0.1h0.2l-0.1,0.5h0.2c0,0.1,0,0.3-0.1,0.4h0.2c-0.1,0.2,0,0.1,0,0.4h0.2c0,0.1,0,0.2-0.1,0.3l0.2,0.1v0.3
					l0.2,0.1v0.2h0.1v0.4l0.2,0.1v0.3l0.2,0.1v0.6l0.2,0.2v0.4h0.1v0.1l-0.1,0.1h0.2l0.1,0.6l0.2,0.1v0.2h0.1c0,0.1-0.1,0.3-0.1,0.4
					h0.2v0.3h-0.1v0.1h0.2c-0.1,0.2-0.1,0.2,0,0.3h0.1l-0.1,0.2L163,23H163v0.1c0.1,0.1,0,0,0.1,0.1h0.4v0.2h0.6v-0.1h0.1v0.1h0.2
					c-0.1-0.2,0-0.2-0.3-0.2V23h0.2l0.1-0.3c0,0,0.1,0,0.1-0.1h-0.1v-0.2h-0.1v-0.2H164v-0.4h-0.1l0.1-0.2l-0.2-0.1v-0.2h-0.1v-0.4
					l-0.2,0.1v-0.6h-0.2l0.1-0.2c0-0.1-0.1,0-0.1-0.2h0.1v-0.1l-0.2-0.1c-0.1-0.2,0.1-0.2,0.1-0.3l-0.2-0.1
					c-0.1-0.1,0.1-0.1,0.1-0.1c0-0.1,0,0-0.1-0.1v-0.3H163c0-0.1-0.1-0.2-0.1-0.3h-0.1l0.1-0.2l-0.2-0.1l0.1-0.2h-0.1
					c0-0.2-0.1-0.3-0.1-0.5h-0.2l0.1-0.2h-0.2l-0.1-0.5h-0.1l0.1-0.5h-0.2l-0.1-0.2c0.1-0.1,0.1,0,0.1-0.1h-0.2
					c-0.1-0.1,0.2-0.1,0.2-0.2c0-0.1-0.1-0.2-0.1-0.3l-0.2-0.1l0.1-0.2h-0.1v-0.3h-0.1c-0.1-0.3,0-0.2,0-0.3h-0.1v-0.1h0.1v-0.1
					h-0.2l-0.1-0.2h0.1V14c0,0-0.3,0-0.2-0.1h0.1v-0.2h-0.2v-0.5l-0.2-0.1l0.1-0.1c0-0.2,0-0.2-0.2-0.3v-0.1c0.2-0.1,0.4-0.1,0.6,0
					v0.1l0.6-0.1c0,0,0,0.3,0.1,0.2v-0.1c0.5,0,0.5-0.2,0.8-0.3v-0.2H163c-0.2-0.2-0.2-0.1-0.1-0.4c-0.2-0.1-0.2,0-0.2-0.2
					c-0.3,0-0.8,0.1-1-0.1H161l0.1-0.2h-0.2v0.2l-0.2-0.2c-0.1,0.1,0,0.1-0.1,0.1V11h-0.1v-0.2h-0.1l0.1-0.2h-0.2
					c0-0.1,0.1-0.2,0.1-0.3h-0.2c-0.1-0.2-0.1-0.4-0.1-0.6c0,0-0.3,0-0.2-0.1h0.1V9.6h-0.2l0.1-0.2h-0.1V9.2l-0.2-0.1V8.9h-0.1V8.5
					l-0.2-0.1l0.1-0.2h-0.2V8.2c0.1-0.1,0.1-0.1,0.1-0.3h-0.2l-0.2-0.5h0.2V7.3h-0.2c0-0.1,0-0.3-0.1-0.4h-0.1V6.5l-0.2,0.1V6.3
					h-0.1l-0.1-0.4l-0.2-0.1l0.1-0.2l-0.2-0.1c-0.1-0.2-0.1-0.4-0.2-0.6c-0.2,0-0.1,0-0.2-0.1h-0.1l0.1-0.2h-0.1V4.4h-0.1V4.1
					l-0.3-0.2c-0.1-0.1,0.1-0.1,0.2-0.1V3.7h-0.2c0-0.3-0.1-0.2,0-0.4l-0.2-0.1l-0.1,0.1c0-0.1,0-0.2-0.1-0.3h0.1V2.9h-0.1V2.7
					l-0.3-0.2l-0.1-0.4l-0.2-0.1V1.9h-0.1l-0.1-0.2h-0.2c0-0.1,0-0.2-0.1-0.3l0.1-0.1L156,1.2v0.1c0,0-0.1,0-0.1-0.1h0.1V1.1
					l-0.3-0.1c0.1-0.2,0-0.2-0.2-0.2V0.6c-0.2,0-0.2,0.2-0.2-0.1h-0.1v0.2H155V0.3l-0.6,0.2V0.3l-0.2,0.1c-0.1,0,0-0.1-0.1-0.1v0.1
					H154c0,0.2-0.1,0.4-0.1,0.6c0.2,0,0.1,0,0.2-0.1h0.2l-0.1,0.2h0.2c0,0,0,0.1,0.2,0.2V1.2h0.1l-0.1,0.1c0,0.1,0.2,0.3,0.2,0.3
					c-0.1,0.2-0.4,0.2-0.5,0.4l0.1,0.2h-0.1v0.2c0,0.1-0.2,0-0.2,0.2h0.1v0.1L154,2.7L154,3.3l-0.2,0.1l0.2,0.3l-0.2,0.1
					c-0.1,0.2,0,0.3,0,0.3h-0.1l-0.1,0.2h0.1c0,0,0,0.3-0.1,0.2V4.5h-0.1l0.1,0.3h-0.2c0,0.2,0.1,0.3,0.1,0.5h-0.2l0.1,0.4h-0.1V6
					h-0.1l-0.1,0.2l0.1,0.1h-0.1c-0.1,0.1,0.1,0.1,0.2,0.1v0.1h-0.2l-0.1,0.3c0,0.1,0.1,0,0.1,0.1h-0.2c0.1,0.2,0.1,0.5,0,0.7
					c0,0-0.3,0-0.2,0.1h0.2c-0.1,0.3-0.1,0.2-0.1,0.6c-0.2,0-0.1,0-0.2,0.1h-0.1c0,0.1,0.1,0.1,0.2,0.2c0,0.1-0.1,0.1-0.2,0.2v0.2
					h-0.1l0.1,0.3h-0.1v0.2l-0.2,0.1l0.1,0.2l-0.2,0.1v0.3c0,0.1-0.1,0-0.1,0.1h0.1v0.1h-0.1v0.5c-0.2-0.2-0.1,0.1-0.3,0v-0.1h-0.1
					v0.1h-0.2c0.1-0.1,0,0,0.2-0.1v-0.1l-0.4,0.1v-0.2l-0.2,0.1v-0.1c0,0,0.2,0,0.1-0.1l-0.5-0.1v-0.1h-0.2v-0.1l-0.2,0.1l-0.1-0.2
					h-0.1v0.1c0,0-0.3,0-0.2-0.1h0.1V10h-0.2v0.1c-0.3,0-0.6,0-0.6,0.2l0.1,0.2l-0.2,0.1v0.1h0.2c0.1,0.2,0.1,0.2,0.2,0.3
					c0.2-0.1,0.2,0,0.2-0.2h0.1l-0.1,0.3c0.4,0,0.5,0.2,0.8,0.2v0.2c0.1-0.2,0.4,0.1,0.6,0.2l0.2-0.1v0.1l0.2,0.1v-0.1
					c0.1,0,0.1,0.2,0.2,0.2v-0.2h0.1v0.2h0.2c-0.1,0.1,0,0-0.2,0.1c0.1,0.1,0,0,0.2,0.1v0.1h-0.2v0.1c0.1,0,0.1,0,0.1,0.1h-0.1v0.1
					l0.1,0.1h-0.2v0.4l-0.2,0.1v0.2l-0.2,0.1l-0.1,0.3h-0.1c-0.1,0.1,0,0.3,0.1,0.4v0.1l-0.2,0.1c0,0.2-0.1,0.3-0.1,0.5l-0.2,0.1
					l0.1,0.4l-0.2,0.1v0.2h-0.1c-0.1,0.2,0,0.2,0.1,0.3h-0.2c0,0.3-0.1,0.7-0.1,1l-0.2,0.1v0.2l-0.2,0.1l0.1,0.2c0,0-0.1,0-0.1,0.2
					c0.1,0,0.1,0.1,0.1,0.2c0,0,0,0,0,0h-0.1v0.2H150v0.2l-0.2,0.1c0,0.1,0.2,0.2,0.1,0.3l-0.2,0.2l0.1,0.2h-0.1l0.1,0.2l-0.2,0.1
					c-0.2,0.4,0.2,0.5-0.2,0.8c0,0.1,0.1,0.1,0.2,0.2c-0.1,0.1-0.2,0.1-0.2,0.2c-0.1,0.1,0,0,0.1,0.1v0.2h-0.1l0.1,0.2h-0.1
					c-0.1,0.1,0,0-0.2,0.1c0.1,0.1,0,0,0.2,0.1v0.2c-0.2,0-0.1,0-0.2,0.1H149c0,0,0,0.3,0.1,0.2v-0.1h0.1c0,0.1,0,0.2-0.1,0.3H149
					l0.1,0.2l-0.2,0.2v0.1h0.1c0,0.2-0.1,0.2-0.1,0.2l0.1,0.2l-0.2,0.1l0.2,0.3h-0.2V23h0.1v0.4h-0.2c0,0.3-0.1,0.6-0.2,0.8h0.2
					l-0.2,0.5c0.1,0,0.1,0.1,0.1,0.2h-0.1v0.1c0,0.1,0.1,0,0.1,0.2h-0.1v0.1h0.1l0.1,0.2l-0.2-0.1C148.5,25.5,148.4,25.7,148.5,25.9
					L148.5,25.9z M153.9,9h0.2c-0.1-0.4-0.2-0.5,0.2-0.6V8L154,8.1c0.1-0.2,0.1-0.2,0.2-0.4h-0.1V7.6l0.2-0.1V6.7l0.2-0.1V6.3h0.1
					c0-0.1-0.1-0.1-0.1-0.3h0.1l0.1-0.2h-0.1V5.2h0.1V5.1l0.2-0.1c0.1-0.2,0-0.5,0-0.6l0.2-0.1L154.9,4c0.1,0.1,0,0,0.1,0.2h0.1
					c0.1-0.2-0.1-0.3-0.1-0.4h0.1V3.6h0.1V3.2h0.1l0.2-0.5h-0.1V2.7c0.1,0.1,0.3,0.2,0.5,0.2l0.2,0.8l0.2,0.1V4h0.1
					c0.1,0.1,0.2,0.2,0.2,0.4h0.2l-0.1,0.3h0.2c-0.1,0.1-0.1,0.4,0,0.5h0.1v0.2l0.3,0.2v0.2l0.2-0.1v0.4h0.1v0.2l0.2,0.1v0.3h0.1
					v0.1c0,0.1-0.1,0-0.1,0.1l0.2,0.1v0.1h-0.1v0.2l0.2,0.1l0.1,0.1v0.3l0.2,0.1L158.1,8l0.1,0.4l0.2,0.1l-0.1,0.2h0.1l0.1,0.2h-0.1
					v0.1l0.2,0.2v0.5h0.1c0.1,0.1,0.1,0.2,0.1,0.3h0.2v0.4c0.2,0.1,0.1,0,0.1,0.2l0.2-0.1l-0.2,0.2h0.1c0,0.4,0,0.4,0.2,0.6v0.1
					l-0.6-0.1v0.1h-0.1v-0.1c-0.3,0-0.5,0-0.7,0.2v-0.2h-0.7v-0.1c-0.2,0-0.4,0.1-0.4,0.1v-0.1l-0.2-0.1V11l-0.2,0.1v0.1l-0.5-0.1
					V11l-0.7,0.1V11l-0.2,0.1l-0.1-0.2l-0.4,0.1V11l-0.7,0.1v-0.2c-0.2,0-0.1,0-0.2,0.1c-0.1-0.1,0,0-0.1-0.2
					C153.4,10.6,153.8,9.6,153.9,9L153.9,9z"/>
				<path id="パス_331" class="st1" d="M171.7,14.7l0.2,0.1v0.1l0.2,0.1l0.1,0.2l0.5-0.1v0.1h0.2l0.1,0.2l0.5,0.1l0.1,0.2l0.2-0.1
					v0.1h-0.1c0,0.1,0.1,0.1,0.2,0.2l-0.1,0.2c0,0,0.1,0,0.1,0.2l-0.2,0.1l0.1,0.2h-0.1v0.1c0,0,0.2,0,0.2,0.2l-0.2,0.1v0.2h0.2v0.2
					l-0.2,0.1V17h0.1l-0.1,0.2h0.2c0.1,0.1,0,0-0.1,0.1l0.1,0.4l-0.2,0.1V18h0.2l-0.2,1h0.2c-0.1,0.3-0.1,0.6-0.1,1h0.1
					c0,0.1-0.1,0.2-0.1,0.2c0,0.2,0.1,0.2,0.1,0.2l-0.1,0.5c0.2,0,0.1,0,0.2-0.1h0.1L174,21h-0.2l-0.1,0.5h0.2
					c0,0.1-0.1,0.1-0.2,0.2c0,0.1,0,0.2,0.1,0.2c0,0.1-0.1,0-0.1,0.1c0,0.3,0.3,0.2-0.1,0.5c0.1,0.1,0,0,0.2,0.1v0.2
					c0.2,0,0.1,0,0.2,0.1h-0.2c-0.1,0.2-0.1,0.4,0,0.6h0.1v0.2h0.1v0.2l0.2-0.1l-0.1,0.2h0.2c-0.1,0.1-0.1,0.1,0,0.2v0.1
					c0.1,0.1,0.3-0.1,0.3-0.1v0.2c0.2,0,0.5-0.2,0.6-0.3c0,0,0.1,0,0.1-0.1h-0.1v-0.1c0.1,0,0.1-0.1,0.2-0.2h-0.2
					c0.1-0.2,0.1-0.2,0.2-0.4c-0.1,0-0.2-0.1-0.3-0.1c0-0.4,0-0.4-0.2-0.6c0.1,0,0-0.1,0.1-0.1v0.1h0.2v-0.1H175
					c0.1-0.2,0.1-0.3,0.1-0.5H175V22h0.1v-0.6h0.1v-0.1H175c0-0.2-0.1-0.3-0.1-0.5h0.1v-0.3h0.1l-0.1-0.4c0.1-0.1,0.1-0.2,0.1-0.2
					H175l-0.1-0.3h0.1l-0.1-0.2h0.1v-0.4h0.1v-0.1c-0.1,0-0.1,0-0.2-0.1c0,0,0,0,0,0l0.2-0.1v-0.1H175v-0.5H175
					c-0.1-0.3,0.3-0.3,0.2-0.6l-0.2-0.1l0.2-0.3H175l0.1-0.2c0,0-0.1-0.1-0.1-0.2h0.1c0-0.2-0.1,0-0.2-0.1s0.1-0.1,0.1-0.1
					c0-0.1,0-0.1-0.1-0.2v-0.1h0.1c0-0.1,0-0.3-0.1-0.4l0.2-0.1c0.1,0.4,0.2,0.2,0.4,0.4l-0.1,0.2l0.3,0.2v0.2l0.2,0.2
					c0.2,0.2,0,0.2,0.4,0.4v0.2c0.5,0.1,0.7,0.6,1.2,0.9v0.2h0.2v0.2h0.2v0.2h0.2v0.2h0.2l0.1,0.3c0.5,0.1,0.4,0.3,0.7,0.5v0.2
					c0.2,0,0.1,0,0.2-0.1h0.1v0.4h0.2c0.1,0.3,0.3,0.3,0.4,0.5l0.1,0.2l0.2-0.1v0.2h0.2v0.2h0.1l-0.1,0.2h0.1v0.1l0.2-0.1
					c0.1,0.3,0.1,0.4,0.4,0.5c0,0.1,0.1,0.3,0.2,0.4h0.1v0.2h0.1c0-0.1,0-0.1,0.1,0h0.1c0.2,0.3,0,0.3,0.4,0.5v0.2h0.2v0.2h0.2
					c0,0.2,0,0.1,0.1,0.2v0.1l0.2-0.1l0.1,0.2h0.1v-0.1h0.3l0.1-0.2h0.1c0.1,0.1,0.1,0.1,0.2,0.1l-0.1-0.2v-0.1h0.1
					c0-0.2-0.1-0.4-0.2-0.6v-0.1h-0.2v-0.2c-0.3-0.1-0.3-0.3-0.6-0.5v-0.2l-0.2-0.1l-0.1,0.1l0.1-0.2l-0.2-0.2v-0.2l-0.2-0.1v-0.1
					h-0.2v-0.3h-0.2c0-0.2,0-0.1-0.1-0.2v-0.1h-0.2c0-0.2,0-0.1-0.1-0.2c-0.1-0.2,0-0.2-0.2-0.2v-0.2c-0.1-0.2-0.3,0.1-0.4-0.5h-0.3
					v-0.2c0-0.1-0.2,0-0.2-0.2h0.1v-0.1h-0.2v-0.2c-0.1,0.1-0.2,0.1-0.2,0v-0.2c0,0-0.1-0.1-0.2-0.2h-0.2v-0.2l-0.2,0.1v-0.1h-0.2
					v-0.2c-0.2-0.1-0.2-0.1-0.4-0.2v-0.2h-0.2l-0.1-0.2H178c0-0.2,0-0.1-0.1-0.2V17h-0.2c-0.1-0.4-0.2-0.3-0.3-0.5h-0.1v-0.2h-0.2
					c0-0.3-0.1-0.2-0.2-0.5l-0.2,0.1v-0.1h-0.2c0-0.1,0.1-0.2,0.1-0.3c0.2,0,0.5,0,0.7,0c0-0.2,0-0.1,0.1-0.2v0.2h0.2v-0.2l0.2,0.1
					c0.1,0,0,0,0.1-0.1h0.1l-0.1,0.2c0.2-0.1,0.2,0,0.2-0.2l0.2,0.1l0.1-0.2l0.3-0.1V15c0.1,0,0,0,0.1,0.1h0.1V15l0.3,0.1V15
					l0.2-0.1l0.1-0.2c0.1,0,0,0,0.1,0.1h0.1v-0.1h0.6l0.1-0.2l0.6-0.1l0.1-0.2h0.1l-0.1,0.2h0.1v0.1c0.1,0,0.3-0.1,0.4-0.2v-0.1h0.2
					l0.1-0.2l0.2,0.1l0.1-0.2c0.3-0.1,0.4,0.1,0.6,0v-0.1c0.3-0.2,0.1-0.2,0.4-0.1v-0.2h0.2v-0.2h0.2l0.2-0.2h0.2v-0.1h0.1V13h0.1
					c0.2-0.2,0.3-0.3,0.3-0.6h0.2v-0.2h0.1c0-0.1,0.1-0.2,0.1-0.3h-0.1v-0.1l0.2,0.1c0.1-0.2,0.1-0.4,0.2-0.6h0.1l-0.1-0.2
					c0.1-0.1,0.1,0,0.2-0.2h-0.1l0.2-0.3h-0.1v-0.3l0.2,0.1c0.1-0.1,0.1-0.3,0.2-0.4h-0.2c0-0.1,0.2-0.1,0.2-0.4h-0.1V9.5
					c0.1-0.1,0.1,0,0.1-0.1l-0.2-0.1V9.3h0.1V8.8c0,0,0.1,0,0.1-0.2c0,0-0.1,0-0.1-0.2c0-0.1,0.1,0,0.1-0.1h-0.1V8.3h0.1V8.2h-0.1
					c0-0.2,0.1-0.2,0.1-0.3c0-0.1-0.1,0-0.2-0.2h0.1V7.6h-0.2l0.2-0.5L185.4,7v0.1h-0.1c0-0.1,0.1-0.1,0.2-0.2l-0.2-0.2l0.1-0.1
					h-0.2V6.4h-0.1l0.1-0.2h-0.1V6h-0.1V5.8H185v0.1H185V5.8h-0.1l0.1-0.2h-0.1V5.4l-0.4-0.1l0.1-0.2L184.3,5
					c-0.1-0.4-0.1-0.1-0.3-0.2l-0.1-0.2h-0.2l-0.2-0.2V4.3l-0.2-0.1L183.3,4h-0.2c0-0.1-0.1-0.2-0.1-0.2h-0.3c0,0,0-0.3-0.1-0.2v0.1
					h-0.1l0.1-0.2h-0.1c-0.1-0.2-0.3-0.3-0.6-0.2V3.1c-0.3,0-0.2-0.1-0.5-0.2V2.7h-0.1v0.1L181,2.7c-0.1-0.4-0.1-0.1-0.3-0.2
					l-0.1-0.2l-0.5-0.2V2l-0.8-0.1c0-0.2,0-0.1-0.1-0.2V1.7l-0.3,0.1V1.7h-0.4l0.1-0.2c-0.2,0.1-0.5,0.1-0.7,0V1.4l-0.3,0.1
					l-0.1-0.2c-0.1,0-0.1,0.1-0.2,0.1c-0.2,0-0.3,0-0.5-0.1v0.1h-0.5V1.4c-0.1,0-0.2,0.1-0.2,0.1l-0.2-0.1c-0.1,0,0,0.2-0.2,0.2V1.4
					c-0.1,0-0.2,0.1-0.3,0.1c-0.1,0,0-0.2-0.2-0.2v0.1l-0.4,0.1l-0.1-0.2h-0.2l-0.1,0.2h-0.2V1.4H174v0.1h-0.1c-0.1,0,0-0.1-0.2-0.1
					c-0.1,0,0,0.1-0.1,0.1V1.4c-0.2,0-0.2,0.1-0.3,0.1V1.4h-0.1c0,0.1-0.1,0.1-0.2,0.1V1.4c-0.4,0-0.5,0.3-1,0.2l-0.3,0.6
					c0.1,0.1,0.2,0.2,0.3,0.2c0,0,0-0.1,0.2-0.1v0.1h0.2v0.1h0.3l0.1,0.2l0.2-0.1v0.2l0.2-0.2v0.1h0.4c0,0,0,0.1,0.2,0.1V2.6h0.4
					v0.1h0.6V2.5h0.1v0.2c0.3-0.1,0.5,0,1-0.1V2.5h0.1v0.1l0.5,0.2l0.1-0.2c0.4,0.1,0.8,0.1,1.1,0v0.2h0.1V2.7l0.4,0.1V2.7h0.1
					c0,0.1-0.1,0.2-0.1,0.2c0.1-0.1,0.3-0.1,0.4-0.2v0.2l0.2-0.1l0.1,0.2l0.2-0.1l0.1,0.2c0.1,0,0.1-0.1,0.3-0.1v0.1h-0.1v0.1h0.3
					v0.1c0.1,0.1,0.3,0.2,0.5,0.2v0.2l0.5,0.1c0,0.1,0.1,0.2,0.1,0.2h0.3v0.2c0.2,0.1,0.2,0.1,0.4,0.2v0.2l0.4,0.1l0.1,0.2h0.2v0.1
					c0.1,0.1,0.1,0.1,0.3,0.1l0.1,0.3c0.2,0,0.4,0.1,0.6,0.2v0.2l0.2,0.1v0.1c0.2,0.2,0.2-0.1,0.3,0.2h0.2v0.2h0.2
					c0,0.1,0,0.2,0.1,0.3h0.1V7l0.2,0.1c0,0-0.1,0.2-0.1,0.3h0.1v0.3h0.1L184.4,8h0.1v0.2h0.1v0.1h-0.1c0,0.3,0.1,0.3,0,0.6h0.2
					c0,0.1,0,0.3-0.1,0.4h-0.1l0.1,0.6h-0.1v0.2l-0.2,0.2l0.1,0.2h-0.1v0.2h-0.1v0.2h-0.1l0.1,0.1c0,0.1-0.1,0.1-0.1,0.3h-0.2
					c0,0.1,0.1,0.2,0.1,0.2c0,0.1-0.2,0.1-0.2,0.2h0.1v0.1l-0.2,0.1c-0.1,0.4-0.2,0.4-0.3,0.7l-0.7,0.2l-0.1,0.2h-0.3L182,13h-0.6
					l-0.1,0.2l-0.4,0.1v0.2l-0.1-0.1c-0.1,0,0,0.1-0.1,0.1h-0.3v0.1l-0.4-0.1v0.2l-0.2,0.1c-0.2-0.1,0.1-0.1-0.1-0.2l-0.2,0.2h-0.3
					v-0.1l-0.4,0.1c0,0.2,0,0.1-0.1,0.2c-0.2,0.1-0.3,0-0.6,0.1l-0.1,0.2L178,14v0.1h-0.2v0.1h-0.2v0.1h-0.4l-0.2,0.2l-0.5-0.2v0.1
					c0,0-0.3,0-0.2-0.1h0.1v-0.1h-0.2v0.2h-0.6v-0.1h-0.1c0-0.1-0.1-0.3-0.1-0.4l-0.2-0.1l-0.1-0.3h0.1v-0.3l-0.2,0.1
					c0-0.1,0.1-0.3,0.1-0.4h0.1l-0.1-0.5h0.1c0-0.1-0.1-0.2-0.1-0.4h0.1l-0.1-0.2h0.1v-0.1l-0.2-0.2v-0.1l0.2,0.1v-0.3H175v-0.1h0.1
					v-0.4c0,0,0.1,0,0.1-0.2c0-0.1-0.2,0-0.2-0.3h0.1v-0.2h0.1c0-0.1-0.1-0.1-0.2-0.2c0-0.1,0.1,0,0.1-0.1V9.6h0.1L175,9.3
					c0,0,0.1-0.1,0.2-0.2H175c0.1-0.2,0.1-0.4,0-0.6h-0.1c0-0.1,0,0,0.1-0.1c0-0.1-0.1,0-0.1-0.1c-0.1-0.2,0.1-0.4,0.1-0.5l-0.2-0.1
					c-0.1-0.2-0.1-0.5,0-0.7c-0.2,0-0.1,0-0.2-0.1h0.2c0-0.2-0.1-0.2-0.2-0.3c0.1-0.1,0.1,0,0.2-0.2l-0.2-0.1l0.2-0.3h-0.1V5.7h0.1
					V5.6c-0.1-0.2,0-0.6-0.1-0.8l-0.2,0.1V4.4c-0.2,0.1-0.4,0.1-0.6,0.1c-0.1,0.4-0.2,0.1-0.4,0.4h-0.1c0,0.1,0.1,0.2,0.1,0.2
					c0,0.1-0.1,0-0.1,0.1h0.1v0.6l-0.2,0.1v0.2h0.2v0.1c-0.2,0,0,0.2,0,0.2h-0.1v0.6l0.2,0.1c0.1,0.2-0.1,0.2-0.1,0.3h0.1v0.2h0.1
					v0.6l0.2,0.1c0,0.1,0,0.1-0.1,0.2c0,0,0,0,0,0l0.1,0.3c-0.1,0.1-0.1,0-0.2,0.1h0.2L173.8,9l0.2,0.1c0,0.1-0.1,0.2-0.1,0.3h0.1
					l-0.1,0.5h0.1c0,0.1-0.1,0.1-0.1,0.2c0,0.2,0.1,0.2,0.1,0.3h-0.1c-0.1,0.1-0.1,0.2-0.1,0.3c0.2,0,0.1,0,0.2-0.1h0.1
					c-0.1,0.1-0.1,0.1-0.2,0.3h0.2c0,0.1-0.1,0.1-0.2,0.2v0.4h0.1l-0.1,0.3h0.2v0.2c-0.2,0.1-0.2,0-0.2,0.2h0.2v0.2
					c-0.2-0.1-0.4-0.1-0.6-0.2c0.1-0.1,0.1-0.1,0.2-0.2l-0.1-0.1l-0.2,0.1l-0.1-0.2h-0.2v-0.1h-0.1c-0.1,0.1-0.2,0.2-0.3,0.3
					c0,0.1-0.1,0.2-0.1,0.2l0.2,0.2c0.1-0.1,0-0.1,0.1-0.1l-0.1,0.2c0.1,0,0.3,0.1,0.3,0.1l-0.1,0.2h0.2v0.2l0.2,0.1
					c0,0.1,0.1,0.2,0.1,0.2l0.2,0.1l-0.1,0.2h0.2c0.1,0.1,0.1,0.2,0.2,0.3v0.2c-0.2-0.1-0.1-0.1-0.3,0l-0.1-0.2l-0.6-0.2v-0.2
					l-0.3,0.1c-0.1-0.1-0.2-0.1-0.2-0.1c-0.1,0-0.2,0.3-0.2,0.3c0-0.1,0-0.1-0.2-0.1l0.1,0.2c-0.2,0.1-0.2,0-0.2,0.2h0.2L171.7,14.7
					z"/>
				<path id="パス_332" class="st1" d="M137.4,29.1L137.4,29.1L137.4,29.1l0.4-0.1v-0.1L138,29l0.1-0.2c0.2-0.1,0.4-0.2,0.6-0.2
					l0.1-0.2c0.2-0.1,0.5-0.2,0.7-0.2l0.1-0.2c0.2,0,0.1,0,0.2,0.1c0.1-0.1,0.1-0.2,0.2-0.2h0.2l0.1-0.2l0.4-0.1l0.1-0.2h0.3v-0.2
					c0.2-0.1,0.2,0,0.2-0.2l0.4-0.1c0.1-0.2,0.1-0.2,0.2-0.4h0.2v-0.2h0.2c0-0.2,0.1-0.3,0.2-0.5l0.2-0.1c0.2-0.3-0.2-0.4,0.3-0.5
					c0-0.1,0.1-0.2,0.2-0.3h0.1c0.1-0.1-0.1-0.1-0.1-0.1v-0.1h0.2l-0.1-0.2h0.1l0.1-0.2c-0.1-0.1-0.1,0-0.1-0.1l0.2-0.1
					c0.2-0.2,0.1-0.2,0.1-0.6c0.2,0,0.1,0,0.2-0.1c0.2-0.2,0.1-0.5,0.2-0.8h0.1c0-0.1,0,0-0.1-0.1c0-0.2,0.1-0.2,0.1-0.2l-0.1-0.2
					h0.2l-0.1-0.2h0.1v-0.3h-0.1v-0.2h-0.1l0.1-0.2h-0.1c0-0.2,0.1-0.4,0.1-0.6l-0.2-0.1v-0.2l-0.2-0.1c0-0.1,0.1-0.1,0.2-0.1
					l-0.2-0.5c-0.1-0.1-0.1,0.1-0.2-0.1l0.2-0.1c-0.1-0.2-0.3-0.3-0.5-0.3c-0.1-0.3-0.2-0.3-0.2-0.6h-0.2c-0.1-0.4-0.1-0.1-0.3-0.2
					l-0.2-0.3h-0.3c0-0.2,0-0.1-0.1-0.2V18h-0.2v-0.2c-0.1,0.1-0.4-0.1-0.6-0.2l-0.1-0.2l-0.2,0.1l-0.2-0.2h-0.4l-0.1-0.2
					c0,0-0.3,0-0.2-0.1h0.1v-0.1l-0.7-0.1v-0.3l-0.2,0.1v-0.2c-0.2,0-0.3-0.1-0.5-0.2v-0.1h-0.4l-0.2-0.2h-0.3l-0.2-0.2
					c-0.2-0.1-0.2,0-0.3,0c0-0.1-0.1-0.2-0.1-0.2c-0.2-0.1-0.2,0.1-0.3,0.1v-0.2l-0.2,0.1c0-0.2,0-0.1-0.1-0.2v-0.1l-0.5-0.1
					l-0.1-0.2l-0.2,0.1l-0.2-0.2l-1.1-0.2v-0.2l-0.2,0.1v-0.1h-0.2l0.1-0.2l0.6-0.2l0.2,0.1v-0.1h0.2v-0.1h0.6l0.1-0.2l0.3-0.1v-0.2
					h0.4v-0.1c0.1-0.1,0.3-0.2,0.4-0.2c0.1-0.4,0.2-0.2,0.4-0.4h0.1v-0.2c0.3,0,0.5-0.1,0.6-0.3l0.1-0.2c0.1-0.1,0.3-0.1,0.4-0.2
					v-0.2h0.1l0.1-0.2l0.2,0.1v-0.1c0.3-0.2,0.1-0.3,0.5-0.3v-0.3l0.2,0.1v-0.2l0.4-0.1c0.1-0.2,0-0.2,0.2-0.2
					c0-0.5,0.3-0.9,0.2-1.4H140c0-0.1,0.1-0.3,0.1-0.4H140V8.4h-0.1L140,8L139.8,8c0.1-0.1,0.1-0.3,0.1-0.4h-0.1V7.5h0.1l-0.2-0.3
					h-0.1V6.8l-0.2-0.1l0.1-0.2h-0.1V6.5h0.1V6.4h-0.2l-0.3-0.6h0.1V5.7h-0.2l-0.1-0.2l-0.2-0.1l-0.1,0.1c0-0.1-0.1-0.2-0.1-0.3
					c-0.4,0-0.2-0.1-0.6-0.2c0-0.2,0-0.1-0.1-0.2V4.7l-0.2,0.1V4.7c-0.2-0.1-0.4-0.1-0.6-0.2V4.3l-0.2,0.1V4.2l-0.2,0.1V4.1
					c-0.2,0-0.3,0-0.5,0V3.9l-0.4-0.1V3.8h-0.4L135,3.5l-0.5,0.1V3.5H134c0,0,0-0.1-0.2-0.1c0,0.1-0.1,0.1-0.2,0.1h-0.1V3.5h-0.3
					v0.1L133,3.5v0.1c-0.1,0-0.3-0.1-0.5-0.1v0.1c-0.2,0-0.4,0-0.6-0.1V3.4c-0.1,0-0.1,0.1-0.2,0.1L131,3.4v0.1l-0.2,0.1V3.4
					l-0.5,0.1v0.1c-0.1,0,0-0.1-0.1-0.1h-0.2V3.4h-0.1v0.1c-0.1,0-0.1,0-0.2-0.1h-0.1v0.1c-0.2,0-0.2-0.1-0.3-0.1l-0.1,0.2L129,3.5
					v0.1h-0.2c-0.1,0,0,0.1-0.1,0.1c0,0,0-0.1-0.2-0.1l-0.1,0.2h-0.2v0.1h-0.2v0.1c-0.1,0-0.2-0.1-0.4-0.1v0.1h-0.2v0.1
					c-0.1,0,0,0-0.1-0.1l-0.2,0.1V3.9h-0.1v0.1H127V4l-0.2-0.1V4c-0.2,0.1-0.4,0.1-0.6,0c-0.1,0.1-0.1,0-0.2,0.2h0.1v0.1H126V4.1
					h-0.2v0.4c0.1-0.1,0,0,0.1-0.2h0.1v0.3h0.3c0-0.2,0-0.1,0.1-0.2V4.4h0.1l-0.1,0.2h0.5v0.1h0.2v0.1l0.2-0.2v0.1h0.2L127.4,5h0.2
					V4.8c0.4,0,0.3,0.1,0.6-0.1v0.2h0.2c0-0.2,0-0.1-0.1-0.2V4.7c0.2,0.1,0.4,0.1,0.6,0c0,0.2,0.1,0.4,0.2,0.6h0.1L129,5.6H129
					l0.1,0.2H129v0.5h-0.1l0.1,0.4h0.1v0.1H129V7l-0.2,0.1c0,0.1,0.1,0.1,0.2,0.2v0.2h-0.2c-0.1,0.1,0.1,0.1,0.1,0.1l-0.1,0.2
					c0.2,0,0.1,0,0.2,0.1L128.7,8c0,0.1,0,0.2,0.1,0.3h-0.1v0.2h-0.1c0.1,0.2,0.1,0.3,0.1,0.5c0,0.1-0.1,0-0.1,0.1
					c0.1,0,0.1,0,0.2,0.1l-0.2,0.1l-0.1,0.4h-0.1l0.1,0.2c0,0-0.1,0-0.2,0.2h0.1l0.1,0.2c-0.2,0.1,0,0.2-0.2,0.6h-0.1l0.1,0.2
					c-0.1,0-0.1,0.2-0.1,0.2c0,0.1,0.2,0,0.2,0.2h-0.1v0.2h-0.1c-0.1,0.2,0.1,0.2,0.1,0.3h-0.1l-0.1,0.6h-0.1c0,0.1,0.2,0.2,0.2,0.2
					V13h-0.1V13h0.1l-0.1,0.1l0.1,0.2c-0.2,0-0.1,0-0.2-0.1c-0.4,0.1-0.4,0.2-0.7,0.3l-0.1,0.3l-0.8-0.1l-0.1,0.2l-0.5,0.2l-0.2,0.6
					l0.7,0.2v0.1h0.5v0.1h0.3l0.1-0.2l0.2,0.1v0.1h0.1v-0.1h0.3V15h0.1v0.2l0.2,0.2c0,0.1-0.1,0.1-0.2,0.2c0,0.1,0.1,0.1,0.1,0.3
					c0,0-0.1,0-0.1,0.2h0.1c0.1,0.2,0,0.4-0.2,0.5c0.1,0.1,0,0,0.2,0.1c-0.1,0.3,0,0.4-0.1,0.7h0.2l-0.1,0.4h-0.1
					c0,0.2,0.2,0.3,0.1,0.6c0,0.1-0.2,0-0.2,0.2h0.1v0.3h0.1c0,0.1,0,0.2-0.1,0.2c0,0.2,0.1,0.2,0.1,0.2c0.1,0.3-0.1,0.3,0,0.6h-0.2
					l0.1,0.2h0.1c-0.1,0.2-0.1,0.3-0.1,0.5h0.1l-0.2,0.2l0.2,0.1l-0.1,1h0.1v0.5c0,0-0.1,0-0.1,0.2c0.1,0,0.1,0.1,0.1,0.2
					c0,0.1-0.1,0-0.1,0.1c0.1,0.1,0.1,0.2,0.1,0.2c0,0-0.1,0-0.1,0.2h0.1l-0.1,0.2c0,0.1,0.1,0,0.1,0.1c-0.1,0.1-0.1,0.2-0.1,0.2
					h0.1c0,0.2-0.1,0.2-0.1,0.2c0,0.1,0.1,0.1,0.1,0.3c0,0-0.1,0-0.1,0.2c0.1,0,0.1,0.1,0.1,0.2c-0.1,0-0.1,0.1-0.1,0.2h0.1v0.2h0.1
					c0,0.1-0.1,0.1-0.2,0.2l0.1,0.2h-0.2c0.1,0.1,0.1,0.3,0.2,0.4h0.1l-0.1,0.2h-0.1c0,0.2,0.1,0.1,0.1,0.2l-0.1,0.2h0.1
					c0,0.1-0.2,0.2-0.1,0.3h0.1v0.1c-0.2,0-0.4-0.1-0.6-0.2l-0.1-0.2l-0.2,0.1l-0.1-0.2c-0.1-0.1-0.1,0.1-0.1,0.1
					c-0.1,0-0.1-0.1-0.2-0.2H127v0.1l-0.3-0.1c-0.2,0.1-0.4,0.3-0.6,0.3v0.2l0.2-0.1l-0.1,0.2c0,0.1,0.1,0,0.1,0.1
					c0,0.1-0.1,0-0.2,0.2l0.5,0.2c0,0,0,0.3,0.1,0.2v-0.1h0.1v0.1h0.1v-0.1h0.1l-0.1,0.2c0.3,0,0.6,0.2,0.9,0.4h0.3
					c-0.1,0.1,0.1,0.5,0.2,0.6l0.5,0.1c-0.1,0.1,0,0-0.2,0.1v0.1c0.3,0,0.3,0,0.5-0.2h-0.1v-0.1h0.2v-0.1c0.1-0.1,0.2-0.1,0.2-0.2
					c0.3,0,0.3,0,0.4,0.2c0.2,0,0.4,0,0.6,0c0,0,0,0.3,0.1,0.2v-0.1h0.4l-0.1,0.2h0.3v0.2h0.2v-0.1c0.1,0,0.5,0.1,0.7,0.1V29h0.1
					c0-0.1,0.2-0.1,0.3-0.1l0.2,0.1v0.1l0.3-0.1l0.1,0.2c0.2-0.1,0.4-0.1,0.6-0.1v0.1h0.1c0.1,0,0-0.1,0.2-0.1v0.1h0.1
					c0.1,0,0-0.1,0.2-0.1v0.1h0.1v-0.1l0.7,0.1v-0.1h0.2v-0.1h0.1v0.1h0.4v-0.1h0.1v0.1c0.1,0,0.3,0,0.4-0.1v0.2
					c0.2,0,0.4,0,0.6-0.1v-0.1h0.2V29L137.4,29.1z M127,4c0.2,0,0.1,0,0.2,0.1C127,4.1,127.1,4.1,127,4L127,4z M128.7,9.7L128.7,9.7
					l-0.1-0.2h0.1V9.7z M129.5,12.3L129.5,12.3L129.5,12.3L129.5,12.3v-0.4h0.1l-0.1-0.2h0.2l-0.2-0.2h0.1l0.1-0.5h-0.1v-0.1h0.1
					v-0.1h-0.1v-0.1h0.1v-0.2h0.1l-0.1-0.2l0.2-0.1c0,0-0.1-0.3-0.1-0.5l0.2-0.1c0-0.1-0.2-0.3-0.1-0.6l0.2-0.1l-0.1-0.4h0.1
					c0.1-0.2,0-0.2,0-0.4h0.2c0.1-0.1-0.1-0.1-0.2-0.1V8.1h0.1c0-0.1-0.1-0.2-0.1-0.3h0.2c0-0.2-0.2-0.4-0.1-0.6l0.2-0.1
					c0-0.1,0-0.1-0.1-0.2c0,0,0,0,0,0V6.8h0.1l-0.1-0.2h0.1c0,0,0-0.3-0.1-0.2v0.1H130c0-0.1,0.1-0.1,0.2-0.2
					c0.1-0.3-0.2-0.5-0.2-0.8h0.1l0.1-0.2H130c0.1-0.3,0.1-0.2,0-0.5h0.2V4.6c0,0,0.3,0,0.2,0.1h-0.1v0.1l0.4-0.1l0.1-0.2
					c0.2-0.1,0.2,0.1,0.2,0.2h0.2v0.1l0.8-0.2v0.1c0.2,0,0.3-0.1,0.4-0.1v0.1c0.3,0.1,0.6,0.1,0.9,0v0.2l0.2-0.1V4.7l0.2,0.1h0.5
					V4.7h0.2v0.1l0.2-0.1v0.2l0.5,0.1V5l0.2-0.1l0.1,0.2h0.2v0.1c0.1,0.1,0.3,0.1,0.4,0.1v0.2l0.5,0.1v0.2l0.3,0.1v0.2h0.2V5.8h0.1
					V6l0.5,0.2v0.2l0.3,0.1l0.1,0.5c0.2,0.1,0.1,0,0.2,0.2h-0.1c0,0.1,0.1,0.1,0.2,0.1c0.1,0.2,0.2,0.5,0.2,0.7h0.2
					c-0.1,0.3-0.1,0.6,0,0.9l0.2,0.1c0.1,0.3-0.1,0.2-0.2,0.3v0.1h0.1v0.4l-0.2,0.1v0.1c-0.2,0.1-0.2-0.1-0.2,0.2h-0.2
					c0,0,0.1,0.2-0.1,0.2c0,0,0-0.2-0.1-0.1c0,0.1-0.1,0.3-0.1,0.4l-0.3,0.1c-0.1,0.2-0.1,0.2-0.2,0.4h-0.2
					c-0.1,0.3-0.1,0.1-0.2,0.2l-0.1,0.2h-0.2l-0.1,0.2h-0.2l0.1,0.1v0.1l-0.2-0.1c-0.1,0.4-0.1,0.1-0.3,0.2V12
					c-0.1,0.1-0.1,0-0.1,0.1h0.1v0.1l-0.2-0.1v0.2h-0.2v0.2c-0.3-0.1-0.2-0.1-0.4,0.1v0.1h-0.2v0.1h-0.4v0.1h-0.2v0.1
					c-0.1,0-0.3-0.1-0.4-0.1v0.2h-1l-0.1,0.2l-0.2-0.1V13h-0.5v0.2c-0.6-0.3-1,0-1.9,0v0.2l-0.7-0.1c0-0.3-0.1-0.4,0-0.6h-0.2
					L129.5,12.3z M133.7,14.2L133.7,14.2h-0.5v-0.1L133.7,14.2C133.7,14.2,133.6,14.1,133.7,14.2L133.7,14.2z M136.9,27.9l-0.1,0.2
					l-0.6-0.1v0.2h-0.1l0.1-0.2h-0.2V28l-0.4-0.1c0,0,0,0.1-0.2,0.1c0-0.1-0.1-0.1-0.2-0.1V28l-0.6-0.1V28h-0.4v-0.1
					c-0.1,0,0,0.1-0.1,0.1l-0.6-0.1v-0.1l-0.2,0.2v-0.1c-0.3-0.1-0.2,0-0.5,0v-0.2c-0.1,0-0.2,0-0.3,0.1v-0.1h-0.1
					c-0.1,0,0,0.1-0.1,0.1c0-0.1-0.1-0.1-0.2-0.1v0.1h-0.1l-0.1-0.2c-0.2-0.1-0.4-0.1-0.6-0.1v-0.2l-0.2,0.1c-0.1,0,0,0.1-0.1,0.1
					l-0.2-0.3l-0.4,0.1v-0.1h-0.2v-0.1h-0.4l-0.1-0.2h-0.1v0.1l-0.6-0.2l0.1-0.5l-0.2-0.1l0.1-0.4h-0.1c0-0.1,0-0.1,0.1-0.2
					l-0.1-0.2c0-0.3,0.1-0.6,0.1-1h-0.2c0,0,0.2-0.2,0.2-0.3l-0.2-0.1c0-0.1,0.1-0.1,0.1-0.2v-0.5h0.1v-0.2h0.1
					c0-0.1-0.1-0.1-0.2-0.2l0.1-0.2h-0.1v-0.1h0.1c0-0.2,0-0.3,0.1-0.5l-0.2-0.1l-0.1,0.1l0.2-0.6h-0.2l0.1-0.3h0.1l-0.1-0.4
					c0-0.1,0.1,0,0.1-0.1h-0.1l-0.1-0.2h0.2l-0.1-0.2h0.1l-0.1-0.2l0.1-0.2h-0.1v-0.1h0.1v-0.1h-0.1l0.1-0.2l-0.2-0.1
					c0-0.1,0.1-0.1,0.1-0.2c0-0.1,0-0.1-0.1-0.2c0-0.1,0.1,0,0.1-0.1v-0.5h0.1c0-0.2-0.1-0.2-0.2-0.2l0.2-0.8h-0.1l0.1-0.2h-0.1
					v-0.1c0,0,0.1,0,0.1-0.2h-0.1l-0.1-0.2h0.1c0.1-0.1,0.1-0.3,0.1-0.5l-0.2-0.1c0-0.1,0.2-0.2,0.2-0.5c-0.1-0.2-0.1-0.4-0.1-0.6
					c0,0,0.1,0,0.1-0.2c-0.1,0-0.1-0.1-0.1-0.2c0,0,0,0,0,0h0.1l0.1-0.3l0.2-0.1c0,0.1,0.1,0.1,0.2,0.1V15h0.1v0.1h0.2v0.1l0.2-0.2
					l0.1,0.2h0.3V15c0.5,0.2,1,0.2,1.5,0.1l0.1,0.2l-0.1,0.1c0.2-0.1,0.4-0.1,0.6,0l0.1,0.2h0.1v-0.1h0.2v0.1h0.4l0.1,0.2l0.3-0.1
					l-0.1,0.2h0.3l0.1,0.2l0.5,0.1c0.1,0.2,0.2,0,0.6,0.2c-0.3,0.2,0.3,0.2,0.5,0.3l0.1,0.2c0.1-0.1,0.3-0.1,0.4,0l-0.1,0.2l0.2-0.1
					v0.1l0.3,0.1c0,0.2,0,0.1-0.1,0.2c0.2,0.2,0.4,0,0.6,0.2l-0.1,0.2l0.5,0.1v0.1l0.2,0.1v0.2h0.1c0.1-0.1,0.1-0.1,0.2,0
					c0.2,0.1,0.2,0,0.2,0.2c0.2,0,0.5,0.3,0.6,0.2l0.1-0.2h0.2c0,0.1-0.1,0.2-0.1,0.3c0.2,0,0.4,0,0.5,0.1l0.1,0.2l0.5,0.1l0.2,0.2
					h0.2l0.1,0.2h0.3l0.1,0.2c0,0,0.2,0.2,0.2,0.2h0.2v0.1l0.2,0.1v0.2l0.2,0.1c0,0.2,0,0.2,0.1,0.3h0.1v0.2l0.2-0.1
					c-0.1,0.3-0.1,0.2,0,0.5h0.2c-0.1,0.2-0.1,0.5,0,0.7h0.1c0,0.1,0,0-0.1,0.1v0.1h0.1l-0.1,0.2h0.1l-0.2,0.4c0,0,0.1,0,0.2,0.1
					h-0.1l-0.1,0.4h-0.1c0,0.1,0.2,0.2,0.1,0.4l-0.2,0.2v0.3l-0.2,0.1c0,0.2-0.1,0.4-0.1,0.6h-0.2c-0.2,0.3-0.3,0.5-0.4,0.8h-0.2
					v0.2l-0.2,0.1v0.2H141v0.2h-0.3V26h-0.2c0,0.2-0.1,0.1-0.2,0.2l-0.1,0.2h-0.4c0.2,0.2-0.2,0.3-0.3,0.4v0.1l-0.2-0.1
					c-0.1,0.3,0,0.1-0.2,0.2v0.1h-0.2l-0.1,0.2h-0.2l-0.1,0.2l-0.2-0.1l-0.2,0.2l-0.4,0.1v-0.1h-0.1l-0.1,0.2h-0.2v0.1l-0.2,0.1
					C137.1,27.9,137.1,27.8,136.9,27.9L136.9,27.9z"/>
				<path id="パス_333" class="st1" d="M0.2,29.6h0.2v0.2h0.1v-0.2h0.2c-0.2,0.2,0.1,0.3,0.2,0.5L1,30c0,0,0,0.1,0.2,0.1V30
					C1.3,30,1.5,30,1.6,30c0.1-0.1,0,0,0.1-0.1c0,0,0-0.3-0.1-0.2v0.1H1.5l0.1-0.2l-0.2-0.1l0.1-0.7h0.1l-0.1-0.2l0.2-0.1L1.5,28
					h0.1l0.1-0.8c0.2,0,0.1,0,0.2-0.1h0.1v-0.1H1.7v-0.2l0.2-0.1v-0.1H1.8l0.1-0.4L2,26.3C2,26.1,1.9,26,1.9,25.9
					c0-0.1,0.2-0.4,0.2-0.6H2c0-0.2,0.1-0.2,0.1-0.2v-0.4h0.1v-0.2h0.1c0.1-0.2-0.1-0.4-0.1-0.5c0-0.1,0.1,0,0.2-0.2H2.3v-0.1h0.2
					c0-0.2,0-0.1,0.1-0.2v-0.1H2.3c0.1-0.1,0.1-0.2,0.1-0.3l-0.1-0.1l0.2-0.1l0.2-1c-0.2,0-0.1,0-0.2-0.1H2.3V22
					c0.2,0.1,0.2,0,0.2,0.2h0.1c0.2-0.4-0.3-0.2,0.1-0.5c-0.1-0.1-0.1-0.1-0.2-0.2v-0.1l0.2,0.1v-0.2h0.2c0-0.2,0.1-0.3,0.1-0.3H2.8
					v-0.2H2.7c0-0.1,0.2-0.1,0.2-0.2v-0.1H2.8c0-0.2,0.1-0.3,0.2-0.4C3,20.1,2.9,20.1,2.8,20c0.1,0,0.2-0.1,0.3-0.1
					c-0.1-0.2-0.1-0.3-0.1-0.5c0.2,0,0.1,0,0.2-0.1H3.1v-0.2h0.2l-0.1-0.2h0.1v-0.1c-0.1-0.1-0.1,0-0.1-0.1h0.1l0.1-0.4h0.2
					l-0.1-0.6l0.2-0.2l0.1-0.7h0.1v-0.2h0.1l0.1-0.5H4v-0.5H3.9v-0.1l0.2-0.1v-0.2h0.1c0-0.1-0.2-0.2-0.1-0.4L4.3,15v-0.4h0.1v-0.2
					h0.1l-0.1-0.3h0.1v-0.2h0.1l0.1-0.5H4.5v-0.1h0.1c0.1-0.4,0.2-0.5,0.1-0.8h0.2L4.9,12H4.8v-0.1h0.1v-0.2H5l-0.1-0.6h0.2v-0.3
					h0.1v-0.1c0,0-0.1,0-0.1-0.2l0.2-0.1c0-0.1-0.1-0.2-0.1-0.4c0,0,0.1,0,0.2-0.2H5.2V9.9h0.2c0-0.3,0.1-0.2,0-0.4h0.1v0.1h0.2
					L5.6,9.8h0.1V10h0.1l-0.1,0.2h0.1c0.1,0.2,0,0.3,0.2,0.5c-0.1,0.1,0,0-0.2,0.1L6,11.1H6c0,0,0,0.3,0.1,0.2v-0.1h0.1L6,11.3v0.1
					h0.1v0.2h0.1V12h0.2v0.5h0.2c0,0.1-0.2,0.1-0.2,0.2l0.1,0.2h0.1v0.2h0.2v0.5h0.2v0.3h0.1V14c0,0-0.1,0-0.1,0.2h0.1L7,14.6
					c0.2,0,0.1,0,0.2,0.1H7.1l0.1,0.2h0.2V15c-0.1,0-0.1,0-0.1,0.1h0.1v0.1c0,0-0.2,0.1-0.1,0.2l0.2,0.2c0.1,0.1-0.1,0.3-0.1,0.3
					h0.2c0,0.1-0.1,0.1-0.1,0.3h0.1v0.1H7.6v0.2h0.2c0,0.2-0.1,0.2,0,0.4h0.1l-0.1,0.2h0.1v0.2h0.1L8,17.8h0.2l-0.1,0.4h0.1v0.1
					c-0.1,0.1-0.1,0-0.1,0.1l0.2,0.1l0.1,0.6h0.2l-0.1,0.2h0.2c0,0.1-0.1,0.1-0.2,0.2c0.1,0.1,0,0,0.2,0.1l0.1,0.2H8.5v0.1h0.2v0.1
					H8.6c0,0.1,0,0,0.1,0.1v0.4l0.2,0.1c0,0.1,0,0-0.1,0.1l0.1,0.3c0,0,0.3,0,0.2,0.1H8.9c0,0.1,0,0,0.1,0.1l-0.1,0.2l0.2,0.1
					c-0.2,0.2,0,0.2,0,0.3l-0.1,0.1h0.2c0,0.2,0,0.1-0.1,0.2V22h0.2c0,0.1,0,0.2,0.1,0.3c0,0-0.1,0.1-0.1,0.2h0.1v0.2l0.2,0.1
					c0.1,0.2,0,0.4,0,0.6l0.2,0.1v0.2H9.8C9.7,24,10,23.9,10,24.2H9.9v0.1l0.2,0.1L10,24.6h0.1v0.3h0.1V25h-0.1v0.1h0.1v0.2h0.1
					l-0.1,0.3h0.1l0.1,0.3h0.1L10.3,26c0.1,0.1,0.1,0.2,0.1,0.2h-0.1v0.1h0.1l0.1,0.2c0,0-0.1,0-0.1,0.1l0.3,0.2l-0.1,0.4h0.1v0.2
					h0.2v0.4H11c0,0,0,0.3,0.1,0.2V28h0.1L11,28v0.1h0.1v0.3h0.2c0,0.1-0.1,0.1-0.2,0.2c0.1,0.1,0,0,0.2,0.1
					c0.1,0.3,0.2,0.3,0.3,0.5l0.2,0.1c0.1-0.2,0.3-0.2,0.5-0.3h0.2c-0.2-0.2,0-0.2,0.1-0.2v-0.2h0.1c0-0.1-0.1-0.2-0.1-0.2v-0.1h0.1
					c0-0.2-0.1-0.2-0.1-0.2c0-0.1,0.1-0.3,0.1-0.4c0.2,0,0.1,0,0.2-0.1h0.1c0.1-0.2-0.1,0-0.2-0.1l0.1-0.2l-0.1-0.2L13,27
					c0-0.1-0.1-0.2-0.1-0.3H13v-0.2l0.2-0.1v-0.5h0.1v-0.2h0.1c0-0.1,0,0-0.1-0.1c0-0.3,0.3-0.4,0.2-0.6l0.1-0.5h-0.1v-0.1l0.2,0.1
					l0.1-0.3h0.1l-0.1-0.3h0.1v-0.2h0.1v-0.2h0.1l-0.1-0.2l0.2-0.1l0.1-0.8h0.2c-0.1-0.2,0-0.1-0.2-0.1l0.2-0.3h0.1
					c0-0.2-0.2,0-0.2-0.2l0.2-0.1l0.1-0.2h0.1l-0.1-0.2h0.2l-0.1-0.2h0.1V21l0.2-0.1c0.1-0.2,0.1-0.4,0-0.6l0.3-0.1
					c-0.1-0.1-0.1-0.3,0-0.5h0.1L15,19.7h0.1c0.1-0.2,0.1-0.4,0.1-0.6h0.2l0.1-0.2h0.1l-0.1-0.1l0.1-0.4h0.1v-0.2h0.1l0.1-0.3h0.1
					l0.1-0.6H16v-0.2H16v-0.2l0.2-0.1l-0.1-0.3h0.1v-0.2h0.1v-0.2l0.2-0.1l-0.1-0.4h0.2l0.1-0.2c-0.1,0-0.1-0.1-0.1-0.1c0,0,0,0,0,0
					l0.2-0.1l-0.1-0.4c0.2,0,0.1,0,0.2-0.1h-0.2c0.1-0.2,0.1-0.2,0.2-0.4h0.1l-0.2-0.3l0.2-0.2l-0.1-0.3l0.2-0.2v-0.2h0.1V13
					c0,0-0.1,0-0.1-0.2l0.2-0.1l-0.1-0.2l0.2-0.7h0.2v-0.2l-0.2-0.1l0.1-0.2h0.2v-0.1c-0.2-0.1-0.1,0.1-0.2-0.1h0.2v-0.3H18v-0.2
					h-0.2l0.1-0.2H18l-0.1-0.2l0.2-0.1V10h0.1c0-0.1,0-0.2-0.1-0.2c0-0.1,0.1-0.1,0.2-0.2l-0.1-0.2l0.2-0.1L18.4,9
					c0,0-0.2,0.1-0.2-0.1h0.1c0.1-0.3,0.1-0.1,0.2-0.2c-0.1-0.2-0.1-0.4,0-0.6c0.2,0.1,0.2,0,0.2-0.2h-0.2v0.2h-0.1l0.1-0.2h0.1V7.6
					h0.1l0.1-0.3h0.1V6.9H19V6.7l0.2-0.1c0.1-0.2-0.1-0.4-0.1-0.5h0.1l0.1-0.2h-0.1V5.8l0.2-0.1V5.4l0.2-0.1
					c0.1-0.2-0.1-0.3-0.1-0.4h0.1c0.1-0.1,0.1-0.1,0.2-0.3l0.2,0.1c0,0.2,0,0.2,0.1,0.3h0.1v0.2h0.1v0.2h0.1l-0.1,0.2l0.2,0.1v0.2
					c0.1,0.1,0.2,0,0.2,0.3h-0.1c0,0.2,0.3,0.3,0.1,0.6v0.1h0.2l0.1,0.8L21,7.7c0,0.2-0.1,0.2,0,0.4H21C21.1,8.3,21,8.3,21,8.4
					C21,8.5,21,8.5,21,8.7h0.2v0.6c0,0.1,0.1,0,0.1,0.1h-0.1v0.2h0.2c0,0.2-0.2,0.3-0.1,0.6l0.2,0.1l-0.1,0.4h0.2l-0.1,0.2
					c0,0.1,0.1,0,0.1,0.1h-0.1V11h0.1l0.1,0.7h-0.1v0.2l0.2-0.1V12h0.1c-0.1,0.1-0.1,0.3-0.1,0.4h0.2l-0.1,0.5c0,0,0.1,0,0.1,0.2
					l-0.1,0.1l0.2,0.1c0.1,0.2-0.1,0.3-0.1,0.4H22v0.2h0.1v0.4h0.1v0.3h0.1v0.8h0.1l-0.1,0.2h0.1l-0.1,1c0.2,0,0.1,0,0.2,0.1h-0.2
					c0,0.1,0,0.2,0.1,0.3h-0.1v0.2h0.2c-0.1,0.1-0.1,0.3-0.1,0.4h0.1c0,0.1,0,0.1-0.1,0.2v0.1h0.1l-0.1,0.4h0.2l-0.1,0.2h0.2
					c-0.1,0.2-0.1,0.4-0.1,0.6h0.1l-0.1,0.2c0,0,0.1,0,0.1,0.2l-0.2,0.1v0.1h0.1V20h0.1l-0.1,1.1h0.2l-0.1,0.2h0.1v0.1h-0.1v0.2
					h-0.2l0.1,0.7h0.2c-0.1,0.3-0.1,0.6,0,1h0.1l-0.1,0.5h0.1v0.3h0.1l0.1,0.6c0,0-0.3,0-0.2,0.1h0.2l0.1,0.5
					c-0.1,0-0.1,0.1-0.1,0.2c0,0,0,0,0,0l0.2,0.1L23,25.8H23c0.1,0.2,0.1,0.5,0,0.7h0.2c0,0.1,0,0.2,0.1,0.3c0,0-0.1,0-0.1,0.2
					c0,0,0.2,0.1,0.2,0.2l-0.2,0.1c0,0,0,0.3,0.1,0.2c0.1,0,0-0.1,0.1-0.1l-0.1,0.2l0.2,0.1c0.1,0.2,0,0.3-0.1,0.6l0.2,0.1v0.2h-0.1
					c-0.1,0.4,0.1,0.5,0,1c0.3,0.2,0.4,0.4,0.9,0.2c-0.1,0.1,0,0.1-0.2,0.2V30h0.4l-0.1-0.2h0.2c0.1-0.3,0.4-1.5-0.1-1.6V28h0.2
					v-0.1l-0.2-0.1l-0.2-0.8c-0.3-0.1,0-0.3-0.2-0.6h-0.1c0-0.1,0.1-0.1,0-0.3h-0.1v-0.7h-0.1v-0.2H24c0-0.1,0-0.1,0.1-0.2
					c0,0,0,0,0,0L24,24.8l0.1-0.2c0,0-0.1,0-0.1-0.2c0-0.1,0.1,0,0.1-0.1H24V24h-0.1l0.1-0.2l-0.2-0.1v-0.3h-0.1l0.1-0.2
					c0-0.1-0.1,0-0.1-0.1c0-0.1,0-0.2,0.1-0.2l-0.1-0.2h-0.2c-0.1-0.1,0.1-0.1,0.1-0.1v-0.2c0,0,0.1,0,0.2-0.2h-0.1l-0.1-0.5h0.1
					v-0.1c-0.1-0.1-0.1,0-0.1-0.1h0.1l-0.1-0.6h0.1l-0.1-0.4h0.1L23.7,20h0.1l0.1-0.4h-0.2v-0.1c0.1-0.1,0.1-0.2,0.1-0.2l-0.2-0.1
					c0-0.1,0-0.1,0.1-0.2l-0.1-0.2h0.2c-0.1-0.3-0.1-0.1-0.2-0.2c-0.1-0.1,0.1-0.1,0.2-0.2l-0.2-0.1l0.1-0.7c-0.2,0-0.1,0-0.2-0.1
					h0.2v-0.2h-0.2l0.1-0.5h-0.1v-0.2h-0.1c0.1-0.1,0.1-0.3,0.1-0.4c0-0.1-0.1,0-0.1-0.1h0.1v-0.2h0.1v-0.1h-0.1l-0.1-0.3h0.1v-0.3
					c0-0.1,0.1,0,0.1-0.1h-0.2c0.1-0.2,0.1-0.3,0.1-0.5h-0.1l0.1-0.4l-0.2-0.1c0-0.2,0-0.3,0.1-0.5l-0.2-0.1c0-0.1,0-0.3,0.1-0.4H23
					c0-0.2,0-0.1,0.1-0.2c0-0.2,0-0.2-0.1-0.3h-0.2c0.1-0.1,0.1-0.2,0.2-0.3h-0.2c0-0.2,0-0.3-0.2-0.4v-0.1L23,12
					c-0.1-0.1-0.3-0.5-0.2-0.6h0.1v-0.1h-0.2V11h0.1c0-0.1,0-0.2-0.1-0.2c0-0.1,0.1,0,0.1-0.1v-0.3h-0.1l0.1-0.2h-0.2l0.1-0.2h-0.2
					c0-0.1,0,0,0.1-0.1V9.5h-0.2l0.1-0.4c0-0.1-0.1,0-0.1-0.1h0.1V8.9h-0.1V8.7l-0.2-0.1c0-0.1,0.2-0.4,0.1-0.6L22.1,8V7.7h0.1
					l-0.1-0.2h-0.2V7.3H22L21.9,7h-0.1l0.1-0.2h-0.2l0.1-0.5h-0.2V6.3h0.2V6h-0.1V6L21.5,6L21.6,6c0-0.1-0.1-0.1-0.1-0.2
					c-0.1-0.2-0.1-0.3,0-0.5l-0.2-0.1V4.9h-0.2V4.8c0,0,0.1,0,0.1-0.2h-0.1V4.5c0,0-0.3-0.1-0.2-0.3H21V4.1h-0.2
					c0-0.4-0.2-0.4-0.2-0.7h-0.2V3.1L20.1,3V2.9c0.1,0,0.1,0,0-0.1V2.7l-0.2,0.1V2.7h-0.2V2.7h-0.1v0.1c-0.1,0-0.3,0-0.4-0.1
					l-0.3,0.4h-0.1l0.1,0.2l-0.2,0.2l0.1,0.1c-0.1,0.3-0.2,0.6-0.2,0.9h-0.2l-0.1,0.8l-0.2,0.1l0.1,0.2H18v0.7l-0.2,0.1v0.3h-0.1
					v0.2h-0.1l-0.1,0.7h-0.2v0.2h0.2c0,0.1-0.1,0.3-0.1,0.3l-0.2-0.1v0.2h-0.1c-0.1,0.2,0.1,0.2,0.2,0.2c-0.1,0.1-0.2,0.2-0.2,0.2
					c0,0.1,0.2,0.2,0.1,0.3l-0.2,0.1L17,9.3l-0.2,0.1V10h-0.1v0.2h-0.1v0.2h-0.1l0.1,0.2h-0.1v0.2h-0.1c-0.1,0.3,0.1,0.3-0.2,0.5
					c0.1,0.1,0,0,0.2,0.1v0.2h-0.2c0,0.4-0.2,0.3-0.1,0.6H16l0.1,0.5H16V13L15.8,13l0.1,0.3l-0.2,0.1v0.2h-0.1
					c0,0.1,0.1,0.1,0.1,0.3h-0.1v0.2h-0.1l-0.1,0.4h-0.1l0.1,0.3h-0.1v0.2h-0.1l-0.1,0.9h-0.1l-0.1,0.4h-0.2l-0.2,1h-0.2v0.1h0.1
					l-0.1,0.1V18L14.3,18v0.2h-0.1l0.1,0.2l-0.2,0.1c-0.2,0.2-0.1,0.2-0.1,0.5h-0.2c0,0.2,0.1,0.3,0,0.5l-0.2,0.1
					c-0.1,0.2,0.1,0.2,0,0.4L13.6,20v0.1h-0.2c0.1,0.1,0,0.6-0.1,0.8h-0.1v0.4l-0.2,0.1v0.3L13,21.8c-0.1,0.2-0.1,0.3,0,0.5h-0.2
					v0.3h-0.1v0.1h0.1v0.2c-0.2,0-0.1,0-0.2,0.1h-0.1V23h0.2l-0.2,0.5l-0.2,0.1l0.1,0.2L12.4,24c0,0,0.1,0,0.1,0.2l-0.2,0.1v0.4
					h-0.1v0.2h-0.1v0.2l-0.2,0.2l0.1,0.6h-0.2V26h0.1v0.1c0,0-0.1,0-0.1,0.2h0.1v0.1h-0.1c0,0.2,0,0.1-0.1,0.2L11.6,26h-0.1
					l-0.1-0.8h-0.2v-0.1c0,0,0.1-0.1,0.1-0.2h-0.1l-0.1-0.2h0.1v-0.1h-0.1l0.1-0.2l-0.2-0.1v-0.2H11v-0.1h0.2c0-0.1-0.1-0.2-0.2-0.3
					H11c-0.1-0.2,0.1-0.2,0.1-0.3l-0.2-0.1v-0.1H11v-0.1h-0.1v-0.6l-0.2-0.2l0.1-0.2h-0.1L10.6,22c0,0,0.1,0,0.1-0.2h-0.1
					c-0.1-0.2-0.2-0.4-0.2-0.6c-0.2,0-0.1,0-0.2-0.1h-0.1v-0.2h0.1l-0.1-0.2l0.1-0.1L10,20.5l-0.1-0.7H9.8v-0.2H9.8v-0.3H9.7v-0.2
					L9.5,19c-0.1-0.1,0.1-0.1,0.1-0.2c0-0.1,0,0-0.1-0.1c-0.1-0.3,0.1-0.2-0.2-0.4l0.1-0.4H9.2l-0.1-0.7h0.1v-0.1L8.9,17
					C8.9,16.8,9,16.8,9,16.7H8.9v-0.2H8.9v-0.2H8.8v-0.4l-0.2-0.1c0.1-0.1,0-0.5,0.1-0.7H8.5l-0.1-0.4H8.3l0.1-0.2H8.2l0.1-0.1v-0.2
					H8.1l0.1-0.2c-0.1-0.2-0.2-0.5-0.2-0.7H7.8c0.1-0.3,0-0.3-0.1-0.6l0.1-0.2H7.7c-0.1-0.1,0-0.1-0.2-0.2L7.6,12l-0.2-0.1
					c-0.1-0.2,0.1-0.2,0.1-0.3l-0.2-0.1v-0.2H7.3l0.1-0.2c0,0-0.1,0-0.1-0.2c0-0.1,0.1,0,0.1-0.1c0,0-0.1,0-0.2-0.2H7l0.1-0.2
					l-0.2-0.1L6.8,9.9c0.1-0.1,0,0,0.1-0.2c-0.2,0-0.1,0-0.2-0.1H6.7l0.1-0.2H6.7V9.3L6.5,9.2V8.9c0-0.1-0.1,0-0.1-0.1h0.1V8.8H6.4
					C6.4,8.6,6.4,8.5,6.4,8.4H6.2c0-0.5-0.2-0.6-0.4-0.9H5.5v0.1H5.4V7.4H5.3v0.2c-0.2,0-0.4,0-0.6,0L4.7,7.8c0,0,0.1,0,0.1,0.2H4.7
					c-0.1,0.2-0.1,0.2,0,0.4H4.5c0,0.4-0.1,0.2-0.2,0.6h0.2C4.4,9.1,4.4,9.1,4.4,9.3c-0.2,0.1-0.1,0-0.1,0.2H4.1
					C4,9.6,4.2,9.6,4.2,9.6v0.3H4l0.1,0.2L4,10.2v0.5H3.8v0.2c0.2,0,0.1,0,0.2,0.1H3.8c0.1,0.2,0.1,0.5,0,0.7l-0.2,0.2v0.4H3.5v0.1
					c0.1,0,0.2-0.1,0.2,0.1l-0.2,0.1v0.1h0.1c0,0.1-0.2,0.2-0.2,0.2c-0.1,0.1,0.1,0.1,0.1,0.2c0,0.1-0.1,0-0.1,0.1l0.1,0.4
					c-0.2,0-0.1,0-0.2,0.1H3.2c-0.1,0.2,0.1,0.3,0.1,0.4H3.2v0.2H3.1l-0.1,0.5l0.1,0.1C3,14.9,2.9,14.9,3,15.2H2.8
					c0,0.2-0.1,0.4-0.2,0.6h0.2c0,0.1,0,0.3-0.1,0.4c-0.1,0.2-0.2,0.5-0.2,0.7c0,0-0.3,0-0.2,0.1h0.1l0.1,0.4l-0.2,0.2V18H2.2v0.2
					H2.1v0.2H2c0,0.1,0.1,0.2,0.1,0.3l-0.2,0.1L2,18.9l-0.2,0.4l0.1,0.2H1.9v0.2H1.8l0.1,0.1L1.8,20c0,0.1,0.1,0,0.1,0.1H1.8v0.2
					H1.7l0.1,0.2H1.7l-0.1,0.3H1.5c0,0.2,0.2,0.1,0.2,0.2l-0.2,0.3h0.1v0.1H1.5c0,0.2,0.1,0.1,0.1,0.2v0.1H1.5v0.2H1.5l0.1,0.1
					c0,0.2-0.1,0.5-0.2,0.6c0,0,0,0.3,0.1,0.2v-0.1h0.1v0.3L1.3,23l-0.2,0.7l0.2,0.1L1.3,24l-0.2,0.1c0,0.1,0.1,0.1,0.1,0.3H1.1
					c0,0.2,0,0.1-0.1,0.2c0.1,0.1,0,0,0.2,0.1L1.1,25H1l0.1,0.2H1v0.2H0.9c0,0.1,0.1,0.1,0.2,0.2L1,25.7c0.1,0.1,0.1,0,0.1,0.1H1
					L0.9,26H0.8c0,0.1,0,0.1,0.1,0.2c0,0,0,0,0,0v0.1H0.8v0.4H0.7l-0.1,0.6H0.6c0,0.1,0,0,0.1,0.1l-0.1,0.2h0.1v0.4L0.5,28v0.2H0.4
					c0,0.1,0,0,0.1,0.1v0.1H0.4c0,0.1,0.1,0.1,0.1,0.3H0.4v0.2H0.3v0.4H0.2c0.1,0.1,0,0,0.2,0.1v0.2C0.4,29.5,0.1,29.5,0.2,29.6z
					 M18.2,5.6c-0.2,0-0.1,0-0.2-0.1C18.2,5.6,18.1,5.5,18.2,5.6L18.2,5.6z M9.6,19.4L9.6,19.4l0.1,0.2H9.6V19.4z"/>
				<path id="パス_334" class="st1" d="M127,4c0.1,0.1,0,0,0.2,0.1C127.1,4,127.2,4.1,127,4z"/>
				<path id="パス_335" class="st1" d="M48.7,6.8V7h-0.2l-0.1,0.5h-0.1l0.1,0.2h-0.1v0.2h-0.1c0,0.1,0,0.1,0.1,0.2v0.2h-0.1
					l0.1,0.2h-0.1v0.1c0,0,0.2,0,0.2,0.2l-0.2,0.1V9c-0.1,0.3-0.2,0.3-0.1,0.6h-0.2v0.2h0.2v0.3h-0.2v0.1H48c-0.1,0.3,0,0.2,0,0.3
					h-0.1l-0.1,0.2H48c0,0.1,0,0.2-0.1,0.3h-0.1l0.1,0.1c0,0.2-0.1,0.2-0.2,0.2c0.1,0.1,0.1,0.1,0.2,0.2c-0.1,0.1-0.1,0.1-0.2,0.2
					c0.1,0.2,0.1,0.5,0,0.7h-0.1l0.2,0.3h-0.1V13c-0.1-0.1,0,0-0.1-0.2h-0.1l0.1,0.4h0.1v0.1h-0.1v0.6h-0.1c0,0.2,0.1,0.2,0.1,0.3
					h-0.1v0.2h-0.1c0,0.1,0.1,0,0.1,0.1v0.2h-0.1l0.1,0.3l-0.1,0.2h0.1v0.1h-0.1v0.2h-0.1c0,0.1,0.1,0.1,0.1,0.3l-0.2,0.1
					c0,0.1,0.2,0.2,0.2,0.2l-0.1,0.4h0.1c0,0.1-0.1,0-0.1,0.1v0.5h-0.1l0.1,0.2h-0.1c-0.1,0.1-0.1,0.2-0.2,0.3h0.2
					c-0.1,0.1,0,0-0.2,0.1c0.1,0.1,0,0,0.2,0.1L47.4,18h0.1V18l-0.2,0.1l0.1,0.5h-0.2c0,0.4,0.1,0.4,0,0.7h-0.1c0,0.2,0.2,0,0.2,0.2
					h-0.1v0.2h-0.1v0.5c0,0-0.1,0-0.1,0.2h0.2v0.2L47,20.5L47,21.3h0.2c-0.1,0.2,0,0.4-0.1,0.6H47l0.1,0.2H47v0.3h-0.1
					c0,0.1,0.1,0.1,0.1,0.2c0.1,0.3,0.1,0.7-0.1,1v0.1h0.2c0,0.1-0.1,0.1-0.2,0.2v0.1H47c0,0.1-0.1,0.2-0.1,0.2c0,0.1,0,0.1,0.1,0.2
					v0.1H47c0,0.2,0.1,0.2,0.1,0.2c0,0.2-0.1,0.2-0.1,0.3H47v0.1H47v0.3h-0.1l0.1,0.2h-0.1v0.1H47l0.1,0.2h0.1
					C47.1,26,47,26.2,47,26.4h0.2v0.2L47,26.7v0.1H47v0.4l0.2,0.1l-0.1,0.1v0.1h0.1c0,0.6,0.2,1.1,0.6,1.2v0.1l0.5-0.2v-0.2h-0.1
					c0-0.1,0.1-0.1,0.2-0.2c0-0.1,0-0.1-0.1-0.2c0,0,0,0,0,0c0-0.1,0.1,0,0.1-0.1c0-0.1,0-0.2-0.1-0.2c0-0.1,0.1-0.2,0.1-0.3h-0.2
					l0.1-0.5h-0.1c0-0.4-0.1-0.9-0.1-1.3c0.2,0,0.1,0,0.2-0.1h-0.2l0.1-0.3h-0.1v-0.4h0.1v-0.1h-0.2l0.2-0.3c0-0.1-0.1,0-0.1-0.1
					v-0.2h-0.1c0-0.1,0.1-0.2,0.1-0.3l-0.1-0.5h0.1v-0.5h-0.1v-0.1l0.2-0.1v-0.3h-0.1l0.1-0.2h-0.1l-0.1-0.3h0.1v-0.2h0.1
					c0-0.1-0.1-0.1-0.1-0.2v-0.1h0.1c0-0.1-0.1-0.1-0.1-0.3h0.1v-0.2h0.1l-0.1-0.4h0.1v-0.4h0.1l0.1-0.4c0,0-0.3,0-0.2-0.1h0.1v-0.1
					h-0.2c0.2-0.2,0.3-0.5,0.2-0.8h-0.2v-0.2h0.2l-0.1-0.4l0.2-0.1c0.1-0.2-0.1-0.3-0.1-0.4h0.1v-0.2h0.1v-0.2h0.1V17h-0.1v-0.1h0.1
					c0-0.3,0-0.5-0.1-0.8h0.1v-0.3h0.1l-0.1-0.2h0.1v-0.2h0.1l-0.1-0.5c0.1-0.4,0.2-0.1,0-0.6H49L48.9,14H49v-0.1h-0.1v-0.1H49v-0.3
					c0-0.1-0.1,0-0.1-0.1c0-0.1,0.2,0,0.2-0.2c-0.1,0-0.2,0.1-0.2-0.1H49v-0.2h0.1v-0.2h0.1c0-0.1-0.1-0.2-0.1-0.4h0.1v-0.1h-0.1
					v-0.2H49l0.1-0.5h0.1c0-0.2-0.1-0.2-0.1-0.3c0,0,0.2-0.1,0.2-0.2h-0.2c0-0.4,0.2-0.5,0.2-0.8h-0.2l0.1-0.4h0.1V9.9h0.1
					c0.1-0.2-0.1-0.3-0.1-0.4V9.4h0.1V8.9h0.2l0.2,0.5h0.1v0.1h0.2v0.2c0,0,0.1,0,0.2,0.2H50v0.1h0.3v0.4h0.2v0.2
					c0.1,0,0.3,0.1,0.4,0.2v0.3h0.2V11c0.2,0.1,0,0.2,0.3,0.2v0.2l0.2,0.1c0,0.2,0,0.3,0.2,0.4V12H52v-0.1h0.1L52,12.2l0.2,0.1
					l0.1,0.4h0.2l0.1,0.4l0.2,0.1v0.2H53v0.3c0.1,0.1,0.2,0.3,0.2,0.3l0.2,0.1v0.2l0.2,0.1v0.2l0.2,0.1l-0.1,0.2h0.2v0.1l0.2,0.1
					l-0.1,0.4l0.3,0.1c0.1,0.3,0.1,0.1,0.2,0.2l-0.1,0.2l0.2,0.2c0.2,0.2,0,0.3,0.3,0.5c0,0.1-0.1,0.1-0.2,0.2c0.1,0.1,0,0,0.2,0.1
					l0.1,0.2h0.1c0.1,0.2-0.1,0.2,0.2,0.2l0.1,0.2c0,0-0.1,0-0.1,0.2l0.2,0.2v0.2h0.1v0.1h0.2l0.1,0.2h-0.1v0.1l0.2,0.1
					c0.1,0.2,0.2,0.3,0.2,0.6c0.2,0,0.2,0.1,0.3,0.2v0.2H57l-0.1,0.2l0.2,0.1c0,0.2,0,0.4,0.1,0.6c0.2,0,0.1,0,0.2,0.1h0.1v0.4h0.1
					l0.2,0.5l0.2,0.1v0.2h0.1c0.1,0.1,0,0,0.2,0.1v0.3h0.1c0.1,0.2,0,0.2,0.2,0.2v0.3l0.3,0.2V23l0.2,0.2h0.2
					c-0.1,0.2,0,0.2,0.2,0.2v0.2c0,0,0.3,0,0.2,0.1h-0.1c0.1,0.1,0.1,0.1,0.2,0.2l0.1,0.2h-0.1v0.2h0.2l-0.1,0.2h0.2v0.1h0.1
					l-0.1,0.2l0.2,0.1v0.5c0.2,0,0.1,0,0.2,0.1h0.1c-0.1,0.2,0,0.2,0,0.5h0.2l0.1,0.5h-0.1v0.1h0.1c0.1,0.1,0.1,0.2,0.1,0.3l0.3,0.1
					c-0.1,0.1-0.1,0-0.2,0.1c0.1,0.1,0.1,0.2,0.2,0.3h0.2v0.2h0.2c0.1,0,0.1,0.3,0.3,0.2l0.1-0.2l0.2,0.1c0,0,0-0.2,0.2-0.2v0.1h0.1
					v-0.2l0.2-0.1c-0.1-0.2-0.1-0.3-0.1-0.5h0.1v-0.4c0.2,0,0.1,0,0.2-0.1h-0.2c0-0.1,0-0.2,0.1-0.3h0.1v-0.1h-0.2l0.1-0.2h-0.1
					v-0.1h0.1v-0.2h0.2c-0.1-0.5,0-0.9-0.1-1.4h0.2v-0.2l-0.2,0.1v-0.1h0.2l-0.1-0.2h0.1l0.1-0.2h-0.2l0.1-0.4h0.1v-0.2h0.1
					c-0.1-0.2-0.1-0.4-0.1-0.6h0.1v-0.2h0.1c0,0-0.1-0.2-0.1-0.4h0.1l-0.1-0.2h0.1l0.1-0.2h-0.2c0-0.1,0-0.2,0.1-0.3
					c0-0.1-0.2,0-0.2-0.2h0.1l0.1-0.5h-0.2l0.2-0.8h-0.1L62.7,19h0.1v-0.2h0.1v-0.1h-0.2l0.1-0.2c0-0.1-0.1,0-0.1-0.1h0.1v-0.3h-0.1
					c0-0.2,0.1-0.3,0.1-0.5h-0.1l0.1-0.2h-0.1c0-0.2,0.1-0.2,0.1-0.3h-0.1c0-0.2,0.1-0.4,0.1-0.4h-0.1v-0.1h0.1
					c0-0.1-0.2-0.2-0.2-0.2c-0.1-0.2,0.1-0.3,0.1-0.4l-0.2-0.1c0-0.1,0.1-0.2,0.1-0.4c0,0-0.1,0-0.1-0.2h0.1v-0.1h-0.1v-0.2h-0.1
					c0-0.2,0.2-0.4,0.1-0.6l-0.2-0.1V14h-0.1l0.2-0.5l-0.2-0.1c0-0.2-0.1-0.5-0.1-0.7c-0.2,0-0.1,0-0.2-0.1h0.2v-0.2H62l0.1-0.2
					c0,0-0.1,0-0.1-0.2c0-0.1,0.1,0,0.1-0.1H62l-0.1-0.6h-0.1v-0.3h-0.1l0.1-0.4h-0.1v-0.2h-0.1V9.9h-0.1l0.1-0.2h-0.1V9.5h-0.1V9.4
					h0.1c0-0.1,0-0.1-0.1-0.2V9.2h0.1l-0.1-0.3h-0.2V8.8l0.2-0.1l-0.1-0.1l0.1-0.3h-0.2l0.1-0.2c-0.1-0.1-0.1-0.2-0.1-0.2
					c0,0,0.1,0,0.1-0.2c0-0.1-0.2,0-0.2-0.2h0.2l-0.1-0.2c0-0.1,0.1,0,0.1-0.1h-0.1V7.2h0.1l-0.2-0.6h0.2c0-0.1-0.2-0.2-0.2-0.2
					c-0.1-0.2,0.1-0.3,0.1-0.4l-0.2-0.1c0-0.2,0.1-0.4,0.2-0.6h-0.2c0-0.4-0.1-0.5,0-0.7H61l0.1-0.2H61l-0.1-0.2h-0.2V3.8
					c-0.4,0.1-0.2,0.2-0.6,0.1L60,4.2h-0.2C60,4.5,60,4.8,59.9,5.1H60c-0.1,0.3-0.1,0.6,0,1h0.1L60,6.1l0.1,0.2H60v0.1l0.2,0.1
					l-0.1,0.1l0.1,0.2c-0.1,0-0.1,0.1-0.1,0.2h0.1v0.2h0.1l-0.1,0.4h0.1V8c0,0.1-0.1,0-0.1,0.1h0.1v0.2h0.1l-0.1,0.1
					c0,0.2,0.1,0.2,0.1,0.2l-0.1,0.1c0,0.2,0.1,0.2,0.1,0.2c0,0.2,0,0.4-0.1,0.6h0.2l0.1,0.8h0.1l-0.1,0.2c0.3,0.1,0.1,0.2,0.2,0.6
					h0.1l-0.1,0.2h0.1v0.3h0.1V12h0.1v0.1c0,0.1-0.1,0-0.1,0.2h0.1v0.3c0,0.1,0.1,0,0.1,0.1h-0.1v0.1h0.2v0.3H61
					c0.1,0.1,0,0,0.2,0.1c0,0.1-0.1,0.2-0.1,0.2c0,0.1,0.2,0.2,0.1,0.3h-0.1c0.1,0.1,0,0,0.2,0.1v0.5h-0.1c0.1,0.1,0,0,0.2,0.1
					l-0.1,0.5h0.2v0.4h-0.2c0.1,0.1,0.2,0.2,0.2,0.2l-0.2,0.4l0.2,0.1v0.5h0.1v0.1h-0.1v0.2h-0.1c0,0.1,0.2,0.1,0.2,0.4h-0.1
					l-0.1,0.2h0.2v0.1h-0.2c0.1,0.1,0.1,0.2,0.2,0.2c-0.1,0.1-0.1,0.1-0.2,0.2v0.1h0.2c-0.1,0.1-0.1,0.1-0.2,0.2v0.3l0.2-0.1
					c0,0.3-0.1,0.2,0,0.5h-0.2v0.2h0.2c-0.2,0.1,0.1,0.2,0,0.5h-0.1v0.1h0.1c0,0.2,0,0.4-0.1,0.6v0.1l0.2,0.1c0,0.1,0,0-0.1,0.1v0.3
					l-0.2-0.1v0.2h0.2c0,0.2-0.1,0.5-0.1,0.6l0.2,0.1l-0.1,0.2h-0.1l0.1,0.3h-0.1v0.3h-0.1c0,0.2,0.1,0.2,0.1,0.3h-0.1v0.2h-0.1
					c-0.1,0.2,0.1,0.4,0.1,0.6l-0.2,0.1l0.1,0.2h-0.1v0.1h0.2c0,0.1-0.2,0.2-0.2,0.2l0.1,0.2l-0.2,0.1c0,0.1,0,0.1,0.1,0.2
					c0,0.2-0.1,0.2-0.1,0.2c0,0.2,0.1,0.3,0.1,0.3h-0.1v0.1h-0.1v-0.3h-0.1v-0.1h0.1v-0.1l-0.2-0.1L61,24h-0.1
					c-0.2-0.3-0.2-0.1-0.2-0.5h-0.2v-0.1l-0.2-0.1c-0.2-0.3,0.1-0.4-0.3-0.5c0-0.4-0.2-0.3-0.4-0.5l0.1-0.2l-0.2-0.1
					c-0.1-0.2,0.1-0.3-0.2-0.4c-0.1,0.1,0,0.1-0.1,0.1v-0.2c0,0-0.3,0-0.2-0.1h0.1v-0.2H59L59,21H59c-0.1-0.2-0.1-0.1-0.2-0.5h-0.2
					v-0.2h-0.2c0-0.1,0-0.2,0.1-0.3h-0.2v-0.2h-0.2v-0.1c0.2-0.1,0.1,0.1,0.2-0.1l-0.2-0.1v-0.4h-0.2c0.1-0.1,0-0.5-0.2-0.6h-0.2
					c-0.1-0.4-0.4-0.5-0.4-1H57v-0.1c-0.1-0.1-0.2-0.3-0.3-0.4l-0.2-0.1v-0.2h-0.1l0.1-0.2l-0.2-0.2v-0.2h-0.1l0.1-0.2L56,16.1
					l0.1-0.1c0-0.3-0.2-0.3-0.2-0.6h-0.2l-0.1-0.2L55.3,15c-0.2-0.3,0.1-0.3-0.3-0.5v-0.2h0.1c-0.1-0.1-0.2-0.1-0.2-0.2V14l-0.2-0.1
					c0-0.3-0.1-0.4-0.4-0.5l0.1-0.3h-0.2v-0.2c-0.2,0-0.1,0-0.2-0.1h-0.1v-0.2l-0.2-0.1l0.1-0.2L53.3,12c0-0.2-0.1-0.4-0.1-0.6
					c-0.6-0.1-0.2-0.1-0.4-0.5l-0.2-0.1v-0.2l-0.2-0.1l-0.2-0.2h-0.1v-0.2h-0.1c-0.1-0.1-0.1-0.2-0.2-0.2V9.8h-0.2V9.7h-0.2
					c0-0.3-0.1-0.2-0.2-0.5h-0.2c0-0.2-0.2-0.4-0.5-0.5V8.5h-0.1c0,0,0-0.3-0.1-0.2c-0.1,0,0,0.1-0.1,0.1l-0.1-0.2
					c-0.2-0.1-0.2,0-0.2-0.2h-0.2V7.6h-0.2c0.2-0.2-0.1-0.2-0.2-0.3l0.1-0.2h-0.2V6.9C49.1,6.9,49,7,48.7,6.8z"/>
				<path id="パス_336" class="st1" d="M70.8,10L70.8,10v0.2H71c0,0.2-0.1,0.2,0,0.5h0.1c0,0.2-0.1,0.2-0.1,0.3h0.1V11H71v0.1h0.1
					c0,0.2-0.1,0.2-0.1,0.3l0.2,0.1v0.4h-0.1c0,0.2,0.1,0.2,0.1,0.2v0.6h-0.1v0.6h0.1v0.1h-0.1c0,0.3,0,0.7,0.1,1L71,14.3v0.2
					l0.2,0.1c0.1,0.3-0.1,0.7-0.1,0.8h0.1c0,0.2-0.1,0.2-0.1,0.2c0,0.2,0.1,0.2,0.1,0.3v0.1h-0.1v0.3h0.1c0,0.2-0.1,0.2-0.1,0.2
					c0,0.2,0,0.4,0.1,0.6H71l0.1,0.2h0.1v0.1h-0.1l0.1,0.2h-0.1v0.3h0.1v0.1h-0.1v0.2H71v0.1l0.2,0.6h-0.1V19h-0.1
					c0,0.1,0.1,0.2,0.1,0.4c-0.1,0.1-0.1,0.2-0.1,0.2h0.1l0.1,0.2h-0.1v0.3h-0.1l0.1,0.2L71,20.5v0.1h0.2c0,0.1-0.1,0.2-0.1,0.4
					c0.1,0.1,0.1,0.2,0.1,0.2c0,0.1-0.1,0-0.1,0.1s0.1,0,0.1,0.1h-0.1v0.1h0.1c0,0.1-0.1,0-0.1,0.1l0.1,0.2
					c-0.1,0.1-0.1,0.2-0.1,0.2h0.1c0,0.1,0,0.3-0.1,0.4H71c0,0.1,0.1,0.1,0.1,0.3H71v0.4h0.1L71,23.4l0.2,0.1c0,0.1-0.2,0.2-0.2,0.2
					c0,0.1,0.2,0.2,0.2,0.4c0,0.1-0.2,0-0.2,0.2H71c0.1,0.4,0.2,0.3,0.2,0.6l0.5,0.1l0.1-0.2l0.4-0.1l0.1-0.3
					c-0.1-0.1-0.1-0.2-0.1-0.2h0.1v-0.1c-0.1,0-0.1-0.1-0.1-0.2c0-0.1,0.1,0,0.1-0.1c-0.1-0.1-0.1-0.2-0.1-0.2h0.1
					c0-0.1-0.1-0.2-0.1-0.4h0.1V23h-0.1l0.1-0.2h-0.1v-0.1c0,0,0.1,0,0.2-0.1l-0.2-0.1l0.1-0.2l0.2-0.1c0-0.2-0.2-0.1-0.2-0.3h0.1
					v-0.2h0.1l-0.1-0.4h-0.1c0-0.1,0.1-0.1,0.2-0.2V21h-0.2v-0.1l0.2-0.1v-0.4c0-0.2-0.1-0.5-0.1-0.7h0.1l0.1-0.5h-0.2l0.1-0.5
					c-0.1,0-0.1-0.1-0.1-0.2h0.1v-0.1c0,0-0.1,0-0.1-0.2l0.2-0.1c0-0.1-0.2-0.1-0.2-0.2v-0.7c0,0-0.1,0-0.1-0.2h0.1l0.1-0.2h-0.1
					v-0.2h-0.1l0.2-0.2h-0.2l0.1-0.2h0.1L72.3,16h0.1c0-0.2,0-0.5-0.1-0.7l0.2-0.1l-0.1-0.1v-0.5h0.1v-0.1c-0.1,0-0.1-0.1-0.1-0.2
					c0-0.1,0.1,0,0.1-0.1h-0.1c0-0.3,0-0.6,0.1-0.9l-0.2-0.1c-0.1-0.2,0.1-0.2,0.1-0.3l-0.1-0.2l0.2-0.1v-0.2
					c-0.2-0.1-0.1,0-0.2-0.1h0.1v-0.1h-0.1l0.1-0.2h-0.2c0.1-0.3,0.1-0.6,0-1h-0.2v-0.1h0.2C72.2,11,72,11,72,11
					c0-0.1,0.2-0.1,0.1-0.3l-0.2-0.1v-0.2h-0.2L71.7,10h-0.1V9.8c-0.1,0-0.1,0.1-0.2,0.2h-0.1l0.2-0.3h-0.2V9.2h-0.1l0.1-0.1
					c0-0.1-0.1-0.2-0.2-0.2c-0.1-0.3-0.2-0.3-0.5-0.3c-0.1,0.2-0.2,0.2-0.2,0.2c0,0.1,0,0,0.1,0.1c0,0.1-0.1,0.1-0.2,0.2
					c0.1,0.1,0,0,0.2,0.1c-0.1,0.4-0.2,0.1-0.1,0.5c0,0-0.1,0-0.1,0.1h0.2C70.7,9.9,70.7,9.9,70.8,10z M70.7,9.5
					c0.2,0,0.1,0,0.2,0.1C70.7,9.5,70.8,9.6,70.7,9.5L70.7,9.5z"/>
				<ellipse id="楕円形_48" class="st1" cx="128.7" cy="9.6" rx="0.1" ry="0.1"/>
				<path id="パス_337" class="st1" d="M70.7,9.5c0.1,0.1,0,0,0.2,0.1C70.8,9.5,70.9,9.5,70.7,9.5z"/>
				<path id="パス_338" class="st1" d="M35.9,29.1c0.1-0.2-0.1-0.2-0.2-0.2v-0.2h-0.1v-0.1h0.1L35.7,28h0.2v-0.2h-0.2l0.2-0.3
					c-0.1,0-0.2,0.1-0.2-0.1c0-0.1,0.2,0,0.2-0.2l-0.2-0.1l0.1-0.2c-0.1-0.1-0.1-0.2-0.1-0.2h0.1v-0.2h0.1c0-0.1-0.1-0.1-0.2-0.2
					l0.1-0.2h-0.1v-0.1c0.1,0,0.1-0.1,0.1-0.2h-0.1v-0.1c0.1-0.1,0.1-0.2,0.1-0.2h-0.1v-0.6h-0.1l0.2-0.2l-0.2-0.1l-0.1-1l0.2-0.1
					v-0.1h-0.2l0.1-0.1l-0.2-0.2l0.2-0.1c0-0.1-0.1-0.2-0.2-0.4h0.2c-0.1-0.1,0-0.2,0-0.2h-0.1c0-0.1-0.2-0.2-0.1-0.4h0.1
					c0,0,0-0.3-0.1-0.2c-0.1,0,0,0.1-0.1,0.1l0.1-0.2c-0.1-0.1-0.1-0.2-0.1-0.2c0,0,0.1,0,0.1-0.2h-0.1c0-0.2,0.2,0,0.2-0.2
					l-0.2-0.1v-0.2h0.1l-0.1-0.2h0.1v-0.1h-0.1v-0.2h-0.1c0-0.1,0.2-0.1,0.2-0.2c0.1-0.2-0.3-0.2,0.1-0.5v-0.2l-0.2,0.1l0.2-0.5
					h-0.2l0.1-0.5c0,0-0.1,0-0.1-0.2c0-0.1,0.1,0,0.1-0.1l-0.2-0.1v-1H35v-0.1c0-0.1,0.1,0,0.1-0.2H35V17h0.1L35,16.5H35
					c0-0.1,0.2-0.2,0.2-0.4c0,0-0.1,0-0.2-0.2h0.2c0-0.1-0.1-0.1-0.2-0.2c0-0.1,0.1-0.1,0.1-0.2L35,15.2H35v-0.3H35l0.1-0.2H35V14
					c0-0.1-0.2,0-0.2-0.2l0.2-0.1v-0.1h-0.1l0.1-0.4l-0.2-0.1l-0.1-0.4c0.1,0,0.1-0.1,0.1-0.1c0,0,0,0,0,0l-0.2-0.1v-0.4h-0.1V12
					h0.1v-0.1l-0.2-0.1v-0.2l-0.2-0.1c-0.1-0.3,0-0.4,0-0.6h-0.2v-0.2L34,10.7l0.1-0.2H34c-0.1-0.3,0-0.1,0-0.4
					c-0.2-0.1-0.4-0.2-0.6-0.1c0,0.3,0.1,0.2,0.2,0.4l-0.2-0.1c-0.1,0.1,0,0-0.1,0.1l0.1,0.8h0.1l-0.1,0.2l0.2,0.1
					c0.1,0.2-0.1,0.3-0.1,0.4h0.1c0.1,0.2,0.1,0.4,0,0.6h0.2c-0.1,0.1,0,0-0.2,0.1c0.1,0.1,0,0,0.2,0.1V13h0.1v0.1h-0.2
					c0.1,0.1,0,0,0.2,0.1l0.1,0.5h-0.1v0.1h0.1v0.2h0.1l-0.1,0.2h0.1v0.3h-0.1c0,0.1,0.1,0.1,0.1,0.3h-0.1v0.1c0,0.2,0,0.3,0.1,0.5
					h-0.1v0.4c0,0.1-0.1,0-0.1,0.1h0.2V16c-0.1,0.1-0.2,0-0.2,0.2l0.2,0.1c0,0.1-0.2,0.2-0.2,0.4l0.2,0.1v0.1h-0.1v0.1h0.1l-0.1,0.4
					h0.1v0.2H34c0,0.1-0.1,0.1-0.1,0.2l0.1,0.2c0,0-0.1,0-0.2,0.2H34l-0.1,0.2c0,0.1,0.1,0.2,0.2,0.2c0,0.1-0.2,0.1-0.2,0.2l0.1,0.2
					h0.2l-0.1,0.6h0.1v0.1h-0.1v0.1h0.1v0.1c-0.1,0-0.1,0.1-0.1,0.2h0.1v0.1h-0.1c0,0.1,0.1,0.1,0.1,0.3h-0.1v0.1h0.1
					c0,0.2-0.1,0-0.2,0.1c0.1,0.1,0,0,0.2,0.1c0,0.2-0.1,0.2-0.2,0.3c0.1,0.1,0,0,0.2,0.1l-0.1,0.7h0.1v0.2h0.1l-0.2,0.3l0.2,0.1
					l-0.1,0.4h0.2v0.1h-0.2l0.1,0.5c0,0.1-0.1,0-0.1,0.1h0.1v0.1c-0.1,0.1-0.1,0.2-0.1,0.2h0.1l-0.1,0.2l0.2,0.1l-0.1,0.2
					c0,0,0.1,0,0.1,0.2c0,0-0.2,0-0.2,0.2l0.2,0.1l-0.1,0.2h0.1c0.1,0.4-0.1,0.8,0,1.3h0.1l-0.1,0.3l0.2,0.1c0,0.1-0.2,0.2-0.2,0.2
					c0,0.1,0,0.1,0.1,0.2V27h-0.1l0.1,0.2h-0.1c0,0.2,0.1,0.2,0.2,0.2l-0.1,0.7h0.1v0.7h0.1c0,0.1-0.1,0.1-0.1,0.3h0.1l-0.1,0.2h0.1
					l0.1,0.5c0.3,0,0.5,0.1,0.8,0.2c0.1-0.2,0.2-0.2,0.2-0.4h0.2v-0.3l-0.2,0.1v-0.2L35.9,29.1z"/>
				<path id="パス_339" class="st1" d="M133.2,14.1L133.2,14.1l0.5,0.2v-0.1c-0.1-0.1,0,0-0.1-0.1H133.2z"/>
				<path id="パス_340" class="st1" d="M176.8,14.3h-0.2C176.8,14.3,176.7,14.3,176.8,14.3L176.8,14.3z"/>
			</g>
			<g id="グループ_279" transform="translate(85.066 3.377)">
				<path id="パス_341" class="st0" d="M25.7,10.3C25,7.4,22.4,3.1,19.5,2C14-0.2,11.9-0.2,7.8,1.8c-5,2.5-8,7.9-7.5,13.5
					C0.9,19,3.2,22.2,6.5,24c5.1,3.1,9,1.5,12.7-0.5C23,21.3,26.6,14.3,25.7,10.3z M16,17.8c-1.9,1-3.6,1.1-6.5-2.3
					C7.3,13,8.6,11.4,9.6,9.9C11,7.8,12.7,7.6,14.9,8c1.9,0.3,3.4,1.7,3.8,3.6C19.6,14.1,18.3,16.8,16,17.8L16,17.8z"/>
			</g>
		</g>
	</g>
</g>
</svg>
