<?xml version="1.0" encoding="utf-8"?>
<!-- Generator: Adobe Illustrator 24.2.0, SVG Export Plug-In . SVG Version: 6.00 Build 0)  -->
<svg version="1.1" id="レイヤー_1" xmlns="http://www.w3.org/2000/svg" xmlns:xlink="http://www.w3.org/1999/xlink" x="0px"
	 y="0px" viewBox="0 0 174 55" style="enable-background:new 0 0 174 55;" xml:space="preserve">
<style type="text/css">
	.st0{fill:#FFFFFF;}
	.st1{fill:#FFFFFF;stroke:#FFFFFF;stroke-width:2;stroke-linejoin:round;}
</style>
<g id="グループ_1040" transform="translate(23.565 4)">
	<path id="パス_723" class="st0" d="M-15.3,40.7c0.4,0.4,0.8,0.9,1.1,1.5c0,0.1,0.1,0.1,0.2,0.1l0.5-0.3c0.1,0,0.1-0.1,0.1-0.2
		c0,0,0,0,0,0c-0.3-0.5-0.6-1-1-1.4c-0.1-0.1-0.1-0.1-0.2,0L-15.3,40.7z M-14.2,40c0.4,0.4,0.8,0.9,1.1,1.5c0,0.1,0.1,0.1,0.2,0.1
		c0,0,0,0,0,0l0.5-0.3c0.1,0,0.1-0.1,0.1-0.2c0,0,0,0,0,0c-0.3-0.5-0.6-1-1-1.3c-0.1-0.1-0.1-0.1-0.2,0L-14.2,40z M-17.6,42.4
		c0.7,0,1.4,0,2,0c0.1,0,0.2-0.1,0.2-0.2c0-0.3,0-0.6,0-0.9c0-0.2,0-0.2-0.1-0.2c-0.6,0-1.4,0-2,0h-2.2c-0.5,0-1.2,0-2-0.1
		c0,0.4,0,0.9,0.1,1.2c0,0.1,0,0.2,0.2,0.2c0.7,0,1.2,0,1.7,0L-17.6,42.4z M-15.8,45.2c0.8,0,1.7,0,2.3,0c0.1,0,0.2,0,0.2-0.2
		c0-0.2,0-0.8,0-0.9c0-0.2,0-0.2-0.1-0.2c-0.7,0-1.4,0.1-2.3,0.1h-5.4c-0.7,0-1.4,0-2-0.1c0,0.4,0,0.8,0.1,1.2c0,0.2,0,0.2,0.2,0.2
		c0.6,0,1.2-0.1,1.8-0.1h2.3c0,0.9-0.2,1.8-0.6,2.6c-0.6,0.9-1.4,1.7-2.4,2.1c0.4,0.1,0.8,0.4,1.1,0.6c0.1,0.1,0.2,0.1,0.3,0.1
		c0.1,0,0.3-0.1,0.4-0.1c0.9-0.6,1.6-1.3,2.1-2.3c0.5-1,0.7-2,0.7-3.1L-15.8,45.2z M-1.3,47.4h-4.1c-0.9,0-1.6,0-2.2-0.1
		c0,0.4,0,0.8,0.1,1.2c0,0.1,0.1,0.2,0.2,0.2c0.6,0,1.2,0,2,0h4.1v0.5c0,0.2,0,0.2,0.2,0.2c0.4,0,0.7,0,1.1,0c0.2,0,0.2,0,0.2-0.2
		c0-0.3,0-1.3,0-2.2v-2.9c0-0.6,0-1.3,0-1.9c0-0.2,0-0.2-0.2-0.2c-0.6,0-1.3,0-1.9,0h-3.6c-0.7,0-1.3,0-2-0.1c0,0.4,0,1,0.1,1.3
		c0,0.1,0,0.2,0.2,0.2c0.6-0.1,1.2-0.1,1.8-0.1h4.2L-1.3,47.4z M9.5,43.5c0-0.5,0-1,0.1-1.5c0-0.1,0.1-0.2,0.1-0.3
		c0-0.1-0.1-0.2-0.2-0.2c-0.5-0.1-1-0.2-1.6-0.3c0.1,0.7,0.2,1.4,0.1,2.1l0,4.5c0,0.2,0,0.5,0,0.7c0,0.1-0.1,0.1-0.1,0.2
		c0,0.1,0,0.1,0.1,0.2c0.2,0.3,0.4,0.6,0.7,0.8c0.1,0.1,0.1,0.1,0.2,0.1c0.1,0,0.2,0,0.2-0.1c0.2-0.2,0.4-0.3,0.7-0.4
		c1-0.4,2-0.9,2.9-1.5c1.1-0.6,2.1-1.3,3-2.1c0.2-0.1,0.2-0.3,0.1-0.5c-0.1-0.5-0.2-0.9-0.2-1.4c-0.9,1-2,1.8-3.2,2.4
		c-1,0.6-2,1.1-3.1,1.5L9.5,43.5z M28.2,46.3c0.9,0,1.8,0,2.7,0c0.2,0,0.2,0,0.2-0.2c0-0.4,0-0.8,0-1.1c0-0.1,0-0.2-0.2-0.2
		c-0.9,0-1.8,0-2.8,0h-3.9c-0.9,0-1.7,0-2.6-0.1c0,0.5,0.1,1,0.2,1.5c0,0.2,0.1,0.3,0.3,0.3c0.6-0.1,1.2-0.2,1.8-0.1H28.2z
		 M36.6,44.8c0.9,0.3,1.7,0.8,2.4,1.3c0,0,0.1,0.1,0.1,0.1c0,0,0.1,0,0.2-0.1c0.2-0.3,0.4-0.6,0.5-0.9c0,0,0-0.1,0-0.1
		c0-0.1,0-0.1-0.1-0.2c-0.7-0.5-1.5-0.9-2.3-1.2c-0.1,0-0.2,0-0.2,0.1C37.1,44,36.9,44.3,36.6,44.8z M38,42c0.8,0.4,1.6,0.9,2.3,1.5
		c0,0,0.1,0.1,0.2,0.1c0.1,0,0.1,0,0.1-0.1c0.2-0.3,0.4-0.6,0.6-0.9c0,0,0-0.1,0-0.2c0-0.1,0-0.1-0.1-0.2c-0.7-0.6-1.4-1-2.3-1.3
		c-0.1-0.1-0.2,0-0.3,0.1C38.5,41.3,38.2,41.7,38,42z M37.5,48.8c0.3,0.4,0.5,0.8,0.9,1.2c0.1,0.1,0.1,0.1,0.2,0.1
		c0.1,0,0.1,0,0.2-0.1c0.2-0.2,0.5-0.3,0.7-0.4c1.3-0.7,2.4-1.4,3.6-2.3c1.1-0.8,2.1-1.8,3-2.8c0.1-0.1,0.1-0.2,0.1-0.3
		c0-0.1,0-0.2-0.1-0.2c-0.2-0.4-0.3-0.9-0.3-1.3c-1,1.2-2.2,2.4-3.5,3.3c-1,0.8-2.1,1.5-3.3,2.1C38.7,48.5,38.1,48.7,37.5,48.8
		L37.5,48.8z M58,46.3h-2.6c-0.8,0-1.2,0-1.9-0.1c0,0.3,0,0.6,0,1c0,0.2,0.1,0.3,0.2,0.3c0.5,0,1.1,0,1.6,0H58v1.3h-2.8
		c-0.7,0-1.3,0-1.9,0c0,0.3,0,0.7,0.1,1c0,0.2,0,0.2,0.2,0.2c0.6,0,1.1-0.1,1.7-0.1H58v0.4c0,0.1,0,0.2,0.2,0.2c0.2,0,0.6,0,0.8,0
		c0.2,0,0.3,0,0.3-0.2c0-0.6,0-1.2,0-1.7v-2.8c0-0.5,0-1,0-1.6c0-0.1,0-0.2-0.2-0.2c-0.5,0-1.2,0-1.8,0h-2.1c-0.6,0-1.3,0-1.9-0.1
		c0,0.5,0,0.7,0.1,1c0,0.2,0.1,0.3,0.2,0.3c0.5,0,1.1-0.1,1.7-0.1H58V46.3z M67,42.6c0.9,0.5,1.7,1.2,2.4,2c0.1,0.1,0.1,0.1,0.2,0.1
		c0,0,0.1,0,0.1-0.1c0.2-0.2,0.6-0.7,0.7-0.9c0,0,0.1-0.1,0.1-0.2c0,0,0-0.1-0.1-0.2c-0.7-0.7-1.5-1.2-2.3-1.7c0,0-0.1-0.1-0.2-0.1
		c-0.1,0-0.1,0-0.2,0.1C67.6,41.9,67.3,42.2,67,42.6L67,42.6z M67.3,48.5c0.3,0.5,0.6,0.9,1,1.3c0,0.1,0.1,0.1,0.2,0.1
		c0.1,0,0.2-0.1,0.2-0.1c0.2-0.2,0.5-0.4,0.8-0.6c1.3-0.7,2.5-1.5,3.6-2.3c1-0.8,1.9-1.6,2.8-2.5c0.1-0.2,0.2-0.3,0.2-0.4
		c0-0.1,0-0.2-0.1-0.2c-0.2-0.4-0.3-0.9-0.3-1.4c-1,1.2-2.1,2.3-3.3,3.3c-1.1,0.9-2.2,1.6-3.5,2.2C68.4,48.2,67.8,48.4,67.3,48.5
		L67.3,48.5z M85.7,42.1c0-0.4,0-0.8,0.1-1.1c0.1-0.1,0.1-0.2,0.1-0.3c0-0.1-0.1-0.2-0.2-0.2c-0.5-0.1-1-0.2-1.5-0.2
		c0.1,0.6,0.1,1.2,0.1,1.8V48c0,0.8,0,1.5,0,2.4c0,0.1,0.1,0.2,0.2,0.2c0.4,0,0.7,0,1.1,0c0.2,0,0.2,0,0.2-0.2c0-0.9,0-1.6,0-2.4
		v-2.7c1.1,0.4,2.2,0.9,3.2,1.5c0,0,0.1,0.1,0.1,0.1c0.1,0,0.1,0,0.2-0.1c0.2-0.3,0.4-0.7,0.5-1c0.1-0.2,0-0.2-0.1-0.3
		c-1.2-0.7-2.5-1.2-3.8-1.6V42.1z M87.9,41.4c0.5,0.4,0.9,0.9,1.2,1.4c0,0.1,0.1,0.1,0.2,0.1c0,0,0,0,0,0l0.5-0.4
		c0.1,0,0.1-0.1,0.1-0.2c0,0,0,0,0,0c-0.3-0.5-0.7-0.9-1.1-1.3c-0.1-0.1-0.1-0.1-0.2,0L87.9,41.4z M89,40.6c0.5,0.4,0.9,0.9,1.2,1.4
		c0,0.1,0.1,0.1,0.2,0.1c0,0,0,0,0,0l0.5-0.4c0.1,0,0.1-0.1,0.1-0.2c0,0,0,0,0,0c-0.3-0.5-0.7-0.9-1.1-1.2c-0.1-0.1-0.1-0.1-0.2,0
		L89,40.6z M103.2,46.3c0.9,0,1.8,0,2.7,0c0.2,0,0.2,0,0.2-0.2c0-0.4,0-0.8,0-1.1c0-0.1,0-0.2-0.2-0.2c-0.9,0-1.8,0-2.8,0h-3.9
		c-0.9,0-1.7,0-2.6-0.1c0,0.5,0.1,1,0.2,1.5c0,0.2,0.1,0.3,0.3,0.3c0.6-0.1,1.2-0.2,1.8-0.1H103.2z M117.4,43.5c0-0.7,0-1.1,0-1.6
		c0-0.2,0-0.5,0.1-0.7c0-0.1,0.1-0.2,0.1-0.3c0-0.1,0-0.1-0.2-0.2c-0.5-0.1-1.1-0.2-1.6-0.2c0.1,0.4,0.1,0.8,0.1,1.2
		c0,0.5,0,1.2,0,1.8h-2.4c-0.6,0-1.3,0-2-0.1c0,0.4,0,0.9,0.1,1.2c0,0.2,0.1,0.2,0.2,0.2c0.5,0,1.1-0.1,1.7-0.1h2.3
		c0,1-0.2,1.9-0.7,2.8c-0.7,1-1.6,1.7-2.7,2.2c0.4,0.2,0.7,0.4,1,0.7c0.1,0.1,0.2,0.1,0.3,0.1c0.1,0,0.2,0,0.3-0.1
		c1-0.5,1.9-1.4,2.6-2.4c0.6-1,0.8-2.1,0.8-3.3h1.7c0.7,0,1.6,0,2,0c0.2,0,0.2,0,0.2-0.2c0-0.3,0-0.6,0-0.9c0-0.2-0.1-0.2-0.2-0.2
		c-0.6,0-1.4,0-2.1,0H117.4z M128.8,44.5c-0.6,0-1.5,0-2.3-0.1c0,0.4,0,0.7,0.1,1.1c0,0.2,0.1,0.3,0.2,0.3c0.6,0,1.5,0,1.9,0h2.1
		c0,0.7-0.2,1.4-0.5,2c-0.5,1-1.3,1.7-2.2,2.2c0.4,0.1,0.9,0.2,1.3,0.5c0.1,0,0.1,0.1,0.2,0.1c0.1,0,0.1,0,0.2-0.1
		c0.8-0.6,1.5-1.3,1.9-2.2c0.4-0.8,0.6-1.6,0.6-2.4h1.5c0.9,0,1.6,0,2.3,0c0.1,0,0.1,0,0.2-0.2c0-0.3,0-0.6,0-1c0-0.1,0-0.2-0.1-0.2
		c-0.5,0-1.6,0.1-2.3,0.1h-1.5c0-0.4,0-0.7,0-0.9c0-0.1,0-0.3,0.1-0.4c0-0.1,0.1-0.1,0.1-0.2c0-0.1-0.1-0.2-0.2-0.2
		c-0.3-0.1-0.5-0.1-0.8-0.2c0.7-0.1,1.4-0.3,2.2-0.5c0.3-0.1,0.5-0.2,0.8-0.2c0.2,0,0.3,0,0.3-0.2c0-0.1-0.1-0.3-0.2-0.3
		c-0.3-0.3-0.6-0.6-1-0.8c-0.3,0.2-0.7,0.4-1,0.5c-0.6,0.2-1.3,0.4-2,0.5c-1.2,0.2-2.4,0.4-3.6,0.4c0.2,0.2,0.5,0.5,0.6,0.8
		c0,0.1,0.1,0.3,0.3,0.3c1-0.1,1.9-0.2,2.8-0.4c0,0.2,0,0.4,0.1,0.6c0,0.3,0,0.8,0,1.2L128.8,44.5z M147.8,48.5l0.4-2.5
		c0-0.2,0.1-0.4,0.2-0.6c0.1-0.1,0.1-0.1,0.1-0.2c0-0.1,0-0.2-0.1-0.2c-0.2-0.2-0.5-0.5-0.7-0.7c-0.1,0-0.1-0.1-0.2-0.1
		c0,0-0.1,0-0.1,0c-0.2,0.1-0.5,0.1-0.7,0.1H145c-0.5,0-0.9,0-1.7-0.1c0,0.4,0,0.8,0.1,1c0,0.2,0.1,0.2,0.2,0.2c0.3,0,0.9,0,1.3,0
		h1.9l-0.4,2.9h-2.8c-0.6,0-1,0-1.7,0c0,0.3,0,0.7,0.1,1c0,0.2,0.1,0.2,0.2,0.2c0.6,0,1.1,0,1.5,0h4.4c0.6,0,1.1,0,1.7,0
		c0.2,0,0.2,0,0.2-0.2s0-0.5,0-0.8c0-0.2-0.1-0.2-0.3-0.2c-0.5,0-1,0-1.5,0H147.8z"/>
	<g id="グループ_289" transform="translate(0.802 -3)">
		<path id="パス_359" class="st1" d="M123.7,4.5l-0.7,0.1c0,0-0.1-0.4-0.1-0.2v0.1l-0.6,0.1V4.5l-0.2,0.1l-0.1-0.2l-0.3,0.1V4.4
			c-0.2-0.1-0.5,0-0.7,0.2h-0.1l0.1-0.3h-0.4V4.1h-0.1c-0.1,0,0,0.2-0.3,0.1V4.1l-0.2,0.1V4.1l-0.3,0.1L119.5,4l-0.6,0.1V4h-0.6v0.1
			c-0.3,0.1-0.5-0.2-0.9,0l-0.1-0.3L116.8,4V3.8h-0.1v0.1h-0.9V3.8l-0.3,0.1V3.7l-0.6,0.1v0.1h-0.4V3.8c-0.5-0.1-1,0-1.5,0.1V3.7
			l-0.7-0.1v0.1h-0.1V3.6h-0.7V3.5c-0.2,0-0.1,0.2-0.2,0.2c-0.2,0-0.2-0.1-0.4-0.1V3.4l-0.8,0.1v0.1c-0.2,0-0.1-0.2-0.2-0.2
			c-0.3-0.1-0.3,0.1-0.4,0.1c-0.2,0-0.6-0.3-0.8-0.4v0.2l-1.8-0.1l-0.1-0.2c-0.2-0.1-0.3,0.1-0.4,0.1V2.9l-0.8-0.1V2.6
			c0,0-0.4,0-0.2-0.1h0.1V2.1h-0.4V1.9c-0.6,0.1-0.3,0.2-0.7,0.4l-0.7,0.2c-0.1-0.3-0.1,0,0-0.3l-0.8-0.1v0.1h-0.1V2.1h-0.3V2h-0.8
			c-0.2,0,0,0.2-0.1,0.1l-0.1-0.2L100.8,2V1.9l-1-0.1V1.7l-0.6,0.2V1.8h-0.7l-0.1-0.2l-0.1,0.1h-0.6V1.6c-0.1,0.1-0.3,0.1-0.4,0.1
			V1.5l-0.6,0.2l-0.1-0.3c-0.3,0.1-0.3,0.2-0.6,0.2V1.2H96v0.2h-0.3V1.2h-0.2v0.1l-1.1-0.2V0.9c-0.9-0.1-1.7-0.1-2.6,0V0.7
			c-0.2,0-0.3,0-0.4,0.1V0.6l-0.6,0.1c0-0.1-0.1-0.1-0.2-0.1v0.1h-0.1c0,0-0.1-0.2-0.2-0.1v0.1H90V0.3l-0.3,0.1V0.3h-0.1l-0.1,0.2
			h-0.1V0.5h-0.1v0.1h-0.4l-0.1,0.6h0.1v0.3h0.1L89,1.8c0.2,0,0.3-0.1,0.4-0.1L89.6,2h0.1V1.8h0.1V2c0.3,0,0.7,0,1-0.1
			c0.1,0.3,0.1,0,0,0.3h0.7v0.1h0.1c0.1-0.1,0-0.1,0.1-0.1v0.1h0.2v0.1l0.3-0.1v0.2h0.1c0.1-0.1-0.1-0.1,0.1-0.2l0.1,0.2h0.7V2.5
			h0.1v0.1h0.4c0.4,0.1,0.2,0.5,0.6,0.1h0.1V3l0.3-0.1V2.8l0.6,0.1V3c0.4,0.1,0.6-0.1,0.8-0.2V3h0.3v0.2c0.3-0.1,0.2,0,0.3-0.2h0.6
			v0.1h0.1c0,0.1-0.1,0.2-0.1,0.3l0.1-0.1h0.8V3.2h0.1l-0.1,0.2l0.4-0.1V3.1h0.1v0.3c0.1,0,0.2-0.2,0.4-0.1c0.1,0,0,0.3,0.3,0.2
			l0.1-0.2l0.9,0.2c0.2-0.4,0.2,0.2,0.8,0.1V3.6h0.1v0.1h0.4l0.1,0.2c0.1,0,0.2-0.2,0.4-0.1v0.1h0.6V4h0.1V3.9h0.1l-0.1,0.2
			c0.2,0,0.4,0,0.6-0.1l0.2,0.4l-0.2-0.1v0.2h0.2v0.3h0.1V5H104v0.2h0.1L104,5.4l0.1,0.1L104,5.8h0.2l-0.1,0.4
			c0.1,0.1,0.2,0.2,0.1,0.3c0,0.2-0.1,0-0.1,0.1l0.1,0.2h-0.1v0.2h0.2c-0.1,0.3-0.1,0.6,0,0.9h0.1v0.1h-0.1l-0.1,0.3l0.2,0.1V9h0.1
			v0.1h-0.2c0,0.1,0.2,0.2,0.2,0.2l-0.1,0.3h0.1v0.1l-0.2,0.1l0.1,0.3h0.1l-0.1,0.2h0.1v0.4h-0.1c0.1,0.3,0.2,0.1,0.3,0.2
			c-0.2,0.3-0.3,0.6-0.2,0.9c0,0.2,0.1,0,0.1,0.1l-0.1,0.2c0,0,0.1,0,0.1,0.2l-0.1,0.2h0.1c0,0.2-0.1,0.4-0.1,0.6l0.2,0.1l-0.1,0.2
			c0,0.1,0.3,0,0.2,0.2h-0.1v0.3h-0.1c0,0.2,0.1,0,0.2,0.1l-0.1,0.1v0.3h-0.1c0,0.2,0.2,0.1,0.2,0.2l-0.1,0.1v0.8h0.1V16h-0.1v0.1
			h0.1v0.1h-0.1v0.1h0.1c0,0.1-0.1,0.3-0.1,0.4c0,0,0.2,0.1,0.1,0.3c0,0-0.2,0-0.1,0.2l0.2,0.1c0.1,0.4-0.3,0.4-0.2,0.8h0.1v0.3h0.1
			c0,0.1,0,0.3-0.1,0.3l0.1,0.7h-0.1V20h0.1c0,0.3,0,0.5-0.1,0.8h0.2l-0.1,0.3h-0.2v0.1h0.1v0.2h0.1l-0.1,0.3h0.1v0.7h-0.1v0.1h0.2
			l-0.1,0.1c0,0.2,0.2,0.2,0.1,0.4h-0.1v0.4c0,0.2,0.1,0,0.1,0.1h-0.1v0.4l0.1,0.3h-0.1v0.1h0.1l0.1,0.3h-0.1v0.3h-0.1v0.1h0.1v0.8
			h0.1v0.1h-0.1v0.3h-0.1c-0.1,0.3,0.2,0.2,0.2,0.3c0,0.2-0.2,0.2-0.1,0.4h0.1v0.1h-0.1v0.6h0.1c0,0.2,0,0.4-0.1,0.6h-0.1l0.1,0.1
			v0.4h0.1v0.1h-0.1l0.1,0.3l-0.1,0.3h0.1c0,0.2-0.1,0.4-0.1,0.6h0.1v0.2h0.1c0,0.1-0.1,0.3-0.1,0.4h0.1v0.4h0.1
			c0,0.1-0.2,0.2-0.1,0.4l0.2,0.1l-0.1,0.2h0.1c0.1,0.2,0.1,0.4,0.1,0.6h0.3v0.2l0.3-0.1l0.3,0.1l0.1-0.2c0.4-0.2,0.5-0.1,0.7-0.6
			h-0.2l0.1-0.3h-0.1c0-0.3-0.1-0.6-0.1-0.9H107v-0.1c0.1,0,0.1-0.1,0.1-0.2c0,0,0,0,0,0c0,0-0.2,0-0.1-0.3c0,0,0.2,0,0.1-0.2
			l-0.2-0.1v-0.8h0.1c0.1-0.3-0.2-0.2-0.2-0.3l0.1-0.1v-1.1h0.1v-0.1h-0.1v-0.4h-0.1c0-0.1,0.2-0.2,0.2-0.2c0.1-0.2-0.1-0.2-0.1-0.2
			c0-0.3,0-0.6,0.1-0.9h-0.2v-0.4h0.1v-0.1c-0.1,0-0.1-0.1-0.1-0.2h0.1l-0.1-0.2h0.1v-0.1h-0.1l0.1-0.3c0-0.2-0.1-0.4-0.1-0.7h0.1
			v-0.1h-0.1v-0.4h-0.1c-0.1-0.5,0-1,0.2-1.5v-0.1l-0.3-0.1c0-0.2,0.2-0.2,0.2-0.2c0-0.2-0.2-0.2-0.1-0.4h0.1v-0.1
			c-0.1-0.1-0.1-0.2-0.1-0.3c0,0,0.1,0,0.1-0.2c-0.1-0.1-0.1-0.2-0.1-0.3h0.1c0-0.2,0-0.4-0.1-0.6h0.1l0.1-0.2h-0.2v-0.6h-0.1v-0.1
			h0.1c0-0.1,0.1-0.2,0.1-0.3h-0.2c0.1-0.3,0.2-0.3,0.2-0.7c-0.2-0.1-0.1,0-0.2-0.1h0.2c-0.1-0.3-0.2-0.3-0.2-0.6h0.2l-0.1-0.2h-0.1
			c0-0.2,0.1-0.2,0.1-0.2c0-0.3-0.1-0.6-0.1-0.9h0.1v-0.1h-0.2c0.1-0.4-0.1-2,0.1-2.2v-0.3c-0.1,0.1-0.1,0.1-0.2,0.2l-0.1-0.3
			c0-0.2,0.3-0.5,0.2-0.9h-0.1l0.1-0.4l-0.2-0.1c-0.1-0.3,0.1-0.7,0.2-0.9l-0.3-0.1V10c0.4-0.2,0.1-0.4-0.1-0.7l0.3-0.1
			c-0.1-0.1-0.2-0.2-0.3-0.3c0-0.1,0-0.2,0.1-0.2c0,0,0,0,0,0V8.5h-0.1c-0.1-0.3,0.1-0.3,0.1-0.4h-0.1V7.9h0.1V7.3h-0.1l-0.1-0.7
			c0.2-0.1,0.1,0,0.2-0.1h-0.2V5.9c0,0-0.1,0-0.1-0.2h0.1V5.6l-0.2-0.1c0-0.2,0.2,0,0.2-0.2h-0.1c0-0.2-0.1-0.4-0.1-0.6l0.2-0.1V4.5
			h0.1l0.3,0.1V4.5h0.1v0.1l0.3,0.1V4.6c0.2,0,0,0.1,0.1,0.1h0.3v0.1h0.1V4.7h0.4v0.1l0.2-0.1v0.1h0.4v0.1l0.3-0.1v0.1L110,5v0.1
			h0.1V5l0.3,0.1v0.1c0.2,0,0.2-0.1,0.4-0.1l0.6,0.1V5.1c0.1,0,0.5-0.1,0.3,0.1h-0.1v0.1c0.3-0.1,0.5-0.1,0.8-0.1v0.2h0.1
			c0-0.1,0.1-0.1,0.2-0.1c0,0,0,0.1,0.2,0.1V5.4l0.2,0.1V5.4h0.4v0.1h0.6v0.1h0.1V5.5h0.7v0.1c0.3,0.1,0.3-0.1,0.4-0.1
			c0.2,0,0,0.2,0.1,0.1l0.1-0.2l0.6,0.1l0.1,0.2l0.3-0.1V5.5c0.2,0,0,0.3,0.2,0.2V5.6l0.6,0.1c0.1-0.1,0.2-0.1,0.3-0.1
			c0.1,0,0,0.2,0.1,0.1V5.6h0.1c0,0.1-0.1,0.1-0.1,0.2c0.5-0.1,1-0.1,1.5,0c0.1,0.2,0,0.1,0.1,0.2V5.8l1.1,0.1l0.1,0.2l0.9-0.1v0.1
			h1.3c0,0.1,0.1,0.1,0.1,0.2h0.1V6.3c0.2,0,0,0.1,0.1,0.1l0.3-0.1v0.1h0.1V6.3l0.7-0.1c0.1-0.4,0.1-0.8,0-1.2h0.1V4.8h-0.8
			L123.7,4.5z"/>
		<path id="パス_360" class="st1" d="M28.2,28.3v-0.2h-0.1c0-0.2-0.1-0.4-0.1-0.6c-0.3,0.1-0.6,0.1-0.9,0l-0.1,0.2h-0.4
			c-0.1,0,0,0.2-0.2,0.2c-0.2-0.2,0.1-0.1-0.1-0.2L26,28.1c-0.2,0-0.4-0.1-0.6-0.2c0,0.1-0.1,0.2-0.2,0.3v0.1L25,28.2
			c-0.2,0-0.2,0.2-0.4,0.1c0,0-0.1-0.1-0.3-0.1v0.1h-0.1v-0.1l-0.7,0.1c-0.1,0,0-0.3-0.3-0.2v0.1h-0.6v0.1c-0.2,0-0.2-0.3-0.6-0.2
			l-0.1,0.2c-0.3,0.1-0.4-0.2-0.6-0.2v0.1c-0.3,0.1-0.4-0.1-0.6-0.1c-0.1,0,0,0.2-0.2,0.2c-0.1-0.1,0-0.1-0.1-0.1v0.1h-0.6v-0.1
			h-0.1v0.1l-0.3-0.1v0.1l-0.2,0.1v-0.2l-0.3,0.1v-0.1h-0.3v-0.1h-0.1v0.2c-0.1,0.1-0.1-0.1-0.1-0.1c-0.2,0-0.2,0.1-0.4,0.1v-0.1
			h-0.1v0.1h-0.4c-0.2,0,0-0.1-0.1-0.1v0.1l-0.3-0.1v0.1h-0.4v-0.1h-0.1v0.1h-0.8c0,0,0-0.1-0.2-0.1v0.1h-0.1v-0.1h-0.1v0.1
			c-0.2,0,0,0-0.1-0.1h-0.1v0.1h-0.6v0.1h-0.1v-0.1h-0.4v0.1l-0.3-0.1v0.1h-0.2v0.1h-0.1v-0.1l-0.3,0.1v-0.1H12l-0.1,0.2l-0.4-0.2
			v0.1l-1.1-0.1v0.1l-0.6,0.1v-0.2H9.7c0,0.1-1.1,0.2-1.1,0.2v-0.3L8,28.2V28l-0.6,0.1V28H7.3v0.2H7.2c-0.1-0.1,0.1-0.2-0.1-0.3V28
			H7c0.1-0.5,0.3-0.5-0.1-0.8v-1l-0.2,0.1c0-0.2-0.1-0.4-0.1-0.6h0.1v-0.1c-0.1,0-0.1-0.1-0.1-0.2c0,0,0,0,0,0c0-0.1,0.2,0,0.1-0.1
			H6.6c-0.2-0.3-0.1-0.3,0-0.6H6.3c0-0.4-0.1-0.7-0.1-1.1c0-0.2,0.1,0,0.1-0.1H6.2v-0.2H6.1v-1H5.8c0.1-0.3,0-0.3,0.3-0.3v-0.2H5.8
			c0-0.3,0-0.6,0.1-0.9c-0.2-0.1-0.3-0.2-0.4-0.3h0.1c-0.2-0.2,0-0.3,0-0.6H5.3l0.1-0.3H5.3c-0.1-0.3-0.1-0.7,0-1H5.1v-0.2
			c0.4,0,0.7,0,0.9-0.2h0.6l-0.1,0.2c0.4-0.1,0.4-0.1,0.9-0.2v0.2h0.1v-0.2c0.2,0,0.2,0.2,0.4,0.1v-0.1h1.2c0,0,0,0.1,0.2,0.1
			l0.3-0.1v0.1l1-0.2v0.2c0.4-0.1,0.8-0.1,1.1,0.1v-0.2c0.5,0,0.8,0.2,1.1-0.1h0.1l-0.1,0.2l0.9-0.1v0.1h0.6v0.1H15v0.1
			c0.1,0,0.2,0,0.2-0.1c0.2,0,0.2,0.1,0.2,0.1H16l0.1,0.2l1.1-0.1v0.1h-0.3v0.1l0.7-0.1v-0.1h0.1v0.1h0.4v0.2h0.1
			c0-0.3,0.8-0.1,0.9,0c0.1,0,0.5,0.1,0.3-0.1h-0.1v-0.1c0.3,0.1,0.6,0.2,0.9,0.1v-0.1h0.4l0.1,0.2h0.1v-0.1h0.3v-0.1
			c0.2,0,0.2,0.1,0.2,0.1l0.1-0.1c0.2,0,0.2,0.1,0.2,0.1h1.3v-0.2h0.1v0.3l0.7-0.3L24,18h0.2v-0.2H24c0-0.2,0-0.4-0.1-0.6l-0.1-0.1
			l-0.3,0.1v-0.1h-1.2V17c-0.2,0-0.2,0.1-0.2,0.1h-0.1V17c0,0-0.9,0.1-1,0.1v0.1h-0.1v-0.1c-0.2,0-0.2,0.1-0.2,0.1
			c-0.1,0-0.2-0.2-0.4-0.1v0.1H20l0.1-0.2l-0.8,0.2V17l-1.1,0.1V17H18v-0.1c-0.3-0.1-0.3,0.4-0.8,0.2l-0.1-0.2L16.7,17v-0.1h-0.1V17
			c-0.2,0-0.2-0.1-0.2-0.1h-0.6v-0.2h-0.1c0,0.3-0.2,0.1-0.3,0v-0.1c-0.2,0.1-0.5,0.1-0.8,0.1v-0.1H14v0.1c-0.2,0,0-0.3-0.2-0.2v0.1
			l-0.3,0.1v-0.1h-0.2v-0.1c-0.3,0.1-0.7,0.1-1,0.2h-0.1v-0.1h-0.3v-0.1c-0.2,0-0.2,0.1-0.2,0.1h-1v-0.2l-0.3,0.2
			c-0.3-0.1-0.7-0.1-1,0v0.1H9v-0.2c-0.1,0-0.2,0.2-0.4,0.1v-0.1H8.4v-0.1c-0.3-0.1-0.3,0.2-0.3,0.2l-0.9-0.1v0.1l-0.6,0.1v-0.2H6.5
			v0.1l-0.3-0.1v0.1l-0.2-0.1v0.1H5.7v0.1H5.1c0,0,0-0.4-0.1-0.2v0.1H4.9v-0.7l-0.2-0.1v-0.1h0.1v-0.3H4.7L4.8,15l-0.2-0.1
			c0-0.2,0.1-0.4,0.1-0.6H4.6V14H4.5v-0.1h0.1v-0.1H4.5c-0.1-0.3,0.1-0.3,0.1-0.4H4.3l0.1-0.2H4.3V13h0.1c0-0.2-0.2-0.1-0.2-0.2
			v-0.2H4.1v-0.3H4c0-0.3,0-0.5,0.1-0.8c-0.2-0.1-0.1,0-0.2-0.1H3.8v-0.1L4,11.1c0-0.2-0.2-0.1-0.2-0.2V9.7H3.6L3.4,9.2h0.1V9.1
			C3.5,9,3.2,9,3.3,8.7h0.1V8.6H3.1c0.1-0.5,0.1-0.7,0.1-1.1L2.9,7.4l-0.2-1c0.5-0.1,1-0.1,1.6-0.1l0.7,0.1L5,6.1h1V6
			c0.1,0,0.3,0,0.3,0.1c0.3,0.1,0.2-0.2,0.3,0c0,0,0,0.2,0.1,0.1l0.1-0.3l1.2,0.2V6c0.1,0,0.2,0,0.2,0.1c0.1,0,0.2,0,0.2-0.1L9,6.1
			V6l0.1,0.1L9.3,6h0.1v0.1h0.6V6l0.7,0.1V5.9c0.1,0.2,0.9,0,1.1,0.3c0,0,0.4,0,0.2-0.1h-0.1V6c0.3,0.1,0.5,0.1,0.8,0.1v0.1h0.1V6.1
			h0.4v0.2l0.7-0.1L14,6.5c0.1,0,0.3-0.2,0.6-0.1v0.1H15v0.1l0.4-0.2l0.1,0.3l0.8-0.2v0.1h0.2v0.1c0.2-0.1,0.4-0.1,0.6-0.1l0.1,0.1
			l0.2-0.1c0.3,0,0.3,0.1,0.3,0.1l0.1-0.1H18v0.1l1-0.1v0.2h0.2l0.1-0.2l0.6,0.1c0,0,0.2-0.4,0.2-0.3v0.1h0.2l-0.1-0.3h0.2l-0.1-0.2
			h0.1V5.6h-0.1v0.1h-0.1V5.6h-0.1c-0.2-0.2,0.2-0.1,0.2-0.1V5.4h-0.2V5h-0.4V4.9h-0.1V5h-0.2v0.1c-0.1,0-0.3-0.2-0.6-0.1v0.1h-0.6
			V5H17V4.9L16.7,5V4.9h-0.8V5h-0.1V4.9h-0.2V5c-0.1-0.1-0.3-0.1-0.4-0.1V4.7h-0.6V4.6h-0.1v0.1L14,4.8V4.7h-0.2V4.6l-1.1,0.1
			c-0.2-0.1-0.8-0.5-1.1-0.3l-0.1,0.2c-0.1,0.1,0,0-0.1-0.1c-0.1,0-0.2,0.2-0.4,0.1c-0.1,0,0-0.3-0.4-0.2c-0.2,0-0.3,0.2-0.6,0.1
			V4.4H8.3c-0.2,0,0,0.1-0.1,0.1V4.4L7.8,4.2L7.7,4.6H7.5V4.5L6.9,4.6V4.5H6.8l0.1-0.2L6.5,4.4v0.1L6.1,4.4v0.1L5.7,4.4L5.6,4.6
			C5.2,4.7,5.2,4.3,4.9,4.4v0.1H4.6v0.1H4.1v0.1C4,4.7,4.2,4.6,4,4.6H3.2v0.2c0.2,0.1,0.1,0,0.2,0.1C3.2,4.8,2.9,4.7,2.7,4.7
			c-0.1,0.2,0,0.1-0.1,0.2V5H2.4c0-0.1,0.1-0.3-0.1-0.2V5L2.1,4.9v0.2L1.4,5C1.3,5.2,1.3,5.1,1.2,5.2c0.1,0.1,0.1,0,0.1,0.1H1.1V5.1
			H0.8v0.1c-0.2,0.1-0.1,0-0.2,0.1H0.4v0.3H0.3C0.4,6,0.6,6.2,0.7,6.5h0.3l0.3,1.2H1.2c0.1,0.1,0.1,0.2,0.2,0.2v0.6h0.1v0.3h0.1v0.3
			l0.2,0.1C2,9.6,1.8,9.9,1.8,10.1l0.3,0.1v0.4h0.1c0,0.2-0.1,0.2-0.1,0.2c0,0.2,0.1,0.1,0.1,0.2l-0.1,0.3h0.1v0.2l0.4,0.2
			c-0.2,0.3-0.3,0.6-0.2,0.9h0.3C2.7,12.9,2.6,13,2.5,13c0,0.1,0.1,0.2,0.2,0.2l-0.1,0.6H3c0,0.4-0.1,0.7-0.1,1.1L3.2,15
			c-0.5,0.4,0.1,0.5,0,0.9H3.1V16h0.1c0,0.3-0.1,0.7-0.1,1H2.7l0.1,0.2H2.4v0.1l-0.3,0.1c0,0.2-0.1,0.4-0.1,0.7
			c0.3,0.1,0.3,0,0.3,0.3c0.3,0.1,0.6,0,0.9-0.2h0.1c0,0.2,0.1,0.4,0.1,0.7l0.3,0.2c0,0.1,0,0.2-0.1,0.2c0,0,0,0,0,0v0.1h0.1
			l-0.1,0.3l0.2,0.1v0.4H3.8l0.1,0.3h0.2C4,21,4,21.2,4,21.5h0.2l0.1,1.5h0.1v0.2h0.1l-0.1,0.1l0.1,0.3c-0.1,0.1-0.2,0-0.1,0.1
			c0,0,0.4,0.3,0.3,0.4H4.7v0.2H4.6v0.1h0.1v0.6c0.1,0.2,0.6,0.2,0.1,0.7v0.1l0.3-0.1C5.1,26,5,26.3,5,26.6h0.1v0.2h0.1l0.1,0.3H5.1
			c-0.2,0.2,0.2,0.1,0.2,0.1l-0.1,0.3l0.2,0.1v0.1h0.1l-0.1,0.2h0.2v0.6l-0.6,0.1v-0.1H5v0.1H4.9v-0.1H4.8v0.1
			c-0.1,0-0.6-0.3-0.9-0.1v0.1c-0.4,0-0.5,0.1-0.7,0.3c-0.1,0.1,0,0.4,0,0.9c0.3,0.1,0.3,0.2,0.6,0.2v0.2l1.3-0.1v-0.1
			c0.3,0,0.6,0.1,0.9,0.2l0.2-0.1c0,0.2-0.1,0.4-0.1,0.7h0.2v0.1H6.2v0.1h0.2v0.1c-0.2,0.1,0,0.1,0.1,0.2v0.1l0.6,0.1v0.1h0.3
			l-0.1,0.2h0.2c0.1-0.5,0.1-0.1,0.3-0.3L8,31.6h0.1c0-0.3,0.1-0.7,0.1-1c0.2,0,0.2-0.1,0.2-0.1H9v-0.1h0.2v-0.1
			c0.1,0,0.3,0,0.3,0.1l0.4-0.1v0.1h0.1v-0.1h0.9v-0.1c0.3,0,0.3,0.2,0.3,0.2c0.2,0,0.1-0.2,0.2-0.2h0.4V30h0.1v0.2h0.3V30
			c0.4,0.1,0.7,0.1,1.1,0v0.2c0.1,0.1,0.1-0.1,0.1-0.1h0.3V30l0.3,0.1V30l0.3-0.1v0.2c0.3-0.1,0.8,0,1.2-0.1v-0.1l0.2,0.1v-0.1h0.1
			V30l1-0.1V30l0.3-0.1c0,0.1,0.1,0.1,0.2,0.1v-0.1c0.3,0,0.3,0.1,0.3,0.1h0.4v-0.1L19,30v-0.1l0.3,0.1l0.1-0.2
			c0.1,0,0.3,0.2,0.6,0.1v-0.1l1.1,0.1V30c0.1,0,0.4-0.3,0.8-0.2v0.1h0.3v-0.1h0.1v0.1c0.3,0,0.5,0,0.8-0.1V30
			c0.3-0.1,0.3,0,0.3-0.3l0.6,0.1l0.1,0.2c0.3,0.1,0.4-0.3,0.9-0.2v0.1l1.1-0.2v-0.1h0.6l0.1-0.2l0.1,0.1c0.2,0,0.2-0.2,0.4-0.1
			c0,0,0,0.2,0.2,0.1v-0.1l0.4-0.1c0.1-0.3,0.3-0.6,0.2-0.9L28.2,28.3z M5.3,18.1V18h0.1v0.2c-0.2-0.1-0.1,0-0.2-0.1H5.3z"/>
		<path id="パス_361" class="st1" d="M11.2,4.4V4.3h-0.2C11.1,4.4,10.9,4.3,11.2,4.4z"/>
		<path id="パス_362" class="st1" d="M68.7,26.9v-0.4h0.1l-0.1-0.3h0.1V26l-0.3,0.1c-0.1-0.3-0.1,0,0-0.3h-0.2v-0.2l-0.4,0.2
			c-0.3,0-0.3-0.1-0.3-0.1c-0.3-0.1-0.7-0.1-1,0v-0.2L66,25.5v0.1c-0.2,0,0-0.1-0.1-0.1h-0.4v0.1L65,25.5l-0.1,0.1v-0.2h-0.3v0.1
			h-0.2c0.1,0.1,0.1,0.1,0.2,0.2L64,25.6l-0.1-0.2c-0.2,0-0.2,0.2-0.2,0.2H63v0.1c-0.3,0-0.5,0-0.8-0.1v0.1c-0.3,0-0.3-0.1-0.3-0.1
			h-0.7v0.1c-0.1,0-0.3,0-0.3-0.1c-0.3,0-0.6,0-0.9,0.1v-0.3c-0.2,0.1-0.3,0.3-0.6,0.2v-0.1H59v0.1h-0.1c0-0.1-0.1-0.1-0.2-0.1
			c-0.1,0.1-0.2,0.1-0.3,0.1v-0.1l-0.8-0.1v0.1c-0.1,0-0.3,0-0.3-0.1l-0.4,0.1v-0.1h-0.2v-0.1h-0.1v0.1H56v-0.1
			c-0.2,0-0.2,0.1-0.4,0.1l-0.2-0.1v0.1H55v0.1h-0.1l-0.1-0.2l-0.7,0.1v-0.1h-0.3v-0.1c-0.1,0-0.3,0-0.3,0.1
			c-0.3,0.1-0.3-0.1-0.3-0.1H53v0.1c-0.3,0.1-0.3-0.1-0.3-0.1l-0.3,0.1l-0.1-1c0,0,0.1,0,0.1-0.2h-0.1v-0.3h-0.1v-0.1h0.2l-0.2-0.7
			h0.1v-0.4h0.1c0-0.3-0.3-0.2-0.2-0.4l0.2-0.1v-0.2h-0.2l0.1-0.3h0.1c0-0.2,0,0-0.1-0.1l0.1-0.3h-0.2c0.2-0.6,0.2-1.2,0-1.8h0.2
			c0-0.1,0.1-0.5-0.1-0.3v0.1h-0.1c0.1-0.2,0.2-0.2,0.1-0.4c-0.1,0-0.1-0.1-0.1-0.2c0,0,0.2-0.1,0.1-0.3h-0.1v-0.1h0.1
			c0.1-0.3-0.1-0.3-0.1-0.3c0.1-0.1,0.1-0.3,0.1-0.4l0.6,0.1v0.2h0.6v-0.1h0.2c0.1,0.1-0.1,0.1-0.1,0.1l0.1,0.2h0.6
			c0,0,0-0.1,0.2-0.1v0.1l0.7,0.1v0.1l0.7-0.1V18c0.4-0.1,0.8-0.1,1.1,0v0.1h0.6v0.1h0.2v0.1l0.3-0.1v-0.1l0.2,0.1v-0.1h0.1
			l-0.1,0.3h0.2v-0.2c0.2,0,0.2,0.1,0.2,0.1h0.7l0.1,0.2c0,0,0.4,0,0.2-0.1h-0.1v-0.1c0.3,0.1,0.7,0.1,1,0v0.2l0.4-0.1
			c0,0.1,0.1,0.1,0.2,0.1v-0.1h0.6l0.2,0.1c0.1-0.1,0.2-0.1,0.3-0.1v0.1l0.3-0.1v0.1h0.2v0.1h0.7v0.1c0.4,0.1,0.4,0,0.9,0V19
			c0.3,0,0.3-0.1,0.4-0.1C65,19,64.8,19,65,19.1v-0.2l0.4-0.1V19h0.1v-0.1h0.1V19H66v0.1h0.1V19h0.1v0.1h0.6v0.1l0.2-0.1v0.1
			c0.2,0,0.3,0,0.4-0.1v-0.2l0.4-0.2v-0.4l-0.2,0.1c0.2-0.5,0-0.3-0.1-0.8h-0.4v-0.1H67v0.1h-0.1v-0.1l-0.6-0.1v0.1l-0.4-0.1
			l-0.1,0.2h-0.1l0.1-0.3c0,0-0.7,0.1-0.3,0.1h0.1v0.1l-0.2-0.1c-0.1,0.1,0,0.1-0.1,0.1v-0.1H65v-0.1l-0.4,0.1v-0.1h-0.7
			c0,0,0-0.1-0.2-0.1v-0.2L62.7,17v-0.1h-0.1c-0.1,0,0,0.2-0.2,0.1c0,0-0.1-0.1-0.3-0.1V17H62l-0.1-0.2c-0.3-0.1-0.3,0.1-0.4,0.1
			v-0.1c-0.2,0-0.2,0.1-0.2,0.1c-0.1,0-0.2,0-0.2-0.1c-0.3,0-0.3,0.1-0.4,0.2v-0.2h-0.3v-0.2h-0.6v0.2c-0.3-0.1-1.1-0.4-1.6-0.2
			l-0.1,0.2h-0.2v-0.4l-0.4,0.3v-0.2c-0.2,0-0.3-0.1-0.4-0.1v0.1h-0.1l-0.1-0.2H56v-0.1h-0.8v0.1h-0.1c-0.3-0.1-0.5-0.3-0.9-0.3
			v-0.2l-0.8,0.1v-0.2l-0.6,0.1v-0.1h-0.2c-0.1,0,0-0.2-0.2-0.2v0.1h-0.1v-0.2h-0.1l0.1-0.3h0.1l-0.1-0.6c0,0,0.4,0,0.2-0.1h-0.1
			v-0.3h-0.2v-0.1c0.2,0,0.1-0.4,0.1-0.6h0.2c-0.1-0.3-0.1-0.7,0-1c0,0,0.2,0,0.1-0.2l-0.2-0.1l0.2-1.1h-0.1v-0.2h-0.1
			c0-0.1,0.1-0.2,0.1-0.3h-0.1l0.2-0.3h-0.1V9.6h-0.1V9.2h0.1V8.3h0.1V8.2l-0.1-0.1h0.1V7.9l1,0.1c-0.1,0.1,0,0-0.2,0.1v0.1h0.8v0.1
			h0.1c0,0,0.1-0.3,0.2-0.2l0.1,0.3h0.7v0.1h0.4v0.1h0.7L56.6,9c0.3,0,0.1-0.2,0.2-0.2l0.3,0.1V9c0.1,0,0.2,0,0.2-0.1h0.2V9l0.2-0.1
			V9h0.1V8.8c0.2,0,0,0.1,0.1,0.1h0.8v0.1h0.1V8.8L59.3,9V8.8h0.4V9h0.2v0.1c0.4-0.1,0.9-0.2,1.3-0.1v0.1h0.4v0.1
			c0.2,0,0.5-0.3,0.9-0.1l0.1,0.2c0.2,0.1,0.3-0.2,0.4-0.1l0.1,0.2c0.2,0.1,0.3-0.1,0.4-0.1v0.1H64v0.1c0.2,0,0-0.1,0.1-0.1h0.3V9.3
			c0.2,0,0.2,0.1,0.2,0.1h0.6V9.3l0.4,0.1V9.2h0.2V9H66c0.1-0.4-0.2-0.2-0.3-0.3V8.5c0.1,0,0.2-0.1,0.3-0.2c-0.4-0.2-0.5-0.5-1-0.3
			V7.7h-1.2V7.6h-0.3V7.5h-0.1l-0.1,0.2c-0.3-0.1-0.1-0.2-0.2-0.3l-0.2,0.1h-0.3v0.1h-0.1l0.1-0.2h-0.7v0.1h-0.1
			c0-0.1-0.1-0.1-0.2-0.1v0.1h-0.1l-0.1-0.3l-0.3,0.1v0.1l-0.3-0.1v0.1h-0.6V7.3h-0.1v0.1h-0.2V7.3c-0.1,0.1-0.3,0.1-0.4,0.1V7.2H59
			c0,0.2-0.3,0.1-0.6,0.1v0.1l-0.2-0.1v0.1c-0.3,0-0.5,0-0.8-0.1V7.2l-0.3,0.1V7.2l-1.2-0.1c0,0,0-0.4-0.1-0.2c-0.1,0,0,0.2-0.1,0.1
			V6.8h-0.4V6.7h-0.1v0.1c-0.2,0-0.2-0.1-0.2-0.1h-0.6V6.6L54,6.5v0.1h-0.1l-0.1-0.2l-1.1-0.1V6c0,0-0.3,0.2-0.4,0.1l0.1-0.2h-0.4
			l-0.1-0.2h-0.2V5.6c-0.5,0-1,0.3-1.2,0.8h-0.2v0.2l0.2,0.1l0.1,0.3h0.2c0.1,0.2,0.2,0.4,0.2,0.6c0.2,0.2,0,0.3-0.1,0.7H51v0.2
			h-0.2v0.3H51c-0.1,0.3-0.2,0.3-0.2,0.6H51c0,0.7-0.1,1.3-0.1,2H51v0.1h-0.1c0,0.2,0.1,0.2,0.1,0.2l-0.1,0.3H51v0.1
			c0,0-0.2,0-0.2,0.2h0.1l0.1,0.3h-0.3v0.3c0.2,0.1,0.1,0,0.2,0.1H51c-0.1,0.2-0.3,0.2-0.2,0.6h0.1v0.1h-0.1l-0.1,0.3h0.2l-0.2,0.3
			h-0.1l0.1,0.1c0,0.6,0,0.9-0.3,1.1v0.6l0.2,0.1l-0.1,0.2h0.2l-0.1,1.1h0.2c0,0.2,0,0.3-0.1,0.4h-0.1l0.1,0.3h-0.2v0.1h0.1L50.4,19
			h0.1l0.1,0.3h-0.1v0.6h-0.1V20l0.2,0.1v0.8h-0.1v0.2h-0.1c0,0.2,0,0,0.1,0.1l-0.1,0.7h0.2l-0.1,1h0.1v0.4c0,0-0.1,0-0.1,0.2
			l0.1,0.4h-0.1l0.1,0.2l-0.1,0.1h0.1v0.1h-0.1c0,0.3,0.1,0.2,0.2,0.3V25h-0.3v-0.2c-0.2,0-0.3,0.1-0.4,0.1v-0.1h-0.3v-0.1h-0.8
			v-0.1h-0.1v0.1c-0.2,0.1-0.4,0.2-0.6,0.2c0,0.3-0.1,0.6-0.1,0.9c0.3,0.1,0.3,0.2,0.6,0.2v0.2c0.2,0,0.8,0.1,0.8,0.1v-0.1h0.1v0.3
			c0.4-0.2,0.5,0,0.9,0l0.1-0.1l0.1,0.3l0.3-0.1v0.1h0.1v-0.1h0.1v0.1l0.7-0.1v0.2l0.2-0.1v0.1l0.3,0.1v-0.2
			c0.4,0.1,0.9,0.1,1.3,0.1v0.2h0.1c0-0.1,0.1-0.1,0.2-0.1c0,0,0,0,0,0v0.1l0.3,0.1v-0.1h0.7v0.1h0.1v-0.1h0.7V27H56v0.1
			c0.2,0,0.4,0,0.6-0.1v0.2l0.1-0.1c0.2,0,0.2,0.1,0.2,0.1l0.6-0.1c0,0,0,0.4,0.1,0.2v-0.1h0.2v-0.1c0.1,0,0.2,0,0.2,0.1l0.4-0.1
			v0.1l1.8,0.1v-0.1c0.2,0,0.2,0.1,0.2,0.1c0.6,0.1,1.3,0.1,1.9,0v-0.1l0.3,0.2v-0.1h0.4v-0.1c0.1,0,0.3,0.2,0.6,0.1v-0.1H64v-0.1
			h0.1v0.1h1.2v-0.1c0.2,0,0.2,0.2,0.4,0.1v-0.1h0.1v0.1c0.8,0,1.6,0.1,2.5,0.2c0.1-0.1,0.2-0.2,0.3-0.3h0.1
			C68.8,27,68.8,26.9,68.7,26.9C68.7,26.9,68.7,26.9,68.7,26.9z"/>
		<path id="パス_363" class="st1" d="M44.1,7.5c-0.1-0.1-0.3,0.1-0.2-0.1h0.1c-0.1-0.3,0-0.1-0.3-0.1l-0.1-0.3h-0.4v0.2h-0.2
			c0,0.1-0.1,0.3-0.1,0.4h-0.1V7.5h-0.1v0.1h-0.1v0.2L42.2,8c0,0.1,0.2,0.2,0.1,0.4L42,8.5c-0.1,0.2,0.1,0.2,0.1,0.2
			C42.2,9,42.1,9,42,9.2h0.1v0.1H42v0.2h-0.1c0,0.1,0,0.2,0.1,0.2c0,0,0,0,0,0v0.1h-0.1v0.6h-0.1v0.4L41.6,11
			c0.1,0.2,0.1,0.4,0.1,0.6h-0.1v0.2h-0.1c-0.1,0.1,0,0,0.1,0.1l-0.1,0.2c0.1,0.1,0.1,0,0.1,0.1h-0.2v0.1h0.1v0.1h-0.1
			c0,0.1,0,0.3,0.1,0.3v0.1h-0.1v0.7h-0.1V14h-0.1c-0.2,0.3-0.1,0.4,0,0.7h-0.2l-0.1,0.2h-0.1l0.1,0.7l-0.2,0.1v0.6
			c-0.1,0-0.3-0.1-0.2,0.1h0.1v0.1c-0.5,0.3,0.2,0.3-0.4,0.4c0,0.1,0.1,0.2,0.2,0.2c-0.1,0.4-0.4,0.6-0.6,1v0.3h0.1v0.1h-0.1
			c0,0.2,0.1,0.1,0.1,0.2v0.1L39.6,19v0.2h-0.1c0,0.2,0,0.5,0.1,0.7c0,0-0.3,0.2-0.3,0.3l-0.1,0.2h0.2l-0.4,1.5l0.1,0.1l-0.3,0.1
			v-0.3h-0.2v-0.2c-0.2-0.1-0.1,0-0.2-0.1h0.2c-0.1-0.2,0-0.1-0.1-0.2c0,0,0-0.4-0.1-0.2v0.1h-0.1l0.1-0.3L38,20.7v-0.6h-0.2
			l0.1-0.4h-0.3c0.1-0.2,0.1-0.4,0.1-0.6h-0.3c-0.1-0.2-0.1-0.5,0-0.7h-0.1v-0.1h-0.1v0.1h-0.2l0.1-0.3l-0.2,0.1v-0.4
			c-0.2,0-0.3,0-0.1-0.1l-0.1-0.3h-0.3L36.1,17H36l0.1-0.2H36l-0.2-0.3c0.2-0.1,0.2-0.1,0.2-0.3l-0.4,0.1c-0.1-0.3-0.1,0,0-0.3h-0.2
			l-0.1-0.6H35V15h-0.4c0.1-0.1,0.1-0.3,0.1-0.4h-0.2v-0.4h-0.2c-0.1-0.4-0.1-0.3-0.6-0.3c0.1-0.1,0.1-0.3,0.1-0.4h-0.2v-0.4
			c-0.5-0.1-0.2-0.2-0.6-0.4v-0.2c0,0-0.4,0.1-0.2-0.1c0,0,0.2,0,0.1-0.1h-0.2c-0.1-0.1-0.1-0.3-0.1-0.6h-0.2L32.2,11h-0.1v-0.4
			c-0.3,0.3-0.1-0.1-0.2-0.3h-0.1l-0.1-0.3c0.1-0.1,0,0,0.1-0.2h-0.2c0.2-0.2-0.2-0.4-0.2-0.7h-0.2c0-0.1,0.1-0.5-0.1-0.3v0.1h-0.1
			L31,8.4h-0.4c-0.2,0,0,0.1-0.1,0.1V8.3l-0.3,0.1c-0.1,0.3,0,0.3-0.3,0.3l0.2,0.7h-0.1L29.7,10l0.2,0.1c0,0.2,0.1,0.4,0.1,0.6h0.1
			v0.2h0.1c0.2,0.2,0.3,0.5,0.3,0.8h0.2c-0.1,0.2,0,0.1-0.1,0.2c0.1,0.5,0.4,0.6,0.6,1h0.2v0.2h0.2v0.7l0.4,0.1l-0.1,0.3h0.3v0.1
			h0.1c-0.1,0.1-0.1,0.3,0,0.4h0.1c0.1,0.1,0.2,0.3,0.2,0.4h0.2c0.1,0.3,0,0.3,0.3,0.3c0.1,1,0.5,0.6,0.7,1.3h0.3v0.2h-0.2
			c0.1,0.2,0.1,0.2,0.3,0.2v0.2h0.2v0.6h0.3c-0.1,0.2,0,0.1-0.1,0.2v0.1l0.3,0.1v0.2l0.2,0.1v0.2h0.1v0.4l0.2-0.1v0.2l0.2,0.1v0.1
			H36v0.2h0.2v0.2h0.2c-0.2,0.1-0.1,0.6,0,0.8l0.2,0.1v0.4H37v0.1h-0.2l0.1,0.3h-0.1v0.1h0.1c0.2,0.2,0.2,0.4,0.2,0.7h0.2
			c0,0.3,0.1,0.5,0.1,0.8l0.2,0.1l-0.1,0.2h0.1c0.1,0.2,0.1,0.2,0,0.4h0.2c0.1,0.4,0.2,0.2,0.2,0.8l0.8,0.2v-0.1l0.4-0.1v0.2
			c0,0,0.4,0,0.2-0.1h-0.1v-0.1l0.4-0.1c0-0.2,0.1-0.4,0.1-0.6h0.1L40,24.5l0.1-0.1L40,24.2h0.1V24h0.1v-0.2h0.1l0.1-0.8h0.1
			c0-0.2-0.4-0.2-0.2-0.6l0.4-0.3l-0.1-0.1v-0.6h0.2l-0.1-0.6l0.2-0.1c0-0.1-0.1-0.6,0-0.9l0.2-0.1l-0.1-0.3l0.3-0.2l-0.1-0.2h0.1
			v-0.1c0-0.1-0.2,0.1-0.2-0.1h0.1l0.1-0.6l0.2-0.1v-0.2h0.1l-0.1-0.4l0.3-0.2c0-0.1-0.2-0.2-0.1-0.4H42l0.1-0.4h0.1v-0.7h0.1v-0.2
			h0.1v-0.2l0.2-0.1l-0.1-0.2h0.1v-0.3l0.2-0.1L42.8,14l0.2-0.1c0.1-0.3-0.2-0.3-0.2-0.3l0.1-0.8c0.3-0.1,0-0.2,0.2-0.7h0.1
			l-0.1-0.2l0.2-0.1l-0.1-0.2h0.1v-0.2h0.1L43.4,11h0.2c0.2-0.2-0.2-0.1-0.2-0.1v-0.1h0.1l-0.1-0.3c0.2-0.1,0.1,0,0.2-0.1h0.1
			c0.1-0.2-0.1-0.3-0.1-0.3V9.9h0.1l-0.1-0.2l0.2-0.1l-0.1-0.2l0.2-0.1c0.1-0.3-0.2-0.3-0.2-0.3l0.1-0.3h0.2V8.3h-0.2l0.1-0.3h0.1
			l-0.1-0.3C44,7.5,44.1,7.7,44.1,7.5z M38.9,22.5c-0.2-0.1-0.1,0-0.2-0.1h0.1v-0.1h0.1L38.9,22.5z"/>
		<path id="パス_364" class="st1" d="M89.1,11.9c0-0.2-0.2-0.2-0.2-0.2l0.1-0.1v-0.4h-0.1l0.1-1h-0.1l0.1-0.1
			c0-0.2-0.1-0.1-0.1-0.2V9.6h0.1V9.1h-0.1l0.1-0.2l-0.3-0.1V8.6h-0.3V8.5l-0.7,0.1V8.5h-0.1c0,0.3-0.2,0.2,0.1,0.3v0.2h-0.2
			c0,0.2-0.1,0.4-0.1,0.6h-0.1l0.1,1.1h-0.1v0.1h0.1v0.6h-0.1l0.2,0.8h-0.2l0.1,1H87c0.1,0.3,0.2,0.3,0.2,0.3l-0.1,0.2h0.1
			c0,0.1,0,0.3-0.1,0.3l0.1,0.2h-0.1v0.2H87l0.1,0.3H87l-0.1,0.4h0.2c-0.1,0.7-0.1,1.3-0.1,2h0.1L87,17.6h0.1l-0.2,0.7h-0.1v0.1H87
			c0,0.2-0.2,0.2-0.1,0.4H87c0,0.1,0,0.3-0.1,0.3v0.7H87v0.1L86.8,20c0,0.2,0.1,0.4,0.1,0.6h-0.1v0.1H87c0,0.1-0.2,0.3-0.1,0.4H87
			c-0.1,0.1-0.1,0.1-0.2,0.2c-0.1,0-0.3,0.1-0.2-0.1h0.1v-0.1h-0.1v-0.2L86.4,21l-0.1-0.3L86,20.6l0.1-0.2h-0.2V20
			c-0.4-0.1-0.3-0.2-0.7-0.3v-0.4l-0.6-0.1v-0.3h-0.2l-0.1-0.2h-0.1v-0.2L83.8,18v-0.2h-0.2v-0.2c-0.2,0-0.4-0.1-0.4-0.3H83
			c0-0.1,0.1-0.2,0.1-0.3l-0.3-0.1c-0.1-0.4-0.2-0.3-0.6-0.6c-0.1-0.1-0.1-0.1-0.2-0.2v-0.2h-0.2v-0.1c0.2-0.1,0.1,0.1,0.2-0.1h-0.2
			v-0.2c-0.5-0.1-0.1-0.1-0.3-0.3l-0.2,0.1V15h-0.1l0.1-0.2h-0.1L81,14.4h-0.3c-0.2-0.5-0.5-0.2-0.1-0.6c-0.3-0.4-0.3-0.2-0.8-0.2
			l0.1-0.3c-0.2-0.1-0.1,0-0.2-0.1h-0.1v-0.3c-0.3-0.1-0.3-0.2-0.6-0.2L78.9,12c-0.2,0.1-0.1,0-0.2,0.1c-0.1-0.1-0.1-0.2-0.2-0.2V12
			h-0.1v-0.3h-0.2c-0.1-0.2,0-0.1-0.1-0.2v-0.1h-0.1v0.1h-0.1l0.1-0.2l-0.4-0.1c-0.1-0.1-0.1-0.2-0.2-0.3c-0.3-0.3-0.8-0.1-1.2-0.1
			c-0.1,0.3-0.1,0.4-0.4,0.4c0,0,0,0.4,0.1,0.2v-0.1h0.1l-0.1,0.3h-0.1c0,0.2,0.2,0.3,0.2,0.6H76c-0.1,0.1,0,0-0.2,0.1
			c0.1,0.1,0,0,0.2,0.1V13l0.2,0.1v0.6l0.2,0.1V14h0.1c0,0.2-0.1,0.4-0.1,0.6l0.3,0.1c0,0.3-0.1,0.3,0,0.7h0.1
			c0,0.1-0.1,0.2-0.1,0.3h0.1v0.2H77v0.3h0.1v0.7h0.1c0.1,0.4,0.1,0.9,0,1.3h0.2V19h-0.1v0.1h0.1l0.1,0.3h0.1
			c-0.1,0.2-0.1,0.4-0.2,0.7l0.3,0.2v0.6h-0.1c0,0.3,0.1,0.6,0.1,0.9H78c-0.1,0.1-0.2,0.2-0.2,0.2c0,0.2,0.2,0.2,0.2,0.2v0.1h-0.1
			c0,0.2,0.1,0.4,0.1,0.4l-0.1,0.1h0.2L78,23.4h0.1v0.3h0.1V24h0.1l-0.1,0.3h0.1c0,0.3,0,0.2-0.1,0.3c0.1,0.1,0.3,0.1,0.3,0.2v0.2
			c0.2,0.1,0.4,0.2,0.6,0.2c0.1,0.1,0,0,0.2,0.1l0.1-0.3c0.2-0.1,0.1,0,0.2-0.1h0.1c0-0.2-0.1-0.4-0.1-0.6l0.2-0.1l-0.1-0.2
			c0.1,0,0.1-0.1,0.1-0.2c0,0,0,0,0,0l-0.2-0.1c0-0.2,0,0,0.1-0.1c0-0.2-0.1-0.2-0.1-0.2l0.1-0.3l-0.2-0.1l0.2-0.4l-0.2-0.1v-0.1
			h0.1v-0.6h-0.3l0.1-0.3h-0.1v-0.1h0.1c0.1-0.2,0.1-0.4,0.1-0.6h-0.3v-0.2c0.2-0.1,0.1,0,0.2-0.1h-0.2c0.1-0.3,0.1-0.6,0-0.9
			L79,19.4v-0.2h0.2v-0.2H79l0.1-0.3H79v-0.7h0.1c0-0.2-0.1-0.4-0.1-0.6h-0.2c0-0.1,0.1-0.7,0.1-0.8l-0.2-0.1c0-0.5-0.1-1-0.1-1.5
			h-0.2c0-0.3-0.1-0.5-0.1-0.8h-0.1v-0.1h0.4c-0.1,0.1,0,0-0.2,0.1c0.2,0.2,0.2,0.1,0.3,0.4H79L78.9,15l0.4-0.1c0,0.2,0,0.3,0.1,0.4
			h0.2l-0.1,0.3c0.1,0.2,0.3,0,0.4,0.1v0.1h0.1v0.3h0.2v0.3c0.3,0.1,0.3,0.2,0.6,0.2l0.1,0.6c0.2,0.1,0.4,0.2,0.6,0.2
			c0,0.2,0.1,0.4,0.1,0.6H82v0.4l0.4,0.1c-0.1,0.2,0,0.1-0.1,0.2V19h0.3v0.1l0.2,0.1c0.2,0.2,0,0.2,0.2,0.3v0.3h0.4
			c-0.5,0.3,0.3,0.5,0.6,0.6L84,20.8h0.3c0.1,0.4,0.1,0.3,0.2,0.7l0.4,0.1c0.1,0.3,0.2,0.5,0.4,0.7h0.1v0.2h0.1l-0.1,0.2
			c0.2,0.3,0.5,0.3,0.6,0.7h0.2v0.3h0.2V24c0.3,0.1,0.4,0.1,0.4,0.4h0.8c0.3-0.3,0.5-0.4,0.7-0.8h0.1l-0.1-0.3h0.1v-0.1h-0.1
			c0-0.1,0.2-0.3,0.1-0.6c0,0-0.1,0-0.1-0.2h0.1c0-0.1-0.2-0.2-0.1-0.4h0.1v-0.8c0,0-0.1,0-0.1-0.2h0.1c0.1-0.3-0.1-0.3-0.1-0.3V20
			h0.1c0-0.3,0-0.6-0.1-0.9h0.2v-0.2h-0.2l0.1-0.4h0.1l-0.1-0.7h0.1c0.1-0.3-0.1-0.3-0.1-0.4h0.1v-0.4h-0.1v-0.1l0.2-0.1
			c-0.1-0.5-0.1-0.3,0.1-0.8h-0.2l0.1-0.3c-0.1-0.1-0.2-0.2-0.1-0.3c0,0,0.1,0,0.1-0.2c-0.1,0-0.1-0.1-0.1-0.2l0,0
			c0,0,0.1,0,0.1-0.2l-0.1-0.3h0.1v-0.1c0-0.2,0-0.4-0.1-0.6h0.1v-0.7h0.1l-0.1-0.1c0-0.2,0.1,0,0.1-0.1c0-0.1,0-0.2-0.1-0.2
			l0.1-0.6L89.1,11.9z"/>
		<path id="パス_365" class="st1" d="M59.2,9.1v0.1h0.4V9c-0.2,0.1-0.1,0-0.2,0.1L59.2,9.1z"/>
		<path id="パス_366" class="st1" d="M5.4,18.2V18H5.3v0.1H5.2C5.4,18.3,5.2,18.2,5.4,18.2z"/>
		<path id="パス_367" class="st1" d="M12.2,18.4v-0.1h-0.2C12.1,18.4,11.9,18.3,12.2,18.4z"/>
		<path id="パス_368" class="st1" d="M61.9,18.7v-0.1h-0.2C61.8,18.7,61.6,18.6,61.9,18.7z"/>
		<path id="パス_369" class="st1" d="M38.8,22.4h-0.1c0.1,0.1,0,0,0.2,0.1v-0.2h-0.1L38.8,22.4z"/>
	</g>
</g>
</svg>
