<?xml version="1.0" encoding="utf-8"?>
<!-- Generator: Adobe Illustrator 24.2.0, SVG Export Plug-In . SVG Version: 6.00 Build 0)  -->
<svg version="1.1" id="レイヤー_1" xmlns="http://www.w3.org/2000/svg" xmlns:xlink="http://www.w3.org/1999/xlink" x="0px"
	 y="0px" viewBox="0 0 244 90" style="enable-background:new 0 0 244 90;" xml:space="preserve">
<style type="text/css">
	.st0{fill:#FFFFFF;stroke:#FFFFFF;stroke-width:2;stroke-linecap:round;}
	.st1{fill:#FFFFFF;}
</style>
<g id="グループ_753" transform="translate(-211.054 -165.054)">
	<g id="グループ_276" transform="translate(212.054 166.109)">
		<path id="パス_287" class="st0" d="M227.4,24.7h0.3v-0.2C227.4,24.6,227.6,24.5,227.4,24.7z"/>
		<path id="パス_288" class="st0" d="M50.8,5V4.7H51V5c0.2-0.1,0.3-0.2,0.6-0.2c0,0,0,0.2,0.3,0.2c0,0,0-0.2,0.3-0.2
			c0,0,0.1,0.2,0.3,0.2l0.2-0.3l0.6,0.2v0.5h0.5V5.2h0.8v0.2h0.2V5.2c0.1,0,0.2,0,0.3,0.2l0.6-0.2V5l0.3,0.2V5h0.8v0.2h-0.2v0.2
			l0.3,0.2l0.2,0.9H57v0.2h-0.2L57,6.8h-0.2v0.8l0.3,0.2C57.2,8,56.9,8.3,57,8.8c0.2,0.5,0.2,1,0.2,1.5c0,0.1-0.2,0-0.2,0.3h0.2
			c0.1,0.5-0.3,0.8-0.3,0.9H57v0.3h0.2c0.1,0.3-0.2,0.4-0.2,0.6h0.3l-0.2,0.2c0,0.2,0.1,0.4,0.2,0.6h-0.2L57,13.9
			c0,0,0.6,0.1,0.3,0.2h-0.2c0,0.2-0.1,0.4-0.2,0.6l0.3,0.2L57,15.7h0.3v0.6L57,16.5v0.3h0.3l-0.2,0.5h0.2v0.2h-0.2v0.2
			c0.1,0,0.2,0.2,0.2,0.3c0,0,0,0,0,0h-0.2C57,18,57,18.3,57,18.5c-0.4,0-0.8,0.1-1.2,0.2v0.6h0.3c0.1,0.6,0.1,0.6,0.6,0.8
			c0.1,0.4,0,0.3,0.5,0.5l0.2,0.8h0.3c-0.1,0.2-0.2,0.3-0.2,0.6c0,0,0.2,0.1,0.2,0.3c0,0-0.2,0.1-0.2,0.3c0,0.2,0.2-0.1,0.2,0.2
			c-0.1,0-0.2,0.2-0.2,0.3h0.2V23h-0.2v0.2c0.1,0.1,0.1-0.1,0.3,0.2h-0.3v0.5h0.3c-0.1,0.5-0.2,0.3,0,0.8c-0.3,0.1-0.7,0.2-1.1,0.2
			v-0.2h-0.2c-0.2,0.1-0.1,0.4-0.5,0.3l-0.2-0.3l-0.6,0.2v-0.2h-0.2v0.2H55v-0.2c-0.2,0,0,0.1-0.2,0.2h-0.1v-0.2H54v-0.3l-0.5,0.2
			v0.2c-0.2,0-0.3-0.3-0.6-0.2v0.2c-0.2,0.2-0.5,0.3-0.8,0.3v0.3h0.3c0,0-0.2,0.4-0.2,0.6h0.2v0.5c0,0,0.2,0.1,0.3,0.3l1.7,0.2v0.2
			h0.3v0.2l0.9-0.2v0.2h0.2v-0.1l0.5,0.2c0.1-0.1,0-0.2,0.3-0.2c0,0,0.1,0.3,0.3,0.3l0.2-0.3h1.1v1.1h-0.3l0.2,1.2h0.2l-0.2,0.6h0.2
			v0.5h0.2c0.1,0.3-0.1,0.3-0.2,0.3v0.2h0.2c0,0.2-0.3,0.3-0.2,0.6h0.2v0.3h0.2c0.1,0.3-0.1,0.3-0.2,0.3V32h0.2v0.2h-0.2l0.2,1.2
			h-0.3v0.8h0.3l-0.3,0.5h0.3c0,0.2,0,0-0.2,0.2v0.2h0.2c0,0.2-0.1-0.1-0.2,0.2v0.5h-0.2c0,0,0,0.6,0.2,0.3c0.2,0-0.1-0.1,0.2-0.2
			c0,0.3-0.2,0.3-0.2,0.3v1.5h-0.2c0.2,0.2,0,0.1,0.3,0.2l-0.2,0.8h-0.2v0.2h0.2v0.6h0.2v0.2h-0.2l0.2,0.5c-0.1,0.2-0.1-0.1-0.2,0.2
			l0.3,0.2l-0.2,0.3l0.3,0.2v0.2h-0.2l0.2,0.5h-0.2v0.5h0.2c0,0.2-0.3,0.4-0.2,0.8h0.2v0.9l-0.2,0.5c0.1,0.1,0.2,0.2,0.2,0.3
			l-0.2,0.3h0.2v0.5h0.2c0,0.1,0,0.3-0.2,0.3l0.2,0.6h0.3L59,46h0.2v0.2l0.3-0.2v0.3h0.2v-0.2h0.3v0.2H60v-0.2h0.5V46
			c0.2-0.1,0.7-0.7,0.6-1.1c0,0-0.2,0-0.2-0.3c0,0,0.1-0.1,0.2-0.3h-0.3v-0.3h0.3v-0.2l-0.3-0.2l0.3-1.4h-0.5c0.1-0.6,0.1-0.4,0-0.9
			h0.3L60.8,41h-0.2l0.2-0.2c-0.1-0.4-0.1-0.7-0.2-1.1h-0.3l0.2-0.5h0.2v-0.6h-0.2l0.2-0.6h-0.3v-0.6h0.3c0.2-0.2-0.3-0.1-0.3-0.2
			v-0.2h0.2l-0.2-0.3c0.1-0.1,0.2,0,0.2-0.3l-0.2-0.3c0-0.1,0.3,0,0.3-0.3h-0.3c0-0.3,0.2,0,0.3-0.3h-0.2l0.2-0.5h-0.2v-0.5h-0.1
			v-0.2h0.2c0.1-0.4-0.2-0.5-0.2-0.5c-0.1-0.4,0.1-0.4,0.2-0.6c-0.1-0.2-0.2,0.1-0.2-0.2l0.3-0.2v-0.2h-0.2l-0.2-1.8l0.3-0.2V31
			l-0.5-0.2v-0.2h0.2v-0.2h-0.2c-0.1-0.2,0-0.4,0.2-0.5c0.1-0.4-0.2-0.9-0.2-1.1h0.2l0.2-0.3h-0.3V28c0-0.2-0.2,0.1-0.2-0.2h0.2
			v-0.6H60v-0.2h0.2v-0.3h0.2v-0.2l0.9,0.2l0.2-0.3c0.4-0.1,0.7,0.1,0.9,0.2c0.4,0,1-0.3,1.2-0.3l0.2,0.3h0.5V27l0.3,0.2l0.2,0.5
			h0.3l0.3,0.5h0.3l0.2,0.3h0.2l-0.2,0.3h0.3l0.2,0.3h0.3c0.1,0.1,0.1,0.2,0.3,0.3v0.3l0.5,0.2v-0.2h0.2v0.3
			c0.2,0.2,0.4,0.3,0.6,0.3v0.5l0.9,0.3V31c0.2,0.2,0.5,0.4,0.8,0.5l0.2,0.5h0.2v0.3l0.3-0.2v0.2l0.5,0.2c0.1,0.3,0,0.1,0.2,0.3v0.2
			h0.5v0.5h0.2v0.2l0.3-0.2l0.2,0.5c0.4,0.1,0.5,0.2,0.6,0.6l0.6,0.2c0.2,0.1-0.2,0.2-0.2,0.2c0,0.3,0.1,0.1,0.3,0.2
			c0.1,0.4,0.1,0.4,0.6,0.5c-0.1,0.2-0.1,0.4-0.2,0.6h0.5l0.2,0.5h0.5c0.2,0.3,0.3,0.7,0.5,1.1h0.5v0.3h0.3v0.2
			c0.3,0.3,0.1,0.3,0.6,0.5l0.2,0.5l0.3,0.2c0.1,0,0-0.2,0.2-0.2v0.2c0.2,0.2,0.4,0.3,0.6,0.3c0.1,0.4,0.1,0.2,0.3,0.5v0.2h0.3
			l-0.2,0.3h0.3l0.5,0.6l0.6,0.2l-0.2,0.3l0.5,0.2v0.2h0.3l0.6,0.8l0.3-0.2l0.2,0.9h0.6c0,0.4,0,0.5,0.3,0.6h0.3
			c0.2,0.1-0.2,0.2-0.2,0.2l0.2,0.5l0.5,0.2l0.2,0.3h0.3l-0.2,0.3c0.1,0.1,0.2,0.1,0.3,0.3l0.9,0.2v-0.2l0.3,0.2v-0.2
			c0.4-0.2,0.2,0,0.2-0.5l0.5-0.2l0.2-0.6h-0.3v-0.3h0.2c0.1-0.4-0.4-0.6-0.6-0.6v-0.3h-0.3l-0.2-0.6c-0.6-0.2-0.5-0.5-1.1-0.6
			c-0.2-1-1.3-1-1.8-2h-0.5V39c-0.3,0-0.5-0.1-0.8-0.2v-0.3h-0.3v-0.5h-0.3v-0.3l-0.5-0.2v-0.2h-0.3l0.2-0.3l-0.5,0.2
			c-0.1-0.2-0.1-0.4-0.2-0.6l-0.8-0.2L77.4,36c-0.4-0.1-0.3,0-0.5-0.5h-0.5v-0.6h-0.6v-0.2h0.2v-0.2h-0.2c-0.2-0.3-0.1-0.2-0.5-0.3
			c-0.1-0.3-0.2-0.6-0.5-0.9h-0.5v-0.3h-0.3V33c0.2-0.1,0.1,0.1,0.2-0.2h-0.5l0.2-0.5c-0.1-0.2-0.5-0.1-0.6-0.3h0.2v-0.2H73v-0.3
			h-0.5l0.2-0.5c-0.6-0.1-0.6-0.1-0.8-0.6h-0.5c-0.2-0.8-0.6-0.4-1.1-0.8l0.2-0.3L70,29.2v-0.3c-0.3-0.1-0.1,0-0.3-0.2h-0.6
			c0.4-0.4-0.4-0.7-0.8-0.8c-0.1-0.3,0-0.1-0.2-0.3v-0.3c-0.4,0.3-0.7-0.4-1.1-0.6v-0.3c-0.3-0.1-0.6-0.3-0.8-0.6c0,0-0.6,0-0.3-0.2
			c0.1-0.1,0.4,0.1,0.3-0.2h-0.2c0.1-0.2,0.6,0.1,1.1-0.2l0.3-0.5H68v-0.2h0.3v-0.2l0.3,0.2v-0.2h0.3v-0.2c0.5-0.3,0.3-0.5,0.9-0.3
			v-0.3l0.5,0.2v-0.2h0.3c0.2-0.4,0-0.2,0.5-0.2v-0.3l0.8-0.2v-0.2c0.3-0.2,0.6-0.3,0.9-0.3v-0.3h0.2v0.2c0.2-0.1,0.2-0.2,0.3-0.3
			l0.5-0.2l0.2-0.5h0.3v-0.2c0.4-0.3,0.3,0.1,0.5-0.5l0.6-0.2v-0.5l0.6-0.2v-0.3h0.5v-0.3h0.3c0.1-0.5,0.3-0.6,0.5-1.1l0.6-0.2v-0.3
			h0.3v-0.5c0.4-0.1,0.3,0,0.5-0.5h0.2l-0.2-0.6h0.3c0-0.6,0.1-0.4,0-0.8l0.5-0.2L78.9,15l0.3-0.2l-0.2-0.6h0.2v-0.6h-0.2v-0.2h0.2
			v-0.3h0.2v-0.2h-0.2v-1.4h-0.2l0.2-0.5c-0.1-0.1-0.2-0.2-0.2-0.3c0.1,0,0.2-0.2,0.2-0.3c0,0,0,0,0,0l-0.3-0.2V9.6h-0.3l0.2-0.5
			h-0.2V8.8h-0.3C78.2,8.1,78,8.4,78,7.6h-0.6l-0.2-0.5L77.4,7c-0.4-0.2-0.5-0.5-0.8-0.8V6.1l-0.5,0.2V5.8h-0.5V5.5
			c-0.3-0.1-0.5-0.2-0.8-0.5V4.9h-0.8L74,4.6l-0.3,0.2V4.3c-0.1,0.1-0.4,0.1-0.6,0.2V4.1l-0.3,0.2v0.2h-0.2l0.2-0.3l-1.4-0.5
			c-0.3-0.1-0.5,0.2-0.6,0.2l-0.2-0.5c-0.4-0.2-1,0.1-1.2,0l-0.2-0.3l-1.4,0.2V3.1h-0.5V2.9c-0.3-0.1-0.4,0.2-0.6,0.2V2.9h-0.5V2.8
			l-1.5,0.3V2.9C64.6,3,64.3,3.1,64,3.1V2.9h-0.2v0.2l-0.6,0.2l-0.2-0.3l-0.3,0.2V2.9c-0.2,0,0.1,0.1-0.2,0.2h-0.5v0.2
			c-0.3,0-0.4-0.4-0.8-0.3v0.2h-0.3v0.2c-0.2,0,0.1-0.1-0.2-0.2h-0.6V2.9c-0.1,0-0.2,0-0.3,0.2c-0.7,0.1-0.7-0.4-1.2,0.2h-0.2
			l0.2-0.3l-0.3-0.2l0.2-0.5h-0.2V2h-0.5l-0.2-1.1c-0.2,0-0.4,0.1-0.6,0.2V0.9H57c-0.1,0.2-0.4,0.4-0.6,0.5l0.2,1.4
			c0,0-0.6,0-0.3,0.2h0.3c-0.5,0.2-1,0.3-1.5,0.3C55,3.2,55,3,54.8,3v0.2l-0.5,0.2L54.1,3H54l-0.2,0.5h-0.3V3.2h-0.5
			c0,0-0.4,0.1-0.2,0.2c0.1,0.1,0.2,0.2,0.2,0.3c-0.1-0.1-0.2-0.2-0.3-0.3c-0.3,0.1-0.6,0.3-0.8,0.6h-0.3V3.8H52V3.5
			c-0.2,0-0.4-0.1-0.6-0.2v0.2h-0.3v0.2c-0.1,0-0.3,0-0.3-0.2c-0.5-0.1-0.1,0.2-0.8,0C50,3.8,50,3.9,49.8,4.1v0.5
			C50.1,4.8,50.4,4.9,50.8,5z M61.6,24.4L61,24.5v0.2h-0.2v-0.3l-0.2,0.2h-0.8c0.1-0.4,0.2-0.3,0.3-0.8l-0.5-0.2l0.2-0.6l-0.2-0.2
			h0.2c0.2-0.2,0-0.1,0.3-0.2l0.2,0.5c0.2,0.6,0.3,0.1,0.8,0.3c-0.5,0.5,0.3,0.4,0.5,0.6L61.6,24.4z M59.1,5.2c1.5,0.1,3,0.1,4.5,0
			v0.3h0.2c0.1,0,0.1-0.4,0.8-0.3v0.2h0.2V5.2H66V5l0.5,0.2V4.9L66.9,5v0.2h0.5V5h0.2v0.2h1.1v0.2c0.5,0.2,0.8,0.1,1.2,0.3v0.2
			c0.2,0,0,0,0.2-0.2l1.2,0.2l0.5,0.6c0,0,0.7-0.2,0.9-0.2v0.2c0.2,0.1,0.4,0.2,0.6,0.2v0.3L73.5,7v0.2h0.6c0.1,0,0.1,0.3,0.3,0.3
			V7.3h0.2l-0.2,0.3h0.2v0.2H75c0.2,0-0.1,0.2,0.2,0.2V7.7c0.2,0.2-0.2,0.4,0.6,0.6c0.1,0.4,0.2,0.8,0.5,1.1h0.2v0.5h0.2v0.3h0.2
			l-0.2,0.3h0.2v0.3l0.3,0.2l-0.2,0.3c0.1,0.2,0.3,0.1,0.3,0.5c-0.1,0-0.2,0.2-0.2,0.3c0,0,0.3,0,0.3,0.3l-0.5,0.3v0.2H77v0.5h0.2
			c0,0.2,0,0-0.2,0.2l0.2,0.8h-0.3l0.3,0.5h-0.3c0.1,0.2,0.1,0.4,0.2,0.6h-0.3c0.3,0.2-0.2,0.8-0.3,1.1v0.3l-0.3,0.2L76,17.2h-0.2
			l-0.2,0.3c-0.3,0.2-0.2-0.1-0.5,0.3h-0.3v0.3h-0.3c-0.1,0.3,0,0.1-0.2,0.3v0.2H74V19c-0.4,0.1-0.3,0-0.5,0.3h0.2v0.2
			c-0.2,0.2-0.2-0.1-0.5,0.3h-0.5v0.5l-0.9,0.3l-0.2,0.3h-0.3V21h-0.6l-0.2,0.3l-0.3-0.2v0.2c-0.2,0.2-0.6,0.3-0.9,0.3v0.3h-0.3v0.3
			c-0.2,0-0.4-0.1-0.6-0.2v0.2h-0.5v0.2h0.2v0.2h-0.2c0,0.1,0,0.3-0.2,0.2v-0.3c-0.2,0.1-0.2,0.3-0.3,0.3h-0.3v0.2h-0.5v0.2h-0.3
			l-0.2,0.3h-0.2v-0.2l-0.6,0.3v0.2h-0.3v0.2h-0.2v-0.2l-0.6,0.3c-0.1-0.2-0.4-0.3-0.6-0.3c-0.1-0.6-0.1-0.2-0.5-0.5v-0.2h-0.3
			l0.2-0.3h-0.3v-0.3h-0.3c-0.1-0.6-0.1-0.6-0.6-0.8v-0.4c-0.2,0.1-0.4,0.1-0.6,0.2c0-0.1,0.1-0.6-0.2-0.5c-0.2,0.1,0.1,0.2-0.2,0.2
			v-0.3c-0.4-0.1-0.3,0-0.5-0.5l-0.6-0.2c0.1-0.3,0-0.1,0.2-0.3v-0.2h-0.8c0.1-0.3,0.1-0.7,0-1.1h-0.3v-0.3l0.3-0.2
			c0-0.1,0-0.3-0.1-0.3c0,0,0,0,0,0c0-0.1,0-0.2,0.2-0.3L59.5,17h0.2v-0.2h-0.2v-0.6h-0.2v-0.2h0.2v-0.1h-0.2l0.2-1.1h0.2
			c0-0.1,0-0.2-0.2-0.3l0.2-0.8h-0.3l0.2-0.6h-0.2V13h0.2l-0.2-1.4h0.2l0.2-0.6h-0.3l-0.2-0.5c0.1-0.2,0.4-0.1,0.3-0.6h-0.2
			l-0.2-0.5h0.2V9.3h0.2c0.1-0.4-0.3-0.3-0.3-0.5l0.2-0.5c0-0.1-0.2,0-0.2-0.3c0,0,0.3-0.1,0.3-0.3h-0.2V7.4h-0.2V6.4H59V6.2h0.3
			c0.1-0.1-0.4-0.3-0.5-0.3C58.9,5.5,59,5.6,59.1,5.2L59.1,5.2z"/>
		<path id="パス_289" class="st0" d="M212,41.8c0.2,0.3,0.4,0.6,0.5,0.9h0.3c0.2,0.1-0.2,0.2-0.2,0.2c0,0.4-0.1,0.4-0.2,0.6h0.3
			l-0.2,0.3h0.3l-0.2,0.5l0.3,0.2c0.2,0.3-0.1,0.2,0.3,0.5c-0.2,0.2,0,0.1-0.3,0.2c0.2,0.2,0,0.1,0.3,0.2l0.2,0.8
			c0.3,0.1,0.1,0,0.3,0.2h0.2v0.6h0.2c0.2,0.2,0.3,0.5,0.3,0.8h0.5c0.1,0.4,0.2,0.3,0.3,0.8l0.5-0.2v0.3h0.3v0.3l0.6-0.2l0.2,0.5
			h0.3v0.3c0.7,0.1,0.4,0.3,1.2,0.3v0.3l0.5,0.2v0.2h0.6l0.2,0.3h0.8l0.2,0.3l1.8,0.3l0.3-0.2l0.2,0.3c0.1,0,0.3,0,0.3-0.2
			c0.3,0,0.3,0.2,0.3,0.2l0.5-0.2l0.2,0.2l0.3-0.2c0.2,0-0.1,0.2,0.2,0.2V51c0.2-0.1,0.9-0.1,1.1-0.2v-0.2h0.2l-0.2,0.3
			c0.8-0.2,1.5-0.8,2.3-0.5v-0.3l1.2-0.2V50l0.5,0.2l0.2-0.3c0.2-0.1,0.1,0.1,0.2,0.2l0.3-0.2c0.2,0.1-0.1,0.2,0.2,0.2v-0.2
			c0.1,0,0.6,0.1,0.5-0.2h-0.2v-0.2c0.2,0.1,0.3,0.2,0.6,0.2c0.2,0-0.1-0.2,0.2-0.2v0.2h0.3v-0.3c0.5-0.1,0.3-0.3,1.1-0.3l0.2-0.5
			h0.8l0.3-0.6h0.5l0.3-0.5h0.3c0.3-0.1,0.2-0.2,0.3-0.6l0.2,0.2c0.1,0,0.5-0.2,0.8-0.3c0.1-0.4,0.1-0.3,0.3-0.5v-0.2l0.8-0.2
			l0.3-0.5h0.3v-0.2h0.3v-0.2l0.5-0.2v-0.3c0,0,0.6,0,0.3-0.2c0-0.2-0.1,0.1-0.2-0.2h0.3c0.1-1,0.2-0.4,0.6-0.9l-0.2-0.3l0.3-0.2
			v-0.5c0.1-0.2,0.2,0.1,0.2-0.2h-0.2v-0.2l0.3,0.2l-0.2-0.5h0.2v-0.3h0.2l0.3-0.5h-0.3c0.2-0.8,0.4-0.7,0.5-1.7
			c0.5-0.2,0-0.4,0.2-1.2h0.2c0-0.3-0.4-0.2-0.3-0.6h0.2l0.2-0.8c0,0-0.3-0.1-0.3-0.3h0.2l0.2-0.8h-0.3c0.3-0.3-0.2-0.8-0.2-1.1h0.2
			l0.2-0.5h-0.2v-0.3l-0.3-0.2v-0.5h-0.2l-0.2-1.2h-0.3c0.2-0.1,0.1-0.8,0-1.2h-0.3v-0.5h-0.3l0.2-0.5h-0.3l0.2-0.3h-0.3
			c-0.2-0.8-0.7-1-0.9-1.8l-0.5,0.2v-0.5c-0.4,0-0.9-0.2-1.2-0.5l-0.2-0.5l-0.8-0.2l-0.2-0.5l-0.3,0.2v-0.2l-0.9-0.2l-0.2-0.5
			l-1.5-0.2v-0.2h-0.9l-0.2-0.3l-0.5,0.2V25l-0.5,0.2l-0.2-0.3h-0.5v-0.2h-0.2c-0.2,0,0.1,0.2-0.2,0.2v-0.2c-0.4,0-0.7,0-1.1,0.2
			v-0.3h-0.5v0.2h-0.3c0.2-0.2,0-0.1,0.3-0.2v-0.2h-0.5v0.2c-0.3,0.1-0.4-0.2-0.6-0.2l-0.2,0.3l-0.2-0.2c-0.2,0-0.5,0.1-0.6,0.3
			h-0.2v-0.5c-0.7,0.2-0.7-0.1-1.2,0v0.2h-0.5v-0.3h-0.6v-0.2h-0.2v0.2h-0.3v-0.5c-0.3,0.1-0.6,0.1-0.9,0v-0.2h-0.5l0.2-0.3
			c-0.5-0.3-0.5,0.4-0.8-0.5c-0.2,0-0.4-0.1-0.6-0.2l-0.2-0.3h0.2v-0.2h-0.2L220,22h-0.3c0.3-0.5-0.6-1-0.5-1.4h0.2v-0.3h-0.5v-0.9
			c0-0.2,0.1,0.1,0.2-0.2l-0.3-0.2c-0.3-0.4,0.1-0.1,0-0.5h-0.2v-0.5h-0.3v-0.2c0.4-0.1,0-0.3,0-0.5c0-0.1,0.3,0,0.2-0.3l-0.3-0.2
			l0.2-1.5h-0.2l0.2-0.8l0.3-0.2l-0.2-0.5h0.2V14l0.3-0.2l-0.2-0.3h0.2l0.2-0.5h0.3v-0.2c0,0-0.3-0.1-0.2-0.3l0.3-0.2v-0.6l0.3-0.2
			L220,11l0.3-0.2l-0.2-0.6h0.5c0-0.3,0-0.5,0.2-0.8h0.2V9l0.3-0.2V8.5h0.2l0.2-0.5h0.3V7.6h0.5c0-0.3,0.2-0.3,0.2-0.3l-0.2-0.5h0.6
			l0.2-0.5c0.4-0.4,0.7-0.2,0.9-0.9l0.6,0.2V5.4c0.2,0,0.4-0.2,0.6-0.3V4.9h0.5V4.8h1.2V4.6l0.9-0.2v0.3c0.8-0.1,1.6-0.1,2.4,0v0.2
			h0.3l0.2,0.3h0.6l0.2,0.3l0.8,0.2V6l0.9,0.2v0.3h0.5c-0.4,0.3,0.2,0.5,0.6,0.6c-0.1,0.1-0.2,0.2-0.3,0.3c0.2,0.2,0,0.1,0.3,0.2
			c0,0.3,0.1,0.7,0.3,0.9h0.2v0.5h0.2l0.5,0.6h0.5v0.3l0.9-0.2l0.2-0.9h-0.2l-0.3-1.1l-0.6-0.2l0.2-0.5c-0.3-0.2-0.7-0.3-1.1-0.3
			V6.6h0.3c0-0.4-0.2-0.8-0.5-1.1l-0.3-0.2c-0.1-0.3,0-0.7-0.3-0.9l-0.3,0.2V4h-0.5V3.7c-0.2,0-0.4-0.1-0.6-0.2l-0.2,0.2
			c-0.1-0.1-0.1-0.7-0.3-0.8c-0.4-0.1-0.8-0.1-1.2,0V2.6H230c0,0,0-0.2-0.3-0.2v0.2h-0.3V2.3c-0.2,0-0.4,0.1-0.6,0.2
			c-0.1-0.1,0-0.2-0.3-0.2v0.2h-0.2V2.3h-0.5v0.2c-0.2,0-0.9-0.3-1.4-0.2l-0.2,0.3c-0.2,0-0.3-0.2-0.6-0.2v0.2h-0.6v0.2h-0.5v0.2
			h-0.5l-0.2,0.3c-0.3,0.3-0.7,0.3-1.1,0.2l-0.2,0.5h-0.5l-0.2,0.5h-0.5v0.2h-0.2v0.5h-0.3c-0.1,0.4,0,0.3-0.5,0.5v0.3
			c-0.8,0.2-0.4,0.4-0.8,0.9l-0.3-0.2v0.5l-0.5,0.3c-0.3,0.6,0.4,0.5-0.5,0.8v0.5h-0.5c0.2,0.2,0,0.1,0.3,0.2
			c-0.2,0.4-0.3,0.3-0.3,0.9h-0.3c-0.1,1.2-0.8,1.1-0.8,2.4c-0.3,0.1-0.1,0-0.3,0.2H217c0.1,0.1,0.2,0.2,0.3,0.3
			c-0.3,0.4-0.5,0.3-0.6,1.1h-0.3v0.3h-0.2c0.1,0.2,0.1,0.4,0.2,0.6h-0.3c0,0.4,0,0.8-0.2,1.2l0.3,0.6l-0.3,0.2c0,0,0,0.6,0.2,0.3
			v-0.2h0.2l-0.3,1.1l0.5,0.2c-0.4,0.7,0.4,2,0.5,3c0.3,0.1,0.1,0,0.3,0.2h0.2v0.2h-0.2l0.2,0.5h-0.2c0.1,0.6,0.1,0.6,0.6,0.8
			c0.1,0.9,0.5,0.8,0.6,1.7h0.3c0.1,0.4,0.2,0.4,0.3,0.9l0.5-0.2v0.2h0.2v0.5h0.2v0.2l0.5-0.2v0.3l1.1,0.2V26h0.8v-0.2h0.2l-0.2,0.3
			l1.5,0.2v0.3c0.4,0,0.4-0.2,0.9,0v0.2h1.7v-0.1l1.1,0.3v-0.3h0.9V27l1.2,0.2V27h0.2v0.3l0.5-0.2l0.2,0.3l1.2,0.2v-0.2h0.2l0.2,0.5
			c0,0,0.5-0.3,0.8-0.2l0.2,0.3h0.2v-0.2c0.2,0,0.2,0.2,0.3,0.3l0.3-0.2l0.5,0.6l0.3-0.2v0.2c0.4,0.2,0.3,0.1,0.6,0l0.2,0.5h0.3v0.3
			h0.3v0.3h0.6v0.5h0.3c0.1,0,0,0.3,0.3,0.3v-0.2h0.2c-0.2,0.7,0,0.2,0.2,0.9h0.3l0.2,1.2h0.3l0.2,0.9c0,0.2-0.2-0.1-0.2,0.2
			l0.3,0.2l-0.2,0.3h0.3l-0.2,0.9l0.3,0.2l-0.2,0.3h0.2v0.3h0.2l-0.2,0.3h0.2v0.9c0,0,0.1,0,0.2,0.3h-0.3c0.1,0.1,0.2,0.2,0.3,0.3
			l-0.2,0.5h0.2l-0.2,1.5h-0.2c0,0.1,0,0.2,0.2,0.3v0.2h-0.2l0.2,0.5l-0.3,0.2v0.5h-0.2V41h0.2v0.2c-0.1,0.2-0.5,0.3-0.6,0.6h0.2
			v0.2h-0.3c0,0.5-0.2,1-0.5,1.4c-0.3,0.5-0.9,0.6-1.2,1.1h-0.5v0.3h-0.3v0.3l-0.5,0.2c0,0,0-0.3-0.2-0.2l-0.2,0.5h-0.3l-0.2,0.3
			h-0.3v0.2H233V46h-0.5v0.2c-0.2,0.2-0.4,0.3-0.6,0.3v0.3c-0.5,0-1,0.1-1.4,0.5l-0.2,0.3l-0.2-0.2l-0.9,0.2v0.3l-0.2-0.2h-0.2v0.2
			h-0.8v0.2l-0.5-0.2v0.2l-0.6,0.2v0.2l-0.5-0.2l-0.2,0.3h-0.3v0.2l-0.8-0.2v0.2h-0.3v0.2h-1.2v0.2h-0.8V49h-0.2v-0.2
			c-0.7-0.1-0.9-0.2-1.2,0.2h-0.2v-0.5l-1.4-0.2l-0.2-0.3h-0.5l-0.2-0.3h-0.3l-0.2-0.3h-0.5l-0.2-0.3l-0.3,0.2l-0.2-0.5h-0.6
			c-0.1-0.3,0-0.1-0.2-0.3c-0.3-0.2-0.7-0.4-1.1-0.5c-0.1-0.4-0.2-0.4-0.3-0.9c-0.3-0.1-0.1,0-0.3-0.2h-0.2l-0.2-0.9l-0.3-0.2
			l-0.2-0.9l-0.3,0.2c-0.1-0.4,0.3-0.4,0.3-0.6l-0.3-0.2l-0.2-1.1h-0.2c-0.3-0.4-0.4-0.1-0.5-0.8c-0.2,0-0.4,0.1-0.6,0.2v-0.2
			c-0.6,0-0.6,0.1-0.9,0.5h-0.2C212.4,41.7,212.6,41.6,212,41.8z M221.7,48.9c-0.3-0.1-0.1,0-0.3-0.2
			C221.7,48.9,221.5,48.8,221.7,48.9L221.7,48.9z"/>
		<path id="パス_290" class="st0" d="M1.1,10.2l0.2,0.8h0.2l-0.2,0.5h0.3l-0.2,0.5h0.2l0.2,0.3c0.1,0.2,0.2-0.1,0.2,0.2H1.7v0.3H2
			c0,0.5,0.1,1,0.3,1.5h0.2l-0.2,0.3h0.3l-0.2,0.5h0.2v0.3h0.3c0,0.4,0,0.7,0.3,0.8v-0.2h0.2l-0.2,0.8l0.3,0.2l0.2,1.1H4V18h0.2
			C4.1,18.2,4,18.4,4,18.6h0.5v0.3H4.3c0,0.2,0.1-0.1,0.2,0.2v0.6h0.3c0,0.4,0.1,0.7,0.2,1.1h0.3c0.1,0.4,0.1,0.9,0,1.4
			c0.3-0.1,0.1,0,0.3-0.2h0.2l-0.2,0.5h0.2v0.2H5.5v0.2L6,23c-0.1,0.2-0.2,0.5-0.2,0.8H6v0.5l0.3,0.2V25h0.2c0.2,0.3,0.2,0.6,0,0.9
			h0.3l0.2,0.6H6.7v0.2h0.2v0.3H7l0.2,0.5H6.9v0.3h0.3c0.1,1.4,0.9,2.2,0.6,3.3l0.5,0.2l-0.2,1.4c-0.3,0-0.5,0-0.8,0.2v0.2L7,32.7
			v0.2H6.7l-0.2,0.3L6.1,33v0.3H5.7v0.3H5.5l0.2,0.9H5.5c0.1,0.4,0.2,0.5,0.6,0.6v-0.3h0.3v0.3c1.1-0.1,1.2-0.4,2.3-0.5
			C8.8,35,8.8,34.9,8.8,35l-0.2,0.3h0.2v0.2h0.3v0.2H9c0,0.3,0.3,0.3,0.3,0.3s-0.1,0.9-0.2,1.1c0.3,0.1,0.1,0,0.3,0.2h0.2
			c0.2,0.3-0.1,0.6-0.2,0.8L9.9,38c-0.1,0.3,0,0.1-0.2,0.3c0,0.3,0,0.4,0.2,0.6h0.2v0.5h0.2l-0.2,0.2l0.2,0.6h0.3v0.8l0.3,0.2
			l-0.2,0.6H11v0.5h0.3c-0.3,0.2,0.2,0.9,0.3,1.2l-0.2,0.5c0.3,0.1,0.2,0.2,0.6,0.3c-0.1,0.3,0,0.1-0.2,0.3l0.2,0.5h0.2v0.3l0.3,0.2
			l0.2,0.6h0.2l-0.2,0.3l0.5,0.2v1.1l0.3,0.2v0.3h0.2l-0.2,0.5h0.2v0.6h0.2v0.6h0.2v0.3H14v0.2h-0.2v0.9h0.5l-0.2,0.5l0.2,0.2
			L14,51.6l0.2,0.5h0.3v0.5h-0.2c0.2,0.2,0,0.1,0.3,0.2c-0.1,0.3,0,0.1-0.2,0.3c0,0.4,0,0.6,0.2,0.8h0.3l-0.2,0.5l0.5,0.2
			c0,0.4-0.1,0.4-0.2,0.6h0.3v0.2h-0.2l0.2,0.5h0.2V56h0.2v0.6h0.2v0.3H16c0.2,0.4,0,0.4,0,0.6h0.2l0.2,0.6h0.3
			c-0.1,0.2-0.2,0.5-0.2,0.8L17,59v0.3h-0.2c0,0.2,0.1-0.1,0.2,0.2v0.8h0.3v0.6c0.3,0.1,0.1,0,0.3,0.2h0.2c-0.1,0.1-0.2,0.2-0.3,0.3
			v0.2h0.5v0.2h0.2L17.9,62h0.3c0.1,0.3,0,0.1,0.2,0.3c0.1,0.4,0,0.3,0.5,0.5v0.6c0.4-0.4,0.5,0.6,0.8,0.8H20l-0.2,0.3h0.3
			c0.3,0.1,0.4,0.4,0.5,0.8c0.3,0,0.5,0.1,0.8,0.2v0.3c0.3,0,0.3,0.2,0.3,0.2c0.1,0,0.4-0.3,0.8-0.2v0.2c0,0,0.6,0,0.3-0.2
			c0,0,0,0,0-0.1l0,0c0,0-0.1,0.1-0.1-0.1l0.1,0.1c0,0,0,0,0,0l0.3,0.2v-0.2h0.2c-0.2-0.5-0.1-0.4,0-0.9c-0.1-0.1-0.2-0.2-0.3-0.3
			c-0.3-0.1-0.2,0.1-0.3,0.2l-0.5-0.2l0.2-0.8H22l-0.2-0.5h-0.1l-0.2-0.5h-0.3l0.2-0.3H21l-0.3-0.9h0.2v-0.2c-0.2-0.2-0.5,0-0.6-0.2
			V61h-0.2c-0.3-0.4,0.2-0.3-0.5-0.5c0-0.2-0.1-0.4-0.2-0.6h0.2v-0.2l-0.3-0.2v-0.3L19,59.1l-0.2-1.2h-0.2v-0.3l-0.3-0.2l-0.2-0.9
			H18c0-0.3,0.2-0.5,0.2-0.6l-0.5-0.3l0.2-0.3h-0.2v-0.9l-0.5-0.3v-0.6l-0.3-0.2v-0.5h-0.2v-0.2h0.2v-0.9h-0.5c0-0.7,0-1-0.3-1.4
			c0-0.3,0.3-0.3,0.3-0.3c0-0.2-0.2-0.5-0.3-0.6h-0.3l0.2-0.3h0.2v-0.2H16v-0.5h-0.2c0-0.3,0.4-0.4,0-0.8l-0.3,0.2
			c0.1-0.4,0.2-0.3,0.3-0.8h-0.3c-0.1-0.8-0.4-0.8-0.2-1.5h-0.3c-0.1-0.4-0.2-0.4-0.3-0.9h-0.3c0-0.2,0.1-0.4,0.2-0.6l-0.5-0.2
			l-0.3-1.5h-0.3l-0.2-0.5h0.2V42c-0.1-0.1-0.3-0.1-0.5-0.3c0.3-0.2,0.2-0.1,0.3-0.5h-0.3v-0.6h-0.3V40l-0.3-0.2
			c0-0.2,0.3-0.3,0.2-0.6l-0.3-0.2c-0.2-0.5,0.2-0.4-0.3-0.8v-0.6l-0.3,0.2c0.3-0.9-0.1-1-0.2-2h-0.3c0.1-0.2,0.1-0.5,0.2-0.8h-0.3
			l0.2-0.6l0.6-0.2c0.2,0-0.1,0.1,0.2,0.2v-0.1h0.2v0.2H13v0.2h0.2v-0.2l0.5-0.2c0.5,0.2,1.1,0.2,1.7,0v0.3c2.7-0.2,3.9,0.2,6.4-0.3
			c0.5-0.1,0.5,0.3,0.6,0.3c0.2-0.1,0.4-0.1,0.6-0.2v-0.3c0.3,0,0.5,0,0.8,0.2v0.2c0.2,0,0.3-0.3,0.3-0.3l1.1-0.2v-0.2h0.2l-0.2,0.5
			c0.2-0.1,0,0,0.2-0.2h1.5c-0.2-0.2,0-0.1-0.3-0.2v-0.2l0.8,0.2v0.2l0.9-0.2v-0.2l0.9,0.2v-0.2h0.9v-0.2c0.3,0,0.3,0.2,0.3,0.2
			c0.5,0.1,1.1,0,1.5-0.3c0,0,0.6,0,0.3,0.2c0,0.2-0.1-0.1-0.2,0.2l1.2-0.2v-0.2l0.5,0.2c0,0,0-0.5,0.2-0.3c0,0.2-0.1,0.4,0.2,0.3
			v-0.2h1.1v-0.2c0.2,0,1.1,0.3,1.2,0.3v-0.2h0.5v-0.2h0.8v-0.2h0.2l0.3-1.4l-0.3-0.2v-0.3l-0.5-0.2l-0.2,0.2v-0.3l-0.9,0.2v-0.2
			h-0.2l-0.2,0.3c-0.2,0.1,0-0.1-0.2-0.2c-0.2,0-0.2,0.2-0.6,0.2c0,0,0-0.2-0.3-0.2v0.2l-0.6-0.2v-0.2l-1.8,0.6h-0.2v-0.5h-0.2v0.3
			h-0.6v-0.2H31v0.3h-0.2v-0.3l-0.8,0.2v0.2c-0.1,0-0.3,0-0.3-0.2h-0.2v0.2c-0.3,0.1-0.5-0.2-0.5-0.2l-0.5,0.2
			c-0.2-0.1,0.1-0.2-0.2-0.2v0.2h-0.6l0.2-0.3c-0.4,0.1-0.8,0.3-1.2,0.5h-1.4v-0.2L24.8,32v-0.2h-0.2V32H24v0.2L23.4,32
			c-0.1,0,0,0.4-0.5,0.3v-0.2h-0.6v0.2h-0.9c-0.1,0,0,0.2-0.3,0.2v-0.2H21v0.2h-0.1v-0.2c0,0-0.6,0-0.3,0.2h0.2v0.2
			c-0.4-0.2-0.3-0.2-0.8,0v-0.3c-0.2,0-0.4,0.1-0.6,0.2l-0.2-0.2v0.3l-0.5-0.2v-0.2l-0.2,0.2c-0.3,0-0.3-0.2-0.3-0.2
			c-0.4-0.1-0.4,0.1-0.5,0.2l-0.5-0.2v0.3c-0.6,0-0.8,0.2-1.4,0v-0.2l-0.8-0.2v0.2h-0.3v0.2c-0.2,0-0.3-0.3-0.3-0.3
			c-0.6-0.2-0.6,0.4-1.1,0.3v-0.2h-0.5v-0.2c-0.4-0.1-1,0.2-1.2,0.2l-0.2-0.3h-0.3v0.3c-0.3-0.1-0.7-0.2-1.1-0.2l0.2-0.6h-0.2v-0.3
			h-0.2l-0.2-1.5H9.8l0.2-0.9H9.8L9.6,28H9.3l0.2-0.5H9.3v-0.2c0-0.2,0.2,0.1,0.2-0.2s-0.2,0.1-0.2-0.2h0.2V27l-0.3-0.2v-0.8
			c-0.2,0.2-0.1,0-0.2,0.3H8.9C8.7,26.1,9,25.4,9,25.3H8.7c-0.1-0.7-0.3-0.6-0.3-1.4c-0.3-0.1-0.1,0-0.3-0.2h0.3v-0.5
			c-0.3-0.1-0.1,0-0.3-0.2H8V23c0.4-0.2,0-0.2,0-0.5h0.2v-0.2H7.8l-0.2-0.8h0.2v-0.2l-0.3-0.2l0.2-0.5l-0.5-0.3l0.2-0.5L7.1,20v-0.5
			l-0.5-0.3L6.8,19H6.6v-0.6H6.4v-0.3H6.3v-0.5L6,17.5v-0.6l-0.5-0.3l0.2-0.6l-0.3-0.2l-0.2-0.9H4.9c0-0.4,0.2-0.4,0-0.8L4.6,14
			v-0.8l-0.3-0.2L4.2,12H4v-0.3H3.9v-0.5c-0.2-0.4-0.4-0.9-0.5-1.4l1.7-0.2C5.2,9.8,5.3,9.9,5.4,10V9.7l0.5,0.2
			c0.1-0.1,0-0.2,0.3-0.2c0.2,0-0.1,0.2,0.2,0.2l0.2-0.3L7,9.9V9.6l0.3,0.2c0,0,0.1-0.1,0.3-0.2v0.2h0.2V9.4c0,0,0.5,0.2,0.8,0.2
			V9.4L9,9.5l0.2-0.3c0.3-0.1,0.6,0.2,0.8,0.2V9.2l0.6-0.2V8.9c0.2,0,0,0,0.2,0.2l1.2-0.2L12,8.6h0.2v0.2h0.2V8.6
			c0.1,0,0.3,0,0.3,0.2l0.9-0.2c0.2-0.5,0.5-0.1,1.2-0.3V8.2h0.8V8h0.3V7.9H16V8h0.2V7.9h0.8V8l0.5-0.2V8h0.2V7.7L19,8V7.7
			c0.3,0,0.5-0.2,0.6-0.2c0.2,0.1-0.2,0.2,0.2,0.3V7.7l0.5-0.2v0.2h0.5v0.2h0.2V7.7L22,7.6v0.3l1.4-0.2V7.6h0.3V7.4
			c0.5,0,1,0,1.5,0.2l0.2-0.3l0.3,0.2V7.3L26,7.1v0.3L27,7.3V7.1c0.5-0.1,1.3,0.2,1.5,0.2L28.7,7h0.6v0.2h0.2V7H30
			c0.2,0-0.1,0.2,0.2,0.2V7h0.3V6.8h1.1l0.2-0.3c0.3-0.1,0.6,0.1,0.8,0.2V6.4h0.5v0.3h0.3c0,0,0-0.6,0.2-0.3c0.2,0-0.1,0.1,0.2,0.2
			V6.2L34,6.4V6.2h0.5c0,0,0.4-0.1,0.2-0.2c-0.1-0.1-0.2-0.2-0.2-0.3l0.5-0.2c0-0.3,0-0.4-0.2-0.6h-0.3c0.1-0.2,0.1-0.4,0.2-0.6
			l-2-0.3l-0.2,0.3c-0.3,0.1-0.7-0.2-1.2,0v0.2h-0.5v0.2l-1.2-0.2l-0.2,0.3l-0.3-0.2c0,0,0,0.2-0.3,0.2c-0.1-0.1-0.2-0.2-0.3-0.2
			v0.2h-0.2V4.7h-0.2L28.1,5h-0.2V4.9H27v0.3c-0.8-0.1-1.5-0.1-2.3,0.2l-0.3-0.2c0,0-0.1,0.3-0.3,0.3V5.3h-1.2v0.2l-0.3-0.2v0.3
			h-0.2V5.2c-0.2,0.1-0.3,0.3-0.3,0.3h-0.3v0.2l-0.5-0.2v0.2c-0.7,0.2-1-0.6-1.5,0.2h-0.5V5.6h0.2V5.5h-0.2V5.3L19,5.5v0.2
			c-0.4,0.1-0.6-0.2-0.8-0.2v0.2l-1.4,0.2V5.5l-0.5,0.3V5.6l-1.4,0.5V5.9c-0.3,0-0.4,0.4-0.8,0.3V6.1L13,6.2l-0.2,0.3
			c-0.3,0.1-0.3-0.1-0.3-0.2l-0.3,0.2c-0.1-0.1-0.3-0.2-0.5-0.2v0.2h-0.3l-0.2,0.3h-0.5V7l-0.8,0.2V6.8C9.6,6.9,9.7,7.1,9.6,7.1H9
			v0.2L8.7,7.1H8.6v0.2H7.8v0.2H7v0.2H6.6v0.2C6.1,7.8,6.3,7.5,6.1,7.4L5.7,7.6v0.2L5.4,7.6v0.2c-0.1,0-0.6,0.1-0.5-0.2
			C5,7.4,5.1,7.6,5.1,7.4H4.5v0.2H4.3V7.4C4,7.4,4,7.6,4,7.6H2.8V7.4L2.5,7.6V7.3c0,0-0.6,0-0.3,0.2h0.2v0.2
			C1.9,7.6,1.5,7.7,1.1,7.9v0.3H0.8v1.5L1.3,10L1.1,10.2z"/>
		<path id="パス_291" class="st0" d="M30.7,4.5V4.4h-0.3C30.5,4.6,30.4,4.5,30.7,4.5z"/>
		<path id="パス_292" class="st0" d="M160.6,7.4c0.2,0.2-0.2,0.1-0.3,0.2c0.2,0.2,0,0.1,0.3,0.2v0.5l0.9,0.2V8.2h0.2v0.2h0.3v0.2
			c0.4,0.1,0.7,0,1.1-0.2V8.2l0.2,0.2h0.2c0.2,0-0.1-0.2,0.2-0.2v0.2c0.2,0,0.9-0.4,1.2-0.2v0.2h0.2l-0.2-0.5c0.5,0.1,1.1,0.1,1.7,0
			v0.3h0.5c0,0,0-0.6,0.2-0.3V8h0.2V7.7c0.2,0,0.4,0.1,0.6,0.2V8l0.8-0.2V8h0.2V7.9h1.1V7.7h0.2L169.7,8c0.5-0.1,0.4,0,0.6-0.3
			c0.4,0.2,0.2,0,0.2,0.5l0.2-0.2l0.5,0.2c0.2-0.2-0.2-0.3,0.5-0.5c0.2,0.2,0,0.1,0.3,0.2v0.3c0.2,0.2,0.1-0.3,0.2-0.3l0.3,0.2
			l0.2-0.3h0.2l0.2,0.5c0.4,0.2,0.9-0.1,1.1-0.2h0.8v0.2l1.4-0.2v0.3h0.5V8.2c0.1,0,0.6-0.1,0.5,0.2h-0.2v0.2l0.8-0.2V8.2
			c0.3,0,0,0.4,0.3,0.3V8.3h0.3V8.2l0.5,0.2V8.2h0.2v0.2h1.4v0.2h0.6v0.2h0.2c0.2,0-0.1-0.1,0.2-0.2c0.4,0,0.7,0,1.1,0.2V8.5h0.2
			v0.3h0.3v0.9h0.2l-0.2,0.5h0.3c-0.1,0.3-0.1,0.6,0,0.9h0.2l-0.2,0.3h0.2v0.5h0.2l-0.2,0.5c0,0,0.6,0,0.3,0.2c0,0.2-0.2,0-0.2,0.2
			h0.2v0.3h0.2c0,0.2-0.3,0.5-0.2,0.9h0.2v0.3h0.2l-0.2,0.3h0.2v0.3h0.2v1.1h0.2V16h0.2l-0.2,0.2c0,0.5,0.5,0.7,0.2,1.1v0.6l0.3-0.2
			l-0.2,0.8l0.3,0.2l-0.2,0.5h-0.2l0.2,0.5c0,0-0.2,0.1-0.2,0.3l0.3,0.2c0,0.2-0.1,0.3-0.2,0.6h0.3v0.3l-0.3,0.2
			c-0.1,0.2,0,0,0.2,0.2l-0.2,0.9h0.3l-0.2,0.5c0,0.1,0.3,0.1,0.3,0.3h-0.3c0.1,0.2,0.2,0.4,0.2,0.8c-0.1,0.1-0.2,0.3-0.2,0.5
			c0,0,0.2,0,0.2,0.3c-0.1,0-0.2,0.2-0.2,0.3h0.2V25h0.2v0.2h-0.2c-0.1,0.9-0.2,1.1,0.2,1.7l-0.3-0.2v0.2c-0.2,0.1,0,0-0.2,0.2h0.3
			v0.8c0,0-0.2,0-0.2,0.3h0.2l0.2,0.5h-0.2v0.8h-0.2v0.2h0.2v0.3h0.2c0.1,0.2,0.1,0.3,0.2,0.6h-0.3c0.1,0.2,0.3,0.3,0.3,0.3
			l-0.2,0.2v0.8h0.2c0.1,0.2,0,0.4-0.2,0.5c0,0.4,0.1,0.7,0.3,1.1l-0.3-0.2v0.3h0.3c-0.1,0.4-0.1,0.8,0,1.2h0.2
			c0.1,0.4-0.3,0.3-0.3,0.6c0.3,0.7,0.5,1.5,0.5,2.3h0.3l-0.2,0.5h-0.2v0.2h0.2v0.9h0.2V39h0.2l0.2,1.1h0.2v0.8l0.5,0.2
			c0.1,0.2-0.1,0.1-0.2,0.2l-0.2,0.3c0.1,0.2,0.2-0.1,0.2,0.2h-0.2V42h0.3l-0.3,0.6l0.3,0.2l-0.2,0.8h0.2V44l0.3,0.2l-0.2,0.2
			l0.2,0.6c0,0-0.6,0-0.3,0.2h0.2v0.5h0.3c-0.3,0.2,0.3,1.4,0.3,1.8l0.8-0.2c-0.1,0.3,0,0.1-0.2,0.3v0.2c0.6-0.2,0.3-0.4,1.1-0.5
			c0-0.3,0.2-0.5,0.5-0.6v-0.3l-0.5-0.2l0.2-1.4l-0.3-0.2l0.2-0.3h-0.2c0-0.2,0.3-0.3,0.2-0.6l-0.3-0.2v-0.3h-0.2
			c0-0.3,0.3-0.2,0.3-0.3c0-0.2-0.1,0.1-0.2-0.2v-0.9h-0.2c0.1-0.3,0.1-0.6,0.2-0.9l-0.3-0.2v-0.3h-0.2c-0.1-0.2,0.2-0.3,0.2-0.3
			c0-0.2-0.1,0.1-0.2-0.2v-0.6H188l0.2-0.3H188v-0.5l-0.3-0.2l0.2-0.8h-0.2c0-0.1,0.1-0.6-0.2-0.5v0.2h-0.2v-0.3l0.3-0.2
			c0-0.2-0.3-0.2-0.3-0.3l0.2-0.8h-0.3c0.1-0.4,0.1-0.8,0.2-1.2h-0.3c0.1-0.3,0.1-0.6,0.2-0.9h-0.2v-1.4H187v-0.2
			c0.1,0,0.2-0.2,0.2-0.3c-0.1-0.1-0.2-0.2-0.2-0.3h0.2v-0.3h-0.3c0-0.4,0.1-0.8,0.2-1.2h-0.2v-1.2h0.2v-0.2h-0.2l0.2-0.3h-0.2v-0.3
			h-0.2c0-0.2,0.3-0.4,0.2-0.8c0,0-0.3,0-0.3-0.3h0.2l0.2-0.8h-0.3c0.4,0,0.4-1.7,0.3-2.3l-0.2-0.2c0-0.2,0.1,0.1,0.2-0.2
			c0.1-0.8-0.4-0.3,0.2-1.1c-0.1-0.5-0.8-0.3-0.2-0.9c0,0,0-0.6-0.2-0.3v0.2h-0.2c0.3-1.1-0.2-2.9-0.3-4.4h0.3v-0.3l-0.5-0.2
			c0-0.4,0.1-0.7,0.2-1.1h-0.5c0.1-0.4,0-0.3,0.3-0.5l-0.2-0.5h-0.2l0.2-0.3h-0.2c-0.1-0.3,0.2-0.6,0.2-0.6h-0.3l-0.3-0.5h0.3
			l-0.2-0.6l-0.3-0.2l0.2-0.5H185l0.2-1.1l-0.5-0.2l0.2-0.5h-0.2v-0.6h-0.2V10h0.2V9.7h-0.5c0.2-0.2,0.3-0.1,0.3-0.2l-0.2-0.5h-0.2
			V8.9l1.2-0.2l0.2,0.3l0.9-0.2v0.2h0.5v0.2l0.3-0.2h0.2v0.2l0.3-0.2c0.2,0-0.1,0.1,0.2,0.2h1.1V8.9c0.3,0.3,0,0.2,0.2,0.5l0.3-0.2
			l-0.2,0.3h0.6V9.3c0.3,0,1,0.2,1.1,0.2c0.1,0,0.1-0.5,0.8-0.3v0.2l1.4,0.2c0.1-0.1,0.2-0.2,0.3-0.2v0.2h0.3V9.1
			c0.4,0.1,0.3,0,0.5,0.3h-0.2c0,0.3,0.1,0.1,0.3,0.2V9.3h1.2v0.2h0.2V9.3h0.5V9.1c0.2,0-0.1,0.1,0.2,0.2h1.1V9.1h0.2v0.2
			c0.3,0.1,0.4-0.2,0.6-0.2c0,0,0.2,0.3,0.3,0.3l0.2-0.5c0.4-0.1,0.4,0.3,0.5,0.3h1.4V9.1c0.4,0.1,0.9,0.2,1.4,0.2
			c1.4-0.1,2.7-0.1,4.1,0l-0.2-0.6l0.5-0.2V8l-0.5-0.2l-0.2-0.8h-0.9l-0.2-0.3c-0.5-0.1-0.3,0.5-0.9,0.3l-0.2-0.3L202.4,7v0.2
			L202.2,7c-0.2,0-0.2,0.1-0.6,0.2V6.8h-0.2c0,0.2-0.7,0.2-0.9,0.2V6.8L200.1,7l-1.7-0.2v0.3h-0.6V6.8c-0.2,0.1-0.5,0.3-0.8,0.3V7
			h-0.2v0.2L196.5,7l-0.3,0.2c0,0,0-0.2-0.3-0.2v0.2h-0.2l-0.2-0.3L194.7,7l-0.2,0.3h-0.2l0.2-0.3l-0.8,0.2v0.2L191,6.8v0.3L190.3,7
			c0,0-0.1,0.3-0.3,0.3L189.8,7H188V6.8L187.1,7V6.8h-0.8V6.7L186,6.8l-0.2-0.3c-0.4-0.1-0.4,0.3-0.5,0.3c-0.6,0.2-0.6-0.4-0.8-0.5
			c-0.4-0.1-0.4,0.3-0.5,0.3c-0.4,0.1-0.3-0.3-0.5-0.3h-0.6V6.1H183v0.2l-0.8-0.2v0.3c-0.3-0.2,0-0.2-0.2-0.3
			c-0.1-0.1-0.3,0.4-0.6,0.3V6.2l-1.8-0.2l-0.2,0.3h-0.3V6.1c-0.2,0-0.4,0.1-0.6,0.2c0-0.1-0.2-0.2-0.3-0.2v0.2l-0.9-0.2
			c-0.1,0-0.1,0.3-0.3,0.3V6.2h-0.3c0,0,0-0.6-0.2-0.3v0.2h-0.2V5.8c-1.3,0.2-2-0.2-3,0.3V5.8c-0.2,0-0.4-0.1-0.6-0.2v0.2l-0.6,0.2
			V5.5h-0.2v0.3l-0.8-0.2v0.2h-0.2V5.6h-0.2v0.2l-0.8-0.2v0.2h-0.5v0.2c-0.5,0.1-0.3-0.3-0.5-0.3l-1.1,0.2L168,5.6v0.2
			c-0.1,0-0.6,0.1-0.5-0.2h0.2V5.5c-0.2,0-0.4,0.1-0.6,0.2v0.2L167,5.6h-0.6v0.3c-0.2-0.1-0.5-0.2-0.8-0.2c-0.6,0.1-1.2,0.1-1.8,0
			v0.3l-1.2,0.2v0.2l-0.3-0.2c0,0,0,0.2-0.3,0.2V6.2h-0.2v0.2c-0.3,0.2-0.7,0.4-1.1,0.3c-0.1,0.4-0.2,0.3-0.3,0.6h-0.2
			C160.1,7.5,160.6,7.4,160.6,7.4z"/>
		<path id="パス_293" class="st0" d="M170.2,5.6V5.5h-0.3C170,5.6,169.9,5.5,170.2,5.6z"/>
		<path id="パス_294" class="st0" d="M137,8.6l0.3,0.2v0.2h-0.2c0,0.6,0.5,0.8,0.3,1.1c0,0.3,0.2,0.3,0.2,0.3v0.8l0.5,0.2
			c0.1,0.2-0.1,0.1-0.2,0.2l0.2,0.5h0.2c0.1,0.4-0.1,0.6-0.2,0.8c0.1,0.1,0.4,0.2,0.5,0.5h-0.2l0.2,0.3h-0.2c0,0.1-0.1,0.6,0.2,0.5
			v-0.2h0.2c-0.1,0.3-0.1,0.7,0,1.1l0.3,0.2l-0.2,0.5l0.3,0.2v1.2h0.2c0.2,0.4,0.1,0.3,0,0.6h0.3v1.4l0.3,0.2l-0.2,0.5h0.2v0.9h0.2
			v0.8h0.2l-0.2,0.3h0.3v0.2h-0.2c-0.1,0.8,0.5,0.8,0,1.2v0.3l0.5-0.2v0.8c0,0.2-0.1-0.1-0.2,0.2c0.1,0.1,0.2,0,0.2,0.3h-0.2v0.2
			h0.2v0.8h-0.2c0,0.2,0.3,0.2,0.3,0.3v0.2h-0.2v0.2h0.2c0,0.3-0.2,0.5-0.3,0.6l0.5,0.2c-0.2,0.3-0.2,0.6-0.2,0.9h0.2l-0.2,0.5h0.2
			l-0.2,0.5c0,0.3,0.2,0.3,0.2,0.3c0.1,0.4-0.1,0.3-0.2,0.5l0.2,0.5h-0.2v0.2h0.2V30h0.2c0.1,0.4-0.3,0.5-0.3,0.8l0.3,0.2V31h-0.2
			v0.2h0.2l-0.2,0.9c0.3,0.1,0.1,0,0.3,0.2h0.2l-0.3,0.6h0.2v0.3h0.1v0.9h0.2l0.2,1.8h0.3c0,0-0.3,0.4-0.2,0.6l0.3,0.2v0.6h0.2v0.5
			h0.2l0.2,0.5l0.3,0.2V38h0.3v0.3h0.3v-0.2c0.1,0,0.2,0,0.3,0.2c0.3,0,0.6-0.3,0.8-0.5h0.2l-0.2-0.3h0.2v-0.2h-0.2v-0.2h0.2v-0.6
			h-0.2l-0.3-0.9c0,0,0.3-0.1,0.2-0.3l-0.5-0.3v-0.5h-0.2v-0.3h-0.2v-0.2h0.2v-0.2h-0.2v-1.2l-0.3-0.2c0.1-0.3,0.2-0.7,0.2-1.1h-0.2
			v-0.1h0.2v-0.2h-0.3c0.1-0.6,0.1-1.2,0-1.8H143l0.2-0.3H143v-1.5c0,0,0.2,0,0.2-0.3c0-0.2-0.1,0.1-0.2-0.2v-0.9
			c-0.3-0.1-0.1,0-0.3-0.2h0.3l-0.2-0.9c0,0,0.2-0.1,0.2-0.3h-0.2v-0.5h-0.2l0.2-0.9h-0.2c-0.1-0.6-0.1-1.2,0-1.8h-0.3v-0.3
			c0.1-0.1,0.2,0,0.2-0.3l-0.3-0.2c-0.1-0.3,0.2-0.4,0.2-0.6c-0.1-0.1-0.2-0.3-0.2-0.5h0.2v-0.2h-0.3v-0.2h0.2v-0.3H142
			c-0.1-0.7-0.1-1.3-0.2-2h-0.2v-0.6h-0.2l0.2-0.6h-0.3c0-0.5,0.2-0.5,0-0.8h-0.3c0.5-0.5,0-0.8,0-1.7h-0.3v-0.6h-0.2V13h0.2v-0.3
			h-0.3l-0.2-0.6h0.3v-0.3h-0.5v-1.1l-0.3-0.2l0.2-0.8h-0.2l-0.2-0.8h-0.3c-0.1-0.3-0.1-0.6,0-0.9h-0.3V8.1h0.2l-0.2-1.2H139
			l-0.2-0.9h0.2V5.8l-1.2-0.2v0.3c-0.7,0.2-0.2,0.4-0.8,0.8c-0.1,0.6-0.1,1.1,0.2,1.7L137,8.6z"/>
		<path id="パス_295" class="st0" d="M165.6,8.2V8h-0.3C165.5,8.2,165.3,8.1,165.6,8.2z"/>
		<path id="パス_296" class="st0" d="M198.8,9.2h-0.3c0.2,0.2,0,0.1,0.3,0.2V9.2z"/>
		<path id="パス_297" class="st0" d="M125.5,44.1l0.3-0.2l-0.2-0.5h0.2v-0.3h0.2v-0.3l0.3-0.2c0.1-0.3-0.2-0.5-0.2-0.6l0.3-0.2
			l0.2-0.5h0.2l-0.2-0.5h0.2v-0.6h0.2v-0.9h0.2l-0.2-0.5l0.3-0.2l-0.2-0.6h0.2V38h0.2l-0.2-0.9h0.2v-0.3h0.2
			c0.1-0.2-0.3-0.6-0.2-1.1h0.2c0-0.2-0.1,0.1-0.2-0.2c0.1-0.6,0.1-1.1,0.2-1.7h0.2l0.2-0.5h-0.3l-0.2-0.5h0.2v-0.8h0.2l-0.2-0.5
			h0.2v-0.6h-0.2c-0.1-0.3,0.2-0.7,0.2-0.8l-0.3-0.2l0.2-0.2v-1.4h-0.3l0.2-1.1h-0.5c0.2-0.5,0.2-1.1,0-1.7h-0.2v-0.6h-0.2v-1.2
			l-0.3,0.2l-0.2-0.5h0.2v-0.2l-0.3-0.2l0.2-0.5h-0.3c0-0.2,0.1-0.4,0.2-0.6h-0.3c0-0.3,0-0.4-0.2-0.6h-0.2l0.2-0.3l-0.5-0.2v-0.8
			h-0.2l-0.2-0.6h-0.2l0.2-0.5l-0.5-0.2c0.3-0.6-0.4-0.3-0.2-0.8h0.2v-0.2h-0.5l-0.2-0.8h-0.2v-0.6h-0.2c-0.1,0.2,0.1,0.1-0.2,0.2
			v-0.3h-0.2c-0.2-0.4,0.1-0.3-0.5-0.5l-0.2-0.5c0.4-0.1-0.5-0.3-0.6-0.5v-0.3l-0.3-0.2V15l-0.5-0.2c-0.2-0.3-0.3-0.7-0.5-1.1h-0.3
			v-0.3c-0.3-0.1-0.1,0-0.3-0.2h-0.2v-0.5h-0.6l-0.2-0.5c-0.4-0.1-0.3-0.2-0.8,0v0.2l-0.3-0.2v0.2c-0.2,0.1-0.4,0.3-0.5,0.5h0.2v0.2
			l-0.3,0.2l0.2,0.9h0.3l0.3,0.5l0.5,0.2l-0.2,0.3l0.5,0.2l-0.2,0.3h0.2v0.2h0.5c-0.1,0.3,0,0.1-0.2,0.3v0.2
			c0.2,0.2,0.5-0.1,0.6,0.2c0.2,0.3-0.2,0.3,0.3,0.6v0.3h0.5c0.1,0.3,0.2,0.5,0.5,0.8h0.2v0.3h0.2l0.2,0.8h0.3v0.8
			c0.4,0.1,0.3,0.2,0.6,0.3c-0.1,0.3-0.1,0.7,0,1.1l0.6,0.2c-0.1,0.2-0.1,0.4-0.2,0.6c0.3,0.1,0.1,0,0.3,0.2h0.2
			c-0.1,0.2-0.1,0.2-0.3,0.3c0.2,0.2,0,0.1,0.3,0.2v0.8h0.3v0.5h0.3c-0.1,0.2-0.1,0.5,0,0.8h0.2V25l0.3,0.2v0.2h-0.1l0.3,0.9
			l-0.2,0.5h0.2V27h0.2l-0.2,0.5l0.5,0.3l-0.2,0.6h0.2v0.5h-0.3c0.2,0.1,0.1,0.4,0.2,0.6h0.2v0.3l0.3,0.2l-0.2,0.9
			c0,0,0.2,0.1,0.2,0.5h-0.2c0,0.4,0.4,0.3,0.3,0.6h-0.2v0.5h-0.2c0,0.2,0.1,0.3,0.2,0.3v0.6h-0.2c-0.1,0.5,0.4,0.3,0.3,0.8
			l-0.3,0.2c-0.1,0.6-0.1,1.1-0.2,1.7h0.2v0.2l-0.3,0.2c0,0.3,0.4,0.5,0.3,0.9H125v0.3h-0.2v1.5h-0.2l-0.2,1.5h-0.2v0.3h-0.1
			l0.2,0.3h-0.3c0.1,0.4,0.2,0.4,0,0.8l-0.3,0.2c-0.2,0.3,0.2,0.6,0.2,0.8h-0.2v0.3c-0.1,0.1-0.3,0.1-0.3,0.3h0.2v0.2h-0.3l-0.2,0.5
			l0.2,0.2h-0.3l-0.2,0.9l-0.3-0.2v0.3c-0.3,0.3-0.5,0.7-0.6,1.1h-0.5v0.3l-0.5,0.2l-0.9,1.2h0.2v0.2l-0.3-0.2
			c-0.5,0.8-1.4,0.8-1.7,1.8c-0.6,0.2-0.2,0.2-0.5,0.5l-0.3-0.2v0.2l-0.6,0.5v0.3c-0.2-0.1-0.5-0.2-0.8-0.2V51h-0.6v0.3
			c-0.2,0-0.4,0-0.6,0.2v0.2l-0.3-0.2v0.2l-1.5,0.3v-0.2h-0.2V52h-0.5v0.2c-0.3,0.1-0.3-0.1-0.3-0.2c-0.6-0.2-0.9-0.1-1.2-0.5
			c-0.4-0.1-0.3,0-0.5-0.5c-0.5-0.1-0.8-0.2-0.9-0.8h-0.3c0-0.4-0.2-0.8-0.5-1.1l-0.3,0.2v-0.3l-0.5-0.3v-0.5
			c-0.4-0.1-0.3,0-0.5-0.5c-0.4-0.1-0.3,0-0.5-0.5H107c0-0.3,0-0.4-0.2-0.6h-0.3l0.2-0.5h-0.3c-0.2-0.1,0.2-0.2,0.2-0.2l-0.2-0.5
			c-0.3-0.1-0.1,0-0.3-0.2H106l0.2-0.5h-0.3l0.2-0.5h-0.2l-0.2-0.9l-0.3-0.2l0.2-0.3l-0.3-0.2l0.2-0.5c-0.4-0.1,0-0.1-0.5,0v-0.3
			h0.3v-0.2l-0.3-0.2v-0.6l-0.3-0.2l0.2-0.9h-0.5v-0.2h-0.2l0.2-0.5c-0.1-0.1-0.4,0-0.3-0.5h0.2v-0.6l-0.5-0.3l0.2-0.6h-0.2v-0.8
			h-0.3V37h0.2v-0.2h-0.2c-0.1-0.3,0.1-0.4,0.2-0.6h-0.3v-0.5h-0.3l0.3-0.6h-0.3v-0.8c0-0.1,0.2,0,0.2-0.3c0,0-0.2,0-0.2-0.3h0.2
			v-0.2h-0.2v-0.5h-0.2c-0.1-0.2-0.2-0.4-0.2-0.6h0.3v-0.2l-0.3-0.2v-0.5h-0.2c0-0.1-0.1-0.6,0.2-0.5c0.2,0.1-0.1,0.2,0.2,0.2
			l-0.5-1.4h0.3V30c-0.1-0.6-0.6-0.1-0.3-1.1H102l0.2-1.2c-0.3-0.1-0.1,0-0.3-0.2h-0.2v-0.5h0.3v-0.3h-0.6c0.1-0.1,0.2-0.2,0.3-0.3
			v-0.2h-0.2l0.2-0.9l-0.6-0.2c0.1-0.3,0-0.1,0.2-0.3c0-0.3,0-0.5-0.2-0.8H101l0.2-0.3h-0.3c0.1-0.9,0-1.3,0.2-2.4h-0.3
			c-0.2-0.4,0-0.2-0.5-0.2c-0.1-0.3,0-0.1-0.2-0.3v-0.2c-0.3-0.1-0.2,0.1-0.3,0.2h-0.5l0.2,0.3h-0.3L99,21.7h-0.2v0.5h-0.2v0.3h-0.2
			c0,0.1,0,0.3,0.2,0.3c0.1,0.5-0.2,0.1,0,0.8h-0.3v0.3c0.4,0.1,0.5,0.2,0.6,0.6h-0.3l0.2,0.8l0.3-0.2v0.5c0.1,0.2,0.2-0.1,0.2,0.2
			c-0.1,0-0.2,0.2-0.2,0.3c0,0,0,0,0,0h0.2v0.5h0.2c0,0.1,0,0.3-0.2,0.3l0.2,0.8h0.2l-0.2,0.3h0.2l0.2,0.9h0.3v0.3h-0.3
			c-0.2,0.1,0.2,0.2,0.2,0.2v0.6h0.3c-0.2,0.3-0.2,0.6,0,0.9h0.2v0.6h0.2c0,0.2-0.1-0.1-0.2,0.2c0,0.3,0.2,0.3,0.2,0.3
			c0.2,0.8-0.5,1.4,0.3,2v0.2h-0.3c0,0.6,0,0.6,0.5,0.8l-0.2,0.8h0.2v0.2c-0.1,0-0.2,0.2-0.2,0.3c0,0,0,0,0,0h0.2V36h0.2l-0.2,0.3
			h0.2v1.1l0.5,0.3v0.5h-0.2v0.2h0.2l-0.2,0.5h0.3v0.6h0.3v0.2c-0.2,0-0.2,0.4-0.2,0.6h0.2v0.3h0.2v0.8c0,0,0.1,0,0.2,0.3h0.3
			c-0.2,0.5,0,0.8,0.2,1.4h0.3v0.8c0,0.2,0.2-0.1,0.2,0.2h-0.1v0.5c0.3,0.1,0.1,0,0.3,0.2h0.2l-0.2,0.3h0.2v0.2h-0.2
			c0,0.1-0.1,0.6,0.2,0.5c0.2-0.1-0.1-0.2,0.2-0.2v0.8h0.3c0,0.4-0.2,0.6,0.2,0.9h0.3l-0.2,0.5l0.3,0.2v0.5l0.9,0.8v0.3l0.3,0.2v0.3
			h0.2v0.3l0.3-0.2c0.2,0.2,0.1,0.3,0.2,0.6h0.3c0.2,0.6,0.1,0.2,0.5,0.5l-0.2,0.3c0.4,0.4,0.6,0.1,0.8,0.8h0.3V52h0.2
			c0.3,0.3,0.3,0.1,0.5,0.6l0.6,0.2v0.3h0.5l0.2,0.5l0.3,0.2c0.2-0.1-0.1-0.2,0.2-0.2v0.2l0.6,0.2V54h0.2v-0.2l0.6,0.2
			c0.1,0.3,0,0.1,0.2,0.3V54h1.2v0.2l1.5-0.3v-0.2l0.5,0.2v-0.2h0.3v-0.2l1.1-0.2c0.1-0.1,0-0.2,0.5-0.3v-0.3c0.3,0,0.4,0,0.6-0.2
			v-0.2h0.3v-0.2h0.5l0.2-0.3c0.3-0.4,0.8-0.6,1.2-0.8V51h0.2c0.3-0.3,0.3-0.1,0.5-0.6c0.7-0.2,0.7-0.6,1.4-0.8
			c-0.1-0.3,0-0.1-0.2-0.3v-0.2L122,49c0.1-0.4,0-0.3,0.5-0.5c0.1-0.4,0.3-0.4,0.5-0.8h0.5c-0.1-0.3,0-0.1-0.2-0.3v-0.2h0.5l0.5-0.8
			h0.3v-0.5h0.2l-0.2-0.3l0.6-0.5v-0.3h0.2l-0.2-0.3l0.3-0.2L125.5,44.1z"/>
		<path id="パス_298" class="st0" d="M52.6,24.5h0.2v-0.2h-0.3c0.1,0.3,0,0.1,0.2,0.3V24.5z"/>
		<path id="パス_299" class="st0" d="M60.4,28.6h0.2c-0.1-0.3,0-0.1-0.2-0.3V28.6z"/>
		<path id="パス_300" class="st0" d="M221.7,48.9c-0.2-0.2,0-0.1-0.3-0.2C221.5,49,221.4,48.8,221.7,48.9z"/>
	</g>
	<path id="パス_675" class="st1" d="M262.3,246.9v0.8h-4.1c-0.6,0-1.1,0-1.7-0.1v1.7c0.6-0.1,1.1-0.1,1.7-0.1h3
		c-0.6,0.7-1.3,1.3-2,1.8c-0.9,0.6-1.9,1-2.9,1.3c0.4,0.5,0.7,1,0.9,1.5c1-0.4,2-0.9,2.9-1.5c0.9-0.6,1.7-1.3,2.4-2.1
		c0,0.5,0,0.5,0,1v1.3c0,0.5,0,1.1-0.1,1.6h1.8c-0.1-0.5-0.1-1.1-0.1-1.6v-1.3c0-0.2,0-0.4,0-0.6c0-0.3,0-0.3,0-0.5
		c1.5,1.7,3.4,3,5.5,3.7c0.2-0.6,0.5-1.1,0.9-1.6c-1.1-0.3-2.2-0.7-3.2-1.3c-0.8-0.4-1.5-1-2.1-1.6h3.3c0.6,0,1.1,0,1.7,0.1v-1.7
		c-0.6,0.1-1.1,0.1-1.7,0.1h-4.3v-0.8h2.9c0.6,0,1.2,0,1.8,0.1c-0.1-0.6-0.1-1.1-0.1-1.7v-2.8c0-0.6,0-1.1,0.1-1.7
		c-0.6,0.1-1.2,0.1-1.8,0.1h-7.1c-0.6,0-1.2,0-1.8-0.1c0.1,0.5,0.1,1.1,0.1,1.6v2.9c0,0.6,0,1.1-0.1,1.7c0.6-0.1,1.2-0.1,1.8-0.1
		H262.3z M262.3,242.3v1h-2.7v-1H262.3z M263.9,242.3h3v1h-3V242.3z M262.3,244.6v1h-2.7v-1H262.3z M263.9,244.6h3v1h-3V244.6z
		 M280.7,241.2c0,0,0,0.1,0.1,0.1l0.2,0.4l0.3,0.6c0,0.1,0.4,1.1,0.5,1.2c-1.3,0.2-2.7,0.3-4,0.3c-0.5,0-1,0-1.5-0.1l0.1,1.8
		c0.2,0,0.4,0,0.7,0c1.8,0,3.6-0.1,5.3-0.4c0.4,1,1,1.9,1.6,2.7c-0.8-0.3-1.7-0.5-2.6-0.4c-1.4-0.1-2.7,0.3-3.8,1.1
		c-0.7,0.5-1.1,1.4-1.1,2.2c0,0.8,0.3,1.5,0.9,2c1.2,0.9,2.6,1.3,4.1,1.1c1.1,0,2.1-0.1,3.1-0.3c0.2,0,1.4-0.4,1.7-0.5l-0.2-1.9
		c-1.4,0.7-3,1-4.5,1c-2,0-3.2-0.5-3.2-1.5c0-1.1,1.2-1.7,3.2-1.7c0.8,0,1.6,0.1,2.4,0.3c0.4,0.1,0.7,0.4,1,0.6l1.7-0.8
		c-0.8-1.1-1.6-2.3-2.2-3.5l-0.2-0.3c0,0-0.1-0.2-0.2-0.4c0.9-0.2,1.6-0.3,2-0.4c0.2,0,0.4-0.1,0.4-0.1c0.1,0,0.2,0,0.3-0.1l0.3,0
		l-0.2-1.1l0.6-0.3c-0.4-0.8-0.9-1.5-1.6-2.2l-1,0.5c0.5,0.5,0.9,1,1.2,1.6c-0.9,0.3-1.8,0.5-2.7,0.6c-0.4-0.8-0.6-1.6-0.8-2.4
		L280.7,241.2z M289.4,242c-0.4-0.8-0.9-1.5-1.6-2.1l-1,0.5c0.6,0.7,1.1,1.4,1.5,2.2L289.4,242z M296.6,240.6c0,0.2,0,0.3,0,0.5
		l-0.2,1.9c-0.1,1-0.2,2.7-0.2,3.9c0,0.3,0,1.4,0,1.8v0.3c0,0.1,0,0.1,0,0.2l1.8,0v-0.3c0-1.8,0.7-3.5,1.9-4.8
		c0.4-0.5,1-0.8,1.6-0.8c1.3,0,2,1.2,2,3.4c0,2.3-0.8,3.7-2.5,4.6c-1,0.5-2.1,0.8-3.3,0.9c0.4,0.5,0.7,1.1,0.9,1.8
		c1-0.2,2-0.4,2.9-0.8c2.5-1,4-3.5,3.9-6.2c0.1-1.4-0.3-2.8-1.1-4c-0.6-0.8-1.5-1.3-2.6-1.4c-1.1,0-2.2,0.6-2.9,1.5
		c-0.4,0.5-0.7,1.1-0.9,1.8c0,0.1-0.1,0.2-0.1,0.3h0c0-0.4,0.1-0.9,0.2-1.5c0.1-1,0.3-2,0.5-2.9L296.6,240.6z M317.7,253.6
		c-0.1-0.6-0.1-1.1-0.1-1.7v-4c0-0.3,0-0.7-0.1-1c0.2,0.1,0.3,0.2,0.5,0.3c1.8,0.8,3.6,1.8,5.3,2.9l1-1.8c-2.2-1.2-4.5-2.3-6.8-3.2
		v-2.8c0-0.5,0-1.1,0.1-1.6h-2.1c0.1,0.5,0.1,1,0.1,1.5v9.6c0,0.6,0,1.1-0.1,1.7L317.7,253.6z M320.8,242.1c0.6,0.7,1.2,1.4,1.6,2.2
		l1.1-0.6c-0.4-0.8-1-1.5-1.6-2.2L320.8,242.1z M325.2,242.8c-0.4-0.8-0.9-1.5-1.6-2.1l-1,0.5c0.6,0.7,1.1,1.4,1.5,2.2L325.2,242.8z
		 M331.8,248.2c0.8-0.1,1.6-0.1,2.4-0.1h8c0.8,0,1.6,0,2.4,0.1v-2.1c-0.8,0.1-1.6,0.1-2.4,0.1h-8c-0.8,0-1.6,0-2.4-0.1V248.2z
		 M358.3,244.4c0-0.2,0-0.2,0-1.2l0-0.9c0-0.5,0-1,0.1-1.4h-2.1c0.1,0.5,0.1,1,0.1,1.4v0.9c0,0.3,0,0.5,0,1.2h-3.8
		c-0.7,0-1.3,0-2-0.1v1.9c0.6-0.1,1.3-0.1,1.9-0.1h3.7c0,1-0.3,2.1-0.7,3c-0.8,1.4-2.1,2.4-3.6,3c0.6,0.4,1,1,1.4,1.6
		c1.6-0.7,2.9-1.9,3.8-3.4c0.7-1.3,1.1-2.7,1.1-4.2h3.1c0.6,0,1.3,0,1.9,0.1v-1.9c-0.6,0.1-1.3,0.1-2,0.1L358.3,244.4z M379.6,240.7
		c-0.6,0.3-1.2,0.5-1.8,0.7c-2.1,0.6-4.3,0.8-6.4,0.9c-0.2,0-0.5,0-0.9,0c0.3,0.5,0.4,1.1,0.6,1.6c1.4,0,2.8-0.1,4.2-0.3
		c0,1.1,0,1.6,0,2.3h-3.8c-0.6,0-1.2,0-1.8-0.1v1.8c0.6-0.1,1.2-0.1,1.8-0.1h3.7c0,0.3-0.1,0.7-0.2,1c-0.3,1-0.9,1.9-1.7,2.6
		c-0.7,0.6-1.5,1-2.3,1.3c0.5,0.4,1,1,1.3,1.6c0.5-0.2,1-0.5,1.4-0.8c1-0.6,1.8-1.4,2.4-2.4c0.6-1,0.9-2.1,1-3.3h3.3
		c0.6,0,1.2,0,1.8,0.1v-1.8c-0.6,0.1-1.2,0.1-1.8,0.1H377c0-0.5,0-0.5,0-2.5c0.8-0.1,1.7-0.4,2.5-0.6c1.1-0.4,1.1-0.4,1.3-0.4
		L379.6,240.7z M396.8,251.6c0.3-1.3,0.4-2.4,0.6-4.1c0-0.6,0.1-1.2,0.3-1.7l-0.8-0.7c-0.4,0.1-0.7,0.2-1.1,0.1H392
		c-0.5,0-0.9,0-1.4-0.1v1.7c0.4-0.1,0.9-0.1,1.3-0.1h3.7c-0.1,1.4-0.5,3.5-0.7,4.8h-4.4c-0.5,0-0.9,0-1.4-0.1v1.7
		c0.5,0,0.9-0.1,1.4-0.1h7.8c0.5,0,0.9,0,1.4,0.1v-1.7c-0.5,0.1-0.9,0.1-1.4,0.1H396.8z"/>
</g>
</svg>
