<?xml version="1.0" encoding="utf-8"?>
<!-- Generator: Adobe Illustrator 24.2.0, SVG Export Plug-In . SVG Version: 6.00 Build 0)  -->
<svg version="1.1" id="レイヤー_1" xmlns="http://www.w3.org/2000/svg" xmlns:xlink="http://www.w3.org/1999/xlink" x="0px"
	 y="0px" viewBox="0 0 196 96" style="enable-background:new 0 0 196 96;" xml:space="preserve">
<style type="text/css">
	.st0{fill:#FFFFFF;stroke:#FFFFFF;stroke-width:2;}
	.st1{fill:#FFFFFF;}
</style>
<g id="グループ_751" transform="translate(-586.276 -2764.793)">
	<g id="グループ_288" transform="translate(588.326 2766.203)">
		<path id="パス_342" class="st0" d="M75,29l-1.3-0.2v-0.2c-0.3,0-0.4,0.4-0.8,0.2v-0.2h-0.4v-0.2l-2.1-0.2V28H70v-0.2L69.2,28
			v-0.2h-0.8l-0.2-0.4c-0.5-0.2-0.8,0.3-1,0.2v-0.2l-2.3-0.2v-0.4c-0.8,0.1-0.7-0.1-1,0.6h-0.2l0.2-0.6l-0.6-0.2V27
			c-0.7-0.2-1.4-0.3-2.1-0.2v-0.4c-0.5,0.1-0.4,0.1-0.6,0.4c-0.1,0-0.6,0.1-0.4-0.2h0.2v-0.2h-1.3v0.2l-0.6-0.2v0.4h-0.2v-0.4
			l-1,0.2c0-0.2-0.2-0.3-0.4-0.2c0,0,0,0,0,0c-0.1,0-0.2,0.7-0.8,0.4l-0.2-0.6c-0.3,0.2-0.4,0.1-0.8,0.2v0.2h-0.2v-0.2L52,26.5v-0.2
			h-0.4v-0.2C51,26,51.1,26.5,51,26.5h-1.3l-0.2-0.4c-0.4,0.1-0.3,0.6-0.8,0.4v-0.2l-0.8-0.2v-0.2c-0.8-0.2-0.6,0.5-1.3,0.4v-0.2
			l-1.5,0.2v-0.2h-0.4v-0.2l-0.8,0.2v-0.2h-2.1v-0.2h-0.6v-0.2l-1.7-0.2v-0.2c-0.5-0.2-0.8,0.2-1,0.2v-0.2h-0.2v0.2
			c-0.5,0.1-0.5-0.2-0.8-0.2l-0.6,0.2l-0.2-0.4c-0.6-0.2-0.7,0.2-0.8,0.4h-0.2l0.2-0.4c-1.3-0.1-1.2-0.3-2.5-0.4
			c0.2,0.2,0.3,0.2,0.4,0.4l-0.8-0.2v-0.2l-2.1,0.4c0,0,0-0.8-0.2-0.4v0.2h-0.6c-0.1,0.4,0,0.2-0.2,0.4v1c0.2-0.1,0.3-0.2,0.4-0.4
			h0.2L30,26.1h0.2v0.2l1.3,0.2v0.6h1.3c0.1,0,0,0.3,0.4,0.2c0.3,0-0.1-0.3,0.2-0.2v0.2h0.4v0.2h0.6v0.2h0.2v-0.2h1v0.2l0.2-0.2h0.2
			v0.2c0.7,0.2,1.4,0.2,2.1,0L38,28.4h0.2v0.2c0.3,0,0.6-0.1,0.8-0.2v-0.2l0.2,0.2h0.6v0.2c1,0.3,1.7-0.1,2.1,0.2
			c0.1,0,0.9-0.1,0.6,0.2c-0.2,0.2-0.2-0.1-0.2,0.2l1.3-0.2v-0.2c0,0,0.8,0,0.4,0.2h-0.2v0.2h1.7V29h0.2v0.2c0.2,0,0.3-0.1,0.4-0.2
			c0.3,0-0.1,0.2,0.2,0.2c0.2,0,0.3,0,0.4-0.2c0.3,0.1,0.6,0.2,0.8,0.2v0.4l1.3-0.4v0.2l0.4-0.2v0.2l1.9-0.2v0.4h0.2v-0.2
			c0.3,0,0.6,0.1,0.8,0.2l0.2-0.4h1.5v0.2l0.8-0.2l0.2,0.4l0.8-0.2l-0.2,0.6c0.2,0.3,0.2-0.2,0.4,0.2h-0.2v0.2l0.4,0.2L56,31.3h-0.2
			c0,0.1,0.4,0.8,0.2,1.3l-0.4,0.2v0.4H56l-0.2,0.8h-0.2l0.2,0.4h-0.2v0.4h-0.2v1c0,0.1-0.3,0.1-0.4,0.4c0.2,0.3,0.3-0.2,0.4,0.2
			L54.7,37v0.6h-0.2v0.2c0.1,0.1,0.4,0,0.2,0.4l-0.4,0.2l0.2,0.6c0,0.1-0.3,0-0.4,0.6h0.2v0.2l-0.8,0.4l0.2,0.4h-0.2v0.6h-0.2
			l-0.2,0.8h-0.2l0.2,0.4l-0.6,0.2c0.2,0.2,0.3,0.2,0.4,0.4h-0.4c-0.2,0.8-0.5,0.8-0.6,1.7h-0.4v0.6H51c0.1,0.6-0.2,1.2-0.6,1.7
			h-0.4l0.2,0.4l-1,0.8l0.2,0.4h-0.4l-1,1.3l0.2,0.4h-0.2l-0.4,0.6H47v0.4h-0.6v0.6c-0.3,0.2-0.7,0.3-1,0.4v0.8h-0.2
			c-0.4,0.4-0.4,0.1-0.6,0.8h-0.4V55c0,0-1.3,0.2-0.6,0.2h0.2v0.2l-0.4-0.2v0.6h-0.4v0.4h-0.4v0.4h-0.2v-0.2l-0.6,0.2l-0.2,0.4h-0.8
			v0.2h-0.4v0.2l-0.4-0.2v0.4l-0.4-0.2v0.4h-0.8v0.2c-0.2,0-0.3,0-0.4-0.2c-0.5,0-0.4,0.2-0.4,0.2c-0.8,0.2-1-0.1-1.5,0.4
			c0,0-0.8,0-0.4-0.2h0.2v-0.2l-1.3,0.4v0.2h-0.8V59c-0.2,0-0.4,0-0.4-0.2C33,58.7,33,59,33,59c-0.2,0.1-0.5,0-0.6-0.2h-0.2V59
			c-0.4,0.1-0.9,0-1.3-0.2v0.4l-1-0.2v-0.2c-0.5-0.2-1,0.2-1.3,0.2v-0.2h-1.5l0.2-0.4c-0.8,0.1-1.5,0.1-2.3,0v-0.4h-0.2v0.2
			c-0.7,0-0.7-0.4-1,0h-0.2v-0.4c-0.4-0.4-0.9-0.1-1.5,0v-0.4c-0.2,0.4-1.5-0.2-1.9-0.4v-0.2h-1v-0.4h-0.8l-0.2-0.4h-0.6v-0.2
			c-0.3-0.2-0.7-0.2-1-0.2V55H16v-0.4h-0.8v-0.4l-1.3-0.2l-0.2-0.6l-1.3-0.2v-0.4H12v-0.4l-0.8-0.2v-0.4l-0.6,0.2v-0.2h0.2
			c-0.3-0.3-0.5-0.4-1-0.4c-0.2-0.6-0.3-0.5-0.4-1.3H8.9c-0.2-0.6,0-0.2-0.6-0.2c-0.1-0.7-0.2-0.6,0-1.3H7.8c0,0,0-0.8-0.2-0.4v0.2
			H7.4c0-0.4,0-0.7-0.2-1H7v-0.8l-0.4-0.2l0.2-0.4H6.6v-0.8l-0.4,0.2v-1H5.8l-0.2-0.6H6l-0.2-0.6H5.5v-0.4H5.3l0.2-0.6l-0.4-0.2V41
			H4.9l0.2-0.8c0-0.1-0.5-0.1-0.4-0.4h0.2c0-0.3-0.3-0.3-0.2-0.8h0.2l0.2-1.7H4.7l0.2-1.5h0.2v-0.2H4.9v-0.8H4.5v-0.4h0.4l-0.2-0.6
			h0.2v-0.4H4.5l0.2-0.4c0.1,0,0.4,0,0.2-0.2H4.5v-0.2l0.6-0.2v-0.4H4.5l0.2-1.7c0.4-0.1,0.2,0,0.4-0.2H4.7l0.2-2.1h0.2v-0.2H4.9
			l0.2-0.4H4.9V27c0.2-0.5,0.5-1,0.8-1.5H5.3l0.4-1.3H6V23h0.2l0.4-0.8H6.4c0.1-0.3,0.7-0.5,0.4-1H6.6v-0.2h0.6l0.2-1.7h0.4
			c-0.4-0.4,0.1-0.4,0.2-1c1.2-0.3,0.4-0.4,0.8-1l0.6-0.4v-0.4h0.2l-0.2-0.4c0.4,0.6,0.9-1.1,1-1.5h0.8c0-0.9-0.1-0.6,0.4-1v-0.2
			h0.6l-0.2-0.4l1-0.2c0.4-1.3,1.9-0.9,2.3-2.3c0.5,0,0.9-0.1,1.3-0.4V9.6l0.8-0.2L17.9,9h0.4l0.2-0.4l0.6,0.2l0.6-0.8
			C20,7.8,19.9,8,20,8.1c0.6-0.1,0.4-0.4,1-0.4l0.2,0.2l0.4-0.6h0.6c0.2-0.1-0.1-0.4,0.6-0.4c0.1,0.1,0,0.4,0.4,0.2l0.2-0.4h1
			c0,0,0-0.2,0.4-0.2V6l1,0.2V5.8h1.3V5.6l0.2,0.2l0.4-0.2v0.2h0.2l0.4-0.6L29,5.4V5c0.3,0.2,0.7,0.3,1,0.2C30.3,5.1,29.9,5,30.2,5
			h0.2v0.2c0.6,0.1,1.3-0.1,1.7-0.6h0.6L32.5,5H33l0.2-0.6l1,0.2v0.2l0.2-0.2l0.2,0.2c0.3,0-0.1-0.2,0.2-0.2c0.4,0,0.3,0.2,0.4,0.2
			h0.2V4.6h0.8v0.2c0.4,0,0.9,0,1.3-0.2c0.4,0,0.9,0.1,1.3,0.2V4.6c0.4,0,0.7,0.1,1,0.2V4.6c0.5,0,0.6,0.2,0.6,0.2l1.3-0.2
			c0,0,0.1,0.3,0.4,0.2l0.2-0.4c0.2-0.1,0.5,0,0.6,0.2c0.6,0.1,1.3,0,1.9-0.2c-0.1,0.4,0,0.2-0.2,0.4V5c0.9-0.2,1.8-0.3,2.7-0.4
			c0.2,0.6,0.7,0.3,1-0.2h0.2c0.2,0.4-0.1,0.7-0.2,0.8c0.4,0.1,0.4,0.2,0.4,0.2h2.3L51.4,6C52,5.7,52.5,6.2,53,6.4l0.6-0.2v0.2h-0.2
			c0.2,0.4,0.2,0.2,0.6,0.4v0.2l0.4-0.2v0.4h0.8v0.6h0.4c0.1,0.8,0.3,0.6,0.4,1.3h0.4c0.2,0.9,0.5,0.5,0.6,1.5l0.6,0.2V11h0.6
			l-0.2,0.4c0.9,0,0.7-0.1,1.3-0.4c0-0.8,0-0.9-0.6-1V9.6h-0.4V9.2c0,0-0.8,0.1-0.4-0.2h0.2V8.7h-0.2V8.3l-0.6-0.2
			c0.3-0.4,0.1-0.3,0-0.8c-0.5-0.1-0.5-0.2-0.8-0.4V6h-0.8L56,5.4h-0.4V5l-0.6-0.2L54.7,5V4.6c0,0-0.8,0-0.4-0.2h0.2V4.1h-0.8
			c0.1-0.4,0-0.2,0.2-0.4V3.5H53V3.3h-0.4V3.1l-1.3-0.2V2.7H51V2.5h-1.5c-0.1,0-0.1-0.5-0.4-0.4l-0.2,0.4h-0.2l0.2-0.4
			c-0.5-0.2-1.1-0.2-1.7,0c-0.1-0.4,0-0.2-0.2-0.4V1.4l-1.3,0.4V1.6h-0.8V1.4l-1,0.2V1.4c-0.2,0-0.3,0-0.4,0.2L43,1.4v0.2h-0.2V1.4
			H42v0.2h-0.8V1.4l-0.6,0.2V1.2h-0.6v0.2l-0.6-0.2L39,1.6h-0.4V1.2h-0.2l-0.2,0.4l-0.6-0.2v0.2h-0.8V1.4l-0.6,0.2
			c-0.1-0.2-0.4-0.3-0.6-0.2v0.2h-1V1.4H33v0.2h-0.8v0.2l-1.7-0.2v0.6L29.6,2V1.8c-0.2-0.1-0.9,0.3-1,0.4v0.2l-2.5,0.4
			c-0.3,0,0.1-0.2-0.2-0.2v0.2L25,3.1v0.4h-0.4V3.3h-0.2v0.2h-1.9c-0.1,0-0.3,0.7-0.6,0.6V3.9h-0.4c-0.1,0.4,0,0.2-0.2,0.4v0.2
			l-1.5,0.2V5h-0.8v0.2h-0.6v0.2h-0.4l-0.2,0.4h-0.4l-0.2,0.4h-0.2V6h-0.2v0.2H16l-0.4,0.8c-0.5,0.3-0.9-0.1-1.3,0.2l0.2,0.4h-0.4
			v0.4h-0.6v0.4h-0.8v0.4h-0.4v0.6l-0.6-0.2c-0.4,0.9-1.3,1.6-2.3,1.9v0.6l-0.6,0.2v0.8C7.7,13.4,6.8,14,7,15
			c-0.3,0.1-0.5,0.2-0.8,0.2v0.6c-0.4,0.1-0.2,0-0.4,0.2H5.5l0.2,0.6H5.5l-0.2,0.6H4.9c0.4,0.4-0.8,1.7-0.8,2.7H3.7v1.7l-0.4,0.2
			c-0.4,0.4-0.6,0.9-0.6,1.5H3c-0.1,0.5-0.3,0.9-0.6,1.3H2.2c-0.2,0.5,0.3,0.6,0.2,0.8H2.2v0.6H2v1H1.8V28H1.6l0.2,1H1.6v0.2h0.2
			v1.3H1.6l0.2,0.8H1.6c-0.2,1,0.6,0.9-0.2,1.7c0.2,0.2,0,0.1,0.4,0.2l-0.4,1.3l0.4,0.2c0.1,0.2-0.3,0.4-0.2,0.8h0.2
			c0.1,0.3,0,0-0.2,0.2v0.2h0.2c0.1,0.5-0.2,0.5-0.2,0.8c0,0.1,0.4,0.1,0.2,0.4l-0.4,0.2c0.2,0.6,0,0.2,0.6,0.2
			c-0.1,0.3-0.6,1.1-0.4,1.5L2,39.3v1H1.8C1.7,40.8,2,40.8,2,40.8V42h0.4c-0.1,0.5-0.1,1.1,0,1.7l0.4,0.2l-0.2,0.6H3l-0.2,0.6
			l0.4,0.2v0.2c0.2,0.3,0,0,0.2,0.2l-0.2,1h0.6v0.8h0.4l-0.2,0.6l0.6,0.2v1l0.4,0.2l-0.2,0.4l0.8,0.4C6,50.5,5.7,50.4,6,50.4L5.8,51
			H6l0.2,0.8h0.4l0.2,0.8l0.8,0.2c0.1,0.4,0,0.2,0.2,0.4v0.2l0.4-0.2c0.6,0.6,0.3,1,1.5,1.3v0.6h1v0.4c0.4-0.1,0.2,0,0.4-0.2h0.2V56
			h0.8c-0.1,0.4,0,0.2-0.2,0.4v0.2l0.6-0.2v0.4l1,0.2l0.2,0.4l1.9,0.6v0.2h0.4v0.2c0.3,0.2,0.4,0.2,0.8,0.2v0.4l0.6-0.2v0.2h0.4v0.4
			h0.6v-0.2h0.2l-0.2,0.4h0.2V60c0.2-0.1,0.7-0.1,0.8-0.2v-0.2H20v0.6l1,0.2v-0.2h0.2v0.2h0.6v0.2h0.4v0.2h1V61h0.4v0.2
			c0.3,0-0.1-0.1,0.2-0.2h0.8v0.4c0.3,0,0.6-0.1,0.8-0.2v0.4l0.6-0.2v0.2h1.9v0.2h0.4v0.2c0.2,0.1,0.5,0,0.6-0.2H30v0.2h1.5v-0.2
			c0.3,0,1.2,0.4,1.9,0.2v-0.2h1v-0.2l1.5-0.2v-0.2h1.5V61h0.2v0.2h0.2c0.1,0,0.1-0.3,0.4-0.2c0.3,0.1-0.1,0.3,0.2,0.2V61l1.3-0.2
			v-0.2h0.6v-0.2h0.4v-0.2c0.5-0.2,0.6,0.3,0.8,0.2v-0.2l1-0.2v-0.4c0.8-0.1,0.6-0.3,1.3-0.4v-0.4h0.4v-0.4h0.8l-0.2-0.4h0.2v0.2
			l0.8-0.6l-0.2-0.4h0.4v-0.2l0.4,0.2c-0.1-0.4,0-0.2-0.2-0.4v-0.2H47l-0.2-0.6h0.6c0.2-0.7,0.5-0.8,0.6-1.5h0.6v-0.6
			c0.5-0.1,0.3-0.1,0.6-0.4h0.2v-0.4h0.2c0.2-0.2,0.4-0.5,0.4-0.8h0.6c0.2-0.9,0.5-0.5,0.6-1.5H52v-0.8h0.6c-0.2-0.6,0-0.2-0.6-0.2
			v-0.2h0.2c0.2-0.4,0.1-0.3,0.6-0.4l0.2-0.8h0.4v-0.6l0.6-0.2c0-0.4,0.2-0.8,0.4-1h0.2l0.2-1.3h0.6v-1c0.4,0.1,0.2,0,0.4,0.2h0.2
			c-0.2,0.4-0.3,0.8-0.2,1.3c0,0,0.3,0,0.2,0.4C56,45.8,55.9,46,56,46.2h0.2v0.6h0.2c0.2,0.8-0.6,0.4,0.2,1l-0.2,1H57
			c-0.3,0.2,0,1,0,1.7h0.4l-0.2,0.6l0.4,0.2v0.4h0.2c0.1,0.3,0,0-0.2,0.2c0,0.2,0.1,0.3,0.2,0.4l-0.2,1h0.4v0.6
			c0.5,0,0.9,0.1,1.3,0.4v0.2c0.4,0.1,1-0.5,1.5-0.6c0.2-0.9,0.2-1.8,0-2.7c0,0-0.7,0.1-0.4-0.2c0.8,0.2-0.1-0.5,0-0.8h0.2
			c-0.1-0.3-0.4-0.4-0.4-0.4v-0.8H60v-0.8h-0.2c-0.2-0.3-0.2-0.7-0.2-1h-0.4c0.1-0.4,0-0.2,0.2-0.4v-1.3l-0.4,0.2l0.4-0.6h-0.4
			l0.2-1.3h-0.4l0.2-0.6h0.2c0.1-0.5-0.2-1.2-0.2-1.3l0.4-0.2l-0.2-0.4l0.4-0.2v-0.4h-0.4l0.2-2.1h0.4l-0.4-1.3
			c0.4-0.1,0.2,0,0.4-0.2h-0.4l0.4-2.7h-0.2v-0.6h-0.2v-0.2h0.2v-0.4h0.2c0-0.3-0.6-0.8-0.6-0.8v-0.2h0.2v-0.6h0.2l-0.2-0.8l0.4-0.2
			v-0.2h-0.6v-0.2h0.2l-0.2-0.4H60v0.2h0.2v-0.2h1.3v0.2l0.6-0.2v0.2l0.6-0.2v0.2c0.7,0.1,1.4,0.1,2.1,0v0.4h1v-0.2H66v0.4
			c1-0.3,1.5,0,2.3,0.4v0.2l0.4-0.2v0.2h1c0,0,0.1,0.3,0.4,0.2l0.2-0.4h0.2v0.6c0.4-0.1,0.8-0.1,1.3,0c0.1,0.4,0,0.2,0.2,0.4v-0.4
			l0.8,0.2V32h0.8v0.2c0.9,0,1.3-0.1,1.7-0.6h-0.2v-0.2h0.2v-1.5l0.2-0.2C75.3,29.3,75.2,29.9,75,29z M32.8,25.9
			c0.4,0.1,0.2,0,0.4,0.2C32.8,26,33,26.1,32.8,25.9z M57.7,9.6c-0.4-0.1-0.2,0-0.4-0.2C57.7,9.5,57.4,9.3,57.7,9.6L57.7,9.6z
			 M49.5,4.6h0.2C49.9,4.6,49.3,5,49.3,5L49.5,4.6z M2,38.7h0.6v0.2C2.3,39.1,2.1,38.8,2,38.7L2,38.7z M2.8,42.9H2.6v-0.4h0.2V42.9z
			"/>
		<path id="パス_343" class="st0" d="M49.7,4.6h-0.2L49.3,5C49.3,5,49.9,4.6,49.7,4.6z"/>
		<path id="パス_344" class="st0" d="M57.7,9.6c-0.2-0.2,0-0.1-0.4-0.2C57.5,9.6,57.2,9.5,57.7,9.6z"/>
		<path id="パス_345" class="st0" d="M191.2,16.5h-0.8v-0.4c-0.5,0-0.6,0.2-0.8,0.2l-0.2-0.4h-0.4v-0.2c-0.1,0-0.6,0.3-1,0.2v-0.2
			h-2.3v-0.4c-0.4,0.1-0.8,0.1-1.3,0V15h-0.2v0.2h-0.2V15H183v-0.2l-0.6,0.2v-0.4l-2.1,0.4l-0.2-0.4l-0.6,0.2l-0.2-0.4
			c-0.3-0.1-0.3,0.4-0.4,0.4h-1.7v-0.4c-0.5,0.1-1.1,0.2-1.7,0.2V15c-0.6-0.2-1.3-0.2-1.9,0v-0.2L173,15v-0.2h-0.2V15h-0.8v-0.2
			h-0.2V15c-1,0.2-1.3-0.6-1.9,0.2h-0.2l0.2-0.4c-0.5,0.1-1,0.1-1.5,0c0.1-0.4,0.2-0.7,0.4-1c-0.4-0.4-0.7-0.9-0.8-1.5l-1.3-0.2v0.2
			h-0.2v-0.2h-0.4c-0.3,0.4-0.5,0.5-0.6,1h0.4v0.2l-0.6,0.2v0.6H165v0.2l0.4,0.2v0.6h-0.6v0.2H164v-0.2l-0.8,0.2V15
			c-0.2-0.2-0.2,0.2-0.2,0.2h-0.8c-0.2,0.6,0,0.5-0.6,0.6v-0.6h-0.6v0.2l-0.6-0.2l-0.2,0.4c-0.6,0.3-1.6-0.2-1.9-0.2v0.2l-0.6-0.2
			l-0.2,0.4h-0.6v0.2c-0.5,0.1-0.6-0.2-0.8-0.2v0.2l-0.6,0.2v-0.4h-0.4v0.4c-0.6-0.2-1.3-0.2-1.9,0v0.2l-0.6-0.2v0.2l-0.6-0.2v0.2
			c-0.3,0.3-0.8,0.5-1.3,0.4c-0.1,1.2-0.1,0.4-0.8,0.8c0.3,0.4,0,0.4-0.4,0.6l0.2,1h0.8c0.1,0.1,0.1,0.6,0.6,0.4l0.2-0.4l0.4-0.2
			v0.4l1,0.2v-0.4l0.4,0.2v-0.2h0.6v-0.2h0.2v0.4c0.4-0.1,0.4-0.2,0.4-0.2h1v-0.2h0.6V19c0.5-0.1,0.6,0.3,0.8,0.2V19h0.6v-0.2
			c0.3,0,0.5,0.3,1,0.2v-0.2h0.2V19h0.8l0.2-0.4c0.7-0.3,1.4,0.2,1.9-0.2h0.2l-0.2,0.4c0.5-0.1,0.6-0.1,0.8-0.4l1,0.2v-0.4
			c0.7,0.1,1.4,0.1,2.1,0l0.2,1h0.2l-0.2,0.6h-0.2c0,0.3,0.4,0.4,0.4,0.4c0.1,0.4-0.3,0-0.4,0.4h0.2v2.5h-0.2
			c-0.1,0.3,0.4,0.3,0.4,0.4l-0.2,1.9h0.4l-0.2,0.6l-0.4,0.2c-0.2,0.5,0.4,0.5,0.4,0.8h-0.2V28l-0.4-0.2v0.4h0.6l-0.2,0.6h-0.2V29
			h0.2l0.2,0.4l-0.4,0.2v1.3h-0.2l0.2,0.6h-0.2v0.2c0.1,0.1,0.3,0.1,0.2,0.6h-0.2l-0.2,1.3h0.4c-0.1,0.5-0.4,1-0.6,1.5
			c0,0.3,0.1-0.1,0.2,0.2l-0.2,0.6h0.4c-0.1,0.2-0.4,0.6-0.2,1h0.2l-0.2,0.6h-0.4v0.2h0.4c-0.2,0.5,0,1.4-0.2,2.1h-0.2l0.2,0.2v0.2
			h-0.2v0.8l-0.4,0.2c-0.1,0.2,0,0.5,0.2,0.6c0.1,0.5-0.2,1-0.2,1h0.2v0.2c-0.3,0.8-0.6,0.3-0.2,1.5h-0.4v0.4h0.4
			c-0.3,0.8-0.2,1.8-0.4,2.7h-0.2l0.2,0.6h-0.2l0.2,1.3h-0.2l0.2,0.4v0.2h-0.2c-0.1,0.2,0,0.5,0.2,0.6v0.2h-0.2
			c-0.1,0.5,0.2,0.8,0.2,1h-0.2v0.8h-0.2l0.2,0.8h0.2l-0.2,0.6h-0.4v0.2h0.4c-0.1,0.6-0.5,0.4,0.2,0.8c-0.2,0.4-0.3,0.3-0.4,0.8h0.2
			v0.2h-0.4c-0.1,0.3,0.4,0.3,0.4,0.4c0,0.1-0.3,0.6-0.2,1h0.2l-0.2,0.8h0.2v0.4h0.2L164,60h1.5v-0.2h0.2l-0.2,0.6
			c0.5-0.1,0.5-0.2,0.8-0.4v-0.2h0.2l-0.2-0.6l0.4,0.2c-0.1-0.4-0.2-0.4-0.2-0.4v-1.9h-0.2c0,0,0-0.8,0.2-0.4
			c0.3,0.1-0.1,0.2,0.2,0.2v-1.7h0.2V55h-0.4l0.2-0.4h-0.4v-0.2h0.2v-0.4h0.2c0-0.3-0.3-0.4-0.2-0.8h0.2c0.3-1.1-0.6-1.3,0.2-2.1
			c0,0,0-0.8-0.2-0.4c-0.3,0.1,0.1,0.2-0.2,0.2c0.1-0.3,0.2-0.7,0.2-1c0.4-0.1,0.2,0,0.4-0.2h-0.4l0.2-1.3h-0.2v-0.2h0.2v-0.4h0.2
			l-0.2-0.6c0-0.1,0.3,0,0.4-0.6h-0.4l0.2-1.3c0,0-0.3-0.1-0.2-0.4l0.4-0.2c0.1-0.4-0.3-0.1-0.4-0.4l0.4-0.2
			c0.1-0.2-0.3-0.4-0.2-0.8h0.2v-0.8h0.2v-2.1l0.4-0.2l-0.2-0.8h0.2v-0.4h0.2c0.2-0.5-0.2-0.8-0.2-1h0.2c0-0.3-0.4-0.4-0.2-0.8
			c0,0,0.3-0.1,0.4-0.6h-0.6l0.2-0.6h0.2v-0.6h0.2c0-0.2,0-0.4-0.2-0.4l0.2-1.7h-0.2v-0.2h0.4c-0.1-0.4-0.3-0.3-0.4-0.4
			c0-0.3,0.4-0.4,0.4-0.4l-0.2-1h0.2c-0.2-0.6-0.2-1.3,0-1.9h0.2v-1h0.2v-0.2h-0.4v-0.2h0.2c-0.1-0.3-0.1,0.1-0.2-0.2v-1.5
			c0-0.1,0.3-0.1,0.2-0.4h-0.2l-0.2-0.6h0.4c-0.1-0.3-0.3-0.2-0.4-0.4c0.1-0.4,0.5-0.4,0.6-0.6l-0.2-0.4h0.2
			c-0.1-0.3-0.4-0.4-0.4-0.4l0.2-1.5h-0.2v-0.2h0.2c0-0.9,0.1-1.8,0.2-2.7h-0.2v-0.2l1.5-0.2v-0.2l1,0.2v0.2h0.2V18h1.7v0.2
			c1.1,0.2,0.6-0.8,1.3,0l1-0.4v0.4c0.3,0.1,1.6-0.7,2.5-0.4V18l1.3-0.2c0,0,0,0.2,0.4,0.2v-0.2h0.2V18h0.4v0.2l0.6-0.2v-0.2
			l1.5,0.2v-0.4h0.2v0.6c0.3,0,0.6-0.1,0.8-0.2v0.4l1.3-0.2v0.4l0.8,0.2v-0.2h0.8v0.2h0.2c0.1-0.2,0.2-0.3,0.4-0.2v0.2h0.6V19
			c0.5,0.1,0.6-0.3,0.8-0.2V19h0.4v0.2c0.3,0-0.1-0.2,0.2-0.2c0.6,0,1.1,0,1.7,0.2l0.2-0.6h0.4v-0.8H191v-0.4h0.6v-0.2h-0.2
			L191.2,16.5z M161.7,18c0.4,0.1,0.2,0,0.4,0.2C161.7,18,161.9,18.2,161.7,18L161.7,18z"/>
		<path id="パス_346" class="st0" d="M142,14h-0.4v-0.4h-1.9v0.2h-0.2l-1.3-0.4v0.2c-0.5,0-0.8-0.5-1-0.4v0.2h-0.4v0.2
			c-0.9,0.3-1.3-0.1-1.9,0v0.2l-1-0.2v0.2l-0.4-0.2v0.2h-0.8c0,0-0.1-0.3-0.4-0.2l-0.2,0.4h-0.6v0.2c-0.3,0.1-0.4-0.2-0.4-0.2
			c-0.5-0.1-0.5,0.2-0.8,0.2l-0.2-0.4l-0.8,0.4v-0.4l-1,0.2v0.2h-0.8V14h-0.2v0.2l-0.6-0.2v0.4l-2.1-0.2v0.4c-0.6,0-1.2,0.1-1.7,0.4
			v-0.4l-1,0.2c-0.1-0.2-0.4-0.3-0.6-0.2v0.2h-1V15h-0.4v0.2c-0.3,0-0.5-0.4-1-0.2v0.2h-0.8v0.2l-0.6-0.2l-0.2,0.6
			c-0.3,0.1-0.4-0.2-0.4-0.2H115c-0.1,0.4,0,0.2-0.2,0.4c0,0,0,0.4-0.2,0.2v-0.4l-0.4,0.2l-0.6-0.2v0.2c-0.1,0-0.6-0.1-0.4,0.2h0.2
			v0.2h-0.2v0.2c-0.2,0.1-1.6-0.7-2.5-0.4v0.2h-1l-0.4,0.6h-1.5v0.2c-0.2,0-0.3-0.1-0.4-0.2l-1,0.2v0.2H106l0.2,0.6h-0.6V19h-0.4
			v0.4h0.4v0.4c0.1,0,0.9-0.1,0.6,0.2H106v0.2c0.8,0.1,0.8,0.3,1.7,0V20h1.5l0.2-0.4c1-0.4,0.9,0.8,1.7-0.2h0.2
			c0,0.3-0.1,0.6-0.2,0.8h0.2l0.2,0.8H111v0.2h0.2l0.2,0.6c-0.1,0.2-0.6,0.1-0.4,0.8h0.2v0.6h0.2l-0.2,0.6c0,0.1,0.3,0.1,0.2,0.4
			h-0.2v0.2c0,0,0.3,0.1,0.2,0.4h-0.2v1h0.2v0.8h-0.2l0.2,1l-0.4,0.2c0.2,0.2,0,0.1,0.4,0.2c0,0.3-0.2,1.5-0.2,1.5l0.6,0.2
			c-0.4,0.5-0.5,1.1-0.2,1.7l0.4,0.2l-0.2,1h-0.2c-0.1,0.6,0.3,0.4,0.4,0.6c0.2,0.4-0.3,0.9-0.2,1h0.2v1h-0.2v0.2l-1-0.2l-0.2,0.4
			c-0.7,0.3-0.6-0.3-1,0.4h-0.2v0.2h0.2V37l-0.4-0.2l0.4,1.5h0.6V38h0.2c-0.2,0.4-0.1,0.2,0,0.6h1.7c0,0,0,0.8,0.2,0.4v-0.2h0.6
			l-0.2,0.6h-0.2c-0.2,0.3,0.3,0.2,0.4,0.2c0.1,0.3-0.1,0-0.2,0.2v0.4h0.4l-0.2,0.6h0.4c-0.1,0.5-0.2,1-0.2,1.5h0.4l-0.2,1.3
			c0,0.1,0.3,0.1,0.2,0.4h-0.2v0.2l0.6,0.4c0.2,0.6-0.4,0.5-0.4,0.6V46h0.4c-0.1,0.3-0.2,0.5-0.2,0.8h0.4c-0.1,0.6-0.1,1.3,0,1.9
			h0.4c0.2,0.2-0.2,0.2-0.2,0.2c0,0.5-0.2,0.6-0.2,0.8l0.6,0.4c0.1,0.2-0.4,0.6-0.2,1h0.2v0.4l0.4,0.2l-0.2,1.3h0.2v0.6h0.2
			l-0.2,0.4l0.4,0.2l-0.2,0.6h0.2v1c0.1,0.3,0.2-0.1,0.2,0.2c-0.1,0.1-0.4,0-0.2,0.4l0.4,0.2l-0.2,0.6h0.2v0.6h0.2
			c0.1,0.3,0,0-0.2,0.2l0.2,0.4H116v1h0.2v1.3h0.2v0.4h0.2v0.6h0.2v0.2h-0.2v1.3h0.4c-0.1,0.8-0.1,0.7-0.2,1.5h0.4
			c0.1,0.4,0,0.2,0.2,0.4c0.5,0.4,1.1,0.5,1.7,0.2v-0.2h0.8l-0.2-0.6l0.4-0.2v-0.8H120l0.2-1h-0.4c0.5-0.7-0.3-0.3-0.2-0.8h0.2v-0.2
			c-0.4-0.2-0.2,0.1-0.4-0.2h0.4v-0.4h-0.4c0.2-1.3,0.2-0.7-0.4-1.7h0.4l-0.2-1.5H119v-0.6h-0.2c0-0.3,0.5-1.3,0.2-1.9l-0.4-0.2
			c-0.2-0.5,0.1-0.8,0.2-1h-0.4c0-0.8,0.2-0.6,0-1.3h-0.2v-1.5l-0.4-0.2l0.2-0.2v-0.4h-0.2l0.2-0.6h-0.4v-0.2
			c0.2-0.1,0.3-0.4,0.2-0.6h-0.2v-0.6c-0.1-0.1-0.5-0.1-0.4-0.4h0.4v-0.2h-0.4l-0.2-1.3c0.2,0,0.3-0.2,0.2-0.4c0,0,0,0,0-0.1
			l-0.4-0.2v-0.2l0.4,0.2v-0.4h-0.4l0.2-1.9h-0.4c0-0.4-0.1-0.9-0.2-1.3h0.4V42H116c0.2-0.3,0.3-0.7,0.2-1c0,0-0.3-0.1-0.2-0.4h0.2
			v-0.6l-0.6,0.2c0-0.4,0.3-0.7,0.6-0.8v-0.2l0.6,0.2v-0.2l0.2,0.2l0.2-0.2c0.3,0-0.1,0.1,0.2,0.2h1.3v0.2h0.6v0.2l1.5-0.2v0.2h0.8
			v-0.2l1,0.2v-0.2l0.4,0.2c0.1-0.2,0.4-0.3,0.6-0.2v0.2h2.1c0.1,0,0.1,0.3,0.4,0.2v-0.2h0.4v-0.2l0.8,0.2v-0.2h0.6v0.2l0.2-0.2
			l0.2,0.2l0.4-0.2v0.2h0.8v0.2h0.2l0.2-0.4c0.3-0.1,0.4,0.2,0.4,0.2h1v-0.2c0.2-0.1,0.5,0,0.6,0.2l1.3-0.2v0.2l0.6,0.2l0.4-0.6
			c0.4-0.1,0,0.7,0.4,0.4c0.4-0.2-0.2-0.4,0.6-0.6l-0.2-0.6h0.2v-0.2h-0.2v-0.6h-0.2v-0.2h0.4v-0.2l-1.7-0.6c-0.3,0-0.5,0.3-1,0.2
			c0,0,0-0.3-0.4-0.2v0.2l-2.3-0.2v0.2h-0.2v-0.2h-2.5l-0.6,0.2v-0.2l-0.8-0.2v0.2h-0.8v-0.2c-0.6-0.1-0.5,0.4-0.6,0.4l-1-0.2v0.2
			c-0.3,0,0.1-0.1-0.2-0.2c-0.7,0-1.4,0.1-2.1,0.2l-0.2-0.4c-0.5-0.1-1,0-1.5,0.2v-0.4H119c0.2,0.2,0.3,0.2,0.4,0.4l-1.3-0.2v0.2
			h-0.2l0.2-0.4c-0.5,0-1,0.1-1.5,0.2v-0.4c-0.6,0.1-0.8,0.1-1,0.4h-0.2c-0.2-0.4,0.3-0.7,0.2-0.8l-0.6-0.2v-0.2h0.2l-0.2-0.6
			c0-0.1,0.3-0.1,0.2-0.4H115v-0.2h0.2v-0.2H115V33h-0.2l0.2-0.4h-0.2c-0.2-0.2-0.4-0.5-0.4-0.8h0.6c0-0.1,0.1-0.9-0.2-0.6v0.2h-0.2
			v-1.9h-0.2V29h-0.2c-0.1-0.5,0.4-1.1,0.2-1.9h-0.2l0.2-0.4h-0.2v-1h0.2v-0.8h-0.2c0-0.3,0.3-0.3,0.2-0.8c0-0.3-0.2,0.1-0.2-0.2
			c0.1-0.3,0.2,0.1,0.2-0.2l-0.2-0.4h0.2l-0.2-1h0.2l0.2-0.8h-0.4v-0.2c0.3,0,0.3-0.5,0.2-0.8h-0.2V20h0.2l-0.2-0.6h0.2v-0.2H114V19
			l1.3,0.2v-0.4h1v-0.2h0.2v0.2h0.8c0,0,0-0.8,0.2-0.4c0.3,0.1-0.1,0.3,0.2,0.2c0.1,0,0-0.3,0.4-0.2v0.2h0.2c0.1,0,0-0.3,0.6-0.4
			v0.4c0.7-0.2,0.8-0.5,1.5-0.6c-0.2,0.2,0,0.1-0.4,0.2v0.2c0.6,0.3,0.7-0.3,0.8-0.4l0.2,0.2h0.2v-0.2h0.8v-0.2h0.2l-0.2,0.4h0.6
			v-0.4l1.7-0.2v-0.2c0.3,0,0.4,0.4,0.8,0.2l0.2-0.4c0.7-0.2,0.7,0.4,0.8,0.4c0.2,0.1,0.3,0,0.4-0.2c0,0,0,0,0,0h0.2v0.2h0.8v-0.4
			h0.6v-0.2c0.2,0,0.3,0,0.4,0.2c0.4,0,0.4-0.2,0.4-0.2h0.6v0.2l1.3-0.2v-0.2c0,0,0.8,0,0.4,0.2h-0.2v0.2c0.3,0,0.6-0.1,0.8-0.2
			c0.1,0.1,0,0.3,0.6,0.2v-0.2l1.5,0.2v-0.2h0.6v-0.2h1.3v-0.2c0.4,0,0.4,0.6,1,0.4v-0.2c0.3-0.1,0.5-0.2,0.8-0.2v0.4h0.4v-0.4
			c0.8-0.1,1.7,0,2.5,0.2v-0.4c0.9-0.1,0.6-0.3,1.5-0.4v-0.6H142L142,14z M107,19.6c0.4,0.1,0.2,0,0.4,0.2
			C107,19.7,107.3,19.9,107,19.6z M126.7,16.9c0.4,0.1,0.2,0,0.4,0.2C126.7,17,127,17.1,126.7,16.9z"/>
		<path id="パス_347" class="st0" d="M92.2,20.5l-0.4-0.2l0.4-0.6H92l-0.2-2.3l-0.4-0.2c-0.1-0.4,0.5-0.3,0.4-0.8h-0.2l-0.2-0.8
			h-0.2v-1h-0.2v-0.2c-0.4,0.3-0.4,0.1-0.8,0c-0.2,0.3-0.4,0.4-0.6,0.6h-0.2l0.2,1h-0.2v0.4H89c-0.3,0.8,0.5,1.1,0,1.7
			c0,0.4,0.3,0.7,0.6,0.8V19h-0.4c-0.1,0.4,0,0.2-0.2,0.4c0.2,0.2,0.3,0.2,0.4,0.4H89l0.2,1c0,0-0.3,0-0.2,0.4
			c0,0.3,0.3-0.1,0.2,0.2H89v1h-0.2v0.2H89v0.4h-0.2l0.2,0.4L88.8,24h0.4c-0.2,0.5-0.2,0.8-0.6,1c0.2,0.2,0,0.1,0.4,0.2l-0.2,0.6
			h-0.2v0.4h-0.2c0,0,0.4,0.8,0.2,1.3h-0.2l-0.2,1h0.2v0.8h-0.2l0.2,0.6L88,30.3v0.2h0.2v1.3H88l0.2,0.6c0,0-0.3,0.1-0.2,0.4h0.2
			v0.8c0,0-0.2,0-0.2,0.4l0.2,0.6H88v0.2h0.2v0.8H88l0.2,0.6H88v0.2h0.2v0.6h0.2l-0.2,1.9l0.4,0.2c0.1,0.4-0.2,0.4-0.2,0.4l0.2,0.4
			h-0.4c-0.1,0.1,0.5,0.5,0.4,0.8h-0.2v0.2h0.2c0,0.2,0,0.4-0.2,0.4v0.2h0.2v1.7h0.2l-0.2,0.6h0.2v1h0.2v0.2h-0.4l0.2,0.4h-0.2V46
			h0.2v0.8H89c0.1,0.3-0.1,0-0.2,0.2v0.2H89v0.8h0.2c0.2,0.3,0.2,0.5,0.2,0.8c0.3,0,0.6,0.1,0.8,0.2c0.4-0.1,0.9-0.5,1.5-0.6
			l0.2-1.3h0.2L91.8,46c0.3-0.3,0.2,0.2,0.4-0.2h-0.4c0-0.3,0.1-0.6,0.2-0.8h-0.2l-0.2-0.6h0.2v-0.6H92v-0.2h-0.2v-1.7h-0.2l0.2-1.3
			l-0.6-0.2v-0.2c0.4-0.2,0.1-0.8,0.2-1.3h0.2v-0.2h-0.2v-1h0.2v-0.2h-0.2c-0.1-0.4,0-0.7,0.2-1h-0.4l-0.2-0.6h0.2v-0.6
			c0.1-0.3,0.2,0.1,0.2-0.2h-0.2l-0.2-0.8h0.2v-0.4h0.2c0.1-0.6-0.6-0.4-0.4-1l0.4-0.2l-0.2-1c0-0.3,0.2,0.1,0.2-0.2h-0.4l0.2-0.4
			h-0.2v-0.2h0.2v-1h0.2l-0.2-1h0.2v-0.6h0.2l0.2-1.3h-0.2v-0.2h0.2v-0.4H92v-1.3h0.2l0.2-0.6h-0.2v-0.4H92
			c-0.1-0.6,0.4-0.5,0.4-0.6l-0.2-0.4h0.2v-0.2c-0.1-0.2-0.3,0-0.2-0.4h0.2v-0.2h-0.2L92.2,20.5z"/>
		<path id="パス_348" class="st0" d="M126.7,16.9c0.2,0.2,0,0.1,0.4,0.2C126.9,16.9,127.1,17,126.7,16.9z"/>
		<path id="パス_349" class="st0" d="M129.2,17.3h0.6v-0.2h-0.6V17.3z"/>
		<path id="パス_350" class="st0" d="M161.7,17.9c0.2,0.2,0,0.1,0.4,0.2C161.8,17.9,162.1,18.1,161.7,17.9z"/>
		<path id="パス_351" class="st0" d="M107,19.6c0.2,0.2,0,0.1,0.4,0.2C107.2,19.6,107.5,19.7,107,19.6z"/>
		<path id="パス_352" class="st0" d="M32.8,25.9c0.2,0.2,0,0.1,0.4,0.2C32.9,25.9,33.2,26,32.8,25.9z"/>
		<path id="パス_353" class="st0" d="M56.2,26.5h0.2c-0.1-0.4,0-0.2-0.2-0.4V26.5z"/>
		<path id="パス_354" class="st0" d="M87.8,29.2c0.2,0.2,0,0.1,0.4,0.2v-0.2H87.8z"/>
		<path id="パス_355" class="st0" d="M121.9,36.4v-0.2h-0.4C121.7,36.4,121.5,36.2,121.9,36.4z"/>
		<path id="パス_356" class="st0" d="M2.6,38.7H2c0.1,0.1,0.3,0.4,0.6,0.2V38.7z"/>
		<path id="パス_357" class="st0" d="M91.6,39.9h0.2c-0.1-0.4,0-0.2-0.2-0.4V39.9z"/>
		<path id="パス_358" class="st0" d="M2.6,42.9h0.2v-0.4H2.6V42.9z"/>
	</g>
	<path id="パス_673" class="st1" d="M629.3,2847.6l-0.3-1.5c-0.1-0.5-0.2-1.1-0.2-1.6l-2.2,0.4c0.2,0.5,0.3,1.1,0.4,1.6l0.3,1.4
		l-3.2,0.5c-0.6,0.1-1.2,0.2-1.9,0.2l0.3,2.1c0.6-0.2,1.2-0.3,1.9-0.4l3.2-0.5l0.5,2.8l-4.1,0.7c-0.6,0.1-1.2,0.2-1.8,0.2l0.3,2.1
		c0.6-0.2,1.1-0.3,1.7-0.4l4.2-0.7l0.6,3.3c0.1,0.6,0.2,1.2,0.2,1.8l2.3-0.4c-0.2-0.6-0.3-1.2-0.4-1.8l-0.6-3.3l4-0.6l0.7-0.1
		l0.3-0.1c0.3,0,0.5-0.1,0.8-0.1l-0.4-2.1c-0.6,0.2-1.2,0.3-1.8,0.4l-4,0.6l-0.5-2.8l3.6-0.6l1-0.2l0.1,0c0.2,0,0.3,0,0.5,0
		l-0.3-1.5l0.9-0.3c-0.4-1-0.9-1.9-1.5-2.7l-1.2,0.5c0.5,0.7,0.9,1.4,1.3,2.2c-0.3,0.1-0.7,0.1-1.1,0.2L629.3,2847.6z M637.6,2846
		c-0.4-0.9-0.9-1.8-1.5-2.6l-1.2,0.5c0.6,0.8,1.1,1.7,1.5,2.6L637.6,2846z M655.9,2845.6c-0.6,0.1-1.2,0.2-1.8,0.2h-7.8
		c-0.7,0-1.5,0-2.2-0.1v2.2c0.7-0.1,1.4-0.1,2.1-0.1h8.1c-0.7,3.1-2.5,5.7-5.2,7.4c-1.1,0.8-2.4,1.3-3.7,1.7c0.6,0.6,1.1,1.3,1.5,2
		c2.4-0.9,4.6-2.4,6.3-4.3c1.7-2,2.9-4.5,3.5-7.1c0.1-0.3,0.2-0.5,0.3-0.8L655.9,2845.6z M670.1,2859c-0.1-0.6-0.1-1.3-0.1-1.9v-4.5
		c0-0.4,0-0.8-0.1-1.2c0.2,0.1,0.4,0.2,0.6,0.3c2.1,0.9,4.1,2,6,3.2l1.2-2c-2.5-1.4-5-2.6-7.7-3.6v-3.2c0-0.6,0-1.2,0.1-1.8h-2.3
		c0.1,0.6,0.1,1.2,0.1,1.7v10.9c0,0.6,0,1.3-0.1,1.9L670.1,2859z M698.9,2847.4c-0.4,0.2-0.9,0.3-1.3,0.3l-6.2,0.7v-2.1
		c0-0.5,0-1.1,0.1-1.6h-2.3c0.1,0.5,0.1,1.1,0.1,1.6v2.3l-1.8,0.2c-0.5,0.1-1,0.1-1.5,0.1c-0.1,0-0.2,0-0.4,0l0.2,2.1
		c0.6-0.2,1.2-0.3,1.9-0.3l1.6-0.2v3.9c-0.1,0.7,0,1.4,0.2,2.1c0.2,0.7,0.7,1.3,1.5,1.6c1,0.2,2,0.3,3,0.3c1.4,0,2.8-0.1,4.2-0.3
		c0.3,0,0.7-0.1,1-0.1l-0.1-2.3c-1.7,0.5-3.5,0.7-5.2,0.7c-1.7,0-2.3-0.2-2.4-0.9c-0.1-0.5-0.1-1-0.1-1.5v-3.8
		c1.8-0.3,3.5-0.5,5.2-0.7c0.3,0,0.4-0.1,0.6-0.1c-0.3,0.5-0.4,0.7-0.6,1c-0.7,1-1.7,1.8-2.8,2.4c0.7,0.3,1.2,0.8,1.7,1.4
		c1.8-1.3,3.2-3,4.2-5c0.1-0.3,0.3-0.6,0.5-0.8L698.9,2847.4z M708.5,2849c0.7,1.3,1.2,2.7,1.5,4.1l1.9-0.6c-0.4-1.4-1-2.8-1.7-4
		L708.5,2849z M712.1,2848.2c0.7,1.3,1.2,2.6,1.5,4l1.9-0.6c-0.4-1.4-0.9-2.7-1.6-3.9L712.1,2848.2z M717.9,2848.1
		c0,0.7-0.1,1.3-0.3,2c-0.5,2.4-1.9,4.5-3.9,5.9c-0.9,0.7-1.9,1.2-2.9,1.6c0.5,0.5,1,1,1.4,1.7c2.1-0.9,3.8-2.3,5.2-4.1
		c1.2-1.7,2-3.6,2.3-5.7c0-0.3,0.1-0.6,0.2-0.9L717.9,2848.1z M733.8,2859c-0.1-0.6-0.1-1.3-0.1-1.9v-4.5c0-0.4,0-0.8-0.1-1.2
		c0.2,0.1,0.4,0.2,0.6,0.3c2.1,0.9,4.1,2,6,3.2l1.2-2c-2.5-1.4-5-2.6-7.7-3.6v-3.2c0-0.6,0-1.2,0.1-1.8h-2.3
		c0.1,0.6,0.1,1.2,0.1,1.7v10.9c0,0.6,0,1.3-0.1,1.9L733.8,2859z"/>
</g>
</svg>
