<?xml version="1.0" encoding="utf-8"?>
<!-- Generator: Adobe Illustrator 24.2.0, SVG Export Plug-In . SVG Version: 6.00 Build 0)  -->
<svg version="1.1" id="レイヤー_1" xmlns="http://www.w3.org/2000/svg" xmlns:xlink="http://www.w3.org/1999/xlink" x="0px"
	 y="0px" viewBox="0 0 316 88" style="enable-background:new 0 0 316 88;" xml:space="preserve">
<style type="text/css">
	.st0{fill:#FFFFFF;}
	.st1{fill:#FFFFFF;stroke:#FFFFFF;stroke-width:2;}
</style>
<g id="グループ_752" transform="translate(-172.764 -153.718)">
	<path id="パス_674" class="st0" d="M236,236.9c0.2-0.3,0.3-0.3,0.5-0.6c0.8-1,2.1-2.5,2.7-3.3c0.6-0.8,0.7-0.9,0.9-0.9
		c0.2,0,0.3,0,1.2,1.1c2,2.2,4.1,4.3,6.3,6.3l0.9-2.1c-0.5-0.3-1-0.7-1.4-1.1c-1.7-1.5-3.3-3.1-4.9-4.8c-1.1-1.3-1.5-1.5-2.2-1.5
		c-0.4,0-0.7,0.1-1,0.3c-0.4,0.3-0.8,0.7-1.1,1.2c-2,2.5-2.8,3.4-3.2,3.6L236,236.9z M243.8,229.8c0.6,0.7,1.2,1.4,1.6,2.2l1.1-0.6
		c-0.4-0.8-1-1.5-1.6-2.2L243.8,229.8z M248.2,230.5c-0.4-0.8-0.9-1.5-1.6-2.1l-1,0.5c0.6,0.7,1.1,1.4,1.5,2.2L248.2,230.5z
		 M255.5,229.5c1.4,0.5,2.8,1.2,4,2.1l1-1.6c-1.3-0.8-2.6-1.4-4-1.9L255.5,229.5z M254.3,233.2c1.4,0.5,2.8,1.3,4.1,2.2l0.9-1.7
		c-1.3-0.8-2.6-1.5-4-2L254.3,233.2z M263.2,228.2c0.6,0.7,1.2,1.4,1.6,2.2l1-0.6c-0.4-0.8-0.9-1.5-1.6-2.2L263.2,228.2z
		 M255.1,240.4c0.3-0.1,0.7-0.2,1.1-0.3c5.4-1.1,8.5-3.5,10.4-8.1c-0.6-0.4-1.1-0.8-1.6-1.3c-0.9,3-3.1,5.5-6.1,6.6
		c-1.4,0.6-2.8,0.9-4.3,1L255.1,240.4z M267.6,229c-0.4-0.8-0.9-1.5-1.6-2.1l-1,0.5c0.6,0.7,1.1,1.4,1.5,2.2L267.6,229z M283.8,229
		c-0.4,0.1-0.9,0.2-1.3,0.2c-3.7,0-3.7,0-3.9,0.1c0.1-0.2,0.3-0.5,0.4-0.7c0.1-0.3,0.3-0.6,0.4-0.8l-1.9-0.4
		c-0.2,0.7-0.5,1.4-0.9,2.1c-0.9,1.7-2.2,3.1-3.8,4.3c0.6,0.3,1.1,0.7,1.5,1.2c1.4-1.1,2.6-2.5,3.5-4l4.7,0c-0.4,1.3-1,2.4-1.7,3.5
		c-0.9-0.8-1.9-1.4-3-2l-1.1,1.3c1.1,0.6,2.1,1.3,3.1,2.1c-0.7,0.8-1.5,1.5-2.5,2.1c-0.9,0.6-1.9,1.1-2.9,1.5c0.5,0.4,0.9,1,1.2,1.5
		c2.8-1.2,5.2-3.2,6.8-5.7c0.8-1.3,1.4-2.7,1.9-4.1c0.1-0.4,0.2-0.7,0.5-1L283.8,229z M302.8,229.9l0.6-0.2
		c-0.3-0.9-0.8-1.6-1.3-2.4l-1.1,0.4c0.4,0.5,0.7,1,0.9,1.5c-0.4,0-0.7,0.1-1.1,0h-6.9c-0.6,0-1.3,0-1.9-0.1v2
		c0.6-0.1,1.3-0.1,1.9-0.1h7.1c-0.9,3.9-3.9,7-7.8,8.1c0.6,0.5,1,1.1,1.3,1.8c4.3-1.6,7.6-5.2,8.5-9.7c0.1-0.2,0.1-0.5,0.3-0.7
		L302.8,229.9z M305.3,229c-0.3-0.8-0.8-1.6-1.3-2.3l-1.1,0.4c0.5,0.7,1,1.5,1.3,2.3L305.3,229z M311.9,228.1
		c0.1,0.5,0.1,0.9,0.1,1.4c0,4.2-0.3,6.1-1.4,7.9c-0.4,0.7-0.9,1.3-1.5,1.7c0.6,0.4,1.1,0.9,1.5,1.5c0.9-0.8,1.6-1.7,2.1-2.8
		c0.9-1.9,1.3-4,1.2-6.2c0-1.1,0-2.2,0.1-3.4L311.9,228.1z M315.8,228c0,0.3,0.1,0.7,0.1,1v0.5l-0.1,8.5c0,0.5,0,1.1-0.1,1.6l1,1
		c0.2-0.1,0.4-0.2,0.6-0.3c1.2-0.4,2.3-1,3.2-1.8c1.1-1,1.9-2.2,2.4-3.5c-0.5-0.4-1-0.9-1.4-1.4c-0.3,1-0.8,1.9-1.5,2.7
		c-0.6,0.7-1.4,1.3-2.3,1.7l0.1-8.5c0-0.5,0-1,0.1-1.4L315.8,228z M332.9,240.5c-0.1-0.6-0.1-1.1-0.1-1.7v-4c0-0.3,0-0.7-0.1-1
		c0.2,0.1,0.3,0.2,0.5,0.3c1.8,0.8,3.6,1.8,5.3,2.9l1.1-1.8c-2.2-1.2-4.5-2.3-6.8-3.2v-2.8c0-0.5,0-1.1,0.1-1.6h-2.1
		c0.1,0.5,0.1,1,0.1,1.5v9.6c0,0.6,0,1.1-0.1,1.7H332.9z M336,229c0.6,0.7,1.2,1.4,1.6,2.2l1-0.6c-0.4-0.8-1-1.5-1.6-2.2L336,229z
		 M340.4,229.7c-0.4-0.8-0.9-1.5-1.6-2.1l-1,0.5c0.6,0.7,1.1,1.4,1.5,2.2L340.4,229.7z M346.9,235.1c0.8-0.1,1.6-0.1,2.4-0.1h8
		c0.8,0,1.6,0,2.4,0.1V233c-0.8,0.1-1.6,0.1-2.4,0.1h-8c-0.8,0-1.6,0-2.4-0.1L346.9,235.1z M373.5,231.3c0-0.2,0-0.2,0-1.2l0-0.9
		c0-0.5,0-1,0.1-1.4h-2.1c0.1,0.5,0.1,1,0.1,1.4v0.9c0,0.3,0,0.5,0,1.2h-3.8c-0.7,0-1.3,0-2-0.1v1.9c0.6-0.1,1.3-0.1,1.9-0.1h3.7
		c0,1-0.2,2.1-0.7,3c-0.8,1.4-2.1,2.4-3.6,2.9c0.6,0.4,1,1,1.4,1.6c1.6-0.7,2.9-1.9,3.8-3.4c0.7-1.3,1.1-2.7,1.1-4.2h3.1
		c0.6,0,1.3,0,1.9,0.1v-1.9c-0.6,0.1-1.3,0.1-1.9,0.1H373.5z M394.8,227.6c-0.6,0.3-1.2,0.5-1.8,0.7c-2.1,0.6-4.3,0.8-6.4,0.9
		c-0.2,0-0.5,0-0.9,0c0.3,0.5,0.4,1.1,0.6,1.6c1.4,0,2.8-0.1,4.2-0.3c0,1.1,0,1.6,0,2.3h-3.8c-0.6,0-1.2,0-1.8-0.1v1.8
		c0.6-0.1,1.2-0.1,1.8-0.1h3.7c0,0.3-0.1,0.7-0.2,1c-0.3,1-0.9,1.9-1.7,2.6c-0.7,0.6-1.5,1-2.3,1.3c0.5,0.4,1,1,1.3,1.6
		c0.5-0.2,1-0.5,1.4-0.8c1-0.6,1.8-1.4,2.4-2.4c0.6-1,0.9-2.1,1-3.3h3.3c0.6,0,1.2,0,1.8,0.1v-1.8c-0.6,0.1-1.2,0.1-1.8,0.1h-3.2
		c0-0.5,0-0.5,0-2.5c0.8-0.1,1.7-0.4,2.5-0.6c1.1-0.4,1.1-0.4,1.3-0.4L394.8,227.6z M411.9,238.5c0.3-1.3,0.4-2.4,0.6-4.1
		c0-0.6,0.1-1.2,0.3-1.7l-0.8-0.7c-0.4,0.1-0.7,0.2-1.1,0.1h-3.8c-0.5,0-0.9,0-1.4-0.1v1.7c0.4-0.1,0.9-0.1,1.3-0.1h3.7
		c-0.1,1.4-0.5,3.5-0.7,4.8h-4.4c-0.5,0-0.9,0-1.4-0.1v1.7c0.5,0,0.9-0.1,1.4-0.1h7.8c0.5,0,0.9,0,1.4,0.1v-1.7
		c-0.5,0.1-0.9,0.1-1.4,0.1H411.9z"/>
	<g id="グループ_277" transform="translate(173.815 154.773)">
		<path id="パス_301" class="st1" d="M128.1,27.7c-0.2-0.1-0.3,0-0.3,0.1h0.3V27.7z"/>
		<ellipse id="楕円形_45" class="st1" cx="79" cy="29.4" rx="0.1" ry="0.2"/>
		<path id="パス_302" class="st1" d="M294.9,37.5h-0.1l0.1,0.1V37.5z"/>
		<path id="パス_303" class="st1" d="M259.2,3L259.2,3C259.2,3.1,259.2,3.1,259.2,3z"/>
		<path id="パス_304" class="st1" d="M259.1,3.2L259.1,3.2C259.1,3.1,259.1,3.1,259.1,3.2z"/>
		<path id="パス_305" class="st1" d="M264.6,46.3v-0.1c-0.1,0-0.2,0-0.3,0.1c0,0,0,0,0,0h-0.1v-0.1l-0.9,0.1V46l-0.7,0.1V46h-0.4
			v-0.1H262V46c-0.3,0-0.3-0.1-0.3-0.1l-0.4,0.1v-0.1H261v-0.1h-1.2v-0.1h-0.7v-0.1c-0.3,0-0.2,0.1-0.3,0.1h-0.1
			c0.1-0.3,0.1-0.2,0-0.6h-0.1l0.1-0.9h-0.3l0.4-0.7h-0.1v-0.1h0.1l-0.1-0.6h-0.1l0.1-0.4h0.1c0-0.6,0.1-1.3,0.1-1.9
			c0.1-0.1,0.2-0.2,0.3-0.3h-0.3l0.1-0.7c0-0.2-0.1,0.1-0.1-0.1l0.3-0.1c0-0.2-0.3-0.3-0.1-0.6h0.1v-0.3h0.1l-0.1-0.4h-0.1
			c0-0.2,0.1,0.1,0.1-0.1v-0.4h0.1c0.1-0.5-0.2-0.7-0.1-1h0.1c0-0.3,0.1-0.6,0.1-0.9h0.1l-0.1-0.4c-0.3-0.1-0.1,0-0.3-0.1h0.3v-0.3
			h0.1v-0.1h-0.1l0.1-0.4h-0.3v-0.4h0.3c0.2-0.1-0.1-0.1-0.1-0.1v-0.4h-0.1v-0.1h0.1c0-0.3,0.1-0.7,0.1-1c0,0-0.2,0-0.1-0.3
			c0.1-0.1,0.2-0.3,0.1-0.4l-0.3-0.1c0-0.4,0.1-0.8,0.1-1.2c0.3-0.1,0.1,0,0.3-0.1h-0.3l0.3-1.3h-0.3c0-1.5,0.3-2.2,0.4-3.7h-0.4
			v-0.1h0.1c-0.1-0.2-0.1-0.5,0-0.7l0.3-0.1l-0.1-0.9l-0.3-0.1l0.1-0.4h0.1c-0.1-0.2-0.1-0.4-0.1-0.6c0.3-0.1,0.1,0,0.3-0.1h-0.3
			c0-0.2,0.1-0.4,0.1-0.6h-0.1v-0.6c0,0,0.2-0.1,0.1-0.4h-0.1v-0.1c0.1-0.1,0.2,0,0.1-0.3l-0.3-0.1v-0.1h0.1l-0.1-0.3h0.3V18
			c0-0.1-0.4,0-0.3-0.4c0,0,0.5-0.4,0.4-0.6l-0.3-0.1c-0.1-0.3,0.2-0.4,0.1-0.6h-0.1v-0.6c0-0.2-0.2,0.1-0.1-0.1l0.3-0.1V15h-0.3
			c0.2-0.5,0.2-1.1,0.1-1.6c0,0-0.2,0-0.1-0.3c0.1-0.1,0.2-0.2,0.1-0.3c-0.1-0.2-0.2,0.1-0.1-0.1h0.1l0.1-0.7h-0.3l0.1-0.3h-0.3
			c0.2-0.5,0.4-1,0.4-1.5h-0.3V9.9l0.3-0.1V9.6h-0.1l0.1-0.9h-0.1V8.6h0.1V8.4h-0.1l-0.3-0.9l0.3-0.1c0.1-0.2,0-0.4-0.1-0.4
			c0-0.5-0.1-1.1-0.1-1.6h0.1V5.1h0.1c-0.1-0.5,0-0.5-0.4-0.6l0.1-0.6h0.1l-0.1-0.1l0.1-0.1l-0.1-0.3h0.1V3.2L259.2,3
			c0,0.1-0.1,0.1-0.1,0.1l-0.1,0.1c0-0.1,0.1-0.1,0.1-0.1l0.1-0.1V2.6h0.1c0-0.3,0-0.4-0.1-0.6h-0.3c-0.1-0.1,0.3-0.3,0.1-0.6h-0.1
			l-0.4-0.6c-0.5,0.1-0.5,0.1-0.7,0.4h-0.1v0.1h0.3c0,0,0,0.6-0.1,0.3V1.5h-0.1L257.5,2h0.3v0.1h-0.4c0.1,0.2,0.3,0.2,0.3,0.3
			L257,4.3h0.4c0,0.3-0.1,0.6-0.1,0.9h0.1v0.1h-0.1v0.1c0.1,0.2,0.2-0.1,0.1,0.1h-0.1v0.3l0.1,0.4l-0.1,0.1c0,0.3,0.2,0.4,0.1,0.6
			h-0.1c-0.2,1.1,0.4,0.9-0.1,1.8l0.4,0.1c0.1,0.3-0.3,0.5-0.3,0.7c0.3,1.3,0.3,2.5,0.1,3.8h-0.1v0.1h0.1l0.1,0.3h-0.1
			c-0.1,0.2-0.2,0.5-0.1,0.7h0.3c-0.1,0.5-0.1,1,0,1.5h-0.3c0,0.3,0,0.6,0.1,0.7h0.3l-0.1,0.4c0,0-0.6,0-0.3,0.1h0.3l-0.1,0.7h0.1v1
			h-0.1c0,0.2,0.2,0.2,0.1,0.6c0,0-0.2,0.1-0.1,0.4h0.1l-0.1,0.4l0.1,0.4h-0.1v0.4h0.3c-0.1,0.2-0.2,0.5-0.1,0.7h-0.3v0.1
			c0.2,0,0.3,0.5,0.3,0.7h-0.1c0,0.2,0.2,0.2,0.1,0.6c-0.1,0.1-0.2,0.3-0.1,0.4c0.1,0.1,0.2,0.3,0.1,0.4c0,0-0.2,0-0.3,0.4h0.3v0.3
			h-0.1l0.1,0.3h-0.1v0.1c0.1,0,0.2,0.1,0.2,0.3c0,0,0,0,0,0l-0.3,0.1v0.4c0.2-0.1,0.3-0.2,0.4-0.3h0.1l-0.1,0.4h-0.1v0.4l-0.3,0.1
			c0,0.1,0,0.2,0.1,0.3c0,0,0,0,0,0c0,0.2-0.1,0.5-0.1,0.7h-0.1c0.1,0.3,0.1-0.1,0.3,0.1l-0.1,0.1c0,0.2,0.2,0.2,0.1,0.6h-0.1v0.1
			c0.1,0,0.2,0.2,0.1,0.3h-0.1v0.7h0.1v0.6h-0.1l0.1,0.4h-0.1v0.7h0.1l-0.1,0.4h0.1V33h-0.1v0.3h-0.1c0,0,0.3,1.2,0.3,1.2h-0.3
			c0.2,0.2,0,0.1,0.3,0.1c0,0.3-0.1,0.7-0.1,1h-0.1l0.1,0.4h-0.1v1.6H257v0.4h-0.1c0,0.2,0.3,0.4,0.1,0.7l-0.3,0.1l0.1,0.3h-0.1
			c0,0.2,0.1,0.3,0.1,0.3c0,0.4,0,0.8-0.1,1.2c0.3,0.1,0.1,0,0.3,0.1l-0.4,0.1v0.6h0.3l-0.3,0.4h-0.1c0.1,0.3,0.2,0.7,0.1,1
			l-0.3,0.1l0.3,1.3h-0.1v0.3h-0.1l0.1,0.7l-0.3,0.1l0.3,0.9h0.1l-0.1,0.3h0.1l0.1,0.3h0.3v0.1h1l-0.1,0.3c0.5-0.1,0.3-0.1,0.7,0
			v0.1l0.4-0.1v0.1h0.4v0.1c0.2,0,0.3-0.3,0.6-0.1l0.1,0.3l0.3-0.1v0.1c0.2,0,0.2-0.2,0.6-0.1v0.1h0.6v-0.1h0.1v0.3l0.3-0.1
			c0.2,0.1-0.1,0.2,0.1,0.1v-0.1c0.4,0,0.3,0.1,0.4,0.3c0,0,0.6,0,0.3-0.1h-0.1v-0.1l0.4,0.1v0.3c0.6-0.1,0.4-0.2,0.9-0.3
			c0.1,0.3,0,0.1,0.1,0.3v0.1h0.1v-0.3l1.3,0.3l0.1-0.3c0.2-0.1,0.2,0.3,0.3,0.3l0.3-0.1c0.2,0.1,0.2,0.4,0.4,0.4v-0.1
			c0.1,0,0.6-0.1,0.6-0.1l0.1,0.3l0.4-0.1V49h1c0,0,0-0.2,0.3-0.1l0.1,0.3l0.7,0.1v-0.1l1.5,0.1v-0.1c0.1,0,0.2,0,0.3,0.1h0.1v-0.1
			h0.6c0.2,0.4,0.8,0.2,1.3,0v0.3l0.4-0.1v0.3h0.1v-0.3h0.3v0.3h0.1c0-0.1,0.2-0.2,0.3-0.1c0.1,0,0,0.2,0.3,0.1v-0.1l0.4-0.1v0.1
			c0.2,0,0.4,0.1,0.6,0.1v-0.3h0.3v0.3h0.6c0.2,0-0.1,0.1,0.1,0.1c0.1-0.1,0-0.2,0.3-0.1v0.1c0.2,0,0.2-0.2,0.6-0.1v0.1h0.4v0.1
			l1-0.1v-0.3c0.4-0.1,0.3-0.2,0.7-0.3c0-0.6-0.2-0.5,0.1-0.7v-0.1h-0.4l-0.1-0.4l-0.6-0.1v-0.1c-0.5-0.2-0.9,0.2-1.2,0.1v-0.1h-0.3
			v-0.1h-0.9v-0.1h-0.1c0,0.1-0.2,0.2-0.3,0.1v-0.1H277v0.1h-0.3v0.1l-0.7-0.4l-0.1,0.3h-0.7v-0.3c-0.1,0.2-0.4,0.1-0.6,0.1v0.1
			h-0.1v-0.4c-0.1,0.1-0.2,0.2-0.3,0.3l-0.4-0.1v0.1h-0.4v-0.1H273v0.1c-0.3,0-0.6-0.1-0.9-0.3c-0.1,0,0.1,0.1-0.1,0.3v-0.3h-0.4
			v0.3c-0.3-0.2,0-0.2-0.1-0.3c-0.1-0.1-0.3,0.3-0.6,0.1l-0.1-0.3c-0.1,0-0.2,0-0.3,0.1c0,0,0,0,0,0c-0.1,0-0.2,0-0.3-0.1l-0.3,0.1
			l-1-0.1c0,0-0.1,0.2-0.3,0.1v-0.1c-0.3-0.1-0.4,0.2-0.6,0.1v-0.1l-0.7-0.1v-0.1l-0.7,0.1v-0.1h-0.1v0.1c-0.2,0,0.1-0.1-0.1-0.1
			h-0.4v-0.1c-0.2,0-0.4,0.3-0.7,0.1v-0.1L264.6,46.3z"/>
		<path id="パス_306" class="st1" d="M16.8,47.9c0.5-0.4,0.3,0.3,0.4,0.6l0.4,0.1c-0.2,0.3-0.1,0.2,0,0.6c0.3,0.1,0.1,0,0.3,0.1
			c0.2,0.2,0,0,0,0.3h0.1c0.2,0.2,0.3,0.5,0.3,0.7h0.3l-0.1,0.4L19,51v0.6h0.3c0,0.3,0,0.4,0.1,0.6h0.1v0.4h0.1l0.1,0.4h0.3
			c0.1,0.3,0.2,0.5,0.3,0.7l0.4,0.1v-0.1h0.1V54c1,0,0.6,0,1-0.6l0.4-0.3l-0.1-0.3h0.3c-0.4-0.6-0.3-0.4,0-1l-0.1-0.3l0.3-0.1v-0.4
			H23l0.1-0.4h-0.3l0.1-0.3h0.3c-0.2-0.2-0.2-0.5,0-0.7h0.1v-0.6h0.1c0.1-0.2,0.2-0.5,0.1-0.7H24v-0.6h-0.1v-0.1l0.4-0.1
			c-0.1-0.5,0-0.1,0.1-0.7h0.3L24.4,46l0.4-0.1l0.1-1.3l0.3-0.1V44c0.3-0.6,0.3-0.6,0.1-1.2h0.3c0-0.3,0-0.5,0.1-0.7h0.1v-0.4h0.1
			V41l0.3-0.1v-0.7c0,0,0.1,0,0.1-0.3c0-0.2-0.2,0.1-0.1-0.1h0.1v-0.3h0.1v-0.3h0.1c0.2-0.5,0.4-1,0.4-1.5h0.3l-0.1-0.4h0.1l0.1-0.7
			h0.3l0.1-0.6h0.1v-0.4h0.1c0.2-0.2,0.3-0.5,0.3-0.7h0.3l0.1-0.7c0-0.2-0.2,0-0.1-0.1c0,0,0.2,0,0.3-0.4c0,0,0.6,0,0.3-0.1h-0.1
			v-0.1h0.3v-0.3h-0.3c-0.1-0.1,0.4-0.3,0.4-0.3l0.1-0.6l0.3-0.1v-0.3h0.1v-0.3c0.1-0.1,0.2-0.1,0.3-0.3h-0.3c0.1-0.4,0-0.3,0.4-0.4
			V30c0,0,0.5,0,0.3-0.1c-0.1-0.2-0.2,0.1-0.1-0.1h0.1v-0.1h-0.2c0,0,0-0.6,0.1-0.3v0.1h0.1c0.1-0.2,0.1-0.4,0.1-0.6
			c-0.3-0.1-0.1,0-0.3-0.1l0.6-0.1l0.3-1.8l0.4-0.3c0.2-0.5-0.4-0.5-0.3-0.7h0.1v-0.3l0.4-0.3l-0.1-0.6h0.1v-0.4l0.3-0.1
			c0-0.2-0.4-0.1-0.3-0.3l0.4-0.1c-0.1-0.2-0.2-0.4-0.1-0.6h0.3c0.1-0.3,0.1-0.2,0.1-0.3l-0.1-0.1v-0.1h0.1V22h0.1v-0.3H34
			c0-0.2-0.3-0.3-0.1-0.6l0.3-0.1v-0.3h0.1V20h0.1v-0.1c0,0-0.2-0.1-0.1-0.3h0.1v-0.3h0.1c0.1-0.4,0.2-0.8,0.3-1.2H35V18h-0.1
			c0-0.2,0.3-0.5,0.1-0.9h-0.1V17l0.3-0.1c0.1-0.3-0.2-0.5-0.1-0.6l0.4-0.3c0.1-0.3-0.2-0.6-0.1-0.7h0.1v-0.3h0.1v-0.6h0.1l-0.1-0.4
			c0-0.5,0.1-0.9,0.3-1.3h-0.3c0.1-0.3,0.1-0.7,0-1h0.3c0-0.2-0.3-0.7-0.3-0.7h0.1v-0.7h0.1V8.4H36V8.3h-0.1V8h-0.1V7.9H36V7.7h-0.1
			V7.3h-0.1C35.8,7,36,7,36,7l-0.1-1.2c0-0.1,0.2-0.5,0.3-0.9h-0.3V4.6l0.3-0.1L36,4l0.1-0.3l-0.3-0.1c-0.1-0.2,0,0,0.1-0.1
			c0-0.4-0.1-0.4-0.1-0.4L36,2.1C35.4,2,35.8,2,35.6,1.5h-0.1c0,0.1,0.1,0.5-0.1,0.3V1.7c0,0-0.6,0-0.3-0.1h0.3V1.4l-0.7,0.1V1.4
			c-0.3,0-0.5,0-0.7,0.1v0.9h-0.1v0.1h0.1v1.6c0,0,0.2,0,0.1,0.3c0,0.2-0.2-0.1-0.1,0.1S34,4.6,34,4.8c-0.1,0.2-0.2-0.1-0.1,0.1H34
			v0.7h-0.1L34,6.4h-0.1v0.3h-0.1c0,0.2,0.2,0.3,0.1,0.6h-0.1v0.4h-0.1c-0.1,0.5,0.3,0.5,0.3,0.6v0.1h-0.1v0.4h-0.1V9h0.1v1.2h-0.3
			v0.3l0.3,0.1c0.1,0.3-0.2,0.4-0.1,0.6c0.1,0.1,0.2,0.2,0.1,0.3h-0.1v0.1h0.1v0.6h-0.1v0.4h-0.1l-0.1,0.4l0.4,0.1v0.1h-0.3v0.1h0.1
			v0.1h-0.1c-0.1,0.2,0,0.3,0.1,0.4l-0.1,0.9l-0.3,0.1c0.1,0.1,0.2,0.1,0.3,0.3h-0.3l0.1,0.4l-0.3,0.1v0.6h-0.1v0.7h0.1
			c0,0.2-0.1-0.1-0.1,0.1v0.6h-0.4c0,0.7,0.2,0.9-0.1,1.5l-0.3,0.1l0.1,0.1l-0.1,0.9h-0.1v0.3h-0.1v0.9h-0.1
			c-0.1,0.1-0.4,0.6-0.3,0.7h0.1c0,0,0,0.5-0.1,0.3v-0.1c-0.2,0.1-0.2,0.1-0.3,0.3h-0.1v0.1c0.2,0.2,0.2,0.3,0.4,0.4
			c-0.2,0.2-0.4,0.4-0.6,0.6l0.1,0.4l-0.1,0.1h0.1V25l-0.3,0.1l-0.1,1.5L30,26.8v0.4h-0.1v0.3h-0.1v0.7l-0.6,0.3l0.1,0.4L29,29.1
			v0.4h-0.1v0.3h-0.1v0.7c-0.3,0.7-1.2,0.9-0.9,1.8h-0.3v0.3h-0.3c0,0.3,0,0.5-0.1,0.7h-0.1c-0.1,0.3,0.2,0.5,0.1,0.6h-0.3l-0.3,0.4
			h0.1l-0.1,0.4h-0.3V35h0.1v0.1L26,35.3v0.6L25.8,36v0.3c-0.1,0.1-0.3,0.1-0.3,0.3c0,0,0.3,0.1,0.1,0.3c0,0.1-0.2,0-0.3,0.4H25v0.9
			l-0.3,0.1V39l-0.3,0.1c-0.1,0.2,0.1,0.1,0.1,0.1l-0.1,0.3h0.1v0.1h-0.3L24.1,40H24v0.1h0.1L24,41.5l-0.3,0.1v0.3h-0.1
			c-0.1,0.2,0.2,0.1,0.3,0.3l-0.3,0.1l-0.1,0.9h-0.1v0.4h-0.1l0.1,0.4h-0.1v0.3l-0.4,0.3v0.4l-0.3,0.1V46h-0.1v0.3h-0.1v0.4
			l-0.3,0.1l-0.1,0.6h0.1v0.1l-0.3,0.1c-0.1,0.3,0.1,0.4,0.1,0.6l-0.4,0.3l-0.1,1.2c-0.2-0.1-0.4-0.2-0.6-0.4h-0.3v-0.1h0.1
			c0-0.3-0.1-0.5-0.3-0.7h-0.1v-0.3h-0.3c0-0.2-0.1-0.4-0.1-0.6l0.1-0.1h-0.3v-0.3h-0.4c-0.1-0.6-0.2-0.6-0.3-1.2l-0.4-0.1L18,45.4
			h0.3v-0.1h-0.1c-0.1-0.2-0.2-0.4-0.3-0.6h-0.3c-0.1-0.6-0.2-0.4-0.3-1h-0.3v-0.4h0.1v-0.1h-0.4c0.1-0.4,0.1-0.8,0-1.2h-0.3
			l-0.3-1.3c0,0-0.6,0-0.3-0.1h0.1v-0.1h-0.3c0-0.2,0.1-0.4,0.1-0.6l-0.3-0.1l-0.3-1.3c-0.1,0.1-0.1,0.2-0.3,0.3v-0.3h-0.1
			c-0.1-0.3,0.2-0.4,0.3-0.4v-0.1h-0.4c-0.1-0.3-0.1-0.7,0-1h-0.4l0.1-0.7h-0.1L14,35c-0.3-0.1-0.1,0-0.3-0.1h-0.1
			c-0.2-0.3,0.1-0.4,0.1-0.6L13.3,34c-0.1-0.2,0.1-0.1,0.1-0.1L13.3,33l-0.6-0.3v-0.6c-0.1-0.1-0.3-0.2-0.4-0.4
			c0.1-0.2,0.1,0.1,0.1-0.1c-0.1-0.1-0.4-0.1-0.3-0.4h0.1v-0.1h-0.4l-0.3-1.3h-0.3v-0.7c-0.3-0.1-0.1,0-0.3-0.1h-0.1l0.1-0.3h-0.3
			L10.5,28h0.1v-0.4h-0.1v-0.1h0.1v-0.3c-0.3,0.1-0.1,0-0.3,0.1h-0.1c0.1-0.3,0.1-0.7,0.1-1H10c-0.1-0.3-0.1-0.6,0-0.9H9.9
			c-0.3-0.5-0.3-0.2-0.1-0.7H9.5v-0.3H9.2c-0.2-0.1,0.1-0.1,0.1-0.1C9.3,23.8,9,23.8,9,23.6c0.1-0.1,0.1,0.1,0.1-0.1H8.9
			c-0.1-0.6-0.5-0.9-0.6-1.5H8v-0.6H7.7c-0.2-0.1,0.1-0.1,0.1-0.1c-0.1-0.4-0.3-0.3-0.3-0.6c0.1-0.2,0.1,0.1,0.1-0.1H7.4v-0.3H7.1
			l0.1-0.6c-0.4-0.1-0.4-0.3-0.7-0.4v-0.3H6.4c0-0.2,0.1,0.1,0.1-0.1v-0.6L6.1,18c0-0.3-0.1-0.5-0.3-0.7H5.6L5.8,17l-0.3-0.1
			l-0.1-0.9H5c0-0.2,0.1-0.4,0.1-0.6c0,0-0.5-0.2-0.4-0.4c0.1-0.1,0.2-0.2,0.1-0.3c-0.3-0.1-0.1,0-0.3-0.1H4.5v-0.7
			c-0.2-0.4-0.5-0.4-0.6-0.9H3.6V12c-0.2,0.3-0.3,0.1-0.4-0.1H3c0.1-0.3,0.2-0.6,0.1-0.9H2.6c0,0,0.2-0.5,0.1-0.7L2.3,9.9V9.2
			c0,0-0.1,0-0.1-0.3l0.4-0.1C2.7,8.8,2.6,9,2.9,9V8.9c0.3-0.1,0.1,0,0.3-0.1h0.1V8.3h0.1C3.3,7.9,3.4,8,3.1,7.9V7.7H3
			C2.8,7.9,2.9,7.8,2.6,7.9V8L2.3,7.9L2.1,8.3C1.8,8.2,2,8.3,1.8,8.1H1.5c0.1,0.1,0.2,0.2,0.3,0.3v0.1H1.4v0.3L0.9,8.7V9H0.6
			c0,0.2,0.1,0.4,0.1,0.6c-0.1,0.1-0.2,0-0.1,0.3h0.1c0,0.2-0.2,0.4-0.1,0.7h0.1l0.1,0.9h0.3v0.1H1.1c0,0.3,0.1,0.5,0.3,0.7h0.1v0.4
			h0.6V13H1.8v0.3h0.3L2,14h0.1l0.1,0.7h0.1l0.1,0.6h0.1v0.6L3,15.8v0.7l0.4,0.3v0.7h0.1c0.2,0.2,0.3,0.6,0.3,0.9h0.3v0.1
			C4,18.6,3.9,18.8,4,19h0.1v0.1h0.4c0,0.4,0.1,0.8,0.3,1.2h0.3l-0.1,0.3c0.2,0.3,0.3,0.7,0.4,1h0.3c0.1,0.6,0.3,0.5,0.3,1.3
			c0.3,0.1,0.1,0,0.3,0.1h0.1l-0.1,0.4l0.3,0.1C6.9,24,7,24.4,7,24.7l0.4,0.1l0.1,0.9h0.3v0.9H8c0.1,0.2-0.1,0-0.1,0.1
			c0,0.4,0.1,0.3,0.4,0.4v1l0.4,0.3c0,0.1,0,0.2-0.1,0.3c0,0,0,0,0,0l0.1,0.6H9l0.1,0.9h0.3l0.1,1h0.3c0.2,0.1-0.1,0.1-0.1,0.1
			c0,0.3,0.2,0.1,0.4,0.1l0.1,1.2h0.3c0,0.4-0.2,0.3,0,0.6h0.1v0.1h0.3c-0.1,0.1-0.1,0.3-0.1,0.6h0.3l0.1,0.6h0.1l-0.1,0.7h0.4
			c0,0.3,0,0.7,0.1,1l0.3,0.1l-0.1,0.4l0.3,0.1l0.1,0.4h0.1l-0.1,0.6h0.1c0.2,0.4,0.3,0.8,0.3,1.2l0.4,0.1c-0.1,0.3-0.1,0.4-0.3,0.6
			c0.2,0.2,0,0.1,0.3,0.1v0.4h0.3c0,0.2,0,0.4,0.1,0.6H14l-0.1,0.4H14c0.1,0.4,0,0.3,0.4,0.4v0.3h-0.1l0.3,0.9h0.1l-0.1,0.3h0.3v0.7
			h0.3v0.4h0.3l0.3,1.3l0.4,0.1l0.1,0.7C17.1,47.2,16.5,47.2,16.8,47.9z"/>
		<path id="パス_307" class="st1" d="M182.4,34.6h-0.3v0.9H182v0.3h-0.1l0.1,0.9h-0.1c-0.2,0.2-0.5,0.2-0.4,0.6l0.1,0.1h-0.3
			l-0.1,0.6c0,0,0.2,0,0.1,0.3h-0.1v0.3H181c-0.1,0.3,0.2,0.4,0.1,0.6l-0.3,0.1c0,0.4-0.1,0.8-0.1,1.2l-0.3,0.1
			c0,0.4-0.1,0.9-0.1,1.3h-0.3l0.1,0.6h-0.1c-0.1,0.4-0.2,0.3,0.1,0.6v0.6l0.3-0.1l0.3,0.4c0.4,0.3,1,0,1.5-0.1
			c0-0.9,0.4-1.1,0.1-1.9h0.3v-0.7l0.3-0.1l-0.1-0.9c0.3-0.1,0.1,0,0.3-0.1h0.1l-0.1-0.6l0.3-0.1l-0.1-0.7c0.3-0.1,0.1,0,0.3-0.1
			h0.1c0-0.1-0.1-0.3-0.1-0.4l0.4-0.3l-0.1-0.7h0.1v-0.3h0.1l-0.1-0.4l0.3-0.1v-0.3h0.1c0.1-0.2-0.2-0.5-0.1-0.6l0.6-0.1
			c-0.4-0.3,0.1-0.9,0.1-1.5h0.3v-0.9l0.3-0.1v-0.6l0.6-0.4c0.1-0.1-0.3-0.3-0.1-0.6h0.1v-0.3h0.1c0.2-0.4,0-0.4,0-0.6h0.1v-0.4h0.4
			l0.1-0.9h-0.1v-0.1l0.4-0.3l0.1-1c0,0,0.6,0,0.3-0.1h-0.1v-0.1h0.3c0-0.2,0-0.4,0.1-0.6h0.1v-0.1H188c0-0.2,0.2-0.2,0.3-0.3v-0.7
			h0.4c0-0.7,0.2-0.6,0.4-1h0.1l-0.1-0.4l0.3-0.1v-0.4l0.4-0.1v-0.4l0.4-0.1l-0.1-0.6h0.1c0.1-0.2,0,0,0.1-0.1V22
			c0.4,0.1,0.9,0.1,1.3,0c-0.2,0.2,0,0.1-0.3,0.1v0.1l0.9-0.1v0.1h0.4v0.1l0.4-0.1v0.1h0.1c0-0.1,0.2-0.3,0.3-0.3l0.1,0.3h0.3v0.1
			h0.7v0.1h0.6v0.1h0.1v-0.3h0.4v0.3l0.7,0.1v-0.1h0.6V23c0.4,0.1,0.9,0.1,1.3,0v0.3l0.4-0.1v0.1c0.4,0,0.9-0.1,1,0.1l-0.1,0.4h0.3
			V25l0.3,0.1c-0.1,0.3-0.2,0.2,0,0.6h0.1l-0.1,0.1l0.1,0.3h-0.1v0.1l0.4,0.1l-0.3,0.4h0.3c-0.1,0.2-0.1,0.4-0.1,0.6h0.3l0.1,1
			c0,0.2-0.1-0.1-0.1,0.1l0.3,0.1v0.6l0.3,0.1c0.1,0.3-0.2,0.3-0.3,0.4v0.1h0.6c-0.1,0.3-0.2,0.2-0.3,0.6h0.3l-0.1,0.4h0.3
			c-0.3,0.2,0,0.8,0.1,1h0.1v0.4h-0.1l0.1,0.4c0,0,0.6,0,0.3,0.1h-0.1V34l0.3-0.1c-0.1,0.2-0.3,0.3-0.1,0.6l0.3,0.1v0.6h0.1v0.7h0.1
			l0.1,1.3l0.3,0.1c0.2,0.4,0,1,0,1.2l0.3,0.1l0.1,0.9h0.1v0.3h0.1l-0.1,0.4l0.3,0.1l-0.1,0.3h0.1V41h0.1l-0.1,0.6h0.1l0.1,0.6h0.1
			l0.1,0.4c0.3,0,1,0.2,1,0.1l0.1-0.3l0.1,0.1l0.4-0.1c-0.1-0.4-0.1-0.8,0-1.2h0.1c0.1-0.5-0.4-0.3-0.3-0.7l0.1-0.1h-0.3
			c0-0.6-0.1-0.8,0-1.2h-0.3l-0.1-0.6h-0.1l0.1-0.4h-0.3l0.1-0.4h-0.1v-0.3h-0.1v-0.4h-0.1c0-0.4-0.1-0.8-0.1-1.2h-0.1v-0.6
			l-0.3-0.1v-0.9c0,0-0.1,0-0.1-0.3c0.3-0.1,0.1,0,0.3-0.1c-0.3-0.1-0.3,0-0.4-0.3h-0.1v-0.1h0.1l0.1-0.3h-0.3c0-0.3,0-0.5,0.1-0.7
			l-0.4-0.3c-0.1-0.4-0.1-0.8,0-1.2v-0.1H204l0.1-0.4H204l0.1-0.3l-0.4-0.1c0.1-0.2,0.1-0.4,0.1-0.6h-0.3c0.1-0.4,0.2-0.3,0.3-0.6
			l-0.4-0.1V28c0-0.2-0.1,0.1-0.1-0.1c0-0.1,0.3-0.1,0.1-0.4l-0.4-0.3c0,0,0.2-0.6,0.1-0.9l-0.3-0.1l0.1-0.6l-0.4-0.1l0.1-0.7h-0.1
			v-0.4l-0.3-0.1l0.1-0.4l0.9-0.1v0.3h0.1c0-0.2,0.5-0.2,0.7-0.1c0,0,0,0.1,0.3,0.1v-0.3c0.2,0.1,0.4,0.2,0.6,0.1v-0.1l1.8,0.3v-0.1
			l0.6,0.1v-0.1h0.6v0.1h0.1c0-0.1,0.1-0.2,0.3-0.2c0,0,0,0,0,0l0.1,0.3l0.4-0.1l0.1,0.3c0.4-0.1,0.1-0.2,0.7-0.3l0.1-0.4h0.3V23
			c-0.3-0.1-0.1,0-0.3-0.1h0.3l-0.1-0.4H210c-0.1-0.2,0.1-0.1,0.1-0.1v-0.1H210v-0.3c-0.1,0.2-0.5,0-0.9,0l-0.1-0.4l-1.2,0.1v0.1
			l-0.4-0.1v-0.1l-0.4,0.1v-0.1l-0.4,0.1l-0.1-0.3c-0.2,0-0.3,0.3-0.3,0.3h-0.7v0.1h-0.1v-0.1l-0.7-0.1c0.1,0.1,0.2,0.1,0.3,0.3
			l-0.4-0.1v-0.1H204v-0.1l-1.5,0.3v-0.3l-0.4,0.1c-0.1,0,0-0.2-0.4-0.3c0-0.5-0.1-1-0.1-1.5h-0.3c0.3-0.1,0.1-0.7,0.1-1.2
			c-0.3-0.1-0.1,0-0.3-0.1h-0.1l0.1-0.9l-0.3-0.1l0.1-0.9h-0.1v-0.3h-0.1v-0.6h0.1c0-0.2-0.1-0.2-0.1-0.6h-0.4
			c0.2-0.3,0.2,0,0.3-0.1v-0.1c-0.2-0.1-0.2-0.6-0.1-0.9h0.1v-0.1l-0.4-0.3c0.1-0.2,0.1-0.4,0.1-0.6l-0.4-0.1c0.1-0.5,0.1-1,0-1.5
			l-0.3-0.1c0-0.4-0.1-0.9-0.1-1.3H199V9h-0.3V8.3h-0.1l0.1-0.7h-0.4c0.2-0.8-0.4-1.3-0.6-2.1c-0.1-0.3,0.2-0.8,0.1-0.9l-0.3-0.1V4
			c-0.1,0-0.4,0.1-0.3-0.1h0.1V3.7h-0.1c-0.2-0.7-0.1-0.2-0.6-0.4L196.5,3l-0.9,0.1V3h-0.1v0.4c-0.1,0.1-0.4,0-0.3,0.4
			c0,0,0.2,0.1,0.1,0.3c0,0.1-0.3,0.1-0.3,0.3h0.1l0.1,0.4h-0.3l-0.1,0.6h-0.1l0.1,0.3h-0.1v0.3h-0.1v0.3l-0.4,0.3v0.4l-0.3,0.1v0.1
			h0.1c0,0.4-0.2,0.4-0.4,0.6c0.1,0.1,0.2,0.2,0.3,0.3l-0.4,0.6h-0.1l0.1,0.3l-0.6,0.3c0.4,0.8,0.3,0.6-0.1,1.3h-0.3
			c0.1,0.3,0,0.1,0.1,0.3c0,0.1,0.1,0.6-0.1,0.4v-0.1h-0.1l-0.1,0.4h0.3c-0.2,0.4-0.4,0.8-0.6,1.2h-0.3v0.9l-0.3,0.1l0.1,0.3h-0.3
			l-0.1,0.9l-0.4,0.1v0.3h0.1c-0.1,0.2-0.1,0.4-0.1,0.6h-0.3l-0.1,0.7l-0.3,0.1l0.1,0.3h-0.1v0.3h-0.1l0.1,0.3
			c-0.1,0.1-0.3,0.1-0.3,0.3h0.1v0.1h-0.3c-0.1,0.3-0.1,0.7-0.1,1l-0.9-0.1V19c-0.4,0-0.4,0.2-0.9,0v-0.1l-0.3,0.1
			c0-0.1,0.1-0.5-0.1-0.3l-0.1,0.4c-0.3,0.1-0.4-0.2-0.6-0.1v0.1c-0.4,0.1-0.1,0.1-0.4,0c-0.1,0.2,0,0-0.1,0.1
			c0,0.3,0.1,0.3,0.1,0.3c0.1,0.4-0.3,0.3,0,0.6h0.3l-0.1,0.3h0.3l0.1,0.3h0.1l-0.1,0.3l0.4-0.1v0.1h0.3v0.1l0.6-0.1v0.4
			c0.3-0.1,0.1,0,0.3-0.1h0.1c-0.1,0.2-0.3,0.2-0.4,0.4c-0.2,0.1,0,0-0.1,0.1h0.3c-0.1,0.3-0.3,0.6-0.4,0.9h-0.3
			c-0.1,0.8-0.4,0.9-0.4,1.6c-0.3,0.1-0.1,0-0.3,0.1h-0.1v0.6l-0.4,0.3l0.1,0.4h-0.1c-0.2,0.4-0.4,0.8-0.7,1c0,0,0,0.6,0.1,0.3v-0.1
			h0.1l-0.1,0.3c0.1,0.2,0.2-0.1,0.1,0.1h-0.1v0.3l-0.4,0.1v0.9c-0.3,0.1-0.1,0-0.3,0.1c-0.3,0.3-0.2,0.6-0.1,1c0,0-0.6,0-0.3,0.1
			h0.3v0.1h-0.4v0.7h-0.4v0.9l-0.3,0.1l-0.1,0.7l-0.3,0.1l0.1,0.4h-0.1v0.4h-0.3l-0.1,0.4h0.1L182.4,34.6z M190.9,19.5
			c0.2-0.1,0.4-0.1,0.6-0.1c0-1,0-0.5,0.4-1h0.1v-0.1h-0.4c0-0.1-0.1-0.4,0.1-0.3c0,0,0,0.3,0.1,0.1v-0.3l0.3-0.1
			c-0.1-0.2-0.1-0.5,0-0.7l0.3-0.1v-0.4h0.1l-0.1-0.3l0.3,0.1c0.2-0.3,0.7-0.9,0.3-1.3v-0.1h0.4v-0.1h0.1c-0.1-0.2-0.2-0.4-0.1-0.6
			c0.4-0.1,0.5-0.3,0.6-0.7h-0.3l0.3-0.9h0.4l-0.1-0.1V12h0.1c0.1-0.7,0.2-1.2,0.7-1.5v-0.1h-0.4v-0.1h0.6c-0.1-0.2-0.2-0.5-0.1-0.7
			h0.3c0-0.3,0-0.4,0.1-0.6h0.1l0.1-0.9c0.2,0.1,0,0,0.1,0.1h0.3c0.2,0.1-0.1,0.1-0.1,0.1v0.6c0.6,0.2,0.4,0.1,0.3,0.6h0.1v0.4
			c0.3,0.1,0.1,0,0.3,0.1h0.1c-0.2,0.3-0.2,0.7-0.1,1l0.3,0.1c0.1,0.4,0.2,0.8,0.1,1.2h0.3v0.4h-0.1c0.1,0.4,0,0.3,0.4,0.4
			c-0.1,0.3,0,0.3-0.3,0.4c0.1,0.1,0.2,0.2,0.3,0.3v0.7l0.3,0.1l-0.1,0.9h0.3c-0.5,0.2,0.4,1.2,0.3,1.3h-0.3c0.2,0.2,0,0.1,0.3,0.1
			l-0.1,0.4l0.3,0.1V18h-0.1c0,0.5,0,0.6,0.3,0.7c-0.2,0.2,0,0.1-0.3,0.1l0.4,0.9h-0.1V20h0.3c-0.1,0.2-0.1,0.4-0.1,0.6l0.1,0.1
			h-0.1v0.1l-0.3-0.1v0.1l-0.9-0.1v0.1H198v-0.1l-1.8-0.1v-0.1l-1.5-0.1v0.1h-0.1v-0.3c-0.1,0-0.3,0.2-0.6,0.1v-0.1l-0.4,0.1
			l-0.1-0.3l-0.6,0.1v-0.3c-0.4,0.2-0.9,0.2-1.3,0v-0.1c-0.2-0.1-0.3-0.1-0.6-0.1L190.9,19.5z"/>
		<path id="パス_308" class="st1" d="M116.3,25.5l0.4-0.1v0.3c0.5-0.1,0.4-0.3,0.9-0.4c0,0,0-0.6-0.1-0.3V25h-0.4l0.1-0.4l0.3-0.1
			c-0.1-0.2-0.1-0.4-0.1-0.6l-0.4-0.1c-0.1-0.3,0.1-0.1-0.1-0.3v0.1h-0.1v-0.1h-0.4v-0.3l-0.9-0.1v-0.1H115l-0.1-0.3h-0.3v-0.1
			c-0.3-0.1-0.6,0.2-0.7,0.1l-0.1-0.3l-0.1,0.1h-0.1v-0.1h-0.7v-0.1c-0.3-0.1-0.7,0.2-0.7,0.1v-0.1h-0.3l-0.1-0.3
			c-0.2-0.1-0.3,0.1-0.3,0.1l-0.3-0.1c-0.1,0.1-0.3,0.2-0.4,0.1v-0.1h-0.1v0.1h-0.1v-0.1h-1.9v-0.1l-1.5,0.1l-0.1-0.3l-0.7,0.3
			l-0.1-0.3h-1.2l-0.4-1h-0.4v0.1h-0.4l0.1-0.4l-0.6,0.4v0.4c-0.6,0.1-0.4,0.2-1,0.3v-0.4c-0.2,0.1-0.2,0.3-0.3,0.3
			c-0.2-0.1-0.2-0.3-0.3-0.3c-0.2,0,0.1,0.1-0.1,0.1h-1v-0.3l-1,0.3h-0.1v-0.3c-0.3,0.1-0.1,0-0.3,0.1c-0.1,0-0.6,0.1-0.4-0.1h0.1
			v-0.1c-0.4,0.1-0.3,0.2-0.7,0.3c-0.1-0.3,0-0.1-0.1-0.3v-0.1c-0.5,0.3-0.3-0.1-0.6,0v0.1h-0.9v-0.1l-0.1,0.1h-0.1v-0.1h-0.4v-0.1
			c-0.2,0.1-0.4,0.1-0.6,0.1v-0.3h-0.9V20h-0.1v0.1h-0.1V20h-0.1c0,0.1-0.2,0.2-0.3,0.1c0,0,0,0,0,0V20c-0.3-0.1-0.7-0.2-1-0.1v-0.3
			l-0.3,0.1v0.1h-0.1v-0.1l-1.3,0.1c-0.1,0.2-0.2,0.4-0.4,0.6c0.2,0.3,0.2,0.3,0.3,0.7l0.9,0.3v0.3c0.1,0.1,0.1-0.1,0.1-0.1l0.6-0.1
			l0.1,0.4l0.3,0.1c0.2-0.1-0.1-0.2,0.1-0.1v0.1h0.4v0.1l0.4-0.1v0.1h0.3v0.1h0.9c0.5,0.2,1.1,0.3,1.6,0.3V23
			c0.2-0.3,2.1,0.1,2.3-0.1h0.1l-0.1,0.3l0.6-0.1v0.1h0.7c0,0,0,0.2,0.3,0.1v-0.1h0.9v0.1h0.6v-0.1h0.1v0.1h0.3v0.1l0.3-0.1v0.1
			l0.6,0.1v0.3h0.1c-0.1,0.2-0.1,0.4-0.1,0.6h0.3l-0.3,0.7h0.1v0.6h0.3l-0.3,1.3h0.3c-0.1,0.3-0.2,0.2-0.3,0.6h0.3
			c-0.1,0.2-0.2,0.2-0.1,0.6c0,0,0.2,0.1,0.1,0.4H103c0,0.1,0,0.2,0.1,0.3l-0.1,0.3l0.1,1.3c-0.3,0.1-0.1,0-0.3,0.1
			c-0.2,0.2,0,0,0,0.3h-0.1c-0.2,0.2-0.3,0.5-0.3,0.7c-0.3,0.1-0.1,0-0.3,0.1H102l0.1,0.4c-0.1,0.1-0.2,0.2-0.3,0.3h-0.1l0.1,0.3
			h-0.3l0.1,0.4h-0.1c-0.2,0.2-0.1,0.2-0.4,0.3l0.1,0.4l-0.4,0.1v0.3l-0.4,0.1l-0.3,0.4h-0.3l-0.3,0.4H99c-0.1,0.3,0,0.1-0.1,0.3V36
			l-0.3-0.1l-0.1,0.3h-0.6c-0.4,0.2-0.8,0.4-1.2,0.4c0.2,0.2,0,0.1,0.3,0.1v0.1h-0.9v0.1h-0.3v0.1l-0.4-0.1v0.1h-0.6v0.1
			c-0.3,0.1-0.4-0.1-0.6-0.1v0.1l-0.4,0.1v0.1c-0.3,0-0.3-0.5-0.7-0.3l-0.1,0.3c-0.1,0-0.2,0-0.3-0.1c0,0,0,0,0,0l-0.4,0.1v-0.1
			l-0.9-0.1v0.1c-0.4,0.1-1-0.2-1.2-0.1c0,0-0.1,0.3-0.3,0.3v-0.1L89,37.4v0.1h-0.1v-0.1l-0.7,0.1v-0.3h-0.6v-0.1l-1.3,0.1v-0.3
			c-0.2,0-0.4,0.1-0.6,0.1v-0.3c-0.7-0.2-0.5-0.5-1.2-0.3l0.1-0.3c-0.2-0.1-0.5-0.2-0.7-0.1v-0.3c-0.5-0.1-0.5-0.4-0.9-0.6V35h-0.4
			v-0.4h-0.1c-0.3-0.4-0.3-0.1-0.4-0.7h-0.1V34h-0.3c0.3-0.3-0.6-1-0.7-1.5h-0.3c-0.1-0.5-0.1-0.6-0.6-0.7c0-0.2-0.1-0.4-0.1-0.6
			l0.1-0.1h-0.3c0-0.3,0-0.5-0.1-0.7h-0.1l0.1-0.3h-0.1v-0.3h-0.1l0.1-0.3h-0.1v-0.1h-0.1v0.3h-0.1v-0.3h0.1c0.1-0.5-0.4-0.7,0-1.2
			V28l-0.4,0.1c0.1-0.2,0.3-0.2,0.4-0.4h-0.3c0-0.4,0.1-0.4,0.1-0.6h-0.1v-0.1c0.1-0.1,0.2,0,0.1-0.3c0,0-0.2,0-0.1-0.3
			c0,0,0.2,0,0.1-0.3c0-0.2-0.1,0.1-0.1-0.1h0.1l-0.1-0.6l0.3-0.1v-0.6h-0.1v0.1h-0.1v-0.1c-0.2-0.1,0,0-0.1-0.1h0.3l0.1-1.6
			l-0.1-0.4h0.1v-0.3c0.1-0.1,0.4-0.1,0.3-0.4l-0.3-0.1v-0.3h0.3l-0.1-0.4l0.4-0.3v-0.7h0.1V19h0.1v-0.3h0.1l-0.1-0.4h0.1
			c0.3-0.3,0.4-0.6,0.4-1h0.3v-0.7l0.3-0.1v-0.1H81l0.3-1l0.4-0.3c-0.1-0.2-0.1-0.4-0.1-0.6h0.1c0.3-0.1-0.2-0.1,0-0.3
			c0,0,0.5-0.2,0.4-0.3c-0.2-0.2-0.1,0.1-0.3-0.1h0.3c0-0.2,0-0.4,0.1-0.6h0.1v-0.6h0.1v-0.3h0.1c0-0.3-0.3-0.2-0.3-0.3l0.3-0.6h0.1
			v-0.4H83v-0.1c0-0.2-0.2,0.1-0.1-0.1c0,0,0.1,0,0.1-0.3c0.3-0.1,0.1,0,0.3-0.1l0.4-1.3H84c0.1-0.3,0-0.1,0.1-0.3V8.3l0.7-0.1
			c0.1-0.3,0-0.1,0.1-0.3c0.2-0.4,0.1-0.1,0.4-0.3V7.4h0.3V7.3h0.6l0.3-0.4h0.9V6.7L89,6.5V6.4h1.2V6.2c0.3,0,0.2,0.2,0.4,0V5.9
			c0.9,0.6,1.7,0.1,2.9,0.1h0.9v0.1l0.7-0.1v0.1h0.3v0.1l0.1-0.1c0.2,0-0.1,0.1,0.1,0.1h0.9v0.1H97v0.1l0.9-0.1v0.1h0.4v0.1
			c0.2,0,0.2-0.2,0.4,0v0.3c0.4-0.2,0.9,0,1.5,0v0.3h0.1c0.1,0,0-0.2,0.1-0.1v0.1h0.4v0.1h0.6l0.1,0.3h0.6l0.3,0.4
			c0.3,0.1,0.2-0.1,0.3-0.1h0.1v0.4h0.3v0.3c0.5,0,0.3,0.2,0.6-0.1h0.1v0.6c0.2-0.3,0.4,0,0.6,0.1v0.3c0.3,0,0.5-0.1,0.7-0.1v0.3
			l0.7,0.1c0.2-0.3,0.3-0.1,0.4-0.6c-0.3-0.1-0.1,0-0.3-0.1h0.3V8.7l-0.6-0.1c-0.1-0.3-0.2-0.7-0.3-1l-0.7-0.1V7l-0.4-0.1V6.7
			L104,6.5l-0.1-0.3c-0.3-0.2-0.4,0.1-0.7-0.3h-0.6V5.8h0.1V5.7h-0.1V5.5l-0.4,0.1L102,5.4l-0.4,0.1l-0.1-0.3h-0.4V5.1h-0.1v0.1
			h-0.1l-0.1-0.3h-0.6V4.8h-0.6V4.6h-1l-0.1-0.3H98v0.1l-0.4-0.1c-0.1,0.1,0,0.2-0.3,0.1V4.3h-0.4V4.2c-0.2,0-0.3,0.3-0.6,0.1
			L96.1,4h-1V3.9h-0.1V4h-0.4V3.9h-0.1V4c-0.4,0-0.4-0.1-0.4-0.1c-0.2-0.1-0.3,0-0.4,0.1l-0.3-0.1V4l-2.2-0.1V4h-0.6v0.1L89.9,4v0.1
			h-0.3v0.1h-0.1V4.2h-0.1v0.1c-0.2,0,0.1-0.1-0.1-0.1c-0.4-0.1-0.5,0.1-0.7,0.1c-0.1-0.1,0-0.3-0.3-0.1l-0.3,0.4l-0.6-0.1v0.1h-0.7
			l-0.1,0.3h-0.3v0.1l-0.4-0.1l-0.1,0.3h-0.3l-0.1,0.3h-0.4v0.1c-0.2,0.1-0.5,0.2-0.7,0.1v0.3h-0.4v0.3c-0.4,0.1-0.3,0-0.4,0.4
			c-0.3,0.1-0.1,0-0.3,0.1c-0.7,0.2-0.2,0.1-0.4,0.6L82,7.7l-0.3,0.9l-0.4,0.3l-0.1,1.2h-0.3l-0.1,0.9l-0.3,0.1
			c-0.1,0.2,0.2,0.1,0.3,0.3l-0.3,0.1l-0.1,1h-0.1c-0.2,0.4-0.3,0.8-0.3,1.2h-0.3c0.3,0.3-0.1,0.3-0.1,0.4v0.4h-0.1v0.3H79v0.1h0.1
			v0.1l-0.3-0.1l0.1,0.6h-0.3l0.1,0.4l-0.4,0.1l0.1,0.4c0,0-0.1,0-0.1,0.3c-0.3,0.1-0.1,0-0.3,0.1c-0.2,0.1,0,0-0.1,0.1h0.3
			c0,0.2-0.3,0.9-0.3,0.9h-0.3c0.1,0.2,0.1,0.4,0.1,0.6l-0.4,0.1l0.1,0.9h-0.3c-0.1,0.7-0.2,1.5-0.3,2.2h-0.1l0.1,0.1
			c0,0.3-0.1,0.3-0.1,0.3l0.1,0.4h-0.3c0.1,0.2,0.2,0.3,0.1,0.6c0,0.2-0.2-0.1-0.1,0.1h0.1v0.3h-0.3c0.1,0.3,0,0.3,0.3,0.4
			c-0.1,0.4,0,0.3-0.4,0.4V25l0.3,0.1l-0.1,1.3h0.1l-0.1,0.1v0.1h0.1c0,0.3-0.1,0.3-0.1,0.3l0.1,1.5h0.1v1H77v0.1h-0.1v0.1l0.3,0.1
			v0.3h0.1l-0.1,0.4h0.1v0.4l0.4,0.3v0.4l0.3,0.1v0.3h0.1l0.1,0.4l0.3,0.1l-0.1,0.3h0.1c0.3,0.3,0.4,0.6,0.4,1h0.3v0.1l0.3,0.1v0.3
			l0.7,0.6v0.1h0.3l-0.1,0.3H81c-0.2,0.2,0,0.1-0.3,0.1v0.1h0.4v0.3h0.4c0.1,0.4,0.2,0.3,0.3,0.6h0.6c-0.1,0.3,0,0.1-0.1,0.3
			c0.2,0.2,0.4,0.3,0.6,0.4V38h0.4l0.1,0.3H84l0.1,0.3h0.4l0.1,0.3h0.6V39h0.4c0.2,0.1,0,0.2,0.4,0.3c0.1-0.3,0-0.1,0.1-0.3v0.3
			l0.9,0.1c0.1,0,0-0.2,0.3-0.1v0.1c0.3,0,0.5,0,0.7-0.1v0.3c0.6-0.1,1.3-0.1,1.9,0v0.1h0.1v-0.1h0.7v0.3c0.1-0.5,1.1,0,1.6-0.1
			v-0.1h0.1v0.1c0.1,0,0.2,0,0.3-0.1l0.6,0.1v-0.1h1.2l0.1-0.3h0.6v-0.1h0.3V39h0.9v-0.1L97,39l0.1-0.1c0.2,0.1,0.4,0.1,0.6,0.1
			c0.1-0.3,0-0.1,0.1-0.3v-0.1l0.7-0.1v-0.1h0.3v-0.1h0.3V38l0.3,0.1l0.1-0.3c0.3-0.2,0.7-0.3,1-0.3c0.2-0.4,0-0.2,0.4-0.1
			c0.1-0.2,0,0,0.1-0.1l-0.1-0.3c0.3-0.3,0.4,0.3,0.6-0.4c0.4-0.1,0.3-0.2,0.7-0.3v-0.3h0.3l0.1-0.9h0.3c0.1-0.3,0.2-0.7,0.3-1
			l0.6-0.1v0.7h-0.1v0.1h0.1v0.4h-0.1l0.1,0.3h-0.3l0.1,0.4h0.1l-0.1,0.6h0.3c-0.1,0.2-0.4,0.3-0.3,0.6h0.1v0.1h-0.1v0.1h0.1v1
			c0,0.1-0.3,0.1-0.3,0.3l0.3,0.1c0,0.3,0,0.7-0.1,1h0.1v0.3h0.1c0,0.2-0.1-0.1-0.1,0.1l0.1,1.3l-0.3,0.1l0.1,0.9h-0.1l0.1,0.4v0.1
			h-0.1l0.1,0.3h-0.1v0.1h0.1c0.1,0.3-0.2,0.4-0.1,0.6l0.3,0.1l-0.1,0.1v0.6h-0.1l0.1,0.4c-0.1,0.1-0.2,0.3-0.1,0.4
			c0,0.2,0.2,0,0.1,0.1l-0.4,0.1c0.2,0.2,0.1,0.2,0,0.4h-0.1l-0.1,1.3h0.1l0.1,0.4l-0.3,0.1c-0.2,0.5,0.2,0.7,0.1,1h-0.1
			c0,0.3,0.1,0.2,0.1,0.3l-0.1,0.4h0.1v0.1c-0.1,0-0.2,0.2-0.1,0.3h0.1c0.1,0.5-0.2,0.8-0.1,1h0.1c0,0.2-0.2,0.4-0.1,0.7h0.1
			c0,0.3-0.1,0.3-0.1,0.3l-0.1,1.5h0.4c0.1,0.4,0.1,0,0,0.4l1.2,0.1c0.1-0.4,0-0.3,0.4-0.4c0-0.2,0-0.4,0.1-0.6h0.1v-1.3h-0.1
			l0.1-0.4h0.1v-0.4h-0.3l0.1-0.6h-0.1V51l0.3-0.1v-0.4l-0.4,0.1c0.3-0.6,0.2-0.4,0.1-1.2h0.3c-0.1-0.4-0.1-0.8,0-1.2h-0.1v-0.1h0.3
			l-0.3-0.4h0.1l-0.1-0.4l0.3-0.1v-0.3h0.4v-0.3h-0.3v-0.1l0.3-0.1v-0.4h-0.1c0-0.2,0.1,0.1,0.1-0.1v-0.4h0.1c0-0.1,0.1-0.6-0.1-0.4
			v0.1h-0.1c0.2-1,0.3-2,0.1-2.9h-0.3v-0.1h0.1l0.1-0.3h-0.1v-0.1c0,0,0.2,0,0.1-0.3h-0.1v-0.1h0.3v-0.1h-0.4v-0.1h0.3l-0.3-0.4
			l0.3-0.1l0.1-0.4h-0.3v-0.9h0.1v-0.1c-0.1,0.1-0.2,0-0.3-0.1c0,0,0,0,0-0.1l0.3-0.1l-0.1-1.5h0.1l-0.1-0.3v-0.1h0.1
			c0-0.1,0-0.3-0.1-0.3l0.1-0.9h-0.3l0.3-0.4h-0.1v-0.3h-0.1v-0.1h0.1v-0.1h-0.1c0-0.3,0.1-0.3,0.1-0.3v-1.3c0-0.1,0.2,0,0.1-0.3
			h-0.1v-0.3h-0.1c-0.1-0.4,0.4-0.3,0.3-0.6h-0.1c-0.1-0.6-0.1-1.2,0-1.8h-0.3l0.1-1h-0.3c0-0.3,0-0.5-0.1-0.7h0.3l-0.1-0.6h0.1
			v-0.1l-0.3-0.1c-0.1-0.3,0.1-0.9,0.1-0.9l-0.3-0.1l0.1-0.4h-0.1c-0.2-0.6,0-0.8-0.1-1v-0.7c0.2,0.3,0.3,0.1,0.4-0.1
			c0,0,0.6,0,0.3,0.1h-0.1v0.1h1.5V24h0.7v-0.1l1.3,0.1v0.3l0.4-0.1V24l0.7,0.1v0.1l0.3-0.1v0.1h0.1v-0.1h1.2v0.1
			c0.1,0,0.3,0,0.3-0.1h0.1v0.1h0.6v0.1h0.4v0.1l0.4-0.1v0.3h0.6V25h0.4c0.2,0.4,0,0.2,0.4,0.1v0.3l0.4-0.1c0.1,0,0,0.3,0.3,0.3
			C116.4,25.5,116.1,25.5,116.3,25.5z M89.9,5.9h0.1v0.3h-0.1V5.9z"/>
		<path id="パス_309" class="st1" d="M90.1,6h-0.1v0.3h0.1V6z"/>
		<path id="パス_310" class="st1" d="M302.5,7.9c-0.4,0.1-0.3-0.3-0.6-0.3l-0.1,0.3l-1-0.1v0.1l-0.3-0.1c-0.2,0,0.1,0.1-0.1,0.1
			c-0.2,0-0.3,0-0.4-0.1c-0.3,0-0.7,0-1,0.1V7.6l-0.7,0.1v0.1H298V7.7l-0.4,0.1c0-0.1-0.2-0.2-0.3-0.1c-0.1,0.1-0.3,0.2-0.4,0.1V7.7
			h-0.4V7.6h-0.1L295.9,8h-0.1V7.9H295v0.3h-0.1V7.6h-0.7L294,7.9c-0.3,0-0.5-0.5-1-0.3l-0.1,0.3h-0.3V7.6c-0.7-0.1-1.5,0-2.2,0.3
			h-0.7l0.1-0.3l-1.5,0.1c-0.1,0,0-0.2-0.3-0.1v0.1l-0.4-0.3l-0.1,0.3c-0.3,0.1-0.7,0.2-1,0.1v0.3l-0.3,0.1
			c-0.2,0.4,0.1,0.9,0.1,1.2h0.4v0.1l0.3-0.1v0.3l0.4-0.1v0.1h1.2v0.1h0.3c-0.2,0.3-0.7,0.8-0.4,1.5c0,0,0.3,0.1,0.3,0.3
			c-0.1,0.1-0.2,0-0.3,0.4h0.3l-0.1,0.1l0.1,0.6h-0.1v0.6h0.3l-0.1,0.7l0.1,0.1l-0.3,0.1l0.1,0.4h-0.1v0.1h0.3
			c0.1,0.2-0.1,0.1-0.1,0.1l0.1,0.4h-0.1v0.1c0.1,0.2,0.2-0.1,0.1,0.1h-0.1v0.4h-0.1c0.1,0.2,0.1,0.4,0.1,0.6h0.3v0.1
			c-0.1,0-0.2,0.1-0.2,0.3c0,0,0,0,0,0h0.1l0.1,0.4H289l-0.1,0.4h0.3c-0.1,0.3-0.2,0.5-0.3,0.7l0.3,0.1l0.1,1.2l-0.3,0.1
			c0.2,0.2,0,0.1,0.3,0.1v1l0.3,0.1c0,0.3-0.3,0.2-0.3,0.3c0.1,0.3,0.2-0.1,0.3,0.1c-0.1,0.3-0.1,0.6-0.1,0.9h-0.3v0.3
			c0,0-0.6,0-0.3,0.1h0.3c-0.1,0.2-0.4,0.3-0.3,0.7h0.1v0.3l0.3,0.1c0,0.2,0.1,0.5,0.1,0.7l0.3,0.1l-0.1,0.4l0.4,0.3
			c-0.1,0.2-0.2,0.3-0.4,0.4c0.1,0.1,0.2,0.2,0.3,0.3c0.1,0.2-0.1,0.3-0.1,0.3v0.1h0.1l-0.2,0.9h0.3c-0.2,0.3-0.3,0.2-0.4,0.4
			c0.2,0.1,0.1,0,0.1,0.3h0.3l-0.3,1.5h0.1l0.1,0.4h-0.1v0.3h-0.1v0.1h0.1v0.9h-0.1c0.2,0.2,0,0.1,0.3,0.1l-0.3,1.3h0.3
			c-0.1,0.2-0.2,0.5-0.1,0.7h0.1v0.1h-0.1v0.1c0.1,0,0.2,0.2,0.1,0.3h-0.1c0,0.5-0.1,1-0.1,1.5h0.3v0.1h-0.3v0.1h0.1
			c0,0.6,0,1.3-0.1,1.9l-1,0.1v0.1h-0.3v0.1h-0.7v0.1h-0.1v-0.1h-0.1v0.1h-0.3l-0.3,0.4c-0.2,0-0.2,0-0.1-0.1v-0.1h-0.1v0.1h-0.6
			v0.1c-0.2,0.1-0.4,0.2-0.6,0.1c0,0,0,0.6-0.1,0.3v-0.1H285v0.4c-0.3,0.1-0.5,0.2-0.7,0.3c-0.1,0.3-0.1,0.7,0,1h0.7v0.1h0.1v-0.1
			h0.1v0.1l0.3-0.1c0,0.1,0.2,0.2,0.3,0.1v-0.1h0.7v-0.1l0.4,0.1v-0.1h0.3l0.1-0.3l0.6,0.1l0.1-0.3l0.4,0.1l0.1-0.3h0.4V41l0.6-0.1
			v0.3h0.1c-0.1,0.2-0.1,0.4-0.1,0.6c0.4,0.1,0.3,0,0.4,0.4c0.7,0.1,1,0.2,1.5-0.3h0.1l0.1-0.7H292V41h0.1v-0.4h0.1l0.1-0.4l0.7-0.1
			v-0.1c0.2,0,0.3,0.1,0.3,0.1c0.3,0,0.7,0,1-0.1c0.1-0.3,0-0.1,0.1-0.3v0.3h0.4v-0.3h0.6v0.1c0.1,0,0.6,0.1,0.4-0.1h-0.1v-0.1
			l0.4,0.1v-0.1h0.1c0.2,0.1-0.1,0.2,0.1,0.1v-0.1c0.4-0.1,0.8-0.1,1.2,0v-0.3c0.3,0.1,0.4,0,0.1,0.3c0.3,0.1,0.8-0.2,1-0.3v0.3h0.1
			v-0.3l0.6,0.1v-0.1h0.1v0.3l1.8-0.3v0.1l1.6,0.1v-0.1h0.7v-0.1l0.6,0.1v0.1c0.4,0.1,0.3-0.3,0.6-0.3c0.1,0.1-0.1,0.4,0.1,0.3
			l0.1-0.3c0.1,0,1.2,0.3,1.2,0.3h0.1v-0.1h0.7v0.3c0.1-0.2,0.6-0.1,0.9,0v0.1c0.2,0,0.2-0.2,0.6-0.1v0.1h0.4v-0.1h0.1v0.1h0.7V40
			l0.9,0.1c0-0.1,0.2-0.2,0.3-0.1c0,0,0,0,0,0v0.1h0.3l0.1,0.3h0.6v0.1h0.1l0.6-0.9c0.2-0.2,0.1-0.7,0-1.2h-0.6l-0.1-0.4l-0.1-0.1
			l-0.4,0.1V38h-0.1v0.1h-0.1V38H311l-0.1-0.3l-0.4,0.1l-0.1-0.3l-0.9,0.1l-0.1-0.3h-1.2v-0.1l-2.3-0.1v0.1l-0.4-0.1v0.1
			c-0.6,0.1-0.5-0.3-0.6-0.3c-0.1,0-0.2,0-0.3,0.1c0,0,0,0,0,0l-0.4-0.1v0.1h-0.3v0.1c-0.2,0.1-0.3-0.1-0.3-0.1h-0.9v-0.1l-0.4,0.1
			v0.1c-0.2,0.1-0.3-0.1-0.3-0.1h-1v-0.1h-0.1v0.1h-0.7v0.1h-0.6v-0.1h-1v0.1h-0.1v-0.3H298l-0.1,0.3h-0.9v0.1l-0.7-0.1v-0.1h-0.1
			v0.1h-0.7v0.1h-0.6v0.1h0.1v0.1l-0.1-0.1l-0.7,0.1v-0.1h-0.3l-0.1,0.3h-0.3V38l-0.3-0.1V38c-0.3,0.1-0.5,0.1-0.7,0.1l-0.1-0.4
			c0-0.2,0.2,0.1,0.1-0.1c0-0.1-0.4,0-0.3-0.4h0.1l0.1-0.4h-0.1v-1.3H292l0.3-0.7l-0.4-0.1c0.2-0.3,0.3-0.7,0.3-1H292v-0.1h0.1v-0.1
			H292V33h0.1c0-0.2,0.1-0.4,0.1-0.6H292l0.1-0.4H292v-0.7h0.1v-0.9c-0.1-0.1-0.2-0.2-0.3-0.3h0.3l-0.1-0.6h0.1v-0.1H292v-0.1h0.1
			l0.1-0.4l-0.3-0.1l0.1-0.6H292v-0.3h-0.1v-0.1h0.1v-0.3h0.1c0-0.2-0.5-0.4-0.3-0.9h0.1v-0.7c0.3,0.2,0.7,0.3,1,0.4
			c0.2,0,0.3-0.1,0.3-0.1h0.9v0.1h1v-0.1h0.1l0.1,0.3c0.2,0,0,0,0.1-0.1h0.7v0.1l0.7-0.1v0.4c0.4-0.2,0.8-0.2,1.2-0.1v0.1l0.7-0.1
			v0.3l2.2-0.3v0.3h0.1c0-0.2,0.7-0.2,0.9-0.1c0.1,0.1,0.2,0.2,0.3,0.3v-0.3c0.2,0,0.4-0.1,0.6-0.1v0.1h1c0.2,0-0.1,0.2,0.1,0.1
			v-0.1h0.4v-0.1c0.1,0,0.3,0,0.3,0.1c0.3-0.1,0.6-0.2,0.9-0.1v0.1l0.4-0.1c0.1,0,0,0.3,0.3,0.3l0.1-0.3h1v-0.1l1.9,0.1v-0.1
			l0.7-0.1v-0.1c0.2-0.2,0.4-0.3,0.6-0.3l-0.3-0.4h0.1c0-0.6-0.1-0.5-0.3-0.9H310V24l-0.7,0.1c0-0.1-0.2-0.2-0.3-0.1v0.1
			c-0.5,0-1,0-1.5-0.1v0.1h-0.3v0.1h-0.1v-0.1l-0.9,0.1c-0.1-0.3,0-0.1-0.1-0.3v0.3l-0.4-0.1c-0.1,0.1,0,0.2-0.3,0.1
			c-0.2,0,0.1-0.2-0.1-0.1v0.1h-0.3v0.1h-0.1v-0.1h-0.1v0.1H304v0.1h-0.1l0.1-0.3l-0.6-0.1v0.3l-0.6-0.1v0.1h-0.1v-0.1h-0.1
			c0,0.1-0.2,0.2-0.3,0.1l-0.1-0.3c-0.2,0-0.2,0.1-0.1,0.3l-0.4-0.1v-0.1h-0.1v0.1c-0.2,0-0.4,0-0.6-0.1v0.3
			c-0.4-0.1-0.3-0.2-0.6-0.3v0.3l-0.7-0.1v-0.1H299v0.1h0.1v0.1H299v0.1h-0.1v-0.3c-0.6-0.1-1.2-0.1-1.8,0c-0.1-0.3,0-0.1-0.1-0.3
			v-0.1c-0.3-0.1-0.5,0.3-0.7,0.3V24h-0.3v-0.1c-0.2,0.1-0.4,0.1-0.6,0.1c-0.2-0.6-0.9,0.2-1.6-0.1l-0.1-0.3l-0.4,0.1v-0.1l-0.4,0.1
			v-0.1c-0.5-0.1-0.4-0.1-0.9,0l-0.1-0.9h0.1v-0.1c-0.1,0-0.2-0.2-0.1-0.3h0.1v-0.1l-0.3-0.1l-0.1-0.7h0.3c0-0.3,0-0.5-0.1-0.7h-0.1
			c-0.1-0.3,0.1-0.6,0.1-0.7l-0.3-0.1l0.1-0.9h-0.1v-0.3h-0.1l0.1-0.4h-0.1c-0.1-0.9-0.1-1.9,0-2.8h-0.3c0-0.4,0.1-0.9,0.1-1.3h-0.1
			v-0.4l-0.3-0.1c-0.1-0.2,0.3-0.2,0.3-0.3v-0.6h-0.3l0.1-1.2l-0.3-0.1v-0.1h0.1v-0.1h-0.1l0.1-0.4h-0.3c0.1-0.3,0-0.1,0.1-0.3V9.9
			c0.7,0.3,1-0.2,1.8,0v0.1h0.6V9.9h0.3V9.8l0.4,0.1v0.1h1V9.9c0.2,0.1,0.4,0.1,0.6,0.1V9.8l1.2,0.1V9.8h0.1v0.1h0.3v0.1l0.1-0.1
			c0.5,0,0.3,0.3,0.7-0.1c0,0,0.6,0,0.3,0.1h-0.1v0.1h0.4V9.8h0.9l0.1,0.3c0.1,0,0.3,0,0.3-0.1c0,0,0,0,0,0c0.3,0,0.3,0.1,0.3,0.1
			l1-0.1v0.1h0.7l-0.1-0.3c0.3,0.2,0.7,0.2,1,0.1V9.8h0.1v0.1h0.7V9.8l0.3,0.1l1.9-0.1v0.3h0.1V9.9h0.4V9.8h0.1v0.1
			c0.3,0,0.2-0.1,0.3-0.1l0.4,0.1l-0.1-0.4h0.1V9.3h0.1l-0.1,0.3l0.4-0.1l0.1-0.4c-0.3,0.1-0.1,0-0.3,0.1h-0.3
			c0.2-0.3,0.3-0.6,0.3-0.9h-0.3c-0.1-0.4-0.3-0.4-0.4-0.7h-0.6l-0.1,0.3L305,7.7v0.1c-0.2,0-0.3,0-0.4-0.1h-0.9
			c-0.2,0,0.1,0.1-0.1,0.1l-0.1-0.3h-0.1v0.1h-0.7L302.5,7.9z"/>
		<path id="パス_311" class="st1" d="M177.6,14h0.3v0.1l0.4-0.1v0.1h0.4v0.1l0.6-0.1v0.1l0.3-0.1v0.1c0.4,0.1,0.8,0.1,1.2,0v0.3
			h0.1c0-0.2,0.7-0.4,1-0.4l0.1-1c-0.3-0.1-0.1,0-0.3-0.1c-0.2-0.1,0,0-0.1-0.1h0.3c-0.1-0.4-0.2-0.3-0.3-0.6l-0.9-0.1v0.1
			c0,0-0.6,0-0.3-0.1h0.1V12c-0.3,0-0.5,0-0.7,0.1v0.1l-0.3-0.1v0.1h-0.3V12h-0.9c-0.2,0,0.1-0.2-0.1-0.1c0,0,0,0.2-0.1,0.3
			c-0.1-0.1-0.1-0.3-0.3-0.3l-0.1,0.3l-0.4-0.1v-0.1l-0.6,0.3v-0.3h-1.6v-0.1l-0.9-0.1v0.3h-0.1v-0.3h-0.7v0.1h-0.1l-0.1-0.3
			l-0.4,0.1v-0.1h-0.3v-0.1l-0.4,0.1v-0.1l-1.2,0.1l-0.1-0.3h-0.3v-0.1h-0.1v0.1h-0.7v0.1c-0.2,0-0.3-0.3-0.3-0.3h-0.7v0.1l-0.3-0.1
			c-0.2,0,0,0.2-0.1,0.1l-0.1-0.3l-0.4,0.1c-0.1,0,0-0.2-0.4-0.3v0.3c-0.4-0.2-0.8-0.2-1.2,0v-0.3l-1.5,0.1v-0.1h-0.1
			c-0.1,0.1,0,0.2-0.3,0.1v-0.1h-0.3l-0.1-0.3h-1v-0.1h-0.4v-0.1c-0.1,0-0.5,0.2-0.9,0.1v-0.1h-0.6V9.9h-0.1v0.1h-1.3V9.8h-0.3
			l-0.1,0.3c-0.2,0-0.1,0-0.1-0.1V9.8h-0.1v0.1h-0.6V9.8l-0.7,0.1l-0.1-0.3c-0.2-0.1-0.3,0-0.4,0.1h-0.4V9.6c-0.3,0-0.5,0.2-0.7,0.3
			V9.6h-0.3l-0.1,0.3c-0.2-0.1-0.4-0.1-0.6-0.1l-0.1,0.4l-0.4,0.1v0.3h-0.1c0.1,0.2,0.1,0.4,0.1,0.6h0.1v0.1h0.4v0.3h0.1v-0.1
			l0.3,0.1v-0.1h0.6v0.1h0.6v-0.1h0.1l-0.1,0.4h0.9v-0.1h0.1l-0.1,0.3l1.3-0.1v0.1h0.6c0.2,0-0.1-0.2,0.1-0.1v0.1h0.6v0.1l0.7-0.1
			l0.1,0.3l0.9-0.1v0.3c0.1,0.1,0.6-0.6,1,0c0,0,0.6,0,0.3-0.1h-0.1v-0.1c0.2,0.2,0.2,0.1,0.3,0.4h1.3v0.1c0.1,0,0.5-0.3,0.9-0.1
			v0.1h0.3V13h0.4v-0.1c0.2,0-0.1,0.1,0.1,0.1l1,0.1v0.1h-0.3c0,0,0,0.6,0.1,0.3v-0.1h0.1c-0.3,0.8,0.1,0.7,0.1,1.3h-0.1v0.7
			c0,0-0.2,0-0.1,0.3c0,0.6,0.4,1.2-0.1,1.8c0.2,0.2,0,0.1,0.3,0.1c0,0.3-0.1,0.7-0.1,1c0,0,0.2,0,0.1,0.3h-0.1l-0.1,0.4l0.3,0.1
			l-0.1,0.3h0.1V20c-0.1,0.1-0.2,0.3-0.1,0.4h0.1l0.1,0.4l-0.3,0.1l0.1,0.3h-0.1c-0.1,0.7,0.4,0.6,0.3,1.2h-0.1V23h-0.1v0.1h0.3
			c-0.1,0.2-0.1,0.3-0.1,0.6h-0.1c0,0.1,0.2,0.4,0.1,0.7h-0.1l0.1,0.4h0.1l-0.1,0.3h0.1v1.6h0.1v0.1h-0.1c-0.1,0.3,0.1,0.1-0.1,0.3
			c0.1,0.1,0.2,0.1,0.3,0.3h-0.3v0.6l0.3,0.1l-0.3,0.7c0,0.4,0.1,0.4,0.1,0.4c0.2,0.7,0.1,1.4-0.3,2.1c0.1,0.1,0.3,0.2,0.4,0.3v0.1
			h-0.3v0.1c0.1,0.1,0.4-0.1,0.3,0.1h-0.1v0.4h-0.1v0.1h0.3c-0.1,0.4,0,1-0.1,1.6h-0.1l0.1,0.6h-0.1c0.2,0.2,0,0.1,0.3,0.1v0.3h-0.3
			l0.1,1.5l-0.1,0.1h0.1l0.1,0.4h-0.3l0.1,0.4h-0.1v0.1h0.3v0.1c-0.3,0.2,0,0.6-0.1,1h-0.1c0,0.2,0.1,0.3,0.1,0.3v0.6h-0.1l0.1,0.4
			h-0.1v0.1h0.1V41h0.1v0.1h-0.1v0.7h0.1l-0.1,0.7c0,0,0.3,0.1,0.3,0.3c0,0.1-0.4,1-0.4,1h0.3l-0.1,0.4c0,0.1,0.2,0,0.3,0.4h-0.1
			l-0.1,0.7h0.3l-0.3,0.7h0.1v0.3h0.3c-0.1,0.3,0,0.1-0.1,0.3v0.1h0.6v0.1c0.3,0,0.5-0.1,0.7-0.3v-0.1h0.4v-0.1h0.1v-0.4
			c0.1-0.2,0.2,0.1,0.1-0.1h-0.1v-0.1c0,0,0.2,0,0.1-0.3c-0.1,0-0.2-0.2-0.1-0.3c0.1-0.1,0.2-0.3,0.1-0.4c0,0-0.2,0-0.1-0.3
			c0.1-0.1,0.2-0.3,0.1-0.4h-0.1c0-0.3,0.1-0.3,0.1-0.3c0.1-0.3-0.2-0.4-0.1-0.6h0.1l-0.3-0.4l0.3-0.1l-0.3-0.4h0.3
			c-0.1-0.5-0.1-1.1,0-1.6h-0.3v-0.3h0.3v-0.1c-0.4,0-0.1-0.5-0.1-0.7h-0.1v-0.1h0.3c0.1-0.3-0.2-0.1-0.3-0.1l0.1-0.3v-0.6h-0.1
			v-0.9h0.1c0.1-0.3-0.2-0.4-0.1-0.6h0.1l-0.1-0.7h0.1l-0.1-0.3c0.1,0,0.2-0.2,0.1-0.3h-0.1v-0.1c0.1,0,0.2-0.2,0.1-0.3
			c0,0-0.2-0.1-0.1-0.3h0.1l0.1-0.4h-0.1V34h-0.1v-0.1h0.1c0-0.5-0.1-1-0.1-1.5c0,0,0.3-0.1,0.3-0.3h-0.3c0-0.2,0.2-0.3,0.1-0.6
			h-0.1c0-0.4,0.1-0.9,0.1-1.3c0.1-0.7-0.2,0-0.1-0.3h0.1v-0.1h-0.1l0.1-0.3l-0.3-0.1l0.1-0.4h0.1v-0.3h0.1v-0.1h-0.1
			c0-0.1,0-0.2,0.1-0.3c0-0.1-0.2-0.4-0.1-0.7h0.1v-0.1l-0.3-0.1l0.1-0.6h-0.1v-0.3h-0.1v-0.1h0.1l-0.1-0.3c0-0.1,0.4-0.1,0.3-0.6
			h-0.1c0-0.3,0.1-0.3,0.1-0.3v-0.1h-0.1c0-0.2,0.1,0.1,0.1-0.1c0-0.3-0.1-0.3-0.1-0.3l0.1-0.9h-0.3c0.2-1.1,0-2.6,0.1-3.4v-0.7
			h-0.1l0.1-0.4h-0.1c-0.1-0.4,0.1-0.4,0.3-0.6c-0.2-0.4,0-0.2-0.4-0.1c0.2-0.3,0.2,0,0.3-0.1v-0.1h-0.1l0.1-0.7h-0.1V17h0.1
			l-0.1-0.4c0-0.1,0-0.2,0.1-0.3l-0.1-0.3c0-0.1,0-0.2,0.1-0.3c0-0.3-0.1-0.3-0.1-0.3l0.1-0.9h-0.3v-0.1l0.3-0.1l-0.1-0.9h-0.1v-0.1
			h1.2c0.2,0-0.1,0.2,0.1,0.1v-0.1h0.3v0.3c0.5-0.1,1.1-0.1,1.6,0l0.1,0.3l0.6-0.3v0.1l0.4,0.1v0.1c0.2,0.1,0.2-0.3,0.3-0.3l0.3,0.1
			c0.2,0-0.1-0.1,0.1-0.1v0.1c0.3,0,0.3-0.1,0.3-0.1c0.4-0.1,0.4,0.1,0.6,0.1v-0.3c0.2-0.1,0,0.1,0.1,0.1h0.3l-0.1,0.4l0.6-0.1v0.3
			h0.3l0.1-0.3c0.1,0,0.3,0.2,0.6,0.1v-0.1c0.2,0,0.3,0.1,0.3,0.1c0.3,0,0.6,0,0.9-0.1L177.6,14z"/>
		<path id="パス_312" class="st1" d="M230.3,9.9V9.8c-0.4-0.1-0.8,0-1.2,0.1V9.6c-0.4,0-0.8,0.2-1.2,0.4V9.8l-1.2,0.1V9.8h-0.1
			v0.1h-0.1c-0.2,0,0.1-0.2-0.1-0.1v0.1c-0.3,0-0.5-0.3-1-0.1v0.1c-0.1,0-0.2,0-0.3-0.1h-0.4v0.1h-0.1V9.8h-0.1l-0.1,0.3
			c-0.6,0.2-0.6-0.5-1.2,0.1c-0.2,0.2,0,0,0,0.3l-0.3,0.1l0.1,0.3h-0.3v0.1c0.2,0.1,0.2,0.4,0.3,0.4h0.3l0.1,0.3
			c0.2,0.1,0-0.1,0.1-0.1c0.3,0,0.5,0,0.7,0.1c-0.2,0.2,0,0.1-0.3,0.1v0.1l1-0.1c0.2,0,0.2,0.1,0.6,0.1v-0.3h0.1
			c0,0.3,1,0.1,1.3,0.1v0.1h0.1V12h0.4v0.1c0.2-0.1,0.5-0.1,0.7-0.1l0.9,0.1V12h0.1v0.1h0.1c0,0,0-0.3,0.3-0.3v0.3L230,12
			c0.1,0,0.2,0,0.3,0.1h0.1V12c0.2,0,0,0,0.1,0.1h0.1V12l0.4,0.1c0.2-0.1-0.2-0.2,0.1-0.3l0.1,0.3l0.3-0.1v0.1l0.9,0.1v0.3l0.3-0.1
			h0.1v0.1h0.4l0.1,0.3c0.3,0.2,0.6,0,1,0.1v0.1l0.4,0.1v0.1l0.3-0.1v0.3c0.8,0.1,0.7,0.5,1.5,0.6v0.4h0.1v0.1l0.4-0.1l-0.1,0.3h0.3
			v0.3h0.3l0.1,0.7h0.3v0.3h0.3v0.1h-0.2v0.1c0.1,0.2,0.2,0.2,0.3,0.3l-0.1,0.3h0.3c0,0.2-0.1,0.4-0.1,0.6l0.1,0.1h-0.1V18h0.3
			l-0.1,0.3h0.1v0.1c-0.1,0.1-0.2,0.3-0.1,0.4h0.1c0.1,0.4-0.1,0.7-0.1,0.9h0.1c0,0.3-0.1,0.3-0.1,0.3c0,0.1,0,0.2,0.1,0.3v0.1h-0.1
			c0,0.1,0,0.2,0.1,0.3c-0.1,0.2-0.1,0.4-0.1,0.6h-0.3v0.3h-0.1c-0.2,0.2,0.3,0.1,0.3,0.1V22l-0.4,0.1c0.3,0.5-0.5,0.4-0.1,0.9v0.1
			l-0.3-0.1l-0.1,0.3l-0.4,0.3l0.1,0.3h-0.3c-0.3,0.1-0.3,0.3-0.4,0.6h-0.3l-0.1,0.4l-0.6,0.1v0.3c-0.3,0.1-0.3,0.1-0.3,0.1h-0.7
			v0.1l-0.6,0.1v0.1c-0.3,0.1-0.4-0.2-0.6-0.1l-0.1,0.3h-1.2c-0.1,0.1-0.2,0.2-0.3,0.3v-0.3h-0.3l-0.1,0.3c-0.2,0.1-0.2-0.3-0.3-0.3
			c-0.3-0.1-0.3,0.1-0.3,0.1l-1.5-0.1v0.1h-0.1v-0.1l-0.3,0.1v-0.3c-0.1,0-0.3,0.2-0.6,0.1c-0.3-0.1-1-0.2-1.3-0.3
			c0-0.3,0-0.4-0.1-0.6h-0.3c0.3-0.5,0.3-1.1,0.1-1.6c0-0.1-0.2,0-0.1-0.3h0.1v-0.1h-0.1v-0.4h-0.1c0-0.2,0.2-0.4,0.1-0.7h-0.1
			c-0.1-0.3,0.2-0.4,0.1-0.6l-0.3-0.1v-0.7h0.1v-0.1l-0.4-0.1v-0.4h0.1l-0.1-0.4l0.3-0.1l-0.3-0.6h0.3v-0.3h-0.4v0.1h-0.1l0.3-0.9
			h-0.1v-0.1h0.3c0-0.2,0.1-0.8-0.1-0.4c-0.2,0.1-0.2-0.2-0.1-0.3h0.1v-0.1l-0.4,0.1c0.1-0.3,0.2-0.5,0.3-0.7h-0.3
			c0-0.3,0.1-0.6,0.3-0.9h-0.3v-0.4h-0.1v-0.3l-0.4,0.3v-0.3h0.3c-0.2-0.2,0-0.7,0.1-1h-0.3V13h-0.6v0.1H224c0,0,0.2,0.4,0.1,0.6
			l-0.3,0.1v0.4c-0.2,0.6,0,1,0,1.8c0,0-0.6,0-0.3,0.1h0.3c0,0.5,0.1,1.1,0.1,1.6h0.1c0,0.4-0.1,0.9-0.1,1.3l0.1,0.1h0.1l-0.1,0.4
			h0.3c-0.1,0.1-0.2,0.2-0.3,0.3v0.1h0.4l-0.3,0.4h0.1v0.1c-0.1,0.1-0.3,0.1-0.3,0.3l0.4,0.1c0.1,0.1-0.4,0.5-0.3,0.7h0.1v0.3h0.1
			V23h-0.1v0.1h0.1l-0.1,0.4h0.3c-0.1,0.6-0.1,0.6-0.1,1.2h0.3l-0.1,0.7c0.1,0.1,0.2,0.3,0.1,0.4l-0.3,0.1c-0.2,0.4,0.1,0.8,0.1,1
			l-0.7,0.1l-0.1,0.3l-0.4,0.1V28h-0.4c0,0.3,0.1,0.7,0.1,1h0.1v0.1c0.3,0.1,0.2-0.1,0.3-0.1h0.6c-0.2-0.2,0-0.1-0.3-0.1v-0.1h0.6
			v0.4c0.2,0.1,0.2,0.2,0.6,0.1c0.2,0-0.1-0.1,0.1-0.1v0.1l0.4,0.3c-0.1,0.1-0.2,0.2-0.3,0.3l0.1,0.9h0.1l-0.1,1.5h0.3l0.1,0.7h-0.1
			v0.6c0,0.2,0.2-0.1,0.1,0.1h-0.1V34h0.3v0.1h-0.1v0.4h0.1l-0.1,0.7l0.3,0.1c0.1,0.2-0.1,0-0.1,0.1l0.1,0.4H226v0.6h0.1
			c0.1,0.3-0.1,0.4-0.1,0.6l0.3,0.1c0,0.2-0.2,0.3-0.1,0.6c0,0,0.1,0,0.1,0.3H226c0.1,0.6,0.2,0.4,0.3,0.9H226
			c-0.1,0.1,0.1,0.1,0.1,0.1v0.4h0.1v0.7h0.1v1h0.1l0.1,0.7c0.4,0,0.5,0.1,0.7,0.3h0.7c-0.2-0.2,0-0.1-0.3-0.1v-0.1l0.4,0.1
			c0.1-0.5,0.5-0.6,0.6-1.2h-0.3V41h0.1l0.1-0.6c-0.4-0.2-0.1-0.5-0.3-1.2c0,0-0.2,0-0.1-0.3h0.1v-0.1h-0.1v-0.3h-0.1l0.1-0.6
			l-0.3-0.1c-0.1-0.2,0.1,0,0.1-0.1c0-0.1,0-0.2-0.1-0.3v-0.1h0.1c0-0.3-0.1-0.3-0.1-0.3l0.1-0.7h-0.3V36h0.1l-0.1-0.3
			c0.1-0.1,0.2-0.3,0.1-0.4h-0.1v-0.1l0.1-0.7h-0.1v-1.2l-0.3,0.1l0.1-1.3h-0.1v-0.1h0.1v-0.4h-0.3v-0.3h0.1c0-0.1,0-0.2-0.1-0.3
			c-0.1-0.3,0.1-0.4,0.1-0.6l-0.4-0.1c0.1-0.3,0.2-0.7,0.3-1h-0.1l-0.1-0.6h0.4v0.3h0.1l0.1-0.3c0.6-0.2,0.9,0.4,1.3,0.1h0.6
			l-0.1-0.3l1.2,0.4v-0.3c0.2,0.1,0.5,0.1,0.7,0.1V29l0.4-0.1V29h0.7l-0.1,0.3l0.7-0.1v0.1l1.5,0.3v0.3l0.7-0.1V30l0.4-0.1l0.3,0.4
			l0.4-0.1l0.1,0.3h0.3c0.1,0.1,0.1,0.3,0.3,0.3v-0.1h0.1v0.4h0.4c0.1,0.4,0,0.3,0.4,0.4c0.1,0.4,0,0.3,0.4,0.4
			c0.1,0.5,0.3,0.4,0.4,0.9l0.6,0.1c0.2,0.5,0.5,0.7,0.6,1.3h0.3c0.1,0.2,0.2,0.4,0.3,0.6h0.1l-0.1,0.4l0.3,0.1v0.3h0.3v0.1h-0.3
			l0.3,0.9h0.1l-0.1,0.4l0.3,0.1l-0.1,0.4h0.1l-0.1,0.4h0.3l-0.1,0.1v0.3h-0.3c0.1,0.1,0.2,0.2,0.3,0.3c-0.1,0.1-0.2,0.2-0.3,0.3
			l0.1,0.4h-0.3c-0.2,0.3,0,0.2,0,0.6h-0.3l0.1,0.3l-0.4,0.3v0.3l-0.3,0.1v0.3l-0.4,0.3l-0.1,0.7h-0.1L240,43
			c-0.2,0.1-0.4-0.1-0.6,0.1l0.1,0.4c-0.1,0.2-0.4,0-0.6,0.1l-0.1,0.4l-0.3-0.1l-0.1,0.4l0.1,0.1h-0.1v0.1l-0.3-0.1
			c-0.1,0.2-0.1,0.4-0.1,0.6c-0.2,0-0.4,0-0.6,0.1v0.1l-0.3-0.1l-0.1,0.3h-0.3v0.1l-0.9,0.1V46l-0.6-0.1V46l-0.9,0.1V46h-0.4v-0.1
			h0.1v-0.1c-0.1,0-0.2,0-0.3,0.1c0,0,0,0,0,0h-0.1v-0.1h-0.7l-0.1-0.3h-0.3v-0.1l-1-0.1v0.1h-0.1c-0.1-0.1-0.1-0.2-0.3-0.3v0.1
			h-0.1c-0.2-0.1,0.1-0.1-0.1-0.3c-0.2,0.2,0.1,0.1-0.1,0.3v-0.3c-0.3-0.1-0.1,0-0.3-0.1H229l0.1-0.3c-0.6-0.2-0.9-0.2-1.2-0.7
			c-0.5,0.1-0.5,0-0.6,0.4c-0.3,0.1-0.1,0-0.3,0.1h-0.3v-0.1c0.2-0.1,0.3-0.2,0.4-0.3h0.1v-0.1l-0.4-0.1c-0.1,0.3-0.2,0.2-0.3,0.6
			h-0.4l-0.1,0.4h0.1l0.1,0.9h0.3v0.4c0.2,0.1,0.4,0.1,0.6,0.1v0.1h0.4l0.1,0.3l0.3-0.1l0.3,0.4l0.6-0.1l0.1,0.3
			c0.1,0,0.3-0.2,0.6-0.1l0.4,0.1l0.1,0.4l0.9-0.1v0.4h0.9c0,0,0,0.2,0.3,0.1l0.1-0.1v0.1c0.3,0.2,0.6,0.2,0.9,0v0.3l1.2,0.1
			c0.2,0-0.1-0.2,0.1-0.1v0.1h0.1l0.3-0.1c0,0.1,0.2,0.2,0.3,0.1v-0.1h0.7v-0.1h0.1v0.1h0.1l0.1-0.3l1-0.1l0.1-0.3h0.7
			c0.1-0.3,0-0.1,0.1-0.3v-0.1l0.3,0.1v-0.3h0.4v-0.3h0.3l0.1-0.4l0.6-0.1c0.1-0.4,0.3-0.4,0.3-0.4l-0.1-0.4l0.6-0.4v-0.1h0.3
			l0.3-0.6h0.3l0.1-0.4h0.1c0.3-0.5-0.2-0.4,0.4-0.6c0.1-0.6,0.2-0.4,0.3-0.9h0.3c0.1-1.3,0.8-1.2,0.9-2.3c-0.3-0.1-0.1,0-0.3-0.1
			h0.3l0.1-0.7h-0.1v-0.1h0.1l0.1-0.4h-0.3v-0.7c0-0.2-0.1,0.1-0.1-0.1h0.1v-0.7h-0.1v-0.4l-0.3-0.1v-0.7h-0.1l-0.1-0.7h-0.1
			l-0.1-0.6h-0.1l0.1-0.3c-0.4-0.4-0.5,0-0.6-0.9c-0.8-0.2-0.3-0.3-0.6-0.7h-0.1c-0.2-0.2-0.3-0.4-0.3-0.6c-0.4-0.1-0.3,0-0.4-0.4
			h-0.3v-0.3c-0.4-0.1-0.3-0.2-0.7-0.3c-0.1-0.4-0.4-0.8-0.9-0.9v-0.3h-0.1c-0.1,0.2,0.1,0.1-0.1,0.1l0.1-0.3h-0.4v-0.3h-0.6v-0.3
			c-0.8,0-0.6,0-1-0.3V28l-0.4,0.1v-0.3l-0.7-0.1c0.1-0.3,0-0.1,0.1-0.3v-0.1l0.9-0.1v-0.1h0.4v-0.1c0.3-0.2,0.3-0.3,0.7-0.4
			c-0.1-0.3,0-0.1-0.1-0.3v-0.1l0.4,0.1c0.1-0.4,0.1,0,0-0.4l0.6-0.1V25c0.4-0.1,0.3,0,0.4-0.4h0.3l-0.1-0.4h0.3v-0.3h0.4v-0.3h0.1
			c-0.1-0.2-0.1-0.4-0.1-0.6c0.3-0.1,0.1,0,0.3-0.1h0.1v-0.4l0.3-0.1l0.1-1.3h0.1c0.1-0.2,0-0.3-0.1-0.4l0.1-0.4
			c0,0-0.2-0.1-0.1-0.3h0.1v-0.6l-0.1-0.4h0.1v-0.4h0.1c0-0.2-0.4-0.1-0.4-0.4h0.1L241,17h-0.1v-0.7c0,0-0.2-0.1-0.3-0.3h0.1v-0.3
			h-0.4l0.1-0.4h-0.1v-0.3H240v-0.6h-0.3c0-0.4-0.3-0.7-0.7-0.7V13l-0.7-0.1c-0.1-0.3,0-0.1-0.1-0.3v-0.1l-0.3,0.1v-0.1
			c-0.2-0.2-0.2-0.1-0.3-0.4c-0.4-0.2-0.8-0.3-1.2-0.3l-0.1-0.4c-0.3-0.1-0.7-0.1-1-0.1v-0.3h-0.6v-0.1h-0.1v0.1h-0.3l-0.1-0.4
			l-0.4,0.1l-0.1-0.3l-0.3,0.1l-0.1-0.3h-0.7V9.8h-0.4v0.1l-0.6,0.1L231,9.8C230.7,9.6,230.4,9.9,230.3,9.9z M224,15.9
			c0.3,0.1,0.1,0,0.3,0.1C224,16,224.1,16.1,224,15.9z M224.3,14.6h-0.1v-0.3h0.1V14.6z M230.4,47.1c0.3,0.1,0.1,0,0.3,0.1
			C230.4,47.1,230.6,47.2,230.4,47.1L230.4,47.1z"/>
		<path id="パス_313" class="st1" d="M139.7,12.4v0.1l-0.3-0.1l-0.4,0.1v-0.1h-1v-0.1l-2.2,0.1v0.1c-0.4,0.1-0.3-0.3-0.4-0.3
			c-0.2-0.1,0,0-0.1,0.1l-0.7-0.1v0.3l-0.7-0.1v-0.1c-0.2-0.1-0.3,0.1-0.3,0.1c-0.3,0.1-0.6-0.2-0.7-0.1v0.1h-0.6v0.1
			c-0.2,0-0.3,0-0.4-0.1c-0.4-0.1-0.4,0.1-0.4,0.1h-0.6v-0.1l-0.4,0.1v-0.3c-0.3,0.1-0.3,0.1-0.3,0.1h-1v0.1h-0.3v0.1
			c-0.3,0.1-0.4-0.2-0.6-0.1v0.1h-1.6v0.1h-0.7V13h-0.3v0.3l-0.7,0.1c-0.1,0.4-0.1,0.8,0,1.2c0.4,0.1,0.8,0.2,1.2,0.3v-0.3h0.3v0.3
			c0,0,0.6,0,0.3-0.1h-0.1v-0.1c0.6,0.2,0.2,0.1,0.4,0.4c0.2-0.2,0.5-0.2,0.7-0.1v0.1h0.1v-0.3l0.4,0.3v-0.1h0.1
			c-0.2,0.4-0.2,0.9-0.1,1.3c0.1,0.1,0.2,0.3,0.1,0.4h-0.1v0.4h-0.1v0.1h0.1l-0.1,1c0,0.1,0.3,0,0.3,0.4h-0.1l0.1,0.3h-0.1v0.3h-0.1
			v0.4h-0.1c0,0,0.1,1.2,0.1,1.3h0.1l-0.1,0.7h-0.1c0,0.1,0,0.2,0.1,0.3l-0.1,0.6h0.1c0,0.2-0.3,0.3-0.1,0.6l0.3,0.1
			c-0.2,0.2,0,0.1-0.3,0.1c0.1,0.2,0.2,0.2,0.3,0.3c-0.1,0.2-0.1,0.4-0.1,0.6c-0.3,0.1-0.1,0-0.3,0.1h-0.1v0.6h-0.1
			c0,0.6,0.1,0.8,0.6,0.9c0.1,0.6,0.1,0.6,0.1,1.2c-0.1,0-0.4-0.1-0.3,0.1h0.1v0.1h-0.1v0.3h0.1c0-0.2,0.1-0.2,0.3-0.1v0.1h-0.3
			l0.1,0.9h-0.1v0.1h0.1V29c-0.1,0.1-0.1,0.2-0.1,0.3l0.1,0.3l-0.3,0.1v0.1h0.1v0.9h0.3c-0.1,0.4-0.2,0.3-0.3,0.7h0.3
			c-0.2,0.6,0,1.3-0.4,1.6c0.2,0.2,0,0.1,0.3,0.1l-0.1,1.5h0.3c0,0.1-0.2,1.2-0.1,1.2l0.3,0.1c-0.1,0.1-0.2,0.1-0.3,0.3h0.1v0.1
			h-0.1c0.1,0.2,0.1,0.2,0.3,0.3v0.1l-0.7,0.1v0.1l-0.4-0.1v0.1l-0.3-0.1v0.3c-0.3-0.1-0.3,0-0.9,0c-0.1,0.2-0.2,0.4-0.3,0.6h-0.1
			l0.1,0.9c0.7,0.1,0.8,0.5,1.2,0h0.1v0.4c0.6-0.1,0.4-0.2,0.9-0.3v0.3l0.4,0.1c0.2-0.1-0.1-0.2,0.1-0.1l0.1,0.3
			c0.3,0.2,0.7,0.3,1,0.4c0.2-0.3,0.5-0.3,0.7-0.6h0.1V39c0.6-0.1,0.4-0.1,0.9,0v-0.3l0.4,0.1c0.1-0.1,0-0.2,0.3-0.1
			c0,0,0,0.3,0.3,0.3l0.3-0.4l0.7,0.1v-0.1h0.3v-0.1l0.9,0.1c0.2,0-0.1-0.1,0.1-0.1c0.1,0.1,0,0.2,0.3,0.1v-0.1h0.7
			c0,0,0-0.2,0.3-0.1v0.1c0.1,0,0.2,0,0.3-0.1l0.4,0.1v-0.1c0.2,0,0.2,0.2,0.6,0.1v-0.1h0.4v-0.1l0.9,0.1l0.3-0.1v0.1l0.4-0.1
			c0.2,0.1,0.1,0.4,0.4,0.3l0.1-0.3c0.3,0.1,0.6,0.2,0.9,0.1v-0.1h0.9V38c0.2,0,0.3,0,0.4,0.1c0.1,0,0.2,0,0.3-0.1l0.4,0.1V38h0.1
			v0.1h0.4V38h0.4v-0.1c0.4-0.1,0.3,0.3,0.4,0.3c0.2,0.1,0,0,0.1-0.1c0.3,0,0.3,0.1,0.3,0.1h0.7c0.1-0.3,0-0.1,0.1-0.3v-0.1
			c0.4-0.1,0.4,0.3,0.4,0.3h0.4v-0.3h0.1c0,0,0.1,0.2,0.3,0.1c0,0,0-0.2,0.3-0.1v0.1h0.1v-0.1c0.2-0.2,0.5-0.3,0.7-0.3l0.1-0.7h-0.1
			v-0.7h-0.4l-0.1-0.4l-0.9,0.1v-0.1h-0.1v0.1l-0.9,0.1v-0.3l-1,0.3h-0.3v0.3h-0.1v-0.3h-0.1c-0.1,0.2-0.3,0.1-0.6,0.1
			c-0.7,0-1.5,0-2.2-0.1v0.3l-0.6-0.1l-0.1,0.3l-0.4-0.3v0.1l-2.5,0.1v-0.3l-0.4,0.1v0.1c-0.6,0.1-1.1-0.5-1.6,0.1h-0.1l0.1-0.3
			c-0.5,0.1-1.1,0.3-1.6,0.4v-0.3c-0.3,0.1-0.3,0.1-0.3,0.1h-0.7l-0.1,0.3l-1-0.1v0.1l-0.3-0.1c-0.3,0-0.3,0.1-0.3,0.1h-0.9
			l-0.1-0.7H130l0.1-0.3H130v-0.1c0,0,0.2,0,0.1-0.3l-0.1-0.3c0-0.2,0.2,0.1,0.1-0.1H130l0.1-1l-0.3-0.1v-0.3h0.1v-1l0.3-0.1
			c0-0.2-0.3-0.2-0.3-0.3c0-0.2,0.2-0.4,0.1-0.7H130v-0.6h0.1v-0.1c0-0.2-0.2,0.1-0.1-0.1s0.2,0.1,0.1-0.1h-0.3
			c0-0.1,0.3-0.3,0.1-0.6h-0.1v-0.1h0.4v-0.4h-0.4l0.4-0.6H130c0-0.2,0.1-0.4,0.1-0.6H130V27c0,0,0.2,0,0.1-0.3l-0.3-0.1v-0.3
			l0.6-0.1v-0.1c0.2-0.1,0.3,0.1,0.3,0.1h0.1v-0.1h0.4v-0.1c0.5-0.2,1,0.2,1.3,0.1c0,0,0.4-0.5,0.6-0.4v0.3l0.4-0.1v0.1
			c0.3,0.1,0.5,0,0.7-0.1v-0.1h1v-0.1h0.1l0.1,0.3c0.4-0.1,0.1-0.1,0.4,0v-0.3l0.4-0.1v0.1h0.3v0.1h0.1v-0.1h1.3v-0.1h0.3v0.1
			c0,0,0.6,0,0.3-0.1h-0.1V25l0.6,0.1c0.2,0-0.1-0.2,0.1-0.1v0.1h0.1V25l1.2,0.1V25h0.3v-0.1l0.7,0.1v-0.1h0.9v-0.1h1.6v0.1
			c0.6,0.1,0.4-0.3,0.9-0.3l0.4,0.1v-0.1h0.3v-0.1l0.4-0.1V24h0.3c0.1-0.3,0.1-0.7,0.1-1c-0.6-0.1-0.6-0.3-1.2-0.4v-0.1l-0.4,0.1
			l-3.4,0.1v0.1l-1-0.1c0,0-0.1,0.2-0.4,0.1c-0.2,0,0.1-0.2-0.1-0.1v0.1H140V23l-0.4-0.1l-0.1,0.3h-0.6V23h-0.6v0.1h-1.2v0.1h-0.7
			v0.1h-0.1c-0.1-0.1-0.1-0.2-0.3-0.3v0.3l-1.6-0.1v0.1h-0.6v0.1h-0.9v-0.1h-0.1c0,0,0.1,0.1-0.1,0.3v-0.3c-0.4,0.1-0.4,0.3-0.4,0.3
			c-0.5,0.2-1.1-0.2-1.5,0.1h-0.7c0.2-0.3,0.2,0,0.3-0.1l-0.1-0.4h-0.1c-0.2-0.5,0.2-0.8,0.3-1h-0.3l0.1-0.4c-0.1,0-0.2-0.2-0.1-0.3
			h0.1v-0.1c-0.1-0.1-0.4,0.1-0.3-0.1h0.1c0.1-0.2,0.1-0.5,0.1-0.7h-0.3l-0.1-0.4l0.3-0.1L130,19h-0.1l-0.1-0.3h0.3
			c-0.1-0.3-0.2-0.7-0.1-1c0-0.2,0.2,0.1,0.1-0.1s-0.1,0.1-0.1-0.1l0.1-0.3h-0.1c-0.1-0.4,0.1-0.4,0.1-0.4c0.1-0.5,0-1.1-0.1-1.6
			h0.3v-0.3c0.4-0.1,0.8-0.2,1.2-0.1c0,0,0,0.1,0.3,0.1l0.7-0.1v0.1c0.1,0,0.6,0.1,0.4-0.1h-0.1v-0.1h0.6v0.1h0.1v-0.1h0.4v0.3
			l0.4-0.1v-0.1h0.1v0.1c0.3,0.1,0.5-0.2,0.6-0.1v0.1l0.4,0.1v-0.1c0.1,0,0.6,0.1,0.4-0.1h-0.1v-0.1c0.2,0.1,0.4,0.1,0.6,0.1
			c0.1,0,0.1,0.3,0.3,0.3v-0.1h0.3v-0.1c0.5-0.1,1-0.1,1.5,0.1c0.1,0,0.6,0.1,0.4-0.1h-0.1v-0.1c0.5,0.3,1.1,0.4,1.6,0.1v0.3
			l0.7-0.1v-0.1l0.4,0.1v-0.1h0.3v-0.1l0.6,0.3v-0.1l0.4-0.1v0.3h0.1l0.1-0.3c0.3-0.1,0.4,0.2,0.6,0.1l0.1-0.3l0.6-0.1
			c0-0.2,0.1-0.4,0.1-0.6l-0.3-0.1v-0.1h0.1v-0.7c0,0-0.6,0-0.3,0.1h0.1v0.1c-0.7-0.4-0.1-0.4-1-0.3v-0.3l-0.9,0.1v0.1
			c-0.2,0-0.4-0.2-0.7-0.1v0.1h-0.4v0.1H141v-0.1L139.7,12.4z"/>
		<path id="パス_314" class="st1" d="M174.3,13.9v-0.1h-0.3C174.2,13.9,174.1,13.8,174.3,13.9z"/>
		<ellipse id="楕円形_46" class="st1" cx="224.2" cy="14.5" rx="0.1" ry="0.2"/>
		<path id="パス_315" class="st1" d="M136.2,14.8v-0.1h-0.3C136,14.8,135.9,14.7,136.2,14.8z"/>
		<path id="パス_316" class="st1" d="M224,15.9c0.2,0.2,0,0.1,0.3,0.1C224.1,15.9,224.3,16,224,15.9z"/>
		<path id="パス_317" class="st1" d="M72.4,46.6h0.1L72.4,46h0.1v-0.1L72.2,46L72,45.7h0.1v-0.1c-0.1-0.1-0.2,0-0.3-0.4
			c-0.2,0.1-0.2,0.3-0.3,0.3c-0.2,0-0.2-0.2-0.6-0.1c-0.2,0,0.1,0.2-0.1,0.1s0.1-0.2-0.1-0.1v0.1h-0.1v-0.1l-1.5,0.1l-0.1-0.3
			l-0.4,0.3l-0.1-0.3l-0.4,0.1v0.1L67,45.3v0.1h-0.3v0.1h-0.1v-0.1H66l-0.1-0.3l-0.6,0.1v0.1c-0.1,0-0.4-0.3-0.7-0.1v0.1h-0.4
			c0.2-0.2,0-0.1,0.3-0.1v-0.1c-0.6,0-0.8,0.1-1,0.4h-0.1v-0.4h-0.3v0.3h-0.1v-0.1l-0.4,0.1v-0.1h-0.1v0.1l-0.4,0.1l-0.1-0.3
			c-0.3-0.2-0.8-0.1-1,0.2c0,0,0,0,0,0.1h-0.1l0.1-0.3c-0.3,0-0.5,0.2-0.6,0.1v-0.1h-1.2c-0.1,0.2-0.3,0.3-0.4,0.4v-0.3h-0.6
			l-0.1,0.3l-0.7-0.1v0.1l-0.6-0.1h-0.1v0.1c-0.2,0-0.3,0-0.4-0.1l-1.3,0.1V46c-0.4-0.1-0.1-0.1-0.6,0v-0.3c-0.3,0-0.6,0-0.9,0.1V46
			c-0.3,0-0.2-0.3-0.3-0.3L52,46v-0.3l-0.6,0.1V46c-0.2,0.1-0.3-0.1-0.3-0.1c-0.5-0.1-1,0-1.5,0.1c-0.1,0-0.6,0.1-0.4-0.1
			c0.1-0.2,0.2,0.1,0.1-0.1h-0.3v0.1c-0.2,0.1,0,0-0.1-0.1h-0.1v0.1h-0.4V46h-0.4l0.1-0.3h-0.3c-0.3-0.2-0.1-0.5,0-0.7h-0.3
			c0-0.3,0-0.6-0.1-0.9h0.1V44h-0.3l0.1-0.4h-0.1v-0.3H47v-0.7h-0.1v-0.1c0.2-0.1,0.2-0.3,0.1-0.4h-0.1v-0.7l-0.3,0.1
			c0.1-0.7,0.2-0.5-0.1-1h0.3c0-0.2-0.1-0.4-0.1-0.6h0.1v-0.3h-0.3v-0.3c-0.1-0.1-0.4,0-0.3-0.4h0.1l0.1-0.4c0-0.1-0.3-0.1-0.3-0.3
			l0.3-0.1c0.1-0.4-0.2-0.3-0.3-0.4c-0.1-0.4,0-0.8,0.1-1.2H46c0-0.2,0.1-0.4,0.1-0.6H46v-0.1h0.1v-0.1H46V35
			c-0.1-0.1-0.3-0.1-0.3-0.3H46c-0.1-0.4-0.7-0.4,0-0.9v-0.1h-0.4v-0.1h0.1c-0.2-0.5-0.1-0.5,0-1l0.7-0.1v0.3l0.9-0.1v-0.1h0.1v0.1
			h1.6v-0.1h0.1v0.1h0.1v-0.1H50v0.1l0.6-0.1c0.2,0-0.1,0.2,0.1,0.1v-0.1c0.7-0.1,1.5,0.5,2.3,0.3v-0.1c0.2,0,0.5,0.2,0.9,0.1v-0.1
			h0.1v0.1h1.8v-0.1h0.3v0.1l0.1-0.1h0.1v0.1c0.1,0,0.2,0,0.3-0.1c0.3,0,0.3,0.1,0.3,0.1h0.9v-0.3h0.3v0.4l0.4-0.1v-0.1h0.1v0.1h0.4
			v-0.1l0.3,0.1v-0.1l2.1,0.1c0,0,0-0.3,0.3-0.3l0.1,0.3l0.4-0.1c0.1,0.1,0.2,0.1,0.3,0.1v-0.1h0.1v0.1h0.9v0.1h0.1v-0.1h0.1v0.1
			h0.1v-0.1l0.4,0.1l0.1-0.3H65l-0.1,0.3l2.8-0.3c0.1-0.3,0.1-0.4,0.3-0.6v-0.1h-0.4v-1.2c-0.2,0-0.4,0.1-0.6,0.1
			c-0.1-0.1,0.2-0.4-0.1-0.3c-0.1,0-0.1,0.3-0.3,0.3v-0.1H66v-0.1l-1,0.1c-0.2-0.6-0.6,0.2-1.5,0v-0.1l-0.3,0.1v-0.1h-0.1v0.1h-0.2
			v-0.1h-0.1c-0.1,0.1-0.3,0.2-0.4,0.1v-0.1L62,30.6v-0.1h-0.4v-0.1h-0.3v-0.1l-0.1,0.1h-0.6v0.1l-0.4-0.1v0.1h-1v-0.1l-1.6,0.3
			v-0.3l-1.3,0.3v-0.1h-0.6v-0.1c-0.2-0.1-0.3,0-0.4,0.1c-0.3,0.1-0.6-0.2-0.7-0.1v0.1h-0.3v0.1c-0.3,0-0.2-0.4-0.7-0.3v0.1
			c-0.8,0.2-1.2-0.3-1.8,0.1h-0.1l0.1-0.3h-0.3v-0.1l-1.5,0.1v0.1h-0.7l0.1-0.3h-0.7v0.3h-0.4l-0.1-0.3l-0.7,0.1
			c-0.2,0,0.1-0.2-0.1-0.1v0.1h-0.3v0.1h-0.3v0.1c-0.1,0-0.6-0.3-0.9-0.1v0.1h-0.1v-0.4h-0.1l-0.1-0.6H45v-0.4L44.7,29v-0.1h0.1v-1
			h-0.1l0.1-0.6h-0.1v-0.3h-0.1l0.1-0.3h-0.1v-0.4h-0.3v-0.1h0.1c0.1-0.3,0.2-0.3,0-0.7h-0.1l0.1-0.6h-0.1v-0.3h-0.1v-0.6H44v-0.1
			c0.1,0,0.2-0.2,0.2-0.3c0,0,0,0,0,0H44v-0.3h-0.1L44,23l-0.1-0.7c-0.3-0.1-0.1,0-0.3-0.1h0.3l0.1-0.6h0.1v-0.1h-0.3
			c0.1-0.2,0.2-0.1,0-0.3v-0.4H44c0.1-0.2,0,0,0.1-0.1v0.3l0.9-0.1c0.1,0.1,0.3,0.2,0.4,0.1c0.2,0-0.1-0.2,0.1-0.1v0.1h0.6v0.3
			c0.3-0.4,0.8,0.1,1.3,0v-0.1c0.3,0,0.6,0.4,1,0.3v-0.1h0.1v0.3c0.2-0.1,0.3-0.2,0.6-0.1v0.1h0.1c0-0.1,0.2-0.2,0.3-0.1
			c0,0,0,0.2,0.3,0.1v-0.1h0.4v-0.3c0.1-0.1,0.3,0.4,0.3,0.4c0.4,0.1,0.3-0.2,0.4-0.3h0.3v0.3h0.1c0-0.2,0.4-0.2,0.6-0.1v0.1h0.3
			v0.1h0.1v-0.1h0.7v-0.1l1.5,0.1c0.1,0.3,0,0.1,0.1,0.3v-0.3h0.7v0.1c0.2,0-0.1-0.1,0.1-0.1c0.1,0,0.2,0,0.3,0.1l0.6-0.1v0.3
			l1.3-0.1v-0.1c0.2,0,0.1,0.2,0.3,0.3v-0.1l0.4,0.1v-0.1h0.3v-0.1h0.1v0.1h0.6v0.3c0.2-0.6,1,0.1,1.6-0.1l0.1-0.3h0.3l0.1-0.6h0.1
			L62,20.3h-0.4c0.1-0.1,0.2-0.1,0.3-0.3c-0.2-0.1-0.2-0.2-0.3-0.3l-0.3,0.1l-0.1-0.4c-0.4-0.2-0.7,0.2-1,0.1v-0.1h-0.6
			c-0.1-0.1-0.2-0.2-0.3-0.3v0.3h-0.7l0.1-0.3h-0.4v0.1h-1.6v0.1c-0.2-0.1-0.5-0.1-0.7-0.1l-0.3,0.1l-0.1-0.3L55,19.3
			c-0.1-0.1-0.2-0.2-0.3-0.1v0.1c-0.4,0.1-0.4-0.1-0.4-0.1h-1.5V19h-0.9v-0.1c-0.4-0.1-0.3,0.3-0.4,0.3L50.6,19v0.1h-0.4V19
			l-0.6,0.1c0,0-0.1-0.6-0.1-0.3V19h-0.6v0.1h-0.1l-0.1-0.3L48.2,19v-0.1h-0.1C48,19,47.8,19.1,47.6,19v-0.1
			c-0.3-0.1-0.2,0.1-0.3,0.1h-0.1v-0.3l-0.4,0.1v-0.1h-0.3v-0.1L46,18.7v-0.1h-0.4v0.1l-0.3-0.1v0.1h-0.1v-0.1h-0.3v-0.1l-0.1,0.1
			l-0.4-0.1v0.1h-0.1v-0.1H44v0.1h-0.1v-0.1h-0.1v0.1c-0.3,0-0.6,0-0.9-0.1v0.3h-0.6c0.2,0.2,0,0.1,0.3,0.1V19h-0.3
			c-0.4,0.4,0.1,0.4,0.1,0.6v0.3h0.3V20h0.1v-0.1l0.4,0.1l-0.1,0.4l0.1,0.1l-0.7,0.1v0.1c0.1,0.1,0.2-0.1,0.1,0.1h-0.1v0.1h-0.4
			c0,0.2,0.1,0.4,0.1,0.6h-0.1v0.3h-0.3l0.1,0.4h-0.1v0.3c0.3,0.1,0.1,0,0.3,0.1h-0.1c0.1,0.2,0.2,0.4,0.1,0.6h-0.1v0.1h0.1v0.1
			L41.8,24c-0.1,0.2,0.2,0.6,0.3,0.7h0.1l-0.1,0.9h0.3c-0.1,0.3,0,0.3-0.3,0.4v0.1h0.4l-0.3,0.6h0.3v0.1c0,0-0.2,0-0.1,0.3h0.1
			l-0.1,0.4h0.1v0.7h0.1c0.1,0.1,0.3,0.6,0.1,0.9h-0.1v0.1h0.4c-0.1,0.2-0.2,0.5-0.1,0.7h0.1c0.1,0.2-0.1,0-0.1,0.1
			c0,0.2,0.1,0.2,0.3,0.3c-0.3,0.3-0.7,0.3-0.9,0.4c-0.4,0.3-0.3,0.7-0.4,1c0.5,0.2,1,0.4,1.5,0.6c0,0.1-0.1,0.6,0.1,0.4V33h0.1
			l-0.1,0.4h-0.1v0.1h0.1c0.2,0.5,0.2,0.3-0.1,0.6v0.1h0.4c-0.1,0.2-0.2,0.5-0.1,0.7H44l-0.1,0.4h-0.1c0,0.3,0.3,0.3,0.3,0.3v0.1
			h-0.1c-0.1,0.4,0.1,0.4,0.1,0.4l-0.1,0.4h0.3L44,37.4c0.1,0,0.2,0.2,0.1,0.3H44v0.1l0.3,0.1c0.1,0.2,0,0.4-0.1,0.4l0.1,0.1
			c0,0.3-0.1,0.3-0.1,0.3l0.1,0.4h-0.1v0.2l0.4,0.1c0,0.4-0.1,0.4-0.1,0.6c0,0.1,0.2,0,0.1,0.4c0,0.2-0.1-0.1-0.1,0.1h0.1l0.1,0.7
			c-0.4,0.2-0.2,0-0.1,0.4h0.3l-0.1,0.9L45,43l-0.1,0.7H45c0.1,0.2,0.1,0.2,0.3,0.3c-0.2,0.2,0,0.1-0.3,0.1c0.3,0.6,0.6,1.2,0.7,1.8
			h-0.3V46h-0.1v-0.1L44.4,46l-0.1-0.1c-0.1,0.4-0.1,0,0,0.4l-0.4,0.1c0,0.3,0,0.7-0.1,1c0.2,0.1,0.3,0.3,0.4,0.4l1.3,0.1
			c0,0,0-0.2,0.3-0.1v0.1l0.7,0.1v0.9h0.4c-0.3,0.7-0.2,0.3-0.1,1h0.4v0.1h0.1v0.4c0.1,0,0.6-0.1,0.4,0.1c-0.1,0.2-0.2-0.1-0.1,0.1
			l1.5-0.1c-0.2-0.2,0-0.1-0.3-0.1v-0.1h0.4v-0.1h-0.1c0.2-0.3,0.2-0.7,0.1-1c-0.2-0.4-0.4-0.8-0.7-1.2v-0.3h0.1v0.3l0.4-0.1v-0.1
			c0.2,0,0.4,0.2,0.7,0.1c0,0,0-0.2,0.3-0.1l0.1,0.3h0.4v-0.3l0.9,0.1v-0.1h0.1v0.1h0.6c0.1-0.1,0.2-0.2,0.3-0.3l0.1,0.4
			c0.2,0.1,0.1-0.1,0.1-0.1l1.9-0.1v0.1h0.6v-0.1l0.4,0.1l0.1-0.3l0.7,0.1v-0.1c0.2,0,0.3,0.1,0.3,0.1l1-0.1v-0.3h0.4v0.3l1.5-0.1
			l0.3,0.1v-0.1h0.6v-0.1h0.9v0.1l0.4-0.1h0.4v0.1h0.1v-0.1l0.3,0.1v-0.1h0.6v-0.1c0.6-0.1,0.4,0.4,0.9,0.3v-0.1
			c0.3,0,0.6,0,0.9,0.1v-0.1h0.7v-0.1h0.1v0.3c0.2-0.1,0.3-0.1,0.6-0.1v-0.1c0.3,0,0.4,0.4,0.7,0.3v-0.1l1.2,0.1v-0.1h1v-0.1
			c0.3,0.1,0.6,0.2,0.9,0.1v-0.1c0.2,0,0.2,0.2,0.6,0.1v-0.1h0.1v0.1c0.5,0,0.9-0.2,1.2-0.6l0.1-0.1h-0.3L72.4,46.6z M59.1,45.6
			c0.3,0.1,0.1,0,0.3,0.1C59.1,45.7,59.3,45.8,59.1,45.6L59.1,45.6z"/>
		<path id="パス_318" class="st1" d="M127.8,18.6c0.2-0.1,0,0,0.1-0.1h-0.3c0.1,0.3,0,0.1,0.1,0.3V18.6z"/>
		<path id="パス_319" class="st1" d="M60.3,19.3v-0.1H60C60.1,19.3,60,19.2,60.3,19.3z"/>
		<path id="パス_320" class="st1" d="M61.6,19.5v0.3h0.1C61.6,19.5,61.7,19.6,61.6,19.5z"/>
		<path id="パス_321" class="st1" d="M205.5,21.2h-0.3c0.1,0.3,0,0.1,0.1,0.3v-0.1C205.5,21.2,205.3,21.4,205.5,21.2z"/>
		<ellipse id="楕円形_47" class="st1" cx="205.5" cy="23.8" rx="0.5" ry="0.1"/>
		<path id="パス_322" class="st1" d="M127.9,31.1v-0.1h-0.3C127.8,31.1,127.7,31,127.9,31.1z"/>
		<path id="パス_323" class="st1" d="M67.7,31.6h0.1c-0.1-0.3,0-0.1-0.1-0.3V31.6z"/>
		<path id="パス_324" class="st1" d="M106.2,31.8h0.1c-0.1-0.3,0-0.1-0.1-0.3V31.8z"/>
		<path id="パス_325" class="st1" d="M106.2,41.6v0.3h0.1C106.3,41.6,106.4,41.8,106.2,41.6z"/>
		<path id="パス_326" class="st1" d="M59.1,45.6c0.2,0.2,0,0.1,0.3,0.1C59.2,45.6,59.4,45.7,59.1,45.6z"/>
	</g>
</g>
</svg>
