<?xml version="1.0" encoding="utf-8"?>
<!-- Generator: Adobe Illustrator 24.2.0, SVG Export Plug-In . SVG Version: 6.00 Build 0)  -->
<svg version="1.1" id="レイヤー_1" xmlns="http://www.w3.org/2000/svg" xmlns:xlink="http://www.w3.org/1999/xlink" x="0px"
	 y="0px" viewBox="0 0 194 54" style="enable-background:new 0 0 194 54;" xml:space="preserve">
<style type="text/css">
	.st0{fill:#FFFFFF;}
	.st1{fill:#FFFFFF;stroke:#FFFFFF;stroke-width:2;stroke-linejoin:round;}
</style>
<g id="グループ_524" transform="translate(0.999 1)">
	<path id="パス_722" class="st0" d="M24.9,48.2c0.4,0.4,0.7,0.7,1.1,1.1c0,0,0.1,0.1,0.2,0.1c0.1,0,0.2-0.1,0.2-0.2
		c0.1-0.2,0.3-0.4,0.5-0.6c0.8-0.9,1.4-1.6,2-2.2c0-0.1,0.1-0.1,0.2-0.1c0.1,0,0.1,0,0.2,0.1c1.7,1.5,3.5,2.9,5.3,4.2
		c0,0,0.1,0,0.1,0c0.1,0,0.1,0,0.2-0.1c0.2-0.3,0.4-0.7,0.6-1c0.1-0.1,0-0.2,0-0.3c0,0,0,0-0.1,0c-1.9-1.1-3.7-2.4-5.4-3.9
		c-0.3-0.3-0.6-0.5-1-0.5c-0.4,0-0.6,0.1-1.1,0.6c-0.6,0.6-1.2,1.2-1.7,1.8C25.8,47.5,25.4,47.9,24.9,48.2z M31.5,44.3
		c0.5,0.4,0.9,0.9,1.2,1.4c0,0.1,0.1,0.1,0.2,0.1c0,0,0,0,0,0l0.5-0.4c0.1,0,0.1-0.1,0.1-0.2c0,0,0,0,0,0c-0.3-0.5-0.7-0.9-1.1-1.3
		c-0.1-0.1-0.1-0.1-0.2,0L31.5,44.3z M32.6,43.5c0.5,0.4,0.9,0.9,1.2,1.4c0,0.1,0.1,0.1,0.2,0.1c0,0,0,0,0,0l0.5-0.4
		c0.1,0,0.1-0.1,0.1-0.2c0,0,0,0,0,0c-0.3-0.5-0.7-0.9-1.1-1.2c-0.1-0.1-0.1-0.1-0.2,0L32.6,43.5z M40.4,46.8
		c0.9,0.3,1.7,0.8,2.4,1.3c0,0,0.1,0.1,0.1,0.1c0,0,0.1,0,0.2-0.1c0.2-0.3,0.4-0.6,0.5-0.9c0,0,0-0.1,0-0.1c0-0.1,0-0.1-0.1-0.2
		c-0.7-0.5-1.5-0.9-2.3-1.2c-0.1,0-0.2,0-0.2,0.1C40.9,46,40.7,46.3,40.4,46.8L40.4,46.8z M41.8,44c0.8,0.4,1.6,0.9,2.3,1.5
		c0,0,0.1,0.1,0.2,0.1c0.1,0,0.1,0,0.1-0.1c0.2-0.3,0.4-0.6,0.6-0.9c0,0,0-0.1,0-0.2c0-0.1,0-0.1-0.1-0.2c-0.7-0.6-1.4-1-2.3-1.3
		c-0.1-0.1-0.2,0-0.3,0.1C42.2,43.4,42,43.7,41.8,44L41.8,44z M41.3,50.8c0.3,0.4,0.6,0.8,0.9,1.2c0.1,0.1,0.1,0.1,0.2,0.1
		c0.1,0,0.1,0,0.2-0.1c0.2-0.2,0.5-0.3,0.7-0.4c1.3-0.7,2.4-1.4,3.6-2.3c1.1-0.8,2.1-1.8,3-2.8c0.1-0.1,0.1-0.2,0.1-0.3
		c0-0.1,0-0.2-0.1-0.2c-0.2-0.4-0.3-0.9-0.3-1.3c-1,1.2-2.2,2.4-3.5,3.3c-1,0.8-2.1,1.5-3.3,2.1C42.4,50.5,41.9,50.7,41.3,50.8z
		 M47.3,43.1c0.5,0.4,0.9,0.9,1.2,1.4c0,0.1,0.1,0.1,0.2,0.1c0,0,0,0,0,0l0.5-0.4c0.1,0,0.1-0.1,0.1-0.2c0,0,0,0,0,0
		c-0.3-0.5-0.7-0.9-1.1-1.3c-0.1-0.1-0.1-0.1-0.2,0L47.3,43.1z M48.4,42.3c0.5,0.4,0.9,0.9,1.2,1.4c0,0.1,0.1,0.1,0.2,0.1
		c0,0,0,0,0,0l0.5-0.4c0.1,0,0.1-0.1,0.1-0.2c0,0,0,0,0,0c-0.3-0.5-0.7-0.9-1.1-1.2c-0.1-0.1-0.1-0.1-0.2,0L48.4,42.3z M60.3,44
		c0.2-0.3,0.3-0.4,0.4-0.6c0.1-0.1,0.2-0.2,0.3-0.3c0.1-0.1,0.1-0.1,0.1-0.2c0-0.1-0.1-0.2-0.1-0.2c-0.4-0.2-0.9-0.4-1.4-0.6
		c-0.1,0.5-0.3,1-0.6,1.5c-0.9,1.5-2,2.7-3.4,3.8c0.4,0.1,0.7,0.3,1,0.6c0.1,0.1,0.1,0.1,0.2,0.1c0.1,0,0.2,0,0.2-0.1
		c1-0.8,1.8-1.7,2.6-2.7l3-0.1c-0.4,0.8-0.8,1.6-1.4,2.4c-0.5-0.4-1-0.7-1.5-1c0,0-0.1,0-0.1,0c-0.1,0-0.1,0-0.2,0.1
		c-0.3,0.3-0.5,0.6-0.8,0.9c0.6,0.3,1.2,0.7,1.7,1.1c-1.3,1.4-2.8,2.5-4.4,3.3c0.4,0.1,0.8,0.3,1.1,0.6c0.1,0.1,0.1,0.1,0.2,0.1
		c0.1,0,0.2,0,0.3-0.1c1.4-0.8,2.7-1.8,3.8-3c0.4,0.4,0.8,0.8,1.2,1.2c0,0,0.1,0.1,0.1,0.1c0.1,0,0.1,0,0.1-0.1
		c0.3-0.2,0.5-0.5,0.7-0.8c0,0,0.1-0.1,0.1-0.2c0-0.1,0-0.1-0.1-0.2c-0.4-0.4-0.8-0.8-1.3-1.2c0.7-0.9,1.3-1.9,1.8-2.9
		c0.1-0.2,0.2-0.3,0.4-0.5c0.1-0.1,0.1-0.1,0.1-0.2c0-0.1,0-0.2-0.1-0.2c-0.2-0.3-0.5-0.5-0.8-0.7c-0.1-0.1-0.1-0.1-0.2-0.1
		c-0.1,0-0.1,0-0.2,0.1c-0.2,0.1-0.4,0.2-0.7,0.2L60.3,44z M77.2,45.2c-0.4,1.3-1.1,2.4-2,3.4c-1.1,1.3-2.4,2.3-3.9,3
		c0.4,0.1,0.8,0.4,1.1,0.7c0.1,0.1,0.2,0.1,0.3,0.1c0.1,0,0.2,0,0.3-0.1c1.3-0.8,2.4-1.7,3.4-2.9c1-1.2,1.8-2.5,2.3-3.9
		c0.1-0.2,0.2-0.3,0.3-0.5c0.1-0.1,0.2-0.2,0.2-0.3c0-0.1,0-0.1-0.1-0.2c-0.2-0.3-0.5-0.6-0.9-0.8c-0.1,0-0.1-0.1-0.2-0.1
		c-0.1,0-0.1,0-0.2,0c-0.2,0.1-0.4,0.1-0.7,0.1h-4.3c-0.8,0-1.5,0-2.3-0.1c0,0.3,0.1,1,0.1,1.2c0,0.2,0.1,0.3,0.2,0.2
		c0.5,0,1.2-0.1,2-0.1H77.2z M78.1,42.8c0.5,0.4,0.9,0.9,1.2,1.4c0,0.1,0.1,0.1,0.2,0.1c0,0,0,0,0,0l0.4-0.3c0.1,0,0.1-0.1,0.1-0.2
		c0,0,0,0,0,0c-0.3-0.5-0.7-0.9-1.1-1.3c-0.1-0.1-0.1-0.1-0.2,0L78.1,42.8z M79.2,42c0.5,0.4,0.9,0.9,1.2,1.4c0,0,0.1,0.1,0.1,0.1
		c0,0,0.1,0,0.1,0l0.4-0.3c0.1-0.1,0.1-0.1,0-0.2c-0.3-0.5-0.7-0.9-1.1-1.2c-0.1-0.1-0.1-0.1-0.2,0L79.2,42z M90,45.4
		c-0.1-0.4,0-0.9,0.1-1.3c0.1-0.1,0.1-0.2,0.1-0.3c0-0.1-0.1-0.2-0.2-0.2c-0.5-0.1-1-0.2-1.5-0.3c0.1,0.7,0.2,1.4,0.1,2.1v3.8
		c0,0.6,0,0.8-0.1,0.9c0,0.1,0,0.1,0,0.2c0,0.1,0,0.2,0.1,0.3c0.2,0.3,0.4,0.5,0.7,0.7c0.1,0.1,0.2,0.1,0.3,0.1c0.1,0,0.2,0,0.2-0.1
		c0.1-0.1,0.2-0.2,0.3-0.3c0.7-0.4,1.5-0.9,2.1-1.4c0.6-0.5,1.2-1,1.8-1.6c0.1-0.1,0.2-0.2,0.2-0.3c0-0.1,0-0.1-0.1-0.2
		c-0.2-0.4-0.3-0.8-0.4-1.2c-0.6,0.8-1.3,1.5-2.1,2c-0.5,0.4-1.1,0.8-1.7,1.1L90,45.4z M85.8,44c0.1,0.3,0.1,0.7,0.1,1
		c0.1,1.2-0.1,2.3-0.5,3.4c-0.4,1-1.1,1.8-2,2.4c0.4,0.1,0.7,0.3,1,0.5c0.1,0.1,0.1,0.1,0.2,0.1c0.1,0,0.2-0.1,0.3-0.2
		c0.7-0.6,1.3-1.4,1.7-2.3c0.5-1.1,0.7-2.3,0.7-3.5c0-0.3,0-0.6,0.1-0.8c0.1-0.2,0-0.3-0.2-0.4C86.8,44.2,86.3,44.1,85.8,44z
		 M103.1,44c0-0.4,0-0.8,0.1-1.1c0.1-0.1,0.1-0.2,0.1-0.3c0-0.1-0.1-0.2-0.2-0.2c-0.5-0.1-1-0.2-1.5-0.2c0.1,0.6,0.1,1.2,0.1,1.8
		v5.9c0,0.8,0,1.5,0,2.4c0,0.1,0.1,0.2,0.2,0.2c0.4,0,0.7,0,1.1,0c0.2,0,0.2,0,0.2-0.2c0-0.9,0-1.6,0-2.4v-2.7
		c1.1,0.4,2.2,0.9,3.2,1.5c0,0,0.1,0.1,0.1,0.1c0.1,0,0.1,0,0.2-0.1c0.2-0.3,0.4-0.7,0.5-1c0.1-0.2,0-0.2-0.1-0.3
		c-1.2-0.7-2.5-1.2-3.8-1.6V44z M105.2,43.2c0.5,0.4,0.9,0.9,1.2,1.4c0,0.1,0.1,0.1,0.2,0.1c0,0,0,0,0,0l0.5-0.4
		c0.1,0,0.1-0.1,0.1-0.2c0,0,0,0,0,0c-0.3-0.5-0.7-0.9-1.1-1.3c-0.1-0.1-0.1-0.1-0.2,0L105.2,43.2z M106.3,42.5
		c0.5,0.4,0.9,0.9,1.2,1.4c0,0.1,0.1,0.1,0.2,0.1c0,0,0,0,0,0l0.5-0.4c0.1,0,0.1-0.1,0.1-0.2c0,0,0,0,0,0c-0.3-0.5-0.7-0.9-1.1-1.2
		c-0.1-0.1-0.1-0.1-0.2,0L106.3,42.5z M120.5,48.2c0.9,0,1.8,0,2.7,0c0.2,0,0.2,0,0.2-0.2c0-0.4,0-0.8,0-1.1c0-0.1,0-0.2-0.2-0.2
		c-0.9,0-1.8,0-2.8,0h-3.9c-0.9,0-1.7,0-2.6-0.1c0,0.5,0.1,1,0.2,1.5c0,0.2,0.1,0.3,0.3,0.3c0.6-0.1,1.2-0.2,1.8-0.1H120.5z
		 M134.7,45.4c0-0.7,0-1.1,0-1.6c0-0.2,0-0.5,0.1-0.7c0-0.1,0.1-0.2,0.1-0.3c0-0.1,0-0.1-0.2-0.2c-0.5-0.1-1.1-0.2-1.6-0.2
		c0.1,0.4,0.1,0.8,0.1,1.2c0,0.5,0,1.2,0,1.8h-2.4c-0.6,0-1.3,0-2-0.1c0,0.4,0,0.9,0.1,1.2c0,0.2,0.1,0.2,0.2,0.2
		c0.5,0,1.1-0.1,1.7-0.1h2.3c0,1-0.2,1.9-0.7,2.8c-0.7,1-1.6,1.7-2.7,2.2c0.4,0.2,0.7,0.4,1,0.7c0.1,0.1,0.2,0.1,0.3,0.1
		c0.1,0,0.2,0,0.3-0.1c1-0.5,1.9-1.4,2.6-2.4c0.6-1,0.9-2.1,0.8-3.3h1.7c0.7,0,1.6,0,2,0c0.2,0,0.2,0,0.2-0.2c0-0.3,0-0.6,0-0.9
		c0-0.2-0.1-0.2-0.2-0.2c-0.6,0-1.4,0-2.1,0H134.7z M146.1,46.4c-0.6,0-1.5,0-2.3-0.1c0,0.4,0,0.7,0.1,1.1c0,0.2,0.1,0.3,0.2,0.3
		c0.6,0,1.5,0,1.9,0h2.1c0,0.7-0.2,1.4-0.5,2c-0.5,0.9-1.3,1.7-2.2,2.2c0.4,0.1,0.9,0.2,1.3,0.5c0.1,0,0.1,0.1,0.2,0.1
		c0.1,0,0.1,0,0.2-0.1c0.8-0.6,1.5-1.3,1.9-2.2c0.4-0.8,0.6-1.6,0.6-2.4h1.5c0.9,0,1.6,0,2.3,0c0.1,0,0.1,0,0.2-0.2c0-0.3,0-0.6,0-1
		c0-0.1,0-0.2-0.1-0.2c-0.5,0-1.6,0.1-2.3,0.1h-1.5c0-0.4,0-0.7,0-0.9c0-0.1,0-0.3,0.1-0.4c0-0.1,0.1-0.1,0.1-0.2
		c0-0.1-0.1-0.2-0.2-0.2c-0.3-0.1-0.5-0.1-0.8-0.2c0.7-0.1,1.4-0.3,2.2-0.5c0.3-0.1,0.5-0.2,0.8-0.2c0.2,0,0.3,0,0.3-0.2
		c0-0.1-0.1-0.3-0.2-0.3c-0.3-0.3-0.6-0.6-1-0.8c-0.3,0.2-0.7,0.4-1,0.5c-0.6,0.2-1.3,0.4-2,0.5c-1.2,0.2-2.4,0.4-3.6,0.4
		c0.2,0.2,0.5,0.5,0.6,0.8c0,0.1,0.1,0.3,0.3,0.3c1-0.1,1.9-0.2,2.8-0.4c0,0.2,0,0.4,0.1,0.6c0,0.3,0,0.8,0,1.2H146.1z M165.2,50.4
		l0.4-2.5c0-0.2,0.1-0.4,0.2-0.6c0.1-0.1,0.1-0.1,0.1-0.2c0-0.1,0-0.2-0.1-0.2c-0.2-0.2-0.5-0.5-0.7-0.7c-0.1,0-0.1-0.1-0.2-0.1
		c0,0-0.1,0-0.1,0c-0.2,0.1-0.5,0.1-0.7,0.1h-1.7c-0.5,0-0.9,0-1.7-0.1c0,0.4,0,0.8,0.1,1c0,0.2,0.1,0.2,0.2,0.2c0.3,0,0.9,0,1.3,0
		h1.9l-0.4,2.9h-2.8c-0.6,0-1,0-1.7,0c0,0.3,0,0.7,0.1,1c0,0.2,0.1,0.2,0.2,0.2c0.6,0,1.1,0,1.5,0h4.4c0.6,0,1.1,0,1.7,0
		c0.2,0,0.2,0,0.2-0.2s0-0.5,0-0.8c0-0.2-0.1-0.2-0.3-0.2c-0.5,0-1,0-1.5,0H165.2z"/>
	<g id="グループ_277">
		<path id="パス_301" class="st1" d="M78.4,16.9c-0.1-0.1-0.2,0-0.2,0.1L78.4,16.9L78.4,16.9z"/>
		<ellipse id="楕円形_45" class="st1" cx="48.4" cy="18" rx="0.1" ry="0.1"/>
		<path id="パス_302" class="st1" d="M180.2,22.9L180.2,22.9L180.2,22.9L180.2,22.9z"/>
		<path id="パス_303" class="st1" d="M158.5,1.8L158.5,1.8C158.4,1.9,158.4,1.9,158.5,1.8z"/>
		<path id="パス_304" class="st1" d="M158.4,1.9L158.4,1.9C158.4,1.9,158.4,1.8,158.4,1.9z"/>
		<path id="パス_305" class="st1" d="M161.8,28.3L161.8,28.3c-0.1-0.1-0.2-0.1-0.2,0c0,0,0,0,0,0h-0.1v-0.1l-0.5,0.1v-0.2
			l-0.4,0.1v-0.1h-0.3V28h-0.1v0.1c-0.2,0-0.2-0.1-0.2-0.1l-0.3,0.1V28h-0.2v-0.1h-0.7v-0.1h-0.4v-0.1c-0.2,0-0.1,0-0.2,0.1h-0.1
			c0-0.2,0.1-0.1,0-0.4H158l0.1-0.5h-0.2l0.3-0.4h-0.1v-0.1h0.1l-0.1-0.4H158l0.1-0.3h0.1c0-0.4,0.1-0.8,0.1-1.2
			c0.1-0.1,0.1-0.1,0.2-0.2h-0.2c0-0.1,0.1-0.3,0.1-0.4c0-0.1-0.1,0-0.1-0.1l0.2-0.1c0-0.1-0.2-0.2-0.1-0.4h0.1v-0.2h0.1l-0.1-0.3
			h-0.1c0-0.1,0.1,0,0.1-0.1v-0.3h0.1c0.1-0.3-0.1-0.5-0.1-0.6h0.1c0-0.2,0.1-0.4,0.1-0.5h0.1l-0.1-0.3c-0.2-0.1-0.1,0-0.2-0.1h0.2
			v-0.2h0.1v-0.1h-0.1l0.1-0.3h-0.2v-0.3h0.2c0.1-0.1-0.1-0.1-0.1-0.1v-0.3h-0.1v-0.1h0.1l0.1-0.6c0,0-0.1,0-0.1-0.2
			c0.1-0.1,0.1-0.2,0.1-0.3l-0.2-0.1c0-0.2,0.1-0.5,0.1-0.7c0.2-0.1,0.1,0,0.2-0.1h-0.2l0.2-0.8h-0.2c0-0.9,0.2-1.3,0.3-2.2h-0.3
			v-0.1h0.1c-0.1-0.1-0.1-0.3,0-0.4l0.2-0.1l-0.1-0.5l-0.2-0.1l0.1-0.3h0.1c0-0.1-0.1-0.2-0.1-0.4c0.2-0.1,0.1,0,0.2-0.1h-0.2
			c0-0.1,0-0.2,0.1-0.4h-0.1v-0.4c0,0,0.1,0,0.1-0.3h-0.1v-0.1c0,0,0.1,0,0.1-0.2l-0.2-0.1v-0.1h0.1l-0.1-0.2h0.2V11
			c0-0.1-0.2,0-0.2-0.3c0,0,0.3-0.2,0.3-0.4l-0.2-0.1c-0.1-0.2,0.1-0.2,0.1-0.4h-0.1V9.5c0-0.1-0.1,0-0.1-0.1l0.2-0.1V9.2h-0.2
			c0.1-0.3,0.1-0.7,0.1-1c0,0-0.1,0-0.1-0.2c0.1,0,0.1-0.1,0.1-0.2c-0.1-0.1-0.1,0-0.1-0.1h0.1l0.1-0.4h-0.2l0.1-0.2h-0.2
			c0.1-0.3,0.2-0.6,0.3-0.9h-0.2V6l0.2-0.1V5.8h-0.1l0.1-0.5h-0.1V5.2h0.1V5.1h-0.1l-0.2-0.5l0.2-0.1c0-0.1,0-0.2-0.1-0.3
			c0-0.3-0.1-0.7-0.1-1h0.1V3.1h0.1c0-0.3,0-0.3-0.3-0.4l0.1-0.4h0.1l-0.1-0.1l0.1-0.1L158.5,2h0.1V1.9l-0.2-0.1c0,0.1,0,0.1,0,0
			l0,0c0-0.1,0-0.1,0,0l0,0V1.5h0.1c0-0.2,0-0.3-0.1-0.4h-0.2c0,0,0.2-0.2,0.1-0.4h-0.1L158,0.5c-0.3,0-0.3,0.1-0.4,0.3h-0.1v0.1
			h0.2c0,0,0,0.3-0.1,0.2V0.9h-0.1l-0.1,0.3h0.2v0.1h-0.3c0,0.1,0.2,0.2,0.2,0.2l-0.4,1.2h0.3l-0.1,0.5h0.1v0.1h-0.1v0.1
			c0.1,0.1,0.1,0,0.1,0.1h-0.1v0.2l0.1,0.3L157.3,4c0,0.2,0.1,0.2,0.1,0.4h-0.1c-0.1,0.6,0.2,0.6-0.1,1.1l0.3,0.1
			c0.1,0.2-0.2,0.3-0.2,0.4c0.2,0.8,0.2,1.6,0.1,2.3h-0.1v0.1h0.1l0.1,0.2h-0.1c-0.1,0.1-0.1,0.3-0.1,0.4h0.2
			c-0.1,0.3-0.1,0.6,0,0.9h-0.2c0,0.2,0,0.3,0.1,0.4h0.2l-0.1,0.3c0,0-0.3,0-0.2,0.1h0.2l-0.1,0.4h0.1v0.6h-0.1
			c0,0.1,0.1,0.1,0.1,0.4c0,0-0.1,0-0.1,0.3h0.1l-0.1,0.3l0.1,0.3h-0.1v0.3h0.2c-0.1,0.1-0.1,0.3-0.1,0.4h-0.2v0.1
			c0.1,0,0.2,0.3,0.2,0.4h-0.1c0,0.1,0.1,0.1,0.1,0.4c-0.1,0.1-0.1,0.2-0.1,0.3c0.1,0.1,0.1,0.2,0.1,0.3c0,0-0.1,0-0.2,0.3h0.2v0.2
			h-0.1l0.1,0.2h-0.1v0.1c0.1,0,0.1,0.1,0.1,0.2c0,0,0,0,0,0l-0.2,0.1v0.3c0.1,0,0.2-0.1,0.3-0.2h0.1l-0.1,0.3h-0.1v0.3l-0.2,0.1
			c0,0.1,0,0.1,0.1,0.2c0,0,0,0,0,0l-0.1,0.4h-0.1c0,0.2,0.1,0,0.2,0.1l-0.1,0.1c0,0.1,0.1,0.1,0.1,0.4h-0.1V18
			c0.1,0,0.1,0.1,0.1,0.2h-0.1v0.4h0.1V19h-0.1l0.1,0.3h-0.1v0.4h0.1l-0.1,0.3h0.1v0.1h-0.1v0.2h-0.1c0,0,0.2,0.7,0.2,0.7h-0.2
			c0.1,0.1,0,0,0.2,0.1l-0.1,0.6h-0.1l0.1,0.3h-0.1v1h-0.1v0.3H157c0,0.1,0.2,0.2,0.1,0.4l-0.2,0.1L157,24h-0.1
			c0,0.2,0.1,0.2,0.1,0.2c0,0.2,0,0.5-0.1,0.7c0.2,0.1,0.1,0,0.2,0.1l-0.3,0.1v0.4h0.2l-0.2,0.3h-0.1c0.1,0.2,0.1,0.4,0.1,0.6
			l-0.2,0.1l0.2,0.8h-0.1v0.2h-0.1c0,0.1,0.1,0.3,0.1,0.4l-0.2,0.1l0.2,0.5h0.1l-0.1,0.2h0.1l0.1,0.2h0.2v0.1h0.6l-0.1,0.2
			c0.3,0,0.2-0.1,0.4,0v0.1l0.3-0.1v0.1h0.3v0.1c0.1,0,0.2-0.2,0.4-0.1l0.1,0.2l0.2-0.1v0.1c0.1,0,0.1-0.1,0.4-0.1v0.1h0.4v-0.1h0.1
			v0.2l0.2-0.1c0.1,0,0,0.1,0.1,0.1v-0.1c0.2,0,0.2,0.1,0.3,0.2c0,0,0.3,0,0.2-0.1h-0.1v-0.1l0.3,0.1v0.2c0.3,0,0.2-0.1,0.5-0.2
			c0.1,0.2,0,0.1,0.1,0.2v0.1h0.1v-0.2l0.8,0.2l0.1-0.2c0.1,0,0.1,0.2,0.2,0.2l0.2-0.1c0.1,0.1,0.1,0.2,0.3,0.3v-0.1
			c0.1,0,0.4-0.1,0.4-0.1l0.1,0.2l0.3-0.1v0.1h0.6c0,0,0-0.1,0.2-0.1l0.1,0.2l0.4,0.1V30l0.9,0.1V30c0.1,0,0.1,0,0.2,0.1h0.1V30h0.4
			c0.1,0.3,0.5,0.1,0.8,0v0.2l0.3-0.1v0.2h0.1v-0.2h0.2v0.2h0.1c0-0.1,0.1-0.1,0.2-0.1c0,0,0,0.1,0.2,0.1v-0.1l0.3-0.1v0.1
			c0.1,0,0.2,0.1,0.4,0.1v-0.2h0.2v0.2h0.4c0.1,0,0,0.1,0.1,0.1c0.1,0,0-0.1,0.2-0.1v0.1c0.1,0,0.1-0.1,0.4-0.1v0.1h0.3v0.1l0.6-0.1
			v-0.2c0.2-0.1,0.2-0.1,0.4-0.2c0-0.3-0.1-0.3,0.1-0.4v-0.1h-0.3l-0.1-0.3l-0.4-0.1V29c-0.3-0.1-0.6,0.1-0.7,0.1V29h-0.2v-0.1h-0.5
			v-0.1h-0.1c0,0.1-0.1,0.1-0.2,0.1v-0.1h-0.1v0.1h-0.2V29l-0.4-0.3l-0.1,0.2h-0.4v-0.2c0,0.1-0.3,0-0.4,0.1v0.1h-0.1v-0.3
			c-0.1,0.1-0.1,0.1-0.2,0.2l-0.3-0.1v0.1H167v-0.1h-0.1v0.1c-0.2,0-0.4-0.1-0.5-0.2c0,0,0.1,0.1-0.1,0.2v-0.2H166v0.2
			c-0.2-0.1,0-0.1-0.1-0.2c0,0-0.2,0.2-0.4,0.1l-0.1-0.2c-0.1,0-0.1,0-0.2,0.1c0,0,0,0,0,0c-0.1,0-0.1,0-0.2-0.1l-0.2,0.1l-0.6-0.1
			c0,0,0,0.1-0.2,0.1v-0.1c-0.2,0-0.2,0.1-0.4,0.1v-0.1l-0.4-0.1v-0.1l-0.4,0.1v-0.1h-0.1v0.1c-0.1,0,0-0.1-0.1-0.1h-0.3v-0.1
			c-0.1,0-0.2,0.2-0.4,0.1v-0.1L161.8,28.3z"/>
		<path id="パス_306" class="st1" d="M10.4,29.3c0.3-0.3,0.2,0.2,0.3,0.4l0.3,0.1c-0.1,0.2,0,0.1,0,0.4c0.2,0.1,0.1,0,0.2,0.1
			c0.1,0.1,0,0,0,0.2h0.1c0.1,0.1,0.2,0.3,0.2,0.4h0.2l-0.1,0.3l0.3,0.1v0.4h0.2c0,0.2,0,0.2,0.1,0.4h0.1v0.3h0.1l0.1,0.3h0.2
			c0,0.2,0.1,0.3,0.2,0.4l0.3,0.1v-0.1H13v0.1c0.6,0,0.4,0,0.6-0.4l0.3-0.2l-0.1-0.2H14c-0.2-0.4-0.2-0.2,0-0.6l-0.1-0.2l0.2-0.1
			v-0.3h0.1l0.1-0.3h-0.2l0.1-0.2h0.2c-0.1-0.1-0.1-0.3,0-0.4h0.1v-0.4h0.1c0.1-0.1,0.1-0.3,0.1-0.4h0.2V29h-0.1v-0.1l0.3-0.1
			c-0.1-0.3,0-0.1,0.1-0.4h0.2L15,28.1l0.3-0.1l0.1-0.8l0.2-0.1v-0.3c0.2-0.4,0.2-0.4,0.1-0.7h0.2c0-0.2,0-0.3,0.1-0.4H16v-0.3h0.1
			V25l0.2-0.1v-0.4c0,0,0.1,0,0.1-0.2c0-0.1-0.1,0-0.1-0.1h0.1v-0.2h0.1v-0.2h0.1c0.1-0.3,0.2-0.6,0.3-0.9H17l-0.1-0.3H17l0.1-0.4
			h0.2l0.1-0.4h0.1v-0.3h0.1c0.1-0.1,0.2-0.3,0.2-0.4h0.2l0.1-0.4c0-0.1-0.1,0-0.1-0.1c0,0,0.1,0,0.2-0.3c0,0,0.3,0,0.2-0.1h-0.1
			v-0.1h0.2V20h-0.2c-0.1,0,0.3-0.2,0.3-0.2l0.1-0.4l0.2-0.1v-0.2h0.1V19c0-0.1,0.1-0.1,0.2-0.2h-0.2c0.1-0.2,0-0.2,0.3-0.3v-0.3
			c0,0,0.3,0,0.2-0.1c0-0.1-0.1,0-0.1-0.1h0.1V18h-0.1c0,0,0-0.3,0.1-0.2V18h0.1c0.1-0.1,0.1-0.2,0.1-0.4c-0.2-0.1-0.1,0-0.2-0.1
			l0.4-0.1l0.2-1.1l0.3-0.2c0.1-0.3-0.2-0.3-0.2-0.4H20v-0.2l0.3-0.2L20.2,15h0.1v-0.3l0.2-0.1c0-0.1-0.2-0.1-0.2-0.2l0.3-0.1
			c-0.1-0.1-0.1-0.2-0.1-0.4h0.2c0-0.2,0.1-0.1,0.1-0.2l-0.1-0.1v-0.1h0.1v-0.3h0.1v-0.2h0.1c0-0.1-0.2-0.2-0.1-0.4l0.2-0.1v-0.2
			h0.1v-0.4h0.1v-0.1c0,0-0.1,0-0.1-0.2h0.1v-0.2h0.1c0.1-0.2,0.1-0.5,0.2-0.7h0.1V11h-0.1c0-0.1,0.2-0.3,0.1-0.5h-0.1v-0.1l0.2-0.1
			c0.1-0.2-0.1-0.3-0.1-0.4l0.3-0.2c0.1-0.2-0.1-0.4-0.1-0.4h0.1V9.1h0.1V8.7H22l-0.1-0.3c0-0.3,0-0.6,0.2-0.8h-0.2
			c0-0.2,0-0.4,0-0.6H22c0-0.1-0.2-0.4-0.2-0.4h0.1V6.1H22v-1h0.1V5H22V4.9h-0.1V4.8h0.2V4.7H22V4.4h-0.1c0-0.1,0.2-0.2,0.2-0.2
			L22,3.5c0-0.1,0.1-0.3,0.2-0.5H22V2.8l0.2-0.1l-0.1-0.3l0.1-0.2L22,2.2c0-0.1,0,0,0.1-0.1c0-0.2-0.1-0.3-0.1-0.3l0.1-0.5
			c-0.4-0.1-0.1-0.1-0.3-0.4h-0.1c0,0,0,0.3-0.1,0.2V1c0,0-0.3,0-0.2-0.1h0.2V0.8l-0.4,0.1V0.8c-0.2,0-0.3,0-0.4,0.1v0.5h-0.1v0.1
			h0.1v1c0,0,0.1,0,0.1,0.2c0,0.1-0.1,0-0.1,0.1s0.1,0,0.1,0.1c-0.1,0.1-0.1,0-0.1,0.1h0.1v0.4h-0.1l0.1,0.4h-0.1v0.2h-0.1
			c0,0.1,0.2,0.2,0.1,0.4h-0.1v0.3h-0.1C20.5,5,20.8,5,20.8,5v0.1h-0.1v0.3h-0.1v0.1h0.1v0.7h-0.2v0.2l0.2,0.1
			c0.1,0.2-0.1,0.2-0.1,0.4c0.1,0,0.1,0.1,0.1,0.2h-0.1v0.1h0.1v0.4h-0.1v0.3h-0.1L20.4,8l0.3,0.1v0.1h-0.2v0.1h0.1v0.1h-0.1
			c0,0.1,0,0.2,0.1,0.3l-0.1,0.5l-0.2,0.1c0.1,0.1,0.1,0.1,0.2,0.2h-0.2l0.1,0.3l-0.2,0.1v0.4h-0.1v0.4h0.1c0,0.1-0.1,0-0.1,0.1v0.4
			h-0.3c0,0.4,0.1,0.5-0.1,0.9L19.6,12l0.1,0.1l-0.1,0.5h-0.1v0.2h-0.1v0.5h-0.1c0,0.1-0.2,0.3-0.2,0.4h0.1c0,0,0,0.3-0.1,0.2v-0.1
			C19,14,19.1,14,19,14.1h-0.1v0.1c0.1,0.1,0.1,0.2,0.3,0.3c-0.1,0.1-0.2,0.2-0.4,0.4l0.1,0.3l-0.1,0.1h0.1v0.1l-0.2,0.1l-0.1,0.9
			l-0.2,0.1v0.3h-0.1v0.2h-0.1v0.4l-0.4,0.2l0.1,0.3l-0.2,0.1v0.3h-0.1v0.2h-0.1v0.4c-0.2,0.4-0.7,0.5-0.5,1.1h-0.2v0.2h-0.2
			c0,0.2,0,0.3-0.1,0.4h-0.1c-0.1,0.2,0.1,0.3,0.1,0.4h-0.2L16.3,21h0.1l-0.1,0.3h-0.2v0.1h0.1v0.1L16,21.5v0.4L15.8,22v0.2
			c0,0.1-0.2,0-0.2,0.2c0,0,0.2,0,0.1,0.2c0,0.1-0.1,0-0.2,0.3h-0.2v0.5l-0.2,0.1v0.4L15,23.9c-0.1,0.1,0.1,0,0.1,0.1L15,24.2h0.1
			v0.1H15l-0.1,0.2h-0.1v0.1h0.1l-0.1,0.8l-0.2,0.1v0.2h-0.1c0,0.1,0.1,0.1,0.2,0.2l-0.2,0.1l-0.1,0.5h-0.1v0.3h-0.1l0.1,0.3h-0.1
			v0.2L14,27.3v0.3l-0.2,0.1v0.4h-0.1v0.2h-0.1v0.3l-0.2,0.1L13.3,29h0.1v0.1l-0.2,0.1c-0.1,0.2,0.1,0.3,0.1,0.4l-0.3,0.2L13,30.4
			c-0.1,0-0.3-0.1-0.4-0.3h-0.2v-0.1h0.1c0-0.2-0.1-0.3-0.2-0.4h-0.1v-0.2h-0.2c0-0.1-0.1-0.2-0.1-0.4l0.1-0.1h-0.2v-0.2h-0.3
			c0-0.3-0.1-0.4-0.2-0.7L11.2,28l-0.1-0.3h0.2v-0.1h-0.1c-0.1-0.1-0.2-0.2-0.2-0.4h-0.2c-0.1-0.4-0.1-0.2-0.2-0.6h-0.2v-0.3h0.1
			v-0.1h-0.3c0-0.2,0-0.5,0-0.7h-0.2l-0.2-0.8c0,0-0.3,0-0.2-0.1h0.1v-0.1H9.7c0-0.1,0-0.2,0.1-0.4l-0.2-0.1l-0.2-0.8
			c-0.1,0.1-0.1,0.1-0.2,0.2v-0.2H9.1c-0.1-0.2,0.1-0.2,0.2-0.3V23H9c0-0.2,0-0.4,0-0.6H8.8l0.1-0.4H8.8l-0.1-0.5
			c-0.2-0.1-0.1,0-0.2-0.1H8.4c-0.1-0.2,0.1-0.3,0.1-0.4l-0.3-0.2c-0.1-0.1,0,0,0.1-0.1l-0.1-0.5l-0.4-0.2v-0.4
			c0-0.1-0.2-0.1-0.3-0.3c0.1-0.1,0.1,0,0.1-0.1c0-0.1-0.3-0.1-0.2-0.3h0.1v-0.1H7.3L7.1,18H7v-0.4c-0.2-0.1-0.1,0-0.2-0.1H6.7
			l0.1-0.2H6.6l-0.1-0.3h0.1v-0.3H6.5v-0.1h0.1v-0.2c-0.2,0.1-0.1,0-0.2,0.1H6.3c0.1-0.2,0.1-0.4,0.1-0.6H6.3c0-0.2,0-0.4,0-0.5H6.2
			C6,15.2,6,15.3,6.1,15H5.9v-0.2H5.7c-0.1-0.1,0.1-0.1,0.1-0.1c0-0.2-0.2-0.2-0.2-0.4c0.1-0.1,0.1,0,0.1-0.1H5.5
			c-0.1-0.4-0.3-0.6-0.4-0.9H5V13H4.8c-0.1-0.1,0.1-0.1,0.1-0.1c0-0.2-0.2-0.2-0.2-0.4c0.1-0.1,0.1,0,0.1-0.1H4.6v-0.2H4.5l0.1-0.4
			c-0.3-0.1-0.3-0.2-0.4-0.3v-0.2H4c0-0.1,0.1,0,0.1-0.1v-0.4L3.8,11c0-0.2-0.1-0.3-0.2-0.4H3.6l0.1-0.2l-0.2-0.1L3.4,9.7H3.2
			c0-0.1,0.1-0.2,0.1-0.4c0,0-0.3-0.1-0.3-0.3C3.1,9,3.1,9,3.1,8.9C2.9,8.8,3,8.9,2.9,8.8H2.8V8.4C2.7,8.1,2.6,8.1,2.5,7.8H2.3V7.3
			C2.2,7.4,2.1,7.3,2,7.2H1.9C2,7,2,6.8,2,6.7H1.7c0,0,0.2-0.3,0.1-0.4L1.5,6V5.6c0,0-0.1,0-0.1-0.2l0.3-0.1c0.1,0,0,0.2,0.2,0.2
			V5.4C2,5.3,1.9,5.4,2,5.3h0.1V5h0.1C2.2,4.8,2.2,4.9,2,4.8V4.7H1.9C1.8,4.8,1.9,4.7,1.7,4.8v0.1L1.5,4.8L1.4,5
			C1.2,5,1.3,5.1,1.2,5H1.1c0,0.1,0.1,0.1,0.2,0.2v0.1H1v0.2L0.7,5.3v0.2H0.5c0,0.1,0,0.2,0.1,0.4c0,0.1-0.1,0-0.1,0.2h0.1
			c0,0.1-0.2,0.2-0.1,0.4h0.1L0.7,7h0.2v0.1H0.8c0,0.2,0.1,0.3,0.2,0.4H1v0.3h0.4v0.1H1.2v0.2h0.2L1.3,8.5h0.1L1.5,9h0.1l0.1,0.4
			h0.1v0.4l0.2-0.1v0.4l0.3,0.2v0.4h0.1c0.1,0.1,0.2,0.3,0.2,0.5h0.2v0.1c-0.1,0-0.1,0.2-0.1,0.3h0.1v0.1h0.3c0,0.3,0,0.5,0.2,0.7
			h0.2l-0.1,0.2c0.1,0.2,0.2,0.4,0.3,0.6h0.2c0.1,0.4,0.2,0.3,0.2,0.8C4,14.1,3.9,14,4,14.1h0.1L4,14.4l0.2,0.1
			c0.1,0.2,0.2,0.4,0.2,0.6l0.3,0.1l0.1,0.5h0.2v0.5H5c0,0.1,0,0-0.1,0.1c0,0.3,0.1,0.2,0.3,0.3v0.6l0.3,0.2c0,0.1,0,0.2-0.1,0.2
			c0,0,0,0,0,0L5.4,18h0.2l0.1,0.5h0.2L6,19.1h0.2c0.1,0.1-0.1,0.1-0.1,0.1c0,0.2,0.1,0.1,0.3,0.1L6.4,20h0.2c0,0.2-0.1,0.2,0,0.4
			h0.1v0.1h0.2c-0.1,0.1-0.1,0.2-0.1,0.4H7l0.1,0.4h0.1l-0.1,0.4h0.3c0,0.2,0,0.4,0.1,0.6l0.2,0.1l-0.1,0.3l0.2,0.1L7.8,23h0.1
			l-0.1,0.4h0.1C8,23.6,8,23.8,8,24.1l0.3,0.1c0,0.2-0.1,0.3-0.2,0.4c0.1,0.1,0,0,0.2,0.1v0.3h0.2c0,0.1,0,0.3,0.1,0.4h0.1l-0.1,0.3
			h0.1c0.1,0.2,0,0.2,0.3,0.3V26H8.8L9,26.5h0.1L9,26.7h0.2v0.4h0.2v0.3h0.2l0.2,0.8l0.3,0.1l0.1,0.4C10.6,28.8,10.2,28.8,10.4,29.3
			z"/>
		<path id="パス_307" class="st1" d="M111.5,21.1h-0.2v0.5h-0.1v0.2h-0.1l0.1,0.5h-0.1c-0.1,0.1-0.3,0.1-0.3,0.4l0.1,0.1h-0.2
			l-0.1,0.4c0,0,0.1,0,0.1,0.2h-0.1v0.2h-0.1c-0.1,0.2,0.1,0.3,0.1,0.4l-0.2,0.1l-0.1,0.7l-0.2,0.1l-0.1,0.8H110l0.1,0.4H110
			c-0.1,0.3-0.1,0.2,0.1,0.4v0.4l0.2-0.1l0.2,0.3c0.3,0.2,0.6,0,0.9-0.1c0-0.5,0.3-0.7,0.1-1.2h0.2v-0.4l0.2-0.1
			c0-0.2-0.1-0.4-0.1-0.5c0.2-0.1,0.1,0,0.2-0.1h0.1l-0.1-0.4l0.2-0.1c0-0.1-0.1-0.3-0.1-0.4c0.2-0.1,0.1,0,0.2-0.1h0.1l-0.1-0.3
			l0.3-0.2c0-0.2-0.1-0.3-0.1-0.4h0.1v-0.2h0.1l-0.1-0.3l0.2-0.1v-0.2h0.1c0.1-0.1-0.1-0.3-0.1-0.4l0.4-0.1
			c-0.2-0.2,0.1-0.6,0.1-0.9h0.2v-0.5l0.2-0.1v-0.4l0.4-0.3c0-0.1-0.2-0.2-0.1-0.4h0.1v-0.2h0.1c0.1-0.3,0-0.2,0-0.4h0.1V18h0.3
			c0-0.2,0.1-0.4,0.1-0.5h-0.1v-0.1l0.3-0.2c0-0.2,0.1-0.4,0.1-0.6c0-0.3,0.3,0,0.2-0.1h-0.1v-0.1h0.2c0-0.1,0-0.3,0.1-0.4h0.1V16
			H115c0-0.1,0.1-0.1,0.2-0.2v-0.4h0.3c0-0.4,0.1-0.4,0.3-0.6h0.1l-0.1-0.3l0.2-0.1v-0.3l0.3-0.1v-0.3l0.3-0.1l-0.1-0.4h0.1
			c0.1-0.1,0,0,0.1-0.1v0.2c0.3,0.1,0.5,0.1,0.8,0c-0.1,0.1,0,0-0.2,0.1v0.1l0.5-0.1v0.1h0.3v0.1l0.3-0.1v0.1h0.1
			c0-0.1,0.1-0.2,0.2-0.2l0.1,0.2h0.2v0.1h0.4v0.1h0.4v0.1h0.1v-0.2h0.3v0.2l0.4,0.1v-0.1h0.4V14c0.3,0.1,0.5,0.1,0.8,0v0.2l0.3-0.1
			v0.1c0.2,0,0.5,0,0.6,0.1l-0.1,0.3h0.2v0.7l0.2,0.1c0,0.2-0.1,0.1,0,0.4h0.1l-0.1,0.1l0.1,0.2h-0.1v0.1l0.3,0.1l-0.2,0.3h0.2
			c-0.1,0.1-0.1,0.2-0.1,0.4h0.2l0.1,0.6c0,0.1-0.1,0-0.1,0.1l0.2,0.1V18l0.2,0.1c0.1,0.2-0.1,0.2-0.2,0.3v0.1h0.4
			c-0.1,0.2-0.1,0.1-0.2,0.4h0.2l-0.1,0.3h0.2c-0.2,0.1,0,0.5,0.1,0.6h0.1v0.3h-0.1l0.1,0.3c0,0,0.3,0,0.2,0.1h-0.1v0.4l0.2-0.1
			c0,0.1-0.2,0.2-0.1,0.4l0.2,0.1v0.4h0.1v0.4h0.1c0,0.3,0.1,0.5,0.1,0.8l0.2,0.1c0.1,0.2,0,0.6,0,0.7l0.2,0.1
			c0,0.2,0.1,0.4,0.1,0.5h0.1v0.2h0.1l-0.1,0.3l0.2,0.1l-0.1,0.2h0.1V25h0.1l-0.1,0.4h0.1l0.1,0.4h0.1l0.1,0.3
			c0.2,0,0.6,0.1,0.6,0.1l0.1-0.2l0.1,0.1l0.3-0.1c-0.1-0.2-0.1-0.5,0-0.7h0.1c0-0.3-0.2-0.2-0.2-0.4l0.1-0.1h-0.2
			c0-0.4-0.1-0.5,0-0.7h-0.2l-0.1-0.4h-0.1l0.1-0.3H126l0.1-0.3H126v-0.2h-0.1v-0.3h-0.1c0-0.2-0.1-0.5-0.1-0.7h-0.1v-0.4l-0.2-0.1
			v-0.5c0,0-0.1,0-0.1-0.2c0.2-0.1,0.1,0,0.2-0.1c-0.2-0.1-0.2,0-0.3-0.2h-0.1v-0.1h0.1l0.1-0.2h-0.2c0-0.2,0-0.3,0.1-0.4l-0.3-0.2
			c-0.1-0.2-0.1-0.5,0-0.7v-0.1h-0.3l0.1-0.3h-0.1l0.1-0.2l-0.3-0.1c0-0.1,0.1-0.2,0.1-0.4h-0.2c0.1-0.2,0.1-0.2,0.2-0.4l-0.3-0.1
			v-0.4c0-0.1-0.1,0-0.1-0.1c0,0,0.2-0.1,0.1-0.3l-0.3-0.2c0,0,0.1-0.4,0.1-0.5l-0.2-0.1l0.1-0.4l-0.3-0.1l0.1-0.4h-0.1v-0.3
			l-0.2-0.1l0.1-0.3l0.5-0.1v0.2h0.1c0-0.1,0.3-0.1,0.4-0.1c0,0,0,0.1,0.2,0.1v-0.2c0.1,0.1,0.2,0.1,0.4,0.1v-0.1l1.1,0.2v-0.1
			l0.4,0.1v-0.1h0.4v0.1h0.1c0-0.1,0.1-0.1,0.2-0.1c0,0,0,0,0,0l0.1,0.2l0.3-0.1l0.1,0.2c0.2-0.1,0.1-0.1,0.4-0.2l0.1-0.3h0.2V14
			c-0.2-0.1-0.1,0-0.2-0.1h0.2l-0.1-0.3h-0.1c-0.1-0.1,0.1-0.1,0.1-0.1v-0.1h-0.1v-0.2c-0.1,0.1-0.3,0-0.5,0l-0.1-0.3l-0.7,0.1v0.1
			l-0.3-0.1V13l-0.3,0.1V13l-0.3,0.1l-0.1-0.2c-0.1,0-0.2,0.2-0.2,0.2h-0.4v0.1h-0.1v-0.1L125,13c0.1,0.1,0.1,0.1,0.2,0.2l-0.3-0.1
			V13h-0.2v-0.1l-0.9,0.2v-0.2l-0.3,0.1c0,0,0-0.1-0.3-0.2c0-0.3-0.1-0.6-0.1-0.9H123c0.2-0.1,0.1-0.4,0.1-0.7
			c-0.2-0.1-0.1,0-0.2-0.1h-0.1l0.1-0.5l-0.2-0.1l0.1-0.5h-0.1V9.8h-0.1V9.4h0.1c0-0.1-0.1-0.1-0.1-0.4h-0.3c0.1-0.2,0.1,0,0.2-0.1
			V8.9c-0.1-0.1-0.1-0.3-0.1-0.5h0.1V8.3l-0.3-0.2c0-0.1,0.1-0.2,0.1-0.4l-0.3-0.1c0.1-0.3,0.1-0.6,0-0.9l-0.2-0.1l-0.1-0.8h-0.2
			V5.5h-0.2V5h-0.1l0.1-0.4h-0.3c0.1-0.5-0.2-0.8-0.4-1.3c-0.1-0.2,0.1-0.5,0.1-0.5l-0.2-0.1V2.4c-0.1,0-0.3,0.1-0.2-0.1h0.1V2.2
			h-0.1c-0.1-0.4-0.1-0.1-0.4-0.3l-0.1-0.2l-0.5,0.1V1.8h-0.1v0.3c0,0.1-0.2,0-0.2,0.3c0,0,0.1,0,0.1,0.2c0,0.1-0.2,0-0.2,0.2h0.1
			l0.1,0.3h-0.2l-0.1,0.4h-0.1l0.1,0.2h-0.1v0.2H119v0.2l-0.3,0.2v0.3l-0.2,0.1v0.1h0.1c0,0.2-0.1,0.3-0.3,0.4
			c0,0.1,0.1,0.1,0.2,0.2l-0.3,0.4h-0.1l0.1,0.2l-0.4,0.2c0.2,0.5,0.2,0.4-0.1,0.8h-0.2c0.1,0.2,0,0.1,0.1,0.2c0,0,0.1,0.4-0.1,0.3
			V6.9h-0.1l-0.1,0.3h0.2c-0.2,0.2-0.3,0.5-0.4,0.7h-0.2v0.5l-0.2,0.1l0.1,0.2h-0.2l-0.1,0.5l-0.3,0.1v0.2h0.1
			c0,0.1-0.1,0.2-0.1,0.4h-0.2l-0.1,0.4l-0.2,0.1l0.1,0.2H116v0.2h-0.1L116,11c-0.1,0.1-0.2,0-0.2,0.2h0.1v0.1h-0.2
			c-0.1,0.2-0.1,0.4-0.1,0.6l-0.5-0.1v-0.2c-0.3,0-0.2,0.1-0.5,0v-0.1l-0.2,0.1c0,0,0.1-0.3-0.1-0.2l-0.1,0.3
			c-0.2,0.1-0.3-0.1-0.4-0.1v0.1c-0.2,0.1-0.1,0-0.3,0c-0.1,0.1,0,0-0.1,0.1c0,0.2,0.1,0.2,0.1,0.2c0.1,0.2-0.2,0.2,0,0.4h0.2
			l-0.1,0.2h0.2l0.1,0.2h0.1l-0.1,0.2l0.3-0.1v0.1h0.2v0.1l0.4-0.1v0.3c0.2-0.1,0.1,0,0.2-0.1h0.1c-0.1,0.1-0.2,0.2-0.3,0.3
			c-0.1,0.1,0,0-0.1,0.1h0.2c-0.1,0.2-0.2,0.4-0.3,0.5h-0.2c0,0.5-0.2,0.5-0.3,1c-0.2,0.1-0.1,0-0.2,0.1h-0.1v0.4l-0.3,0.2l0.1,0.3
			h-0.1c-0.1,0.2-0.2,0.5-0.4,0.6c0,0,0,0.3,0.1,0.2v-0.1h0.1l-0.1,0.2c0.1,0.1,0.1,0,0.1,0.1h-0.1V17l-0.3,0.1v0.5
			c-0.2,0.1-0.1,0-0.2,0.1c-0.2,0.2-0.1,0.4-0.1,0.6c0,0-0.3,0-0.2,0.1h0.2v0.1h-0.3v0.4h-0.3v0.5l-0.2,0.1l-0.1,0.4l-0.2,0.1
			l0.1,0.3h-0.1v0.3h-0.2l-0.1,0.3h0.1L111.5,21.1z M116.7,11.9c0.1-0.1,0.2-0.1,0.4-0.1c0-0.6,0-0.3,0.3-0.6h0.1V11h-0.3
			c0-0.1-0.1-0.3,0.1-0.2c0,0,0,0.2,0.1,0.1v-0.2l0.2-0.1c-0.1-0.1-0.1-0.3,0-0.4l0.2-0.1V9.9h0.1l-0.1-0.2l0.2,0.1
			c0.1-0.2,0.4-0.6,0.2-0.8V8.9h0.3V8.8h0.1c-0.1-0.1-0.1-0.2-0.1-0.4c0.3-0.1,0.3-0.2,0.4-0.4h-0.2l0.2-0.5h0.3l-0.1-0.1V7.3h0.1
			c0.1-0.5,0.1-0.7,0.4-0.9V6.3h-0.3V6.2h0.4c-0.1-0.1-0.1-0.3-0.1-0.4h0.2c0-0.2,0-0.2,0.1-0.4h0.1l0.1-0.5c0.1,0.1,0,0,0.1,0.1
			h0.2c0.1,0.1-0.1,0.1-0.1,0.1v0.4c0.4,0.1,0.2,0.1,0.2,0.4h0.1V6c0.2,0.1,0.1,0,0.2,0.1h0.1c-0.1,0.2-0.1,0.4-0.1,0.6l0.2,0.1
			c0.1,0.2,0.1,0.5,0.1,0.7h0.2v0.3h-0.1c0.1,0.2,0,0.2,0.3,0.3c-0.1,0.2,0,0.2-0.2,0.3c0.1,0.1,0.1,0.1,0.2,0.2V9l0.2,0.1l-0.1,0.5
			h0.2c-0.3,0.1,0.2,0.7,0.2,0.8h-0.2c0.1,0.1,0,0,0.2,0.1l-0.1,0.3l0.2,0.1V11h-0.1c0,0.3,0,0.3,0.2,0.4c-0.1,0.1,0,0-0.2,0.1
			l0.3,0.5h-0.1v0.2h0.2c-0.1,0.1-0.1,0.2-0.1,0.4l0.1,0.1h-0.1v0.1l-0.2-0.1v0.1l-0.5-0.1v0.1H121v-0.1l-1.1-0.1v-0.1l-0.9-0.1v0.1
			H119v-0.2c0,0-0.2,0.1-0.4,0.1v-0.1l-0.3,0.1l-0.1-0.2l-0.4,0.1v-0.2c-0.3,0.1-0.5,0.1-0.8,0V12C117,12,116.9,12,116.7,11.9
			L116.7,11.9z"/>
		<path id="パス_308" class="st1" d="M71.2,15.5l0.3-0.1v0.2c0.3-0.1,0.2-0.2,0.5-0.3c0,0,0-0.3-0.1-0.2v0.1h-0.3l0.1-0.3l0.2-0.1
			c0-0.1-0.1-0.2-0.1-0.4l-0.3-0.1c-0.1-0.2,0-0.1-0.1-0.2v0.1h-0.1v-0.1h-0.3v-0.2L70.6,14v-0.1h-0.2l-0.1-0.2h-0.2v-0.1
			c-0.2-0.1-0.4,0.1-0.4,0.1l-0.1-0.2l-0.1,0.1h-0.1v-0.1h-0.4v-0.1c-0.2-0.1-0.4,0.1-0.4,0.1v-0.1h-0.2l-0.1-0.2
			c-0.1,0-0.2,0.1-0.2,0.1l-0.2-0.1c-0.1,0.1-0.2,0.1-0.3,0.1v-0.1h-0.1v0.1h-0.1v-0.1h-1.2v-0.1l-0.9,0.1l-0.1-0.2l-0.4,0.2
			l-0.1-0.2H64l-0.3-0.6h-0.3v0.1h-0.3l0.1-0.3l-0.4,0.3v0.3c-0.4,0.1-0.2,0.1-0.6,0.2v-0.3c-0.1,0.1-0.1,0.2-0.2,0.2
			c-0.1,0-0.1-0.2-0.2-0.2c-0.1,0,0,0.1-0.1,0.1h-0.6v-0.2l-0.6,0.2h-0.1v-0.2c-0.2,0.1-0.1,0-0.2,0.1c0,0-0.4,0.1-0.3-0.1h0.1v-0.1
			c-0.2,0.1-0.2,0.1-0.4,0.2c-0.1-0.2,0-0.1-0.1-0.2v-0.1c-0.3,0.2-0.2,0-0.4,0v0.1h-0.5v-0.1l-0.1,0.1h-0.1v-0.1h-0.3v-0.1
			c-0.1,0-0.2,0.1-0.4,0.1v-0.2h-0.5v-0.1h-0.1v0.1h-0.1v-0.1h-0.1c0,0.1-0.1,0.1-0.2,0.1c0,0,0,0,0,0v-0.1
			c-0.2-0.1-0.4-0.1-0.6-0.1v-0.2L56.1,12v0.1H56V12l-0.8,0.1c0,0.1-0.1,0.3-0.3,0.4c0.1,0.2,0.2,0.2,0.2,0.4l0.5,0.2v0.2
			c0.1,0.1,0.1-0.1,0.1-0.1l0.4-0.1l0.1,0.3l0.2,0.1c0.1-0.1,0-0.1,0.1-0.1v0.1h0.3v0.1l0.3-0.1v0.1h0.2v0.1h0.5
			c0.3,0.1,0.7,0.2,1,0.2V14c0.1-0.2,1.3,0,1.4-0.1h0.1l-0.1,0.2l0.4-0.1v0.1H61c0,0,0,0.1,0.2,0.1v-0.1h0.5v0.1H62v-0.1h0.1v0.1
			h0.2v0.1l0.2-0.1v0.1l0.4,0.1v0.2h0.1c0,0.1-0.1,0.2-0.1,0.4H63l-0.2,0.4h0.1v0.4h0.2l-0.2,0.8h0.2c-0.1,0.2-0.1,0.1-0.2,0.4h0.2
			c0,0.1-0.1,0.2-0.1,0.4c0,0,0.1,0.1,0.1,0.3H63c0,0.1,0,0.1,0.1,0.2L63,17.9l0.1,0.8c-0.2,0.1-0.1,0-0.2,0.1c-0.1,0.1,0,0,0,0.2
			h-0.1c-0.1,0.1-0.2,0.3-0.2,0.4c-0.2,0.1-0.1,0-0.2,0.1h-0.1l0.1,0.3c-0.1,0.1-0.1,0.1-0.2,0.2h-0.1l0.1,0.2h-0.2l0.1,0.3h-0.1
			c-0.1,0.2-0.1,0.1-0.3,0.2l0.1,0.3l-0.3,0.1v0.2l-0.3,0.1l-0.2,0.3H61l-0.2,0.3h-0.3c-0.1,0.2,0,0.1-0.1,0.2V22l-0.2-0.1l-0.1,0.2
			h-0.4c-0.2,0.1-0.5,0.2-0.7,0.3c0.1,0.1,0,0,0.2,0.1v0.1h-0.5v0.1h-0.2v0.1l-0.3-0.1v0.1H58v0.1c-0.2,0.1-0.2-0.1-0.4-0.1v0.1
			l-0.3,0.1V23c-0.2,0-0.2-0.3-0.4-0.2L56.8,23c-0.1,0-0.1,0-0.2-0.1c0,0,0,0,0,0L56.4,23v-0.1l-0.5-0.1v0.1
			c-0.3,0.1-0.6-0.1-0.7-0.1c0,0,0,0.2-0.2,0.2v-0.1l-0.4-0.1v0.1h-0.1v-0.1L54,22.9v-0.2h-0.4v-0.1l-0.8,0.1v-0.2
			c-0.1,0-0.2,0-0.4,0.1v-0.2c-0.4-0.1-0.3-0.3-0.7-0.2l0.1-0.2C51.7,22,51.5,22,51.4,22v-0.2c-0.3-0.1-0.3-0.2-0.5-0.4v-0.1h-0.3
			v-0.3h-0.1c-0.2-0.2-0.2,0-0.3-0.4h-0.1v0.1h-0.2c0.2-0.2-0.4-0.6-0.4-0.9h-0.2c0-0.3-0.1-0.4-0.4-0.4c0-0.1-0.1-0.2-0.1-0.4
			l0.1-0.1h-0.2c0-0.2,0-0.3-0.1-0.4h-0.1l0.1-0.2h-0.1v-0.2h-0.1l0.1-0.2h-0.1v-0.1h-0.1V18h-0.1v-0.2h0.1c0.1-0.3-0.3-0.4,0-0.7
			v-0.1l-0.3,0.1c0.1-0.1,0.2-0.2,0.3-0.3h-0.2c0-0.2,0.1-0.2,0.1-0.4h-0.1v-0.1c0-0.1,0.1,0,0.1-0.2c0,0-0.1,0-0.1-0.2
			c0,0,0.1,0,0.1-0.2c0-0.1-0.1,0-0.1-0.1h0.1l-0.1-0.4l0.2-0.1V15h-0.1v0.1h-0.1V15c-0.1-0.1,0,0-0.1-0.1h0.2l0.1-1l-0.1-0.3h0.1
			v-0.2c0-0.1,0.2,0,0.2-0.3l-0.2-0.1v-0.2h0.2l-0.1-0.3l0.3-0.2V12h0.1v-0.4h0.1v-0.2H49l-0.1-0.3H49c0.2-0.2,0.2-0.4,0.3-0.6h0.2
			v-0.4l0.2-0.1V9.9h-0.1l0.2-0.6L50,9.1c0-0.1-0.1-0.2-0.1-0.4H50c0.2-0.1-0.1,0,0-0.2c0,0,0.3-0.1,0.3-0.2
			c-0.1-0.1-0.1,0.1-0.2-0.1h0.2c0-0.1,0-0.2,0.1-0.4h0.1V7.6h0.1V7.4h0.1c0-0.2-0.2-0.1-0.2-0.2l0.2-0.4h0.1V6.6h0.1V6.5
			c0-0.1-0.1,0-0.1-0.1c0,0,0.1,0,0.1-0.2c0.2-0.1,0.1,0,0.2-0.1l0.3-0.8h0.2c0.1-0.2,0-0.1,0.1-0.2V5L52,5c0.1-0.2,0-0.1,0.1-0.2
			c0.1-0.2,0.1-0.1,0.3-0.2V4.5h0.2V4.4h0.4l0.2-0.3h0.5V4.1L54.5,4V3.9h0.7V3.8c0.2,0,0.1,0.1,0.3,0V3.6c0.5,0.3,1,0.1,1.8,0.1h0.5
			v0.1l0.4-0.1v0.1h0.2v0.1l0.1-0.1c0.1,0,0,0.1,0.1,0.1h0.5V4h0.2v0.1L59.9,4v0.1h0.3v0.1c0.2,0,0.1-0.1,0.3,0v0.2
			c0.2-0.1,0.6,0,0.9,0v0.2h0.1c0.1,0,0-0.1,0.1-0.1v0.1h0.3v0.1h0.4l0.1,0.2h0.4L62.8,5C62.9,5.1,62.9,5,62.9,5H63v0.3h0.2v0.2
			c0.3,0,0.2,0.1,0.4-0.1h0.1v0.4c0.1-0.2,0.2,0,0.4,0.1v0.2c0.2,0,0.3,0,0.4-0.1V6l0.4,0.1c0.2-0.2,0.2,0,0.3-0.4
			c-0.2-0.1-0.1,0-0.2-0.1h0.2V5.3l-0.4-0.1c-0.1-0.2-0.1-0.4-0.2-0.6l-0.4-0.1V4.2l-0.3-0.1V4.1L63.7,4l-0.1-0.2
			c-0.2-0.1-0.2,0-0.4-0.2h-0.4V3.5h0.1V3.4h-0.1V3.3l-0.3,0.1l-0.1-0.2l-0.3,0.1L62,3.2h-0.3V3.1h-0.1v0.1h-0.1L61.5,3h-0.4V2.9
			h-0.4V2.8h-0.6l-0.1-0.2H60v0.1l-0.3-0.1c-0.1,0,0,0.1-0.2,0.1V2.6h-0.3V2.5c-0.1,0-0.2,0.2-0.4,0.1l-0.1-0.2h-0.6V2.4h-0.1v0.1
			h-0.3V2.4h-0.1v0.1c-0.2,0-0.3-0.1-0.3-0.1c-0.1,0-0.2,0-0.3,0.1L57,2.4v0.1l-1.3-0.1v0.1h-0.4v0.1L55,2.4v0.1h-0.2v0.1h-0.1V2.5
			h-0.1v0.1c-0.1,0,0-0.1-0.1-0.1c-0.2,0-0.3,0.1-0.4,0.1c0,0,0-0.2-0.2-0.1l-0.2,0.3l-0.4-0.1v0.1H53L52.9,3h-0.2v0.1L52.4,3
			l-0.1,0.2h-0.2l-0.1,0.2h-0.3v0.1c-0.1,0.1-0.3,0.1-0.4,0.1v0.2h-0.3v0.2c-0.2,0.1-0.2,0-0.3,0.3c-0.2,0.1-0.1,0-0.2,0.1
			c-0.4,0.1-0.1,0.1-0.3,0.4l-0.2,0.1L50,5.2l-0.3,0.2l-0.1,0.7h-0.2l-0.1,0.5l-0.2,0.1c0,0.1,0.1,0.1,0.2,0.2L49.2,7l-0.1,0.6H49
			c-0.1,0.2-0.2,0.5-0.2,0.7h-0.2c0.2,0.2,0,0.2-0.1,0.3v0.3h-0.1v0.2h-0.1v0.1h0.1v0.1l-0.2-0.1l0.1,0.4h-0.2l0.1,0.3L48,9.9
			l0.1,0.3c0,0-0.1,0-0.1,0.2c-0.2,0.1-0.1,0-0.2,0.1c-0.1,0.1,0,0-0.1,0.1H48c0,0.1-0.2,0.5-0.2,0.5h-0.2c0,0.1,0.1,0.2,0.1,0.4
			l-0.3,0.1l0.1,0.5h-0.2c0,0.5-0.1,0.9-0.2,1.3h-0.1l0.1,0.1c0,0.2-0.1,0.2-0.1,0.2l0.1,0.3H47c0,0.1,0.1,0.2,0.1,0.4
			c0,0.1-0.1,0-0.1,0.1h0.1v0.2h-0.2c0.1,0.2,0,0.2,0.2,0.3c-0.1,0.2,0,0.2-0.3,0.3v0.2l0.2,0.1l-0.1,0.8H47l-0.1,0.1v0.1H47
			c0,0.2-0.1,0.2-0.1,0.2l0.1,0.9h0.1v0.6h0.1v0.1h-0.1v0.1l0.2,0.1v0.2h0.1l-0.1,0.3h0.1V19l0.3,0.2v0.3l0.2,0.1v0.2h0.1L48,20
			l0.2,0.1L48,20.3h0.1c0.2,0.2,0.3,0.4,0.3,0.6h0.2V21l0.2,0.1v0.2l0.4,0.4v0.1h0.2l-0.1,0.2h0.3c-0.1,0.1,0,0-0.2,0.1v0.1h0.3v0.2
			h0.3c0.1,0.2,0.1,0.2,0.2,0.4h0.4c-0.1,0.2,0,0.1-0.1,0.2c0.1,0.1,0.2,0.2,0.4,0.3v0.1H51l0.1,0.2h0.4l0.1,0.2h0.3l0.1,0.2h0.4
			v0.1h0.3c0.1,0,0,0.1,0.3,0.2c0.1-0.2,0-0.1,0.1-0.2V24l0.5,0.1c0,0,0-0.1,0.2-0.1v0.1c0.2,0,0.3,0,0.4-0.1v0.2
			c0.4-0.1,0.8-0.1,1.2,0v0.1h0.1v-0.1h0.4v0.2c0-0.3,0.7,0,1-0.1v-0.1h0.1v0.1c0.1,0,0.1,0,0.2-0.1l0.4,0.1v-0.1h0.7l0.1-0.2h0.4
			v-0.1h0.2v-0.1h0.5v-0.1l0.1,0.1l0.1-0.1c0.1,0,0.2,0.1,0.4,0.1c0.1-0.2,0-0.1,0.1-0.2v-0.1l0.4-0.1v-0.1h0.2v-0.1h0.2v-0.1
			l0.2,0.1l0.1-0.2c0.2-0.1,0.4-0.2,0.6-0.2c0.1-0.3,0-0.1,0.3-0.1c0.1-0.1,0,0,0.1-0.1l-0.1-0.2c0.2-0.2,0.2,0.2,0.4-0.3
			c0.2-0.1,0.2-0.1,0.4-0.2v-0.2h0.2l0.1-0.5h0.2c0.1-0.2,0.1-0.4,0.2-0.6l0.4-0.1v0.4h-0.1v0.1h0.1v0.3h-0.1l0.1,0.2h-0.2l0.1,0.3
			h0.1l-0.1,0.4h0.2c-0.1,0.1-0.2,0.2-0.2,0.4h0.1v0.1h-0.1v0.1h0.1v0.6c0,0.1-0.2,0-0.2,0.2l0.2,0.1c0,0.2,0,0.4-0.1,0.6h0.1v0.2
			h0.1c0,0.1-0.1,0-0.1,0.1l0.1,0.8l-0.2,0.1l0.1,0.5h-0.1l0.1,0.3v0.1h-0.1l0.1,0.2h-0.1v0.1h0.1c0,0.2-0.1,0.3-0.1,0.4l0.2,0.1
			l-0.1,0.1v0.4h-0.1l0.1,0.3c-0.1,0.1-0.1,0.2-0.1,0.3c0,0.1,0.1,0,0.1,0.1l-0.3,0.1c0.1,0.1,0.1,0.1,0,0.3h-0.1l-0.1,0.8h0.1
			l0.1,0.3l-0.2,0.1c-0.1,0.3,0.1,0.4,0.1,0.6h-0.1c0,0.2,0.1,0.1,0.1,0.2l-0.1,0.3h0.1v0.1c-0.1,0-0.1,0.1-0.1,0.2h0.1
			c0.1,0.3-0.1,0.5-0.1,0.6h0.1c0,0.1-0.1,0.2-0.1,0.4h0.1c0,0.2-0.1,0.2-0.1,0.2l-0.1,0.9h0.3c0.1,0.3,0,0,0,0.3l0.7,0.1
			c0.1-0.2,0-0.2,0.3-0.3c0-0.1,0-0.2,0.1-0.4h0.1v-0.8h-0.1l0.1-0.3h0.1v-0.3h-0.2l0.1-0.4h-0.1v-0.1l0.2-0.1v-0.3l-0.3,0.1
			c0.2-0.4,0.1-0.3,0.1-0.7h0.2c-0.1-0.2-0.1-0.5,0-0.7h-0.1v-0.1h0.2l-0.2-0.3h0.1l-0.1-0.3l0.2-0.1v-0.2H65v-0.2h-0.2v-0.1
			l0.2-0.1v-0.3h-0.1c0-0.1,0.1,0,0.1-0.1v-0.3h0.1c0,0,0.1-0.4-0.1-0.3v0.1h-0.1c0.1-0.6,0.2-1.2,0.1-1.8h-0.2v-0.1h0.1l0.1-0.2
			h-0.1v-0.1c0,0,0.1,0,0.1-0.2h-0.1V25h0.2v-0.1h-0.3v-0.1H65l-0.2-0.3l0.2-0.1l0.1-0.3h-0.2v-0.5H65v-0.1c-0.1,0-0.1,0-0.2,0
			c0,0,0,0,0,0l0.2-0.1l-0.1-0.9H65l-0.1-0.2v-0.1H65c0-0.1,0-0.2-0.1-0.2l0.1-0.5h-0.2l0.2-0.3h-0.1V21h-0.1v-0.1h0.1v-0.1h-0.1
			c0-0.2,0.1-0.2,0.1-0.2v-0.8c0,0,0.1,0,0.1-0.2h-0.1v-0.2h-0.1c-0.1-0.2,0.2-0.2,0.2-0.4h-0.1c-0.1-0.4-0.1-0.7,0-1.1h-0.2
			l0.1-0.6h-0.2c0-0.2,0-0.3-0.1-0.4h0.2l-0.1-0.4h0.1v-0.1l-0.2-0.1c-0.1-0.2,0.1-0.5,0.1-0.5l-0.2-0.1l0.1-0.3h-0.1
			c-0.1-0.4,0-0.5-0.1-0.6v-0.4c0.1,0.2,0.2,0,0.3-0.1c0,0,0.3,0,0.2,0.1h-0.1v0.1h0.9v0.1h0.4v-0.1l0.8,0.1v0.2l0.3-0.1v-0.1
			l0.4,0.1v0.1l0.2-0.1v0.1h0.1v-0.1h0.7v0.1c0.1,0,0.2,0,0.2-0.1h0.1v0.1h0.4v0.1h0.3V15l0.3-0.1v0.2h0.4v0.2h0.3
			c0.1,0.3,0,0.1,0.3,0.1v0.2l0.3-0.1C71,15.5,70.9,15.6,71.2,15.5C71.2,15.5,71.1,15.6,71.2,15.5z M55,3.6L55,3.6l0.1,0.2H55V3.6z"
			/>
		<path id="パス_309" class="st1" d="M55.1,3.6L55.1,3.6L55,3.8h0.1V3.6z"/>
		<path id="パス_310" class="st1" d="M184.9,4.8c-0.3,0-0.2-0.2-0.4-0.2l-0.1,0.2l-0.6-0.1v0.1l-0.2-0.1c-0.1,0,0,0.1-0.1,0.1
			c-0.1,0-0.2,0-0.3-0.1c-0.2,0-0.4,0-0.6,0.1V4.6l-0.4,0.1v0.1h-0.1V4.7l-0.3,0.1c0-0.1-0.1-0.1-0.2-0.1c-0.1,0.1-0.2,0.1-0.3,0.1
			V4.7h-0.3V4.6h-0.1l-0.2,0.3h-0.1V4.8h-0.4V5h-0.1V4.6h-0.4l-0.1,0.2c-0.2,0-0.3-0.3-0.6-0.2L179,4.8h-0.2V4.6
			c-0.5,0-0.9,0-1.3,0.2H177l0.1-0.2l-0.9,0.1c0,0,0-0.1-0.2-0.1v0.1l-0.3-0.2l-0.1,0.2c-0.2,0.1-0.4,0.1-0.6,0.1V5L174.9,5
			c-0.1,0.2,0.1,0.6,0.1,0.7h0.3v0.1l0.2-0.1v0.2l0.3-0.1v0.1h0.7V6h0.2c-0.1,0.2-0.4,0.5-0.3,0.9c0,0,0.2,0,0.2,0.2
			c0,0.1-0.1,0-0.2,0.3h0.2l-0.1,0.1l0.1,0.4h-0.1v0.4h0.2l-0.1,0.4l0.1,0.1l-0.2,0.1l0.1,0.3h-0.1v0.1h0.2c0.1,0.1-0.1,0.1-0.1,0.1
			l0.1,0.3h-0.1v0.1c0.1,0.1,0.1,0,0.1,0.1h-0.1V10h-0.1c0,0.1,0.1,0.2,0.1,0.4h0.2v0.1c-0.1,0-0.1,0.1-0.1,0.2c0,0,0,0,0,0h0.1
			l0.1,0.3h-0.1l-0.1,0.3h0.2c0,0.2-0.2,0.3-0.2,0.4l0.2,0.1l0.1,0.7l-0.2,0.1c0.1,0.1,0,0,0.2,0.1v0.6l0.2,0.1
			c0,0.2-0.2,0.1-0.2,0.2c0,0.2,0.1,0,0.2,0.1c-0.1,0.2-0.1,0.4-0.1,0.5h-0.2v0.2c0,0-0.3,0-0.2,0.1h0.2c-0.1,0.1-0.2,0.2-0.2,0.4
			h0.1V15l0.2,0.1l0.1,0.4l0.2,0.1l-0.1,0.3l0.3,0.2c-0.1,0.1-0.2,0.2-0.3,0.3c0.1,0.1,0.1,0.1,0.2,0.2c0.1,0.1-0.1,0.2-0.1,0.2v0.1
			h0.1l-0.1,0.5h0.2c-0.1,0.2-0.2,0.1-0.3,0.3c0.1,0.1,0.1,0,0.1,0.2h0.2c-0.1,0.3-0.1,0.6-0.2,0.9h0.1l0.1,0.3h-0.1v0.2h-0.1v0.1
			h0.1v0.5h-0.1c0.1,0.1,0,0,0.2,0.1l-0.2,0.8h0.2c-0.1,0.1-0.1,0.3-0.1,0.4h0.1v0.1h-0.1v0.1c0.1,0,0.1,0.1,0.1,0.2h-0.1l-0.1,0.9
			h0.2v0.1h-0.2v0.1h0.1c0,0.4,0,0.8-0.1,1.2l-0.6,0.1v0.1h-0.2V24h-0.4v0.1h-0.1V24h-0.1v0.1h-0.2l-0.2,0.3c-0.1,0-0.1,0-0.1-0.1
			v-0.1h-0.1v0.1h-0.4v0.1c-0.1,0.1-0.2,0.1-0.4,0.1c0,0,0,0.3-0.1,0.2v-0.1h-0.1v0.3c-0.2,0-0.3,0.1-0.4,0.2
			c-0.1,0.2-0.1,0.4,0,0.6h0.4v0.1h0.1v-0.1h0.1v0.1l0.2-0.1c0,0.1,0.1,0.1,0.2,0.1v-0.1h0.4v-0.1l0.3,0.1v-0.1h0.2l0.1-0.2l0.4,0.1
			l0.1-0.2l0.3,0.1l0.1-0.2h0.3V25l0.4-0.1v0.2h0.1c0,0.1-0.1,0.2-0.1,0.4c0.2,0.1,0.2,0,0.3,0.3c0.4,0,0.6,0.1,0.9-0.2h0.1l0.1-0.4
			h-0.1V25h0.1v-0.3h0.1l0.1-0.3l0.4-0.1v-0.1c0.1,0,0.2,0.1,0.2,0.1c0.2,0,0.4,0,0.6-0.1c0.1-0.2,0-0.1,0.1-0.2v0.2h0.3v-0.2h0.4
			v0.1c0,0,0.4,0.1,0.3-0.1h-0.1v-0.1l0.3,0.1v-0.1h0.1c0.1,0.1,0,0.1,0.1,0.1v-0.1c0.2-0.1,0.5-0.1,0.7,0v-0.2
			c0.2,0.1,0.2,0,0.1,0.2c0.2,0.1,0.5-0.2,0.6-0.2v0.2h0.1v-0.2l0.4,0.1v-0.1h0.1v0.2l1.1-0.2V24l1,0.1V24h0.4v-0.1l0.4,0.1v0.1
			c0.3,0.1,0.2-0.2,0.4-0.2c0,0.1-0.1,0.2,0.1,0.2l0.1-0.2c0.1,0,0.7,0.2,0.7,0.2h0.1V24h0.4v0.2c0.1-0.1,0.4-0.1,0.5,0v0.1
			c0.1,0,0.1-0.1,0.4-0.1v0.1h0.3v-0.1h0.1v0.1h0.4v0.2l0.5,0.1c0-0.1,0.1-0.1,0.2-0.1v0.1h0.2l0.1,0.2h0.4v0.1h0.1l0.4-0.5
			c0.1-0.1,0.1-0.4,0-0.7h-0.4l-0.1-0.3l-0.1-0.1l-0.3,0.1v-0.1h-0.1v0.1h-0.1v-0.1h-0.4L190,23l-0.3,0.1l-0.1-0.2l-0.5,0.1
			l-0.1-0.2h-0.7v-0.1l-1.4-0.1v0.1l-0.3-0.1v0.1c-0.4,0-0.3-0.2-0.4-0.2c-0.1,0-0.2,0-0.2,0.1c0,0,0,0,0,0l-0.3-0.1v0.1h-0.2v0.1
			c-0.2,0-0.2-0.1-0.2-0.1h-0.5v-0.1l-0.3,0.1v0.1c-0.2,0-0.2-0.1-0.2-0.1h-0.6v-0.1h-0.1v0.1h-0.4v0.1h-0.4v-0.1h-0.6v0.1h-0.1
			v-0.2h-0.1l-0.1,0.2h-0.5v0.1l-0.4-0.1v-0.1H181v0.1h-0.4v0.1h-0.4v0.1h0.1V23l-0.1-0.1l-0.4,0.1v-0.1h-0.2l-0.1,0.2h-0.2v0.1
			l-0.2-0.1v0.1c-0.2,0.1-0.3,0-0.4,0.1l-0.1-0.3c0-0.1,0.1,0,0.1-0.1c0-0.1-0.2,0-0.2-0.3h0.1l0.1-0.3h-0.1v-0.8h-0.1l0.2-0.4
			l-0.3-0.1c0.1-0.2,0.2-0.4,0.2-0.6h-0.1v-0.1h0.1v-0.1h-0.1v-0.1h0.1c0-0.1,0.1-0.2,0.1-0.4h-0.2l0.1-0.3h-0.1V19h0.1v-0.5
			c-0.1-0.1-0.1-0.1-0.2-0.2h0.2l-0.1-0.4h0.1v-0.1h-0.1v-0.1h0.1l0.1-0.3l-0.2-0.1l0.1-0.4h-0.1v-0.2h-0.1v-0.1h0.1v-0.2h0.1
			c0-0.1-0.3-0.3-0.2-0.5h0.1v-0.4c0.2,0.1,0.4,0.2,0.6,0.3c0.1,0,0.2-0.1,0.2-0.1h0.5v0.1h0.6v-0.1h0.1l0.1,0.2c0.1,0,0,0,0.1-0.1
			h0.4V16l0.4-0.1v0.3c0.2-0.1,0.5-0.1,0.7-0.1v0.1l0.4-0.1v0.2l1.3-0.2v0.2h0.1c0-0.1,0.4-0.1,0.5-0.1c0,0.1,0.1,0.1,0.2,0.2v-0.2
			c0.1,0,0.2-0.1,0.4-0.1v0.1h0.6c0.1,0,0,0.1,0.1,0.1v-0.1h0.3v-0.1c0.1,0,0.2,0,0.2,0.1c0.2-0.1,0.4-0.1,0.5-0.1v0.1l0.3-0.1
			c0.1,0,0,0.2,0.2,0.2l0.1-0.2h0.6V16l1.2,0.1V16l0.4-0.1v-0.1c0.1-0.1,0.2-0.2,0.4-0.2l-0.2-0.3h0.1c0-0.4-0.1-0.3-0.2-0.5h-0.4
			v-0.2l-0.4,0.1c0-0.1-0.1-0.1-0.2-0.1v0.1c-0.3,0-0.6,0-0.9-0.1v0.1h-0.2v0.1h-0.1v-0.1l-0.5,0.1c-0.1-0.2,0-0.1-0.1-0.2v0.2
			l-0.3-0.1c-0.1,0.1,0,0.1-0.2,0.1c-0.1,0,0-0.1-0.1-0.1v0.1h-0.2v0.1h-0.1v-0.1h-0.1v0.1h-0.4V15h-0.1l0.1-0.2l-0.4-0.1v0.2
			l-0.4-0.1v0.1H185v-0.1h-0.1c0,0.1-0.1,0.1-0.2,0.1l-0.1-0.2c-0.1,0-0.1,0.1-0.1,0.2l-0.3-0.1v-0.1h-0.1v0.1c-0.1,0-0.3,0-0.4-0.1
			v0.2c-0.2-0.1-0.2-0.1-0.4-0.2v0.2l-0.4-0.1v-0.1h-0.3v0.1h0.1v0.1h-0.1V15h-0.1v-0.2c-0.4,0-0.7,0-1.1,0c-0.1-0.2,0-0.1-0.1-0.2
			v-0.1c-0.2-0.1-0.3,0.2-0.4,0.2v-0.1h-0.2v-0.1c-0.1,0-0.2,0.1-0.4,0.1c-0.1-0.3-0.5,0.1-1-0.1l-0.1-0.2l-0.3,0.1v-0.1l-0.3,0.1
			v-0.1c-0.3-0.1-0.3,0-0.5,0c0-0.2-0.1-0.4-0.1-0.5h0.1v-0.1c-0.1,0-0.1-0.1-0.1-0.2h0.1v-0.1l-0.2-0.1l-0.1-0.4h0.2
			c0-0.2,0-0.3-0.1-0.4h-0.1c-0.1-0.2,0.1-0.3,0.1-0.4l-0.2-0.1l0.1-0.5H178v-0.2h-0.1L178,11h-0.1c-0.1-0.6-0.1-1.1,0-1.7h-0.2
			l0.1-0.8h-0.1V8.2l-0.2-0.1c0-0.1,0.2-0.1,0.2-0.2V7.6h-0.2l0.1-0.7l-0.2-0.1V6.7h0.1V6.6h-0.1l0.1-0.3h-0.2
			c0.1-0.2,0-0.1,0.1-0.2V6c0.4,0.2,0.6-0.1,1.1,0v0.1h0.4V6h0.2V5.9l0.3,0.1v0.1h0.6V6c0.1,0,0.2,0.1,0.4,0.1V5.9l0.7,0.1V5.9h0.1
			V6h0.2v0.1l0.1-0.1c0.3,0,0.2,0.2,0.4-0.1c0,0,0.3,0,0.2,0.1h-0.1v0.1h0.3V5.9h0.5l0.1,0.2c0.1,0,0.2,0,0.2-0.1c0,0,0,0,0,0
			c0.2,0,0.2,0.1,0.2,0.1l0.6-0.1v0.1h0.4l-0.1-0.2c0.2,0.1,0.4,0.1,0.6,0.1V5.9h0.1V6h0.4V5.9l0.2,0.1l1.2-0.1v0.2h0.1V6h0.3V5.9
			h0.1V6c0.2,0,0.1,0,0.2-0.1l0.3,0.1l-0.1-0.3h0.1V5.7h0.1l-0.1,0.2l0.3-0.1l0.1-0.3c-0.2,0.1-0.1,0-0.2,0.1h-0.2
			c0.1-0.2,0.2-0.3,0.2-0.5h-0.2c-0.1-0.3-0.2-0.3-0.3-0.4H187l-0.1,0.2l-0.4-0.1v0.1c-0.1,0-0.2,0-0.3-0.1h-0.5
			c-0.1,0,0,0.1-0.1,0.1l-0.1-0.2h-0.1v0.1L184.9,4.8L184.9,4.8z"/>
		<path id="パス_311" class="st1" d="M108.6,8.5h0.2v0.1l0.3-0.1v0.1h0.3v0.1l0.4-0.1v0.1l0.2-0.1v0.1c0.2,0.1,0.5,0.1,0.7,0v0.2
			h0.1c0-0.1,0.5-0.2,0.6-0.3l0.1-0.6c-0.2-0.1-0.1,0-0.2-0.1c-0.1-0.1,0,0-0.1-0.1h0.2c-0.1-0.2-0.1-0.2-0.2-0.4l-0.5-0.1v0.1
			c0,0-0.3,0-0.2-0.1h0.1V7.3c-0.2,0-0.3,0-0.4,0.1v0.1l-0.2-0.1v0.1h-0.2V7.3h-0.5c-0.1,0,0-0.1-0.1-0.1c0,0,0,0.2-0.1,0.2
			c-0.1-0.1,0-0.2-0.2-0.2l-0.1,0.2l-0.3-0.1V7.2l-0.4,0.2V7.2h-1V7.1L106.5,7v0.2h-0.1V7H106v0.1h-0.1l-0.1-0.2L105.5,7V6.9h-0.2
			V6.8l-0.3,0.1V6.8l-0.7,0.1l-0.1-0.2h-0.2V6.7H104v0.1h-0.4v0.1c-0.1,0-0.2-0.2-0.2-0.2h-0.4v0.1l-0.2-0.1c-0.1,0,0,0.1-0.1,0.1
			l-0.1-0.2l-0.3,0.1c0,0,0-0.1-0.3-0.2v0.2c-0.2-0.1-0.5-0.1-0.7,0V6.5l-0.9,0.1V6.5h-0.1c-0.1,0,0,0.1-0.2,0.1V6.5H100l-0.1-0.2
			h-0.6V6.2H99V6.1c-0.2,0.1-0.4,0.1-0.5,0.1V6.1h-0.4V6H98v0.1h-0.8V5.9H97l-0.1,0.2c-0.1,0-0.1,0-0.1-0.1V5.9h-0.1V6h-0.4V5.9
			L95.9,6l-0.1-0.2c-0.1,0-0.2,0-0.3,0.1h-0.3V5.8C95.1,5.8,95,6,94.9,6V5.8h-0.2L94.6,6c-0.1,0-0.2-0.1-0.4-0.1l-0.1,0.3l-0.3,0.1
			v0.2h-0.1c0,0.1,0.1,0.2,0.1,0.4H94v0.1h0.3v0.2h0.1V7l0.2,0.1V7h0.4v0.1h0.4V7h0.1l-0.1,0.3h0.5V7.2h0.1l-0.1,0.2l0.8-0.1v0.1
			h0.4c0.1,0,0-0.1,0.1-0.1v0.1h0.4v0.1l0.4-0.1l0.1,0.2l0.5-0.1v0.2c0,0,0.4-0.3,0.6,0c0,0,0.3,0,0.2-0.1h-0.1V7.5
			c0.2,0.1,0.1,0.1,0.2,0.3h0.8v0.1c0.1,0,0.3-0.2,0.5-0.1v0.1h0.2v0.1h0.3V7.8c0.1,0,0,0.1,0.1,0.1l0.6,0.1v0.1h-0.2
			c0,0,0,0.3,0.1,0.2V8.2h0.1c-0.2,0.5,0.1,0.4,0.1,0.8h-0.1v0.4c0,0-0.1,0-0.1,0.2c0,0.4,0.3,0.8-0.1,1.1c0.1,0.1,0,0,0.2,0.1
			l-0.1,0.6c0,0,0.1,0,0.1,0.2h-0.1l-0.1,0.3l0.2,0.1l-0.1,0.2h0.1v0.1c-0.1,0.1-0.1,0.2-0.1,0.3h0.1l0.1,0.3l-0.2,0.1l0.1,0.2h-0.1
			c-0.1,0.4,0.3,0.4,0.2,0.7h-0.1V14h-0.1v0.1h0.2c0,0.1,0,0.2-0.1,0.4h-0.1c0,0.1,0.1,0.2,0.1,0.4h-0.1l0.1,0.3h0.1l-0.1,0.2h0.1v1
			h0.1v0.1h-0.1c-0.1,0.2,0.1,0-0.1,0.2c0.1,0.1,0.1,0.1,0.2,0.2h-0.2v0.4l0.2,0.1l-0.2,0.4c0,0.2,0.1,0.3,0.1,0.3
			c0.1,0.4,0.1,0.9-0.2,1.3c0.1,0.1,0.2,0.1,0.3,0.2v0.1h-0.2v0.1c0.1,0,0.2-0.1,0.2,0.1h-0.1v0.3h-0.1V20h0.2c-0.1,0.2,0,0.6-0.1,1
			h-0.1l0.1,0.4h-0.1c0.1,0.1,0,0,0.2,0.1v0.2h-0.2l0.1,0.9l-0.1,0.1h0.1l0.1,0.3h-0.2l0.1,0.3h-0.1v0.1h0.2v0.1
			c-0.2,0.2,0,0.4-0.1,0.6h-0.1c0,0.1,0.1,0.2,0.1,0.2v0.4h-0.1l0.1,0.3h-0.1v0.1h0.1V25h0.1v0.1h-0.1v0.4h0.1l-0.1,0.4
			c0,0,0.2,0,0.2,0.2c0,0-0.3,0.6-0.3,0.6h0.2l-0.1,0.3c0,0,0.1,0,0.2,0.3H102l-0.1,0.4h0.2l-0.2,0.4h0.1v0.2h0.2
			c-0.1,0.2,0,0.1-0.1,0.2v0.1h0.4v0.1c0.2,0,0.3-0.1,0.4-0.2v-0.1h0.3v-0.1h0.1v-0.3c0-0.1,0.1,0,0.1-0.1h-0.1V28
			c0,0,0.1,0,0.1-0.2c-0.1,0-0.1-0.1-0.1-0.2c0.1-0.1,0.1-0.2,0.1-0.3c0,0-0.1,0-0.1-0.2c0.1-0.1,0.1-0.2,0.1-0.3h-0.1
			c0-0.2,0.1-0.2,0.1-0.2c0-0.2-0.1-0.2-0.1-0.4h0.1l-0.2-0.3l0.2-0.1l-0.2-0.3h0.2c-0.1-0.3-0.1-0.7,0-1h-0.2v-0.2h0.2v-0.1
			c-0.3,0-0.1-0.3-0.1-0.4h-0.1V24h0.2c0.1-0.2-0.1,0-0.2-0.1l0.1-0.2v-0.4h-0.1v-0.5h0.1c0.1-0.2-0.1-0.2-0.1-0.4h0.1l-0.1-0.4h0.1
			l-0.1-0.2c0.1,0,0.1-0.1,0.1-0.2h-0.1v-0.1c0.1,0,0.1-0.1,0.1-0.2c0,0-0.1,0-0.1-0.2h0.1l0.1-0.3h-0.1v-0.2h-0.1v-0.1h0.1
			l-0.1-0.9c0,0,0.2,0,0.2-0.2h-0.2c0-0.1,0.1-0.2,0.1-0.4h-0.1l0.1-0.8c0,0-0.1,0-0.1-0.2h0.1v-0.1h-0.1l0.1-0.2l-0.2-0.1l0.1-0.3
			h0.1v-0.2h0.1v-0.1h-0.1c0-0.1,0-0.1,0.1-0.2c0-0.1-0.1-0.2-0.1-0.4h0.1v-0.1l-0.2-0.1l0.1-0.4h-0.1V16h-0.1v-0.1h0.1l-0.1-0.2
			c0-0.1,0.2,0,0.2-0.4h-0.1c0-0.2,0.1-0.2,0.1-0.2v-0.1h-0.1c0-0.1,0.1,0,0.1-0.1c0-0.2-0.1-0.2-0.1-0.2l0.1-0.5h-0.2
			c0.1-0.7,0-1.6,0.1-2.1v-0.4h-0.1l0.1-0.3h-0.1c0-0.3,0-0.3,0.2-0.4c-0.1-0.3,0-0.1-0.3-0.1c0.1-0.2,0.1,0,0.2-0.1v-0.1h-0.1
			l0.1-0.4h-0.1v-0.1h0.1l-0.1-0.3c0-0.1,0-0.1,0.1-0.2l-0.1-0.2c0-0.1,0-0.1,0.1-0.2c0-0.2-0.1-0.2-0.1-0.2l0.1-0.5H103V8.7
			l0.2-0.1l-0.1-0.5H103V8h0.7c0.1,0,0,0.1,0.1,0.1V8h0.2v0.2c0.3-0.1,0.7-0.1,1,0l0.1,0.2l0.4-0.2v0.1l0.3,0.1v0.1
			c0.1,0,0.1-0.2,0.2-0.2l0.2,0.1c0.1,0,0-0.1,0.1-0.1v0.1c0.2,0,0.2-0.1,0.2-0.1c0.2-0.1,0.2,0.1,0.4,0.1V8.2c0.1,0,0,0,0.1,0.1
			h0.2l-0.1,0.3l0.4-0.1v0.2h0.2l0.1-0.2c0.1,0,0.2,0.1,0.4,0.1V8.5c0.2,0,0.2,0.1,0.2,0.1C108.2,8.6,108.4,8.5,108.6,8.5L108.6,8.5
			z"/>
		<path id="パス_312" class="st1" d="M140.8,6L140.8,6c-0.2-0.1-0.5-0.1-0.7,0V5.8c-0.3,0-0.5,0.1-0.7,0.3V5.9L138.6,6V5.9h-0.1V6
			h-0.1c-0.1,0,0-0.1-0.1-0.1V6c-0.2,0-0.3-0.2-0.6-0.1V6c-0.1,0-0.1,0-0.2-0.1h-0.3V6h-0.1V5.9h-0.1L137,6.1
			c-0.3,0.1-0.4-0.3-0.7,0.1c-0.1,0.1,0,0,0,0.2l-0.2,0.1l0.1,0.2H136v0.1c0.1,0.1,0.1,0.2,0.2,0.3h0.2l0.1,0.2c0.1,0,0,0,0.1-0.1
			c0.2,0,0.3,0,0.4,0.1c-0.1,0.1,0,0-0.2,0.1v0.1l0.6-0.1c0.1,0,0.1,0.1,0.4,0.1V7.2h0.1c0,0.2,0.6,0.1,0.8,0.1v0.1h0.1V7.3h0.3v0.1
			c0.1-0.1,0.3-0.1,0.4-0.1l0.5,0.1V7.3h0.1v0.1h0.1c0,0,0-0.2,0.2-0.2v0.2l0.2-0.1c0.1,0,0.1,0,0.2,0.1h0.1V7.3c0.1,0,0,0,0.1,0.1
			h0.1V7.3l0.3,0.1c0.1-0.1-0.1-0.1,0.1-0.2l0.1,0.2l0.2-0.1v0.1l0.5,0.1v0.2l0.2-0.1h0.1v0.1h0.3l0.1,0.2c0.2,0.1,0.4,0,0.6,0.1V8
			l0.3,0.1v0.1l0.2-0.1v0.2c0.5,0.1,0.4,0.3,0.9,0.4v0.3h0.1V9l0.3-0.1l-0.1,0.2h0.2v0.2h0.2l0.1,0.4h0.2v0.2h0.2V10h-0.1v0.1
			c0,0.1,0.1,0.1,0.2,0.2l-0.1,0.2h0.2c0,0.1-0.1,0.2-0.1,0.4l0.1,0.1H146V11h0.2l-0.1,0.2h0.1v0.1c-0.1,0.1-0.1,0.2-0.1,0.3h0.1
			c0.1,0.2-0.1,0.4-0.1,0.5h0.1c0,0.2-0.1,0.2-0.1,0.2c0,0.1,0,0.1,0.1,0.2v0.1h-0.1c0,0.1,0,0.1,0.1,0.2c0,0.1-0.1,0.2-0.1,0.4
			h-0.2v0.2h-0.1c-0.1,0.1,0.2,0.1,0.2,0.1v0.1l-0.3,0.1c0.2,0.3-0.3,0.3-0.1,0.5v0.1l-0.2-0.1l-0.1,0.2l-0.3,0.2l0.1,0.2H145
			c-0.2,0.1-0.2,0.2-0.3,0.4h-0.2l-0.1,0.3l-0.4,0.1v0.2c-0.2,0-0.2,0.1-0.2,0.1h-0.4v0.1l-0.4,0.1v0.1c-0.2,0.1-0.2-0.1-0.4-0.1
			l-0.1,0.2h-0.7c-0.1,0.1-0.1,0.1-0.2,0.2v-0.2h-0.2l-0.1,0.2c-0.1,0-0.1-0.2-0.2-0.2c-0.2,0-0.2,0.1-0.2,0.1l-0.9-0.1V16h-0.1
			v-0.1L140,16v-0.2c0,0-0.2,0.1-0.4,0.1s-0.6-0.1-0.8-0.2c0-0.2,0-0.3-0.1-0.4h-0.2c0.2-0.3,0.2-0.7,0.1-1c0,0-0.1,0-0.1-0.2h0.1
			v-0.1h-0.1v-0.3h-0.1c0-0.1,0.2-0.2,0.1-0.4h-0.1c0-0.2,0.1-0.3,0.1-0.4l-0.2-0.1v-0.4h0.1v-0.1l-0.3-0.1V12h0.1l-0.1-0.3l0.2-0.1
			l-0.2-0.4h0.2v-0.2h-0.3v0.1H138l0.2-0.5h-0.1v-0.1h0.2c0-0.1,0-0.5-0.1-0.3c-0.1,0.1-0.1-0.1-0.1-0.2h0.1v-0.1l-0.3,0.1
			c0-0.2,0.1-0.3,0.2-0.4h-0.2c0-0.2,0.1-0.4,0.2-0.5h-0.2V8.9h-0.1V8.7l-0.3,0.2V8.7h0.2c-0.1-0.1,0-0.5,0.1-0.6h-0.2V7.9h-0.4V8
			h-0.4c0,0,0.1,0.2,0.1,0.4l-0.2,0.1v0.3c-0.1,0.3,0,0.6,0,1.1c0,0-0.3,0-0.2,0.1h0.2c0,0.3,0.1,0.7,0.1,1h0.1l-0.1,0.8l0.1,0.1
			h0.1L137,12h0.2c0,0.1-0.1,0.1-0.2,0.2v0.1h0.3l-0.2,0.3h0.1v0.1c-0.1,0.1-0.2,0-0.2,0.2l0.3,0.1c0,0-0.2,0.3-0.2,0.4h0.1v0.2h0.1
			V14h-0.1v0.1h0.1l-0.1,0.3h0.2c-0.1,0.3,0,0.4-0.1,0.7h0.2l-0.1,0.4c0.1,0.1,0.1,0.2,0.1,0.3l-0.2,0.1c-0.1,0.2,0.1,0.5,0.1,0.6
			l-0.4,0.1l-0.1,0.2l-0.3,0.1v0.2h-0.3l0.1,0.6h0.1v0.1c0.2,0.1,0.1-0.1,0.2-0.1h0.4c-0.1-0.1,0,0-0.2-0.1v-0.1h0.4v0.3
			c0.1,0,0.1,0.1,0.4,0.1c0.1,0,0-0.1,0.1-0.1v0.1l0.3,0.2c-0.1,0.1-0.1,0.1-0.2,0.2l0.1,0.5h0.1c0,0.3-0.1,0.6-0.1,0.9h0.2l0.1,0.4
			H138v0.4c0,0.1,0.1,0,0.1,0.1H138v0.2h0.2v0.1h-0.1v0.3h0.1l-0.1,0.4l0.2,0.1c0,0.1,0,0-0.1,0.1l0.1,0.3h-0.1v0.4h0.1
			c0.1,0.2-0.1,0.2-0.1,0.4l0.2,0.1c0,0.1-0.1,0.2-0.1,0.4c0,0,0.1,0,0.1,0.2h-0.2c0,0.3,0.1,0.2,0.2,0.5h-0.2
			c-0.1,0.1,0.1,0.1,0.1,0.1v0.3h0.1v0.4h0.1v0.6h0.1l0.1,0.4c0.3,0,0.3,0,0.4,0.2h0.4c-0.1-0.1,0,0-0.2-0.1v-0.1l0.3,0.1
			c0.1-0.3,0.3-0.4,0.4-0.7h-0.2V25h0.1l0.1-0.4c-0.3-0.1-0.1-0.3-0.2-0.7c0,0-0.1,0-0.1-0.2h0.1v-0.1h-0.1v-0.2h-0.1l0.1-0.4
			l-0.2-0.1c0-0.1,0,0,0.1-0.1c0-0.1,0-0.1-0.1-0.2v-0.1h0.1c0-0.2-0.1-0.2-0.1-0.2l0.1-0.4h-0.2V22h0.1l-0.1-0.2
			c0.1-0.1,0.1-0.2,0.1-0.3h-0.1v-0.1l0.1-0.4h-0.1v-0.7l-0.2,0.1c0-0.3,0.1-0.5,0.1-0.8h-0.1v-0.1h0.1v-0.3h-0.2V19h0.1
			c0-0.1,0-0.1-0.1-0.2c0-0.2,0-0.2,0.1-0.4l-0.3-0.1c0-0.2,0.1-0.4,0.2-0.6h-0.1l-0.1-0.4h0.3v0.2h0.1l0.1-0.2
			c0.4-0.1,0.6,0.3,0.8,0.1h0.4l-0.1-0.2l0.7,0.3v-0.2c0.1,0.1,0.3,0.1,0.4,0.1v0.2l0.3-0.1v0.1h0.4l-0.1,0.2l0.4-0.1v0.1l0.9,0.2
			v0.2l0.4-0.1v0.2l0.3-0.1l0.2,0.3l0.3-0.1l0.1,0.2h0.2c0.1,0,0,0.2,0.2,0.2v-0.1h0.1v0.3h0.3c0.1,0.2,0,0.2,0.3,0.3
			c0.1,0.2,0,0.2,0.3,0.3c0.1,0.3,0.2,0.2,0.3,0.5l0.4,0.1c0.1,0.3,0.3,0.4,0.4,0.8h0.2c0,0.1,0.1,0.3,0.2,0.4h0.1l-0.1,0.3l0.2,0.1
			v0.2h0.2v0.1h-0.2l0.2,0.5h0.1l-0.1,0.3l0.2,0.1l-0.1,0.3h0.1l-0.1,0.3h0.2l-0.1,0.1v0.2h-0.2c0,0.1,0.1,0.1,0.2,0.2
			c-0.1,0.1-0.1,0.1-0.2,0.2l0.1,0.3h-0.2c-0.1,0.2,0,0.1,0,0.4h-0.2l0.1,0.2l-0.3,0.2v0.2l-0.2,0.1v0.2l-0.3,0.2l-0.1,0.4h-0.1
			l-0.1,0.2c-0.1,0.1-0.3,0-0.4,0.1l0.1,0.3c-0.1,0.1-0.2,0-0.4,0.1l-0.1,0.3l-0.2-0.1l-0.1,0.3l0.1,0.1h-0.1v0.1l-0.2-0.1
			c-0.1,0.1-0.1,0.2-0.1,0.4c-0.1,0-0.3,0-0.4,0.1v0.1l-0.2-0.1l-0.1,0.2h-0.2v0.1l-0.5,0.1v0.1l-0.4-0.1v0.1l-0.5,0.1v-0.1h-0.3V28
			h0.1v-0.1c-0.1,0-0.1,0-0.2,0.1c0,0,0,0,0,0h-0.1v-0.1h-0.4l-0.1-0.2H142v-0.1l-0.6-0.1v0.1h-0.1c-0.1-0.1,0-0.1-0.2-0.2v0.1h-0.1
			c-0.1-0.1,0.1-0.1-0.1-0.2c-0.1,0.1,0.1,0.1-0.1,0.2v-0.2c-0.2-0.1-0.1,0-0.2-0.1H140l0.1-0.2c-0.4-0.1-0.5-0.1-0.7-0.4
			c-0.3,0-0.3,0-0.4,0.3c-0.2,0.1-0.1,0-0.2,0.1h-0.2v-0.1c0.1,0,0.2-0.1,0.3-0.2h0.1v-0.1l-0.3-0.1c-0.1,0.2-0.1,0.1-0.2,0.4h-0.3
			l-0.1,0.3h0.1l0.1,0.5h0.2V28c0.1,0,0.2,0,0.4,0.1v0.1h0.3l0.1,0.2l0.2-0.1l0.2,0.3l0.4-0.1l0.1,0.2c0.1,0,0.2-0.1,0.4-0.1
			l0.3,0.1l0.1,0.3l0.5-0.1v0.3h0.5c0,0,0,0.1,0.2,0.1l0.1-0.1v0.1c0.2,0.1,0.4,0.1,0.5,0v0.2l0.7,0.1c0.1,0,0-0.1,0.1-0.1v0.1h0.1
			l0.2-0.1c0,0.1,0.1,0.1,0.2,0.1v-0.1h0.4v-0.1h0.1v0.1h0.1l0.1-0.2l0.6-0.1l0.1-0.2h0.4c0.1-0.2,0-0.1,0.1-0.2v-0.1l0.2,0.1v-0.2
			h0.3v-0.2h0.2l0.1-0.3L147,28c0.1-0.2,0.2-0.2,0.2-0.3l-0.1-0.3l0.4-0.3v-0.1h0.2l0.2-0.4h0.2l0.1-0.3h0.1
			c0.2-0.3-0.1-0.2,0.3-0.4c0-0.3,0.1-0.2,0.2-0.5h0.2c0.1-0.8,0.5-0.7,0.5-1.4c-0.2-0.1-0.1,0-0.2-0.1h0.2l0.1-0.4h-0.1v-0.1h0.1
			l0.1-0.3h-0.2v-0.4c0-0.1-0.1,0-0.1-0.1h0.1v-0.4h-0.1V22l-0.2-0.1v-0.4H149l-0.1-0.4h-0.1l-0.1-0.4h-0.1l0.1-0.2
			c-0.2-0.2-0.3,0-0.4-0.5c-0.5-0.1-0.2-0.2-0.4-0.4h-0.1c-0.1-0.1-0.2-0.2-0.2-0.4c-0.2-0.1-0.2,0-0.3-0.3h-0.2v-0.2
			c-0.2-0.1-0.2-0.1-0.4-0.2c-0.1-0.3-0.3-0.5-0.5-0.5v-0.2h-0.1c-0.1,0.1,0,0.1-0.1,0.1l0.1-0.2h-0.3v-0.2h-0.4v-0.2
			c-0.5,0-0.3,0-0.6-0.2v-0.1l-0.3,0.1V17l-0.4-0.1c0.1-0.2,0-0.1,0.1-0.2v-0.1l0.5-0.1v-0.1h0.3v-0.1c0.2-0.1,0.2-0.2,0.4-0.3
			c-0.1-0.2,0-0.1-0.1-0.2v-0.1l0.3,0.1c0.1-0.3,0,0,0-0.3l0.4-0.1v-0.3c0.2-0.1,0.2,0,0.3-0.3h0.2l-0.1-0.3h0.2v-0.2h0.3v-0.2h0.1
			c0-0.1-0.1-0.2-0.1-0.4c0.2-0.1,0.1,0,0.2-0.1h0.1v-0.3l0.2-0.1c0-0.3,0.1-0.5,0.1-0.8h0.1c0-0.1,0-0.2-0.1-0.3l0.1-0.3
			c0,0-0.1,0-0.1-0.2h0.1v-0.4l-0.1-0.3h0.1v-0.3h0.1c0-0.1-0.2-0.1-0.3-0.3h0.1c0-0.2-0.1-0.4-0.1-0.5h-0.1V9.9c0,0-0.2,0-0.2-0.2
			h0.1V9.5h-0.3l0.1-0.3h-0.1V9.1h-0.2V8.7h-0.2c0-0.2-0.2-0.4-0.4-0.4V7.9l-0.4-0.1c-0.1-0.2,0-0.1-0.1-0.2V7.6l-0.2,0.1V7.6
			c-0.2-0.1-0.1-0.1-0.2-0.3c-0.2-0.1-0.5-0.2-0.7-0.2l-0.1-0.3c-0.2,0-0.4-0.1-0.6-0.1V6.6h-0.4V6.5h-0.1v0.1h-0.2L143,6.3
			l-0.3,0.1l-0.1-0.2l-0.2,0.1l-0.1-0.2H142V5.9h-0.3V6l-0.4,0.1l-0.1-0.2C141,5.9,140.9,6,140.8,6z M136.9,9.7
			c0.2,0.1,0.1,0,0.2,0.1C136.9,9.7,137,9.8,136.9,9.7L136.9,9.7z M137.1,8.9L137.1,8.9L137,8.7h0.1V8.9z M140.9,28.7
			c0.2,0.1,0.1,0,0.2,0.1C140.9,28.8,141,28.8,140.9,28.7z"/>
		<path id="パス_313" class="st1" d="M85.4,7.6L85.4,7.6h-0.2L85,7.6V7.6h-0.6V7.5L83,7.6v0.1c-0.3,0-0.2-0.2-0.3-0.2
			c-0.1,0,0,0-0.1,0.1l-0.4-0.1v0.2l-0.4-0.1V7.5c-0.1,0-0.2,0.1-0.2,0.1c-0.2,0-0.4-0.1-0.4-0.1v0.1h-0.4v0.1c-0.1,0-0.2,0-0.3-0.1
			c-0.2,0-0.3,0.1-0.3,0.1h-0.4V7.6l-0.3,0.1V7.5c-0.2,0-0.2,0.1-0.2,0.1h-0.6v0.1h-0.2v0.1c-0.2,0.1-0.2-0.1-0.4-0.1v0.1h-1v0.1
			h-0.4v0.1h-0.2v0.2l-0.4,0.1c0,0.2,0,0.5,0,0.7C76.4,9,76.7,9,76.9,9.1V8.9h0.2v0.2c0,0,0.3,0,0.2-0.1h-0.1V8.9
			C77.6,9,77.3,9,77.5,9.2c0.1-0.1,0.3-0.1,0.4-0.1v0.1H78V9l0.3,0.2V9.1h0.1c-0.1,0.3-0.1,0.5-0.1,0.8c0.1,0.1,0.1,0.2,0.1,0.3
			h-0.1v0.3h-0.1v0.1h0.1l-0.1,0.6c0,0.1,0.2,0,0.2,0.3h-0.1l0.1,0.2h-0.1v0.2h-0.1V12h-0.1c0,0,0.1,0.7,0.1,0.8h0.1l-0.1,0.4h-0.1
			c0,0.1,0,0.1,0.1,0.2l-0.1,0.4h0.1c0,0.1-0.2,0.2-0.1,0.4l0.2,0.1c-0.1,0.1,0,0-0.2,0.1c0.1,0.1,0.1,0.1,0.2,0.2
			c0,0.1-0.1,0.2-0.1,0.4C78,15,78.1,14.9,78,15h-0.1v0.4h-0.1c0,0.4,0,0.5,0.4,0.5c0.1,0.3,0,0.4,0.1,0.7c0,0-0.3-0.1-0.2,0.1h0.1
			v0.1h-0.1V17h0.1c0-0.1,0.1-0.1,0.2-0.1V17h-0.2l0.1,0.5h-0.1v0.1h0.1v0.1c-0.1,0-0.1,0.1-0.1,0.2l0.1,0.2l-0.2,0.1v0.1h0.1v0.5
			h0.2c-0.1,0.2-0.1,0.2-0.2,0.4h0.2c-0.1,0.3,0,0.8-0.3,1c0.1,0.1,0,0,0.2,0.1l-0.1,0.9h0.2c0,0.1-0.1,0.7-0.1,0.7l0.2,0.1
			c-0.1,0.1-0.1,0.1-0.2,0.2h0.1v0.1h-0.1c0.1,0.1,0.1,0.1,0.2,0.2v0.1L78,22.6v0.1l-0.3-0.1v0.1l-0.2-0.1v0.2c-0.2-0.1-0.2,0-0.5,0
			c0,0.1-0.1,0.3-0.2,0.4h-0.1l0.1,0.5c0.4,0.1,0.5,0.3,0.7,0h0.1V24c0.3,0,0.2-0.1,0.5-0.2V24l0.3,0.1c0.1-0.1,0-0.1,0.1-0.1
			l0.1,0.2c0.2,0.1,0.4,0.2,0.6,0.3c0.1-0.2,0.3-0.2,0.4-0.4h0.1v-0.3c0.4,0,0.3-0.1,0.5,0v-0.2l0.3,0.1c0.1,0,0-0.1,0.2-0.1
			c0,0,0,0.2,0.2,0.2l0.2-0.3l0.4,0.1v-0.1h0.2v-0.1l0.5,0.1c0.1,0,0-0.1,0.1-0.1c0.1,0,0,0.1,0.2,0.1v-0.1H83c0,0,0-0.1,0.2-0.1
			v0.1c0.1,0,0.2,0,0.2-0.1l0.3,0.1v-0.1c0.1,0,0.1,0.1,0.4,0.1v-0.1h0.3v-0.1l0.5,0.1l0.2-0.1v0.1l0.3-0.1c0.1,0.1,0,0.2,0.3,0.2
			l0.1-0.2c0.2,0.1,0.4,0.1,0.5,0.1v-0.1h0.5v-0.1c0.1,0,0.2,0,0.3,0.1c0.1,0,0.1,0,0.2-0.1l0.3,0.1v-0.1h0.1v0.1h0.3v-0.1H88v-0.1
			c0.3,0,0.2,0.2,0.3,0.2c0.1,0,0,0,0.1-0.1c0.2,0,0.2,0.1,0.2,0.1H89c0.1-0.2,0-0.1,0.1-0.2V23c0.2-0.1,0.2,0.2,0.3,0.2h0.3V23h0.1
			c0,0,0.1,0.1,0.2,0.1c0,0,0-0.1,0.2-0.1v0.1h0.1V23c0.1-0.1,0.3-0.2,0.4-0.2l0.1-0.4h-0.1v-0.4h-0.3l-0.1-0.3l-0.5,0.1v-0.1h-0.1
			v0.1l-0.5,0.1v-0.2l-0.6,0.2h-0.2V22h-0.1v-0.2h-0.1c-0.1,0.1-0.2,0.1-0.4,0.1c-0.4,0-0.9,0-1.3-0.1V22l-0.4-0.1L86,22.1l-0.3-0.2
			V22l-1.5,0.1v-0.2L83.9,22v0.1c-0.4,0.1-0.7-0.3-1,0.1h-0.1l0.1-0.2c-0.3,0.1-0.7,0.2-1,0.3v-0.2c-0.2,0-0.2,0.1-0.2,0.1h-0.4
			l-0.1,0.2l-0.6-0.1v0.1l-0.2-0.1c-0.2,0-0.2,0.1-0.2,0.1h-0.5l-0.1-0.4h-0.1l0.1-0.2h-0.1v-0.1c0,0,0.1,0,0.1-0.2l-0.1-0.2
			c0-0.1,0.1,0,0.1-0.1h-0.1l0.1-0.6l-0.2-0.1v-0.2h0.1v-0.6l0.2-0.1c0-0.1-0.2-0.1-0.2-0.2c0-0.1,0.2-0.2,0.1-0.4h-0.1v-0.4h0.1
			v-0.1c0-0.1-0.1,0-0.1-0.1s0.1,0,0.1-0.1h-0.2c0-0.1,0.2-0.2,0.1-0.4h-0.1v-0.1h0.3v-0.3h-0.3l0.3-0.4h-0.2c0-0.1,0-0.2,0.1-0.4
			h-0.1v-0.4c0,0,0.1,0,0.1-0.2l-0.2-0.1V16l0.4-0.1v-0.1c0.1,0,0.2,0.1,0.2,0.1h0.1v-0.1h0.3v-0.1c0.3-0.1,0.6,0.2,0.8,0.1
			c0,0,0.2-0.3,0.4-0.3v0.2l0.3-0.1v0.1c0.2,0,0.3,0,0.4-0.1v-0.1h0.6v-0.1h0.1l0.1,0.2c0.2,0,0.1-0.1,0.3,0v-0.2l0.3-0.1v0.1h0.2
			v0.1h0.1v-0.1h0.8v-0.1h0.2v0.1c0,0,0.3,0,0.2-0.1h-0.1v-0.1l0.4,0.1c0.1,0,0-0.1,0.1-0.1v0.1h0.1v-0.1l0.7,0.1v-0.1h0.2v-0.1
			l0.4,0.1v-0.1h0.5v-0.1h1v0.1c0.3,0.1,0.3-0.2,0.5-0.2l0.3,0.1V15h0.2v-0.1l0.3-0.1v-0.2h0.2c0-0.2,0.1-0.4,0.1-0.6
			c-0.4,0-0.4-0.2-0.7-0.3v-0.1l-0.3,0.1l-2.1,0.1v0.1l-0.6-0.1c0,0,0,0.1-0.3,0.1c-0.1,0,0-0.1-0.1-0.1v0.1h-0.2V14l-0.3-0.1
			l-0.1,0.2h-0.4V14h-0.4v0.1h-0.7v0.1h-0.4v0.1h-0.1c-0.1,0-0.1-0.1-0.2-0.2v0.2l-1-0.1v0.1h-0.4v0.1h-0.5v-0.1h-0.1
			c0,0,0,0.1-0.1,0.2v-0.2c-0.3,0.1-0.2,0.2-0.3,0.2c-0.3,0.1-0.7-0.1-0.9,0.1h-0.4c0.1-0.2,0.1,0,0.2-0.1l-0.1-0.3h-0.1
			c-0.1-0.3,0.1-0.5,0.2-0.6h-0.2l0.1-0.3c-0.1,0-0.1-0.1-0.1-0.2h0.1V13c-0.1,0-0.2,0.1-0.2-0.1h0.1c0.1-0.1,0.1-0.3,0.1-0.4h-0.2
			l-0.1-0.3l0.2-0.1l0.1-0.5h-0.1l-0.1-0.2h0.2c-0.1-0.2-0.1-0.4-0.1-0.6c0-0.1,0.1,0,0.1-0.1s-0.1,0-0.1-0.1l0.1-0.2h-0.1
			c0-0.2,0.1-0.3,0.1-0.3c0.1-0.3,0-0.7-0.1-1h0.2V9c0.2-0.1,0.5-0.1,0.7-0.1c0,0,0,0.1,0.2,0.1L81,8.9V9c0,0,0.4,0.1,0.3-0.1h-0.1
			V8.8h0.4v0.1h0.1V8.8h0.3V9l0.3-0.1V8.8h0.1v0.1c0.2,0,0.3-0.1,0.4-0.1v0.1L82.8,9V8.9c0,0,0.4,0.1,0.3-0.1H83V8.7
			c0.1,0,0.3,0,0.4,0.1c0.1,0,0,0.2,0.2,0.2V8.9h0.2V8.8c0.3-0.1,0.6,0,0.9,0.1c0,0,0.4,0.1,0.3-0.1h-0.1V8.7c0.3,0.2,0.7,0.2,1,0.1
			V9l0.4-0.1V8.8l0.3,0.1V8.8h0.2V8.7l0.4,0.2V8.8l0.3-0.1v0.2h0.1l0.1-0.2c0.2-0.1,0.3,0.1,0.4,0.1L88,8.6l0.4-0.1
			c0-0.1,0-0.2,0.1-0.4l-0.2-0.1V8h0.1V7.6c0,0-0.3,0-0.2,0.1h0.1v0.1c-0.4-0.2-0.1-0.3-0.6-0.2V7.4l-0.5,0.1v0.1
			c-0.1,0-0.2-0.2-0.4-0.1v0.1h-0.3v0.1h-0.1V7.6H85.4z"/>
		<path id="パス_314" class="st1" d="M106.6,8.4L106.6,8.4l-0.2-0.1C106.5,8.5,106.4,8.4,106.6,8.4z"/>
		<ellipse id="楕円形_46" class="st1" cx="137.1" cy="8.8" rx="0.1" ry="0.1"/>
		<path id="パス_315" class="st1" d="M83.3,9L83.3,9l-0.2-0.1C83.2,9,83.1,8.9,83.3,9z"/>
		<path id="パス_316" class="st1" d="M136.9,9.7c0.1,0.1,0,0,0.2,0.1C137,9.7,137.1,9.8,136.9,9.7z"/>
		<path id="パス_317" class="st1" d="M44.4,28.4L44.4,28.4v-0.4h0.1V28l-0.3,0.1l-0.1-0.2h0.1v-0.1c0-0.1-0.1,0-0.2-0.3
			c-0.1,0.1-0.1,0.2-0.2,0.2c-0.1,0-0.1-0.1-0.4-0.1c-0.1,0,0,0.1-0.1,0.1s0-0.1-0.1-0.1v0.1h-0.1v-0.1l-0.9,0.1l-0.1-0.2l-0.3,0.2
			l-0.1-0.2l-0.3,0.1v0.1L41,27.6v0.1h-0.2v0.1h-0.1v-0.1h-0.4l-0.1-0.2L40,27.6v0.1c-0.1,0-0.3-0.2-0.4-0.1v0.1h-0.3
			c0.1-0.1,0,0,0.2-0.1v-0.1c-0.4,0-0.5,0.1-0.6,0.3h-0.1v-0.3h-0.2v0.2h-0.1v-0.1l-0.3,0.1v-0.1h-0.1v0.1l-0.3,0.1l-0.1-0.2
			c-0.2-0.1-0.5-0.1-0.6,0.1c0,0,0,0,0,0H37l0.1-0.2c-0.2,0-0.3,0.1-0.4,0.1v-0.1H36c-0.1,0.1-0.2,0.2-0.3,0.3v-0.2h-0.4l-0.1,0.2
			l-0.4-0.1v0.1l-0.4-0.1h-0.1v0.1c-0.1,0-0.2,0-0.3-0.1l-0.8,0.1v0.2c-0.3-0.1-0.1-0.1-0.4,0v-0.2c-0.2,0-0.4,0-0.5,0.1v0.1
			c-0.2,0-0.1-0.2-0.2-0.2l-0.4,0.2v-0.2L31.5,28v0.1c-0.2,0-0.2-0.1-0.2-0.1c-0.3,0-0.6,0-0.9,0.1c0,0-0.4,0.1-0.3-0.1
			c0.1-0.1,0.1,0,0.1-0.1h-0.2V28c-0.1,0,0,0-0.1-0.1h-0.1V28h-0.3v0.1h-0.3l0.1-0.2h-0.2c-0.2-0.1-0.1-0.3,0-0.4h-0.2
			c0-0.2,0-0.4-0.1-0.5h0.1v-0.1h-0.2l0.1-0.3h-0.1v-0.2h-0.1v-0.4h-0.1v-0.1c0.1,0,0.1-0.2,0.1-0.3c0,0,0,0,0,0h-0.1v-0.4l-0.2,0.1
			c0.1-0.4,0.1-0.3-0.1-0.6h0.2c0-0.1-0.1-0.2-0.1-0.4h0.1v-0.2h-0.2v-0.2c0-0.1-0.2,0-0.2-0.3h0.1l0.1-0.3c0-0.1-0.2,0-0.2-0.2
			l0.2-0.1c0-0.3-0.1-0.2-0.2-0.3c0-0.2,0-0.5,0.1-0.7h-0.2c0-0.1,0-0.2,0.1-0.4h-0.1v-0.1h0.1v-0.1h-0.1v-0.2c0-0.1-0.2,0-0.2-0.2
			h0.2c-0.1-0.3-0.4-0.3,0-0.5v-0.1h-0.3v-0.1H28c-0.1-0.3,0-0.3,0-0.6l0.4-0.1v0.2l0.5-0.1v-0.1h0.1v0.1h1v-0.1h0.1v0.1h0.1v-0.1
			h0.4v0.1l0.4-0.1c0.1,0,0,0.1,0.1,0.1v-0.1c0.4-0.1,0.9,0.3,1.4,0.2v-0.1c0.1,0,0.3,0.2,0.5,0.1v-0.1h0.1v0.1h1.1v-0.1h0.2v0.1
			l0.1-0.1h0.1v0.1c0.1,0,0.1,0,0.2-0.1c0.2,0,0.2,0.1,0.2,0.1h0.5v-0.2h0.2V20l0.3-0.1v-0.1H36v0.1h0.3v-0.1l0.2,0.1v-0.1l1.3,0.1
			c0,0,0-0.2,0.2-0.2l0.1,0.2l0.3-0.1c0,0.1,0.1,0.1,0.2,0.1v-0.1h0.1v0.1h0.5V20h0.1v-0.1h0.1V20h0.1v-0.1l0.3,0.1l0.1-0.2h0.1
			L39.7,20l1.7-0.2c0-0.2,0.1-0.3,0.2-0.4v-0.1h-0.3v-0.7c-0.1,0-0.2,0-0.4,0.1c-0.1-0.1,0.1-0.2-0.1-0.2c-0.1,0,0,0.2-0.2,0.2v-0.1
			h-0.3v-0.1l-0.6,0.1c-0.1-0.3-0.4,0.1-0.9,0v-0.1l-0.2,0.1v-0.1h-0.1v0.1h-0.1v-0.1h-0.1c-0.1,0.1-0.2,0.1-0.3,0.1v-0.1L38,18.7
			v-0.1h-0.3v-0.1h-0.2v-0.1l-0.1,0.1h-0.4v0.1l-0.3-0.1v0.1h-0.6v-0.1l-1,0.2v-0.2l-0.8,0.2v-0.1H34v-0.1c-0.1,0-0.2,0-0.3,0.1
			c-0.2,0-0.4-0.1-0.4-0.1v0.1h-0.2v0.1c-0.2,0-0.1-0.2-0.4-0.2v0.1c-0.5,0.1-0.7-0.2-1.1,0.1h-0.1l0.1-0.2h-0.2v-0.1l-0.9,0.1v0.1
			h-0.4l0.1-0.2h-0.4v0.2h-0.3l-0.1-0.2l-0.4,0.1c-0.1,0,0-0.1-0.1-0.1v0.1h-0.2v0.1h-0.2v0.1c-0.1,0-0.3-0.2-0.5-0.1v0.1h-0.1v-0.3
			h-0.1L27.7,18h-0.1v-0.3l-0.2-0.1v-0.1h0.1V17h-0.1l0.1-0.4h-0.1v-0.2h-0.1l0.1-0.2h-0.1V16h-0.2v-0.1h0.1c0.1-0.2,0.1-0.2,0-0.4
			h-0.1l0.1-0.4h-0.1v-0.2H27v-0.4H27v-0.1c0.1,0,0.1-0.1,0.1-0.2c0,0,0,0,0,0H27v-0.2h-0.1L27,14l-0.1-0.4c-0.2-0.1-0.1,0-0.2-0.1
			h0.2l0.1-0.4H27V13h-0.2c0.1-0.2,0.1-0.1,0-0.2v-0.3H27c0.1-0.1,0,0,0.1-0.1v0.2l0.5-0.1c0.1,0.1,0.2,0.1,0.3,0.1
			c0.1,0,0-0.1,0.1-0.1v0.1h0.4v0.2c0.2-0.2,0.5,0.1,0.8,0v-0.1c0.2,0,0.4,0.2,0.6,0.2v-0.1h0.1V13c0.1,0,0.2-0.1,0.4-0.1V13h0.1
			c0-0.1,0.1-0.1,0.2-0.1c0,0,0,0.1,0.2,0.1v-0.1h0.3v-0.2c0-0.1,0.2,0.3,0.2,0.3c0.2,0.1,0.2-0.2,0.3-0.2h0.2V13h0.1
			c0-0.1,0.2-0.1,0.4-0.1V13h0.2v0.1h0.1V13h0.4v-0.1l0.9,0.1c0.1,0.2,0,0.1,0.1,0.2V13h0.4v0.1c0.1,0,0-0.1,0.1-0.1
			c0.1,0,0.2,0,0.2,0.1l0.4-0.1v0.2l0.8-0.1V13c0.1,0,0.1,0.1,0.2,0.2v-0.1l0.3,0.1v-0.1h0.2V13h0.1v0.1h0.4v0.2
			c0.1-0.3,0.6,0.1,1-0.1l0.1-0.2h0.2l0.1-0.4h0.1L38,12.4h-0.3c0.1-0.1,0.1-0.1,0.2-0.2c-0.1-0.1-0.1-0.1-0.2-0.2l-0.2,0.1
			l-0.1-0.3c-0.3-0.1-0.4,0.1-0.6,0.1v-0.1h-0.4c0-0.1-0.1-0.1-0.2-0.2v0.2h-0.4l0.1-0.2h-0.3v0.1h-1v0.1c-0.1-0.1-0.3-0.1-0.4-0.1
			l-0.2,0.1L34,11.7l-0.3,0.1c0-0.1-0.1-0.1-0.2-0.1v0.1c-0.2,0-0.3-0.1-0.3-0.1h-0.9v-0.1h-0.5v-0.1c-0.3,0-0.2,0.2-0.3,0.2
			L31,11.6v0.1h-0.3v-0.1l-0.4,0.1c0,0,0-0.4-0.1-0.2v0.1h-0.4v0.1h-0.1l-0.1-0.2l-0.2,0.1v-0.1h-0.1c-0.1,0.1-0.2,0.1-0.3,0.1v-0.1
			c-0.2,0-0.1,0.1-0.2,0.1h-0.1v-0.2l-0.3,0.1v-0.1h-0.2v-0.1l-0.3,0.1v-0.1H28v0.1l-0.2-0.1v0.1h-0.1v-0.1h-0.2v-0.1l-0.1,0.1
			l-0.3-0.1v0.1h-0.1v-0.1H27v0.1h-0.1v-0.1h-0.1v0.1c-0.2,0-0.4,0-0.5-0.1v0.2h-0.4c0.1,0.1,0,0,0.2,0.1v0.1h-0.2
			c-0.3,0.3,0.1,0.3,0.1,0.4v0.2h0.2v0.1h0.1v-0.1l0.3,0.1l-0.1,0.3l0.1,0.1l-0.4,0.1v0.1c0.1,0.1,0.1,0,0.1,0.1h-0.1v0.1h-0.3
			c0,0.1,0.1,0.2,0.1,0.4h-0.1v0.2h-0.2l0.1,0.3h-0.1v0.2c0.2,0.1,0.1,0,0.2,0.1h-0.1c0.1,0.1,0.1,0.2,0.1,0.4h-0.1v0.1h0.1v0.1
			l-0.2,0.1c0,0.1,0.1,0.4,0.2,0.4h0.1l-0.1,0.5H26c-0.1,0.2,0,0.2-0.2,0.3V16h0.3l-0.2,0.4h0.2v0.1c0,0-0.1,0-0.1,0.2h0.1L26,16.9
			h0.1v0.4h0.1c0,0.1,0.2,0.4,0.1,0.5h-0.1V18h0.3c-0.1,0.1-0.1,0.3-0.1,0.4h0.1c0,0.1,0,0-0.1,0.1c0,0.1,0.1,0.1,0.2,0.2
			c-0.2,0.2-0.5,0.2-0.5,0.3c-0.3,0.2-0.2,0.4-0.3,0.6c0.3,0.1,0.6,0.3,0.9,0.4c0,0-0.1,0.4,0.1,0.3v-0.1h0.1l-0.1,0.3h-0.1v0.1h0.1
			c0.1,0.3,0.1,0.2-0.1,0.4v0.1h0.3c-0.1,0.1-0.1,0.3-0.1,0.4H27l-0.1,0.3h-0.1c0,0.2,0.2,0.2,0.2,0.2v0.1h-0.1
			c0,0.2,0.1,0.3,0.1,0.3l-0.1,0.3h0.2L27,22.8c0.1,0,0.1,0.1,0.1,0.2H27v0.1l0.2,0.1c0,0.1,0,0.2-0.1,0.3l0.1,0.1
			c0,0.2-0.1,0.2-0.1,0.2l0.1,0.3h-0.1v0.1l0.3,0.1c0,0.2-0.1,0.3-0.1,0.4c0,0.1,0.1,0,0.1,0.3c0,0.1-0.1,0-0.1,0.1h0.1l0.1,0.4
			c-0.3,0.1-0.1,0-0.1,0.3h0.2l-0.1,0.5l0.2,0.1l-0.1,0.4h0.1c0.1,0.1,0.1,0.1,0.2,0.2c-0.1,0.1,0,0-0.2,0.1
			c0.2,0.3,0.3,0.7,0.4,1.1h-0.2v0.1h-0.1V28l-0.5,0.1L27.1,28c-0.1,0.3,0,0,0,0.3l-0.3,0.1c0,0.2,0,0.4-0.1,0.6
			c0.1,0.1,0.2,0.2,0.3,0.3l0.8,0.1c0,0,0-0.1,0.2-0.1v0.1l0.4,0.1V30h0.3c-0.2,0.4-0.1,0.2-0.1,0.6h0.3v0.1H29V31
			c0,0,0.4-0.1,0.3,0.1c-0.1,0.1-0.1,0-0.1,0.1l0.9-0.1c-0.1-0.1,0,0-0.2-0.1v-0.1h0.3v-0.1h-0.1c0.1-0.2,0.1-0.4,0.1-0.6
			c-0.1-0.3-0.2-0.5-0.4-0.7v-0.2h0.1v0.2l0.3-0.1v-0.1c0.1,0,0.2,0.1,0.4,0.1c0,0,0-0.1,0.2-0.1l0.1,0.2h0.3v-0.2l0.5,0.1v-0.1h0.1
			v0.1h0.4c0.1-0.1,0.1-0.1,0.2-0.2l0.1,0.3c0.1,0,0,0,0.1-0.1l1.2-0.1v0.1H34v-0.1l0.3,0.1l0.1-0.2l0.4,0.1v-0.1
			c0.1,0,0.2,0.1,0.2,0.1l0.6-0.1V29h0.3v0.2l0.9-0.1l0.2,0.1v-0.1h0.4V29h0.5v0.1l0.3-0.1h0.3v0.1h0.1V29l0.2,0.1V29H39v-0.1
			c0.3-0.1,0.3,0.2,0.5,0.2V29c0.2,0,0.4,0,0.5,0.1V29h0.4v-0.1h0.1v0.2c0.1,0,0.2,0,0.4-0.1v-0.1c0.2,0,0.2,0.2,0.4,0.2V29l0.7,0.1
			V29h0.6v-0.1c0.2,0.1,0.4,0.1,0.5,0.1v-0.1c0.1,0,0.1,0.1,0.4,0.1v-0.1h0.1V29c0.3,0,0.5-0.1,0.7-0.4l0.1-0.1L44.4,28.4L44.4,28.4
			z M36.2,27.8c0.2,0.1,0.1,0,0.2,0.1C36.2,27.9,36.3,27.9,36.2,27.8L36.2,27.8z"/>
		<path id="パス_318" class="st1" d="M78.2,11.3C78.3,11.2,78.2,11.3,78.2,11.3L78.2,11.3C78.1,11.4,78.1,11.3,78.2,11.3
			L78.2,11.3z"/>
		<path id="パス_319" class="st1" d="M36.9,11.8L36.9,11.8l-0.2-0.1C36.8,11.8,36.7,11.7,36.9,11.8z"/>
		<path id="パス_320" class="st1" d="M37.7,11.9V12h0.1C37.8,11.9,37.8,12,37.7,11.9z"/>
		<path id="パス_321" class="st1" d="M125.6,12.9h-0.2c0.1,0.2,0,0.1,0.1,0.2L125.6,12.9C125.6,12.9,125.5,13,125.6,12.9z"/>
		<ellipse id="楕円形_47" class="st1" cx="125.7" cy="14.5" rx="0.3" ry="0.1"/>
		<path id="パス_322" class="st1" d="M78.3,18.9L78.3,18.9l-0.2-0.1C78.2,19,78.1,18.9,78.3,18.9z"/>
		<path id="パス_323" class="st1" d="M41.5,19.3L41.5,19.3c0-0.2,0.1-0.1,0-0.2V19.3z"/>
		<path id="パス_324" class="st1" d="M65,19.4L65,19.4c0-0.2,0.1-0.1,0-0.2V19.4z"/>
		<path id="パス_325" class="st1" d="M65,25.4v0.2h0.1C65,25.4,65.1,25.5,65,25.4z"/>
		<path id="パス_326" class="st1" d="M36.2,27.8c0.1,0.1,0,0,0.2,0.1C36.3,27.8,36.4,27.9,36.2,27.8z"/>
	</g>
</g>
</svg>
