<?xml version="1.0" encoding="utf-8"?>
<!-- Generator: Adobe Illustrator 24.2.0, SVG Export Plug-In . SVG Version: 6.00 Build 0)  -->
<svg version="1.1" id="レイヤー_1" xmlns="http://www.w3.org/2000/svg" xmlns:xlink="http://www.w3.org/1999/xlink" x="0px"
	 y="0px" viewBox="0 0 234 96" style="enable-background:new 0 0 234 96;" xml:space="preserve">
<style type="text/css">
	.st0{fill:#FFFFFF;}
	.st1{fill:#FFFFFF;stroke:#FFFFFF;stroke-width:2;}
</style>
<g id="グループ_754" transform="translate(-181.29 -336.829)">
	<path id="パス_676" class="st0" d="M193.8,418.9c-0.6,0.1-1.3,0.1-1.9,0.1h-4.4c-0.6,0-1.3,0-1.9-0.1v1.8
		c0.6-0.1,1.3-0.1,1.9-0.1h4.5c0.6,0,1.3,0,1.9,0.1L193.8,418.9z M194.8,424.4c0.6,0,1.3,0,1.9,0.1v-1.8c-0.6,0.1-1.3,0.1-1.9,0.1
		h-8.8c-0.6,0-1.3,0-1.9-0.1v1.8c0.6-0.1,1.3-0.1,1.9-0.1h3.6c-0.1,2.9-1.3,4.4-4.2,5.3c0.5,0.5,1,1,1.2,1.7c3.4-1.3,4.8-3.3,5-7
		H194.8z M197.9,419.6c-0.3-0.8-0.8-1.6-1.3-2.3l-1.1,0.4c0.5,0.7,1,1.5,1.3,2.3L197.9,419.6z M193.6,418.3c0.5,0.7,1,1.5,1.3,2.4
		l1.1-0.4c-0.3-0.8-0.8-1.6-1.3-2.4L193.6,418.3z M212.5,429.7v0.9h2c-0.1-0.5-0.1-1-0.1-1.5v-8.2c0-0.4,0-0.8,0-1.2
		c-0.5,0-0.5,0-1.3,0H206c-0.6,0-1.3,0-1.9-0.1v1.9c0.6-0.1,1.3-0.1,1.9-0.1h6.6v6.5h-6.8c-0.6,0-1.3,0-1.9-0.1v1.9
		c0.6-0.1,1.2-0.1,1.8-0.1H212.5z M223.5,418.6c0.1,0.5,0.1,1,0.1,1.5l-0.1,8.1c0,0.5,0,1-0.1,1.5l1,1.2c0.3-0.1,0.6-0.2,0.9-0.3
		c1.9-0.3,3.8-1,5.5-2.1c1.4-0.9,2.5-2.1,3.3-3.5c-0.5-0.4-1-1-1.4-1.5c-0.7,1.4-1.8,2.6-3.1,3.4c-1.2,0.8-2.6,1.4-4.1,1.6l0.1-8.6
		c0-0.5,0-1,0.1-1.5L223.5,418.6z M240.3,425.7c0.8-0.1,1.6-0.1,2.4-0.1h8c0.8,0,1.6,0,2.4,0.1v-2.1c-0.8,0.1-1.6,0.1-2.4,0.1h-8
		c-0.8,0-1.6,0-2.4-0.1V425.7z M260.8,420c1.4,0.5,2.8,1.2,4,2.1l1-1.6c-1.3-0.8-2.6-1.4-4-1.9L260.8,420z M259.7,423.7
		c1.4,0.6,2.8,1.3,4.1,2.2l0.9-1.7c-1.3-0.8-2.6-1.5-4-2L259.7,423.7z M260.5,430.9c0.3-0.1,0.7-0.2,1-0.2c3.7-0.7,6.2-2.1,8.1-4.3
		c1-1.1,1.7-2.4,2.2-3.8c-0.6-0.4-1.1-0.8-1.6-1.3c-0.4,1.2-1,2.3-1.7,3.3c-1.1,1.5-2.6,2.7-4.3,3.3c-1.4,0.6-2.8,0.9-4.3,1
		L260.5,430.9z M286.8,430.7v0.7h1.7c0-0.4-0.1-0.8-0.1-1.1v-6.9c0-0.7,0-1,0-1.6c-0.5,0-0.9,0.1-1.4,0.1h-5.9c-0.5,0-0.9,0-1.4-0.1
		v1.7c0.4-0.1,0.9-0.1,1.4-0.1h5.6v2.1h-5.2c-0.5,0-0.9,0-1.4-0.1v1.6c0.4-0.1,0.9-0.1,1.4-0.1h5.2v2.3H281c-0.5,0-0.9,0-1.4-0.1
		v1.7c0.4-0.1,0.9-0.1,1.4-0.1H286.8z M297.3,420.8c1.4,0.8,2.7,1.8,3.8,3l1.3-1.6c-1.2-1.1-2.5-2.1-3.9-2.9L297.3,420.8z
		 M297.8,430.7c0.3-0.1,0.7-0.2,1-0.3c2-0.4,4-1.1,5.7-2.2c2.1-1.5,3.8-3.5,4.8-5.9c-0.6-0.4-1.1-0.9-1.6-1.5
		c-0.4,1.1-0.9,2.1-1.5,3c-1.1,1.6-2.6,2.9-4.5,3.7c-1.4,0.6-2.9,1-4.4,1.1L297.8,430.7z M320,431.1c-0.1-0.6-0.1-1.1-0.1-1.7v-4
		c0-0.3,0-0.7-0.1-1c0.2,0.1,0.3,0.2,0.5,0.3c1.8,0.8,3.6,1.8,5.3,2.9l1-1.8c-2.2-1.2-4.5-2.3-6.8-3.2v-2.8c0-0.5,0-1.1,0.1-1.6
		h-2.1c0.1,0.5,0.1,1,0.1,1.5v9.6c0,0.6,0,1.1-0.1,1.7L320,431.1z M323.1,419.6c0.6,0.7,1.2,1.4,1.6,2.2l1.1-0.6
		c-0.4-0.8-1-1.5-1.6-2.2L323.1,419.6z M327.5,420.3c-0.4-0.8-0.9-1.5-1.6-2.1l-1,0.5c0.6,0.7,1.1,1.4,1.5,2.2L327.5,420.3z
		 M334,425.7c0.8-0.1,1.6-0.1,2.4-0.1h8c0.8,0,1.6,0,2.4,0.1v-2.1c-0.8,0.1-1.6,0.1-2.4,0.1h-8c-0.8,0-1.6,0-2.4-0.1V425.7z
		 M360.6,421.9c0-0.2,0-0.2,0-1.2l0-0.9c0-0.5,0-1,0.1-1.4h-2.1c0.1,0.5,0.1,1,0.1,1.4v0.9c0,0.3,0,0.5,0,1.2h-3.8
		c-0.7,0-1.3,0-2-0.1v1.9c0.6-0.1,1.3-0.1,1.9-0.1h3.7c0,1-0.3,2.1-0.7,3c-0.8,1.4-2.1,2.4-3.6,3c0.6,0.4,1,1,1.4,1.6
		c1.6-0.7,2.9-1.9,3.8-3.4c0.7-1.3,1.1-2.7,1.1-4.2h3.1c0.6,0,1.3,0,1.9,0.1v-1.9c-0.6,0.1-1.3,0.1-2,0.1L360.6,421.9z M381.9,418.3
		c-0.6,0.3-1.2,0.5-1.8,0.7c-2.1,0.6-4.3,0.8-6.4,0.9c-0.2,0-0.5,0-0.9,0c0.3,0.5,0.4,1.1,0.6,1.6c1.4,0,2.8-0.1,4.2-0.3
		c0,1,0,1.6,0,2.3h-3.8c-0.6,0-1.2,0-1.8-0.1v1.8c0.6-0.1,1.2-0.1,1.8-0.1h3.7c0,0.3-0.1,0.7-0.2,1c-0.3,1-0.9,1.9-1.7,2.5
		c-0.7,0.6-1.5,1-2.3,1.3c0.5,0.4,1,1,1.3,1.6c0.5-0.2,1-0.5,1.4-0.8c1-0.6,1.8-1.4,2.4-2.4c0.6-1,0.9-2.1,1-3.3h3.3
		c0.6,0,1.2,0,1.8,0.1v-1.8c-0.6,0.1-1.2,0.1-1.8,0.1h-3.2c0-0.5,0-0.5,0-2.5c0.8-0.1,1.7-0.4,2.5-0.6c1.1-0.4,1.1-0.4,1.3-0.4
		L381.9,418.3z M399,429.1c0.3-1.4,0.4-2.4,0.6-4.1c0-0.6,0.1-1.2,0.3-1.7l-0.8-0.7c-0.4,0.1-0.7,0.2-1.1,0.1h-3.8
		c-0.5,0-0.9,0-1.4-0.1v1.7c0.4-0.1,0.9-0.1,1.3-0.1h3.7c-0.1,1.4-0.5,3.5-0.7,4.8h-4.4c-0.5,0-0.9,0-1.4-0.1v1.7
		c0.5,0,0.9-0.1,1.4-0.1h7.8c0.5,0,0.9,0,1.4,0.1V429c-0.5,0.1-0.9,0.1-1.4,0.1H399z"/>
	<g id="グループ_289" transform="translate(182.58 338.216)">
		<path id="パス_359" class="st1" d="M229.7,9.1l-1.2,0.2c0,0-0.1-0.8-0.2-0.4v0.2l-1,0.2V9.1l-0.4,0.2l-0.2-0.4l-0.6,0.2V8.9
			c-0.5-0.2-1,0-1.2,0.4h-0.2l0.2-0.6h-0.8V8.5h-0.2c-0.1,0.1,0,0.3-0.6,0.2V8.5l-0.4,0.2V8.5L222,8.7l-0.2-0.4l-1,0.2V8.3h-1v0.2
			c-0.6,0.1-0.9-0.4-1.7,0c-0.1-0.2-0.1-0.4-0.2-0.6l-1,0.4V7.9h-0.2v0.2h-1.7V7.9l-0.6,0.2V7.7l-1,0.2v0.2h-0.8V7.9
			c-0.9-0.1-1.8-0.1-2.7,0.2V7.7l-1.2-0.2v0.2h-0.2V7.5H207V7.3c-0.3,0-0.2,0.3-0.4,0.4c-0.3,0-0.4-0.2-0.8-0.2V7l-1.5,0.2v0.2
			c-0.3,0-0.3-0.4-0.4-0.4c-0.5-0.2-0.6,0.2-0.8,0.2c-0.4,0-1.1-0.6-1.5-0.8v0.4l-3.3-0.2l-0.2-0.4c-0.5-0.2-0.6,0.3-0.8,0.2V6.2
			L195.8,6V5.6c0,0-0.8,0-0.4-0.2h0.2V4.8h-0.8V4.3c-1.2,0.2-0.6,0.4-1.2,0.8l-1.2,0.4c-0.2-0.6-0.1,0,0-0.6l-1.5-0.2V5h-0.2V4.8
			H190V4.6h-1.5c-0.3,0.1,0.1,0.3-0.2,0.2l-0.2-0.4l-1,0.2V4.3l-1.9-0.2V3.9l-1,0.4V4.1h-1.2l-0.2-0.4l-0.2,0.2h-1V3.7
			c-0.3,0.1-0.5,0.2-0.8,0.2V3.5l-1,0.4l-0.2-0.6c-0.6,0.1-0.5,0.3-1,0.4V3.1h-0.2v0.4h-0.6V3.1h-0.4v0.2L175,2.9V2.5
			c-1.6-0.1-3.2-0.1-4.8,0V2.1c-0.3,0-0.6,0.1-0.8,0.2V1.9l-1,0.2c-0.1-0.2-0.2-0.3-0.4-0.2v0.2h-0.2c0,0-0.1-0.4-0.4-0.2v0.2h-0.2
			V1.4l-0.6,0.2V1.4h-0.2l-0.2,0.4h-0.2V1.6h-0.2v0.2h-0.8l-0.2,1h0.2v0.6h0.2l0.2,0.6c0.3,0,0.6-0.1,0.8-0.2l0.2,0.6h0.2V4.1h0.2
			v0.4c0.6,0,1.3,0,1.9-0.2c0.2,0.6,0.1,0,0,0.6h1.2v0.2h0.2c0.2-0.2-0.1-0.3,0.2-0.2v0.2h0.4v0.2l0.6-0.2v0.4h0.2
			c0.2-0.2-0.2-0.2,0.2-0.4l0.2,0.4h1.2V5.4h0.2v0.2h0.8c0.7,0.3,0.4,1,1,0.2h0.2v0.6l0.6-0.2V6l1,0.2v0.2c0.7,0.2,1.1-0.2,1.5-0.4
			v0.4h0.6v0.4c0.5-0.1,0.4-0.1,0.6-0.4h1v0.2h0.2l-0.2,0.6l0.2-0.2h1.5V6.8h0.2l-0.2,0.4l0.8-0.2V6.6h0.2v0.6
			c0.2-0.1,0.4-0.3,0.8-0.2c0.1,0,0,0.6,0.6,0.4l0.2-0.4l1.7,0.4c0.4-0.8,0.4,0.4,1.5,0.2V7.5h0.2v0.2h0.8l0.2,0.4
			c0.3,0,0.4-0.3,0.8-0.2v0.2h1v0.2h0.2V8.1h0.2l-0.2,0.4c0.4,0,0.7-0.1,1-0.2l0.4,0.8l-0.4-0.2v0.4h0.4V10h0.2v0.2h-0.2v0.4h0.2
			l-0.2,0.2l0.2,0.2l-0.2,0.6h0.4l-0.2,0.8c0.2,0.1,0.3,0.4,0.2,0.6c-0.1,0.3-0.2-0.1-0.2,0.2l0.2,0.4h-0.2v0.4h0.4
			c-0.1,0.5-0.1,1.1,0,1.7h0.2V16h-0.2l-0.2,0.6l0.4,0.2v0.6h0.2v0.2h-0.4c0,0.1,0.4,0.4,0.4,0.4l-0.2,0.6h0.2v0.2l-0.4,0.2l0.2,0.6
			h0.2l-0.2,0.4h0.2V21h-0.2c0.1,0.5,0.4,0.2,0.6,0.4c-0.4,0.5-0.5,1.1-0.4,1.7c0.1,0.3,0.2-0.1,0.2,0.2l-0.2,0.4c0,0,0.2,0,0.2,0.4
			l-0.2,0.4h0.2c-0.1,0.3-0.1,0.7-0.2,1l0.4,0.2l-0.2,0.4c0.1,0.1,0.5,0.1,0.4,0.4h-0.2v0.6h-0.2c0.1,0.5,0.2-0.1,0.4,0.2l-0.2,0.2
			v0.6h-0.2c0,0.3,0.3,0.2,0.4,0.4l-0.2,0.2v1.5h0.2v0.2h-0.2v0.2h0.2v0.2h-0.2v0.2h0.2l-0.2,0.8c0,0,0.3,0.1,0.2,0.6
			c0,0-0.3,0.1-0.2,0.4l0.4,0.2c0.2,0.7-0.6,0.8-0.4,1.5h0.2v0.6h0.2c0.1,0.2,0,0.5-0.2,0.6l0.2,1.2h-0.2V38h0.2c0,0.5,0,1-0.2,1.5
			h0.4l-0.2,0.6h-0.4v0.2h0.2v0.4h0.2l-0.2,0.6h0.2v1.2h-0.2v0.2h0.4L195,43c0,0.3,0.3,0.3,0.2,0.8H195v0.8c0.1,0.3,0.3-0.1,0.2,0.2
			H195v0.8l0.2,0.6H195v0.2h0.2l0.2,0.6h-0.2v0.6H195V48h0.2v1.5h0.2v0.2h-0.2v0.6H195c-0.1,0.6,0.3,0.4,0.4,0.6
			c0,0.3-0.3,0.3-0.2,0.8h0.2v0.2h-0.2v1h0.2c0.1,0.4,0,0.7-0.2,1H195l0.2,0.2V55h0.2v0.2h-0.2l0.2,0.6l-0.2,0.6h0.2
			c-0.1,0.3-0.1,0.7-0.2,1h0.2V58h0.2c-0.1,0.3-0.1,0.6-0.2,0.8h0.2v0.8h0.2c0,0.3-0.4,0.4-0.2,0.8l0.4,0.2l-0.2,0.4h0.2
			c0.2,0.3,0.2,0.7,0.2,1h0.6v0.4l0.6-0.2l0.6,0.2l0.2-0.4c0.7-0.4,1-0.2,1.2-1h-0.4l0.2-0.6h-0.2l-0.2-1.7h-0.4v-0.2
			c0,0,0.3-0.1,0.2-0.4c0,0-0.3-0.1-0.2-0.6c0,0,0.3-0.1,0.2-0.4l-0.4-0.2v-1.5h0.2c0.1-0.6-0.3-0.4-0.4-0.6l0.2-0.2v-2.1h0.2v-0.2
			h-0.2v-0.8h-0.2c0.1-0.3,0.4-0.4,0.4-0.4c0.1-0.4-0.2-0.4-0.2-0.4c-0.1-0.6,0-1.1,0.2-1.7h-0.4v-0.8h0.2V48
			c-0.2-0.1-0.2-0.2-0.2-0.4h0.2l-0.2-0.4h0.2v-0.2h-0.2l0.2-0.6c-0.1-0.4-0.1-0.8-0.2-1.2h0.2v-0.2h-0.2V44h-0.2
			c-0.2-0.9-0.1-1.9,0.4-2.7v-0.2l-0.6-0.2c0.1-0.3,0.4-0.4,0.4-0.4c0-0.3-0.3-0.3-0.2-0.8h0.2v-0.2c-0.2-0.1-0.3-0.4-0.2-0.6
			c0,0,0.3-0.1,0.2-0.4c-0.2-0.1-0.3-0.4-0.2-0.6h0.2c0-0.4-0.1-0.7-0.2-1h0.2l0.2-0.4h-0.4v-1h-0.2v-0.2h0.2l0.2-0.6h-0.4
			c0.2-0.6,0.3-0.5,0.4-1.2c-0.4-0.1-0.2,0-0.4-0.2h0.4c-0.1-0.6-0.3-0.5-0.4-1h0.4l-0.2-0.4h-0.2c-0.1-0.4,0.2-0.4,0.2-0.4
			c-0.1-0.6-0.1-1.1-0.2-1.7h0.2v-0.2h-0.4c0.3-0.8-0.1-3.7,0.2-4.2v-0.6c-0.2,0.2-0.2,0.3-0.4,0.4l-0.2-0.6
			c0.1-0.4,0.6-0.9,0.4-1.7h-0.2l0.2-0.8l-0.4-0.2c-0.2-0.5,0.2-1.3,0.4-1.7l-0.6-0.2v-0.4c0.7-0.3,0.1-0.7-0.2-1.2l0.6-0.2
			c-0.2-0.2-0.4-0.4-0.6-0.6c-0.1-0.3,0.2-0.4,0.2-0.4v-0.2h-0.2c-0.1-0.5,0.2-0.5,0.2-0.8h-0.2v-0.2h0.2v-1.2h-0.2
			c-0.1-0.4-0.1-0.8-0.2-1.2c0.4-0.1,0.2,0,0.4-0.2h-0.4v-1c0,0-0.2,0-0.2-0.4h0.2v-0.2L196,11c-0.1-0.4,0.3-0.1,0.4-0.4h-0.2
			l-0.2-1l0.4-0.2V9.1h0.2l0.6,0.2V9.1h0.2v0.2l0.6,0.2V9.3c0.3,0-0.1,0.1,0.2,0.2h0.6v0.2h0.2V9.5h0.8v0.2l0.4-0.2v0.2h0.8v0.2
			l0.6-0.2v0.2l2.3,0.2v0.2h0.2v-0.2l0.6,0.2v0.2c0.3-0.1,0.3-0.2,0.8-0.2l1,0.2v-0.2c0.1,0,0.9-0.1,0.6,0.2h-0.2v0.2
			c0.5-0.1,1-0.2,1.5-0.2V11h0.2c0.1-0.2,0.2-0.3,0.4-0.2c0.1,0,0,0.3,0.4,0.2v-0.2l0.4,0.2v-0.2h0.8V11h1v0.2h0.2V11h1.2v0.2
			c0.5,0.1,0.6-0.3,0.8-0.2c0.3,0.1-0.1,0.3,0.2,0.2l0.2-0.4l1,0.2l0.2,0.4l0.6-0.2V11c0.3,0.1,0.1,0.5,0.4,0.4v-0.2l1,0.2
			c0.1-0.2,0.4-0.3,0.6-0.2c0.2,0.1-0.1,0.3,0.2,0.2v-0.2h0.2l-0.2,0.4c0.9-0.1,1.8-0.1,2.7,0c0.1,0.4,0,0.2,0.2,0.4v-0.4l2.1,0.2
			l0.2,0.4l1.7-0.2v0.2h2.5l0.2,0.4h0.2v-0.2c0.3,0-0.1,0.2,0.2,0.2l0.6-0.2v0.2h0.2v-0.2l1.2-0.2c0.2-0.7,0.2-1.5,0-2.3h0.2V9.7
			h-1.5V9.1z"/>
		<path id="パス_360" class="st1" d="M52.3,53.4v-0.4h-0.2l-0.2-1c-0.5,0.1-1.1,0.1-1.7,0L50,52.3h-0.8c-0.2,0.1-0.1,0.4-0.4,0.4
			c-0.4-0.3,0.2-0.2-0.2-0.4l-0.2,0.6c-0.4-0.1-0.7-0.2-1-0.4c-0.1,0.2-0.2,0.5-0.4,0.6v0.2l-0.4-0.2c-0.3,0-0.3,0.3-0.8,0.2
			c0,0-0.1-0.3-0.6-0.2v0.2h-0.2v-0.2l-1.2,0.2c-0.2-0.1,0-0.5-0.6-0.4v0.2h-1v0.2c-0.4,0.1-0.4-0.6-1-0.4l-0.2,0.4
			c-0.5,0.1-0.7-0.4-1-0.4v0.2c-0.5,0.1-0.8-0.2-1-0.2c-0.1,0.1-0.1,0.3-0.4,0.4c-0.2-0.2,0.1-0.3-0.2-0.2v0.2h-1v-0.2h-0.2v0.2
			l-0.6-0.2v0.2l-0.4,0.2v-0.4l-0.6,0.2v-0.2h-0.6v-0.2h-0.2v0.4c-0.3,0.1-0.1-0.1-0.2-0.2c-0.3,0-0.3,0.3-0.8,0.2v-0.2H33v0.2h-0.8
			c-0.3-0.1,0.1-0.2-0.2-0.2v0.2l-0.6-0.2v0.2h-0.8v-0.2h-0.2v0.2h-1.5c0,0,0-0.3-0.4-0.2v0.2h-0.2v-0.2H28v0.2
			c-0.3,0,0-0.1-0.2-0.2h-0.2v0.2h-1v0.2h-0.2v-0.2h-0.8v0.2l-0.6-0.2v0.2h-0.4v0.2h-0.2v-0.2l-0.6,0.2v-0.2h-1.3L22.2,54l-0.8-0.4
			v0.2l-2.1-0.2v0.2l-1,0.2v-0.4H18c0,0.2-2,0.4-2.1,0.4v-0.6l-1-0.2v-0.4l-1,0.2v-0.2h-0.2v0.4h-0.2c-0.2-0.3,0.3-0.3-0.2-0.6v0.2
			h-0.2c0.2-0.9,0.6-1-0.2-1.5v-1.9l-0.4,0.2l-0.2-1h0.2v-0.2c-0.2-0.1-0.3-0.2-0.2-0.4c0,0,0,0,0,0c0.1-0.3,0.3,0.1,0.2-0.2h-0.2
			c-0.3-0.6-0.2-0.5,0-1h-0.4c-0.1-0.7-0.1-1.4-0.2-2.1c0-0.3,0.2,0.1,0.2-0.2h-0.2V44h-0.2v-1.9h-0.6c0.2-0.6,0-0.5,0.6-0.6v-0.4
			h-0.6c0-0.6,0-1.1,0.2-1.7c-0.3-0.2-0.6-0.4-0.8-0.6h0.2c-0.3-0.5-0.1-0.5,0-1H9.9l0.2-0.6H9.9c-0.1-0.6-0.1-1.3,0-1.9H9.5v-0.4
			c0.8,0,1.3,0,1.7-0.4h1L12,34.9c0.8-0.1,0.8-0.2,1.7-0.4v0.4h0.2v-0.4c0.3,0,0.3,0.3,0.8,0.2v-0.2H17c0,0,0,0.2,0.4,0.2l0.6-0.2
			v0.2l1.9-0.4v0.4c0.7-0.2,1.4-0.1,2.1,0.2v-0.4c0.8,0.1,1.5,0.3,2.1-0.2h0.2l-0.2,0.4l1.7-0.2v0.2h1v0.2h1v0.2
			c0.2,0,0.3,0,0.4-0.2c0.5-0.1,0.4,0.2,0.4,0.2h1l0.2,0.4l2.1-0.2v0.2h-0.6v0.2l1.2-0.2v-0.2h0.2v0.2h0.8v0.4h0.2
			c0-0.5,1.5-0.1,1.7,0c0.1,0,0.9,0.1,0.6-0.2h-0.2v-0.2c0.5,0.2,1.1,0.3,1.7,0.2v-0.2h0.8l0.2,0.4h0.2v-0.2h0.6v-0.2
			c0.4-0.1,0.3,0.2,0.4,0.2l0.2-0.2c0.4,0,0.4,0.2,0.4,0.2H43v-0.4h0.2v0.6l1.2-0.6l0.2-1H45v-0.4h-0.4c0-0.4-0.1-0.7-0.2-1
			l-0.2-0.2l-0.6,0.2v-0.2h-2.3v-0.2c-0.3-0.1-0.4,0.2-0.4,0.2h-0.2v-0.2c0,0-1.7,0.2-1.9,0.2v0.2h-0.2v-0.2
			c-0.4-0.1-0.4,0.2-0.4,0.2c-0.2,0.1-0.4-0.4-0.8-0.2v0.2h-0.2l0.2-0.4l-1.5,0.4v-0.4l-2.1,0.2v-0.2h-0.4v-0.2
			c-0.6-0.1-0.6,0.7-1.5,0.4l-0.2-0.4l-0.8,0.2v-0.2h-0.2v0.2c-0.4,0-0.4-0.2-0.4-0.2h-1v-0.4H29c0,0.6-0.3,0.2-0.6,0v-0.2
			c-0.5,0.2-1,0.3-1.5,0.2v-0.2h-1v0.2c-0.3-0.1-0.1-0.5-0.4-0.4v0.2l-0.6,0.2v-0.2h-0.4v-0.2c-0.6,0.1-1.3,0.2-1.9,0.4h-0.2v-0.2
			h-0.6v-0.2c-0.4-0.1-0.4,0.2-0.4,0.2h-1.9v-0.4l-0.6,0.4c-0.6-0.2-1.3-0.2-1.9,0v0.2h-0.2v-0.4c-0.2-0.1-0.4,0.4-0.8,0.2v-0.2
			h-0.4v-0.2c-0.6-0.1-0.5,0.4-0.6,0.4l-1.7-0.2v0.2l-1,0.2v-0.4H12v0.2l-0.6-0.2v0.2L11,31.4v0.2h-0.4v0.2h-1c0,0,0-0.8-0.2-0.4
			v0.2H9.1v-1.2l-0.4-0.2v-0.2h0.2v-0.6H8.7l0.2-0.6l-0.4-0.2l0.2-1H8.5v-0.6H8.3v-0.2h0.2v-0.2H8.3c-0.1-0.5,0.2-0.5,0.2-0.8H8.1
			l0.2-0.4H8.1v-0.2h0.2c0-0.3-0.3-0.2-0.4-0.4v-0.4H7.7v-0.6H7.5c0-0.5,0.1-1,0.2-1.5c-0.4-0.1-0.2,0-0.4-0.2H7v-0.2l0.4-0.2
			C7.5,21.1,7.1,21.1,7,21v-2.1H6.6l-0.2-1h0.2v-0.2C6.5,17.5,6,17.5,6.2,17h0.2v-0.2H5.8C6,15.9,5.9,15.5,6,14.7l-0.6-0.2L5,12.7
			c1-0.1,1.9-0.2,2.9-0.2l1.2,0.2l0.2-0.4h1.9V12c0.2-0.1,0.5,0,0.6,0.2c0.5,0.1,0.4-0.4,0.6,0c0,0.1,0,0.4,0.2,0.2l0.2-0.6l2.3,0.4
			V12c0.2,0,0.3,0,0.4,0.2c0.2,0,0.3,0,0.4-0.2l0.8,0.2V12l0.2,0.2l0.2-0.2h0.2v0.2h1V12l1.2,0.2v-0.4c0.2,0.3,1.6,0.1,2.1,0.6
			c0,0,0.8,0,0.4-0.2H22V12c0.5,0.1,1,0.2,1.5,0.2v0.2h0.2v-0.2h0.8v0.4l1.2-0.2l0.2,0.4c0.3,0,0.5-0.4,1-0.2v0.2h0.8v0.2l0.8-0.4
			l0.2,0.6l1.5-0.4v0.2h0.4v0.2c0.3-0.1,0.7-0.2,1-0.2l0.2,0.2l0.4-0.2c0.6,0,0.5,0.2,0.6,0.2l0.2-0.2h0.2v0.2l1.9-0.2v0.4h0.4
			l0.2-0.4l1,0.2c0,0,0.3-0.8,0.4-0.6v0.2h0.4l-0.2-0.6H38l-0.2-0.4H38v-0.6h-0.2v0.2h-0.2v-0.2h-0.2c-0.3-0.3,0.4-0.2,0.4-0.2v-0.2
			h-0.4v-0.6h-0.8V10h-0.2v0.2h-0.4v0.2c-0.3,0-0.5-0.3-1-0.2v0.2h-1v-0.2h-2.3V10l-0.6,0.2V10h-1.5v0.2h-0.2V10h-0.4v0.2
			C28.6,10.1,28.3,10,28,10V9.5h-1V9.3h-0.2v0.2l-0.8,0.2V9.5h-0.4V9.3l-2.1,0.2c-0.4-0.1-1.4-0.9-2.1-0.6l-0.2,0.4
			c-0.3,0.1-0.1-0.1-0.2-0.2c-0.3,0-0.4,0.4-0.8,0.2c-0.2-0.1,0-0.5-0.8-0.4c-0.3,0-0.5,0.3-1,0.2V8.9h-2.9c-0.3,0,0.1,0.2-0.2,0.2
			V8.9l-0.6-0.2l-0.2,0.6h-0.4V9.1l-1,0.2V9.1h-0.2l0.2-0.4L12,8.9v0.2l-0.6-0.2v0.2l-0.8-0.2l-0.2,0.4C9.6,9.6,9.8,8.8,9.1,8.9v0.2
			H8.5v0.2H7.7v0.2c-0.3,0,0.1-0.1-0.2-0.2H6v0.4c0.4,0.1,0.2,0,0.4,0.2C5.9,9.8,5.5,9.6,5,9.5C4.8,10,5,9.7,4.8,10v0.2H4.5
			C4.5,10,4.7,9.6,4.3,9.7v0.4L3.9,10v0.4l-1.2-0.2c-0.2,0.3-0.3,0.1-0.4,0.4c0.2,0.2,0.2-0.1,0.2,0.2H2.1v-0.4H1.4v0.2
			c-0.4,0.1-0.2,0-0.4,0.2H0.8v0.6H0.6c0.2,0.5,0.5,1,0.8,1.5h0.6l0.6,2.3H2.3c0.1,0.2,0.3,0.3,0.4,0.4v1h0.2v0.6h0.2v0.6l0.4,0.2
			c0.2,0.5-0.1,1.1-0.2,1.5l0.6,0.2v0.8h0.2C4.2,20.9,3.9,21,3.9,21c-0.1,0.4,0.1,0.3,0.2,0.4L3.9,22h0.2v0.4L5,22.8
			c-0.3,0.5-0.5,1.1-0.4,1.7h0.6c-0.1,0.2-0.4,0.4-0.4,0.4c0,0.2,0.2,0.4,0.4,0.4l-0.2,1h0.6l-0.2,2.1L6,28.6c-1,0.7,0.1,0.9,0,1.7
			H5.8v0.2H6c-0.1,0.6-0.1,1.2-0.2,1.9H5l0.2,0.4H4.5V33l-0.6,0.2l-0.2,1.2c0.6,0.2,0.5,0,0.6,0.6C4.9,35.2,5.5,35,6,34.7h0.2
			l0.2,1.2L7,36.3c0.1,0.2,0,0.3-0.2,0.4c0,0,0,0,0,0V37H7l-0.2,0.6l0.4,0.2v0.8H7l0.2,0.6h0.4c-0.1,0.5-0.2,1-0.2,1.5h0.4
			c0.1,0.9,0.1,1.8,0.2,2.7h0.2v0.4h0.2L8.3,44l0.2,0.6c-0.1,0.1-0.3-0.1-0.2,0.2c0,0,0.7,0.6,0.6,0.8H8.7v0.4H8.5v0.2h0.2v1
			c0.2,0.5,1.1,0.4,0.2,1.2v0.2l0.6-0.2l-0.2,1.7h0.2v0.4h0.2l0.2,0.6H9.5c-0.3,0.3,0.4,0.2,0.4,0.2l-0.2,0.6l0.4,0.2v0.2h0.2
			l-0.2,0.4h0.4v1l-1,0.2V54H9.3v0.2H9.1V54H8.9v0.2c-0.2,0-1.2-0.5-1.7-0.2v0.2c-0.8,0-1,0.1-1.2,0.6c-0.2,0.3,0,0.8,0,1.7
			c0.6,0.1,0.5,0.3,1,0.4v0.4l2.5-0.2v-0.2c0.6,0,1.2,0.1,1.7,0.4l0.4-0.2l-0.2,1.2h0.4v0.2h-0.2v0.2H12V59c-0.4,0.2,0,0.2,0.2,0.4
			v0.2l1,0.2V60h0.6l-0.2,0.4h0.4c0.3-0.8,0.1-0.2,0.6-0.6l0.2-0.4h0.2l0.2-1.9c0.4-0.1,0.4-0.2,0.4-0.2h1v-0.2h0.4v-0.2
			c0.2-0.1,0.5,0,0.6,0.2l0.8-0.2v0.2h0.2v-0.2h1.7v-0.2c0.6-0.1,0.5,0.4,0.6,0.4c0.3,0.1,0.3-0.4,0.4-0.4h0.8v-0.2h0.2v0.4h0.6
			v-0.4c0.7,0.1,1.4,0.1,2.1,0v0.4c0.2,0.2,0.2-0.2,0.2-0.2h0.6v-0.2l0.6,0.2v-0.2l0.6-0.2v0.4c0.6-0.1,1.5,0,2.3-0.2v-0.2l0.4,0.2
			v-0.2h0.2v0.2l1.9-0.2v0.2l0.6-0.2c0.1,0.2,0.2,0.2,0.4,0.2v-0.2c0.5-0.1,0.6,0.2,0.6,0.2h0.8v-0.2l0.6,0.2v-0.2l0.6,0.2l0.2-0.4
			c0.1,0,0.6,0.3,1,0.2v-0.2l2.1,0.2v0.2c0.3,0,0.7-0.6,1.5-0.4v0.2h0.6v-0.2h0.2v0.2c0.5,0.1,1,0,1.5-0.2v0.4
			c0.6-0.2,0.5,0,0.6-0.6l1,0.2l0.2,0.4c0.6,0.2,0.8-0.6,1.7-0.4v0.2l2.1-0.4v-0.2h1l0.2-0.4l0.2,0.2c0.3,0,0.3-0.3,0.8-0.2
			c0,0,0.1,0.3,0.4,0.2v-0.2l0.8-0.2c0.1-0.5,0.6-1.1,0.4-1.7L52.3,53.4z M9.9,34.5v-0.2h0.2v0.4c-0.4-0.1-0.2,0-0.4-0.2H9.9z"/>
		<path id="パス_361" class="st1" d="M20.7,8.9V8.7h-0.4C20.6,8.9,20.3,8.8,20.7,8.9z"/>
		<path id="パス_362" class="st1" d="M127.5,50.7v-0.8h0.2l-0.2-0.6h0.2V49l-0.6,0.2c-0.2-0.6-0.1,0,0-0.6h-0.4v-0.4l-0.8,0.4
			c-0.6,0.1-0.6-0.2-0.6-0.2c-0.6-0.2-1.3-0.2-1.9,0V48l-0.8,0.2v0.2c-0.3,0,0.1-0.2-0.2-0.2h-0.8v0.2l-0.8-0.2l-0.2,0.2V48h-0.6
			v0.2h-0.4c0.2,0.2,0.3,0.2,0.4,0.4l-1-0.2l-0.2-0.4c-0.3,0.1-0.4,0.4-0.4,0.4h-1.2v0.2c-0.5,0-1,0-1.5-0.2v0.2
			c-0.5,0.1-0.6-0.2-0.6-0.2h-1.2v0.2c-0.2,0.1-0.5,0-0.6-0.2c-0.6-0.1-1.1,0-1.7,0.2V48c-0.3,0.1-0.6,0.5-1,0.4v-0.2h-0.6v0.2h-0.2
			c-0.1-0.2-0.2-0.3-0.4-0.2c-0.1,0.2-0.4,0.3-0.6,0.2v-0.2l-1.5-0.2v0.2c-0.2,0.1-0.5,0-0.6-0.2l-0.8,0.2V48h-0.4v-0.2h-0.2V48H104
			v-0.2c-0.3,0-0.3,0.3-0.8,0.2l-0.4-0.2V48h-0.6v0.2h-0.2l-0.2-0.4l-1.2,0.2v-0.2h-0.6v-0.2c-0.2-0.1-0.5,0-0.6,0.2
			c-0.6,0.1-0.5-0.2-0.6-0.2h-0.2v0.2c-0.6,0.1-0.5-0.1-0.6-0.2l-0.6,0.2L97,45.9c0-0.1,0.3-0.1,0.2-0.4H97v-0.6h-0.2v-0.2h0.4
			l-0.4-1.2H97v-0.8h0.2c0.1-0.6-0.5-0.5-0.4-0.8l0.4-0.2v-0.4h-0.4l0.2-0.6h0.2c0.1-0.3-0.1,0-0.2-0.2l0.2-0.6h-0.4
			c0.1-1.1,0.5-2,0-3.3h0.4c0-0.1,0.1-0.9-0.2-0.6v0.2h-0.2c0.1-0.3,0.3-0.4,0.2-0.8c-0.2-0.1-0.2-0.2-0.2-0.4c0,0,0.3-0.1,0.2-0.6
			h-0.2v-0.2H97c0.1-0.5-0.2-0.6-0.2-0.6c0.1-0.3,0.2-0.5,0.2-0.8l1,0.2V33h1v-0.2h0.4c0.2,0.2-0.2,0.2-0.2,0.2l0.2,0.4h1
			c0.1,0,0.1-0.3,0.4-0.2v0.2l1.2,0.2v0.2l1.2-0.2v0.6c0.7-0.2,1.4-0.2,2.1,0v0.2h1v0.2h0.4v0.2l0.6-0.2v-0.2l0.4,0.2v-0.2h0.2
			l-0.2,0.6h0.4v-0.4c0.4,0.1,0.4,0.2,0.4,0.2h1.2l0.2,0.4c0,0,0.8,0,0.4-0.2h-0.2v-0.2c0.6,0.2,1.3,0.2,1.9,0v0.4l0.8-0.2
			c0.1,0.2,0.2,0.3,0.4,0.2v-0.2h1l0.4,0.2c0.1-0.2,0.4-0.3,0.6-0.2v0.2l0.6-0.2v0.2h0.4v0.2h1.2v0.2c0.8,0.3,0.8,0,1.7,0v0.4
			c0.5,0,0.6-0.2,0.8-0.2c0.3,0.2-0.2,0.2,0.2,0.4v-0.4l0.8-0.2v0.4h0.2v-0.2h0.2v0.2h0.6v0.2h0.2v-0.2h0.2v0.2h1v0.2l0.4-0.2v0.2
			c0.4-0.1,0.6,0,0.8-0.2v-0.4l0.8-0.4v-0.8l-0.4,0.2c0.3-0.9,0-0.6-0.2-1.5h-0.8v-0.2h-0.2v0.2h-0.2v-0.2l-1-0.2v0.2l-0.8-0.2
			l-0.2,0.4h-0.2l0.2-0.6c0,0-1.3,0.2-0.6,0.2h0.2v0.2l-0.4-0.2c-0.2,0.2,0.1,0.3-0.2,0.2V33h-0.4v-0.2l-0.8,0.2v-0.2h-1.2
			c0,0-0.1-0.2-0.4-0.2v-0.4l-1.7,0.2v-0.2h-0.2c-0.1,0.1,0,0.3-0.4,0.2c0,0-0.1-0.3-0.6-0.2v0.2H115l-0.2-0.4
			c-0.5-0.2-0.6,0.2-0.8,0.2V32c-0.4-0.1-0.4,0.2-0.4,0.2c-0.2,0-0.3-0.1-0.4-0.2c-0.5,0-0.5,0.3-0.8,0.4V32h-0.6v-0.4h-1V32
			c-0.6-0.1-2.1-0.8-2.9-0.4l-0.2,0.4h-0.4v-0.8l-0.8,0.6v-0.4c-0.3-0.1-0.6-0.1-0.8-0.2v0.2h-0.2l-0.2-0.4h-1v-0.2h-1.5v0.2h-0.2
			c-0.5-0.1-0.9-0.6-1.7-0.6v-0.4l-1.5,0.2v-0.4l-1,0.2v-0.2h-0.4c-0.2-0.1-0.1-0.5-0.4-0.4v0.2h-0.2v-0.4H97l0.2-0.6h0.2l-0.2-1
			c0,0,0.8,0,0.4-0.2h-0.2v-0.6H97v-0.2c0.4,0,0.2-0.7,0.2-1h0.4c-0.2-0.6-0.2-1.3,0-1.9c0-0.1,0.3-0.1,0.2-0.4l-0.4-0.2
			c0.1-0.7,0.3-1.4,0.4-2.1h-0.2v-0.4h-0.2l0.2-0.6h-0.2l0.4-0.6h-0.2v-0.4h-0.2v-0.8h0.2v-1.7h0.2V16l-0.2-0.2h0.2v-0.2l1.9,0.2
			c-0.2,0.2,0,0.1-0.4,0.2v0.2h1.5v0.2h0.2c0,0,0.2-0.6,0.4-0.4l0.2,0.6h1.2v0.2h0.8V17h1.2l0.2,0.4c0.5-0.1,0.2-0.4,0.4-0.4
			l0.6,0.2v0.2c0.2,0,0.3,0,0.4-0.2h0.4v0.2l0.4-0.2v0.2h0.2v-0.2c0.3,0.1-0.1,0.1,0.2,0.2h1.5v0.2h0.2v-0.4l0.6,0.2v-0.2h0.8v0.2
			h0.4v0.2c0.8-0.2,1.7-0.3,2.5-0.2v0.2h0.8v0.2c0.4,0.1,1-0.5,1.7-0.2l0.2,0.4c0.4,0.2,0.6-0.3,0.8-0.2l0.2,0.4
			c0.5,0.2,0.6-0.3,0.8-0.2v0.2h0.4v0.2c0.3,0-0.1-0.2,0.2-0.2h0.6v-0.2c0.3-0.1,0.4,0.2,0.4,0.2h1v-0.2l0.8,0.2v-0.4h0.4v-0.4h0.2
			c0.2-0.7-0.4-0.4-0.6-0.6v-0.2c0.2-0.1,0.5-0.2,0.6-0.4c-0.8-0.4-0.8-1-1.9-0.6v-0.4h-2.3v-0.2h-0.6v-0.2h-0.2l-0.2,0.4
			c-0.5-0.1-0.2-0.4-0.4-0.6l-0.4,0.2h-0.6v0.2h-0.2l0.2-0.4h-1.2v0.2h-0.2c-0.1-0.2-0.2-0.3-0.4-0.2v0.2h-0.2l-0.2-0.6l-0.6,0.2
			v0.2l-0.6-0.2v0.2h-1v-0.2h-0.2v0.2h-0.4v-0.2c-0.3,0.1-0.5,0.2-0.8,0.2v-0.4h-0.2c-0.1,0.4-0.6,0.1-1,0.2v0.2l-0.4-0.2v0.2
			c-0.5,0.1-1,0-1.5-0.2v-0.2l-0.6,0.2v-0.2l-2.3-0.2c0,0,0-0.8-0.2-0.4c-0.3,0,0.1,0.3-0.2,0.2v-0.2h-0.8v-0.2h-0.2v0.2
			c-0.5,0-0.4-0.2-0.4-0.2h-1v-0.2l-0.6-0.2v0.2h-0.2l-0.2-0.4l-2.1-0.2V12c0,0-0.5,0.4-0.8,0.2l0.2-0.4h-0.8l-0.2-0.4h-0.4v-0.2
			c-1,0-1.9,0.5-2.3,1.5H93v0.4l0.4,0.2l0.2,0.6h0.4c0.2,0.3,0.4,0.7,0.4,1c0.4,0.4,0,0.5-0.2,1.2h0.4v0.4h-0.4v0.6h0.4
			c-0.1,0.6-0.3,0.5-0.4,1h0.4c-0.1,1.2-0.1,2.5-0.2,3.7h0.2v0.2h-0.2c-0.1,0.4,0.2,0.4,0.2,0.4l-0.2,0.6h0.2v0.2c0,0-0.4,0-0.4,0.4
			h0.2l0.2,0.6h-0.6v0.6c0.4,0.1,0.2,0,0.4,0.2h0.2c-0.2,0.4-0.5,0.4-0.4,1h0.2v0.2h-0.2l-0.2,0.6h0.4l-0.4,0.6h-0.2l0.2,0.2
			c0.1,1.1-0.1,1.6-0.6,2.1v1l0.4,0.2l-0.2,0.4h0.4l-0.2,2.1h0.4c0,0.3-0.1,0.6-0.2,0.8h-0.2l0.2,0.6h-0.4v0.2h0.2l-0.2,0.6h0.2
			l0.2,0.6h-0.2v1h-0.2V38l0.4,0.2v1.5h-0.2v0.4h-0.2c-0.1,0.3,0,0,0.2,0.2l-0.2,1.2h0.4l-0.2,1.9h0.2v0.8c0,0-0.2,0-0.2,0.4
			l0.2,0.8h-0.2l0.2,0.4l-0.2,0.2h0.2v0.2h-0.2c0,0.5,0.2,0.4,0.4,0.6v0.2h-0.6v-0.4c-0.3,0-0.6,0.1-0.8,0.2v-0.2h-0.6v-0.2h-1.5
			v-0.2h-0.2v0.2c-0.3,0.2-0.7,0.4-1,0.4l-0.2,1.7c0.6,0.1,0.5,0.3,1,0.4v0.4c0.3,0,1.5,0.2,1.5,0.2v-0.2H92V50c0.8-0.3,0.9,0,1.7,0
			l0.2-0.2l0.2,0.6l0.6-0.2v0.2h0.2v-0.2h0.2v0.2l1.2-0.2v0.4l0.4-0.2v0.2l0.6,0.2v-0.4c0.8,0.2,1.7,0.2,2.5,0.2v0.4h0.2
			c0-0.2,0.2-0.3,0.4-0.2c0,0,0,0,0.1,0v0.2l0.6,0.2v-0.2h1.2v0.2h0.2v-0.2h1.2v-0.2h0.2v0.2c0.4,0,0.7-0.1,1-0.2v0.4l0.2-0.2
			c0.4,0,0.4,0.2,0.4,0.2l1-0.2c0,0,0.1,0.8,0.2,0.4v-0.2h0.4v-0.2c0.2,0,0.3,0,0.4,0.2l0.8-0.2v0.2l3.3,0.2v-0.2
			c0.4-0.1,0.4,0.2,0.4,0.2c1.2,0.2,2.4,0.2,3.5,0v-0.2l0.6,0.4v-0.2h0.6v-0.2c0.3,0,0.5,0.4,1,0.2v-0.2h0.6v-0.2h0.2v0.2h2.3v-0.2
			c0.3,0,0.3,0.3,0.8,0.2v-0.2h0.2v0.2c1.8,0.3,3.5-0.1,4.6,0.4c0.2-0.3,0.4-0.3,0.6-0.6h0.2C127.8,50.9,127.7,50.7,127.5,50.7
			C127.5,50.7,127.5,50.7,127.5,50.7z"/>
		<path id="パス_363" class="st1" d="M81.8,14.7c-0.2-0.1-0.6,0.2-0.4-0.2h0.2c-0.2-0.6,0-0.2-0.6-0.2l-0.2-0.6h-0.8v0.4h-0.4
			l-0.2,0.8h-0.2v-0.2h-0.2v0.2h-0.2v0.4l-0.4,0.2c-0.1,0.2,0.4,0.4,0.2,0.8l-0.4,0.2c-0.1,0.3,0.2,0.4,0.2,0.4
			c0.1,0.5-0.2,0.5-0.2,0.8h0.2v0.2h-0.2v0.4h-0.2c-0.1,0.2,0,0.4,0.2,0.4c0,0,0,0,0,0v0.2h-0.2v1h-0.2V21l-0.4,0.2
			c0.2,0.3,0.2,0.7,0.2,1h-0.2v0.4H77c-0.1,0.3,0.1,0,0.2,0.2L77,23.2c0.2,0.2,0.2-0.1,0.2,0.2h-0.4v0.2H77v0.2h-0.2
			c-0.1,0.2,0,0.5,0.2,0.6v0.2h-0.2v1.2h-0.2v0.8h-0.2c-0.3,0.6-0.1,0.7,0,1.2H76l-0.2,0.4h-0.2l0.2,1.2l-0.4,0.2v1
			c-0.1,0-0.6-0.1-0.4,0.2h0.2v0.2c-0.8,0.5,0.3,0.5-0.8,0.8c0.1,0.2,0.2,0.3,0.4,0.4c-0.2,0.8-0.8,1.2-1,1.9v0.6h0.2v0.2h-0.2
			c-0.1,0.4,0.1,0.3,0.2,0.4v0.2l-0.4,0.2v0.4h-0.2c0,0.4,0.1,0.8,0.2,1.2c0,0-0.5,0.3-0.6,0.6l-0.2,0.4h0.4l-0.8,2.7l0.2,0.2
			l-0.6,0.2v-0.6h-0.4v-0.4c-0.4-0.1-0.2,0-0.4-0.2h0.4c-0.1-0.4,0-0.2-0.2-0.4c0,0,0-0.8-0.2-0.4v0.2h-0.2l0.2-0.6l-0.4-0.2v-1.1
			h-0.4l0.2-0.8h-0.6c0.1-0.3,0.2-0.7,0.2-1h-0.6c-0.1-0.4-0.1-0.8,0-1.2h-0.2v-0.2h-0.2v0.2h-0.4l0.2-0.6l-0.4,0.2v-0.8
			c-0.3-0.1-0.5-0.1-0.2-0.2L67.9,33h-0.6l-0.2-0.6h-0.2l0.2-0.4h-0.2l-0.4-0.6c0.3-0.2,0.3-0.1,0.4-0.6L66,30.9
			c-0.2-0.6-0.1,0,0-0.6h-0.4l-0.2-1H65v-0.6h-0.8c0.1-0.3,0.2-0.5,0.2-0.8h-0.4V27h-0.4c-0.2-0.7-0.2-0.6-1-0.6
			c0.1-0.3,0.2-0.5,0.2-0.8h-0.4v-0.8c-0.8-0.2-0.4-0.4-1-0.8v-0.4c-0.1,0-0.7,0.1-0.4-0.2c0,0,0.4,0,0.2-0.2h-0.4
			c-0.2-0.2-0.2-0.6-0.2-1H60l-0.2-0.8h-0.2v-0.8c-0.6,0.5-0.2-0.2-0.4-0.6H59l-0.2-0.6c0.2-0.2,0.1,0,0.2-0.4h-0.4
			c0.4-0.4-0.3-0.7-0.4-1.2h-0.4c0-0.1,0.1-0.9-0.2-0.6V17h-0.2l0.2-0.6h-0.8c-0.3,0.1,0.1,0.3-0.2,0.2v-0.4l-0.6,0.2
			c-0.2,0.6,0,0.5-0.6,0.6l0.4,1.2h-0.2l-0.2,1l0.4,0.2l0.2,1H56V21h0.2c0.4,0.4,0.6,0.9,0.6,1.5h0.4c-0.1,0.4,0,0.2-0.2,0.4
			c0.2,0.8,0.8,1,1,1.9h0.4v0.4H59v1.2l0.8,0.2l-0.2,0.6h0.6v0.2h0.2c-0.2,0.2-0.2,0.6,0,0.8h0.2c0.2,0.2,0.4,0.5,0.4,0.8h0.4
			c0.2,0.6,0,0.5,0.6,0.6c0.1,1.8,0.9,1.1,1.2,2.5h0.6v0.4h-0.4c0.2,0.4,0.1,0.3,0.6,0.4v0.4h0.4v1h0.6c-0.1,0.4,0,0.2-0.2,0.4v0.2
			l0.6,0.2v0.4l0.4,0.2v0.4h0.2v0.8l0.4-0.2v0.4l0.4,0.2v0.2h-0.2v0.4h0.4v0.4h0.4c-0.3,0.2-0.2,1.2,0,1.5l0.4,0.2v0.8h0.6v0.2h-0.4
			l0.2,0.6h-0.2v0.2h0.2c0.3,0.3,0.4,0.8,0.4,1.2h0.4l0.2,1.5L70,45l-0.2,0.4H70c0.2,0.5,0.1,0.4,0,0.8h0.4c0.2,0.8,0.4,0.4,0.4,1.5
			l1.5,0.4V48l0.8-0.2v0.4c0,0,0.8,0,0.4-0.2h-0.2v-0.2l0.8-0.2l0.2-1h0.2l-0.2-0.2l0.2-0.2l-0.2-0.4h0.2v-0.4h0.2v-0.4h0.2l0.2-1.5
			h0.2c0-0.4-0.7-0.4-0.4-1l0.8-0.6l-0.2-0.2v-1H76l-0.2-1l0.4-0.2c0.1-0.3-0.3-1.1,0-1.7l0.4-0.2l-0.2-0.6l0.6-0.4l-0.2-0.4H77
			v-0.2c0-0.1-0.3,0.1-0.4-0.2h0.2l0.2-1l0.4-0.2v-0.4h0.2L77.4,33l0.6-0.4c0.1-0.2-0.4-0.4-0.2-0.8h0.2l0.2-0.8h0.2v-1.2h0.2v-0.4
			h0.2v-0.4l0.4-0.2l-0.2-0.4h0.2v-0.6l0.4-0.2l-0.2-0.6l0.4-0.2c0.2-0.6-0.4-0.5-0.4-0.6l0.2-1.5c0.6-0.3,0.1-0.4,0.4-1.2h0.2
			l-0.2-0.4l0.4-0.2l-0.2-0.4h0.2v-0.4h0.2l-0.2-0.6H81c0.3-0.3-0.4-0.2-0.4-0.2v-0.2h0.2l-0.2-0.6c0.4-0.1,0.2,0,0.4-0.2h0.2
			c0.2-0.3-0.2-0.6-0.2-0.6v-0.2h0.2L81,18.7l0.4-0.2L81.2,18l0.4-0.2c0.2-0.6-0.4-0.5-0.4-0.6l0.2-0.6h0.4v-0.4h-0.4l0.2-0.6h0.2
			l-0.2-0.6C81.7,14.7,81.8,15,81.8,14.7z M72.2,42.6c-0.4-0.1-0.2,0-0.4-0.2H72v-0.2h0.2L72.2,42.6z"/>
		<path id="パス_364" class="st1" d="M165.3,22.8c0-0.4-0.4-0.3-0.4-0.4l0.2-0.2v-0.8h-0.2l0.2-1.9h-0.2l0.2-0.2
			c0-0.4-0.1-0.3-0.2-0.4v-0.2h0.2v-1h-0.2l0.2-0.4l-0.6-0.2v-0.2h-0.6v-0.2l-1.2,0.2v-0.2h-0.2c0,0.6-0.4,0.4,0.2,0.6v0.4h-0.4
			l-0.2,1h-0.2c0.1,0.7,0.1,1.4,0.2,2.1h-0.2V21h0.2v1h-0.2l0.4,1.5h-0.4c0.1,0.6,0.1,1.2,0.2,1.9h-0.4c0.1,0.6,0.4,0.5,0.4,0.6
			l-0.2,0.4h0.2c0.1,0.2,0,0.5-0.2,0.6l0.2,0.4h-0.2v0.4h-0.2l0.2,0.6h-0.2l-0.2,0.8h0.4c-0.2,1.2-0.2,2.5-0.2,3.7h0.2l-0.2,0.4h0.2
			l-0.4,1.2h-0.2v0.2h0.4c-0.1,0.3-0.3,0.3-0.2,0.8h0.2c0.1,0.2,0,0.5-0.2,0.6v1.2h0.2v0.2l-0.4,0.2l0.2,1h-0.2v0.2h0.4
			c-0.1,0.2-0.4,0.5-0.2,0.8h0.2c-0.2,0.2-0.3,0.2-0.4,0.4c-0.1,0-0.6,0.1-0.4-0.2h0.2v-0.2h-0.2v-0.4l-0.4,0.2l-0.2-0.6l-0.4-0.2
			l0.2-0.4h-0.4V38c-0.7-0.2-0.5-0.4-1.2-0.6v-0.8l-1-0.2v-0.6h-0.4l-0.2-0.4h-0.2v-0.4l-0.8-0.6v-0.4h-0.4v-0.4
			c-0.4,0-0.7-0.3-0.8-0.6h-0.2l0.2-0.6l-0.6-0.2c-0.2-0.8-0.5-0.6-1-1c-0.1-0.1-0.1-0.3-0.4-0.4v-0.4h-0.4v-0.2
			c0.4-0.1,0.2,0.2,0.4-0.2h-0.4v-0.4c-0.9-0.2-0.2-0.2-0.6-0.6l-0.4,0.2v-0.2h-0.2l0.2-0.4h-0.2l-0.2-0.6h-0.6
			c-0.3-0.9-0.9-0.4-0.2-1c-0.6-0.7-0.6-0.5-1.5-0.4l0.2-0.6c-0.4-0.1-0.2,0-0.4-0.2h-0.2v-0.6c-0.6-0.1-0.5-0.3-1-0.4l-0.2-1.2
			c-0.4,0.1-0.2,0-0.4,0.2c-0.3-0.2-0.1-0.3-0.4-0.4V23h-0.2v-0.6h-0.4c-0.1-0.4,0-0.2-0.2-0.4v-0.2h-0.2V22h-0.2l0.2-0.4l-0.8-0.2
			c-0.2-0.1-0.2-0.4-0.4-0.6c-0.6-0.6-1.5-0.3-2.3-0.2c-0.2,0.6-0.2,0.7-0.8,0.8c0,0,0,0.8,0.2,0.4v-0.2h0.2l-0.2,0.6h-0.2
			c0.1,0.4,0.3,0.6,0.4,1h0.4c-0.2,0.2,0,0.1-0.4,0.2c0.2,0.2,0,0.1,0.4,0.2v1.2l0.4,0.2v1l0.4,0.2v0.4h0.2l-0.2,1l0.6,0.2
			c-0.1,0.6-0.2,0.5,0,1.2h0.2l-0.2,0.6h0.2v0.4h0.2v0.6h0.2v1.2h0.2c0.2,0.8,0.2,1.7,0,2.5h0.4v1.5h-0.2v0.2h0.2l0.2,0.6h0.2
			l-0.4,1.2l0.6,0.4v1h-0.2l0.2,1.7h0.4c-0.1,0.2-0.4,0.4-0.4,0.4c0.1,0.4,0.4,0.3,0.4,0.4v0.2h-0.2c0,0.5,0.2,0.7,0.2,0.8l-0.2,0.2
			h0.4l-0.2,0.8h0.2v0.6h0.2v0.4h0.2l-0.2,0.6h0.2c0.1,0.5,0,0.4-0.2,0.6c0.2,0.3,0.5,0.2,0.6,0.4v0.4c0.3,0.2,0.7,0.4,1,0.4
			c0.2,0.2,0,0.1,0.4,0.2l0.2-0.6c0.4-0.1,0.2,0,0.4-0.2h0.2l-0.2-1l0.4-0.2l-0.2-0.4c0.2-0.1,0.3-0.2,0.2-0.4c0,0,0,0,0,0l-0.4-0.2
			c-0.1-0.3,0.1,0,0.2-0.2c0-0.4-0.2-0.4-0.2-0.4l0.2-0.6l-0.4-0.2l0.4-0.8l-0.4-0.2v-0.2h0.2v-1h-0.6l0.2-0.6h-0.2v-0.2h0.2
			c0.2-0.3,0.2-0.7,0.2-1H147v-0.4c0.4-0.1,0.2,0,0.4-0.2H147c0.2-0.5,0.2-1.1,0-1.7l-0.4-0.2v-0.4h0.4v-0.4h-0.4l0.2-0.6h-0.2V34
			h0.2l-0.2-1h-0.4c0-0.2,0.2-1.4,0.2-1.5l-0.4-0.2c-0.1-0.9-0.1-1.8-0.2-2.7h-0.4l-0.2-1.5h-0.2V27h0.8c-0.2,0.2,0,0.1-0.4,0.2
			c0.4,0.4,0.4,0.1,0.6,0.8h0.6l-0.2,0.6l0.8-0.2c0,0.4,0,0.6,0.2,0.8h0.4l-0.2,0.6c0.2,0.3,0.6,0,0.8,0.2v0.2h0.2v0.6h0.4v0.6
			c0.6,0.1,0.5,0.3,1,0.4l0.2,1c0.3,0.2,0.7,0.3,1,0.4l0.2,1h0.6v0.8l0.8,0.2c-0.1,0.4,0,0.2-0.2,0.4v0.2h0.6v0.2l0.4,0.2
			c0.3,0.4-0.1,0.3,0.4,0.6v0.6h0.8c-1,0.5,0.6,1,1,1l-0.2,0.6h0.6c0.1,0.8,0.3,0.6,0.4,1.2l0.8,0.2c0.2,0.5,0.5,0.9,0.8,1.2h0.2
			v0.4h0.2l-0.2,0.4c0.4,0.5,0.8,0.5,1,1.2h0.4v0.6h0.4v0.4c0.6,0.2,0.7,0.2,0.8,0.8h1.5c0.5-0.6,0.9-0.7,1.2-1.5h0.2l-0.2-0.6h0.2
			v-0.2h-0.2c0-0.3,0.3-0.5,0.2-1c0,0-0.2,0-0.2-0.4h0.2c0-0.3-0.3-0.3-0.2-0.8h0.2v-1.5c0-0.1-0.3-0.1-0.2-0.4h0.2
			c0.1-0.5-0.2-0.6-0.2-0.6v-1h0.2c0.1-0.6,0-1.1-0.2-1.7h0.4v-0.4h-0.4l0.2-0.8h0.2l-0.2-1.2h0.2c0.1-0.5-0.2-0.6-0.2-0.8h0.2v-0.8
			h-0.2V32l0.4-0.2c-0.2-0.9-0.1-0.6,0.2-1.5h-0.4l0.2-0.6c-0.2-0.1-0.3-0.4-0.2-0.6c0,0,0.3,0,0.2-0.4c-0.2-0.1-0.3-0.2-0.2-0.4
			c0,0,0.2-0.1,0.2-0.4l-0.2-0.6h0.2V27c0-0.4-0.1-0.7-0.2-1h0.2v-1.2h0.2l-0.2-0.2c0-0.3,0.2,0.1,0.2-0.2c0-0.2-0.1-0.3-0.2-0.4
			l0.2-1L165.3,22.8z"/>
		<path id="パス_365" class="st1" d="M109.8,17.6v0.2h0.8v-0.4c-0.4,0.1-0.2,0-0.4,0.2H109.8z"/>
		<path id="パス_366" class="st1" d="M10.2,34.7v-0.4H9.9v0.2H9.7C10,34.7,9.7,34.5,10.2,34.7z"/>
		<path id="パス_367" class="st1" d="M22.6,34.9v-0.2h-0.4C22.4,34.9,22.2,34.8,22.6,34.9z"/>
		<path id="パス_368" class="st1" d="M114.8,35.5v-0.2h-0.4C114.6,35.5,114.4,35.4,114.8,35.5z"/>
		<path id="パス_369" class="st1" d="M72,42.4h-0.2c0.2,0.2,0,0.1,0.4,0.2v-0.4H72L72,42.4z"/>
	</g>
</g>
</svg>
