<?xml version="1.0" encoding="utf-8"?>
<!-- Generator: Adobe Illustrator 24.2.0, SVG Export Plug-In . SVG Version: 6.00 Build 0)  -->
<svg version="1.1" id="レイヤー_1" xmlns="http://www.w3.org/2000/svg" xmlns:xlink="http://www.w3.org/1999/xlink" x="0px"
	 y="0px" viewBox="0 0 132 57" style="enable-background:new 0 0 132 57;" xml:space="preserve">
<style type="text/css">
	.st0{fill:#FFFFFF;stroke:#FFFFFF;stroke-width:2;stroke-linecap:round;stroke-linejoin:round;}
	.st1{fill:#FFFFFF;}
</style>
<g id="グループ_527" transform="translate(1 1)">
	<g id="グループ_276">
		<path id="パス_287" class="st0" d="M122.5,13h0.2v-0.1C122.5,13,122.6,12.9,122.5,13z"/>
		<path id="パス_288" class="st0" d="M27.3,2.4V2.2h0.1L27.3,2.4c0.2,0,0.2-0.1,0.4-0.1c0,0,0,0.1,0.2,0.1c0,0,0-0.1,0.2-0.1
			c0,0,0,0.1,0.2,0.1l0.1-0.2l0.3,0.1v0.2h0.2V2.5h0.4v0.1h0.1V2.5c0.1,0,0.1,0,0.2,0.1l0.3-0.1V2.4L30,2.5V2.4h0.4v0.1h-0.1v0.1
			l0.2,0.1l0.1,0.5h0.1v0.1h-0.1l0.1,0.2h-0.1v0.4l0.2,0.1c0,0.1-0.2,0.3-0.1,0.6c0.1,0.3,0.1,0.5,0.1,0.8c0,0-0.1,0-0.1,0.2h0.1
			c0.1,0.3-0.2,0.4-0.2,0.5h0.1v0.2h0.1c0.1,0.2-0.1,0.2-0.1,0.3h0.2l-0.1,0.1c0,0.1,0,0.2,0.1,0.3h-0.1l-0.1,0.4c0,0,0.3,0,0.2,0.1
			h-0.1c0,0.1,0,0.2-0.1,0.3l0.2,0.1l-0.2,0.5h0.2v0.3l-0.2,0.1v0.2h0.2L30.7,9h0.1v0.1h-0.1v0.1c0.1,0,0.1,0.1,0.1,0.1c0,0,0,0,0,0
			h-0.1c-0.1,0.1-0.1,0.2-0.1,0.3c-0.2,0-0.4,0-0.7,0.1v0.3h0.2c0,0.3,0.1,0.3,0.3,0.4c0.1,0.2,0,0.2,0.2,0.2l0.1,0.4H31
			c0,0.1-0.1,0.1-0.1,0.3c0,0,0.1,0,0.1,0.2c0,0-0.1,0-0.1,0.2c0,0.1,0.1,0,0.1,0.1c-0.1,0-0.1,0.1-0.1,0.2H31v0.1h-0.1v0.1
			c0,0,0.1,0,0.2,0.1h-0.2v0.2H31c0,0.3-0.1,0.2,0,0.4C30.9,13,30.7,13,30.5,13v-0.1h-0.1c-0.1,0,0,0.2-0.2,0.2l-0.1-0.2L29.7,13
			v-0.1h-0.1V13h-0.1v-0.1c-0.1,0,0,0-0.1,0.1h-0.1v-0.1H29v-0.2l-0.2,0.1v0.1c-0.1,0-0.1-0.2-0.3-0.1v0.1c-0.1,0.1-0.3,0.2-0.4,0.2
			v0.2h0.2c0,0-0.1,0.2-0.1,0.3h0.1v0.2c0,0,0.1,0.1,0.2,0.2l0.9,0.1v0.1h0.2v0.1l0.5-0.1v0.1H30v-0.1l0.2,0.1c0,0,0-0.1,0.2-0.1
			c0,0,0,0.2,0.2,0.2l0.1-0.2h0.6v0.6H31l0.1,0.7h0.1l-0.1,0.3h0.1v0.2h0.1c0,0.1-0.1,0.1-0.1,0.2v0.1h0.1c0,0.1-0.1,0.1-0.1,0.3
			h0.1v0.2h0.1c0,0.1-0.1,0.1-0.1,0.2v0.1h0.1V17h-0.1l0.1,0.7h-0.2v0.4h0.2l-0.2,0.2h0.2c0,0.1,0,0-0.1,0.1v0.1h0.1
			c0,0.1,0,0-0.1,0.1v0.2h-0.1c0,0,0,0.3,0.1,0.2c0.1,0,0-0.1,0.1-0.1c0,0.1-0.1,0.2-0.1,0.2v0.8h-0.1c0.1,0.1,0,0,0.2,0.1l-0.1,0.4
			h-0.1v0.1h0.1v0.3h0.1v0.1h-0.1l0.1,0.2c-0.1,0.1-0.1,0-0.1,0.1l0.2,0.1l-0.1,0.2l0.2,0.1v0.1h-0.1l0.1,0.2h-0.1v0.2h0.1
			c0,0.1-0.1,0.2-0.1,0.4h0.1V23l-0.1,0.2c0.1,0,0.1,0.1,0.1,0.2l-0.1,0.2h0.1v0.2h0.1c0,0.1,0,0.1-0.1,0.2l0.1,0.3h0.2l-0.1,0.2
			h0.1v0.1l0.2-0.1v0.2H32v-0.1h0.2v0.1h0.1v-0.1h0.2v-0.1c0.1-0.1,0.4-0.4,0.3-0.6c0,0-0.1,0-0.1-0.2c0,0,0.1,0,0.1-0.2h-0.2v-0.2
			h0.2v-0.1l-0.2-0.1l0.2-0.7h-0.2c0-0.3,0.1-0.2,0-0.5h0.2l-0.1-0.2h-0.1l0.1-0.1c0-0.2-0.1-0.4-0.1-0.6h-0.2l0.1-0.2h0.1v-0.3
			h-0.1l0.1-0.3h-0.2v-0.3h0.2c0.1-0.1-0.1-0.1-0.2-0.1v-0.1h0.1l-0.1-0.2c0-0.1,0.1,0,0.1-0.2l-0.1-0.2c0,0,0.2,0,0.2-0.2h-0.2
			c0-0.1,0.1,0,0.2-0.2h-0.1l0.1-0.2h-0.1v-0.2h-0.1v-0.1h0.1c0-0.2-0.1-0.2-0.1-0.2c0-0.2,0.1-0.2,0.1-0.3c-0.1-0.1-0.1,0-0.1-0.1
			l0.2-0.1v-0.1h-0.1l-0.1-1l0.2-0.1v-0.1l-0.2-0.1v-0.1h0.1v-0.1h-0.1c0-0.1,0-0.2,0.1-0.2c0.1-0.2-0.1-0.5-0.1-0.6h0.1l0.1-0.2
			h-0.2v-0.4c0-0.1-0.1,0-0.1-0.1h0.1v-0.3h-0.1v-0.1h0.1v-0.2h0.1v-0.1l0.5,0.1L33,14c0.2-0.1,0.4,0.1,0.5,0.1
			c0.2,0,0.6-0.2,0.7-0.2l0.1,0.2h0.2v0.2l0.2,0.1l0.1,0.2h0.2l0.2,0.2h0.2l0.1,0.2h0.1l-0.1,0.2h0.2l0.1,0.2h0.2
			c0.1,0,0.1,0.1,0.2,0.2v0.2l0.2,0.1v-0.1h0.1v0.2c0.1,0.1,0.2,0.1,0.3,0.2v0.2l0.5,0.2v0.1c0.1,0.1,0.3,0.2,0.4,0.2l0.1,0.2h0.1
			v0.2l0.2-0.1v0.1l0.2,0.1c0,0.2,0,0.1,0.1,0.2v0.1h0.2v0.2h0.1v0.1l0.2-0.1l0.1,0.2c0.2,0.1,0.3,0.1,0.3,0.3l0.3,0.1
			c0.1,0.1-0.1,0.1-0.1,0.1c0,0.1,0.1,0.1,0.2,0.1c0.1,0.2,0,0.2,0.3,0.2c-0.1,0.1-0.1,0.2-0.1,0.3h0.2l0.1,0.2h0.2
			c0.1,0.2,0.2,0.4,0.2,0.6h0.2V20h0.2v0.1c0.2,0.1,0.1,0.2,0.3,0.2l0.1,0.2l0.2,0.1c0.1,0,0-0.1,0.1-0.1v0.1
			c0.1,0.1,0.2,0.1,0.3,0.2c0,0.2,0,0.1,0.2,0.2v0.1h0.2l-0.1,0.2h0.2l0.2,0.3l0.3,0.1l-0.1,0.2L43,22v0.1h0.2l0.3,0.4l0.2-0.1
			l0.1,0.5H44c0,0.2,0,0.2,0.2,0.3h0.2c0.1,0.1-0.1,0.1-0.1,0.1l0.1,0.2l0.2,0.1l0.1,0.2h0.2l-0.1,0.2c0.1,0.1,0.1,0.1,0.2,0.2
			l0.5,0.1v-0.1l0.2,0.1v-0.1c0.2-0.1,0.1,0,0.1-0.2l0.2-0.1l0.1-0.3h-0.2v-0.2h0.1c0.1-0.2-0.2-0.3-0.3-0.3v-0.2h-0.2l-0.1-0.3
			c-0.3-0.1-0.3-0.2-0.6-0.3c-0.1-0.5-0.7-0.6-1-1.1h-0.2v-0.3c-0.1,0-0.3,0-0.4-0.1v-0.2H43v-0.2h-0.2v-0.2L42.6,20v-0.1h-0.2
			l0.1-0.2l-0.2,0.1c-0.1-0.1-0.1-0.2-0.1-0.3l-0.4-0.1l-0.1-0.3c-0.2-0.1-0.2,0-0.2-0.2h-0.2v-0.3h-0.3v-0.1h0.1v-0.1h-0.1
			c-0.1-0.1,0-0.1-0.2-0.2c-0.1-0.2-0.1-0.3-0.2-0.5h-0.2v-0.2h-0.2v-0.1c0.1-0.1,0.1,0,0.1-0.1h-0.2l0.1-0.2
			c-0.1-0.1-0.3,0-0.3-0.2h0.1v-0.1h-0.3v-0.2H39l0.1-0.2c-0.3,0-0.3-0.1-0.4-0.3h-0.2c-0.1-0.4-0.3-0.2-0.6-0.4l0.1-0.2l-0.3-0.2
			v-0.2c-0.2,0-0.1,0-0.2-0.1h-0.3c0.2-0.2-0.2-0.4-0.4-0.4c0-0.2,0-0.1-0.1-0.2v-0.2c-0.2,0.2-0.4-0.2-0.6-0.3V14
			c-0.2,0-0.3-0.2-0.4-0.3c0,0-0.3,0-0.2-0.1c0.1,0,0.2,0.1,0.2-0.1h-0.1c0.1-0.1,0.3,0,0.6-0.1l0.2-0.2h0.2v-0.1h0.2V13l0.2,0.1V13
			h0.2v-0.1c0.2-0.2,0.2-0.2,0.5-0.2v-0.2l0.2,0.1v-0.1H38c0.1-0.2,0-0.1,0.2-0.1v-0.2l0.4-0.1v-0.1c0.1-0.1,0.3-0.2,0.5-0.2v-0.2
			h0.1v0.1c0.1-0.1,0.1-0.1,0.2-0.2l0.2-0.1l0.1-0.2h0.2v-0.1c0.2-0.1,0.1,0.1,0.2-0.2l0.3-0.1v-0.2l0.3-0.1v-0.2H41v-0.2h0.2
			c0.1-0.3,0.2-0.3,0.2-0.6l0.3-0.1V9.6h0.2V9.3c0.2-0.1,0.2,0,0.2-0.2h0.1l-0.1-0.3h0.2c0-0.3,0.1-0.2,0-0.4l0.2-0.1l-0.1-0.5
			l0.2-0.1l-0.1-0.3h0.1V7h-0.1V7h0.1V6.8h0.1V6.7h-0.1V6h-0.1l0.1-0.2c-0.1,0-0.1-0.1-0.1-0.2c0.1,0,0.1-0.1,0.1-0.2c0,0,0,0,0,0
			l-0.2-0.1V4.8h-0.2l0.1-0.2h-0.1V4.4h-0.2c0-0.4-0.1-0.2-0.2-0.7h-0.3l-0.1-0.2l0.1-0.1c-0.2-0.1-0.2-0.3-0.4-0.4V3L41,3V2.8h-0.3
			V2.6c-0.2,0-0.3-0.1-0.4-0.2V2.3h-0.4l-0.1-0.2l-0.2,0.1V2c0,0.1-0.2,0.1-0.3,0.1V1.9L39.1,2v0.1H39l0.1-0.2l-0.7-0.2
			c-0.1,0-0.3,0.1-0.3,0.1L38,1.5c-0.2-0.1-0.5,0-0.7,0l-0.1-0.2l-0.7,0.1V1.3h-0.2V1.2c-0.2-0.1-0.2,0.1-0.3,0.1V1.2h-0.2V1.2
			l-0.8,0.2V1.2c-0.2,0.1-0.3,0.1-0.5,0.1V1.2h-0.1v0.1L34,1.4l-0.1-0.2l-0.2,0.1V1.2c-0.1,0,0,0.1-0.1,0.1h-0.2v0.1
			c-0.2,0-0.2-0.2-0.4-0.2v0.1h-0.2v0.1c-0.1,0,0-0.1-0.1-0.1h-0.3V1.2c-0.1,0-0.1,0-0.2,0.1c-0.4,0.1-0.4-0.2-0.7,0.1h-0.1l0.1-0.2
			l-0.2-0.1l0.1-0.2h-0.1V0.8h-0.2l-0.1-0.6c-0.1,0-0.2,0-0.3,0.1V0.2h-0.2c-0.1,0.1-0.2,0.2-0.3,0.2c0,0.2,0.1,0.5,0.1,0.7
			c0,0.4-0.3,0-0.2,0.1h0.2c-0.3,0.1-0.5,0.2-0.8,0.2c0,0,0-0.1-0.2-0.1v0.1l-0.2,0.1l-0.1-0.2H29l-0.1,0.2h-0.2V1.4h-0.2
			c0,0-0.2,0-0.1,0.1c0.1,0,0.1,0.1,0.1,0.2c-0.1,0-0.1-0.1-0.2-0.2c-0.2,0-0.3,0.2-0.4,0.3h-0.2V1.7h0.2V1.6c-0.1,0-0.2,0-0.3-0.1
			v0.1h-0.2v0.1c-0.1,0-0.1,0-0.2-0.1c-0.3,0,0,0.1-0.4,0c0,0.2-0.1,0.2-0.2,0.3v0.2C26.9,2.2,27.1,2.3,27.3,2.4z M33.1,12.8
			l-0.3,0.1V13h-0.1v-0.2l-0.1,0.1h-0.4c0.1-0.2,0.1-0.2,0.2-0.4l-0.2-0.1l0.1-0.3L32.1,12h0.1c0.1-0.1,0,0,0.2-0.1l0.1,0.2
			c0.1,0.3,0.2,0,0.4,0.2c-0.3,0.3,0.2,0.2,0.2,0.3L33.1,12.8z M31.8,2.5c0.8,0.1,1.6,0.1,2.4,0v0.2h0.1c0.1,0,0-0.2,0.4-0.2v0.1
			h0.1V2.5h0.7V2.4l0.2,0.1V2.3l0.2,0.1v0.1h0.2V2.4h0.1v0.1h0.6v0.1c0.3,0.1,0.4,0.1,0.7,0.2v0.1c0.1,0,0,0,0.1-0.1l0.7,0.1
			l0.2,0.3c0,0,0.4-0.1,0.5-0.1v0.1c0.1,0.1,0.2,0.1,0.3,0.1v0.2l0.2,0.1v0.1h0.3c0.1,0,0,0.2,0.2,0.2V3.6h0.1L40,3.8h0.1v0.1h0.2
			c0.1,0,0,0.1,0.1,0.1V3.8c0.1,0.1-0.1,0.2,0.3,0.3c0,0.2,0.1,0.4,0.2,0.6h0.1V5h0.1v0.2h0.1l-0.1,0.2h0.1v0.2l0.2,0.1l-0.1,0.2
			c0.1,0.1,0.2,0,0.2,0.2c-0.1,0-0.1,0.1-0.1,0.2c0,0,0,0,0,0c0,0,0.2,0,0.2,0.2l-0.2,0.2v0.1h0.1v0.2h0.1c0,0.1,0,0-0.1,0.1
			l0.1,0.4h-0.2l0.2,0.2h-0.2c0,0.1,0.1,0.2,0.1,0.3h-0.2c0.2,0.1-0.1,0.4-0.2,0.6v0.2l-0.2,0.1L40.8,9h-0.1l-0.1,0.2
			c-0.1,0.1-0.1,0-0.2,0.2h-0.2v0.2h-0.2c0,0.2,0,0.1-0.1,0.2v0.1h-0.2V10c-0.2,0-0.2,0-0.2,0.2h0.1v0.1c-0.1,0.1-0.1,0-0.2,0.2
			h-0.2v0.2l-0.5,0.2l-0.1,0.2h-0.2V11h-0.3L38,11.2l-0.2-0.1v0.1c-0.1,0.1-0.3,0.2-0.5,0.2v0.2h-0.2v0.2c-0.1,0-0.2,0-0.3-0.1v0.1
			h-0.2v0.1h0.1v0.1h-0.1c0,0,0,0.1-0.1,0.1v-0.2c-0.1,0-0.1,0.1-0.2,0.2h-0.2V12h-0.2v0.1h-0.2l-0.1,0.2h-0.1v-0.1l-0.3,0.2v0.1
			h-0.2v0.1H35v-0.1l-0.3,0.2c-0.1-0.1-0.2-0.2-0.3-0.2c-0.1-0.3,0-0.1-0.2-0.2v-0.1H34l0.1-0.2h-0.2v-0.2h-0.2
			c0-0.3-0.1-0.3-0.3-0.4v-0.2c-0.1,0.1-0.2,0.1-0.3,0.1c0,0,0-0.3-0.1-0.2C32.9,11,33,11,32.9,11v-0.2c-0.2-0.1-0.2,0-0.2-0.2
			l-0.3-0.1c0-0.2,0-0.1,0.1-0.2v-0.1H32c0-0.2,0-0.4,0-0.6h-0.2V9.6L32,9.5c0-0.1,0-0.1-0.1-0.2c0,0,0,0,0,0c0-0.1,0-0.1,0.1-0.2
			l-0.1-0.3H32V8.7h-0.1V8.4h-0.1V8.3h0.1V8.3h-0.1l0.1-0.6H32c0-0.1,0-0.1-0.1-0.2L32,7.1h-0.2l0.1-0.3h-0.1V6.7h0.1
			c0-0.2-0.1-0.5-0.1-0.7h0.1L32,5.6h-0.2l-0.1-0.2c0.1-0.1,0.2,0,0.2-0.3h-0.1l-0.1-0.2h0.1V4.7h0.1c0-0.2-0.1-0.2-0.2-0.2l0.1-0.2
			c0,0-0.1,0-0.1-0.2c0,0,0.1,0,0.2-0.2h-0.1V3.7h-0.1V3.1h-0.1V3h0.2c0-0.1-0.2-0.1-0.2-0.2C31.7,2.6,31.7,2.7,31.8,2.5L31.8,2.5z"
			/>
		<path id="パス_289" class="st0" d="M114.1,22.2c0.1,0.1,0.2,0.3,0.2,0.5h0.2c0.1,0.1-0.1,0.1-0.1,0.1c0,0.2-0.1,0.2-0.1,0.3h0.2
			l-0.1,0.2h0.2l-0.1,0.2l0.2,0.1c0.1,0.2,0,0.1,0.2,0.2c-0.1,0.1,0,0-0.2,0.1c0.1,0.1,0,0,0.2,0.1l0.1,0.4c0.2,0,0.1,0,0.2,0.1h0.1
			v0.3h0.1c0.1,0.1,0.2,0.3,0.2,0.4h0.2c0.1,0.2,0.1,0.2,0.2,0.4l0.2-0.1v0.2h0.2v0.2l0.3-0.1l0.1,0.2h0.2v0.2
			c0.4,0,0.2,0.1,0.7,0.2v0.2l0.2,0.1v0.1h0.3l0.1,0.2h0.4l0.1,0.2l1,0.2l0.2-0.1l0.1,0.2c0.1,0,0.1,0,0.2-0.1c0,0,0,0,0,0
			c0.1,0,0.2,0.1,0.2,0.1l0.2-0.1l0.1,0.1l0.2-0.1c0.1,0,0,0.1,0.1,0.1v-0.1c0.1,0,0.5,0,0.6-0.1V27h0.1l-0.1,0.2
			c0.5-0.1,0.8-0.4,1.2-0.2v-0.2l0.7-0.1v-0.1l0.2,0.1l0.1-0.2c0.1,0,0,0,0.1,0.1l0.2-0.1c0.1,0.1,0,0.1,0.1,0.1v-0.1
			c0,0,0.3,0,0.2-0.1H124v-0.1c0.1,0,0.1,0.1,0.3,0.1c0.1,0,0-0.1,0.1-0.1v0.1h0.2v-0.2c0.3-0.1,0.2-0.1,0.6-0.2l0.1-0.2h0.4
			l0.2-0.3h0.2l0.2-0.2h0.2c0.2-0.1,0.1-0.1,0.2-0.3l0.1,0.1c0.1,0,0.3-0.1,0.4-0.2c0.1-0.2,0-0.1,0.2-0.2v-0.1l0.4-0.1l0.2-0.2h0.2
			v-0.1h0.2v-0.1l0.2-0.1v-0.2c0,0,0.3,0,0.2-0.1c0-0.1-0.1,0-0.1-0.1h0.2c0-0.5,0.1-0.2,0.3-0.5l-0.1-0.2l0.2-0.1v-0.2
			c0-0.1,0.1,0,0.1-0.1H129v-0.1l0.2,0.1l-0.1-0.2h0.1v-0.2h0.1l0.2-0.2h-0.2c0.1-0.4,0.2-0.4,0.2-0.9c0.3-0.1,0-0.2,0.1-0.7h0.1
			c0-0.2-0.2-0.1-0.2-0.3h0.1l0.1-0.4c0,0-0.1,0-0.2-0.2h0.1l0.1-0.4h-0.2c0.2-0.1-0.1-0.4-0.1-0.6h0.1l0.1-0.2h-0.1v-0.2l-0.2-0.1
			v-0.2h-0.1l-0.1-0.7H129c0.1-0.1,0-0.4,0-0.7h-0.2v-0.2h-0.2l0.1-0.2h-0.2l0.1-0.2h-0.2c-0.1-0.4-0.4-0.5-0.5-1l-0.2,0.1v-0.2
			c-0.2,0-0.5-0.1-0.7-0.2l-0.1-0.2l-0.4-0.1l-0.1-0.2l-0.2,0.1v-0.1l-0.5-0.1l-0.1-0.2l-0.8-0.1v-0.1h-0.5l-0.1-0.2l-0.2,0.1v-0.2
			l-0.2,0.1l-0.1-0.2h-0.2V13h-0.1c-0.1,0,0,0.1-0.1,0.1V13c-0.2,0-0.4,0-0.6,0.1v-0.2h-0.2V13h-0.2c0.1-0.1,0,0,0.2-0.1v-0.1h-0.2
			v0.1c-0.2,0-0.2-0.1-0.3-0.1L122,13l-0.1-0.1c-0.1,0-0.3,0.1-0.3,0.2h-0.1v-0.2c-0.4,0.1-0.4-0.1-0.7,0v0.1h-0.2v-0.2h-0.3v-0.1
			h-0.1v0.1H120v-0.2c-0.2,0.1-0.3,0.1-0.5,0v-0.1h-0.2l0.1-0.2c-0.3-0.2-0.3,0.2-0.4-0.2c-0.1,0-0.2,0-0.3-0.1l-0.1-0.2h0.1v-0.1
			h-0.1l-0.1-0.2h-0.2c0.2-0.3-0.3-0.6-0.2-0.7h0.1v-0.2h-0.2v-0.5c0-0.1,0.1,0,0.1-0.1l-0.2-0.1c-0.1-0.2,0-0.1,0-0.2h-0.1V9.5
			h-0.2V9.4c0.2,0,0-0.2,0-0.2c0,0,0.1,0,0.1-0.2l-0.2-0.1c0-0.3,0.1-0.5,0.1-0.8h-0.1l0.1-0.4l0.2-0.1l-0.1-0.2h0.1V7.2l0.2-0.1
			l-0.1-0.2h0.1l0.1-0.2h0.2V6.6c0,0-0.1,0-0.1-0.2l0.2-0.1V6.1l0.2-0.1l0.1-0.4l0.2-0.1l-0.1-0.3h0.2c0-0.1,0-0.3,0.1-0.4h0.1V4.5
			l0.2-0.1V4.3h0.1l0.1-0.2h0.2V3.8h0.2c0-0.1,0.1-0.2,0.1-0.2l-0.1-0.2h0.3l0.1-0.2c0.2-0.2,0.4-0.1,0.5-0.5l0.3,0.1V2.5
			c0.1,0,0.2-0.1,0.3-0.2V2.3h0.2V2.2h0.7V2.1l0.5-0.1v0.2c0.4-0.1,0.9-0.1,1.3,0v0.1h0.2l0.1,0.2h0.3l0.1,0.2l0.4,0.1v0.2l0.5,0.1
			v0.2h0.2c-0.2,0.2,0.1,0.3,0.3,0.3c0,0.1-0.1,0.1-0.2,0.2c0.1,0.1,0,0,0.2,0.1c0,0.2,0,0.4,0.2,0.5h0.1v0.2h0.1l0.2,0.3h0.2v0.2
			l0.5-0.1l0.1-0.5h-0.1l-0.2-0.6l-0.3-0.1l0.1-0.2c-0.2-0.1-0.4-0.2-0.6-0.2V3.2h0.2c0-0.2-0.1-0.4-0.2-0.6l-0.2-0.1
			c-0.1-0.1,0-0.4-0.2-0.5l-0.2,0.1V1.8h-0.2V1.6c-0.1,0-0.2,0-0.3-0.1l-0.1,0.1c-0.1-0.1-0.1-0.4-0.2-0.4c-0.2-0.1-0.4-0.1-0.7,0
			V1.1h-0.5c0,0,0-0.1-0.2-0.1v0.1h-0.2V0.9c-0.1,0-0.2,0-0.3,0.1c-0.1,0,0-0.1-0.2-0.1V1H123V0.9h-0.2V1c-0.1,0-0.5-0.2-0.7-0.1
			l-0.1,0.2c-0.1,0-0.1-0.1-0.3-0.1v0.1h-0.3v0.1H121v0.1h-0.2l-0.1,0.2c-0.2,0.1-0.4,0.2-0.6,0.1L120,1.7h-0.2L119.7,2h-0.2v0.1
			h-0.1v0.2h-0.2c-0.1,0.2,0,0.2-0.2,0.2v0.2c-0.4,0.1-0.2,0.2-0.4,0.5l-0.2-0.1v0.2l-0.2,0.2c-0.2,0.3,0.2,0.3-0.2,0.4v0.2h-0.2
			c0.1,0.1,0,0,0.2,0.1c-0.1,0.2-0.2,0.1-0.2,0.5h-0.2c0,0.6-0.4,0.6-0.4,1.3c-0.2,0-0.1,0-0.2,0.1h-0.1c0,0.1,0.1,0.1,0.2,0.2
			c-0.2,0.2-0.3,0.2-0.3,0.6h-0.2V7h-0.1c0,0.1,0.1,0.2,0.1,0.3h-0.2c0,0.2,0,0.4-0.1,0.7l0.2,0.3l-0.2,0.1c0,0,0,0.3,0.1,0.2V8.5
			h0.1l-0.2,0.6l0.2,0.1c-0.2,0.4,0.2,1.1,0.2,1.6c0.2,0,0.1,0,0.2,0.1h0.1V11h-0.1l0.1,0.2h-0.1c0,0.3,0.1,0.3,0.3,0.4
			c0,0.5,0.3,0.4,0.3,0.9h0.2c0.1,0.2,0.1,0.2,0.2,0.5l0.2-0.1V13h0.1v0.2h0.1v0.1l0.2-0.1v0.2l0.6,0.1v0.2h0.4v-0.1h0.1l-0.1,0.2
			l0.8,0.1v0.2c0.2,0,0.2-0.1,0.5,0v0.1h0.9v-0.1l0.6,0.2v-0.2h0.5v0.2l0.7,0.1v-0.1h0.1v0.2l0.2-0.1l0.1,0.2l0.7,0.1v-0.1h0.1
			l0.1,0.2c0,0,0.3-0.1,0.4-0.1l0.1,0.2h0.1v-0.1c0.1,0,0.1,0.1,0.2,0.2l0.2-0.1l0.2,0.3L126,15v0.1c0.2,0.1,0.2,0,0.3,0l0.1,0.2
			h0.2v0.2h0.2v0.2h0.3v0.2h0.2c0,0,0,0.1,0.2,0.2V16h0.1c-0.1,0.4,0,0.1,0.1,0.5h0.2l0.1,0.7h0.2l0.1,0.5c0,0.1-0.1,0-0.1,0.1
			l0.2,0.1L128,18h0.2l-0.1,0.5l0.2,0.1l-0.1,0.2h0.1v0.2h0.1l-0.1,0.2h0.1v0.5c0,0,0.1,0,0.1,0.2h-0.2c0,0.1,0.1,0.1,0.2,0.2
			l-0.1,0.2h0.1l-0.1,0.8h-0.1c0,0.1,0,0.1,0.1,0.2v0.1h-0.1l0.1,0.2l-0.2,0.1v0.2h-0.1v0.1h0.1v0.1c-0.1,0.1-0.3,0.2-0.3,0.3h0.1
			v0.1h-0.2c0,0.3-0.1,0.5-0.2,0.7c-0.2,0.2-0.5,0.3-0.7,0.6h-0.2v0.2h-0.2v0.2l-0.2,0.1c0,0,0-0.2-0.1-0.1l-0.1,0.2h-0.2l-0.1,0.2
			h-0.2v0.1h-0.2v0.1h-0.2v0.1c-0.1,0.1-0.2,0.1-0.3,0.2v0.2c-0.3,0-0.5,0.1-0.7,0.2l-0.1,0.2l-0.1-0.1l-0.5,0.1v0.2l-0.1-0.1h-0.1
			v0.1H123v0.1l-0.2-0.1v0.1l-0.3,0.1v0.1l-0.2-0.1l-0.1,0.2h-0.2v0.1l-0.4-0.1v0.1h-0.2V26h-0.7v0.1h-0.4v0.1h-0.1v-0.1
			c-0.4-0.1-0.5-0.1-0.7,0.1h-0.1v-0.2l-0.7-0.1l-0.1-0.2h-0.2l-0.1-0.2h-0.2l-0.1-0.2h-0.2l-0.1-0.2l-0.2,0.1l-0.1-0.2h-0.3
			c0-0.2,0-0.1-0.1-0.2c-0.2-0.1-0.4-0.2-0.6-0.2c-0.1-0.2-0.1-0.2-0.2-0.5c-0.2,0-0.1,0-0.2-0.1h-0.1l-0.1-0.5l-0.2-0.1
			c0-0.2-0.1-0.3-0.1-0.5l-0.2,0.1c-0.1-0.2,0.1-0.2,0.2-0.3l-0.2-0.1l-0.1-0.6h-0.1c-0.2-0.2-0.2,0-0.2-0.4c-0.1,0-0.2,0-0.3,0.1
			v-0.1c-0.3,0-0.3,0-0.5,0.2h-0.1C114.4,22.2,114.5,22.1,114.1,22.2z M119.4,26.1c-0.2,0-0.1,0-0.2-0.1
			C119.4,26,119.3,26,119.4,26.1z"/>
		<path id="パス_290" class="st0" d="M0.5,5.2l0.1,0.4h0.1L0.6,5.8h0.2L0.7,6.1h0.1l0.1,0.2c0.1,0.1,0.1,0,0.1,0.1H0.8v0.2H1
			C1,6.7,1,7,1.2,7.3h0.1L1.2,7.4h0.2L1.2,7.7h0.1v0.2h0.2c0,0.2,0,0.4,0.2,0.4V8.2h0.1L1.6,8.6l0.2,0.1l0.1,0.6h0.2v0.2h0.1
			c0,0.1-0.1,0.2-0.1,0.3h0.2v0.2H2.2c0,0.1,0.1,0,0.1,0.1v0.3h0.2c0,0.2,0,0.4,0.1,0.6h0.2c0,0.2,0,0.5,0,0.7c0.2,0,0.1,0,0.2-0.1
			H3l-0.1,0.2H3v0.1H2.9v0.1l0.2,0.2C3,12.2,3,12.4,3,12.5h0.1v0.2l0.2,0.1v0.3h0.1c0.1,0.2,0.1,0.3,0,0.5h0.2L3.6,14H3.5v0.1h0.1
			v0.2h0.1l0.1,0.2H3.6v0.2h0.2c0,0.8,0.5,1.2,0.3,1.8l0.2,0.1l-0.1,0.7c-0.1,0-0.3,0-0.4,0.1v0.1l-0.2-0.1v0.1H3.5l-0.1,0.2
			l-0.2-0.1v0.2H3v0.2H2.9L3,18.3H2.9c0.1,0.2,0.1,0.3,0.3,0.3v-0.2h0.2v0.2c0.6-0.1,0.6-0.2,1.2-0.2c0,0.2,0.1,0.1,0.1,0.2
			l-0.1,0.2h0.1v0.1h0.2v0.1H4.7C4.8,19,4.9,19,4.9,19s-0.1,0.5-0.1,0.6c0.2,0,0.1,0,0.2,0.1h0.1C5.2,19.8,5,20,5,20.1l0.2,0.1
			c0,0.2,0,0.1-0.1,0.2c0,0.2,0,0.2,0.1,0.3h0.1v0.2h0.1L5.3,21l0.1,0.3h0.2v0.4l0.2,0.1l-0.1,0.3h0.2v0.2H6
			c-0.1,0.1,0.1,0.5,0.2,0.7l-0.1,0.2c0.1,0.1,0.1,0.1,0.3,0.2c0,0.2,0,0.1-0.1,0.2l0.1,0.2h0.1V24l0.2,0.1l0.1,0.3h0.1l-0.1,0.2
			L7,24.7v0.6l0.2,0.1v0.2h0.1l-0.1,0.2h0.1v0.3h0.1v0.3h0.1v0.2h0.1v0.1H7.4v0.5h0.2l-0.1,0.2l0.1,0.1l-0.2,0.1l0.1,0.2h0.2V28H7.6
			c0.1,0.1,0,0,0.2,0.1c0,0.2,0,0.1-0.1,0.2c0,0.2,0,0.3,0.1,0.4h0.2l-0.1,0.2L8.1,29c0,0.2-0.1,0.2-0.1,0.3h0.2v0.1H8.1l0.1,0.2
			h0.1v0.2h0.1v0.3h0.1v0.2h0.1c0.1,0.2,0,0.2,0,0.3h0.1L8.7,31h0.2c-0.1,0.1-0.1,0.3-0.1,0.4l0.3,0.1v0.2H9c0,0.1,0.1,0,0.1,0.1
			v0.4h0.2v0.3c0.2,0,0.1,0,0.2,0.1h0.1c0,0.1-0.1,0.1-0.2,0.2v0.1h0.2v0.1h0.1l-0.1,0.2h0.2c0,0.2,0,0.1,0.1,0.2
			c0.1,0.2,0,0.2,0.2,0.2v0.3c0.2-0.2,0.2,0.3,0.4,0.4h0.2l-0.1,0.2h0.2c0.2,0.1,0.2,0.2,0.2,0.4c0.1,0,0.3,0,0.4,0.1v0.2
			c0.2,0,0.2,0.1,0.2,0.1c0.1,0,0.2-0.2,0.4-0.1v0.1c0,0,0.3,0,0.2-0.1c0,0,0,0,0,0l0,0c0,0-0.1,0-0.1,0l0.1,0c0,0,0,0,0,0l0.2,0.1
			v-0.1h0.1c-0.1-0.3,0-0.2,0-0.5c-0.1,0-0.1-0.1-0.2-0.2c-0.1-0.1-0.1,0.1-0.2,0.1l-0.2-0.1l0.1-0.4h-0.2l-0.1-0.2h-0.1l-0.1-0.2
			h-0.2l0.1-0.2h-0.2L11,32.9h0.1v-0.1c-0.1-0.1-0.2,0-0.3-0.1v-0.2h-0.1c-0.1-0.2,0.1-0.2-0.2-0.2c0-0.1,0-0.2-0.1-0.3h0.1v-0.1
			l-0.2-0.1v-0.2l-0.2-0.1L10.1,31H10v-0.2l-0.2-0.1l-0.1-0.5H9.6c0-0.2,0.1-0.2,0.1-0.3l-0.2-0.2l0.1-0.2H9.4v-0.5l-0.2-0.2v-0.3
			L9,28.5v-0.2H8.9v-0.1H9v-0.5H8.7c0-0.4,0-0.5-0.2-0.7c0-0.1,0.2-0.1,0.2-0.2c0-0.1-0.1-0.3-0.2-0.3H8.4l0.1-0.2h0.1v-0.1H8.5V26
			H8.4c0-0.1,0.2-0.2,0-0.4l-0.2,0.1c0.1-0.2,0.1-0.2,0.2-0.4H8.3c0-0.4-0.2-0.4-0.1-0.8H8c-0.1-0.2-0.1-0.2-0.2-0.5H7.7
			c0-0.1,0-0.2,0.1-0.3l-0.2-0.1l-0.2-0.8H7.2l-0.1-0.2h0.1v-0.1C7.1,22.3,7,22.3,7,22.2c0.1-0.1,0.1,0,0.2-0.2H7v-0.3H6.8v-0.4
			l-0.2-0.1c0-0.1,0.2-0.1,0.1-0.3l-0.2-0.1c-0.1-0.3,0.1-0.2-0.2-0.4V20l-0.2,0.1c0.2-0.5-0.1-0.5-0.1-1.1H6c0-0.1,0.1-0.3,0.1-0.4
			H5.9L6,18.3l0.3-0.1c0.1,0,0,0.1,0.1,0.1v-0.1h0.1v0.1h0.4v0.1H7v-0.1l0.2-0.1c0.3,0.1,0.6,0.1,0.9,0v0.2c1.1,0,2.3,0,3.4-0.2
			c0.3-0.1,0.3,0.2,0.3,0.2c0.1,0,0.2-0.1,0.3-0.1v-0.2c0.1,0,0.3,0,0.4,0.1v0.1c0.1,0,0.1-0.2,0.2-0.2l0.6-0.1V18h0.1l-0.1,0.2
			c0.1-0.1,0,0,0.1-0.1h0.8c-0.1-0.1,0,0-0.2-0.1V18l0.4,0.1v0.1l0.5-0.1V18l0.5,0.1V18h0.5v-0.1c0.2,0,0.2,0.1,0.2,0.1
			c0.3,0.1,0.6,0,0.8-0.2c0,0,0.3,0,0.2,0.1c0,0.1-0.1,0-0.1,0.1l0.7-0.1v-0.1l0.2,0.1c0,0,0-0.3,0.1-0.2c0,0.1,0,0.2,0.1,0.2v-0.1
			h0.6v-0.1c0.1,0,0.6,0.2,0.7,0.2v-0.1h0.2v-0.1h0.4v-0.1H20l0.2-0.7L20,16.8v-0.2l-0.2-0.1l-0.1,0.1v-0.2l-0.5,0.1v-0.1h-0.1
			L19,16.7c-0.1,0,0,0-0.1-0.1c-0.1,0-0.1,0.1-0.3,0.1c0,0,0-0.1-0.2-0.1v0.1l-0.3-0.1v-0.1l-1,0.3h-0.1v-0.2H17v0.2h-0.3v-0.1h-0.1
			v0.2h-0.1v-0.2l-0.4,0.1v0.1c-0.1,0-0.1,0-0.2-0.1h-0.1v0.1c-0.2,0-0.2-0.1-0.2-0.1l-0.2,0.1c-0.1-0.1,0-0.1-0.1-0.1v0.1H15
			l0.1-0.2c-0.2,0-0.5,0.2-0.7,0.2h-0.7v-0.1l-0.4,0.1v-0.1h-0.1v0.1h-0.3V17l-0.3-0.1c-0.1,0,0,0.2-0.2,0.2V17h-0.3v0.1h-0.5
			c0,0,0,0.1-0.2,0.1v-0.1h-0.1v0.1h-0.1v-0.1c0,0-0.3,0-0.2,0.1H11v0.1c-0.2-0.1-0.2-0.1-0.4,0v-0.2c-0.1,0-0.2,0-0.3,0.1l-0.1-0.1
			v0.2L10,17.2v-0.1l-0.1,0.1c-0.2,0-0.2-0.1-0.2-0.1c-0.2,0-0.2,0.1-0.2,0.1l-0.2-0.1v0.2c-0.3,0-0.4,0.1-0.7,0v-0.1l-0.4-0.1v0.1
			H7.9v0.1c-0.1,0-0.1-0.2-0.2-0.2c-0.3-0.1-0.3,0.2-0.6,0.2v-0.1H7v-0.1c-0.2-0.1-0.6,0.1-0.7,0.1L6.2,17H6.1v0.2
			c-0.2-0.1-0.4-0.1-0.6-0.1l0.1-0.3H5.5v-0.2H5.4l-0.1-0.8H5.2l0.1-0.5H5.2l-0.1-0.5H4.9L5,14.6H4.9v-0.1c0-0.1,0.1,0,0.1-0.1
			s-0.1,0-0.1-0.1H5v-0.1l-0.2-0.1v-0.4c-0.1,0.1,0,0-0.1,0.2H4.7c-0.1-0.2,0.1-0.5,0.1-0.6H4.6c0-0.4-0.2-0.3-0.2-0.7
			c-0.2,0-0.1,0-0.2-0.1h0.2v-0.2c-0.2,0-0.1,0-0.2-0.1H4.2v-0.1c0.2-0.1,0-0.1,0-0.2h0.1v-0.1H4.1L4,11.4h0.1v-0.1l-0.2-0.1L4,10.9
			l-0.2-0.2l0.1-0.2l-0.2-0.1v-0.2L3.4,10l0.1-0.2H3.4V9.6H3.4V9.4H3.3V9.2L3.1,9.1V8.7L2.9,8.6l0.1-0.3L2.8,8.2L2.7,7.7H2.5
			c0-0.2,0.1-0.2,0-0.4L2.4,7.2V6.8L2.2,6.7L2.1,6.1H2V6H2V5.7C1.8,5.5,1.8,5.3,1.7,5l0.9-0.1C2.7,5,2.7,5,2.8,5.1V4.9L3,5
			c0.1,0,0-0.1,0.2-0.1c0.1,0,0,0.1,0.1,0.1l0.1-0.2L3.7,5V4.8l0.2,0.1c0,0,0-0.1,0.2-0.1v0.1h0.1V4.8c0,0,0.3,0.1,0.4,0.1V4.8
			l0.2,0.1l0.1-0.2C5,4.6,5.2,4.8,5.2,4.8V4.7l0.3-0.1V4.5c0.1,0,0,0,0.1,0.1l0.7-0.1l0.1-0.2h0.1v0.1h0.1V4.3c0.1,0,0.1,0,0.2,0.1
			l0.5-0.1c0.1-0.3,0.3,0,0.7-0.2V4.1h0.4V4h0.2V3.9h0.1V4h0.1V3.9H9V4l0.2-0.1V4h0.1V3.8L10.1,4V3.8c0.2,0,0.2-0.1,0.3-0.1
			c0.1,0.1-0.1,0.1,0.1,0.2V3.8l0.2-0.1v0.1H11v0.1h0.1V3.8l0.7-0.1v0.2l0.7-0.1V3.8h0.2V3.7c0.3,0,0.5,0,0.8,0.1l0.1-0.2l0.2,0.1
			V3.6l0.2-0.1v0.2l0.6-0.1V3.5c0.2-0.1,0.7,0.1,0.8,0.1l0.1-0.2h0.3v0.1h0.1V3.4h0.3c0.1,0,0,0.1,0.1,0.1V3.4h0.2V3.4h0.6L17,3.2
			c0.2-0.1,0.3,0,0.4,0.1V3.1h0.2v0.2h0.2c0,0,0-0.3,0.1-0.2c0.1,0,0,0.1,0.1,0.1V3l0.2,0.1V3h0.2c0,0,0.2,0,0.1-0.1
			c-0.1,0-0.1-0.1-0.1-0.2l0.2-0.1c0-0.2,0-0.2-0.1-0.3h-0.2c0-0.1,0.1-0.2,0.1-0.3l-1.1-0.2l-0.1,0.2c-0.2,0.1-0.4-0.1-0.7,0v0.1
			h-0.2v0.1l-0.7-0.1l-0.1,0.2l-0.2-0.1c0,0,0,0.1-0.2,0.1c0-0.1-0.1-0.1-0.2-0.1v0.1h-0.1V2.2h-0.1L15,2.4H15V2.3h-0.5v0.2
			c-0.4-0.1-0.8,0-1.2,0.1l-0.2-0.1c0,0-0.1,0.1-0.2,0.2V2.5h-0.7v0.1l-0.2-0.1v0.2H12V2.5c-0.1,0-0.1,0.1-0.2,0.2h-0.2v0.1
			l-0.2-0.1v0.1c-0.4,0.1-0.5-0.3-0.8,0.1h-0.2V2.7h0.1V2.6h-0.1V2.5l-0.2,0.1v0.1C9.9,2.8,9.8,2.6,9.7,2.6v0.1L9,2.8V2.6L8.7,2.8
			V2.7L8,3V2.9C7.9,2.9,7.8,3.1,7.6,3V2.9L6.9,3L6.8,3.2c-0.1,0-0.1-0.1-0.2-0.1L6.5,3.2C6.4,3.1,6.3,3.1,6.2,3.1v0.1H6.1L6,3.4H5.7
			v0.1L5.3,3.5V3.4C5.1,3.4,5.1,3.5,5.1,3.5H4.7v0.1L4.6,3.5H4.5v0.1H4.1v0.1H3.7v0.1H3.4v0.1c-0.2,0-0.2-0.1-0.2-0.2L2.9,3.8v0.1
			L2.8,3.8v0.1c0,0-0.3,0-0.2-0.1c0.1-0.1,0.1,0,0.1-0.1H2.3v0.1H2.2V3.7C2,3.7,2.1,3.8,2.1,3.8H1.4V3.7L1.2,3.8V3.6
			c0,0-0.3,0-0.2,0.1h0.1v0.1c-0.2,0-0.4,0.1-0.7,0.2v0.2H0.3v0.8L0.5,5.2L0.5,5.2z"/>
		<path id="パス_291" class="st0" d="M16.4,2.1L16.4,2.1l-0.2-0.1C16.4,2.1,16.3,2.1,16.4,2.1z"/>
		<path id="パス_292" class="st0" d="M86.5,3.7c0.1,0.1-0.1,0.1-0.2,0.1c0.1,0.1,0,0,0.2,0.1v0.2L87,4.2V4.1H87v0.1h0.2v0.1
			c0.2,0,0.4,0,0.6-0.1V4.1l0.1,0.1h0.1c0.1,0,0-0.1,0.1-0.1v0.1c0.1,0,0.5-0.2,0.7-0.1v0.1h0.1l-0.1-0.2C89,4,89.3,4,89.6,3.9v0.2
			h0.2c0,0,0-0.3,0.1-0.2V4H90V3.9c0.1,0,0.2,0,0.3,0.1V4l0.4-0.1V4h0.1V3.9h0.6V3.9h0.1L91.4,4c0.2,0,0.2,0,0.3-0.2
			c0.2,0.1,0.1,0,0.1,0.2L91.9,4l0.2,0.1C92.2,4,92,3.9,92.4,3.9c0.1,0.1,0,0,0.2,0.1v0.2c0.1,0.1,0.1-0.1,0.1-0.2L92.8,4l0.1-0.2
			h0.1L93,4.1C93.2,4.2,93.5,4,93.6,4H94v0.1L94.7,4v0.2H95V4.1c0,0,0.3,0,0.2,0.1h-0.1v0.1l0.4-0.1V4.1c0.2,0,0,0.2,0.2,0.2V4.2
			h0.2V4.1l0.2,0.1V4.1h0.1v0.1h0.7v0.1h0.3v0.1h0.1c0.1,0,0-0.1,0.1-0.1c0.2,0,0.4,0,0.6,0.1V4.3h0.1v0.2h0.2v0.5h0.1l-0.1,0.2h0.2
			c-0.1,0.2-0.1,0.3,0,0.5h0.1l-0.1,0.2h0.1v0.2h0.1l-0.1,0.2c0,0,0.3,0,0.2,0.1c0,0.1-0.1,0-0.1,0.1h0.1v0.2h0.1
			c0,0.1-0.2,0.3-0.1,0.5h0.1v0.2h0.1l-0.1,0.2h0.1v0.2h0.1v0.6H99v0.2h0.1L99,8.4c0,0.3,0.3,0.4,0.1,0.6v0.3l0.2-0.1l-0.1,0.4
			l0.2,0.1L99.2,10h-0.1l0.1,0.2c0,0-0.1,0-0.1,0.2l0.2,0.1c0,0.1-0.1,0.1-0.1,0.3h0.2V11L99.2,11c0,0.1,0,0,0.1,0.1l-0.1,0.5h0.2
			l-0.1,0.2c0,0,0.2,0,0.2,0.2h-0.2c0,0.1,0.1,0.2,0.1,0.4c-0.1,0.1-0.1,0.2-0.1,0.2c0,0,0.1,0,0.1,0.2c-0.1,0-0.1,0.1-0.1,0.2h0.1
			v0.2h0.1v0.1h-0.1c-0.1,0.5-0.1,0.6,0.1,0.9l-0.2-0.1v0.1c-0.1,0.1,0,0-0.1,0.1h0.2v0.4c0,0-0.1,0-0.1,0.2h0.1l0.1,0.2h-0.1v0.4
			h-0.1v0.1h0.1v0.2h0.1c0.1,0.1,0.1,0.1,0.1,0.3h-0.2c0,0.1,0.1,0.1,0.2,0.2l-0.1,0.1v0.4h0.1c0,0.1,0,0.2-0.1,0.2
			c0,0.2,0.1,0.4,0.2,0.6l-0.2-0.1v0.2h0.2c-0.1,0.2-0.1,0.4,0,0.7h0.1c0,0.2-0.1,0.2-0.2,0.3c0.2,0.4,0.3,0.8,0.2,1.2h0.2L99.9,20
			h-0.1v0.1h0.1v0.5h0.1v0.2h0.1l0.1,0.6h0.1v0.4l0.2,0.1c0.1,0.1-0.1,0.1-0.1,0.1l-0.1,0.2c0.1,0.1,0.1,0,0.1,0.1h-0.1v0.2h0.2
			l-0.2,0.3l0.2,0.1l-0.1,0.4h0.1v0.2l0.2,0.1l-0.1,0.1l0.1,0.3c0,0-0.3,0-0.2,0.1h0.1v0.2h0.2c-0.2,0.1,0.1,0.7,0.2,1l0.4-0.1
			c0,0.2,0,0.1-0.1,0.2v0.1c0.3-0.1,0.2-0.2,0.6-0.2c0-0.1,0.1-0.3,0.2-0.3v-0.2l-0.2-0.1l0.1-0.7l-0.2-0.1l0.1-0.2h-0.1
			c0-0.1,0.2-0.1,0.1-0.3l-0.2-0.1V23h-0.1c0-0.1,0.1-0.1,0.2-0.2c0-0.1-0.1,0-0.1-0.1v-0.5h-0.1l0.1-0.5l-0.2-0.1v-0.2h-0.1
			c0-0.1,0.1-0.2,0.1-0.2c0-0.1-0.1,0-0.1-0.1V21h-0.1l0.1-0.2h-0.1v-0.2l-0.2-0.1l0.1-0.4h-0.1c0,0,0-0.3-0.1-0.2v0.1h-0.1v-0.2
			l0.2-0.1c0-0.1-0.1-0.1-0.2-0.2l0.1-0.4h-0.2l0.1-0.7h-0.2c0-0.2,0.1-0.3,0.1-0.5h-0.1v-0.7h-0.1v-0.1c0.1,0,0.1-0.1,0.1-0.2
			c-0.1,0-0.1-0.1-0.1-0.2h0.1v-0.2h-0.2c0-0.2,0.1-0.4,0.1-0.7h-0.1v-0.7h0.1v-0.1h-0.1l0.1-0.2h-0.1V15h-0.1
			c0-0.1,0.2-0.2,0.1-0.4c0,0-0.2,0-0.2-0.2h0.1l0.1-0.4h-0.2c0.2,0,0.2-0.9,0.2-1.2l-0.1-0.1c0-0.1,0.1,0,0.1-0.1
			c0-0.4-0.2-0.2,0.1-0.6c-0.1-0.3-0.4-0.1-0.1-0.5c0,0,0-0.3-0.1-0.2v0.1h-0.1c0.1-0.8,0-1.6-0.2-2.4h0.2V8.9l-0.2-0.1
			c0-0.2,0-0.4,0.1-0.6H100c0.1-0.2,0-0.2,0.2-0.2l-0.1-0.2H100l0.1-0.2H100c0-0.1,0.1-0.3,0.1-0.3h-0.2L99.8,7h0.2l-0.1-0.3
			l-0.2-0.1l0.1-0.2h-0.2l0.1-0.6l-0.2-0.1l0.1-0.2h-0.1V5.2h-0.1V5.1h0.1V4.9h-0.2c0.1-0.1,0.1-0.1,0.2-0.1l-0.1-0.2h-0.1V4.5
			l0.7-0.1l0.1,0.2l0.5-0.1v0.1h0.2v0.1l0.2-0.1h0.1v0.1l0.2-0.1c0.1,0,0,0.1,0.1,0.1h0.6V4.5c0.2,0.2,0,0.1,0.1,0.2l0.2-0.1
			l-0.1,0.2h0.3V4.7c0.2,0,0.6,0.1,0.6,0.1c0,0,0.1-0.2,0.4-0.2v0.1l0.7,0.1c0-0.1,0.1-0.1,0.2-0.1v0.1h0.2V4.6
			c0.2,0.1,0.1,0,0.2,0.2h-0.1c0,0.2,0.1,0.1,0.2,0.1V4.7h0.7v0.1h0.1V4.7h0.2V4.6c0.1,0,0,0.1,0.1,0.1h0.6V4.6h0.1v0.1
			c0.2,0,0.2-0.1,0.3-0.1c0,0,0.1,0.1,0.2,0.2l0.1-0.2c0.2-0.1,0.2,0.1,0.2,0.2h0.7V4.6c0.2,0.1,0.5,0.1,0.7,0.1
			c0.7-0.1,1.5-0.1,2.2,0l-0.1-0.3l0.2-0.1V4l-0.2-0.1l-0.1-0.4h-0.5l-0.1-0.2c-0.2-0.1-0.2,0.3-0.5,0.2l-0.1-0.2L109,3.4v0.1
			l-0.1-0.1c-0.1,0-0.1,0.1-0.3,0.1V3.4h-0.1c0,0.1-0.4,0.1-0.5,0.1V3.4l-0.2,0.1l-0.9-0.1v0.2h-0.3V3.4c-0.1,0.1-0.3,0.1-0.4,0.2
			V3.4h-0.1v0.1l-0.2-0.1l-0.2,0.1c0,0,0-0.1-0.2-0.1v0.1h-0.1l-0.1-0.2l-0.5,0.1l-0.1,0.2h-0.1l0.1-0.2l-0.4,0.1v0.1l-1.5-0.2v0.2
			l-0.4-0.1c0,0,0,0.1-0.2,0.2l-0.1-0.2h-1V3.4l-0.5,0.1V3.4h-0.4V3.3l-0.2,0.1l-0.1-0.2c-0.2-0.1-0.2,0.1-0.2,0.2
			c-0.3,0.1-0.3-0.2-0.4-0.2c-0.2-0.1-0.2,0.2-0.2,0.2C99,3.3,99,3.1,99,3.1h-0.3V3h-0.1V3L98.1,3v0.2C98,3,98.1,3,98.1,3
			s-0.2,0.2-0.3,0.2V3l-1-0.1l-0.1,0.2h-0.2V3c-0.1,0-0.2,0-0.3,0.1C96.1,3,96.1,2.9,96,3V3L95.5,3c-0.1,0,0,0.2-0.2,0.2V3h-0.2
			c0,0,0-0.3-0.1-0.2V3H95V2.8C94.3,2.9,94,2.7,93.4,3V2.8c-0.1,0-0.2,0-0.3-0.1v0.1l-0.3,0.1V2.6h-0.1v0.2l-0.4-0.1v0.1h-0.1V2.7
			h-0.1v0.1l-0.4-0.1v0.1h-0.2v0.1c-0.2,0-0.2-0.1-0.2-0.2l-0.6,0.1l-0.2-0.1v0.1c0,0-0.3,0-0.2-0.1h0.1V2.6c-0.1,0-0.2,0-0.3,0.1
			v0.1l-0.1-0.1h-0.3v0.2c-0.1-0.1-0.3-0.1-0.4-0.1c-0.3,0.1-0.7,0.1-1,0V3L87.5,3v0.1L87.4,3c0,0,0,0.1-0.2,0.1V3h-0.1v0.1
			c-0.2,0.1-0.4,0.2-0.6,0.2C86.5,3.5,86.5,3.5,86.5,3.7l-0.2-0.1C86.2,3.7,86.4,3.7,86.5,3.7z"/>
		<path id="パス_293" class="st0" d="M91.6,2.7L91.6,2.7l-0.2-0.1C91.5,2.7,91.4,2.7,91.6,2.7z"/>
		<path id="パス_294" class="st0" d="M73.7,4.3l0.2,0.1v0.1h-0.1c0,0.3,0.3,0.4,0.2,0.6c0,0.2,0.1,0.2,0.1,0.2v0.4l0.2,0.1
			c0.1,0.1-0.1,0.1-0.1,0.1l0.1,0.2h0.1c0.1,0.2-0.1,0.3-0.1,0.4c0,0.1,0.2,0.1,0.2,0.2h-0.1l0.1,0.2h-0.1c0,0,0,0.3,0.1,0.2V7h0.1
			c-0.1,0.2-0.1,0.4,0,0.6l0.2,0.1l-0.1,0.2L74.9,8v0.7H75C75,8.9,75,8.8,75,9h0.2v0.7l0.2,0.1l-0.1,0.2h0.1v0.5h0.1V11h0.1
			l-0.1,0.2h0.2v0.1h-0.1c0,0.4,0.3,0.4,0,0.7V12l0.2-0.1v0.4c0,0.1-0.1,0-0.1,0.1c0,0.1,0.1,0,0.1,0.2h-0.1v0.1h0.1v0.4h-0.1
			c0,0.1,0.1,0.1,0.2,0.2v0.1h-0.1v0.1h0.1c0,0.2-0.1,0.2-0.2,0.3l0.2,0.1c-0.1,0.1-0.1,0.3-0.1,0.5h0.1l-0.1,0.2h0.1l-0.1,0.2
			c0,0.2,0.1,0.2,0.1,0.2c0,0.2,0,0.2-0.1,0.2l0.1,0.2h-0.1v0.1h0.1v0.3h0.1c0,0.2-0.1,0.3-0.2,0.4l0.2,0.1v0.1h-0.1v0.1h0.1
			L75.9,17c0.2,0,0.1,0,0.2,0.1h0.1l-0.2,0.3H76v0.2h0.1v0.5h0.1c0,0.3,0.1,0.7,0.1,1h0.2c0,0-0.1,0.2-0.1,0.3l0.2,0.1v0.3h0.1V20
			h0.1l0.1,0.2l0.2,0.1v-0.2h0.2v0.2h0.2v-0.1c0.1,0,0.1,0,0.2,0.1c0.2,0,0.3-0.2,0.4-0.2h0.1l-0.1-0.2h0.1v-0.1h-0.1v-0.1h0.1v-0.3
			h-0.1L77.7,19c0,0,0.1,0,0.1-0.2l-0.2-0.2v-0.2h-0.1v-0.2h-0.1v-0.1h0.1v-0.1h-0.1v-0.7l-0.2-0.1c0.1-0.2,0.1-0.4,0.1-0.6h-0.1
			v-0.1h0.1v-0.1h-0.2c0.1-0.3,0.1-0.7,0-1H77l0.1-0.2H77v-0.8c0,0,0.1,0,0.1-0.2c0-0.1-0.1,0-0.1-0.1v-0.5c-0.2,0-0.1,0-0.2-0.1H77
			l-0.1-0.5c0,0,0.1,0,0.1-0.2h-0.1v-0.3h-0.1l0.1-0.5h-0.1c-0.1-0.3-0.1-0.7,0-1h-0.2v-0.2c0-0.1,0.1,0,0.1-0.2L76.6,11
			c-0.1-0.2,0.1-0.2,0.1-0.3c-0.1-0.1-0.1-0.2-0.1-0.2h0.1v-0.1h-0.2v-0.1h0.1v-0.2h-0.2c0-0.4-0.1-0.7-0.1-1.1h-0.1V8.7h-0.1
			l0.1-0.3h-0.2c0-0.2,0.1-0.3,0-0.4h-0.2c0.3-0.3,0-0.4,0-0.9h-0.2V6.8h-0.1V6.7h0.1V6.5h-0.2l-0.1-0.3h0.2V6.1h-0.2V5.5l-0.2-0.1
			L75.4,5h-0.1l-0.1-0.4H75c0-0.2,0-0.3,0-0.5h-0.2V4H75l-0.1-0.7h-0.1l-0.1-0.5h0.1V2.8l-0.7-0.1v0.2C73.8,3,74,3.1,73.7,3.3
			c-0.1,0.3,0,0.6,0.1,0.9L73.7,4.3z"/>
		<path id="パス_295" class="st0" d="M89.2,4.1L89.2,4.1L89,4C89.1,4.1,89,4,89.2,4.1z"/>
		<path id="パス_296" class="st0" d="M107,4.7h-0.2C107,4.8,106.9,4.7,107,4.7L107,4.7z"/>
		<path id="パス_297" class="st0" d="M67.5,23.4l0.2-0.1l-0.1-0.2h0.1V23h0.1v-0.2l0.2-0.1c0.1-0.2-0.1-0.2-0.1-0.3l0.2-0.1
			l0.1-0.2h0.1l-0.1-0.2h0.1v-0.3h0.1V21h0.1l-0.1-0.2l0.2-0.1l-0.1-0.3h0.1v-0.2h0.1l-0.1-0.5h0.1v-0.2h0.1c0-0.1-0.1-0.3-0.1-0.6
			h0.1c0-0.1-0.1,0-0.1-0.1c0-0.3,0.1-0.6,0.1-0.9h0.1l0.1-0.2h-0.2l-0.1-0.2h0.1v-0.4h0.1l-0.1-0.2h0.1v-0.3h-0.1
			c0-0.2,0.1-0.4,0.1-0.4L68.5,16l0.1-0.1v-0.7h-0.2l0.1-0.6h-0.2c0.1-0.3,0.1-0.6,0-0.9h-0.1v-0.3h-0.1v-0.7l-0.2,0.1l-0.1-0.2h0.1
			v-0.1l-0.2-0.1l0.1-0.2h-0.2c0-0.1,0-0.2,0.1-0.3h-0.2c0-0.2,0-0.2-0.1-0.3h-0.1l0.1-0.2l-0.2-0.1v-0.4h-0.1l-0.1-0.3H67l0.1-0.2
			l-0.2-0.1c0.2-0.3-0.2-0.1-0.1-0.4h0.1V9.7h-0.2l-0.1-0.4h-0.1V9h-0.1c-0.1,0.1,0,0.1-0.1,0.1V8.9h-0.1c-0.1-0.2,0.1-0.2-0.2-0.2
			l-0.1-0.2c0.2-0.1-0.3-0.2-0.3-0.2V8l-0.2-0.1V7.8l-0.2-0.1c-0.1-0.2-0.2-0.4-0.2-0.6h-0.2V7c-0.2,0-0.1,0-0.2-0.1h-0.1V6.6h-0.3
			l-0.1-0.2c-0.2,0-0.2-0.1-0.4,0v0.1l-0.2-0.1v0.1c-0.1,0-0.2,0.1-0.2,0.2h0.1v0.1l-0.2,0.1l0.1,0.5h0.2l0.2,0.2l0.2,0.1l-0.1,0.2
			L64,7.9l-0.1,0.2H64v0.1h0.2c0,0.2,0,0.1-0.1,0.2v0.1c0.1,0.1,0.2,0,0.3,0.1c0.1,0.2-0.1,0.2,0.2,0.3V9h0.2c0,0.2,0.1,0.3,0.2,0.4
			h0.1v0.2h0.1l0.1,0.4h0.2v0.4c0.2,0,0.2,0.1,0.3,0.2c-0.1,0.2-0.1,0.4,0,0.6l0.3,0.1c-0.1,0.1-0.1,0.2-0.1,0.3
			c0.2,0,0.1,0,0.2,0.1h0.1c-0.1,0.1-0.1,0.1-0.2,0.2c0.1,0.1,0,0,0.2,0.1v0.4h0.2v0.2h0.2c-0.1,0.1-0.1,0.3,0,0.4h0.1v0.2l0.2,0.1
			v0.1h-0.1l0.2,0.5L67,14.1H67v0.2h0.1L67,14.5l0.2,0.2L67.2,15h0.1v0.2h-0.2c0.1,0,0,0.2,0.1,0.3h0.1v0.2l0.2,0.1l-0.1,0.5
			c0,0,0.1,0.1,0.1,0.2h-0.1c0,0.2,0.2,0.2,0.2,0.3h-0.1v0.2h-0.1c0,0.1,0.1,0.1,0.1,0.2v0.3h-0.1c0,0.2,0.2,0.2,0.2,0.4l-0.2,0.1
			L67.3,19h0.1V19l-0.2,0.1c0,0.2,0.2,0.2,0.2,0.5h-0.1v0.2h-0.1v0.8h-0.1L67,21.4H67v0.2h-0.1l0.1,0.2h-0.2c0,0.2,0.1,0.2,0,0.4
			l-0.2,0.1c-0.1,0.2,0.1,0.3,0.1,0.4h-0.1v0.2c0,0.1-0.2,0-0.2,0.2h0.1V23h-0.2l-0.1,0.2l0.1,0.1h-0.2l-0.1,0.5L66,23.8v0.2
			c-0.1,0.2-0.3,0.4-0.3,0.6h-0.2v0.2l-0.2,0.1l-0.5,0.7h0.1v0.1l-0.2-0.1c-0.3,0.4-0.8,0.4-0.9,1c-0.3,0.1-0.1,0.1-0.2,0.2
			l-0.2-0.1v0.1L63,26.9V27C62.8,27,62.7,27,62.5,27v0.2h-0.3v0.2c-0.1,0-0.2,0-0.3,0.1v0.1l-0.2-0.1v0.1l-0.8,0.2v-0.1h-0.1v0.1
			h-0.2v0.1c-0.1,0-0.1-0.1-0.2-0.1c-0.3-0.1-0.5,0-0.7-0.2c-0.2-0.1-0.2,0-0.2-0.2c-0.3-0.1-0.4-0.1-0.5-0.4h-0.2
			c0-0.2-0.1-0.4-0.2-0.6l-0.2,0.1v-0.2L58.2,26v-0.2c-0.2-0.1-0.2,0-0.2-0.2c-0.2-0.1-0.2,0-0.2-0.2h-0.2c0-0.2,0-0.2-0.1-0.3h-0.2
			l0.1-0.2h-0.2c-0.1-0.1,0.1-0.1,0.1-0.1l-0.1-0.2c-0.2,0-0.1,0-0.2-0.1H57l0.1-0.2h-0.2l0.1-0.2h-0.1l-0.1-0.5l-0.2-0.1l0.1-0.2
			L56.6,23l0.1-0.2c-0.2-0.1,0,0-0.2,0v-0.2h0.2v-0.1l-0.2-0.1v-0.3L56.3,22l0.1-0.5h-0.2v-0.1H56l0.1-0.2c0-0.1-0.2,0-0.2-0.2H56
			v-0.3l-0.2-0.2l0.1-0.3h-0.1v-0.4h-0.2v-0.1h0.1v-0.1h-0.1c-0.1-0.2,0-0.2,0.1-0.3h-0.2V19h-0.2l0.2-0.3h-0.2v-0.4
			c0,0,0.1,0,0.1-0.2c0,0-0.1,0-0.1-0.2h0.1v-0.1h-0.1v-0.2h-0.1c-0.1-0.1-0.1-0.2-0.1-0.3h0.2v-0.1l-0.2-0.1v-0.2h-0.1
			c0,0,0-0.3,0.1-0.2c0.1,0.1,0,0.1,0.1,0.1L55,15.9h0.2v-0.1c-0.1-0.3-0.3,0-0.2-0.6h-0.2l0.1-0.7c-0.2,0-0.1,0-0.2-0.1h-0.1v-0.2
			h0.2v-0.2h-0.3c0-0.1,0.1-0.1,0.2-0.2v-0.1h-0.1l0.1-0.5l-0.3-0.1c0-0.2,0-0.1,0.1-0.2c0-0.1,0-0.3-0.1-0.4h-0.1l0.1-0.2h-0.2
			c0.1-0.5,0-0.7,0.1-1.3h-0.2c-0.1-0.2,0-0.1-0.2-0.1c0-0.2,0-0.1-0.1-0.2V11c-0.2-0.1-0.1,0-0.2,0.1h-0.2l0.1,0.2h-0.2l-0.1,0.2
			h-0.1v0.2h-0.1v0.2H53c0,0.1,0,0.1,0.1,0.2c0,0.3-0.1,0,0,0.4h-0.2v0.2c0.2,0.1,0.3,0.1,0.3,0.3h-0.2l0.1,0.4l0.2-0.1v0.2
			c0,0.1,0.1,0,0.1,0.1c-0.1,0-0.1,0.1-0.1,0.2c0,0,0,0,0,0h0.1v0.2h0.1c0,0.1,0,0.1-0.1,0.2l0.1,0.4h0.1l-0.1,0.2h0.1l0.1,0.5h0.2
			v0.2h-0.2c-0.1,0.1,0.1,0.1,0.1,0.1v0.3h0.2c-0.1,0.2-0.1,0.3,0,0.5H54v0.3h0.1c0,0.1-0.1,0-0.1,0.1c0,0.2,0.1,0.2,0.1,0.2
			c0.1,0.4-0.3,0.8,0.2,1.1v0.1h-0.2c0,0.3,0,0.3,0.2,0.4l-0.1,0.4h0.1v0.1c-0.1,0-0.1,0.1-0.1,0.2c0,0,0,0,0,0h0.1v0.2h0.1
			l-0.1,0.2h0.1v0.6l0.2,0.2v0.2h-0.1v0.1h0.1l-0.1,0.2h0.2v0.3h0.2V21c-0.1,0-0.1,0.2-0.1,0.3h0.1v0.2H55v0.4c0,0,0.1,0,0.1,0.2
			h0.2c-0.1,0.3,0,0.4,0.1,0.7h0.2v0.4c0,0.1,0.1,0,0.1,0.1h-0.1v0.2c0.2,0,0.1,0,0.2,0.1h0.1l-0.1,0.2h0.1v0.1h-0.1
			c0,0,0,0.3,0.1,0.2c0.1-0.1,0-0.1,0.1-0.1v0.4h0.2c0,0.2-0.1,0.3,0.1,0.5h0.2l-0.1,0.2l0.2,0.1v0.2l0.5,0.4v0.2l0.2,0.1v0.2H57
			v0.2l0.2-0.1c0.1,0.1,0.1,0.2,0.1,0.3h0.2c0.1,0.3,0,0.1,0.2,0.2l-0.1,0.2c0.2,0.2,0.3,0,0.4,0.4h0.2v0.2h0.1
			c0.1,0.2,0.2,0,0.2,0.3l0.3,0.1v0.2H59l0.1,0.2l0.2,0.1c0.1-0.1,0-0.1,0.1-0.1v0.1l0.3,0.1v0.1h0.1v-0.1l0.3,0.1
			c0,0.2,0,0.1,0.1,0.2v-0.2h0.7v0.1l0.8-0.2v-0.1l0.2,0.1v-0.1h0.2v-0.1l0.6-0.1c0.1,0,0-0.1,0.2-0.2v-0.2c0.2,0,0.2,0,0.3-0.1V28
			h0.2v-0.1h0.2l0.1-0.2c0.2-0.2,0.4-0.3,0.7-0.4v-0.2h0.1c0.1-0.2,0.2-0.1,0.2-0.3c0.4-0.1,0.4-0.3,0.7-0.4c0-0.2,0-0.1-0.1-0.2
			v-0.1l0.3-0.1c0.1-0.2,0-0.2,0.2-0.2c0.1-0.2,0.1-0.2,0.2-0.4h0.2c0-0.2,0-0.1-0.1-0.2v-0.1h0.2l0.2-0.4H67v-0.2H67L67,24.4
			l0.3-0.2V24h0.1l-0.1-0.2l0.2-0.1L67.5,23.4z"/>
		<path id="パス_298" class="st0" d="M28.3,12.9L28.3,12.9L28.3,12.9L28.3,12.9C28.2,13,28.2,12.9,28.3,12.9L28.3,12.9z"/>
		<path id="パス_299" class="st0" d="M32.4,15.1L32.4,15.1c0-0.2,0.1-0.1,0-0.2V15.1z"/>
		<path id="パス_300" class="st0" d="M119.4,26.1c-0.1-0.1,0,0-0.2-0.1C119.3,26.1,119.2,26,119.4,26.1z"/>
	</g>
	<path id="パス_722" class="st1" d="M11.7,52c-1.1,1.1-2.5,1.9-4,2.3c0.2,0.2,0.4,0.5,0.6,0.8c0.1,0.2,0.1,0.3,0.2,0.3
		c0.1,0,0.2-0.1,0.3-0.1c1.5-0.6,2.8-1.5,3.8-2.7c0,1.6-0.1,2.8-0.1,3.1c0,0.1,0,0.1,0.1,0.1h1.1c0.1,0,0.1,0,0.1-0.1
		c0-0.3-0.1-1.6-0.1-3.1c1.1,1.3,2.5,2.2,4,2.7c0.1,0,0.2,0.1,0.3,0.1c0.1,0,0.1-0.1,0.2-0.3c0.1-0.3,0.3-0.6,0.5-0.8
		c-1.6-0.4-3.1-1.1-4.3-2.2H17c1.1,0,1.4,0,1.5,0c0.1,0,0.1,0,0.1-0.1v-0.9c0-0.1,0-0.1-0.1-0.1c-0.1,0-0.4,0-1.5,0h-3.2v-0.9h1.6
		c1.2,0,1.6,0,1.7,0c0.1,0,0.1,0,0.1-0.1c0-0.1,0-0.4,0-1.2v-2.1c0-0.8,0-1.1,0-1.2c0-0.1,0-0.1-0.1-0.1c-0.1,0-0.5,0-1.7,0h-4.2
		c-1.2,0-1.6,0-1.7,0c-0.1,0-0.1,0-0.1,0.1c0,0.1,0,0.4,0,1.2v2.1c0,0.8,0,1.1,0,1.2c0,0.1,0,0.1,0.1,0.1c0.1,0,0.5,0,1.7,0h1.4V51
		h-3c-1.1,0-1.4,0-1.5,0c-0.1,0-0.1,0-0.1,0.1v0.9c0,0.1,0,0.1,0.1,0.1c0.1,0,0.4,0,1.5,0H11.7z M15.9,46.3v0.9h-2.2v-0.9H15.9z
		 M15.9,49.1h-2.2v-0.9h2.2V49.1z M10.6,47.3v-0.9h2v0.9H10.6z M10.6,49.1v-0.9h2v0.9H10.6z M27.4,47.7c-0.6,0.1-1.3,0.2-1.9,0.2
		c-0.5,0-1,0-1.5,0c0.1,0.4,0.2,0.7,0.3,1.1c0,0.1,0.1,0.2,0.2,0.2c0.3,0,0.9,0,1.2-0.1c0.9-0.1,1.6-0.2,2.3-0.3
		c0.4,0.8,0.9,1.5,1.6,2.1c-0.7-0.2-1.4-0.3-2.1-0.3c-2,0-3.2,1-3.2,2.3c0,1.6,1.5,2.5,4.4,2.5c0.4,0,0.9,0,1.3-0.1
		c0.1,0,0.2,0,0.2-0.2c0.1-0.4,0.2-0.8,0.3-1.3c-0.6,0.1-1.3,0.2-1.9,0.2c-1.9,0-3-0.4-3-1.3c0-0.8,0.7-1.1,2-1.1
		c0.9,0,1.7,0.2,2.5,0.6c0.2,0.1,0.3,0.2,0.5,0.3c0.1,0.1,0.1,0.1,0.2,0.1c0.1,0,0.1,0,0.2-0.2c0.2-0.2,0.3-0.5,0.5-0.8
		c0-0.1,0.1-0.1,0.1-0.2c0-0.1,0-0.1-0.1-0.2c-0.1-0.1-0.2-0.2-0.3-0.3c-0.7-0.8-1.3-1.6-1.8-2.5c0.8-0.2,1.6-0.4,2.3-0.7
		c0.1,0,0.1-0.1,0.1-0.2c-0.1-0.3-0.2-0.6-0.3-0.9c-0.1-0.1-0.1-0.1-0.2-0.1c-0.8,0.3-1.6,0.5-2.4,0.7c-0.2-0.3-0.3-0.6-0.4-1
		c-0.1-0.2-0.1-0.4-0.2-0.6c0-0.1,0-0.2,0-0.3c0-0.2-0.1-0.3-0.4-0.3c-0.5,0-1,0.1-1.4,0.2c0.2,0.3,0.4,0.6,0.6,1
		C27,46.9,27.2,47.2,27.4,47.7L27.4,47.7z M31.1,45.7c0.5,0.4,0.8,0.9,1.1,1.5c0,0.1,0.1,0.1,0.2,0.1c0,0,0,0,0,0l0.5-0.3
		c0.1,0,0.1-0.1,0-0.2c-0.3-0.5-0.6-1-1.1-1.3c-0.1-0.1-0.1-0.1-0.2,0L31.1,45.7z M32.2,45c0.4,0.4,0.8,0.9,1.1,1.4
		c0,0.1,0.1,0.1,0.2,0l0.5-0.3c0.1,0,0.1-0.1,0.1-0.2c0,0,0,0,0,0c-0.3-0.5-0.6-0.9-1.1-1.3c-0.1-0.1-0.1-0.1-0.2,0L32.2,45z
		 M39.9,45.3c0,0.5,0,0.9-0.1,1.4c-0.2,1-0.3,2-0.3,3c0,0.8,0.1,1.6,0.4,2.4c0,0.1,0.1,0.2,0.2,0.2c0.3,0,0.8-0.1,1-0.1
		c0.1,0,0.2-0.1,0.2-0.2c0,0,0,0,0,0c0-0.1,0-0.2,0.1-0.4c0.2-0.5,0.4-1,0.7-1.5c0.1-0.1,0.1-0.2,0.1-0.3c0-0.1,0-0.1-0.1-0.2
		c-0.2-0.2-0.3-0.5-0.4-0.8c-0.3,0.6-0.6,1.1-0.8,1.5c0-0.4,0-0.9,0-1.3c0.1-0.6,0.2-1.5,0.3-2.3c0-0.2,0.1-0.4,0.2-0.6
		c0.1-0.1,0.1-0.1,0.1-0.2c0-0.1-0.1-0.2-0.2-0.2C40.8,45.5,40.4,45.3,39.9,45.3L39.9,45.3z M43.8,45.3c0.1,0.4,0.2,0.9,0.3,1.3
		c0.1,0.8,0.1,2,0.1,2.9c0.1,1.4-0.2,2.7-1,3.8c-0.6,0.7-1.2,1.2-2,1.6c0.4,0.1,0.7,0.3,1,0.6c0.1,0.1,0.2,0.1,0.3,0.1
		c0.1,0,0.2,0,0.2-0.1c0.8-0.5,1.5-1.2,2-1.9c0.7-1.3,1-2.7,0.9-4.2c0-0.9-0.1-2-0.2-3.1c0-0.2,0-0.4,0-0.6c0-0.2,0-0.3-0.2-0.3
		C44.7,45.3,44.3,45.3,43.8,45.3L43.8,45.3z M57,47c0-0.4,0-0.8,0.1-1.1c0.1-0.1,0.1-0.2,0.1-0.3c0-0.1-0.1-0.2-0.2-0.2
		c-0.5-0.1-1-0.2-1.5-0.2c0.1,0.6,0.1,1.2,0.1,1.8v5.9c0,0.8,0,1.5,0,2.4c0,0.1,0.1,0.2,0.2,0.2c0.4,0,0.7,0,1.1,0
		c0.2,0,0.2,0,0.2-0.2c0-0.9,0-1.6,0-2.4v-2.7c1.1,0.4,2.2,0.9,3.2,1.5c0,0,0.1,0.1,0.1,0.1c0.1,0,0.1,0,0.2-0.1
		c0.2-0.3,0.4-0.7,0.5-1c0.1-0.2,0-0.2-0.1-0.3c-1.2-0.7-2.5-1.2-3.8-1.6V47z M59.1,46.2c0.5,0.4,0.9,0.9,1.2,1.4
		c0,0.1,0.1,0.1,0.2,0.1c0,0,0,0,0,0l0.5-0.4c0.1,0,0.1-0.1,0.1-0.2c0,0,0,0,0,0c-0.3-0.5-0.7-0.9-1.1-1.3c-0.1-0.1-0.1-0.1-0.2,0
		L59.1,46.2z M60.2,45.4c0.5,0.4,0.9,0.9,1.2,1.4c0,0.1,0.1,0.1,0.2,0.1c0,0,0,0,0,0l0.5-0.4c0.1,0,0.1-0.1,0.1-0.2c0,0,0,0,0,0
		c-0.3-0.5-0.7-0.9-1.1-1.2c-0.1-0.1-0.1-0.1-0.2,0L60.2,45.4z M74.4,51.1c0.9,0,1.8,0,2.7,0c0.2,0,0.2,0,0.2-0.2c0-0.4,0-0.8,0-1.1
		c0-0.1,0-0.2-0.2-0.2c-0.9,0-1.8,0-2.8,0h-3.9c-0.9,0-1.7,0-2.6-0.1c0,0.5,0.1,1,0.2,1.5c0,0.2,0.1,0.3,0.3,0.3
		c0.6-0.1,1.2-0.2,1.8-0.1H74.4z M88.6,48.3c0-0.7,0-1.1,0-1.6c0-0.2,0-0.5,0.1-0.7c0-0.1,0.1-0.2,0.1-0.3c0-0.1,0-0.1-0.2-0.2
		c-0.5-0.1-1.1-0.2-1.6-0.2c0.1,0.4,0.1,0.8,0.1,1.2c0,0.5,0,1.2,0,1.8h-2.4c-0.6,0-1.3,0-2-0.1c0,0.4,0,0.9,0.1,1.2
		c0,0.2,0.1,0.2,0.2,0.2c0.5,0,1.1-0.1,1.7-0.1h2.3c0,1-0.2,1.9-0.7,2.8c-0.7,1-1.6,1.7-2.7,2.2c0.4,0.2,0.7,0.4,1,0.7
		c0.1,0.1,0.2,0.1,0.3,0.1c0.1,0,0.2,0,0.3-0.1c1-0.5,1.9-1.4,2.6-2.4c0.6-1,0.8-2.1,0.8-3.3h1.7c0.7,0,1.6,0,2,0
		c0.2,0,0.2,0,0.2-0.2c0-0.3,0-0.6,0-0.9c0-0.2-0.1-0.2-0.2-0.2c-0.6,0-1.4,0-2.1,0H88.6z M100,49.3c-0.6,0-1.5,0-2.3-0.1
		c0,0.4,0,0.7,0.1,1.1c0,0.2,0.1,0.3,0.2,0.3c0.6,0,1.5,0,1.9,0h2.1c0,0.7-0.2,1.4-0.5,2c-0.5,1-1.3,1.7-2.2,2.2
		c0.4,0.1,0.9,0.2,1.3,0.5c0.1,0,0.1,0.1,0.2,0.1c0.1,0,0.1,0,0.2-0.1c0.8-0.6,1.5-1.3,1.9-2.2c0.4-0.8,0.6-1.6,0.6-2.4h1.5
		c0.9,0,1.6,0,2.3,0c0.1,0,0.1,0,0.2-0.2c0-0.3,0-0.6,0-1c0-0.1,0-0.2-0.1-0.2c-0.5,0-1.6,0.1-2.3,0.1h-1.5c0-0.4,0-0.7,0-0.9
		c0-0.1,0-0.3,0.1-0.4c0-0.1,0.1-0.1,0.1-0.2c0-0.1-0.1-0.2-0.2-0.2c-0.3-0.1-0.5-0.1-0.8-0.2c0.7-0.1,1.4-0.3,2.2-0.5
		c0.3-0.1,0.5-0.2,0.8-0.2c0.2,0,0.3,0,0.3-0.2c0-0.1-0.1-0.3-0.2-0.3c-0.3-0.3-0.6-0.6-1-0.8c-0.3,0.2-0.7,0.4-1,0.5
		c-0.6,0.2-1.3,0.4-2,0.5c-1.2,0.2-2.4,0.4-3.6,0.4c0.2,0.2,0.5,0.5,0.6,0.8c0,0.1,0.1,0.3,0.3,0.3c1-0.1,1.9-0.2,2.8-0.4
		c0,0.2,0,0.4,0.1,0.6c0,0.3,0,0.8,0,1.2L100,49.3z M119.1,53.3l0.4-2.5c0-0.2,0.1-0.4,0.2-0.6c0.1-0.1,0.1-0.1,0.1-0.2
		c0-0.1,0-0.2-0.1-0.2c-0.2-0.2-0.5-0.5-0.7-0.7c-0.1,0-0.1-0.1-0.2-0.1c0,0-0.1,0-0.1,0c-0.2,0.1-0.5,0.1-0.7,0.1h-1.7
		c-0.5,0-0.9,0-1.7-0.1c0,0.4,0,0.8,0.1,1c0,0.2,0.1,0.2,0.2,0.2c0.3,0,0.9,0,1.3,0h1.9l-0.4,2.9H115c-0.6,0-1,0-1.7,0
		c0,0.3,0,0.7,0.1,1c0,0.2,0.1,0.2,0.2,0.2c0.6,0,1.1,0,1.6,0h4.4c0.6,0,1.1,0,1.7,0c0.2,0,0.2,0,0.2-0.2s0-0.5,0-0.8
		c0-0.2-0.1-0.2-0.3-0.2c-0.5,0-1,0-1.5,0H119.1z"/>
</g>
</svg>
