<?xml version="1.0" encoding="utf-8"?>
<!-- Generator: Adobe Illustrator 24.2.0, SVG Export Plug-In . SVG Version: 6.00 Build 0)  -->
<svg version="1.1" id="レイヤー_1" xmlns="http://www.w3.org/2000/svg" xmlns:xlink="http://www.w3.org/1999/xlink" x="0px"
	 y="0px" viewBox="0 0 169.5 174.8" style="enable-background:new 0 0 169.5 174.8;" xml:space="preserve">
<style type="text/css">
	.st0{fill:#DBC9B7;}
	.st1{opacity:0.1;}
	.st2{fill:#1A1311;}
</style>
<g id="グループ_497" transform="translate(13.169 3649.22)">
	<path id="長方形_150" class="st0" d="M24.8-3649.2h93.3c21,0,38,17,38,38v84.3c0,21-17,38-38,38H24.8c-21,0-38-17-38-38v-84.3
		C-13.2-3632.2,3.8-3649.2,24.8-3649.2z"/>
	<path id="パス_618" class="st0" d="M11.6-3507.2c2.4,8.3,8.1,19.5-0.8,29s18.4-3,25.8-13s8.5-16.6,7.8-26.6
		C43.7-3527.7,11.6-3507.2,11.6-3507.2z"/>
</g>
<g id="マスクグループ_16" transform="translate(13.169 3649.22)">
	<g id="グループ_522" transform="translate(78.346 31.725)" class="st1">
		<path id="パス_1" class="st2" d="M83-3566.6c-0.7-6.3,2-9.1,3.8-20.3c2.4-14.9-4.5-24-10-29.6c-7.2-7.4-16.6-10.5-23.2-12.7
			c-7.5-2.5-11.5-5-13.2-9.6c-2.6-6.9-1.7-10.5-3.9-10.5c-2,0-1,6.7-4.5,11.8c-6.7,9.4-24.6,9.1-36.6,25.7
			c-11.6,16.1-5.4,28.6-3.5,37.9c1.1,5.5,1.5,8.1,0.6,11.5c-0.8,3.2-2.8,5.9-5.6,7.6c4.3,4.7,13,4.1,16.9,1.5s7.3-8.5,6.4-18.8
			c9.2,1.1,18.5,1.5,27.8,1.3c14.6-0.5,22.5-1,27.7-2.4c-0.5,12.7,1.9,16.1,7.3,18.8c5.7,2.8,12.6,0,16.3-3.3
			C86.8-3558.9,83.7-3560.9,83-3566.6z"/>
		<path id="パス_2" class="st2" d="M19.9-3566.2c-1.8,0-3.2,1.4-3.2,3.2c0,1.8,1.4,3.2,3.2,3.2c1.8,0,3.2-1.4,3.2-3.2c0,0,0,0,0,0
			C23.1-3564.8,21.7-3566.2,19.9-3566.2z"/>
		<ellipse id="楕円形_1" class="st2" cx="56.2" cy="-3563.4" rx="3.2" ry="3.2"/>
		<path id="パス_3" class="st2" d="M42.1-3556.6c-1.2-0.4-2.4-0.6-3.6-0.7c-0.7,0-1.5,0.1-2.2,0.3c-1.6,0.4-2.9,1.6-3.6,3.1
			c-0.8,2.1,0,4.5,2,5.6l0.1,0.1l-0.1,0.1c-0.4,0.2-0.7,0.5-1,0.9c-0.8,1-1.1,2.2-0.9,3.5c0.2,1.3,1,2.4,2.1,3.1
			c1.3,0.6,2.7,1,4.1,1c1.1,0.1,2.2,0,3.2-0.4l0,0v0l0-2.2c0,0,0,0,0,0c-2.8,0.6-4.2,0.6-5.6-0.1c-0.6-0.3-1-0.9-1.2-1.6
			c-0.2-0.7,0-1.4,0.4-2c0-0.1,0.1-0.1,0.1-0.2c0.4-0.6,0.9-1.3,2.9-1.2c0.4,0,0.7,0,1,0c0.2,0,0.3,0,0.5,0c0,0,0.1,0,0.1,0
			c0,0,0-0.2,0-0.2v-0.3c0-0.1,0-0.2,0-0.3l0-1c0,0,0-0.1-0.1-0.1l-0.4,0c-1.2,0-2.4-0.2-3.5-0.6c-1.2-0.5-1.7-1.9-1.2-3
			c0,0,0-0.1,0-0.1c0.4-0.8,1.2-1.4,2.1-1.6c1.2-0.1,2.4-0.1,3.6,0.2c0.1,0,0.7,0.1,0.9,0.1l0.1-1.1
			C42.2-3555.5,42.2-3556.4,42.1-3556.6z"/>
		<path id="パス_4" class="st2" d="M42.3-3556.7L42.3-3556.7L42.3-3556.7c-2.4-0.7-3.7-1.1-6-0.5c-1.7,0.4-3,1.6-3.7,3.3
			c-0.8,2.1,0,4.6,1.9,5.8c-0.3,0.2-0.6,0.5-0.9,0.9c-0.8,1-1.1,2.3-0.9,3.6c0.3,1.3,1,2.5,2.2,3.2c1.3,0.7,2.7,1,4.2,1.1
			c0.4,0,0.7,0,0.9,0c0.8,0,1.6-0.2,2.4-0.4c0.1,0,0.1,0,0.1-0.1c0,0,0-0.1,0-0.1l0-2.3l0,0c-0.1-0.1-0.2-0.1-0.3-0.1
			c-2.7,0.6-4.1,0.6-5.5-0.1c-0.6-0.3-1-0.8-1.1-1.5c-0.2-0.6,0-1.3,0.3-1.9c0-0.1,0.1-0.1,0.1-0.2c0.4-0.6,0.8-1.2,2.7-1.1
			c0.4,0,0.7,0,1,0c0.2,0,0.3,0,0.5,0c0.1,0,0.2,0,0.2-0.1c0.1-0.1,0.1-0.2,0.1-0.4v-0.2c0-0.1,0-0.2,0-0.3l0-1
			c0-0.1-0.1-0.2-0.2-0.2l-0.4,0c-1.2,0-2.3-0.2-3.4-0.6c-1.1-0.5-1.6-1.7-1.1-2.8c0,0,0-0.1,0-0.1c0.4-0.8,1.1-1.3,2-1.4
			c1.2-0.1,2.4-0.1,3.6,0.2c1,0.2,1,0.1,1,0.1l0,0l0.1-1.2l0,0C42.3-3555.8,42.3-3556.2,42.3-3556.7z M41.1-3554.3
			c-1.2-0.3-2.4-0.3-3.6-0.2c-0.9,0.1-1.7,0.7-2.1,1.6c-0.6,1.1-0.1,2.5,1.1,3.1c0,0,0.1,0,0.1,0c1.1,0.4,2.3,0.6,3.5,0.6l0.4,0
			c0,0,0.1,0,0.1,0.1l0,1c0,0.1,0,0.2,0,0.3v0.3c0,0,0,0.2,0,0.2c0,0-0.1,0-0.1,0c-0.2,0-0.3,0-0.5,0c-0.3,0-0.6,0-1,0
			c-2-0.1-2.5,0.6-2.9,1.2c0,0.1-0.1,0.1-0.1,0.2c-0.4,0.6-0.5,1.3-0.4,2c0.1,0.7,0.6,1.3,1.2,1.6c1.4,0.7,2.8,0.7,5.6,0.1
			c0,0,0,0,0,0l0,2.2v0l0,0c-1,0.3-2.1,0.4-3.2,0.4c-1.4,0-2.8-0.4-4.1-1c-1.1-0.7-1.8-1.8-2.1-3.1c-0.2-1.2,0.1-2.5,0.9-3.5
			c0.3-0.3,0.6-0.6,1-0.9l0.1-0.1l-0.1-0.1c-2-1.1-2.8-3.5-2-5.6c0.6-1.6,1.9-2.7,3.6-3.1c0.7-0.2,1.4-0.3,2.2-0.3
			c1.2,0.1,2.5,0.3,3.6,0.7c0,0.2,0,1.1,0,1.2l-0.1,1.1C41.8-3554.2,41.2-3554.3,41.1-3554.3L41.1-3554.3z"/>
		<path id="パス_5" class="st2" d="M54.2-3545.8c-0.3,0.1-0.5,0.2-0.7,0.4c-0.1,0.2-0.3,0.2-0.5,0.2c-0.3-0.1-0.5,0-0.8,0
			c-0.7,0.2-1.1,0.9-1,1.6c0,0.1,0.1,0.2,0.1,0.3c1.1,1.1,2.9,1,3.9-0.1c0.4-0.4,0.6-0.9,0.7-1.4c0-0.1,0-0.2,0-0.3
			C55.7-3545.7,54.9-3546.1,54.2-3545.8z"/>
	</g>
</g>
</svg>
