<?xml version="1.0" encoding="utf-8"?>
<!-- Generator: Adobe Illustrator 24.2.0, SVG Export Plug-In . SVG Version: 6.00 Build 0)  -->
<svg version="1.1" id="レイヤー_1" xmlns="http://www.w3.org/2000/svg" xmlns:xlink="http://www.w3.org/1999/xlink" x="0px"
	 y="0px" viewBox="0 0 543 219.9" style="enable-background:new 0 0 543 219.9;" xml:space="preserve">
<style type="text/css">
	.st0{fill:#F8EEE4;}
	.st1{clip-path:url(#SVGID_2_);}
	.st2{opacity:0.1;}
	.st3{fill:#1A1311;}
</style>
<g id="コンポーネント_52_4" transform="translate(-12)">
	<g id="コンポーネント_55_2" transform="translate(12)">
		<g id="グループ_497">
			<path id="長方形_150-2" class="st0" d="M69,0h405c38.1,0,69,30.9,69,69v58.7c0,38.1-30.9,69-69,69H69c-38.1,0-69-30.9-69-69
				V69C0,30.9,30.9,0,69,0z"/>
			<path id="パス_618" class="st0" d="M69,167.3c3.8,13.2,13,31.3-1.3,46.5c-14.3,15.2,29.5-4.8,41.4-20.8s13.6-26.7,12.5-42.6
				C120.6,134.5,69,167.3,69,167.3z"/>
		</g>
		<g>
			<defs>
				<path id="SVGID_1_" d="M69,0h405c38.1,0,69,30.9,69,69v59c0,38.1-30.9,69-69,69H69c-38.1,0-69-30.9-69-69V69C0,30.9,30.9,0,69,0
					z"/>
			</defs>
			<clipPath id="SVGID_2_">
				<use xlink:href="#SVGID_1_"  style="overflow:visible;"/>
			</clipPath>
			<g id="マスクグループ_14" class="st1">
				<g id="グループ_522" transform="translate(424 35.866)" class="st2">
					<path id="パス_1" class="st3" d="M123.1,105.8c-0.9-8.1,2.6-11.7,4.9-25.9c3-19-5.8-30.7-12.8-37.8
						c-9.3-9.5-21.3-13.4-29.7-16.3c-9.6-3.2-14.7-6.4-16.9-12.3C65.3,4.6,66.4,0,63.6,0c-2.5,0-1.3,8.6-5.8,15
						C49.3,27.1,26.3,26.7,11,47.9C-3.9,68.6,4.1,84.6,6.5,96.5c1.4,7.1,1.9,10.4,0.7,14.7c-1.1,4.1-3.6,7.5-7.2,9.7
						c5.5,6,16.7,5.2,21.7,2s9.4-10.8,8.2-24.1c11.8,1.4,23.7,1.9,35.6,1.6c18.6-0.6,28.7-1.2,35.4-3.1c-0.7,16.3,2.5,20.6,9.4,24
						c7.3,3.6,16.1,0,20.9-4.3C128,115.7,124,113.1,123.1,105.8z"/>
					<path id="パス_2" class="st3" d="M42.4,106.3c-2.3,0-4.1,1.8-4.1,4.1s1.8,4.1,4.1,4.1c2.3,0,4.1-1.8,4.1-4.1l0,0
						C46.4,108.1,44.6,106.3,42.4,106.3z"/>
					<circle id="楕円形_1" class="st3" cx="88.8" cy="109.8" r="4.1"/>
					<path id="パス_3" class="st3" d="M70.8,118.6c-1.5-0.5-3.1-0.8-4.6-0.9c-0.9,0-1.9,0.1-2.8,0.4c-2.1,0.5-3.8,2-4.6,4
						c-1.1,2.7,0,5.8,2.5,7.2l0.2,0.1l-0.1,0.1c-0.5,0.3-0.9,0.7-1.2,1.1c-1,1.3-1.4,2.9-1.1,4.5c0.3,1.6,1.3,3,2.6,3.9
						c1.6,0.8,3.4,1.3,5.2,1.3c1.4,0.1,2.8,0,4.1-0.5l0,0v0l0-2.9c0,0,0,0-0.1,0c-3.6,0.8-5.4,0.7-7.2-0.2c-0.8-0.4-1.3-1.2-1.5-2
						c-0.2-0.9-0.1-1.8,0.5-2.6c0.1-0.1,0.1-0.2,0.2-0.3c0.5-0.7,1.1-1.6,3.7-1.5c0.5,0,0.9,0,1.3,0.1c0.2,0,0.4,0,0.7,0
						c0,0,0.1,0,0.1,0c0.1-0.1,0.1-0.2,0.1-0.3v-0.3c0-0.2,0-0.3,0-0.4l0-1.3c0,0,0-0.1-0.1-0.1l-0.4,0c-1.5,0-3-0.2-4.5-0.8
						c-1.5-0.7-2.2-2.4-1.5-3.9c0,0,0-0.1,0.1-0.1c0.5-1.1,1.5-1.8,2.7-2c1.6-0.2,3.1-0.1,4.7,0.3c0.1,0,0.9,0.1,1.1,0.1l0.2-1.5
						C70.8,120,70.8,118.9,70.8,118.6z"/>
					<path id="パス_4" class="st3" d="M71,118.5L71,118.5L71,118.5c-3-0.9-4.7-1.4-7.7-0.6c-2.1,0.6-3.9,2.1-4.7,4.2
						c-1.1,2.7,0,5.8,2.4,7.4c-0.4,0.3-0.8,0.7-1.1,1.1c-1,1.3-1.5,3-1.2,4.6c0.3,1.7,1.3,3.2,2.8,4.1c1.7,0.8,3.5,1.3,5.3,1.3
						c0.5,0,0.8,0,1.1,0c1,0,2-0.2,3-0.5c0.1,0,0.1-0.1,0.2-0.1c0-0.1,0-0.1,0-0.2l0-2.9l0-0.1c-0.1-0.1-0.2-0.2-0.3-0.1
						c-3.5,0.8-5.3,0.7-7-0.2c-0.7-0.4-1.2-1.1-1.4-1.9c-0.2-0.8-0.1-1.7,0.4-2.4c0.1-0.1,0.1-0.2,0.2-0.3c0.5-0.7,1-1.5,3.5-1.4
						c0.5,0,0.9,0,1.3,0.1c0.2,0,0.4,0,0.6,0c0.1,0,0.2,0,0.3-0.1c0.1-0.1,0.1-0.3,0.1-0.5v-0.3c0-0.2,0-0.3,0-0.4l0-1.3
						c0-0.2-0.1-0.3-0.3-0.3c-0.1,0-0.3,0-0.5,0c-1.5,0-3-0.2-4.4-0.8c-1.4-0.6-2-2.2-1.4-3.6c0,0,0-0.1,0-0.1
						c0.5-1,1.4-1.7,2.5-1.8c1.5-0.2,3.1-0.1,4.6,0.3c1.2,0.2,1.3,0.1,1.3,0.1l0,0l0.2-1.6l0,0C71.1,119.7,71.1,119.1,71,118.5z
						 M69.5,121.5c-1.5-0.3-3.1-0.4-4.7-0.3c-1.2,0.2-2.2,0.9-2.7,2c-0.7,1.5-0.1,3.2,1.4,4c0,0,0.1,0,0.1,0.1
						c1.4,0.5,2.9,0.8,4.5,0.8l0.4,0c0,0,0.1,0,0.1,0.1l0,1.3c0,0.1,0,0.3,0,0.4v0.3c0,0.1,0,0.2-0.1,0.3c0,0-0.1,0-0.1,0
						c-0.2,0-0.4,0-0.7,0c-0.4,0-0.8,0-1.3-0.1c-2.6-0.1-3.2,0.8-3.7,1.5c-0.1,0.1-0.1,0.2-0.2,0.3c-0.5,0.8-0.7,1.7-0.5,2.6
						c0.2,0.9,0.7,1.6,1.5,2c1.8,0.9,3.6,1,7.2,0.2c0,0,0,0,0.1,0l0,2.9v0l0,0c-1.3,0.4-2.7,0.6-4.1,0.5c-1.8,0-3.6-0.5-5.2-1.3
						c-1.4-0.9-2.3-2.3-2.6-3.9c-0.3-1.6,0.1-3.2,1.1-4.5c0.3-0.4,0.8-0.8,1.2-1.1l0.1-0.1l-0.2-0.1c-2.5-1.5-3.6-4.5-2.5-7.2
						c0.8-2,2.5-3.5,4.6-4c0.9-0.2,1.8-0.4,2.8-0.4c1.6,0.1,3.1,0.4,4.6,0.9c0,0.3,0,1.4,0,1.5l-0.2,1.5
						C70.4,121.6,69.6,121.5,69.5,121.5L69.5,121.5z"/>
					<path id="パス_5" class="st3" d="M86.3,132.4c-0.3,0.1-0.6,0.3-0.9,0.5c-0.2,0.2-0.4,0.3-0.7,0.2c-0.3-0.1-0.7,0-1,0.1
						c-0.9,0.2-1.5,1.1-1.3,2.1c0,0.1,0.1,0.2,0.2,0.3c0.6,0.9,2,1.3,3.5,0.8s2.5-1.6,2.4-2.7c0-0.1,0-0.2-0.1-0.4
						C88.2,132.5,87.2,132.1,86.3,132.4z"/>
				</g>
			</g>
		</g>
	</g>
</g>
</svg>
