<?xml version="1.0" encoding="utf-8"?>
<!-- Generator: Adobe Illustrator 24.2.0, SVG Export Plug-In . SVG Version: 6.00 Build 0)  -->
<svg version="1.1" id="レイヤー_1" xmlns="http://www.w3.org/2000/svg" xmlns:xlink="http://www.w3.org/1999/xlink" x="0px"
	 y="0px" viewBox="0 0 160 194" style="enable-background:new 0 0 160 194;" xml:space="preserve">
<style type="text/css">
	.st0{fill:#FFFFFF;stroke:#FFFFFF;stroke-width:0.5;}
	.st1{fill:#FFFFFF;}
</style>
<g id="グループ_111" transform="translate(0.25 0)">
	<g id="グループ_106" transform="translate(0 145.784)">
		<g id="グループ_104">
			<g id="グループ_99">
				<path id="パス_117" class="st0" d="M13.7,13.6c-0.3,0-0.3,0-0.5,0c-0.2,0-0.4-0.1-0.6-0.1s-0.1,0.4-0.2,0.6s-0.4,0.3-0.4,0.5
					c0,0.3,0.4,0.3,0.4,0.5c0,0.2-0.1,0.3,0,0.5s0.1,0.4,0.3,0.5c0.2,0.1,0.4,0.1,0.6,0c0.3,0,0.3,0.1,0.5,0.1l0.1,0
					c0.3,0,0.3-0.3,0.5-0.3s0.3,0.3,0.5,0.3s0.3-0.1,0.5-0.1s0.3-0.3,0.5-0.3c0.2,0,0.2,0.4,0.3,0.5s0.5,0.2,0.5,0.3
					c0,0.3-0.3,0.3-0.3,0.6s0.1,0.3,0.1,0.6c0,0.2,0,0.3-0.1,0.5s-0.1,0.3-0.1,0.5s0.2,0.4,0.1,0.5s0,0.3,0,0.5s-0.5,0.2-0.5,0.4
					s0,0.3,0,0.5s0.1,0.4,0,0.5s-0.4,0.1-0.5,0.3s0,0.4-0.1,0.5s-0.1,0.4-0.2,0.5s-0.3,0.2-0.4,0.3s-0.1,0.4-0.3,0.5
					s-0.3,0.2-0.4,0.3s-0.5-0.1-0.6,0S13.2,24,13,24.1s-0.3,0.2-0.4,0.3s-0.4,0-0.5,0s-0.3,0.2-0.4,0.2s-0.3-0.1-0.5-0.1
					s-0.3,0-0.5,0s-0.3,0.2-0.5,0.2s-0.3-0.1-0.5-0.1s-0.4,0-0.5,0s-0.3-0.1-0.5-0.1s-0.3-0.2-0.5-0.2s-0.5,0.2-0.6,0.1
					S7.2,24.1,7,24s-0.2-0.3-0.4-0.4s-0.4-0.1-0.6-0.2S6,23,5.9,22.9s-0.4-0.1-0.5-0.2S5.1,22.4,5,22.3S4.8,22,4.7,21.9s0-0.4,0-0.6
					s0-0.3-0.1-0.5s-0.2-0.3-0.3-0.5s0-0.3,0-0.5S4,19.5,4,19.4s0.2-0.4,0.2-0.5s0.1-0.3,0.1-0.5S3.9,18,3.9,17.8s0.3-0.3,0.3-0.5
					s0-0.3,0-0.5s-0.3-0.3-0.3-0.5s0.1-0.3,0.1-0.5s0-0.3,0-0.5s0-0.3,0-0.5s-0.3-0.3-0.3-0.5s0-0.3,0-0.5S4,13.4,4,13.3
					s0.2-0.3,0.2-0.5s-0.3-0.3-0.3-0.5S4,11.9,4,11.7S4,11.4,4,11.2s0.2-0.3,0.2-0.5s-0.1-0.3-0.1-0.5s0.2-0.3,0.2-0.5S4,9.3,4,9.2
					s0.4-0.3,0.4-0.5s0.1-0.3,0.1-0.5S4.3,7.8,4.3,7.7s0.3-0.3,0.4-0.4C4.8,7.1,4.9,7,5,6.8C5,6.7,5.1,6.5,5.2,6.4
					C5.3,6.2,5.4,6.1,5.5,6c0.1-0.1,0.2-0.3,0.3-0.4s0.3-0.2,0.5-0.3S6.5,5,6.7,4.9s0.3-0.2,0.5-0.3s0.4,0,0.5-0.1s0.3-0.3,0.4-0.3
					s0.3-0.4,0.4-0.4S8.9,4.1,9.1,4s0.3-0.3,0.5-0.3s0.4,0.2,0.5,0.2s0.3-0.3,0.5-0.3s0.3,0.1,0.5,0.1s0.3,0.3,0.5,0.3
					s0.4-0.2,0.5-0.1s0.4,0,0.5,0s0.2,0.5,0.3,0.5s0.4,0,0.5,0s0.3,0.2,0.4,0.3s0.3,0.1,0.5,0.2s0.1,0.4,0.2,0.5s0.3,0.1,0.4,0.3
					s0.4,0.1,0.5,0.3s0,0.4,0.1,0.6s0.3,0.2,0.4,0.4s0.2,0.3,0.3,0.4s-0.2,0.4-0.1,0.6c0.1,0.4,0.6,0.4,0.8,0.4
					c0.1-0.1-0.2-0.1-0.1-0.1s0.1-0.1,0.1,0l-0.1-0.2c0.2,0,0.2,0.3,0.5,0.3c0.1,0,0.3-0.1,0.5-0.1s0.3,0.1,0.5,0.1
					c0.2,0,0.4-0.3,0.5-0.3s0.1,0,0.2-0.2c0.1-0.1,0.3-0.2,0.3-0.3c0-0.2-0.4-0.3-0.5-0.4s0.1-0.4,0-0.6s0-0.4-0.1-0.5
					s-0.4-0.2-0.5-0.4s0-0.4-0.1-0.5S18.1,5.1,18,4.9s-0.3-0.2-0.4-0.4S17.5,4.2,17.4,4S17,3.9,16.9,3.8s-0.1-0.4-0.3-0.5
					s-0.4-0.1-0.5-0.2s-0.2-0.4-0.3-0.5s-0.4,0-0.6-0.1S15,2.2,14.8,2.1S14.5,2.1,14.3,2S14,1.8,13.8,1.7s-0.3-0.1-0.5-0.2
					s-0.4,0-0.5-0.1s-0.4,0.1-0.6,0.1s-0.3,0-0.5-0.1s-0.3-0.2-0.5-0.2S10.9,1,10.7,1c-0.2,0-0.4,0.1-0.5,0.1s-0.4,0-0.5,0
					S9.3,1.2,9.1,1.3s-0.3,0-0.5,0.1S8.2,1.2,8.1,1.2S7.8,1.5,7.6,1.5S7.2,1.4,7,1.5S6.8,1.8,6.6,1.8S6.4,2.2,6.2,2.3
					s-0.4,0-0.5,0.1S5.3,2.4,5.2,2.5S5.1,2.9,4.9,3S4.5,3,4.4,3.2S4.2,3.5,4.1,3.6S3.8,3.8,3.7,3.9S3.4,4.1,3.3,4.3S2.9,4.4,2.8,4.5
					S2.6,4.8,2.5,5S2.4,5.3,2.3,5.5s0,0.4-0.1,0.5S2.1,6.4,2,6.5S1.6,6.7,1.5,6.9s0.2,0.4,0.2,0.6S1.5,7.8,1.5,8
					c0,0.2-0.1,0.3-0.1,0.5s0,0.4,0,0.5s0,0.3,0,0.5s0,0.3,0,0.5s-0.1,0.3-0.1,0.5s-0.1,0.3-0.1,0.5s0.1,0.3,0.1,0.5
					s0.1,0.3,0.1,0.5s-0.3,0.3-0.3,0.5s0,0.3,0,0.5s0.3,0.3,0.3,0.5s-0.2,0.3-0.2,0.5S1,14.6,1,14.8s0.2,0.4,0.2,0.5s0,0.4,0.1,0.5
					s0.1,0.4,0.1,0.5s-0.1,0.4-0.1,0.5S1,17.3,1,17.4s0.1,0.4,0.1,0.5s0.4,0.3,0.4,0.5S1.2,18.8,1.2,19s0,0.4,0,0.5s0.2,0.3,0.3,0.5
					s-0.1,0.4-0.1,0.5s0.1,0.3,0.1,0.5s0,0.4,0,0.5s0.1,0.3,0.2,0.5s0.3,0.3,0.4,0.4s0.3,0.2,0.4,0.4s-0.1,0.4,0,0.6
					s0.3,0.2,0.4,0.4s0.3,0.2,0.4,0.3s0.2,0.3,0.3,0.4s0.1,0.4,0.2,0.5s0.3,0.2,0.4,0.3s0.4,0,0.6,0.1S5,26,5.2,26.1
					s0.3,0.1,0.5,0.2s0.3,0.1,0.5,0.2s0.4,0,0.5,0.1S6.9,27,7,27s0.4-0.3,0.6-0.2s0.3,0.4,0.4,0.4s0.3,0.1,0.5,0.1s0.4,0,0.5,0
					s0.3,0,0.5,0s0.3-0.2,0.5-0.2s0.3,0.2,0.5,0.2s0.3-0.2,0.5-0.2s0.4,0.1,0.5,0.1S12,27,12.2,27s0.4,0.2,0.6,0.2s0.3-0.3,0.4-0.3
					s0.2-0.3,0.4-0.4s0.4,0,0.5-0.1s0.4,0,0.6,0s0.1-0.4,0.3-0.5s0.3-0.1,0.5-0.2s0.4-0.1,0.5-0.2s0.1-0.4,0.2-0.5s0.3-0.2,0.4-0.3
					s0.2-0.2,0.4-0.4s0.3-0.2,0.4-0.4s0.3-0.2,0.4-0.4s0.1-0.4,0.2-0.5s0.2-0.3,0.3-0.4s0.1-0.3,0.1-0.5s0.3-0.3,0.3-0.4
					s0.1-0.3,0.2-0.5s0-0.3,0.1-0.5s0.1-0.3,0.2-0.5S19,19.8,19,19.6s0.3-0.3,0.3-0.5s0-0.4,0-0.5s0.1-0.4,0.1-0.5
					c0-0.2-0.2-0.2-0.2-0.5s0.1-0.2,0.1-0.5s-0.2-0.2-0.2-0.5s-0.1-0.2-0.1-0.5s0.2-0.2,0.2-0.5s0.1-0.2,0.1-0.5s-0.1-0.2-0.1-0.5
					c0-0.2-0.1-0.4-0.2-0.5c-0.1-0.2-0.3-0.3-0.4-0.4c-0.2-0.1-0.3,0.1-0.5,0.1c-0.3,0-0.3-0.1-0.5-0.1s-0.3,0-0.5,0
					s-0.3-0.2-0.5-0.2s-0.3,0-0.5,0s-0.3-0.1-0.5-0.1s-0.3,0.2-0.5,0.2s-0.3,0.1-0.5,0.1s-0.3-0.3-0.5-0.3L13.7,13.6z"/>
			</g>
			<g id="グループ_100" transform="translate(28.194 1.249)">
				<path id="パス_118" class="st0" d="M9.4,1.3C9.2,1.3,9,1.1,8.9,1.1S8.5,1.2,8.4,1.2S8,1,7.8,1.1S7.5,1.4,7.4,1.4s-0.3,0-0.5,0
					s-0.4,0-0.5,0.1S6,1.6,5.9,1.7S5.6,2,5.5,2.1S5.1,2.1,5,2.2S4.6,2.3,4.5,2.4S4.2,2.6,4.1,2.7C4,2.9,3.9,3.1,3.8,3.2
					S3.5,3.4,3.4,3.5S3.2,3.8,3.1,3.9S2.7,4.1,2.6,4.2S2.5,4.6,2.4,4.8S2.2,5,2.1,5.2S1.9,5.5,1.9,5.7s0,0.4,0,0.5S1.6,6.5,1.5,6.7
					S1.6,7,1.6,7.2S1.4,7.5,1.3,7.7s0,0.4,0,0.5S1.2,8.6,1.2,8.8s0.1,0.4,0.1,0.5S1,9.6,1,9.8s0.4,0.4,0.4,0.5s0,0.3,0,0.5
					s-0.2,0.3-0.2,0.5s0,0.3,0,0.5s0,0.4,0,0.5s0.2,0.4,0.2,0.5s0,0.4,0,0.5s-0.1,0.4-0.1,0.5s0.1,0.4,0.1,0.5s0,0.4,0,0.5
					S1,15.5,1,15.7s0.2,0.4,0.2,0.5s-0.1,0.4-0.1,0.5s0,0.4,0,0.5s0.2,0.3,0.2,0.5s0,0.4,0,0.5s0.1,0.3,0.2,0.5s-0.2,0.4-0.1,0.6
					s0.4,0.3,0.4,0.4S2,20.2,2,20.3s0.1,0.3,0.2,0.5s0,0.4,0.1,0.5s0.2,0.3,0.4,0.4s0,0.4,0.2,0.6s0.4,0.1,0.5,0.2s0.1,0.4,0.2,0.5
					s0.5,0,0.6,0.1s0.3,0.2,0.4,0.3s0.2,0.3,0.3,0.4s0.3,0.3,0.4,0.3S5.8,24,6,24.1s0.3,0.2,0.4,0.3s0.4,0,0.5,0s0.2,0.4,0.4,0.4
					s0.4-0.2,0.6-0.2c0.2,0,0.3,0,0.5,0.1S8.7,25,8.9,25s0.3,0.1,0.5,0.1S9.7,25,9.9,25s0.3-0.2,0.5-0.2s0.3-0.1,0.5-0.1
					s0.3-0.1,0.5-0.2s0.4,0.2,0.6,0.2s0.2-0.4,0.4-0.4s0.4,0,0.5-0.1s0.4,0.1,0.6,0s0.2-0.4,0.3-0.5s0.3-0.2,0.4-0.3
					s0.4-0.1,0.5-0.2s0.1-0.4,0.2-0.5s0.4-0.1,0.5-0.2s0.3-0.2,0.4-0.3s0-0.4,0.1-0.6s0.3-0.2,0.4-0.3s0-0.4,0.1-0.6
					s0.2-0.3,0.3-0.4s0-0.4,0.1-0.5s0-0.3,0.1-0.5s0.2-0.3,0.3-0.5s0.1-0.3,0.2-0.5s0.1-0.3,0.1-0.5s-0.2-0.4-0.2-0.5
					s0.1-0.3,0.1-0.5s0.1-0.3,0.2-0.5s0-0.4,0-0.5s-0.2-0.4-0.2-0.5s0.3-0.3,0.3-0.5s0-0.4,0-0.5s-0.3-0.4-0.3-0.5s-0.1-0.4-0.1-0.5
					s0-0.4,0-0.5s0-0.4,0-0.5s0.1-0.4,0.1-0.5s0.2-0.4,0.2-0.5s0-0.4,0-0.5s0-0.4,0-0.5s-0.1-0.4-0.1-0.5s0.1-0.4,0.1-0.5
					s-0.3-0.3-0.4-0.5s0.1-0.4,0-0.5s0.1-0.4,0.1-0.6s0-0.4,0-0.5S17,6.4,17,6.2s0.1-0.4,0.1-0.6s-0.2-0.3-0.3-0.5s-0.3-0.2-0.4-0.4
					S16,4.6,15.9,4.4s0-0.5-0.1-0.6s-0.3-0.2-0.4-0.4s-0.4-0.1-0.5-0.2s-0.2-0.3-0.3-0.4s-0.3-0.1-0.5-0.2s-0.2-0.2-0.4-0.3
					s-0.3-0.1-0.5-0.2S13,1.9,12.8,1.9s-0.2-0.4-0.4-0.4S12,1.6,11.9,1.5s-0.3,0-0.5,0s-0.3-0.4-0.4-0.4s-0.4,0.2-0.5,0.2
					S10.1,1,9.9,1S9.5,1.3,9.4,1.3z M9.4,22.8c-0.2,0-0.3-0.2-0.5-0.2s-0.3,0-0.5,0s-0.3-0.2-0.4-0.3c-0.2,0-0.4,0.1-0.5,0.1
					S7.1,22.2,7,22.1s-0.2-0.2-0.4-0.3s-0.3-0.2-0.4-0.3s-0.4,0-0.5-0.1S5.5,21.1,5.4,21s-0.2-0.3-0.3-0.5c-0.1-0.1-0.2-0.3-0.3-0.4
					c-0.1-0.1-0.3-0.2-0.4-0.4c-0.1-0.2-0.1-0.3-0.2-0.5c-0.1-0.2-0.1-0.3-0.2-0.5c0-0.2,0.1-0.4,0.1-0.5s-0.2-0.3-0.2-0.5
					s0-0.3,0-0.5s0-0.3,0-0.5s-0.2-0.3-0.2-0.5s0.1-0.3,0.1-0.5s-0.2-0.3-0.2-0.5s0.2-0.3,0.2-0.5s-0.1-0.3-0.1-0.5s0.1-0.3,0.1-0.5
					S3.7,13.2,3.7,13s0.3-0.4,0.3-0.5S3.6,12.1,3.6,12s0-0.4,0-0.5s0.2-0.4,0.3-0.5s0-0.4,0-0.5s0-0.4,0-0.5S3.7,9.5,3.7,9.4
					s0-0.4,0.1-0.5s0.1-0.3,0.1-0.5s0-0.4,0-0.5C3.9,7.6,4,7.4,4,7.3S4.3,7,4.4,6.8s0-0.4,0-0.5C4.5,6.2,4.6,6,4.7,5.9
					C4.9,5.8,5,5.6,5.1,5.5C5.2,5.4,5.2,5.1,5.3,5s0.3-0.2,0.4-0.3s0.2-0.3,0.4-0.4s0.4,0,0.5-0.1s0.2-0.4,0.3-0.5s0.3-0.1,0.5-0.2
					s0.3-0.1,0.5-0.1c0.2,0,0.4,0.1,0.5,0s0.3-0.1,0.5-0.1s0.3,0.2,0.5,0.2s0.3-0.2,0.5-0.2s0.3,0.3,0.5,0.3s0.4-0.2,0.5-0.2
					s0.3,0.1,0.5,0.1s0.2,0.3,0.4,0.4s0.2,0.2,0.4,0.3s0.5-0.1,0.6,0s0.2,0.3,0.3,0.4s0.3,0.1,0.5,0.3s0,0.5,0.1,0.6
					s0.5,0.1,0.6,0.2c0.1,0.2,0.2,0.3,0.3,0.5c0.1,0.2-0.1,0.4,0,0.6s0.1,0.3,0.1,0.5s0.1,0.3,0.2,0.5s0.2,0.3,0.2,0.5
					s0.1,0.3,0.1,0.5s0.1,0.3,0.1,0.5s-0.3,0.4-0.3,0.5s0.3,0.3,0.3,0.5s-0.1,0.3-0.1,0.5s-0.3,0.3-0.3,0.5S15,11.8,15,12
					s0,0.3,0,0.5s-0.2,0.3-0.2,0.5s0.2,0.4,0.2,0.5s-0.2,0.4-0.2,0.5s-0.1,0.4-0.1,0.5s0.3,0.4,0.3,0.5s-0.2,0.3-0.2,0.5
					s0.2,0.4,0.2,0.5S15,16.5,15,16.7s0.1,0.4,0,0.5s0,0.4,0,0.5s-0.2,0.3-0.2,0.5c0,0.2-0.2,0.3-0.2,0.5s-0.1,0.3-0.2,0.5
					s0.1,0.4,0,0.6c-0.1,0.1-0.2,0.3-0.3,0.4c-0.1,0.1-0.3,0.2-0.4,0.3s-0.2,0.3-0.3,0.4s-0.1,0.4-0.2,0.5s-0.4,0-0.6,0.1
					s-0.3,0.2-0.4,0.2s-0.2,0.4-0.3,0.5s-0.3,0.2-0.4,0.3s-0.3,0.1-0.5,0.1s-0.3,0.1-0.5,0.1s-0.4-0.1-0.5-0.1S9.5,22.8,9.4,22.8
					L9.4,22.8z"/>
			</g>
			<g id="グループ_101" transform="translate(53.997 0.654)">
				<path id="パス_119" class="st0" d="M10.1,1C10,1,9.8,1.1,9.6,1.1s-0.3,0-0.5,0S8.8,1.4,8.6,1.4S8.2,1.2,8.1,1.2
					c-0.2,0-0.3,0.3-0.5,0.3S7.3,1.7,7.1,1.7S6.8,1.9,6.7,1.9S6.4,2.1,6.2,2.2s-0.4-0.1-0.6,0S5.5,2.5,5.3,2.6s-0.4,0-0.5,0.1
					S4.6,3.1,4.5,3.2s-0.5,0-0.6,0.1C3.8,3.4,3.8,3.7,3.7,3.8S3.2,3.9,3.1,4S3,4.4,2.9,4.5S2.6,4.7,2.5,4.8S2.3,5.2,2.2,5.3
					S2,5.6,1.9,5.8s0.1,0.4,0,0.6S1.6,6.6,1.5,6.8s0,0.4-0.1,0.5s0,0.3-0.1,0.5c0,0.2-0.2,0.3-0.2,0.5s0,0.4,0,0.5s0.3,0.4,0.3,0.6
					S1.1,9.7,1.1,9.9s0.1,0.3,0.1,0.5s0.2,0.4,0.2,0.5s-0.1,0.3-0.1,0.5S1,11.9,1,12s0.1,0.3,0.1,0.5S1,12.9,1,13.1s0,0.3,0,0.5
					s0,0.4,0,0.5s0.1,0.4,0.1,0.5S1,15,1,15.2s0,0.4,0,0.5s0.4,0.3,0.4,0.5s-0.2,0.4-0.2,0.5s0,0.4,0,0.5s0.1,0.4,0.1,0.5
					s0,0.4,0,0.5s0.3,0.3,0.3,0.5s-0.2,0.4-0.2,0.6s0.2,0.3,0.3,0.5s-0.1,0.4,0,0.5s0.1,0.3,0.1,0.5s0.1,0.3,0.2,0.5
					c0.1,0.2,0.4,0.2,0.5,0.3s0,0.4,0.1,0.6s0.2,0.3,0.3,0.4s0.2,0.3,0.3,0.5s0.3,0.2,0.5,0.3s0.3,0.2,0.4,0.3
					c0.1,0.1,0.3,0.1,0.5,0.2s0.2,0.3,0.3,0.4s0.3,0.2,0.4,0.3s0.4,0,0.5,0.1S6.1,25,6.2,25s0.2,0.5,0.3,0.5s0.4,0,0.5,0.1
					s0.3,0.1,0.5,0.1S7.9,26,8.1,26c0.2,0,0.3,0.1,0.5,0.1s0.4-0.3,0.5-0.2s0.3,0.3,0.5,0.3s0.4,0,0.5,0s0.3-0.2,0.5-0.3
					s0.4,0.1,0.5,0.1s0.3-0.3,0.5-0.3s0.4,0.1,0.5,0.1s0.3-0.3,0.5-0.3s0.3,0,0.5-0.1s0.4,0.2,0.6,0.1s0.3-0.2,0.5-0.3
					s0.2-0.3,0.4-0.4s0.3-0.2,0.4-0.3s0.4,0,0.5-0.1s0.3-0.2,0.5-0.3s0.1-0.4,0.2-0.6s0.3-0.2,0.4-0.3s0.5,0,0.6-0.1
					s0.2-0.3,0.3-0.4s0.3-0.3,0.4-0.4s0.1-0.4,0.2-0.5s0-0.4,0.1-0.5s0.1-0.3,0.2-0.5s0.1-0.3,0.2-0.5s0.2-0.3,0.3-0.5
					s0.2-0.3,0.2-0.5s-0.2-0.4-0.2-0.6s0.1-0.3,0.1-0.5s0.2-0.3,0.2-0.5s0-0.3,0.1-0.5s-0.1-0.4-0.1-0.5s0-0.3,0-0.5
					s0.1-0.3,0.1-0.5s-0.1-0.4-0.1-0.5s0.1-0.3,0.1-0.5s-0.1-0.3-0.1-0.5S19,13.8,19,13.6s0.1-0.4,0.1-0.5s0-0.4,0-0.5s0-0.4,0-0.5
					s0.3-0.4,0.3-0.5s-0.4-0.4-0.4-0.5s-0.1-0.4-0.1-0.5s0.3-0.4,0.3-0.5s0-0.4,0-0.5S19.2,9,19.1,8.9s0-0.4,0-0.5S18.7,8,18.7,7.9
					c0-0.2,0-0.4,0-0.5S18.6,7,18.6,6.8s0-0.4,0-0.5s-0.4-0.2-0.5-0.4S18,5.6,17.9,5.4s0-0.4-0.1-0.6s-0.2-0.3-0.3-0.4
					S17.3,4.1,17.2,4s-0.5,0-0.6-0.1s-0.1-0.4-0.2-0.5s-0.4,0-0.5-0.2s-0.2-0.4-0.3-0.5S15.1,2.7,15,2.7s-0.1-0.5-0.3-0.6
					s-0.4,0.1-0.6,0S13.8,2,13.6,2s-0.3-0.1-0.5-0.2s-0.3-0.2-0.5-0.2s-0.3-0.4-0.4-0.4s-0.4,0.1-0.5,0.1s-0.3,0-0.5,0
					s-0.3-0.1-0.5-0.1S10.3,1,10.1,1z M10.1,23.4c-0.2,0-0.4,0.1-0.5,0.1s-0.3,0-0.5-0.1s-0.4,0.1-0.6,0.1S8.3,23.1,8.1,23
					c-0.2-0.1-0.4,0.1-0.6,0S7.2,22.9,7,22.9s-0.3-0.1-0.5-0.2s-0.3-0.2-0.5-0.3s-0.1-0.4-0.2-0.5s-0.4-0.1-0.5-0.2
					s-0.1-0.4-0.2-0.5s-0.4-0.2-0.5-0.3s0.1-0.4,0-0.6s-0.3-0.3-0.3-0.4s0.1-0.4,0.1-0.5s-0.2-0.3-0.2-0.5s0.1-0.3,0.1-0.5
					s-0.1-0.3-0.1-0.5s0.1-0.3,0.1-0.5S4,16.9,4,16.7s0.2-0.3,0.2-0.5s-0.1-0.3-0.1-0.5s0-0.3,0-0.5s0.1-0.3,0.1-0.5
					s-0.1-0.3-0.1-0.5s-0.4-0.3-0.4-0.5s0.3-0.3,0.3-0.5S4,12.8,4,12.6s-0.2-0.3-0.2-0.5S4,11.7,4,11.6s0.2-0.3,0.2-0.5
					s-0.1-0.3-0.1-0.5s0.1-0.3,0.1-0.5s0-0.3,0-0.5s0-0.3,0-0.5s0-0.4,0-0.5S4.4,8.2,4.5,8c0-0.2,0.1-0.3,0.1-0.5S4.4,7.1,4.4,6.9
					s0.4-0.2,0.5-0.4C5,6.4,5.1,6.3,5.2,6.2C5.3,6,5.3,5.9,5.4,5.7c0.1-0.1,0.2-0.2,0.4-0.4S5.9,5,6.1,4.9s0.4,0,0.6-0.1
					S6.9,4.4,7,4.3s0.4,0,0.5-0.1s0.3-0.1,0.5-0.2C8.2,4,8.4,4,8.6,4s0.3-0.4,0.5-0.4s0.4,0.2,0.6,0.2s0.3,0,0.5,0s0.3,0.1,0.5,0.1
					s0.4-0.1,0.5-0.1s0.4,0,0.5,0s0.4,0,0.5,0.1s0.3,0.3,0.4,0.3s0.3,0.2,0.5,0.3s0.4,0,0.6,0.1s0.4,0.1,0.5,0.3s0,0.5,0.2,0.6
					s0.3,0.2,0.4,0.3C15,5.9,15.1,6,15.2,6.1c0.1,0.1,0,0.4,0.1,0.5c0.1,0.1,0.1,0.3,0.2,0.4c0.1,0.2,0.4,0.2,0.5,0.4
					S15.8,7.9,15.8,8c0,0.2,0.1,0.3,0.1,0.5s0.3,0.3,0.3,0.5s-0.1,0.3-0.1,0.5s0.3,0.3,0.3,0.5s-0.2,0.3-0.2,0.5s0.2,0.3,0.2,0.5
					s-0.1,0.3-0.1,0.5s-0.3,0.3-0.3,0.5s0.1,0.3,0.1,0.5s0.2,0.3,0.2,0.5s0,0.3,0,0.5s-0.2,0.3-0.2,0.5s-0.1,0.3-0.1,0.5
					s0.3,0.4,0.3,0.5s0,0.3,0,0.5s-0.4,0.3-0.4,0.5s0,0.3,0,0.5s-0.1,0.3-0.1,0.5s0.1,0.4,0.1,0.5s0.1,0.4,0.1,0.5s0,0.4-0.1,0.5
					s-0.1,0.3-0.1,0.5s-0.2,0.3-0.3,0.5s-0.2,0.3-0.3,0.4s0.1,0.4,0,0.6c-0.1,0.1-0.2,0.3-0.3,0.4c-0.1,0.1-0.3,0.2-0.4,0.3
					s-0.2,0.2-0.4,0.3s-0.2,0.3-0.3,0.4s-0.3,0.2-0.4,0.3s-0.4,0.1-0.5,0.2S12.9,23,12.8,23s-0.4,0-0.5,0.1s-0.3,0.2-0.5,0.3
					s-0.3,0.1-0.5,0.2s-0.4,0-0.5,0S10.3,23.4,10.1,23.4L10.1,23.4z"/>
			</g>
			<g id="グループ_102" transform="translate(111.137 1.188)">
				<path id="パス_120" class="st0" d="M17.8,1c-0.4,0-0.4,0-0.8,0c-0.2,0-0.5-0.1-0.6,0s-0.2,0.4-0.3,0.5s-0.3,0.3-0.3,0.5
					c0,0.3,0.2,0.3,0.2,0.5S16,2.9,16,3.2s-0.1,0.3-0.1,0.5s0.2,0.3,0.2,0.5s-0.1,0.3-0.1,0.5s0.1,0.3,0.1,0.5s0,0.3,0,0.5
					s0,0.3,0,0.5s0,0.3,0,0.5s0,0.3,0,0.5s-0.2,0.3-0.2,0.5c0,0.3-0.2,0.3-0.2,0.5s0.1,0.3,0.1,0.5s0,0.3,0,0.5s0.2,0.3,0.2,0.5
					s-0.2,0.3-0.2,0.5s0.1,0.3,0.1,0.5c0,0.2-0.2,0.2-0.3,0.3s-0.2,0.2-0.3,0.2c-0.3,0-0.3-0.1-0.5-0.1s-0.3,0.1-0.5,0.1
					s-0.3-0.1-0.5-0.1s-0.3,0.3-0.5,0.3s-0.3-0.1-0.5-0.1s-0.3,0-0.5,0s-0.3-0.1-0.5-0.1s-0.3,0.3-0.5,0.3s-0.3-0.2-0.5-0.2
					s-0.3,0.1-0.5,0.1s-0.3-0.1-0.5-0.1s-0.3-0.1-0.5-0.1S9,11.6,8.7,11.6s-0.3,0.3-0.5,0.3s-0.3-0.3-0.5-0.3s-0.3,0.2-0.5,0.2
					s-0.3-0.3-0.5-0.3s-0.3,0.1-0.5,0.1s-0.3-0.1-0.5-0.1s-0.3,0.2-0.5,0.2s-0.3,0-0.5,0c-0.2,0-0.3-0.1-0.4-0.2
					c-0.1-0.1-0.4-0.3-0.4-0.4c0-0.3,0.3-0.3,0.3-0.5S3.8,10.3,3.8,10s0.4-0.3,0.4-0.5s0-0.3,0-0.5s0-0.3,0-0.5S4,8.2,4,7.9
					c0-0.3,0.1-0.3,0.1-0.5s0-0.3,0-0.5S3.9,6.6,3.9,6.3s0.3-0.3,0.3-0.5s0-0.3,0-0.5S3.9,5,3.9,4.8s0.2-0.3,0.2-0.5S3.9,4,3.9,3.7
					s0.2-0.3,0.2-0.5s0-0.3,0-0.5s0.1-0.3,0.1-0.5c0-0.2-0.3-0.3-0.4-0.5S3.5,1.5,3.4,1.4S3.1,1.2,2.9,1.2c-0.4,0-0.4-0.1-0.7-0.1
					C2,1.1,1.9,1.3,1.8,1.4s-0.5,0-0.6,0.1C1.1,1.7,1,1.9,1,2.1c0,0.3,0.2,0.3,0.2,0.5s0,0.3,0,0.5S1.1,3.4,1.1,3.7s0.1,0.3,0.1,0.5
					s0,0.3,0,0.5s0,0.3,0,0.5s0,0.3,0,0.5S1.2,6,1.2,6.3S1,6.5,1,6.8s0,0.3,0,0.5s0.3,0.3,0.3,0.5c0,0.3-0.2,0.3-0.2,0.5
					S1,8.6,1,8.9s0.1,0.3,0.1,0.5s0,0.3,0,0.5S1,10.2,1,10.5s0,0.3,0,0.5s0.2,0.3,0.2,0.5s0,0.3,0,0.5S1,12.3,1,12.5
					s0.2,0.3,0.2,0.5S1,13.3,1,13.6s0.3,0.3,0.3,0.5s0,0.3,0,0.5s-0.1,0.3-0.1,0.5s0.1,0.3,0.1,0.5s0.1,0.3,0.1,0.5
					s-0.1,0.3-0.1,0.5s0,0.3,0,0.5s0.1,0.3,0.1,0.5S1.2,18,1.2,18.3s0.2,0.3,0.2,0.5S1,19.1,1,19.3s0.3,0.3,0.3,0.5
					s-0.2,0.3-0.2,0.5s0.2,0.3,0.2,0.5s-0.1,0.3-0.1,0.5V22c0,0.3-0.2,0.3-0.2,0.5s0.1,0.3,0.1,0.5s0.1,0.3,0.1,0.5
					s-0.1,0.3-0.1,0.5c0,0.2,0.1,0.4,0.2,0.5c0.1,0.2,0.1,0.4,0.3,0.5c0.2,0.1,0.4,0.1,0.6,0.1c0.4,0,0.4,0,0.7,0
					c0.2,0,0.3-0.3,0.4-0.4s0.4-0.1,0.5-0.2s0.4-0.3,0.4-0.5c0-0.3-0.1-0.3-0.1-0.5s0-0.3,0-0.5s-0.3-0.3-0.3-0.5s0-0.3,0-0.5
					s0.3-0.3,0.3-0.5s0-0.3,0-0.5s-0.2-0.3-0.2-0.5S3.8,20.2,3.8,20s0.3-0.3,0.3-0.5s0-0.3,0-0.5S4,18.7,4,18.5s0.1-0.3,0.1-0.5
					s0-0.3,0-0.5s0-0.3,0-0.5s-0.2-0.3-0.2-0.5S4,16.2,4,15.9s0-0.3,0-0.5s0.1-0.3,0.1-0.5c0-0.2-0.2-0.4-0.1-0.5s0.4,0,0.5,0
					c0.3,0,0.3-0.1,0.5-0.1s0.3,0.2,0.5,0.2s0.3-0.2,0.5-0.2s0.3-0.1,0.5-0.1s0.3,0.2,0.5,0.2s0.3,0,0.5,0s0.3-0.2,0.5-0.2
					s0.3,0.2,0.5,0.2s0.3,0,0.5,0s0.3,0.1,0.5,0.1s0.3-0.1,0.5-0.1s0.3-0.1,0.5-0.1s0.3,0.3,0.5,0.3s0.3-0.3,0.5-0.3
					s0.3,0.2,0.5,0.2s0.3-0.1,0.5-0.1s0.3,0.2,0.5,0.2s0.3-0.2,0.5-0.2s0.3,0.1,0.5,0.1s0.3,0,0.5,0s0.3-0.2,0.5-0.2
					c0.2,0,0.3,0.1,0.5,0.2c0.1,0.1,0.2,0.3,0.2,0.5c0,0.3,0,0.3,0,0.5s0,0.3,0,0.5S16,16.2,16,16.4s-0.1,0.3-0.1,0.5
					s0.3,0.3,0.3,0.5S16,17.7,16,17.9s-0.2,0.3-0.2,0.5S16,18.7,16,19s-0.1,0.3-0.1,0.5s0.1,0.3,0.1,0.5s0.1,0.3,0.1,0.5
					S16,20.7,16,21s-0.3,0.3-0.3,0.5s0.1,0.3,0.1,0.5s0.1,0.3,0.1,0.5s0.1,0.3,0.1,0.5s-0.2,0.3-0.2,0.5s0.1,0.3,0.1,0.5
					c0,0.2-0.1,0.4,0,0.6c0.1,0.2,0.3,0.3,0.4,0.4c0.2,0.1,0.4,0,0.6,0c0.4,0,0.4,0.2,0.8,0.2c0.2,0,0.4-0.1,0.6-0.2
					c0.4-0.2,0.6-0.6,0.6-1c0-0.3-0.2-0.3-0.2-0.5s0.2-0.3,0.2-0.5s0-0.3,0-0.5s-0.1-0.3-0.1-0.5s-0.2-0.3-0.2-0.5s0.2-0.3,0.2-0.5
					s-0.2-0.3-0.2-0.5s0.2-0.3,0.2-0.5s0.1-0.3,0.1-0.5s0-0.3,0-0.5s-0.2-0.3-0.2-0.5s0.1-0.3,0.1-0.5s0.2-0.3,0.2-0.5
					S19,17,19,16.8s-0.2-0.3-0.2-0.5s0.1-0.3,0.1-0.5s-0.1-0.3-0.1-0.5s0-0.3,0-0.5s0.1-0.3,0.1-0.5s0-0.3,0-0.5s-0.1-0.3-0.1-0.5
					s0.1-0.3,0.1-0.5s0.1-0.3,0.1-0.5s0.1-0.3,0.1-0.5s-0.2-0.3-0.2-0.5s0.1-0.3,0.1-0.5s0.1-0.3,0.1-0.5s0.1-0.3,0.1-0.5
					s-0.1-0.3-0.1-0.5S19,8.7,19,8.4s-0.1-0.3-0.1-0.5c0-0.3,0.1-0.3,0.1-0.5s-0.3-0.3-0.3-0.5S19,6.6,19,6.3s-0.1-0.3-0.1-0.5
					s0-0.3,0-0.5S18.8,5,18.8,4.7s-0.2-0.3-0.2-0.5s0-0.3,0-0.5S19,3.4,19,3.2s-0.2-0.3-0.2-0.5s-0.1-0.3-0.1-0.5
					c0-0.2,0.2-0.4,0.1-0.6c-0.1-0.2-0.2-0.3-0.4-0.4C18.2,1,18,1,17.8,1z"/>
			</g>
			<g id="グループ_103" transform="translate(139.14 1.078)">
				<path id="パス_121" class="st0" d="M18.1,1c-0.4,0-0.4,0.1-0.7,0.1c-0.2,0-0.4,0.1-0.6,0.2c-0.2,0.1-0.1,0.4-0.2,0.5
					S16.3,2,16.3,2.2c0,0.3,0.1,0.3,0.1,0.5s0.1,0.3,0.1,0.5s-0.3,0.3-0.3,0.5s0.3,0.3,0.3,0.5s-0.2,0.3-0.2,0.5s0,0.3,0,0.5
					s0.3,0.3,0.3,0.5s-0.2,0.3-0.2,0.5s0,0.3,0,0.5s-0.2,0.3-0.2,0.5s0.3,0.3,0.3,0.5c0,0.3,0,0.3,0,0.5S16.4,8.7,16.4,9
					s0,0.3,0,0.5s-0.1,0.3-0.1,0.5s0.1,0.3,0.1,0.5s0,0.3,0,0.5s-0.1,0.3-0.1,0.5s0,0.3,0,0.5s0.3,0.3,0.3,0.5s-0.4,0.3-0.4,0.5
					s0.2,0.3,0.2,0.5s-0.2,0.3-0.2,0.5s0.3,0.3,0.3,0.5s-0.1,0.3-0.1,0.5s0.1,0.3,0.1,0.5s-0.3,0.3-0.3,0.5s0.1,0.3,0.1,0.5
					s0.2,0.3,0.2,0.5c0,0.2,0,0.4,0,0.5s0,0.4-0.1,0.5s0.1,0.4,0.1,0.6s-0.4,0.3-0.5,0.4s0.2,0.4,0.2,0.6s-0.5,0.2-0.6,0.3
					s0,0.4-0.1,0.5c-0.1,0.1-0.2,0.3-0.3,0.4c-0.1,0.1-0.1,0.4-0.2,0.5s-0.1,0.4-0.2,0.5s-0.3,0.2-0.5,0.3s-0.4,0-0.5,0.1
					S13.4,23,13.2,23s-0.3,0.1-0.5,0.2s-0.4,0-0.5,0s-0.3,0.1-0.5,0.2s-0.3,0.3-0.5,0.3s-0.4-0.1-0.5-0.1s-0.3,0.1-0.5,0.1
					s-0.4,0-0.5,0s-0.3-0.3-0.5-0.3s-0.3,0-0.5-0.1s-0.4,0.1-0.5,0c-0.2-0.1-0.3-0.2-0.5-0.3s-0.3-0.3-0.4-0.3s-0.4,0-0.5-0.1
					s-0.4,0-0.6-0.1s-0.2-0.3-0.3-0.5s-0.3-0.2-0.4-0.3S5.1,21.6,5,21.4S4.9,21,4.8,20.9s-0.1-0.4-0.1-0.5s-0.3-0.3-0.3-0.4
					s-0.1-0.3-0.2-0.5S4.1,19.1,4,18.9s0-0.4,0-0.5s0.3-0.4,0.3-0.5s-0.3-0.3-0.3-0.5c0-0.3,0.1-0.3,0.1-0.5s-0.2-0.3-0.2-0.5
					S4,16,4,15.7s0-0.3,0-0.5s0-0.3,0-0.5s0.2-0.3,0.2-0.5s0-0.3,0-0.5v-0.5c0-0.3-0.2-0.3-0.2-0.5s0-0.3,0-0.5s0-0.3,0-0.5
					s0-0.3,0-0.5s0.2-0.3,0.2-0.5S4,10.2,4,9.9S3.9,9.7,3.9,9.4S4,9.2,4,8.9s0.1-0.3,0.1-0.5S3.9,8.1,3.9,7.8C3.9,7.6,4,7.6,4,7.3
					S4,7,4,6.8S3.9,6.5,3.9,6.3S3.8,6,3.8,5.7s0.4-0.3,0.4-0.5S4.1,4.9,4.1,4.7S4.1,4.4,4.1,4.1S3.9,3.9,3.9,3.6s0.2-0.3,0.2-0.5
					c0-0.2-0.2-0.3-0.3-0.4C3.7,2.5,3.6,2.4,3.4,2.3C3.3,2.2,3.2,2,3,2C2.6,2,2.6,2.2,2.2,2.2c-0.2,0-0.4-0.1-0.5,0S1.6,2.5,1.5,2.6
					C1.4,2.8,1.3,2.9,1.3,3.1c0,0.3-0.2,0.3-0.2,0.5s0,0.3,0,0.5S1,4.4,1,4.6s0,0.3,0,0.5s0.2,0.3,0.2,0.5S1,5.9,1,6.2
					s0.3,0.3,0.3,0.5S1.3,7,1.3,7.2S1.2,7.5,1.2,7.7S1,8,1,8.2c0,0.3,0.2,0.3,0.2,0.5S1,9,1,9.3s0.1,0.3,0.1,0.5s0,0.3,0,0.5
					s0.2,0.3,0.2,0.5s0.1,0.3,0.1,0.5s-0.2,0.3-0.2,0.5s0.2,0.3,0.2,0.5s-0.3,0.3-0.3,0.5s0.2,0.3,0.2,0.5S1,13.7,1,13.9
					s0.1,0.3,0.1,0.5S1,14.7,1,15s0.1,0.3,0.1,0.5s0.2,0.3,0.2,0.5s-0.1,0.3-0.1,0.5S1.1,16.8,1.1,17s0,0.3,0,0.5
					c0,0.2,0.3,0.3,0.3,0.5s0,0.3,0,0.5s-0.2,0.4-0.1,0.5s0,0.4,0,0.5s0.4,0.3,0.4,0.4s-0.1,0.4,0,0.6s0.3,0.2,0.4,0.4
					c0.1,0.2,0,0.4,0.1,0.5s0.3,0.2,0.4,0.4s0.2,0.3,0.3,0.4s0,0.4,0.1,0.5s0.4,0.1,0.5,0.3s0.2,0.3,0.3,0.4s0,0.5,0.2,0.6
					s0.3,0.2,0.5,0.3s0.3,0.2,0.4,0.3S5,25,5.2,25.1s0.4,0,0.5,0.1s0.2,0.3,0.4,0.4s0.3,0.2,0.5,0.3s0.4-0.2,0.6-0.1
					s0.3,0.3,0.4,0.4S8,25.9,8.1,26c0.2,0,0.3,0,0.5,0s0.3,0.3,0.5,0.3s0.4-0.1,0.5-0.1s0.3,0.1,0.5,0.1s0.3-0.2,0.5-0.2
					s0.3,0.1,0.5,0.1s0.4,0.2,0.5,0.2s0.4-0.1,0.5-0.1s0.3-0.1,0.5-0.1s0.3-0.3,0.4-0.3s0.3-0.1,0.5-0.2s0.3-0.1,0.5-0.1
					s0.4,0,0.6,0s0.1-0.5,0.3-0.6s0.3-0.1,0.4-0.2s0.4,0,0.5-0.1s0.1-0.4,0.3-0.5s0.2-0.3,0.3-0.4s0.3-0.2,0.4-0.3s0.3-0.2,0.4-0.4
					s0.3-0.2,0.4-0.4s0.1-0.4,0.2-0.5s0.1-0.3,0.2-0.5s0.1-0.3,0.2-0.5s0.2-0.3,0.3-0.5s0.2-0.3,0.3-0.5s-0.2-0.4-0.1-0.6
					s0.2-0.3,0.2-0.5s0.1-0.3,0.1-0.5s0.2-0.3,0.2-0.5S19,17.7,19,17.6c0-0.3,0.3-0.3,0.3-0.5s0-0.3,0-0.5S19,16.3,19,16
					s0-0.3,0-0.5S19,15.3,19,15s0.1-0.3,0.1-0.5s0-0.3,0-0.5s0.2-0.3,0.2-0.5s-0.1-0.3-0.1-0.5s-0.1-0.3-0.1-0.5S19,12.2,19,11.9
					s0.2-0.3,0.2-0.5s0.1-0.3,0.1-0.5s-0.2-0.3-0.2-0.5s0-0.3,0-0.5s0.1-0.3,0.1-0.5s-0.1-0.3-0.1-0.5s0.1-0.3,0.1-0.5
					s-0.2-0.3-0.2-0.5c0-0.3,0-0.3,0-0.5S19,7.1,19,6.8s0.3-0.3,0.3-0.5s0.1-0.3,0.1-0.5s-0.3-0.3-0.3-0.5S19,5,19,4.8s0-0.3,0-0.5
					s0.3-0.3,0.3-0.5S19,3.5,19,3.2s0.2-0.3,0.2-0.5s0.1-0.3,0.1-0.5C19.2,1.6,18.7,1.1,18.1,1L18.1,1z"/>
			</g>
			<path id="パス_122" class="st0" d="M98.4,19.2l0,0.3l-0.1,0.3l0,0.3l-0.2,0.3l-0.1,0.3l0.2,0.4l-0.5,0.2l0,0.4l-0.2,0.3
				l-0.3,0.2l-0.2,0.2v0.5l-0.4,0.1l-0.2,0.2l-0.3,0.2l-0.3,0.1l-0.2,0.3l-0.3,0.1L95,23.9l-0.3,0l-0.3,0.1L94,24.2l-0.3-0.1l-0.3,0
				L93,24.2L92.7,24l-0.3,0.2l-0.3-0.1l-0.3,0.2h-0.3l-0.3,0l-0.3-0.2l-0.3,0.1l-0.3,0L89.8,24l-0.3,0.1l-0.3-0.1l-0.3,0.2l-0.3-0.1
				l-0.3-0.1l-0.4,0l-0.1-0.4l-0.4,0l-0.1-0.3V23l-0.1-0.3l0.1-0.3l-0.2-0.3l0-0.3l0.1-0.3l-0.1-0.3l0-0.3l0-0.3l0-0.3l0.2-0.3
				l-0.3-0.3l0.3-0.3l0-0.3l-0.3-0.3l0.1-0.3l0.1-0.3l0.1-0.3l0.1-0.3L87.1,17l0.1-0.3l-0.1-0.3l0.1-0.3l-0.1-0.3l-0.3-0.3l0.3-0.3
				l-0.1-0.3l0.1-0.3l0-0.3L87,13.8l0.3-0.3l-0.3-0.3l0.1-0.3l0-0.3l0-0.3l0.2-0.3l-0.2-0.3l0.1-0.3l0-0.3l-0.1-0.3l-0.1-0.3l0-0.3
				L87,9.7l0.1-0.3l0-0.3l0.1-0.3l0-0.3l0-0.3l0-0.3l-0.2-0.3l0.2-0.3l0.1-0.3l0-0.3l0-0.3l-0.3-0.3L87,5.5l0.2-0.3l0.1-0.3l0.3-0.2
				l0.3,0l0.3-0.1l0.3-0.2l0.3-0.1l0.3,0.2l0.3-0.2l0.3,0.2l0.3-0.1l0.3,0l0.3-0.1l0.3,0.2l0.3,0l0.3,0l0.3-0.3l0.3,0l0.3,0L93,4.6
				l0.3-0.3l0.3,0L94,4.4l0.3,0.3l0.3,0l0.3,0.1l0.4,0l0.3,0.2l0.3,0.1l0.3,0.1l0.3,0.1l0.1,0.4l0.4,0L97.3,6l0.2,0.3l-0.1,0.4
				l0.4,0.1l-0.1,0.4l0.1,0.3l0.2,0.2l0.2,0.2l0.1,0.3l-0.1,0.3l0,0.3l0.2,0.3l0.2,0.3l0,0.3l0.3-0.1l0.3,0.1l0.3-0.2h0.3l0.3,0
				l0.3,0.2l0.3-0.2l0.3,0l0.3-0.2l0-0.3l-0.4-0.3l0.1-0.3l0-0.3l0.1-0.3l-0.4-0.2l0.2-0.4l-0.2-0.3l-0.2-0.3l-0.2-0.3l-0.1-0.3
				l-0.1-0.3l0-0.4l-0.3-0.2l-0.1-0.3l-0.4-0.1l-0.2-0.2l-0.1-0.4l-0.4,0l-0.2-0.3l-0.2-0.3l-0.3-0.2l-0.3,0L97.6,3L97.3,3L97,2.9
				l-0.2-0.3l-0.2-0.2l-0.4,0.1l-0.3-0.2l-0.3-0.2L95.3,2L95,2l-0.3-0.1l-0.3,0.2L94.1,2l-0.3-0.2l-0.3,0.3l-0.3-0.1L92.8,2
				l-0.3-0.1l-0.3-0.1l-0.3,0l-0.3-0.1L91.2,2l-0.3,0.1l-0.3-0.2l-0.3-0.1l-0.3,0l-0.3,0.1L89.3,2L89,2.1L88.7,2l-0.3,0.1l-0.3-0.2
				l-0.3-0.1l-0.3,0.3L87.1,2l-0.3-0.1L86.5,2l-0.3-0.1L85.8,2l-0.4-0.2l-0.2,0.3l-0.4,0l-0.2,0.2l-0.1,0.3L84.2,3l0.2,0.4l-0.2,0.3
				L84.5,4l-0.2,0.3l0,0.3L84.5,5l-0.3,0.3l0.1,0.3l-0.1,0.3l0.3,0.3l-0.1,0.3l-0.2,0.3l0.1,0.3l0.1,0.3l-0.2,0.3l0.2,0.3l-0.1,0.3
				l-0.1,0.3l0.1,0.3l0.1,0.3l-0.1,0.3l-0.1,0.3l0.1,0.3l0,0.3L84.3,11l0.1,0.3l-0.2,0.3l0.1,0.3l0.1,0.3l0,0.3L84.3,13l0.2,0.3
				l0,0.3l0,0.3l-0.3,0.3l0.1,0.3l0,0.3l0.2,0.3l0.1,0.3l-0.3,0.3l0.3,0.3l-0.2,0.3l-0.1,0.3l0.2,0.3l0.1,0.3l-0.2,0.3l-0.1,0.3
				l0,0.3l0.3,0.3l0,0.3l-0.2,0.3l0.1,0.3l0.1,0.3l-0.3,0.3l0.3,0.3L84.4,21l-0.1,0.3l0,0.3l0.2,0.3l0,0.3l0,0.3l0,0.3l0,0.3
				l0.1,0.3l-0.3,0.3l0.1,0.3l-0.1,0.3l0.3,0.3l-0.3,0.3l0.3,0.3v0.3l0.3,0.2l0.1,0.4l0.3,0.2l0.3,0.2l0.4-0.3l0.3,0l0.3,0l0.3,0.3
				l0.3-0.2l0.3,0l0.3,0.2l0.3-0.1l0.3-0.1l0.3,0l0.3,0l0.3,0.1l0.3-0.2l0.3,0.1l0.3-0.1l0.3,0l0.3-0.1l0.3,0.2l0.3-0.2l0.3,0.2
				l0.3,0.1l0.3-0.3l0.3,0.1l0.3,0.2l0.3,0l0.3-0.2l0.3,0.1l0.3-0.2l0.3,0l0.3,0.2l0.2-0.4l0.4,0.2l0.3-0.2l0.3-0.1l0.3-0.1l0.2-0.3
				l0.4,0.1l0.2-0.3l0.2-0.3l0.3-0.1l0.4,0l0.1-0.3l0.3-0.1l0.3-0.1l0.1-0.4l0.1-0.3l0.5,0l0-0.4l0.1-0.3l0.4-0.1l0.1-0.3l0.1-0.3
				l-0.1-0.4l0.4-0.2l0.2-0.3l-0.1-0.4l0.4-0.2l-0.2-0.4l0.1-0.3l0.3-0.3l-0.3-0.4l0.4-0.3l0-0.3l-0.2-0.4l-0.3,0l-0.3,0.1l-0.4,0
				l-0.4,0l-0.4,0l-0.4-0.1l-0.4-0.1L98.4,19.2z"/>
		</g>
		<g id="グループ_105" transform="translate(0.558 38.993)">
			<path id="パス_123" class="st0" d="M6,7.9V3.3L4.4,6.7H3.6L2,3.3v4.6H1V1.1h1l2,4.3l2-4.3h1v6.9H6z"/>
			<path id="パス_124" class="st0" d="M13.8,7.2C13.3,7.7,12.6,8,11.9,8c-0.7,0-1.3-0.2-1.8-0.7C9.5,6.6,9.5,5.8,9.5,4.5
				s0-2.1,0.7-2.8C10.6,1.3,11.3,1,11.9,1c0.7,0,1.3,0.2,1.8,0.7c0.7,0.7,0.7,1.4,0.7,2.8S14.4,6.6,13.8,7.2z M13,2.4
				c-0.6-0.6-1.5-0.6-2,0c0,0,0,0,0,0c-0.3,0.4-0.4,0.8-0.4,2.1s0.1,1.8,0.4,2.1c0.6,0.6,1.5,0.6,2,0c0,0,0,0,0,0
				c0.3-0.4,0.4-0.8,0.4-2.1S13.3,2.7,13,2.4L13,2.4z"/>
			<path id="パス_125" class="st0" d="M21.7,7.9V3.3l-1.6,3.3h-0.8l-1.6-3.3v4.6h-1V1.1h1l2,4.3l2-4.3h1v6.9H21.7z"/>
			<path id="パス_126" class="st0" d="M30.6,7.9V3.3L29,6.7h-0.8l-1.6-3.3v4.6h-1V1.1h1l2,4.3l2-4.3h1v6.9H30.6z"/>
			<path id="パス_127" class="st0" d="M37.2,5.1v2.8h-1V5.1l-2-4h1.1l1.4,3l1.4-3h1.1L37.2,5.1z"/>
			<path id="パス_128" class="st0" d="M50.5,7.2l-0.4,0.4L47.4,5l-2.7,2.7l-0.4-0.4L47,4.5l-2.7-2.7l0.4-0.4l2.7,2.7l2.7-2.7
				l0.4,0.4l-2.7,2.7L50.5,7.2z"/>
			<path id="パス_129" class="st0" d="M60.7,7.9v-3h-2.8v3h-1V1.1h1V4h2.8V1.1h1v6.9H60.7z"/>
			<path id="パス_130" class="st0" d="M69.1,7.9l-0.5-1.4h-2.7l-0.5,1.4h-1.1l2.5-6.9h0.8l2.5,6.9H69.1z M67.3,2.6l-1.1,3h2.1
				L67.3,2.6z"/>
			<path id="パス_131" class="st0" d="M76.8,7.9l-3.2-4.8v4.8h-1V1.1h1l3.2,4.8V1.1h1v6.9H76.8z"/>
			<path id="パス_132" class="st0" d="M85.4,7.3c-0.5,0.4-1.1,0.7-1.8,0.6h-2.4V1.1h2.4c0.7,0,1.3,0.2,1.8,0.6
				c0.6,0.8,0.8,1.8,0.7,2.7C86.3,5.4,86,6.5,85.4,7.3z M84.7,2.5C84.4,2.1,84,2,83.6,2h-1.3v5h1.3c0.4,0,0.9-0.1,1.2-0.5
				c0.3-0.6,0.5-1.4,0.4-2.1C85.1,3.5,85.1,2.9,84.7,2.5z"/>
			<path id="パス_133" class="st0" d="M94.2,7.9V3.3l-1.6,3.3h-0.8l-1.6-3.3v4.6h-1V1.1h1l2,4.3l2-4.3h1v6.9H94.2z"/>
			<path id="パス_134" class="st0" d="M102.7,7.9l-0.5-1.4h-2.7l-0.5,1.4h-1.1l2.5-6.9h0.8l2.5,6.9H102.7z M100.9,2.6l-1.1,3h2.1
				L100.9,2.6z"/>
			<path id="パス_135" class="st0" d="M110.3,7.3c-0.5,0.4-1.1,0.7-1.8,0.6h-2.4V1.1h2.4c0.7,0,1.3,0.2,1.8,0.6
				c0.6,0.8,0.8,1.8,0.7,2.7C111.1,5.4,110.9,6.5,110.3,7.3z M109.6,2.5c-0.3-0.3-0.7-0.5-1.2-0.5h-1.3v5h1.3c0.4,0,0.9-0.1,1.2-0.5
				c0.3-0.6,0.5-1.4,0.4-2.1C109.9,3.5,109.9,2.9,109.6,2.5z"/>
			<path id="パス_136" class="st0" d="M113.7,7.9V1.1h4.4V2h-3.3v2h2.8v0.9h-2.8V7h3.3v0.9L113.7,7.9z"/>
			<path id="パス_137" class="st0" d="M128.5,7.2c-1,1-2.7,1-3.7,0c-0.7-0.7-0.7-1.4-0.7-2.8s0-2.1,0.7-2.8
				c0.5-0.5,1.1-0.7,1.8-0.7c1.3-0.1,2.3,0.9,2.5,2.1h-1c-0.1-0.7-0.7-1.2-1.4-1.2c-0.4,0-0.7,0.1-1,0.4c-0.3,0.4-0.4,0.8-0.4,2.1
				s0.1,1.8,0.4,2.1c0.3,0.3,0.6,0.4,1,0.4c0.4,0,0.8-0.2,1.1-0.5c0.2-0.3,0.4-0.7,0.3-1.1V5.1h-1.5V4.2h2.5v1
				C129.2,6,129,6.7,128.5,7.2z"/>
			<path id="パス_138" class="st0" d="M135.8,7.2c-1,1-2.6,1-3.6,0c-0.7-0.7-0.7-1.4-0.7-2.8s0-2.1,0.7-2.8c1-1,2.6-1,3.6,0
				c0.7,0.7,0.7,1.4,0.7,2.8S136.5,6.6,135.8,7.2z M135,2.4c-0.6-0.6-1.5-0.6-2,0c0,0,0,0,0,0c-0.3,0.4-0.4,0.8-0.4,2.1
				s0.1,1.8,0.4,2.1c0.6,0.6,1.5,0.6,2,0c0,0,0,0,0,0c0.3-0.4,0.4-0.8,0.4-2.1S135.4,2.7,135,2.4L135,2.4z"/>
			<path id="パス_139" class="st0" d="M142.9,7.2c-1,1-2.6,1-3.6,0c-0.7-0.7-0.7-1.4-0.7-2.8s0-2.1,0.7-2.8c1-1,2.6-1,3.6,0
				c0.7,0.7,0.7,1.4,0.7,2.8S143.6,6.6,142.9,7.2z M142.1,2.4c-0.6-0.6-1.5-0.6-2,0c0,0,0,0,0,0c-0.3,0.4-0.4,0.8-0.4,2.1
				s0.1,1.8,0.4,2.1c0.6,0.6,1.5,0.6,2,0c0,0,0,0,0,0c0.3-0.4,0.4-0.8,0.4-2.1S142.5,2.7,142.1,2.4L142.1,2.4z"/>
			<path id="パス_140" class="st0" d="M150.2,7.3c-0.5,0.4-1.1,0.7-1.8,0.6H146V1.1h2.4c0.7,0,1.3,0.2,1.8,0.6
				c0.6,0.8,0.9,1.8,0.7,2.7C151.1,5.4,150.8,6.5,150.2,7.3z M149.5,2.5c-0.3-0.3-0.7-0.5-1.2-0.5h-1.3v5h1.3c0.4,0,0.9-0.1,1.2-0.5
				c0.3-0.6,0.5-1.4,0.4-2.1C149.9,3.5,149.9,2.9,149.5,2.5z"/>
			<path id="パス_141" class="st0" d="M155.4,8c-0.9,0.1-1.8-0.3-2.4-0.9l0.7-0.7c0.5,0.5,1.1,0.7,1.8,0.7c0.9,0,1.4-0.4,1.4-1
				c0-0.3-0.1-0.5-0.3-0.7c-0.2-0.2-0.5-0.3-0.8-0.3L155,4.9c-0.5,0-0.9-0.2-1.3-0.5c-0.3-0.3-0.5-0.8-0.5-1.3c0-1.1,0.9-2,2-2
				c0.1,0,0.2,0,0.3,0c0.8,0,1.6,0.2,2.1,0.8l-0.7,0.7c-0.4-0.4-0.9-0.6-1.5-0.5c-0.8,0-1.3,0.5-1.3,1.1c0,0.2,0.1,0.5,0.3,0.6
				c0.2,0.2,0.5,0.3,0.8,0.3L156,4c0.5,0,0.9,0.2,1.3,0.5c0.4,0.4,0.6,0.9,0.6,1.4C157.8,7.2,156.8,8,155.4,8z"/>
		</g>
	</g>
	<g id="グループ_110" transform="translate(44.09)">
		<g id="グループ_109">
			<g id="グループ_108">
				<g id="グループ_107">
					<path id="パス_142" class="st1" d="M68.1,101.6c-0.2-1.2-0.7-2.3-1.6-3.1c-1.5,0.2-2.8,0.7-4.1,1.5c-1.1,0.6-2.3,1.2-3.5,1.7
						c-1.4,0.5-3,1-4.5,1.4c-1.4,0.4-2.7,0.8-4,1.2c-4.1,1.5-8.4,2.2-12.8,2c-5.3-0.2-10.4-2-14.7-5.1l-0.2-0.1l-0.2-0.2
						c-0.4-0.4-0.8-0.8-1.2-1.2c-2.1-1.7-3.4-4.2-3.6-6.8c-0.1-0.4-0.3-0.8-0.5-1.2c-0.2-0.4-0.3-0.7-0.5-1.1l-0.1-0.4
						c-0.3-1.5-0.6-3.1-0.8-4.6c-0.5-6,0.6-9.3,4.7-13.5c5-5.1,11.5-7,17.3-8.4l0.4-0.1l0.3,0c0.2,0,0.5-0.1,0.7-0.1
						c0.4-0.1,0.7-0.1,1-0.1c1.2-0.3,2.3-0.9,3.3-1.8l0.1-0.1c0.2-0.1,0.3-0.2,0.5-0.3l0.1,0c0-0.2,0.1-0.4,0.1-0.6
						c0.1-0.7,0.2-1.4,0.2-2.1c0-0.3,0-0.5,0.1-0.8c-0.3-0.3-0.8-0.7-1.3-1.1c-0.2-0.2-0.5-0.4-0.7-0.6c-0.6-0.1-1-0.3-1.4-0.4
						c-0.6-0.2-1.2-0.3-1.8-0.4c-0.9-0.1-1.8-0.1-2.7-0.1c-3.3-0.2-6.5-1.2-9.3-2.8c-0.8-0.5-1.6-1-2.4-1.5c-0.7-0.4-1.3-0.8-2-1.2
						c-2.5-1.6-4-3.9-5.4-6.1l-0.3-0.5c-2.5-3.8-2.4-6.5-3.3-10.8c-0.5-2.7,1.4-7.7,3.5-10.1c1.3-1.4,2.6-2.6,4.1-3.8
						c1-0.8,1.9-1.6,2.8-2.4c2.3-2.5,5.7-3.7,9.1-3.3c1.2,0.1,2.4,0.2,3.7,0.2c0.5,0,1,0,1.5,0c2.4,0.1,4.7,1,6.5,2.7
						c1.1,0.9,2.4,1.6,3.8,2c1.8,0.6,3.5,1.4,5,2.5c0.4,0.1,0.7,0.1,1.1,0.2c0.2,0,0.4,0,0.6,0.1c1.4,0,2.7,0.4,3.9,1.1
						c0.7-0.8,1.4-1.7,1.9-2.6c0.2-0.4,0.5-0.8,0.7-1.2c0.4-0.5,0.8-1,1.2-1.4c0.1-0.1,0.2-0.2,0.3-0.3c0-0.7-0.1-1.4-0.2-2.2
						c-0.1-0.7-0.2-1.5-0.3-2.3c0,0,0-0.1,0-0.1c-0.3-0.3-0.6-0.5-1-0.7c-0.4-0.3-0.9-0.5-1.3-0.8c-0.1-0.1-0.2-0.2-0.4-0.2
						c-0.9-0.5-1.6-1.2-2.1-2.1c-0.6-1.1-1.6-2-2.7-2.5c-1.6-0.9-3.2-1.5-5-1.8c-0.9-0.2-1.8-0.4-2.7-0.7c-0.4-0.1-0.9-0.3-1.3-0.4
						c-1.7-0.6-3.4-1-5.1-1.2c-0.7,0-1.3,0-2,0.1c-1.7,0.3-3.4,0.3-5.1-0.2c-0.1,0-0.3,0.1-0.4,0.1c-0.6,0.2-1.2,0.3-1.8,0.4
						c-2,0.1-3.9,0.4-5.8,0.8c-2.2,0.5-4.3,1.3-6.3,2.2c-0.8,0.3-1.5,0.6-2.3,1c-0.4,0.2-0.8,0.3-1.2,0.5c-0.8,0.2-1.6,0.6-2.2,1.1
						c-0.8,0.9-1.7,1.8-2.7,2.6c-1.4,1.1-2.6,2.5-3.5,4c-0.6,1.2-1.4,2.3-2.2,3.4c-0.5,0.7-1,1.4-1.4,2.1c-0.2,0.3-0.4,0.7-0.6,1
						c-0.8,1.2-1.5,2.5-1.9,4c-0.8,3.4-1.3,6.9-1.4,10.4c0,0.4,0,0.7-0.1,1.1c-0.2,1.3-0.1,2.7,0.3,4c0.6,1.5,1.1,3,1.5,4.5
						C3.2,45,3.6,46.1,4,47.2c0.4,1.4,1.3,2.7,2.4,3.7c1.1,1,1.9,2.3,2.2,3.8c0.2,0.6,0.2,0.6,0.6,0.8c0.4,0.2,0.9,0.5,1.3,0.8
						c0.3,0.2,0.6,0.4,1,0.6l3.8,2l-3.6,2.3c-0.3,0.2-0.5,0.4-0.7,0.5c-0.5,0.3-0.9,0.6-1.5,0.9c-0.3,0.1-0.6,0.3-0.9,0.6
						C8,63.8,7.5,64.1,7,64.5c-0.9,0.6-1.3,1-1.8,3.3L5.2,68c-0.2,0.5-0.3,1-0.3,1.5c0,1.1-0.4,2.2-1.1,3.1c0,0.1,0,0.1,0,0.2
						c0.3,1.3-0.1,2.6-0.9,3.6c-0.9,0.8-1.1,2-1.2,3.8c-0.1,1.5-0.3,3.1-0.4,4.6l-0.1,1.4c-0.3,1.7-0.2,3.4,0.3,5
						c0.1,0.2,0.2,0.4,0.2,0.6c0.4,0.9,0.7,1.8,0.9,2.8c0.3,1.7,1,3.3,2.1,4.6c1.1,1.5,2.1,3.1,3.1,4.6c1.4,2,2.7,4.1,4.1,6.1
						c0,0,0,0,0,0c4.1,1.3,8,3.2,11.6,5.7c3.1,1.9,6.7,2.9,10.3,3c1.3,0.1,2.6,0,3.8-0.4c1.7-0.7,3.5-0.9,5.3-0.8
						c3.1,0.1,6.4,0,9.5-1.6c0.7-0.3,1.5-0.6,2.3-0.8c0.2,0,0.3-0.1,0.5-0.1c0.8-0.2,1.6-0.4,2.5-0.5c1.7-0.3,2.7-0.5,3.5-1.4
						c1.3-1.3,2.9-2.3,4.6-3c0.7-0.3,1.4-0.7,2-1.1c0.8-0.5,0.8-0.6,0.6-1.5C68.1,105.4,68,103.5,68.1,101.6z"/>
				</g>
			</g>
		</g>
		<path id="パス_143" class="st1" d="M95.6,105.2c-1,0.3-1.4,1.3-2,2c-0.7,0.5-1.6,0.8-2.4,0.6c-0.9-0.3-1.8-0.4-2.8-0.3
			c-0.6,0.1-1.2,0.4-1.8,0.7c-0.5,0.4-1,0.9-1.3,1.5c-0.4,0.5-0.1,1.3-0.2,1.9c-0.1,0.6-0.1,1.2,0,1.7c0.1,0.3,0.4,0.5,0.6,0.8
			c0.3,0.5,0.7,0.9,1.1,1.2c0.4,0.4,0.9,0.7,1.4,1c0.5,0.2,1,0.8,1.6,0.9c0.6,0.2,1.2,0.3,1.8,0.4c0.6,0,1.1-0.9,1.7-1
			c0.6-0.1,1.4,0.6,2,0.4s0.9-1,1.5-1.2c0.6-0.2,1.1-0.5,1.6-0.8c0.6-0.3,1.1-0.6,1.6-0.9c0.4-0.4,0.1-1.5,0.4-2
			c0.3-0.5,1.6-0.6,1.7-1.2c0.2-0.6-0.2-1.3-0.2-1.9c0-0.3-0.3-0.6-0.5-0.9c-0.2-0.6-0.5-1.1-0.9-1.5c-0.4-0.4-1-0.7-1.5-0.8
			c-0.5-0.2-1.1-0.4-1.7-0.4C96.9,105.3,96.2,105,95.6,105.2z"/>
	</g>
</g>
</svg>
