<?xml version="1.0" encoding="utf-8"?>
<!-- Generator: Adobe Illustrator 24.2.0, SVG Export Plug-In . SVG Version: 6.00 Build 0)  -->
<svg version="1.1" id="レイヤー_1" xmlns="http://www.w3.org/2000/svg" xmlns:xlink="http://www.w3.org/1999/xlink" x="0px"
	 y="0px" viewBox="0 0 564 36" style="enable-background:new 0 0 564 36;" xml:space="preserve">
<path id="パス_673" d="M27.3,21.3c0,3.5-1.4,6.9-3.9,9.4c-2.5,2.6-5.9,4-9.4,3.9c-3.5,0.1-6.9-1.3-9.4-3.9
	c-2.5-2.5-3.9-5.9-3.9-9.4V4.9c0-0.7,0.3-1.3,0.7-1.8C2,2.6,2.6,2.3,3.3,2.4c0.7,0,1.3,0.3,1.8,0.7c0.5,0.5,0.8,1.1,0.8,1.8v16.4
	c0,2.2,0.8,4.3,2.4,5.8c1.5,1.6,3.6,2.5,5.8,2.4c2.2,0,4.3-0.8,5.8-2.4c1.6-1.5,2.4-3.6,2.4-5.8V4.9c0-0.7,0.3-1.3,0.8-1.8
	s1.1-0.7,1.8-0.7c0.7,0,1.3,0.3,1.8,0.7c0.5,0.5,0.7,1.1,0.7,1.8L27.3,21.3z M46.2,33.8c-0.5,0.5-1.1,0.7-1.8,0.7s-1.3-0.3-1.8-0.7
	c-0.5-0.5-0.7-1.1-0.7-1.8V4.9c0-0.7,0.3-1.3,0.7-1.8c0.5-0.5,1.1-0.7,1.8-0.7h15c0.7,0,1.3,0.3,1.8,0.8S62,4.3,62,5
	s-0.3,1.3-0.8,1.8s-1.1,0.8-1.8,0.8H46.9V16h10.7c0.7,0,1.3,0.3,1.8,0.8s0.8,1.1,0.8,1.8c0,0.7-0.3,1.3-0.7,1.8
	C59,20.7,58.3,21,57.7,21H46.9v11C46.9,32.7,46.7,33.4,46.2,33.8z M100,21.3c0,3.5-1.4,6.9-3.9,9.4c-2.5,2.6-5.9,4-9.4,3.9
	c-3.5,0.1-6.9-1.3-9.4-3.9c-2.5-2.5-3.9-5.9-3.9-9.4V4.9c0-0.7,0.3-1.3,0.7-1.8c0.5-0.5,1.1-0.7,1.8-0.7c0.7,0,1.3,0.3,1.8,0.7
	c0.5,0.5,0.8,1.1,0.8,1.8v16.4c0,2.2,0.8,4.3,2.4,5.8c1.5,1.6,3.6,2.5,5.8,2.4c2.2,0,4.3-0.8,5.8-2.4c1.6-1.5,2.4-3.6,2.4-5.8V4.9
	c0-0.7,0.3-1.3,0.8-1.8s1.1-0.7,1.8-0.7c0.7,0,1.3,0.3,1.8,0.7c0.5,0.5,0.7,1.1,0.7,1.8L100,21.3z M118.8,33.8
	c-0.5,0.5-1.1,0.7-1.8,0.7c-0.7,0-1.3-0.3-1.8-0.7c-0.5-0.5-0.7-1.1-0.7-1.8V4.9c0-0.7,0.3-1.3,0.7-1.8c0.5-0.5,1.1-0.7,1.8-0.7h15
	c0.7,0,1.3,0.3,1.8,0.8s0.8,1.1,0.8,1.8s-0.3,1.3-0.8,1.8s-1.1,0.8-1.8,0.8h-12.5V16h10.7c0.7,0,1.3,0.3,1.8,0.8s0.8,1.1,0.8,1.8
	c0,0.7-0.3,1.3-0.7,1.8c-0.5,0.5-1.1,0.8-1.8,0.8h-10.7v11C119.6,32.7,119.3,33.4,118.8,33.8z M172.6,21.3c0,3.5-1.4,6.9-3.9,9.4
	c-2.5,2.6-5.9,4-9.4,3.9c-3.5,0.1-6.9-1.3-9.4-3.9c-2.5-2.5-3.9-5.9-3.9-9.4V4.9c0-0.7,0.3-1.3,0.7-1.8c0.5-0.5,1.1-0.7,1.8-0.7
	s1.3,0.3,1.8,0.7c0.5,0.5,0.8,1.1,0.8,1.8v16.4c0,2.2,0.8,4.3,2.4,5.8c1.5,1.6,3.6,2.5,5.8,2.4c2.2,0,4.3-0.8,5.8-2.4
	c1.6-1.5,2.4-3.6,2.4-5.8V4.9c0-0.7,0.3-1.3,0.8-1.8s1.1-0.7,1.8-0.7s1.3,0.3,1.8,0.7c0.5,0.5,0.7,1.1,0.7,1.8L172.6,21.3z
	 M209.6,12.9V32c0,0.7-0.3,1.3-0.7,1.8c-0.5,0.5-1.1,0.8-1.8,0.8s-1.3-0.3-1.8-0.7c-0.5-0.5-0.7-1.1-0.7-1.8V5.3
	c-0.1-0.8,0.2-1.6,0.9-2c0.6-0.4,1.3-0.6,2-0.5s1.2,0.5,1.6,1L224,24.3v-19c0-0.7,0.3-1.3,0.7-1.7c0.5-0.5,1.1-0.7,1.7-0.7
	c0.7,0,1.3,0.3,1.8,0.7s0.8,1.1,0.8,1.7V32c0,0.7-0.3,1.3-0.8,1.8s-1.1,0.7-1.8,0.7s-1.4-0.3-1.8-0.9c-0.1-0.1-0.2-0.2-0.2-0.3
	L209.6,12.9z M246.3,34.6c-0.7,0-1.3-0.3-1.8-0.7c-0.5-0.5-0.7-1.1-0.7-1.8V4.9c0-0.7,0.3-1.3,0.7-1.8c0.5-0.5,1.1-0.7,1.8-0.7h15
	c0.7,0,1.3,0.3,1.8,0.7c0.5,0.5,0.8,1.1,0.8,1.8s-0.3,1.3-0.8,1.8s-1.1,0.8-1.8,0.8h-12.5v8.4h10.7c0.7,0,1.3,0.3,1.8,0.8
	s0.8,1.1,0.8,1.8c0,0.7-0.3,1.3-0.7,1.8c-0.5,0.5-1.1,0.8-1.8,0.8h-10.7v8.5h12.5c0.7,0,1.3,0.3,1.8,0.8s0.8,1.1,0.8,1.8
	s-0.3,1.3-0.8,1.8s-1.1,0.8-1.8,0.8h-14.9h-0.2V34.6z M288.2,34.1l-0.4,0.3l0,0c-0.1,0-0.3,0.1-0.4,0.1h-0.1c-0.1,0-0.3,0.1-0.4,0
	c-0.1,0-0.3,0-0.4,0h-0.1c-0.2-0.1-0.3-0.1-0.3-0.1s-0.1,0-0.2-0.1s-0.2-0.1-0.3-0.2l0,0c-0.1-0.1-0.3-0.2-0.4-0.3s-0.2-0.2-0.3-0.3
	l0,0c0-0.1-0.1-0.1-0.1-0.2s-0.1-0.1-0.1-0.2L273.2,6.2c-0.2-0.6-0.2-1.3,0-1.9s0.7-1.1,1.4-1.3c0.6-0.3,1.3-0.3,1.9,0
	c0.6,0.2,1.1,0.7,1.4,1.4l9,21.3l5.9-14.1c0.4-1,1.3-1.6,2.4-1.6c1.1-0.1,2,0.6,2.4,1.6l5.9,14.1l9-21.3c0.3-0.6,0.8-1.1,1.4-1.4
	s1.3-0.3,1.9,0c0.6,0.2,1.1,0.7,1.4,1.4c0.3,0.6,0.3,1.3,0,1.9L305.8,33c-0.1,0.3-0.3,0.5-0.5,0.7v0.1c-0.1,0.1-0.2,0.1-0.3,0.2l0,0
	l-0.4,0.3l0,0h-0.1c0,0-0.1,0.1-0.3,0.1h-0.1c-0.1,0-0.3,0.1-0.4,0c-0.1,0-0.3,0-0.4,0h-0.1c-0.2-0.1-0.3-0.1-0.3-0.1
	c-0.1,0-0.1,0-0.2,0c-0.1-0.1-0.3-0.1-0.3-0.3l0,0c-0.3-0.2-0.5-0.4-0.6-0.6c-0.2-0.1-0.3-0.3-0.3-0.5l-6-14.3l-6,14.3
	c-0.1,0.1-0.1,0.3-0.2,0.4l-0.3,0.3v0.1C288.5,33.9,288.4,34,288.2,34.1L288.2,34.1z M347.9,24.8c0-2.3-2.7-4-8.1-5h-0.1
	c-2.1-0.4-4.2-1-6.2-1.9c-1.6-0.7-2.9-1.8-3.8-3.2c-0.8-1.2-1.2-2.6-1.2-4c0-2.6,1.3-5.1,3.5-6.6c2.4-1.7,5.2-2.6,8.1-2.6
	c1.4,0,2.8,0.2,4.1,0.7c1.1,0.3,2.1,0.8,3.2,1.3c0.7,0.4,1.6,1,2.7,1.7c0.5,0.4,0.9,0.9,1,1.5s0,1.3-0.3,1.8s-0.9,0.9-1.5,1
	s-1.3,0-1.8-0.3c-1.2-0.9-2.5-1.6-3.8-2.2c-1.1-0.5-2.3-0.7-3.6-0.7c-1.8-0.1-3.5,0.4-5,1.4c-1.1,0.6-1.8,1.8-1.9,3
	c0,0.5,0.1,0.9,0.4,1.3c0.9,1.4,3.2,2.5,6.9,3.2h0.1c2.2,0.4,4.3,1,6.3,1.9c3.8,1.9,5.7,4.4,5.7,7.7c0,2.8-1.4,5.5-3.8,7
	c-2.5,1.8-5.6,2.8-8.7,2.7c-4,0-7.9-1.6-11.8-4.6c-0.5-0.4-0.8-1-0.9-1.6s0.1-1.3,0.5-1.7c0.4-0.5,1-0.8,1.6-0.9s1.3,0.1,1.7,0.5
	c2.9,2.4,5.9,3.6,8.8,3.5c2,0.1,3.9-0.5,5.6-1.6C347,27.5,347.8,26.2,347.9,24.8z M383.4,34.6c-0.7,0-1.3-0.3-1.8-0.7
	c-0.5-0.5-0.7-1.1-0.7-1.8V4.9c0-0.7,0.3-1.3,0.7-1.8c0.5-0.5,1.1-0.7,1.8-0.7c0.7,0,1.3,0.3,1.8,0.7c0.5,0.5,0.8,1.1,0.8,1.8v24.6
	h12.5c0.7,0,1.3,0.3,1.8,0.8s0.8,1.1,0.8,1.8c0,0.7-0.3,1.3-0.8,1.8s-1.1,0.8-1.8,0.8L383.4,34.6L383.4,34.6z M465.4,3.1
	c0.5,0.5,0.7,1.1,0.7,1.8s-0.3,1.3-0.8,1.8s-1.1,0.8-1.8,0.8h-7.3V32c0,0.7-0.3,1.3-0.7,1.8c-0.5,0.5-1.1,0.7-1.8,0.7
	c-0.7,0-1.3-0.3-1.8-0.7c-0.5-0.5-0.7-1.1-0.7-1.8V7.5h-7.3c-0.7,0-1.3-0.3-1.8-0.8s-0.7-1.1-0.7-1.8s0.3-1.3,0.7-1.8
	c0.5-0.5,1.1-0.7,1.8-0.7h19.6C464.2,2.3,464.9,2.6,465.4,3.1L465.4,3.1z M498.8,3.1c0.5,0.5,0.7,1.1,0.7,1.8s-0.3,1.3-0.8,1.8
	s-1.1,0.8-1.8,0.8h-7.3V32c0,0.7-0.3,1.3-0.7,1.8c-0.5,0.5-1.1,0.7-1.8,0.7c-0.7,0-1.3-0.3-1.8-0.7c-0.5-0.5-0.7-1.1-0.7-1.8V7.5
	h-7.3c-0.7,0-1.3-0.3-1.8-0.8s-0.7-1.1-0.7-1.8s0.3-1.3,0.7-1.8c0.5-0.5,1.1-0.7,1.8-0.7H497C497.7,2.3,498.4,2.6,498.8,3.1
	L498.8,3.1z M513.4,34.6c-0.7,0-1.3-0.3-1.8-0.7c-0.5-0.5-0.7-1.1-0.7-1.8V4.9c0-0.7,0.3-1.3,0.7-1.8c0.5-0.5,1.1-0.7,1.8-0.7h15
	c0.7,0,1.3,0.3,1.8,0.7c0.5,0.5,0.8,1.1,0.8,1.8s-0.3,1.3-0.8,1.8s-1.1,0.8-1.8,0.8H516v8.4h10.7c0.7,0,1.3,0.3,1.8,0.8
	s0.8,1.1,0.8,1.8c0,0.7-0.3,1.3-0.7,1.8c-0.5,0.5-1.1,0.8-1.8,0.8H516v8.5h12.5c0.7,0,1.3,0.3,1.8,0.8s0.8,1.1,0.8,1.8
	s-0.3,1.3-0.8,1.8s-1.1,0.8-1.8,0.8h-14.9h-0.2V34.6z M558.2,19.8c2.1,1.6,3.2,4.1,3.1,6.7c0,0.9,0,1.8,0.2,2.7
	c0.8,0.2,1.4,0.8,1.6,1.6c0.3,0.8,0.1,1.6-0.4,2.3s-1.4,1.1-2.2,1.1l0,0c-1.4,0-2.7-0.8-3.3-2.1c-0.7-1.7-1-3.6-1-5.5
	c0-1.4-0.8-2.6-1.9-3.3c-0.8-0.5-1.7-0.9-2.6-1.1h-5.4v10c0,0.7-0.3,1.3-0.8,1.8s-1.1,0.7-1.8,0.7s-1.3-0.3-1.8-0.7
	c-0.5-0.5-0.7-1.1-0.7-1.8V4.9c0-0.7,0.3-1.3,0.7-1.8c0.5-0.5,1.1-0.7,1.8-0.7h8.2c2.6,0,5.1,1,7,2.9s2.9,4.5,2.9,7.2
	C561.8,15.3,560.5,18,558.2,19.8L558.2,19.8z M551.9,16.9c1.3,0,2.5-0.5,3.4-1.4s1.4-2.1,1.4-3.3c0-1.3-0.5-2.5-1.4-3.4
	s-2.1-1.4-3.4-1.4h-5.7v9.5H551.9z"/>
<path d="M415,34.6c-0.7,0-1.3-0.3-1.8-0.7c-0.5-0.5-0.7-1.1-0.7-1.8V4.9c0-0.7,0.3-1.3,0.7-1.8c0.5-0.5,1.1-0.7,1.8-0.7h15
	c0.7,0,1.3,0.3,1.8,0.7c0.5,0.5,0.8,1.1,0.8,1.8c0,0.7-0.3,1.3-0.8,1.8c-0.5,0.5-1.1,0.8-1.8,0.8h-12.5v8.4h10.7
	c0.7,0,1.3,0.3,1.8,0.8c0.5,0.5,0.8,1.1,0.8,1.8c0,0.7-0.3,1.3-0.7,1.8c-0.5,0.5-1.1,0.8-1.8,0.8h-10.7v8.5H430
	c0.7,0,1.3,0.3,1.8,0.8c0.5,0.5,0.8,1.1,0.8,1.8c0,0.7-0.3,1.3-0.8,1.8c-0.5,0.5-1.1,0.8-1.8,0.8h-14.9H415L415,34.6z"/>
</svg>
