<?xml version="1.0" encoding="utf-8"?>
<!-- Generator: Adobe Illustrator 24.2.0, SVG Export Plug-In . SVG Version: 6.00 Build 0)  -->
<svg version="1.1" id="レイヤー_1" xmlns="http://www.w3.org/2000/svg" xmlns:xlink="http://www.w3.org/1999/xlink" x="0px"
	 y="0px" viewBox="0 0 170 120" style="enable-background:new 0 0 170 120;" xml:space="preserve">
<g id="グループ_687" transform="matrix(0.966, -0.259, 0.259, 0.966, -839.728, -215.982)">
	<path id="パス_660" d="M838.8,500.2c-2.8-5.3-1.3-8.7-3.5-19.2c-2.9-13.9-12.1-19.6-18.8-22.7c-8.9-4.1-18.2-3.6-24.8-3.3
		c-7.5,0.3-11.8-0.5-14.9-4c-4.6-5.2-5.1-8.7-7-7.9c-1.7,0.7,1.4,6.3,0,11.9c-2.7,10.6-18.7,16.4-23.6,35.1
		c-4.8,18.1,5,27.1,9.8,34.6c2.9,4.5,4.1,6.7,4.4,9.9c0.3,3.1-0.5,6.2-2.4,8.6c5.4,2.7,12.9-0.8,15.4-4.4s3.6-10-0.8-18.8
		c8.5-2.2,16.8-4.9,24.9-8.3c12.7-5.4,19.5-8.5,23.6-11.5c3.8,11.4,7.2,13.6,12.8,14.1c6,0.5,11.1-4.3,13.2-8.5
		C844.8,505.7,841.4,505.1,838.8,500.2z"/>
	<path id="パス_661" d="M783.3,521.9c-1.6,0.6-2.3,2.3-1.7,3.9s2.3,2.3,3.9,1.7c1.6-0.6,2.3-2.3,1.7-3.9
		C786.6,522.1,784.9,521.3,783.3,521.9C783.3,521.9,783.3,521.9,783.3,521.9z"/>
	<path id="パス_662" d="M817.3,514.9c1.6-0.6,2.3-2.3,1.7-3.9c-0.6-1.6-2.3-2.3-3.9-1.7c-1.6,0.6-2.3,2.3-1.7,3.9
		C814,514.7,815.8,515.5,817.3,514.9C817.3,514.9,817.3,514.9,817.3,514.9z"/>
	<path id="パス_663" d="M812.4,555.7c0.2,0,0.3,0,0.5-0.1c0.6-0.1,1.3-0.2,1.9-0.3c0.1,0,0.2,0,0.3-0.1c0.6-0.1,1.1-0.3,1.6-0.5
		c0.2,0,0.3-0.1,0.5-0.1c0.6-0.2,1.2-0.4,1.8-0.7c0.1,0,0.1-0.1,0.2-0.1c0.5-0.2,1-0.5,1.6-0.8c0.1-0.1,0.3-0.2,0.4-0.2
		c0.5-0.3,1.1-0.6,1.6-1c0,0,0.1,0,0.1-0.1c0.5-0.3,0.9-0.7,1.4-1c0.1-0.1,0.2-0.2,0.3-0.3c0.4-0.4,0.9-0.8,1.3-1.2
		c5.6-6,8.8-10.9,6.2-18.7c-1.3-3.8-2.4-6.1-3.9-7.7c-0.4-0.4-0.8-0.8-1.2-1.2c-0.2-0.2-0.5-0.4-0.7-0.5c-0.6-0.4-1.1-0.7-1.7-0.9
		c-0.9-0.4-1.8-0.7-2.7-1l-0.1,0c-0.6-0.2-1.2-0.4-1.8-0.6c-0.1,0-0.1,0-0.2-0.1c-0.6-0.2-1.2-0.4-1.8-0.5c-0.1,0-0.1,0-0.2-0.1
		c-0.6-0.2-1.2-0.3-1.8-0.4l-0.2,0c-0.7-0.1-1.4-0.1-2.1-0.2h0c-0.5,0-1.1,0-1.6,0.1c-0.1,0-0.2,0-0.3,0c-0.5,0.1-1.1,0.2-1.7,0.3
		c-0.1,0-0.2,0.1-0.3,0.1c-0.6,0.2-1.2,0.3-1.9,0.6c-0.1,0-0.2,0.1-0.3,0.1c-0.7,0.3-1.4,0.5-2.2,0.9c-1.6,0.7-3.2,1.6-4.7,2.5
		c-1.3,0.8-2.5,1.8-3.6,2.8c-1,0.9-1.9,1.9-2.7,3c-0.4,0.5-0.7,1-1,1.5c-0.5,0.8-0.9,1.6-1.2,2.4c-0.3,0.7-0.5,1.4-0.7,2.2
		c-0.1,0.5-0.2,1-0.3,1.5c-0.2,1.4-0.3,2.8-0.1,4.2c0.1,0.8,0.2,1.7,0.4,2.5c0.4,1.5,0.9,2.9,1.7,4.1c1.2,1.9,2.8,3.5,4.6,4.7
		c1.2,0.8,2.4,1.5,3.7,2.1c1.1,0.5,2.2,1,3.4,1.5l0,0c0.5,0.2,0.9,0.3,1.4,0.5c0.2,0,0.3,0.1,0.5,0.1c0.3,0.1,0.6,0.2,1,0.2
		c0.2,0,0.4,0.1,0.6,0.1c0.3,0,0.6,0.1,0.9,0.1c0.2,0,0.4,0,0.7,0c0.3,0,0.6,0,0.8,0c0.1,0,0.2,0,0.3,0
		C811.3,555.8,811.9,555.8,812.4,555.7z M808.8,531.3c1.3-3.1,4.3-3.6,6.1-3.7c0.2,0,0.4,0,0.5,0s0.3,0,0.4,0c0.2,0,0.4,0,0.5,0.1
		c0.2,0,0.4,0.1,0.6,0.1c0.1,0,0.3,0.1,0.4,0.1c0.2,0.1,0.3,0.2,0.4,0.3c0.1,0.1,0.2,0.1,0.3,0.2c0.1,0.1,0.2,0.2,0.3,0.3
		c0.1,0.1,0.2,0.2,0.2,0.3c0.1,0.1,0.2,0.3,0.3,0.4c0.1,0.1,0.1,0.2,0.2,0.3c0.1,0.2,0.1,0.3,0.2,0.5c0,0.1,0.1,0.2,0.1,0.3
		c0.1,0.2,0.1,0.4,0.1,0.6c0,0.1,0,0.2,0.1,0.2c0,0.2,0.1,0.5,0.1,0.7l0,0.1c0.1,0.8,0,1.7-0.4,2.4c-0.1,0.3-0.2,0.5-0.4,0.8
		c-0.4,0.8-1,1.4-1.7,2c-0.2,0.2-0.5,0.3-0.7,0.5c-0.3,0.1-0.6,0.3-0.9,0.4c-0.1,0-0.2,0.1-0.3,0.1c-0.2,0.1-0.5,0.2-0.8,0.2
		c-0.1,0-0.3,0.1-0.5,0.1c-0.2,0-0.5,0.1-0.8,0.1c-0.2,0-0.4,0-0.5,0c-0.3,0-0.5,0-0.8,0c0,0-0.1,0-0.1,0c-0.2,0-0.4,0-0.5,0
		s-0.4,0-0.5,0c-0.2,0-0.5-0.1-0.7-0.1c-0.2,0-0.3-0.1-0.5-0.1c-0.2-0.1-0.5-0.2-0.7-0.3c-0.1-0.1-0.2-0.1-0.4-0.2
		c-0.3-0.2-0.6-0.4-0.8-0.7c-0.4-0.4-0.7-1-0.8-1.6C806.8,534.2,808.1,532.9,808.8,531.3L808.8,531.3z"/>
	<path id="パス_664" d="M853.6,524.4c3.5-1.9,7.1-4.3,10.8-5.8c3.1-1.2,5.8-0.3,8.4-2.2c0.7-0.6,1.2-1.5,1.9-2
		c1.9-1.5,4.4-1.6,6.5-2.5c2.7-1.1,5.2-3,7.7-4.4c0.4-0.2,0.5-0.8,0.3-1.2c-0.2-0.4-0.7-0.5-1.1-0.3c-3.3,2.1-6.8,3.8-10.4,5.1
		c-2.5,0.8-3,1.7-5,3.1c-2.8,1.9-6.1,1.6-9.1,3c-3.7,1.7-7.2,3.9-10.8,5.8C851.8,523.5,852.6,524.9,853.6,524.4z"/>
	<path id="パス_665" d="M872.1,549.1c-3.1,0.6-6.3,1-9.5,1.3c-4.5,0.2-8.8-2.1-12.6-4.1c-1-0.5-1.8,0.9-0.8,1.4
		c4.8,2.5,9.7,4.8,15.2,4.1c6.6-0.7,13.5-3.3,19.3,1.2c0.9,0.6,1.7-0.8,0.8-1.4C880.6,548.6,876.9,548.3,872.1,549.1z"/>
	<path id="パス_666" d="M855,533.8c-0.5-1-1.9-0.1-1.4,0.8c1,1.9,4.6,4.5,6.5,2.2c1.8-2.3,1.4-6-1.4-7.1c-1-0.4-1.4,1.2-0.4,1.6
		c0.8,0.3,1.3,1.1,1.3,2c0.1,0.9-0.2,1.7-0.7,2.5C857.6,536.8,855.5,534.7,855,533.8z"/>
	<path id="パス_667" d="M877.4,529.5c0.1,0.7-0.3,1.4-1,1.7c-0.7,0.3-1.6-0.1-1.5-1c0.2-1.1-1.4-1.5-1.6-0.4
		c-0.3,1.4,0.6,2.8,2,3.2c0.3,0.1,0.5,0.1,0.8,0.1c1.7-0.2,3-1.8,2.9-3.5c0-0.5-0.4-0.8-0.8-0.8C877.8,528.7,877.4,529,877.4,529.5
		L877.4,529.5z"/>
	<path id="パス_668" d="M898.6,527.3c-0.7-0.8-1.8,0.3-1.2,1.2c0.6,0.8-0.6,1.6-1.2,1.7c-1.2,0.2-1.1-1.1-1.1-1.9
		c0-1.1-1.6-1.1-1.7,0c-0.1,1,0.1,2.1,0.8,2.9c0.7,0.7,1.8,0.9,2.8,0.5C898.8,531,899.9,529,898.6,527.3z"/>
	<path id="パス_669" d="M871,525.4c0.8,0.6,1.8-0.5,1.1-1.1c-1.8-1.5-4.5-1.3-6.1,0.5c-0.6,0.9-0.7,2-0.5,3c0,0.1,0,0.1,0,0.2
		l-1.2-0.1c-1-0.1-1,1.4,0,1.5l1.5,0.1c0.3,1.4,0.4,2.8,0.3,4.2c-0.1,1,1.5,1,1.5,0c0.1-1.4,0-2.7-0.2-4.1c0.6,0,1.2,0.1,1.8,0.2
		c1,0.1,1-1.5,0-1.5l-2.1-0.2c-0.1-0.4-0.2-0.9-0.2-1.4C867.2,524.9,869.7,524.3,871,525.4z"/>
	<path id="パス_670" d="M884.8,525.2c-0.7,1-0.1,2.6,0.6,4c-0.4,0.1-0.9,0.1-1.4,0.1c-1-0.1-1,1.4,0,1.5c0.7,0.1,1.4,0,2.1-0.2
		c0.2,0.4,0.4,0.7,0.5,1.1c0.3,0.9,1.8,0.5,1.5-0.4c-0.1-0.4-0.3-0.9-0.5-1.3c0.3-0.1,0.6-0.2,0.8-0.4c0.9-0.4,0.1-1.7-0.8-1.3
		c-0.2,0.1-0.5,0.2-0.7,0.3l-0.2-0.4c-0.2-0.4-0.8-1.4-0.7-1.9c0.1-0.6,1.4-1.2,1.8-0.6c0.6,0.8,1.9,0,1.3-0.8
		C888.2,523.6,885.8,523.8,884.8,525.2z"/>
</g>
</svg>
