<?xml version="1.0" encoding="utf-8"?>
<!-- Generator: Adobe Illustrator 24.2.0, SVG Export Plug-In . SVG Version: 6.00 Build 0)  -->
<svg version="1.1" id="レイヤー_1" xmlns="http://www.w3.org/2000/svg" xmlns:xlink="http://www.w3.org/1999/xlink" x="0px"
	 y="0px" viewBox="0 0 124 110" style="enable-background:new 0 0 124 110;" xml:space="preserve">
<g id="グループ_678" transform="translate(-239.681 -457.683) rotate(19)">
	<path id="パス_623" d="M437.7,353.3c2.6,0,5.1-0.2,7.7-0.7c2.2-0.5,5.8-1.5,7.7-2.8c0.2-0.1,0.4-0.2,0.5-0.3l-0.1-0.1
		c-2.4-2.9-4.1-6.4-4.9-10.1c-1.9,0.3-3.7,0.6-5.6,1.1c-0.7,3.2-1.8,6.3-3.1,9.3C439.3,351.1,438.6,352.3,437.7,353.3z"/>
	<path id="パス_624" d="M445.7,333c-1,0-1.5,2.2-2.2,5.5c1.6-0.3,3.1-0.6,4.7-0.8C447.5,334.9,447,333,445.7,333z"/>
	<path id="パス_625" d="M487.8,419.3c-0.6-5.6,1.8-8.1,3.5-18.1c2.2-13.3-3.3-24.2-8.2-29.3c-2.7-2.8-5.7-5.4-8.9-7.6
		c-6.5,6.6-18,8.9-26.5,8.9c-0.2,0-0.5,0-0.7-0.1c-12.4,2.4-23.2,0.9-28.8-3.6c-3.1,2.8-5.9,5.8-8.4,9.2
		c-10.4,14.4-4.9,25.6-3.3,33.9c1,5,1.3,7.3,0.5,10.2c-0.7,2.8-2.6,5.3-5.1,6.8c3.8,4.2,11.6,3.7,15.1,1.4s6.6-7.5,5.8-16.8
		c8.2,1,16.5,1.4,24.8,1.2c13-0.4,20.1-0.8,24.7-2.1c-0.5,11.3,1.7,14.4,6.5,16.8c5.1,2.5,11.3,0,14.6-2.9
		C491.2,426.3,488.4,424.5,487.8,419.3z"/>
	<path id="パス_626" d="M435.5,355.6L435.5,355.6c5,1,10.2,0.6,14.9-1.3C445.6,356.1,440.5,356.5,435.5,355.6z"/>
	<path id="パス_627" d="M431.4,419.5c-1.6,0-2.9,1.3-2.9,2.8c0,1.6,1.3,2.9,2.8,2.9c1.6,0,2.9-1.3,2.9-2.8c0,0,0,0,0,0
		C434.3,420.8,433,419.5,431.4,419.5C431.4,419.5,431.4,419.5,431.4,419.5z"/>
	<path id="パス_628" d="M463.8,419.2c-1.6,0-2.9,1.3-2.9,2.8c0,1.6,1.3,2.9,2.8,2.9c1.6,0,2.9-1.3,2.9-2.8c0,0,0,0,0,0
		C466.7,420.5,465.4,419.2,463.8,419.2C463.8,419.2,463.8,419.2,463.8,419.2z"/>
	<path id="パス_629" d="M451.3,443l0-2c0,0,0,0,0,0c-2.5,0.5-3.8,0.5-5-0.1c-0.5-0.3-0.9-0.8-1.1-1.4c-0.2-0.6,0-1.3,0.3-1.8
		c0-0.1,0.1-0.1,0.1-0.2c0.3-0.5,0.8-1.1,2.6-1.1c0.4,0,0.6,0,0.9,0c0.2,0,0.3,0,0.5,0c0,0,0.1,0,0.1,0c0-0.1,0.1-0.1,0-0.2V436
		c0-0.1,0-0.2,0-0.3l0-0.9c0,0,0-0.1-0.1,0c-0.1,0-0.2,0-0.3,0c-1.1,0-2.1-0.2-3.1-0.6c-1-0.5-1.5-1.7-1.1-2.7c0,0,0,0,0-0.1
		c0.4-0.7,1.1-1.3,1.9-1.4c1.1-0.1,2.2-0.1,3.2,0.2c0.1,0,0.6,0.1,0.8,0.1l0.1-1c0-0.1,0-0.9,0-1.1c-1-0.4-2.1-0.6-3.2-0.6
		c-0.7,0-1.3,0.1-1.9,0.3c-1.5,0.4-2.6,1.4-3.2,2.8c-0.7,1.9,0,4,1.7,5l0.1,0.1l-0.1,0.1c-0.3,0.2-0.6,0.5-0.9,0.8
		c-0.7,0.9-1,2-0.8,3.1c0.2,1.1,0.9,2.1,1.8,2.7c1.1,0.6,2.4,0.9,3.6,0.9C449.4,443.4,450.4,443.3,451.3,443L451.3,443L451.3,443z"
		/>
	<path id="パス_630" d="M451.4,440.9c0-0.1-0.1-0.1-0.2-0.1c-2.5,0.5-3.7,0.5-4.9-0.1c-0.5-0.3-0.9-0.8-1-1.3
		c-0.1-0.6,0-1.2,0.3-1.7c0-0.1,0.1-0.1,0.1-0.2c0.3-0.5,0.7-1.1,2.4-1c0.4,0,0.7,0,0.9,0c0.2,0,0.3,0,0.5,0c0.1,0,0.1,0,0.2-0.1
		c0.1-0.1,0.1-0.2,0.1-0.3V436c0-0.1,0-0.2,0-0.3l0-0.9c0-0.1-0.1-0.2-0.2-0.2c-0.1,0-0.2,0-0.3,0c-1,0-2.1-0.2-3-0.5
		c-1-0.4-1.4-1.6-1-2.5c0,0,0-0.1,0-0.1c0.3-0.7,1-1.2,1.8-1.3c1.1-0.1,2.1-0.1,3.2,0.2c0.9,0.1,0.9,0.1,0.9,0.1l0,0l0.1-1.1l0,0
		c0-0.4,0-0.8,0-1.2l0-0.1l0,0c-1.7-0.7-3.5-0.8-5.3-0.4c-1.5,0.4-2.7,1.5-3.3,2.9c-0.8,1.9,0,4.1,1.7,5.2c-0.3,0.2-0.6,0.5-0.8,0.8
		c-0.7,0.9-1,2.1-0.8,3.2c0.2,1.2,0.9,2.2,1.9,2.9c1.2,0.6,2.4,0.9,3.7,1c0.3,0,0.6,0,0.8,0c0.7,0,1.4-0.1,2.1-0.3
		c0,0,0.1,0,0.1-0.1c0,0,0-0.1,0-0.1L451.4,440.9L451.4,440.9z M451.3,443.1c-0.9,0.3-1.9,0.4-2.9,0.3c-1.3,0-2.5-0.4-3.7-0.9
		c-1.9-1.2-2.5-3.7-1.3-5.6c0.1-0.1,0.2-0.2,0.2-0.3c0.2-0.3,0.5-0.6,0.9-0.8c-1.8-1-2.5-3.2-1.8-5.1c0.6-1.4,1.8-2.5,3.2-2.8
		c1.8-0.4,3.6-0.3,5.3,0.4c0,0.4,0,0.8,0,1.2l-0.1,1.1c-0.3,0-0.6-0.1-0.9-0.1c-1.1-0.2-2.1-0.3-3.2-0.2c-0.8,0.1-1.5,0.6-1.8,1.3
		c-0.5,1-0.1,2.2,0.9,2.6c0,0,0.1,0,0.1,0.1c1.1,0.4,2.2,0.6,3.4,0.6c0.1,0,0.1,0.1,0.1,0.1l0,0.7c0,0.2,0,0.3,0,0.5v0.2
		c0,0.1,0,0.3-0.2,0.3c-0.4,0-0.8,0-1.4-0.1c-2-0.1-2.2,0.7-2.6,1.2c-0.7,1-0.4,2.4,0.6,3c0,0,0.1,0.1,0.1,0.1
		c1.3,0.6,2.5,0.6,5,0.1c0.1,0,0.1,0,0.1,0l0,2C451.4,443,451.4,443.1,451.3,443.1C451.4,443.1,451.3,443.1,451.3,443.1L451.3,443.1
		z"/>
	<path id="パス_631" d="M451.2,440.9c-2.4,0.5-3.7,0.5-5-0.1c-1-0.6-1.4-2-0.8-3c0,0,0.1-0.1,0.1-0.1c0.4-0.5,0.6-1.3,2.6-1.2
		c0.6,0,1,0,1.4,0.1c0.2,0,0.2-0.2,0.2-0.3V436c0-0.2,0-0.2,0-0.5l0-0.7c0-0.1-0.1-0.1-0.1-0.1c-1.2,0-2.3-0.2-3.4-0.6
		c-1-0.4-1.5-1.6-1-2.6c0,0,0-0.1,0.1-0.1c0.3-0.7,1-1.2,1.8-1.3c1.1-0.1,2.2-0.1,3.2,0.2c0.3,0,0.6,0.1,0.9,0.1l0.1-1.1
		c0-0.4,0-0.8,0-1.2c-1.7-0.7-3.5-0.8-5.3-0.4c-1.5,0.4-2.7,1.4-3.2,2.8c-0.8,1.9,0,4.1,1.8,5.1c-0.3,0.2-0.6,0.5-0.9,0.8
		c-1.4,1.8-1.1,4.3,0.7,5.7c0.1,0.1,0.2,0.2,0.3,0.2c1.1,0.6,2.4,0.9,3.7,0.9c1,0.1,2,0,2.9-0.3c0,0,0.1-0.1,0.1-0.1c0,0,0,0,0,0
		l0-2C451.3,440.9,451.3,440.9,451.2,440.9z M448.5,443.3c-1.3,0-2.5-0.3-3.6-0.9c-1-0.6-1.6-1.6-1.8-2.7c-0.2-1.1,0.1-2.2,0.8-3.1
		c0.2-0.3,0.5-0.6,0.9-0.8l0.1-0.1l-0.1-0.1c-1.7-1-2.5-3.2-1.7-5c0.6-1.4,1.7-2.4,3.2-2.8c0.6-0.2,1.3-0.3,1.9-0.3
		c1.1,0.1,2.2,0.3,3.2,0.6c0,0.2,0,0.9,0,1.1l-0.1,1c-0.2,0-0.7-0.1-0.8-0.1c-1.1-0.2-2.2-0.3-3.2-0.2c-0.8,0.1-1.5,0.6-1.9,1.4
		c-0.5,1-0.1,2.3,0.9,2.8c0,0,0,0,0.1,0c1,0.4,2,0.6,3.1,0.6c0.1,0,0.2,0,0.3,0c0,0,0.1,0,0.1,0l0,0.9c0,0.1,0,0.2,0,0.3v0.2
		c0,0.1,0,0.1,0,0.2c0,0,0,0-0.1,0c-0.1,0-0.3,0-0.5,0c-0.3,0-0.6,0-0.9,0c-1.8-0.1-2.2,0.6-2.6,1.1c0,0.1-0.1,0.1-0.1,0.2
		c-0.4,0.5-0.5,1.2-0.3,1.8c0.1,0.6,0.5,1.1,1.1,1.4c1.2,0.6,2.5,0.7,5,0.1c0,0,0,0,0,0l0,2v0l0,0
		C450.4,443.3,449.4,443.4,448.5,443.3L448.5,443.3z"/>
	<path id="パス_632" d="M458.6,338.6c4.9,0.1,9.4,0.8,12.8,3.1c1.1,0.9,2,2,2.8,3.2c1,1.6,1.8,3.3,2.5,5.1
		c0.9,2.7,0.9,5.2-0.4,6.9c-0.2,0.9-1.5,2-2,2.9c-0.5,1-1.2,1.9-2,2.7c-0.1,0.2-0.3,0.3-0.4,0.5c0.7,0.5,1.5,0.9,2.2,1.4
		c3.1-3.1,4.9-7.2,5-11.6c0.4-11.4-12.2-17.4-24.2-16c-2.2,0.2-4.4,0.5-6.8,0.9c0.1,0.6,0.3,1.1,0.5,1.7
		C451.9,338.9,455.3,338.7,458.6,338.6z"/>
	<path id="パス_633" d="M417.7,362.3c-0.1-0.4-0.2-0.8-0.1-1.3c-0.3-1-0.4-2.1-0.2-3.2c0.3-1.8,1-3.6,2.2-5c2.3-3.2,5.5-5.6,9.1-7
		c1-0.4,4-1.6,5-2c3.1-1.3,6.2-2.4,9.4-3.2c0.2-0.7,0.3-1.4,0.5-2.1c-10.3,2-21,5.6-27,14c-3,4.1-3.9,9.3-1.3,13.8
		c0.7,1.3,1.7,2.4,2.9,3.3c0.9-0.8,1.7-1.5,2.6-2.2C419.3,365.9,418.3,364.1,417.7,362.3z"/>
	<path id="パス_634" d="M448.6,339.4c-0.2-0.6-0.3-1.2-0.5-1.7c-1.5,0.2-3.1,0.5-4.7,0.8c-0.1,0.6-0.3,1.3-0.5,2.1
		C444.9,340,446.7,339.7,448.6,339.4z"/>
	<path id="パス_635" d="M446.9,373.1c0.2,0.1,0.5,0.1,0.7,0.1c8.5,0,20-2.3,26.5-8.9c-0.7-0.5-1.5-1-2.2-1.4
		c-1.4,1.7-3.2,2.9-5.3,3.5c-0.3,0.1-0.6,0.2-1,0.3c-7.3,4.4-16.7,4.7-25.3,4.4c-7.2-0.2-15.1,0.9-19.8-3.8
		c-0.9,0.7-1.7,1.4-2.6,2.2C423.7,374,434.5,375.5,446.9,373.1z"/>
	<path id="パス_636" d="M437.7,353.3c-1,0-2.1,0-3.1-0.1c-2.2-0.2-1.6,1.1,0,2.2c0.3,0.1,0.6,0.1,0.9,0.2
		C436.3,354.9,437,354.2,437.7,353.3z"/>
	<path id="パス_637" d="M453.6,349.5c0.7,0.8,1.3,1.5,1.8,2.3c0.2-0.1,0.4-0.2,0.5-0.4C457.4,349.1,455.9,348.2,453.6,349.5z"/>
	<path id="パス_638" d="M455.4,351.8c-0.6-0.7-1.1-1.5-1.8-2.3c-0.2,0.1-0.4,0.2-0.5,0.3c-1.9,1.3-5.5,2.4-7.7,2.8
		c-2.5,0.4-5.1,0.6-7.7,0.7c-0.7,0.8-1.4,1.6-2.2,2.3c5,0.9,10.1,0.5,14.9-1.3c1.5-0.6,2.9-1.3,4.3-2.1
		C454.9,352.1,455.2,352,455.4,351.8z"/>
	<g id="グループ_677" transform="translate(389.126 336.108)">
		<path id="パス_639" d="M1.9,24.5c-1.2-1.5-1.4-3.6-0.5-5.3c0.7-1.4,1.4-2.7,1.9-4.2c0.1-0.4-0.1-0.9-0.5-1.1
			c-2.8,1.6-3.9,4.6-4.4,7.7c-0.1,0.4-0.1,0.7-0.1,1.1c1,2.2,2.9,5,5.2,5.4c0.2-0.1,0.3-0.2,0.5-0.4C3.1,26.8,2.4,25.7,1.9,24.5z"/>
		<path id="パス_640" d="M9.6,25.7c0.1,0.1,0.2,0.2,0.3,0.3c0,0,0.1,0,0.1,0.1c0.8,0.2,1.7,0.4,2.6,0.4c0.1,0,0.2,0,0.2,0
			c0.1-0.1,0.2-0.2,0.3-0.3c-0.2-0.2-0.4-0.4-0.6-0.6l0,0l0,0c-0.3-0.3-0.6-0.5-0.8-0.8c-0.5-0.5-0.9-1-1.3-1.5
			c-0.7-1.1-1-2.4-0.8-3.8c0.2-1.6,0.8-3.1,1.6-4.5c0.5-0.9,1.1-1.8,1.6-2.7c-0.2-0.5-0.8-0.7-1.3-0.5C6.4,14.6,4.2,22.9,9.6,25.7z"
			/>
		<path id="パス_641" d="M106.2,3.3c-0.2-0.5-0.5-0.9-0.8-1.3c-0.2,0-0.4-0.1-0.5-0.3c-1.4-1.5-4.1-1.8-6.4-1.8
			c0,0.2,0.1,0.3,0.1,0.4c1,0.3,2,0.8,2.8,1.5c0.3,0.2,0.5,0.4,0.8,0.7c0.2,0,0.3,0.1,0.4,0.2c0.2,0.1,0.3,0.3,0.5,0.4
			c0.4,0.3,0.8,0.6,1,1c0.1,0.2,0.1,0.3,0.2,0.5c0.1,0.2,0.2,0.3,0.2,0.5c0.2,0.1,0.3,0.3,0.4,0.5c0.7,2,0.6,4.3-0.4,6.2
			c0.3,0.5,1,0.5,1.4,0.2c0.1-0.1,0.2-0.1,0.2-0.2C108,9.3,107.6,6.1,106.2,3.3z"/>
		<path id="パス_642" d="M109.6,3.4c0.1,1.3,0.2,2.5,0.2,3.8c0,0.3,0.1,0.5,0.3,0.6c0.3-0.1,0.6-0.2,0.9-0.3
			c0.4-0.8,0.6-1.6,0.7-2.5c0,0,0-0.1,0-0.1s0,0,0-0.1c0,0,0-0.1,0-0.1c0-0.6-0.1-1.2-0.3-1.7c-0.1-0.6-0.3-1.2-0.5-1.8
			c-1.3-1.8-3.2-3.2-5.4-3.8c-0.1,0-0.1,0-0.2,0.1c-0.4,0-0.8,0.2-0.9,0.6c1.1,0.5,2.2,1.2,3,2.1c0.8,0.6,1.5,1.5,1.9,2.4
			C109.5,2.8,109.5,3.1,109.6,3.4z"/>
	</g>
	<path id="パス_643" d="M464.6,437c-0.2-0.6-0.8-0.9-1.4-0.8c-0.2,0.1-0.4,0.2-0.6,0.3c-0.1,0.1-0.3,0.2-0.5,0.1
		c-0.2-0.1-0.5-0.1-0.7,0c-0.6,0.1-1,0.7-0.9,1.3c0,0.1,0.1,0.2,0.1,0.2c0.9,1,2.4,1.1,3.4,0.2c0.3-0.3,0.6-0.7,0.7-1.1
		C464.6,437.2,464.6,437.1,464.6,437z"/>
</g>
</svg>
