<?xml version="1.0" encoding="utf-8"?>
<!-- Generator: Adobe Illustrator 24.2.0, SVG Export Plug-In . SVG Version: 6.00 Build 0)  -->
<svg version="1.1" id="レイヤー_1" xmlns="http://www.w3.org/2000/svg" xmlns:xlink="http://www.w3.org/1999/xlink" x="0px"
	 y="0px" viewBox="0 0 256 98" style="enable-background:new 0 0 256 98;" xml:space="preserve">
<g id="グループ_1040" transform="translate(-60.89 -3473.287)">
	<path id="パス_722" d="M74.4,3563.6c0,1.7-0.6,3.3-1.9,4.5c-1.2,1.2-2.8,1.9-4.5,1.9c-1.7,0-3.3-0.6-4.5-1.9
		c-1.2-1.2-1.9-2.8-1.9-4.5v-7.8c0-0.3,0.1-0.6,0.4-0.9c0.2-0.2,0.5-0.4,0.9-0.4c0.3,0,0.6,0.1,0.9,0.4c0.2,0.2,0.4,0.5,0.4,0.9v7.8
		c0,1,0.4,2,1.1,2.8c0.7,0.8,1.7,1.2,2.8,1.2c1,0,2-0.4,2.8-1.1c0.7-0.7,1.2-1.7,1.1-2.8v-7.8c0-0.3,0.1-0.6,0.4-0.9
		c0.2-0.2,0.5-0.4,0.9-0.4c0.3,0,0.6,0.1,0.9,0.4c0.2,0.2,0.4,0.5,0.4,0.9V3563.6z M83.4,3569.7c-0.2,0.2-0.5,0.4-0.9,0.4
		c-0.3,0-0.6-0.1-0.9-0.4c-0.2-0.2-0.4-0.5-0.4-0.9v-13c0-0.3,0.1-0.6,0.4-0.9c0.2-0.2,0.5-0.4,0.9-0.4h7.2c0.3,0,0.6,0.1,0.8,0.4
		c0.2,0.2,0.4,0.5,0.4,0.9c0,0.3-0.1,0.6-0.4,0.9c-0.2,0.2-0.5,0.4-0.8,0.4h-6v4h5.1c0.3,0,0.6,0.1,0.8,0.4c0.2,0.2,0.4,0.5,0.4,0.9
		c0,0.3-0.1,0.6-0.4,0.9c-0.2,0.2-0.5,0.4-0.9,0.4h-5.1v5.3C83.8,3569.1,83.6,3569.4,83.4,3569.7L83.4,3569.7z M109.2,3563.6
		c0,1.7-0.6,3.3-1.9,4.5c-1.2,1.2-2.8,1.9-4.5,1.9c-1.7,0-3.3-0.6-4.5-1.9c-1.2-1.2-1.9-2.8-1.9-4.5v-7.8c0-0.3,0.1-0.6,0.4-0.9
		c0.2-0.2,0.5-0.4,0.9-0.4c0.3,0,0.6,0.1,0.9,0.4c0.2,0.2,0.4,0.5,0.4,0.9v7.8c0,1,0.4,2,1.1,2.8c0.7,0.8,1.7,1.2,2.8,1.2
		c1,0,2-0.4,2.8-1.1c0.7-0.7,1.2-1.7,1.1-2.8v-7.8c0-0.3,0.1-0.6,0.4-0.9c0.2-0.2,0.5-0.4,0.9-0.4c0.3,0,0.6,0.1,0.9,0.4
		c0.2,0.2,0.4,0.5,0.4,0.9L109.2,3563.6z M118.2,3569.7c-0.2,0.2-0.5,0.4-0.9,0.4c-0.3,0-0.6-0.1-0.9-0.4c-0.2-0.2-0.4-0.5-0.4-0.9
		v-13c0-0.3,0.1-0.6,0.4-0.9c0.2-0.2,0.5-0.4,0.9-0.4h7.2c0.3,0,0.6,0.1,0.8,0.4c0.2,0.2,0.4,0.5,0.4,0.9c0,0.3-0.1,0.6-0.4,0.9
		c-0.2,0.2-0.5,0.4-0.8,0.4h-6v4h5.1c0.3,0,0.6,0.1,0.8,0.4c0.2,0.2,0.4,0.5,0.4,0.9c0,0.3-0.1,0.6-0.4,0.9
		c-0.2,0.2-0.5,0.4-0.9,0.4h-5.1v5.3C118.5,3569.1,118.4,3569.4,118.2,3569.7L118.2,3569.7z M143.9,3563.6c0,1.7-0.7,3.3-1.9,4.5
		c-1.2,1.2-2.8,1.9-4.5,1.9c-1.7,0-3.3-0.6-4.5-1.9c-1.2-1.2-1.9-2.8-1.9-4.5v-7.8c0-0.3,0.1-0.6,0.4-0.9c0.2-0.2,0.5-0.4,0.9-0.4
		c0.3,0,0.6,0.1,0.9,0.4c0.2,0.2,0.4,0.5,0.4,0.9v7.8c0,1,0.4,2,1.1,2.8c0.7,0.8,1.7,1.2,2.8,1.2c1,0,2-0.4,2.8-1.1
		c0.7-0.7,1.2-1.7,1.1-2.8v-7.8c0-0.3,0.1-0.6,0.4-0.9c0.2-0.2,0.5-0.4,0.9-0.4c0.3,0,0.6,0.1,0.9,0.4c0.2,0.2,0.4,0.5,0.4,0.9
		L143.9,3563.6z M161.2,3569.7c-0.2,0.2-0.5,0.4-0.9,0.4c-0.3,0-0.6-0.1-0.9-0.4c-0.2-0.2-0.4-0.5-0.4-0.9v-13
		c0-0.3,0.1-0.6,0.4-0.9c0.2-0.2,0.5-0.4,0.9-0.4h7.2c0.3,0,0.6,0.1,0.8,0.4c0.2,0.2,0.4,0.5,0.4,0.9c0,0.3-0.1,0.6-0.4,0.9
		c-0.2,0.2-0.5,0.4-0.8,0.4h-6v4h5.1c0.3,0,0.6,0.1,0.8,0.4c0.2,0.2,0.4,0.5,0.4,0.9c0,0.3-0.1,0.6-0.4,0.9
		c-0.2,0.2-0.5,0.4-0.9,0.4h-5.1v5.3C161.6,3569.1,161.5,3569.4,161.2,3569.7z M183.2,3569.2l-1.1-2.9h-5.3l-1.1,2.9
		c-0.1,0.5-0.6,0.8-1.1,0.8c-0.4,0-0.9-0.2-1.1-0.5c-0.2-0.3-0.3-0.7-0.1-1.1l4.9-13c0.1-0.2,0.3-0.4,0.5-0.6
		c0.2-0.1,0.4-0.2,0.7-0.2c0.5-0.1,1,0.3,1.2,0.8l4.9,13c0.1,0.4,0.1,0.8-0.1,1.1c-0.2,0.4-0.7,0.6-1.1,0.5
		C183.7,3570,183.3,3569.7,183.2,3569.2z M177.6,3564h3.6l-1.8-4.7L177.6,3564z M192.6,3559.7v9.1c0,0.3-0.1,0.6-0.4,0.8
		c-0.2,0.2-0.5,0.4-0.8,0.4c-0.3,0-0.6-0.1-0.8-0.4c-0.2-0.2-0.4-0.5-0.4-0.9V3556c-0.1-0.4,0.1-0.8,0.4-1c0.3-0.2,0.6-0.3,1-0.3
		c0.3,0,0.6,0.2,0.8,0.5l7.1,9.8v-9.1c0-0.3,0.1-0.6,0.4-0.8c0.2-0.2,0.5-0.4,0.8-0.4c0.3,0,0.6,0.1,0.8,0.4
		c0.2,0.2,0.4,0.5,0.4,0.8v12.8c0,0.3-0.1,0.6-0.4,0.9c-0.2,0.2-0.5,0.4-0.9,0.4c-0.3,0-0.7-0.2-0.9-0.4c0,0-0.1-0.1-0.1-0.1
		L192.6,3559.7z M208.2,3560.5l0.4-4.7c0-0.3,0.2-0.6,0.4-0.9c0.2-0.2,0.5-0.4,0.9-0.4h0.9c0.2,0,0.4,0.1,0.5,0.2
		c0.1,0.1,0.2,0.3,0.2,0.4c0,0.2,0,0.4-0.1,0.6l-1.6,4.9c-0.1,0.4-0.4,0.7-0.8,0.7c-0.2,0-0.4-0.1-0.6-0.2
		C208.2,3560.9,208.1,3560.7,208.2,3560.5L208.2,3560.5z M224.8,3565.3c0-1.1-1.3-1.9-3.9-2.4h0c-1-0.2-2-0.5-3-0.9
		c-0.7-0.3-1.4-0.9-1.8-1.5c-0.4-0.6-0.6-1.2-0.6-1.9c0-1.3,0.6-2.4,1.7-3.1c1.1-0.8,2.5-1.3,3.9-1.2c0.7,0,1.3,0.1,2,0.3
		c0.5,0.2,1,0.4,1.5,0.6c0.3,0.2,0.8,0.5,1.3,0.8c0.2,0.2,0.4,0.4,0.5,0.7c0.1,0.3,0,0.6-0.2,0.8c-0.2,0.3-0.4,0.4-0.7,0.5
		c-0.3,0.1-0.6,0-0.9-0.2c-0.6-0.4-1.2-0.8-1.8-1.1c-0.5-0.2-1.1-0.4-1.7-0.4c-0.8,0-1.7,0.2-2.4,0.7c-0.5,0.3-0.9,0.8-0.9,1.5
		c0,0.2,0.1,0.4,0.2,0.6c0.4,0.7,1.5,1.2,3.3,1.5h0c1,0.2,2.1,0.5,3,0.9c1.8,0.9,2.7,2.1,2.7,3.7c0,1.4-0.7,2.6-1.8,3.4
		c-1.2,0.9-2.7,1.3-4.2,1.3c-2.1-0.1-4.1-0.8-5.6-2.2c-0.2-0.2-0.4-0.5-0.4-0.8c0-0.3,0-0.6,0.2-0.8c0.2-0.2,0.5-0.4,0.8-0.4
		c0.3,0,0.6,0,0.8,0.3c1.2,1,2.6,1.6,4.2,1.7c0.9,0,1.9-0.2,2.7-0.8C224.3,3566.6,224.7,3566,224.8,3565.3L224.8,3565.3z
		 M245.8,3569.9c0,0-0.1,0-0.2-0.1h0c0,0-0.1-0.1-0.2-0.1c0,0,0-0.1-0.1-0.1c0,0,0-0.1-0.1-0.1c0,0,0-0.1-0.1-0.1c0,0,0-0.1-0.1-0.1
		l-5.4-12.8c-0.1-0.3-0.1-0.6,0-0.9c0.1-0.3,0.4-0.5,0.7-0.6c0.3-0.1,0.6-0.1,0.9,0c0.3,0.1,0.5,0.4,0.7,0.6l4.3,10.2l4.3-10.2
		c0.1-0.3,0.4-0.5,0.7-0.6c0.3-0.1,0.6-0.1,0.9,0c0.3,0.1,0.5,0.3,0.6,0.6c0.1,0.3,0.1,0.6,0,0.9l-5.4,12.9l-0.1,0.2c0,0,0,0,0,0
		l-0.3,0.3c0,0-0.1,0.1-0.1,0.1c-0.1,0-0.2,0.1-0.3,0.1h0c-0.1,0-0.2,0-0.2,0c-0.1,0-0.1,0-0.2,0h0
		C246,3570,245.9,3569.9,245.8,3569.9L245.8,3569.9L245.8,3569.9z M260.3,3567.7c-1.4-1.5-2.2-3.5-2.2-5.6c0-2.1,0.8-4.1,2.2-5.6
		c1.4-1.5,3.3-2.4,5.3-2.3c2,0,4,0.8,5.3,2.4c1.4,1.5,2.2,3.5,2.2,5.6c0,2.1-0.8,4.1-2.2,5.5c-0.7,0.7-1.5,1.3-2.4,1.7
		c-0.9,0.4-1.9,0.6-2.9,0.6C263.7,3570,261.7,3569.2,260.3,3567.7L260.3,3567.7z M260.6,3562.1c0,1.4,0.5,2.8,1.5,3.8
		c0.9,1,2.2,1.6,3.6,1.6c1.4,0,2.7-0.6,3.5-1.6c1-1,1.5-2.4,1.5-3.8c0-1.4-0.5-2.8-1.5-3.8c-0.9-1-2.2-1.6-3.6-1.6
		c-1.4,0-2.7,0.6-3.6,1.6C261.1,3559.3,260.6,3560.7,260.6,3562.1L260.6,3562.1z M279.4,3555.8c0-0.3,0.1-0.6,0.4-0.9
		c0.2-0.2,0.5-0.4,0.9-0.4c0.3,0,0.6,0.1,0.9,0.4c0.2,0.2,0.4,0.5,0.4,0.9v13c0,0.3-0.1,0.6-0.4,0.9c-0.2,0.2-0.5,0.4-0.9,0.4
		c-0.3,0-0.6-0.1-0.9-0.4c-0.2-0.2-0.4-0.5-0.4-0.9L279.4,3555.8z M291.2,3558.3c-1,1-1.6,2.4-1.6,3.9c0,1.4,0.6,2.8,1.6,3.8
		c1,1,2.4,1.6,3.8,1.6c1.3,0,2.6-0.4,3.7-1.2c0.3-0.2,0.6-0.3,0.9-0.2c0.3,0,0.6,0.2,0.9,0.5c0.2,0.3,0.3,0.6,0.2,0.9
		c0,0.3-0.2,0.6-0.5,0.8c-1.4,1.1-3.2,1.7-5.1,1.7c-2.1,0-4.2-0.8-5.7-2.3c-1.5-1.5-2.4-3.5-2.4-5.6c0-2.1,0.9-4.1,2.4-5.6
		c1.5-1.5,3.5-2.4,5.7-2.3c1.8,0,3.6,0.6,5.1,1.7c0.3,0.2,0.4,0.5,0.5,0.8c0,0.3,0,0.7-0.3,0.9c-0.2,0.3-0.5,0.4-0.8,0.5
		c-0.3,0.1-0.6,0-0.9-0.2c-1-0.8-2.3-1.3-3.6-1.2C293.6,3556.7,292.2,3557.2,291.2,3558.3L291.2,3558.3z M307.7,3570
		c-0.3,0-0.6-0.1-0.9-0.4c-0.2-0.2-0.4-0.5-0.4-0.9v-13c0-0.3,0.1-0.6,0.4-0.9c0.2-0.2,0.5-0.4,0.9-0.4h7.2c0.3,0,0.6,0.1,0.8,0.4
		c0.2,0.2,0.4,0.5,0.4,0.9c0,0.3-0.1,0.6-0.4,0.9c-0.2,0.2-0.5,0.4-0.8,0.4h-6v4h5.1c0.3,0,0.6,0.1,0.8,0.4c0.2,0.2,0.4,0.5,0.4,0.9
		c0,0.3-0.1,0.6-0.4,0.9c-0.2,0.2-0.5,0.4-0.9,0.4h-5.1v4h6c0.3,0,0.6,0.1,0.8,0.4c0.2,0.2,0.4,0.5,0.4,0.9c0,0.3-0.1,0.6-0.4,0.9
		c-0.2,0.2-0.5,0.4-0.8,0.4H307.7L307.7,3570L307.7,3570z"/>
	<g id="グループ_863" transform="translate(-95.832 3015.111)">
		<g id="グループ_683" transform="translate(263.74 458.176)">
			<path id="パス_653" d="M14.1,32.4c-0.6,0.1-1.1,0.7-1,1.3c0.1,0.6,0.7,1.1,1.3,1c0.6-0.1,1.1-0.7,1-1.3
				C15.3,32.8,14.7,32.3,14.1,32.4C14.1,32.4,14.1,32.4,14.1,32.4z"/>
			<path id="パス_654" d="M27.3,30.8c-0.6,0.1-1.1,0.7-1,1.3c0.1,0.6,0.7,1.1,1.3,1c0.6-0.1,1.1-0.7,1-1.3
				C28.6,31.2,28,30.7,27.3,30.8C27.3,30.8,27.3,30.8,27.3,30.8z"/>
			<path id="パス_655" d="M23.3,41.1l-0.1-0.8c0,0,0,0,0,0c-0.6,0.3-1.4,0.4-2.1,0.2c-0.2-0.1-0.4-0.3-0.5-0.5
				c-0.1-0.2-0.1-0.5,0.1-0.8c0,0,0-0.1,0-0.1c0.1-0.2,0.3-0.5,1-0.6c0.1,0,0.3,0,0.4,0l0.2,0c0,0,0,0,0,0c0,0,0-0.1,0-0.1l0-0.1
				c0,0,0-0.1,0-0.1l0-0.4c0,0,0,0,0,0l-0.1,0c-0.4,0.1-0.9,0-1.3-0.1c-0.4-0.1-0.7-0.6-0.6-1.1c0,0,0,0,0,0
				c0.1-0.3,0.4-0.6,0.7-0.7c0.4-0.1,0.9-0.1,1.3-0.1c0,0,0.2,0,0.3,0l0-0.4c0-0.1,0-0.4,0-0.4c-0.4-0.1-0.9-0.1-1.4-0.1
				c-0.3,0-0.5,0.1-0.8,0.2c-0.6,0.2-1,0.7-1.2,1.3c-0.2,0.8,0.2,1.6,0.9,2l0,0l0,0c-0.1,0.1-0.2,0.2-0.3,0.4
				c-0.2,0.4-0.3,0.9-0.2,1.3c0.1,0.5,0.5,0.8,0.9,1c0.5,0.2,1,0.3,1.5,0.2C22.5,41.3,22.9,41.3,23.3,41.1L23.3,41.1L23.3,41.1z"/>
			<g id="グループ_682">
				<path id="パス_656" d="M13.9,20.1c0.4-0.1,0.7-0.2,1.1-0.3l0.4-0.1c0.3-0.1,0.5-0.1,0.8-0.2l0.4-0.1c0.2-0.1,0.5-0.1,0.7-0.2
					l0.5-0.1c0.2,0,0.5-0.1,0.7-0.1c0.2,0,0.3-0.1,0.5-0.1c0.2,0,0.5-0.1,0.7-0.1c0.2,0,0.4,0,0.5-0.1c0.3,0,0.5,0,0.8-0.1l0.1,0
					c0.1,0,0.3,0,0.4,0c0.3,0,0.5,0,0.8,0h0.2c0.1,0,0.2,0,0.3,0h0c0.4,0,0.8,0,1.2,0l0.2,0c0.4,0,0.8,0.1,1.2,0.1l0.2,0
					c0.5,0.1,0.9,0.1,1.3,0.2l0.1,0c0.4,0.1,0.8,0.2,1.2,0.3l0.1,0c0.4,0.1,0.8,0.3,1.2,0.4l0.2,0.1c0.4,0.1,0.7,0.3,1.1,0.5
					l0.2,0.1c0.4,0.2,0.7,0.4,1.1,0.7l0.2,0.1c0.4,0.3,0.7,0.5,1.1,0.8l0.1,0.1c0.4,0.3,0.7,0.7,1.1,1c1,1,1.9,2.2,2.7,3.3
					c0.3-1.4,0.5-2.9,0.5-4.4c0.3-4.1-1.6-8-4.8-10.4c-3-2.4-6.5-3.2-9-3.7c-2.9-0.6-4.4-1.4-5.2-3c-1.2-2.4-1-3.8-1.8-3.7
					c-0.7,0.1-0.1,2.5-1.2,4.5C13.6,9.5,7,10.1,3.3,16.6C1.2,20,0.9,24.2,2.4,27.8C5.3,24,9.3,21.3,13.9,20.1z"/>
				<path id="パス_657" d="M27.6,28.8L27.6,28.8l-0.1-0.1c-0.2-0.1-0.4-0.2-0.6-0.3l0,0c-0.2-0.1-0.4-0.2-0.6-0.2l-0.1,0
					c-0.2-0.1-0.4-0.1-0.6-0.2l-0.1,0c-0.2,0-0.4-0.1-0.6-0.1l-0.1,0c-0.2,0-0.4-0.1-0.7-0.1l-0.1,0c-0.2,0-0.5,0-0.7,0
					s-0.4,0-0.6,0l-0.2,0c-0.2,0-0.3,0-0.5,0l-0.2,0c-0.2,0-0.4,0-0.6,0.1c-0.2,0-0.3,0-0.5,0.1l-0.1,0l-0.6,0.1
					c-0.2,0-0.3,0-0.5,0.1c-1.9,0.3-3.7,1.2-5.2,2.5c1.8-0.1,4-0.2,6.3-0.6C23.6,29.5,25.9,29.2,27.6,28.8z"/>
				<path id="パス_658" d="M39.6,32.9c0-0.1,0-0.2-0.1-0.3c-0.1-0.4-0.2-0.8-0.4-1.2c-0.2-0.6-0.5-1.2-0.8-1.8
					c-0.4-0.8-0.8-1.5-1.3-2.3c-0.9-1.3-1.9-2.6-3-3.8c-0.3-0.3-0.7-0.7-1-1l-0.1-0.1c-0.3-0.3-0.6-0.5-1-0.8l-0.2-0.1
					c-0.3-0.2-0.7-0.4-1-0.6l-0.2-0.1c-0.4-0.2-0.7-0.4-1.1-0.5l-0.2-0.1c-0.4-0.2-0.8-0.3-1.2-0.4l-0.1,0c-0.4-0.1-0.8-0.2-1.2-0.3
					l-0.1,0c-0.4-0.1-0.8-0.1-1.2-0.2l-0.2,0c-0.4,0-0.8-0.1-1.2-0.1l-0.2,0c-0.4,0-0.8,0-1.1,0c-0.1,0-0.2,0-0.3,0l-0.2,0
					c-0.3,0-0.5,0-0.8,0c-0.1,0-0.3,0-0.4,0l-0.1,0c-0.2,0-0.5,0-0.7,0.1c-0.2,0-0.4,0-0.5,0.1c-0.2,0-0.5,0.1-0.7,0.1
					c-0.2,0-0.3,0.1-0.5,0.1c-0.2,0-0.5,0.1-0.7,0.1l-0.5,0.1c-0.2,0-0.5,0.1-0.7,0.2l-0.4,0.1c-0.3,0.1-0.5,0.1-0.8,0.2l-0.4,0.1
					c-0.4,0.1-0.7,0.2-1.1,0.3c-4.4,1.2-8.9,4.1-11.3,7.8c-1,1.5-1.7,3.3-1.8,5.2C0.7,36.2,1,38.8,2,41.2c1,2.5,2.6,4.7,4.8,6.4l0,0
					l0.1,0c0.4,0.3,0.7,0.5,1.1,0.8l0.2,0.2c0.4,0.2,0.7,0.4,1,0.6l0.1,0.1c0.3,0.2,0.6,0.3,0.9,0.5l0.2,0.1c0.3,0.2,0.7,0.3,1,0.5
					l0.2,0.1c0.3,0.1,0.6,0.2,0.9,0.3l0.2,0.1c0.3,0.1,0.6,0.2,1,0.3l0.2,0.1c0.3,0.1,0.6,0.1,0.9,0.2l0.2,0c0.3,0.1,0.6,0.1,1,0.2
					l0.2,0c0.3,0,0.6,0.1,0.9,0.1h0l0,0c0.3,0,0.6,0,1,0h0.2c0.1,0,0.2,0,0.4,0h0.1c0.4,0,0.7,0,1.1,0l0.3,0c0.5,0,0.9-0.1,1.4-0.1
					l0.3,0c0.4-0.1,0.8-0.1,1.2-0.2l0.4-0.1c0.5-0.1,1-0.2,1.5-0.3c9.9-2.1,14.2-8.3,14.9-13.3c0.2-1.5,0.1-3-0.2-4.5
					C39.7,33,39.6,33,39.6,32.9z M26.7,42.1L26.7,42.1c-0.2,0.1-0.4,0.2-0.6,0.3l-0.2,0.1c-0.2,0.1-0.3,0.1-0.5,0.2l-0.3,0.1
					c-0.2,0-0.3,0.1-0.5,0.1l-0.3,0.1c-0.2,0-0.4,0.1-0.6,0.1l-0.2,0c-0.3,0.1-0.5,0.1-0.8,0.1l-0.2,0c-0.2,0-0.4,0.1-0.6,0.1
					l-0.3,0c-0.2,0-0.4,0-0.5,0l-0.3,0c-0.2,0-0.4,0-0.5,0h-0.2l-0.3,0c-0.1,0-0.3,0-0.4,0l-0.2,0c-0.2,0-0.3,0-0.5,0l-0.1,0
					c-0.2,0-0.4-0.1-0.5-0.1l-0.1,0c-0.2,0-0.3-0.1-0.4-0.1c-0.1,0-0.1,0-0.2,0c-0.1,0-0.2-0.1-0.3-0.1L17,43
					c-0.1-0.1-0.3-0.1-0.4-0.2c-0.1-0.1-0.3-0.1-0.4-0.2c-0.2-0.1-0.4-0.2-0.6-0.3c-0.2-0.1-0.5-0.3-0.8-0.4
					c-0.3-0.2-0.6-0.4-0.9-0.6c-1.2-0.8-2.9-2.4-2.9-6c0.1-1.8,0.8-3.5,2.1-4.8c1.6-1.7,3.7-2.8,6-3.2c0.1,0,0.3,0,0.5-0.1l0.6-0.1
					c0.2,0,0.4,0,0.6-0.1c0.2,0,0.4,0,0.6-0.1l0.2,0c0.2,0,0.3,0,0.5,0l0.2,0c0.2,0,0.5,0,0.7,0h0c0.2,0,0.5,0,0.7,0l0.2,0
					c0.2,0,0.5,0,0.7,0.1l0.1,0c0.3,0,0.5,0.1,0.7,0.1l0.1,0c0.2,0.1,0.5,0.1,0.7,0.2l0.1,0.1c0.2,0.1,0.5,0.2,0.6,0.3l0.1,0
					c0.2,0.1,0.4,0.2,0.6,0.4l0.1,0.1c0.2,0.1,0.3,0.2,0.4,0.3c0.1,0,0.1,0.1,0.2,0.1l0.1,0.1c0.2,0.2,0.4,0.4,0.5,0.6l0.1,0.1
					c0.2,0.2,0.3,0.4,0.5,0.7l0.1,0.1c0.2,0.3,0.3,0.6,0.4,0.9C32.7,36.8,29.5,40.8,26.7,42.1L26.7,42.1z"/>
			</g>
		</g>
		<path id="パス_659" d="M291.8,495.9c-0.1-0.2-0.4-0.3-0.6-0.2c-0.1,0-0.2,0.1-0.2,0.2c0,0.1-0.1,0.1-0.2,0.1c-0.1,0-0.2,0-0.3,0
			c-0.2,0.1-0.4,0.4-0.3,0.6c0,0,0,0.1,0.1,0.1c0.4,0.3,1.1,0.3,1.4-0.2C291.8,496.4,291.9,496.2,291.8,495.9
			C291.9,496,291.9,495.9,291.8,495.9z"/>
	</g>
</g>
</svg>
