<?xml version="1.0" encoding="utf-8"?>
<!-- Generator: Adobe Illustrator 24.2.0, SVG Export Plug-In . SVG Version: 6.00 Build 0)  -->
<svg version="1.1" id="レイヤー_1" xmlns="http://www.w3.org/2000/svg" xmlns:xlink="http://www.w3.org/1999/xlink" x="0px"
	 y="0px" viewBox="0 0 534 36" style="enable-background:new 0 0 534 36;" xml:space="preserve">
<path id="パス_673" d="M27.6,21.3c0,3.5-1.4,6.9-3.9,9.4c-2.5,2.6-5.9,4-9.4,3.9c-3.5,0.1-6.9-1.3-9.4-3.9
	c-2.5-2.5-3.9-5.9-3.9-9.4V4.9c0-0.7,0.3-1.3,0.7-1.8c0.5-0.5,1.1-0.7,1.8-0.7c0.7,0,1.3,0.3,1.8,0.7c0.5,0.5,0.8,1.1,0.8,1.8v16.4
	c0,2.2,0.8,4.3,2.4,5.8c1.5,1.6,3.6,2.5,5.8,2.4c2.2,0,4.3-0.8,5.8-2.4c1.6-1.5,2.4-3.6,2.4-5.8V4.9c0-0.7,0.3-1.3,0.8-1.8
	c0.5-0.5,1.1-0.7,1.8-0.7c0.7,0,1.3,0.3,1.8,0.7c0.5,0.5,0.7,1.1,0.7,1.8L27.6,21.3z M46.5,33.8c-0.5,0.5-1.1,0.7-1.8,0.7
	c-0.7,0-1.3-0.3-1.8-0.7c-0.5-0.5-0.7-1.1-0.7-1.8V4.9c0-0.7,0.3-1.3,0.7-1.8c0.5-0.5,1.1-0.7,1.8-0.7h15c0.7,0,1.3,0.3,1.8,0.8
	c0.5,0.5,0.8,1.1,0.8,1.8c0,0.7-0.3,1.3-0.8,1.8c-0.5,0.5-1.1,0.8-1.8,0.8H47.2v8.4H58c0.7,0,1.3,0.3,1.8,0.8
	c0.5,0.5,0.8,1.1,0.8,1.8c0,0.7-0.3,1.3-0.7,1.8C59.3,20.7,58.6,21,58,21H47.2v11C47.2,32.7,47,33.4,46.5,33.8z M100.3,21.3
	c0,3.5-1.4,6.9-3.9,9.4c-2.5,2.6-5.9,4-9.4,3.9c-3.5,0.1-6.9-1.3-9.4-3.9c-2.5-2.5-3.9-5.9-3.9-9.4V4.9c0-0.7,0.3-1.3,0.7-1.8
	c0.5-0.5,1.1-0.7,1.8-0.7c0.7,0,1.3,0.3,1.8,0.7c0.5,0.5,0.8,1.1,0.8,1.8v16.4c0,2.2,0.8,4.3,2.4,5.8c1.5,1.6,3.6,2.5,5.8,2.4
	c2.2,0,4.3-0.8,5.8-2.4c1.6-1.5,2.4-3.6,2.4-5.8V4.9c0-0.7,0.3-1.3,0.8-1.8c0.5-0.5,1.1-0.7,1.8-0.7c0.7,0,1.3,0.3,1.8,0.7
	c0.5,0.5,0.7,1.1,0.7,1.8L100.3,21.3z M119.1,33.8c-0.5,0.5-1.1,0.7-1.8,0.7c-0.7,0-1.3-0.3-1.8-0.7c-0.5-0.5-0.7-1.1-0.7-1.8V4.9
	c0-0.7,0.3-1.3,0.7-1.8c0.5-0.5,1.1-0.7,1.8-0.7h15c0.7,0,1.3,0.3,1.8,0.8c0.5,0.5,0.8,1.1,0.8,1.8c0,0.7-0.3,1.3-0.8,1.8
	c-0.5,0.5-1.1,0.8-1.8,0.8h-12.5v8.4h10.7c0.7,0,1.3,0.3,1.8,0.8c0.5,0.5,0.8,1.1,0.8,1.8c0,0.7-0.3,1.3-0.7,1.8
	c-0.5,0.5-1.1,0.8-1.8,0.8h-10.7v11C119.9,32.7,119.6,33.4,119.1,33.8z M172.9,21.3c0,3.5-1.4,6.9-3.9,9.4c-2.5,2.6-5.9,4-9.4,3.9
	c-3.5,0.1-6.9-1.3-9.4-3.9c-2.5-2.5-3.9-5.9-3.9-9.4V4.9c0-0.7,0.3-1.3,0.7-1.8c0.5-0.5,1.1-0.7,1.8-0.7c0.7,0,1.3,0.3,1.8,0.7
	c0.5,0.5,0.8,1.1,0.8,1.8v16.4c0,2.2,0.8,4.3,2.4,5.8c1.5,1.6,3.6,2.5,5.8,2.4c2.2,0,4.3-0.8,5.8-2.4c1.6-1.5,2.4-3.6,2.4-5.8V4.9
	c0-0.7,0.3-1.3,0.8-1.8c0.5-0.5,1.1-0.7,1.8-0.7c0.7,0,1.3,0.3,1.8,0.7c0.5,0.5,0.7,1.1,0.7,1.8L172.9,21.3z M209.2,33.8
	c-0.5,0.5-1.1,0.7-1.8,0.7c-0.7,0-1.3-0.3-1.8-0.7c-0.5-0.5-0.7-1.1-0.7-1.8V4.9c0-0.7,0.3-1.3,0.7-1.8c0.5-0.5,1.1-0.7,1.8-0.7h15
	c0.7,0,1.3,0.3,1.8,0.8c0.5,0.5,0.8,1.1,0.8,1.8c0,0.7-0.3,1.3-0.8,1.8c-0.5,0.5-1.1,0.8-1.8,0.8H210v8.4h10.7
	c0.7,0,1.3,0.3,1.8,0.8c0.5,0.5,0.8,1.1,0.8,1.8c0,0.7-0.3,1.3-0.7,1.8c-0.5,0.5-1.1,0.8-1.8,0.8H210v11
	C210,32.7,209.7,33.4,209.2,33.8z M255.1,33l-2.3-6h-11.2l-2.2,6c-0.3,1-1.2,1.6-2.2,1.6c-0.9,0.1-1.8-0.4-2.3-1.1
	c-0.5-0.7-0.6-1.5-0.3-2.3L244.8,4c0.2-0.5,0.6-0.9,1-1.2c0.4-0.3,0.9-0.4,1.4-0.4c1.1-0.1,2.1,0.6,2.4,1.6l10.2,27.1
	c0.3,0.8,0.2,1.6-0.3,2.3c-0.5,0.8-1.4,1.2-2.3,1.1C256.2,34.6,255.3,33.9,255.1,33z M243.5,21.9h7.5l-3.7-9.9L243.5,21.9z
	 M274.8,12.9V32c0,0.7-0.3,1.3-0.7,1.8c-0.5,0.5-1.1,0.8-1.8,0.8c-0.7,0-1.3-0.3-1.8-0.7c-0.5-0.5-0.7-1.1-0.7-1.8V5.3
	c-0.1-0.8,0.2-1.6,0.9-2c0.6-0.4,1.3-0.6,2-0.5c0.7,0.1,1.2,0.5,1.6,1l14.9,20.6v-19c0-0.7,0.3-1.3,0.7-1.7c0.5-0.5,1.1-0.7,1.8-0.7
	c0.7,0,1.3,0.3,1.8,0.7c0.5,0.4,0.8,1.1,0.8,1.7V32c0,0.7-0.3,1.3-0.8,1.8c-0.5,0.5-1.1,0.7-1.8,0.7c-0.7,0-1.4-0.3-1.8-0.9
	c-0.1-0.1-0.2-0.2-0.2-0.3L274.8,12.9z M307.3,14.6l0.8-9.8c0-0.7,0.3-1.3,0.8-1.8c0.5-0.5,1.1-0.8,1.8-0.7h1.8
	c0.4,0,0.8,0.1,1.1,0.4c0.3,0.2,0.4,0.6,0.4,0.9c0,0.4-0.1,0.8-0.2,1.2L310.6,15c-0.2,0.8-0.9,1.4-1.7,1.4c-0.4,0-0.9-0.2-1.1-0.5
	C307.4,15.6,307.3,15.1,307.3,14.6L307.3,14.6z M342,24.8c0-2.3-2.7-4-8.1-5h-0.1c-2.1-0.4-4.2-1-6.2-1.9c-1.6-0.7-2.9-1.8-3.8-3.2
	c-0.8-1.2-1.2-2.6-1.2-4c0-2.6,1.3-5.1,3.5-6.6c2.4-1.7,5.2-2.6,8.1-2.6c1.4,0,2.8,0.2,4.1,0.7c1.1,0.3,2.1,0.8,3.2,1.3
	c0.7,0.4,1.6,1,2.7,1.7c0.5,0.4,0.9,0.9,1,1.5c0.1,0.6,0,1.3-0.3,1.8c-0.3,0.5-0.9,0.9-1.5,1c-0.6,0.1-1.3,0-1.8-0.3
	c-1.2-0.9-2.5-1.6-3.8-2.2c-1.1-0.5-2.3-0.7-3.6-0.7c-1.8-0.1-3.5,0.4-5,1.4c-1.1,0.6-1.8,1.8-1.9,3c0,0.5,0.1,0.9,0.4,1.3
	c0.9,1.4,3.2,2.5,6.9,3.2h0.1c2.2,0.4,4.3,1,6.3,1.9c3.8,1.9,5.7,4.4,5.7,7.7c0,2.8-1.4,5.5-3.8,7c-2.5,1.8-5.6,2.8-8.7,2.7
	c-4,0-7.9-1.6-11.8-4.6c-0.5-0.4-0.8-1-0.9-1.6c-0.1-0.6,0.1-1.3,0.5-1.7c0.4-0.5,1-0.8,1.6-0.9c0.6-0.1,1.3,0.1,1.7,0.5
	c2.9,2.4,5.9,3.6,8.8,3.5c2,0.1,3.9-0.5,5.6-1.6C341.1,27.5,341.9,26.2,342,24.8z M386,34.4c-0.1,0-0.2-0.1-0.4-0.3h0
	c-0.1-0.1-0.2-0.2-0.3-0.2c0-0.1-0.1-0.1-0.1-0.2c-0.1-0.1-0.1-0.1-0.1-0.2c0-0.1-0.1-0.1-0.1-0.2c0-0.1-0.1-0.2-0.2-0.3L373.4,6.2
	c-0.3-0.6-0.3-1.3,0-1.9c0.2-0.6,0.8-1.1,1.4-1.4c0.6-0.3,1.3-0.3,1.9,0c0.6,0.2,1.1,0.7,1.4,1.4l9,21.3l9-21.3
	c0.3-0.6,0.8-1.1,1.4-1.4c0.6-0.3,1.3-0.3,1.9,0c0.6,0.2,1.1,0.7,1.4,1.4c0.3,0.6,0.3,1.3,0,1.9L389.3,33l-0.2,0.4c0,0,0,0.1,0,0.1
	l-0.6,0.6c-0.1,0.1-0.2,0.1-0.3,0.2c-0.1,0.1-0.3,0.1-0.6,0.2h-0.1c-0.2,0-0.3,0-0.5,0c-0.1,0-0.3,0-0.4,0h-0.1
	C386.3,34.5,386.2,34.4,386,34.4L386,34.4L386,34.4z M416.3,29.7c-3-3.1-4.6-7.3-4.6-11.7c-0.1-4.3,1.6-8.5,4.6-11.7
	c2.8-3.2,6.9-4.9,11.2-4.9c4.3-0.1,8.3,1.8,11.2,4.9c3,3.1,4.6,7.3,4.6,11.7c0.1,4.3-1.6,8.5-4.6,11.6c-1.4,1.5-3.1,2.8-5,3.6
	c-1.9,0.9-3.9,1.3-6,1.3C423.3,34.6,419.2,32.9,416.3,29.7L416.3,29.7z M417,18c-0.1,3,1.1,5.8,3.1,8c1.9,2.1,4.6,3.4,7.4,3.3
	c2.8,0,5.6-1.2,7.4-3.4c2-2.2,3.1-5,3.1-7.9c0-2.9-1-5.8-3-7.9c-1.9-2.2-4.6-3.4-7.4-3.4c-2.9,0-5.6,1.2-7.5,3.3
	C418.1,12.2,417,15,417,18L417,18z M456.3,4.9c0-0.7,0.3-1.3,0.7-1.8c0.5-0.5,1.1-0.7,1.8-0.7c0.7,0,1.3,0.3,1.8,0.7
	c0.5,0.5,0.8,1.1,0.8,1.8V32c0,0.7-0.3,1.3-0.8,1.8c-0.5,0.5-1.1,0.7-1.8,0.7c-0.7,0-1.3-0.3-1.8-0.7c-0.5-0.5-0.7-1.1-0.7-1.8
	L456.3,4.9z M480.9,10c-2.2,2.1-3.4,5.1-3.4,8.1c0,3,1.2,5.9,3.4,7.9c2.1,2.1,5,3.3,7.9,3.3c2.8,0.1,5.5-0.8,7.7-2.5
	c0.5-0.4,1.2-0.6,1.9-0.5c0.7,0.1,1.3,0.4,1.8,1c0.4,0.6,0.6,1.3,0.5,2c-0.1,0.7-0.4,1.3-1,1.7c-3,2.4-6.8,3.6-10.6,3.6
	c-4.5,0.1-8.7-1.7-11.9-4.9c-3.2-3-5-7.3-5-11.7c0-4.4,1.8-8.6,5-11.7c3.1-3.2,7.4-4.9,11.9-4.9c3.8-0.1,7.6,1.2,10.6,3.6
	c0.5,0.4,0.9,1.1,1,1.7c0.1,0.7-0.1,1.4-0.5,1.9c-0.4,0.6-1.1,0.9-1.8,1c-0.7,0.1-1.4-0.1-1.9-0.5c-2.2-1.7-4.9-2.6-7.6-2.5
	C485.9,6.7,483,7.9,480.9,10z M515.4,34.6c-0.7,0-1.3-0.3-1.8-0.7c-0.5-0.5-0.7-1.1-0.7-1.8V4.9c0-0.7,0.3-1.3,0.7-1.8
	c0.5-0.5,1.1-0.8,1.8-0.7h15c0.7,0,1.3,0.3,1.8,0.7c0.5,0.5,0.8,1.1,0.8,1.8c0,0.7-0.3,1.3-0.8,1.8c-0.5,0.5-1.1,0.8-1.8,0.8H518
	v8.4h10.7c0.7,0,1.3,0.3,1.8,0.8c0.5,0.5,0.8,1.1,0.8,1.8c0,0.7-0.3,1.3-0.7,1.8c-0.5,0.5-1.1,0.8-1.8,0.8H518v8.5h12.5
	c0.7,0,1.3,0.3,1.8,0.8c0.5,0.5,0.8,1.1,0.8,1.8c0,0.7-0.3,1.3-0.8,1.8c-0.5,0.5-1.1,0.8-1.8,0.8h-14.9H515.4L515.4,34.6z"/>
</svg>
