<?xml version="1.0" encoding="utf-8"?>
<!-- Generator: Adobe Illustrator 24.2.0, SVG Export Plug-In . SVG Version: 6.00 Build 0)  -->
<svg version="1.1" id="レイヤー_1" xmlns="http://www.w3.org/2000/svg" xmlns:xlink="http://www.w3.org/1999/xlink" x="0px"
	 y="0px" viewBox="0 0 156 116" style="enable-background:new 0 0 156 116;" xml:space="preserve">
<g id="グループ_751" transform="translate(-258.766 -4465.86)">
	<g id="グループ_680" transform="translate(-371.126 4133.229)">
		<g id="グループ_679" transform="translate(748.231 397.063)">
			<path id="パス_644" d="M35.5,14.2c-0.9-3.8-4.3-9.5-8.1-11c-7.2-2.8-10-2.9-15.4-0.3c-8.5,4-10.6,13.4-9.8,17.8
				s3.1,8.4,8.2,11.4c6.8,4.1,11.9,2,16.7-0.7C32,28.8,36.7,19.5,35.5,14.2z M23.4,22.2c-2.3,1.1-4.3,1.3-7.8-2.7
				c-2.6-3-1.1-4.9,0.2-6.7c1.7-2.5,3.8-2.7,6.4-2.2c2.2,0.4,4,2.1,4.6,4.3C27.7,17.8,26.2,21,23.4,22.2L23.4,22.2z"/>
		</g>
		<path id="パス_645" d="M716.1,421.2c5.2-10.9,2-21.2-1-26.8c-2.9-5.5-8.7-10.6-14.2-14c-1.6,1.3-3.3,2.6-5.1,3.7
			c-5,3.3-14.2,6.8-29.7,11.2c-8.4,2.4-18,4.1-23.3,4.1c-0.7,0-1.5,0-2.2-0.2c-0.5,3.9-0.4,7.5-0.6,10.6c-0.4,4.5-0.7,6.6-2.1,9
			c-1.3,2.3-3.5,3.9-6,4.6c2.3,4.6,9.1,6.1,12.7,5s7.5-4.9,9.1-13.1c6.9,2.9,13.9,5.3,21.1,7.2c11.3,2.9,17.5,4.3,21.9,4.4
			c-3.3,9.7-2.1,12.9,1.4,16.1c3.8,3.4,9.7,2.8,13.3,1.1c-1.6-1.4-3.6-3.6-2.8-8.2C709.5,430.9,712.3,429.4,716.1,421.2z"/>
		<path id="パス_646" d="M659.9,422.1c-1.4-0.4-2.8,0.4-3.2,1.7c-0.4,1.4,0.4,2.8,1.7,3.2c1.4,0.4,2.8-0.4,3.2-1.7
			C662.1,423.9,661.3,422.5,659.9,422.1C659.9,422.1,659.9,422.1,659.9,422.1z"/>
		<path id="パス_647" d="M688,429.9c-1.4-0.4-2.8,0.4-3.2,1.7s0.4,2.8,1.7,3.2c1.4,0.4,2.8-0.4,3.2-1.7c0,0,0,0,0,0
			C690.1,431.7,689.3,430.3,688,429.9z"/>
		<path id="パス_648" d="M674.9,434.5c-0.8-0.6-1.7-1-2.6-1.3c-0.6-0.2-1.2-0.2-1.7-0.3c-1.3,0-2.6,0.6-3.4,1.6
			c-1.1,1.4-1,3.5,0.2,4.8l0.1,0.1l-0.1,0c-0.3,0.1-0.7,0.3-0.9,0.5c-0.8,0.6-1.4,1.5-1.5,2.5c-0.1,1,0.2,2,0.9,2.8
			c0.8,0.8,1.8,1.4,2.9,1.7c0.8,0.3,1.7,0.5,2.5,0.4v0l0,0l0.5-1.7c0,0,0,0,0,0c-2.3-0.2-3.4-0.5-4.3-1.4c-0.4-0.4-0.6-0.9-0.6-1.5
			c0-0.6,0.3-1.1,0.7-1.5c0.1,0,0.1-0.1,0.2-0.1c0.4-0.4,1-0.8,2.5-0.3c0.3,0.1,0.6,0.2,0.8,0.3c0.1,0,0.3,0.1,0.4,0.1
			c0,0,0,0,0.1,0c0,0,0.1-0.1,0.1-0.1l0.1-0.2c0-0.1,0-0.2,0.1-0.3l0.2-0.8c0,0,0,0,0-0.1l-0.3-0.1c-0.9-0.2-1.8-0.7-2.5-1.3
			c-0.8-0.7-0.9-1.8-0.2-2.6c0,0,0,0,0.1-0.1c0.5-0.6,1.2-0.8,2-0.7c1,0.2,1.9,0.5,2.8,1c0.1,0,0.5,0.2,0.6,0.3l0.4-0.9
			C674.7,435.3,674.9,434.7,674.9,434.5z"/>
		<path id="パス_649" d="M675,434.4L675,434.4c-1.3-1-2.9-1.6-4.5-1.7c-1.4,0-2.7,0.6-3.6,1.7c-1.1,1.5-1.1,3.5,0.2,4.9
			c-0.3,0.1-0.6,0.3-0.9,0.5c-0.9,0.6-1.4,1.5-1.5,2.6c-0.1,1.1,0.2,2.1,0.9,2.9c0.8,0.8,1.9,1.4,3,1.7c0.3,0.1,0.5,0.2,0.7,0.2
			c0.6,0.2,1.3,0.2,1.9,0.2c0,0,0.1,0,0.1,0c0,0,0-0.1,0-0.1l0.5-1.7v0c0-0.1-0.1-0.1-0.2-0.1c-2.2-0.2-3.3-0.5-4.2-1.3
			c-0.4-0.4-0.5-0.9-0.5-1.4c0-0.5,0.3-1,0.7-1.4c0.1,0,0.1-0.1,0.2-0.1c0.4-0.4,0.9-0.8,2.3-0.3c0.3,0.1,0.6,0.2,0.8,0.3
			c0.1,0,0.3,0.1,0.4,0.1c0.1,0,0.1,0,0.2,0c0.1-0.1,0.1-0.1,0.2-0.2l0.1-0.2c0-0.1,0-0.2,0.1-0.3l0.2-0.8c0-0.1,0-0.2-0.1-0.2
			c-0.1,0-0.2-0.1-0.3-0.1c-0.9-0.2-1.7-0.7-2.5-1.2c-0.7-0.6-0.8-1.7-0.2-2.4c0,0,0,0,0-0.1c0.5-0.5,1.1-0.8,1.8-0.7
			c1,0.2,1.9,0.5,2.7,1c0.7,0.3,0.8,0.3,0.8,0.3l0,0l0.4-0.9l0,0C674.9,435.2,675,434.8,675,434.4L675,434.4z M673.6,436
			c-0.9-0.5-1.8-0.8-2.8-1c-0.7-0.1-1.5,0.2-2,0.7c-0.7,0.8-0.6,1.9,0.1,2.6c0,0,0,0,0.1,0.1c0.8,0.6,1.6,1,2.5,1.3l0.3,0.1
			c0,0,0,0,0,0.1l-0.2,0.8c0,0.1,0,0.1-0.1,0.3l-0.1,0.2c0,0,0,0.1-0.1,0.1c0,0,0,0-0.1,0c-0.1,0-0.3-0.1-0.4-0.1
			c-0.2-0.1-0.5-0.2-0.8-0.3c-1.5-0.5-2.1-0.1-2.5,0.3c-0.1,0-0.1,0.1-0.2,0.1c-0.5,0.4-0.7,0.9-0.7,1.5c0,0.6,0.2,1.1,0.6,1.5
			c0.9,0.9,2,1.2,4.3,1.4c0,0,0,0,0,0l-0.5,1.7l0,0v0c-0.9,0-1.7-0.1-2.5-0.4c-1.1-0.3-2.1-0.9-2.9-1.7c-0.7-0.8-1-1.8-0.9-2.8
			c0.1-1,0.6-1.9,1.5-2.5c0.3-0.2,0.6-0.4,0.9-0.5l0.1,0l-0.1-0.1c-1.2-1.3-1.4-3.3-0.2-4.8c0.8-1.1,2.1-1.7,3.4-1.6
			c0.6,0,1.2,0.1,1.7,0.3c0.9,0.3,1.8,0.8,2.6,1.3c0,0.2-0.2,0.8-0.3,0.9l-0.4,0.9C674.1,436.2,673.7,436.1,673.6,436L673.6,436z"/>
		<path id="パス_650" d="M746.5,397.3c-0.3-0.4-0.7-0.9-1-1.3c-2.5-1.5-5.7-3.8-8.5-3.1c-0.1-0.1-0.2-0.1-0.3-0.2
			c0,0-0.1-0.1-0.1-0.1c-1.1-0.3-2.2-0.8-3.3-1.1c-1.4-0.4-2.8-0.6-4.2-0.4l0,0.1c0,0.1,0,0.2,0.1,0.3c0.3,0.1,0.5,0.1,0.8,0.2
			c0.8,0.1,1.6,0.4,2.4,0.8c0.8,0.1,1.5,0.3,2.2,0.6c0.3,0.2,0.7,0.3,1,0.5c-0.2,0.1-0.4,0.3-0.6,0.5c-1.9,1.8-1.6,5.8,1.1,6.7
			c3.4,1.2,4.2-2.9,3.1-5.2c0-0.1-0.1-0.2-0.2-0.3c0.6-0.2,1.3-0.1,1.9,0.2c1.2,0.3,2.4,0.8,3.6,1.4c0.6,0.4,1.2,0.8,1.7,1.2l0,0
			c0.2,0.1,0.5,0.1,0.7,0C746.8,397.8,746.7,397.5,746.5,397.3z M737.9,397.5L737.9,397.5c0,0.1,0,0.2,0,0.3c0,0.1-0.1,0.2-0.1,0.3
			c-0.1,0.2-0.2,0.3-0.4,0.4c-0.4,0.3-1,0.1-1.3-0.3c0,0,0,0,0-0.1c-0.1-0.1-0.2-0.2-0.3-0.4c-0.1-0.1-0.1-0.2-0.2-0.3
			c-0.2-0.9,0.3-1.9,1.3-1.7c0.5,0.2,0.9,0.7,0.9,1.2l0,0C737.9,397.2,737.9,397.3,737.9,397.5L737.9,397.5z"/>
		<path id="パス_651" d="M684.7,445.9c0-0.6-0.6-1.1-1.2-1.1c-0.2,0-0.5,0.1-0.7,0.2c-0.2,0.1-0.3,0.1-0.5,0
			c-0.2-0.1-0.4-0.2-0.7-0.2c-0.6,0-1.2,0.4-1.2,1c0,0.1,0,0.2,0,0.2c0.6,1.2,2.1,1.6,3.2,1c0.4-0.2,0.7-0.5,0.9-0.9
			C684.7,446.1,684.7,446,684.7,445.9z"/>
		<path id="パス_652" d="M694,350.3c-6.7-4.1-14.2-4.6-19.5-5c-6-0.4-9.4-1.5-11.5-4.5c-0.4-0.6-0.7-1.1-1-1.6
			c-0.1-0.2-0.2-0.3-0.3-0.5c-0.2-0.3-0.4-0.6-0.5-0.9c-0.1-0.2-0.2-0.4-0.3-0.6c-0.1-0.2-0.2-0.5-0.4-0.7c-0.2-0.3-0.3-0.6-0.4-0.9
			c-0.1-0.1-0.1-0.3-0.2-0.4c-0.1-0.2-0.2-0.3-0.3-0.5c-0.1-0.1-0.1-0.2-0.2-0.3c-0.1-0.1-0.1-0.2-0.2-0.3c-0.1-0.1-0.1-0.1-0.2-0.2
			c-0.1-0.1-0.2-0.1-0.2-0.2c-0.1,0-0.1,0-0.2-0.1c-0.1,0-0.3,0-0.4,0c-1.4,0.4,0.5,5.1-1.1,9.5c-3.1,8.2-16.4,11.3-22.1,25.8
			c-5.5,14,0.2,22.8,4.6,28.6c0.1,0.1,0.2,0.2,0.4,0.3c0.1,0,0.1,0,0.2,0.1c0.1,0.1,0.3,0.1,0.4,0.1c0.1,0,0.2,0,0.2,0l0,0
			c0.7,0.1,1.3,0.1,2,0.1c4.8,0,13.9-1.5,22.9-4.1c14-4,24.1-7.6,29.4-11.1c5.1-3.3,12-9,11.8-13C706.5,358.7,699.1,353.4,694,350.3
			z"/>
	</g>
</g>
</svg>
