<?xml version="1.0" encoding="utf-8"?>
<!-- Generator: Adobe Illustrator 24.2.0, SVG Export Plug-In . SVG Version: 6.00 Build 0)  -->
<svg version="1.1" id="レイヤー_1" xmlns="http://www.w3.org/2000/svg" xmlns:xlink="http://www.w3.org/1999/xlink" x="0px"
	 y="0px" viewBox="0 0 516 44" style="enable-background:new 0 0 516 44;" xml:space="preserve">
<style type="text/css">
	.st0{fill:#A22727;}
</style>
<g id="グループ_485" transform="translate(-416.977 -6426.082)">
	<path id="パス_733" class="st0" d="M449.6,6452.7c0.6,0,1.3,0.2,1.7,0.7c0.5,0.5,0.7,1.1,0.7,1.7v8.5c0,0.9-0.5,1.7-1.2,2.2
		c-2.6,1.6-5.6,2.5-8.6,2.4c-2.6,0-5.1-0.7-7.3-1.9c-2.2-1.3-4-3.1-5.3-5.2c-1.3-2.2-2-4.7-2-7.2c0-2.5,0.7-5,2-7.2
		c1.3-2.2,3.1-4,5.3-5.2c2.2-1.3,4.8-2,7.3-1.9c2.4-0.1,4.8,0.5,6.9,1.6c0.4,0.2,0.7,0.5,0.9,0.8c0.2,0.3,0.3,0.7,0.3,1.1
		c0,0.6-0.2,1.3-0.7,1.7c-0.4,0.5-1,0.7-1.6,0.7c-0.5,0-0.9-0.1-1.3-0.3c-1.4-0.6-2.9-0.9-4.5-0.9c-1.7,0-3.3,0.4-4.7,1.3
		c-1.4,0.9-2.6,2.1-3.4,3.5c-0.8,1.5-1.3,3.1-1.3,4.8c0,1.7,0.4,3.3,1.3,4.8c0.8,1.4,2,2.6,3.4,3.5c1.4,0.9,3.1,1.3,4.7,1.3
		c0.8,0,1.6-0.1,2.4-0.2c0.8-0.1,1.5-0.3,2.2-0.5v-5.2h-3.8c-0.6,0-1.3-0.2-1.7-0.7c-0.5-0.4-0.7-1.1-0.7-1.7c0-0.6,0.2-1.3,0.7-1.7
		c0.5-0.5,1.1-0.7,1.7-0.7H449.6z M488.6,6453.8c0,2.5-0.6,5-1.8,7.3c-1.1,2.1-2.8,3.9-4.9,5.2c-2.1,1.3-4.5,2-7,1.9
		c-2.5,0-4.9-0.6-7-1.9c-2.1-1.3-3.7-3.1-4.8-5.2c-1.2-2.2-1.8-4.7-1.7-7.3c0-2.5,0.6-5,1.7-7.3c1.1-2.1,2.8-4,4.8-5.2
		c2.1-1.3,4.5-2,7-1.9c2.5,0,4.9,0.6,7,1.9c2.1,1.3,3.7,3.1,4.9,5.2C488,6448.8,488.6,6451.3,488.6,6453.8z M483.4,6453.8
		c0-1.7-0.3-3.3-1.1-4.9c-0.7-1.4-1.7-2.6-3-3.5c-1.3-0.9-2.8-1.3-4.3-1.3c-1.5,0-3.1,0.4-4.3,1.3c-1.3,0.9-2.3,2.1-3,3.5
		c-0.7,1.5-1.1,3.2-1.1,4.9c0,1.7,0.3,3.4,1.1,4.9c0.7,1.4,1.7,2.6,3,3.5c1.3,0.8,2.8,1.3,4.3,1.3c1.5,0,3-0.4,4.3-1.3
		c1.3-0.9,2.3-2.1,3-3.5C483,6457.1,483.4,6455.5,483.4,6453.8z M525,6453.8c0,2.5-0.6,5-1.8,7.3c-1.1,2.1-2.8,3.9-4.9,5.2
		c-2.1,1.3-4.5,2-7,1.9c-2.5,0-4.9-0.6-7-1.9c-2.1-1.3-3.7-3.1-4.8-5.2c-1.2-2.2-1.8-4.7-1.7-7.3c0-2.5,0.6-5,1.7-7.3
		c1.1-2.1,2.8-4,4.8-5.2c2.1-1.3,4.5-2,7-1.9c2.5,0,4.9,0.6,7,1.9c2.1,1.3,3.7,3.1,4.9,5.2C524.4,6448.8,525,6451.3,525,6453.8z
		 M519.8,6453.8c0-1.7-0.3-3.3-1.1-4.9c-0.7-1.4-1.7-2.6-3-3.5c-1.3-0.9-2.8-1.3-4.3-1.3c-1.5,0-3.1,0.4-4.3,1.3
		c-1.3,0.9-2.3,2.1-3,3.5c-0.7,1.5-1.1,3.2-1.1,4.9c0,1.7,0.3,3.4,1.1,4.9c0.7,1.4,1.7,2.6,3,3.5c1.3,0.8,2.8,1.3,4.3,1.3
		c1.5,0,3-0.4,4.3-1.3c1.3-0.9,2.3-2.1,3-3.5C519.4,6457.1,519.8,6455.5,519.8,6453.8z M555.2,6441.2c0.8,0.4,1.3,1.2,1.2,2
		c0,0.6-0.2,1.2-0.6,1.6c-0.4,0.5-1,0.8-1.6,0.8c-0.5,0-0.9-0.1-1.4-0.4c-1.3-0.6-2.8-0.9-4.2-0.9c-1.7,0-3.4,0.4-4.9,1.2
		c-1.4,0.8-2.5,1.9-3.2,3.3c-0.8,1.5-1.2,3.2-1.1,4.9c0,3.1,0.8,5.5,2.5,7.2c1.8,1.7,4.2,2.5,6.7,2.4c1.5,0,2.9-0.3,4.2-0.9
		c0.4-0.2,0.8-0.3,1.3-0.3c0.7,0,1.3,0.3,1.8,0.9c0.4,0.5,0.6,1,0.6,1.6c0,0.4-0.1,0.8-0.3,1.2c-0.2,0.4-0.5,0.6-0.9,0.8
		c-2.1,1-4.3,1.6-6.6,1.6c-2.5,0-5-0.5-7.2-1.7c-2.2-1.1-4-2.8-5.2-4.9c-1.4-2.4-2-5.1-2-7.8c0-2.6,0.6-5.1,1.9-7.3
		c1.2-2.1,3-3.9,5.1-5.1c2.3-1.2,4.8-1.9,7.4-1.8C550.8,6439.6,553.1,6440.1,555.2,6441.2z M586.9,6439.8c0.7,0,1.3,0.2,1.8,0.7
		c0.5,0.5,0.7,1.1,0.7,1.8v23.1c0,0.7-0.2,1.3-0.7,1.7c-0.5,0.5-1.2,0.7-1.8,0.7c-0.6,0-1.3-0.2-1.7-0.7c-0.5-0.5-0.7-1.1-0.7-1.7
		v-9.3h-12.8v9.3c0,0.7-0.3,1.3-0.8,1.7c-0.5,0.5-1.1,0.7-1.8,0.7c-0.7,0-1.3-0.2-1.8-0.7c-0.5-0.5-0.7-1.1-0.7-1.7v-23.1
		c0-0.7,0.2-1.3,0.7-1.7c0.5-0.5,1.2-0.7,1.8-0.7c0.6,0,1.3,0.2,1.7,0.7c0.5,0.5,0.7,1.1,0.7,1.7v9.2h12.8v-9.2
		c0-0.7,0.3-1.3,0.8-1.7C585.6,6440.1,586.3,6439.8,586.9,6439.8z M621.3,6439.8c0.6,0,1.2,0.2,1.7,0.7c0.4,0.5,0.7,1.1,0.6,1.8
		v14.5c0,2-0.4,4.1-1.4,5.9c-0.9,1.7-2.3,3.1-3.9,4c-1.8,1-3.7,1.5-5.8,1.4c-2,0-4-0.5-5.8-1.4c-1.7-0.9-3-2.3-3.9-4
		c-1-1.8-1.4-3.8-1.4-5.9v-14.5c0-0.7,0.2-1.3,0.7-1.7c0.5-0.5,1.2-0.7,1.8-0.7c0.6,0,1.2,0.2,1.7,0.7c0.5,0.5,0.7,1.1,0.7,1.7v14.5
		c0,1.2,0.3,2.4,0.8,3.4c0.5,1,1.3,1.8,2.3,2.3c0.9,0.5,2,0.8,3.1,0.8c1.1,0,2.2-0.3,3.2-0.8c1-0.5,1.8-1.3,2.4-2.3
		c0.6-1,0.9-2.2,0.9-3.4v-14.5c0-0.6,0.2-1.3,0.6-1.8C620.1,6440,620.7,6439.7,621.3,6439.8z M668.2,6463.1c0.6,0,1.3,0.2,1.7,0.7
		c0.5,0.4,0.7,1.1,0.7,1.7c0,0.6-0.2,1.2-0.7,1.7c-0.5,0.4-1.1,0.7-1.7,0.7h-13c-0.7,0-1.3-0.2-1.7-0.7c-0.5-0.5-0.7-1.1-0.7-1.7
		v-23.1c0-0.7,0.2-1.3,0.7-1.7c0.5-0.5,1.2-0.7,1.8-0.7c0.6,0,1.3,0.2,1.7,0.7c0.5,0.5,0.7,1.1,0.7,1.7v20.9H668.2z M706.6,6453.8
		c0,2.5-0.6,5-1.8,7.3c-1.1,2.1-2.8,3.9-4.9,5.2c-2.1,1.3-4.5,2-7,1.9c-2.5,0-4.9-0.6-7-1.9c-2.1-1.3-3.7-3.1-4.8-5.2
		c-1.2-2.2-1.8-4.7-1.7-7.3c0-2.5,0.6-5,1.7-7.3c1.1-2.1,2.8-4,4.8-5.2c2.1-1.3,4.5-2,7-1.9c2.5,0,4.9,0.6,7,1.9
		c2.1,1.3,3.7,3.1,4.9,5.2C706.1,6448.8,706.7,6451.3,706.6,6453.8z M701.4,6453.8c0-1.7-0.3-3.3-1.1-4.9c-0.7-1.4-1.7-2.6-3-3.5
		c-1.3-0.9-2.8-1.3-4.3-1.3c-1.5,0-3.1,0.4-4.3,1.3c-1.3,0.9-2.3,2.1-3,3.5c-0.7,1.5-1.1,3.2-1.1,4.9c0,1.7,0.3,3.4,1.1,4.9
		c0.7,1.4,1.7,2.6,3,3.5c1.3,0.8,2.8,1.3,4.3,1.3c1.5,0,3-0.4,4.3-1.3c1.3-0.9,2.3-2.1,3-3.5
		C701.1,6457.1,701.5,6455.5,701.4,6453.8z M743,6453.8c0,2.5-0.6,5-1.8,7.3c-1.1,2.1-2.8,3.9-4.9,5.2c-2.1,1.3-4.5,2-7,1.9
		c-2.5,0-4.9-0.6-7-1.9c-2.1-1.3-3.7-3.1-4.8-5.2c-1.2-2.2-1.8-4.7-1.7-7.3c0-2.5,0.6-5,1.7-7.3c1.1-2.1,2.8-4,4.8-5.2
		c2.1-1.3,4.5-2,7-1.9c2.5,0,4.9,0.6,7,1.9c2.1,1.3,3.7,3.1,4.9,5.2C742.4,6448.8,743,6451.3,743,6453.8z M737.8,6453.8
		c0-1.7-0.3-3.3-1.1-4.9c-0.7-1.4-1.7-2.6-3-3.5c-1.3-0.9-2.8-1.3-4.3-1.3c-1.5,0-3.1,0.4-4.3,1.3c-1.3,0.9-2.3,2.1-3,3.5
		c-0.7,1.5-1.1,3.2-1.1,4.9c0,1.7,0.3,3.4,1.1,4.9c0.7,1.4,1.7,2.6,3,3.5c1.3,0.8,2.8,1.3,4.3,1.3c1.5,0,3-0.4,4.3-1.3
		c1.3-0.9,2.3-2.1,3-3.5C737.4,6457.1,737.8,6455.5,737.8,6453.8z M775,6463.6c0.2,0.2,0.3,0.5,0.4,0.8c0.1,0.3,0.2,0.6,0.2,0.9
		c0,0.7-0.3,1.4-0.8,1.8c-0.5,0.5-1.2,0.7-1.9,0.7c-0.3,0-0.7-0.1-1-0.2c-0.3-0.2-0.6-0.4-0.8-0.7l-8.7-11.4l-3.8,3.6v6.3
		c0,0.7-0.2,1.3-0.7,1.8c-0.5,0.5-1.1,0.7-1.8,0.7c-0.7,0-1.3-0.2-1.8-0.7c-0.5-0.5-0.7-1.1-0.7-1.7v-23.1c0-0.7,0.2-1.3,0.7-1.7
		c0.5-0.5,1.2-0.7,1.8-0.7c0.7,0,1.3,0.2,1.8,0.7c0.5,0.5,0.7,1.1,0.7,1.8v10.9l12.8-12.6c0.5-0.6,1.2-0.9,2-0.9
		c0.6,0,1.2,0.3,1.6,0.8c0.4,0.4,0.6,1,0.6,1.6c0,0.6-0.3,1.2-0.7,1.6l-8.7,8.3L775,6463.6z M819.8,6452.3c1.4,0.5,2.6,1.4,3.5,2.6
		c0.9,1.3,1.4,2.9,1.3,4.4c0,3.2-0.9,5.4-2.7,6.6c-1.9,1.3-4.2,1.9-6.5,1.9h-10c-0.7,0-1.3-0.2-1.7-0.7c-0.5-0.5-0.7-1.1-0.7-1.7
		v-23.1c0-0.7,0.2-1.3,0.7-1.7c0.5-0.5,1.1-0.7,1.7-0.7h10.1c5.1,0,7.6,2.4,7.6,7.1c0,1.1-0.3,2.2-0.9,3.2
		C821.7,6451,820.8,6451.8,819.8,6452.3z M817.9,6447.8c0.1-0.9-0.2-1.8-0.8-2.5c-0.6-0.6-1.5-0.9-2.3-0.8h-6.6v6.2h6.7
		c0.8,0,1.5-0.3,2.1-0.8C817.6,6449.4,818,6448.6,817.9,6447.8z M815.4,6463.2c1.1,0.1,2.1-0.3,2.9-1c0.8-0.8,1.1-1.8,1.1-2.9
		c0-1.6-0.4-2.6-1.2-3.1c-0.9-0.5-2-0.8-3-0.7h-6.9v7.7H815.4z M861,6453.8c0,2.5-0.6,5-1.8,7.3c-1.1,2.1-2.8,3.9-4.9,5.2
		c-2.1,1.3-4.5,2-7,1.9c-2.5,0-4.9-0.6-7-1.9c-2.1-1.3-3.7-3.1-4.8-5.2c-1.2-2.2-1.8-4.7-1.7-7.3c0-2.5,0.6-5,1.7-7.3
		c1.1-2.1,2.8-4,4.8-5.2c2.1-1.3,4.5-2,7-1.9c2.5,0,4.9,0.6,7,1.9c2.1,1.3,3.7,3.1,4.9,5.2C860.4,6448.8,861,6451.3,861,6453.8z
		 M855.8,6453.8c0-1.7-0.3-3.3-1.1-4.9c-0.7-1.4-1.7-2.6-3-3.5c-1.3-0.9-2.8-1.3-4.3-1.3c-1.5,0-3.1,0.4-4.3,1.3
		c-1.3,0.9-2.3,2.1-3,3.5c-0.7,1.5-1.1,3.2-1.1,4.9c0,1.7,0.3,3.4,1.1,4.9c0.7,1.4,1.7,2.6,3,3.5c1.3,0.8,2.8,1.3,4.3,1.3
		c1.5,0,3-0.4,4.3-1.3c1.3-0.9,2.3-2.1,3-3.5C855.4,6457.1,855.8,6455.5,855.8,6453.8z M897.3,6453.8c0,2.5-0.6,5-1.8,7.3
		c-1.1,2.1-2.8,3.9-4.9,5.2c-2.1,1.3-4.5,2-7,1.9c-2.5,0-4.9-0.6-7-1.9c-2.1-1.3-3.7-3.1-4.8-5.2c-1.2-2.2-1.8-4.7-1.7-7.3
		c0-2.5,0.6-5,1.7-7.3c1.1-2.1,2.8-4,4.8-5.2c2.1-1.3,4.5-2,7-1.9c2.5,0,4.9,0.6,7,1.9c2.1,1.3,3.7,3.1,4.9,5.2
		C896.7,6448.8,897.3,6451.3,897.3,6453.8z M892.1,6453.8c0-1.7-0.3-3.3-1.1-4.9c-0.7-1.4-1.7-2.6-3-3.5c-1.3-0.9-2.8-1.3-4.3-1.3
		c-1.5,0-3.1,0.4-4.3,1.3c-1.3,0.9-2.3,2.1-3,3.5c-0.7,1.5-1.1,3.2-1.1,4.9c0,1.7,0.3,3.4,1.1,4.9c0.7,1.4,1.7,2.6,3,3.5
		c1.3,0.8,2.8,1.3,4.3,1.3c1.5,0,3-0.4,4.3-1.3c1.3-0.9,2.3-2.1,3-3.5C891.8,6457.1,892.1,6455.5,892.1,6453.8z M929.4,6463.6
		c0.2,0.2,0.3,0.5,0.4,0.8c0.1,0.3,0.2,0.6,0.2,0.9c0,0.7-0.3,1.4-0.8,1.8c-0.5,0.5-1.2,0.7-1.9,0.7c-0.3,0-0.7-0.1-1-0.2
		c-0.3-0.2-0.6-0.4-0.8-0.7l-8.7-11.4l-3.8,3.6v6.3c0,0.7-0.2,1.3-0.7,1.8c-0.5,0.5-1.1,0.7-1.8,0.7c-0.7,0-1.3-0.2-1.8-0.7
		c-0.5-0.5-0.7-1.1-0.7-1.7v-23.1c0-0.7,0.2-1.3,0.7-1.7c0.5-0.5,1.2-0.7,1.8-0.7c0.7,0,1.3,0.2,1.8,0.7c0.5,0.5,0.7,1.1,0.7,1.8
		v10.9l12.8-12.6c0.5-0.6,1.2-0.9,2-0.9c0.6,0,1.2,0.3,1.6,0.8c0.4,0.4,0.6,1,0.6,1.6c0,0.6-0.3,1.2-0.7,1.6l-8.7,8.3L929.4,6463.6z
		"/>
	<path id="パス_221" d="M420.7,6442.7c0.7-2.6,2-4.9,3.8-6.9c1.5-1.8,2.1-3.1,1.8-4.5c-0.1-0.3-0.1-0.5-0.2-0.7
		c0-0.1,0-0.1-0.1-0.2c0-0.1-0.1-0.3-0.1-0.4c0-0.1-0.1-0.2-0.1-0.2c0-0.1-0.1-0.2-0.1-0.3l-0.1-0.4c0-0.1,0-0.1-0.1-0.2
		c0-0.1,0-0.1-0.1-0.2c0-0.1,0-0.1,0-0.1c0,0,0-0.1,0-0.1c0,0,0-0.1,0-0.1c0,0,0-0.1,0-0.1c0,0,0-0.1,0-0.1c0,0,0.1-0.1,0.1-0.1
		c0.5-0.3,1.3,1.5,3,2.2c3.2,1.3,7.6-1.7,13.2,0.6c5.5,2.2,6.4,6.1,6.9,8.9c0,0.1,0,0.1,0,0.2c0,0,0,0.1,0,0.1
		c0,0.1-0.1,0.1-0.1,0.2c0,0,0,0-0.1,0.1l0,0c-0.1,0.2-0.3,0.4-0.5,0.6c-2.2,2.1-4.6,3.9-7.2,5.5c-4.9,2.9-8.6,4.8-10.9,5.4
		c-2.3,0.6-5.7,1-6.8-0.1C419.8,6448.5,420.2,6445,420.7,6442.7z"/>
</g>
</svg>
