<?xml version="1.0" encoding="utf-8"?>
<!-- Generator: Adobe Illustrator 24.2.0, SVG Export Plug-In . SVG Version: 6.00 Build 0)  -->
<svg version="1.1" id="レイヤー_1" xmlns="http://www.w3.org/2000/svg" xmlns:xlink="http://www.w3.org/1999/xlink" x="0px"
	 y="0px" viewBox="0 0 282 154" style="enable-background:new 0 0 282 154;" xml:space="preserve">
<style type="text/css">
	.st0{fill:#2C2C2C;stroke:#000000;stroke-width:0.5;}
</style>
<g id="グループ_483" transform="translate(-505.041 -8323)">
	<path id="パス_673" d="M558.6,8472c0,1-0.4,2-1.1,2.7c-0.7,0.7-1.7,1.1-2.7,1.1c-1,0-2-0.4-2.7-1.1c-0.7-0.7-1.1-1.7-1.1-2.7
		v-4.6c0-0.2,0.1-0.4,0.2-0.5c0.1-0.1,0.3-0.2,0.5-0.2c0.2,0,0.4,0.1,0.5,0.2c0.1,0.1,0.2,0.3,0.2,0.5v4.6c0,0.6,0.2,1.2,0.7,1.6
		c0.4,0.4,1,0.7,1.6,0.7c0.6,0,1.2-0.2,1.6-0.7c0.4-0.4,0.7-1,0.7-1.6v-4.6c0-0.2,0.1-0.4,0.2-0.5c0.1-0.1,0.3-0.2,0.5-0.2
		c0.2,0,0.4,0.1,0.5,0.2c0.1,0.1,0.2,0.3,0.2,0.5L558.6,8472z M563.9,8475.5c-0.1,0.1-0.3,0.2-0.5,0.2c-0.2,0-0.4-0.1-0.5-0.2
		c-0.1-0.1-0.2-0.3-0.2-0.5v-7.7c0-0.2,0.1-0.4,0.2-0.5c0.1-0.1,0.3-0.2,0.5-0.2h4.3c0.2,0,0.4,0.1,0.5,0.2c0.1,0.1,0.2,0.3,0.2,0.5
		c0,0.2-0.1,0.4-0.2,0.5c-0.1,0.1-0.3,0.2-0.5,0.2h-3.5v2.4h3c0.2,0,0.4,0.1,0.5,0.2c0.1,0.1,0.2,0.3,0.2,0.5c0,0.2-0.1,0.4-0.2,0.5
		c-0.1,0.1-0.3,0.2-0.5,0.2h-3v3.1C564.1,8475.2,564,8475.4,563.9,8475.5z M579.1,8472c0,1-0.4,2-1.1,2.7c-0.7,0.7-1.7,1.1-2.7,1.1
		c-1,0-2-0.4-2.7-1.1c-0.7-0.7-1.1-1.7-1.1-2.7v-4.6c0-0.2,0.1-0.4,0.2-0.5c0.1-0.1,0.3-0.2,0.5-0.2c0.2,0,0.4,0.1,0.5,0.2
		c0.1,0.1,0.2,0.3,0.2,0.5v4.6c0,0.6,0.2,1.2,0.7,1.6c0.4,0.4,1,0.7,1.6,0.7c0.6,0,1.2-0.2,1.6-0.7c0.4-0.4,0.7-1,0.7-1.6v-4.6
		c0-0.2,0.1-0.4,0.2-0.5c0.1-0.1,0.3-0.2,0.5-0.2c0.2,0,0.4,0.1,0.5,0.2c0.1,0.1,0.2,0.3,0.2,0.5L579.1,8472z M584.4,8475.5
		c-0.1,0.1-0.3,0.2-0.5,0.2c-0.2,0-0.4-0.1-0.5-0.2c-0.1-0.1-0.2-0.3-0.2-0.5v-7.7c0-0.2,0.1-0.4,0.2-0.5c0.1-0.1,0.3-0.2,0.5-0.2
		h4.3c0.2,0,0.4,0.1,0.5,0.2c0.1,0.1,0.2,0.3,0.2,0.5c0,0.2-0.1,0.4-0.2,0.5c-0.1,0.1-0.3,0.2-0.5,0.2h-3.5v2.4h3
		c0.2,0,0.4,0.1,0.5,0.2c0.1,0.1,0.2,0.3,0.2,0.5c0,0.2-0.1,0.4-0.2,0.5c-0.1,0.1-0.3,0.2-0.5,0.2h-3v3.1
		C584.6,8475.2,584.5,8475.4,584.4,8475.5z M599.6,8472c0,1-0.4,2-1.1,2.7c-0.7,0.7-1.7,1.1-2.7,1.1c-1,0-2-0.4-2.7-1.1
		c-0.7-0.7-1.1-1.7-1.1-2.7v-4.6c0-0.2,0.1-0.4,0.2-0.5c0.1-0.1,0.3-0.2,0.5-0.2c0.2,0,0.4,0.1,0.5,0.2c0.1,0.1,0.2,0.3,0.2,0.5v4.6
		c0,0.6,0.2,1.2,0.7,1.6c0.4,0.4,1,0.7,1.6,0.7c0.6,0,1.2-0.2,1.6-0.7c0.4-0.4,0.7-1,0.7-1.6v-4.6c0-0.2,0.1-0.4,0.2-0.5
		c0.1-0.1,0.3-0.2,0.5-0.2c0.2,0,0.4,0.1,0.5,0.2c0.1,0.1,0.2,0.3,0.2,0.5V8472z M609.9,8475.5c-0.1,0.1-0.3,0.2-0.5,0.2
		c-0.2,0-0.4-0.1-0.5-0.2c-0.1-0.1-0.2-0.3-0.2-0.5v-7.7c0-0.2,0.1-0.4,0.2-0.5c0.1-0.1,0.3-0.2,0.5-0.2c0.2,0,0.4,0.1,0.5,0.2
		c0.1,0.1,0.2,0.3,0.2,0.5v3.1h3.4v-3.1c0-0.2,0.1-0.4,0.2-0.5c0.1-0.1,0.3-0.2,0.5-0.2c0.2,0,0.4,0.1,0.5,0.2
		c0.1,0.1,0.2,0.3,0.2,0.5v7.7c0,0.2-0.1,0.4-0.2,0.5c-0.1,0.1-0.3,0.2-0.5,0.2c-0.2,0-0.4-0.1-0.5-0.2c-0.1-0.1-0.2-0.3-0.2-0.5
		v-3.1h-3.4v3.1C610.1,8475.2,610,8475.4,609.9,8475.5z M624.2,8475.3l-0.6-1.7h-3.2l-0.6,1.7c-0.1,0.3-0.3,0.5-0.6,0.5
		c-0.3,0-0.5-0.1-0.6-0.3c-0.1-0.2-0.2-0.4-0.1-0.7l2.9-7.7c0.1-0.1,0.2-0.3,0.3-0.3c0.1-0.1,0.3-0.1,0.4-0.1c0.3,0,0.6,0.2,0.7,0.5
		l2.9,7.7c0.1,0.2,0.1,0.5-0.1,0.7c-0.1,0.2-0.4,0.3-0.6,0.3C624.5,8475.7,624.3,8475.5,624.2,8475.3z M620.9,8472.2h2.1l-1.1-2.8
		L620.9,8472.2z M629.8,8469.6v5.4c0,0.2-0.1,0.4-0.2,0.5c-0.1,0.1-0.3,0.2-0.5,0.2c-0.2,0-0.4-0.1-0.5-0.2
		c-0.1-0.1-0.2-0.3-0.2-0.5v-7.6c0-0.2,0.1-0.4,0.3-0.6c0.2-0.1,0.4-0.2,0.6-0.1c0.2,0,0.3,0.1,0.5,0.3l4.2,5.8v-5.4
		c0-0.2,0.1-0.4,0.2-0.5c0.1-0.1,0.3-0.2,0.5-0.2c0.2,0,0.4,0.1,0.5,0.2c0.1,0.1,0.2,0.3,0.2,0.5v7.6c0,0.2-0.1,0.4-0.2,0.5
		c-0.1,0.1-0.3,0.2-0.5,0.2c-0.2,0-0.4-0.1-0.5-0.3c0,0,0,0-0.1-0.1L629.8,8469.6z M639.4,8475v-7.7c0-0.2,0.1-0.4,0.2-0.5
		c0.1-0.1,0.3-0.2,0.5-0.2h1.5c1.2,0,2.4,0.5,3.2,1.3c0.9,0.8,1.3,2,1.3,3.2c0,1.2-0.5,2.4-1.3,3.2c-0.8,0.9-2,1.4-3.2,1.3h-1.5
		c-0.2,0-0.4-0.1-0.5-0.2C639.5,8475.4,639.4,8475.2,639.4,8475z M640.8,8468.1v6.2h0.8c0.8,0,1.6-0.3,2.2-0.9
		c0.6-0.6,0.9-1.4,0.9-2.2c0-0.8-0.3-1.6-0.9-2.2c-0.6-0.6-1.4-0.9-2.2-0.9L640.8,8468.1z M653.7,8472.4L653.7,8472.4
		c-0.3,0-0.5-0.1-0.6-0.3l-1.9-2.6v5.5c0,0.2-0.1,0.4-0.2,0.5c-0.1,0.1-0.3,0.2-0.5,0.2c-0.2,0-0.4-0.1-0.5-0.2
		c-0.1-0.1-0.2-0.3-0.2-0.5v-7.7c0-0.2,0.1-0.4,0.2-0.5c0.1-0.1,0.3-0.2,0.5-0.2h0c0.2,0,0.4,0.1,0.6,0.3l2.6,3.6l2.6-3.6
		c0.1-0.2,0.4-0.3,0.6-0.3h0c0.2,0,0.4,0.1,0.5,0.2c0.1,0.1,0.2,0.3,0.2,0.5v7.7c0,0.2-0.1,0.4-0.2,0.5c-0.1,0.1-0.3,0.2-0.5,0.2
		c-0.2,0-0.4-0.1-0.5-0.2c-0.1-0.1-0.2-0.3-0.2-0.5v-5.5l-1.9,2.6C654.2,8472.3,653.9,8472.4,653.7,8472.4z M667.1,8475.3l-0.6-1.7
		h-3.2l-0.6,1.7c-0.1,0.3-0.3,0.5-0.6,0.5c-0.3,0-0.5-0.1-0.6-0.3c-0.1-0.2-0.2-0.4-0.1-0.7l2.9-7.7c0.1-0.1,0.2-0.3,0.3-0.3
		c0.1-0.1,0.3-0.1,0.4-0.1c0.3,0,0.6,0.2,0.7,0.5l2.9,7.7c0.1,0.2,0.1,0.5-0.1,0.7c-0.1,0.2-0.4,0.3-0.6,0.3
		C667.4,8475.7,667.2,8475.5,667.1,8475.3z M663.8,8472.2h2.1l-1.1-2.8L663.8,8472.2z M671.2,8475v-7.7c0-0.2,0.1-0.4,0.2-0.5
		c0.1-0.1,0.3-0.2,0.5-0.2h1.5c1.2,0,2.4,0.5,3.2,1.3c0.9,0.8,1.3,2,1.3,3.2c0,1.2-0.5,2.4-1.3,3.2c-0.8,0.9-2,1.4-3.2,1.3H672
		c-0.2,0-0.4-0.1-0.5-0.2C671.3,8475.4,671.2,8475.2,671.2,8475L671.2,8475z M672.7,8468.1v6.2h0.8c0.8,0,1.6-0.3,2.2-0.9
		c0.6-0.6,0.9-1.4,0.9-2.2c0-0.8-0.3-1.6-0.9-2.2c-0.6-0.6-1.4-0.9-2.2-0.9L672.7,8468.1z M682.3,8475.7c-0.2,0-0.4-0.1-0.5-0.2
		c-0.1-0.1-0.2-0.3-0.2-0.5v-7.7c0-0.2,0.1-0.4,0.2-0.5c0.1-0.1,0.3-0.2,0.5-0.2h4.3c0.2,0,0.4,0.1,0.5,0.2c0.1,0.1,0.2,0.3,0.2,0.5
		c0,0.2-0.1,0.4-0.2,0.5c-0.1,0.1-0.3,0.2-0.5,0.2h-3.5v2.4h3c0.2,0,0.4,0.1,0.5,0.2c0.1,0.1,0.2,0.3,0.2,0.5c0,0.2-0.1,0.4-0.2,0.5
		c-0.1,0.1-0.3,0.2-0.5,0.2h-3v2.4h3.5c0.2,0,0.4,0.1,0.5,0.2c0.1,0.1,0.2,0.3,0.2,0.5c0,0.2-0.1,0.4-0.2,0.5
		c-0.1,0.1-0.3,0.2-0.5,0.2L682.3,8475.7L682.3,8475.7L682.3,8475.7z M696.1,8475.7L696.1,8475.7
		C696.1,8475.7,696,8475.7,696.1,8475.7c-0.2,0-0.4-0.1-0.6-0.2c-0.1-0.1-0.2-0.3-0.2-0.5v-7.7c0-0.2,0.1-0.4,0.2-0.5
		c0.1-0.1,0.3-0.2,0.5-0.2h1.8c0.7,0,1.3,0.2,1.7,0.7c0.5,0.4,0.7,1,0.7,1.6c0,0.6-0.2,1.1-0.5,1.6c0.4,0.2,0.7,0.6,1,1
		c0.2,0.4,0.4,0.9,0.4,1.3c0,0.7-0.3,1.5-0.8,2c-0.5,0.5-1.2,0.8-2,0.8H696.1z M696.8,8468.1v2.1h1.1c0.3,0,0.5-0.1,0.7-0.3
		c0.2-0.2,0.3-0.5,0.3-0.7c0-0.3-0.1-0.5-0.3-0.7c-0.2-0.2-0.5-0.3-0.7-0.3L696.8,8468.1z M696.8,8471.6v2.7h1.6
		c0.4,0,0.7-0.1,0.9-0.4c0.3-0.2,0.4-0.6,0.4-0.9c0-0.4-0.1-0.7-0.4-0.9c-0.3-0.3-0.6-0.4-0.9-0.4H696.8z M708.7,8471.6
		c0.6,0.4,0.9,1.2,0.9,1.9c0,0.3,0,0.5,0.1,0.8c0.2,0.1,0.4,0.2,0.5,0.4c0.1,0.2,0,0.5-0.1,0.6c-0.1,0.2-0.4,0.3-0.6,0.3h0
		c-0.4,0-0.8-0.2-0.9-0.6c-0.2-0.5-0.3-1-0.3-1.6c0-0.4-0.2-0.7-0.5-0.9c-0.2-0.1-0.5-0.3-0.7-0.3h-1.5v2.8c0,0.2-0.1,0.4-0.2,0.5
		c-0.1,0.1-0.3,0.2-0.5,0.2c-0.2,0-0.4-0.1-0.5-0.2c-0.1-0.1-0.2-0.3-0.2-0.5v-7.7c0-0.2,0.1-0.4,0.2-0.5c0.1-0.1,0.3-0.2,0.5-0.2
		h2.3c0.7,0,1.5,0.3,2,0.8c0.5,0.5,0.8,1.3,0.8,2C709.7,8470.3,709.3,8471.1,708.7,8471.6z M706.9,8470.7c0.4,0,0.7-0.1,0.9-0.4
		c0.3-0.2,0.4-0.6,0.4-0.9c0-0.4-0.1-0.7-0.4-0.9c-0.2-0.3-0.6-0.4-0.9-0.4h-1.6v2.7L706.9,8470.7z M718.5,8475.3l-0.6-1.7h-3.2
		l-0.6,1.7c-0.1,0.3-0.3,0.5-0.6,0.5c-0.3,0-0.5-0.1-0.6-0.3c-0.1-0.2-0.2-0.4-0.1-0.7l2.9-7.7c0.1-0.1,0.2-0.3,0.3-0.3
		c0.1-0.1,0.3-0.1,0.4-0.1c0.3,0,0.6,0.2,0.7,0.5l2.9,7.7c0.1,0.2,0.1,0.5-0.1,0.7c-0.1,0.2-0.4,0.3-0.6,0.3
		C718.8,8475.7,718.6,8475.5,718.5,8475.3z M715.2,8472.2h2.1l-1.1-2.8L715.2,8472.2z M724.1,8469.6v5.4c0,0.2-0.1,0.4-0.2,0.5
		c-0.1,0.1-0.3,0.2-0.5,0.2c-0.2,0-0.4-0.1-0.5-0.2c-0.1-0.1-0.2-0.3-0.2-0.5v-7.6c0-0.2,0.1-0.4,0.3-0.6c0.2-0.1,0.4-0.2,0.6-0.1
		c0.2,0,0.3,0.1,0.5,0.3l4.2,5.8v-5.4c0-0.2,0.1-0.4,0.2-0.5c0.1-0.1,0.3-0.2,0.5-0.2c0.2,0,0.4,0.1,0.5,0.2
		c0.1,0.1,0.2,0.3,0.2,0.5v7.6c0,0.2-0.1,0.4-0.2,0.5c-0.1,0.1-0.3,0.2-0.5,0.2c-0.2,0-0.4-0.1-0.5-0.3c0,0,0,0-0.1-0.1
		L724.1,8469.6z M733.7,8475v-7.7c0-0.2,0.1-0.4,0.2-0.5c0.1-0.1,0.3-0.2,0.5-0.2h1.5c1.2,0,2.4,0.5,3.2,1.3c0.9,0.8,1.3,2,1.3,3.2
		c0,1.2-0.5,2.4-1.3,3.2c-0.8,0.9-2,1.4-3.2,1.3h-1.5c-0.2,0-0.4-0.1-0.5-0.2C733.8,8475.4,733.7,8475.2,733.7,8475L733.7,8475z
		 M735.2,8468.1v6.2h0.8c0.8,0,1.6-0.3,2.2-0.9c0.6-0.6,0.9-1.4,0.9-2.2c0-0.8-0.3-1.6-0.9-2.2c-0.6-0.6-1.4-0.9-2.2-0.9
		L735.2,8468.1z"/>
	<g id="グループ_296" transform="translate(505.325 8400.771)">
		<path id="パス_385" class="st0" d="M184.8,11.1c0,1-0.1,2,0,3c0,1,0.1,2.1,0.1,3.1c0,1.7,0.1,3.4,0.1,5.1c0,0.3,0,0.6,0,0.9
			c0,0.1,0,0.2,0,0.3l0.1,0c0.6,0.1,1.2,0.1,1.8,0.2c0.3,0,0.7,0.1,1,0.1c0.1-0.2,0.1-0.4,0.1-0.6c0-0.3,0-0.6,0-0.9
			c0-0.2,0-0.3,0-0.5c0-0.1,0-0.2,0-0.2c0-1.4,0-2.9-0.1-4.3c0-1-0.1-2.1-0.1-3.1s0-2.1,0-3.1c0-0.9-0.7-1.6-1.6-1.6
			C185.5,9.6,184.8,10.3,184.8,11.1C184.8,11.1,184.8,11.1,184.8,11.1L184.8,11.1z"/>
		<path id="パス_386" class="st0" d="M198.2,9.8c-0.5,0.1-1,0.3-1.5,0.4c-0.1,0-0.1,0-0.2,0c-0.7,0.1-1.4,0.2-2.1,0.3
			c-1.3,0.2-2.6,0.3-3.8,0.5c-1.2,0.2-2.5,0.5-3.7,0.9c-0.8,0.2-1.3,1.1-1.1,1.9c0.2,0.8,1.1,1.3,1.9,1.1c0.8-0.2,1.6-0.5,2.4-0.6
			c0.7-0.2,1.5-0.3,2.2-0.4c0.7-0.1,1.3-0.2,2-0.2c0.7-0.1,1.4-0.2,2.2-0.3c0.5,0,1-0.1,1.5-0.3c0,0.2,0.1,0.4,0.1,0.5
			c0.1,0.6,0.2,1.2,0.3,1.8c0.1,1.2,0.3,2.4,0.4,3.5c0.1,1.3,0.1,2.6,0.1,3.9c0.1,2.3,0,4.5-0.3,6.8c-0.2,1.1-0.4,2.2-0.6,3.2
			c-0.2,1-0.5,2-0.9,3c-0.4,1-1,1.8-1.8,2.4c-0.3,0.2-0.6,0.4-1,0.6c0.1,0.8,0.2,1.5,0.3,2.3c0,0.3,0.1,0.6,0.2,0.9
			c0.1,0,0.1-0.1,0.2-0.1c0.4-0.2,0.8-0.4,1.2-0.6c0.3-0.2,0.6-0.4,0.8-0.6c0.4-0.3,0.7-0.6,1-0.9c0.4-0.4,0.7-0.8,1-1.2
			c0.5-0.7,0.9-1.5,1.1-2.3c0.5-1.4,0.8-2.9,1.1-4.3c0.2-0.9,0.3-1.8,0.4-2.6c0.1-0.7,0.1-1.5,0.2-2.2c0.1-1.6,0.1-3.2,0-4.8
			c0-1.7-0.1-3.3-0.3-5c-0.2-1.8-0.4-3.5-0.8-5.2c-0.1-0.5-0.2-1-0.4-1.5c-0.1-0.2-0.2-0.4-0.4-0.5c-0.2-0.2-0.5-0.3-0.8-0.4
			c-0.1-0.1-0.3-0.1-0.4-0.1C198.8,9.6,198.5,9.7,198.2,9.8L198.2,9.8z"/>
		<path id="パス_387" class="st0" d="M207.5,3.9c-0.1,0.8-0.3,1.6-0.3,2.5c0,0.7-0.1,1.5-0.1,2.2c0,1.3,0,2.5,0,3.8
			c0,0.4,0.2,0.8,0.4,1.1c0.1-0.1,0.3-0.1,0.4-0.1c0.1,0,0.2,0,0.2,0c0.3,0,0.6,0,0.9,0.1c0.2,0,0.4,0,0.5,0.1h0
			c0.3-0.3,0.5-0.7,0.5-1.1c-0.1-2.3,0-4.6,0.2-7c0-0.2,0.1-0.5,0.1-0.7c0-0.2,0.1-0.5,0-0.7c-0.9-0.1-1.9-0.3-2.7-0.7
			C207.6,3.5,207.5,3.6,207.5,3.9L207.5,3.9z"/>
		<path id="パス_388" class="st0" d="M214.3,1.3c-0.3,0.2-0.6,0.5-0.7,0.9c-0.4,1-0.7,2-0.8,3c-0.1,0.7-0.1,1.4-0.1,2
			c-0.1,1.3-0.1,2.6-0.1,4c0,0.4,0.2,0.8,0.5,1.1c0.2-0.1,0.4-0.2,0.7-0.2c0.1,0,0.2,0,0.3,0c0.1-0.1,0.3-0.1,0.5-0.1h0
			c0.3,0,0.6,0,0.9,0.1c0.2-0.3,0.3-0.6,0.3-0.9c0-2,0-3.9,0.2-5.9c0.2-0.8,0.4-1.6,0.7-2.3c0-0.1,0.1-0.2,0.1-0.3
			c-0.3-0.2-0.6-0.4-0.9-0.6c-0.4-0.3-0.8-0.6-1.2-0.8C214.5,1.3,214.5,1.3,214.3,1.3C214.4,1.3,214.4,1.3,214.3,1.3L214.3,1.3z"/>
		<path id="パス_389" class="st0" d="M214.8,12.1L214.8,12.1L214.8,12.1l-0.2,0C214.7,12.1,214.7,12.1,214.8,12.1L214.8,12.1z"/>
		<path id="パス_390" class="st0" d="M223.6,22.2h-2.2c-0.1,0.2-0.2,0.5-0.2,0.7c-0.1,1-0.2,2.1-0.2,3.1c0,0.4,0,0.9,0,1.3
			c-0.1,0.5,0,1,0.2,1.4c0.1,0.1,0.1,0.2,0.2,0.3c0.1,0,0.2,0,0.3,0c0.3,0,0.7,0,1,0s0.6,0,1,0c0.3-0.3,0.4-0.7,0.4-1.1
			c0-0.1,0-0.1,0-0.2c0-1.6,0.1-3.3,0.3-4.9c0-0.3-0.1-0.6-0.2-0.8C223.9,22.1,223.7,22.2,223.6,22.2L223.6,22.2z"/>
		<path id="パス_391" class="st0" d="M228.1,18.7c-0.4,0.1-0.9,0.2-1.3,0.3c0,0.2-0.1,0.3-0.1,0.5c-0.1,0.8-0.2,1.5-0.2,2.3
			c0,0.7,0,1.4,0.1,2.1c0.1,1.3,0.2,2.6,0.2,3.9c0,0.2,0.1,0.5,0.2,0.7h0c0.2-0.1,0.5-0.1,0.7-0.1c0,0,0,0,0,0
			c0.2-0.1,0.4-0.1,0.5-0.2l0.2,0c0.1,0,0.2,0,0.3-0.1c0.1,0,0.2,0,0.3,0c0.2,0,0.4,0,0.5,0.1c0,0,0.1,0,0.1,0.1l0.1,0
			c0.1-0.2,0.1-0.4,0.1-0.6c0-1.3-0.1-2.5-0.2-3.8c-0.1-0.7-0.1-1.4-0.1-2.1c0-0.8,0.1-1.6,0.2-2.4c0-0.4-0.2-0.8-0.5-1.1
			c-0.1-0.1-0.1-0.1-0.2-0.1C228.8,18.4,228.5,18.6,228.1,18.7L228.1,18.7z"/>
		<path id="パス_392" class="st0" d="M232.7,18.5c-0.2,1.8-0.3,3.6-0.3,5.5c0,0.9,0.1,1.7,0.1,2.6c0,0.7,0,1.4-0.1,2.1
			c-0.2,1.3-0.5,2.6-1,3.8c-0.1,0.3-0.3,0.6-0.4,0.9c-0.1,0.2-0.2,0.4-0.3,0.6c0,0-0.1,0.1-0.1,0.1l0,0.1c-0.1,0.1-0.2,0.2-0.2,0.3
			c0,0,0,0-0.1,0c-0.1,0-0.1,0-0.2,0c-0.2,0.1-0.3,0.2-0.5,0.3c-0.2,0.1-0.4,0.3-0.6,0.4c-0.2,0.1-0.4,0.2-0.6,0.3
			c-0.1,0.6-0.2,1.2-0.2,1.8c0.7,0.2,1.5,0.3,2.2,0.2c0.3,0,0.6-0.1,0.9-0.2c0.5-0.2,0.9-0.4,1.2-0.7c0.2-0.1,0.3-0.3,0.4-0.5
			c0.2-0.3,0.4-0.5,0.6-0.8c0.4-0.7,0.8-1.4,1.1-2.2c0.3-0.7,0.5-1.4,0.6-2.1c0.4-1.6,0.5-3.2,0.5-4.9c0-0.8-0.1-1.6-0.1-2.4
			c0-0.8,0-1.6,0-2.3c0-1,0.1-2,0.2-3c0,0,0,0,0,0c-0.3-0.1-0.7-0.2-1.1-0.3c-0.5-0.2-1.1-0.3-1.6-0.5c-0.1,0-0.1,0-0.2-0.1
			C232.8,17.9,232.7,18.2,232.7,18.5L232.7,18.5z M232.4,28.9c0,0.1,0,0.1,0,0.2C232.4,29,232.4,29,232.4,28.9z"/>
		<path id="パス_393" class="st0" d="M0.8,16c0,0.1,0,0.2,0,0.3c0.5,0.1,1,0.2,1.5,0.3c0.7,0.2,1.4,0.3,2.1,0.5
			c1.5,0.3,3,0.5,4.5,0.7c1.3,0.2,2.7,0.3,4,0.5c1.4,0.2,2.8,0.5,4.3,0.8c1.6,0.3,3.3,0.5,4.9,0.6c3,0.2,5.9,0.1,8.9,0.1
			c0.5,0,1-0.3,1.3-0.7c-0.2-0.6-0.4-1.2-0.6-1.7c-0.1-0.2-0.2-0.4-0.3-0.7c-0.1,0-0.2,0-0.4,0c-2,0-3.9,0-5.9,0c-1,0-2,0-3-0.1
			c-1-0.1-2.1-0.2-3.1-0.3c-1.4-0.2-2.9-0.5-4.3-0.8c-1.6-0.3-3.1-0.4-4.7-0.6c-0.4-0.1-0.9-0.1-1.3-0.2C7.3,14.5,6,14.2,4.7,14
			c-0.6-0.1-1.3-0.3-1.9-0.5c-0.5-0.1-1-0.2-1.5-0.3C1.1,14.1,0.9,15.1,0.8,16L0.8,16z"/>
		<path id="パス_394" class="st0" d="M23.8,8.4c-0.4,0-0.8,0.1-1.2,0.1c-0.2,0-0.4,0-0.6,0c-0.1,0-0.1,0-0.2,0
			c0,0.1,0,0.2-0.1,0.4c-0.1,1.8-0.1,3.6,0,5.4c0.1,1.7,0.1,3.3,0.2,5c0,1.7,0,3.4,0,5.1c0.1,1.7,0.2,3.4,0.5,5
			c0.4,2.7,0.9,5.4,1.3,8.1c0.4,2.6,1.2,5.1,1.9,7.6c0.1,0.4,0.4,0.8,0.8,0.9c0.2,0,0.3-0.1,0.5-0.1c0.5-0.1,1.1-0.3,1.6-0.5
			c0.2-0.4,0.3-0.8,0.2-1.2c-0.4-1.4-0.8-2.7-1.1-4.1c-0.3-1.3-0.6-2.7-0.8-4c-0.5-2.9-1-5.7-1.4-8.6c-0.1-0.7-0.1-1.3-0.2-2
			c-0.1-0.7-0.1-1.4-0.1-2.2c0-1.6,0-3.2,0-4.8c-0.1-3.2-0.3-6.5-0.2-9.7c0-0.2,0-0.4-0.1-0.6C24.4,8.3,24.1,8.3,23.8,8.4L23.8,8.4z
			"/>
		<path id="パス_395" class="st0" d="M22.4,22.3c-0.9,1.5-1.7,3-2.5,4.6c-0.4,0.7-0.8,1.5-1.2,2.2c-0.4,0.7-0.8,1.3-1.3,2
			c-0.4,0.5-0.7,0.9-1.1,1.3c-0.4,0.4-0.9,0.8-1.3,1.2c-0.4,0.4-0.8,0.7-1.2,1.1s-0.8,0.8-1.2,1.1l0,0c0,0-0.1,0-0.1,0.1l0.1,0.1
			c0,0.1,0.1,0.1,0.1,0.2c0.1,0.1,0.2,0.2,0.3,0.3c0.5,0.6,0.9,1.3,1.3,1.9l0.1,0c0.6-0.5,1.1-1,1.7-1.5c0.5-0.4,0.9-0.8,1.4-1.2
			c0.5-0.4,1-0.9,1.5-1.4c0.6-0.6,1.1-1.3,1.6-2.1c0.8-1.3,1.6-2.6,2.3-3.9c0.8-1.4,1.6-2.8,2.4-4.2c0.4-0.7,0.2-1.7-0.6-2.1
			c-0.2-0.1-0.5-0.2-0.8-0.2C23.2,21.5,22.7,21.8,22.4,22.3L22.4,22.3z"/>
		<path id="パス_396" class="st0" d="M40.4,16.8c-0.1,1.7,0,3.4,0.1,5.1c0.1,1.2,0.1,2.3,0.1,3.5c0.2,0.1,0.4,0.2,0.6,0.3
			c0.1,0,0.2,0.1,0.2,0.1c0.1,0,0.1,0,0.2,0c0.4,0.1,0.8,0.3,1.2,0.4c0.1,0,0.1,0,0.2,0.1c0.3,0,0.5,0.1,0.8,0.1
			c0-1.5-0.1-2.9-0.1-4.3c-0.1-1.7-0.2-3.3-0.1-5c-0.2-0.1-0.4-0.1-0.6-0.2c-0.4-0.1-0.7-0.2-1.1-0.4c-0.4-0.1-0.8-0.3-1.1-0.5
			C40.5,16.1,40.4,16.5,40.4,16.8L40.4,16.8z"/>
		<path id="パス_397" class="st0" d="M49.2,16.3c0.1,1.1,0.3,2.2,0.4,3.3c0.1,0.9,0.2,1.8,0.3,2.7C50,23.2,50,24.1,50,25
			c0,1.9-0.1,3.7-0.3,5.6c-0.1,0.8-0.3,1.5-0.4,2.3c-0.2,0.8-0.4,1.5-0.7,2.3c-0.1,0.2-0.2,0.5-0.4,0.7c-0.2,0.2-0.3,0.3-0.5,0.5
			c-0.3,0.2-0.6,0.4-0.9,0.5c-0.6,0.2-1.2,0.3-1.9,0.4c-0.5,0.1-1.1,0.1-1.6,0.1c-0.2,0-0.3-0.1-0.4-0.1l0,0
			c-0.2-0.1-0.4-0.2-0.5-0.2c-0.1,0.8-0.2,1.5-0.2,2.3c0,0.3,0,0.6-0.1,0.9c0.5,0.2,1.1,0.2,1.6,0.2c0.3,0,0.7,0,1-0.1
			c0.5-0.1,0.9-0.1,1.4-0.2c0.3-0.1,0.7-0.1,1-0.2c0.5-0.1,0.9-0.3,1.4-0.5c0.8-0.4,1.4-0.9,2-1.5c1.2-1.3,1.6-3.1,2-4.8
			c0.2-0.9,0.4-1.7,0.4-2.6c0.1-0.8,0.2-1.6,0.2-2.3c0.1-1.8,0.1-3.5,0-5.3c-0.1-1.9-0.4-3.7-0.6-5.5c0-0.3-0.1-0.7-0.1-1
			c-0.6-0.1-1.2-0.2-1.8-0.3c-0.4-0.1-0.8-0.1-1.3-0.1c0,0,0,0,0,0C49.2,16.1,49.2,16.2,49.2,16.3L49.2,16.3z"/>
		<path id="パス_398" class="st0" d="M74,13.6c-0.3,0.4-0.6,0.7-0.9,1.1c-0.2,0.2-0.4,0.4-0.5,0.6c0,0.2,0.1,0.3,0.2,0.5
			c0.8,1,1.5,2,2.3,3c0.3,0.4,0.6,0.7,0.8,1.1c0.3,0.5,0.6,1,0.8,1.4c0.3,0.4,0.7,0.7,1.2,0.8c0.2-0.4,0.4-0.8,0.6-1.2
			c0.2-0.4,0.4-0.7,0.6-1l0.2-0.3c-0.4-0.7-0.8-1.4-1.3-2c-0.6-0.8-1.2-1.5-1.8-2.3l-0.8-1c-0.2-0.3-0.5-0.6-0.9-0.7
			c-0.1,0-0.2,0-0.3-0.1L74,13.6L74,13.6z"/>
		<path id="パス_399" class="st0" d="M69.7,19.2c-0.5,0.3-1.1,0.7-1.7,1c0,0.1,0,0.2,0,0.3c0,0.5,0.2,1,0.3,1.5
			c0.2,0.5,0.4,1.1,0.7,1.6c0.3,0.6,0.7,1.2,1.2,1.8c0.4,0.5,0.8,1,1.3,1.4c0.3,0.4,0.7,0.7,1,1.1l0,0c0.5-0.2,0.9-0.3,1.4-0.4
			c0.6-0.1,1.1-0.2,1.7-0.3c0-0.3-0.2-0.7-0.4-0.9c0,0.1,0.1,0.1,0.1,0.2c-0.5-0.6-0.9-1.2-1.5-1.8c-0.3-0.3-0.5-0.5-0.8-0.8
			c-0.2-0.2-0.4-0.5-0.6-0.7c-0.3-0.4-0.6-0.9-0.8-1.4c-0.5-0.7-1-1.3-1.4-2c-0.1-0.2-0.2-0.4-0.4-0.5
			C69.8,19.1,69.8,19.1,69.7,19.2L69.7,19.2z"/>
		<path id="パス_400" class="st0" d="M86.7,20.1c-0.3,0.3-0.4,0.7-0.5,1.1c0,0.2,0,0.4-0.1,0.6c-0.1,0.4-0.1,0.9-0.3,1.3
			c-0.1,0.4-0.2,0.8-0.4,1.2c-0.2,0.4-0.4,0.8-0.6,1.3c-0.3,0.5-0.5,1-0.8,1.6c-0.5,1.1-1.1,2.2-1.8,3.3c-0.7,0.9-1.5,1.7-2.4,2.4
			c-1.2,0.8-2.5,1.5-3.9,2.1c-0.4,0.2-0.9,0.3-1.3,0.4c-1,0.1-2,0-3-0.1c-0.6-0.1-1.2-0.2-1.8-0.3c-0.7-0.1-1.4-0.2-2.1-0.3
			c0,0.5-0.1,0.9-0.2,1.4c-0.1,0.6-0.1,1.1-0.2,1.7c0.6,0.1,1.2,0.2,1.8,0.3c0.9,0.1,1.8,0.3,2.7,0.4c1.5,0.2,3.1,0.1,4.6-0.3
			c0.8-0.3,1.6-0.6,2.3-1c0.7-0.3,1.4-0.7,2-1.1c1.3-0.9,2.5-1.9,3.6-3.1c0.4-0.4,0.7-0.9,1-1.3c0.3-0.5,0.5-0.9,0.8-1.4
			c0.4-0.9,0.8-1.8,1.3-2.7c0.5-0.9,0.9-1.8,1.2-2.7c0.4-1.1,0.6-2.3,0.6-3.4c-0.6-0.2-1.3-0.5-1.9-0.8C87.2,20.3,87,20.2,86.7,20.1
			L86.7,20.1L86.7,20.1z"/>
		<path id="パス_401" class="st0" d="M93.4,8.1c-0.3,0-0.6,0.1-0.9,0.1c-0.4,0-0.8,0.1-1.2,0.1l0,0h0h0c-0.2,0-0.4,0.1-0.5,0.1
			c0,0.8,0,1.6,0.1,2.3c0.1,1,0.3,2,0.5,2.9c0.2,0.8,0.4,1.5,0.7,2.3c0.2,0.7,0.3,1.4,0.5,2.1c0,0,0,0.1,0,0.1
			c0.2-0.2,0.5-0.3,0.8-0.3c0.4,0,0.9,0,1.3,0c0.1,0,0.2,0,0.3,0c0.2-0.1,0.5-0.1,0.7-0.2c0-0.1,0-0.2-0.1-0.3
			c-0.1-0.5-0.3-1-0.3-1.5c-0.1-0.5-0.3-1.1-0.5-1.6c-0.3-1.1-0.6-2.2-0.8-3.3C93.9,9.9,93.9,9,93.9,8v0C93.8,8,93.6,8.1,93.4,8.1
			L93.4,8.1z"/>
		<g id="グループ_295" transform="translate(245.924 2.256)">
			<path id="パス_402" class="st0" d="M12.1,6.6c-1,0.1-2,0.2-3,0.4L9.6,7c-1.5,0.2-3,0.4-4.4,0.5C4.4,7.5,3.7,7.6,2.9,7.6
				c-0.4,0-0.7,0-1.1,0.1c-0.4,0-0.8,0-1.1,0.1c0,0.1,0.1,0.2,0.1,0.4C0.9,8.3,1,8.6,1,8.9c0,0.2,0,0.3,0.1,0.5
				c0.1,0.6,0.3,1.2,0.4,1.8c0,0,0,0,0,0c0.1,0,0.1,0,0.2,0.1c0.6,0.2,1.2,0,1.6-0.5c0.8-0.1,1.6-0.1,2.5-0.2
				c1.7-0.2,3.3-0.4,4.9-0.6c-0.1,0-0.3,0-0.4,0.1c1.5-0.2,3-0.4,4.5-0.4c0,0.3,0,0.6,0,1c0,0.9,0,1.8,0,2.7c0,0.8,0,1.6,0,2.5
				c0,0.8-0.1,1.5-0.2,2.3c-0.1,0.8-0.3,1.6-0.5,2.3c-0.2,0.8-0.5,1.5-0.8,2.3c-0.6,1.6-1.2,3.2-1.8,4.7c0.1-0.1,0.1-0.2,0.2-0.4
				c-0.1,0.3-0.2,0.5-0.3,0.8c0,0,0,0,0,0s0,0,0,0c0,0,0,0,0,0c-0.5,1.3-1.2,2.6-1.9,3.8c-0.4,0.6-0.8,1.3-1.2,1.9
				c-0.4,0.6-0.7,1.2-1.2,1.7c-0.4,0.5-0.9,1-1.4,1.5l-0.2,0.1l0,0c-0.2,0.1-0.3,0.3-0.5,0.4C5.4,37.4,5.7,37.7,6,38
				c0.1,0.1,0.2,0.2,0.3,0.3l0.2,0.2c0.2,0.2,0.4,0.3,0.5,0.5c0.1,0.1,0.1,0.3,0.1,0.5l0,0c0.1-0.1,0.2-0.2,0.4-0.3
				c0.4-0.3,0.8-0.7,1.2-1.1c0.4-0.5,0.8-0.9,1.2-1.4c0.6-0.8,1.1-1.6,1.6-2.5c0.5-0.9,1-1.7,1.5-2.6c0.5-1,0.9-2,1.4-3l0,0.1
				c0.6-1.4,1.1-2.9,1.7-4.3c0.6-1.4,1-2.9,1.4-4.3c0.4-1.7,0.6-3.4,0.5-5.1c0-1.6,0-3.2,0-4.8l0-1.3c0-0.2,0-0.4,0-0.6
				c0-0.6-0.3-1.2-0.8-1.5c-0.4-0.2-0.9-0.3-1.4-0.3c-0.4,0-0.8,0-1.2,0C13.7,6.4,12.9,6.5,12.1,6.6L12.1,6.6z M14.6,18
				c0,0,0,0.1,0,0.1C14.6,18.1,14.6,18.1,14.6,18z M14.2,28.7c0,0.1-0.1,0.2-0.1,0.2C14.1,28.9,14.2,28.8,14.2,28.7z"/>
			<path id="パス_403" class="st0" d="M11.3,27.7L11.3,27.7L11.3,27.7z"/>
			<path id="パス_404" class="st0" d="M13.2,25.3c-0.6,0.6-0.6,1.6,0,2.2c0.9,0.8,1.8,1.6,2.8,2.3c0.8,0.6,1.7,1.1,2.5,1.6
				c0.4,0.2,0.8,0.5,1.3,0.7s0.8,0.5,1.2,0.8c0.7,0.5,1.5,1,2.3,1.5c0.3,0.2,0.6,0.2,0.9,0.2c0-0.1,0.1-0.3,0.1-0.4
				c0.4-0.5,0.8-1,1.3-1.5c-0.1-0.4-0.4-0.8-0.7-1c-0.7-0.4-1.3-0.8-1.9-1.2s-1.2-0.9-1.9-1.3c-0.8-0.4-1.5-0.9-2.3-1.3
				c-0.6-0.4-1.2-0.8-1.7-1.2s-1.1-0.9-1.6-1.4c-0.3-0.3-0.7-0.5-1.1-0.5C13.9,24.9,13.5,25.1,13.2,25.3L13.2,25.3z"/>
			<path id="パス_405" class="st0" d="M26.8,2.2c0.1,1.5,0.4,3,0.5,4.5c0.1,1.5,0.1,2.9,0.1,4.4c0,0.2,0.1,0.5,0.2,0.7
				c0.3-0.1,0.7-0.2,1-0.2c0.5-0.1,0.9-0.2,1.4-0.2c0.2,0,0.4-0.1,0.5-0.1c0,0,0-0.1,0-0.1c0-1.5,0-2.9-0.1-4.4
				c-0.1-1.5-0.3-3-0.5-4.5c0-0.3-0.1-0.5-0.2-0.8c-0.3,0-0.6,0-0.8,0c-0.6,0-1.2-0.1-1.7-0.1C26.9,1.5,26.8,1.9,26.8,2.2L26.8,2.2z
				"/>
			<path id="パス_406" class="st0" d="M31.6,2c-0.1,0.7-0.2,1.3-0.2,2c0,0.6,0,1.2,0.1,1.8c0.1,1.3,0.2,2.5,0.2,3.8
				c0,0.6,0.4,1.2,0.9,1.4l0.5-0.1c0.3,0,0.6-0.1,0.9-0.1c0.1,0,0.2-0.1,0.4-0.1c0.3-0.3,0.5-0.7,0.5-1.1c0-1.2-0.1-2.5-0.2-3.7
				c0-0.6-0.1-1.2-0.1-1.8c0-0.7,0.1-1.4,0.2-2.1c0-0.1,0-0.1,0-0.2c-0.2,0-0.4,0-0.5,0l-0.3,0c-0.2,0-0.4,0-0.6-0.1
				c-0.5,0-1-0.1-1.5-0.3C31.7,1.6,31.6,1.8,31.6,2L31.6,2z"/>
			<path id="パス_407" class="st0" d="M10.3,52.8L10.3,52.8z"/>
		</g>
		<path id="パス_408" class="st0" d="M98.5,5.8C97.9,5.9,97.3,6,96.6,6c-0.2,0.4-0.3,0.8-0.2,1.2C96.7,8.1,96.8,9,97,9.8
			c0.3,2.5,0.1,5.1,1.5,7.3c0.1-0.1,0.2-0.2,0.3-0.3c0.1,0,0.2-0.1,0.2-0.1c0-0.1,0.1-0.1,0.1-0.1c0.2-0.2,0.3-0.3,0.5-0.4
			c0.1-0.1,0.3-0.2,0.4-0.2c0.3-0.1,0.5-0.3,0.8-0.4l0.2-0.1c-0.1-0.1-0.2-0.3-0.2-0.4c-0.2-0.6-0.4-1.1-0.4-1.7
			c-0.1-1-0.2-2-0.3-3.1C100,9,99.8,7.7,99.5,6.4c-0.1-0.3-0.2-0.6-0.5-0.8C98.8,5.7,98.7,5.7,98.5,5.8L98.5,5.8z"/>
		<path id="パス_409" class="st0" d="M104.4,24.4c0,0.3-0.1,0.6-0.3,0.8c-0.2,0.1-0.3,0.3-0.5,0.3c0.1,0,0.2,0,0.3,0
			c0.3,0,0.6,0.1,0.9,0.1c1.7,0.2,3.4,0.4,5.1,0.5c1.6,0.1,3.2,0.1,4.8,0.1c1.8,0,3.5-0.1,5.2-0.1c1.6,0,3.2,0,4.8,0
			c0.9,0,1.9,0,2.8,0h1.4c0.4,0,0.9,0,1.3,0c0.1,0,0.2,0,0.3-0.1c-0.1-0.7-0.2-1.3-0.4-2c-0.1-0.4-0.1-0.7-0.2-1.1
			c-0.7,0.1-1.3,0-2,0c-0.8,0-1.6,0-2.4,0c-1.6,0-3.3,0-4.9,0c-1.7,0-3.4,0.1-5,0.1c-1.6,0-3.3,0-4.9-0.1c-1.5-0.1-2.9-0.2-4.4-0.4
			c-0.6-0.1-1.1-0.2-1.7-0.2C104.6,23.1,104.5,23.7,104.4,24.4L104.4,24.4z"/>
		<path id="パス_410" class="st0" d="M115.4,7.5c0.2,1.6,0.3,3.3,0.6,4.9c0.2,1.4,0.4,2.8,0.6,4.2c0.2,1.5,0.2,3,0.2,4.5
			c0,0.8,0,1.5,0,2.3c0,0.8-0.1,1.6-0.2,2.4c-0.1,0.4-0.1,0.7-0.1,1.1c0-0.1,0-0.3,0.1-0.4c-0.1,1.1-0.3,2.2-0.4,3.3
			c-0.1,0.6-0.2,1.2-0.3,1.8c-0.2,0.6-0.3,1.2-0.6,1.8c-0.5,1-1,2-1.4,3.1c-0.3,0.8-0.7,1.6-1.1,2.4c-0.5,0.8-1,1.7-1.6,2.4
			c-0.3,0.3-0.6,0.7-0.8,1c-0.1,0.2-0.3,0.4-0.4,0.6c0.2,0.1,0.4,0.2,0.6,0.3c0.8,0.3,1.5,0.7,2.2,1.1c0.8-1,1.6-2,2.3-3.1
			c0.7-1.3,1.4-2.6,1.9-3.9c0.6-1.3,1.2-2.5,1.7-3.9c0.5-1.7,0.8-3.4,0.9-5.1c0.1-0.6,0.2-1.2,0.2-1.8c0,0.1,0,0.2,0,0.3
			c0.2-1.3,0.3-2.7,0.3-4c0-1.3,0-2.5-0.1-3.8c-0.1-1.3-0.2-2.7-0.4-4c-0.2-1.2-0.3-2.3-0.5-3.5c-0.2-1.3-0.3-2.5-0.4-3.8
			c0-0.2-0.1-0.4-0.1-0.6c-0.4,0-0.8,0-1.1-0.1c-0.5,0-1-0.1-1.6-0.1c0,0-0.1,0-0.1,0C115.4,7,115.3,7.2,115.4,7.5L115.4,7.5z
			 M116.6,25.5c0,0.1,0,0.1,0,0.2C116.6,25.6,116.6,25.5,116.6,25.5z M113.9,36.2l-0.1,0.2L113.9,36.2z M116.9,36.9c0,0,0,0.1,0,0.1
			C116.9,37,116.9,37,116.9,36.9z"/>
		<path id="パス_411" class="st0" d="M119.6,26.3c0,0,0-0.1,0-0.1C119.6,26.3,119.6,26.3,119.6,26.3z"/>
		<path id="パス_412" class="st0" d="M147,18.1c-0.5,0-1,0.1-1.5,0.1c-0.4,0.1-0.8,0.1-1.3,0.1c0,0.2,0,0.4,0,0.5
			c0.4,1.6,0.8,3.2,1.1,4.9c0.3,1.5,0.6,2.9,0.9,4.4c0.1,1.2,0.2,2.4,0.1,3.6c0,0.6-0.1,1.2-0.1,1.8c0,0.3-0.1,0.7-0.1,1
			c0.1,0,0.2,0,0.3,0c0.1,0,0.2,0,0.3,0s0.2,0,0.3,0c0.2,0,0.4,0,0.6,0c0.5,0.1,1,0.1,1.5,0.2c0.1-0.4,0.1-0.9,0.2-1.3
			c0.1-0.7,0.1-1.4,0.1-2.1c0-1.6-0.1-3.1-0.4-4.6c-0.2-1.3-0.6-2.7-0.8-4c-0.3-1.5-0.7-3-1-4.5C147.2,18.1,147.1,18.1,147,18.1
			L147,18.1z"/>
		<path id="パス_413" class="st0" d="M153.7,8.1c-0.1,0-0.2,0.1-0.3,0.1c0,0,0,0,0,0c-0.2,0.1-0.3,0.1-0.5,0.1
			c-0.4,0.1-0.8,0.2-1.2,0.3c0,0.1,0,0.3,0,0.4c0.3,1.8,0.7,3.6,0.9,5.4l0.2,1.2l0-0.1c0,0,0,0,0,0.1v0l0,0c0,0,0,0,0,0
			c0,0.1,0,0.2,0,0.3c0-0.1,0-0.2,0-0.3c0.2,1.3,0.3,2.5,0.5,3.8c0.2,1.2,0.3,2.4,0.5,3.6c0.2,1.2,0.5,2.3,0.7,3.4
			c0.3,1.1,0.4,2.2,0.6,3.3c0.2,1.5,0.4,3,0.5,4.5c0.1,0.7,0.1,1.5,0.2,2.2c0,0.3,0.1,0.6,0.1,0.9c0,0.2,0,0.5,0.1,0.7
			c0.1,0.1,0.1,0.2,0.2,0.4c0.1,0.2,0.3,0.4,0.6,0.6c0.4,0.2,0.8,0.3,1.2,0.2c0.3-0.1,0.5-0.2,0.7-0.4c0.1-0.1,0.2-0.3,0.3-0.4
			c0.1-0.1,0.2-0.2,0.2-0.3c0.2-0.3,0.4-0.6,0.6-0.9c0.4-0.6,0.8-1.3,1.2-1.9c0.4-0.6,0.8-1.2,1.2-1.8c0.5-0.6,1-1.3,1.4-1.9
			c0.3-0.5,0.7-1,1-1.5c0.3-0.5,0.6-1,0.9-1.4s0.5-1,0.8-1.4c0.3-0.6,0.7-1.2,0.9-1.8c0.6-1.3,1-2.6,1.4-4c0.2-0.6,0.3-1.2,0.4-1.8
			c0.1-0.6,0.2-1.2,0.3-1.8c0-0.2,0.1-0.4,0.1-0.6c-0.5-0.3-1.1-0.6-1.6-0.9c-0.3-0.2-0.6-0.3-0.9-0.5l-0.2-0.1
			c-0.2,0.2-0.3,0.4-0.3,0.6c0,0.2-0.1,0.4-0.1,0.5c-0.1,0.3-0.1,0.5-0.1,0.8c-0.4,2.1-1,4.1-1.7,6c-0.5,1.1-1.1,2.2-1.7,3.2
			c-0.6,1-1.2,2-1.9,3c-0.4,0.6-0.9,1.3-1.3,1.9c-0.4,0.5-0.7,1-1.1,1.6c-0.2-1.6-0.3-3.2-0.6-4.9c-0.1-0.8-0.2-1.5-0.4-2.3
			c-0.1-0.8-0.3-1.5-0.5-2.2c-0.4-1.5-0.6-3.1-0.8-4.6c-0.1-0.7-0.2-1.5-0.3-2.2v0c0,0,0,0,0,0s0,0,0,0v0v0v0v0l0,0v0
			c0-0.1,0-0.2,0-0.3c0,0.1,0,0.1,0,0.2c-0.1-0.7-0.2-1.4-0.3-2.1c0,0,0,0.1,0,0.1c-0.1-1.1-0.3-2.2-0.5-3.3
			c-0.2-1.1-0.4-2.2-0.6-3.4c0-0.2-0.1-0.3-0.2-0.5C154.3,7.9,154,8,153.7,8.1L153.7,8.1z M152.6,14.3c0,0.1,0,0.1,0,0.2
			C152.6,14.4,152.6,14.3,152.6,14.3z"/>
		<path id="パス_414" class="st0" d="M152.8,15.8L152.8,15.8z"/>
		<path id="パス_415" class="st0" d="M156.1,17.2L156.1,17.2C156.1,17.2,156.1,17.2,156.1,17.2L156.1,17.2L156.1,17.2z"/>
		<path id="パス_416" class="st0" d="M152.8,15.8L152.8,15.8L152.8,15.8z"/>
		<path id="パス_417" class="st0" d="M156.1,17.1L156.1,17.1L156.1,17.1z"/>
		<path id="パス_418" class="st0" d="M156.1,17.1C156.1,17.1,156.1,17.1,156.1,17.1L156.1,17.1z"/>
		<path id="パス_419" class="st0" d="M156.1,17.1L156.1,17.1L156.1,17.1z"/>
		<path id="パス_420" class="st0" d="M156.1,17.2L156.1,17.2C156.1,17.2,156.1,17.2,156.1,17.2L156.1,17.2z"/>
	</g>
	<path id="パス_464" d="M690.4,8342.5c0,0,0-0.1,0-0.1c-0.1-0.1-0.3-0.2-0.4-0.3c-1.2-0.7-2.2-1.6-3.4-2.3
		c-1.1-0.7-2.3-1.3-3.5-1.9c-0.5-0.2-0.9-0.5-1.4-0.7l0,0l0,0c-0.4-0.2-0.8-0.4-1.3-0.6c-0.2-0.1-0.3-0.2-0.5-0.2
		c-0.8-0.3-1.5-0.6-2.3-0.9c-0.2-0.1-0.4-0.2-0.6-0.2h0c-0.5-0.2-1.1-0.4-1.6-0.6c-0.3-0.1-0.6-0.2-1-0.3c-2.3-0.8-4.5-1.9-6.6-3.2
		c-0.9-0.6-1.8-1.1-2.6-1.7c-0.9-0.6-1.8-1.3-2.6-1.9c-0.9-0.6-1.7-1.2-2.6-1.7v0c-0.1-0.1-0.3-0.2-0.4-0.3l-0.1,0
		c-0.5-0.3-0.9-0.6-1.4-0.9c-0.1,0-0.1-0.1-0.2-0.2c0,0.1,0,0.2-0.1,0.2c-0.1,0.3-0.2,0.6-0.3,0.9c0,0.1,0,0.2-0.1,0.2v0l0,0.1
		c-0.1,0.4-0.3,0.8-0.5,1.1c0,0,0,0,0,0.1c-0.1,0.3-0.3,0.5-0.4,0.8c-0.1,0.2-0.2,0.5-0.4,0.7c0,0,0,0.1-0.1,0.1
		c0,0.1-0.1,0.2-0.1,0.2c-0.1,0.1-0.2,0.3-0.3,0.4l0,0.1c-0.1,0.1-0.2,0.3-0.3,0.4c-0.1,0.1-0.1,0.1-0.2,0.2c0,0-0.1,0.1-0.1,0.1
		c-0.2,0.2-0.3,0.3-0.5,0.5c0,0-0.1,0.1-0.1,0.1c0,0-0.1,0-0.1,0.1c-0.3,0.2-0.5,0.4-0.8,0.7c-0.1,0.1-0.2,0.1-0.3,0.2
		c-0.2,0.2-0.5,0.3-0.8,0.5c-0.4,0.2-0.7,0.4-1.1,0.6c-0.4,0.2-0.7,0.3-1.1,0.5c-0.1,0-0.1,0-0.2,0.1c-0.3,0.1-0.6,0.3-1,0.4
		c-2.2,0.9-4.5,1.3-6.9,1.2c-1.6,0-3.2-0.5-4.6-1.4c-0.2-0.2-0.5-0.4-0.7-0.5c-0.1-0.1-0.2-0.2-0.3-0.3c-0.2-0.1-0.4-0.3-0.5-0.5
		c-0.1-0.1-0.2-0.2-0.3-0.3c-0.2-0.2-0.3-0.4-0.5-0.6c-0.1-0.1-0.2-0.2-0.2-0.3c-0.2-0.3-0.4-0.6-0.6-0.9c0,0,0,0,0-0.1c0,0,0,0,0,0
		c-0.1-0.2-0.2-0.4-0.3-0.6c0-0.1-0.1-0.2-0.1-0.3c-0.1-0.2-0.2-0.4-0.2-0.6c0-0.1-0.1-0.2-0.1-0.3c-0.1-0.2-0.1-0.4-0.2-0.6
		c0-0.1-0.1-0.2-0.1-0.3c-0.1-0.2-0.1-0.4-0.2-0.6c-0.2,0.1-0.4,0.2-0.5,0.3c-0.7,0.1-1.5,0.1-2.2,0.2c-0.7,0.1-1.3,0.3-2,0.4
		c-1.3,0.6-2.5,1.2-3.8,1.7c-0.7,0.4-1.5,0.7-2.2,1.1c-0.8,0.5-1.7,0.8-2.6,0.8c-0.1,0.1-0.3,0.1-0.4,0.2c-1.1,0.4-2.3,0.9-3.4,1.4
		c-0.2,0.1-0.4,0.2-0.6,0.3c-0.7,0.3-1.4,0.7-2.1,1c-1,0.4-2,0.8-3,1.1c-1.1,0.4-2.3,0.6-3.4,0.9c-0.4,0.1-0.9,0.2-1.3,0.3
		c-0.3,0.1-0.5,0.2-0.8,0.4c-1.2,0.5-2.4,1.1-3.6,1.5c-0.3,0.1-0.7,0.2-1,0.4c0,0.4,0,0.8,0.1,1.3c0.1,1,0.2,2.1,0.3,3.1
		c0.1,1.3,0.2,2.6,0.4,3.9c0.2,0.4,0.3,0.9,0.5,1.3c0.2,0.6,0.4,1.1,0.8,1.6c0.5-0.1,0.9-0.1,1.4-0.2c1.2-0.2,2.4-0.3,3.7-0.5
		l1.1-0.1c0.3-0.1,0.6-0.2,0.8-0.4c1.8-0.7,3.5-1.4,5.3-2.1c1.8-0.6,3.7-1.2,5.6-1.8c1.1-0.3,2.1-0.6,3.2-0.9c0,1,0.1,1.9,0.1,2.9
		c0.1,2.6,0.1,5.2,0,7.9c-0.1,2.5-0.1,4.9-0.2,7.4c0.1,1.6,0.3,3.2,0.5,4.8c0.1,1.9,0.2,3.7,0.2,5.6c0,1.9,0,3.8,0,5.7
		c0,1,0,1.9-0.1,2.9c-0.1,0.9-0.2,1.9-0.4,2.8c-0.1,0.9-0.2,1.7-0.2,2.6c0.2,0.1,0.5,0.2,0.7,0.3c0.6,0.1,1.2,0.2,1.8,0.2
		c0.4,0,0.8,0,1.2,0c1.3,0,2.7,0,4-0.1c2.6-0.2,5.2-0.4,7.9-0.5c2.7-0.1,5.4-0.1,8.1-0.1c1.8,0,3.7,0,5.5,0.1
		c1.8,0.1,3.7,0.1,5.6,0.2c1.8,0.1,3.6,0.2,5.4,0.3c1.3,0.1,2.7,0.2,4,0.3c0.4,0.4,1,0.6,1.6,0.6h0.5c0.6,0,1.1,0,1.7,0
		c0.1,0,0.3,0,0.4,0c0-0.1,0-0.2,0-0.4c-0.1-0.2-0.2-0.4-0.3-0.6c-0.1-0.6-0.1-1.2-0.1-1.8c0-0.3,0.1-0.6,0.1-0.9l0-0.2
		c-0.3-0.7-0.5-1.3-0.6-2c0-0.1,0-0.1,0-0.2c-0.1-0.6-0.2-1.2-0.2-1.8c-0.1-1-0.2-2-0.3-3c0,0,0,0.1,0,0.1c-0.1-0.4-0.1-0.9-0.2-1.3
		l0,0c-0.2-0.9-0.4-1.9-0.5-2.8c-0.2-1.1-0.3-2.2-0.3-3.2c-0.1-2-0.3-3.9-0.3-5.9c0-2,0-4.1-0.1-6.1c-0.1-1.1-0.1-2.2-0.3-3.2
		c-0.1-0.5-0.1-1.1-0.2-1.6c0-0.2,0-0.5,0-0.7c0-0.4,0.1-0.7,0.3-1.1c-0.1-0.8-0.2-1.7-0.3-2.5c-0.2-1.5-0.6-2.9-0.8-4.4
		c0-0.1,0-0.2,0-0.3c0.3,0.2,0.7,0.3,1,0.5c0.9,0.7,1.7,1.4,2.6,2.1l0.3,0.3c0.1,0,0.2,0,0.3,0c0.5,0,1,0.2,1.5,0.5
		c0.3,0.2,0.6,0.3,1,0.5c0.2,0.1,0.3,0.2,0.5,0.3v0c0.1,0.1,0.3,0.1,0.4,0.2l0,0c0.4,0.2,0.9,0.5,1.3,0.7l0,0l0.5,0.2l0,0l1,0.5
		c0.2,0.1,0.3,0.2,0.5,0.3l0.4,0.1c0.3,0.1,0.6,0.2,0.8,0.3c0.2,0.1,0.3,0.1,0.5,0.2c0.2,0.1,0.3,0.1,0.5,0.3c0.1,0,0.1,0.1,0.1,0.1
		c0.1,0.1,0.2,0.1,0.3,0.2l0.6,0.3l0,0c0.5,0.2,1,0.4,1.5,0.6c0.6,0.2,1.1,0.5,1.6,0.8c0.3,0.1,0.5,0.2,0.8,0.3
		c0.2-0.2,0.3-0.4,0.5-0.6c0.1-0.2,0.2-0.4,0.3-0.7c0.2-0.4,0.3-0.8,0.5-1.1c0.6-0.2,1.2-0.6,1.5-1.2c0.4-0.6,0.8-1.1,1.2-1.7
		c0.5-0.9,0.9-1.8,1.4-2.7l0,0c0-0.1,0-0.3,0-0.4c0-0.5-0.1-0.9-0.4-1.3C690.5,8342.7,690.5,8342.6,690.4,8342.5z"/>
</g>
</svg>
