<?xml version="1.0" encoding="utf-8"?>
<!-- Generator: Adobe Illustrator 24.2.0, SVG Export Plug-In . SVG Version: 6.00 Build 0)  -->
<svg version="1.1" id="レイヤー_1" xmlns="http://www.w3.org/2000/svg" xmlns:xlink="http://www.w3.org/1999/xlink" x="0px"
	 y="0px" viewBox="0 0 150 126" style="enable-background:new 0 0 150 126;" xml:space="preserve">
<g id="グループ_1040" transform="translate(-113.294 -1588.699)">
	<g id="グループ_393" transform="translate(-379.496 -2862.03)">
		<path id="パス_722" d="M503.2,4573c0,0.6-0.2,1.2-0.7,1.6c-0.4,0.4-1,0.7-1.6,0.7c-0.6,0-1.2-0.2-1.6-0.7
			c-0.4-0.4-0.7-1-0.7-1.6v-2.8c0-0.1,0-0.2,0.1-0.3c0.1-0.1,0.2-0.1,0.3-0.1c0.1,0,0.2,0,0.3,0.1c0.1,0.1,0.1,0.2,0.1,0.3v2.8
			c0,0.4,0.1,0.7,0.4,1c0.3,0.3,0.6,0.4,1,0.4c0.4,0,0.7-0.1,1-0.4c0.3-0.3,0.4-0.6,0.4-1v-2.9c0-0.1,0-0.2,0.1-0.3
			c0.1-0.1,0.2-0.1,0.3-0.1c0.1,0,0.2,0,0.3,0.1c0.1,0.1,0.1,0.2,0.1,0.3L503.2,4573z M506.5,4575.2c-0.1,0.1-0.2,0.1-0.3,0.1
			c-0.1,0-0.2,0-0.3-0.1c-0.1-0.1-0.1-0.2-0.1-0.3v-4.7c0-0.1,0-0.2,0.1-0.3c0.1-0.1,0.2-0.1,0.3-0.1h2.6c0.1,0,0.2,0,0.3,0.1
			c0.1,0.1,0.1,0.2,0.1,0.3c0,0.1,0,0.2-0.1,0.3c-0.1,0.1-0.2,0.1-0.3,0.1h-2.2v1.5h1.9c0.1,0,0.2,0,0.3,0.1
			c0.1,0.1,0.1,0.2,0.1,0.3c0,0.1,0,0.2-0.1,0.3c-0.1,0.1-0.2,0.1-0.3,0.1h-1.9v1.9C506.6,4575,506.6,4575.1,506.5,4575.2z
			 M515.9,4573c0,0.6-0.2,1.2-0.7,1.6c-0.4,0.4-1,0.7-1.6,0.7c-0.6,0-1.2-0.2-1.6-0.7c-0.4-0.4-0.7-1-0.7-1.6v-2.8
			c0-0.1,0-0.2,0.1-0.3c0.1-0.1,0.2-0.1,0.3-0.1c0.1,0,0.2,0,0.3,0.1c0.1,0.1,0.1,0.2,0.1,0.3v2.8c0,0.4,0.1,0.7,0.4,1
			c0.3,0.3,0.6,0.4,1,0.4c0.4,0,0.7-0.1,1-0.4c0.3-0.3,0.4-0.6,0.4-1v-2.9c0-0.1,0-0.2,0.1-0.3c0.1-0.1,0.2-0.1,0.3-0.1
			c0.1,0,0.2,0,0.3,0.1c0.1,0.1,0.1,0.2,0.1,0.3V4573z M519.1,4575.2c-0.1,0.1-0.2,0.1-0.3,0.1c-0.1,0-0.2,0-0.3-0.1
			c-0.1-0.1-0.1-0.2-0.1-0.3v-4.7c0-0.1,0-0.2,0.1-0.3c0.1-0.1,0.2-0.1,0.3-0.1h2.6c0.1,0,0.2,0,0.3,0.1c0.1,0.1,0.1,0.2,0.1,0.3
			c0,0.1,0,0.2-0.1,0.3c-0.1,0.1-0.2,0.1-0.3,0.1h-2.2v1.5h1.9c0.1,0,0.2,0,0.3,0.1c0.1,0.1,0.1,0.2,0.1,0.3c0,0.1,0,0.2-0.1,0.3
			c-0.1,0.1-0.2,0.1-0.3,0.1h-1.9v1.9C519.3,4575,519.2,4575.1,519.1,4575.2z M528.5,4573c0,0.6-0.2,1.2-0.7,1.6
			c-0.4,0.4-1,0.7-1.6,0.7c-0.6,0-1.2-0.2-1.6-0.7c-0.4-0.4-0.7-1-0.7-1.6v-2.8c0-0.1,0-0.2,0.1-0.3c0.1-0.1,0.2-0.1,0.3-0.1
			c0.1,0,0.2,0,0.3,0.1c0.1,0.1,0.1,0.2,0.1,0.3v2.8c0,0.4,0.1,0.7,0.4,1c0.3,0.3,0.6,0.4,1,0.4c0.4,0,0.7-0.1,1-0.4
			c0.3-0.3,0.4-0.6,0.4-1v-2.9c0-0.1,0-0.2,0.1-0.3c0.1-0.1,0.2-0.1,0.3-0.1c0.1,0,0.2,0,0.3,0.1c0.1,0.1,0.1,0.2,0.1,0.3
			L528.5,4573z M536.5,4573.3L536.5,4573.3c-0.2,0-0.3-0.1-0.4-0.2l-1.1-1.6v3.4c0,0.1,0,0.2-0.1,0.3c-0.1,0.1-0.2,0.1-0.3,0.1
			c-0.1,0-0.2,0-0.3-0.1c-0.1-0.1-0.1-0.2-0.1-0.3v-4.7c0-0.1,0-0.2,0.1-0.3c0.1-0.1,0.2-0.1,0.3-0.1h0c0.1,0,0.3,0.1,0.4,0.2
			l1.6,2.2l1.6-2.2c0.1-0.1,0.2-0.2,0.4-0.2h0c0.1,0,0.2,0.1,0.3,0.1c0.1,0.1,0.1,0.2,0.1,0.3v4.7c0,0.1,0,0.2-0.1,0.3
			c-0.1,0.1-0.2,0.1-0.3,0.1c-0.1,0-0.2,0-0.3-0.1c-0.1-0.1-0.1-0.2-0.1-0.3v-3.4l-1.2,1.6C536.8,4573.2,536.6,4573.3,536.5,4573.3z
			 M542,4574.4c-0.5-0.5-0.8-1.3-0.8-2c0-0.8,0.3-1.5,0.8-2c0.5-0.5,1.2-0.9,1.9-0.8c0.7,0,1.4,0.3,1.9,0.9c0.5,0.5,0.8,1.3,0.8,2
			c0,0.8-0.3,1.5-0.8,2c-0.2,0.3-0.5,0.5-0.9,0.6c-0.3,0.2-0.7,0.2-1.1,0.2C543.2,4575.3,542.5,4575,542,4574.4z M542.1,4572.4
			c0,0.5,0.2,1,0.5,1.4c0.3,0.4,0.8,0.6,1.3,0.6c0.5,0,1-0.2,1.3-0.6c0.3-0.4,0.5-0.9,0.5-1.4c0-0.5-0.2-1-0.5-1.4
			c-0.3-0.4-0.8-0.6-1.3-0.6c-0.5,0-1,0.2-1.3,0.6C542.3,4571.4,542.1,4571.9,542.1,4572.4L542.1,4572.4z M551.3,4573.3
			L551.3,4573.3c-0.2,0-0.3-0.1-0.4-0.2l-1.1-1.6v3.4c0,0.1,0,0.2-0.1,0.3c-0.1,0.1-0.2,0.1-0.3,0.1c-0.1,0-0.2,0-0.3-0.1
			c-0.1-0.1-0.1-0.2-0.1-0.3v-4.7c0-0.1,0-0.2,0.1-0.3c0.1-0.1,0.2-0.1,0.3-0.1h0c0.1,0,0.3,0.1,0.4,0.2l1.6,2.2l1.6-2.2
			c0.1-0.1,0.2-0.2,0.4-0.2h0c0.1,0,0.2,0.1,0.3,0.1c0.1,0.1,0.1,0.2,0.1,0.3v4.7c0,0.1,0,0.2-0.1,0.3c-0.1,0.1-0.2,0.1-0.3,0.1
			c-0.1,0-0.2,0-0.3-0.1c-0.1-0.1-0.1-0.2-0.1-0.3v-3.4l-1.2,1.6C551.6,4573.2,551.4,4573.3,551.3,4573.3L551.3,4573.3z
			 M558.7,4573.3L558.7,4573.3c-0.2,0-0.3-0.1-0.4-0.2l-1.1-1.6v3.4c0,0.1,0,0.2-0.1,0.3c-0.1,0.1-0.2,0.1-0.3,0.1
			c-0.1,0-0.2,0-0.3-0.1c-0.1-0.1-0.1-0.2-0.1-0.3v-4.7c0-0.1,0-0.2,0.1-0.3c0.1-0.1,0.2-0.1,0.3-0.1h0c0.1,0,0.3,0.1,0.4,0.2
			l1.6,2.2l1.6-2.2c0.1-0.1,0.2-0.2,0.4-0.2h0c0.1,0,0.2,0.1,0.3,0.1c0.1,0.1,0.1,0.2,0.1,0.3v4.7c0,0.1,0,0.2-0.1,0.3
			c-0.1,0.1-0.2,0.1-0.3,0.1c-0.1,0-0.2,0-0.3-0.1c-0.1-0.1-0.1-0.2-0.1-0.3v-3.4l-1.2,1.6C559,4573.2,558.8,4573.3,558.7,4573.3
			L558.7,4573.3z M566.9,4569.9c0.1-0.1,0.2-0.2,0.3-0.2c0.1,0,0.2,0,0.3,0.1c0.1,0.1,0.2,0.2,0.2,0.3c0,0.1,0,0.2-0.1,0.3l-1.6,2.2
			v2.2c0,0.1,0,0.2-0.1,0.3c-0.1,0.1-0.2,0.1-0.3,0.1c-0.1,0-0.2,0-0.3-0.1c-0.1-0.1-0.1-0.2-0.1-0.3v-2.2l-1.6-2.2
			c-0.1-0.1-0.1-0.2-0.1-0.3c0-0.1,0.1-0.2,0.2-0.3c0.1-0.1,0.2-0.1,0.3-0.1c0.1,0,0.2,0.1,0.3,0.2l1.4,1.9L566.9,4569.9z
			 M568.8,4571.7c0-0.1,0.1-0.2,0.2-0.2c0.3-0.1,0.6-0.4,0.5-0.7c-0.1,0-0.2-0.1-0.3-0.2c-0.1-0.1-0.1-0.2-0.1-0.3v-0.1
			c0-0.1,0.1-0.3,0.2-0.4c0.1-0.1,0.3-0.2,0.4-0.2c0.2,0,0.3,0.1,0.4,0.2c0.1,0.1,0.2,0.3,0.2,0.5v0.1c0,0.4-0.1,0.8-0.4,1.1
			c-0.2,0.2-0.5,0.4-0.8,0.4C568.9,4572,568.8,4571.9,568.8,4571.7z M574.9,4573.6c0-0.4-0.5-0.7-1.4-0.9h0
			c-0.4-0.1-0.7-0.2-1.1-0.3c-0.3-0.1-0.5-0.3-0.7-0.6c-0.1-0.2-0.2-0.5-0.2-0.7c0-0.5,0.2-0.9,0.6-1.1c0.4-0.3,0.9-0.5,1.4-0.5
			c0.2,0,0.5,0,0.7,0.1c0.2,0.1,0.4,0.1,0.5,0.2c0.1,0.1,0.3,0.2,0.5,0.3c0.1,0.1,0.2,0.2,0.2,0.3c0,0.1,0,0.2-0.1,0.3
			c-0.1,0.1-0.2,0.2-0.3,0.2c-0.1,0-0.2,0-0.3-0.1c-0.2-0.1-0.4-0.3-0.7-0.4c-0.2-0.1-0.4-0.1-0.6-0.1c-0.3,0-0.6,0.1-0.9,0.2
			c-0.2,0.1-0.3,0.3-0.3,0.5c0,0.1,0,0.2,0.1,0.2c0.1,0.2,0.6,0.4,1.2,0.6h0c0.4,0.1,0.7,0.2,1.1,0.3c0.6,0.2,1,0.7,1,1.3
			c0,0.5-0.2,1-0.7,1.2c-0.4,0.3-1,0.5-1.5,0.5c-0.8,0-1.5-0.3-2-0.8c-0.1-0.1-0.1-0.2-0.1-0.3c0-0.1,0-0.2,0.1-0.3
			c0.1-0.1,0.2-0.1,0.3-0.1c0.1,0,0.2,0,0.3,0.1c0.4,0.4,1,0.6,1.5,0.6c0.3,0,0.7-0.1,1-0.3C574.7,4574.1,574.9,4573.8,574.9,4573.6
			z M583.5,4572.7c0.4,0.3,0.6,0.7,0.5,1.2c0,0.2,0,0.3,0,0.5c0.1,0,0.2,0.1,0.3,0.3c0.1,0.1,0,0.3-0.1,0.4
			c-0.1,0.1-0.2,0.2-0.4,0.2h0c-0.2,0-0.5-0.1-0.6-0.4c-0.1-0.3-0.2-0.6-0.2-1c0-0.2-0.1-0.5-0.3-0.6c-0.1-0.1-0.3-0.2-0.4-0.2h-0.9
			v1.7c0,0.1,0,0.2-0.1,0.3c-0.1,0.1-0.2,0.1-0.3,0.1c-0.1,0-0.2,0-0.3-0.1c-0.1-0.1-0.1-0.2-0.1-0.3v-4.7c0-0.1,0-0.2,0.1-0.3
			c0.1-0.1,0.2-0.1,0.3-0.1h1.4c0.5,0,0.9,0.2,1.2,0.5c0.3,0.3,0.5,0.8,0.5,1.3C584.1,4572,583.9,4572.4,583.5,4572.7z
			 M582.4,4572.2c0.2,0,0.4-0.1,0.6-0.2c0.2-0.2,0.2-0.4,0.2-0.6c0-0.2-0.1-0.4-0.2-0.6c-0.2-0.2-0.4-0.2-0.6-0.2h-1v1.6
			L582.4,4572.2z M586.7,4575.3c-0.1,0-0.2,0-0.3-0.1c-0.1-0.1-0.1-0.2-0.1-0.3v-4.7c0-0.1,0-0.2,0.1-0.3c0.1-0.1,0.2-0.1,0.3-0.1
			h2.6c0.1,0,0.2,0,0.3,0.1c0.1,0.1,0.1,0.2,0.1,0.3c0,0.1,0,0.2-0.1,0.3c-0.1,0.1-0.2,0.1-0.3,0.1h-2.2v1.5h1.9
			c0.1,0,0.2,0,0.3,0.1c0.1,0.1,0.1,0.2,0.1,0.3c0,0.1,0,0.2-0.1,0.3c-0.1,0.1-0.2,0.1-0.3,0.1h-1.9v1.5h2.2c0.1,0,0.2,0,0.3,0.1
			c0.1,0.1,0.1,0.2,0.1,0.3c0,0.1,0,0.2-0.1,0.3c-0.1,0.1-0.2,0.1-0.3,0.1H586.7L586.7,4575.3L586.7,4575.3z M592.9,4571
			c-0.4,0.4-0.6,0.9-0.6,1.4c0,0.5,0.2,1,0.6,1.4c0.4,0.4,0.9,0.6,1.4,0.6c0.5,0,1-0.1,1.3-0.4c0.1-0.1,0.2-0.1,0.3-0.1
			c0.1,0,0.2,0.1,0.3,0.2c0.1,0.1,0.1,0.2,0.1,0.3c0,0.1-0.1,0.2-0.2,0.3c-0.5,0.4-1.2,0.6-1.9,0.6c-0.8,0-1.5-0.3-2.1-0.8
			c-0.6-0.5-0.9-1.3-0.9-2c0-0.8,0.3-1.5,0.9-2c0.5-0.5,1.3-0.9,2.1-0.9c0.7,0,1.3,0.2,1.8,0.6c0.1,0.1,0.2,0.2,0.2,0.3
			c0,0.1,0,0.2-0.1,0.3c-0.1,0.1-0.2,0.2-0.3,0.2c-0.1,0-0.2,0-0.3-0.1c-0.4-0.3-0.8-0.5-1.3-0.4
			C593.8,4570.4,593.3,4570.7,592.9,4571z M599,4574.4c-0.5-0.5-0.8-1.3-0.8-2c0-0.8,0.3-1.5,0.8-2c0.5-0.5,1.2-0.9,1.9-0.8
			c0.7,0,1.4,0.3,1.9,0.9c0.5,0.5,0.8,1.3,0.8,2c0,0.8-0.3,1.5-0.8,2c-0.2,0.3-0.5,0.5-0.9,0.6c-0.3,0.2-0.7,0.2-1,0.2
			C600.2,4575.3,599.5,4575,599,4574.4L599,4574.4z M599.1,4572.4c0,0.5,0.2,1,0.5,1.4c0.3,0.4,0.8,0.6,1.3,0.6c0.5,0,1-0.2,1.3-0.6
			c0.3-0.4,0.5-0.9,0.5-1.4c0-0.5-0.2-1-0.5-1.4c-0.3-0.4-0.8-0.6-1.3-0.6c-0.5,0-1,0.2-1.3,0.6
			C599.3,4571.4,599.1,4571.9,599.1,4572.4L599.1,4572.4z M608.3,4573.3L608.3,4573.3c-0.2,0-0.3-0.1-0.4-0.2l-1.1-1.6v3.4
			c0,0.1,0,0.2-0.1,0.3c-0.1,0.1-0.2,0.1-0.3,0.1c-0.1,0-0.2,0-0.3-0.1c-0.1-0.1-0.1-0.2-0.1-0.3v-4.7c0-0.1,0-0.2,0.1-0.3
			c0.1-0.1,0.2-0.1,0.3-0.1h0c0.1,0,0.3,0.1,0.4,0.2l1.6,2.2l1.6-2.2c0.1-0.1,0.2-0.2,0.4-0.2h0c0.1,0,0.2,0.1,0.3,0.1
			c0.1,0.1,0.1,0.2,0.1,0.3v4.7c0,0.1,0,0.2-0.1,0.3c-0.1,0.1-0.2,0.1-0.3,0.1c-0.1,0-0.2,0-0.3-0.1c-0.1-0.1-0.1-0.2-0.1-0.3v-3.4
			l-1.2,1.6C608.6,4573.2,608.5,4573.3,608.3,4573.3L608.3,4573.3z M615.7,4573.3L615.7,4573.3c-0.2,0-0.3-0.1-0.4-0.2l-1.1-1.6v3.4
			c0,0.1,0,0.2-0.1,0.3c-0.1,0.1-0.2,0.1-0.3,0.1c-0.1,0-0.2,0-0.3-0.1c-0.1-0.1-0.1-0.2-0.1-0.3v-4.7c0-0.1,0-0.2,0.1-0.3
			c0.1-0.1,0.2-0.1,0.3-0.1h0c0.1,0,0.3,0.1,0.4,0.2l1.6,2.2l1.6-2.2c0.1-0.1,0.2-0.2,0.4-0.2h0c0.1,0,0.2,0.1,0.3,0.1
			c0.1,0.1,0.1,0.2,0.1,0.3v4.7c0,0.1,0,0.2-0.1,0.3c-0.1,0.1-0.2,0.1-0.3,0.1c-0.1,0-0.2,0-0.3-0.1c-0.1-0.1-0.1-0.2-0.1-0.3v-3.4
			l-1.2,1.6C616,4573.2,615.9,4573.3,615.7,4573.3L615.7,4573.3z M621.1,4575.3c-0.1,0-0.2,0-0.3-0.1c-0.1-0.1-0.1-0.2-0.1-0.3v-4.7
			c0-0.1,0-0.2,0.1-0.3c0.1-0.1,0.2-0.1,0.3-0.1h2.6c0.1,0,0.2,0,0.3,0.1c0.1,0.1,0.1,0.2,0.1,0.3c0,0.1,0,0.2-0.1,0.3
			c-0.1,0.1-0.2,0.1-0.3,0.1h-2.2v1.5h1.9c0.1,0,0.2,0,0.3,0.1c0.1,0.1,0.1,0.2,0.1,0.3c0,0.1,0,0.2-0.1,0.3
			c-0.1,0.1-0.2,0.1-0.3,0.1h-1.9v1.5h2.2c0.1,0,0.2,0,0.3,0.1c0.1,0.1,0.1,0.2,0.1,0.3c0,0.1,0,0.2-0.1,0.3
			c-0.1,0.1-0.2,0.1-0.3,0.1H621.1L621.1,4575.3L621.1,4575.3z M627,4571.5v3.3c0,0.1,0,0.2-0.1,0.3c-0.1,0.1-0.2,0.1-0.3,0.1
			c-0.1,0-0.2,0-0.3-0.1c-0.1-0.1-0.1-0.2-0.1-0.3v-4.7c0-0.1,0-0.3,0.2-0.4c0.1-0.1,0.2-0.1,0.3-0.1c0.1,0,0.2,0.1,0.3,0.2l2.6,3.6
			v-3.3c0-0.1,0-0.2,0.1-0.3c0.1-0.1,0.2-0.1,0.3-0.1c0.1,0,0.2,0,0.3,0.1c0.1,0.1,0.1,0.2,0.1,0.3v4.7c0,0.1,0,0.2-0.1,0.3
			c-0.1,0.1-0.2,0.1-0.3,0.1c-0.1,0-0.2-0.1-0.3-0.2c0,0,0,0,0,0L627,4571.5z M632.9,4574.9v-4.7c0-0.1,0-0.2,0.1-0.3
			c0.1-0.1,0.2-0.1,0.3-0.1h0.9c0.7,0,1.5,0.3,2,0.8c0.5,0.5,0.8,1.2,0.8,2c0,0.7-0.3,1.5-0.8,2c-0.5,0.5-1.2,0.8-2,0.8h-0.9
			c-0.1,0-0.2,0-0.3-0.1C632.9,4575.1,632.9,4575,632.9,4574.9z M633.8,4570.6v3.8h0.5c0.5,0,1-0.2,1.3-0.6c0.4-0.4,0.6-0.8,0.6-1.3
			c0-0.5-0.2-1-0.6-1.4c-0.4-0.4-0.8-0.6-1.3-0.6H633.8z"/>
		<g id="グループ_294" transform="translate(492.79 4529.535)">
			<path id="パス_371" d="M12.8,8.2c-0.2,0-0.4,0-0.6,0c-0.5,0-1,0-1.6,0.1c-0.6,0-1.2,0.1-1.8,0.2c-0.5,0.1-1,0.2-1.4,0.2
				c-1,0.1-1.9,0.2-2.9,0.1c-0.9,0-1.9-0.1-2.8-0.2C1.5,8.6,1.2,8.6,1,8.5c-0.1,0-0.2,0-0.2,0c0,0.5,0.1,1,0.1,1.5
				c0,0.2,0,0.5,0,0.7C2.3,10.9,3.7,11,5,11c0.7,0,1.4,0,2.1-0.1c0.4-0.1,0.9-0.1,1.3-0.2c0.3-0.1,0.6-0.1,0.9-0.1
				c0.7-0.1,1.4-0.1,2-0.1c0,0,0,0,0,0c-0.8,1.7-1.5,3.3-2.3,5c-0.4,0.9-0.8,1.7-1.1,2.7c-0.3,0.8-0.5,1.7-0.8,2.5
				c0,0,0,0.1-0.1,0.1c-0.1,0.3-0.2,0.6-0.1,0.8c0.2,0.6,0.8,0.9,1.4,0.8C8.6,22.2,8.8,22,9,21.8c0.3-0.7,0.6-1.5,0.8-2.2
				c0.2-0.6,0.4-1.3,0.6-1.9c0.5-1.1,1-2.2,1.6-3.3c0.3-0.7,0.6-1.3,0.9-2c0.3-0.6,0.6-1.3,0.9-1.9c0.2-0.3,0.3-0.7,0.3-1
				c0-0.4-0.2-0.8-0.5-0.9C13.4,8.2,13.1,8.2,12.8,8.2L12.8,8.2z"/>
			<path id="パス_372" d="M4.2,18.6c-0.1,0.1-0.1,0.2-0.3,0.3c0,0,0,0.1,0.1,0.1c1,1,2.1,1.9,3.1,2.8c1,0.9,2,1.9,2.9,2.9
				c0.3,0.4,0.5,0.8,0.8,1.2c0.1,0.2,0.3,0.4,0.6,0.5c0.2-0.2,0.5-0.4,0.7-0.6c0.2-0.2,0.5-0.4,0.7-0.7c0-0.1-0.1-0.2-0.1-0.3
				c-0.4-0.7-1-1.5-1.5-2.1c-0.6-0.6-1.2-1.2-1.8-1.8c-1.2-1.2-2.6-2.3-3.8-3.5c-0.1-0.1-0.3-0.2-0.5-0.3
				C4.8,17.6,4.5,18.1,4.2,18.6L4.2,18.6z"/>
			<path id="パス_373" d="M31.2,7.9C30,8,28.8,8,27.7,8.1c-1.2,0.1-2.4,0.1-3.5,0.2c-1,0.1-2,0.2-2.9,0.3
				c-0.9,0.1-1.7,0.3-2.6,0.4c0.1,0.4,0.1,0.8,0.2,1.2c0,0.1,0,0.2,0,0.2c0,0.1,0.1,0.1,0.1,0.2c0,0.2,0,0.3,0.1,0.5
				c0.9-0.1,1.8-0.3,2.8-0.4c1-0.1,2-0.2,3-0.3c1.1-0.1,2.2-0.1,3.2-0.2c1.1-0.1,2.2-0.1,3.3-0.1c1,0,2,0,2.9,0.1l0.1,0
				c-0.2,0.3-0.4,0.7-0.6,1c-0.3,0.5-0.5,0.9-0.8,1.4c-0.6,1-1.1,2-1.7,3c-0.3,0.5-0.5,0.9-0.8,1.4c-0.3,0.5-0.6,0.9-0.9,1.4
				c-0.5,0.9-1,1.7-1.6,2.6c-0.1,0.1-0.2,0.1-0.3,0.2c-0.2,0.2-0.3,0.5-0.3,0.8c0,0.2,0.1,0.5,0.2,0.7c0.3,0.5,1,0.7,1.5,0.4
				c0.3-0.2,0.6-0.5,0.8-0.9c0.1-0.2,0.3-0.4,0.4-0.7c0.3-0.5,0.6-0.9,0.8-1.4c0.6-1,1.2-1.9,1.8-2.9c0.6-1,1.1-1.9,1.6-2.9
				c0.6-1,1.1-2,1.7-3.1c0.3-0.4,0.5-0.9,0.6-1.4c0.1-0.4,0-0.9-0.3-1.2c-0.2-0.2-0.4-0.3-0.7-0.4c-0.4-0.1-0.7-0.2-1.1-0.3
				c-0.7-0.1-1.4-0.1-2.1-0.1C32.1,7.9,31.6,7.9,31.2,7.9L31.2,7.9z"/>
			<path id="パス_374" d="M25,17.9c-0.2,0.2-0.5,0.3-0.7,0.5c0,0.1,0.1,0.1,0.1,0.2c0.8,1.2,1.6,2.3,2.4,3.5
				c0.4,0.5,0.7,1.1,1.1,1.6c0.3,0.5,0.6,1,0.9,1.6l0.1-0.1c0.6-0.4,1.2-0.7,1.8-0.9l0,0c-0.3-0.6-0.6-1.1-0.9-1.6
				c-0.4-0.6-0.7-1.1-1.1-1.7c-0.8-1.2-1.6-2.3-2.4-3.5c-0.1-0.1-0.2-0.2-0.3-0.3C25.7,17.4,25.3,17.6,25,17.9L25,17.9z"/>
			<path id="パス_375" d="M47.6,10.3c-0.2,0-0.4,0.1-0.6,0.2c-0.1,0-0.2,0.1-0.3,0.1c-0.1,0.1-0.3,0.1-0.4,0.2
				c-0.2,0.1-0.4,0.3-0.6,0.4c-0.2,0.2-0.4,0.5-0.6,0.8c-0.2,0.2-0.3,0.5-0.5,0.7c-0.3,0.5-0.6,1-0.8,1.5c-0.3,0.7-0.6,1.3-0.9,2
				c-0.1,0.2-0.1,0.3-0.1,0.5c-0.1,0.3-0.1,0.7-0.1,1c0,0.4,0.1,0.7,0.2,1.1c0.2,0.6,0.5,1.2,0.9,1.6c0.2,0.3,0.5,0.5,0.7,0.8
				c0.9,0.8,2.1,1.2,3.2,0.9c0.6-0.2,1.2-0.5,1.7-1c0.7-0.9,1.1-2.1,1.2-3.2c0.1-0.5,0.1-0.9,0.1-1.4c0-0.6,0-1.1-0.1-1.6
				c-0.1-0.8-0.2-1.5-0.3-2.3l0.1,0c0.2,0.1,0.3,0.2,0.5,0.3c0.1,0.1,0.2,0.2,0.4,0.4c0.3,0.5,0.6,0.9,0.8,1.4
				c0.4,1,0.7,2.1,0.9,3.2c0.1,0.8,0.1,1.6,0.2,2.4c0,0.8,0,1.6-0.1,2.4c0,0,0,0.1,0,0.1c0,0.1,0,0.2,0,0.3c0.2,0,0.3,0.1,0.5,0.1
				c0.4,0.1,0.8,0.2,1.2,0.2l0.3,0.1c0.1-0.1,0.1-0.2,0.2-0.4c0.1-1.1,0.2-2.2,0.1-3.4c0-1.2-0.2-2.4-0.5-3.6
				c-0.3-1.1-0.6-2.1-1.1-3.1c-0.2-0.5-0.6-1-0.9-1.4c-0.5-0.5-1-0.9-1.7-1.1c-0.5-0.2-1.1-0.3-1.6-0.3c-0.1,0-0.3,0-0.4,0
				C48.4,10.2,48,10.2,47.6,10.3L47.6,10.3z M46.6,20c-0.1,0-0.2-0.1-0.3-0.1c-0.1-0.1-0.3-0.2-0.4-0.3c-0.3-0.2-0.5-0.4-0.7-0.7
				c-0.1-0.2-0.2-0.3-0.3-0.5c-0.1-0.2-0.1-0.4-0.2-0.7c0-0.1,0-0.2,0-0.4c0.1-0.3,0.1-0.6,0.3-0.9c0.3-0.6,0.5-1.2,0.9-1.8
				c0.3-0.6,0.6-1.1,1-1.6c0.1-0.1,0.2-0.2,0.3-0.4c0.1,0,0.1-0.1,0.2-0.1c0.2-0.1,0.4-0.1,0.5-0.2c0.1,0.3,0.1,0.6,0.2,1
				c0.1,0.8,0.2,1.6,0.2,2.4c0,0.7,0,1.4-0.1,2.2c-0.1,0.4-0.2,0.8-0.3,1.1c-0.1,0.1-0.1,0.3-0.2,0.4c-0.1,0.1-0.1,0.1-0.2,0.2
				c-0.1,0.1-0.2,0.1-0.3,0.1c-0.1,0-0.2,0.1-0.3,0.1C46.8,20,46.7,20,46.6,20L46.6,20L46.6,20z M48.1,18.2L48.1,18.2L48.1,18.2z
				 M52.8,22.3L52.8,22.3L52.8,22.3z"/>
			<path id="パス_376" d="M76.1,7.6c-0.2,0-0.4,0.1-0.5,0.1c-0.7,0.1-1.4,0.1-2.2,0.1c-0.2,0-0.5,0-0.7,0c-1.1,0-2.2,0-3.3,0.1
				c-2.4,0.1-4.8,0.3-7.1,0.7c-0.6,0.1-1.3,0.2-1.9,0.4c-0.1,0-0.3,0.1-0.4,0.2c0,0.5,0.1,0.9,0.2,1.4c0,0.2,0,0.3,0.1,0.5
				c0.2,0.1,0.5,0.1,0.7,0.1c1-0.2,2.1-0.4,3.1-0.6c2.1-0.3,4.3-0.4,6.4-0.5c1,0,2,0,3,0c1.1,0.1,2.2,0,3.2-0.2
				c0.3-0.1,0.5-0.2,0.6-0.4c-0.2-0.3-0.3-0.6-0.5-1c-0.1-0.2-0.2-0.5-0.4-0.7h0C76.2,7.6,76.1,7.6,76.1,7.6L76.1,7.6z"/>
			<path id="パス_377" d="M70.8,4c-0.1,0.3-0.2,0.6-0.1,0.8c0.1,0.7,0.3,1.5,0.4,2.2c0.2,1.5,0.3,3,0.4,4.4c-0.2,0-0.3,0-0.5,0.1
				c-0.6,0.1-1.1,0.3-1.7,0.6c-0.5,0.3-1,0.7-1.5,1.1c-0.4,0.4-0.9,0.9-1.2,1.4c-0.1,0.1-0.2,0.2-0.2,0.3c-0.2,0.3-0.4,0.7-0.6,1.1
				c-0.2,0.6-0.3,1.2-0.3,1.8c0,0.3,0.1,0.6,0.1,0.9c0.1,0.4,0.2,0.9,0.4,1.3c0.2,0.3,0.4,0.6,0.7,0.9c0.2,0.2,0.5,0.4,0.8,0.6
				c0.8,0.5,1.7,0.7,2.6,0.5c0.7-0.2,1.3-0.5,1.8-1c0.2-0.2,0.5-0.5,0.6-0.8c0.1-0.2,0.2-0.4,0.4-0.6c0.2-0.5,0.4-0.9,0.5-1.4
				c0.3-1.1,0.4-2.1,0.3-3.2c0-0.5,0-0.9-0.1-1.4c0.1,0,0.3,0.1,0.4,0.1c0,0,0.1,0.1,0.1,0.1c0.2,0.1,0.3,0.3,0.5,0.5
				c0.4,0.6,0.7,1.2,1,1.8c0.6,1.4,0.9,2.9,1.2,4.4C77,21,77,21.6,77,22.1c0.1,0.1,0.3,0.2,0.3,0.4c0.1,0.3,0.1,0.6,0.1,1
				c0,0.1,0,0.1,0,0.2c0,0.3,0.1,0.6,0.1,1c0,0.3,0.1,0.7,0.1,1c0.3,0.1,0.5,0.3,0.8,0.4c0.1-0.1,0.2-0.2,0.3-0.4
				c0.1-0.3,0.2-0.5,0.3-0.8c0.1-0.5,0.2-1.1,0.3-1.6c0.1-1.1,0-2.2-0.2-3.3c-0.3-2.1-0.9-4.1-1.8-5.9c-0.3-0.5-0.6-1-1-1.5
				c-0.1-0.2-0.3-0.3-0.5-0.5c-0.2-0.2-0.4-0.3-0.6-0.4c-0.2-0.1-0.4-0.2-0.5-0.2c-0.3-0.1-0.6-0.1-0.9-0.2h0c0-0.1,0-0.1,0-0.2
				c0-0.5-0.1-0.9-0.1-1.4c-0.1-1.8-0.3-3.7-0.7-5.5c0,0,0-0.1,0-0.1c-0.2,0-0.4-0.1-0.6-0.1C71.8,4,71.4,3.9,71,3.8
				C70.9,3.9,70.9,3.9,70.8,4L70.8,4z M69.3,20c-0.1,0-0.2-0.1-0.3-0.1c-0.2-0.1-0.4-0.2-0.6-0.3c-0.1-0.1-0.2-0.2-0.2-0.2
				C68.1,19.2,68,19.1,68,19c-0.1-0.3-0.2-0.7-0.2-1c0-0.2,0-0.5,0-0.7c0-0.2,0.1-0.3,0.1-0.5c0.2-0.4,0.4-0.7,0.6-1
				c0.4-0.5,0.8-0.9,1.3-1.3c0.2-0.2,0.5-0.3,0.8-0.5c0.3-0.1,0.7-0.2,1-0.3c0,0.3,0,0.5,0,0.8c0,0.7,0,1.5-0.1,2.2
				c-0.1,0.6-0.2,1.2-0.5,1.8c-0.1,0.3-0.3,0.5-0.5,0.8c-0.1,0.2-0.3,0.3-0.4,0.4c-0.1,0.1-0.2,0.1-0.3,0.2c-0.1,0-0.2,0.1-0.3,0.1
				h0C69.5,20,69.4,20,69.3,20L69.3,20z"/>
			<path id="パス_378" d="M81.7,4.8c-0.4,0.1-0.7,0.3-1.1,0.4c-0.3,0.1-0.5,0.2-0.8,0.3c0,0.1,0,0.2,0,0.3
				c0.2,0.9,0.6,1.8,0.9,2.7s0.6,1.8,1,2.6c0-0.1-0.1-0.2-0.1-0.3c0.1,0.3,0.3,0.7,0.5,1c0,0.1,0.1,0.2,0.2,0.2
				c0.2-0.1,0.4-0.2,0.6-0.2c0.1,0,0.1,0,0.2-0.1c0.1-0.1,0.2-0.1,0.3-0.2c0.1-0.1,0.3-0.1,0.5-0.1l0.1-0.1l0.2-0.1
				c0-0.2,0-0.4-0.1-0.6c-0.1-0.2-0.2-0.4-0.3-0.6c0,0.1,0.1,0.2,0.1,0.3c-0.1-0.2-0.1-0.3-0.2-0.5c-0.3-0.7-0.5-1.4-0.8-2.1
				c-0.3-0.9-0.6-1.7-0.8-2.6C82,5,81.9,4.9,81.7,4.8L81.7,4.8L81.7,4.8z"/>
			<path id="パス_379" d="M89.7,5.7c0,0.1,0,0.2,0,0.3c0,0.6-0.1,1.1-0.1,1.7c0,0.1,0,0.1,0,0.2c0.1,0,0.1,0,0.2,0
				c1.7,0.2,3.4,0.3,5.1,0.4c0.9,0,1.8,0.1,2.7,0c0.4,0,0.9,0,1.3,0c0.4,0,0.8-0.1,1.2-0.1c0.8-0.1,1.5-0.2,2.3-0.2
				c0.8,0,1.5,0.1,2.3,0.1c0.8,0.1,1.6,0.1,2.4,0.2c0.8,0.1,1.5,0.2,2.3,0.2c0.1,0,0.2,0,0.2,0c0-0.5,0-0.9,0-1.4V6.4
				c-0.1,0-0.2,0-0.2,0c-0.8,0-1.5-0.1-2.3-0.2c-0.8-0.1-1.6-0.2-2.5-0.2s-1.6-0.1-2.5-0.1c-0.8,0-1.7,0.1-2.5,0.2
				c-0.3,0-0.7,0.1-1,0.1c-0.4,0-0.8,0-1.1,0c-0.9,0-1.8,0-2.7,0C93.1,6.1,91.4,5.9,89.7,5.7C89.8,5.7,89.8,5.7,89.7,5.7L89.7,5.7z
				 M100.4,8.1c0,0-0.1,0-0.1,0C100.3,8.2,100.4,8.2,100.4,8.1z"/>
			<path id="パス_380" d="M98,1.7L97.9,2c-0.1,0.2-0.1,0.4,0,0.6c0.1,1,0.3,2,0.6,2.9c0.2,1,0.5,1.9,0.7,2.9c0,0,0,0.1,0,0.1
				c-0.3,0-0.6,0-0.9,0c-0.5,0-0.9,0.1-1.3,0.4c-0.3,0.2-0.5,0.4-0.7,0.7c-0.2,0.3-0.4,0.5-0.6,0.8c-0.2,0.3-0.3,0.6-0.4,0.9
				c-0.1,0.3-0.2,0.6-0.2,1c0,0.2,0,0.5,0,0.7c0,0.6,0.1,1.2,0.3,1.7c0.2,0.6,0.6,1.2,1.1,1.6c0.4,0.3,0.9,0.6,1.4,0.9
				c0.2,0.1,0.4,0.2,0.6,0.3c0.2,0.1,0.4,0.2,0.5,0.2c0.2,0.1,0.4,0.1,0.6,0.1c0.3,0,0.7,0,1-0.1c0.4-0.1,0.7-0.4,0.9-0.7
				c0,0.1,0,0.1,0,0.2c-0.1,0.5-0.3,1.1-0.4,1.6c-0.1,0.3-0.2,0.6-0.3,0.9c-0.1,0.3-0.1,0.7-0.2,1c0,0.1,0,0.1,0,0.2
				c0.2,0,0.3,0,0.5,0.1c0.2,0.1,0.4,0.1,0.5,0.2c0.3,0.1,0.6,0.2,0.9,0.3l0.1-0.1c0.1-0.2,0.2-0.4,0.2-0.6c0,0,0,0,0,0
				c0.1-0.5,0.2-0.9,0.4-1.4c0.1-0.5,0.3-0.9,0.4-1.4c0.1-0.6,0.2-1.2,0.1-1.8c0-0.6-0.1-1.2-0.2-1.7c-0.2-1.1-0.5-2.3-1-3.3
				c-0.2-0.5-0.4-0.9-0.7-1.3c-0.1-0.1-0.2-0.3-0.3-0.4c-0.1-0.4-0.2-0.8-0.2-1.2c-0.2-1.1-0.5-2.2-0.7-3.2c-0.3-1-0.5-2.1-0.6-3.1
				c0-0.1-0.1-0.3-0.2-0.4c-0.2,0-0.3,0-0.5-0.1c-0.2,0-0.5-0.1-0.7-0.1c-0.1,0-0.2,0-0.3,0C98.2,1.5,98.1,1.6,98,1.7L98,1.7z
				 M99.9,15.7c-0.1,0-0.2-0.1-0.4-0.1c-0.3-0.1-0.5-0.3-0.8-0.4c-0.2-0.1-0.5-0.3-0.7-0.4c-0.1-0.1-0.2-0.2-0.3-0.3
				c-0.1-0.1-0.1-0.2-0.2-0.3c-0.1-0.2-0.1-0.4-0.1-0.6c0-0.3,0-0.7,0-1c0-0.2,0.1-0.5,0.2-0.7c0.1-0.3,0.3-0.5,0.5-0.7
				c0.1-0.1,0.2-0.2,0.3-0.3l0.1,0c0.4,0,0.7,0,1.1,0c0.1,0,0.1,0,0.2,0.1c0,0,0,0.1,0,0.1c0.2,0.8,0.4,1.7,0.5,2.6
				c0,0.4,0,0.9,0,1.3C100.2,15.1,100.1,15.3,99.9,15.7L99.9,15.7C99.9,15.7,99.9,15.7,99.9,15.7L99.9,15.7z M100.2,14.9
				C100.2,14.9,100.2,14.9,100.2,14.9C100.2,14.9,100.2,14.9,100.2,14.9z"/>
			<path id="パス_381" d="M117.9,5.6c0,0.7,0,1.3,0,2v0.2c0,0,0.1,0,0.2,0c1.9,0.1,3.7,0.2,5.6,0.3c0.8,0,1.7,0,2.5,0
				c0.4,0,0.8,0,1.2,0h0.6c0.4,0,0.8,0,1.2-0.1c0,0,0.1,0,0.1-0.1c-0.1-0.4-0.2-0.9-0.2-1.3c-0.1-0.3-0.1-0.6-0.2-0.8
				c-0.1,0-0.2,0-0.3,0c0,0,0,0-0.1,0c-0.8,0-1.7,0-2.5,0s-1.7,0-2.5,0c-1.8,0-3.7-0.1-5.5-0.3H117.9L117.9,5.6z M128.5,5.9
				c0,0-0.1,0-0.1,0L128.5,5.9z"/>
			<path id="パス_382" d="M122.2,3.3c-0.3,0.1-0.6,0.3-1,0.4c0.1,0.2,0.1,0.3,0.3,0.4c0.3,0.3,0.7,0.7,1,1.1
				c0.2,0.2,0.3,0.5,0.5,0.7c0.2,0.3,0.3,0.6,0.4,0.9c0.1,0.3,0.3,0.7,0.4,1c-0.4-0.3-0.8-0.4-1.3-0.5c-0.8,0-1.5,0.4-2,1
				c-0.4,0.4-0.8,0.9-1.1,1.5c-0.6,1.1-0.8,2.3-0.7,3.5c0,0.6,0.1,1.2,0.2,1.8c0,0.3,0.1,0.5,0.2,0.8c0,0.1,0.1,0.2,0.1,0.3
				c0.2,0.4,0.4,0.8,0.7,1.2c0.2,0.2,0.5,0.4,0.8,0.6c0.3,0.2,0.6,0.3,0.9,0.4c0.5,0.2,1,0.3,1.4,0.4c0.3,0.1,0.6,0.1,1,0.1
				c0.1,0,0.2,0,0.3,0c0.1,0,0.3,0,0.4,0c0.1,0,0.2,0,0.3-0.1c0,0.4,0,0.8,0,1.2c0,0.3,0,0.6,0,0.9c0,0.3,0,0.5,0,0.8
				c0,0.1-0.1,0.2-0.1,0.2c-0.1,0.2,0,0.5,0,0.7c0.3,0,0.7,0,1,0c0.2,0,0.4,0,0.7,0l0.4,0c0-0.1,0.1-0.2,0.1-0.2c0-0.1,0-0.2,0-0.3
				c0-0.3,0.1-0.6,0.1-1c0-0.5,0-1,0-1.5c0-1.1,0-2.1-0.1-3.2c0-0.5-0.1-1.1-0.2-1.6c-0.1-0.6-0.1-1.1-0.2-1.7c0-1.2,0-2.5-0.2-3.7
				c-0.1-0.6-0.2-1.2-0.4-1.8c-0.2-0.6-0.3-1.1-0.6-1.7c-0.2-0.6-0.6-1.2-0.9-1.8c-0.4-0.5-0.8-1-1.2-1.5C123,3,122.6,3.1,122.2,3.3
				L122.2,3.3z M123.5,16.7c-0.4-0.1-0.9-0.2-1.3-0.4c-0.2-0.1-0.4-0.2-0.6-0.4c-0.1,0-0.1-0.1-0.2-0.2c-0.1-0.1-0.1-0.2-0.2-0.3
				c-0.1-0.4-0.2-0.8-0.3-1.3c-0.1-0.7-0.1-1.5-0.1-2.2c0.1-0.3,0.1-0.5,0.2-0.8c0.2-0.3,0.3-0.6,0.5-0.9c0.2-0.3,0.5-0.5,0.7-0.7
				l0,0c0,0,0,0,0.1,0c0.1,0.1,0.2,0.1,0.3,0.2c0.1,0.1,0.3,0.2,0.4,0.4c0.3,0.4,0.6,0.9,0.8,1.4c0.2,0.6,0.4,1.2,0.5,1.8
				c0,0.4,0,0.8-0.1,1.3c-0.1,0.7-0.2,1.4-0.4,2.1C123.8,16.7,123.7,16.7,123.5,16.7L123.5,16.7z M125,21.6c0,0,0,0.1,0,0.1
				C125,21.7,125,21.6,125,21.6z"/>
			<path id="パス_383" d="M141.3,6.2c-0.4,0.1-0.8,0.1-1.1,0.2l-0.1,0c0,0.2,0,0.4,0,0.6c0.2,0.9,0.4,1.8,0.7,2.7
				c0.3,0.8,0.5,1.6,0.9,2.4c0.3,0.8,0.6,1.5,0.9,2.3c0.2,0.5,0.4,0.9,0.6,1.3c0.1,0.2,0.2,0.4,0.3,0.6c0.1,0.1,0.1,0.2,0.2,0.3
				c0.1,0.1,0.2,0.2,0.3,0.4c0.1,0.1,0.2,0.2,0.4,0.3c0.5,0.3,1.2,0.1,1.5-0.4c0.2-0.5,0.1-1-0.2-1.4c-0.4-0.6-0.7-1.2-0.9-1.8
				c-0.2-0.5-0.4-1-0.6-1.5c-0.2-0.6-0.5-1.2-0.7-1.7s-0.4-1.2-0.6-1.8c-0.2-0.7-0.4-1.5-0.5-2.2c0-0.1-0.1-0.2-0.1-0.3
				C141.8,6.1,141.6,6.1,141.3,6.2L141.3,6.2z"/>
			<path id="パス_384" d="M145.4,6.4c-0.3,0.4-0.5,0.9-0.7,1.3c-0.1,0.2-0.2,0.4-0.3,0.7l0,0.1c-0.8-0.2-1.6-0.3-2.4-0.3
				c-0.6,0-1.3,0.1-1.9,0.2c-0.6,0.1-1.1,0.4-1.6,0.7c-0.5,0.3-0.9,0.7-1.3,1.1c-0.4,0.4-0.7,0.9-1,1.4l-0.1,0.1c0,0,0,0.1-0.1,0.1
				c-0.1,0.2-0.2,0.4-0.2,0.6c-0.1,0.2-0.1,0.5-0.2,0.7c-0.2,1.2-0.2,2.4,0,3.6c0.3,1.1,0.8,2.2,1.6,3c0.4,0.5,0.8,1,1.3,1.5
				c0.3,0.3,0.6,0.5,0.9,0.7c0.4,0.2,0.9,0.2,1.2,0c0.2-0.1,0.3-0.2,0.4-0.4c0.7-0.9,1.3-2,1.7-3.1c0.4-0.9,0.7-1.9,0.9-2.9
				c0.1-0.5,0.2-1,0.4-1.5c0.1-0.5,0.3-1,0.5-1.4c0.2-0.4,0.4-0.8,0.6-1.2c0.3,0.2,0.5,0.5,0.8,0.8c0.2,0.2,0.3,0.5,0.4,0.7
				c0.2,0.5,0.3,1.1,0.4,1.6c0.1,0.5,0.1,1,0.1,1.5c0,0.6,0,1.1,0,1.7c-0.1,0.6-0.2,1.2-0.4,1.8c-0.1,0.2-0.1,0.4,0,0.6
				c0,0,0.1,0,0.1,0c0.3,0.1,0.6,0.1,0.8,0.1s0.6,0.1,0.9,0.2l0.1,0c0.1-0.1,0.1-0.2,0.2-0.3c0.3-0.9,0.5-1.9,0.6-2.9
				c0-0.5,0-1.1,0-1.6c0-0.6-0.1-1.1-0.2-1.7c-0.1-0.5-0.2-0.9-0.3-1.4c-0.1-0.3-0.2-0.6-0.4-0.9c-0.2-0.3-0.4-0.7-0.6-0.9
				c-0.3-0.4-0.6-0.7-1-1c-0.2-0.1-0.3-0.3-0.5-0.4c0,0,0,0,0,0c0.1-0.2,0.2-0.4,0.3-0.6c0.2-0.4,0.4-0.9,0.7-1.3
				c0.1-0.1,0.1-0.3,0.1-0.5c-0.1-0.1-0.2-0.1-0.3-0.2c-0.2-0.2-0.3-0.3-0.5-0.5c-0.1-0.1-0.2-0.3-0.2-0.4c0,0-0.1,0-0.1,0
				C145.9,5.8,145.6,6,145.4,6.4L145.4,6.4z M139.1,18.5c-0.4-0.5-0.7-1-1-1.6c-0.1-0.3-0.2-0.6-0.2-0.9c-0.1-0.7-0.1-1.4,0-2.1
				c0.1-0.4,0.2-0.9,0.3-1.3l0-0.1c0-0.1,0.1-0.2,0.1-0.3c0.1-0.2,0.2-0.4,0.4-0.5c0.2-0.3,0.4-0.5,0.7-0.8c0.2-0.2,0.5-0.3,0.7-0.4
				c0.3-0.1,0.6-0.2,0.8-0.2c0.7-0.1,1.4-0.1,2.1,0c0.1,0,0.2,0,0.3,0.1c-0.4,0.7-0.7,1.4-1,2.2c-0.3,0.9-0.5,1.8-0.7,2.8
				c-0.2,0.9-0.5,1.8-0.9,2.6c-0.2,0.5-0.5,1-0.8,1.5C139.7,19.3,139.4,18.9,139.1,18.5L139.1,18.5z M140.9,17.9
				C140.9,17.9,140.9,17.9,140.9,17.9C140.9,17.9,140.9,17.9,140.9,17.9z"/>
		</g>
	</g>
	<g id="グループ_680" transform="translate(-461.835 1256.069)">
		<g id="グループ_679" transform="translate(685.658 362.994)">
			<path id="パス_644" d="M16.6,7.6c-0.4-1.8-2-4.5-3.8-5.2C9.4,1.1,8,1.1,5.5,2.3c-3.1,1.6-5,4.9-4.6,8.4C1.3,13,2.7,15,4.7,16.1
				c3.2,1.9,5.6,0.9,7.9-0.3C14.9,14.5,17.2,10.1,16.6,7.6z M10.9,11.4c-1.1,0.5-2,0.6-3.7-1.3C6,8.7,6.7,7.8,7.3,6.9
				c0.6-1,1.9-1.4,3-1c1.1,0.2,1.9,1,2.2,2C12.9,9.3,12.2,10.8,10.9,11.4L10.9,11.4z"/>
		</g>
		<path id="パス_645" d="M670.4,375.3c1.9-4,1.7-8.7-0.5-12.6c-1.7-2.7-4-5-6.7-6.6c-0.8,0.6-1.6,1.2-2.4,1.8
			c-2.4,1.6-6.7,3.2-14,5.3c-3.6,1.1-7.2,1.7-11,1.9c-0.3,0-0.7,0-1-0.1c-0.3,1.8-0.2,3.6-0.3,5c-0.2,2.1-0.3,3.1-1,4.2
			c-0.6,1.1-1.7,1.8-2.8,2.2c1.1,2.2,4.3,2.9,6,2.4s3.6-2.3,4.3-6.2c3.2,1.4,6.6,2.5,10,3.4c5.3,1.4,8.3,2,10.3,2.1
			c-1.5,4.6-1,6.1,0.7,7.6c1.8,1.6,4.6,1.3,6.3,0.5c-1.2-0.9-1.7-2.4-1.3-3.9C667.3,379.8,668.6,379.1,670.4,375.3z"/>
		<path id="パス_646" d="M643.9,375.7c-0.6-0.2-1.3,0.2-1.5,0.8c-0.2,0.6,0.2,1.3,0.8,1.5c0.6,0.2,1.3-0.2,1.5-0.8
			C644.9,376.6,644.5,375.9,643.9,375.7C643.9,375.7,643.9,375.7,643.9,375.7z"/>
		<path id="パス_647" d="M657.1,379.4c-0.6-0.2-1.3,0.2-1.5,0.8c-0.2,0.6,0.2,1.3,0.8,1.5c0.6,0.2,1.3-0.2,1.5-0.8
			C658.1,380.2,657.8,379.6,657.1,379.4C657.1,379.4,657.1,379.4,657.1,379.4z"/>
		<path id="パス_648" d="M651,381.5c-0.4-0.3-0.8-0.5-1.2-0.6c-0.3-0.1-0.5-0.1-0.8-0.1c-0.6,0-1.2,0.3-1.6,0.8
			c-0.5,0.7-0.5,1.6,0.1,2.3l0,0l0,0c-0.2,0-0.3,0.1-0.4,0.2c-0.4,0.3-0.6,0.7-0.7,1.2c0,0.5,0.1,1,0.4,1.3c0.4,0.4,0.9,0.6,1.4,0.8
			c0.4,0.1,0.8,0.2,1.2,0.2v0v0l0.2-0.8c0,0,0,0,0,0c-0.7,0-1.4-0.2-2-0.6c-0.2-0.2-0.3-0.4-0.3-0.7c0-0.3,0.1-0.5,0.3-0.7l0.1-0.1
			c0.2-0.2,0.4-0.4,1.2-0.1c0.1,0.1,0.3,0.1,0.4,0.1l0.2,0.1c0,0,0,0,0,0c0,0,0-0.1,0-0.1l0-0.1c0,0,0-0.1,0-0.1l0.1-0.4
			c0,0,0,0,0,0l-0.1,0c-0.4-0.1-0.8-0.3-1.2-0.6c-0.4-0.3-0.4-0.9-0.1-1.2c0,0,0,0,0,0c0.2-0.3,0.6-0.4,0.9-0.3
			c0.5,0.1,0.9,0.2,1.3,0.5c0,0,0.2,0.1,0.3,0.1l0.2-0.4C650.9,381.9,650.9,381.6,651,381.5z"/>
		<path id="パス_649" d="M651,381.5L651,381.5c-0.6-0.5-1.4-0.8-2.1-0.8c-0.7,0-1.3,0.3-1.7,0.8c-0.5,0.7-0.5,1.7,0.1,2.3
			c-0.1,0.1-0.3,0.1-0.4,0.2c-0.4,0.3-0.7,0.7-0.7,1.2c0,0.5,0.1,1,0.4,1.4c0.4,0.4,0.9,0.7,1.4,0.8c0.1,0,0.2,0.1,0.3,0.1
			c0.3,0.1,0.6,0.1,0.9,0.1c0,0,0,0,0.1,0c0,0,0,0,0-0.1l0.2-0.8v0c0,0,0-0.1-0.1-0.1c-0.7,0-1.4-0.2-2-0.6
			c-0.2-0.2-0.3-0.4-0.2-0.6c0-0.3,0.1-0.5,0.3-0.7c0,0,0.1,0,0.1-0.1c0.2-0.2,0.4-0.4,1.1-0.1c0.1,0.1,0.3,0.1,0.4,0.1l0.2,0.1
			c0,0,0.1,0,0.1,0c0,0,0.1-0.1,0.1-0.1l0-0.1c0,0,0-0.1,0-0.1l0.1-0.4c0,0,0-0.1-0.1-0.1l-0.1,0c-0.4-0.1-0.8-0.3-1.2-0.6
			c-0.3-0.3-0.4-0.8-0.1-1.1c0,0,0,0,0,0c0.2-0.2,0.5-0.4,0.9-0.3c0.4,0.1,0.9,0.2,1.3,0.5c0.3,0.2,0.4,0.1,0.4,0.1l0,0l0.2-0.4l0,0
			C650.9,381.9,651,381.7,651,381.5L651,381.5z M650.4,382.3c-0.4-0.2-0.8-0.4-1.3-0.5c-0.3,0-0.7,0.1-0.9,0.3
			c-0.3,0.4-0.3,0.9,0.1,1.2c0,0,0,0,0,0c0.4,0.3,0.8,0.5,1.2,0.6l0.1,0c0,0,0,0,0,0l-0.1,0.4c0,0,0,0.1,0,0.1l0,0.1
			c0,0,0,0.1,0,0.1c0,0,0,0,0,0l-0.2-0.1c-0.1,0-0.2-0.1-0.4-0.1c-0.7-0.2-1,0-1.2,0.1l-0.1,0.1c-0.2,0.2-0.3,0.4-0.3,0.7
			c0,0.3,0.1,0.5,0.3,0.7c0.6,0.5,1.3,0.7,2,0.6c0,0,0,0,0,0l-0.2,0.8v0v0c-0.4,0-0.8-0.1-1.2-0.2c-0.5-0.2-1-0.4-1.4-0.8
			c-0.3-0.4-0.5-0.8-0.4-1.3c0-0.5,0.3-0.9,0.7-1.2c0.1-0.1,0.3-0.2,0.4-0.2l0,0l0,0c-0.6-0.6-0.6-1.6-0.1-2.3
			c0.4-0.5,1-0.8,1.6-0.8c0.3,0,0.6,0,0.8,0.1c0.4,0.1,0.9,0.4,1.2,0.6c0,0.1-0.1,0.4-0.1,0.4l-0.2,0.4
			C650.6,382.4,650.4,382.3,650.4,382.3L650.4,382.3z"/>
		<path id="パス_650" d="M684.7,364c-0.1-0.2-0.3-0.4-0.5-0.6c-1.2-0.7-2.7-1.8-4-1.5c0,0-0.1-0.1-0.1-0.1c0,0,0,0-0.1-0.1
			c-0.5-0.2-1-0.4-1.6-0.5c-0.6-0.2-1.3-0.3-2-0.2v0.1c0,0.1,0,0.1,0.1,0.1c0.1,0,0.2,0.1,0.4,0.1c0.4,0.1,0.8,0.2,1.1,0.4
			c0.4,0,0.7,0.1,1,0.3c0.2,0.1,0.3,0.2,0.5,0.3c-0.1,0.1-0.2,0.1-0.3,0.2c-0.8,0.8-0.8,2,0,2.8c0.2,0.2,0.3,0.3,0.5,0.4
			c1.6,0.5,2-1.4,1.4-2.5c0,0-0.1-0.1-0.1-0.1c0.3-0.1,0.6-0.1,0.9,0.1c0.6,0.2,1.2,0.4,1.7,0.6c0.3,0.2,0.6,0.4,0.8,0.6l0,0
			c0.1,0.1,0.2,0,0.3,0C684.9,364.2,684.8,364.1,684.7,364z M680.7,364.1L680.7,364.1c0,0.1,0,0.1,0,0.2c0,0.1,0,0.1-0.1,0.1
			c0,0.1-0.1,0.2-0.2,0.2c-0.2,0.1-0.5,0.1-0.6-0.1c0,0,0,0,0,0c0-0.1-0.1-0.1-0.1-0.2c0-0.1-0.1-0.1-0.1-0.2
			c-0.1-0.4,0.2-0.9,0.6-0.8c0.3,0.1,0.4,0.3,0.4,0.6v0C680.7,363.9,680.7,364,680.7,364.1z"/>
		<path id="パス_651" d="M655.6,386.9c0-0.3-0.3-0.5-0.6-0.5c-0.1,0-0.2,0-0.3,0.1c-0.1,0-0.2,0-0.2,0c-0.1-0.1-0.2-0.1-0.3-0.1
			c-0.3,0-0.6,0.2-0.6,0.5c0,0,0,0.1,0,0.1c0.3,0.5,1,0.7,1.5,0.5c0.2-0.1,0.3-0.3,0.4-0.4C655.6,387,655.6,387,655.6,386.9z"/>
		<path id="パス_652" d="M660,341.9c-3.2-1.9-6.7-2.2-9.2-2.3c-2.8-0.2-4.4-0.7-5.4-2.1c-0.2-0.3-0.3-0.5-0.5-0.7
			c-0.1-0.1-0.1-0.2-0.1-0.2c-0.1-0.1-0.2-0.3-0.2-0.4c-0.1-0.1-0.1-0.2-0.1-0.3c-0.1-0.1-0.1-0.2-0.2-0.3c-0.1-0.2-0.1-0.3-0.2-0.4
			c0-0.1-0.1-0.1-0.1-0.2c0-0.1-0.1-0.2-0.1-0.2c0,0-0.1-0.1-0.1-0.1c0-0.1-0.1-0.1-0.1-0.1c0,0-0.1-0.1-0.1-0.1
			c0,0-0.1-0.1-0.1-0.1c0,0-0.1,0-0.1,0c-0.1,0-0.1,0-0.2,0c-0.7,0.2,0.3,2.4-0.5,4.5c-1.5,3.9-7.7,5.3-10.4,12.2
			c-2.6,6.6,0.1,10.7,2.2,13.5c0,0.1,0.1,0.1,0.2,0.1c0,0,0.1,0,0.1,0c0.1,0,0.1,0,0.2,0.1c0,0,0.1,0,0.1,0l0,0
			c0.3,0,0.6,0.1,0.9,0.1c3.7-0.2,7.3-0.8,10.8-1.9c6.6-1.9,11.3-3.6,13.8-5.2c2.4-1.6,5.7-4.2,5.6-6.1
			C665.9,345.8,662.4,343.3,660,341.9z"/>
	</g>
</g>
</svg>
