<?xml version="1.0" encoding="utf-8"?>
<!-- Generator: Adobe Illustrator 24.2.0, SVG Export Plug-In . SVG Version: 6.00 Build 0)  -->
<svg version="1.1" id="レイヤー_1" xmlns="http://www.w3.org/2000/svg" xmlns:xlink="http://www.w3.org/1999/xlink" x="0px"
	 y="0px" viewBox="0 0 312 82" style="enable-background:new 0 0 312 82;" xml:space="preserve">
<g id="グループ_751" transform="translate(-498.496 -4526.495)">
	<path id="パス_673" d="M549.6,4603.5c0,1-0.4,2-1.1,2.7c-0.7,0.7-1.7,1.1-2.7,1.1c-1,0-2-0.4-2.7-1.1c-0.7-0.7-1.1-1.7-1.1-2.7
		v-4.6c0-0.2,0.1-0.4,0.2-0.5c0.1-0.1,0.3-0.2,0.5-0.2c0.2,0,0.4,0.1,0.5,0.2c0.1,0.1,0.2,0.3,0.2,0.5v4.6c0,0.6,0.2,1.2,0.7,1.6
		c0.4,0.4,1,0.7,1.6,0.7c0.6,0,1.2-0.2,1.6-0.7c0.4-0.4,0.7-1,0.7-1.6v-4.6c0-0.2,0.1-0.4,0.2-0.5c0.1-0.1,0.3-0.2,0.5-0.2
		c0.2,0,0.4,0.1,0.5,0.2c0.1,0.1,0.2,0.3,0.2,0.5V4603.5z M554.9,4607.1c-0.1,0.1-0.3,0.2-0.5,0.2c-0.2,0-0.4-0.1-0.5-0.2
		c-0.1-0.1-0.2-0.3-0.2-0.5v-7.7c0-0.2,0.1-0.4,0.2-0.5c0.1-0.1,0.3-0.2,0.5-0.2h4.3c0.2,0,0.4,0.1,0.5,0.2c0.1,0.1,0.2,0.3,0.2,0.5
		c0,0.2-0.1,0.4-0.2,0.5c-0.1,0.1-0.3,0.2-0.5,0.2h-3.5v2.4h3c0.2,0,0.4,0.1,0.5,0.2c0.1,0.1,0.2,0.3,0.2,0.5c0,0.2-0.1,0.4-0.2,0.5
		c-0.1,0.1-0.3,0.2-0.5,0.2h-3v3.1C555.1,4606.7,555.1,4606.9,554.9,4607.1L554.9,4607.1z M570.1,4603.5c0,1-0.4,2-1.1,2.7
		c-0.7,0.7-1.7,1.1-2.7,1.1c-1,0-2-0.4-2.7-1.1c-0.7-0.7-1.1-1.7-1.1-2.7v-4.6c0-0.2,0.1-0.4,0.2-0.5c0.1-0.1,0.3-0.2,0.5-0.2
		c0.2,0,0.4,0.1,0.5,0.2c0.1,0.1,0.2,0.3,0.2,0.5v4.6c0,0.6,0.2,1.2,0.7,1.6c0.4,0.4,1,0.7,1.6,0.7c0.6,0,1.2-0.2,1.6-0.7
		c0.4-0.4,0.7-1,0.7-1.6v-4.6c0-0.2,0.1-0.4,0.2-0.5c0.1-0.1,0.3-0.2,0.5-0.2c0.2,0,0.4,0.1,0.5,0.2c0.1,0.1,0.2,0.3,0.2,0.5
		L570.1,4603.5z M575.4,4607.1c-0.1,0.1-0.3,0.2-0.5,0.2c-0.2,0-0.4-0.1-0.5-0.2c-0.1-0.1-0.2-0.3-0.2-0.5v-7.7
		c0-0.2,0.1-0.4,0.2-0.5c0.1-0.1,0.3-0.2,0.5-0.2h4.3c0.2,0,0.4,0.1,0.5,0.2c0.1,0.1,0.2,0.3,0.2,0.5c0,0.2-0.1,0.4-0.2,0.5
		c-0.1,0.1-0.3,0.2-0.5,0.2h-3.5v2.4h3c0.2,0,0.4,0.1,0.5,0.2c0.1,0.1,0.2,0.3,0.2,0.5c0,0.2-0.1,0.4-0.2,0.5
		c-0.1,0.1-0.3,0.2-0.5,0.2h-3v3.1C575.7,4606.7,575.6,4606.9,575.4,4607.1z M590.6,4603.5c0,1-0.4,2-1.1,2.7
		c-0.7,0.7-1.7,1.1-2.7,1.1c-1,0-2-0.4-2.7-1.1c-0.7-0.7-1.1-1.7-1.1-2.7v-4.6c0-0.2,0.1-0.4,0.2-0.5c0.1-0.1,0.3-0.2,0.5-0.2
		c0.2,0,0.4,0.1,0.5,0.2c0.1,0.1,0.2,0.3,0.2,0.5v4.6c0,0.6,0.2,1.2,0.7,1.6c0.4,0.4,1,0.7,1.6,0.7c0.6,0,1.2-0.2,1.6-0.7
		c0.4-0.4,0.7-1,0.7-1.6v-4.6c0-0.2,0.1-0.4,0.2-0.5c0.1-0.1,0.3-0.2,0.5-0.2c0.2,0,0.4,0.1,0.5,0.2c0.1,0.1,0.2,0.3,0.2,0.5V4603.5
		z M603.6,4604L603.6,4604c-0.3,0-0.5-0.1-0.6-0.3l-1.9-2.6v5.5c0,0.2-0.1,0.4-0.2,0.5c-0.1,0.1-0.3,0.2-0.5,0.2
		c-0.2,0-0.4-0.1-0.5-0.2c-0.1-0.1-0.2-0.3-0.2-0.5v-7.7c0-0.2,0.1-0.4,0.2-0.5c0.1-0.1,0.3-0.2,0.5-0.2h0c0.2,0,0.4,0.1,0.6,0.3
		l2.6,3.6l2.6-3.6c0.1-0.2,0.4-0.3,0.6-0.3h0c0.2,0,0.4,0.1,0.5,0.2c0.1,0.1,0.2,0.3,0.2,0.5v7.7c0,0.2-0.1,0.4-0.2,0.5
		c-0.1,0.1-0.3,0.2-0.5,0.2c-0.2,0-0.4-0.1-0.5-0.2c-0.1-0.1-0.2-0.3-0.2-0.5v-5.5l-1.9,2.6C604.1,4603.9,603.8,4604,603.6,4604z
		 M612.6,4605.9c-0.8-0.9-1.3-2.1-1.3-3.3c0-1.2,0.4-2.4,1.3-3.3c0.8-0.9,2-1.4,3.2-1.4c1.2,0,2.4,0.5,3.2,1.4
		c0.8,0.9,1.3,2.1,1.3,3.3c0,1.2-0.5,2.4-1.3,3.3c-0.4,0.4-0.9,0.8-1.4,1c-0.5,0.2-1.1,0.4-1.7,0.4
		C614.6,4607.3,613.4,4606.8,612.6,4605.9z M612.8,4602.6c0,0.8,0.3,1.6,0.9,2.3c0.5,0.6,1.3,0.9,2.1,0.9c0.8,0,1.6-0.3,2.1-1
		c0.6-0.6,0.9-1.4,0.9-2.2c0-0.8-0.3-1.6-0.9-2.2c-0.5-0.6-1.3-1-2.1-1c-0.8,0-1.6,0.3-2.1,0.9
		C613.1,4600.9,612.8,4601.7,612.8,4602.6L612.8,4602.6z M627.7,4604L627.7,4604c-0.3,0-0.5-0.1-0.6-0.3l-1.9-2.6v5.5
		c0,0.2-0.1,0.4-0.2,0.5c-0.1,0.1-0.3,0.2-0.5,0.2c-0.2,0-0.4-0.1-0.5-0.2c-0.1-0.1-0.2-0.3-0.2-0.5v-7.7c0-0.2,0.1-0.4,0.2-0.5
		c0.1-0.1,0.3-0.2,0.5-0.2h0c0.2,0,0.4,0.1,0.6,0.3l2.6,3.6l2.6-3.6c0.1-0.2,0.4-0.3,0.6-0.3h0c0.2,0,0.4,0.1,0.5,0.2
		c0.1,0.1,0.2,0.3,0.2,0.5v7.7c0,0.2-0.1,0.4-0.2,0.5c-0.1,0.1-0.3,0.2-0.5,0.2c-0.2,0-0.4-0.1-0.5-0.2c-0.1-0.1-0.2-0.3-0.2-0.5
		v-5.5l-1.9,2.6C628.2,4603.9,627.9,4604,627.7,4604L627.7,4604z M639.7,4604L639.7,4604c-0.3,0-0.5-0.1-0.6-0.3l-1.9-2.6v5.5
		c0,0.2-0.1,0.4-0.2,0.5c-0.1,0.1-0.3,0.2-0.5,0.2c-0.2,0-0.4-0.1-0.5-0.2c-0.1-0.1-0.2-0.3-0.2-0.5v-7.7c0-0.2,0.1-0.4,0.2-0.5
		c0.1-0.1,0.3-0.2,0.5-0.2h0c0.2,0,0.4,0.1,0.6,0.3l2.6,3.6l2.6-3.6c0.1-0.2,0.4-0.3,0.6-0.3h0c0.2,0,0.4,0.1,0.5,0.2
		c0.1,0.1,0.2,0.3,0.2,0.5v7.7c0,0.2-0.1,0.4-0.2,0.5c-0.1,0.1-0.3,0.2-0.5,0.2c-0.2,0-0.4-0.1-0.5-0.2c-0.1-0.1-0.2-0.3-0.2-0.5
		v-5.5l-1.9,2.6C640.2,4603.9,640,4604,639.7,4604L639.7,4604z M653,4598.5c0.1-0.2,0.3-0.3,0.5-0.3c0.2,0,0.4,0,0.5,0.1
		c0.2,0.1,0.3,0.3,0.3,0.5c0,0.2,0,0.4-0.1,0.5l-2.7,3.7v3.5c0,0.2-0.1,0.4-0.2,0.5c-0.1,0.1-0.3,0.2-0.5,0.2
		c-0.2,0-0.4-0.1-0.5-0.2c-0.1-0.1-0.2-0.3-0.2-0.5v-3.5l-2.6-3.7c-0.1-0.1-0.2-0.3-0.1-0.5c0-0.2,0.1-0.4,0.3-0.5
		c0.2-0.1,0.3-0.2,0.5-0.1c0.2,0,0.4,0.1,0.5,0.3l2.2,3L653,4598.5z M656.1,4601.5c0-0.2,0.1-0.3,0.3-0.4c0.5-0.1,0.9-0.6,0.9-1.2
		c-0.2,0-0.4-0.2-0.5-0.3c-0.1-0.2-0.2-0.4-0.2-0.6v-0.1c0-0.2,0.1-0.5,0.2-0.6c0.2-0.2,0.4-0.3,0.7-0.2c0.3,0,0.5,0.1,0.7,0.3
		c0.2,0.2,0.3,0.5,0.3,0.8v0.1c0.1,0.7-0.2,1.3-0.6,1.9c-0.3,0.4-0.8,0.6-1.3,0.6C656.2,4601.8,656.1,4601.7,656.1,4601.5z
		 M666.1,4604.5c0-0.7-0.8-1.1-2.3-1.4h0c-0.6-0.1-1.2-0.3-1.8-0.5c-0.4-0.2-0.8-0.5-1.1-0.9c-0.2-0.3-0.3-0.7-0.3-1.1
		c0-0.7,0.4-1.4,1-1.9c0.7-0.5,1.5-0.7,2.3-0.7c0.4,0,0.8,0.1,1.2,0.2c0.3,0.1,0.6,0.2,0.9,0.4c0.2,0.1,0.5,0.3,0.8,0.5
		c0.1,0.1,0.2,0.3,0.3,0.4c0,0.2,0,0.4-0.1,0.5c-0.1,0.1-0.2,0.3-0.4,0.3c-0.2,0-0.4,0-0.5-0.1c-0.3-0.2-0.7-0.4-1.1-0.6
		c-0.3-0.1-0.7-0.2-1-0.2c-0.5,0-1,0.1-1.4,0.4c-0.3,0.2-0.5,0.5-0.5,0.9c0,0.1,0,0.3,0.1,0.4c0.2,0.4,0.9,0.7,2,0.9h0
		c0.6,0.1,1.2,0.3,1.8,0.5c0.9,0.3,1.6,1.2,1.6,2.2c0,0.8-0.4,1.5-1.1,2c-0.7,0.5-1.6,0.8-2.5,0.8c-1.2,0-2.4-0.5-3.3-1.3
		c-0.1-0.1-0.2-0.3-0.2-0.5c0-0.2,0-0.4,0.1-0.5c0.1-0.1,0.3-0.2,0.5-0.2c0.2,0,0.4,0,0.5,0.1c0.7,0.6,1.6,1,2.5,1
		c0.6,0,1.1-0.1,1.6-0.4C665.8,4605.3,666,4604.9,666.1,4604.5L666.1,4604.5z M680,4603.1c0.6,0.4,0.9,1.1,0.9,1.9
		c0,0.3,0,0.5,0.1,0.8c0.2,0.1,0.4,0.2,0.5,0.4c0.1,0.2,0,0.5-0.1,0.6c-0.1,0.2-0.4,0.3-0.6,0.3h0c-0.4,0-0.8-0.2-0.9-0.6
		c-0.2-0.5-0.3-1-0.3-1.6c0-0.4-0.2-0.7-0.5-0.9c-0.2-0.1-0.5-0.3-0.7-0.3h-1.5v2.8c0,0.2-0.1,0.4-0.2,0.5c-0.1,0.1-0.3,0.2-0.5,0.2
		c-0.2,0-0.4-0.1-0.5-0.2c-0.1-0.1-0.2-0.3-0.2-0.5v-7.7c0-0.2,0.1-0.4,0.2-0.5c0.1-0.1,0.3-0.2,0.5-0.2h2.3c0.7,0,1.5,0.3,2,0.8
		c0.5,0.5,0.8,1.3,0.8,2C681,4601.8,680.6,4602.6,680,4603.1L680,4603.1z M678.2,4602.3c0.4,0,0.7-0.1,0.9-0.4
		c0.3-0.2,0.4-0.6,0.4-0.9c0-0.4-0.1-0.7-0.4-0.9c-0.2-0.3-0.6-0.4-0.9-0.4h-1.6v2.7L678.2,4602.3z M685.3,4607.3
		c-0.2,0-0.4-0.1-0.5-0.2c-0.1-0.1-0.2-0.3-0.2-0.5v-7.7c0-0.2,0.1-0.4,0.2-0.5c0.1-0.1,0.3-0.2,0.5-0.2h4.3c0.2,0,0.4,0.1,0.5,0.2
		c0.1,0.1,0.2,0.3,0.2,0.5c0,0.2-0.1,0.4-0.2,0.5c-0.1,0.1-0.3,0.2-0.5,0.2H686v2.4h3c0.2,0,0.4,0.1,0.5,0.2
		c0.1,0.1,0.2,0.3,0.2,0.5c0,0.2-0.1,0.4-0.2,0.5c-0.1,0.1-0.3,0.2-0.5,0.2h-3v2.4h3.5c0.2,0,0.4,0.1,0.5,0.2
		c0.1,0.1,0.2,0.3,0.2,0.5c0,0.2-0.1,0.4-0.2,0.5c-0.1,0.1-0.3,0.2-0.5,0.2L685.3,4607.3L685.3,4607.3L685.3,4607.3z M695.3,4600.3
		c-0.6,0.6-1,1.4-0.9,2.3c0,0.9,0.3,1.7,1,2.2c0.6,0.6,1.4,0.9,2.2,0.9c0.8,0,1.6-0.2,2.2-0.7c0.2-0.1,0.3-0.2,0.5-0.1
		c0.2,0,0.4,0.1,0.5,0.3c0.1,0.2,0.2,0.4,0.1,0.6c0,0.2-0.1,0.4-0.3,0.5c-0.9,0.7-1.9,1-3,1c-1.3,0-2.5-0.5-3.4-1.4
		c-0.9-0.9-1.4-2.1-1.4-3.3c0-1.2,0.5-2.4,1.4-3.3c0.9-0.9,2.1-1.4,3.4-1.4c1.1,0,2.1,0.3,3,1c0.2,0.1,0.2,0.3,0.3,0.5
		c0,0.2,0,0.4-0.1,0.5c-0.1,0.2-0.3,0.3-0.5,0.3c-0.2,0-0.4,0-0.5-0.1c-0.6-0.5-1.4-0.7-2.2-0.7
		C696.7,4599.4,695.9,4599.7,695.3,4600.3z M705.2,4605.9c-0.8-0.9-1.3-2.1-1.3-3.3c0-1.2,0.4-2.4,1.3-3.3c0.8-0.9,1.9-1.4,3.1-1.4
		c1.2,0,2.4,0.5,3.2,1.4c0.8,0.9,1.3,2.1,1.3,3.3c0,1.2-0.5,2.4-1.3,3.3c-0.4,0.4-0.9,0.8-1.4,1c-0.5,0.2-1.1,0.4-1.7,0.4
		C707.2,4607.3,706.1,4606.8,705.2,4605.9L705.2,4605.9z M705.4,4602.6c0,0.8,0.3,1.6,0.9,2.3c0.5,0.6,1.3,0.9,2.1,0.9
		c0.8,0,1.6-0.3,2.1-1c0.6-0.6,0.9-1.4,0.9-2.2c0-0.8-0.3-1.6-0.9-2.2c-0.5-0.6-1.3-1-2.1-1c-0.8,0-1.6,0.3-2.1,0.9
		C705.7,4600.9,705.4,4601.7,705.4,4602.6L705.4,4602.6z M720.4,4604L720.4,4604c-0.3,0-0.5-0.1-0.6-0.3l-1.9-2.6v5.5
		c0,0.2-0.1,0.4-0.2,0.5c-0.1,0.1-0.3,0.2-0.5,0.2c-0.2,0-0.4-0.1-0.5-0.2c-0.1-0.1-0.2-0.3-0.2-0.5v-7.7c0-0.2,0.1-0.4,0.2-0.5
		c0.1-0.1,0.3-0.2,0.5-0.2h0c0.2,0,0.4,0.1,0.6,0.3l2.6,3.6l2.6-3.6c0.1-0.2,0.4-0.3,0.6-0.3h0c0.2,0,0.4,0.1,0.5,0.2
		c0.1,0.1,0.2,0.3,0.2,0.5v7.7c0,0.2-0.1,0.4-0.2,0.5c-0.1,0.1-0.3,0.2-0.5,0.2c-0.2,0-0.4-0.1-0.5-0.2c-0.1-0.1-0.2-0.3-0.2-0.5
		v-5.5l-1.9,2.6C720.8,4603.9,720.6,4604,720.4,4604z M732.4,4604L732.4,4604c-0.3,0-0.5-0.1-0.6-0.3l-1.9-2.6v5.5
		c0,0.2-0.1,0.4-0.2,0.5c-0.1,0.1-0.3,0.2-0.5,0.2c-0.2,0-0.4-0.1-0.5-0.2c-0.1-0.1-0.2-0.3-0.2-0.5v-7.7c0-0.2,0.1-0.4,0.2-0.5
		c0.1-0.1,0.3-0.2,0.5-0.2h0c0.2,0,0.4,0.1,0.6,0.3l2.6,3.6l2.6-3.6c0.1-0.2,0.4-0.3,0.6-0.3h0c0.2,0,0.4,0.1,0.5,0.2
		c0.1,0.1,0.2,0.3,0.2,0.5v7.7c0,0.2-0.1,0.4-0.2,0.5c-0.1,0.1-0.3,0.2-0.5,0.2c-0.2,0-0.4-0.1-0.5-0.2c-0.1-0.1-0.2-0.3-0.2-0.5
		v-5.5l-1.9,2.6C732.8,4603.9,732.6,4604,732.4,4604L732.4,4604z M741.2,4607.3c-0.2,0-0.4-0.1-0.5-0.2c-0.1-0.1-0.2-0.3-0.2-0.5
		v-7.7c0-0.2,0.1-0.4,0.2-0.5c0.1-0.1,0.3-0.2,0.5-0.2h4.3c0.2,0,0.4,0.1,0.5,0.2c0.1,0.1,0.2,0.3,0.2,0.5c0,0.2-0.1,0.4-0.2,0.5
		c-0.1,0.1-0.3,0.2-0.5,0.2h-3.5v2.4h3c0.2,0,0.4,0.1,0.5,0.2c0.1,0.1,0.2,0.3,0.2,0.5c0,0.2-0.1,0.4-0.2,0.5
		c-0.1,0.1-0.3,0.2-0.5,0.2h-3v2.4h3.5c0.2,0,0.4,0.1,0.5,0.2c0.1,0.1,0.2,0.3,0.2,0.5c0,0.2-0.1,0.4-0.2,0.5
		c-0.1,0.1-0.3,0.2-0.5,0.2L741.2,4607.3L741.2,4607.3L741.2,4607.3z M750.7,4601.1v5.4c0,0.2-0.1,0.4-0.2,0.5
		c-0.1,0.1-0.3,0.2-0.5,0.2c-0.2,0-0.4-0.1-0.5-0.2c-0.1-0.1-0.2-0.3-0.2-0.5v-7.6c0-0.2,0.1-0.4,0.3-0.6c0.2-0.1,0.4-0.2,0.6-0.1
		c0.2,0,0.3,0.1,0.5,0.3l4.2,5.8v-5.4c0-0.2,0.1-0.4,0.2-0.5c0.1-0.1,0.3-0.2,0.5-0.2c0.2,0,0.4,0.1,0.5,0.2
		c0.1,0.1,0.2,0.3,0.2,0.5v7.6c0,0.2-0.1,0.4-0.2,0.5c-0.1,0.1-0.3,0.2-0.5,0.2c-0.2,0-0.4-0.1-0.5-0.3c0,0,0,0-0.1-0.1
		L750.7,4601.1z M760.3,4606.5v-7.7c0-0.2,0.1-0.4,0.2-0.5c0.1-0.1,0.3-0.2,0.5-0.2h1.5c1.2,0,2.4,0.5,3.2,1.3
		c0.9,0.8,1.3,2,1.3,3.2c0,1.2-0.5,2.4-1.3,3.2c-0.8,0.9-2,1.4-3.2,1.3H761c-0.2,0-0.4-0.1-0.5-0.2
		C760.4,4606.9,760.3,4606.7,760.3,4606.5L760.3,4606.5z M761.7,4599.6v6.2h0.8c0.8,0,1.6-0.3,2.2-0.9c0.6-0.6,0.9-1.4,0.9-2.2
		c0-0.8-0.3-1.6-0.9-2.2c-0.6-0.6-1.4-0.9-2.2-0.9L761.7,4599.6z"/>
	<g id="グループ_294" transform="translate(498.496 4526.495)">
		<path id="パス_371" d="M25.8,15.4c-0.4,0-0.9,0-1.3,0c-1.1,0-2.2,0-3.3,0.1c-1.2,0.1-2.5,0.2-3.7,0.4c-1,0.1-2,0.3-3,0.5
			c-2,0.2-4,0.3-6,0.3c-2,0-3.9-0.2-5.8-0.4c-0.4-0.1-0.9-0.1-1.3-0.2C1.2,16,1,16,0.8,16C0.9,17.1,1,18.1,1,19.2c0,0.5,0,1,0.1,1.4
			c2.8,0.4,5.7,0.7,8.6,0.6c1.5,0,2.9-0.1,4.4-0.3c0.9-0.1,1.8-0.2,2.7-0.4c0.6-0.1,1.2-0.2,1.8-0.3c1.4-0.2,2.8-0.3,4.3-0.3
			c0,0,0.1,0,0.1,0c-1.6,3.5-3.2,7-4.9,10.4c-0.9,1.8-1.7,3.7-2.3,5.6c-0.6,1.7-1,3.5-1.7,5.2c0,0.1-0.1,0.2-0.1,0.2
			c-0.3,0.5-0.4,1.2-0.2,1.8c0.3,1.2,1.6,1.9,2.8,1.6c0.6-0.2,1.1-0.5,1.4-1c0.7-1.5,1.3-3.1,1.7-4.7c0.4-1.3,0.8-2.6,1.4-3.9
			c1.1-2.4,2.2-4.7,3.3-7c0.7-1.4,1.3-2.8,1.9-4.2c0.6-1.3,1.2-2.7,1.8-4c0.4-0.7,0.6-1.4,0.7-2.2c0-0.8-0.4-1.6-1.1-2
			c-0.5-0.3-1-0.4-1.6-0.3L25.8,15.4z"/>
		<path id="パス_372" d="M8,37.2c-0.1,0.2-0.3,0.4-0.5,0.6c0.1,0.1,0.1,0.1,0.2,0.2c2.1,2,4.4,3.9,6.5,5.9c2.1,1.9,4.1,4,6,6.1
			c0.6,0.8,1.1,1.7,1.7,2.5c0.3,0.4,0.7,0.8,1.2,1c0.5-0.4,1-0.8,1.5-1.2c0.5-0.5,1-0.9,1.5-1.4c-0.1-0.2-0.1-0.5-0.3-0.7
			c-0.9-1.6-2-3-3.2-4.4c-1.2-1.3-2.5-2.6-3.7-3.8c-2.6-2.5-5.4-4.8-8-7.3c-0.3-0.3-0.7-0.5-1.1-0.6C9.2,35,8.6,36.1,8,37.2L8,37.2z
			"/>
		<path id="パス_373" d="M64.3,14.9c-2.4,0-4.9,0.1-7.3,0.2c-2.5,0.1-4.9,0.2-7.4,0.4c-2,0.2-4.1,0.4-6.1,0.7
			c-1.8,0.3-3.6,0.5-5.4,0.8c0.1,0.8,0.2,1.7,0.3,2.6c0,0.2,0,0.3,0.1,0.5c0.1,0.1,0.2,0.3,0.2,0.4c0,0.3,0.1,0.7,0.1,1
			c1.9-0.3,3.8-0.6,5.8-0.9c2.1-0.3,4.2-0.5,6.3-0.7c2.3-0.2,4.5-0.2,6.8-0.4c2.3-0.1,4.6-0.2,6.9-0.2c2-0.1,4.1-0.1,6.1,0.1
			c0.1,0,0.1,0,0.2,0c-0.4,0.7-0.8,1.4-1.2,2.1c-0.5,1-1.1,2-1.6,2.9c-1.2,2.1-2.3,4.2-3.5,6.3c-0.5,1-1.1,2-1.7,2.9
			c-0.6,1-1.3,1.9-1.9,2.9c-1.1,1.8-2.1,3.6-3.3,5.4c-0.2,0.1-0.4,0.2-0.6,0.4c-0.4,0.4-0.7,1-0.7,1.6c0,0.5,0.1,1,0.4,1.4
			c0.7,1.1,2,1.4,3.1,0.8c0.7-0.5,1.2-1.1,1.6-1.8c0.3-0.5,0.6-0.9,0.9-1.4c0.6-1,1.2-2,1.8-3c1.2-2,2.6-4,3.7-6.1
			c1.2-2,2.2-4.1,3.4-6.1c1.2-2.1,2.3-4.2,3.5-6.4c0.5-0.9,1-1.9,1.2-2.9c0.2-0.9-0.1-1.9-0.7-2.5c-0.4-0.3-0.9-0.6-1.4-0.8
			c-0.8-0.3-1.6-0.5-2.4-0.5c-1.4-0.2-2.9-0.3-4.3-0.3C66.2,14.8,65.3,14.9,64.3,14.9L64.3,14.9z"/>
		<path id="パス_374" d="M51.4,35.6c-0.5,0.3-1,0.7-1.5,1c0,0.1,0.1,0.3,0.2,0.4c1.7,2.4,3.4,4.8,5,7.3c0.8,1.1,1.5,2.3,2.3,3.4
			c0.7,1,1.3,2.1,1.9,3.3l0.3-0.2c1.2-0.8,2.5-1.4,3.8-1.9l0,0c-0.6-1.2-1.2-2.3-2-3.4c-0.8-1.2-1.5-2.3-2.3-3.5
			c-1.7-2.5-3.4-4.9-5.1-7.3c-0.2-0.2-0.3-0.4-0.5-0.6C52.9,34.6,52.2,35.1,51.4,35.6L51.4,35.6z"/>
		<path id="パス_375" d="M98.7,19.7c-0.4,0.1-0.9,0.2-1.3,0.3c-0.2,0.1-0.4,0.2-0.7,0.2c-0.3,0.1-0.6,0.3-0.9,0.4
			c-0.5,0.2-0.9,0.6-1.3,0.9c-0.5,0.5-0.9,1-1.3,1.6c-0.4,0.5-0.7,1-1,1.5c-0.7,1-1.2,2-1.8,3.1c-0.7,1.4-1.3,2.8-1.9,4.3
			c-0.1,0.4-0.2,0.7-0.3,1.1C88,33.9,88,34.6,88,35.3c0,0.8,0.2,1.5,0.4,2.2c0.4,1.2,1,2.4,1.8,3.4c0.5,0.6,1,1.1,1.6,1.6
			c1.8,1.7,4.3,2.5,6.8,1.9c1.3-0.3,2.5-1,3.5-2c1.7-1.8,2.2-4.4,2.5-6.8c0.1-0.9,0.2-1.9,0.2-2.9c0-1.2-0.1-2.3-0.2-3.5
			c-0.2-1.6-0.4-3.2-0.6-4.8l0.2,0.1c0.3,0.2,0.6,0.3,0.9,0.5c0.3,0.2,0.5,0.5,0.7,0.8c0.7,0.9,1.2,2,1.7,3c0.8,2.1,1.5,4.3,1.8,6.6
			c0.2,1.7,0.3,3.3,0.3,5c0.1,1.7,0,3.3-0.1,5c0,0.1,0,0.1,0,0.2c0,0.2,0,0.4,0.1,0.6c0.3,0.1,0.6,0.2,1,0.2
			c0.8,0.2,1.7,0.3,2.5,0.5l0.6,0.1c0.2-0.2,0.3-0.5,0.4-0.8c0.3-2.3,0.3-4.7,0.2-7c-0.1-2.5-0.4-5.1-1-7.5
			c-0.5-2.2-1.3-4.4-2.4-6.4c-0.5-1.1-1.2-2-2-2.9c-1-1-2.2-1.8-3.5-2.3c-1.1-0.4-2.3-0.6-3.4-0.7c-0.3,0-0.6,0-0.8,0
			C100.3,19.5,99.5,19.6,98.7,19.7L98.7,19.7z M96.7,40c-0.2,0-0.5-0.1-0.7-0.2c-0.3-0.2-0.6-0.3-0.9-0.5c-0.5-0.4-1-0.9-1.5-1.4
			c-0.2-0.4-0.5-0.7-0.6-1.1c-0.2-0.5-0.3-0.9-0.4-1.4c0-0.2,0-0.5,0-0.7c0.1-0.7,0.3-1.3,0.6-1.9c0.6-1.3,1.1-2.5,1.8-3.7
			c0.6-1.2,1.4-2.3,2.2-3.4c0.2-0.3,0.5-0.5,0.7-0.8c0.1-0.1,0.2-0.1,0.4-0.2c0.4-0.1,0.7-0.2,1.1-0.3c0.1,0.7,0.2,1.4,0.3,2
			c0.2,1.7,0.4,3.4,0.5,5.1c0.1,1.5,0,3-0.3,4.5c-0.1,0.8-0.4,1.6-0.6,2.3c-0.1,0.3-0.3,0.6-0.5,0.8c-0.1,0.1-0.2,0.3-0.4,0.4
			c-0.2,0.1-0.3,0.2-0.5,0.3c-0.2,0.1-0.5,0.1-0.7,0.2c-0.1,0-0.2,0-0.3,0C96.8,40,96.7,40,96.7,40L96.7,40z M99.8,36.4l0,0.2
			L99.8,36.4z M109.6,44.9L109.6,44.9L109.6,44.9z"/>
		<path id="パス_376" d="M158.2,14.2c-0.4,0.1-0.7,0.2-1.1,0.2c-1.5,0.1-3,0.2-4.5,0.1c-0.5,0-1,0-1.5,0c-2.3,0-4.6,0-6.9,0.1
			c-5,0.1-9.9,0.6-14.9,1.5c-1.3,0.2-2.7,0.5-4,0.8c-0.3,0.1-0.6,0.2-0.8,0.4c0.1,0.9,0.2,1.9,0.3,2.8c0.1,0.3,0.1,0.7,0.2,1
			c0.5,0.2,1,0.3,1.6,0.1c2.2-0.5,4.3-0.8,6.5-1.2c4.4-0.6,8.9-0.9,13.4-1c2.1,0,4.2,0,6.3,0c2.3,0.1,4.5-0.1,6.8-0.5
			c0.5-0.1,1-0.5,1.3-0.9c-0.4-0.7-0.7-1.3-1.1-2c-0.3-0.5-0.5-1-0.8-1.6h-0.1C158.6,14.1,158.4,14.2,158.2,14.2L158.2,14.2z"/>
		<path id="パス_377" d="M147.3,6.6c-0.3,0.5-0.4,1.2-0.2,1.8c0.3,1.5,0.5,3.1,0.8,4.6c0.4,3.1,0.6,6.2,0.7,9.3
			c-0.3,0-0.6,0.1-1,0.2c-1.2,0.2-2.4,0.6-3.5,1.2c-1.1,0.6-2.2,1.4-3.1,2.3c-0.9,0.9-1.8,1.9-2.5,2.9c-0.2,0.2-0.3,0.5-0.5,0.7
			c-0.5,0.7-0.9,1.5-1.2,2.3c-0.5,1.2-0.7,2.5-0.6,3.7c0,0.6,0.1,1.3,0.3,1.9c0.2,0.9,0.5,1.9,0.9,2.7c0.4,0.7,0.8,1.4,1.4,1.9
			c0.5,0.5,1.1,0.9,1.7,1.3c1.6,1,3.6,1.4,5.5,1.1c1.4-0.4,2.7-1.1,3.8-2.2c0.5-0.5,1-1.1,1.4-1.7c0.3-0.4,0.5-0.8,0.7-1.3
			c0.5-0.9,0.8-1.9,1.1-3c0.5-2.2,0.8-4.5,0.7-6.8c0-1-0.1-1.9-0.1-2.9c0.3,0.1,0.5,0.1,0.8,0.2c0.1,0.1,0.2,0.1,0.3,0.2
			c0.3,0.3,0.7,0.6,0.9,1c0.8,1.2,1.5,2.5,2.1,3.8c1.2,3,2,6.1,2.4,9.3c0.1,1.1,0.2,2.2,0.3,3.3c0.3,0.2,0.5,0.5,0.6,0.9
			c0.1,0.7,0.2,1.3,0.2,2c0,0.1,0,0.3,0,0.4c0.1,0.7,0.1,1.3,0.2,2c0.1,0.7,0.1,1.4,0.2,2.2c0.5,0.3,1.1,0.6,1.7,0.9
			c0.3-0.2,0.5-0.5,0.7-0.8c0.3-0.5,0.5-1.1,0.6-1.7c0.3-1.1,0.4-2.3,0.5-3.4c0.1-2.3,0-4.6-0.3-6.9c-0.6-4.3-1.8-8.5-3.8-12.4
			c-0.6-1.1-1.3-2.1-2.1-3.1c-0.3-0.3-0.6-0.7-1-0.9c-0.4-0.4-0.9-0.6-1.3-0.9c-0.4-0.2-0.8-0.3-1.1-0.4c-0.6-0.2-1.3-0.3-1.9-0.3h0
			c0-0.2,0-0.3,0-0.5c-0.1-1-0.2-2-0.2-3c-0.2-3.8-0.7-7.7-1.4-11.4c0-0.1,0-0.2-0.1-0.3c-0.4-0.1-0.8-0.2-1.2-0.2
			c-0.9-0.1-1.7-0.3-2.6-0.4C147.4,6.4,147.3,6.5,147.3,6.6L147.3,6.6z M144.1,40c-0.2-0.1-0.4-0.1-0.7-0.2
			c-0.4-0.2-0.8-0.4-1.2-0.7c-0.2-0.2-0.3-0.3-0.5-0.5c-0.1-0.2-0.3-0.5-0.4-0.7c-0.2-0.7-0.4-1.4-0.5-2.1c-0.1-0.5-0.1-1-0.1-1.4
			c0.1-0.4,0.2-0.7,0.3-1.1c0.4-0.7,0.8-1.4,1.3-2.1c0.8-1,1.7-2,2.7-2.8c0.5-0.4,1-0.7,1.6-1c0.7-0.3,1.4-0.4,2.2-0.6
			c0,0.5,0.1,1.1,0.1,1.6c0.1,1.6,0,3.1-0.1,4.7c-0.2,1.3-0.5,2.5-1,3.7c-0.3,0.6-0.6,1.1-1,1.7c-0.3,0.3-0.6,0.6-0.9,0.9
			c-0.2,0.2-0.5,0.3-0.7,0.4c-0.2,0.1-0.4,0.1-0.6,0.2h-0.1C144.4,40,144.2,40,144.1,40L144.1,40z"/>
		<path id="パス_378" d="M170.1,8.3c-0.7,0.3-1.5,0.6-2.2,0.8c-0.6,0.2-1.1,0.4-1.7,0.6c0,0.2,0,0.5,0.1,0.7
			c0.5,1.9,1.2,3.7,1.8,5.6s1.3,3.7,2.1,5.5c-0.1-0.2-0.2-0.4-0.2-0.5c0.3,0.7,0.6,1.4,1,2.1c0.1,0.2,0.2,0.3,0.3,0.5
			c0.4-0.2,0.8-0.3,1.2-0.5c0.1-0.1,0.3-0.1,0.4-0.1c0.2-0.1,0.4-0.2,0.6-0.4c0.3-0.2,0.6-0.3,1-0.2l0.2-0.1
			c0.2-0.1,0.3-0.2,0.5-0.2c0-0.4-0.1-0.8-0.3-1.2c-0.2-0.4-0.4-0.8-0.6-1.3c0.1,0.2,0.2,0.4,0.2,0.5c-0.1-0.3-0.3-0.7-0.4-1
			c-0.6-1.4-1.1-2.9-1.6-4.4c-0.6-1.8-1.3-3.5-1.8-5.4C170.6,8.8,170.4,8.5,170.1,8.3L170.1,8.3L170.1,8.3z"/>
		<path id="パス_379" d="M186.8,10.2c0,0.2,0,0.4,0,0.7c-0.1,1.2-0.1,2.3-0.2,3.5c0,0.1,0,0.3,0,0.4c0.1,0,0.3,0,0.4,0.1
			c3.6,0.4,7.2,0.7,10.8,0.8c1.9,0.1,3.8,0.1,5.7,0.1c0.9,0,1.8,0,2.7-0.1c0.9-0.1,1.7-0.2,2.5-0.3c1.6-0.2,3.2-0.3,4.8-0.3
			c1.6,0,3.2,0.2,4.7,0.3c1.7,0.1,3.3,0.3,5,0.4c1.6,0.2,3.2,0.4,4.8,0.4c0.2,0,0.3,0,0.5,0c0-1,0-2,0-3l0-1.5
			c-0.2,0-0.3-0.1-0.5-0.1c-1.6-0.1-3.2-0.3-4.8-0.4c-1.7-0.2-3.4-0.3-5.2-0.5s-3.4-0.3-5.1-0.3c-1.8,0-3.5,0.2-5.3,0.5
			c-0.7,0.1-1.5,0.2-2.2,0.2c-0.8,0-1.6,0-2.4,0c-1.9,0-3.8,0-5.7-0.1c-3.5-0.1-6.9-0.4-10.4-0.8C186.9,10.2,186.9,10.2,186.8,10.2
			L186.8,10.2z M209.1,15.3c-0.1,0-0.1,0-0.2,0C208.9,15.3,209,15.3,209.1,15.3z"/>
		<path id="パス_380" d="M204.2,1.8c-0.1,0.2-0.2,0.4-0.2,0.5c-0.1,0.4-0.1,0.8,0,1.2c0.3,2.1,0.7,4.1,1.2,6.2c0.5,2,1,4,1.4,6
			c0,0.1,0,0.2,0.1,0.3c-0.6,0-1.2,0-1.8,0.1c-0.9,0-1.9,0.3-2.7,0.8c-0.5,0.4-1,0.9-1.4,1.5c-0.4,0.5-0.8,1.1-1.2,1.7
			c-0.4,0.6-0.6,1.3-0.9,1.9c-0.2,0.6-0.3,1.3-0.4,2c-0.1,0.5-0.1,1-0.1,1.6c0,1.2,0.2,2.4,0.6,3.6c0.5,1.3,1.3,2.4,2.3,3.3
			c0.9,0.7,1.9,1.3,2.9,1.9c0.4,0.2,0.8,0.4,1.2,0.6c0.4,0.2,0.8,0.3,1.1,0.5c0.4,0.1,0.9,0.2,1.3,0.3c0.7,0.1,1.4,0,2.1-0.2
			c0.7-0.3,1.4-0.7,1.9-1.4c0,0.1,0,0.3,0,0.4c-0.2,1.1-0.5,2.2-0.9,3.3c-0.2,0.6-0.4,1.3-0.5,1.9c-0.2,0.7-0.3,1.5-0.4,2.2
			c0,0.1,0,0.2,0,0.4c0.4,0,0.7,0.1,1.1,0.2c0.4,0.1,0.8,0.2,1.1,0.3c0.6,0.2,1.2,0.4,1.9,0.6l0.2-0.3c0.2-0.4,0.3-0.8,0.3-1.2
			c0,0,0,0,0,0c0.2-1,0.4-1.9,0.7-2.8c0.3-1,0.6-2,0.8-3c0.2-1.2,0.3-2.4,0.2-3.7c-0.1-1.2-0.2-2.4-0.4-3.6c-0.4-2.4-1.1-4.7-2-7
			c-0.4-1-0.8-1.9-1.4-2.7c-0.2-0.3-0.4-0.6-0.7-0.9c-0.2-0.8-0.3-1.6-0.5-2.5c-0.5-2.3-1-4.5-1.6-6.7c-0.6-2.2-1-4.3-1.3-6.5
			c-0.1-0.3-0.2-0.6-0.4-0.8c-0.4,0-0.7-0.1-1.1-0.1c-0.5-0.1-1-0.1-1.6-0.1c-0.2,0-0.5,0-0.7-0.1C204.4,1.4,204.3,1.6,204.2,1.8
			L204.2,1.8z M208.1,31c-0.2-0.1-0.5-0.1-0.7-0.2c-0.6-0.3-1.1-0.6-1.7-0.9c-0.5-0.3-1-0.6-1.4-0.9c-0.3-0.2-0.5-0.5-0.7-0.7
			c-0.1-0.2-0.2-0.4-0.3-0.6c-0.1-0.4-0.2-0.8-0.3-1.2c-0.1-0.7-0.1-1.4,0-2.1c0.1-0.5,0.2-1,0.4-1.4c0.3-0.5,0.6-1,1-1.5
			c0.2-0.2,0.3-0.4,0.5-0.6l0.2,0c0.8-0.1,1.5-0.1,2.3-0.1c0.2,0,0.3,0.1,0.5,0.1c0,0.1,0,0.2,0.1,0.3c0.4,1.8,0.8,3.6,1.1,5.3
			c0.1,0.9,0.1,1.8,0,2.7c-0.1,0.6-0.3,1.2-0.5,1.8l-0.1,0.1C208.1,31,208.1,31,208.1,31L208.1,31z M208.7,29.4c0,0.1,0,0.1,0,0.2
			C208.7,29.5,208.7,29.4,208.7,29.4z"/>
		<path id="パス_381" d="M245.8,10c-0.1,1.4-0.1,2.8-0.1,4.2v0.4c0.1,0,0.2,0,0.3,0c3.9,0.3,7.8,0.5,11.7,0.6c1.8,0,3.5,0,5.3,0.1
			c0.9,0,1.7,0,2.6,0h1.3c0.8,0.1,1.7,0,2.5-0.2c0.1,0,0.2-0.1,0.3-0.1c-0.2-0.9-0.3-1.8-0.5-2.7c-0.1-0.6-0.2-1.2-0.3-1.7
			c-0.2,0-0.4,0-0.7,0.1c0,0-0.1,0.1-0.2,0.1c-1.7,0-3.5,0-5.2,0s-3.5,0-5.2-0.1c-3.8-0.1-7.7-0.3-11.5-0.6h-0.1
			C245.8,10,245.8,10,245.8,10L245.8,10z M267.8,10.6c-0.1,0-0.2,0-0.3,0C267.6,10.6,267.7,10.6,267.8,10.6z"/>
		<path id="パス_382" d="M254.8,5.1c-0.7,0.3-1.3,0.6-2,0.8c0.1,0.3,0.3,0.7,0.5,0.9c0.7,0.7,1.4,1.5,2,2.2c0.4,0.5,0.7,1,1,1.5
			c0.3,0.6,0.6,1.2,0.9,1.8c0.3,0.7,0.5,1.4,0.8,2.1c-0.8-0.5-1.8-0.9-2.7-1c-1.7-0.1-3,0.9-4.2,2.1c-0.9,0.9-1.7,1.9-2.3,3.1
			c-1.2,2.2-1.7,4.7-1.5,7.2c0.1,1.3,0.2,2.6,0.4,3.9c0.1,0.5,0.2,1.1,0.4,1.6c0.1,0.2,0.2,0.4,0.2,0.7c0.3,0.9,0.8,1.7,1.5,2.5
			c0.5,0.5,1,0.9,1.6,1.3c0.6,0.4,1.2,0.7,1.8,0.9c1,0.4,2,0.7,3,0.9c0.7,0.1,1.4,0.2,2,0.2c0.2,0,0.5,0,0.7,0
			c0.3,0,0.5-0.1,0.8-0.1c0.2,0,0.4-0.1,0.6-0.1c0,0.8,0,1.7,0,2.5c0,0.6,0,1.3,0,1.9c0,0.6,0,1.1,0,1.7c-0.1,0.2-0.2,0.3-0.2,0.5
			c-0.1,0.5-0.1,1,0.1,1.5c0.7,0,1.4-0.1,2.1-0.1c0.5,0,0.9,0,1.4,0c0.3,0,0.5,0,0.8,0c0.1-0.2,0.1-0.3,0.2-0.5
			c0-0.2,0.1-0.3,0.1-0.5c0.1-0.7,0.1-1.3,0.1-2c0-1.1,0-2.1,0-3.2c0-2.2,0-4.5-0.1-6.7c-0.1-1.1-0.2-2.2-0.3-3.3
			c-0.2-1.2-0.3-2.3-0.5-3.5c0.1-2.6-0.1-5.2-0.5-7.7c-0.2-1.3-0.5-2.6-0.9-3.8c-0.3-1.2-0.7-2.4-1.2-3.5c-0.5-1.3-1.2-2.6-2-3.8
			c-0.8-1.1-1.6-2.1-2.6-3.1C256.3,4.4,255.5,4.8,254.8,5.1L254.8,5.1z M257.5,33.2c-0.9-0.2-1.8-0.4-2.7-0.7
			c-0.5-0.2-0.9-0.5-1.3-0.8c-0.1-0.1-0.2-0.2-0.3-0.3c-0.1-0.2-0.3-0.4-0.4-0.6c-0.3-0.9-0.5-1.7-0.7-2.6c-0.2-1.5-0.2-3.1-0.1-4.7
			c0.1-0.6,0.3-1.1,0.5-1.7c0.3-0.6,0.7-1.3,1.1-1.8c0.5-0.6,1-1.1,1.5-1.6l0.1-0.1c0.1,0,0.1,0,0.1,0c0.2,0.1,0.5,0.3,0.7,0.4
			c0.3,0.3,0.5,0.5,0.8,0.8c0.7,0.9,1.2,1.9,1.7,2.9c0.5,1.2,0.8,2.5,1.1,3.8c0,0.9-0.1,1.8-0.2,2.6c-0.2,1.5-0.5,2.9-0.9,4.4
			C258.1,33.2,257.8,33.2,257.5,33.2L257.5,33.2z M260.5,43.3c0,0.1,0,0.2,0,0.3C260.5,43.5,260.5,43.4,260.5,43.3z"/>
		<path id="パス_383" d="M294.7,11.1c-0.8,0.1-1.6,0.3-2.4,0.4l-0.1,0c-0.1,0.4-0.1,0.8,0,1.2c0.4,1.9,0.8,3.9,1.4,5.8
			c0.5,1.7,1.1,3.3,1.8,4.9c0.6,1.6,1.2,3.2,1.9,4.7c0.4,0.9,0.8,1.9,1.3,2.8c0.2,0.4,0.4,0.8,0.6,1.2c0.1,0.2,0.2,0.4,0.4,0.6
			c0.2,0.3,0.3,0.5,0.5,0.7c0.2,0.3,0.5,0.5,0.8,0.7c1.1,0.6,2.5,0.3,3.1-0.8c0.6-1,0.4-2.2-0.5-2.9c-0.7-1.2-1.4-2.4-2-3.7
			c-0.4-1-0.8-2.1-1.2-3.1c-0.5-1.2-1-2.4-1.4-3.6s-0.9-2.5-1.2-3.7c-0.4-1.5-0.8-3.1-1.1-4.6c0-0.2-0.1-0.5-0.3-0.7
			C295.7,10.9,295.2,11,294.7,11.1L294.7,11.1z"/>
		<path id="パス_384" d="M303.1,11.6c-0.5,0.9-1,1.8-1.5,2.7c-0.2,0.5-0.4,0.9-0.6,1.4l-0.1,0.2c-1.6-0.4-3.3-0.6-4.9-0.6
			c-1.3,0-2.7,0.1-4,0.4c-1.2,0.3-2.3,0.7-3.3,1.4c-1,0.6-1.9,1.4-2.7,2.4c-0.8,0.9-1.5,1.9-2,3c0,0.1-0.1,0.2-0.1,0.3
			s-0.1,0.2-0.1,0.3c-0.2,0.4-0.3,0.8-0.5,1.2c-0.2,0.5-0.3,1-0.4,1.5c-0.5,2.5-0.5,5.1,0,7.6c0.6,2.3,1.7,4.5,3.3,6.3
			c0.8,1.1,1.7,2.1,2.7,3.1c0.6,0.6,1.2,1.1,1.9,1.5c0.8,0.5,1.8,0.5,2.6,0c0.3-0.2,0.7-0.5,0.9-0.8c1.6-1.9,2.8-4.1,3.6-6.5
			c0.8-1.9,1.5-3.9,1.9-6c0.2-1.1,0.5-2.2,0.7-3.2c0.3-1,0.6-2,1-3c0.4-0.9,0.8-1.7,1.3-2.6c0.6,0.5,1.1,1.1,1.6,1.7
			c0.3,0.5,0.7,1,0.9,1.6c0.4,1.1,0.6,2.3,0.8,3.5c0.1,1,0.2,2,0.2,3.1c0.1,1.2,0.1,2.4,0,3.6c-0.2,1.3-0.5,2.5-0.9,3.7
			c-0.1,0.4-0.1,0.8,0,1.2c0.1,0,0.1,0,0.2,0c0.6,0.1,1.2,0.2,1.8,0.3c0.6,0.1,1.2,0.2,1.8,0.3l0.3,0.1c0.1-0.2,0.3-0.4,0.3-0.7
			c0.6-2,1-4,1.2-6c0.1-1.1,0-2.2-0.1-3.3c-0.1-1.2-0.2-2.4-0.4-3.5c-0.1-1-0.3-1.9-0.6-2.9c-0.2-0.6-0.5-1.3-0.8-1.9
			c-0.4-0.7-0.8-1.4-1.3-2c-0.6-0.8-1.3-1.5-2-2.1c-0.3-0.3-0.6-0.6-1-0.8c0,0,0,0,0,0c0.2-0.4,0.4-0.9,0.6-1.3
			c0.4-0.9,0.9-1.9,1.5-2.7c0.2-0.3,0.3-0.6,0.3-1c-0.2-0.2-0.4-0.3-0.6-0.5c-0.4-0.3-0.7-0.7-1-1.1c-0.2-0.3-0.4-0.6-0.5-0.9
			c-0.1,0-0.1,0-0.2,0C304.3,10.4,303.6,10.9,303.1,11.6L303.1,11.6z M290,37c-0.8-1-1.5-2.1-2.1-3.3c-0.2-0.6-0.4-1.3-0.5-1.9
			c-0.2-1.4-0.2-2.9,0-4.3c0.1-0.9,0.4-1.8,0.7-2.7c0,0,0-0.1,0.1-0.1c0.1-0.2,0.2-0.4,0.3-0.6c0.2-0.4,0.5-0.8,0.7-1.1
			c0.4-0.6,0.9-1.1,1.5-1.6c0.5-0.3,1-0.6,1.5-0.9c0.6-0.2,1.2-0.4,1.8-0.5c1.5-0.2,2.9-0.2,4.4,0c0.2,0,0.4,0.1,0.6,0.1
			c-0.8,1.5-1.4,3-2,4.6c-0.6,1.9-1.1,3.9-1.5,5.8c-0.5,1.9-1.1,3.7-1.8,5.5c-0.5,1.1-1,2.2-1.6,3.2C291.3,38.5,290.6,37.8,290,37z
			 M293.8,35.6c0,0.1,0,0.1-0.1,0.1C293.7,35.7,293.7,35.6,293.8,35.6z"/>
	</g>
</g>
</svg>
