<?xml version="1.0" encoding="utf-8"?>
<!-- Generator: Adobe Illustrator 24.2.0, SVG Export Plug-In . SVG Version: 6.00 Build 0)  -->
<svg version="1.1" id="レイヤー_1" xmlns="http://www.w3.org/2000/svg" xmlns:xlink="http://www.w3.org/1999/xlink" x="0px"
	 y="0px" viewBox="0 0 108 138" style="enable-background:new 0 0 108 138;" xml:space="preserve">
<g id="グループ_686" transform="translate(-263.74 -458.176)">
	<g id="グループ_683" transform="translate(263.74 458.176)">
		<path id="パス_653" d="M37,84.6c-1.7,0.2-3,1.7-2.8,3.5c0.2,1.7,1.7,3,3.5,2.8c1.7-0.2,3-1.7,2.8-3.5
			C40.3,85.7,38.7,84.4,37,84.6C37,84.6,37,84.6,37,84.6z"/>
		<path id="パス_654" d="M72.6,80.4c-1.7,0.2-3,1.7-2.8,3.5c0.2,1.7,1.7,3,3.5,2.8s3-1.7,2.8-3.5c0,0,0,0,0,0
			C75.8,81.4,74.3,80.2,72.6,80.4C72.6,80.4,72.6,80.4,72.6,80.4z"/>
		<path id="パス_655" d="M61.7,108l-0.3-2.2c0,0,0,0,0,0c-2.7,0.9-4.1,1-5.5,0.5c-0.6-0.3-1.1-0.8-1.3-1.4c-0.3-0.7-0.2-1.4,0.1-2
			c0-0.1,0.1-0.1,0.1-0.2c0.3-0.6,0.7-1.4,2.7-1.5c0.4,0,0.7,0,1-0.1c0.2,0,0.3,0,0.5,0c0,0,0.1,0,0.1,0c0,0,0-0.2,0-0.2l0-0.3
			c0-0.1,0-0.2,0-0.3l-0.1-1c0,0,0-0.1-0.1,0l-0.3,0c-1.2,0.1-2.3,0.1-3.5-0.2c-1.2-0.4-1.9-1.7-1.5-2.9c0,0,0-0.1,0-0.1
			c0.3-0.9,1-1.5,1.9-1.7c1.2-0.3,2.4-0.3,3.6-0.2c0.1,0,0.7,0,0.9,0l0-1.1c0-0.1-0.1-1-0.1-1.2c-1.2-0.3-2.4-0.4-3.6-0.3
			c-0.7,0.1-1.4,0.3-2.1,0.5c-1.5,0.6-2.7,1.9-3.2,3.5c-0.6,2.2,0.5,4.4,2.5,5.3l0.1,0.1l-0.1,0.1c-0.3,0.3-0.6,0.6-0.8,1
			c-0.7,1-0.8,2.3-0.5,3.5c0.4,1.2,1.2,2.2,2.4,2.8c1.3,0.5,2.7,0.7,4.1,0.6C59.7,108.7,60.8,108.5,61.7,108L61.7,108L61.7,108z"/>
		<g id="グループ_682">
			<path id="パス_656" d="M36.5,51.8c1-0.3,1.9-0.5,2.9-0.8l0.9-0.2c0.7-0.2,1.4-0.3,2.1-0.5l1.2-0.3c0.7-0.1,1.3-0.3,2-0.4
				l1.3-0.3c0.6-0.1,1.3-0.2,2-0.3c0.5-0.1,0.9-0.1,1.4-0.2c0.7-0.1,1.3-0.2,2-0.3c0.5-0.1,1-0.1,1.4-0.2c0.7-0.1,1.4-0.1,2-0.2
				l0.3,0c0.4,0,0.7-0.1,1.1-0.1c0.7,0,1.4-0.1,2.2-0.1l0.5,0c0.3,0,0.6,0,0.9,0h0c1,0,2.1,0,3.1,0.1l0.5,0c1.1,0.1,2.2,0.2,3.2,0.3
				l0.5,0.1c1.2,0.2,2.3,0.3,3.4,0.6l0.2,0c1.2,0.2,2.2,0.5,3.3,0.8l0.2,0.1c1,0.3,2.1,0.7,3.2,1.1l0.5,0.2c1,0.4,2,0.9,3,1.4
				l0.5,0.3c1,0.5,2,1.1,2.9,1.8l0.5,0.3c1,0.7,2,1.4,2.9,2.2l0.3,0.3c1,0.9,1.9,1.8,2.8,2.7c2.6,2.8,5.1,5.8,7.3,8.9
				c0.8-3.9,1.3-7.8,1.5-11.7c0.8-14.8-7-23-13-27.9c-7.9-6.5-17.4-8.5-24.1-10c-7.7-1.7-11.8-3.6-14-8c-3.2-6.5-2.8-10.1-4.9-9.9
				c-1.9,0.2-0.3,6.7-3.2,12c-5.5,10-23.2,11.5-33.2,29.1C1,55,3.1,64.6,5.9,72.4C12.4,63.1,24,55.2,36.5,51.8z"/>
			<path id="パス_657" d="M73.4,75.1L73.4,75.1L73,74.9c-0.5-0.3-1-0.6-1.6-0.9l-0.1-0.1c-0.5-0.2-1-0.4-1.6-0.6l-0.4-0.1
				c-0.6-0.2-1.1-0.3-1.7-0.5l-0.3-0.1c-0.5-0.1-1.1-0.2-1.7-0.3l-0.2,0c-0.6-0.1-1.2-0.1-1.8-0.2l-0.4,0c-0.6,0-1.2,0-1.8,0
				c-0.6,0-1.2,0-1.7,0l-0.5,0c-0.4,0-0.9,0.1-1.3,0.1l-0.5,0c-0.5,0-1.1,0.1-1.6,0.2c-0.4,0-0.8,0.1-1.2,0.1l-0.3,0l-1.7,0.2
				c-0.5,0.1-0.9,0.1-1.3,0.2c-3.7,0.4-9.5,2.8-13.9,6.8c4.8-0.2,10.8-0.7,17-1.5C62.6,77,68.7,76.1,73.4,75.1z"/>
			<path id="パス_658" d="M105.5,86c-0.1-0.2-0.1-0.5-0.2-0.7c-0.3-1.1-0.6-2.2-1-3.3c-0.6-1.6-1.3-3.2-2-4.7
				c-1.1-2.1-2.2-4.1-3.6-6.1c-2.4-3.6-5.1-6.9-8.1-10.1c-0.9-0.9-1.8-1.8-2.7-2.6l-0.3-0.3c-0.8-0.7-1.7-1.4-2.7-2.1l-0.4-0.3
				c-0.9-0.6-1.8-1.2-2.8-1.7l-0.5-0.3c-1-0.5-2-1-2.9-1.4l-0.4-0.2c-1.1-0.4-2.1-0.8-3.1-1.1l-0.2,0c-1-0.3-2-0.6-3.2-0.8l-0.2,0
				c-1.1-0.2-2.1-0.4-3.3-0.5l-0.5-0.1c-1-0.1-2.1-0.2-3.1-0.3l-0.5,0c-1,0-2-0.1-3-0.1c-0.3,0-0.6,0-0.8,0l-0.5,0
				c-0.7,0-1.4,0-2.1,0.1c-0.3,0-0.7,0-1,0.1l-0.4,0c-0.7,0.1-1.3,0.1-2,0.2c-0.5,0-0.9,0.1-1.4,0.2c-0.7,0.1-1.3,0.2-1.9,0.3
				c-0.5,0.1-0.9,0.1-1.4,0.2c-0.6,0.1-1.3,0.2-1.9,0.3L46,51.1c-0.7,0.1-1.3,0.3-2,0.4l-1.2,0.3c-0.7,0.2-1.4,0.3-2.1,0.5l-0.9,0.2
				c-1,0.3-2,0.5-2.9,0.8C25.2,56.5,13.1,64.1,6.5,74.2C3.7,78.3,2,83.1,1.6,88c-0.5,6.9,0.5,13.8,3,20.2
				c2.6,6.8,7.1,12.7,12.8,17.1l0,0l0.2,0.1c1,0.7,1.9,1.4,2.9,2l0.7,0.4c0.9,0.6,1.9,1.2,2.8,1.7l0.3,0.2c0.8,0.5,1.7,0.9,2.5,1.4
				l0.6,0.3c0.9,0.5,1.8,0.9,2.7,1.3l0.5,0.2c0.8,0.3,1.5,0.6,2.3,0.9l0.5,0.2c0.9,0.3,1.7,0.6,2.6,0.8l0.6,0.2
				c0.8,0.2,1.5,0.4,2.3,0.6l0.4,0.1c0.9,0.2,1.7,0.3,2.5,0.5l0.6,0.1c0.8,0.1,1.6,0.2,2.4,0.3h0.1l0.1,0c0.9,0.1,1.7,0.1,2.6,0.1
				l0.6,0c0.3,0,0.6,0,1,0h0.3c1,0,2,0,3-0.1l0.9-0.1c1.3-0.1,2.5-0.2,3.8-0.4l0.8-0.1c1.1-0.1,2.1-0.3,3.2-0.5l1.1-0.2
				c1.3-0.2,2.7-0.5,4-0.8c26.5-5.7,37.9-22.1,39.8-35.7c0.6-4,0.4-8.1-0.5-12C105.6,86.5,105.5,86.2,105.5,86z M70.9,110.8
				L70.9,110.8c-0.5,0.3-1.1,0.5-1.7,0.7l-0.6,0.2c-0.4,0.2-0.8,0.3-1.3,0.5l-0.7,0.2c-0.4,0.1-0.9,0.3-1.3,0.4l-0.7,0.2
				c-0.5,0.1-1,0.2-1.5,0.3l-0.6,0.1c-0.7,0.1-1.4,0.3-2.1,0.4l-0.5,0.1c-0.6,0.1-1.1,0.2-1.7,0.2l-0.7,0.1c-0.5,0-1,0.1-1.4,0.1
				l-0.8,0c-0.5,0-1,0-1.4,0l-0.5,0l-0.8,0c-0.4,0-0.8,0-1.1,0l-0.5,0c-0.4,0-0.8-0.1-1.2-0.1l-0.3,0c-0.5-0.1-1-0.1-1.4-0.2l-0.2,0
				c-0.5-0.1-0.8-0.2-1.1-0.3c-0.1,0-0.3-0.1-0.4-0.1c-0.3-0.1-0.6-0.2-0.8-0.3l-0.4-0.1c-0.4-0.1-0.7-0.3-1-0.5
				c-0.3-0.2-0.7-0.4-1.1-0.6c-0.5-0.3-1-0.5-1.5-0.8c-0.7-0.3-1.3-0.7-2-1.1c-0.9-0.5-1.7-1-2.5-1.5c-3.3-2.2-7.7-6.3-7.7-16
				c0-5.1,2.4-9.4,5.7-12.8c4.8-5,11.6-8,16.1-8.5c0.4,0,0.8-0.1,1.3-0.2L54,71c0.6-0.1,1.1-0.1,1.6-0.2c0.6-0.1,1.1-0.1,1.7-0.2
				l0.5,0c0.4,0,0.9-0.1,1.3-0.1l0.6,0c0.6,0,1.2,0,1.8,0h0c0.6,0,1.3,0,1.9,0l0.4,0c0.6,0,1.2,0.1,1.9,0.2l0.2,0
				c0.7,0.1,1.3,0.2,1.8,0.3l0.3,0.1c0.6,0.1,1.2,0.3,1.8,0.5l0.4,0.1c0.6,0.2,1.2,0.4,1.7,0.7l0.1,0.1c0.6,0.3,1.2,0.6,1.7,1
				l0.4,0.2c0.4,0.3,0.8,0.6,1.2,0.9c0.1,0.1,0.3,0.2,0.5,0.4l0.2,0.2c0.5,0.5,1,1,1.4,1.5l0.2,0.3c0.5,0.6,0.9,1.2,1.3,1.8l0.2,0.4
				c0.4,0.7,0.8,1.5,1.2,2.3C86.8,96.5,78.3,107.2,70.9,110.8L70.9,110.8z"/>
		</g>
	</g>
	<path id="パス_659" d="M338.4,557.2c-0.3-0.6-1.1-0.9-1.7-0.5c-0.2,0.1-0.4,0.3-0.6,0.5c-0.1,0.2-0.3,0.2-0.5,0.2
		c-0.3,0-0.5,0-0.7,0.1c-0.7,0.2-1,1-0.8,1.6c0,0.1,0.1,0.2,0.1,0.2c1.2,0.9,2.8,0.7,3.7-0.5c0.3-0.4,0.5-0.9,0.5-1.4
		C338.4,557.4,338.4,557.3,338.4,557.2z"/>
</g>
</svg>
