<?xml version="1.0" encoding="utf-8"?>
<!-- Generator: Adobe Illustrator 24.2.0, SVG Export Plug-In . SVG Version: 6.00 Build 0)  -->
<svg version="1.1" id="レイヤー_1" xmlns="http://www.w3.org/2000/svg" xmlns:xlink="http://www.w3.org/1999/xlink" x="0px"
	 y="0px" viewBox="0 0 842 48" style="enable-background:new 0 0 842 48;" xml:space="preserve">
<path id="パス_716" d="M24.5,2.7c-0.6,0-2.6,1.5-2.6,2.2c0,0.3,0.3,0.5,0.5,0.7c1.2,1.3,2.5,2.8,3.7,4.2c0.2,0.2,0.4,0.6,0.7,0.6
	c0.7,0,2.6-1.6,2.6-2.4C29.4,7.4,25.1,2.7,24.5,2.7z M19,6.5c-0.6,0-2.6,1.5-2.6,2.1c0,0.3,0.2,0.5,0.5,0.7c1.3,1.4,2.5,2.8,3.6,4.2
	c0.2,0.2,0.5,0.6,0.8,0.6c0.6,0,2.6-1.6,2.6-2.3S19.5,6.5,19,6.5z M9.7,18.2c-0.1,0.1-0.3,0.2-0.5,0.2s-0.4-0.1-0.4-0.5v-8
	c0-1.3-0.1-2.3-0.1-3.1c0-1.4,0.1-2.2,0.6-2.8c0.2-0.2,0.3-0.4,0.3-0.7c0-0.7-2.2-1-4.6-1.3C4.7,2,3.6,1.8,3.3,1.8
	c-0.5,0-0.7,0.3-0.7,0.8c0,0.2,0.1,0.7,0.1,1c0.1,1.3,0.2,2.8,0.2,4.1v30.2c0,2.4-0.2,4.8-0.2,7.2c0,1.7,0.9,1.8,3,1.8
	c3.2,0,3.3-0.3,3.3-2.8c0-2.1-0.1-4.2-0.1-6.3V23.4c0-0.4,0.2-0.8,0.6-0.8c0.2,0,0.4,0.1,0.5,0.2c2.7,1.9,5.3,4,7.7,6.2
	c0.3,0.4,0.7,0.6,1.2,0.7c1.1,0,3.6-2.8,3.6-3.7s-3-3.2-3.7-3.8c-1.1-0.9-6.4-5.1-7.4-5.1C10.7,17.1,10.1,17.8,9.7,18.2z M54.2,20.4
	c-2.2,0-5.9-0.2-6.6-0.2c-1.4,0-1.5,0.4-1.5,3.4c0,1.6,0.1,2.6,1.4,2.6c2.2,0,4.5-0.1,6.6-0.1h24.4c2.2,0,4.4,0.1,6.6,0.1
	c1.4,0,1.4-1,1.4-2.7c0-2.9-0.1-3.3-1.5-3.3c-0.7,0-4.1,0.2-6.6,0.2H54.2z M110.2,16c-2.1,0-5.2-0.2-6.7-0.2c-1.3,0-1.3,0.7-1.3,2.8
	c0,2.3,0.2,3.1,1.4,3.1c1.7,0,4.4-0.2,6.6-0.2h10.5c0.7,0,1.3,0.6,1.3,1.3c0,0.5-0.1,0.9-0.2,1.4c-1.5,7.4-5.7,13.5-12.8,16.5
	c-0.4,0.2-1.4,0.5-1.4,1.1c0,0.9,3.3,3.9,4.3,3.9c0.8,0,3.9-2.1,4.7-2.6c6.6-4.8,10.1-11.7,11.2-19.6c0.1-1,0.5-1.9,1.6-1.9h7.5
	c2.3,0,4.6,0.1,6.9,0.1c1.1,0,1.4-0.5,1.4-2.8c0-2.4-0.1-3-1.3-3c-2.3,0-4.7,0.2-7,0.2h-7c-1.1,0-1.6-0.9-1.6-1.9
	c0-2.3,0.1-4.7,0.1-7v-1c0-1,0.1-1.3,0.5-1.7c0.2-0.1,0.3-0.3,0.3-0.5c0-0.4-0.5-0.6-0.8-0.6c-0.7-0.2-4.7-0.6-5.4-0.6
	c-0.3,0-0.5,0.2-0.5,0.4v0.1c0,0.2,0.1,0.5,0.1,0.6c0.2,0.9,0.2,7.5,0.2,8.9v0.7c0,1.2-0.1,2.5-1.6,2.5L110.2,16z M195,7.9
	c-0.4,0-0.5,0.5-0.5,0.8c-0.4,3.2-1.3,6.4-2.4,9.4c-4.3,11.3-11.9,18.1-23.6,21c-0.6,0.2-2.2,0.3-2.2,1.2c0,0.8,2.4,4.4,3.5,4.4
	c0.4,0,0.8-0.1,1.2-0.3c5.6-1.5,10.8-4.3,15.3-8c7.5-6.4,11.1-14.5,13.7-23.8c0.1-0.6,0.5-1.1,1-1.4c0.2-0.2,0.6-0.4,0.6-0.7
	c0-0.6-1.4-1-2-1.2C197.9,8.8,196.5,8.3,195,7.9L195,7.9z M178.5,6.6c-0.8,0-4,1.6-4,2.4c0.1,0.4,0.3,0.8,0.6,1.1
	c1.8,2.6,3.4,5.3,4.8,8.1c0.4,0.7,0.6,1.3,1.2,1.3c0.7,0,4.3-1.6,4.3-2.6c0-0.8-2.4-4.6-3-5.4c-0.8-1.4-1.7-2.8-2.8-4.1
	C179.3,7,179,6.6,178.5,6.6L178.5,6.6z M165.1,10.4c-0.8,0-4,1.6-4,2.5c0.1,0.4,0.3,0.8,0.6,1.1c1.8,2.6,3.4,5.3,4.8,8.2
	c0.3,0.5,0.5,1.2,1.2,1.2s4.2-1.6,4.2-2.7c0-0.7-2.4-4.5-2.9-5.3c-0.7-1.1-2.2-3.4-2.9-4.3C165.9,10.6,165.5,10.4,165.1,10.4
	L165.1,10.4z M250.3,4.5c-0.5,0-2.5,1.5-2.5,2.2c0,0.3,0.3,0.5,0.5,0.7c1.3,1.3,2.6,2.7,3.8,4.1c0.2,0.3,0.4,0.6,0.7,0.6
	c0.6,0,2.5-1.6,2.5-2.4C255.3,9.2,250.9,4.5,250.3,4.5L250.3,4.5z M244.5,8.5c-0.5,0-2.6,1.5-2.6,2.2c0,0.3,0.3,0.6,0.5,0.7
	c1.3,1.3,2.6,2.7,3.7,4.2c0.2,0.2,0.4,0.6,0.7,0.6c0.7,0,2.6-1.6,2.6-2.4C249.4,13.1,245.1,8.5,244.5,8.5L244.5,8.5z M227.5,4.2
	c-0.7,0-0.8,0.5-0.8,1.3v0.6c0,2.2-0.5,7.3-0.6,9.7c-0.3,4.2-0.5,8.4-0.5,12.6c0,3.9,0.3,9,2.6,12.2c2.2,2.8,5.8,4.1,9.3,4.1
	c6.8-0.2,13-4,16.1-10.1c0.7-1.4,2.2-4.7,2.2-6.2c0-1.6-3.2-4.3-4.4-4.3c-0.8,0-0.8,0.9-1,1.7c-0.4,2.9-1.5,5.6-3.3,7.8
	c-2.4,3.1-6.1,5-10,5.1c-5.7,0-5.6-6.4-5.6-10.5c-0.1-6.5,0.4-12.9,1.5-19.3c0.3-1.3,0.4-1.6,1.2-2.2c0.2-0.2,0.3-0.3,0.3-0.5
	c0-0.6-1.1-0.8-1.8-1C231,4.8,229.3,4.4,227.5,4.2L227.5,4.2z M295.1,18.9c0.2,0.1,0.4,0.3,0.4,0.5s-0.1,0.5-0.4,0.6
	c-1.1,0.5-3.1,1.6-4.1,2.2c-0.4,0.3-0.8,0.5-1.3,0.5s-0.9-0.4-1.1-0.8c-0.6-1.1-1-2.3-1.4-3.6c0-0.1,0-0.3,0.1-0.4
	c0.1-0.2,0.1-0.3,0.1-0.5c-0.1-0.3-0.4-0.6-0.7-0.6c-0.4,0-0.8,0.2-1.2,0.3c-0.6,0.3-1.2,0.5-1.6,0.6c-1.6,0.6-2.3,0.8-2.3,1.4
	c0.1,0.4,0.3,0.9,0.6,1.2c0.6,0.7,2.6,4,2.6,4.9c0,0.5-0.3,1-0.7,1.2c-0.4,0.3-3.3,2.2-3.8,2.5c-0.4,0.2-1,0.5-1,1.1
	c0,1,1.9,3.8,2.9,3.8c0.3,0,0.6-0.3,0.9-0.5c0.7-0.6,3.3-2.9,4.1-2.9s1.1,0.7,1.4,1.4c1.5,3,3.2,5.9,4.8,9c0.4,0.8,0.8,1.7,1.3,2.6
	c0.3,0.4,0.5,0.8,1.1,0.8c0.8,0,3.8-1.4,3.8-2.4c-0.2-0.7-0.5-1.3-0.9-1.9c-1-1.6-6.9-11.2-6.9-12.3c0-0.5,0.3-1,0.8-1.2
	c2.5-1.6,7.2-4,10.2-4c1.9,0,3.4,1,3.4,3c0,3.1-4.3,4.5-6.8,4.9c-1.1,0.2-2.1,0.2-2.1,1.2c0,0.6,1.1,3.6,2.4,3.6
	c1.7-0.2,3.3-0.7,4.8-1.4c3.7-1.6,6.6-4.1,6.6-8.4c0-4.8-3.5-7.4-8.1-7.4c-1.2,0-2.4,0.1-3.6,0.4c-0.4,0.1-0.8-0.1-0.8-0.6
	c0-0.1,0-0.2,0.1-0.3c0.2-0.4,0.3-0.8,0.3-1.3c0-0.8-1.3-1.3-2.1-1.6c-1.7-0.7-3.4-1.3-5.2-1.7c-1.2,0-2.1,3-2.1,3.6
	c0,0.7,0.7,0.8,1.3,1C292.4,17.9,293.8,18.4,295.1,18.9L295.1,18.9z M353.6,36.6c2.7,0,2.7,0.6,2.7,1.6c0,1.9-0.8,2.9-2.8,2.9
	c-1.4,0-3.5-0.8-3.5-2.5C350,36.9,352.3,36.6,353.6,36.6z M356.2,17.9c-0.8,0-1.3,0.3-1.3,1.2c0,0.3,0.1,0.5,0.1,0.7
	c0.2,2.1,1,9.8,1,11.4c0,0.6-0.5,0.9-1.1,0.9h-1.4c-4.2,0-8.8,1.7-8.8,6.6s5,7.2,9.3,7.2c3.6,0,6.7-1.3,7.4-5.2
	c0.1-0.5,0.3-1.2,0.8-1.2c0.8,0,3.4,1.9,4.2,2.4c0.4,0.3,0.8,0.7,1.4,0.7c1.3,0,3.3-3,3.3-3.9c0-1.3-6.3-4.2-7.5-4.7
	c-0.2-0.1-0.4-0.2-0.5-0.2c-0.8-0.3-1.5-0.5-1.6-1.3c-0.3-1.1-0.5-8.7-0.5-10.3c0-1.1,0.1-2.7,0.1-2.8c0-0.6-0.5-1-1.1-1.1
	C358.7,18.2,357.4,18,356.2,17.9z M364.3,9.7c-1.1,0-3.6,2.9-3.6,3.7c0,0.4,0.5,0.7,0.7,0.8c2.6,1.9,4.8,4.2,6.6,6.8
	c0.3,0.4,0.6,1,1.2,1c1,0,4-2.4,4-3.7C373.2,17,365.6,9.7,364.3,9.7L364.3,9.7z M346.5,1.1C346,1.1,346,1.6,346,2
	c0,1.7-0.9,7.6-1.7,8.9c-0.4,0.7-0.9,0.7-1.6,0.8c-1.8,0.2-3.6,0.3-5.5,0.3h-2.4c-0.6,0-1,0.2-1,0.8c0,0.5,0.3,2.4,0.4,3.1
	c0.2,1.2,0.4,1.7,1.3,1.7c1.2,0,5.3-0.5,5.7-0.5c0.4,0,0.7,0.3,0.7,0.7l0,0c-0.3,1.1-0.7,2.2-1.2,3.2c-1.8,4.2-3.9,8.3-6.3,12.2
	c-0.4,0.6-0.8,1.2-1,1.9c0,1.1,3.6,2.7,4.7,2.7c0.6,0,0.7-0.2,1.1-0.7c3.4-6.1,6.2-12.4,8.6-18.9c0.6-1.7,0.6-2.1,2.5-2.4
	c4.9-0.9,5.5-1,5.5-2.2c0-0.9-0.1-1.9-0.3-2.8c-0.1-0.6-0.2-1.6-0.8-1.6c-0.2,0-0.4,0-0.5,0.1c-1,0.3-2,0.6-3,0.8
	c-0.3,0-0.6-0.3-0.6-0.6l0,0c0.1-0.8,0.3-1.6,0.6-2.4c0.2-0.6,0.5-2.4,1-2.8s0.8-0.6,0.8-1s-0.6-0.5-0.8-0.6
	C351.4,2.4,347,1.1,346.5,1.1z M417.6,5.2c-0.6-0.6-2.1-2.4-2.8-2.4c-0.3,0-0.6,0.4-0.8,0.6c-2.5,3.2-6.8,6.8-9.9,9.4
	c-1.9,1.5-5.5,4.5-6.8,6.2c-0.8,1.1-1.2,2.3-1.2,3.7c0,2.4,1.1,3.9,2.5,5.6c2.6,3.1,5.5,5.9,8.4,8.8c2.2,2.2,4.4,4.5,6.4,6.8
	c0.3,0.4,1.1,1.4,1.6,1.4c1.3,0,4.5-3,4.5-4.3c0-1.1-3.7-4-4.6-4.8c-3.3-2.9-6.6-5.9-9.6-9.1c-0.9-1-2.6-2.9-2.6-4.2
	c0-1,1.2-2.1,2.2-3c2.8-2.6,5.8-5.1,8.7-7.5c1.3-1.1,2.6-2.1,4-3c0.4-0.4,0.9-0.6,1.4-0.6c0.4,0,1.1,0.1,1.1-0.5
	C420.2,7.7,418.1,5.7,417.6,5.2L417.6,5.2z M446.3,11.1c0,0.5,0.5,5.6,1.7,5.6c0.3,0,0.5,0,0.8-0.1c3.9-0.9,7.8-1.7,11.7-2.2
	c0.6-0.1,3-0.5,3.4-0.5c0.3,0,0.8,0.2,0.8,0.6c0,0.3-0.7,1-1,1.3c-3.7,4.2-5.8,9.6-5.8,15.2c0,10.3,7.7,13.2,16.7,13.2
	c0.6,0,1.2,0,1.5-0.5c0.6-1.5,0.9-3.1,0.9-4.7c0-0.8-0.4-0.9-1.2-0.9c-0.5,0-1.7,0.1-2.6,0.1c-5.4,0-9.3-1.5-9.3-7.6
	c0.1-3.3,0.9-6.5,2.5-9.3c1.9-3.7,5.1-6.5,9.1-7.9c3-1.1,5.7-1.1,8.8-1.1c1.2-0.1,2.3,0.1,2.3-1.1c-0.1-1.3-0.2-2.6-0.4-3.9
	C486,6.7,485.9,6,485.1,6c-0.2,0-0.4,0-0.6,0.1c-4,0.6-8.1,1.2-12,1.6c-7.7,0.9-15.5,1.7-23.2,2.2C447,9.9,446.3,9.7,446.3,11.1z
	 M501.8,36.6c0,0.5,0.6,0.8,1,1c3.1,1.9,5.8,4.4,8.1,7.2c0.3,0.3,0.6,0.8,1.1,0.8c1.2,0,3.9-2.9,3.9-4.1c0-1.3-9.1-8.6-10.3-8.6
	C504.5,32.9,501.8,35.7,501.8,36.6z M577.3,2.7c-0.6,0-2.6,1.5-2.6,2.2c0,0.3,0.3,0.5,0.5,0.7c1.2,1.3,2.5,2.8,3.7,4.2
	c0.2,0.2,0.4,0.6,0.7,0.6c0.7,0,2.6-1.6,2.6-2.4C582.2,7.4,577.8,2.7,577.3,2.7L577.3,2.7z M571.8,6.5c-0.6,0-2.6,1.5-2.6,2.1
	c0,0.3,0.2,0.5,0.5,0.7c1.3,1.4,2.5,2.8,3.6,4.2c0.2,0.2,0.5,0.6,0.8,0.6c0.6,0,2.6-1.6,2.6-2.3C576.7,11.1,572.3,6.5,571.8,6.5
	L571.8,6.5z M562.5,18.2c-0.1,0.1-0.3,0.2-0.5,0.2s-0.4-0.1-0.4-0.5v-8c0-1.3-0.1-2.3-0.1-3.1c0-1.4,0.1-2.2,0.6-2.8
	c0.1-0.2,0.2-0.4,0.3-0.7c0-0.7-2.2-1-4.6-1.3c-0.4-0.1-1.5-0.2-1.8-0.2c-0.5,0-0.7,0.3-0.7,0.8c0,0.2,0.1,0.7,0.1,1
	c0.1,1.3,0.2,2.8,0.2,4.1v30.2c0,2.4-0.2,4.8-0.2,7.2c0,1.7,0.9,1.8,3,1.8c3.2,0,3.3-0.3,3.3-2.8c0-2.1-0.1-4.2-0.1-6.3V23.4
	c0-0.4,0.2-0.8,0.6-0.8c0.2,0,0.4,0.1,0.5,0.2c2.7,1.9,5.3,4,7.7,6.2c0.3,0.4,0.7,0.6,1.2,0.7c1.1,0,3.6-2.8,3.6-3.7s-3-3.2-3.7-3.8
	c-1.1-0.9-6.4-5.1-7.4-5.1C563.5,17.1,562.9,17.8,562.5,18.2L562.5,18.2z M607,20.4c-2.2,0-5.9-0.2-6.6-0.2c-1.4,0-1.5,0.4-1.5,3.4
	c0,1.6,0.1,2.6,1.4,2.6c2.2,0,4.5-0.1,6.6-0.1h24.4c2.2,0,4.4,0.1,6.6,0.1c1.4,0,1.4-1,1.4-2.7c0-2.9-0.1-3.3-1.5-3.3
	c-0.7,0-4.1,0.2-6.6,0.2H607z M663,16c-2.1,0-5.2-0.2-6.7-0.2c-1.3,0-1.3,0.7-1.3,2.8c0,2.3,0.2,3.1,1.4,3.1c1.7,0,4.4-0.2,6.6-0.2
	h10.5c0.7,0,1.3,0.6,1.3,1.3c0,0.5-0.1,0.9-0.2,1.4c-1.5,7.4-5.7,13.5-12.8,16.5c-0.4,0.2-1.4,0.5-1.4,1.1c0,0.9,3.3,3.9,4.3,3.9
	c0.8,0,3.9-2.1,4.7-2.7c6.6-4.8,10.1-11.7,11.2-19.6c0.1-1,0.5-1.9,1.6-1.9h7.5c2.3,0,4.6,0.1,6.9,0.1c1.1,0,1.4-0.5,1.4-2.8
	c0-2.4-0.1-3-1.3-3c-2.3,0-4.7,0.2-7,0.2h-7c-1.1,0-1.6-0.9-1.6-1.9c0-2.3,0.1-4.7,0.1-7V6.2c0-1,0.1-1.3,0.5-1.7
	c0.2-0.1,0.3-0.3,0.3-0.5c0-0.4-0.5-0.6-0.8-0.6c-0.7-0.2-4.7-0.6-5.4-0.6c-0.3,0-0.5,0.2-0.5,0.4v0.1c0,0.2,0.1,0.5,0.1,0.6
	c0.2,0.9,0.2,7.5,0.2,8.9v0.7c0,1.2-0.1,2.5-1.6,2.5L663,16z M719.7,20.2c-2.3,0-5.3-0.2-6.7-0.2s-1.3,0.9-1.3,3.1
	c0,1.7,0,2.6,1.4,2.6c1.7,0,4.2-0.1,6.6-0.1h10.8c0.5,0,0.9,0.4,1,0.9l0,0c-0.2,0.9-0.5,1.8-0.9,2.6c-2.5,5.9-6.1,9.1-11.8,12
	c-0.5,0.3-1.2,0.5-1.2,1c0,0.8,3,3.8,4,3.8c1.1,0,5.2-3,6.2-3.8c4.6-3.6,7.9-8.6,9.4-14.2c0.4-1.3,0.6-2.3,2.3-2.3h8
	c2.3,0,4.6,0.1,6.8,0.1c1.3,0,1.5-0.6,1.5-2.6c0-2.3-0.1-3-1.4-3c-2,0-4.5,0.1-6.9,0.1H740c-0.9,0-1.2-0.6-1.2-1.4
	c0-1,0.1-1.9,0.1-2.9s-0.1-1.9-0.1-2.9c0-0.9,0.6-1.3,1.4-1.5c1.1-0.3,2.3-0.6,3.4-0.9c0.9-0.3,4.5-1.5,5.1-1.5c0.2,0,0.3,0,0.5,0.1
	c0.2,0,0.4,0.1,0.5,0.1c0.3,0,0.7-0.2,0.7-0.5c0-0.6-2.1-2.7-2.6-3.2c-0.4-0.4-1.6-1.7-2.2-1.7c-0.3,0.1-0.6,0.2-0.9,0.4
	c-1.5,1-5.3,2-7.1,2.4c-5.3,1.1-10.7,1.7-16.2,1.7c-0.8,0-2-0.1-2.5-0.1c-0.6,0-1.1,0.3-1.1,1c0.1,1.2,0.5,2.3,1,3.4
	c0.4,1,0.6,1.2,1.9,1.2c3.8,0,10.9-0.8,11.1-0.8c1.3,0,1.3,1.1,1.3,3.8c0,1.5,0.1,3.5-1.6,3.5L719.7,20.2z M786.5,17.3
	c-2.1,0-4.3-0.1-5.2-0.1c-1.3,0-1.2,1-1.2,2.4c0,1.7,0,2.6,1.2,2.6c1.3,0,3.4-0.1,5.2-0.1h7.4c0.7,0,1.4,0.3,1.4,1.1
	c0,0.1-0.2,0.9-0.2,1.1l-1,9.3c-0.1,0.7-0.7,1.3-1.5,1.3h-12.7c-1.4,0-4.2-0.1-5.1-0.1c-1.2,0-1.3,1-1.3,2.8c0,1.1-0.1,2.3,1.4,2.3
	c1.3,0,3.3-0.1,5.1-0.1h21.7c1.7,0,3.4,0.1,5.1,0.1c1.5,0,1.5-0.9,1.5-2.4c0-1.7,0.1-2.7-1.3-2.7c-1.8,0-3.6,0.1-5.3,0.1h-1.4
	c-0.6,0-1.1-0.5-1.1-1.1v-0.1l1.1-9.8c0.1-0.3,0.2-1.4,0.4-2.4c0.1-0.8,0.3-1.1,0.3-1.5c0-1.2-1.9-2.7-3.1-2.7
	c-0.2,0-0.5,0.1-0.7,0.1c-0.5,0.1-1.2,0.1-1.8,0.1L786.5,17.3z M833,33.9c2.6,0,4.7,2,4.7,4.6v0.1c0,2.6-2.1,4.7-4.7,4.7
	c-2.6,0-4.7-2.1-4.7-4.7C828.3,36,830.4,33.9,833,33.9z M833,31.2c-4.1,0-7.4,3.3-7.4,7.3l0,0c0,4.1,3.3,7.3,7.4,7.4
	c4.1,0,7.4-3.3,7.4-7.4C840.4,34.5,837.1,31.2,833,31.2C833.1,31.2,833.1,31.2,833,31.2z"/>
</svg>
