<?xml version="1.0" encoding="utf-8"?>
<!-- Generator: Adobe Illustrator 24.2.0, SVG Export Plug-In . SVG Version: 6.00 Build 0)  -->
<svg version="1.1" id="レイヤー_1" xmlns="http://www.w3.org/2000/svg" xmlns:xlink="http://www.w3.org/1999/xlink" x="0px"
	 y="0px" viewBox="0 0 254 68" style="enable-background:new 0 0 254 68;" xml:space="preserve">
<path id="パス_716" d="M13,1.7c-0.3,0-1.3,0.7-1.3,1.1c0,0.1,0.1,0.2,0.2,0.3c0.6,0.6,1.2,1.4,1.8,2c0.1,0.1,0.2,0.3,0.3,0.3
	c0.3,0,1.3-0.8,1.3-1.2C15.4,3.9,13.3,1.7,13,1.7z M10.4,3.5c-0.3,0-1.3,0.7-1.3,1c0,0.1,0.1,0.2,0.2,0.3c0.6,0.7,1.2,1.4,1.7,2
	c0.1,0.1,0.2,0.3,0.4,0.3c0.3,0,1.3-0.8,1.3-1.1C12.8,5.7,10.6,3.5,10.4,3.5z M5.9,9.2c0,0-0.1,0.1-0.2,0.1c-0.1,0-0.2,0-0.2-0.2
	V5.2c0-0.6,0-1.1,0-1.5c0-0.7,0-1.1,0.3-1.4C5.8,2.2,5.8,2.1,5.8,2c0-0.3-1.1-0.5-2.2-0.6c-0.1,0-0.7-0.1-0.8-0.1
	c-0.2,0-0.3,0.1-0.3,0.4c0,0.1,0,0.3,0,0.5c0,0.6,0.1,1.4,0.1,2v14.7c0,1.2-0.1,2.3-0.1,3.5c0,0.8,0.4,0.9,1.5,0.9
	c1.6,0,1.6-0.1,1.6-1.4c0-1,0-2,0-3.1v-7c0-0.2,0.1-0.4,0.3-0.4c0.1,0,0.2,0,0.2,0.1c1.3,0.9,2.6,1.9,3.7,3c0.1,0.2,0.3,0.3,0.6,0.3
	c0.5,0,1.7-1.4,1.7-1.8c0-0.4-1.5-1.6-1.8-1.8c-0.5-0.4-3.1-2.5-3.6-2.5C6.3,8.7,6,9,5.9,9.2z M27.5,10.3c-1.1,0-2.9-0.1-3.2-0.1
	c-0.7,0-0.7,0.2-0.7,1.7c0,0.8,0,1.3,0.7,1.3c1.1,0,2.2,0,3.2,0h11.9c1.1,0,2.1,0,3.2,0c0.7,0,0.7-0.5,0.7-1.3c0-1.4,0-1.6-0.7-1.6
	c-0.3,0-2,0.1-3.2,0.1H27.5z M54.7,8.1c-1,0-2.5-0.1-3.3-0.1c-0.6,0-0.6,0.3-0.6,1.4c0,1.1,0.1,1.5,0.7,1.5c0.8,0,2.1-0.1,3.2-0.1
	h5.1c0.3,0,0.6,0.3,0.6,0.6c0,0.2,0,0.4-0.1,0.7c-0.7,3.6-2.8,6.6-6.2,8c-0.2,0.1-0.7,0.2-0.7,0.5c0,0.4,1.6,1.9,2.1,1.9
	c0.4,0,1.9-1,2.3-1.3c3.2-2.3,4.9-5.7,5.4-9.5c0-0.5,0.2-0.9,0.8-0.9h3.6c1.1,0,2.2,0,3.4,0c0.5,0,0.7-0.2,0.7-1.4
	c0-1.2,0-1.5-0.6-1.5c-1.1,0-2.3,0.1-3.4,0.1h-3.4c-0.5,0-0.8-0.4-0.8-0.9c0-1.1,0-2.3,0-3.4V3.4c0-0.5,0-0.6,0.2-0.8
	c0.1,0,0.1-0.1,0.1-0.2c0-0.2-0.2-0.3-0.4-0.3c-0.3-0.1-2.3-0.3-2.6-0.3c-0.1,0-0.2,0.1-0.2,0.2v0c0,0.1,0,0.2,0,0.3
	c0.1,0.4,0.1,3.6,0.1,4.3v0.3c0,0.6,0,1.2-0.8,1.2H54.7z M95.9,4.2c-0.2,0-0.2,0.2-0.2,0.4c-0.2,1.6-0.6,3.1-1.2,4.6
	c-2.1,5.5-5.8,8.8-11.5,10.2c-0.3,0.1-1.1,0.1-1.1,0.6c0,0.4,1.2,2.1,1.7,2.1c0.2,0,0.4,0,0.6-0.1c2.7-0.7,5.2-2.1,7.4-3.9
	c3.6-3.1,5.4-7,6.7-11.6c0-0.3,0.2-0.5,0.5-0.7c0.1-0.1,0.3-0.2,0.3-0.3c0-0.3-0.7-0.5-1-0.6C97.3,4.6,96.6,4.4,95.9,4.2L95.9,4.2z
	 M87.9,3.6c-0.4,0-1.9,0.8-1.9,1.2c0,0.2,0.1,0.4,0.3,0.5c0.9,1.3,1.7,2.6,2.3,3.9c0.2,0.3,0.3,0.6,0.6,0.6c0.3,0,2.1-0.8,2.1-1.3
	c0-0.4-1.2-2.2-1.5-2.6c-0.4-0.7-0.8-1.4-1.4-2C88.3,3.8,88.1,3.6,87.9,3.6L87.9,3.6z M81.4,5.4c-0.4,0-1.9,0.8-1.9,1.2
	c0,0.2,0.1,0.4,0.3,0.5c0.9,1.3,1.7,2.6,2.3,4c0.1,0.2,0.2,0.6,0.6,0.6s2-0.8,2-1.3c0-0.3-1.2-2.2-1.4-2.6c-0.3-0.5-1.1-1.7-1.4-2.1
	C81.7,5.5,81.6,5.4,81.4,5.4L81.4,5.4z M122.8,2.5c-0.2,0-1.2,0.7-1.2,1.1c0,0.1,0.1,0.2,0.2,0.3c0.6,0.6,1.3,1.3,1.8,2
	c0.1,0.1,0.2,0.3,0.3,0.3c0.3,0,1.2-0.8,1.2-1.2C125.2,4.8,123,2.5,122.8,2.5L122.8,2.5z M119.9,4.5c-0.2,0-1.3,0.7-1.3,1.1
	c0,0.1,0.1,0.3,0.2,0.3c0.6,0.6,1.3,1.3,1.8,2c0.1,0.1,0.2,0.3,0.3,0.3c0.3,0,1.3-0.8,1.3-1.2C122.3,6.7,120.2,4.5,119.9,4.5
	L119.9,4.5z M111.7,2.4c-0.3,0-0.4,0.2-0.4,0.6v0.3c0,1.1-0.2,3.5-0.3,4.7c-0.1,2-0.2,4.1-0.2,6.1c0,1.9,0.1,4.4,1.3,5.9
	c1.1,1.4,2.8,2,4.5,2c3.3-0.1,6.3-1.9,7.8-4.9c0.3-0.7,1.1-2.3,1.1-3c0-0.8-1.6-2.1-2.1-2.1c-0.4,0-0.4,0.4-0.5,0.8
	c-0.2,1.4-0.7,2.7-1.6,3.8c-1.2,1.5-3,2.4-4.9,2.5c-2.8,0-2.7-3.1-2.7-5.1c0-3.2,0.2-6.3,0.7-9.4c0.1-0.6,0.2-0.8,0.6-1.1
	c0.1-0.1,0.1-0.1,0.1-0.2c0-0.3-0.5-0.4-0.9-0.5C113.4,2.7,112.6,2.5,111.7,2.4L111.7,2.4z M144.5,9.5c0.1,0,0.2,0.1,0.2,0.2
	s0,0.2-0.2,0.3c-0.5,0.2-1.5,0.8-2,1.1c-0.2,0.1-0.4,0.2-0.6,0.2c-0.2,0-0.4-0.2-0.5-0.4c-0.3-0.5-0.5-1.1-0.7-1.7c0,0,0-0.1,0-0.2
	c0-0.1,0-0.1,0-0.2c0-0.1-0.2-0.3-0.3-0.3c-0.2,0-0.4,0.1-0.6,0.1c-0.3,0.1-0.6,0.2-0.8,0.3c-0.8,0.3-1.1,0.4-1.1,0.7
	c0,0.2,0.1,0.4,0.3,0.6c0.3,0.3,1.3,1.9,1.3,2.4c0,0.2-0.1,0.5-0.3,0.6c-0.2,0.1-1.6,1.1-1.8,1.2c-0.2,0.1-0.5,0.2-0.5,0.5
	c0,0.5,0.9,1.8,1.4,1.8c0.1,0,0.3-0.1,0.4-0.2c0.3-0.3,1.6-1.4,2-1.4c0.4,0,0.5,0.3,0.7,0.7c0.7,1.5,1.6,2.9,2.3,4.4
	c0.2,0.4,0.4,0.8,0.6,1.3c0.1,0.2,0.2,0.4,0.5,0.4c0.4,0,1.8-0.7,1.8-1.2c-0.1-0.3-0.2-0.6-0.4-0.9c-0.5-0.8-3.4-5.4-3.4-6
	c0-0.2,0.1-0.5,0.4-0.6c1.2-0.8,3.5-1.9,5-1.9c0.9,0,1.7,0.5,1.7,1.5c0,1.5-2.1,2.2-3.3,2.4c-0.5,0.1-1,0.1-1,0.6
	c0,0.3,0.5,1.7,1.2,1.7c0.8-0.1,1.6-0.3,2.3-0.7c1.8-0.8,3.2-2,3.2-4.1c0-2.3-1.7-3.6-3.9-3.6c-0.6,0-1.2,0-1.7,0.2
	c-0.2,0-0.4,0-0.4-0.3c0,0,0-0.1,0-0.1c0.1-0.2,0.1-0.4,0.1-0.6c0-0.4-0.6-0.6-1-0.8c-0.8-0.3-1.7-0.6-2.5-0.8c-0.6,0-1,1.5-1,1.7
	c0,0.3,0.3,0.4,0.6,0.5C143.2,9,143.9,9.3,144.5,9.5L144.5,9.5z M172.9,18.1c1.3,0,1.3,0.3,1.3,0.8c0,0.9-0.4,1.4-1.4,1.4
	c-0.7,0-1.7-0.4-1.7-1.2C171.2,18.3,172.3,18.1,172.9,18.1z M174.2,9c-0.4,0-0.6,0.1-0.6,0.6c0,0.1,0,0.2,0,0.3
	c0.1,1,0.5,4.8,0.5,5.5c0,0.3-0.2,0.4-0.5,0.4h-0.7c-2,0-4.3,0.8-4.3,3.2s2.4,3.5,4.5,3.5c1.7,0,3.3-0.6,3.6-2.5
	c0-0.2,0.1-0.6,0.4-0.6c0.4,0,1.7,0.9,2,1.2c0.2,0.1,0.4,0.3,0.7,0.3c0.6,0,1.6-1.5,1.6-1.9c0-0.6-3.1-2-3.6-2.3
	c-0.1,0-0.2-0.1-0.2-0.1c-0.4-0.1-0.7-0.2-0.8-0.6c-0.1-0.5-0.2-4.2-0.2-5c0-0.5,0-1.3,0-1.4c0-0.3-0.2-0.5-0.5-0.5
	C175.4,9.2,174.8,9.1,174.2,9z M178.1,5.1c-0.5,0-1.7,1.4-1.7,1.8c0,0.2,0.2,0.3,0.3,0.4c1.3,0.9,2.3,2,3.2,3.3
	c0.1,0.2,0.3,0.5,0.6,0.5c0.5,0,1.9-1.2,1.9-1.8C182.5,8.6,178.8,5.1,178.1,5.1L178.1,5.1z M169.5,0.9c-0.2,0-0.2,0.2-0.2,0.4
	c0,0.8-0.4,3.7-0.8,4.3C168.2,6,168,6,167.6,6c-0.9,0.1-1.7,0.1-2.7,0.1h-1.2c-0.3,0-0.5,0.1-0.5,0.4c0,0.2,0.1,1.2,0.2,1.5
	c0.1,0.6,0.2,0.8,0.6,0.8c0.6,0,2.6-0.2,2.8-0.2c0.2,0,0.3,0.1,0.3,0.3l0,0c-0.1,0.5-0.3,1.1-0.6,1.6c-0.9,2-1.9,4-3.1,5.9
	c-0.2,0.3-0.4,0.6-0.5,0.9c0,0.5,1.7,1.3,2.3,1.3c0.3,0,0.3-0.1,0.5-0.3c1.7-3,3-6,4.2-9.2c0.3-0.8,0.3-1,1.2-1.2
	c2.4-0.4,2.7-0.5,2.7-1.1c0-0.4,0-0.9-0.1-1.4c0-0.3-0.1-0.8-0.4-0.8c-0.1,0-0.2,0-0.2,0c-0.5,0.1-1,0.3-1.5,0.4
	c-0.1,0-0.3-0.1-0.3-0.3l0,0c0-0.4,0.1-0.8,0.3-1.2c0.1-0.3,0.2-1.2,0.5-1.4c0.2-0.2,0.4-0.3,0.4-0.5s-0.3-0.2-0.4-0.3
	C171.9,1.5,169.7,0.9,169.5,0.9z M204,2.9c-0.3-0.3-1-1.2-1.4-1.2c-0.1,0-0.3,0.2-0.4,0.3c-1.2,1.6-3.3,3.3-4.8,4.6
	c-0.9,0.7-2.7,2.2-3.3,3c-0.4,0.5-0.6,1.1-0.6,1.8c0,1.2,0.5,1.9,1.2,2.7c1.3,1.5,2.7,2.9,4.1,4.3c1.1,1.1,2.1,2.2,3.1,3.3
	c0.1,0.2,0.5,0.7,0.8,0.7c0.6,0,2.2-1.5,2.2-2.1c0-0.5-1.8-1.9-2.2-2.3c-1.6-1.4-3.2-2.9-4.7-4.4c-0.4-0.5-1.3-1.4-1.3-2
	c0-0.5,0.6-1,1.1-1.5c1.4-1.3,2.8-2.5,4.2-3.6c0.6-0.5,1.3-1,1.9-1.5c0.2-0.2,0.4-0.3,0.7-0.3c0.2,0,0.5,0,0.5-0.2
	C205.3,4.1,204.3,3.1,204,2.9L204,2.9z M218,5.7c0,0.2,0.2,2.7,0.8,2.7c0.1,0,0.2,0,0.4,0c1.9-0.4,3.8-0.8,5.7-1.1
	c0.3,0,1.5-0.2,1.7-0.2c0.1,0,0.4,0.1,0.4,0.3c0,0.1-0.3,0.5-0.5,0.6c-1.8,2-2.8,4.7-2.8,7.4c0,5,3.7,6.4,8.1,6.4
	c0.3,0,0.6,0,0.7-0.2c0.3-0.7,0.4-1.5,0.4-2.3c0-0.4-0.2-0.4-0.6-0.4c-0.2,0-0.8,0-1.3,0c-2.6,0-4.5-0.7-4.5-3.7
	c0-1.6,0.4-3.2,1.2-4.5c0.9-1.8,2.5-3.2,4.4-3.8c1.5-0.5,2.8-0.5,4.3-0.5c0.6,0,1.1,0,1.1-0.5c0-0.6-0.1-1.3-0.2-1.9
	c-0.1-0.3-0.1-0.6-0.5-0.6c-0.1,0-0.2,0-0.3,0c-1.9,0.3-3.9,0.6-5.8,0.8c-3.7,0.4-7.5,0.8-11.3,1.1C218.3,5.2,218,5.1,218,5.7z
	 M244.9,18.1c0,0.2,0.3,0.4,0.5,0.5c1.5,0.9,2.8,2.1,3.9,3.5c0.1,0.1,0.3,0.4,0.5,0.4c0.6,0,1.9-1.4,1.9-2c0-0.6-4.4-4.2-5-4.2
	C246.3,16.3,244.9,17.7,244.9,18.1z M67.2,45C67,45,66,45.8,66,46.1c0,0.1,0.1,0.2,0.2,0.3c0.6,0.6,1.2,1.4,1.8,2
	c0.1,0.1,0.2,0.3,0.3,0.3c0.3,0,1.3-0.8,1.3-1.2C69.6,47.3,67.5,45,67.2,45L67.2,45z M64.6,46.9c-0.3,0-1.3,0.7-1.3,1
	c0,0.1,0.1,0.2,0.2,0.3c0.6,0.7,1.2,1.4,1.7,2c0.1,0.1,0.2,0.3,0.4,0.3c0.3,0,1.3-0.8,1.3-1.1C67,49.1,64.8,46.9,64.6,46.9
	L64.6,46.9z M60.1,52.6c0,0-0.1,0.1-0.2,0.1c-0.1,0-0.2,0-0.2-0.2v-3.9c0-0.6,0-1.1,0-1.5c0-0.7,0-1.1,0.3-1.4
	c0-0.1,0.1-0.2,0.1-0.3c0-0.3-1.1-0.5-2.2-0.6c-0.2,0-0.7-0.1-0.9-0.1c-0.2,0-0.3,0.1-0.3,0.4c0,0.1,0,0.3,0,0.5
	c0,0.6,0.1,1.4,0.1,2v14.7c0,1.2-0.1,2.3-0.1,3.5c0,0.8,0.4,0.9,1.5,0.9c1.6,0,1.6-0.1,1.6-1.4c0-1,0-2,0-3.1v-7
	c0-0.2,0.1-0.4,0.3-0.4c0.1,0,0.2,0,0.2,0.1c1.3,0.9,2.6,1.9,3.7,3c0.1,0.2,0.3,0.3,0.6,0.3c0.5,0,1.7-1.4,1.7-1.8s-1.5-1.6-1.8-1.8
	c-0.5-0.4-3.1-2.5-3.6-2.5C60.5,52,60.3,52.4,60.1,52.6L60.1,52.6z M81.7,53.6c-1.1,0-2.9-0.1-3.2-0.1c-0.7,0-0.7,0.2-0.7,1.7
	c0,0.8,0,1.3,0.7,1.3c1.1,0,2.2,0,3.2,0h11.9c1.1,0,2.1,0,3.2,0c0.7,0,0.7-0.5,0.7-1.3c0-1.4,0-1.6-0.7-1.6c-0.3,0-2,0.1-3.2,0.1
	H81.7z M108.9,51.5c-1,0-2.5-0.1-3.3-0.1c-0.6,0-0.6,0.3-0.6,1.4c0,1.1,0.1,1.5,0.7,1.5c0.8,0,2.1-0.1,3.2-0.1h5.1
	c0.3,0,0.6,0.3,0.6,0.6c0,0.2,0,0.4-0.1,0.7c-0.7,3.6-2.8,6.6-6.2,8c-0.2,0.1-0.7,0.2-0.7,0.5c0,0.4,1.6,1.9,2.1,1.9
	c0.4,0,1.9-1,2.3-1.3c3.2-2.3,4.9-5.7,5.4-9.5c0-0.5,0.2-0.9,0.8-0.9h3.6c1.1,0,2.2,0,3.4,0c0.5,0,0.7-0.2,0.7-1.4
	c0-1.2,0-1.5-0.6-1.5c-1.1,0-2.3,0.1-3.4,0.1h-3.4c-0.5,0-0.8-0.4-0.8-0.9c0-1.1,0-2.3,0-3.4v-0.4c0-0.5,0-0.6,0.2-0.8
	c0.1,0,0.1-0.1,0.1-0.2c0-0.2-0.2-0.3-0.4-0.3c-0.3-0.1-2.3-0.3-2.6-0.3c-0.1,0-0.2,0.1-0.2,0.2v0c0,0.1,0,0.2,0,0.3
	c0.1,0.4,0.1,3.6,0.1,4.3v0.3c0,0.6,0,1.2-0.8,1.2H108.9z M136.4,53.5c-1.1,0-2.6-0.1-3.3-0.1c-0.7,0-0.6,0.4-0.6,1.5
	c0,0.8,0,1.3,0.7,1.3c0.8,0,2,0,3.2,0h5.2c0.2,0,0.4,0.2,0.5,0.4l0,0c-0.1,0.4-0.2,0.9-0.4,1.3c-1.2,2.9-3,4.4-5.7,5.8
	c-0.2,0.1-0.6,0.2-0.6,0.5c0,0.4,1.5,1.8,1.9,1.8c0.5,0,2.5-1.5,3-1.8c2.2-1.7,3.8-4.2,4.6-6.9c0.2-0.6,0.3-1.1,1.1-1.1h3.9
	c1.1,0,2.2,0,3.3,0c0.6,0,0.7-0.3,0.7-1.3c0-1.1,0-1.5-0.7-1.5c-1,0-2.2,0-3.4,0h-3.6c-0.4,0-0.6-0.3-0.6-0.7c0-0.5,0-0.9,0-1.4
	s0-0.9,0-1.4c0-0.4,0.3-0.6,0.7-0.7c0.5-0.1,1.1-0.3,1.7-0.4c0.4-0.1,2.2-0.7,2.5-0.7c0.1,0,0.1,0,0.2,0c0.1,0,0.2,0,0.2,0
	c0.1,0,0.3-0.1,0.3-0.2c0-0.3-1-1.3-1.3-1.6c-0.2-0.2-0.8-0.8-1.1-0.8c-0.1,0-0.3,0.1-0.4,0.2c-0.7,0.5-2.6,1-3.4,1.2
	c-2.6,0.5-5.2,0.8-7.9,0.8c-0.4,0-1,0-1.2,0c-0.3,0-0.5,0.1-0.5,0.5c0,0.6,0.2,1.1,0.5,1.7c0.2,0.5,0.3,0.6,0.9,0.6
	c1.8,0,5.3-0.4,5.4-0.4c0.6,0,0.6,0.5,0.6,1.8c0,0.7,0,1.7-0.8,1.7L136.4,53.5z M168.9,52.1c-1,0-2.1,0-2.5,0
	c-0.6,0-0.6,0.5-0.6,1.2c0,0.8,0,1.3,0.6,1.3c0.6,0,1.7,0,2.5,0h3.6c0.3,0,0.7,0.1,0.7,0.5c0,0-0.1,0.4-0.1,0.5l-0.5,4.5
	c0,0.3-0.3,0.6-0.7,0.6h-6.2c-0.7,0-2,0-2.5,0c-0.6,0-0.6,0.5-0.6,1.4c0,0.5,0,1.1,0.7,1.1c0.6,0,1.6,0,2.5,0h10.5
	c0.8,0,1.7,0,2.5,0c0.7,0,0.7-0.4,0.7-1.2c0-0.8,0-1.3-0.6-1.3c-0.9,0-1.7,0-2.6,0h-0.7c-0.3,0-0.5-0.2-0.5-0.5v0l0.5-4.8
	c0-0.1,0.1-0.7,0.2-1.2c0-0.4,0.1-0.5,0.1-0.7c0-0.6-0.9-1.3-1.5-1.3c-0.1,0-0.2,0-0.3,0c-0.2,0-0.6,0-0.9,0L168.9,52.1z
	 M191.5,60.2c1.3,0,2.3,1,2.3,2.2v0c0,1.3-1,2.3-2.3,2.3c-1.3,0-2.3-1-2.3-2.3S190.2,60.2,191.5,60.2z M191.5,58.9
	c-2,0-3.6,1.6-3.6,3.5l0,0c0,2,1.6,3.5,3.6,3.6c2,0,3.6-1.6,3.6-3.6C195.1,60.5,193.5,58.9,191.5,58.9
	C191.5,58.9,191.5,58.9,191.5,58.9z"/>
</svg>
