<?xml version="1.0" encoding="utf-8"?>
<!-- Generator: Adobe Illustrator 24.2.0, SVG Export Plug-In . SVG Version: 6.00 Build 0)  -->
<svg version="1.1" id="レイヤー_1" xmlns="http://www.w3.org/2000/svg" xmlns:xlink="http://www.w3.org/1999/xlink" x="0px"
	 y="0px" viewBox="0 0 494 36" style="enable-background:new 0 0 494 36;" xml:space="preserve">
<style type="text/css">
	.st0{fill:#FFFFFF;}
	.st1{fill:#EAE6E2;}
</style>
<g id="グループ_751" transform="translate(-7 -13)">
	<g id="長方形_3" transform="translate(7 13)">
		<path class="st0" d="M17.5,1.5h459c9.1,0,16.5,7.4,16.5,16.5l0,0c0,9.1-7.4,16.5-16.5,16.5h-459C8.4,34.5,1,27.1,1,18l0,0
			C1,8.9,8.4,1.5,17.5,1.5z"/>
		<path class="st1" d="M476.5,34.5h-459C8.4,34.5,1,27.1,1,18C1,8.9,8.4,1.5,17.5,1.5h459c9.1,0,16.5,7.4,16.5,16.5
			C493,27.1,485.6,34.5,476.5,34.5z M17.5,2.5C9,2.5,2,9.5,2,18s7,15.5,15.5,15.5h459c8.5,0,15.5-7,15.5-15.5s-7-15.5-15.5-15.5
			H17.5z"/>
	</g>
	<path id="パス_673" d="M36.6,32.5c0,1.1-0.4,2.1-1.2,2.9c-0.7,0.8-1.8,1.2-2.9,1.2c-1.1,0-2.1-0.4-2.9-1.2
		c-0.8-0.8-1.2-1.8-1.2-2.9v-5c0-0.2,0.1-0.4,0.2-0.5c0.1-0.1,0.3-0.2,0.5-0.2c0.2,0,0.4,0.1,0.6,0.2c0.2,0.1,0.2,0.3,0.2,0.5v5
		c0,0.7,0.3,1.3,0.7,1.8c0.5,0.5,1.1,0.7,1.8,0.7c0.7,0,1.3-0.3,1.8-0.7c0.5-0.5,0.7-1.1,0.7-1.8v-5c0-0.2,0.1-0.4,0.2-0.5
		c0.1-0.1,0.3-0.2,0.6-0.2c0.2,0,0.4,0.1,0.5,0.2c0.1,0.1,0.2,0.3,0.2,0.5V32.5z M42.4,36.3c-0.1,0.1-0.3,0.2-0.5,0.2
		c-0.2,0-0.4-0.1-0.5-0.2c-0.1-0.1-0.2-0.3-0.2-0.5v-8.3c0-0.2,0.1-0.4,0.2-0.5c0.1-0.1,0.3-0.2,0.5-0.2h4.6c0.2,0,0.4,0.1,0.5,0.2
		c0.1,0.1,0.2,0.3,0.2,0.5c0,0.2-0.1,0.4-0.2,0.5c-0.1,0.1-0.3,0.2-0.5,0.2h-3.8v2.6h3.3c0.2,0,0.4,0.1,0.5,0.2
		c0.1,0.1,0.2,0.3,0.2,0.5c0,0.2-0.1,0.4-0.2,0.5c-0.1,0.2-0.3,0.2-0.5,0.2h-3.3v3.4C42.7,35.9,42.6,36.1,42.4,36.3z M58.9,32.5
		c0,1.1-0.4,2.1-1.2,2.9c-0.7,0.8-1.8,1.2-2.9,1.2c-1.1,0-2.1-0.4-2.9-1.2c-0.8-0.8-1.2-1.8-1.2-2.9v-5c0-0.2,0.1-0.4,0.2-0.5
		c0.1-0.1,0.3-0.2,0.5-0.2c0.2,0,0.4,0.1,0.6,0.2c0.2,0.1,0.2,0.3,0.2,0.5v5c0,0.7,0.3,1.3,0.7,1.8c0.5,0.5,1.1,0.7,1.8,0.7
		c0.7,0,1.3-0.3,1.8-0.7c0.5-0.5,0.7-1.1,0.7-1.8v-5c0-0.2,0.1-0.4,0.2-0.5c0.1-0.1,0.3-0.2,0.6-0.2c0.2,0,0.4,0.1,0.5,0.2
		c0.1,0.1,0.2,0.3,0.2,0.5L58.9,32.5z M64.8,36.3c-0.1,0.1-0.3,0.2-0.5,0.2c-0.2,0-0.4-0.1-0.5-0.2c-0.1-0.1-0.2-0.3-0.2-0.5v-8.3
		c0-0.2,0.1-0.4,0.2-0.5c0.1-0.1,0.3-0.2,0.5-0.2h4.6c0.2,0,0.4,0.1,0.5,0.2c0.1,0.1,0.2,0.3,0.2,0.5c0,0.2-0.1,0.4-0.2,0.5
		c-0.1,0.1-0.3,0.2-0.5,0.2h-3.8v2.6h3.3c0.2,0,0.4,0.1,0.5,0.2c0.1,0.1,0.2,0.3,0.2,0.5c0,0.2-0.1,0.4-0.2,0.5
		c-0.1,0.2-0.3,0.2-0.5,0.2h-3.3v3.4C65.1,35.9,65,36.1,64.8,36.3z M81.3,32.5c0,1.1-0.4,2.1-1.2,2.9c-0.7,0.8-1.8,1.2-2.9,1.2
		c-1.1,0-2.1-0.4-2.9-1.2c-0.8-0.8-1.2-1.8-1.2-2.9v-5c0-0.2,0.1-0.4,0.2-0.5c0.1-0.1,0.3-0.2,0.5-0.2c0.2,0,0.4,0.1,0.6,0.2
		c0.2,0.1,0.2,0.3,0.2,0.5v5c0,0.7,0.3,1.3,0.7,1.8c0.5,0.5,1.1,0.7,1.8,0.7c0.7,0,1.3-0.3,1.8-0.7c0.5-0.5,0.7-1.1,0.7-1.8v-5
		c0-0.2,0.1-0.4,0.2-0.5c0.1-0.1,0.3-0.2,0.6-0.2c0.2,0,0.4,0.1,0.5,0.2c0.1,0.1,0.2,0.3,0.2,0.5V32.5z M92.9,29.9v5.8
		c0,0.2-0.1,0.4-0.2,0.5c-0.1,0.1-0.3,0.2-0.5,0.2c-0.2,0-0.4-0.1-0.5-0.2c-0.1-0.1-0.2-0.3-0.2-0.5v-8.1c0-0.2,0.1-0.5,0.3-0.6
		c0.2-0.1,0.4-0.2,0.6-0.2c0.2,0,0.4,0.1,0.5,0.3l4.5,6.3v-5.8c0-0.2,0.1-0.4,0.2-0.5c0.1-0.1,0.3-0.2,0.5-0.2
		c0.2,0,0.4,0.1,0.5,0.2c0.1,0.1,0.2,0.3,0.2,0.5v8.1c0,0.2-0.1,0.4-0.2,0.5c-0.1,0.1-0.3,0.2-0.6,0.2c-0.2,0-0.4-0.1-0.6-0.3
		c0,0-0.1-0.1-0.1-0.1L92.9,29.9z M104.2,36.5c-0.2,0-0.4-0.1-0.5-0.2c-0.1-0.1-0.2-0.3-0.2-0.5v-8.3c0-0.2,0.1-0.4,0.2-0.5
		c0.1-0.1,0.3-0.2,0.5-0.2h4.6c0.2,0,0.4,0.1,0.5,0.2c0.2,0.1,0.2,0.3,0.2,0.5c0,0.2-0.1,0.4-0.2,0.6c-0.1,0.1-0.3,0.2-0.5,0.2H105
		v2.6h3.3c0.2,0,0.4,0.1,0.5,0.2c0.1,0.1,0.2,0.3,0.2,0.5c0,0.2-0.1,0.4-0.2,0.5c-0.1,0.2-0.3,0.2-0.5,0.2H105v2.6h3.8
		c0.2,0,0.4,0.1,0.5,0.2c0.1,0.1,0.2,0.3,0.2,0.5c0,0.2-0.1,0.4-0.2,0.5c-0.1,0.1-0.3,0.2-0.5,0.2H104.2L104.2,36.5L104.2,36.5z
		 M117.1,36.4l-0.1,0.1h0c0,0-0.1,0-0.1,0h0c0,0-0.1,0-0.1,0c0,0-0.1,0-0.1,0h0c-0.1,0-0.1,0-0.1,0l0,0c0,0-0.1,0-0.1-0.1h0
		c0,0-0.1-0.1-0.1-0.1c0,0-0.1-0.1-0.1-0.1v0c0,0,0,0,0-0.1c0,0,0,0,0-0.1l-3.4-8.2c-0.1-0.2-0.1-0.4,0-0.6c0.1-0.2,0.2-0.3,0.4-0.4
		c0.2-0.1,0.4-0.1,0.6,0c0.2,0.1,0.3,0.2,0.4,0.4l2.7,6.5l1.8-4.3c0.1-0.3,0.4-0.5,0.7-0.5c0.3,0,0.6,0.2,0.7,0.5l1.8,4.3l2.7-6.5
		c0.1-0.2,0.2-0.3,0.4-0.4c0.2-0.1,0.4-0.1,0.6,0c0.2,0.1,0.3,0.2,0.4,0.4c0.1,0.2,0.1,0.4,0,0.6l-3.4,8.2c0,0.1-0.1,0.2-0.2,0.2
		c0,0,0,0,0,0c0,0-0.1,0-0.1,0.1h0l-0.1,0.1h0c0,0,0,0,0,0c0,0,0,0-0.1,0h0c0,0-0.1,0-0.1,0c0,0-0.1,0-0.1,0h0c-0.1,0-0.1,0-0.1,0
		c0,0,0,0,0,0c0,0-0.1,0-0.1-0.1h0c-0.1,0-0.1-0.1-0.2-0.2c0,0-0.1-0.1-0.1-0.1l-1.8-4.3l-1.8,4.3c0,0,0,0.1-0.1,0.1l-0.1,0.1
		c0,0,0,0,0,0C117.2,36.3,117.1,36.3,117.1,36.4L117.1,36.4z M135.4,33.5c0-0.7-0.8-1.2-2.5-1.5h0c-0.7-0.1-1.3-0.3-1.9-0.6
		c-0.5-0.2-0.9-0.5-1.2-1c-0.2-0.4-0.4-0.8-0.4-1.2c0-0.8,0.4-1.6,1.1-2c0.7-0.5,1.6-0.8,2.5-0.8c0.4,0,0.9,0.1,1.3,0.2
		c0.3,0.1,0.7,0.2,1,0.4c0.2,0.1,0.5,0.3,0.8,0.5c0.2,0.1,0.3,0.3,0.3,0.5c0,0.2,0,0.4-0.1,0.5c-0.1,0.2-0.3,0.3-0.5,0.3
		c-0.2,0-0.4,0-0.5-0.1c-0.4-0.3-0.8-0.5-1.2-0.7c-0.3-0.1-0.7-0.2-1.1-0.2c-0.5,0-1.1,0.1-1.5,0.4c-0.3,0.2-0.6,0.5-0.6,0.9
		c0,0.1,0,0.3,0.1,0.4c0.3,0.4,1,0.8,2.1,1h0c0.7,0.1,1.3,0.3,1.9,0.6c1,0.4,1.7,1.3,1.7,2.4c0,0.9-0.4,1.7-1.1,2.1
		c-0.8,0.6-1.7,0.8-2.6,0.8c-1.3,0-2.6-0.5-3.6-1.4c-0.1-0.1-0.2-0.3-0.3-0.5c0-0.2,0-0.4,0.1-0.5c0.1-0.1,0.3-0.2,0.5-0.3
		c0.2,0,0.4,0,0.5,0.2c0.7,0.7,1.7,1,2.7,1.1c0.6,0,1.2-0.1,1.7-0.5C135.1,34.3,135.4,34,135.4,33.5z"/>
</g>
</svg>
