<?xml version="1.0" encoding="utf-8"?>
<!-- Generator: Adobe Illustrator 24.2.0, SVG Export Plug-In . SVG Version: 6.00 Build 0)  -->
<svg version="1.1" id="レイヤー_1" xmlns="http://www.w3.org/2000/svg" xmlns:xlink="http://www.w3.org/1999/xlink" x="0px"
	 y="0px" viewBox="0 0 270 92" style="enable-background:new 0 0 270 92;" xml:space="preserve">
<g id="グループ_1040" transform="translate(-54.042 -5760.839)">
	<path id="パス_722" d="M67.2,5846.1c0,1.7-0.6,3.3-1.9,4.5c-1.2,1.2-2.8,1.9-4.5,1.9c-1.7,0-3.3-0.6-4.5-1.9
		c-1.2-1.2-1.9-2.8-1.9-4.5v-7.8c0-0.3,0.1-0.6,0.4-0.9c0.2-0.2,0.5-0.4,0.9-0.4c0.3,0,0.6,0.1,0.9,0.4c0.2,0.2,0.4,0.5,0.4,0.9v7.8
		c0,1,0.4,2,1.1,2.8c0.7,0.8,1.7,1.2,2.8,1.2c1,0,2-0.4,2.8-1.1c0.7-0.7,1.2-1.7,1.1-2.8v-7.8c0-0.3,0.1-0.6,0.4-0.9
		c0.2-0.2,0.5-0.4,0.9-0.4c0.3,0,0.6,0.1,0.9,0.4c0.2,0.2,0.4,0.5,0.4,0.9V5846.1z M76.2,5852.1c-0.2,0.2-0.5,0.4-0.9,0.4
		c-0.3,0-0.6-0.1-0.9-0.4c-0.2-0.2-0.4-0.5-0.4-0.9v-13c0-0.3,0.1-0.6,0.4-0.9c0.2-0.2,0.5-0.4,0.9-0.4h7.2c0.3,0,0.6,0.1,0.8,0.4
		c0.2,0.2,0.4,0.5,0.4,0.9c0,0.3-0.1,0.6-0.4,0.9c-0.2,0.2-0.5,0.4-0.8,0.4h-6v4h5.1c0.3,0,0.6,0.1,0.8,0.4c0.2,0.2,0.4,0.5,0.4,0.9
		c0,0.3-0.1,0.6-0.4,0.9c-0.2,0.2-0.5,0.4-0.9,0.4h-5.1v5.3C76.6,5851.5,76.5,5851.8,76.2,5852.1L76.2,5852.1z M102,5846.1
		c0,1.7-0.7,3.3-1.9,4.5c-1.2,1.2-2.8,1.9-4.5,1.9c-1.7,0-3.3-0.6-4.5-1.9c-1.2-1.2-1.9-2.8-1.9-4.5v-7.8c0-0.3,0.1-0.6,0.4-0.9
		c0.2-0.2,0.5-0.4,0.9-0.4c0.3,0,0.6,0.1,0.9,0.4c0.2,0.2,0.4,0.5,0.4,0.9v7.8c0,1,0.4,2,1.1,2.8c0.7,0.8,1.7,1.2,2.8,1.2
		c1,0,2-0.4,2.8-1.1c0.7-0.7,1.2-1.7,1.1-2.8v-7.8c0-0.3,0.1-0.6,0.4-0.9c0.2-0.2,0.5-0.4,0.9-0.4c0.3,0,0.6,0.1,0.9,0.4
		c0.2,0.2,0.4,0.5,0.4,0.9L102,5846.1z M111,5852.1c-0.2,0.2-0.5,0.4-0.9,0.4c-0.3,0-0.6-0.1-0.9-0.4c-0.2-0.2-0.4-0.5-0.4-0.9v-13
		c0-0.3,0.1-0.6,0.4-0.9c0.2-0.2,0.5-0.4,0.9-0.4h7.2c0.3,0,0.6,0.1,0.8,0.4c0.2,0.2,0.4,0.5,0.4,0.9c0,0.3-0.1,0.6-0.4,0.9
		c-0.2,0.2-0.5,0.4-0.8,0.4h-6v4h5.1c0.3,0,0.6,0.1,0.8,0.4c0.2,0.2,0.4,0.5,0.4,0.9c0,0.3-0.1,0.6-0.4,0.9
		c-0.2,0.2-0.5,0.4-0.9,0.4h-5.1v5.3C111.4,5851.5,111.2,5851.8,111,5852.1L111,5852.1z M136.7,5846.1c0,1.7-0.7,3.3-1.9,4.5
		c-1.2,1.2-2.8,1.9-4.5,1.9c-1.7,0-3.3-0.6-4.5-1.9c-1.2-1.2-1.9-2.8-1.9-4.5v-7.8c0-0.3,0.1-0.6,0.4-0.9c0.2-0.2,0.5-0.4,0.9-0.4
		c0.3,0,0.6,0.1,0.9,0.4c0.2,0.2,0.4,0.5,0.4,0.9v7.8c0,1,0.4,2,1.1,2.8c0.7,0.8,1.7,1.2,2.8,1.2c1,0,2-0.4,2.8-1.1
		c0.7-0.7,1.2-1.7,1.1-2.8v-7.8c0-0.3,0.1-0.6,0.4-0.9c0.2-0.2,0.5-0.4,0.9-0.4c0.3,0,0.6,0.1,0.9,0.4c0.2,0.2,0.4,0.5,0.4,0.9
		L136.7,5846.1z M154.4,5842.1v9.1c0,0.3-0.1,0.6-0.4,0.8c-0.2,0.2-0.5,0.4-0.9,0.4c-0.3,0-0.6-0.1-0.8-0.4
		c-0.2-0.2-0.4-0.5-0.4-0.9v-12.8c-0.1-0.4,0.1-0.8,0.4-1c0.3-0.2,0.6-0.3,1-0.3c0.3,0,0.6,0.2,0.8,0.5l7.1,9.8v-9.1
		c0-0.3,0.1-0.6,0.4-0.8c0.2-0.2,0.5-0.4,0.8-0.4c0.3,0,0.6,0.1,0.8,0.4c0.2,0.2,0.4,0.5,0.4,0.8v12.8c0,0.3-0.1,0.6-0.4,0.9
		c-0.2,0.2-0.5,0.4-0.9,0.4c-0.3,0-0.7-0.2-0.9-0.4c0,0-0.1-0.1-0.1-0.1L154.4,5842.1z M171.9,5852.4c-0.3,0-0.6-0.1-0.9-0.4
		c-0.2-0.2-0.4-0.5-0.4-0.9v-13c0-0.3,0.1-0.6,0.4-0.9c0.2-0.2,0.5-0.4,0.9-0.4h7.2c0.3,0,0.6,0.1,0.8,0.4c0.2,0.2,0.4,0.5,0.4,0.9
		c0,0.3-0.1,0.6-0.4,0.9c-0.2,0.2-0.5,0.4-0.8,0.4h-6v4h5.1c0.3,0,0.6,0.1,0.8,0.4c0.2,0.2,0.4,0.5,0.4,0.9c0,0.3-0.1,0.6-0.4,0.9
		c-0.2,0.2-0.5,0.4-0.9,0.4h-5.1v4h6c0.3,0,0.6,0.1,0.8,0.4c0.2,0.2,0.4,0.5,0.4,0.9c0,0.3-0.1,0.6-0.4,0.9
		c-0.2,0.2-0.5,0.4-0.9,0.4H171.9L171.9,5852.4L171.9,5852.4z M192,5852.2l-0.2,0.1h0c-0.1,0-0.1,0-0.2,0.1h-0.1c-0.1,0-0.1,0-0.2,0
		c-0.1,0-0.1,0-0.2,0h-0.1c-0.1,0-0.1,0-0.2-0.1s0,0-0.1,0c-0.1,0-0.1-0.1-0.2-0.1h0c-0.1,0-0.1-0.1-0.2-0.2
		c-0.1-0.1-0.1-0.1-0.1-0.1v0c0,0,0-0.1-0.1-0.1s0-0.1-0.1-0.1l-5.4-12.8c-0.1-0.3-0.1-0.6,0-0.9c0.1-0.3,0.4-0.5,0.6-0.6
		c0.3-0.1,0.6-0.1,0.9,0c0.3,0.1,0.5,0.3,0.6,0.6l4.3,10.2l2.8-6.8c0.2-0.5,0.6-0.8,1.1-0.7c0.5,0,1,0.3,1.2,0.7l2.8,6.8l4.3-10.2
		c0.1-0.3,0.4-0.5,0.7-0.6c0.3-0.1,0.6-0.1,0.9,0c0.3,0.1,0.5,0.4,0.6,0.7c0.1,0.3,0.1,0.6,0,0.9l-5.4,12.8c0,0.1-0.1,0.3-0.2,0.3
		c0,0,0,0,0,0.1c-0.1,0-0.1,0.1-0.2,0.1h0l-0.2,0.1h0c0,0,0,0,0,0c0,0-0.1,0-0.2,0.1h0c-0.1,0-0.1,0-0.2,0c-0.1,0-0.1,0-0.2,0h-0.1
		c-0.1,0-0.1,0-0.2-0.1c0,0-0.1,0-0.1,0c-0.1,0-0.1-0.1-0.2-0.1h0c-0.1-0.1-0.2-0.2-0.3-0.3c-0.1-0.1-0.1-0.1-0.1-0.2l-2.9-6.8
		l-2.9,6.8c0,0.1-0.1,0.1-0.1,0.2l-0.2,0.1c0,0,0,0,0,0.1C192.1,5852.1,192.1,5852.2,192,5852.2L192,5852.2z M220.6,5847.7
		c0-1.1-1.3-1.9-3.9-2.4h0c-1-0.2-2-0.5-3-0.9c-0.7-0.3-1.4-0.9-1.8-1.5c-0.4-0.6-0.6-1.2-0.6-1.9c0-1.3,0.6-2.4,1.7-3.1
		c1.1-0.8,2.5-1.3,3.9-1.2c0.7,0,1.3,0.1,2,0.3c0.5,0.2,1,0.4,1.5,0.6c0.3,0.2,0.8,0.5,1.3,0.8c0.2,0.2,0.4,0.4,0.5,0.7
		c0.1,0.3,0,0.6-0.2,0.8c-0.2,0.3-0.4,0.4-0.7,0.5c-0.3,0.1-0.6,0-0.9-0.2c-0.6-0.4-1.2-0.8-1.8-1.1c-0.5-0.2-1.1-0.4-1.7-0.4
		c-0.8,0-1.7,0.2-2.4,0.7c-0.5,0.3-0.9,0.8-0.9,1.5c0,0.2,0.1,0.4,0.2,0.6c0.4,0.7,1.5,1.2,3.3,1.5h0c1,0.2,2.1,0.5,3,0.9
		c1.8,0.9,2.7,2.1,2.7,3.7c0,1.4-0.7,2.6-1.8,3.4c-1.2,0.9-2.7,1.3-4.2,1.3c-2.1-0.1-4.1-0.8-5.6-2.2c-0.2-0.2-0.4-0.5-0.4-0.8
		c0-0.3,0-0.6,0.2-0.8c0.2-0.2,0.5-0.4,0.8-0.4c0.3,0,0.6,0,0.8,0.3c1.2,1,2.6,1.6,4.2,1.7c0.9,0,1.9-0.2,2.7-0.8
		C220.1,5849,220.5,5848.4,220.6,5847.7z M237.6,5852.4c-0.3,0-0.6-0.1-0.9-0.4c-0.2-0.2-0.4-0.5-0.4-0.9v-13c0-0.3,0.1-0.6,0.4-0.9
		c0.2-0.2,0.5-0.4,0.9-0.4c0.3,0,0.6,0.1,0.9,0.4c0.2,0.2,0.4,0.5,0.4,0.9v11.7h6c0.3,0,0.6,0.1,0.8,0.4c0.2,0.2,0.4,0.5,0.4,0.9
		c0,0.3-0.1,0.6-0.4,0.9c-0.2,0.2-0.5,0.4-0.8,0.4H237.6z M259.4,5851.6l-1.1-2.9H253l-1.1,2.9c-0.1,0.5-0.6,0.8-1.1,0.8
		c-0.4,0-0.9-0.2-1.1-0.5c-0.2-0.3-0.3-0.7-0.1-1.1l4.9-13c0.1-0.2,0.3-0.4,0.5-0.6c0.2-0.1,0.4-0.2,0.7-0.2c0.5-0.1,1,0.3,1.2,0.8
		l4.9,13c0.1,0.4,0.1,0.8-0.1,1.1c-0.2,0.4-0.7,0.6-1.1,0.5C260,5852.4,259.5,5852.1,259.4,5851.6z M253.9,5846.4h3.6l-1.8-4.7
		L253.9,5846.4z M276.7,5837.4c0.2,0.2,0.4,0.5,0.4,0.9c0,0.3-0.1,0.6-0.4,0.9c-0.2,0.2-0.5,0.4-0.8,0.4h-3.5v11.8
		c0,0.3-0.1,0.6-0.4,0.9c-0.2,0.2-0.5,0.4-0.9,0.4c-0.3,0-0.6-0.1-0.9-0.4c-0.2-0.2-0.4-0.5-0.4-0.9v-11.7h-3.5
		c-0.3,0-0.6-0.1-0.9-0.4c-0.2-0.2-0.4-0.5-0.4-0.9c0-0.3,0.1-0.6,0.4-0.9c0.2-0.2,0.5-0.4,0.9-0.4h9.4
		C276.2,5837,276.5,5837.1,276.7,5837.4L276.7,5837.4z M292.7,5837.4c0.2,0.2,0.4,0.5,0.4,0.9c0,0.3-0.1,0.6-0.4,0.9
		c-0.2,0.2-0.5,0.4-0.8,0.4h-3.5v11.8c0,0.3-0.1,0.6-0.4,0.9c-0.2,0.2-0.5,0.4-0.9,0.4c-0.3,0-0.6-0.1-0.9-0.4
		c-0.2-0.2-0.4-0.5-0.4-0.9v-11.7h-3.5c-0.3,0-0.6-0.1-0.9-0.4c-0.2-0.2-0.4-0.5-0.4-0.9c0-0.3,0.1-0.6,0.4-0.9
		c0.2-0.2,0.5-0.4,0.9-0.4h9.4C292.2,5837,292.5,5837.1,292.7,5837.4L292.7,5837.4z M299.7,5852.4c-0.3,0-0.6-0.1-0.9-0.4
		c-0.2-0.2-0.4-0.5-0.4-0.9v-13c0-0.3,0.1-0.6,0.4-0.9c0.2-0.2,0.5-0.4,0.9-0.4h7.2c0.3,0,0.6,0.1,0.8,0.4c0.2,0.2,0.4,0.5,0.4,0.9
		c0,0.3-0.1,0.6-0.4,0.9c-0.2,0.2-0.5,0.4-0.8,0.4h-6v4h5.1c0.3,0,0.6,0.1,0.8,0.4c0.2,0.2,0.4,0.5,0.4,0.9c0,0.3-0.1,0.6-0.4,0.9
		c-0.2,0.2-0.5,0.4-0.9,0.4h-5.1v4h6c0.3,0,0.6,0.1,0.8,0.4c0.2,0.2,0.4,0.5,0.4,0.9c0,0.3-0.1,0.6-0.4,0.9
		c-0.2,0.2-0.5,0.4-0.8,0.4H299.7L299.7,5852.4L299.7,5852.4z M321.1,5845.4c1,0.8,1.6,1.9,1.5,3.2c0,0.4,0,0.9,0.1,1.3
		c0.4,0.1,0.7,0.4,0.8,0.8c0.1,0.4,0.1,0.8-0.2,1.1c-0.3,0.3-0.7,0.5-1.1,0.5h0c-0.7,0-1.3-0.4-1.6-1c-0.3-0.8-0.5-1.7-0.5-2.6
		c0-0.7-0.4-1.2-0.9-1.6c-0.4-0.2-0.8-0.4-1.2-0.5h-2.6v4.8c0,0.3-0.1,0.6-0.4,0.9c-0.2,0.2-0.5,0.4-0.9,0.4c-0.3,0-0.6-0.1-0.9-0.4
		c-0.2-0.2-0.4-0.5-0.4-0.9v-13c0-0.3,0.1-0.6,0.4-0.9c0.2-0.2,0.5-0.4,0.9-0.4h3.9c1.3,0,2.5,0.5,3.3,1.4c0.9,0.9,1.4,2.2,1.4,3.5
		C322.8,5843.2,322.2,5844.5,321.1,5845.4z M318.1,5844c0.6,0,1.2-0.2,1.6-0.7c0.4-0.4,0.7-1,0.7-1.6c0-0.6-0.2-1.2-0.7-1.6
		c-0.4-0.4-1-0.7-1.6-0.7h-2.7v4.5L318.1,5844z"/>
	<g id="グループ_865" transform="translate(1655.251 -429.175)">
		<path id="パス_623" d="M-1468.7,6200.4c1.1,0.4,2.3,0.7,3.4,0.9c1.2,0.2,2.5,0.2,3.8-0.1c0.1,0,0.2,0,0.3-0.1l0,0
			c-0.6-1.6-0.8-3.4-0.6-5.1c-0.9-0.2-1.7-0.3-2.6-0.4c-0.8,1.3-1.7,2.5-2.7,3.6C-1467.7,6199.7-1468.2,6200.1-1468.7,6200.4z"/>
		<path id="パス_624" d="M-1462.2,6192.8c-0.4-0.2-1,0.7-1.8,2c0.7,0.1,1.4,0.2,2.1,0.4C-1461.8,6193.9-1461.7,6193-1462.2,6192.8
			z"/>
		<path id="パス_625" d="M-1456.9,6236.4c0.6-2.5,2-3.2,4.2-7.3c2.4-4.3,2.7-9.4,0.8-13.9c-0.7-1.6-1.7-3.2-2.7-4.6
			c-3.8,1.9-9.1,1.2-12.8-0.1c-0.1,0-0.2-0.1-0.3-0.2c-5.7-0.8-10.1-3-11.9-5.9c-1.8,0.7-3.4,1.6-5,2.7c-6.6,4.7-5.9,10.3-6.5,14.2
			c-0.3,2.3-0.5,3.3-1.3,4.5c-0.7,1.1-1.9,1.9-3.2,2.2c1,2.4,4.5,3.3,6.3,2.9c1.8-0.5,4-2.3,5-6.4c3.4,1.7,6.9,3.1,10.6,4.2
			c5.7,1.8,8.8,2.7,11,2.8c-1.9,4.8-1.4,6.5,0.3,8.2c1.8,1.9,4.9,1.7,6.7,0.9C-1456.9,6239.6-1457.3,6238-1456.9,6236.4z"/>
		<path id="パス_626" d="M-1470,6201.1L-1470,6201.1c2,1.2,4.3,1.8,6.6,1.7C-1465.7,6202.8-1468,6202.2-1470,6201.1z"/>
		<path id="パス_627" d="M-1481.3,6228.1c-0.7-0.2-1.4,0.1-1.7,0.8c-0.2,0.7,0.1,1.4,0.8,1.7c0.7,0.2,1.4-0.1,1.6-0.8
			C-1480.2,6229.1-1480.6,6228.3-1481.3,6228.1C-1481.3,6228.1-1481.3,6228.1-1481.3,6228.1z"/>
		<path id="パス_628" d="M-1467.2,6232.8c-0.7-0.2-1.4,0.1-1.7,0.8c-0.2,0.7,0.1,1.4,0.8,1.7c0.7,0.2,1.4-0.1,1.6-0.8
			C-1466.2,6233.8-1466.6,6233.1-1467.2,6232.8C-1467.2,6232.8-1467.2,6232.8-1467.2,6232.8z"/>
		<path id="パス_629" d="M-1476.2,6241.2l0.3-0.9c0,0,0,0,0,0c-0.8,0-1.6-0.3-2.1-0.8c-0.2-0.2-0.3-0.5-0.2-0.8
			c0-0.3,0.2-0.6,0.4-0.7c0,0,0.1,0,0.1-0.1c0.2-0.2,0.5-0.4,1.3-0.1c0.2,0.1,0.3,0.1,0.4,0.2l0.2,0.1c0,0,0,0,0,0c0,0,0,0,0-0.1
			l0-0.1c0-0.1,0-0.1,0-0.1l0.1-0.4c0,0,0,0,0,0c0,0,0,0,0,0l-0.1-0.1c-0.5-0.2-0.9-0.4-1.3-0.7c-0.4-0.4-0.4-1,0-1.3c0,0,0,0,0,0
			c0.3-0.3,0.6-0.4,1-0.3c0.5,0.1,1,0.3,1.4,0.6c0,0,0.2,0.1,0.3,0.2l0.2-0.4c0-0.1,0.1-0.4,0.2-0.5c-0.4-0.3-0.8-0.6-1.3-0.8
			c-0.3-0.1-0.6-0.2-0.9-0.2c-0.7-0.1-1.4,0.2-1.8,0.7c-0.6,0.7-0.6,1.7,0,2.4l0,0l-0.1,0c-0.2,0-0.3,0.1-0.5,0.2
			c-0.4,0.3-0.7,0.7-0.8,1.2c-0.1,0.5,0.1,1,0.4,1.5c0.4,0.4,0.9,0.7,1.4,0.9C-1477.1,6241.1-1476.6,6241.2-1476.2,6241.2
			L-1476.2,6241.2L-1476.2,6241.2z"/>
		<path id="パス_630" d="M-1475.8,6240.4C-1475.8,6240.3-1475.9,6240.3-1475.8,6240.4c-0.9-0.1-1.6-0.3-2.2-0.9
			c-0.2-0.2-0.3-0.5-0.2-0.7c0-0.3,0.2-0.5,0.4-0.7c0,0,0.1,0,0.1-0.1c0.2-0.2,0.5-0.4,1.2-0.1c0.2,0.1,0.3,0.1,0.4,0.2l0.2,0.1
			c0,0,0.1,0,0.1,0c0,0,0.1-0.1,0.1-0.1l0-0.1c0-0.1,0-0.1,0-0.1l0.1-0.4c0-0.1,0-0.1-0.1-0.1l-0.1-0.1c-0.5-0.1-0.9-0.4-1.2-0.7
			c-0.4-0.3-0.4-0.9,0-1.2c0,0,0,0,0,0c0.2-0.3,0.6-0.4,0.9-0.3c0.5,0.1,0.9,0.3,1.4,0.6c0.3,0.2,0.4,0.2,0.4,0.2l0,0l0.2-0.4l0,0
			c0.1-0.2,0.1-0.3,0.2-0.5l0,0l0,0c-0.6-0.5-1.4-0.9-2.2-1c-0.7-0.1-1.4,0.2-1.9,0.8c-0.6,0.7-0.6,1.8,0,2.5
			c-0.2,0-0.3,0.1-0.5,0.2c-0.5,0.3-0.8,0.7-0.8,1.3c-0.1,0.5,0.1,1.1,0.4,1.5c0.4,0.4,0.9,0.8,1.5,1c0.1,0.1,0.2,0.1,0.3,0.1
			c0.3,0.1,0.6,0.2,1,0.2c0,0,0,0,0.1,0c0,0,0,0,0-0.1L-1475.8,6240.4L-1475.8,6240.4z M-1476.2,6241.3c-0.4,0-0.9-0.1-1.3-0.3
			c-0.5-0.2-1-0.5-1.5-1c-0.6-0.8-0.5-2,0.3-2.6c0,0,0.1-0.1,0.2-0.1c0.2-0.1,0.3-0.2,0.5-0.2c-0.6-0.7-0.6-1.8,0-2.5
			c0.5-0.5,1.1-0.8,1.8-0.7c0.8,0.1,1.6,0.4,2.2,0.9c0,0.2-0.1,0.3-0.2,0.5l-0.2,0.4c-0.1-0.1-0.2-0.1-0.4-0.2
			c-0.4-0.3-0.9-0.5-1.4-0.6c-0.4-0.1-0.7,0-1,0.3c-0.4,0.3-0.4,0.9,0,1.3c0,0,0,0,0,0c0.4,0.3,0.9,0.6,1.4,0.7c0,0,0,0,0,0.1
			l-0.1,0.3c0,0.1,0,0.1-0.1,0.2l0,0.1c0,0,0,0.1-0.1,0.1c-0.2-0.1-0.3-0.1-0.6-0.2c-0.8-0.3-1.1,0-1.3,0.1c-0.4,0.3-0.5,1-0.2,1.4
			c0,0,0,0,0,0c0.6,0.5,1.3,0.8,2.1,0.8c0,0,0,0,0.1,0L-1476.2,6241.3C-1476.2,6241.3-1476.2,6241.3-1476.2,6241.3
			C-1476.2,6241.3-1476.2,6241.3-1476.2,6241.3L-1476.2,6241.3z"/>
		<path id="パス_631" d="M-1475.9,6240.3c-0.8,0-1.5-0.3-2.1-0.8c-0.4-0.4-0.3-1.1,0.1-1.4c0,0,0,0,0.1,0c0.2-0.2,0.5-0.5,1.3-0.1
			c0.2,0.1,0.4,0.2,0.6,0.2c0.1,0,0.1-0.1,0.1-0.1l0-0.1c0-0.1,0-0.1,0.1-0.2l0.1-0.3c0,0,0-0.1,0-0.1c-0.5-0.2-1-0.4-1.4-0.7
			c-0.4-0.3-0.4-0.9-0.1-1.3c0,0,0,0,0,0c0.3-0.3,0.6-0.4,1-0.3c0.5,0.1,0.9,0.3,1.4,0.6c0.1,0.1,0.2,0.1,0.4,0.2l0.2-0.4
			c0.1-0.2,0.1-0.3,0.2-0.5c-0.6-0.5-1.4-0.9-2.2-0.9c-0.7-0.1-1.4,0.2-1.8,0.7c-0.6,0.7-0.6,1.8,0,2.5c-0.2,0-0.3,0.1-0.5,0.2
			c-0.9,0.6-1.1,1.7-0.5,2.6c0,0.1,0.1,0.1,0.1,0.2c0.4,0.4,0.9,0.8,1.5,1c0.4,0.2,0.8,0.3,1.3,0.3c0,0,0,0,0,0c0,0,0,0,0,0
			L-1475.9,6240.3C-1475.9,6240.3-1475.9,6240.3-1475.9,6240.3z M-1477.5,6241c-0.5-0.2-1-0.5-1.4-0.9c-0.3-0.4-0.5-0.9-0.4-1.5
			c0.1-0.5,0.4-1,0.8-1.2c0.1-0.1,0.3-0.2,0.5-0.2l0.1,0l0,0c-0.6-0.7-0.6-1.7,0-2.4c0.4-0.5,1.1-0.8,1.8-0.7c0.3,0,0.6,0.1,0.9,0.2
			c0.5,0.2,0.9,0.4,1.3,0.8c0,0.1-0.1,0.4-0.2,0.5l-0.2,0.4c-0.1,0-0.3-0.1-0.3-0.2c-0.4-0.3-0.9-0.5-1.4-0.6c-0.4-0.1-0.8,0-1,0.3
			c-0.4,0.4-0.4,1,0,1.3c0,0,0,0,0,0c0.4,0.3,0.8,0.6,1.3,0.7l0.1,0.1c0,0,0,0,0,0c0,0,0,0,0,0l-0.1,0.4c0,0,0,0.1,0,0.1l0,0.1
			c0,0,0,0.1,0,0.1c0,0,0,0,0,0l-0.2-0.1c-0.1,0-0.2-0.1-0.4-0.2c-0.8-0.3-1-0.1-1.3,0.1c0,0-0.1,0-0.1,0.1
			c-0.2,0.2-0.4,0.4-0.4,0.7c0,0.3,0.1,0.6,0.2,0.8c0.6,0.5,1.4,0.8,2.1,0.8c0,0,0,0,0,0l-0.3,0.9l0,0l0,0
			C-1476.6,6241.2-1477.1,6241.1-1477.5,6241z"/>
		<path id="パス_632" d="M-1457.5,6197.2c2,0.6,3.7,1.7,5.1,3.3c0.3,0.6,0.6,1.2,0.7,1.8c0.2,0.8,0.3,1.7,0.3,2.6
			c0.1,1.1-0.3,2.2-1.2,2.9c-0.2,0.3-1,0.7-1.3,1c-0.4,0.3-0.8,0.6-1.3,0.9c-0.1,0.1-0.2,0.1-0.3,0.2c0.3,0.3,0.5,0.6,0.7,0.9
			c1.8-0.9,3.2-2.4,3.9-4.3c1.9-4.9-2.7-9.3-8.1-10.5c-1-0.2-2-0.4-3.1-0.6c0,0.3,0,0.5-0.1,0.8
			C-1460.4,6196.3-1458.9,6196.7-1457.5,6197.2z"/>
		<path id="パス_633" d="M-1478.7,6201.3c0-0.2,0-0.4,0.1-0.6c0-0.5,0.2-1,0.4-1.4c0.4-0.8,1-1.4,1.7-1.9c1.5-1,3.2-1.6,5-1.7
			c0.5,0,2-0.1,2.5-0.1c1.5-0.1,3-0.1,4.6,0c0.2-0.3,0.4-0.6,0.5-0.8c-4.8-0.7-9.9-0.7-13.8,2c-2,1.2-3,3.5-2.6,5.8
			c0.1,0.7,0.4,1.3,0.8,1.8c0.5-0.2,1-0.4,1.4-0.6C-1478.6,6203.1-1478.7,6202.2-1478.7,6201.3z"/>
		<path id="パス_634" d="M-1461.9,6196c0-0.3,0-0.6,0.1-0.8c-0.7-0.1-1.4-0.2-2.1-0.4c-0.2,0.3-0.3,0.5-0.5,0.8
			C-1463.6,6195.8-1462.8,6195.9-1461.9,6196z"/>
		<path id="パス_635" d="M-1467.7,6210.4c0.1,0.1,0.2,0.1,0.3,0.1c3.7,1.3,9,2,12.8,0.1c-0.2-0.3-0.5-0.6-0.7-0.9
			c-0.8,0.5-1.8,0.8-2.8,0.7c-0.2,0-0.3,0-0.5,0c-3.8,0.8-7.9-0.5-11.6-1.9c-3.1-1.2-6.7-1.8-8-4.6c-0.5,0.2-1,0.4-1.4,0.6
			C-1477.8,6207.3-1473.4,6209.6-1467.7,6210.4z"/>
		<path id="パス_636" d="M-1468.7,6200.4c-0.4-0.1-0.9-0.3-1.3-0.5c-0.9-0.4-0.8,0.2-0.3,1c0.1,0.1,0.2,0.1,0.4,0.2
			C-1469.6,6200.9-1469.2,6200.7-1468.7,6200.4z"/>
		<path id="パス_637" d="M-1461.3,6201.2c0.2,0.4,0.3,0.9,0.5,1.3c0.1,0,0.2,0,0.3-0.1
			C-1459.6,6201.6-1460.1,6200.9-1461.3,6201.2z"/>
		<path id="パス_638" d="M-1460.8,6202.4c-0.1-0.4-0.3-0.8-0.5-1.3c-0.1,0-0.2,0-0.3,0.1c-1.2,0.2-2.5,0.3-3.8,0.1
			c-1.2-0.2-2.3-0.5-3.4-0.9c-0.4,0.2-0.8,0.5-1.3,0.7c2,1.1,4.3,1.7,6.6,1.7c0.7,0,1.5-0.1,2.2-0.3
			C-1461.1,6202.5-1461,6202.5-1460.8,6202.4z"/>
		<g id="グループ_677" transform="translate(-1487.941 6183.979) rotate(19)">
			<path id="パス_639" d="M2.2,12.6C1.7,11.9,1.6,11,2,10.2c0.3-0.6,0.6-1.3,0.9-1.9c0.1-0.2,0-0.4-0.2-0.5
				c-1.2,0.8-1.9,2.1-2,3.5c0,0.2,0,0.3-0.1,0.5c0.5,1,1.3,2.3,2.4,2.5c0.1,0,0.1-0.1,0.2-0.2C2.7,13.7,2.4,13.2,2.2,12.6z"/>
			<path id="パス_640" d="M5.7,13.2c0,0.1,0.1,0.1,0.2,0.2c0,0,0,0,0.1,0c0.4,0.1,0.8,0.2,1.2,0.2c0,0,0.1,0,0.1,0
				c0,0,0.1-0.1,0.1-0.1c-0.1-0.1-0.2-0.2-0.3-0.3l0,0l0,0C7,13.1,6.8,13,6.7,12.8c-0.2-0.2-0.4-0.4-0.6-0.7
				c-0.3-0.5-0.5-1.1-0.4-1.7c0.1-0.7,0.4-1.4,0.8-2C6.8,8,7,7.6,7.2,7.1C7.1,6.9,6.9,6.8,6.6,6.9C4.2,8.1,3.2,11.9,5.7,13.2z"/>
			<path id="パス_641" d="M49.9,3c-0.1-0.2-0.2-0.4-0.4-0.6c-0.1,0-0.2,0-0.2-0.1c-0.8-0.6-1.9-0.9-2.9-0.8c0,0.1,0,0.1,0.1,0.2
				c0.5,0.1,0.9,0.4,1.3,0.7c0.1,0.1,0.2,0.2,0.4,0.3c0.1,0,0.1,0,0.2,0.1c0.1,0.1,0.1,0.1,0.2,0.2c0.2,0.1,0.3,0.3,0.5,0.5
				c0,0.1,0,0.2,0.1,0.2c0,0.1,0.1,0.1,0.1,0.2c0.1,0,0.1,0.1,0.2,0.2c0.3,0.9,0.3,2-0.2,2.9c0.2,0.2,0.4,0.3,0.7,0.1
				c0,0,0.1-0.1,0.1-0.1C50.6,5.7,50.6,4.2,49.9,3z"/>
			<path id="パス_642" d="M51.4,3c0.1,0.6,0.1,1.2,0.1,1.7c0,0.1,0.1,0.2,0.1,0.3c0.1,0,0.3-0.1,0.4-0.2c0.2-0.4,0.3-0.7,0.3-1.1
				c0,0,0,0,0,0s0,0,0,0s0,0,0-0.1c0-0.3-0.1-0.5-0.1-0.8c0-0.3-0.1-0.6-0.2-0.8c-0.6-0.8-1.5-1.4-2.5-1.7c0,0-0.1,0-0.1,0
				c-0.2,0-0.4,0.1-0.4,0.3c0.5,0.2,1,0.5,1.4,1c0.4,0.3,0.7,0.7,0.9,1.1C51.4,2.7,51.4,2.9,51.4,3z"/>
		</g>
		<path id="パス_643" d="M-1469.6,6240.6c0-0.3-0.2-0.5-0.5-0.5c-0.1,0-0.2,0-0.3,0c-0.1,0-0.2,0-0.2,0c-0.1-0.1-0.2-0.1-0.3-0.1
			c-0.3,0-0.6,0.1-0.6,0.4c0,0,0,0.1,0,0.1c0.1,0.4,0.5,0.7,0.9,0.7c0.4,0.1,0.8-0.1,1-0.5
			C-1469.6,6240.7-1469.6,6240.7-1469.6,6240.6z"/>
	</g>
</g>
</svg>
