<?xml version="1.0" encoding="utf-8"?>
<!-- Generator: Adobe Illustrator 24.2.0, SVG Export Plug-In . SVG Version: 6.00 Build 0)  -->
<svg version="1.1" id="レイヤー_1" xmlns="http://www.w3.org/2000/svg" xmlns:xlink="http://www.w3.org/1999/xlink" x="0px"
	 y="0px" viewBox="0 0 60 50" style="enable-background:new 0 0 60 50;" xml:space="preserve">
<style type="text/css">
	.st0{fill:#C6C685;}
	.st1{fill:#FCFBFA;}
</style>
<g id="コンポーネント_87_1" transform="translate(1 1)">
	<g id="パス_2115" transform="translate(-296.008 -336.012)">
		<path class="st0" d="M353.8,384h-0.5h-56.5h-0.5v-0.5v-43.1v-1.2l0.9,0.9l14.5,15.2l13-19.1l0.4-0.6l0.4,0.6l13,19.1l14.5-15.2
			l0.9-0.9v1.2v43.1V384z"/>
		<path class="st1" d="M353.3,383.5v-43.1l-14.9,15.6L325,336.5l-13.3,19.7v0l-14.9-15.6v43.1H353.3 M353.3,384.5h-56.5
			c-0.6,0-1-0.4-1-1v-43.1c0-0.4,0.2-0.8,0.6-0.9c0.1,0,0.2-0.1,0.4-0.1c0.3,0,0.5,0.1,0.7,0.3l14.1,14.7l12.6-18.6
			c0.2-0.3,0.5-0.4,0.8-0.4s0.6,0.2,0.8,0.4l12.6,18.6l14.1-14.7c0.2-0.2,0.5-0.3,0.7-0.3c0.1,0,0.3,0,0.4,0.1
			c0.4,0.2,0.6,0.5,0.6,0.9v43.1C354.3,384.1,353.8,384.5,353.3,384.5z"/>
	</g>
	<path id="パス_2181" d="M29.9,22.9c0.3,0,0.6,0.1,0.8,0.3c0.2,0.2,0.3,0.5,0.3,0.8v14.5c0,0.3-0.1,0.6-0.4,0.8
		c-0.2,0.2-0.6,0.3-0.9,0.3c-0.3,0-0.6-0.1-0.9-0.3c-0.2-0.2-0.3-0.5-0.3-0.8V26.1l-2.1,1.3c-0.2,0.1-0.4,0.2-0.6,0.2
		c-0.3,0-0.6-0.1-0.8-0.4c-0.2-0.2-0.3-0.5-0.3-0.8c0-0.2,0.1-0.4,0.2-0.6c0.1-0.2,0.3-0.3,0.4-0.4l3.8-2.3
		C29.4,22.9,29.7,22.9,29.9,22.9z"/>
</g>
</svg>
