<?xml version="1.0" encoding="utf-8"?>
<!-- Generator: Adobe Illustrator 24.2.0, SVG Export Plug-In . SVG Version: 6.00 Build 0)  -->
<svg version="1.1" id="レイヤー_1" xmlns="http://www.w3.org/2000/svg" xmlns:xlink="http://www.w3.org/1999/xlink" x="0px"
	 y="0px" viewBox="0 0 60 50" style="enable-background:new 0 0 60 50;" xml:space="preserve">
<style type="text/css">
	.st0{fill:#C6BFB7;}
	.st1{fill:#FCFBFA;}
</style>
<g id="コンポーネント_87_2" transform="translate(1 1)">
	<g id="パス_2115" transform="translate(-296.008 -336.012)">
		<path class="st0" d="M353.8,384h-0.5h-56.5h-0.5v-0.5v-43.1v-1.2l0.9,0.9l14.5,15.2l13-19.1l0.4-0.6l0.4,0.6l13,19.1l14.5-15.2
			l0.9-0.9v1.2v43.1V384z"/>
		<path class="st1" d="M353.3,383.5v-43.1l-14.9,15.6L325,336.5l-13.3,19.7v0l-14.9-15.6v43.1H353.3 M353.3,384.5h-56.5
			c-0.6,0-1-0.4-1-1v-43.1c0-0.4,0.2-0.8,0.6-0.9c0.1,0,0.2-0.1,0.4-0.1c0.3,0,0.5,0.1,0.7,0.3l14.1,14.7l12.6-18.6
			c0.2-0.3,0.5-0.4,0.8-0.4s0.6,0.2,0.8,0.4l12.6,18.6l14.1-14.7c0.2-0.2,0.5-0.3,0.7-0.3c0.1,0,0.3,0,0.4,0.1
			c0.4,0.2,0.6,0.5,0.6,0.9v43.1C354.3,384.1,353.8,384.5,353.3,384.5z"/>
	</g>
	<path id="パス_2182" d="M33.4,37.6c0.3,0,0.6,0.1,0.8,0.3c0.2,0.2,0.3,0.5,0.3,0.8c0,0.3-0.1,0.6-0.3,0.7
		c-0.2,0.2-0.5,0.3-0.8,0.3h-8.5c-0.3,0-0.6-0.1-0.8-0.3c-0.2-0.2-0.3-0.5-0.3-0.8c0-0.3,0.1-0.6,0.3-0.8l5.4-5.8
		c1.5-1.6,2.2-3,2.2-4.2c0-0.8-0.3-1.6-0.9-2.1c-0.6-0.6-1.4-0.9-2.2-0.9c-0.6,0-1.2,0.2-1.7,0.5c-0.6,0.4-1,0.9-1.3,1.4
		c-0.2,0.3-0.5,0.5-0.9,0.5c-0.3,0-0.6-0.1-0.8-0.3c-0.2-0.2-0.4-0.4-0.4-0.7c0-0.2,0.1-0.4,0.2-0.6c0.2-0.2,0.3-0.5,0.5-0.7
		c0.5-0.7,1.2-1.3,2-1.7c0.8-0.4,1.6-0.6,2.5-0.6c1,0,1.9,0.2,2.8,0.6c0.8,0.4,1.4,1,1.8,1.8c0.4,0.8,0.7,1.7,0.6,2.6
		c0,1.8-1,3.8-3,6l-3.6,4H33.4z"/>
</g>
</svg>
