<?xml version="1.0" encoding="utf-8"?>
<!-- Generator: Adobe Illustrator 24.2.0, SVG Export Plug-In . SVG Version: 6.00 Build 0)  -->
<svg version="1.1" id="レイヤー_1" xmlns="http://www.w3.org/2000/svg" xmlns:xlink="http://www.w3.org/1999/xlink" x="0px"
	 y="0px" viewBox="0 0 60 50" style="enable-background:new 0 0 60 50;" xml:space="preserve">
<style type="text/css">
	.st0{fill:#A27D4E;}
	.st1{fill:#FCFBFA;}
</style>
<g id="コンポーネント_87_3" transform="translate(1 1)">
	<g id="パス_2115" transform="translate(-296.008 -336.012)">
		<path class="st0" d="M353.8,384h-0.5h-56.5h-0.5v-0.5v-43.1v-1.2l0.9,0.9l14.5,15.2l13-19.1l0.4-0.6l0.4,0.6l13,19.1l14.5-15.2
			l0.9-0.9v1.2v43.1V384z"/>
		<path class="st1" d="M353.3,383.5v-43.1l-14.9,15.6L325,336.5l-13.3,19.7v0l-14.9-15.6v43.1H353.3 M353.3,384.5h-56.5
			c-0.6,0-1-0.4-1-1v-43.1c0-0.4,0.2-0.8,0.6-0.9c0.1,0,0.2-0.1,0.4-0.1c0.3,0,0.5,0.1,0.7,0.3l14.1,14.7l12.6-18.6
			c0.2-0.3,0.5-0.4,0.8-0.4s0.6,0.2,0.8,0.4l12.6,18.6l14.1-14.7c0.2-0.2,0.5-0.3,0.7-0.3c0.1,0,0.3,0,0.4,0.1
			c0.4,0.2,0.6,0.5,0.6,0.9v43.1C354.3,384.1,353.8,384.5,353.3,384.5z"/>
	</g>
	<path id="パス_2183" d="M29.1,29.1c0.9,0,1.7,0.2,2.5,0.7c0.7,0.5,1.3,1.1,1.7,1.9c0.4,0.8,0.6,1.7,0.6,2.6c0,1.1-0.3,2.1-0.8,3
		c-0.5,0.9-1.3,1.6-2.2,2c-1,0.5-2.1,0.7-3.2,0.7c-0.6,0-1.3-0.1-1.9-0.3c-0.6-0.2-1.1-0.4-1.5-0.8c-0.4-0.2-0.6-0.6-0.6-1
		c0-0.3,0.1-0.6,0.3-0.8c0.2-0.2,0.5-0.4,0.8-0.4c0.3,0,0.6,0.1,0.9,0.3c0.7,0.6,1.6,0.9,2.5,0.9c0.6,0,1.2-0.1,1.7-0.4
		c0.5-0.3,1-0.7,1.3-1.2c0.3-0.6,0.5-1.2,0.5-1.9c0.1-0.9-0.3-1.8-1-2.4c-0.6-0.6-1.5-0.9-2.3-0.8c-0.4,0-0.7,0.1-1.1,0.2
		c-0.3,0.1-0.5,0.1-0.8,0.1c-0.3,0-0.5-0.1-0.7-0.3c-0.2-0.2-0.3-0.5-0.3-0.8c0-0.2,0-0.3,0.1-0.5c0.1-0.2,0.2-0.3,0.3-0.5L30,25
		h-5.6c-0.3,0-0.6-0.1-0.8-0.3c-0.2-0.2-0.3-0.5-0.3-0.8c0-0.3,0.1-0.6,0.3-0.7c0.2-0.2,0.5-0.3,0.8-0.3h7.7c0.3,0,0.6,0.1,0.9,0.3
		c0.2,0.2,0.3,0.5,0.3,0.8c0,0.3-0.2,0.7-0.5,0.9L29.1,29.1z"/>
</g>
</svg>
