<?xml version="1.0" encoding="utf-8"?>
<!-- Generator: Adobe Illustrator 24.2.0, SVG Export Plug-In . SVG Version: 6.00 Build 0)  -->
<svg version="1.1" id="レイヤー_1" xmlns="http://www.w3.org/2000/svg" xmlns:xlink="http://www.w3.org/1999/xlink" x="0px"
	 y="0px" viewBox="0 0 44 36" style="enable-background:new 0 0 44 36;" xml:space="preserve">
<style type="text/css">
	.st0{fill:#EAE7D3;}
	.st1{fill:#FCFBFA;}
</style>
<g id="グループ_1116" transform="translate(-707.134 -4813.427)">
	<g id="パス_2115" transform="translate(412.125 4478.415)">
		<path class="st0" d="M337.7,370.3h-0.5h-40.3h-0.5v-0.5v-30.7v-1.2l0.9,0.9l10.2,10.7l9.2-13.5l0.4-0.6l0.4,0.6l9.2,13.5
			l10.2-10.7l0.9-0.9v1.2v30.7V370.3z"/>
		<path class="st1" d="M337.2,369.8v-30.7l-10.6,11.2l-9.5-14l-9.5,14v0l-10.6-11.2v30.7H337.2 M337.2,370.8h-40.3c-0.6,0-1-0.4-1-1
			v-30.7c0-0.4,0.2-0.8,0.6-0.9c0.1,0,0.2-0.1,0.4-0.1c0.3,0,0.5,0.1,0.7,0.3l9.8,10.3l8.8-13c0.2-0.3,0.5-0.4,0.8-0.4
			s0.6,0.2,0.8,0.4l8.8,13l9.8-10.3c0.2-0.2,0.5-0.3,0.7-0.3c0.1,0,0.3,0,0.4,0.1c0.4,0.2,0.6,0.5,0.6,0.9v30.7
			C338.2,370.3,337.7,370.8,337.2,370.8z"/>
	</g>
	<path id="パス_2187" d="M731,4830.3c0.2,0,0.4,0.1,0.6,0.2c0.2,0.1,0.2,0.3,0.2,0.5c0,0.1,0,0.2-0.1,0.4l-4.3,9.7
		c-0.1,0.1-0.2,0.3-0.3,0.4c-0.1,0.1-0.3,0.1-0.4,0.1c-0.2,0-0.4-0.1-0.5-0.2c-0.2-0.1-0.2-0.3-0.2-0.5c0-0.1,0-0.2,0.1-0.4l3.9-8.8
		h-4.6c-0.2,0-0.4-0.1-0.5-0.2c-0.1-0.1-0.2-0.3-0.2-0.5c0-0.2,0.1-0.4,0.2-0.5c0.1-0.1,0.3-0.2,0.5-0.2H731z"/>
</g>
</svg>
