<?xml version="1.0" encoding="utf-8"?>
<!-- Generator: Adobe Illustrator 24.2.0, SVG Export Plug-In . SVG Version: 6.00 Build 0)  -->
<svg version="1.1" id="レイヤー_1" xmlns="http://www.w3.org/2000/svg" xmlns:xlink="http://www.w3.org/1999/xlink" x="0px"
	 y="0px" viewBox="0 0 44 36" style="enable-background:new 0 0 44 36;" xml:space="preserve">
<style type="text/css">
	.st0{fill:#EAE7D3;}
	.st1{fill:#FCFBFA;}
</style>
<g id="グループ_1213" transform="translate(-404.208 -4813.427)">
	<g id="パス_2115" transform="translate(109.199 4478.415)">
		<path class="st0" d="M337.7,370.3h-0.5h-40.3h-0.5v-0.5v-30.7v-1.2l0.9,0.9l10.2,10.7l9.2-13.5l0.4-0.6l0.4,0.6l9.2,13.5
			l10.2-10.7l0.9-0.9v1.2v30.7V370.3z"/>
		<path class="st1" d="M337.2,369.8v-30.7l-10.6,11.2l-9.5-14l-9.5,14v0l-10.6-11.2v30.7H337.2 M337.2,370.8h-40.3c-0.6,0-1-0.4-1-1
			v-30.7c0-0.4,0.2-0.8,0.6-0.9c0.1,0,0.2-0.1,0.4-0.1c0.3,0,0.5,0.1,0.7,0.3l9.8,10.3l8.8-13c0.2-0.3,0.5-0.4,0.8-0.4
			s0.6,0.2,0.8,0.4l8.8,13l9.8-10.3c0.2-0.2,0.5-0.3,0.7-0.3c0.1,0,0.3,0,0.4,0.1c0.4,0.2,0.6,0.5,0.6,0.9v30.7
			C338.2,370.3,337.7,370.8,337.2,370.8z"/>
	</g>
	<path id="パス_2185" d="M425.1,4829.8c0.7,0,1.3,0.2,1.9,0.6c0.5,0.4,0.9,0.9,1.2,1.5c0.3,0.6,0.4,1.3,0.4,1.9
		c0,0.9-0.2,1.7-0.5,2.5c-0.3,0.9-0.8,1.8-1.5,2.5c-0.7,0.8-1.6,1.4-2.6,1.7c-0.1,0-0.2,0-0.3,0c-0.2,0-0.4-0.1-0.5-0.2
		c-0.2-0.1-0.2-0.3-0.2-0.5c0-0.2,0.1-0.3,0.2-0.4c0.1-0.1,0.3-0.2,0.5-0.3c0.7-0.3,1.4-0.7,2-1.3c0.6-0.6,1-1.3,1.3-2
		c-0.5,0.5-1.3,0.8-2,0.8c-0.6,0-1.1-0.2-1.6-0.5c-0.5-0.3-0.9-0.8-1.2-1.3c-0.3-0.5-0.4-1.1-0.4-1.7c0-0.6,0.2-1.2,0.5-1.7
		c0.3-0.5,0.7-1,1.2-1.3C423.9,4830,424.5,4829.8,425.1,4829.8z M425,4835.4c0.6,0,1.1-0.2,1.5-0.6c0.4-0.4,0.6-1,0.6-1.5
		c0-0.5-0.2-1.1-0.6-1.5c-0.4-0.4-0.9-0.6-1.5-0.6c-0.5,0-1,0.2-1.4,0.6c-0.4,0.4-0.6,0.9-0.6,1.5c0,0.6,0.2,1.1,0.5,1.5
		C424,4835.2,424.5,4835.4,425,4835.4z"/>
</g>
</svg>
