<?xml version="1.0" encoding="UTF-8"?>
<svg id="_レイヤー_1" data-name="レイヤー_1" xmlns="http://www.w3.org/2000/svg" width="20" height="20" version="1.1" viewBox="0 0 20 20">
  <!-- Generator: Adobe Illustrator 29.1.0, SVG Export Plug-In . SVG Version: 2.1.0 Build 142)  -->
  <defs>
    <style>
      .st0 {
        fill: #1a1311;
      }
    </style>
  </defs>
  <g id="_グループ_1577" data-name="グループ_1577">
    <path id="_パス_560" data-name="パス_560" class="st0" d="M16.6699022,1.5949586c-.4633719-.3334444-.9895676-.5694293-1.5467573-.6936803-1.055514-.1873867-2.1312008-.2341167-3.1989885-.1389715-.4161866.0147042-.8293477.0767241-1.231509.1848619-.4048554.107924-.8011082.24586-1.1854677.4126631-.1857445.0788927-.3696756.1586308-.5603081.2551049-.2325536.1122341-.469232.2372562-.7100346.3750672-.2876958.162654-.5799175.339748-.8749755.5276568-.3153731.2030776-.6365204.4185426-.963445.6463926-.1185036.0837664-.2381539.1747217-.359372.2737734l-.1006835.0810426c-.0941002.0763888-.1844524.1589385-.2828998.2399199l-.0830457.0716128c-.1178936.1061184-.2382616.2199104-.3542196.3313445l-.0748891.0754163c-.0958257.0950773-.1911478.1922273-.2859657.2914528l-.0987433.1029115c-.1078015.1152376-.2174167.2296305-.3218323.3541706l-.0243383.0261662c-.1136579.1301616-.2249575.2647323-.3345667.395678l-.0891359.1107009c-.0859556.1070352-.1703994.2147753-.2533341.3232191l-.0803784.1037516c-.1044724.138858-.2071315.2785616-.3057438.4190485l-.0714369.1035069c-.0649757.0943829-.1295291.1878601-.1922695.2821815l-.0919063.1403045c-.0549502.0847145-.1089943.1698505-.1621312.2554106l-.0887037.1429007c-.0531378.0855597-.1069986.177402-.1578395.2651354l-.0730614.1259212c-.072578.1272494-.1429211.2544382-.2092767.3801749l-.0025355.0054375c-.8572558,1.5380125-1.4749426,3.197767-1.8317575,4.9220217-.0094617.0794449-.0163264.1556876-.0210776.2273978-.0671743.7509012.0370137,1.5072519.3047075,2.2120239.1499514.4214699.6131794.6415805,1.0346505.4916286.1114225-.0396424.2128111-.1032011.2970456-.1862138l.9114137-.7004468c.3526715-.2570369.8643468-.7201868,1.2917897-1.0405587,1.1020976-.8277906,1.8595807-1.5294001,2.7932051-2.3011393.9804928-.8083625,3.274613-2.9714944,4.437592-3.8470289.5216036-.3945248.9183489-.7413474,1.3776665-1.1395387.4355206-.3939223.8932833-.7625329,1.3710317-1.1040145.2394828-.1752059,1.0523924-.780353,1.2892832-.9358032l1.9187227-1.3296948c.2714262-.2014215.3281763-.5847404.1267547-.8561666-.0101832-.0137224-.0209367-.0270124-.0322322-.0398348-.2714004-.3096739-.5725076-.5919936-.899001-.8429082"/>
    <path id="_パス_561" data-name="パス_561" class="st0" d="M7.6754486,12.8165888c1.0399388-.8104341,2.2836135-1.9418389,3.6038674-3.1522846.7393053-.6791904,1.4640444-1.3839314,1.9133362-1.7724539l2.7701858-2.3085634,1.7997986-1.4414224c.2973356-.2470842.738675-.2063476.9857593.090988.0378395.0455353.0697494.0956873.0949651.1492547l.0029022.0079736c.2223724.4663224.3744917.9629935.4514118,1.4738646.0520814,1.2514332-.1487251,2.5005187-.5904131,3.672572-.0466566.1426471-.0941585.2871068-.1473375.4366427-.1560952.4435924-.3365898.9111154-.5432966,1.4017236-.0690039.1598105-.1369795.3245142-.2151641.4921815-.2375367.5184067-.5242529,1.0128325-.8562098,1.4764851-1.3258791,1.9138334-3.1215412,3.4546404-5.2145503,4.4744577-1.530097.4891862-3.8555268,1.5718534-4.7308429,1.5631112-1.3011228.0336397-2.5846227-.3063966-3.6984221-.9798232-.1665707-.1067893-.326619-.2234253-.4792923-.3492831-.1534943-.1257966-.2996678-.2602699-.4378055-.4027604l-.0063441-.0029583c-.2486877-.2565895-.2422812-.6661966.0143078-.9148834.0199702-.0193556.0411666-.0374028.063459-.0540298l1.5468163-1.1544511,3.6728688-2.7063409Z"/>
  </g>
</svg>