<?xml version="1.0" encoding="UTF-8"?>
<svg id="_レイヤー_1" data-name="レイヤー_1" xmlns="http://www.w3.org/2000/svg" width="20" height="20" version="1.1" viewBox="0 0 20 20">
  <!-- Generator: Adobe Illustrator 29.1.0, SVG Export Plug-In . SVG Version: 2.1.0 Build 142)  -->
  <defs>
    <style>
      .st0 {
        fill: #1a1311;
      }
    </style>
  </defs>
  <g id="_グループ_1241" data-name="グループ_1241">
    <path id="_パス_560" data-name="パス_560" class="st0" d="M3.329725,1.5957034c.4636076-.3337052.990124-.5698395,1.5476636-.6941029,1.0555138-.1873865,2.1312006-.2341166,3.1989882-.1389714.4161866.0147042.8293477.0767241,1.231509.1848619.4048558.1079238.8011081.2458598,1.1854681.4126629.1857443.0788928.3696761.1586306.5603085.2551047.2325538.112234.4692322.2372561.710035.375067.2876954.1626542.5799175.339748.8749757.5276567.3153722.203078.6365207.4185425.9634447.6463927.1185041.0837662.2381537.1747218.359372.2737734l.1003826.0756658c.0940998.076389.1844521.1589386.2829.2399198l.0830456.0716129c.1178933.1061185.2382614.2199105.3542199.3313444l.0748889.0754164c.095826.0950767.191148.1922277.285966.2914526l.0934281.1009768c.1078017.1152375.2174164.2296307.3218322.3541707l.0238546.0274945c.1136575.1301618.2249575.2647323.334567.3956778l.0894972.1138428c.0859551.1070354.1703997.2147752.2533338.3232193l.080801.1046584c.1044722.1388581.2071318.2785615.3057434.4190487l.0727661.1039909c.0649757.094383.129529.1878601.1922692.2821816l.0919062.1403046c.0549503.0847145.1089939.1698507.1621316.2554104l.0905159.1420556c.0531377.0855597.1069983.1774021.1578394.2651355l.0730618.125921c.0725779.1272494.1429208.2544383.2092765.380175l.0025355.0054375c.8572556,1.5380126,1.4749425,3.197767,1.8317572,4.9220208.0094614.079445.0163261.1556877.0210773.2273979.0671746.7509011-.0370133,1.5072517-.304707,2.2120237-.1499516.42147-.6131808.641579-1.0346503.4916285-.111422-.0396426-.2128121-.1032027-.2970454-.1862139l-.9114139-.7004467c-.3526711-.2570371-.8643468-.7201868-1.2917897-1.0405587-1.1020976-.8277906-1.8595807-1.5294001-2.7932051-2.3011393-.978319-.8060657-3.2706267-2.9700428-4.4354186-3.844732-.52251-.3941021-.9179266-.7404411-1.3757314-1.1448548-.4355221-.3939206-.8932848-.7625312-1.3710317-1.1040145-.2409952-.1689836-1.0511855-.7753985-1.2917015-.9291583l-1.9191454-1.3306012c-.2714264-.2014214-.3281759-.5847405-.1267546-.8561667.0101828-.0137222.0209365-.0270123.0322322-.0398349.271578-.3093792.5728258-.5913946.8994232-.8420017"/>
    <path id="_パス_561" data-name="パス_561" class="st0" d="M12.3246342,12.8166267c-1.0399384-.8104343-2.2836135-1.9418389-3.6038674-3.1522846-.7393055-.6791909-1.4676695-1.3822415-1.9129138-1.771548l-2.7706082-2.3094692-1.8034238-1.4397319c-.2982632-.2459639-.7394458-.2035676-.9854098.0946952-.0363137.0440349-.0671051.0923458-.0916891.143857l-.0029017.0079734c-.2223721.4663223-.3744911.9629932-.4514114,1.4738644-.0520815,1.251433.1487241,2.5005189.590412,3.6725725.046657.142647.0941583.2871069.1473379.4366425.1560956.4435922.3365899.9111153.5432963,1.4017237.069366.1629521.140483.3272942.215103.4944166.2375364.5184068.5242533,1.0128323.8562102,1.476485,1.3258792,1.9138333,3.1215416,3.4546402,5.2145504,4.4744577,1.5300966.4891853,3.8555272,1.5718543,4.7308421,1.5631106,1.3011236.0336414,2.5846225-.3063965,3.6984223-.9798233.1665704-.1067892.3266195-.2234234.4792925-.3492832.153501-.1257892.2996751-.2602628.4378051-.4027602l.0063442-.0029583c.2486874-.2565893.2422816-.6661967-.0143075-.9148836-.0199702-.0193556-.041167-.0374026-.0634591-.0540298l-1.5468167-1.1544509-3.6728072-2.7085752Z"/>
  </g>
</svg>