<?xml version="1.0" encoding="utf-8"?>
<!-- Generator: Adobe Illustrator 26.0.3, SVG Export Plug-In . SVG Version: 6.00 Build 0)  -->
<svg version="1.1" id="レイヤー_1" xmlns="http://www.w3.org/2000/svg" xmlns:xlink="http://www.w3.org/1999/xlink" x="0px"
	 y="0px" viewBox="0 0 510 48" style="enable-background:new 0 0 510 48;" xml:space="preserve">
<style type="text/css">
	.st0{fill:none;stroke:#000000;stroke-width:2;stroke-linecap:round;}
</style>
<g id="グループ_1251" transform="translate(-427.182 -853.452)">
	<path id="パス_2189" d="M467.1,862c-1,0-2.1,0-3.1,0c-1.3,0-1.4,0.4-1.4,1.2c0,0.5,0,1,0,1.5v3.9c0,0.7,0,1.4,0,2.1
		c0,0.7,0.2,0.7,1.4,0.7c1.5,0,1.7,0,1.7-0.8c0-0.5-0.1-1.4-0.1-2.1v-2.8c0-0.4,0.3-0.8,0.8-0.8c0,0,0,0,0,0h10.9
		c0.5,0,1.1,0.1,1.1,0.7c-0.2,1.5-0.6,3-1.2,4.5c-1.8,3.7-4.8,6.6-8.6,8.2c-0.3,0.1-0.5,0.2-0.5,0.5c0,0.4,1.2,2.2,1.8,2.2
		c1,0,4.5-2.7,5.3-3.4c3.9-3.4,5.5-7,6.4-12c0.1-0.4,0.2-0.7,0.3-1.1c0.1-0.2,0.1-0.5,0.2-0.7c0-0.4-0.3-0.6-0.8-1.1
		c-0.3-0.3-0.6-0.5-1-0.6c-0.2,0-0.4,0-0.6,0c-0.4,0-0.9,0.1-1.3,0.1h-4.1c-0.4,0-0.8-0.3-0.8-0.7c0,0,0,0,0,0V860
		c0-1.6,0-2,0.3-2.2c0.1-0.1,0.3-0.3,0.3-0.4c0-0.3-0.8-0.3-1-0.3c-0.3,0-2.1-0.1-2.4-0.1c-0.2,0-0.4,0-0.4,0.3c0,0.1,0,0.2,0,0.3
		c0.1,0.9,0.1,1.7,0.1,2.6v1.1c0,0.4-0.3,0.8-0.7,0.8c0,0,0,0,0,0H467.1z M499.7,860.1c-1.2,0-2.4-0.1-3.6-0.1
		c-0.8,0-0.8,0.3-0.8,1.6c0,1.3,0,1.5,0.8,1.5c1.2,0,2.3-0.1,3.5-0.1h9.9c0.5,0,1,0.1,1,0.6c0,0.2,0,0.4-0.1,0.7
		c-0.5,3.2-2.1,6.1-4.6,8.2c-2.1,1.7-4.4,3-7,3.7c-0.3,0.1-0.5,0.1-0.5,0.4c0,0.4,1,2.3,1.7,2.3c0.3,0,0.6-0.1,0.9-0.3
		c1.9-0.7,3.7-1.7,5.4-2.9c4.5-3.2,6.5-6.9,7.5-12.3c0.2-1.2,0.5-1.5,0.5-1.8c0-0.3-1.2-1.8-1.9-1.8c-0.1,0-0.4,0.1-0.5,0.1
		c-0.6,0.1-1.9,0.1-2.5,0.1L499.7,860.1z M532.2,860.1c-1.2,0-2.4-0.1-3.6-0.1c-0.8,0-0.8,0.3-0.8,1.6c0,1.3,0,1.5,0.8,1.5
		c1.2,0,2.3-0.1,3.5-0.1h9.9c0.5,0,1,0.1,1,0.6c0,0.2,0,0.4-0.1,0.7c-0.5,3.2-2.1,6.1-4.6,8.2c-2.1,1.7-4.4,3-7,3.7
		c-0.3,0.1-0.5,0.1-0.5,0.4c0,0.4,1,2.3,1.7,2.3c0.3,0,0.6-0.1,0.9-0.3c1.9-0.7,3.7-1.7,5.4-2.9c4.5-3.2,6.5-6.9,7.5-12.3
		c0.2-1.2,0.5-1.5,0.5-1.8c0-0.3-1.2-1.8-1.9-1.8c-0.1,0-0.4,0.1-0.5,0.1c-0.6,0.1-1.9,0.1-2.5,0.1L532.2,860.1z M577.7,857.3
		c-0.3,0-1.4,0.8-1.4,1.1c0,0.1,0.1,0.3,0.3,0.4c0.6,0.7,1.3,1.5,1.9,2.2c0.1,0.1,0.2,0.3,0.4,0.3c0.4,0,1.4-0.9,1.4-1.3
		C579.6,859.1,578.7,858.1,577.7,857.3L577.7,857.3z M574.8,859.3c-0.3,0-1.4,0.8-1.4,1.1c0,0.1,0.1,0.3,0.3,0.4
		c0.7,0.7,1.3,1.5,1.9,2.2c0.1,0.1,0.3,0.3,0.4,0.3c0.3,0,1.4-0.8,1.4-1.2C576.6,861,575.8,860.1,574.8,859.3L574.8,859.3z
		 M569.9,865.5c-0.1,0.1-0.2,0.1-0.3,0.1c-0.1,0-0.2-0.1-0.2-0.3v-4.2c0-0.7,0-1.2,0-1.7c-0.1-0.5,0-1,0.3-1.5
		c0.1-0.1,0.1-0.2,0.1-0.4c0-0.4-1.1-0.5-2.4-0.7c-0.2,0-0.8-0.1-1-0.1c-0.3,0-0.4,0.1-0.4,0.4c0,0.1,0,0.4,0,0.5
		c0,0.7,0.1,1.5,0.1,2.2v16c0,1.3-0.1,2.5-0.1,3.8c0,0.9,0.5,1,1.6,1c1.7,0,1.7-0.2,1.7-1.5c0-1.1-0.1-2.2-0.1-3.3v-7.6
		c0-0.2,0.1-0.4,0.3-0.4c0.1,0,0.2,0,0.3,0.1c1.4,1,2.8,2.1,4.1,3.3c0.2,0.2,0.4,0.3,0.6,0.4c0.6,0,1.9-1.5,1.9-1.9s-1.6-1.7-2-2
		c-0.6-0.5-3.4-2.7-3.9-2.7C570.4,864.9,570,865.3,569.9,865.5L569.9,865.5z M595.6,866.7c-1.2,0-3.1-0.1-3.5-0.1
		c-0.7,0-0.8,0.2-0.8,1.8c0,0.9,0,1.4,0.8,1.4c1.2,0,2.4-0.1,3.5-0.1h12.9c1.1,0,2.3,0.1,3.5,0.1c0.7,0,0.8-0.5,0.8-1.4
		c0-1.5,0-1.8-0.8-1.8c-0.4,0-2.2,0.1-3.5,0.1H595.6z M627.4,864.3c-1.1,0-2.7-0.1-3.6-0.1c-0.7,0-0.7,0.4-0.7,1.5
		c0,1.2,0.1,1.6,0.8,1.6c0.9,0,2.3-0.1,3.5-0.1h5.5c0.4,0,0.7,0.3,0.7,0.7c0,0.2-0.1,0.5-0.1,0.7c-0.6,3.9-3.2,7.2-6.8,8.7
		c-0.2,0.1-0.8,0.3-0.8,0.6c0.5,0.9,1.3,1.7,2.3,2c0.9-0.4,1.7-0.8,2.5-1.4c3.3-2.5,5.5-6.2,5.9-10.4c0.1-0.5,0.3-1,0.9-1h4
		c1.2,0,2.4,0.1,3.6,0.1c0.6,0,0.8-0.3,0.8-1.5c0-1.3,0-1.6-0.7-1.6c-1.2,0-2.5,0.1-3.7,0.1h-3.7c-0.6,0-0.8-0.5-0.8-1
		c0-1.2,0-2.5,0-3.7v-0.4c0-0.5,0-0.7,0.3-0.9c0.1-0.1,0.1-0.2,0.1-0.3c0-0.2-0.3-0.3-0.4-0.3c-0.4-0.1-2.5-0.3-2.9-0.3
		c-0.1,0-0.3,0.1-0.3,0.2c0,0,0,0,0,0.1c0,0.1,0,0.3,0,0.3c0.1,0.5,0.1,4,0.1,4.7v0.4c0,0.6-0.1,1.3-0.8,1.3L627.4,864.3z
		 M659.6,866.6c-1.2,0-2.8-0.1-3.6-0.1c-0.7,0-0.7,0.5-0.7,1.7c0,0.9,0,1.4,0.8,1.4c0.9,0,2.2-0.1,3.5-0.1h5.7
		c0.3,0,0.5,0.2,0.5,0.5c0,0,0,0,0,0c-0.1,0.5-0.3,0.9-0.5,1.4c-1.3,3.1-3.2,4.8-6.2,6.3c-0.3,0.1-0.6,0.3-0.6,0.5
		c0.5,0.9,1.2,1.6,2.1,2c0.6,0,2.7-1.6,3.3-2c2.4-1.9,4.1-4.5,5-7.5c0.2-0.7,0.3-1.2,1.2-1.2h4.2c1.2,0,2.4,0,3.6,0
		c0.7,0,0.8-0.3,0.8-1.4c0-1.2,0-1.6-0.7-1.6c-1.1,0-2.4,0.1-3.7,0.1h-4c-0.5,0-0.6-0.3-0.6-0.8c0-0.5,0-1,0-1.5
		c0-0.5-0.1-1-0.1-1.5c0-0.5,0.3-0.7,0.8-0.8c0.6-0.1,1.2-0.3,1.8-0.5c0.5-0.1,2.4-0.8,2.7-0.8c0.1,0,0.2,0,0.3,0c0.1,0,0.2,0,0.3,0
		c0.2,0,0.4-0.1,0.4-0.3c0-0.3-1.1-1.4-1.4-1.7c-0.2-0.2-0.8-0.9-1.1-0.9c-0.2,0-0.3,0.1-0.5,0.2c-1.2,0.6-2.5,1-3.8,1.3
		c-2.8,0.6-5.7,0.9-8.5,0.9c-0.4,0-1.1-0.1-1.3-0.1c-0.3,0-0.6,0.1-0.6,0.5c0.1,0.6,0.3,1.2,0.5,1.8c0.2,0.5,0.3,0.6,1,0.6
		c2,0,5.7-0.4,5.9-0.4c0.7,0,0.7,0.6,0.7,2c0,0.8,0,1.8-0.8,1.8H659.6z M697.1,865c-1.1,0-2.3,0-2.8,0c-0.7,0-0.6,0.5-0.6,1.3
		c0,0.9,0,1.4,0.6,1.4c0.7,0,1.8-0.1,2.7-0.1h3.9c0.4,0,0.8,0.1,0.8,0.6c0,0.1-0.1,0.5-0.1,0.6l-0.5,4.9c-0.1,0.4-0.4,0.7-0.8,0.7
		h-6.7c-0.8,0-2.2-0.1-2.7-0.1c-0.6,0-0.7,0.5-0.7,1.5c0,0.6,0,1.2,0.7,1.2c0.7,0,1.7-0.1,2.7-0.1h11.5c0.9,0,1.8,0.1,2.7,0.1
		c0.8,0,0.8-0.5,0.8-1.3c0-0.9,0-1.4-0.7-1.4c-1,0-1.9,0.1-2.8,0.1h-0.8c-0.3,0-0.6-0.3-0.6-0.6c0,0,0,0,0-0.1l0.6-5.2
		c0-0.1,0.1-0.8,0.2-1.3c0.1-0.4,0.1-0.6,0.1-0.8c0-0.6-1-1.4-1.6-1.4c-0.1,0-0.3,0-0.4,0c-0.3,0-0.6,0-1,0L697.1,865z M730.4,876.8
		c-0.1-0.8-0.3-1.6-0.6-2.4c-0.6-2-0.8-2.3-1.3-2.3c-0.4,0-1.5,0.2-1.5,0.8c0,0.2,0.1,0.4,0.1,0.5c0.4,1.2,0.8,2.3,1,3.6
		c0.1,0.4,0.1,0.8,0.6,0.8C729.2,877.8,730.4,877.5,730.4,876.8z M723.3,872.8c0-0.3-0.7-0.4-1-0.5c-0.3-0.1-1.2-0.3-1.4-0.3
		c-0.3,0-0.3,0.3-0.4,0.4c-0.2,2-0.5,3.9-1,5.8c-0.1,0.2-0.1,0.5-0.2,0.8c0,0.5,1.3,0.8,1.7,0.8c0.3,0,0.4-0.2,0.5-0.5
		c0.4-1.9,0.8-3.8,1-5.7c0-0.3,0.1-0.4,0.3-0.5C723.1,873.1,723.3,873,723.3,872.8z M733.1,859.5c0.4,0,0.7,0.1,0.7,0.6v0.1
		c-0.3,2.3-1.5,4.3-3.2,5.7c-0.2,0.2-0.7,0.5-0.7,0.7c0,0.5,1.1,1.8,1.7,1.8c0.3-0.1,0.6-0.3,0.9-0.5c2.3-1.9,3.8-4.7,4.1-7.7
		c0.1-0.5,0.3-0.7,0.8-0.7h2.5c0.6,0,0.9,0.1,0.9,0.7c0,1.2-0.2,2.4-0.4,3.6c-0.3,1-0.7,1.2-1.7,1.2c-0.2,0-0.6,0-0.8,0
		c-0.1,0-0.3-0.1-0.4-0.1c-0.4,0-0.5,0.6-0.5,0.9c0,1.9,0.4,1.9,1.7,1.9c1.5,0,3.2-0.1,3.9-1.6c0.8-1.5,1.2-5.7,1.2-7.4
		c0-1.5-0.5-1.7-2-1.7c-0.6,0-1.3,0.1-2.2,0.1h-6c-0.8,0-1.7-0.1-2.5-0.1c-0.7,0-0.6,0.3-0.6,1.3c0,1,0,1.3,0.6,1.3
		C731.7,859.6,732.4,859.5,733.1,859.5z M734.7,876.9c-0.4,0-0.8-0.3-0.8-0.8c0,0,0,0,0,0v-3.5c0-0.4,0.4-0.8,0.8-0.8h4.9
		c0.4,0,0.8,0.4,0.8,0.8v3.5c0,0.4-0.4,0.8-0.8,0.8L734.7,876.9z M740.3,880.6c0,0.6,0.3,0.6,1.4,0.6c1.1,0,1.4,0,1.4-0.6
		c0-0.5-0.1-1.3-0.1-2V872c0-0.6,0-1.1,0-1.7c0-0.9-0.8-1-1.6-1c-0.7,0-1.3,0-2,0h-4.9c-0.7,0-1.3,0-2,0c-0.8,0-1.6,0.1-1.6,1.1
		c0,0.5,0,1,0,1.6v6.5c0,0.6-0.1,1.5-0.1,2s0.4,0.6,1.5,0.6c1.1,0,1.4,0,1.4-0.6c0-0.2,0-0.4,0-0.6c0-0.4,0.2-0.6,0.6-0.6h5
		c0.5,0,0.8,0.2,0.8,0.8V880.6z M721.2,860.6c-0.1-0.2-0.3-0.3-0.5-0.3c-0.5,0-1.3,1.6-1.3,2c0,0.2,0.1,0.4,0.3,0.4
		c1,0.9,2,1.8,3,2.8c0.2,0.2,0.3,0.4,0.3,0.6c0,0.2-0.1,0.4-0.2,0.5c-0.2,0.3-0.4,0.7-0.6,1c-0.2,0.4-0.6,0.7-1.1,0.6
		c-0.2,0-0.4,0-0.6,0c-0.6,0-0.8,0-0.8,0.4c0,0.4,0.1,0.9,0.2,1.3c0.1,0.2,0.1,0.4,0.2,0.6c0.2,0.6,0.2,0.9,0.5,0.9
		c0.1,0,0.2-0.1,0.3-0.2c0.1-0.3,0.1-0.3,0.4-0.3l1.9-0.2h0.1c0.4,0,0.6,0.3,0.6,0.7v4.8c0,1.3-0.1,2.6-0.1,3.9
		c0,0.8,0.4,0.8,1.4,0.8c1.1,0,1.4,0,1.4-1c0-1.3-0.1-2.5-0.1-3.8v-5.2c0.1-0.6,0.2-0.8,0.8-0.9l0.5-0.1h0.1c0.3,0,0.4,0.2,0.5,0.4
		c0.1,0.5,0.2,0.9,0.6,0.9c0.4,0,1.6-0.4,1.6-0.9c-0.1-0.8-0.4-1.6-0.6-2.4c-0.7-2.1-0.9-2.8-1.5-2.8c-0.4,0-1.5,0.3-1.5,0.8
		c0.1,0.3,0.2,0.6,0.3,0.9c0,0.1,0.1,0.2,0.1,0.3c0,0.4-0.3,0.5-0.5,0.5l-1.6,0.2c-0.2,0-0.4-0.1-0.4-0.3c0-0.1,0-0.2,0.1-0.2
		c1.4-1.9,2.6-3.8,3.8-5.8c0.1-0.2,0.2-0.3,0.4-0.3c0.1,0,0.5,0,0.5-0.3c0-0.2-0.3-0.4-0.8-0.6c-0.6-0.3-1.2-0.6-1.9-0.8
		c-0.2,0-0.3,0.3-0.4,0.4c-0.5,1.1-1,2.1-1.6,3.1c-0.1,0.2-0.3,0.3-0.5,0.3c-0.2,0-0.3-0.1-0.4-0.2l-0.4-0.4
		c-0.1-0.1-0.2-0.3-0.2-0.4c0-0.1,0-0.2,0.1-0.3c0.7-1.3,1.6-2.9,2.2-4.3c0-0.1,0.2-0.2,0.3-0.3c0.2,0,0.5,0,0.5-0.3
		c0-0.3-0.5-0.5-1-0.7c-0.5-0.3-1-0.4-1.5-0.6c-0.3,0-0.3,0.2-0.4,0.5c-0.5,1.4-1,2.7-1.7,4c-0.1,0.2-0.2,0.3-0.4,0.3
		C721.4,860.7,721.3,860.7,721.2,860.6z M762,868.3c0-1.5-0.1-1.7,0.4-2c0.2-0.1,0.4-0.2,0.4-0.4c0-0.3-0.3-0.3-0.5-0.4
		c-0.4-0.1-2.3-0.2-2.7-0.2c-0.3,0-0.6,0.1-0.6,0.4v0.3c0.1,0.8,0.1,1.5,0.1,2.3v1.5c0.1,3.7-1.8,7.1-5.1,8.7
		c-0.3,0.1-0.7,0.3-0.7,0.6c0,0.5,1.1,2,1.9,2c0.2,0,0.4-0.1,0.6-0.2c1.6-0.8,3-2.1,4-3.5c1.5-2.3,2.3-4.9,2.2-7.6V868.3z
		 M764.8,859.7c1.4,1.9,3,3.7,4.8,5.2c0.1,0.1,0.1,0.1,0.1,0.2c0,0.2-0.1,0.2-0.3,0.2c-0.4,0-1.2-0.1-1.6-0.1c-0.3,0-0.6,0-0.6,0.4
		c0,0.1,0,0.2,0,0.3c0.1,0.7,0.1,1.4,0.1,2v8.8c0,1.1-0.1,2.2-0.1,3.3c0,0.9,0.3,0.9,1.5,0.9c1.2,0,1.5,0,1.5-0.9
		c0-1.1-0.1-2.2-0.1-3.3v-8.7c0-0.6,0-1.2,0.1-1.7c0.1-0.2,0.2-0.3,0.4-0.3c0.2,0,0.4,0.1,0.6,0.3c0.6,0.5,3.4,2.6,4.1,2.6
		c0.6,0,1.7-1.5,1.7-2c0-0.4-0.6-0.6-0.8-0.8c-3.2-1.9-6.1-4.2-8.5-6.9c-0.5-0.6-1.2-1.4-1.6-2c0,0,0-0.1,0-0.1c0-0.1,0-0.1,0.1-0.2
		c0.2-0.1,0.3-0.1,0.3-0.3c0-0.2-0.2-0.4-0.4-0.4c-0.5-0.1-2.4-0.6-2.8-0.6c-0.3,0-0.3,0.2-0.4,0.4c-2,4-6.9,8.4-10.6,10.8
		c-0.2,0.1-0.3,0.2-0.3,0.4c0,0.3,1,1.9,1.7,1.9c0.3-0.1,0.7-0.2,1-0.4c3.6-2.5,6.7-5.5,9.3-9c0.1-0.1,0.3-0.2,0.5-0.2
		C764.6,859.5,764.7,859.6,764.8,859.7z M796.3,858.1c-0.3,0-0.4,0.3-0.5,0.6c-0.5,1.7-5.5,12-6.5,13.9c-0.4,0.8-0.5,0.9-2.4,0.9
		h-0.5c-0.4,0-0.6,0-0.6,0.3c0,0.1,0,0.3,0.1,0.4c0.1,0.3,0.2,0.7,0.2,1c0.2,1.1,0.4,1.9,0.8,1.9c0.2,0,0.3-0.1,0.3-0.2
		c0.3-0.4,0.3-0.4,1.3-0.5c1.6-0.2,15.4-1.9,15.5-1.9c0.6,0,0.8,0.5,1.5,1.7c0.1,0.3,0.4,0.7,0.7,0.7c0.6,0,2.2-1.1,2.2-1.8
		c0-0.6-2.5-3.6-3-4.3c-0.6-0.7-3.9-4.4-4.6-4.4c-0.8,0.3-1.5,1-1.9,1.8c0,0.3,0.3,0.5,0.5,0.7c0.5,0.4,2.6,2.3,2.6,2.8
		c0,0.4-0.5,0.4-0.8,0.5c-2.4,0.3-4.8,0.6-7.3,0.8c-0.2,0-0.6,0.1-0.8,0.1c-0.3,0-0.5-0.2-0.5-0.5c0-0.3,0.1-0.5,0.3-0.7
		c1.7-3.2,3.2-6.6,4.8-9.8c0.7-1.4,0.9-1.8,1.5-2.1c0.1-0.1,0.3-0.2,0.3-0.3c0-0.3-0.5-0.4-0.7-0.6
		C797.9,858.7,797.1,858.4,796.3,858.1z M822.9,866.7c-1.2,0-3.1-0.1-3.5-0.1c-0.7,0-0.8,0.2-0.8,1.8c0,0.9,0,1.4,0.8,1.4
		c1.2,0,2.4-0.1,3.5-0.1h12.9c1.1,0,2.3,0.1,3.5,0.1c0.7,0,0.8-0.5,0.8-1.4c0-1.5,0-1.8-0.8-1.8c-0.4,0-2.2,0.1-3.5,0.1H822.9z
		 M870.1,859.2c-0.3,0-1.4,0.7-1.4,1c0,0.1,0.2,0.3,0.3,0.4c0.6,0.7,1.2,1.5,1.8,2.3c0.1,0.1,0.2,0.3,0.4,0.3c0.3,0,1.4-0.7,1.4-1.1
		C871.9,861,871.1,860,870.1,859.2L870.1,859.2z M873,857.4c-0.3,0-1.4,0.7-1.4,1.1c0,0.1,0.1,0.3,0.2,0.4c0.6,0.8,1.2,1.5,1.8,2.4
		c0.1,0.1,0.2,0.3,0.4,0.3c0.3,0,1.4-0.8,1.4-1.2C874.8,859.2,874,858.3,873,857.4L873,857.4z M856.7,869.6c0-0.5,0.4-0.8,0.9-0.8
		c3.8-0.2,7.4-1.1,10.9-2.7c0.3-0.2,0.7-0.3,1-0.3c0.1,0,0.1,0,0.2,0c0.1,0,0.3,0,0.4,0c0.2,0,0.4-0.1,0.4-0.3
		c-0.2-0.5-0.4-0.9-0.8-1.3c-0.1-0.1-0.1-0.2-0.2-0.3c-0.3-0.5-0.8-1.3-1.1-1.3c-0.2,0-0.3,0.1-0.4,0.2c-3.2,1.8-6.8,2.9-10.4,3.1
		c-0.4,0-0.8-0.2-0.8-0.7v-4.1c0-0.5,0-1,0-1.2c0.1-0.6,0.5-0.7,0.5-1c0-0.3-0.5-0.3-0.8-0.4c-0.4-0.1-2.3-0.5-2.5-0.5
		c-0.2,0-0.3,0.1-0.3,0.3c0,0,0,0,0,0v0.2c0.1,1.3,0.2,2.6,0.1,3.9v9.5c0,1.2,0,3.4,0.7,4.5c1.2,1.7,4.3,1.6,6.2,1.6
		c2.2,0,7.9,0,9.8-0.3c0.9-0.1,0.9-0.8,0.9-1.7c0-0.8,0-1.5-0.6-1.5c-0.1,0-0.2,0-0.3,0c-3.1,0.5-6.2,0.7-9.4,0.6
		c-3.8,0-4.4,0.1-4.4-3.3L856.7,869.6z M887.9,866.7c-1.2,0-3.1-0.1-3.5-0.1c-0.7,0-0.8,0.2-0.8,1.8c0,0.9,0,1.4,0.8,1.4
		c1.2,0,2.4-0.1,3.5-0.1h12.9c1.1,0,2.3,0.1,3.5,0.1c0.7,0,0.8-0.5,0.8-1.4c0-1.5,0-1.8-0.8-1.8c-0.4,0-2.2,0.1-3.5,0.1H887.9z"/>
	<g id="グループ_1250" transform="translate(0 -62.803)">
		<path id="パス_2148_00000178163074898754219270000005136544972980332703_" class="st0" d="M428.4,962.3H936"/>
	</g>
</g>
</svg>
