<?xml version="1.0" encoding="utf-8"?>
<!-- Generator: Adobe Illustrator 24.2.0, SVG Export Plug-In . SVG Version: 6.00 Build 0)  -->
<svg version="1.1" id="レイヤー_1" xmlns="http://www.w3.org/2000/svg" xmlns:xlink="http://www.w3.org/1999/xlink" x="0px"
	 y="0px" viewBox="0 0 510 48" style="enable-background:new 0 0 510 48;" xml:space="preserve">
<style type="text/css">
	.st0{fill:none;stroke:#000000;stroke-width:2;stroke-linecap:round;}
</style>
<g id="グループ_1111" transform="translate(-427.182 -914.86)">
	<path id="パス_2171" d="M444.8,918.4c0,0.1,0,0.2,0.1,0.4c0.2,0.6,0.4,1.3,0.6,2c0.3,1.2,1.1,4.4,1.5,5.5
		c0.1,0.2,0.1,0.4,0.1,0.5c0,0.3-0.2,0.6-0.5,0.8c-2.5,1.6-5.2,3.8-5.2,7c0,1.9,1.1,3.7,2.8,4.6c1.9,1,4,1.5,6.1,1.3
		c2.8,0,5.5-0.2,8.2-0.5c0.6-0.2,0.6-0.5,0.6-1.3v-0.4c0-0.6,0-1.9-0.4-1.9c-0.1,0-0.2,0-0.3,0c-2.6,0.5-5.2,0.7-7.8,0.8
		c-1.4,0-2.7-0.1-4-0.5c-0.9-0.3-2-1.1-2-2.2c0.1-1.1,0.6-2,1.5-2.7c1.7-1.4,3.5-2.6,5.4-3.5c2.4-1.3,4.9-2.5,7.4-3.5
		c0.2-0.1,0.6-0.2,0.6-0.5c-0.2-0.7-0.5-1.3-0.9-1.8c-0.2-0.3-0.7-1.2-1.1-1.2c-0.3,0-0.5,0.1-0.8,0.3c-0.8,0.5-5.6,3.3-6.1,3.3
		c-0.5,0-0.6-0.5-0.7-0.9c-0.4-1.8-0.7-3.6-0.9-5.4c-0.1-0.7,0-1.1-0.8-1.1c-0.5,0-1,0.1-1.4,0.2C445.8,918,444.8,918,444.8,918.4z
		 M478.4,937.7c0,0.1-0.5,1.3-0.5,1.3c0,0.5,2.4,1.4,2.9,1.4c0.5,0,0.6-0.5,0.7-0.9c0.6-2.2,1.5-4.4,2.8-6.3
		c0.8-1.1,1.8-2.1,3.1-2.7c0.8-0.5,1.7-0.8,2.6-0.8c0.9,0,1.1,0.6,1.1,1.4c0,0.8-0.1,1.6-0.3,2.4c-0.2,1.1-0.4,2.3-0.4,3.5
		c0,1.9,0.9,3.7,3,3.7c2.3,0,4.4-1.6,6-3.1c0.7-0.7,1.4-1.4,2.1-2c0.2-0.2,0.3-0.4,0.3-0.7c0-0.4-1-2.8-1.6-2.8
		c-0.2,0-0.5,0.2-0.6,0.4c-0.9,1.3-3.8,5-5.5,5c-0.6,0-0.8-0.6-0.8-1.1c0.1-1,0.2-2,0.5-2.9c0.2-1,0.4-1.9,0.4-2.9
		c0-0.6-0.1-1.3-0.3-1.9c-0.7-1.1-1.9-1.8-3.2-1.8c-1.1,0.1-2.2,0.4-3.2,1c-0.2,0.1-0.3,0.2-0.5,0.2c-0.2,0-0.3-0.1-0.3-0.3
		c0.9-1.7,1.9-3.3,3-4.8c0.6-0.9,1.2-1.7,1.9-2.5c0.2-0.2,0.5-0.4,0.8-0.4c0.3,0,0.5-0.2,0.5-0.5c0-0.3-1.1-1.1-1.4-1.3
		c-0.5-0.5-1.1-0.8-1.7-1.1c-0.2,0-0.4,0.3-0.5,0.5c-0.4,0.7-0.8,1.3-1.2,2.1c-2.3,3.4-4.4,6.9-6.3,10.6
		C480.6,932.7,479.5,935.2,478.4,937.7z M526.1,918.3c-0.7,0-1.4,2.1-1.4,2.4c0,0.4,0.4,0.5,0.7,0.6c1.1,0.3,2.1,0.6,3.2,1.1
		c0.4,0.2,0.8,0.3,1.3,0.4c0.8,0,1.4-1.9,1.4-2.2c0-0.5-1.2-0.9-1.8-1.1C528.4,919,527.3,918.6,526.1,918.3z M518.9,933.4
		c0.2,0,0.4-0.2,0.6-0.3c0.5-0.4,2.8-2.3,3.2-2.3c0.4,0,0.6,0.3,0.7,0.6c1.5,3,3.1,5.8,4.7,8.8c0.3,0.6,0.5,1.1,0.9,1.1
		c0.6,0,2.6-1,2.6-1.6c-0.1-0.5-0.4-0.9-0.7-1.3c-0.8-1.2-5.3-8.5-5.3-9.4c0-0.4,0.3-0.6,0.6-0.8c2.1-1.3,5.4-3.2,7.9-3.2
		c1.5,0,2.8,0.8,2.8,2.4c0,2.6-3.6,3.6-5.7,3.9c-0.4,0.1-1,0.1-1,0.6c0,0.4,0.8,2.5,1.6,2.5c0.4,0,0.8-0.1,1.2-0.2
		c3.5-0.9,7.1-2.8,7.1-6.8c0-3.5-2.5-5.2-5.8-5.2c-3.4,0-6.4,1.6-9.2,3.3c-0.2,0.2-0.5,0.2-0.7,0.3c-0.4,0-0.5-0.2-0.7-0.6
		c-0.5-1-0.9-1.9-1.2-3c0-0.1,0-0.2,0.1-0.2c0-0.1,0.1-0.2,0.1-0.3c0-0.2-0.2-0.3-0.4-0.3c-0.3,0.1-0.7,0.2-1,0.3
		c-0.4,0.2-0.8,0.3-1.1,0.4c-0.9,0.3-1.4,0.5-1.4,0.8c0,0.2,0.1,0.4,0.3,0.6c0.5,0.6,2.2,3.4,2.2,4c0,0.5-0.4,0.7-0.8,0.9
		c-0.7,0.5-2.2,1.5-2.8,1.8c-0.3,0.2-0.6,0.3-0.6,0.6C517.1,931.4,518.4,933.4,518.9,933.4z M566.6,916.9c-0.4,0-2.9,0.6-2.9,1.2
		c0,0.2,0.1,0.3,0.2,0.5c0.9,1.1,1.6,2.4,2.2,3.7c0,0.4-0.4,0.5-0.7,0.6c-2,0.4-4,0.6-6,0.7c-0.4,0-0.7,0.1-0.7,0.5
		c0,0.5,0.2,1.1,0.4,1.6c0.3,0.8,0.4,1.1,1.1,1.1c2.4-0.2,4.8-0.6,7.1-1.1c0.1,0,0.3-0.1,0.4-0.1c0.7,0,0.9,0.6,1.1,1.1
		c0.6,1.1,1.1,1.9,1.7,2.9c0.1,0.1,0.2,0.3,0.2,0.5c0,0.2-0.2,0.3-0.3,0.3c0,0,0,0,0,0c-0.1,0-0.2,0-0.3-0.1
		c-1.2-0.5-2.5-0.8-3.8-0.9c-3.4,0-6.3,2.2-6.3,5.7c0,3.5,2.8,5.3,5.9,6.1c1.7,0.4,3.4,0.7,5.2,0.7c0.6,0,0.9-0.1,1-0.5
		c0.2-0.6,0.3-1.2,0.3-1.8c0-0.5-0.1-1-0.7-1c-0.4,0-1,0.1-1.7,0.1c-2.3,0-6.9-0.6-6.9-3.7c0-1.7,1.6-2.7,3.2-2.7
		c2.6,0.2,5,1.1,7.1,2.5c0.4,0.2,0.8,0.6,1.1,0.6c0.6,0,2.1-1.3,2.1-2c-0.1-0.3-0.2-0.6-0.5-0.8c-1.7-2-3.2-4.2-4.4-6.6
		c-0.3-0.3-0.4-0.7-0.5-1.1c0-0.5,0.6-0.7,1-0.8c0.9-0.4,1.9-0.8,2.8-1.3c0.4-0.2,0.9-0.4,0.9-0.8c0-0.5-1.3-2.3-1.9-2.3
		c-0.3,0-0.6,0.2-0.8,0.4c-1,0.7-2.1,1.2-3.3,1.6c-0.4,0-0.7-0.2-0.8-0.6c-0.6-1.2-1.2-2.3-1.9-3.5
		C567.1,917.1,567,916.9,566.6,916.9z M591.2,937.7c0,0.1-0.5,1.3-0.5,1.3c0,0.5,2.4,1.4,2.9,1.4c0.5,0,0.6-0.5,0.7-0.9
		c0.6-2.2,1.5-4.4,2.8-6.3c0.8-1.1,1.8-2.1,3.1-2.7c0.8-0.5,1.7-0.8,2.6-0.8c0.9,0,1.1,0.6,1.1,1.4c0,0.8-0.1,1.6-0.3,2.4
		c-0.2,1.1-0.4,2.3-0.4,3.5c0,1.9,0.9,3.7,3,3.7c2.3,0,4.4-1.6,6-3.1c0.7-0.7,1.4-1.4,2.1-2c0.2-0.2,0.3-0.4,0.3-0.7
		c0-0.4-1-2.8-1.6-2.8c-0.2,0-0.5,0.2-0.6,0.4c-0.9,1.3-3.8,5-5.5,5c-0.6,0-0.8-0.6-0.8-1.1c0.1-1,0.2-2,0.5-2.9
		c0.2-1,0.4-1.9,0.4-2.9c0-0.6-0.1-1.3-0.3-1.9c-0.7-1.1-1.9-1.8-3.2-1.8c-1.1,0.1-2.2,0.4-3.2,1c-0.2,0.1-0.3,0.2-0.5,0.2
		c-0.2,0-0.3-0.1-0.3-0.3c0.9-1.7,1.9-3.3,3-4.8c0.6-0.9,1.2-1.7,1.9-2.5c0.2-0.2,0.5-0.4,0.8-0.4c0.3,0,0.5-0.2,0.5-0.5
		c0-0.3-1.1-1.1-1.4-1.3c-0.5-0.5-1.1-0.8-1.7-1.1c-0.2,0-0.4,0.3-0.4,0.5c-0.4,0.7-0.8,1.3-1.2,2.1c-2.3,3.4-4.4,6.9-6.3,10.6
		C593.4,932.7,592.3,935.2,591.2,937.7z M635.8,933.8c-0.6,0-1.6,2.1-1.6,2.6c0,0.5,2,3,6.9,3c1.2,0,6.3-0.5,7.1-0.9
		c0.4-0.2,0.4-0.8,0.4-1.1c0-1.5-0.1-2.2-0.5-2.2c-0.2,0-0.4,0-0.6,0.1c-2.1,0.6-4.4,0.9-6.6,1c-1.8,0.1-3.5-0.7-4.6-2.1
		C636.1,933.9,636,933.8,635.8,933.8z M636.5,920.8c-0.5,0-0.6,0.5-0.6,1.9c0,0.3,0,1,0.3,1.2c0.6,0.4,4.3,0.6,5.2,0.6
		c1.7,0,3.4-0.2,5-0.4c0.6-0.1,0.6-0.4,0.6-1c0-0.5-0.1-1.1-0.1-1.6c-0.1-0.4-0.2-0.7-0.6-0.7c-0.2,0-0.4,0-0.5,0.1
		c-1.5,0.4-3,0.6-4.6,0.6c-1.3,0-2.6-0.2-3.9-0.5C637,920.9,636.8,920.8,636.5,920.8z M629.3,918.5c-0.3,0-0.4,0.4-0.5,0.7
		c-0.1,0.5-0.2,1-0.4,1.5c-1,3.2-1.5,6.6-1.5,9.9c-0.1,3.2,0.5,6.3,1.8,9.2c0.4,0.8,0.8,1.5,1.3,1.5c0.6,0,2.3-0.7,2.3-1.5
		c0-0.2,0-0.3-0.1-0.5c0-0.3-0.1-1-0.1-1.3c0-1.3,1.2-4.1,1.2-4.3c0-0.3-0.8-1-1.1-1c-0.3,0-0.5,0.3-0.6,0.7
		c-0.1,0.3-0.5,1.2-0.8,1.2c-0.7,0-0.8-3.6-0.8-4.2c0-2.9,0.6-5.8,1.7-8.5c0.3-0.8,0.4-1,0.9-1.3c0.3-0.2,0.4-0.2,0.4-0.4
		c0-0.3-0.4-0.4-0.6-0.5C632.1,919.5,629.6,918.5,629.3,918.5z M677.6,936.5c-0.5-0.1-0.8-0.3-0.8-0.8v-12.2c0-0.5,0.3-0.8,0.8-0.8
		h3.2c0.4,0,0.8,0.3,0.8,0.8c0,0,0,0,0,0.1v12.2c0,0.4-0.3,0.8-0.8,0.8c0,0,0,0-0.1,0H677.6z M680.8,939.3c0.5,0,0.8,0.2,0.8,0.8
		c0,0.2,0,0.5,0,0.7c0,0.8,0.4,0.8,1.5,0.8s1.6,0,1.6-0.8c0-1.2-0.1-2.4-0.1-3.5v-13.4c0-0.9,0-1.8,0-2.8c0-1.3-0.7-1.5-1.8-1.5
		c-0.7,0-1.4,0-2.1,0h-3.2c-0.7,0-1.4,0-2.1,0c-1.1,0-1.8,0.3-1.8,1.5c0,0.9,0.1,1.9,0.1,2.8v13.7c0,1.2-0.1,2.4-0.1,3.6
		c0,0.8,0.4,0.8,1.6,0.8s1.6,0,1.6-0.8c0-0.4,0-0.7,0-1c0-0.6,0.3-0.8,0.8-0.8H680.8z M667.7,927.5c0-1,0-2,0-3.1
		c0.1-0.6,0.3-0.8,0.9-0.8c1,0,2,0.1,2.8,0.1c0.7,0,0.7-0.3,0.7-1.4c0-1.2,0-1.5-0.7-1.5c-0.9,0-1.9,0.1-2.8,0.1h-3.2
		c-0.3,0-0.6-0.1-0.6-0.5c0-0.1,0-0.2,0-0.2c0.3-0.8,0.5-1.4,0.6-1.7c0.3-0.8,0.3-0.9,0.8-1c0.2-0.1,0.5-0.2,0.5-0.5
		c0-0.3-0.3-0.4-1-0.5c-0.2-0.1-0.4-0.1-0.7-0.2c-0.3-0.1-1.3-0.3-1.5-0.3c-0.3,0-0.3,0.2-0.4,0.4c-0.8,3.2-2.2,6.3-4,9
		c-0.2,0.3-0.4,0.6-0.5,0.9c0,0.5,1.7,1.4,2,1.4c0.7,0,2.1-2.6,2.4-3.3c0.2-0.4,0.6-0.7,1.1-0.6c0.6,0,0.8,0.2,0.8,0.8v3
		c0,0.5-0.3,0.8-0.8,0.8h-1.6c-1,0-2-0.1-2.9-0.1c-0.7,0-0.6,0.4-0.6,1.5c0,1,0,1.5,0.6,1.5c0.8,0,1.9-0.1,2.9-0.1h1.3
		c0.5,0.1,0.8,0.2,0.8,0.8c-0.5,3.2-2.4,6.1-5.2,7.9c-0.5,0.3-1,0.6-1,0.9c0,0.5,1.2,2.1,1.8,2.1c0.4-0.1,0.7-0.2,1-0.5
		c2.4-1.6,4.2-3.8,5.4-6.4c0.1-0.1,0.2-0.3,0.4-0.3c0.1,0,0.3,0.1,0.3,0.2c0.7,1.4,1.6,2.7,2.7,3.9c0.3,0.3,1,1.1,1.4,1.1
		c0.9-0.3,1.6-1,1.9-1.9c0-0.3-0.2-0.5-0.4-0.7c-1.9-1.8-3.5-3.9-4.8-6.2c-0.1-0.2-0.1-0.3-0.2-0.5c0-0.4,0.3-0.4,0.6-0.4h1
		c1,0,2.1,0.1,2.9,0.1c0.7,0,0.6-0.4,0.6-1.5c0-1.1,0-1.5-0.6-1.5c-0.8,0-1.9,0.1-2.9,0.1h-0.8C667.9,928.3,667.7,928.1,667.7,927.5
		z M697.2,928.9c0,0.6,1.1,2.4,1.9,2.4c0.3,0,0.6-0.1,0.8-0.3c2.5-1.4,6.5-3,9.4-3c1.7-0.2,3.2,1.1,3.3,2.7c0,0.1,0,0.2,0,0.3
		c-0.1,1.9-1.3,3.5-2.9,4.3c-1.6,0.8-3.3,1.3-5.1,1.5c-0.4,0-1,0.1-1,0.6c0,0.2,0.4,2.3,1.4,2.3c1.6-0.2,3.1-0.6,4.6-1.3
		c3.1-1.3,5.9-3.6,5.9-7.3c0-3.6-2.7-5.9-6.2-5.9c-2.8,0-6,1.2-8.6,2.2c-0.9,0.4-1.8,0.7-2.8,0.9
		C697.5,928.4,697.2,928.5,697.2,928.9z M729.9,922.2c0,0.3,0.3,3.1,1,3.1c0.2,0,0.3,0,0.5-0.1c2.2-0.5,4.4-0.9,6.6-1.2
		c0.3-0.1,1.7-0.3,1.9-0.3c0.2,0,0.5,0.1,0.5,0.4c0,0.2-0.4,0.6-0.5,0.7c-2.1,2.4-3.3,5.4-3.3,8.6c0,5.9,4.4,7.5,9.5,7.5
		c0.3,0,0.7,0,0.9-0.3c0.3-0.8,0.5-1.8,0.5-2.7c0-0.5-0.2-0.5-0.7-0.5c-0.3,0-1,0-1.5,0c-3,0-5.3-0.8-5.3-4.3c0-1.9,0.5-3.7,1.4-5.3
		c1.1-2.1,2.9-3.7,5.1-4.5c1.6-0.5,3.3-0.7,5-0.6c0.7,0,1.3,0,1.3-0.6c0-0.7-0.1-1.5-0.2-2.2c-0.1-0.4-0.1-0.8-0.6-0.8
		c-0.1,0-0.2,0-0.4,0c-2.2,0.4-4.6,0.7-6.8,0.9c-4.4,0.5-8.8,1-13.1,1.2C730.3,921.5,729.9,921.4,729.9,922.2z M778.6,936.2
		c0.5,0,1.6,0,1.6,0.7c0,1.3-0.9,1.6-2.2,1.6c-0.7,0-2-0.2-2-1.1C776,936.4,777.8,936.2,778.6,936.2z M785.4,918.6
		c-0.1,0-0.2,0-0.3,0.1c-2.5,0.8-5.1,1.1-7.8,1c-0.6,0-1.9,0-2.5-0.1c-0.1,0-0.3,0-0.4,0c-0.4,0-0.6,0.2-0.6,0.6
		c0,0.3,0.1,1.8,0.2,2c0.1,0.5,0.5,0.5,1,0.5c1.2,0,3.7-0.2,4-0.2c0.5,0,0.6,0.1,0.6,2.8c0,0.9-0.4,1-4.8,1c-0.7,0-1.4-0.1-2-0.1
		c-0.5,0-0.6,0.2-0.6,0.7c0,0.7,0.1,1.5,0.2,2.2c0.1,0.3,0.8,0.2,1.1,0.2c1.4,0,4-0.1,5.4-0.3c0.1,0,0.2,0,0.2,0
		c0.5,0,0.6,0.4,0.6,0.8c0,0.6,0.2,2.6,0.2,3.1c0,0.4-0.3,0.7-0.6,0.7c0,0,0,0,0,0c-0.2,0-0.7-0.1-1.1-0.1c-2.3,0-5.1,1-5.1,3.8
		c0,2.6,2.6,3.6,4.9,3.6c1.6,0,3.9-0.5,4.5-2.2c0.2-0.5,0.3-0.9,0.6-0.9c0.5,0,1.8,1.2,2.2,1.6c0.1,0.1,0.1,0.2,0.2,0.2
		c0.3,0.3,0.5,0.5,0.8,0.5c0.7,0,1.8-1.6,1.8-2.2c0-0.9-3.5-2.9-4.3-3.3c-0.8-0.3-0.9-0.5-0.9-1.3c0-1-0.2-3.3-0.2-4
		c0-0.9,0.9-0.9,2.2-1.1c2.5-0.4,3.1-0.5,3.1-1.1c0-0.5-0.1-1.1-0.3-1.6c-0.1-0.5-0.2-0.9-0.6-0.9c-0.3,0-0.6,0.1-0.9,0.2
		c-1,0.3-2.1,0.6-3.2,0.8c-0.5,0-0.6-0.5-0.6-1.6v-1c0-0.8,0.3-1,1-1.1c2-0.2,2.6-0.4,2.6-1C786.2,920.7,786,918.6,785.4,918.6z
		 M770.5,918.8c-0.7-0.4-1.4-0.7-2.2-0.9c-0.3,0-0.4,0.4-0.4,0.6c-0.2,1-0.5,1.9-0.7,2.9c-0.9,3.2-1.4,6.6-1.5,9.9
		c-0.1,3.2,0.5,6.4,1.7,9.4c0.2,0.4,0.4,1,0.9,1c0.5-0.1,0.9-0.2,1.3-0.4c0.5-0.2,0.8-0.4,0.8-0.9c0-0.3-0.1-0.7-0.1-1.1
		c0.1-1.6,0.5-3.2,1.2-4.7c0.2-0.4,0.3-0.8,0.5-1.3c0-0.4-1-1-1.3-1c-0.3,0-0.4,0.4-0.5,0.7c-0.1,0.2-0.2,0.4-0.3,0.6
		c-0.2,0.6-0.4,0.9-0.6,0.9c-0.2,0-0.3-0.1-0.3-0.3c-0.2-1-0.3-2-0.3-3c0.1-3.5,0.7-6.9,1.8-10.2c0.3-0.7,0.4-0.8,0.7-1
		c0.1-0.1,0.4-0.2,0.4-0.5C771.7,919.3,770.9,919,770.5,918.8z M805.3,918.2c-0.4,0-0.5,0.3-0.5,0.8v0.3c0,1.2-0.3,4.1-0.4,5.5
		c-0.2,2.4-0.3,4.7-0.3,7.1c0,2.2,0.2,5.1,1.5,6.9c1.3,1.5,3.3,2.4,5.3,2.3c3.9-0.1,7.4-2.3,9.1-5.7c0.6-1.1,1-2.3,1.2-3.5
		c0-0.9-1.8-2.4-2.5-2.4c-0.4,0-0.5,0.5-0.6,1c-0.2,1.6-0.9,3.1-1.8,4.4c-1.4,1.7-3.4,2.8-5.6,2.9c-3.2,0-3.2-3.6-3.2-6
		c0-1.7,0.3-11.2,1.3-12c0.2-0.2,0.4-0.2,0.4-0.5c0-0.3-0.4-0.4-0.6-0.4C807.6,918.6,806.4,918.4,805.3,918.2z M849.8,923.3
		c0,0.2,0.1,0.4,0.3,0.5c2.7,2.1,4.3,5.2,4.4,8.5c0.1,0.7,0,1.1,1,1.1c0.6,0,1.1-0.1,1.7-0.3c0.5-0.1,0.8-0.3,0.8-0.9
		c-0.2-2.2-0.8-4.3-1.8-6.2c-1.4-2.8-4-4.6-4.6-4.6C851,921.5,849.8,922.8,849.8,923.3L849.8,923.3z M836.3,921.4
		c-0.2,0-0.4,0.1-0.4,0.3c0,0,0,0,0,0c-0.1,0.3-0.2,4.1-0.2,4.6c0,3.2,0.2,7,1.7,9.8c1,1.8,2.7,3.8,5,3.8c1.3-0.1,2.5-0.8,3.2-1.9
		c0.4-0.5,1.8-2,1.8-2.6c0-0.5-1.5-1.8-2.2-1.8c-0.4,0-0.6,0.5-0.8,0.8c-0.4,0.7-1.2,2-2.1,2c-1,0-2-1.8-2.4-2.6c-0.7-2-1-4.1-1-6.3
		c0-1.1,0.1-2.1,0.2-3.2c0.1-0.5,0.1-1.1,0.5-1.4c0.2-0.2,0.3-0.2,0.3-0.4c0-0.3-0.4-0.4-0.7-0.4C838.9,922,836.7,921.4,836.3,921.4
		L836.3,921.4z M871.1,933.2c0.2,1,0.6,2,1.2,2.9c2,2.7,5.3,3.1,8.4,3.1c3,0,6-0.3,9-0.8c0.6-0.2,0.7-0.5,0.7-1.1
		c0-2-0.2-2.5-0.7-2.5c-0.2,0-0.3,0-0.5,0.1c-2.9,0.7-5.9,1.1-8.9,1c-2.8,0-5.4-0.5-6-3.6c-0.1-0.3-0.2-0.6-0.5-0.6
		C873.8,931.8,871.1,932.5,871.1,933.2L871.1,933.2z M874.1,922.9c0,0.3,0.2,0.5,0.4,0.6c1.5,0.6,5.2,0.8,6.8,0.8
		c1.8,0,3.6-0.1,5.4-0.4c0.7-0.1,0.8-0.2,0.8-0.9c0-1.2,0-2.6-0.8-2.6c-0.1,0-0.3,0-0.4,0.1c-1.8,0.4-3.6,0.6-5.4,0.6
		c-1.7,0-3.4-0.2-5.1-0.6c-0.3-0.1-0.6-0.1-0.9-0.2c-0.6,0-0.6,0.5-0.7,1C874.2,921.9,874.1,922.4,874.1,922.9L874.1,922.9z
		 M909.8,918.4c0,0.1,0,0.2,0.1,0.4c0.2,0.6,0.4,1.3,0.6,2c0.3,1.2,1.1,4.4,1.5,5.5c0.1,0.2,0.1,0.4,0.1,0.5c0,0.3-0.2,0.6-0.5,0.8
		c-2.5,1.6-5.2,3.8-5.2,7c0,1.9,1.1,3.7,2.8,4.6c1.9,1,4,1.5,6.2,1.3c2.8,0,5.5-0.2,8.2-0.5c0.6-0.1,0.6-0.5,0.6-1.3v-0.4
		c0-0.6,0-1.9-0.5-1.9c-0.1,0-0.2,0-0.3,0c-2.6,0.5-5.2,0.7-7.8,0.8c-1.4,0-2.7-0.1-4-0.5c-0.9-0.3-2-1.1-2-2.2
		c0.1-1.1,0.6-2,1.5-2.7c1.7-1.4,3.5-2.6,5.4-3.5c2.4-1.3,4.9-2.5,7.4-3.5c0.2-0.1,0.6-0.2,0.6-0.5c-0.2-0.7-0.5-1.3-0.9-1.8
		c-0.2-0.3-0.7-1.2-1.1-1.2c-0.3,0-0.5,0.1-0.8,0.3c-0.8,0.5-5.6,3.3-6.1,3.3c-0.5,0-0.6-0.5-0.7-0.9c-0.4-1.8-0.7-3.6-0.9-5.4
		c-0.1-0.7,0-1.1-0.8-1.1c-0.5,0-1,0.1-1.4,0.2C910.8,918,909.8,918,909.8,918.4L909.8,918.4z"/>
	<path id="パス_2148" class="st0" d="M428.4,960.9H936"/>
</g>
</svg>
