<?xml version="1.0" encoding="utf-8"?>
<!-- Generator: Adobe Illustrator 24.2.0, SVG Export Plug-In . SVG Version: 6.00 Build 0)  -->
<svg version="1.1" id="レイヤー_1" xmlns="http://www.w3.org/2000/svg" xmlns:xlink="http://www.w3.org/1999/xlink" x="0px"
	 y="0px" viewBox="0 0 254 68" style="enable-background:new 0 0 254 68;" xml:space="preserve">
<g id="グループ_1078" transform="translate(-818.456 -412.8)">
	<path id="パス_2170" d="M828.7,415.9c0,0.1,0.1,0.3,0.1,0.4c0.3,0.7,0.5,1.5,0.6,2.2c0.3,1.4,1.3,5,1.7,6.2
		c0.1,0.2,0.1,0.4,0.1,0.6c0,0.4-0.2,0.7-0.6,0.9c-2.8,1.8-5.9,4.2-5.9,8c0,2.2,1.2,4.2,3.1,5.2c2.2,1.3,4.5,1.5,7,1.5
		c3.1,0,6.2-0.2,9.3-0.5c0.7-0.2,0.7-0.5,0.7-1.4v-0.4c0-0.7,0-2.1-0.5-2.1c-0.1,0-0.2,0-0.3,0c-2.9,0.6-5.9,0.8-8.9,0.9
		c-1.5,0.1-3.1-0.2-4.5-0.6c-1.1-0.4-2.2-1.2-2.2-2.4c0.1-1.2,0.7-2.3,1.7-3.1c1.9-1.6,3.9-2.9,6.1-4c2.7-1.5,5.5-2.8,8.4-3.9
		c0.3-0.1,0.6-0.2,0.6-0.5c-0.2-0.7-0.5-1.4-1-2.1c-0.2-0.3-0.8-1.4-1.2-1.4c-0.3,0-0.6,0.2-0.9,0.3c-0.9,0.6-6.3,3.8-6.9,3.8
		c-0.6,0-0.7-0.6-0.8-1c-0.5-2-0.8-4-1.1-6.1c-0.1-0.8,0-1.3-1-1.3c-0.5,0-1.1,0.1-1.6,0.2C829.9,415.4,828.7,415.4,828.7,415.9z
		 M866.8,437.7c0,0.1-0.6,1.5-0.6,1.5c0,0.6,2.7,1.6,3.3,1.6c0.6,0,0.6-0.6,0.7-1.1c0.6-2.5,1.7-5,3.1-7.1c0.9-1.3,2.1-2.3,3.5-3.1
		c0.9-0.6,1.9-0.9,2.9-1c1,0,1.3,0.7,1.3,1.6c0,0.9-0.2,1.8-0.4,2.8c-0.3,1.3-0.4,2.6-0.4,3.9c0,2.1,1,4.2,3.4,4.2
		c2.7,0,5-1.9,6.8-3.6c0.8-0.7,1.6-1.5,2.4-2.3c0.2-0.2,0.3-0.5,0.4-0.7c0-0.5-1.2-3.2-1.8-3.2c-0.3,0-0.5,0.3-0.7,0.5
		c-1.1,1.5-4.3,5.6-6.2,5.6c-0.7,0-0.9-0.7-0.9-1.3c0.1-1.1,0.3-2.2,0.5-3.3c0.3-1.1,0.4-2.2,0.4-3.3c0-0.7-0.1-1.5-0.4-2.1
		c-0.7-1.3-2.1-2-3.6-2c-1.3,0.1-2.5,0.5-3.6,1.2c-0.2,0.1-0.4,0.2-0.6,0.2c-0.2,0-0.3-0.2-0.3-0.3c0-0.5,3-4.8,3.4-5.4
		c0.7-1,1.4-1.9,2.1-2.8c0.2-0.2,0.5-0.4,0.9-0.4c0.3,0,0.6-0.2,0.6-0.5c0-0.4-1.2-1.2-1.6-1.5c-0.6-0.5-1.2-0.9-1.9-1.3
		c-0.2,0-0.4,0.3-0.5,0.5c-0.4,0.8-0.9,1.5-1.4,2.3c-2.6,3.8-5,7.8-7.1,12C869.3,432,868.1,434.9,866.8,437.7z M920.9,415.8
		c-0.7,0-1.5,2.4-1.5,2.8c0,0.5,0.4,0.5,0.8,0.6c1.2,0.3,2.4,0.7,3.6,1.2c0.4,0.2,0.9,0.4,1.4,0.5c0.9,0,1.6-2.2,1.6-2.5
		c0-0.5-1.3-1-2-1.3C923.5,416.5,922.2,416.1,920.9,415.8z M912.8,432.9c0.2,0,0.5-0.3,0.6-0.4c0.5-0.5,3.1-2.7,3.6-2.7
		c0.4,0,0.6,0.3,0.8,0.6c1.7,3.4,3.5,6.6,5.3,9.9c0.3,0.7,0.6,1.3,1.1,1.3c0.6,0,3-1.2,3-1.8c-0.2-0.5-0.4-1-0.7-1.5
		c-0.8-1.3-6-9.7-6-10.6c0-0.4,0.3-0.6,0.7-0.8c2.4-1.4,6.2-3.6,8.9-3.6c1.7,0,3.1,0.9,3.1,2.7c0,3-4.1,4-6.4,4.5
		c-0.4,0.1-1.1,0.1-1.1,0.7c0,0.5,0.9,2.8,1.8,2.8c0.4,0,0.9-0.1,1.3-0.2c3.9-1,8-3.2,8-7.8c0-3.9-2.8-6-6.5-6
		c-3.8,0-7.3,1.8-10.5,3.7c-0.2,0.2-0.5,0.3-0.8,0.3c-0.4,0-0.6-0.3-0.8-0.6c-0.6-1.1-1-2.2-1.4-3.4c0-0.1,0-0.2,0.1-0.3
		c0-0.1,0.1-0.2,0.1-0.4c0-0.2-0.2-0.3-0.4-0.3c-0.4,0.1-0.8,0.2-1.1,0.3c-0.5,0.2-0.9,0.3-1.3,0.5c-1,0.4-1.6,0.6-1.6,0.9
		c0,0.3,0.2,0.5,0.3,0.6c0.5,0.7,2.5,3.8,2.5,4.6c0,0.5-0.5,0.8-0.8,1.1c-0.8,0.5-2.4,1.7-3.2,2.1c-0.4,0.2-0.7,0.3-0.7,0.7
		C910.7,430.6,912.1,432.9,912.8,432.9z M966.8,414.2c-0.5,0-3.3,0.7-3.3,1.4c0,0.2,0.1,0.4,0.2,0.5c0.4,0.6,2.5,3.6,2.5,4.1
		c0,0.5-0.4,0.6-0.8,0.7c-2.2,0.5-4.5,0.7-6.8,0.7c-0.4,0-0.8,0.1-0.8,0.6c0.1,0.6,0.2,1.2,0.4,1.8c0.3,1,0.5,1.2,1.2,1.2
		c2.7-0.2,5.4-0.6,8.1-1.3c0.1,0,0.3-0.1,0.4-0.1c0.7,0,1,0.6,1.3,1.2c0.7,1.2,1.2,2.1,2,3.3c0.1,0.2,0.2,0.3,0.2,0.5
		c0,0.2-0.2,0.3-0.4,0.3c-0.1,0-0.3,0-0.4-0.1c-1.3-0.6-2.8-0.9-4.2-1c-3.8,0-7.2,2.4-7.2,6.5c0,4,3.2,6.1,6.7,6.9
		c1.9,0.5,3.9,0.7,5.8,0.8c0.7,0,1-0.1,1.2-0.6c0.2-0.7,0.3-1.4,0.3-2.1c0-0.6-0.1-1.1-0.8-1.1c-0.4,0-1.1,0.1-1.9,0.1
		c-2.6,0-7.8-0.7-7.8-4.2c0-2,1.9-3,3.6-3c2.9,0,6.4,1.7,8.1,2.9c0.4,0.3,0.9,0.7,1.3,0.7c0.7,0,2.4-1.5,2.4-2.2
		c-0.1-0.4-0.3-0.7-0.5-1c-1.9-2.3-3.6-4.8-4.9-7.5c-0.3-0.4-0.5-0.8-0.6-1.3c0-0.6,0.7-0.7,1.1-0.9c1.1-0.4,2.1-0.9,3.1-1.5
		c0.4-0.2,1-0.5,1-0.9c0-0.6-1.5-2.7-2.2-2.7c-0.3,0.1-0.7,0.2-0.9,0.4c-0.6,0.4-3.1,1.8-3.7,1.8c-0.4,0-0.8-0.3-0.9-0.6
		c-0.7-1.3-1.4-2.7-2.1-3.9C967.4,414.4,967.2,414.2,966.8,414.2z M999.4,437.7c0,0.1-0.6,1.5-0.6,1.5c0,0.6,2.7,1.6,3.3,1.6
		c0.6,0,0.6-0.6,0.7-1.1c0.6-2.5,1.7-5,3.1-7.1c0.9-1.3,2.1-2.3,3.5-3.1c0.9-0.6,1.9-0.9,2.9-1c1,0,1.3,0.7,1.3,1.6
		c0,0.9-0.2,1.8-0.4,2.8c-0.3,1.3-0.4,2.6-0.4,3.9c0,2.1,1,4.2,3.4,4.2c2.7,0,5-1.9,6.8-3.6c0.8-0.7,1.6-1.5,2.4-2.3
		c0.2-0.2,0.3-0.5,0.4-0.7c0-0.5-1.2-3.2-1.8-3.2c-0.3,0-0.5,0.3-0.7,0.5c-1.1,1.5-4.3,5.6-6.2,5.6c-0.7,0-0.9-0.7-0.9-1.3
		c0.1-1.1,0.3-2.2,0.5-3.3c0.3-1.1,0.4-2.2,0.4-3.3c0-0.7-0.1-1.5-0.4-2.1c-0.7-1.3-2.1-2-3.6-2c-1.3,0.1-2.5,0.5-3.6,1.2
		c-0.2,0.1-0.4,0.2-0.6,0.2c-0.2,0-0.3-0.2-0.3-0.3c0-0.5,3-4.8,3.4-5.4c0.7-1,1.4-1.9,2.1-2.8c0.2-0.2,0.5-0.4,0.9-0.4
		c0.3,0,0.6-0.2,0.6-0.5c0-0.4-1.2-1.2-1.6-1.5c-0.6-0.5-1.2-0.9-1.9-1.3c-0.2,0-0.4,0.3-0.5,0.5c-0.4,0.8-0.9,1.5-1.4,2.3
		c-2.6,3.8-5,7.8-7.1,12C1001.9,432,1000.7,434.9,999.4,437.7z M1054.1,421.2c-1.8,0-3.4,1.6-4.7,2.8c-1.7,1.6-3.5,2.9-5.5,4.1
		c-0.3,0.2-1.1,0.5-1.1,0.9c0,0.5,2.2,3.4,2.8,3.4c0.3,0,0.6-0.4,0.8-0.6c1.5-1.6,3.3-3,4.9-4.6c0.9-0.8,1.9-1.8,2.6-1.8
		c0.7,0,1.5,0.9,2.6,2.1c2.5,3.2,5.5,6,8.7,8.5c0.8,0.7,1.7,1.2,2.7,1.6c0.9,0,2.5-2.5,2.5-3.2c0-0.3-0.4-0.5-0.7-0.7
		c-4.3-2.1-7.7-5.5-10.8-9.1C1057.8,423,1056.3,421.2,1054.1,421.2z"/>
	<path id="パス_2172" d="M821.7,479.2c-0.1,0.1-0.3,0.2-0.5,0.2c-0.2,0-0.4-0.1-0.5-0.2c-0.1-0.1-0.2-0.3-0.2-0.5v-8.3
		c0-0.2,0.1-0.4,0.2-0.5c0.1-0.1,0.3-0.2,0.5-0.2h4.6c0.2,0,0.4,0.1,0.5,0.2c0.1,0.1,0.2,0.3,0.2,0.5c0,0.2-0.1,0.4-0.2,0.5
		c-0.1,0.1-0.3,0.2-0.5,0.2h-3.8v2.6h3.3c0.2,0,0.4,0.1,0.5,0.2c0.1,0.1,0.2,0.3,0.2,0.5c0,0.2-0.1,0.4-0.2,0.5
		c-0.1,0.2-0.3,0.2-0.5,0.2h-3.3v3.4C821.9,478.8,821.8,479,821.7,479.2z M831.2,477.9c-0.9-1-1.4-2.2-1.4-3.6
		c0-1.3,0.5-2.6,1.4-3.6c0.9-1,2.1-1.5,3.4-1.5c1.3,0,2.5,0.5,3.4,1.5c0.9,1,1.4,2.2,1.4,3.5c0,1.3-0.5,2.6-1.4,3.5
		c-0.4,0.5-0.9,0.8-1.5,1.1c-0.6,0.3-1.2,0.4-1.8,0.4C833.3,479.4,832.1,478.9,831.2,477.9z M831.4,474.4c0,0.9,0.3,1.8,0.9,2.4
		c0.6,0.7,1.4,1,2.3,1c0.9,0,1.7-0.4,2.3-1c0.6-0.7,0.9-1.5,0.9-2.4c0-0.9-0.3-1.8-0.9-2.4c-0.6-0.7-1.4-1-2.3-1
		c-0.9,0-1.7,0.4-2.3,1C831.7,472.6,831.4,473.5,831.4,474.4z M848.5,474.9c0.6,0.5,1,1.2,1,2c0,0.3,0,0.6,0.1,0.8
		c0.2,0.1,0.4,0.2,0.5,0.5c0.1,0.2,0,0.5-0.1,0.7c-0.2,0.2-0.4,0.3-0.7,0.3h0c-0.4,0-0.8-0.3-1-0.6c-0.2-0.5-0.3-1.1-0.3-1.7
		c0-0.4-0.2-0.8-0.6-1c-0.2-0.2-0.5-0.3-0.8-0.3h-1.7v3c0,0.2-0.1,0.4-0.2,0.5c-0.1,0.1-0.3,0.2-0.6,0.2c-0.2,0-0.4-0.1-0.5-0.2
		c-0.1-0.1-0.2-0.3-0.2-0.5v-8.3c0-0.2,0.1-0.4,0.2-0.5c0.1-0.1,0.3-0.2,0.5-0.2h2.5c0.8,0,1.6,0.3,2.1,0.9c0.6,0.6,0.9,1.4,0.9,2.2
		C849.6,473.6,849.2,474.4,848.5,474.9z M846.6,474c0.4,0,0.8-0.1,1-0.4c0.3-0.3,0.4-0.6,0.4-1c0-0.4-0.1-0.8-0.4-1
		c-0.3-0.3-0.6-0.4-1-0.4h-1.7v2.9H846.6z M860.1,479.4L860.1,479.4C860.1,479.4,860.1,479.4,860.1,479.4c-0.3,0-0.5-0.1-0.6-0.2
		c-0.1-0.1-0.2-0.3-0.2-0.5v-8.3c0-0.2,0.1-0.4,0.2-0.5c0.1-0.1,0.3-0.2,0.5-0.2h2c0.7,0,1.4,0.3,1.9,0.8c0.5,0.5,0.8,1.1,0.8,1.8
		c0,0.6-0.2,1.2-0.5,1.7c0.4,0.3,0.8,0.6,1,1.1c0.3,0.4,0.4,0.9,0.4,1.5c0,0.8-0.3,1.6-0.9,2.1c-0.6,0.6-1.3,0.9-2.1,0.9H860.1z
		 M860.8,471.2v2.2h1.2c0.3,0,0.6-0.1,0.8-0.3c0.2-0.2,0.3-0.5,0.3-0.8c0-0.3-0.1-0.6-0.3-0.8c-0.2-0.2-0.5-0.3-0.8-0.3L860.8,471.2
		z M860.8,474.9v2.9h1.8c0.4,0,0.8-0.2,1-0.4c0.3-0.3,0.4-0.6,0.4-1c0-0.4-0.1-0.8-0.4-1c-0.3-0.3-0.6-0.4-1-0.4H860.8z
		 M877.1,475.4c0,1.1-0.4,2.1-1.2,2.9c-0.7,0.8-1.8,1.2-2.9,1.2c-1.1,0-2.1-0.4-2.9-1.2c-0.8-0.8-1.2-1.8-1.2-2.9v-5
		c0-0.2,0.1-0.4,0.2-0.5c0.1-0.1,0.3-0.2,0.5-0.2c0.2,0,0.4,0.1,0.6,0.2c0.2,0.1,0.2,0.3,0.2,0.5v5c0,0.7,0.3,1.3,0.7,1.8
		c0.5,0.5,1.1,0.7,1.8,0.7c0.7,0,1.3-0.3,1.8-0.7c0.5-0.5,0.7-1.1,0.7-1.8v-5c0-0.2,0.1-0.4,0.2-0.5c0.1-0.1,0.3-0.2,0.6-0.2
		c0.2,0,0.4,0.1,0.5,0.2c0.1,0.1,0.2,0.3,0.2,0.5L877.1,475.4z M887.4,470c0.1-0.2,0.3-0.3,0.5-0.3c0.2,0,0.4,0,0.6,0.1
		c0.2,0.1,0.3,0.3,0.3,0.5c0,0.2,0,0.4-0.1,0.6l-2.9,3.9v3.8c0,0.2-0.1,0.4-0.2,0.5c-0.1,0.1-0.3,0.2-0.5,0.2
		c-0.2,0-0.4-0.1-0.5-0.2c-0.1-0.1-0.2-0.3-0.2-0.5v-3.8l-2.8-3.9c-0.1-0.2-0.2-0.4-0.2-0.6c0-0.2,0.1-0.4,0.3-0.5
		c0.2-0.1,0.4-0.2,0.6-0.1c0.2,0,0.4,0.1,0.5,0.3l2.4,3.3L887.4,470z M892.4,479.4c-0.2,0-0.4-0.1-0.5-0.2c-0.1-0.1-0.2-0.3-0.2-0.5
		v-8.3c0-0.2,0.1-0.4,0.2-0.5c0.1-0.1,0.3-0.2,0.5-0.2h4.6c0.2,0,0.4,0.1,0.5,0.2c0.2,0.1,0.2,0.3,0.2,0.5c0,0.2-0.1,0.4-0.2,0.6
		c-0.1,0.1-0.3,0.2-0.5,0.2h-3.8v2.6h3.3c0.2,0,0.4,0.1,0.5,0.2c0.1,0.1,0.2,0.3,0.2,0.5c0,0.2-0.1,0.4-0.2,0.5
		c-0.1,0.2-0.3,0.2-0.5,0.2h-3.3v2.6h3.8c0.2,0,0.4,0.1,0.5,0.2c0.1,0.1,0.2,0.3,0.2,0.5c0,0.2-0.1,0.4-0.2,0.5
		c-0.1,0.1-0.3,0.2-0.5,0.2H892.4L892.4,479.4L892.4,479.4z M906.3,474.9c0.6,0.5,1,1.2,1,2c0,0.3,0,0.6,0.1,0.8
		c0.2,0.1,0.4,0.2,0.5,0.5c0.1,0.2,0,0.5-0.1,0.7c-0.2,0.2-0.4,0.3-0.7,0.3h0c-0.4,0-0.8-0.3-1-0.6c-0.2-0.5-0.3-1.1-0.3-1.7
		c0-0.4-0.2-0.8-0.6-1c-0.2-0.2-0.5-0.3-0.8-0.3h-1.7v3c0,0.2-0.1,0.4-0.2,0.5c-0.1,0.1-0.3,0.2-0.5,0.2c-0.2,0-0.4-0.1-0.5-0.2
		c-0.1-0.1-0.2-0.3-0.2-0.5v-8.3c0-0.2,0.1-0.4,0.2-0.5c0.1-0.1,0.3-0.2,0.5-0.2h2.5c0.8,0,1.6,0.3,2.1,0.9c0.6,0.6,0.9,1.4,0.9,2.2
		C907.4,473.6,907,474.4,906.3,474.9z M904.4,474c0.4,0,0.8-0.1,1-0.4c0.3-0.3,0.4-0.6,0.4-1c0-0.4-0.1-0.8-0.4-1
		c-0.3-0.3-0.6-0.4-1-0.4h-1.7v2.9H904.4z"/>
</g>
</svg>
