<?xml version="1.0" encoding="utf-8"?>
<!-- Generator: Adobe Illustrator 24.2.0, SVG Export Plug-In . SVG Version: 6.00 Build 0)  -->
<svg version="1.1" id="レイヤー_1" xmlns="http://www.w3.org/2000/svg" xmlns:xlink="http://www.w3.org/1999/xlink" x="0px"
	 y="0px" viewBox="0 0 169.5 174.8" style="enable-background:new 0 0 169.5 174.8;" xml:space="preserve">
<style type="text/css">
	.st0{fill:#F8EEE4;}
	.st1{opacity:0.1;}
	.st2{fill:#1A1311;}
</style>
<g id="グループ_1040" transform="translate(-193.5 -3649.22)">
	<g id="グループ_497" transform="translate(193.5 3649.22)">
		<path id="長方形_150" class="st0" d="M38,0h93.3c21,0,38,17,38,38v84.3c0,21-17,38-38,38H38c-21,0-38-17-38-38V38
			C0,17,17,0,38,0z"/>
		<path id="パス_618" class="st0" d="M24.7,142c2.4,8.3,8.1,19.5-0.8,29s18.4-3,25.8-13c7.4-10,8.5-16.6,7.8-26.6
			C56.9,121.5,24.7,142,24.7,142z"/>
	</g>
	<g id="マスクグループ_16" transform="translate(193.5 3649.22)">
		<g id="グループ_522" transform="translate(78.346 31.725)" class="st1">
			<path id="パス_1" class="st2" d="M96.2,82.6c-0.7-6.3,2-9.1,3.8-20.3c2.4-14.9-4.5-24-10-29.6c-7.2-7.4-16.6-10.5-23.2-12.7
				c-7.5-2.5-11.5-5-13.2-9.6C51,3.6,51.9,0,49.7,0c-2,0-1,6.7-4.5,11.8c-6.7,9.4-24.6,9.1-36.6,25.7C-3,53.5,3.2,66.1,5.1,75.4
				c1.1,5.5,1.5,8.1,0.6,11.5C4.8,90,2.8,92.7,0,94.4c4.3,4.7,13,4.1,16.9,1.5s7.3-8.5,6.4-18.8c9.2,1.1,18.5,1.5,27.8,1.3
				c14.6-0.5,22.5-1,27.7-2.4c-0.5,12.7,1.9,16.1,7.3,18.8c5.7,2.8,12.6,0,16.3-3.3C100,90.3,96.8,88.4,96.2,82.6z"/>
			<path id="パス_2" class="st2" d="M33.1,83c-1.8,0-3.2,1.4-3.2,3.2c0,1.8,1.4,3.2,3.2,3.2c1.8,0,3.2-1.4,3.2-3.2c0,0,0,0,0,0
				C36.3,84.4,34.8,83,33.1,83z"/>
			<ellipse id="楕円形_1" class="st2" cx="69.3" cy="85.8" rx="3.2" ry="3.2"/>
			<path id="パス_3" class="st2" d="M55.3,92.6c-1.2-0.4-2.4-0.6-3.6-0.7c-0.7,0-1.5,0.1-2.2,0.3c-1.6,0.4-2.9,1.6-3.6,3.1
				c-0.8,2.1,0,4.5,2,5.6l0.1,0.1l-0.1,0.1c-0.4,0.2-0.7,0.5-1,0.9c-0.8,1-1.1,2.2-0.9,3.5c0.2,1.3,1,2.4,2.1,3.1
				c1.3,0.6,2.7,1,4.1,1c1.1,0.1,2.2,0,3.2-0.4l0,0v0l0-2.2c0,0,0,0,0,0c-2.8,0.6-4.2,0.6-5.6-0.1c-0.6-0.3-1-0.9-1.2-1.6
				c-0.2-0.7,0-1.4,0.4-2c0-0.1,0.1-0.1,0.1-0.2c0.4-0.6,0.9-1.3,2.9-1.2c0.4,0,0.7,0,1,0c0.2,0,0.3,0,0.5,0c0,0,0.1,0,0.1,0
				c0,0,0-0.2,0-0.2v-0.3c0-0.1,0-0.2,0-0.3l0-1c0,0,0-0.1-0.1-0.1l-0.4,0c-1.2,0-2.4-0.2-3.5-0.6c-1.2-0.5-1.7-1.9-1.2-3
				c0,0,0-0.1,0-0.1c0.4-0.8,1.2-1.4,2.1-1.6c1.2-0.1,2.4-0.1,3.6,0.2c0.1,0,0.7,0.1,0.9,0.1l0.1-1.1C55.3,93.7,55.3,92.9,55.3,92.6
				z"/>
			<path id="パス_4" class="st2" d="M55.5,92.6L55.5,92.6L55.5,92.6c-2.4-0.7-3.7-1.1-6-0.5c-1.7,0.4-3,1.6-3.7,3.3
				c-0.8,2.1,0,4.6,1.9,5.8c-0.3,0.2-0.6,0.5-0.9,0.9c-0.8,1-1.1,2.3-0.9,3.6c0.3,1.3,1,2.5,2.2,3.2c1.3,0.7,2.7,1,4.2,1
				c0.4,0,0.7,0,0.9,0c0.8,0,1.6-0.2,2.4-0.4c0.1,0,0.1,0,0.1-0.1c0,0,0-0.1,0-0.1l0-2.3l0,0c-0.1-0.1-0.2-0.1-0.3-0.1
				c-2.7,0.6-4.1,0.6-5.5-0.1c-0.6-0.3-1-0.8-1.1-1.5c-0.2-0.6,0-1.3,0.3-1.9c0-0.1,0.1-0.1,0.1-0.2c0.4-0.6,0.8-1.2,2.7-1.1
				c0.4,0,0.7,0,1,0c0.2,0,0.3,0,0.5,0c0.1,0,0.2,0,0.2-0.1c0.1-0.1,0.1-0.2,0.1-0.4v-0.2c0-0.1,0-0.2,0-0.3l0-1
				c0-0.1-0.1-0.2-0.2-0.2l-0.4,0c-1.2,0-2.3-0.2-3.4-0.6c-1.1-0.5-1.6-1.7-1.1-2.8c0,0,0-0.1,0-0.1c0.4-0.8,1.1-1.3,2-1.4
				c1.2-0.1,2.4-0.1,3.6,0.2c1,0.2,1,0.1,1,0.1l0,0l0.1-1.2l0,0C55.5,93.5,55.5,93,55.5,92.6z M54.3,94.9c-1.2-0.3-2.4-0.3-3.6-0.2
				c-0.9,0.1-1.7,0.7-2.1,1.6c-0.6,1.1-0.1,2.5,1.1,3.1c0,0,0.1,0,0.1,0c1.1,0.4,2.3,0.6,3.5,0.6l0.4,0c0,0,0.1,0,0.1,0.1l0,1
				c0,0.1,0,0.2,0,0.3v0.3c0,0,0,0.2,0,0.2c0,0-0.1,0-0.1,0c-0.2,0-0.3,0-0.5,0c-0.3,0-0.6,0-1,0c-2-0.1-2.5,0.6-2.9,1.2
				c0,0.1-0.1,0.1-0.1,0.2c-0.4,0.6-0.5,1.3-0.4,2c0.1,0.7,0.6,1.3,1.2,1.6c1.4,0.7,2.8,0.7,5.6,0.1c0,0,0,0,0,0l0,2.2v0l0,0
				c-1,0.3-2.1,0.4-3.2,0.4c-1.4,0-2.8-0.4-4.1-1c-1.1-0.7-1.8-1.8-2.1-3.1c-0.2-1.2,0.1-2.5,0.9-3.5c0.3-0.3,0.6-0.6,1-0.9l0.1-0.1
				l-0.1-0.1c-2-1.1-2.8-3.5-2-5.6c0.6-1.6,1.9-2.7,3.6-3.1c0.7-0.2,1.4-0.3,2.2-0.3c1.2,0.1,2.5,0.3,3.6,0.7c0,0.2,0,1.1,0,1.2
				L55.2,95C55,95,54.4,94.9,54.3,94.9L54.3,94.9z"/>
			<path id="パス_5" class="st2" d="M67.4,103.4c-0.3,0.1-0.5,0.2-0.7,0.4c-0.1,0.2-0.3,0.2-0.5,0.2c-0.3-0.1-0.5,0-0.8,0
				c-0.7,0.2-1.1,0.9-1,1.6c0,0.1,0.1,0.2,0.1,0.3c1.1,1.1,2.9,1,3.9-0.1c0.4-0.4,0.6-0.9,0.7-1.4c0-0.1,0-0.2,0-0.3
				C68.9,103.5,68.1,103.2,67.4,103.4z"/>
		</g>
	</g>
</g>
</svg>
