<svg xmlns="http://www.w3.org/2000/svg" width="346.5" height="111.633" viewBox="0 0 346.5 111.633">
  <g id="グループ_1109" data-name="グループ 1109" transform="translate(-509.75 -4509.3)">
    <g id="グループ_1108" data-name="グループ 1108" transform="translate(223.75 3550.3)">
      <path id="パス_2137" data-name="パス 2137" d="M776.26,988.223V987.7h.261l-.261-1.566a15.7,15.7,0,0,0,.783-1.826l1.565-.261v.261h.261v-.261h2.087v-.261c.442-.083.451.245.522.261l3.131-.261v-.261h.261v.261c.6.1.783-.261.783-.261l.783.261v-.261h.261l.261.522c.718.187.525-.629,1.565-.522h.261v.261H792.7l.261-.783H792.7v-.783c-.106-.354-.243.108-.261-.261l.261-.783h-.261v-.522h-.261l.261-1.826-.522-.261.261-.522h-.261v-1.565c-.294-.223-.041.035-.261-.261H790.61v.261h-.261v-.261l-3.131.261-.261.522-.783-.261v-.261h-.261v.261c-.57.06-.756-.307-1.044-.261v.261L783.3,977c-.366-.05.1-.328-.261-.261V977c-1.041.214-3.552-.011-4.175.522h-.261c.3-.816-.088-2.533.261-3.392l.522-.261-.261-.522h.261v-.522h.261q.13-1.7.261-3.392h-.261c-.08-.812.381-.491.522-.783l-.261-.261v-.783h.261l-.261-2.087c.521.157.225-.036.522.261h.261V964.74c-.521-.157-.225.036-.522-.261-.294-.223-.041.035-.261-.261l.783-.261a2.97,2.97,0,0,0-.261-1.3h-.261c.029-.368.211.1.261-.261a22.948,22.948,0,0,0,.522-2.609c-.314-.056-1.947-.546-2.087-.522v.261l-1.565.261v-.261h-.522l-.261-.522-.783.261c-.215.827-.823,1.23-1.044,1.826l-.261,3.653-.522.261v.522l-.522.261v.783h-.261v1.3h.261c.039.33-.371.436-.261,1.044h.261l-.261.783s.383.151.261.783h-.261c-.07.362.057-.047.261.261-.009.369-.162-.094-.261.261v1.3h-.261l.261.783a4.27,4.27,0,0,0-.783,1.826h.261v.261h-.261v.522h-.261v.522l-.522.261c-.113.351.084.08.261.261a4.1,4.1,0,0,1-.261,1.826L770,978.83v.261h-2.087v.261h-2.348v.261h-1.044v.261h-2.87s.014.242-.522.261v-.261h-.261v.261a13.305,13.305,0,0,1-3.914.261v2.087h.261v.261h-.261c-.068.587.3.734.261,1.044a.427.427,0,0,0-.261.522h.261v1.3c.01.03.158-.052.261.522h1.565v.261h.261v-.261h1.565v-.261l.522.261c.491.007.522-.261.522-.261a.439.439,0,0,1,.522.261c.365.057-.1-.18.261-.261.74-.166,1.212.225,1.565.261l.261-.522c.423-.147.49.255.522.261h.261v-.261h2.348v-.261h.522v-.261c.352-.109.032.092.261.261h.261v-.261H770c-.038.711.032,1.161-.261,1.566l-.522.261v1.826h-.261v.261a.457.457,0,0,1,.261.522h-.261v.261c.006.036.4.1.261.522h-.261c-.125.3-.834,2.59-.522,3.131h.261v.261h-.783l.261.783h-.261v1.044c-.066.363-.294-.107-.261.261l.261.261h-.522a3.316,3.316,0,0,0,.261,1.3h-.522c.089.51.558,1.328.261,2.087l-.522.261a.414.414,0,0,0,.261.522.488.488,0,0,1-.261.522l.261,1.044h-.261v1.044h-.261l.261,1.044h-.261v1.044h-.261v.783h-.261l.261.783h-.261v.261h.261q-.13,1.3-.261,2.609h1.3v.261l.261-.261c.368.022-.1.193.261.261l1.565-.261v.261h.783v-.261l.261.261h.261v-.261a4.99,4.99,0,0,0,1.044.261q.13-1.566.261-3.131h.261l.261-1.044h.261l-.261-.783.522-.261v-1.044h.261c.2-.643-.255-.971-.261-1.3l.522-.261v-.783l.783-.522V999.7h.261q.13-2.87.261-5.74h.261v-.522h.261v-1.826h.261v-.522H776v-1.565h.261c.041-.289-.472-.687-.261-1.3Z" transform="translate(-348.059)" fill-rule="evenodd"/>
      <path id="パス_2138" data-name="パス 2138" d="M932.918,997.456H932.4c-.356-1.335-.888-.676-1.3-1.3v-.783l-1.826-1.3v-.522c-1.017-.266-.774-.6-1.3-1.3l-.522-.522h-.522l-1.3-1.826h-.783c-.265-.871-.306-.5-.783-1.044h-.261v-.783h-.261l-.261-.783c-1.5-.43-.508-.461-1.044-1.3l-2.087-1.3.261-.783-1.565-1.3v-.261h-.522a15.962,15.962,0,0,0-1.3-2.609c-.372-.26-.77.065-1.044-.261v-.522l-1.3-1.044v-.261h-.522a2.813,2.813,0,0,0-1.3-1.826v-.261h-.522l-.261-.522h-.261v-.522h-.261v-.522h-.261l-.261-1.3h-.261c-.669-.469-1.061.593-1.566,1.044l-.783.261-1.3,1.565-.783.261-.261.783-1.044.783v.261h.261c.269.964,1.916,2.38,2.609,3.131l.522.261v.783l.783.261a2.518,2.518,0,0,1,.522,1.3c.711.18.59.354,1.3.522v.783l.783.261c.235,1.075.75,1.142,1.3,1.826h.261v.783h.261a4.449,4.449,0,0,0,1.826,1.565v.522l1.044.261v1.044h.783a3.006,3.006,0,0,0,2.348,2.348,13.521,13.521,0,0,0,.522,1.826h.783c.2.71.062.594.783.783v.783h.522v.522c1.231.294,1.033.713,1.826,1.3v.261h.783v.783c1.059.307.522.529,1.3,1.044v.522c1.279.346,1.313,1.465,2.348,2.087.111.117-.069.427.261.261v-.261l2.348-1.3v-.522h.522v-.522a3.324,3.324,0,0,0,2.348-1.565c.294-.223.041.035.261-.261H933.7C933.458,998.128,933.146,998.35,932.918,997.456Z" transform="translate(-457.492 -10.016)" fill-rule="evenodd"/>
      <path id="パス_2139" data-name="パス 2139" d="M1466.311,976.5v-.261h.261V975.2h-.261c.035-.356.233-.384.261-1.044-1.079-.132-4.193-.966-4.7-.522-.633.16-.574.276-1.044.522-.259,1.349-.593,5.051-.261,6l-.783.261a7.541,7.541,0,0,1,.261,3.131h-.261v1.044h.261c.085.585-.547,1-.261,1.826a18.627,18.627,0,0,0,1.044,1.565h1.826l.261-.522h2.348V987.2l.783-.261c.108-.59.065-1.6.261-2.348h.261l-.261-1.3h.261v-.261l-.261-1.3h.261l-.261-1.044.261-.261-.261-.261.261-.261v-.261h-.261c-.074-.638.206-.655.261-1.044.086-.6-.282-1.149-.261-1.3h.261C1466.688,976.513,1466.4,976.665,1466.311,976.5Z" transform="translate(-867.47 -10.72)" fill-rule="evenodd"/>
      <path id="パス_2140" data-name="パス 2140" d="M1223.87,1016.561v-.261c.678.186.236.489.522.783l.261-.261,2.609.261v.261h2.087v.261c.3-.054.5-.482,1.044-.261l.261.522h2.087v-.261H1233v.261l1.566-.261.261.783h1.3v.261h.261v-.261h.261v.261h.522v.261a.42.42,0,0,0,.522-.261l1.827.261v.261h.522l.261.522a2.345,2.345,0,0,1,1.3-.261c.463.148,1.156.839,2.087.522v-.261l1.3-.261v.261l.783-.261v.261h2.087a25.035,25.035,0,0,0,.783-5.218h-1.826l-.261-.522a6.357,6.357,0,0,1-2.87,0v-.261h-.522v-.261h-1.566v-.261h-.522v-.261l-2.348.261v-.261l-1.565-.522v-.261c-.366.044-.447.231-1.044.261v-.522l-1.3-.261v.261h-.261v-.261h-1.044v-.261a1.719,1.719,0,0,0-1.566,0l-.261-.783h-2.348v-.261h-.783v-.261l-2.87.261c-.535-.144-1.96-.83-2.87-.522v.261l-1.3.261c-.463,1.234-.38,3.741-.522,3.914v1.3A4.8,4.8,0,0,0,1223.87,1016.561Z" transform="translate(-691.041 -37.47)" fill-rule="evenodd"/>
      <path id="パス_2141" data-name="パス 2141" d="M341.054,1038.483v-.261c-.367-.042.1.191-.261.261h-1.565v-.261c-1.17-.339-2.322.172-2.87-.261H336.1a5.892,5.892,0,0,0,.522-2.087H336.1v-.261c.749-.173-.129-1.3,0-1.826,0,0,.372-.114.261-.783H336.1a4.238,4.238,0,0,0,.261-1.826H336.1v-1.566h.261v-.783h.261l-.261-.783h.261v-1.3h-.261v-.261h.261v-1.3c-1,.012-4.232-.105-4.7-.522-.724.1-.788-.025-1.044.522v.522l-.783.522v4.7h-.522v1.3c.1.355.318-.1.261.261h-.261v.783h-.261v.261l.261.261h-.522a20.433,20.433,0,0,1-.522,3.131l-1.044.261v-.261h-.261c-.183.1-.006.363-.522.261v-.261H325.66v.261h-.522v.261l-.522-.261v.261h-.261v-.261h-.783c-.292-.135-.112-.75-1.044-.522v.261h-.522v.261c-.551.082-1.75-.71-2.609-.522v.261h-.261v-.261h-.261v.261h-.783v.261l-1.826-.522v.261a.432.432,0,0,1-.522-.261l-.522.261v-.261c-.482-.063-.522.261-.522.261l-2.348-.261v-1.566l.522-.261c.132-.442-.248-.462-.261-.522V1033h-.261v-.522h-.261l.261-1.3h-.261v-1.3h-.261q-.13-1.566-.261-3.131c.083-.36.385.087.261-.261l-.783-.522v-1.3h-.261v-2.87l-.522-.261v-3.131l-.522-.261c-.475-.7.273-.461-.783-.783v-.783H308.7c-.264-.965-.842-.87-1.3-1.565l-2.348.261v.261l-1.3-.261v.261h-.522v.261l-.261-.261s-2.325.253-2.348.261v.261h-.522v.261c-.367-.043.1-.21-.261-.261h-1.044v.522h-.261v-.261l-2.87.522v.261l-2.348.261a15.846,15.846,0,0,1-5.74,1.044c-.223.294.035.041-.261.261l.261,2.609h.261l-.261.522h.261v.783h.261c.178.614-.285.7-.261,1.044h.261l.261,1.565,1.565-.261c1.181.25,6.328.66,7.828.261v-.261c.505-.1.988.49,1.826.261,0,0-.058-.329.522-.261v.261c.951.12,3.238-1.115,4.7-.522v.261h.522v.261h-.261c-.094.483.246.178.522.261v3.392l.522.261v3.392l.522.261-.261.783h.261v2.609s.176.023.261.522l-1.3.261c-.048-.009-.1-.344-.522-.261v.261h-.261v-.261h-1.044v.261h-2.348v.261l-2.087-.261-.261.522H297.48v.261h-.522v.261h-.783v.261l-.783-.261v.261h-.522v.261l-2.087.522v.522l-2.348,1.3v.522h-.783c-.223.294.035.041-.261.261l-.261,1.3h-.522c-.232,1.1-.8,1.4-1.044,2.348h-.522l-.261,2.348h-.261v.522h-.261c-.411,1.168.029,2.42,0,3.392l-.261.783h.261v.522h.261v1.044h.261v.522l.522.261.261,1.566h.261a4.034,4.034,0,0,1,.783,1.826h.522c.347,1.6,1.138,1.49,2.087,2.348l1.044,1.3,3.914,1.3.783-.261v.261l1.3.261v-.261h.783v-.261h3.131l.261-.522h1.044l.261-.522h1.044l.261-.522h.522c.388-1.246.273-.248,1.044-.783l.261-.783,2.348-2.087.261-1.3.783-.522v-.783l1.3-1.044v-.783h.261v-.783h.261v-1.3l.522-.261-.261-.783h.261l.261-2.609h-.261v-.261h.261a3.249,3.249,0,0,0-.261-1.565h.261v-.261h-.261v-2.087h.261v-.261l1.3.261v-.261h1.3v.261h1.566v-.261a6.121,6.121,0,0,0,1.044.261v-.522l.783.261v.261l.783-.261v.261H320.7c1.416-.329,4.145-.031,7.567,0l-.522,3.131h.261a2.168,2.168,0,0,1,.261,1.044h-.783c.051,1.173.351,1.639,0,2.87h-.261c-.22.826.225,1.23.261,1.826q-.13,1.826-.261,3.653h-.261v1.3h.261a5.379,5.379,0,0,1-.522,2.87,3.316,3.316,0,0,0,.261,1.3l5.218.261v-.261h1.3c.032-.708-.033-1.167.261-1.566l.522-.261v-.783h.261v-2.348h-.261v-.261h.261v-1.044h.522v-2.087c-.084-.359-.324.1-.261-.261h.261v-1.3h.261v-.783h.261c.073-.295-.261-.522-.261-.522l.261-.522h-.261v-.261l.522-.261v-.522h.261c-.06-.5-.769-1.431-.522-2.087l.522-.261v-2.609c2.081.766,3.076-.386,4.957,0v.261l.783-.261v.261h.261v-.261c.569-.015.522.261.522.261h2.609v-.522l.522-.261-.261-.522v-1.826h.261v-.261h-.261a2.033,2.033,0,0,1,.261-1.3C344.186,1038.422,342.933,1038.838,341.054,1038.483Zm-34.18,5.74-.522.261v1.826h-.261v1.826h-.261l.261.522h-.261q-.13,2.218-.261,4.436l-.522.261v.783l-.783.261v.261c-.461.408-.587.3-.783,1.044l-1.566.522v.261h-2.609l-.522.261-.522-.783-1.566-.261-.261-.522-1.044-.261v-.522l-1.044-.261v-.522h-.522c-.2-1.939-.495-3.023.261-4.7l-.261-.261.522-1.566.522-.261.261-1.044,1.044-.783.261-.522h.522l.261-.522H298v-.261l2.609-.522v.261h.261v-.261h.783v-.261l.783.261c.185-.071.114-.6.522-.522v.261c.368-.033-.1-.2.261-.261.522-.081.522.261.522.261h1.3v.261l1.826-.261Z" transform="translate(0 -41.389)" fill-rule="evenodd"/>
      <path id="パス_2142" data-name="パス 2142" d="M618.138,1053.963l.261-1.3h-.261v-2.087l-.522-.261c-.168-.471.215-.409.261-.522a5.9,5.9,0,0,1-.261-1.044h-.522l-.522-1.826-.522-.261v-.522h-.261c-.1-.354.086-.025.261-.261l-.261-1.044h-.522l-.783-1.044c.007-.023.511.011.261-.261l-.783-.261v-.522H613.7v-.522h-.261c-.435-.732.222-.476-.783-.783v-.522c-.618-.168-.489-.073-.783-.522l-1.044.261v.261h-1.044l-.261.522h-.522l-.522.522h-.522v.261l-1.044.261v.261h-.783c-.063.034-.253.386-.522.522l.522.783h.522l.783,1.044h.522v.261l.783.522v.783h.261l.261.783.522.261v1.044h.261v.783h.261v.261h-.261q.13,1.3.261,2.609h-.261c-.39,1.458.918,3.157,0,4.175-.214.84-.6,1-1.3,1.3v.261l-.783-.261-.261.522-.522-.261s-.014.344-.522.261a.7.7,0,0,0-.783-.261.685.685,0,0,1-.783.261v-.261h-.522l-.261-.522h-.522v-.261h-.522l-.261-.522h-.522v-.261h-.261v-.522l-.783-.261v-.522h-.522a3.432,3.432,0,0,0-.783-1.566h-.261l-.261-1.044-.522-.261v-.783l-.522-.261c-.457-1.041.273-1.781-.522-2.609a1.563,1.563,0,0,0-.783-.783h-.522v-.261c-2.179.083-2.578.7-3.653,1.826l-.522.261v.522c-.186.237-.538.205-.783.522h-.522c-.3,1.066-.707.836-1.3,1.566H589.7c-.253.4.08.769-.261,1.044h-.522v.261c-.708.464-.467-.261-.783.783h-.522l-.261,1.044h-.522l-.261,1.044-1.3.261.261-1.3h-.261v-1.044h.261v-.522h.261v-1.044h.261c.222-.77-.161-1.284-.261-1.827h.522v-4.175h.261l.261-2.348h.261a.455.455,0,0,0-.261-.522.518.518,0,0,1,.261-.522c.028-.368-.194.1-.261-.261v-1.3h.261v-.783h-.261c-.032-.315.315-.456.261-1.044h-.261v-.261h.261v-.522h.261c.182-.613-.267-.691-.261-1.044h.261l-.261-1.044.522-.261-.261-1.044c.809-.231.1-1.061,0-2.087h.522l-.261-1.044c.038-.367.241.107.261-.261-.1-.179-.366-.008-.261-.522h.261v-1.826h-.261q.13-1.3.261-2.609h-.261v-1.3h-.261c-.059-.4.869-.984.522-1.827l-.783-.522.522-1.565h-.261v-.783h-.261V1019a5.842,5.842,0,0,0-2.87-.261V1019a4.982,4.982,0,0,1-2.348-.261l.261,1.3h-.261v.522h-.261l.261,1.3a.724.724,0,0,0-.261.783h.261v.783h.261l-.261.783h.261l-.522,1.044h.261c.3,2.175-.294,4.352-.522,6-.1.716.6.548.522,1.044h-.261v.783c-.083.359-.324-.1-.261.261l.261.261h-.522l.261,1.044h-.522v1.565h.261a3.316,3.316,0,0,1-.261,1.3H580.3v.783h.261c.267,1.072-.437,1.107,0,2.348H580.3v.261h.522v.522h-.783v4.175h.261v.261h-.261v2.609h.261v.261h-.261v.783h-.261l.261,1.826h-.261v.522h-.261c-.2.579.281,1.462.261,1.566h-.261v.522h-.261a.438.438,0,0,0,.261.522c.089.677-.261.783-.261.783v1.3h.261c-.039.356-.426.646-.261,1.3h.261l-.261,2.609H579c0,.251.437.836.261,1.566H579v.261h.261v.783h.261l.261,2.609h-.261l.261,1.565a12.453,12.453,0,0,1,3.131,2.348l1.826-.261v-.261c1.456-.373.539-.465,1.044-1.3h.261a3.288,3.288,0,0,0,.783-1.566c.8-.228.975-.629,1.565-1.044v-.261h.783c.254-1.1.889-1.592,1.3-2.609H591v-.783l1.044-.261v-1.044l.783-.261v-.261l.522-.261c.358-.468-.125-.39.522-.783v-1.044h.783l.261-.783h.522v-.783c.294.223.041-.035.261.261a5.781,5.781,0,0,1,1.565,3.392h.522l.261,1.3h.522c-.157.521.036.225-.261.522.3.292,0,.111.522.261v.522c1.216.368.521.946,1.826,1.3v.522l1.044.783.261.522h.783v.261h.783l.261.522h1.3v.261c.356.012.425-.428,1.044-.261a5.123,5.123,0,0,0,2.348.261c.1-.026.067-.326.522-.261v.261h.261v-.261h.522c.164-.079.138-.632.522-.522v.261h.522v-.522a2.43,2.43,0,0,0,1.566-.522v-.522l.522.261v-.522c1.477-.391.527-.472,1.044-1.3h.261c.606-.777,1.308-.8,1.565-1.826h.261v-1.044h.783a2.076,2.076,0,0,1,.522-1.566h.261l-.261-1.044h.261v-.783l.522-.261-.261-1.044h.261v-.783h.261A.458.458,0,0,0,618.138,1053.963Z" transform="translate(-216.551 -44.084)" fill-rule="evenodd"/>
      <path id="パス_2143" data-name="パス 2143" d="M1469.163,1067.135c-.3-.292,0-.111-.522-.261-.657,1.514-1,4.479-2.609,4.958-.151,1.137-.394.7-.522,1.826h-.783l-.783,1.044h-.522v.261l-.783.522-.261.522h-1.044v.261l-2.87.261c-.238-.282.047-.058-.261-.261h-.261l-.522-.783h-.261l-.261-.783-.783-.522-.522-1.566-.522-.261v-.783l-.522-.261-.261-1.3-.522-.261-.261-1.044-.522-.261-.261-1.044h-.261l-.261-1.044h-.261v-1.044h-.261v-.522h-.261V1064h-.261l-1.044-3.131a2.564,2.564,0,0,1-1.044-.522v-.261l-2.087.261v.522c-.656-.678-.681.277-1.044.522h-.522l-.261.522h-.522l-.522.783h-.261v.783h-.261l-.522.783h-.522v.522l-1.3.261c-.243.894-.556.671-.783,1.566h-.522v.522c-.521.157-.225-.036-.522.261h-.261l.261-.783h.261v-.522l1.044-.783v-.783h.261c.319-.566.162-.485,0-1.044h.522l1.044-3.131h.261v-.522h.261q.13-1.174.261-2.348c.065-.363.3.106.261-.261h-.261l-.261-1.044h.261v-.522h.261l.261-1.3.522-.261v-.522h.261l.261-1.3.522-.261v-.522h.261v-.522h.261v-1.044l.522-.261.261-1.3.522-.261v-.783l.783-.522V1046h.261v-1.044h.261c.318-.909-.205-.883.522-1.566a3.822,3.822,0,0,0-1.044-2.87l-.783-.261V1040h-1.826v.261h-.522v.261h-1.3v.261h-2.348l-.261.522-1.826-.261v.261c-.5.105-.361-.188-.522-.261h-.261v.261h-2.087v.261l-.522-.261v.261h-.522v.261l-.522-.261v.261h-.522v.261l-2.348.261v-.261c-1.487-.3-4.621.41-5.218,0-.842.1-.762.236-1.3.522v.783h-2.348l.261,1.044c-.058.365-.313-.1-.261.261s.322-.1.261.261h-.261v.261c.057.365.256-.108.261.261l-.261.522h.261v2.348s.176-.012.261.522l4.7-.261.261-.522h1.044v-.261c.337-.041.431.417,1.044.261v-.261h2.087c.359-.086-.108-.244.261-.261l.783.261v-.261h.783v-.261h.522v-.261c.416-.05.327.454.522.522l3.131-.261.261-.522c.566-.227.723.236,1.044.261l.261-.522h.522v-.261h.783v.261h-.261l.261.783-.522.261v.522h-.261v1.044h-.261l-.522,1.566h-.261v.522h-.261c-.471.623-.513.7-.522,1.826-.737.195-.749.467-1.3.783v1.826h-.522v.783h-.522q-.13.913-.261,1.826c-.394-.25-.443-.509-.783-.783a2.378,2.378,0,0,1-.522.522v1.044h-.261l-.522,2.609h-.261v1.565h-.261v.522h-.261v1.3h-.261v.522h-.261v1.3l-.522.261.261.522h-.261v.522l-.522.261v1.044h-.261v.522h-.261v1.044h-.261v.522h-.261l-.261,1.566c-.35.778-.753.774-.783,2.087h-.522a2.365,2.365,0,0,1-.261,1.3h-.261l.261.522-.522.261v.783l-.522.261v.522h-.261c-.446,1.06.213,1.166-.783,1.826v.783a20.577,20.577,0,0,0,3.131,1.565v.522h.783l.261-.522a2.786,2.786,0,0,1,1.826-1.044c.308-1.033.072-.329.783-.783v-.261h.522l.783-1.044c.765-.55,1.027-.406,1.565-1.3h.522v-.522a2.77,2.77,0,0,0,1.3-.783v-.261l.783-.261.261-.783h.783l.783-1.044h.522l.783-1.044h.522l.261-.783a8.928,8.928,0,0,1,2.087-.261c.366-1.448.462-.544,1.3-1.044v-.261a1.83,1.83,0,0,1,1.3-.522c.32,1.217,1.063,2.279,1.3,3.653h.522v.522h.522c.157.521-.036.225.261.522.2.71.062.594.783.783v.783h.522c.24,1.03.8,1.139,1.044,2.087.874.2,1,.584,1.826.783v.522h.783l.261.783h.522a5.363,5.363,0,0,0,.522,1.3c1.485.284,2.833.742,4.436.261h1.3l.261-.522h.783v-.261a6.269,6.269,0,0,0,.522-.522h.522l.522-.783h.783l.522-.783h.522v-.261h.522v-.261c.715-.441.484.238.783-.783h.522c.189-.753.28-.865,1.044-1.044.084-.6.041-.668.261-1.044h.261q.13-.913.261-1.827l.522-.261v-.783l.522-.261v-.783l.522-.261.261-2.348h.522v-.783C1471.153,1069.1,1470.67,1067.53,1469.163,1067.135Z" transform="translate(-840.316 -59.866)" fill-rule="evenodd"/>
      <path id="パス_2144" data-name="パス 2144" d="M1078.006,1101.048h-.261v-3.131h-.261v-2.087h-.261c-.161-.6.317-.724.261-1.044h-.261v-.522h-.261l-.522-2.348h-.261l-.522-1.566h-.261l-.261-2.348h-.261l-.261-1.044h-.261a1.848,1.848,0,0,1-.522-1.3c-.82-.226-.842-.515-1.3-1.044h-.261l-.261-.783h-.522v-.783h-.783v-.522h-.783c-.253-.938-.874-1.094-1.3-1.826h-2.087v-.522h-.261c-.076-.436.247-.457.261-.522v-2.609l-3.131-.522-.261-.522h-.261v.261c-1.034.281-.339.09-.783.783h-.261v.522l-.783.522v1.827a2.117,2.117,0,0,0-1.826,0v.261c-.273.051-.7-.474-1.3-.261v.261h-.522v.261l-2.348.522v.522l-.783.261-.261-.261-.261.522-.783.261v.783c-.052.092-.375.239-.522.522h-.783v1.3a1.754,1.754,0,0,0-.783.783h-.522l-.261,1.3c-1.029.3-.334.072-.783.783h-.261v.522l-.522.261v.783l-.522.261v1.044h.261c.072.529-.261.522-.261.522q.13,1.826.261,3.653h.261v.522h.261v.783h.261c.192.63-.294,1-.261,1.3h.261v.522h.261a8.14,8.14,0,0,1,.522,2.087h.783c.025,1.1.129,1.357,1.044,1.565v.522c1.124.06.884.161,1.566.522v.522l.783-.261v.261h1.826v-.261h.522v-.261l1.566-.261.261-.522,1.044-.261v-.522l.783-.261.261.261v-.261l.783-.261.261-.522h.261c.2-.279.214-1.046.522-1.3l.783-.261v-.522l.522-.261.522-1.566.522-.261v-1.044l1.044-.522v-1.826l.522-.261a4.225,4.225,0,0,0,0-2.87h.522l-.261-1.827H1066v-.783h.261c.223-.294-.035-.041.261-.261l2.609,3.131v.783l.522.261v1.3h.261l.261,1.044h.261l.261,1.3c-.083.359-.338-.1-.261.261h.261a3.98,3.98,0,0,1-.261,1.566h.261v.522h.261l1.566,9.393h1.044v.261c.369.006-.105-.214.261-.261h1.044v.261a.469.469,0,0,0,.522-.261c.484-.048.522.261.522.261h.783v-.261h.261v.261l.783-.261v.261h.261v-2.087h-.261l.261-1.3h-.261v-1.3C1077.763,1101.492,1078.095,1101.5,1078.006,1101.048Zm-17.221-14.09h-.522c-.087,1.068-.092.923-.522,1.566h-.261v1.3l-.522.261v1.044l-.522.261-.261.783h-.261l-.261,1.566-.522.261a5.9,5.9,0,0,0-1.044,1.826h-1.3c.5-1.367-.377-1.841,0-3.131h.261v-1.044h.261l-.261-1.565.522-.261v-1.3h.522c.212-.945.651-1.14,1.044-1.826,1.095-.41,2.17-.495,2.87-1.3h1.044C1060.607,1086.234,1060.4,1085.879,1060.785,1086.958Z" transform="translate(-563.18 -86.473)" fill-rule="evenodd"/>
      <path id="パス_2145" data-name="パス 2145" d="M858.787,1110.183h-.261l-.261-.522-.783-.261-.783-1.044-2.348-.522-.261-.522h-.783v-.261h-.522v-.261h-1.3v-.261H850.7l-.261-.522h-1.3v-.261c-.686-.62-.163-.715-.522-1.566h-.261v-.522c-.071-.117-.365-.23-.522-.522.439-.3.363-.158.522-.783h-.522l-.261-1.565a.434.434,0,0,0,.261-.522h-.261v-1.044h-.261l.261-.783h-.261l-.522-1.566h-.261l.261-.522-.783-.522v-1.044h-.261c-.274-.565-.064-.635-.522-1.044-.853-.56-4.058,1.676-5.479,1.826a15.634,15.634,0,0,0,0,3.653c.521.157.225-.036.522.261h.261l-.261,1.3h.261q.13,1.174.261,2.348l.522.261v1.826c-.821-.256-.391-.143-1.3,0v.522a16.658,16.658,0,0,0-1.826.783l.261.783-1.565.522v.783h-.261v.261h-.783l-.783,2.609h-.522a3.315,3.315,0,0,0,.261,1.3h-.522q-.13,2.479-.261,4.958h.261v1.044h.261v.783h.261v.783l.522.261a2.618,2.618,0,0,1,.522,1.565h.522l.261.783h.261c.473.728.316,1.068,1.3,1.3a1.474,1.474,0,0,0,1.3,1.3c.486,1.765.656.454,1.566,1.044.359.233,0,.7.261,1.044h.261v.261l.783-.261v.261l2.609-.261v-.261c.368-.026-.106.222.261.261l1.3-.261v-.522c.951-.094,1.112-.2,1.3-1.044h.783c.189-.753.28-.865,1.044-1.044l.261-1.3h.522l-.261-.522h.261l.261-1.3c-.008-.04-.407-.093-.261-.522l.522-.261a.387.387,0,0,0-.261-.522l.261-.522v-1.044H850.7l.261-.783H850.7c-.181-.7.218-1.2.261-1.566H850.7c0-.343.468-.446.261-1.044H850.7v-.522h-.261l-.261-.783c.292-.3.111,0,.261-.522h1.826l.261.522.783-.261.522.783,2.087.261c.157.521-.036.225.261.522v.261c.823-.386,1.941.448,3.131.522.161-2.424,1.487-3.539,1.565-6l-2.087-.261Zm-15.394,9.393h-.261v.783c-1.47.011-2.242-.254-2.87-1.044a4.99,4.99,0,0,1-.522-3.131H840a5.331,5.331,0,0,1-.261-1.044h.522v-1.826l.783-.522v-.522a3.793,3.793,0,0,1,1.3-1.3v-.261c.265.2.257.321.522.522v.522h.261c.088.359-.068-.026-.261.261v.261h.261v2.87h.261l-.261,1.566h.261v1.826c.057.365.25-.108.261.261l-.522.261Z" transform="translate(-405.017 -99.521)" fill-rule="evenodd"/>
      <path id="パス_2146" data-name="パス 2146" d="M1261.18,1103.973l.261-.783-3.653-.783-.261-.522c-.429-.17-.479.252-.522.261l-.783-.261v2.87c.018.076.342.077.261.522h-.261v1.3h-.261l.261,1.566-.522.261v.522h-.261v.522h-.261v.783h-.261v.522h-.261l.261.522h-.522c-.159,2.175-.6.24-1.044,2.087-1.681.2-.8.693-1.566,1.3h-.522l-.522.783H1249.7v.522l-1.3.261v.261s-1.015.037-.522.261h.261v.261l-.783-.261-.261.522h-1.566v.261h-.261v-.261l-1.3.261-.261-.522-.522.261v-.261h-.522l-.261-.522c-.33-.165-.134.15-.261.261l-.783-.261v-.261c-.072-.015-1,.444-1.566.261a14.306,14.306,0,0,0-2.087-.783v-.522a2.235,2.235,0,0,1-1.044-.522v-.261h-.783v-.261l-.783-.522v-.522h-.522a2.177,2.177,0,0,0-.522-1.044h-.261v-.522l-.522-.261-.261-1.044h-.261l-.261-2.087h-.261v-1.566h-.261a7.842,7.842,0,0,1-.522-3.131c-2.446.038-2.622.678-4.436,1.044q.13,1.7.261,3.392h.261l-.261,1.044h.522c-.548.662.36.879.261,1.3h-.261c-.054.487.208.376.261.522a3.593,3.593,0,0,0-.261,1.044h.522a6.457,6.457,0,0,0,.522,2.609c.2.71.062.594.783.783.379,2.1,1.109,2.775,2.348,3.392v.522a3.836,3.836,0,0,1,1.566,1.044v.261h.522v.261h.522l.261.522,1.044.261.783,1.044h.522l.261.522,1.826.522.261.522c.748.3,3.712-.193,4.436-.261v-.522l.783.261.783-1.044.783.261v-.261h.522v-.261l4.7-.522v-.522l.783-.261a.391.391,0,0,0,.522.261v-.261h.522l.261-.522h.522v-.261h.522v-.261l.783-.261v-.522h.522v-.783h.522a2.925,2.925,0,0,1,.783-1.3h.261a6.4,6.4,0,0,0,1.044-2.609h.522l.261-.783h-.261v-.261h.261v-.522h.261v-1.3l.522-.261-.261-.261.261-1.3h.522l.261-3.131h.261l-.261-.261.261-1.566h.261C1261.613,1104.129,1261.27,1104.131,1261.18,1103.973Z" transform="translate(-695.476 -105.574)" fill-rule="evenodd"/>
    </g>
    <text id="UFUFU_FAN_S_VOICE" data-name="UFUFU FAN’S VOICE" transform="translate(683 4616.933)" font-size="16" font-family="Quicksand-Bold, Quicksand" font-weight="700" letter-spacing="0.08em"><tspan x="-86.04" y="0">UFUFU FAN’S VOICE</tspan></text>
  </g>
</svg>
