<svg xmlns="http://www.w3.org/2000/svg" width="1155.689" height="552.487" viewBox="0 0 1155.689 552.487">
  <g id="グループ_1246" data-name="グループ 1246" transform="translate(-119.876 -931.559)">
    <g id="グループ_1228" data-name="グループ 1228" transform="translate(1224.565 931.56) rotate(90)">
      <g id="グループ_1232" data-name="グループ 1232" transform="translate(0 0)">
        <g id="グループ_1230" data-name="グループ 1230">
          <path id="パス_556" data-name="パス 556" d="M2.479,52.435a10.283,10.283,0,0,1-1.84-3.71A29.606,29.606,0,0,1,0,40.93a13.447,13.447,0,0,1,.337-3.021,20.817,20.817,0,0,1,.894-2.931c.175-.46.364-.921.573-1.392q.388-.873.85-1.766c.369-.719.774-1.448,1.2-2.185q.7-1.19,1.488-2.411c.193-.3.405-.6.624-.9.061-.084.125-.168.189-.253q.267-.356.557-.714c.056-.069.111-.139.169-.209.247-.3.506-.6.774-.9.055-.061.113-.122.169-.183q.333-.365.685-.728c.081-.082.161-.166.244-.248.273-.274.55-.548.835-.818.021-.02.041-.041.062-.061.308-.289.624-.576.943-.857l.262-.227c.251-.219.507-.437.764-.65l.25-.206c.327-.266.659-.53.993-.786.082-.062.164-.123.247-.184q.333-.254.672-.5c.111-.081.222-.158.332-.238q.3-.215.609-.422l.341-.23c.212-.14.422-.276.633-.41.1-.064.2-.129.3-.192q.457-.283.909-.547l.012-.006c4.087-2.36,8.945-4.462,11.841-4.931.193-.032.378-.056.553-.072a12.16,12.16,0,0,1,5.427.535,1.978,1.978,0,0,1,.87,3.221l-1.623,2.29c-.592.885-1.675,2.176-2.418,3.248-1.917,2.767-3.557,4.684-5.353,7.032-1.882,2.464-6.941,8.26-8.976,11.185-.914,1.311-1.721,2.312-2.665,3.463a37.255,37.255,0,0,0-2.567,3.451c-.388.6-1.792,2.638-2.146,3.239L6.8,54.235a1.5,1.5,0,0,1-2.179.315,15.4,15.4,0,0,1-2.14-2.115" transform="translate(0 6.109)" fill="#1a1311"/>
          <path id="パス_557" data-name="パス 557" d="M26.117,28.071c-1.875,2.624-4.524,5.753-7.354,9.088-1.587,1.869-3.236,3.711-4.145,4.835L9.242,48.973l-3.355,4.54a1.714,1.714,0,0,0,.7,2.6l.02.008a12.747,12.747,0,0,0,3.636.964c2.051.168,5.114-.393,8.907-1.786.344-.126.7-.26,1.052-.4q1.606-.633,3.362-1.457.585-.274,1.186-.571a21.836,21.836,0,0,0,3.521-2.229c5.1-3.889,9.577-10.063,10.433-13.143,1.051-3.778,3.474-9.556,3.372-11.692a16.648,16.648,0,0,0-2.74-8.933,12.4,12.4,0,0,0-.9-1.136,12.586,12.586,0,0,0-1.025-1.031l-.014-.014a1.582,1.582,0,0,0-2.359.282l-2.666,3.879Z" transform="translate(2.901 7.47)" fill="#1a1311"/>
        </g>
        <g id="グループ_1229" data-name="グループ 1229" transform="translate(-2 -51)">
          <path id="パス_558" data-name="パス 558" d="M92.151,44.42a10.314,10.314,0,0,1-3.985,1.124,29.666,29.666,0,0,1-7.779-.812,13.454,13.454,0,0,1-2.909-.889,20.4,20.4,0,0,1-2.715-1.419c-.419-.257-.839-.528-1.262-.819q-.786-.544-1.579-1.162c-.638-.495-1.281-1.028-1.925-1.588q-1.042-.9-2.094-1.907c-.257-.245-.513-.507-.768-.778-.072-.076-.142-.155-.213-.233q-.3-.329-.6-.681c-.058-.069-.117-.134-.174-.2-.248-.3-.495-.608-.737-.924l-.149-.2q-.3-.4-.588-.809c-.067-.094-.134-.189-.2-.285-.221-.318-.437-.641-.65-.972-.015-.024-.032-.049-.049-.073-.227-.355-.449-.719-.669-1.084l-.175-.3q-.254-.434-.5-.873c-.052-.094-.105-.187-.157-.282-.2-.372-.4-.746-.588-1.122-.047-.091-.091-.184-.137-.276-.123-.251-.245-.5-.364-.752-.058-.123-.114-.247-.171-.37q-.155-.338-.3-.676c-.055-.126-.11-.253-.163-.378-.1-.235-.193-.466-.286-.7-.044-.11-.09-.221-.131-.33-.129-.333-.254-.665-.37-.994l0-.012C58.2,19.187,57.03,14.026,57.1,11.093q.009-.295.032-.557A12.179,12.179,0,0,1,58.664,5.3a1.977,1.977,0,0,1,3.326-.259l1.951,2.018c.76.746,1.829,2.048,2.747,2.977C69.053,12.43,70.633,14.4,72.61,16.6c2.074,2.306,6.836,8.347,9.335,10.887,1.121,1.139,1.954,2.118,2.912,3.259a37.468,37.468,0,0,0,2.916,3.16c.522.493,2.261,2.249,2.787,2.708l4.159,3.9a1.5,1.5,0,0,1-.093,2.2,15.418,15.418,0,0,1-2.475,1.713" transform="translate(29.853 2.225)" fill="#1a1311"/>
          <path id="パス_559" data-name="パス 559" d="M72.5,16.317c2.232,2.327,4.82,5.51,7.575,8.907,1.543,1.9,3.049,3.865,3.987,4.966l5.864,6.571L93.772,40.9a1.713,1.713,0,0,0,2.683-.2l.012-.017a12.721,12.721,0,0,0,1.617-3.4c.545-1.984.56-5.1-.11-9.084-.061-.362-.128-.731-.2-1.109-.216-1.128-.486-2.322-.81-3.574-.108-.416-.222-.841-.343-1.27a21.825,21.825,0,0,0-1.541-3.873C92.2,12.644,86.96,7.1,84.091,5.689,80.571,3.959,75.341.51,73.223.218a16.649,16.649,0,0,0-9.286,1.042,12.667,12.667,0,0,0-1.282.672,13.366,13.366,0,0,0-1.2.816l-.014.012a1.579,1.579,0,0,0-.16,2.37L64.6,8.467Z" transform="translate(31.797)" fill="#1a1311"/>
        </g>
        <g id="グループ_1231" data-name="グループ 1231" transform="translate(-1 -26.265)">
          <path id="パス_560" data-name="パス 560" d="M105.248,40.354a10.308,10.308,0,0,1,.058-4.141,29.642,29.642,0,0,1,3-7.224,13.4,13.4,0,0,1,1.68-2.534,20.6,20.6,0,0,1,2.137-2.2c.365-.329.745-.655,1.144-.976q.745-.6,1.564-1.185c.656-.469,1.351-.932,2.071-1.392q1.163-.74,2.424-1.463c.308-.177.632-.346.965-.513.093-.046.187-.093.283-.139.266-.129.542-.256.822-.379l.245-.11c.356-.152.723-.3,1.1-.442.076-.03.157-.058.235-.087q.464-.171.941-.332c.11-.038.219-.075.33-.111.367-.119.74-.236,1.116-.346.029-.008.056-.017.084-.026.407-.117.818-.225,1.23-.332l.337-.082q.487-.119.978-.227l.314-.07c.414-.088.83-.171,1.244-.245.1-.018.2-.034.3-.052.276-.047.55-.093.824-.134.136-.021.27-.04.405-.059.245-.034.49-.067.734-.1l.408-.049c.253-.029.5-.053.751-.076.119-.011.238-.023.355-.032.356-.029.711-.053,1.058-.072h.014c4.715-.231,10,.119,12.786,1.026.186.061.361.123.525.189a12.163,12.163,0,0,1,4.582,2.957,1.978,1.978,0,0,1-.7,3.262L149.1,23.96c-.932.516-2.485,1.17-3.637,1.785-2.969,1.585-5.306,2.539-7.975,3.807-2.8,1.331-9.949,4.176-13.095,5.846-1.412.749-2.587,1.269-3.955,1.862a37.5,37.5,0,0,0-3.859,1.9c-.623.359-2.8,1.527-3.39,1.9l-4.923,2.875a1.5,1.5,0,0,1-2.082-.716,15.39,15.39,0,0,1-.937-2.86" transform="translate(54.93 7.927)" fill="#1a1311"/>
          <path id="パス_561" data-name="パス 561" d="M138.09,28.9c-2.867,1.477-6.655,3.05-10.7,4.722-2.266.937-4.573,1.821-5.9,2.406l-7.969,3.749-5.06,2.505a1.715,1.715,0,0,0-.571,2.631l.014.015a12.786,12.786,0,0,0,2.8,2.52c1.748,1.086,4.728,1.989,8.739,2.482.364.044.736.087,1.118.125,1.144.113,2.365.195,3.656.241.432.015.87.027,1.317.034a21.777,21.777,0,0,0,4.15-.372c6.311-1.131,13.116-4.575,15.286-6.923,2.662-2.881,7.459-6.912,8.342-8.858a16.625,16.625,0,0,0,1.648-9.2,12.137,12.137,0,0,0-.279-1.421,12.7,12.7,0,0,0-.44-1.386l-.006-.017a1.58,1.58,0,0,0-2.225-.828l-4.145,2.231Z" transform="translate(56.205 11.052)" fill="#1a1311"/>
        </g>
      </g>
    </g>
    <g id="グループ_1233" data-name="グループ 1233" transform="translate(237.083 1408.999) rotate(-90)">
      <g id="グループ_1232-2" data-name="グループ 1232" transform="translate(0 0)">
        <g id="グループ_1230-2" data-name="グループ 1230" transform="translate(22 -135)">
          <path id="パス_556-2" data-name="パス 556" d="M2.479,52.435a10.283,10.283,0,0,1-1.84-3.71A29.606,29.606,0,0,1,0,40.93a13.447,13.447,0,0,1,.337-3.021,20.817,20.817,0,0,1,.894-2.931c.175-.46.364-.921.573-1.392q.388-.873.85-1.766c.369-.719.774-1.448,1.2-2.185q.7-1.19,1.488-2.411c.193-.3.405-.6.624-.9.061-.084.125-.168.189-.253q.267-.356.557-.714c.056-.069.111-.139.169-.209.247-.3.506-.6.774-.9.055-.061.113-.122.169-.183q.333-.365.685-.728c.081-.082.161-.166.244-.248.273-.274.55-.548.835-.818.021-.02.041-.041.062-.061.308-.289.624-.576.943-.857l.262-.227c.251-.219.507-.437.764-.65l.25-.206c.327-.266.659-.53.993-.786.082-.062.164-.123.247-.184q.333-.254.672-.5c.111-.081.222-.158.332-.238q.3-.215.609-.422l.341-.23c.212-.14.422-.276.633-.41.1-.064.2-.129.3-.192q.457-.283.909-.547l.012-.006c4.087-2.36,8.945-4.462,11.841-4.931.193-.032.378-.056.553-.072a12.16,12.16,0,0,1,5.427.535,1.978,1.978,0,0,1,.87,3.221l-1.623,2.29c-.592.885-1.675,2.176-2.418,3.248-1.917,2.767-3.557,4.684-5.353,7.032-1.882,2.464-6.941,8.26-8.976,11.185-.914,1.311-1.721,2.312-2.665,3.463a37.255,37.255,0,0,0-2.567,3.451c-.388.6-1.792,2.638-2.146,3.239L6.8,54.235a1.5,1.5,0,0,1-2.179.315,15.4,15.4,0,0,1-2.14-2.115" transform="translate(0 6.109)" fill="#1a1311"/>
          <path id="パス_557-2" data-name="パス 557" d="M26.117,28.071c-1.875,2.624-4.524,5.753-7.354,9.088-1.587,1.869-3.236,3.711-4.145,4.835L9.242,48.973l-3.355,4.54a1.714,1.714,0,0,0,.7,2.6l.02.008a12.747,12.747,0,0,0,3.636.964c2.051.168,5.114-.393,8.907-1.786.344-.126.7-.26,1.052-.4q1.606-.633,3.362-1.457.585-.274,1.186-.571a21.836,21.836,0,0,0,3.521-2.229c5.1-3.889,9.577-10.063,10.433-13.143,1.051-3.778,3.474-9.556,3.372-11.692a16.648,16.648,0,0,0-2.74-8.933,12.4,12.4,0,0,0-.9-1.136,12.586,12.586,0,0,0-1.025-1.031l-.014-.014a1.582,1.582,0,0,0-2.359.282l-2.666,3.879Z" transform="translate(2.901 7.47)" fill="#1a1311"/>
        </g>
        <g id="グループ_1229-2" data-name="グループ 1229" transform="translate(-162 -51)">
          <path id="パス_558-2" data-name="パス 558" d="M92.151,44.42a10.314,10.314,0,0,1-3.985,1.124,29.666,29.666,0,0,1-7.779-.812,13.454,13.454,0,0,1-2.909-.889,20.4,20.4,0,0,1-2.715-1.419c-.419-.257-.839-.528-1.262-.819q-.786-.544-1.579-1.162c-.638-.495-1.281-1.028-1.925-1.588q-1.042-.9-2.094-1.907c-.257-.245-.513-.507-.768-.778-.072-.076-.142-.155-.213-.233q-.3-.329-.6-.681c-.058-.069-.117-.134-.174-.2-.248-.3-.495-.608-.737-.924l-.149-.2q-.3-.4-.588-.809c-.067-.094-.134-.189-.2-.285-.221-.318-.437-.641-.65-.972-.015-.024-.032-.049-.049-.073-.227-.355-.449-.719-.669-1.084l-.175-.3q-.254-.434-.5-.873c-.052-.094-.105-.187-.157-.282-.2-.372-.4-.746-.588-1.122-.047-.091-.091-.184-.137-.276-.123-.251-.245-.5-.364-.752-.058-.123-.114-.247-.171-.37q-.155-.338-.3-.676c-.055-.126-.11-.253-.163-.378-.1-.235-.193-.466-.286-.7-.044-.11-.09-.221-.131-.33-.129-.333-.254-.665-.37-.994l0-.012C58.2,19.187,57.03,14.026,57.1,11.093q.009-.295.032-.557A12.179,12.179,0,0,1,58.664,5.3a1.977,1.977,0,0,1,3.326-.259l1.951,2.018c.76.746,1.829,2.048,2.747,2.977C69.053,12.43,70.633,14.4,72.61,16.6c2.074,2.306,6.836,8.347,9.335,10.887,1.121,1.139,1.954,2.118,2.912,3.259a37.468,37.468,0,0,0,2.916,3.16c.522.493,2.261,2.249,2.787,2.708l4.159,3.9a1.5,1.5,0,0,1-.093,2.2,15.418,15.418,0,0,1-2.475,1.713" transform="translate(29.853 2.225)" fill="#1a1311"/>
          <path id="パス_559-2" data-name="パス 559" d="M72.5,16.317c2.232,2.327,4.82,5.51,7.575,8.907,1.543,1.9,3.049,3.865,3.987,4.966l5.864,6.571L93.772,40.9a1.713,1.713,0,0,0,2.683-.2l.012-.017a12.721,12.721,0,0,0,1.617-3.4c.545-1.984.56-5.1-.11-9.084-.061-.362-.128-.731-.2-1.109-.216-1.128-.486-2.322-.81-3.574-.108-.416-.222-.841-.343-1.27a21.825,21.825,0,0,0-1.541-3.873C92.2,12.644,86.96,7.1,84.091,5.689,80.571,3.959,75.341.51,73.223.218a16.649,16.649,0,0,0-9.286,1.042,12.667,12.667,0,0,0-1.282.672,13.366,13.366,0,0,0-1.2.816l-.014.012a1.579,1.579,0,0,0-.16,2.37L64.6,8.467Z" transform="translate(31.797)" fill="#1a1311"/>
        </g>
        <g id="グループ_1231-2" data-name="グループ 1231" transform="translate(301.474 104.221) rotate(-132)">
          <path id="パス_560-2" data-name="パス 560" d="M105.248,40.354a10.308,10.308,0,0,1,.058-4.141,29.642,29.642,0,0,1,3-7.224,13.4,13.4,0,0,1,1.68-2.534,20.6,20.6,0,0,1,2.137-2.2c.365-.329.745-.655,1.144-.976q.745-.6,1.564-1.185c.656-.469,1.351-.932,2.071-1.392q1.163-.74,2.424-1.463c.308-.177.632-.346.965-.513.093-.046.187-.093.283-.139.266-.129.542-.256.822-.379l.245-.11c.356-.152.723-.3,1.1-.442.076-.03.157-.058.235-.087q.464-.171.941-.332c.11-.038.219-.075.33-.111.367-.119.74-.236,1.116-.346.029-.008.056-.017.084-.026.407-.117.818-.225,1.23-.332l.337-.082q.487-.119.978-.227l.314-.07c.414-.088.83-.171,1.244-.245.1-.018.2-.034.3-.052.276-.047.55-.093.824-.134.136-.021.27-.04.405-.059.245-.034.49-.067.734-.1l.408-.049c.253-.029.5-.053.751-.076.119-.011.238-.023.355-.032.356-.029.711-.053,1.058-.072h.014c4.715-.231,10,.119,12.786,1.026.186.061.361.123.525.189a12.163,12.163,0,0,1,4.582,2.957,1.978,1.978,0,0,1-.7,3.262L149.1,23.96c-.932.516-2.485,1.17-3.637,1.785-2.969,1.585-5.306,2.539-7.975,3.807-2.8,1.331-9.949,4.176-13.095,5.846-1.412.749-2.587,1.269-3.955,1.862a37.5,37.5,0,0,0-3.859,1.9c-.623.359-2.8,1.527-3.39,1.9l-4.923,2.875a1.5,1.5,0,0,1-2.082-.716,15.39,15.39,0,0,1-.937-2.86" transform="translate(54.93 7.927)" fill="#1a1311"/>
          <path id="パス_561-2" data-name="パス 561" d="M138.09,28.9c-2.867,1.477-6.655,3.05-10.7,4.722-2.266.937-4.573,1.821-5.9,2.406l-7.969,3.749-5.06,2.505a1.715,1.715,0,0,0-.571,2.631l.014.015a12.786,12.786,0,0,0,2.8,2.52c1.748,1.086,4.728,1.989,8.739,2.482.364.044.736.087,1.118.125,1.144.113,2.365.195,3.656.241.432.015.87.027,1.317.034a21.777,21.777,0,0,0,4.15-.372c6.311-1.131,13.116-4.575,15.286-6.923,2.662-2.881,7.459-6.912,8.342-8.858a16.625,16.625,0,0,0,1.648-9.2,12.137,12.137,0,0,0-.279-1.421,12.7,12.7,0,0,0-.44-1.386l-.006-.017a1.58,1.58,0,0,0-2.225-.828l-4.145,2.231Z" transform="translate(56.205 11.052)" fill="#1a1311"/>
        </g>
      </g>
    </g>
  </g>
</svg>
