<?xml version="1.0" encoding="utf-8"?>
<!-- Generator: Adobe Illustrator 27.5.0, SVG Export Plug-In . SVG Version: 6.00 Build 0)  -->
<svg version="1.1" xmlns="http://www.w3.org/2000/svg" xmlns:xlink="http://www.w3.org/1999/xlink" x="0px" y="0px"
	 width="576.3619995px" height="154.1499939px" viewBox="0 0 576.3619995 154.1499939"
	 style="enable-background:new 0 0 576.3619995 154.1499939;" xml:space="preserve">
<style type="text/css">
	.st0{fill:#FFFFFF;}
</style>
<g id="レイヤー_1">
</g>
<g id="グループ_1334">
	<g>
		<g id="グループ_1333">
			<path id="パス_2318" class="st0" d="M57.8837242,16.473917c-0.2425499-0.0079212-0.4860916-0.0059395-0.7286415-0.0128689
				c-2.9098396,0.4161205-5.8592873,0.4792767-8.7842712,0.1880989l-11.8691101,0.7919998
				c0.0807419-0.4086552,0.1004257-0.8270283,0.0584068-1.2414589c-0.5731544-3.9508572-0.8218155-7.9420147-0.7434883-11.9334602
				c0.0070152-0.5444827-0.0977707-1.0846136-0.307888-1.5869703c-1.1988869,0.0346498-2.3967857,0.06039-3.5917187,0.1158299
				c-2.2126503,0.099-4.43223,0.24453-6.6409206,0.44649c-0.4185467,0.6497488-0.601326,1.4235017-0.5177689,2.19186
				c0.4039192,4.2371993,0.8071804,8.4750595,1.2097797,12.7135792l-13.4293499,0.8979301
				c-0.1155062,0.0597992-0.2341471,0.1133385-0.3554106,0.1603813c-3.043437,0.6435242-6.1317034,1.0529327-9.23769,1.2246284
				c-0.1134558,0.1283817-0.218924,0.2636051-0.31581,0.404911c0.5464799,6.3171883,1.1385,12.6333904,1.5681598,18.9515667
				c3.9689097,0.1514702,7.9338593,0.4138222,11.9017792,0.593998c-0.17978-1.8654823-0.2587662-3.7393036-0.2366095-5.6133003
				c-0.2970009-2.3086815-0.5544004-4.6252804-0.9622803-6.9161396c13.1636992,0.04356,26.3247604-0.0907516,39.483181-0.4029293
				c-6.1073112,22.9986916-13.0076103,45.7379951-20.97612,68.1694183c-0.3303375,0.874939-0.2753181,1.8487549,0.1514702,2.6809235
				c3.3798599,0.7860565,6.8052597,1.4671783,10.2167969,2.1116714c0.4990578-0.4668732,0.8664398-1.0568771,1.0652428-1.7107162
				c6.199379-20.742485,12.5977478-41.4196281,19.0545273-62.0838966c1.2365074-6.011282,2.8234825-11.9463329,4.1649284-17.9388008
				c0.0131912-0.0897617,0.026062-0.1808395,0.0386124-0.273241c-0.0518494-0.3891144-0.1637344-0.7678356-0.3316498-1.1226597
				c-3.2976913-0.2970009-6.5894394-0.5939999-9.8841629-0.8068504"/>
			<path id="パス_2319" class="st0" d="M147.3134003,27.6213169
				c-9.7425995,16.2013493-18.8406982,32.7393036-27.0072021,49.8118515
				c-0.2287903,0.5217514-0.3425751,1.0866394-0.3336258,1.6562729c1.039505,1.1662216,2.0393982,2.3700562,3.0947418,3.5194473
				c0.5682526,0.2682953,1.1305771,0.5494461,1.6968536,0.821701c0.2452393-0.0255661,0.4865417-0.0804062,0.7187347-0.163353
				c0.8692551-0.9355698,1.6853027-1.9192047,2.444313-2.9462357c1.1721649-1.6612244,2.2106781-3.3174896,3.4194489-4.8866348
				c7.6282959-13.0864792,14.960556-26.3349915,21.9968109-39.745533c1.0110321-2.8094025,2.1801147-5.5593929,3.5016327-8.2367973
				c-3.0610809-0.8741703-6.3260956-0.3821411-9.531723,0.1692886"/>
			<path id="パス_2320" class="st0" d="M156.8460999,27.4530163c0.7157898-1.4998493,1.4414368-2.9947491,2.1552429-4.4906387
				c0.3276825-1.1731491,0.6533966-2.3463001,0.9899902-3.5085602c-0.1448669-0.4132576-0.3631897-0.7969398-0.6444855-1.1325607
				c-0.190033-0.2404613-0.4122314-0.4536572-0.6603394-0.6336002c-1.3968811-0.1257305-2.7947693-0.24156-4.1916504-0.3643188
				c-2.3977814,0.1455288-4.7955627,0.3445187-7.1933441,0.2910595
				c-14.5134125,1.2810593-29.0168991,2.6462688-43.5015945,4.2243309
				c-2.3822098,0.6675835-4.8021011,1.1925545-7.2468033,1.5721188c-0.3187103,0.2581215-0.6014023,0.5577869-0.8405075,0.8909988
				c-0.056427,0.0277214-0.0821686,0.0772209-0.1237488,0.1148396c0.3474884,2.3225403,0.7325974,4.640131,1.1741333,6.9498005
				c0.6972046,0.3238811,1.4727478,0.440712,2.2344284,0.3366013c16.1251221-2.3373909,32.3175507-3.7619991,48.5812836-4.5282593
				c-0.0900879,0.1504803-0.1762085,0.3029385-0.2673035,0.4544086c3.2056274-0.5514297,6.4706421-1.0444508,9.531723-0.1692886"/>
			<path id="パス_2321" class="st0" d="M228.7200928,18.7756672c-1.3652039-0.2177982-2.7264557-0.4534206-4.1065063-0.5831089
				c-0.3425446-0.0316792-0.6831055-0.0643501-1.0246582-0.0990009c-1.8552551-0.1425591-3.7164612-0.198-5.5647888-0.4643097
				c-9.6619415-0.250618-19.3296509,0.1681652-28.9337463,1.2533398c-0.8771362-0.0247498-1.7532806,0-2.6294403-0.0247498
				c-0.890686-0.0434628-1.7660828,0.2435112-2.4581757,0.8058586c0.0504913,2.1591911,0.155426,4.3173904,0.2673035,6.483511
				c0.3999939,0.2885399,0.8522186,0.4966602,1.3315582,0.6128082c0.6223602,0.3179379,1.3271942,0.4374866,2.0195923,0.3425407
				c0.4890594-0.0603905,0.9791107-0.0593987,1.4691467-0.1168194c10.0296936,0.275219,20.060379,0.3177891,30.095993,0.2811604
				c-0.1524658,0.3959999-0.2880859,0.7979393-0.4415283,1.1939392
				c-13.1749268,22.7452488-25.5479431,45.8983765-36.8280029,69.6583786
				c-0.1647186,0.401535-0.2465515,0.8322372-0.2405701,1.2662048c0.0702972,0.1287003,0.151474,0.2494812,0.2237396,0.3771896
				c2.4931488,1.1190262,4.9126282,2.3953934,7.2438354,3.8214035c0.098999,0.0128708,0.2039337,0.0316772,0.3059082,0.044548
				c0.197998-0.0227737,0.3910675-0.0475159,0.5860748-0.0633621c0.2468567-0.225975,0.4572601-0.4888,0.6237183-0.7791367
				c11.8453522-23.2115326,25.8103027-46.380497,35.3954773-70.7948914c0.5811462-1.0008888,1.138504-2.0146503,1.7018127-3.0254402
				c0.098999-0.2653198,0.2167969-0.5256901,0.3098755-0.7919979c0.4662781-1.3404617,1.0276184-2.6442909,1.5533142-3.960001
				c0.3039246-1.0295982,0.6395264-2.0502911,0.97612-3.0690002c-0.280838-1.0108147-0.9595337-1.8645573-1.8809814-2.3661003"/>
			<path id="パス_2322" class="st0" d="M399.7990417,50.7001991c-11.0583191-0.26334-22.099762,0.1920586-33.1422424,0.9899979
				c-2.178009,0-4.3559875,0.0089073-6.5339966,0c-1.3959045,0.3684235-2.8171082,0.6331444-4.2520447,0.7919998h-0.0079346
				c-0.3959961,0.0396004-0.7919922,0.0455399-1.1800537,0.0871201c-0.3656311,0.0439644-0.7192993,0.1582642-1.0415039,0.3366013
				c0.0809937,0.3713684,0.0464478,0.7586174-0.098999,1.109787c-0.0514832,1.6067734,0,3.2293816,0.0445557,4.7965508
				c0.0108948,0.3593712,0.0534668,0.7177505,0.0683289,1.0791016c0.620636,0.4895058,1.4093628,0.7143517,2.1948242,0.625679
				c3.4907532-0.3702583,6.9775391-0.5058899,10.4682922-0.7652664c9.7366333,0,19.4762573-0.1663208,29.2198181-0.6831017
				c0.348999-0.0408058,0.689209-0.1370583,1.0078125-0.2851181c0.8454895,0.0138626,1.6899414-0.0405884,2.5364075-0.0207863
				c0.7801514,0.0264473,1.542511-0.2366066,2.1403809-0.7385406c0.0435181-2.2439995,0.1461792-4.4880028,0.3078918-6.7319984
				c-0.4948425-0.3852882-1.1024475-0.5974503-1.7295532-0.6039009"/>
			<path id="パス_2323" class="st0" d="M355.5054321,61.1011391c-0.7929077-0.0018921-1.5626526-0.2676506-2.1878662-0.7553711
				l-0.2098999-0.1584015l-0.0108643-0.2623482c-0.0069275-0.1593895-0.0188293-0.3158112-0.0317078-0.4732208
				c-0.0158386-0.2049294-0.0316772-0.4108505-0.0386047-0.6167717c-0.0465393-1.5919228-0.098999-3.2135391-0.0435791-4.8302116
				l0.035675-0.1801796c0.1040955-0.2451553,0.1316833-0.516037,0.0791626-0.7771492l-0.1059265-0.4276772l0.3900757-0.1980019
				c0.3845215-0.2097855,0.805542-0.3441963,1.2404785-0.3960037c0.2088928-0.0227661,0.4167786-0.0346489,0.6246948-0.0475197
				c0.1544495-0.0089073,0.309845-0.0178223,0.4653015-0.0316811l0.098999-0.011879
				c1.4082336-0.1549339,2.8027954-0.4157143,4.1718445-0.7801208l0.1366272-0.0168266c1.1791077,0,2.3581848,0,3.538269,0
				h2.9967346c12.6185608-0.9127808,23.1659851-1.2266083,33.1550903-0.9900017
				c0.7454224,0.0099678,1.4672852,0.2626419,2.0562439,0.7197342l0.2385864,0.1831512l-0.0227966,0.2969971
				c-0.1593933,2.2235374-0.2623596,4.4777679-0.3059082,6.701313l-0.0049438,0.2564087l-0.197998,0.1633492
				c-0.703125,0.5833359-1.5944519,0.890892-2.5076599,0.8652611c-0.436615-0.0128708-0.8672485,0-1.3018799,0.0089073
				c-0.37323,0.0079193-0.7484436,0.0138626-1.1216431,0.0138626l-0.0524902,0.0197983
				c-0.3252258,0.1439171-0.6721802,0.2325821-1.0266113,0.262352c-8.6822815,0.46035-18.1368103,0.6840858-28.8881836,0.6840858
				H366.31427c-1.1573181,0.0871201-2.3552246,0.1613693-3.5531006,0.2356186
				c-2.248291,0.1405792-4.5737915,0.2851181-6.8567505,0.5256882c-0.1315002,0.01437-0.2636719,0.0216408-0.3959961,0.0217819
				 M354.1986694,59.6012802c0.4704285,0.3081818,1.0345764,0.440361,1.592926,0.37323
				c2.3066711-0.2445335,4.644104-0.3890724,6.9052429-0.5296516c1.1939392-0.0732613,2.3869019-0.1484985,3.5808411-0.2366066
				h0.254425c10.8167419,0,20.2850952-0.2227478,28.9782715-0.6840897c0.2345276-0.0262337,0.4633789-0.089386,0.6781616-0.1871071
				l0.2613525-0.098999h0.1059265c0.3910522,0.011879,0.7919922,0,1.1880188-0.010891
				c0.4514465-0.0089111,0.9068298-0.0217819,1.3533325-0.0098991c0.5624084,0.0341911,1.1191406-0.1289711,1.5740967-0.461338
				c0.0445557-2.0483131,0.1395874-4.1203804,0.2821655-6.1686897c-0.3526611-0.2089233-0.7543945-0.3206253-1.1642456-0.3237305
				c-9.9505005-0.2356186-20.4672852,0.0762291-33.0887756,0.9899979h-3.0343628c-1.1582947,0-2.3162537,0-3.4739075,0
				c-1.3703613,0.3600922-2.7649536,0.6208115-4.1728516,0.7801208l-0.098999,0.0128708
				c-0.197998,0.0207901-0.4039001,0.0326691-0.6058655,0.044548c-0.2019653,0.0118752-0.3821411,0.0227661-0.5741882,0.0425682
				c-0.1694946,0.0188484-0.3358765,0.0594444-0.4949951,0.1207809c0.0016174,0.2986069-0.0479431,0.5952835-0.1465454,0.8771439
				c-0.0465393,1.5533104,0,3.1254311,0.0465393,4.6480484c0.0059509,0.2138405,0.0207825,0.3959999,0.0356445,0.5870667
				c0.0069275,0.0772209,0.0118713,0.1554337,0.0178223,0.2316628"/>
			<path id="パス_2324" class="st0" d="M571.9075928,45.7274284c-10.9890137-0.2366066-21.9552612,0.2455215-32.9244385,1.0692024
				c-2.1641235,0-4.3283081,0.0197983-6.4924316,0.0197983c-1.3862305,0.3723907-2.7982178,0.64077-4.2243652,0.8028908h-0.006958
				c-0.3959961,0.0415802-0.7820435,0.0475235-1.1721802,0.0910797c-0.3635864,0.04459-0.7149048,0.1595955-1.0344849,0.3385811
				c0.0805054,0.3713913,0.0459595,0.7585068-0.098999,1.109787c-0.0494995,1.6077614,0,3.2303696,0.0505371,4.7965508
				c0.0108643,0.3593712,0.0544434,0.7177505,0.0692749,1.0791016c0.6151123,0.4872437,1.3984985,0.7104874,2.1780396,0.6207275
				c3.4649658-0.3791695,6.9299927-0.5237083,10.3949585-0.7919998c9.6732788-0.0188103,19.3485718-0.2138367,29.027771-0.7543793
				c0.3468628-0.0414581,0.6848145-0.1383972,1.0009155-0.2871017c0.8405151,0.010891,1.6829834-0.0455399,2.5205688-0.0267296
				c0.7756348,0.0230179,1.5324097-0.2418175,2.1245117-0.7434883c0.0408936-2.2439995,0.1399536-4.4880028,0.2969971-6.7320023
				c-0.4907837-0.3844986-1.0952148-0.5954819-1.718689-0.5999374"/>
			<path id="パス_2325" class="st0" d="M527.9089966,56.2382545c-0.786438-0.0018883-1.5495605-0.2667389-2.1680908-0.7523994
				l-0.2088623-0.1574097l-0.0128784-0.2613602c-0.0059204-0.1603775-0.0187988-0.3207588-0.0307007-0.4801483
				c-0.0158081-0.1980019-0.0316772-0.403923-0.0386353-0.6068687c-0.0494995-1.5919228-0.098938-3.2125511-0.0494995-4.8292198
				l0.034668-0.1781998c0.1036987-0.246315,0.1309204-0.5181198,0.078186-0.780117l-0.1079102-0.4237213l0.3880615-0.2049332
				c0.3817749-0.2095032,0.8002319-0.3439255,1.2325439-0.3959999c0.2069092-0.0227699,0.414856-0.0356407,0.6227417-0.0494995
				c0.1524658-0.0089111,0.3059692-0.0178223,0.4593506-0.0326729l0.098999-0.0138588
				c1.3991699-0.1582108,2.7842407-0.4229813,4.1431274-0.7919998l0.1376343-0.0168266
				c1.1879883,0,2.3869019-0.0049515,3.5808105-0.0098991l2.9146118-0.0138626
				c12.5254517-0.942482,22.9967041-1.2810593,32.9362793-1.0692024c0.7423706,0.0080147,1.4616089,0.2594757,2.0473022,0.7157707
				l0.2346191,0.1821556l-0.020752,0.2970009c-0.1554565,2.2304688-0.2544556,4.4846992-0.2969971,6.7003212v0.2554207
				l-0.197998,0.1623611c-0.6859741,0.6024399-1.5789185,0.9151268-2.4908447,0.8721886
				c-0.4306641-0.0079193-0.8642578,0-1.296936,0.0128708c-0.3712158,0.0089111-0.739502,0.0188103-1.1117554,0.0148506
				l-0.0603638,0.0237579c-0.3198242,0.1425362-0.6610107,0.2311859-1.0098267,0.2623482
				c-8.7515869,0.4870796-18.2575684,0.734581-29.0594482,0.7543831c-1.1514282,0.0900879-2.3453369,0.1682968-3.538269,0.2465096
				c-2.2304688,0.1435509-4.5371704,0.2969971-6.7993164,0.5415306c-0.1358032,0.0145798-0.2722778,0.0218506-0.4088745,0.0217781
				 M526.6160278,54.7354355c0.4684448,0.3049965,1.0289307,0.4360237,1.5839844,0.3702583
				c2.2879028-0.2504692,4.6065063-0.4009476,6.8498535-0.5464783c1.1879883-0.0772171,2.3759766-0.154438,3.5639648-0.2465096
				c10.8226929-0.0217781,20.3098755-0.2672997,29.041626-0.7543831c0.2302246-0.0270081,0.4547729-0.0901527,0.6652832-0.1871071
				l0.2683105-0.098999h0.1049805c0.3850708,0,0.7840576-0.0049515,1.177124-0.0148506
				c0.4494019-0.010891,0.8978882-0.0217781,1.3474121-0.0128708c0.5564575,0.0109367,1.102417-0.1516914,1.5621948-0.4652977
				c0.0406494-2.0433617,0.1316528-4.1184006,0.2703247-6.1736412c-0.3488159-0.2073593-0.7466431-0.3177605-1.1524048-0.3197708
				l0,0c-9.8930664-0.2098846-20.3395386,0.1247368-32.867981,1.0682068l-2.9501953,0.0098991
				c-1.1731567,0.0049515-2.3829346,0-3.5155029,0.0089073c-1.3606567,0.3643875-2.7460327,0.6290894-4.1451416,0.7919998
				l-0.098999,0.0128708c-0.197998,0.0207901-0.4009399,0.0346489-0.6018677,0.0465317
				c-0.2009277,0.011879-0.380127,0.0237579-0.5692749,0.044548c-0.1696777,0.0183678-0.3361206,0.0593224-0.4949951,0.121769
				c0.0024414,0.298748-0.0460815,0.5957222-0.1435547,0.8781319c-0.0455933,1.5542984,0,3.1274109,0.0504761,4.6529999
				c0.006958,0.207901,0.0217896,0.3960037,0.0366211,0.5761833c0.006958,0.0811806,0.0119019,0.1613655,0.0178223,0.2415581"/>
			<path id="パス_2326" class="st0" d="M324.1511536,83.571167c-0.3959961-14.1570053-1.5839844-28.2308388-3.1452332-42.2730026
				c-0.1326599-2.7858582-0.2801514-5.5687485-0.4098511-8.3536186c-0.4941406-1.7624378-0.8731079-3.555151-1.1345215-5.3667889
				l-0.0049744-0.0089111c-0.0693054-0.4950008-0.098999-1.0018787-0.1702576-1.5008411
				c-0.0681763-0.4557629-0.2148743-0.896244-0.4336243-1.3018494c-0.3983154,0.1362362-0.8321228,0.1260567-1.2236328-0.0287094
				c-1.7671509,0.0742493-3.545166,0.2791786-5.2618408,0.4771805c-0.3959961,0.0455379-0.7850647,0.1316681-1.1800842,0.1821594
				c-0.5037842,0.8625221-0.6979675,1.8712025-0.550415,2.8591194c0.6226807,4.4302521,0.9899902,8.875351,1.4849854,13.3135185
				c0.5999146,12.4462776,1.3939209,24.8796959,2.5661011,37.289341c0.0649109,0.4364624,0.1915588,0.8614655,0.3761902,1.2622528
				c0.0376282,1.0820694,0.1495056,2.1562195,0.1802063,3.2402725c0.0081177,0.9711838,0.3401489,1.9118805,0.9434509,2.6729965
				c2.4650879-0.141243,4.9328613-0.2072372,7.4032288-0.197998c0.3978271-0.6857071,0.5905762-1.4711609,0.5553894-2.2631454"/>
			<path id="パス_2327" class="st0" d="M315.8737488,86.7460938l-0.2247009-0.2791748
				c-0.6982117-0.8785553-1.0838318-1.9646759-1.0959473-3.0868149c-0.0158081-0.5603409-0.0524597-1.1186981-0.091095-1.6760712
				c-0.0326538-0.4801483-0.0653381-0.9593124-0.084137-1.4414444l-0.0346375-0.0871124
				c-0.1745605-0.398201-0.2899475-0.8197784-0.3425598-1.2513657c-1.0583191-11.2077866-1.8988037-23.4154778-2.5680542-37.322998
				c-0.1673279-1.4850006-0.324707-3.0046501-0.4801331-4.5282593c-0.2969971-2.8630829-0.5939941-5.8241711-1.0048523-8.7219028
				c-0.1684875-1.1401405,0.0556641-2.3036785,0.6355591-3.2996693l0.1722717-0.2970009l0.3425598-0.0445499
				c0.1742249-0.0227699,0.3464966-0.0514793,0.5197449-0.0821686c0.2227478-0.0386105,0.4454956-0.0752411,0.6702271-0.0990009
				c1.6394348-0.1890907,3.4976501-0.404911,5.3113403-0.4801502l0.1356201-0.0059414l0.1277161,0.0455399
				c0.2373047,0.0948696,0.4997559,0.1063881,0.7444763,0.032671l0.5791626-0.2187901l0.2831421,0.5504398
				c0.254303,0.4748669,0.4250793,0.9899025,0.5049133,1.5226192c0.0366211,0.2663097,0.0643616,0.5326195,0.091095,0.799921
				c0.0178223,0.1841412,0.0375977,0.3682785,0.0603943,0.5504398v0.0059395l0.0217896,0.1593895
				c0.2548523,1.7817078,0.6279297,3.5444984,1.1166992,5.2766991l0.0227661,0.1485023
				c0.0712891,1.5450592,0.1468811,3.0901184,0.2267151,4.6351776l0.1821594,3.718441
				c1.7819824,16.0578041,2.7878418,29.509922,3.1462402,42.2878532c0.0375061,0.9213028-0.1877136,1.8342819-0.6494446,2.6324081
				l-0.1980286,0.3464966h-0.3959961c-2.4750061-0.0277176-4.9450378,0.0554428-7.3616333,0.197998L315.8737488,86.7460938z
				 M311.6395264,26.0323677c-0.3161316,0.6611366-0.4261475,1.40205-0.3158264,2.1265202
				c0.4118347,2.9244614,0.7167664,5.8974285,1.0108032,8.7733822c0.155426,1.5196495,0.3108521,3.040287,0.4831238,4.553997
				c0.6721802,13.9293022,1.5097351,26.1162033,2.5660706,37.3022156c0.0429688,0.301857,0.1282959,0.5961533,0.2534485,0.874176
				l0.1257629,0.4286652c0.0168152,0.5049057,0.0514832,1.0097961,0.0861206,1.5127182
				c0.0386353,0.5761795,0.07724,1.1523666,0.0990295,1.7325058c0.0063477,0.702095,0.210144,1.388237,0.5880432,1.9799957
				c2.178009-0.1178131,4.3985596-0.1781998,6.6161804-0.1781998h0.0237427
				c0.2113647-0.4874115,0.3085327-1.0166702,0.2841187-1.5473709c-0.3563843-12.7393188-1.3543396-26.15382-3.1402588-42.2175636
				l-0.1861267-3.7570534c-0.0772095-1.5226173-0.1517944-3.0445786-0.2237549-4.565876
				c-0.4803162-1.7158508-0.8513184-3.4604321-1.1107788-5.2232418l-0.0049744-0.0059414l-0.0207825-0.1574097
				c-0.0356445-0.251461-0.0603943-0.5029202-0.0861206-0.7553711c-0.0257568-0.2524509-0.0494995-0.4950008-0.084137-0.7434902
				c-0.0315552-0.2109852-0.0863342-0.4178333-0.1633606-0.6167679c-0.3076782,0.0128365-0.6153564-0.0266647-0.9098206-0.1168213
				c-1.7245789,0.0792007-3.5085754,0.2861099-5.0856323,0.4682693c-0.197998,0.0227718-0.3959961,0.0564308-0.5939941,0.0920715
				l-0.2128601,0.0356388"/>
			<path id="パス_2328" class="st0" d="M318.5606384,22.5020275c-12.4433594,0.2267399-24.8672485,1.0832024-37.223999,2.5660801
				c-2.4492798,0.0881119-4.897522,0.1930504-7.3468018,0.2781906c-1.5524902,0.4960899-3.1412964,0.8704529-4.7519836,1.1196918
				h-0.0069275c-0.4425049,0.0643501-0.8830566,0.0871181-1.3246155,0.1544399
				c-0.412262,0.0680218-0.8065491,0.2185364-1.1592712,0.4425297c0.1031494,0.4382305,0.0770264,0.8969822-0.0752563,1.3206596
				c-0.0049438,1.90872,0.0990295,3.8322887,0.2079163,5.6885395c0.0227661,0.4266891,0.0831604,0.8504105,0.1118774,1.2780914
				c0.7034607,0.5511665,1.6036377,0.7866096,2.4868774,0.6504326c3.9134521-0.5860786,7.8279419-0.8910027,11.7443542-1.348381
				c10.9454346-0.4029312,21.8869324-1.0157394,32.8234558-2.0374222c0.3930359-0.0641403,0.7727051-0.1929359,1.1236572-0.3811493
				c0.9513855-0.0197983,1.8988342-0.1197891,2.8522034-0.1306801c0.8862-0.0075989,1.7360229-0.3532047,2.3760071-0.966238
				c-0.0237732-2.6637611,0.0181274-5.3291702,0.1257324-7.9962311c-0.5617065-0.4338303-1.2556152-0.6610622-1.9651489-0.6434994"
				/>
			<path id="パス_2329" class="st0" d="M268.9715271,36.6451645c-0.8469543-0.0055046-1.6686096-0.2893677-2.3383789-0.8078423
				l-0.2217407-0.166317l-0.0188293-0.2752228c-0.0128784-0.1920586-0.0326538-0.3811455-0.0524902-0.572216
				c-0.0227661-0.2376022-0.0475159-0.4742126-0.0603943-0.7137909c-0.1059265-1.8612022-0.2148438-3.7877407-0.2088928-5.7231922
				l0.0297241-0.1831493c0.115509-0.3143387,0.1378784-0.6553516,0.0643311-0.9820805l-0.1158142-0.4375782l0.3900757-0.2316608
				c0.4199829-0.2629414,0.888092-0.4396267,1.3770752-0.5197487c0.2356262-0.0346508,0.4712524-0.0594006,0.7088318-0.0831604
				c0.1534424-0.0158405,0.3078918-0.0306892,0.4613342-0.0494995l0,0l0.162384-0.0227699
				c1.5812378-0.2428265,3.1407471-0.6106091,4.6638794-1.0998898l0.1534424-0.0257397
				c1.3351746-0.0468597,2.6700439-0.0973473,4.0045776-0.1514702l3.3422241-0.1257305
				c12.3604736-1.4930401,24.7894592-2.3501892,37.237854-2.5680599c0.8424683-0.0172977,1.6656189,0.2533607,2.3334351,0.7672501
				l0.2485046,0.1881008l-0.0119019,0.3128395c-0.1069031,2.6730003-0.1494751,5.3539219-0.1227417,7.9655399v0.2653198
				l-0.197998,0.1801796c-0.7496033,0.7168522-1.744751,1.1202259-2.7819214,1.1276073
				c-0.4949951,0.0059433-0.9899902,0.0346527-1.4760742,0.0653419c-0.415802,0.0247498-0.831604,0.0494995-1.2483826,0.0623703
				l-0.0623474,0.0267296c-0.3566895,0.1824532-0.7421875,0.3020172-1.1394958,0.3534317
				c-9.8792114,0.9236679-20.6266479,1.5899391-32.8591003,2.04039c-1.2978821,0.1524582-2.6433105,0.2910576-3.9887085,0.429657
				c-2.522522,0.2593803-5.130188,0.5296516-7.6863708,0.9127808c-0.1966248,0.0296402-0.3951416,0.0448608-0.5939941,0.0455437
				 M267.5578003,35.026516c0.5369873,0.3552094,1.1882935,0.4945221,1.8236084,0.3900604
				c2.5838623-0.3870888,5.2054138-0.6573601,7.7417908-0.9187202c1.3394775-0.1376114,2.6799316-0.275219,4.0203857-0.4316406
				c12.2562256-0.4524307,22.9818726-1.1186981,32.8382874-2.0393982c0.2650146-0.0416012,0.5212708-0.1269131,0.7583313-0.2524509
				l0.4088745-0.1296902c0.4405518-0.0108891,0.8820801-0.0376205,1.3226318-0.0633583
				c0.5098572-0.0316811,1.0197144-0.0623703,1.5335388-0.0692997c0.6492615-0.0044174,1.2776794-0.2296066,1.7819824-0.6385517
				c-0.0198059-2.4353981,0.0188293-4.926239,0.1138306-7.4151001c-0.3938293-0.2362614-0.8456116-0.3582916-1.3048096-0.3524399
				h-0.0396118c-12.4232178,0.2174492-24.8270874,1.0726166-37.1625977,2.5621185l-3.3848267,0.1306801
				c-1.3094788,0.0501614-2.619873,0.0993309-3.9313049,0.1475105c-1.506958,0.4769268-3.0473938,0.8409367-4.6084595,1.0890007
				h-0.0049438l-0.1613464,0.0237598c-0.2227783,0.032671-0.4465027,0.055439-0.6702576,0.077219
				s-0.4335938,0.0445499-0.6504211,0.077219c-0.2056885,0.0299149-0.4058228,0.0899582-0.5940247,0.1781998
				c0.0206299,0.3660412-0.024292,0.7328243-0.1326599,1.0830612c0,1.8691196,0.1039734,3.7461605,0.2069397,5.5628071
				c0.0128479,0.2207718,0.0346375,0.4395599,0.0574341,0.6583519c0.0108643,0.1079102,0.021759,0.2148285,0.0316772,0.3207588"/>
			<path id="パス_2330" class="st0" d="M322.0533447,77.0718155c-11.5939026-0.4544144-22.6957397,0.8464508-34.609436,1.0632553
				c-2.339386-0.1188049-4.6817017-0.2247238-7.0220642-0.3464966c-1.5238037,0.2995148-3.0666809,0.4923706-4.6173401,0.5771713
				h-0.0079346c-0.4256897,0.0197906-0.8494263,0-1.275116,0.0257416c-0.3937988,0.0249023-0.7796936,0.1218796-1.1384888,0.2861099
				c0.0638123,0.3824692,0.0030823,0.775322-0.1732178,1.1206741c-0.1534729,1.6275558-0.1980286,3.2769012-0.2445679,4.8688202
				c-0.0089111,0.3663025,0.0158386,0.7325974,0.0099182,1.0998917c0.6506653,0.5343246,1.479187,0.8030777,2.3195496,0.7524033
				c3.7729187-0.1890945,7.5240173-0.1405792,11.2949219-0.2158279c10.4633179,0.52668,20.9384766,0.874176,31.4403992,0.8731842
				c0.3763123-0.0234222,0.7470093-0.1028366,1.099884-0.2356186c0.9068298,0.0584106,1.818634,0.0485153,2.727478,0.1148376
				c0.831604,0.0694656,1.6612854-0.1551056,2.3443298-0.6345901c0.1821289-2.2770004-0.5811462-6.2310562-0.2732544-8.4981537
				c-0.51651-0.479599-1.1742554-0.7793045-1.875061-0.8543701"/>
			<path id="パス_2331" class="st0" d="M317.9784851,87.8746948c-9.4653931,0-19.7445374-0.2871017-31.4245605-0.8741684
				c-1.2483826,0.0267258-2.5443115,0.0376205-3.8392334,0.0494995c-2.4205322,0.0217819-4.9232483,0.042572-7.3863831,0.165329
				c-1.0096436,0.0629883-2.0055542-0.2593231-2.7868347-0.9018936l-0.2683105-0.2138443l0.0059814-0.3415451
				c0-0.1623611,0-0.3237381,0-0.4860916c0-0.207901-0.0089417-0.4138184,0-0.6217194
				c0.0445557-1.6156845,0.0910645-3.2669983,0.2454834-4.9143524l0.0633545-0.2306747
				c0.1119385-0.2104721,0.1542358-0.4510269,0.1207886-0.6870575l-0.1118774-0.5543976l0.5187683-0.2217636
				c0.4351196-0.1975784,0.9029846-0.3130417,1.3800659-0.3405609c0.387085-0.0207901,0.7771606-0.0079193,1.1681824-0.0217819
				l0.1177979-0.0079193c1.5186462-0.0818939,3.0295105-0.2714615,4.5213318-0.5672684l0.0801697-0.0148544h0.0821838
				c1.2909546,0.0660019,2.5815735,0.1296921,3.8718872,0.1910706l3.1502075,0.1564178
				c4.5539856-0.0851364,9.0971069-0.3346176,13.4877319-0.5761795c7.1874084-0.3960037,13.9748535-0.7672501,21.1117859-0.4880676
				c0.8518066,0.0802155,1.6545715,0.4345398,2.2878723,1.0097961l0.302948,0.2455215l-0.0534363,0.3870926
				c-0.0993042,1.4769516-0.0585632,2.9599915,0.1217346,4.4292603c0.1517944,1.3373718,0.2034302,2.684227,0.1544495,4.0292969
				l-0.0257263,0.3276901l-0.2692871,0.1871109c-0.8113708,0.5747452-1.8001404,0.8434296-2.790802,0.7583389
				c-0.4692688-0.0336533-0.9395142-0.0475159-1.408783-0.0613708c-0.3959961-0.0108948-0.7919922-0.0227737-1.1880188-0.044548
				l-0.0524597,0.0158386c-0.3786621,0.1378479-0.7781372,0.2098389-1.1810608,0.2128448 M286.574707,85.611557
				c11.7047729,0.5880585,21.9621582,0.8731766,31.4037781,0.8731766c0.2626648-0.0110321,0.5220642-0.0621109,0.7692566-0.1514664
				l0.302948-0.0910797l0.1237488,0.0079193c0.4207153,0.0267334,0.8424988,0.0396042,1.2642212,0.0514832
				c0.4900513,0.0138626,0.9801025,0.0287094,1.4681702,0.0643539c0.561554,0.0453568,1.1242065-0.0732956,1.6196289-0.3415527
				c0.005127-1.1553116-0.0527039-2.310051-0.1732178-3.4590607c-0.1617432-1.43573-0.2143555-2.8816376-0.1574097-4.3253174
				c-0.3364868-0.2670822-0.7427368-0.4317017-1.1701965-0.474205c-7.0646362-0.274231-13.826355,0.098999-20.9820557,0.4880676
				c-4.4035339,0.2415619-8.956543,0.4949951-13.5857544,0.5761795l-3.1957397-0.155426
				c-1.2652283-0.0613785-2.530426-0.1217728-3.7956543-0.1881027c-1.4938049,0.2919693-3.0057373,0.4818268-4.5253296,0.5682526
				l-0.112854,0.0079269c-0.4237366,0.0227737-0.8464661,0.0059357-1.2711487,0.0257416
				c-0.1556702,0.0076828-0.3100281,0.0322418-0.4603577,0.0732574c-0.0255127,0.2817688-0.0953674,0.5577393-0.2069397,0.8177338
				c-0.141571,1.5632172-0.1860962,3.1531525-0.2286682,4.6935883c-0.0059509,0.197998,0,0.3841248,0,0.5682602v0.1712646
				c0.4736938,0.3017044,1.0301819,0.4471359,1.5909424,0.415802c2.4918213-0.1247406,5.0093689-0.1465302,7.4438171-0.1683044
				c1.2869873-0.0108871,2.5809021-0.0227737,3.8728638-0.0485077"/>
			<path id="パス_2332" class="st0" d="M498.2080078,40.3824158c-1.400177,0.2235069-2.8241272,0.2568092-4.2332153,0.098999
				l-0.479187,0.0801926c-0.5415344,0.0890999-1.1028748,0.1821556-1.6404419,0.3247185
				c-3.8025818,0.1405792-7.6160583,0.3593674-11.402832,0.6623077c-2.7254639-0.0594025-5.6430054-0.0613785-8.9793091-0.0158386
				l-0.3633118,0.0059395l0.049469-0.361351c0.0207825-0.1445389,0.0376282-0.2910576,0.0544434-0.4375801l0.1554565-1.3860016
				c0.1039429-0.7682419,0.2078857-2.6640892,0.3108521-3.3927269l2.2512512-10.3732224l0.2227478-0.0198002
				c0.6148071-0.054451,1.2266235-0.1059303,1.8423767-0.1554298l0.6474609-0.0574207
				c1.2283936-0.2524109,2.4692993-0.4397812,3.7174377-0.5613289c0.4880981-0.1039505,1.0118103-0.1980019,1.606781-0.2831402
				c2.3899841-0.5683575,4.8082581-1.0101814,7.244812-1.3236294c0.1237488-0.8118,0.2554016-1.3157101,0.3959961-2.1255302
				c-0.009613-0.7464771,0.0667725-1.4915771,0.2276917-2.2205696l0.0445557-0.3425388
				c0.0247498-0.2168102,0.0623779-0.4365902,0.0990295-0.6543903l0.0583801-0.3761997
				c-0.0336304-1.205822-0.0296936-2.4552011-0.0207825-3.6323109c-0.197998-0.2712603-0.3959961-0.5514297-0.5741882-0.8434801
				l-0.1395569-0.0059395l-0.0168457,0.0089102c-0.1237793,0.0853071-0.2652283,0.1414919-0.4138184,0.16434
				c-6.9676208,0.9355497-14.0877075,1.4750996-20.9771118,1.9958401
				c-7.3151245,0.5524197-14.8737488,1.1246405-22.2492371,2.1780005c-0.2564392,0.8979282-0.4999695,1.7968483-0.7484741,2.6967583
				c-0.0237427,0.1900806-0.0613708,0.4177818-0.098999,0.646471c-0.0494995,0.2870998-0.098999,0.5761814-0.1356201,0.8652611
				l0.0326538,0.0762291c0.0665588,0.1367245,0.0939636,0.2892056,0.0791931,0.4405499l-0.260376,1.8354607
				c-0.1207886,0.800909-0.2356262,1.6146889-0.3464966,2.4304485c-0.091095,1.1385002-0.1653137,0.7632904-0.2197571,1.8443718
				l0.0742493,0.0336609c0.6890869,0.3120842,1.4538879,0.4176559,2.2017517,0.3039284
				c5.0965271-0.7415104,10.4405212-1.4295597,16.3349915-2.0987988l0.4168091-0.0475197l-2.3007812,15.4925098
				l-0.2514648,0.0059433c-7.9754333,0.1752281-15.9508667,0.5345993-23.7075195,1.0682068l-1.2760925-0.0584068
				c-1.8255615,0.2564087-3.7045898,0.4999504-5.5845947,0.7415085l-0.7058716,1.2761116
				c0.1129761,0.2219238,0.171051,0.4677353,0.169281,0.7167587c0,1.3503609-0.0237427,1.5384636-0.0445862,2.8908005
				l-0.0168152,1.16325l0.3385925,2.5373688l-0.0128784,0.1445389c0.0336609,0.1980019,0.0663147,0.4316406,0.098999,0.6751785
				l0.1287231,0.0356407c0.3914795,0.1198349,0.8008423,0.1707535,1.2097473,0.1504784l2.1720581-0.0841484
				c0.1155701,0.009655,0.2316895,0.0116386,0.3475037,0.0059395l3.1511841-0.1712685
				c6.8438721-0.2851181,13.8976135-0.593998,21.572113-0.954361l0.3959961-0.0188103l-0.0703125,0.3861008l-3.9689026,22.142334
				c-0.0336609,0.1326675-0.0534363,0.2316589-0.0791931,0.3366013c-0.0524597,1.1503754-0.098999,2.3670883-0.155426,3.5907288
				c-0.0985413,4.6721725-0.4833679,9.3339157-1.1523743,13.958992l-0.0415649,1.0206909
				c0.6652832,0.2306747,1.3345032,0.4662933,1.994873,0.6999283c1.3057861,0.1257324,2.7422791,0.3118591,4.3203735,0.5534134
				l3.6263428,0.4850922l0.578186-3.4917297c0.7807617-3.0284805,1.3027039-6.117836,1.5602417-9.2347183
				c1.5740967-9.8010025,3.0690002-20.1247215,4.4450684-30.7048531l0.0326843-0.2573967l0.2603455-0.0128708
				c10.9038696-0.5365791,20.7959595-1.0592995,30.2326355-1.5919228c0.1860962-1.14048,0.3880615-2.2769966,0.5939941-3.4155006
				c0.3712463-2.0789986,0.7603149-3.0590973,1.0117798-5.1875954c-0.091095-0.2791824-0.1860962-0.5722198-0.2593689-0.8731804
				c-1.1210022,0.0625648-2.2445068,0.0671921-3.3659973,0.0138588"/>
			<path id="パス_2333" class="st0" d="M118.8370285,133.4582672l4.7292328,5.6776428l4.7312088-5.6776428h2.4819336v14.3936005
				h-2.7809067v-10.1108704h-0.0831604l-4.1579971,5.0687866h-0.3960037l-4.1579971-5.0687866h-0.0831604v10.1069031h-2.7809067
				v-14.3896332H118.8370285z"/>
			<path id="パス_2334" class="st0" d="M145.1264954,133.2701569c1.3961945-0.0223846,2.7770538,0.293869,4.0243378,0.9216919
				c3.5632935,1.8499146,4.95224,6.2381897,3.1023407,9.8014832c-0.684845,1.3191071-1.7575684,2.3966217-3.0736237,3.087326
				c-2.5641174,1.2745209-5.5783386,1.2690277-8.1377869-0.0148468c-3.5448303-1.8710632-4.9016876-6.2614746-3.0306244-9.8063049
				c0.0577087-0.109314,0.1181946-0.2171478,0.1813965-0.3233795c0.6664734-1.1466522,1.6412659-2.083374,2.8135681-2.7036896
				C142.2774963,133.5721893,143.6941681,133.241333,145.1264954,133.2701569 M140.0477905,140.6565552
				c-0.0130157,0.900116,0.2109528,1.787796,0.6494446,2.5740051c0.4201965,0.7506256,1.0469208,1.3649445,1.8057556,1.7701111
				c0.8071747,0.4283752,1.7098236,0.6450195,2.6235046,0.6296387c1.3514099,0.0487671,2.6650848-0.4511414,3.6421967-1.3859863
				c0.9576874-0.9421692,1.4756775-2.2431946,1.4275818-3.5857849c0.0124359-0.9013062-0.2096558-1.7903748-0.6444855-2.5799408
				c-0.4193726-0.7557526-1.04953-1.3731689-1.8136749-1.7770386c-1.6542053-0.8412476-3.6112213-0.8394012-5.2638397,0.0049438
				c-0.7607117,0.4011078-1.3863831,1.0174713-1.7988281,1.7720947c-0.426712,0.7920532-0.6428223,1.6804047-0.627655,2.5799408"/>
			<path id="パス_2335" class="st0" d="M161.9663849,133.4582672l4.7292175,5.6776428l4.729248-5.6776428h2.4819336v14.3936005
				h-2.7789459v-10.1108704h-0.0831604l-4.1579895,5.0687866h-0.3959961l-4.1580048-5.0687866h-0.0831604v10.1069031h-2.7809143
				v-14.3896332H161.9663849z"/>
			<path id="パス_2336" class="st0" d="M184.6482697,133.4582672l4.7292175,5.6776428l4.7312164-5.6776428h2.4819336v14.3936005
				h-2.7809143v-10.1108704h-0.0831604l-4.1579895,5.0687866h-0.3959961l-4.1580048-5.0687866h-0.0831604v10.1069031h-2.7848663
				v-14.3896332H184.6482697z"/>
			<path id="パス_2337" class="st0" d="M206.7034912,133.4582672l3.4818268,4.8114014l3.5224152-4.8114014h3.3095703
				l-5.4449921,7.2646179v7.1279907h-2.7819061v-7.1507721l-5.4707336-7.2428436L206.7034912,133.4582672z"/>
			<path id="パス_2338" class="st0" d="M233.8591919,133.4582672c0.9980774-0.0345459,1.97435,0.2967377,2.7452698,0.9315796
				c0.7137451,0.5833588,1.1184998,1.4633331,1.0969238,2.384903c-0.0005035,0.7066498-0.2301178,1.394104-0.6543884,1.9592133
				c-0.5552216,0.7124786-1.2339172,1.3194122-2.0037689,1.7919006l1.980011,2.2879028
				c0.6493683-0.6762543,1.1915588-1.4477997,1.6077423-2.2879028h2.6155853
				c-0.5991058,1.515625-1.4958954,2.8957977-2.6373596,4.0590057l2.895752,3.2669983h-3.5966644l-1.3275909-1.5146942
				c-0.6286316,0.5438538-1.3401947,0.9836884-2.1077118,1.3028412c-0.7771454,0.2818451-1.6000671,0.4161377-2.4264984,0.3959961
				c-1.0761566,0.0305023-2.124527-0.3443909-2.9373169-1.0503998c-0.765274-0.6343536-1.2035675-1.5800629-1.1929626-2.5740051
				c-0.0041656-0.8388214,0.3014984-1.6496582,0.8583374-2.2770081c0.6962128-0.7637634,1.5258789-1.3941498,2.4482727-1.860199
				c-0.4334564-0.5262299-0.803299-1.1017761-1.1018677-1.7146759c-0.2297974-0.4881744-0.3500824-1.0207062-0.3524475-1.5602417
				c-0.0305176-0.9848633,0.3937378-1.9290009,1.1503906-2.5601501c0.8256378-0.6799011,1.8725586-1.0322723,2.9412842-0.9899902
				 M230.6921844,144.2155914c-0.0058136,0.4478302,0.188797,0.8748322,0.5306244,1.1642303
				c0.3450012,0.3124237,0.7958984,0.4819641,1.2612762,0.4742126c0.9878998-0.0706482,1.9173584-0.4944611,2.6185455-1.1939392
				l-2.4749908-2.7720032c-0.517868,0.3163605-0.9946899,0.6954193-1.4196777,1.1286011
				C230.8848114,143.3327789,230.6994629,143.7636108,230.6921844,144.2155914 M232.3821106,136.7905884
				c0.0253296,0.3935699,0.1574554,0.7727966,0.3821411,1.0969238c0.2406769,0.4004517,0.5388794,0.7633514,0.8850555,1.0771179
				c0.4375763-0.2597809,0.8395538-0.5752716,1.1959229-0.9385223c0.2879181-0.2980042,0.4469147-0.697403,0.4425354-1.1117706
				c0.0082855-0.3705139-0.1423187-0.7268524-0.4138184-0.9791107c-0.2865448-0.267395-0.6676483-0.4098663-1.0593109-0.3959961
				c-0.3660126-0.0066071-0.7223511,0.1176758-1.0048523,0.3504639c-0.2768097,0.2141724-0.4355316,0.5470428-0.4276886,0.8969421"
				/>
			<path id="パス_2339" class="st0" d="M260.1912231,133.2701569c0.8079529-0.0011749,1.6133423,0.0918427,2.3997498,0.2772064
				c0.8782959,0.2201996,1.7290955,0.5383148,2.5364075,0.94841v2.6155701
				c-0.7754822-0.4580383-1.6000671-0.8273315-2.4581909-1.1008759c-0.7637634-0.2285004-1.5569763-0.3432465-2.354187-0.3405457
				c-0.9615784-0.0144653-1.9124756,0.2032318-2.7720032,0.6345978c-0.7987671,0.3973236-1.4664917,1.0158691-1.9235687,1.7819977
				c-0.4583893,0.7763062-0.6947021,1.6636353-0.6830902,2.565094c-0.0145111,0.9080505,0.2200317,1.8027191,0.6781464,2.5868683
				c0.4540558,0.7622986,1.1194916,1.3764954,1.9156342,1.7681427c0.866272,0.4229889,1.8200073,0.6359711,2.783905,0.6217194
				c0.7666626,0.0032654,1.5292664-0.1112671,2.2611389-0.3395691c0.9396973-0.3257446,1.8479614-0.7359772,2.7135925-1.2256317
				v2.6155853c-0.8165283,0.4416656-1.6799011,0.7906647-2.5740051,1.0404816
				c-0.8964844,0.2196655-1.8174133,0.3234711-2.7403259,0.3088837c-1.4093628,0.0252075-2.8045044-0.2856598-4.06987-0.9068451
				c-1.1712494-0.5803528-2.149704-1.486969-2.8175354-2.6106262c-0.6811371-1.1261444-1.0365295-2.4191742-1.0266418-3.73526
				c-0.019989-1.3749695,0.3467102-2.72789,1.0583191-3.9045563c0.6949615-1.148941,1.7028503-2.0761108,2.9056549-2.6730042
				c1.2946167-0.6394043,2.723175-0.9604797,4.1669006-0.9365387"/>
			<path id="パス_2340" class="st0" d="M274.5184937,133.4582672v6.0587921h7.469574v-6.0587921h2.7809143v14.3936005h-2.7809448
				v-6.0776062h-7.469574v6.078598h-2.7818909v-14.3945923H274.5184937z"/>
			<rect id="長方形_208" x="292.6463928" y="133.4542847" class="st0" width="2.7818999" height="14.39361"/>
			<path id="パス_2341" class="st0" d="M306.5103455,133.4582672v12.219574h6.9854431v2.1779938h-9.767334v-14.3975677
				H306.5103455z"/>
			<path id="パス_2342" class="st0" d="M324.8065186,133.4582672c1.3872681-0.0250549,2.759613,0.2893219,3.9976196,0.9157562
				c1.1341858,0.5804138,2.0782471,1.4736633,2.72052,2.5740051c0.6522522,1.1333466,0.9864197,2.4217987,0.9672241,3.7293243
				c0.0241699,1.3137054-0.3128357,2.6088257-0.9741821,3.7441711c-0.6542969,1.0953064-1.6157532,1.974472-2.7650757,2.5284576
				c-1.2810364,0.6177979-2.6894836,0.9253845-4.1114502,0.897934h-5.8617859v-14.3896484H324.8065186z M324.5174561,145.6778412
				c1.3718262,0.063858,2.7098999-0.437027,3.7026062-1.3860016c1.8685913-2.0801697,1.8647461-5.2355347-0.0089111-7.311142
				c-1.0328369-0.9344177-2.3947754-1.4198608-3.7857666-1.3493805h-2.8640747v10.0435486L324.5174561,145.6778412z"/>
			<path id="パス_2343" class="st0" d="M358.6338501,133.2701569c0.8079834-0.0011749,1.6133423,0.0918427,2.3997803,0.2772064
				c0.8782959,0.2201996,1.7290649,0.5383148,2.536377,0.94841v2.6155701
				c-0.7754822-0.4580383-1.6000671-0.8273315-2.4581604-1.1008759c-0.7637634-0.2285004-1.5570068-0.3432465-2.3542175-0.3405457
				c-0.9615784-0.0144653-1.9124756,0.2032318-2.7719727,0.6345978c-0.7987671,0.3973236-1.4664917,1.0158691-1.923584,1.7819977
				c-0.4584045,0.7763062-0.6947021,1.6636353-0.6831055,2.565094c-0.0144958,0.9080505,0.2200317,1.8027191,0.6781616,2.5868683
				c0.4540405,0.7622986,1.1194763,1.3764954,1.9156494,1.7681427c0.8662415,0.4229889,1.8199768,0.6359711,2.7838745,0.6217194
				c0.7666931,0.0032654,1.5292664-0.1112671,2.2611694-0.3395691c0.9396973-0.3257446,1.8479309-0.7359772,2.7135925-1.2256317
				v2.6155853c-0.8165588,0.4416656-1.6799011,0.7906647-2.5740051,1.0404816
				c-0.8965149,0.2196655-1.8174438,0.3234711-2.7403259,0.3088837c-1.4093933,0.0252075-2.8045349-0.2856598-4.0698853-0.9068451
				c-1.1712646-0.5803528-2.1497498-1.4869537-2.8175659-2.6106262c-0.6811218-1.1261444-1.0365295-2.4191742-1.0266113-3.73526
				c-0.019989-1.3749695,0.3466797-2.72789,1.0583191-3.9045563c0.6947021-1.1491547,1.7026367-2.0763855,2.9056396-2.6730042
				c1.2946472-0.6394043,2.7232056-0.9604797,4.1669312-0.9365387"/>
			<path id="パス_2344" class="st0" d="M377.5517578,133.2701569c1.3962097-0.0223846,2.7770691,0.293869,4.024353,0.9216919
				c3.5632935,1.8499146,4.95224,6.238205,3.1022949,9.8014832c-0.6848145,1.3191071-1.7575378,2.3966217-3.0735779,3.087326
				c-2.5641174,1.2745209-5.5783691,1.2690277-8.1378174-0.0148468c-2.3984375-1.2324219-3.8960876-3.7128143-3.8699036-6.409256
				c-0.0021362-1.3095703,0.3505859-2.5952606,1.0206909-3.7204285c0.6665039-1.1466675,1.6412964-2.083374,2.8135986-2.7036896
				C374.7027893,133.5721893,376.1194458,133.241333,377.5517578,133.2701569 M372.473053,140.6565552
				c-0.0130005,0.900116,0.2109985,1.787796,0.6494446,2.5740051c0.4202576,0.7505798,1.0469666,1.3648987,1.8057861,1.7701111
				c0.8071899,0.4283752,1.7098083,0.6450195,2.6234741,0.6296387c1.3514099,0.0487518,2.6651001-0.4511414,3.6422119-1.3859863
				c0.9576721-0.9421692,1.475647-2.2432098,1.4275513-3.5857849c0.0124512-0.9013062-0.2096558-1.7903748-0.6444702-2.5799408
				c-0.4194031-0.7557526-1.0495605-1.3731689-1.8136902-1.7770386c-1.6542053-0.8412476-3.6112061-0.8394012-5.2638245,0.0049438
				c-0.7607117,0.4011078-1.3863831,1.0174713-1.7987976,1.7720947c-0.4266968,0.7920532-0.6428528,1.6804047-0.6276855,2.5799408"
				/>
			<path id="パス_2345" class="st0" d="M401.0899658,133.4582672v2.1779938h-5.9954224v3.7194366h5.9954224v2.195816h-5.9954224
				v6.3043213h-2.7818909v-14.3975677H401.0899658z"/>
			<path id="パス_2346" class="st0" d="M417.0438538,133.4582672v2.1779938h-5.9954529v3.7194366h5.9954529v2.195816h-5.9954529
				v6.3043213H408.26651v-14.3975677H417.0438538z"/>
			<path id="パス_2347" class="st0" d="M433.5273438,133.4582672v2.1779938h-6.5211487v3.7808075h6.2439575v2.1779938h-6.2439575
				v4.0916748h6.6696472v2.1779938h-9.4475708v-14.4064636H433.5273438z"/>
			<path id="パス_2348" class="st0" d="M449.7930298,133.4582672v2.1779938h-6.5211182v3.7808075h6.243927v2.1779938h-6.243927
				v4.0916748h6.6666565v2.1779938h-9.4475708v-14.4064636H449.7930298z"/>
			<path id="パス_2349" class="st0" d="M564.5350342,78.8468857c1.7017822-0.0067444,3.3740845,0.4439011,4.8421021,1.3048172
				c1.4769287,0.8461227,2.7024536,2.0696182,3.5510864,3.5451889c2.6698608,4.6287155,1.0818481,10.5453644-3.546875,13.2152023
				c-1.4735718,0.8499756-3.1452637,1.2963867-4.8463745,1.2942429c-1.7092285,0.0096741-3.3901978-0.4362717-4.869812-1.291954
				c-4.6283569-2.6835861-6.204895-8.6110764-3.5213013-13.239418c1.7346802-2.991806,4.9327393-4.8319168,8.3911133-4.8280792
				 M564.5349731,80.4526672c-4.4708252-0.0186539-8.1102905,3.5905609-8.1289673,8.0614014
				c-0.0186157,4.4708328,3.5906372,8.1102676,8.0614624,8.1289139s8.1102905-3.5905685,8.1289062-8.0614014
				c0.0089722-2.1562042-0.8426514-4.2268906-2.3659668-5.7529144
				C568.7403564,81.2858276,566.6797485,80.426178,564.5349731,80.4526672 M562.3372192,93.7364807h-1.6830444V83.3167419h3.6105347
				c0.9121094-0.0469055,1.8256836,0.0557556,2.7046509,0.3039246c0.5172119,0.1940079,0.9597778,0.5467987,1.2642212,1.0078201
				c0.3068237,0.4409332,0.4725342,0.964653,0.4751587,1.5018311c0.0160522,0.7594147-0.2861938,1.4909363-0.8335571,2.0176163
				c-0.5801392,0.557663-1.3425903,0.886467-2.1463623,0.9256516c0.4240723,0.1835327,0.8033447,0.4567642,1.1117554,0.8009109
				c0.4905396,0.5714188,0.9307251,1.1842041,1.3157349,1.8314972l1.2602539,2.0304871h-2.0562744l-0.9127808-1.6334991
				c-0.4144897-0.827858-0.9419556-1.5941696-1.5671387-2.2770004c-0.4289551-0.3631287-0.9802246-0.5490112-1.5414429-0.5197525
				h-1.0018921L562.3372192,93.7364807z M562.3372192,84.7274857v3.1323624h2.0562134
				c0.6604614,0.0472107,1.3215332-0.0830078,1.9146729-0.3771896c0.4050903-0.2601471,0.6359253-0.7206421,0.6019287-1.2008667
				c0.046936-0.4803009-0.1775513-0.9467545-0.5821533-1.2097778c-0.6500244-0.2788773-1.3577271-0.397049-2.0631104-0.3445206
				L562.3372192,84.7274857z"/>
		</g>
	</g>
</g>
</svg>
