<svg xmlns="http://www.w3.org/2000/svg" width="363.427" height="744.608" viewBox="0 0 363.427 744.608">
  <g id="グループ_1248" data-name="グループ 1248" transform="translate(-13.71 -721.264)">
    <g id="グループ_1244" data-name="グループ 1244" transform="matrix(-0.438, -0.899, 0.899, -0.438, 52.573, 1478)">
      <g id="グループ_1232" data-name="グループ 1232" transform="translate(0 0)">
        <g id="グループ_1230" data-name="グループ 1230" transform="translate(36.939 0)">
          <path id="パス_556" data-name="パス 556" d="M.944,15.511a3.914,3.914,0,0,1-.7-1.412A11.269,11.269,0,0,1,0,11.132a5.118,5.118,0,0,1,.128-1.15,7.924,7.924,0,0,1,.34-1.116c.067-.175.139-.351.218-.53Q.834,8,1.01,7.664c.14-.274.294-.551.458-.832q.265-.453.566-.918c.074-.113.154-.227.238-.341l.072-.1q.1-.136.212-.272l.064-.079c.094-.114.192-.227.294-.341l.064-.07q.127-.139.261-.277l.093-.094c.1-.1.209-.209.318-.311l.024-.023c.117-.11.238-.219.359-.326l.1-.086c.1-.083.193-.166.291-.248l.1-.078c.125-.1.251-.2.378-.3l.094-.07q.127-.1.256-.189l.126-.09q.116-.082.232-.161l.13-.088c.081-.053.161-.1.241-.156l.114-.073q.174-.108.346-.208l0,0A16.114,16.114,0,0,1,10.948.058c.074-.012.144-.021.21-.027a4.628,4.628,0,0,1,2.066.2.753.753,0,0,1,.331,1.226l-.618.872c-.225.337-.638.828-.92,1.236-.73,1.053-1.354,1.783-2.037,2.677-.716.938-2.642,3.144-3.416,4.257-.348.5-.655.88-1.014,1.318a14.18,14.18,0,0,0-.977,1.313c-.148.23-.682,1-.817,1.233L2.588,16.2a.57.57,0,0,1-.829.12,5.862,5.862,0,0,1-.814-.805" transform="translate(0 0)" fill="#1a1311"/>
          <path id="パス_557" data-name="パス 557" d="M7.829,5.246c-.714,1-1.722,2.19-2.8,3.459-.6.711-1.232,1.413-1.578,1.84L1.406,13.2.129,14.93a.652.652,0,0,0,.265.99l.008,0a4.852,4.852,0,0,0,1.384.367,8.66,8.66,0,0,0,3.39-.68c.131-.048.265-.1.4-.152q.611-.241,1.28-.555.223-.1.452-.217a8.311,8.311,0,0,0,1.34-.849,12.618,12.618,0,0,0,3.971-5c.4-1.438,1.322-3.637,1.283-4.45a6.337,6.337,0,0,0-1.043-3.4,4.72,4.72,0,0,0-.341-.432,4.791,4.791,0,0,0-.39-.392L12.123.154a.6.6,0,0,0-.9.107L10.21,1.737Z" transform="translate(3.216 1.509)" fill="#1a1311"/>
        </g>
        <g id="グループ_1229" data-name="グループ 1229" transform="translate(0 25.2)">
          <path id="パス_558" data-name="パス 558" d="M13.341,15.287a3.926,3.926,0,0,1-1.517.428,11.292,11.292,0,0,1-2.961-.309,5.121,5.121,0,0,1-1.107-.339,7.766,7.766,0,0,1-1.033-.54c-.159-.1-.319-.2-.481-.312q-.3-.207-.6-.442c-.243-.188-.487-.391-.733-.6q-.4-.344-.8-.726c-.1-.093-.2-.193-.292-.3l-.081-.089q-.115-.125-.228-.259c-.022-.026-.045-.051-.066-.078-.094-.114-.188-.231-.281-.352l-.057-.077q-.113-.15-.224-.308l-.076-.108c-.084-.121-.166-.244-.248-.37l-.019-.028c-.086-.135-.171-.274-.254-.413l-.067-.114q-.1-.165-.189-.332l-.06-.107c-.077-.141-.152-.284-.224-.427-.018-.035-.035-.07-.052-.1-.047-.1-.093-.191-.139-.286l-.065-.141q-.059-.129-.115-.257l-.062-.144c-.038-.089-.074-.177-.109-.266-.017-.042-.034-.084-.05-.126-.049-.127-.1-.253-.141-.378l0,0A16.124,16.124,0,0,1,0,2.6Q0,2.49.013,2.39A4.636,4.636,0,0,1,.6.4.753.753,0,0,1,1.861.3l.743.768c.289.284.7.78,1.046,1.133.9.911,1.5,1.66,2.254,2.5.789.878,2.6,3.177,3.553,4.144.427.434.744.806,1.108,1.24a14.261,14.261,0,0,0,1.11,1.2c.2.188.861.856,1.061,1.031L14.319,13.8a.569.569,0,0,1-.035.836,5.868,5.868,0,0,1-.942.652" transform="translate(0 2.467)" fill="#1a1311"/>
          <path id="パス_559" data-name="パス 559" d="M4.448,6.211c.85.886,1.835,2.1,2.883,3.39.587.725,1.16,1.471,1.517,1.89l2.232,2.5,1.463,1.574a.652.652,0,0,0,1.021-.078l0-.006a4.842,4.842,0,0,0,.616-1.293,8.638,8.638,0,0,0-.042-3.457c-.023-.138-.049-.278-.076-.422-.082-.43-.185-.884-.308-1.36-.041-.158-.085-.32-.13-.483a8.307,8.307,0,0,0-.587-1.474A12.62,12.62,0,0,0,8.859,2.166C7.519,1.507,5.528.194,4.722.083a6.337,6.337,0,0,0-3.535.4A4.822,4.822,0,0,0,.7.735a5.088,5.088,0,0,0-.458.311l-.005,0a.6.6,0,0,0-.061.9L1.438,3.223Z" transform="translate(2.155 0)" fill="#1a1311"/>
        </g>
        <g id="グループ_1231" data-name="グループ 1231" transform="translate(109.096 33.145) rotate(-132)">
          <path id="パス_560" data-name="パス 560" d="M.07,9.589A3.924,3.924,0,0,1,.092,8.013a11.283,11.283,0,0,1,1.14-2.75A5.1,5.1,0,0,1,1.871,4.3a7.841,7.841,0,0,1,.813-.837c.139-.125.283-.249.435-.372q.283-.228.6-.451c.25-.179.514-.355.788-.53q.443-.282.923-.557c.117-.067.241-.132.367-.2L5.9,1.3c.1-.049.206-.1.313-.144l.093-.042C6.444,1.06,6.583,1,6.726.95L6.815.917q.177-.065.358-.126L7.3.749c.14-.045.282-.09.425-.132l.032-.01c.155-.045.311-.086.468-.126L8.352.449Q8.538.4,8.724.363L8.844.336C9,.3,9.16.272,9.317.243l.115-.02c.1-.018.209-.035.314-.051L9.9.15c.093-.013.187-.026.279-.037l.155-.019c.1-.011.191-.02.286-.029l.135-.012c.136-.011.271-.02.4-.027h.005a16.1,16.1,0,0,1,4.867.391c.071.023.137.047.2.072a4.629,4.629,0,0,1,1.744,1.126.753.753,0,0,1-.266,1.242l-.948.493c-.355.2-.946.445-1.384.679-1.13.6-2.019.966-3.036,1.449C11.275,5.984,8.555,7.067,7.357,7.7c-.537.285-.985.483-1.505.709a14.272,14.272,0,0,0-1.469.722c-.237.137-1.066.581-1.29.723L1.219,10.95a.569.569,0,0,1-.792-.272A5.858,5.858,0,0,1,.07,9.589" transform="translate(0 0)" fill="#1a1311"/>
          <path id="パス_561" data-name="パス 561" d="M11.642,2.954c-1.091.562-2.533,1.161-4.071,1.8-.862.356-1.741.693-2.244.916L2.293,7.094.367,8.048a.653.653,0,0,0-.217,1l.005.006a4.867,4.867,0,0,0,1.064.959,8.66,8.66,0,0,0,3.326.945c.139.017.28.033.425.048.435.043.9.074,1.392.092.165.006.331.01.5.013a8.289,8.289,0,0,0,1.579-.141,12.623,12.623,0,0,0,5.818-2.635c1.013-1.1,2.839-2.631,3.175-3.372a6.328,6.328,0,0,0,.627-3.5,4.619,4.619,0,0,0-.106-.541,4.835,4.835,0,0,0-.167-.527l0-.006a.6.6,0,0,0-.847-.315L15.364.921Z" transform="translate(1.414 3.465)" fill="#1a1311"/>
        </g>
      </g>
    </g>
    <g id="グループ_1243" data-name="グループ 1243" transform="translate(363.678 714.046) rotate(74)">
      <g id="グループ_1232-2" data-name="グループ 1232" transform="translate(0 0)">
        <g id="グループ_1230-2" data-name="グループ 1230" transform="translate(0 26.184)">
          <path id="パス_556-2" data-name="パス 556" d="M.944,15.511a3.914,3.914,0,0,1-.7-1.412A11.269,11.269,0,0,1,0,11.132a5.118,5.118,0,0,1,.128-1.15,7.924,7.924,0,0,1,.34-1.116c.067-.175.139-.351.218-.53Q.834,8,1.01,7.664c.14-.274.294-.551.458-.832q.265-.453.566-.918c.074-.113.154-.227.238-.341l.072-.1q.1-.136.212-.272l.064-.079c.094-.114.192-.227.294-.341l.064-.07q.127-.139.261-.277l.093-.094c.1-.1.209-.209.318-.311l.024-.023c.117-.11.238-.219.359-.326l.1-.086c.1-.083.193-.166.291-.248l.1-.078c.125-.1.251-.2.378-.3l.094-.07q.127-.1.256-.189l.126-.09q.116-.082.232-.161l.13-.088c.081-.053.161-.1.241-.156l.114-.073q.174-.108.346-.208l0,0A16.114,16.114,0,0,1,10.948.058c.074-.012.144-.021.21-.027a4.628,4.628,0,0,1,2.066.2.753.753,0,0,1,.331,1.226l-.618.872c-.225.337-.638.828-.92,1.236-.73,1.053-1.354,1.783-2.037,2.677-.716.938-2.642,3.144-3.416,4.257-.348.5-.655.88-1.014,1.318a14.18,14.18,0,0,0-.977,1.313c-.148.23-.682,1-.817,1.233L2.588,16.2a.57.57,0,0,1-.829.12,5.862,5.862,0,0,1-.814-.805" transform="translate(0 0)" fill="#1a1311"/>
          <path id="パス_557-2" data-name="パス 557" d="M7.829,5.246c-.714,1-1.722,2.19-2.8,3.459-.6.711-1.232,1.413-1.578,1.84L1.406,13.2.129,14.93a.652.652,0,0,0,.265.99l.008,0a4.852,4.852,0,0,0,1.384.367,8.66,8.66,0,0,0,3.39-.68c.131-.048.265-.1.4-.152q.611-.241,1.28-.555.223-.1.452-.217a8.311,8.311,0,0,0,1.34-.849,12.618,12.618,0,0,0,3.971-5c.4-1.438,1.322-3.637,1.283-4.45a6.337,6.337,0,0,0-1.043-3.4,4.72,4.72,0,0,0-.341-.432,4.791,4.791,0,0,0-.39-.392L12.123.154a.6.6,0,0,0-.9.107L10.21,1.737Z" transform="translate(3.216 1.509)" fill="#1a1311"/>
        </g>
        <g id="グループ_1229-2" data-name="グループ 1229" transform="translate(32.336 0)">
          <path id="パス_558-2" data-name="パス 558" d="M13.341,15.287a3.926,3.926,0,0,1-1.517.428,11.292,11.292,0,0,1-2.961-.309,5.121,5.121,0,0,1-1.107-.339,7.766,7.766,0,0,1-1.033-.54c-.159-.1-.319-.2-.481-.312q-.3-.207-.6-.442c-.243-.188-.487-.391-.733-.6q-.4-.344-.8-.726c-.1-.093-.2-.193-.292-.3l-.081-.089q-.115-.125-.228-.259c-.022-.026-.045-.051-.066-.078-.094-.114-.188-.231-.281-.352l-.057-.077q-.113-.15-.224-.308l-.076-.108c-.084-.121-.166-.244-.248-.37l-.019-.028c-.086-.135-.171-.274-.254-.413l-.067-.114q-.1-.165-.189-.332l-.06-.107c-.077-.141-.152-.284-.224-.427-.018-.035-.035-.07-.052-.1-.047-.1-.093-.191-.139-.286l-.065-.141q-.059-.129-.115-.257l-.062-.144c-.038-.089-.074-.177-.109-.266-.017-.042-.034-.084-.05-.126-.049-.127-.1-.253-.141-.378l0,0A16.124,16.124,0,0,1,0,2.6Q0,2.49.013,2.39A4.636,4.636,0,0,1,.6.4.753.753,0,0,1,1.861.3l.743.768c.289.284.7.78,1.046,1.133.9.911,1.5,1.66,2.254,2.5.789.878,2.6,3.177,3.553,4.144.427.434.744.806,1.108,1.24a14.261,14.261,0,0,0,1.11,1.2c.2.188.861.856,1.061,1.031L14.319,13.8a.569.569,0,0,1-.035.836,5.868,5.868,0,0,1-.942.652" transform="translate(0 2.467)" fill="#1a1311"/>
          <path id="パス_559-2" data-name="パス 559" d="M4.448,6.211c.85.886,1.835,2.1,2.883,3.39.587.725,1.16,1.471,1.517,1.89l2.232,2.5,1.463,1.574a.652.652,0,0,0,1.021-.078l0-.006a4.842,4.842,0,0,0,.616-1.293,8.638,8.638,0,0,0-.042-3.457c-.023-.138-.049-.278-.076-.422-.082-.43-.185-.884-.308-1.36-.041-.158-.085-.32-.13-.483a8.307,8.307,0,0,0-.587-1.474A12.62,12.62,0,0,0,8.859,2.166C7.519,1.507,5.528.194,4.722.083a6.337,6.337,0,0,0-3.535.4A4.822,4.822,0,0,0,.7.735a5.088,5.088,0,0,0-.458.311l-.005,0a.6.6,0,0,0-.061.9L1.438,3.223Z" transform="translate(2.155 0)" fill="#1a1311"/>
        </g>
        <g id="グループ_1231-2" data-name="グループ 1231" transform="translate(60.518 18.203)">
          <path id="パス_560-2" data-name="パス 560" d="M.07,9.589A3.924,3.924,0,0,1,.092,8.013a11.283,11.283,0,0,1,1.14-2.75A5.1,5.1,0,0,1,1.871,4.3a7.841,7.841,0,0,1,.813-.837c.139-.125.283-.249.435-.372q.283-.228.6-.451c.25-.179.514-.355.788-.53q.443-.282.923-.557c.117-.067.241-.132.367-.2L5.9,1.3c.1-.049.206-.1.313-.144l.093-.042C6.444,1.06,6.583,1,6.726.95L6.815.917q.177-.065.358-.126L7.3.749c.14-.045.282-.09.425-.132l.032-.01c.155-.045.311-.086.468-.126L8.352.449Q8.538.4,8.724.363L8.844.336C9,.3,9.16.272,9.317.243l.115-.02c.1-.018.209-.035.314-.051L9.9.15c.093-.013.187-.026.279-.037l.155-.019c.1-.011.191-.02.286-.029l.135-.012c.136-.011.271-.02.4-.027h.005a16.1,16.1,0,0,1,4.867.391c.071.023.137.047.2.072a4.629,4.629,0,0,1,1.744,1.126.753.753,0,0,1-.266,1.242l-.948.493c-.355.2-.946.445-1.384.679-1.13.6-2.019.966-3.036,1.449C11.275,5.984,8.555,7.067,7.357,7.7c-.537.285-.985.483-1.505.709a14.272,14.272,0,0,0-1.469.722c-.237.137-1.066.581-1.29.723L1.219,10.95a.569.569,0,0,1-.792-.272A5.858,5.858,0,0,1,.07,9.589" transform="translate(0 0)" fill="#1a1311"/>
          <path id="パス_561-2" data-name="パス 561" d="M11.642,2.954c-1.091.562-2.533,1.161-4.071,1.8-.862.356-1.741.693-2.244.916L2.293,7.094.367,8.048a.653.653,0,0,0-.217,1l.005.006a4.867,4.867,0,0,0,1.064.959,8.66,8.66,0,0,0,3.326.945c.139.017.28.033.425.048.435.043.9.074,1.392.092.165.006.331.01.5.013a8.289,8.289,0,0,0,1.579-.141,12.623,12.623,0,0,0,5.818-2.635c1.013-1.1,2.839-2.631,3.175-3.372a6.328,6.328,0,0,0,.627-3.5,4.619,4.619,0,0,0-.106-.541,4.835,4.835,0,0,0-.167-.527l0-.006a.6.6,0,0,0-.847-.315L15.364.921Z" transform="translate(1.414 3.465)" fill="#1a1311"/>
        </g>
      </g>
    </g>
  </g>
</svg>
