<svg xmlns="http://www.w3.org/2000/svg" width="311.881" height="141.529" viewBox="0 0 311.881 141.529">
  <path id="パス_593" data-name="パス 593" d="M-83.78-12.66c-1.38,0-3,0-4.36-.14a18.425,18.425,0,0,0,.24,2.14c.04.24.1.36.36.36,1.08-.1,2.56-.14,3.72-.14l8.42-.04a44.829,44.829,0,0,1-4.62,4.72A31.247,31.247,0,0,0-82.86-8a.6.6,0,0,0-.28-.14.422.422,0,0,0-.22.1c-.36.32-1.04.96-1.44,1.34A29.979,29.979,0,0,1-78.38-.48q.12.18.24.18a.533.533,0,0,0,.26-.1,14.7,14.7,0,0,0,1.3-1.18.481.481,0,0,0,.18-.32.452.452,0,0,0-.14-.3,21.313,21.313,0,0,0-1.76-2,71.5,71.5,0,0,0,5.38-5.36,5.948,5.948,0,0,1,.96-.76.5.5,0,0,0,.26-.42.849.849,0,0,0-.16-.44,9.225,9.225,0,0,0-1.44-1.6.493.493,0,0,0-.34-.16.6.6,0,0,0-.28.1,3.678,3.678,0,0,1-1.66.18Zm26.8,0c-1.38,0-3,0-4.36-.14a18.425,18.425,0,0,0,.24,2.14c.04.24.1.36.36.36,1.08-.1,2.56-.14,3.72-.14l8.42-.04a44.83,44.83,0,0,1-4.62,4.72A31.247,31.247,0,0,0-56.06-8a.6.6,0,0,0-.28-.14.422.422,0,0,0-.22.1c-.36.32-1.04.96-1.44,1.34A29.98,29.98,0,0,1-51.58-.48q.12.18.24.18a.533.533,0,0,0,.26-.1,14.7,14.7,0,0,0,1.3-1.18.481.481,0,0,0,.18-.32.452.452,0,0,0-.14-.3,21.312,21.312,0,0,0-1.76-2,71.5,71.5,0,0,0,5.38-5.36,5.949,5.949,0,0,1,.96-.76.5.5,0,0,0,.26-.42.849.849,0,0,0-.16-.44,9.224,9.224,0,0,0-1.44-1.6.493.493,0,0,0-.34-.16.6.6,0,0,0-.28.1,3.677,3.677,0,0,1-1.66.18ZM-28.16-5.2c1.02.02,2.06.02,3.06-.06.2,0,.26-.08.28-.32a13.479,13.479,0,0,0,.1-1.5c0-.18-.06-.26-.32-.22-.96.06-1.78.08-2.84.06.12-.8.32-2.16.44-2.86a19.719,19.719,0,0,0,2.66-.1c.24-.02.32-.08.32-.3a9.337,9.337,0,0,0,.04-1.5c0-.14-.06-.24-.2-.24a11.4,11.4,0,0,1-2.46.12c.1-.74.22-1.42.32-1.88a1.961,1.961,0,0,1,.36-.86.585.585,0,0,0,.16-.38c0-.18-.16-.36-.44-.46a11.889,11.889,0,0,0-2.4-.56,9.406,9.406,0,0,1,.02,1.68c-.04.6-.1,1.14-.26,2.3a16.258,16.258,0,0,1-3.62-.76c0,.72.04,1.38.06,1.86,0,.18.08.28.32.34a13.986,13.986,0,0,0,2.88.56c-.08.82-.24,2.12-.34,2.86a12.506,12.506,0,0,1-3.24-.78,11.558,11.558,0,0,0,.04,1.86c.02.24.08.34.22.38a15.756,15.756,0,0,0,2.72.6c-.08.9-.14,1.46-.14,1.88,0,2.92,1.5,4.52,5.04,4.52,3.44,0,5.76-1.84,5.76-4.68a5.213,5.213,0,0,0-1.7-3.76.458.458,0,0,0-.42-.08,6.379,6.379,0,0,1-2.04.12c1.52,1.6,1.8,2.52,1.8,3.64,0,1.8-1.3,2.7-3.64,2.7-1.86,0-2.66-.72-2.66-2.56A12.321,12.321,0,0,1-28.16-5.2ZM-5-6.94A5.278,5.278,0,0,0-6.06-4.08c0,2.6,2.3,4.04,6.78,4.04A30.159,30.159,0,0,0,6.68-.52c.24-.04.36-.12.34-.3A16.723,16.723,0,0,0,6.7-2.78c-.04-.18-.14-.24-.42-.18a25.444,25.444,0,0,1-5.42.58c-3.44,0-4.74-.62-4.74-1.88a3.287,3.287,0,0,1,.52-1.52c.1-.16.08-.26-.1-.36C-3.98-6.42-4.48-6.68-5-6.94Zm.44-7.56c-.04.72-.08,1.3-.08,1.78,0,.24.08.32.26.36a24.963,24.963,0,0,0,3.5.34,13.752,13.752,0,0,0,1.64-.06c-.7.42-1.58.98-2.62,1.66a4.779,4.779,0,0,1,1.4.64.84.84,0,0,0,.42.12.852.852,0,0,0,.5-.18,11.652,11.652,0,0,1,4.9-1.98c.24-.02.34-.14.34-.42a13.169,13.169,0,0,0-.1-1.7c-.02-.16-.1-.24-.3-.22-1.28.08-2.78.18-4.24.18A25.231,25.231,0,0,1-4.56-14.5Zm27.6-1.18a8.949,8.949,0,0,1,.52,2.32A30.353,30.353,0,0,0,24.6-8.48C22.26-7,20.8-5.54,20.8-3.32c0,2.6,2,3.84,5.78,3.84a42.739,42.739,0,0,0,5.96-.3c.24-.02.38-.12.36-.34a17.661,17.661,0,0,0-.2-1.86c-.04-.24-.14-.28-.36-.24a35.571,35.571,0,0,1-5.96.46c-2.5,0-3.32-.52-3.32-1.68,0-.94.62-1.88,2.36-3.02a27.832,27.832,0,0,1,4.7-2.34,9.6,9.6,0,0,1,1.92-.6c.28-.04.4-.2.4-.4a.81.81,0,0,0-.14-.42,10.27,10.27,0,0,0-1.46-1.88,4.947,4.947,0,0,1-1.38,1.08c-1.12.6-1.84.98-2.84,1.52a28.121,28.121,0,0,1-.64-3.44c-.04-.46-.1-.94-.1-1.34,0-.28.14-.56.14-.84,0-.16-.12-.26-.36-.32A11.575,11.575,0,0,0,23.04-15.68Zm8.1,1.22a9.924,9.924,0,0,1,2.02,2.32.209.209,0,0,0,.34.06l.84-.62a.2.2,0,0,0,.06-.32,9.205,9.205,0,0,0-1.9-2.14c-.12-.1-.2-.12-.3-.04Zm1.84-1.32a9.461,9.461,0,0,1,2,2.3.205.205,0,0,0,.34.06l.8-.62a.231.231,0,0,0,.06-.36,8.352,8.352,0,0,0-1.9-2.06c-.12-.1-.18-.12-.3-.04ZM51.44-5.2c1.02.02,2.06.02,3.06-.06.2,0,.26-.08.28-.32a13.48,13.48,0,0,0,.1-1.5c0-.18-.06-.26-.32-.22-.96.06-1.78.08-2.84.06.12-.8.32-2.16.44-2.86a19.719,19.719,0,0,0,2.66-.1c.24-.02.32-.08.32-.3a9.337,9.337,0,0,0,.04-1.5c0-.14-.06-.24-.2-.24a11.4,11.4,0,0,1-2.46.12c.1-.74.22-1.42.32-1.88a1.961,1.961,0,0,1,.36-.86.585.585,0,0,0,.16-.38c0-.18-.16-.36-.44-.46a11.889,11.889,0,0,0-2.4-.56,9.406,9.406,0,0,1,.02,1.68c-.04.6-.1,1.14-.26,2.3a16.258,16.258,0,0,1-3.62-.76c0,.72.04,1.38.06,1.86,0,.18.08.28.32.34a13.986,13.986,0,0,0,2.88.56c-.08.82-.24,2.12-.34,2.86a12.506,12.506,0,0,1-3.24-.78,11.558,11.558,0,0,0,.04,1.86c.02.24.08.34.22.38a15.756,15.756,0,0,0,2.72.6c-.08.9-.14,1.46-.14,1.88,0,2.92,1.5,4.52,5.04,4.52,3.44,0,5.76-1.84,5.76-4.68a5.213,5.213,0,0,0-1.7-3.76.458.458,0,0,0-.42-.08,6.379,6.379,0,0,1-2.04.12c1.52,1.6,1.8,2.52,1.8,3.64,0,1.8-1.3,2.7-3.64,2.7-1.86,0-2.66-.72-2.66-2.56A12.322,12.322,0,0,1,51.44-5.2Zm26.8,0c1.02.02,2.06.02,3.06-.06.2,0,.26-.08.28-.32a13.48,13.48,0,0,0,.1-1.5c0-.18-.06-.26-.32-.22-.96.06-1.78.08-2.84.06.12-.8.32-2.16.44-2.86a19.719,19.719,0,0,0,2.66-.1c.24-.02.32-.08.32-.3a9.337,9.337,0,0,0,.04-1.5c0-.14-.06-.24-.2-.24a11.4,11.4,0,0,1-2.46.12c.1-.74.22-1.42.32-1.88a1.961,1.961,0,0,1,.36-.86.585.585,0,0,0,.16-.38c0-.18-.16-.36-.44-.46a11.889,11.889,0,0,0-2.4-.56,9.406,9.406,0,0,1,.02,1.68c-.04.6-.1,1.14-.26,2.3a16.258,16.258,0,0,1-3.62-.76c0,.72.04,1.38.06,1.86,0,.18.08.28.32.34a13.986,13.986,0,0,0,2.88.56c-.08.82-.24,2.12-.34,2.86a12.506,12.506,0,0,1-3.24-.78,11.559,11.559,0,0,0,.04,1.86c.02.24.08.34.22.38a15.756,15.756,0,0,0,2.72.6c-.08.9-.14,1.46-.14,1.88,0,2.92,1.5,4.52,5.04,4.52,3.44,0,5.76-1.84,5.76-4.68a5.213,5.213,0,0,0-1.7-3.76.458.458,0,0,0-.42-.08,6.379,6.379,0,0,1-2.04.12c1.52,1.6,1.8,2.52,1.8,3.64,0,1.8-1.3,2.7-3.64,2.7-1.86,0-2.66-.72-2.66-2.56A12.321,12.321,0,0,1,78.24-5.2ZM-43.78,34.72c-1.46.84-2.4,1.38-3.26,1.86a7.385,7.385,0,0,1-1.84.7c.3.66.7,1.5.92,1.86a.561.561,0,0,0,.44.32.5.5,0,0,0,.34-.14,3.625,3.625,0,0,1,.64-.44,12.3,12.3,0,0,1,2.84,2.56c.18.26.26.42.48.4a8.129,8.129,0,0,0,1.48-.24c.34-.08.3-.38.3-.66,0-.46-.1-1.72-.16-2.6-.04-.88-.06-1.56-.08-2.4a9.891,9.891,0,0,1,4.58-1.36c1.4,0,2.2.72,2.2,2.02a1.985,1.985,0,0,1-2.16,2.06,7.46,7.46,0,0,1-2.5-.36,3.5,3.5,0,0,1,.6,1.7.536.536,0,0,0,.44.6,7.751,7.751,0,0,0,1.64.18c2.7,0,4.34-1.5,4.34-4.06a3.958,3.958,0,0,0-4.26-4,12.623,12.623,0,0,0-4.92,1.1c.02-.96.02-1.94.04-2.9a20.385,20.385,0,0,0,2.86-.76c.2-.06.26-.12.26-.32a10.052,10.052,0,0,0-.12-1.56c-.02-.2-.16-.24-.34-.18a19.612,19.612,0,0,1-2.56.74c.02-.64.04-1.14.1-1.66a2.448,2.448,0,0,1,.28-.78.709.709,0,0,0,.12-.32c0-.18-.16-.32-.4-.38a11.335,11.335,0,0,0-2.38-.36,7.394,7.394,0,0,1,.14,1.62c0,.86-.02,1.62-.02,2.28-.84.08-1.7.16-2.54.16a10.217,10.217,0,0,1-1.56-.1c.08.7.16,1.36.22,1.74.04.3.14.42.48.42,1.34,0,2.36-.08,3.36-.16Zm.1,2.1c.04.66.08,1.58.12,2.1.02.18-.04.2-.2.16a20.511,20.511,0,0,1-1.88-.9C-44.92,37.66-44.24,37.2-43.68,36.82ZM-37,29.24a9.232,9.232,0,0,1,4.06,2.46c.06.1.34.08.4,0,.3-.4.82-1.02,1.08-1.42a.519.519,0,0,0,.08-.2c0-.06-.04-.12-.12-.2a9.507,9.507,0,0,0-4.24-2.44c-.14-.04-.2.02-.34.24A12.27,12.27,0,0,0-37,29.24Zm15.94-2.14a10.721,10.721,0,0,1,.24,2.62,36.259,36.259,0,0,0,.48,5.82c.54,3.38,2.18,5.22,3.74,5.22,1.4,0,2.64-1.08,3.4-3.12a.612.612,0,0,0-.14-.74,7.645,7.645,0,0,1-1.28-1.54c-.78,2.08-1.28,2.78-1.92,2.78-.84,0-1.36-1.36-1.64-2.94a25.188,25.188,0,0,1-.36-4.56,8.986,8.986,0,0,1,.18-1.96,1.742,1.742,0,0,0,.16-.56c0-.14-.14-.28-.32-.36A8.657,8.657,0,0,0-21.06,27.1Zm10.24,2.84a13.476,13.476,0,0,1,3.74,6.98c.04.24.18.3.42.22a6.787,6.787,0,0,0,1.56-.8c.16-.1.28-.18.22-.44A13.225,13.225,0,0,0-8.8,29.06a.308.308,0,0,0-.22-.12.593.593,0,0,0-.22.08C-9.56,29.18-10.06,29.46-10.82,29.94ZM8.74,25.22a13.3,13.3,0,0,1,.2,3.66c-.1,2.4-.28,5.28-.28,8.64,0,3.06,1.2,4.08,3.76,4.08a11.426,11.426,0,0,0,7.58-3c.32-.28.4-.44.4-.62a1.315,1.315,0,0,0-.16-.48,6.953,6.953,0,0,1-.46-1.9c-2.44,2.6-5.22,3.68-7,3.68-1.6,0-1.84-.46-1.84-2.48,0-2.62.1-4.66.3-7.74a11.988,11.988,0,0,1,.28-2.44,1.94,1.94,0,0,0,.2-.66c0-.2-.14-.3-.48-.38A20.685,20.685,0,0,0,8.74,25.22Zm23.8,1.88a10.721,10.721,0,0,1,.24,2.62,36.259,36.259,0,0,0,.48,5.82c.54,3.38,2.18,5.22,3.74,5.22,1.4,0,2.64-1.08,3.4-3.12a.612.612,0,0,0-.14-.74,7.645,7.645,0,0,1-1.28-1.54c-.78,2.08-1.28,2.78-1.92,2.78-.84,0-1.36-1.36-1.64-2.94a25.188,25.188,0,0,1-.36-4.56,8.986,8.986,0,0,1,.18-1.96,1.742,1.742,0,0,0,.16-.56c0-.14-.14-.28-.32-.36A8.657,8.657,0,0,0,32.54,27.1Zm10.24,2.84a13.476,13.476,0,0,1,3.74,6.98c.04.24.18.3.42.22a6.787,6.787,0,0,0,1.56-.8c.16-.1.28-.18.22-.44a13.225,13.225,0,0,0-3.92-6.84.308.308,0,0,0-.22-.12.593.593,0,0,0-.22.08C44.04,29.18,43.54,29.46,42.78,29.94ZM-150.94,70.36c-1.16,0-2.06,0-3.32-.08.04.74.08,1.46.16,1.94.02.24.1.36.3.34.94-.06,1.9-.1,2.88-.1h1.8a11.653,11.653,0,0,1-1.44,4.32,11.134,11.134,0,0,1-4.7,4.08,5.1,5.1,0,0,1,1.68,1.16.513.513,0,0,0,.38.2.911.911,0,0,0,.46-.16,12.892,12.892,0,0,0,4.24-4.12,14.88,14.88,0,0,0,1.78-5.54h4.04a28.014,28.014,0,0,1-.6,6c-.24.9-.5,1.22-1.04,1.4a8.164,8.164,0,0,1-2.72.18,4.185,4.185,0,0,1,1.16,1.82.486.486,0,0,0,.48.4,8.454,8.454,0,0,0,2.02-.22c1.28-.32,1.96-1.16,2.36-2.7a34.092,34.092,0,0,0,.74-6.58c.04-1.06.08-1.86.08-2.12,0-.22-.1-.28-.42-.28-.92,0-1.86.04-2.78.04h-3.04c.1-.98.12-1.46.18-2.1a1.863,1.863,0,0,1,.26-.94.9.9,0,0,0,.1-.38.413.413,0,0,0-.34-.42,15.662,15.662,0,0,0-2.6-.42,7.689,7.689,0,0,1,.14,1.58c-.02,1.08-.06,1.72-.14,2.7Zm34.64,0a16.834,16.834,0,0,1-3.38,5.7,19.329,19.329,0,0,1-6.54,5,5.947,5.947,0,0,1,1.86,1.1.7.7,0,0,0,.5.22.968.968,0,0,0,.54-.18,22.427,22.427,0,0,0,5.68-4.76,23.553,23.553,0,0,0,3.88-6.5,2.407,2.407,0,0,1,.46-.78.682.682,0,0,0,.28-.5.5.5,0,0,0-.14-.34A6.154,6.154,0,0,0-114.62,68a.978.978,0,0,0-.38-.1.564.564,0,0,0-.3.08,1.913,1.913,0,0,1-1.1.2h-7.14a35,35,0,0,1-3.84-.14c.04.58.12,1.62.18,2.02.04.28.12.42.38.4.86-.04,2-.1,3.3-.1Zm23.2,4.14H-92c.82,0,1.82.04,2.6.04.3.02.38-.06.4-.38.02-.4.02-.84,0-1.24-.02-.24-.08-.36-.32-.34-.88,0-1.8.04-2.7.04h-4.44c-.86,0-1.92,0-2.78-.08.04.72.06,1.26.12,1.6.04.3.14.42.32.4.92-.02,1.64-.02,2.46-.02h1.1v5.06h-2c-1.28,0-2.26,0-3.42-.08a9.2,9.2,0,0,0,.1,1.62c.04.3.14.42.38.42.84-.04,1.74-.08,2.94-.08h6.28c.92,0,2.1.04,3.14.04.24.02.32-.1.34-.36.02-.42.02-.86,0-1.28-.02-.26-.1-.38-.28-.38-1.08.06-2.2.08-3.22.08H-93.1Zm28.08-2.86a31.66,31.66,0,0,0,2.34-2.52,6.589,6.589,0,0,1,1.2-1.1.572.572,0,0,0,.28-.44.354.354,0,0,0-.16-.3,17.792,17.792,0,0,0-2.22-1.4,5.8,5.8,0,0,1-1.26,2.06,32.449,32.449,0,0,1-4.26,4.18,32.1,32.1,0,0,1-6.3,4.1,7.486,7.486,0,0,1,1.72,1.18.557.557,0,0,0,.42.2.564.564,0,0,0,.3-.08,34.6,34.6,0,0,0,5.5-3.84v4.66c0,1.36-.06,2.66-.08,4.1-.02.24.06.32.28.32a16.681,16.681,0,0,0,2,0c.22,0,.32-.08.3-.34-.04-1.6-.06-2.78-.06-4.16Zm17.2-2.1a21.171,21.171,0,0,1,4.08,3.26c.1.1.18.16.26.16s.14-.06.24-.16c.28-.3.94-1.1,1.24-1.5a.43.43,0,0,0,.12-.26c0-.08-.06-.16-.18-.28a20.855,20.855,0,0,0-3.82-2.84.533.533,0,0,0-.26-.1.375.375,0,0,0-.28.16C-46.8,68.38-47.38,69-47.82,69.54Zm.44,9.98a13.857,13.857,0,0,0,1.6,2.22.518.518,0,0,0,.34.22.553.553,0,0,0,.36-.2,6.9,6.9,0,0,1,1.34-.92,43,43,0,0,0,6.04-3.92,32.69,32.69,0,0,0,4.6-4.24c.22-.26.32-.42.32-.6a.978.978,0,0,0-.1-.38,8.927,8.927,0,0,1-.56-2.34,30.047,30.047,0,0,1-5.48,5.44,29.645,29.645,0,0,1-5.76,3.72A12.048,12.048,0,0,1-47.38,79.52Zm30.52-8.38a8.229,8.229,0,0,1,.22-2.48,1.528,1.528,0,0,0,.1-.42.384.384,0,0,0-.32-.38,20.348,20.348,0,0,0-2.6-.44,18.913,18.913,0,0,1,.22,3.48l-.04,7.52a3.945,3.945,0,0,1-.08,1.14.812.812,0,0,0-.1.34.49.49,0,0,0,.12.32,6.169,6.169,0,0,0,1.22,1.36.534.534,0,0,0,.34.16.58.58,0,0,0,.36-.16,4.613,4.613,0,0,1,1.12-.64,44.744,44.744,0,0,0,4.9-2.48,32.361,32.361,0,0,0,5-3.44.631.631,0,0,0,.2-.8,9,9,0,0,1-.32-2.32,24.715,24.715,0,0,1-5.3,4.08,32.886,32.886,0,0,1-5.1,2.52ZM10.02,68.1c-1.3,0-2.3,0-3.38-.08a11.652,11.652,0,0,0,.18,2.08c.04.22.1.36.26.34,1.08-.08,2.12-.12,3.16-.12l5.16-.02a24.532,24.532,0,0,1-3.76,5.02,24.294,24.294,0,0,1-7.04,5.1,5.479,5.479,0,0,1,1.68,1.3.447.447,0,0,0,.34.18,1.266,1.266,0,0,0,.46-.16,28.774,28.774,0,0,0,6.72-5.28A36.405,36.405,0,0,1,19,81.42a.411.411,0,0,0,.28.16.346.346,0,0,0,.24-.12,10.717,10.717,0,0,0,1.34-1.36.5.5,0,0,0,.14-.3.455.455,0,0,0-.16-.28,47.025,47.025,0,0,0-5.54-4.84,31.561,31.561,0,0,0,2.56-3.74,3.663,3.663,0,0,1,.74-.88.552.552,0,0,0,.26-.4.533.533,0,0,0-.1-.26,7.291,7.291,0,0,0-1.3-1.4.661.661,0,0,0-.34-.16.333.333,0,0,0-.22.08,2.937,2.937,0,0,1-1.38.18ZM43.8,77.66H36.94c-1.58,0-2.74-.04-3.68-.1a18.962,18.962,0,0,0,.1,2.08c.02.22.1.3.28.3.96-.02,2.02-.08,3.28-.08H43.8v.8c0,.3.06.32.38.34a12.921,12.921,0,0,0,1.76,0c.28-.02.36-.08.36-.28-.02-.56-.08-2.16-.08-3.62V72.32c0-1.06.04-2.1.04-3.16.02-.26-.08-.34-.4-.34-1.06.04-2.12.08-3.16.08H36.76a28.612,28.612,0,0,1-3.34-.14c0,.66.04,1.6.1,2.14,0,.24.08.34.3.34a27.526,27.526,0,0,1,3-.12H43.8Zm25.9-1.84c1.48,0,2.96.02,4.46.04.28.02.36-.06.36-.3a14.741,14.741,0,0,0,0-1.88c0-.24-.06-.3-.36-.28-1.54.02-3.08.06-4.6.06H63.12a25.7,25.7,0,0,1-4.32-.24,21.706,21.706,0,0,0,.3,2.42c.06.3.22.42.46.42a15.993,15.993,0,0,1,2.94-.24Zm19.48-3c-.98,0-2.46-.02-3.88-.14a8.842,8.842,0,0,0,.2,1.82c.06.32.12.48.38.46.98-.08,2.46-.08,3.18-.08h3.56a8.25,8.25,0,0,1-.88,3.32A8.86,8.86,0,0,1,88,81.9a8.241,8.241,0,0,1,2.12.76.759.759,0,0,0,.36.12.621.621,0,0,0,.34-.14A9.515,9.515,0,0,0,94,78.9a10.853,10.853,0,0,0,1-4.02h2.46c1.46,0,2.62.02,3.88.06.24,0,.24-.08.26-.36a14.221,14.221,0,0,0,0-1.6c-.02-.22-.02-.32-.22-.32-.9.04-2.6.14-3.86.14H95.04c0-.68,0-1.14.02-1.58a1.927,1.927,0,0,1,.14-.68,1,1,0,0,0,.12-.34.3.3,0,0,0-.26-.28,5.929,5.929,0,0,0-1.3-.26c1.18-.24,2.4-.54,3.62-.88.42-.1.84-.28,1.26-.34.32-.02.52-.06.52-.28a.778.778,0,0,0-.26-.56,9.723,9.723,0,0,0-1.64-1.4,5.731,5.731,0,0,1-1.72.9,24.855,24.855,0,0,1-3.3.86,37.8,37.8,0,0,1-5.94.74,5.425,5.425,0,0,1,1.02,1.38c.08.22.2.48.5.44a45.33,45.33,0,0,0,4.74-.64c.06.4.08.66.1.92.02.58.04,1.38.04,2.02Zm34.12,3c1.48,0,2.96.02,4.46.04.28.02.36-.06.36-.3a14.744,14.744,0,0,0,0-1.88c0-.24-.06-.3-.36-.28-1.54.02-3.08.06-4.6.06h-6.44a25.7,25.7,0,0,1-4.32-.24,21.707,21.707,0,0,0,.3,2.42c.06.3.22.42.46.42a15.993,15.993,0,0,1,2.94-.24Zm28.22-8.24a9.924,9.924,0,0,1,2.02,2.32.209.209,0,0,0,.34.06l.84-.62a.2.2,0,0,0,.06-.32,9.205,9.205,0,0,0-1.9-2.14c-.12-.1-.2-.12-.3-.04Zm1.84-1.32a9.461,9.461,0,0,1,2,2.3.205.205,0,0,0,.34.06l.8-.62a.231.231,0,0,0,.06-.36,8.352,8.352,0,0,0-1.9-2.06c-.12-.1-.18-.12-.3-.04Zm-9.84,4.56c-.78.12-1.52.22-2.36.3-.88.08-1.76.14-2.64.14a18.275,18.275,0,0,0,.62,2.06.438.438,0,0,0,.64.26,5.877,5.877,0,0,1,1.1-.32c.54-.1,1.18-.22,1.96-.34a42.173,42.173,0,0,1-3.66,7.84.372.372,0,0,0-.08.22.411.411,0,0,0,.16.3,9.094,9.094,0,0,0,1.38.88.328.328,0,0,0,.52-.18,55.235,55.235,0,0,0,4.02-9.4,13.248,13.248,0,0,1,1.68-.14c.88,0,1.14.44,1.14,1.84a15.446,15.446,0,0,1-.78,4.98c-.32.82-.62,1.06-1.28,1.06a5.322,5.322,0,0,1-2.3-.52,5.715,5.715,0,0,1,.38,1.86.534.534,0,0,0,.36.56,5.3,5.3,0,0,0,2.08.3,2.863,2.863,0,0,0,2.7-1.88,17.04,17.04,0,0,0,1.08-6.26c0-2.56-1-3.86-2.86-3.86a15.284,15.284,0,0,0-1.6.08c.26-.84.46-1.58.72-2.4a2.531,2.531,0,0,1,.4-.76.417.417,0,0,0,.14-.3.421.421,0,0,0-.32-.4,14.638,14.638,0,0,0-2.4-.66,13.614,13.614,0,0,1-.2,2.22C143.98,68.98,143.84,69.68,143.52,70.82Zm6.9-.16a13.539,13.539,0,0,1,3.28,5.18c.06.24.26.26.46.16a8.162,8.162,0,0,0,1.5-1,.286.286,0,0,0,.08-.4,13.385,13.385,0,0,0-3.32-4.86c-.14-.14-.24-.18-.38-.1A16.958,16.958,0,0,0,150.42,70.66Zm-216.2,40.38c-2.42,1.58-3.84,3.5-3.84,6.34,0,4.16,3.86,6.18,7.38,6.18.24,0,.32-.12.38-.42a7.114,7.114,0,0,0,.22-1.72c0-.22-.12-.3-.44-.3-3.48-.22-5.32-1.62-5.32-4.2,0-2.4,1.7-4.74,5.1-5.9a8.923,8.923,0,0,1,2.44-.44c.26,0,.38-.06.38-.3a11.426,11.426,0,0,0-.22-1.76c-.02-.14-.12-.26-.42-.22-5.16.68-9.56,1.34-12.02,1.7a27.589,27.589,0,0,1-3.18.34,13.937,13.937,0,0,0,.74,2.16.468.468,0,0,0,.38.3,1.168,1.168,0,0,0,.44-.16c.3-.1.5-.14,1.26-.32,2.14-.44,4.28-.86,6.72-1.32Zm2.9,2.86a9.924,9.924,0,0,1,2.02,2.32.209.209,0,0,0,.34.06l.84-.62a.2.2,0,0,0,.06-.32,9.205,9.205,0,0,0-1.9-2.14c-.12-.1-.2-.12-.3-.04Zm1.84-1.32a9.461,9.461,0,0,1,2,2.3.205.205,0,0,0,.34.06l.8-.62a.231.231,0,0,0,.06-.36,8.352,8.352,0,0,0-1.9-2.06c-.12-.1-.18-.12-.3-.04Zm19.26-2.86a35.265,35.265,0,0,1-4.98.32c.12.64.26,1.38.32,1.6.04.2.16.28.4.28a34.634,34.634,0,0,0,4.86-.48c.26.56.56,1.24.76,1.66a34.876,34.876,0,0,1-5.38.5,10.09,10.09,0,0,0,.36,1.64c.06.2.14.28.36.28a47.245,47.245,0,0,0,5.48-.6,23.258,23.258,0,0,0,1.66,2.36,9.262,9.262,0,0,0-3.44-.5c-3.12,0-4.96,1.34-4.96,3.48,0,2.46,2.44,3.76,7.04,3.76q.75,0,1.44-.06c.28-.02.36-.1.42-.3a13,13,0,0,0,.4-1.82c.02-.16-.04-.26-.24-.26-.72.04-1.46.12-2.2.12-3.06,0-4.76-.42-4.76-1.72,0-.94,1.1-1.52,2.98-1.52a9.737,9.737,0,0,1,3.76.64,5.036,5.036,0,0,1,1.18.64.532.532,0,0,0,.28.12c.12,0,.2-.06.32-.2a5.8,5.8,0,0,0,.82-1.24c.1-.22.1-.3-.1-.48a14.913,14.913,0,0,1-2.62-3.46,24.616,24.616,0,0,0,3.38-.98c.2-.08.2-.18.16-.36a7.584,7.584,0,0,0-.36-1.32c-.06-.18-.16-.22-.36-.12a23.488,23.488,0,0,1-3.64,1.04c-.26-.56-.52-1.18-.7-1.68,1.36-.3,2.58-.6,3.92-1.02a.306.306,0,0,0,.24-.36c-.08-.4-.22-.96-.34-1.34-.06-.16-.16-.18-.34-.1a31.193,31.193,0,0,1-4.08,1.06c-.12-.34-.18-.52-.32-1.04a3.55,3.55,0,0,1-.08-.6c0-.12.04-.26.04-.38,0-.2-.16-.36-.44-.36a14.143,14.143,0,0,0-2.42.22,5.073,5.073,0,0,1,.7,1.28C-42.06,108.92-41.94,109.26-41.78,109.72Zm27.56,8.88c-.94-.08-1.42-.08-1.92-.08-2.42,0-4,1.22-4,2.84,0,1.66,1.48,2.8,4.08,2.8,2.74,0,4.04-.88,4.06-3.04a15.869,15.869,0,0,1,3.98,2.28.307.307,0,0,0,.22.1.294.294,0,0,0,.26-.16,6.016,6.016,0,0,0,.88-1.48c.06-.24.06-.3-.14-.48a17.832,17.832,0,0,0-5.3-2.42c-.06-.92-.1-1.9-.14-2.82a36.226,36.226,0,0,0,3.92-.48c.22-.02.3-.08.3-.28,0-.6-.04-1.26-.06-1.64-.02-.18-.08-.22-.32-.16-1.44.22-2.4.42-3.92.52,0-.72-.02-1.46-.02-2.26a40.913,40.913,0,0,0,4.62-.52c.16-.02.22-.06.22-.32a10.686,10.686,0,0,0-.1-1.46c-.02-.24-.1-.3-.34-.24a33.654,33.654,0,0,1-4.38.6c.02-.6.02-.88.04-1.28a2.57,2.57,0,0,1,.3-.96.408.408,0,0,0-.22-.6,11.589,11.589,0,0,0-2.52-.36,5.753,5.753,0,0,1,.24,1.34c.02.68.04,1.2.04,1.94a45.727,45.727,0,0,1-5.24-.2c.04.82.08,1.3.14,1.8.02.2.12.28.34.28a32.914,32.914,0,0,0,4.78.1c.02.76.02,1.54.04,2.3a28.14,28.14,0,0,1-4.5-.16,11.936,11.936,0,0,0,.12,1.7c.02.26.1.34.32.34a35.413,35.413,0,0,0,4.12.08C-14.3,116.9-14.26,117.72-14.22,118.6Zm.04,1.9a1.919,1.919,0,0,1-.22,1.12,2.47,2.47,0,0,1-1.82.6c-1.38,0-1.98-.38-1.98-.9,0-.64.7-1.06,2.16-1.06A8.626,8.626,0,0,1-14.18,120.5ZM8.74,107.22a13.3,13.3,0,0,1,.2,3.66c-.1,2.4-.28,5.28-.28,8.64,0,3.06,1.2,4.08,3.76,4.08a11.426,11.426,0,0,0,7.58-3c.32-.28.4-.44.4-.62a1.315,1.315,0,0,0-.16-.48,6.953,6.953,0,0,1-.46-1.9c-2.44,2.6-5.22,3.68-7,3.68-1.6,0-1.84-.46-1.84-2.48,0-2.62.1-4.66.3-7.74a11.988,11.988,0,0,1,.28-2.44,1.94,1.94,0,0,0,.2-.66c0-.2-.14-.3-.48-.38A20.684,20.684,0,0,0,8.74,107.22Zm30.24,3.28c.14-.5.28-1.18.48-1.9a3.808,3.808,0,0,1,.42-.8.48.48,0,0,0,.1-.32.333.333,0,0,0-.22-.32,11.656,11.656,0,0,0-2.52-.56,13.761,13.761,0,0,1-.12,1.84c-.14.82-.3,1.7-.5,2.5a27.029,27.029,0,0,1-3.24.2,9.231,9.231,0,0,1-1.48-.06c.1.72.2,1.4.28,1.82.04.26.12.32.42.32.94,0,2.34-.1,3.5-.22a75.075,75.075,0,0,1-3.46,9.48.322.322,0,0,0,.16.4c.42.24,1.4.66,1.6.74.22.06.34.08.44-.2,1.28-3.32,2.3-6.38,3.66-10.82a31.937,31.937,0,0,0,3.48-.76c.26-.06.32-.12.3-.38-.02-.42-.08-1-.14-1.44-.02-.16-.1-.26-.32-.2C40.84,110.1,39.76,110.36,38.98,110.5Zm.36,9.18a3.9,3.9,0,0,0,.9,2.74c.9.94,2.26,1.3,4.88,1.3a23.766,23.766,0,0,0,2.72-.22c.32-.02.34-.08.32-.32a12.5,12.5,0,0,0-.16-1.74c-.02-.16-.08-.2-.24-.18a29.9,29.9,0,0,1-3.36.28c-1.92,0-2.9-.42-3.06-1.88-.02-.2-.1-.28-.3-.28A10.186,10.186,0,0,0,39.34,119.68Zm1.56-3.78a22.133,22.133,0,0,1,4.02-.46,13.375,13.375,0,0,1,2.48.24c.28.06.38-.02.38-.36a14.116,14.116,0,0,0-.02-1.6c0-.24-.06-.26-.34-.3a14.565,14.565,0,0,0-2.34-.2,20.888,20.888,0,0,0-3.9.46c-.3.06-.36.12-.36.4C40.82,114.48,40.86,115.2,40.9,115.9Zm19.8,3.32a2.88,2.88,0,1,0,2.9,2.88A2.885,2.885,0,0,0,60.7,119.22Zm0,1.22a1.66,1.66,0,1,1-1.66,1.66A1.631,1.631,0,0,1,60.7,120.44Z" transform="translate(155.26 16.549)"/>
</svg>
