<svg xmlns="http://www.w3.org/2000/svg" width="804.58" height="106.426" viewBox="0 0 804.58 106.426">
  <path id="パス_592" data-name="パス 592" d="M-240.415-22.155c-2.415,0-5.25,0-7.63-.245a32.239,32.239,0,0,0,.42,3.745c.07.42.175.63.63.63,1.89-.175,4.48-.245,6.51-.245l14.735-.07a78.45,78.45,0,0,1-8.085,8.26,54.681,54.681,0,0,0-4.97-3.92,1.053,1.053,0,0,0-.49-.245.738.738,0,0,0-.385.175c-.63.56-1.82,1.68-2.52,2.345A52.464,52.464,0,0,1-230.965-.84q.21.315.42.315A.933.933,0,0,0-230.09-.7a25.729,25.729,0,0,0,2.275-2.065.842.842,0,0,0,.315-.56.792.792,0,0,0-.245-.525,37.3,37.3,0,0,0-3.08-3.5,125.129,125.129,0,0,0,9.415-9.38,10.411,10.411,0,0,1,1.68-1.33.869.869,0,0,0,.455-.735,1.486,1.486,0,0,0-.28-.77,16.142,16.142,0,0,0-2.52-2.8.863.863,0,0,0-.595-.28,1.043,1.043,0,0,0-.49.175c-.455.21-.875.315-2.9.315Zm46.9,0c-2.415,0-5.25,0-7.63-.245a32.239,32.239,0,0,0,.42,3.745c.07.42.175.63.63.63,1.89-.175,4.48-.245,6.51-.245l14.735-.07a78.45,78.45,0,0,1-8.085,8.26A54.681,54.681,0,0,0-191.9-14a1.053,1.053,0,0,0-.49-.245.738.738,0,0,0-.385.175c-.63.56-1.82,1.68-2.52,2.345A52.464,52.464,0,0,1-184.065-.84q.21.315.42.315A.933.933,0,0,0-183.19-.7a25.729,25.729,0,0,0,2.275-2.065.842.842,0,0,0,.315-.56.792.792,0,0,0-.245-.525,37.3,37.3,0,0,0-3.08-3.5,125.131,125.131,0,0,0,9.415-9.38,10.41,10.41,0,0,1,1.68-1.33.869.869,0,0,0,.455-.735,1.486,1.486,0,0,0-.28-.77,16.143,16.143,0,0,0-2.52-2.8.863.863,0,0,0-.6-.28,1.043,1.043,0,0,0-.49.175c-.455.21-.875.315-2.9.315ZM-143.08-9.1c1.785.035,3.6.035,5.355-.105.35,0,.455-.14.49-.56a23.589,23.589,0,0,0,.175-2.625c0-.315-.105-.455-.56-.385-1.68.105-3.115.14-4.97.105.21-1.4.56-3.78.77-5a34.507,34.507,0,0,0,4.655-.175c.42-.035.56-.14.56-.525a16.34,16.34,0,0,0,.07-2.625c0-.245-.1-.42-.35-.42a19.951,19.951,0,0,1-4.305.21c.175-1.3.385-2.485.56-3.29A3.431,3.431,0,0,1-140-26a1.024,1.024,0,0,0,.28-.665c0-.315-.28-.63-.77-.805a20.805,20.805,0,0,0-4.2-.98,16.461,16.461,0,0,1,.035,2.94c-.07,1.05-.175,1.995-.455,4.025a28.451,28.451,0,0,1-6.335-1.33c0,1.26.07,2.415.105,3.255,0,.315.14.49.56.6a24.476,24.476,0,0,0,5.04.98c-.14,1.435-.42,3.71-.6,5.005a21.886,21.886,0,0,1-5.67-1.365,20.229,20.229,0,0,0,.07,3.255c.035.42.14.6.385.665a27.573,27.573,0,0,0,4.76,1.05c-.14,1.575-.245,2.555-.245,3.29,0,5.11,2.625,7.91,8.82,7.91,6.02,0,10.08-3.22,10.08-8.19a9.123,9.123,0,0,0-2.975-6.58.8.8,0,0,0-.735-.14,11.164,11.164,0,0,1-3.57.21c2.66,2.8,3.15,4.41,3.15,6.37,0,3.15-2.275,4.725-6.37,4.725-3.255,0-4.655-1.26-4.655-4.48A21.562,21.562,0,0,1-143.08-9.1Zm40.53-3.045a9.236,9.236,0,0,0-1.855,5.005c0,4.55,4.025,7.07,11.865,7.07A52.779,52.779,0,0,0-82.11-.91c.42-.07.63-.21.6-.525a29.266,29.266,0,0,0-.56-3.43c-.07-.315-.245-.42-.735-.315A44.528,44.528,0,0,1-92.3-4.165c-6.02,0-8.295-1.085-8.295-3.29a5.752,5.752,0,0,1,.91-2.66c.175-.28.14-.455-.175-.63C-100.765-11.235-101.64-11.69-102.55-12.145Zm.77-13.23c-.07,1.26-.14,2.275-.14,3.115,0,.42.14.56.455.63a43.685,43.685,0,0,0,6.125.595,24.067,24.067,0,0,0,2.87-.1c-1.225.735-2.765,1.715-4.585,2.9a8.363,8.363,0,0,1,2.45,1.12,1.47,1.47,0,0,0,.735.21A1.492,1.492,0,0,0-93-17.22a20.391,20.391,0,0,1,8.575-3.465c.42-.035.6-.245.6-.735A23.046,23.046,0,0,0-84-24.4c-.035-.28-.175-.42-.525-.385-2.24.14-4.865.315-7.42.315A44.154,44.154,0,0,1-101.78-25.375Zm48.3-2.065a15.661,15.661,0,0,1,.91,4.06,53.117,53.117,0,0,0,1.82,8.54c-4.1,2.59-6.65,5.145-6.65,9.03,0,4.55,3.5,6.72,10.115,6.72A74.793,74.793,0,0,0-36.855.385c.42-.035.665-.21.63-.595a30.905,30.905,0,0,0-.35-3.255c-.07-.42-.245-.49-.63-.42a62.249,62.249,0,0,1-10.43.805c-4.375,0-5.81-.91-5.81-2.94,0-1.645,1.085-3.29,4.13-5.285A48.705,48.705,0,0,1-41.09-15.4a16.8,16.8,0,0,1,3.36-1.05c.49-.07.7-.35.7-.7a1.417,1.417,0,0,0-.245-.735,17.972,17.972,0,0,0-2.555-3.29,8.657,8.657,0,0,1-2.415,1.89c-1.96,1.05-3.22,1.715-4.97,2.66a49.212,49.212,0,0,1-1.12-6.02c-.07-.805-.175-1.645-.175-2.345,0-.49.245-.98.245-1.47,0-.28-.21-.455-.63-.56A20.256,20.256,0,0,0-53.48-27.44ZM-39.3-25.305a17.367,17.367,0,0,1,3.535,4.06.366.366,0,0,0,.6.1l1.47-1.085a.353.353,0,0,0,.1-.56,16.109,16.109,0,0,0-3.325-3.745c-.21-.175-.35-.21-.525-.07Zm3.22-2.31a16.557,16.557,0,0,1,3.5,4.025.359.359,0,0,0,.6.1l1.4-1.085a.4.4,0,0,0,.1-.63,14.617,14.617,0,0,0-3.325-3.6c-.21-.175-.315-.21-.525-.07ZM-3.78-9.1c1.785.035,3.6.035,5.355-.105.35,0,.455-.14.49-.56A23.588,23.588,0,0,0,2.24-12.39c0-.315-.105-.455-.56-.385-1.68.105-3.115.14-4.97.105.21-1.4.56-3.78.77-5a34.507,34.507,0,0,0,4.655-.175c.42-.035.56-.14.56-.525A16.34,16.34,0,0,0,2.765-21c0-.245-.1-.42-.35-.42a19.951,19.951,0,0,1-4.305.21c.175-1.3.385-2.485.56-3.29A3.431,3.431,0,0,1-.7-26a1.024,1.024,0,0,0,.28-.665c0-.315-.28-.63-.77-.805a20.805,20.805,0,0,0-4.2-.98,16.46,16.46,0,0,1,.035,2.94c-.07,1.05-.175,1.995-.455,4.025a28.451,28.451,0,0,1-6.335-1.33c0,1.26.07,2.415.1,3.255,0,.315.14.49.56.6a24.476,24.476,0,0,0,5.04.98c-.14,1.435-.42,3.71-.6,5.005a21.886,21.886,0,0,1-5.67-1.365,20.228,20.228,0,0,0,.07,3.255c.035.42.14.6.385.665A27.573,27.573,0,0,0-7.49-9.38c-.14,1.575-.245,2.555-.245,3.29,0,5.11,2.625,7.91,8.82,7.91,6.02,0,10.08-3.22,10.08-8.19A9.123,9.123,0,0,0,8.19-12.95a.8.8,0,0,0-.735-.14,11.164,11.164,0,0,1-3.57.21c2.66,2.8,3.15,4.41,3.15,6.37,0,3.15-2.275,4.725-6.37,4.725-3.255,0-4.655-1.26-4.655-4.48A21.562,21.562,0,0,1-3.78-9.1Zm46.9,0c1.785.035,3.605.035,5.355-.105.35,0,.455-.14.49-.56a23.588,23.588,0,0,0,.175-2.625c0-.315-.105-.455-.56-.385-1.68.105-3.115.14-4.97.105.21-1.4.56-3.78.77-5a34.507,34.507,0,0,0,4.655-.175c.42-.035.56-.14.56-.525A16.34,16.34,0,0,0,49.665-21c0-.245-.1-.42-.35-.42a19.951,19.951,0,0,1-4.305.21c.175-1.3.385-2.485.56-3.29A3.431,3.431,0,0,1,46.2-26a1.024,1.024,0,0,0,.28-.665c0-.315-.28-.63-.77-.805a20.806,20.806,0,0,0-4.2-.98,16.46,16.46,0,0,1,.035,2.94c-.07,1.05-.175,1.995-.455,4.025a28.451,28.451,0,0,1-6.335-1.33c0,1.26.07,2.415.1,3.255,0,.315.14.49.56.6a24.476,24.476,0,0,0,5.04.98c-.14,1.435-.42,3.71-.6,5.005a21.886,21.886,0,0,1-5.67-1.365,20.228,20.228,0,0,0,.07,3.255c.035.42.14.6.385.665a27.573,27.573,0,0,0,4.76,1.05c-.14,1.575-.245,2.555-.245,3.29,0,5.11,2.625,7.91,8.82,7.91,6.02,0,10.08-3.22,10.08-8.19a9.123,9.123,0,0,0-2.975-6.58.8.8,0,0,0-.735-.14,11.164,11.164,0,0,1-3.57.21c2.66,2.8,3.15,4.41,3.15,6.37,0,3.15-2.275,4.725-6.37,4.725-3.255,0-4.655-1.26-4.655-4.48A21.563,21.563,0,0,1,43.12-9.1Zm43.715-1.89c-2.555,1.47-4.2,2.415-5.705,3.255A12.923,12.923,0,0,1,77.91-6.51c.525,1.155,1.225,2.625,1.61,3.255a.981.981,0,0,0,.77.56.878.878,0,0,0,.6-.245A6.343,6.343,0,0,1,82-3.71,21.52,21.52,0,0,1,86.975.77c.315.455.455.735.84.7a14.225,14.225,0,0,0,2.59-.42c.6-.14.525-.665.525-1.155,0-.805-.175-3.01-.28-4.55-.07-1.54-.105-2.73-.14-4.2,3.6-1.855,6.02-2.38,8.015-2.38,2.45,0,3.85,1.26,3.85,3.535a3.474,3.474,0,0,1-3.78,3.605,13.055,13.055,0,0,1-4.375-.63A6.116,6.116,0,0,1,95.27-1.75.939.939,0,0,0,96.04-.7a13.565,13.565,0,0,0,2.87.315c4.725,0,7.6-2.625,7.6-7.105,0-4.2-3.115-6.965-7.455-7a22.09,22.09,0,0,0-8.61,1.925c.035-1.68.035-3.4.07-5.075a35.674,35.674,0,0,0,5-1.33c.35-.105.455-.21.455-.56a17.591,17.591,0,0,0-.21-2.73c-.035-.35-.28-.42-.6-.315a34.321,34.321,0,0,1-4.48,1.3c.035-1.12.07-2,.175-2.905a4.284,4.284,0,0,1,.49-1.365,1.241,1.241,0,0,0,.21-.56c0-.315-.28-.56-.7-.665a19.836,19.836,0,0,0-4.165-.63,12.94,12.94,0,0,1,.245,2.835c0,1.505-.035,2.835-.035,3.99-1.47.14-2.975.28-4.445.28a17.881,17.881,0,0,1-2.73-.175c.14,1.225.28,2.38.385,3.045.07.525.245.735.84.735,2.345,0,4.13-.14,5.88-.28Zm.175,3.675c.07,1.155.14,2.765.21,3.675.035.315-.07.35-.35.28a35.893,35.893,0,0,1-3.29-1.575C84.84-5.845,86.03-6.65,87.01-7.315ZM98.7-20.58a16.157,16.157,0,0,1,7.105,4.305c.1.175.6.14.7,0,.525-.7,1.435-1.785,1.89-2.485a.909.909,0,0,0,.14-.35c0-.1-.07-.21-.21-.35a16.637,16.637,0,0,0-7.42-4.27c-.245-.07-.35.035-.6.42A21.472,21.472,0,0,0,98.7-20.58Zm27.895-3.745a18.761,18.761,0,0,1,.42,4.585,63.452,63.452,0,0,0,.84,10.185C128.8-3.64,131.67-.42,134.4-.42c2.45,0,4.62-1.89,5.95-5.46a1.072,1.072,0,0,0-.245-1.295,13.379,13.379,0,0,1-2.24-2.7c-1.365,3.64-2.24,4.865-3.36,4.865-1.47,0-2.38-2.38-2.87-5.145a44.079,44.079,0,0,1-.63-7.98,15.727,15.727,0,0,1,.315-3.43,3.048,3.048,0,0,0,.28-.98c0-.245-.245-.49-.56-.63A15.149,15.149,0,0,0,126.595-24.325Zm17.92,4.97A23.583,23.583,0,0,1,151.06-7.14c.07.42.315.525.735.385a11.878,11.878,0,0,0,2.73-1.4c.28-.175.49-.315.385-.77a23.143,23.143,0,0,0-6.86-11.97.538.538,0,0,0-.385-.21,1.038,1.038,0,0,0-.385.14C146.72-20.685,145.845-20.2,144.515-19.355Zm34.23-8.26a23.27,23.27,0,0,1,.35,6.4c-.175,4.2-.49,9.24-.49,15.12,0,5.355,2.1,7.14,6.58,7.14A20,20,0,0,0,198.45-4.2c.56-.49.7-.77.7-1.085a2.3,2.3,0,0,0-.28-.84,12.168,12.168,0,0,1-.805-3.325c-4.27,4.55-9.135,6.44-12.25,6.44-2.8,0-3.22-.8-3.22-4.34,0-4.585.175-8.155.525-13.545a20.979,20.979,0,0,1,.49-4.27,3.4,3.4,0,0,0,.35-1.155c0-.35-.245-.525-.84-.665A36.2,36.2,0,0,0,178.745-27.615Zm41.65,3.29a18.761,18.761,0,0,1,.42,4.585,63.453,63.453,0,0,0,.84,10.185C222.6-3.64,225.47-.42,228.2-.42c2.45,0,4.62-1.89,5.95-5.46a1.072,1.072,0,0,0-.245-1.295,13.379,13.379,0,0,1-2.24-2.7c-1.365,3.64-2.24,4.865-3.36,4.865-1.47,0-2.38-2.38-2.87-5.145a44.079,44.079,0,0,1-.63-7.98,15.727,15.727,0,0,1,.315-3.43,3.048,3.048,0,0,0,.28-.98c0-.245-.245-.49-.56-.63A15.149,15.149,0,0,0,220.4-24.325Zm17.92,4.97A23.583,23.583,0,0,1,244.86-7.14c.07.42.315.525.735.385a11.878,11.878,0,0,0,2.73-1.4c.28-.175.49-.315.385-.77a23.143,23.143,0,0,0-6.86-11.97.538.538,0,0,0-.385-.21,1.038,1.038,0,0,0-.385.14C240.52-20.685,239.645-20.2,238.315-19.355ZM-404.845,53.63c-2.03,0-3.605,0-5.81-.14.07,1.3.14,2.555.28,3.4.035.42.175.63.525.595,1.645-.1,3.325-.175,5.04-.175h3.15a20.394,20.394,0,0,1-2.52,7.56A19.485,19.485,0,0,1-412.4,72a8.927,8.927,0,0,1,2.94,2.03.9.9,0,0,0,.665.35,1.594,1.594,0,0,0,.8-.28,22.56,22.56,0,0,0,7.42-7.21c1.47-2.31,2.415-5.46,3.115-9.695h7.07a49.022,49.022,0,0,1-1.05,10.5c-.42,1.575-.875,2.135-1.82,2.45a14.286,14.286,0,0,1-4.76.315,7.325,7.325,0,0,1,2.03,3.185.851.851,0,0,0,.84.7,14.794,14.794,0,0,0,3.535-.385c2.24-.56,3.43-2.03,4.13-4.725a59.662,59.662,0,0,0,1.295-11.515c.07-1.855.14-3.255.14-3.71,0-.385-.175-.49-.735-.49-1.61,0-3.255.07-4.865.07h-5.32c.175-1.715.21-2.555.315-3.675a3.26,3.26,0,0,1,.455-1.645,1.57,1.57,0,0,0,.175-.665.723.723,0,0,0-.6-.735,27.409,27.409,0,0,0-4.55-.735,13.456,13.456,0,0,1,.245,2.765c-.035,1.89-.105,3.01-.245,4.725Zm60.62,0A29.46,29.46,0,0,1-350.14,63.6a33.826,33.826,0,0,1-11.445,8.75,10.407,10.407,0,0,1,3.255,1.925,1.228,1.228,0,0,0,.875.385,1.694,1.694,0,0,0,.945-.315,39.248,39.248,0,0,0,9.94-8.33,41.216,41.216,0,0,0,6.79-11.375,4.213,4.213,0,0,1,.8-1.365,1.194,1.194,0,0,0,.49-.875.878.878,0,0,0-.245-.6,10.771,10.771,0,0,0-2.555-2.31,1.711,1.711,0,0,0-.665-.175.988.988,0,0,0-.525.14,3.347,3.347,0,0,1-1.925.35h-12.5a61.245,61.245,0,0,1-6.72-.245c.07,1.015.21,2.835.315,3.535.07.49.21.735.665.7,1.505-.07,3.5-.175,5.775-.175Zm40.6,7.245h1.925c1.435,0,3.185.07,4.55.07.525.035.665-.1.7-.665.035-.7.035-1.47,0-2.17-.035-.42-.14-.63-.56-.6-1.54,0-3.15.07-4.725.07h-7.77c-1.505,0-3.36,0-4.865-.14.07,1.26.1,2.205.21,2.8.07.525.245.735.56.7,1.61-.035,2.87-.035,4.3-.035h1.925v8.855h-3.5c-2.24,0-3.955,0-5.985-.14a16.088,16.088,0,0,0,.175,2.835c.07.525.245.735.665.735,1.47-.07,3.045-.14,5.145-.14h10.99c1.61,0,3.675.07,5.495.07.42.035.56-.175.6-.63.035-.735.035-1.505,0-2.24-.035-.455-.175-.665-.49-.665-1.89.105-3.85.14-5.635.14h-3.71Zm49.14-5.005a55.4,55.4,0,0,0,4.1-4.41,11.531,11.531,0,0,1,2.1-1.925,1,1,0,0,0,.49-.77.619.619,0,0,0-.28-.525,31.138,31.138,0,0,0-3.885-2.45,10.145,10.145,0,0,1-2.205,3.6,56.786,56.786,0,0,1-7.455,7.315,56.185,56.185,0,0,1-11.025,7.175,13.1,13.1,0,0,1,3.01,2.065.975.975,0,0,0,.735.35.988.988,0,0,0,.525-.14,60.55,60.55,0,0,0,9.625-6.72V67.6c0,2.38-.105,4.655-.14,7.175-.035.42.105.56.49.56a29.193,29.193,0,0,0,3.5,0c.385,0,.56-.14.525-.6-.07-2.8-.1-4.865-.1-7.28Zm30.1-3.675a37.049,37.049,0,0,1,7.14,5.705c.175.175.315.28.455.28s.245-.1.42-.28c.49-.525,1.645-1.925,2.17-2.625a.753.753,0,0,0,.21-.455c0-.14-.105-.28-.315-.49a36.5,36.5,0,0,0-6.685-4.97.933.933,0,0,0-.455-.175.656.656,0,0,0-.49.28C-222.6,50.165-223.615,51.25-224.385,52.195Zm.77,17.465a24.251,24.251,0,0,0,2.8,3.885.907.907,0,0,0,.6.385.968.968,0,0,0,.63-.35,12.081,12.081,0,0,1,2.345-1.61,75.252,75.252,0,0,0,10.57-6.86,57.207,57.207,0,0,0,8.05-7.42c.385-.455.56-.735.56-1.05a1.712,1.712,0,0,0-.175-.665,15.623,15.623,0,0,1-.98-4.1,52.582,52.582,0,0,1-9.59,9.52,51.879,51.879,0,0,1-10.08,6.51A21.085,21.085,0,0,1-223.615,69.66ZM-170.205,55a14.4,14.4,0,0,1,.385-4.34,2.673,2.673,0,0,0,.175-.735.671.671,0,0,0-.56-.665,35.611,35.611,0,0,0-4.55-.77,33.1,33.1,0,0,1,.385,6.09l-.07,13.16a6.9,6.9,0,0,1-.14,2,1.42,1.42,0,0,0-.175.595.858.858,0,0,0,.21.56,10.8,10.8,0,0,0,2.135,2.38.934.934,0,0,0,.6.28,1.015,1.015,0,0,0,.63-.28,8.072,8.072,0,0,1,1.96-1.12,78.3,78.3,0,0,0,8.575-4.34,56.633,56.633,0,0,0,8.75-6.02,1.1,1.1,0,0,0,.35-1.4,15.748,15.748,0,0,1-.56-4.06,43.252,43.252,0,0,1-9.275,7.14,57.551,57.551,0,0,1-8.925,4.41Zm47.04-5.32c-2.275,0-4.025,0-5.915-.14a20.392,20.392,0,0,0,.315,3.64c.07.385.175.63.455.6,1.89-.14,3.71-.21,5.53-.21l9.03-.035a42.932,42.932,0,0,1-6.58,8.785,42.514,42.514,0,0,1-12.32,8.925,9.589,9.589,0,0,1,2.94,2.275.782.782,0,0,0,.6.315,2.216,2.216,0,0,0,.8-.28,50.354,50.354,0,0,0,11.76-9.24,63.709,63.709,0,0,1,9.1,8.68.719.719,0,0,0,.49.28.605.605,0,0,0,.42-.21,18.754,18.754,0,0,0,2.345-2.38.866.866,0,0,0,.245-.525.8.8,0,0,0-.28-.49,82.292,82.292,0,0,0-9.695-8.47,55.231,55.231,0,0,0,4.48-6.545,6.41,6.41,0,0,1,1.295-1.54.966.966,0,0,0,.455-.7.933.933,0,0,0-.175-.455,12.759,12.759,0,0,0-2.275-2.45,1.157,1.157,0,0,0-.595-.28.583.583,0,0,0-.385.14,5.14,5.14,0,0,1-2.415.315ZM-64.05,66.4h-12c-2.765,0-4.795-.07-6.44-.175a33.182,33.182,0,0,0,.175,3.64c.035.385.175.525.49.525,1.68-.035,3.535-.14,5.74-.14h12.04v1.4c0,.525.105.56.665.6a22.613,22.613,0,0,0,3.08,0c.49-.035.63-.14.63-.49-.035-.98-.14-3.78-.14-6.335V57.06c0-1.855.07-3.675.07-5.53.035-.455-.14-.595-.7-.595-1.855.07-3.71.14-5.53.14h-10.4a50.07,50.07,0,0,1-5.845-.245c0,1.155.07,2.8.175,3.745,0,.42.14.6.525.6a48.168,48.168,0,0,1,5.25-.21H-64.05Zm45.325-3.22c2.59,0,5.18.035,7.805.07.49.035.63-.1.63-.525a25.8,25.8,0,0,0,0-3.29c0-.42-.1-.525-.63-.49-2.695.035-5.39.1-8.05.1H-30.24a44.965,44.965,0,0,1-7.56-.42,37.987,37.987,0,0,0,.525,4.235c.1.525.385.735.805.735a27.988,27.988,0,0,1,5.145-.42Zm34.09-5.25c-1.715,0-4.305-.035-6.79-.245a15.474,15.474,0,0,0,.35,3.185c.1.56.21.84.665.805,1.715-.14,4.305-.14,5.565-.14h6.23a14.438,14.438,0,0,1-1.54,5.81A15.5,15.5,0,0,1,13.3,73.825a14.423,14.423,0,0,1,3.71,1.33,1.329,1.329,0,0,0,.63.21,1.086,1.086,0,0,0,.595-.245A16.651,16.651,0,0,0,23.8,68.575a18.993,18.993,0,0,0,1.75-7.035h4.305c2.555,0,4.585.035,6.79.1.42,0,.42-.14.455-.63a24.888,24.888,0,0,0,0-2.8c-.035-.385-.035-.56-.385-.56-1.575.07-4.55.245-6.755.245H25.62c0-1.19,0-2,.035-2.765a3.373,3.373,0,0,1,.245-1.19,1.742,1.742,0,0,0,.21-.6.519.519,0,0,0-.455-.49A10.375,10.375,0,0,0,23.38,52.4c2.065-.42,4.2-.945,6.335-1.54.735-.175,1.47-.49,2.2-.595.56-.035.91-.1.91-.49a1.361,1.361,0,0,0-.455-.98,17.016,17.016,0,0,0-2.87-2.45,10.029,10.029,0,0,1-3.01,1.575A43.5,43.5,0,0,1,20.72,49.43a66.142,66.142,0,0,1-10.4,1.295A9.493,9.493,0,0,1,12.11,53.14c.14.385.35.84.875.77a79.328,79.328,0,0,0,8.295-1.12c.1.7.14,1.155.175,1.61.035,1.015.07,2.415.07,3.535Zm59.71,5.25c2.59,0,5.18.035,7.805.07.49.035.63-.1.63-.525a25.8,25.8,0,0,0,0-3.29c0-.42-.1-.525-.63-.49-2.695.035-5.39.1-8.05.1H63.56a44.965,44.965,0,0,1-7.56-.42,37.987,37.987,0,0,0,.525,4.235c.1.525.385.735.805.735a27.988,27.988,0,0,1,5.145-.42Zm49.385-14.42a17.367,17.367,0,0,1,3.535,4.06.366.366,0,0,0,.6.105l1.47-1.085a.353.353,0,0,0,.105-.56,16.109,16.109,0,0,0-3.325-3.745c-.21-.175-.35-.21-.525-.07Zm3.22-2.31a16.557,16.557,0,0,1,3.5,4.025.359.359,0,0,0,.6.1l1.4-1.085a.4.4,0,0,0,.1-.63,14.616,14.616,0,0,0-3.325-3.605c-.21-.175-.315-.21-.525-.07Zm-17.22,7.98c-1.365.21-2.66.385-4.13.525-1.54.14-3.08.245-4.62.245a31.977,31.977,0,0,0,1.085,3.6.767.767,0,0,0,1.12.455,10.284,10.284,0,0,1,1.925-.56c.945-.175,2.065-.385,3.43-.6a73.8,73.8,0,0,1-6.4,13.72.652.652,0,0,0-.14.385.72.72,0,0,0,.28.525,15.916,15.916,0,0,0,2.415,1.54.574.574,0,0,0,.91-.315,96.66,96.66,0,0,0,7.035-16.45,23.184,23.184,0,0,1,2.94-.245c1.54,0,1.995.77,1.995,3.22a27.031,27.031,0,0,1-1.365,8.715c-.56,1.435-1.085,1.855-2.24,1.855a9.314,9.314,0,0,1-4.025-.91,10,10,0,0,1,.665,3.255.934.934,0,0,0,.63.98,9.275,9.275,0,0,0,3.64.525,5.01,5.01,0,0,0,4.725-3.29c1.19-2.52,1.89-7.175,1.89-10.955,0-4.48-1.75-6.755-5.005-6.755a26.744,26.744,0,0,0-2.8.14c.455-1.47.805-2.765,1.26-4.2a4.429,4.429,0,0,1,.7-1.33A.729.729,0,0,0,116.62,48a.737.737,0,0,0-.56-.7,25.617,25.617,0,0,0-4.2-1.155,23.824,23.824,0,0,1-.35,3.885C111.265,51.215,111.02,52.44,110.46,54.435Zm12.075-.28a23.692,23.692,0,0,1,5.74,9.065c.1.42.455.455.8.28a14.284,14.284,0,0,0,2.625-1.75.5.5,0,0,0,.14-.7,23.423,23.423,0,0,0-5.81-8.505c-.245-.245-.42-.315-.665-.175A29.679,29.679,0,0,0,122.535,54.155ZM165.76,53.07c-4.235,2.765-6.72,6.125-6.72,11.1,0,7.28,6.755,10.815,12.915,10.815.42,0,.56-.21.665-.735a12.45,12.45,0,0,0,.385-3.01c0-.385-.21-.525-.77-.525-6.09-.385-9.31-2.835-9.31-7.35,0-4.2,2.975-8.295,8.925-10.325a15.617,15.617,0,0,1,4.27-.77c.455,0,.665-.1.665-.525a20,20,0,0,0-.385-3.08c-.035-.245-.21-.455-.735-.385-9.03,1.19-16.73,2.345-21.035,2.975a48.283,48.283,0,0,1-5.565.6,24.389,24.389,0,0,0,1.295,3.78.818.818,0,0,0,.665.525,2.043,2.043,0,0,0,.77-.28c.525-.175.875-.245,2.205-.56,3.745-.77,7.49-1.505,11.76-2.31Zm5.075,5.005a17.366,17.366,0,0,1,3.535,4.06.366.366,0,0,0,.6.1l1.47-1.085a.353.353,0,0,0,.105-.56,16.109,16.109,0,0,0-3.325-3.745c-.21-.175-.35-.21-.525-.07Zm3.22-2.31a16.557,16.557,0,0,1,3.5,4.025.359.359,0,0,0,.6.1l1.4-1.085a.4.4,0,0,0,.1-.63,14.617,14.617,0,0,0-3.325-3.605c-.21-.175-.315-.21-.525-.07Zm33.705-5a61.713,61.713,0,0,1-8.715.56c.21,1.12.455,2.415.56,2.8.07.35.28.49.7.49a60.611,60.611,0,0,0,8.505-.84c.455.98.98,2.17,1.33,2.9a61.034,61.034,0,0,1-9.415.875,17.657,17.657,0,0,0,.63,2.87c.1.35.245.49.63.49a82.682,82.682,0,0,0,9.59-1.05,40.7,40.7,0,0,0,2.9,4.13,16.208,16.208,0,0,0-6.02-.875c-5.46,0-8.68,2.345-8.68,6.09,0,4.305,4.27,6.58,12.32,6.58q1.313,0,2.52-.105c.49-.035.63-.175.735-.525a22.753,22.753,0,0,0,.7-3.185c.035-.28-.07-.455-.42-.455-1.26.07-2.555.21-3.85.21-5.355,0-8.33-.735-8.33-3.01,0-1.645,1.925-2.66,5.215-2.66a17.04,17.04,0,0,1,6.58,1.12,8.812,8.812,0,0,1,2.065,1.12.93.93,0,0,0,.49.21c.21,0,.35-.1.56-.35a10.149,10.149,0,0,0,1.435-2.17c.175-.385.175-.525-.175-.84a26.1,26.1,0,0,1-4.585-6.055,43.077,43.077,0,0,0,5.915-1.715c.35-.14.35-.315.28-.63a13.271,13.271,0,0,0-.63-2.31c-.1-.315-.28-.385-.63-.21a41.1,41.1,0,0,1-6.37,1.82c-.455-.98-.91-2.065-1.225-2.94,2.38-.525,4.515-1.05,6.86-1.785a.535.535,0,0,0,.42-.63c-.14-.7-.385-1.68-.595-2.345-.105-.28-.28-.315-.6-.175a54.586,54.586,0,0,1-7.14,1.855c-.21-.6-.315-.91-.56-1.82a6.213,6.213,0,0,1-.14-1.05c0-.21.07-.455.07-.665,0-.35-.28-.63-.77-.63a24.75,24.75,0,0,0-4.235.385,8.877,8.877,0,0,1,1.225,2.24C207.27,49.36,207.48,49.955,207.76,50.76ZM255.99,66.3c-1.645-.14-2.485-.14-3.36-.14-4.235,0-7,2.135-7,4.97,0,2.905,2.59,4.9,7.14,4.9,4.8,0,7.07-1.54,7.105-5.32a27.772,27.772,0,0,1,6.965,3.99.537.537,0,0,0,.385.175.514.514,0,0,0,.455-.28A10.53,10.53,0,0,0,269.22,72c.1-.42.1-.525-.245-.84A31.206,31.206,0,0,0,259.7,66.93c-.1-1.61-.175-3.325-.245-4.935a63.392,63.392,0,0,0,6.86-.84c.385-.035.525-.14.525-.49,0-1.05-.07-2.205-.105-2.87-.035-.315-.14-.385-.56-.28-2.52.385-4.2.735-6.86.91,0-1.26-.035-2.555-.035-3.955a71.6,71.6,0,0,0,8.085-.91c.28-.035.385-.1.385-.56a18.7,18.7,0,0,0-.175-2.555c-.035-.42-.175-.525-.6-.42a58.9,58.9,0,0,1-7.665,1.05c.035-1.05.035-1.54.07-2.24a4.5,4.5,0,0,1,.525-1.68.713.713,0,0,0-.385-1.05,20.28,20.28,0,0,0-4.41-.63,10.068,10.068,0,0,1,.42,2.345c.035,1.19.07,2.1.07,3.4a80.02,80.02,0,0,1-9.17-.35c.07,1.435.14,2.275.245,3.15.035.35.21.49.6.49a57.6,57.6,0,0,0,8.365.175c.035,1.33.035,2.695.07,4.025a49.245,49.245,0,0,1-7.875-.28,20.888,20.888,0,0,0,.21,2.975c.035.455.175.595.56.595a61.973,61.973,0,0,0,7.21.14C255.85,63.325,255.92,64.76,255.99,66.3Zm.07,3.325a3.359,3.359,0,0,1-.385,1.96,4.323,4.323,0,0,1-3.185,1.05c-2.415,0-3.465-.665-3.465-1.575,0-1.12,1.225-1.855,3.78-1.855A15.1,15.1,0,0,1,256.06,69.625Zm40.11-23.24a23.27,23.27,0,0,1,.35,6.4c-.175,4.2-.49,9.24-.49,15.12,0,5.355,2.1,7.14,6.58,7.14a20,20,0,0,0,13.265-5.25c.56-.49.7-.77.7-1.085a2.3,2.3,0,0,0-.28-.84,12.167,12.167,0,0,1-.8-3.325c-4.27,4.55-9.135,6.44-12.25,6.44-2.8,0-3.22-.805-3.22-4.34,0-4.585.175-8.155.525-13.545a20.979,20.979,0,0,1,.49-4.27,3.4,3.4,0,0,0,.35-1.155c0-.35-.245-.525-.84-.665A36.2,36.2,0,0,0,296.17,46.385Zm52.92,5.74c.245-.875.49-2.065.84-3.325a6.665,6.665,0,0,1,.735-1.4.841.841,0,0,0,.175-.56.582.582,0,0,0-.385-.56,20.4,20.4,0,0,0-4.41-.98,24.08,24.08,0,0,1-.21,3.22c-.245,1.435-.525,2.975-.875,4.375a47.3,47.3,0,0,1-5.67.35,16.152,16.152,0,0,1-2.59-.105c.175,1.26.35,2.45.49,3.185.07.455.21.56.735.56,1.645,0,4.1-.175,6.125-.385a131.384,131.384,0,0,1-6.055,16.59.564.564,0,0,0,.28.7c.735.42,2.45,1.155,2.8,1.295.385.105.6.14.77-.35,2.24-5.81,4.025-11.165,6.4-18.935a55.892,55.892,0,0,0,6.09-1.33c.455-.105.56-.21.525-.665-.035-.735-.14-1.75-.245-2.52-.035-.28-.175-.455-.56-.35C352.345,51.425,350.455,51.88,349.09,52.125Zm.63,16.065c.07,2.03.455,3.675,1.575,4.795,1.575,1.645,3.955,2.275,8.54,2.275a41.59,41.59,0,0,0,4.76-.385c.56-.035.6-.14.56-.56a21.878,21.878,0,0,0-.28-3.045c-.035-.28-.14-.35-.42-.315a52.327,52.327,0,0,1-5.88.49c-3.36,0-5.075-.735-5.355-3.29-.035-.35-.175-.49-.525-.49A17.826,17.826,0,0,0,349.72,68.19Zm2.73-6.615a38.733,38.733,0,0,1,7.035-.805,23.405,23.405,0,0,1,4.34.42c.49.1.665-.035.665-.63a24.712,24.712,0,0,0-.035-2.8c0-.42-.105-.455-.6-.525a25.488,25.488,0,0,0-4.1-.35,36.554,36.554,0,0,0-6.825.805c-.525.1-.63.21-.63.7C352.31,59.09,352.38,60.35,352.45,61.575Zm34.65,5.81a5.04,5.04,0,1,0,5.075,5.04A5.049,5.049,0,0,0,387.1,67.385Zm0,2.135a2.905,2.905,0,1,1-2.9,2.905A2.855,2.855,0,0,1,387.1,69.52Z" transform="translate(412.405 28.961)"/>
</svg>
