<?xml version="1.0" encoding="utf-8"?>
<!-- Generator: Adobe Illustrator 24.2.0, SVG Export Plug-In . SVG Version: 6.00 Build 0)  -->
<svg version="1.1" id="レイヤー_1" xmlns="http://www.w3.org/2000/svg" xmlns:xlink="http://www.w3.org/1999/xlink" x="0px"
	 y="0px" viewBox="0 0 1044 410" style="enable-background:new 0 0 1044 410;" xml:space="preserve">
<style type="text/css">
	.st0{fill:#EBE2D9;}
	.st1{fill:#EAE7D3;}
	.st2{fill:#FAFAF8;}
</style>
<g id="グループ_1043" transform="translate(-155 -324.267)">
	<g id="グループ_682" transform="translate(1120.918 467.5) rotate(180)">
		<path id="パス_188" class="st0" d="M142.1,55.4c-3.9-16.3-18.3-40.6-34.7-47c-31-12.1-43-12.2-66.2-1.1
			C5,24.6-4.1,64.8-0.9,83.6s13.4,36,35.1,49c28.9,17.4,50.9,8.4,71.5-3C127.2,117.6,151.5,103.8,142.1,55.4z M82.1,84.5
			c-9.9,4.9-14.5,2.1-21.7-1.5c-4-4.6-9.1-14.2-3.7-22.1C64,49.9,66.6,49,77.8,51.1c9.1,1.7,12.9,1.3,16.4,12.4
			C96.5,72.6,91,80.1,82.1,84.5L82.1,84.5z"/>
	</g>
	<path id="パス_653" class="st1" d="M311,496.8c-4.1-17.6-19.7-43.7-37.4-50.6c-33.3-13-46.3-13.2-71.2-1.2
		c-39,18.6-48.8,61.9-45.3,82.2s14.5,38.8,37.7,52.7c31.1,18.7,54.8,9.1,77-3.3C295,563.8,316.7,520.9,311,496.8z M255.2,533.4
		c-10.7,5.3-20,5.9-35.9-12.5c-11.9-13.8-4.9-22.6,0.8-31.1c7.9-11.7,17.3-12.4,29.4-10.2c9.8,1.8,17.4,7.9,21.1,19.8
		C276.1,517.2,264.8,528.7,255.2,533.4L255.2,533.4z"/>
	<g id="グループ_1029" transform="translate(370 605.68)">
		<path id="パス_188-2" class="st2" d="M128.7,50.7C125.3,36.2,112.5,14.7,98,9C70.5-1.6,59.9-1.8,39.3,8C7.3,23.4-0.8,59,2,75.7
			s11.9,31.9,31.1,43.4c25.6,15.4,45.1,7.5,63.4-2.7C115.5,105.8,137.1,93.6,128.7,50.7z M75.6,76.5c-8.8,4.3-12.9,1.8-19.2-1.4
			c-3.6-4.1-8-12.6-3.3-19.6c6.5-9.6,8.8-10.5,18.7-8.6c8.1,1.5,11.5,1.2,14.5,11C88.3,65.9,83.5,72.6,75.6,76.5z"/>
	</g>
</g>
</svg>
