<?xml version="1.0" encoding="UTF-8"?>
<svg id="_レイヤー_1" data-name="レイヤー_1" xmlns="http://www.w3.org/2000/svg" width="92" height="92" version="1.1" viewBox="0 0 92 92">
  <!-- Generator: Adobe Illustrator 29.2.1, SVG Export Plug-In . SVG Version: 2.1.0 Build 116)  -->
  <defs>
    <style>
      .st0 {
        fill: #fff;
      }
    </style>
  </defs>
  <g id="onlinestore">
    <g id="_グループ_1672" data-name="グループ_1672">
      <path id="_パス_485" data-name="パス_485" d="M90.4585533,33.5950012c-.2059937-2.446991-.3680115-4.8850098-.4500122-7.322998-1.6889954-2.4320068-3.4200134-4.8320007-5.1579895-7.2420044-1.2160034-1.6940002-2.3999939-3.4150085-3.5119934-5.1849976-.0820007-.1350098-.1679993-.2709961-.25-.4070129-.25-.1740112-.5-.3420105-.7600098-.5159912-2.9849854-2.0310059-5.9609985-4.0650024-8.973999-6.0419922-3.0669861-2.0100098-6.2919922-3.7189941-9.4729919-5.5379944-.1789856-.0320129-.3590088-.0650024-.5379944-.0920105-2.5785217-.3087158-5.1721802-.4739685-7.7690125-.4949951-.0599976-.006012-.1199951-.006012-.1789856-.006012-3,0-5.9869995.2669983-8.9689941.506012-2.9159851.2219849-5.8359985.3909912-8.7460022.6000061-2.3720093.1679993-4.7669983.2879944-7.1340027.5379944l-.6459961.1140137c-1.0233765.5039062-2.0131226,1.0733948-2.9630127,1.7049866-5.7659912,3.8869934-10.2120056,7.8609924-13.8930054,13.8380127-2.1484985,3.6691589-3.8509216,7.5818787-5.0710144,11.6549988-.3893127,1.2240906-.6992798,2.4720154-.928009,3.7359924-2.1081238,4.0987549-3.6341858,8.4715576-4.5339966,12.9920044.2929993,1.5.6090088,3,.8909912,4.4949951.5490112,2.8999939,1.0700073,5.7999878,1.7369995,8.6749878.5866699,2.4920044,1.2036743,4.971344,1.8510132,7.4379883.8309937,1.0480042,1.651001,2.1059875,2.4490051,3.1759949,1.3410034,1.6000061,2.6119995,3.2409973,3.8760071,4.8999939,1.0840149,1.3274841,2.2574158,2.5794067,3.5119934,3.7470093,1.6069946,1.4330139,3.32901,2.7409973,5.0119934,4.0929871.1459961.0539856.2929993.1080017.4389954.1679993,1.7709961.6889954,3.5450134,1.3580017,5.3200073,2.0360107,3.6480103,1.3999939,7.2529907,2.8999939,10.9240112,4.2460022,1.5629883.5750122,3.1530151,1.0739746,4.7390137,1.5579834,3.072998-.0059814,6.1239929.1519775,9.1910095.2390137,1.493988.0430298,2.9809875.0540161,4.4670105.0430298.4639893-.0640259.927002-.1259766,1.3909912-.1849976,1.6109924-.2180176,3.2260132-.4299927,4.8349915-.6669922,2.2430115-1.3070068,4.4819946-2.6319885,6.7999878-3.7789917,2.8940125-1.4339905,5.9070129-2.6170044,8.848999-3.946991.0759888-.0369873.1570129-.0710144.2340088-.1080017,1.3999939-1.644989,2.8340149-3.2690125,4.348999-4.8160095,1.178009-1.2109985,2.3240051-2.42099,3.3999939-3.7080078,1.8323975-2.5032654,3.4628906-5.1482849,4.8760071-7.9100037.7475586-2.0144653,1.3517456-4.0792847,1.8080139-6.1789856.0650024-4.2070007-.006012-8.4249878-.1080017-12.6279907-.1070251-4.5860291-.5080261-9.1530457-.8950195-13.7250366Z"/>
      <path id="_パス_3585" data-name="パス_3585" class="st0" d="M20.6815376,40.41c-.9754181-1.0259439-1.5077953-2.3946081-1.4819984-3.8100001-.0252762-1.4168105.5102673-2.7862239,1.4899998-3.8099999.9263744-1.0301895,2.252697-1.6098633,3.6380005-1.5900002,1.3897495-.0180244,2.7182407.5709963,3.6380005,1.6129999.9745045,1.0232897,1.5103111,2.3870316,1.493,3.8000002.0194225,1.4116411-.5260105,2.7725232-1.5149994,3.78-.4517727.5015309-1.0036335.9028216-1.6200008,1.178-.6171551.2828852-1.2881012.4292176-1.967001.4290001-1.3966446.0231086-2.7356281-.5562069-3.6750011-1.59ZM20.906538,36.5999999c-.0181026.9638457.3406868,1.896699,1,2.5999999.6111393.7007153,1.4982605,1.0989702,2.4279995,1.0900002.9280014.0082303,1.812109-.394469,2.4150009-1.0999999.6534405-.7021585,1.0115299-1.6288977,1-2.5879998.0126057-.9574389-.3416119-1.8834143-.9899998-2.5880003-.6040955-.7084856-1.4920082-1.1115828-2.4230003-1.1000004-.9324245-.0135727-1.8236427.3835802-2.4370003,1.0860004-.65522.7053652-1.0112,1.6374397-.993,2.5999999ZM34.0615377,34.9499998v6.2250002c.0015364.2169173-.0850811.4251595-.2399998.577-.1487932.1602809-.3583126.2503344-.5769997.248-.2175598.0033408-.4267941-.0835386-.5780001-.24-.1569386-.1537691-.2437277-.3653164-.2399998-.585v-8.7299994c-.0344372-.2576256.0788212-.5127449.2930002-.6599998.1858835-.1423979.4210873-.2043505.6529999-.1719999.2120485.0299749.4021597.1465759.5249996.3219995l4.8439999,6.7049997v-6.1800001c-.0020809-.2149773.0847731-.421257.2399998-.5699997.1487427-.1552267.3550229-.2420816.5700002-.2399998.2172637-.0018082.4259176.0848303.5780001.2399998.1590352.1466627.2487378.3536682.2470002.5699997v8.715c.0038567.2211084-.0858459.4335625-.2469997.585-.1570859.1568883-.3710136.2434696-.5929999.24-.235446-.0026022-.4566507-.1132045-.5999999-.3-.0290165-.0264117-.0542536-.0566967-.0749998-.09l-4.8000011-6.6600002ZM44.7995384,42c-.2196836.0037277-.431231-.0830609-.585-.24-.156939-.153769-.2437277-.3653164-.24-.585v-8.8500002c-.0037277-.2196836.083061-.4312305.24-.585.153769-.1569386.3653164-.2437277.585-.2399998.2219861-.0034695.4359142.0831118.5929999.2399998.1611538.1514378.2508566.3638916.247.585v8.0100002h4.0670002c.2185133-.001038.4277213.0883641.5780001.247.1595132.1525738.248898.3642749.247.585.0018981.2207252-.0874867.4324262-.247.585-.150106.1590046-.3593366.2487783-.5780001.248h-4.9070001ZM52.5265384,32.3249998c-.0037279-.2196836.0830607-.4312305.2399998-.585.153769-.1569386.3653164-.2437277.585-.2399998.2219863-.0034695.435914.0831118.5929999.2399998.1611538.1514378.2508569.3638916.2470002.585v8.8500004c.0038567.2211085-.0858464.4335626-.2470002.585-.1570859.1568881-.3710136.2434694-.5929995.2399998-.2196836.0037277-.431231-.0830609-.585-.24-.156939-.1537691-.2437277-.3653164-.2399998-.585l-.0000005-8.8500002ZM58.6465378,34.9499998v6.2250002c.0015364.2169173-.0850811.4251595-.2399998.577-.1487932.1602809-.3583126.2503344-.5769997.248-.2175598.0033408-.4267941-.0835386-.5780001-.24-.1569386-.1537691-.2437277-.3653164-.2399998-.585v-8.7299994c-.0344372-.2576256.0788212-.5127449.2930002-.6599998.1858835-.1423979.4210873-.2043505.6529999-.1719999.2120485.0299749.4021597.1465759.5249996.3219995l4.8439999,6.7049997v-6.1800001c-.0020809-.2149773.084774-.421257.2399998-.5699997.1487427-.1552267.3550224-.2420807.5699997-.2399998.2172623-.0018082.4259167.0848303.5779991.2399998.1590347.1466627.2487373.3536682.2469997.5699997v8.715c.0038567.2211084-.0858459.4335625-.2469997.585-.1570854.1568884-.3710136.2434697-.5930004.24-.2354469-.0026021-.4566517-.1132044-.6000004-.3-.0290165-.0264116-.0542545-.0566966-.0750008-.09l-4.7999973-6.6600002ZM69.3875389,42c-.2207203.0045588-.4335117-.082295-.5880013-.24-.1569386-.1537691-.2437267-.3653164-.2399998-.585v-8.8500002c-.003727-.2196836.0830612-.4312305.2399998-.585.1537685-.1569386.3653164-.2437277.5849991-.2399998h4.8999996c.2172623-.0018082.4259167.0848303.5779991.2399998.1611538.1514378.2508564.3638916.2469997.585.0028801.2229614-.0865078.4372015-.2469997.592-.1502781.1586351-.3594856.2480373-.5779991.2469997h-4.0569973v2.7460003h3.4949989c.2185135-.0010376.427721.0883646.5779991.2470002.1595135.1525741.2488976.364275.2469997.585.0023308.219418-.0842419.430438-.2399998.585-.1512604.1615224-.363739.2515984-.5849991.2480001h-3.4949989v2.76h4.0650005c.2185135-.0010377.427721.0883644.5779991.247.1595135.1525738.2488976.3642749.2469997.585.0018978.2207252-.0874863.4324262-.2469997.585-.1503448.159259-.3599892.2490552-.5790005.2479998h-4.8600006l-.0319996-.015-.0119991.015ZM29.3375397,56.8050003c0-.7599993-.8799992-1.3050003-2.6399994-1.6350002h-.0300007c-.6987133-.1243944-1.3790359-.336051-2.0249996-.6300001-.5094662-.2181768-.9447174-.5794373-1.2530022-1.04-.2555294-.3903294-.3943024-.8455029-.3999996-1.3120003-.0045414-.8643951.4281139-1.6725206,1.1499996-2.1479998.7673264-.5607619,1.6967373-.8557014,2.6469994-.8400002.4590683.0031276.914732.0790715,1.3500004.2249999.3554916.1062851.6997852.2469497,1.0279999.4200001.2253342.1300001.5226669.3150001.8920002.5549998.168045.1166172.2839355.29422.323.4949999.0484028.1978693.0121651.4069586-.1000004.5769997-.1104488.1718969-.2864094.291131-.4869995.3299999-.2045918.049015-.4203777.0082598-.5929985-.1119995-.3947926-.2772255-.8138294-.5182056-1.2520008-.7200003-.366642-.1603737-.7628231-.2421303-1.1630001-.2399998-.5761452-.0248423-1.1447411.1383657-1.6200008.4650002-.358284.2081366-.593195.5772848-.6299992.9899998-.0045853.15376.0372295.3053389.1200008.4350004.2799988.4599991,1.0349998.8049994,2.2649994,1.0349998h.0300007c.7117958.1302586,1.4063244.3416367,2.0699997.6300001,1.0757694.3822517,1.8117294,1.3793573,1.8600006,2.5200005.00494.9220047-.4582176,1.7835503-1.2299995,2.2880001-.8236408.5961533-1.8183918.9091415-2.8349991.8920002-1.4133148-.0488625-2.7677746-.5779476-3.8400002-1.5-.1602383-.1298847-.2606258-.3194637-.2779999-.5249996-.0296345-.2035923.0272999-.4102945.1569996-.5699997.1298847-.1602392.3194637-.2606249.5249996-.2779999.2060547-.0293646.4145813.0335588.5699997.1719999.787775.7126331,1.8032341,1.1220064,2.8649998,1.1549997.6474819.0298691,1.2870731-.1519699,1.8220005-.5179996.4018803-.2353773.6638412-.6518316.7019997-1.1160011ZM40.1995382,49.7399998c.156939.153769.2437277.3653164.2399998.585.0026188.2231112-.0871401.4373732-.2480001.592-.1500406.1583824-.3588343.2477617-.5770001.2469997h-2.3869996v8.0100002c.0037279.2196827-.0830612.4312305-.2399998.5849991-.1543188.1580715-.3671322.2452984-.5880003.2410011-.2196836.003727-.4312305-.0830612-.585-.2399998-.1569386-.1537685-.2437277-.3653164-.2399998-.5849991v-8.0100012h-2.3699999c-.2211084.0038567-.4335623-.0858459-.585-.2469997-.1566372-.1568432-.2431984-.3703594-.2399998-.592-.0037279-.2196836.0830612-.431231.2399998-.585.1537695-.156939.3653164-.2437277.585-.2399998h6.4050002c.2212596-.0053768.4348607.0811491.5899997.2389994ZM43.9345381,58.4099998c-.9772413-1.0251455-1.5114524-2.3939047-1.4869998-3.8099995-.0247407-1.4170933.511538-2.7865458,1.4920001-3.8100004.9263744-1.0301895,2.2526965-1.6098633,3.638-1.5900002,1.3894017-.0177317,2.71747.5712628,3.6370001,1.6129999.974504,1.0232897,1.5103106,2.3870316,1.493,3.8000002.0212989,1.4140558-.5242743,2.7778072-1.5150003,3.7869997-.4518707.5011692-1.0037236.9021149-1.6199999,1.177-.6170025.2805386-1.2872165.4248123-1.965.4230003-1.3966438.0231075-2.7356276-.5562077-3.6749999-1.5900002h.0019996ZM44.159538,54.6000004c-.0167542.9645424.3438652,1.8974876,1.005,2.6000004.6093155.6985846,1.4930474,1.0966282,2.4200004,1.0900002.928325.0077305,1.8124874-.3957253,2.415-1.1020012.6534398-.702158,1.0115309-1.6288977,1-2.5879993.0126061-.9574394-.3416116-1.8834143-.99-2.5880003-.6041627-.7097721-1.492985-1.1136818-2.425-1.1020002-.9306322-.0105057-1.8189815.3879719-2.43,1.0900002-.6566756.7047396-1.0141182,1.6368866-.997,2.6000004h.0019996ZM60.9995384,55.1850004c.677104.5130539,1.0585117,1.3263474,1.0200005,2.1750002-.0123825.2963057.0077372.5930767.0600004.8850002.4274683.1355839.6640863.5920296.5285015,1.0194969-.0274382.0865059-.0691843.1678009-.1235018.2405033-.1716404.2309818-.4476461.3605366-.7349997.3449993h-.0150003c-.4585419-.0047684-.8732471-.2734509-1.0650005-.6900005-.2344894-.5699997-.3419819-1.1842432-.3149996-1.8000002-.0117245-.4439821-.2493-.8512535-.6300001-1.0799999-.256609-.1685429-.5409803-.2904158-.8400002-.3599997h-1.7700005v3.2549992c.0035982.2212601-.0864773.4337387-.2480001.5849991-.1568432.1566372-.3703594.2431984-.592.2399998-.4523087.0033264-.8216743-.3606472-.8249998-.8129559-.0000296-.004015-.0000296-.0080299,0-.0120449v-8.8499975c-.003335-.4523091.36063-.8216815.8129387-.825017.0046873-.0000343.0093746-.0000286.0140619.0000172h2.6849995c.85569-.0141053,1.6787167.3282189,2.2720003.9449997.622508.6230726.9616556,1.4745579.9379997,2.3549995.0019474.9341078-.4313297,1.8158188-1.1719999,2.3850012ZM58.9595385,54.2550001c.8482952.0049715,1.5400038-.6786776,1.5449753-1.5269718.000021-.0036764.0000296-.0073519.0000248-.0110283.0056496-.4111032-.1569099-.8066664-.4499998-1.0950003-.2849741-.2989569-.6820402-.4650354-1.0950003-.4580002h-1.8430004v3.0900002l1.8430004.0010004ZM65.8615379,60c-.4523087.0033264-.8216743-.3606453-.8250008-.8129559-.0000286-.004015-.0000286-.0080299,0-.0120449v-8.8499994c-.0033264-.4523091.3606472-.8216739.8129559-.8249998.004015-.0000296.0080299-.0000296.0120449,0h4.8999996c.2172623-.0018082.4259167.0848303.5779991.2399998.1611538.1514373.2508564.3638916.2469997.585.0028801.2229614-.0865078.4372015-.2469997.592-.1502781.1586351-.3594856.2480373-.5779991.2469997h-4.0619984v2.7460003h3.5c.2186623-.0007782.4278927.0889959.5779991.2480001.1595135.1525736.2488976.364275.2469997.585.0023308.2194176-.0842419.430438-.2399998.585-.1512604.1615229-.363739.2515984-.5849991.2480001h-3.5v2.7600002h4.0650005c.2186623-.0007782.4278927.088995.5779991.2479992.3230858.3133945.3309441.8293648.0175495,1.1524506-.0057602.0059376-.01161.0117893-.0175495.0175495-.1502781.1586361-.3594856.2480373-.5779991.2469997h-4.8600006l-.0300007-.0149994-.0130005.0139999Z"/>
    </g>
  </g>
</svg>