<?xml version="1.0" encoding="utf-8"?>
<!-- Generator: Adobe Illustrator 27.5.0, SVG Export Plug-In . SVG Version: 6.00 Build 0)  -->
<svg version="1.1" xmlns="http://www.w3.org/2000/svg" xmlns:xlink="http://www.w3.org/1999/xlink" x="0px" y="0px" width="424px"
	 height="115px" viewBox="0 0 424 115" style="enable-background:new 0 0 424 115;" xml:space="preserve">
<g id="レイヤー_1">
	<g id="グループ_537" transform="translate(-40.252 -19.125)">
		<g id="グループ_535" transform="translate(177.852 53)">
			<g id="グループ_2" transform="translate(33.287 57.709)">
				<path id="パス_6" d="M2.6,0.7l2.3,2.8l2.3-2.8h1.2v7.1H7.1v-5l0,0L5,5.3H4.8l-2-2.5l0,0v5H1.4V0.7H2.6z"/>
				<path id="パス_7" d="M14.8,0.6c0.7,0,1.4,0.1,2,0.5c1.7,0.9,2.4,3.1,1.5,4.8c-0.3,0.6-0.9,1.2-1.5,1.5c-1.3,0.6-2.7,0.6-4,0
					c-1.2-0.6-1.9-1.8-1.9-3.1c0-0.6,0.2-1.3,0.5-1.8c0.3-0.6,0.8-1,1.4-1.3C13.4,0.8,14.1,0.6,14.8,0.6z M12.3,4.2
					c0,0.4,0.1,0.9,0.3,1.3s0.5,0.7,0.9,0.9c0.4,0.2,0.8,0.3,1.3,0.3c0.7,0,1.3-0.2,1.8-0.7s0.7-1.1,0.7-1.8c0-0.4-0.1-0.9-0.3-1.3
					c-0.2-0.4-0.5-0.7-0.9-0.9s-0.8-0.3-1.3-0.3c-0.4,0-0.9,0.1-1.3,0.3c-0.4,0.2-0.7,0.5-0.9,0.9C12.4,3.4,12.3,3.8,12.3,4.2
					L12.3,4.2z"/>
				<path id="パス_8" d="M22.4,0.7l2.3,2.8L27,0.7h1.2v7.1h-1.4v-5l0,0l-2,2.5h-0.2l-2-2.5l0,0v5h-1.4V0.7H22.4z"/>
				<path id="パス_9" d="M32.7,0.7L35,3.5l2.3-2.8h1.2v7.1h-1.4v-5l0,0l-2,2.5h-0.2l-2-2.5l0,0v5h-1.4V0.7H32.7z"/>
				<path id="パス_10" d="M42.2,0.7l1.7,2.4l1.7-2.4h1.6l-2.7,3.6v3.5h-1.4V4.3l-2.7-3.6L42.2,0.7z"/>
				<path id="パス_11" d="M49.9,0.6c0.3,0,0.5,0.1,0.6,0.3c0.2,0.2,0.3,0.5,0.2,0.8c0,0.9-0.7,1.7-1.5,1.8V3.3
					c0.3-0.3,0.5-0.7,0.5-1.1V2c-0.3,0-0.6-0.3-0.6-0.7l0,0c0-0.2,0.1-0.4,0.2-0.5C49.6,0.7,49.8,0.6,49.9,0.6z"/>
				<path id="パス_12" d="M55.6,0.6c0.7,0,1.4,0.2,2,0.5v1.2c-0.6-0.3-1.3-0.6-2-0.6c-0.3,0-0.6,0.1-0.8,0.2s-0.3,0.3-0.3,0.5
					c0,0.3,0.2,0.5,0.5,0.7c0.1,0.1,0.5,0.3,1.2,0.6c0.5,0.2,0.9,0.5,1.3,0.9c0.3,0.3,0.4,0.8,0.4,1.2c0,0.6-0.2,1.1-0.7,1.5
					s-1.1,0.6-1.7,0.6c-0.4,0-0.8,0-1.2-0.1s-0.8-0.3-1.1-0.5V5.9c0.6,0.6,1.3,0.9,2.1,0.9c0.3,0,0.6-0.1,0.8-0.2s0.3-0.3,0.3-0.6
					c0-0.3-0.2-0.7-0.5-0.8c-0.3-0.2-0.7-0.4-1.1-0.6c-0.5-0.2-0.9-0.5-1.2-0.9c-0.3-0.3-0.4-0.7-0.4-1.2c0-0.6,0.2-1.1,0.7-1.4
					C54.3,0.8,55,0.6,55.6,0.6z"/>
				<path id="パス_13" d="M66.9,0.7v3h3.7v-3H72v7.1h-1.4v-3h-3.7v3h-1.4V0.7H66.9z"/>
				<path id="パス_14" d="M78.4,0.6c0.7,0,1.4,0.1,2,0.5c1.7,0.9,2.4,3.1,1.5,4.8c-0.3,0.6-0.9,1.2-1.5,1.5c-1.3,0.6-2.7,0.6-4,0
					c-1.7-0.9-2.4-3.1-1.5-4.8C75,2.5,75,2.5,75,2.4c0.3-0.6,0.8-1,1.4-1.3S77.7,0.6,78.4,0.6z M75.9,4.2c0,0.4,0.1,0.9,0.3,1.3
					c0.2,0.4,0.5,0.7,0.9,0.9c0.4,0.2,0.8,0.3,1.3,0.3c0.7,0,1.3-0.2,1.8-0.7s0.7-1.1,0.7-1.8c0-0.4-0.1-0.9-0.3-1.3
					c-0.2-0.4-0.5-0.7-0.9-0.9s-0.8-0.3-1.3-0.3c-0.4,0-0.9,0.1-1.3,0.3c-0.4,0.2-0.7,0.5-0.9,0.9C76,3.4,75.9,3.8,75.9,4.2z"/>
				<path id="パス_15" d="M85.9,0.7l2.3,2.8l2.3-2.8h1.2v7.1h-1.4v-5l0,0l-2,2.5h-0.2l-2-2.5l0,0v5h-1.4V0.7H85.9z"/>
				<path id="パス_16" d="M99.6,0.7v1.1h-3.2v1.9h3.1v1.1h-3.1v2h3.3v1.1H95V0.7H99.6z"/>
				<path id="パス_17" d="M103.9,0.7l2.3,2.8l2.3-2.8h1.2v7.1h-1.4v-5l0,0l-2,2.5h-0.2l-2-2.5l0,0v5h-1.4V0.7H103.9z"/>
				<path id="パス_18" d="M116.4,0.7l3.1,7.1h-1.4l-0.7-1.7h-3.1l-0.7,1.7h-1.4l2.9-7.1C115.1,0.7,116.4,0.7,116.4,0.7z M114.7,5
					h2.3l-1.2-2.8L114.7,5z"/>
				<path id="パス_19" d="M124.4,0.7c0.7,0,1.4,0.1,2,0.4s1,0.7,1.3,1.3c0.3,0.6,0.5,1.2,0.5,1.8S128,5.5,127.7,6s-0.8,1-1.4,1.2
					c-0.6,0.3-1.3,0.5-2,0.4h-2.9V0.7H124.4z M124.2,6.7c0.7,0,1.3-0.2,1.8-0.7c0.9-1,0.9-2.6,0-3.6c-0.5-0.5-1.2-0.7-1.9-0.7h-1.4
					v4.9L124.2,6.7L124.2,6.7z"/>
				<path id="パス_20" d="M135.1,0.7v1.1h-3.2v1.9h3.1v1.1h-3.1v2h3.3v1.1h-4.6V0.7H135.1z"/>
				<path id="パス_21" d="M145.9,0.7c0.7,0,1.4,0.1,2,0.4s1,0.7,1.3,1.3s0.5,1.2,0.5,1.8s-0.2,1.3-0.5,1.8s-0.8,1-1.4,1.2
					c-0.6,0.3-1.3,0.5-2,0.4h-2.9V0.7H145.9z M145.7,6.7c0.7,0,1.3-0.2,1.8-0.7c0.9-1,0.9-2.6,0-3.6c-0.5-0.5-1.2-0.7-1.9-0.7h-1.4
					v4.9L145.7,6.7L145.7,6.7z"/>
				<path id="パス_22" d="M155.5,0.6c0.7,0,1.4,0.1,2,0.5c1.7,0.9,2.4,3.1,1.5,4.8c-0.3,0.6-0.9,1.2-1.5,1.5c-1.3,0.6-2.7,0.6-4,0
					c-1.7-0.9-2.4-3.1-1.5-4.8c0.3-0.6,0.8-1.1,1.5-1.5C154.1,0.8,154.8,0.6,155.5,0.6z M153,4.2c0,0.4,0.1,0.9,0.3,1.3
					s0.5,0.7,0.9,0.9c0.4,0.2,0.8,0.3,1.3,0.3c0.7,0,1.3-0.2,1.8-0.7s0.7-1.1,0.7-1.8c0-0.4-0.1-0.9-0.3-1.3s-0.5-0.7-0.9-0.9
					s-0.8-0.3-1.3-0.3c-0.4,0-0.9,0.1-1.3,0.3c-0.4,0.2-0.7,0.5-0.9,0.9C153.1,3.4,153,3.8,153,4.2L153,4.2z"/>
				<path id="パス_23" d="M162.9,0.7v4.1c0,0.3,0,0.7,0.2,1c0.1,0.3,0.4,0.5,0.6,0.6c0.3,0.2,0.7,0.3,1,0.2c0.4,0,0.7-0.1,1.1-0.2
					c0.3-0.1,0.5-0.4,0.6-0.6c0.1-0.3,0.2-0.7,0.2-1.1v-4h1.4v4.2c0.1,0.8-0.3,1.6-0.9,2.2c-0.7,0.5-1.5,0.8-2.4,0.8
					c-0.6,0-1.2-0.1-1.7-0.3c-0.5-0.2-0.8-0.6-1.1-1c-0.3-0.5-0.4-1-0.4-1.5V0.7H162.9z"/>
				<path id="パス_24" d="M174.3,0.6c0.9,0,1.8,0.2,2.6,0.6v1.2c-0.8-0.4-1.6-0.6-2.5-0.7c-0.5,0-0.9,0.1-1.4,0.3
					c-0.4,0.2-0.7,0.5-0.9,0.9s-0.3,0.8-0.3,1.3c0,0.7,0.2,1.3,0.7,1.7c0.5,0.5,1.2,0.7,1.9,0.7c0.2,0,0.4,0,0.6-0.1
					c0.2,0,0.5-0.1,0.7-0.2V5.2h-1.2v-1h2.5v2.9c-0.4,0.3-0.8,0.5-1.3,0.6s-1,0.2-1.5,0.2c-0.7,0-1.4-0.1-2-0.5
					c-1.2-0.6-1.9-1.8-1.9-3.1c0-0.7,0.2-1.3,0.5-1.9s0.8-1,1.4-1.3C172.9,0.8,173.6,0.6,174.3,0.6z"/>
				<path id="パス_25" d="M181.3,0.7v3h3.7v-3h1.4v7.1H185v-3h-3.7v3H180V0.7H181.3z"/>
				<path id="パス_26" d="M190.5,0.7l4.2,4.9V0.7h1.3v7.1h-1.2l-4.2-5v5h-1.3V0.7H190.5z"/>
				<path id="パス_27" d="M200.1,0.7v4.1c0,0.3,0,0.7,0.2,1c0.1,0.3,0.4,0.5,0.6,0.6c0.3,0.2,0.7,0.3,1,0.2c0.4,0,0.7-0.1,1.1-0.2
					c0.3-0.1,0.5-0.4,0.6-0.6c0.1-0.3,0.2-0.7,0.2-1.1v-4h1.4v4.2c0.1,0.8-0.3,1.6-0.9,2.2c-0.7,0.5-1.5,0.8-2.4,0.8
					c-0.6,0-1.2-0.1-1.7-0.3c-0.5-0.2-0.8-0.6-1.1-1c-0.3-0.5-0.4-1-0.4-1.5V0.7H200.1z"/>
				<path id="パス_28" d="M213.7,0.7v1.1h-2.5v6h-1.4v-6h-2.5V0.7H213.7z"/>
			</g>
			<path id="パス_29" d="M27.3,7.1c-0.1,0-0.2,0-0.3,0c-1.4,0.2-2.8,0.2-4.1,0.1c-1.9,0.1-3.7,0.2-5.6,0.4c0-0.2,0-0.4,0-0.6
				C17,5.1,16.9,3.2,17,1.4c0-0.3,0-0.5-0.1-0.7c-0.6,0-1.1,0-1.7,0.1c-1,0-2.1,0.1-3.1,0.2c-0.2,0.3-0.3,0.7-0.2,1
				c0.2,2,0.4,4,0.6,6C10.2,8,8.1,8.2,6,8.3L5.9,8.4C4.4,8.7,3,8.9,1.5,9L1.4,9.1c0.3,3,0.5,5.9,0.7,8.9c1.9,0.1,3.7,0.2,5.6,0.3
				c-0.1-0.9-0.1-1.8-0.1-2.6c-0.1-1.1-0.3-2.2-0.5-3.2c6.2,0,12.4,0,18.5-0.2c-2.9,10.8-6.1,21.5-9.8,32c-0.2,0.4-0.1,0.9,0.1,1.3
				c1.6,0.4,3.2,0.7,4.8,1c0.2-0.2,0.4-0.5,0.5-0.8c2.9-9.7,5.9-19.4,8.9-29.1c0.6-2.8,1.3-5.6,2-8.4V8.2c0-0.2-0.1-0.4-0.2-0.5
				C30.4,7.3,28.9,7.2,27.3,7.1z"/>
			<path id="パス_30" d="M74.6,7.7c-0.7-0.1-1.3-0.1-2-0.2c-1.1,0.1-2.3,0.2-3.4,0.1c-6.8,0.6-13.6,1.2-20.4,2
				c-1.1,0.3-2.3,0.6-3.4,0.7c-0.2,0.1-0.3,0.3-0.4,0.4c0,0,0,0-0.1,0.1c0.2,1.1,0.3,2.2,0.5,3.3c0.3,0.2,0.7,0.2,1,0.2
				c7.6-1.1,15.2-1.8,22.8-2.1c-4.6,7.7-8.9,15.5-12.8,23.6c-0.1,0.2-0.2,0.5-0.2,0.8c0.5,0.5,1,1.1,1.5,1.6
				c0.3,0.1,0.5,0.3,0.8,0.4c0.1,0,0.2,0,0.3-0.1c0.4-0.4,0.8-0.9,1.1-1.4c0.5-0.8,1-1.6,1.6-2.3c3.6-6.1,7-12.4,10.3-18.6
				c0.8-2,1.7-4,2.7-6c0.2-0.5,0.3-1.1,0.5-1.6c0.1-0.3,0-0.5-0.1-0.6C74.8,7.9,74.7,7.8,74.6,7.7z"/>
			<path id="パス_31" d="M107.5,8.2c-0.6-0.1-1.3-0.2-1.9-0.3h-0.5c-0.9-0.1-1.7-0.1-2.6-0.2C98,7.6,93.4,7.8,88.9,8.3
				c-0.4,0-0.8,0-1.2,0c-0.4,0-0.8,0.1-1.2,0.4c0,1,0.1,2,0.1,3c0.2,0.1,0.4,0.2,0.6,0.3c0.3,0.1,0.6,0.2,0.9,0.2
				c0.2,0,0.5,0,0.7-0.1c4.7,0.1,9.4,0.1,14.1,0.1c-0.1,0.2-0.1,0.4-0.2,0.6c-6.2,10.7-12,21.5-17.3,32.7c-0.1,0.2-0.1,0.4-0.1,0.6
				c0,0.1,0.1,0.1,0.1,0.2c1.2,0.5,2.3,1.1,3.4,1.8h0.1c0.1,0,0.2,0,0.3,0c0.1-0.1,0.2-0.2,0.3-0.4c5.6-10.9,12.1-21.8,16.6-33.2
				c0.3-0.5,0.5-0.9,0.8-1.4c0-0.1,0.1-0.2,0.1-0.4c0.2-0.6,0.5-1.2,0.7-1.9c0.1-0.5,0.3-1,0.5-1.4C108.2,8.8,107.9,8.4,107.5,8.2z"
				/>
			<path id="パス_32" d="M146.9,19.2c-3.2-0.2-6.4-0.4-9.6-0.4c0-3.3,0-6.6,0-9.8c0-0.6-0.3-1.2-0.9-1.5c-1.1-0.2-2.2-0.3-3.4-0.4
				c-0.1,0.1-0.1,0.1-0.2,0.2l0,0c-0.4,1.2-0.5,2.4-0.3,3.7c0,0.3,0,0.6-0.1,0.9c0.1,7.8-0.1,15.5-0.7,23.3c0,0.2,0,0.3,0.1,0.5
				c1.5-0.4,3-0.7,4.5-1.1c0.2-0.2,0.4-0.6,0.4-0.9c0-0.5,0.1-0.9,0.1-1.4c0-1.2,0.1-2.4,0.1-3.6c-0.2-0.5-0.2-1,0-1.5
				c0-1.1,0.1-2.1,0.1-3.2c4.2,0.1,8.5,0.2,12.7,0.4c0.4,0,0.8-0.1,1.2-0.4v-0.1l0,0v-0.1c0.2-1.2,0.3-2.4,0.3-3.6
				c-0.1-0.1-0.2-0.3-0.3-0.4C149.6,19.7,148.3,19.5,146.9,19.2z"/>
			<path id="パス_33" d="M153.1,6.7c0-0.4-0.1-0.8-0.3-1.1c-1.1,0.1-2.2,0.2-3.3,0.2c-0.2,0.3-0.3,0.6-0.4,1c-0.1,1.7-0.1,3.3,0,5
				c0,0.4,0.2,0.9,0.5,1.2c0.5,0,1,0,1.5,0.1c0.5-0.1,1-0.3,1.6-0.4l0.1-0.1c0.3-0.3,0.5-0.8,0.5-1.3C153,9.7,153,8.2,153.1,6.7z"/>
			<path id="パス_34" d="M156.8,4.3c-0.2,0-0.4,0-0.6-0.1c0,2.5-0.1,5-0.2,7.5l0,0c1.2,0,2.3,0.2,3.5,0.3c0.2-0.3,0.3-0.6,0.3-1
				V5.7c0-0.3-0.1-0.6-0.2-0.8C158.7,4.8,157.7,4.6,156.8,4.3z"/>
			<path id="パス_35" d="M191.8,18.2c-6,0.3-11.9,1-17.8,1.8c-1.2,0.1-2.4,0.2-3.5,0.3c-0.7,0.2-1.5,0.4-2.3,0.5l0,0
				c-0.2,0-0.4,0.1-0.6,0.1c-0.2,0-0.4,0.1-0.5,0.2c0.1,0.2,0.1,0.4,0,0.5c0,0.8,0.2,1.5,0.3,2.2c0,0.2,0.1,0.3,0.1,0.5
				c0.4,0.2,0.8,0.3,1.2,0.2c1.9-0.3,3.7-0.5,5.6-0.8c5.3-0.4,10.5-0.9,15.7-1.5c0.2,0,0.4-0.1,0.5-0.2c0.5,0,0.9-0.1,1.4-0.1
				c0.4,0,0.8-0.2,1.1-0.4c-0.1-1-0.1-2.1-0.2-3.2C192.5,18.2,192.2,18.2,191.8,18.2z"/>
			<path id="パス_36" d="M227.8,9.9L227.8,9.9l-0.1-0.1c-0.2,0-0.3-0.1-0.5-0.1L225,9.8c-1,0-1.9,0.1-2.9,0.1l-1.5,0.1
				c0.1-0.2,0.2-0.4,0.2-0.6c0.1-0.3,0.2-0.6,0.4-0.8c0.2-0.4,0.2-0.9,0.1-1.4V7.1h-0.1c-1.4-0.2-2.6-0.4-3.6-0.5h-0.1l0,0
				c-0.2,0.2-0.4,0.4-0.5,0.6c-0.2,0.6-0.5,1.1-0.7,1.7c-0.2,0.4-0.4,0.9-0.6,1.3c-1.1,0-2.3,0.1-3.4,0.2c-0.6,0-1.2,0.1-1.8,0.1
				l-7.4,0.3c-0.3,0-0.6,0.1-0.9,0.2h-0.1c0,0,0,0-0.1,0h-0.1v0.1c-0.3,1.2-0.5,2.5-0.6,3.7v0.1h0.1c0.2,0.1,0.5,0.1,0.8,0.1
				c2.4-0.2,4.8-0.4,7.2-0.5l1.2-0.1l3.4-0.1c-4.1,9.5-7.6,17.9-10.7,25.7c-0.2,0.4-0.2,0.8-0.1,1.2v0.1h0.1
				c0.9,0.3,1.9,0.6,2.9,0.9h0.2l0,0c0.3-0.2,0.6-0.5,0.7-0.9c4.1-9.7,7.8-18.4,11.6-27.2l6.1-0.3h1c0.3,0,0.7,0,1,0h0.1h0.2
				c0.3,0,0.6-0.1,0.8-0.2h0.1l-0.1-0.5C228,12,227.9,10.9,227.8,9.9z"/>
			<path id="パス_37" d="M263.7,18.5c-0.6,0.1-1.2,0.1-1.8,0h-0.2c-0.2,0-0.5,0.1-0.7,0.1c-1.6,0.1-3.2,0.1-4.7,0.3
				c-1.1,0-2.3,0-3.7,0h-0.2v-0.2c0-0.1,0-0.1,0-0.2l0.1-0.6c0-0.3,0.1-0.6,0.1-0.9l0.9-3.8h0.1c0.3,0,0.5,0,0.8-0.1h0.3
				c0.5-0.1,1-0.2,1.5-0.2c0.2,0,0.4-0.1,0.7-0.1c1-0.2,2-0.4,3-0.5c0.1-0.3,0.1-0.7,0.2-1c0-0.4,0-0.9,0.1-1.3V9.9
				c0-0.1,0-0.2,0-0.3V9.4c0-0.5,0-1,0-1.5c-0.1-0.1-0.2-0.2-0.2-0.3l0,0l0,0c-0.1,0-0.1,0.1-0.2,0.1c-2.9,0.4-5.8,0.6-8.7,0.8
				c-3,0.2-6.2,0.5-9.2,0.9c-0.1,0.4-0.2,0.7-0.3,1.1c0,0.1,0,0.2,0,0.3s0,0.2-0.1,0.4l0,0c0,0.1,0,0.1,0,0.2l-0.1,0.8
				c-0.1,0.3-0.1,0.7-0.1,1c0,0.5-0.1,0.9-0.1,1.4l0,0c0.3,0.1,0.6,0.2,0.9,0.1c2.1-0.3,4.3-0.6,6.8-0.9h0.2l-1,5.3H248
				c-3.3,0.1-6.6,0.2-9.8,0.4h-0.5c-0.8,0.1-1.5,0.2-2.3,0.3l-0.3,0.5c0,0.1,0.1,0.2,0.1,0.3c0,0.6,0,1.1,0,1.7v0.5l0.1,1.1V24
				c0,0.1,0,0.2,0,0.3h0.1c0.2,0,0.3,0.1,0.5,0.1h0.9h0.1l1.3-0.1c2.8-0.1,5.8-0.2,8.9-0.4h0.2v0.2l-1.6,9.2c0,0.1,0,0.1,0,0.1
				c0,0.5,0,1-0.1,1.5c0,1.9-0.2,3.9-0.5,5.8v0.4l0.8,0.3c0.5,0.1,1.1,0.1,1.8,0.2l1.5,0.2l0.2-1.4c0.3-1.3,0.5-2.5,0.6-3.8
				c0.7-4.1,1.3-8.3,1.8-12.7v-0.1h0.1c4.5-0.2,8.6-0.4,12.5-0.7c0.1-0.5,0.2-0.9,0.2-1.4c0.2-0.9,0.3-1.8,0.4-2.6
				c0-0.1-0.1-0.2-0.1-0.4C264.6,18.5,264.1,18.5,263.7,18.5z"/>
			<path id="パス_38" d="M285,39.5c-0.2-0.7-0.4-1.4-0.6-2.1c-0.3,0-0.5,0-0.8,0.1l0,0c-0.2,0-0.4,0-0.6,0c-0.4,0-0.7,0-1.1,0
				c-0.1,0-0.2,0-0.2,0c-0.2,0.1-0.5,0.1-0.7,0c-0.2,0-0.5,0-0.7,0c0-0.2,0.1-0.3,0.1-0.5c0-0.1-0.1-0.2-0.1-0.3s0-0.3,0-0.4
				c-0.1-0.1-0.1-0.3-0.1-0.5c0-2.2-0.2-4.6-0.2-6.8c-0.2-0.6-0.3-1.3-0.4-2h-0.4c-1.2,0-2.3,0-3.5,0.1c-0.8,0.1-1.7,0.1-2.5,0.1
				c-0.9,0.1-1.7,0.3-2.6,0.4l0,0c0,1.4,0,2.8,0.2,4.1c0.7-0.1,1.5-0.1,2.2-0.1c1,0,2-0.1,3-0.2l0,0c0,2,0.3,4,0.5,6
				c-0.7,0.1-1.5,0.1-2.2,0.3c-0.2,0-0.3,0-0.5,0c-0.2,0.1-0.3,0.1-0.5,0v0.1l0,0c-1,0.1-1.9,0.1-2.9,0.3l0,0h-0.1l0,0l0,0
				c0,1.7,0.1,3.3,0.3,5c0.7,0,1.4,0,2.1-0.1c3.8-0.1,7.8-0.2,11.6-0.6h0.1l0,0c0.2,0,0.5,0,0.8,0C284.9,41.4,284.9,40.4,285,39.5z"
				/>
		</g>
	</g>
	<path id="パス_1_2_" d="M101.1,86.2c-0.7-6.5,2.1-9.4,3.9-21c2.5-15.4-4.7-24.8-10.4-30.6c-7.5-7.7-17.2-10.9-24-13.2
		c-7.8-2.6-11.9-5.1-13.7-9.9c-2.6-7.1-1.8-10.9-4-10.9c-2,0-1,7-4.7,12.2c-6.9,9.8-25.5,9.4-37.9,26.6C-1.7,56.1,4.7,69,6.7,78.7
		c1.2,5.7,1.5,8.4,0.6,11.9c-0.8,3.2-2.9,6-5.8,7.8C6,103.3,15,102.6,19,100s7.6-8.8,6.6-19.5c9.6,1.1,19.2,1.6,28.8,1.3
		c15.1-0.5,23.2-1,28.7-2.5c-0.5,13.2,2,16.7,7.6,19.4c5.9,2.9,13,0,16.9-3.5C105,94.2,101.8,92.1,101.1,86.2z"/>
	<path id="パス_3_2_" d="M58.8,96.6c-1.2-0.4-2.5-0.7-3.7-0.7c-0.8,0-1.5,0.1-2.3,0.3c-1.7,0.4-3,1.6-3.7,3.3
		c-0.9,2.2,0,4.7,2,5.8l0.1,0.1l-0.1,0.1c-0.4,0.2-0.7,0.6-1,0.9c-0.8,1-1.1,2.3-0.9,3.6c0.3,1.3,1,2.5,2.1,3.2
		c1.3,0.7,2.8,1,4.2,1.1c1.1,0.1,2.2,0,3.3-0.4l0,0l0,0v-2.3l0,0c-2.9,0.6-4.4,0.6-5.8-0.1c-0.6-0.3-1.1-0.9-1.2-1.6
		c-0.2-0.7-0.1-1.5,0.4-2.1c0-0.1,0.1-0.1,0.1-0.2c0.4-0.6,0.9-1.3,3-1.2c0.4,0,0.8,0,1.1,0c0.2,0,0.4,0,0.5,0H57v-0.2v-0.3
		c0-0.1,0-0.2,0-0.3v-1.1c0,0,0-0.1-0.1-0.1h-0.4c-1.2,0-2.5-0.2-3.6-0.6c-1.2-0.5-1.8-1.9-1.2-3.1v-0.1c0.4-0.9,1.2-1.5,2.2-1.6
		c1.3-0.1,2.5-0.1,3.8,0.2c0.1,0,0.7,0.1,0.9,0.1l0.1-1.2C58.8,97.7,58.8,96.8,58.8,96.6z"/>
	<path id="パス_4_2_" d="M58.9,96.5L58.9,96.5L58.9,96.5c-2.5-0.8-3.8-1.1-6.2-0.5c-1.7,0.4-3.2,1.7-3.8,3.4c-0.9,2.2,0,4.7,2,6
		c-0.3,0.2-0.7,0.5-0.9,0.9c-0.8,1.1-1.2,2.4-0.9,3.7c0.3,1.4,1.1,2.5,2.2,3.3c1.3,0.7,2.8,1.1,4.3,1.1c0.4,0,0.7,0,0.9,0
		c0.8,0,1.6-0.2,2.4-0.4c0.1,0,0.1-0.1,0.1-0.1v-0.1v-2.3l0,0c-0.1-0.1-0.2-0.1-0.3-0.1c-2.8,0.6-4.3,0.6-5.7-0.1
		c-0.6-0.3-1-0.9-1.1-1.5c-0.2-0.7,0-1.4,0.4-2c0-0.1,0.1-0.1,0.2-0.2c0.4-0.6,0.8-1.3,2.8-1.2c0.4,0,0.8,0,1.1,0c0.2,0,0.4,0,0.5,0
		s0.2,0,0.2-0.1c0.1-0.1,0.1-0.2,0.1-0.4v-0.2c0-0.1,0-0.2,0-0.3v-1.1c0-0.1-0.1-0.2-0.2-0.2h-0.4c-1.2,0-2.4-0.2-3.5-0.6
		c-1.1-0.5-1.6-1.8-1.1-2.9v-0.1c0.4-0.8,1.1-1.4,2-1.5c1.2-0.1,2.5-0.1,3.7,0.2c1,0.2,1,0.1,1.1,0.1l0,0L59,98l0,0
		C59,97.4,59,96.9,58.9,96.5z"/>
	<path id="パス_5_2_" d="M71.3,107.7c-0.3,0.1-0.5,0.2-0.7,0.4c-0.1,0.2-0.4,0.2-0.6,0.2c-0.3-0.1-0.5,0-0.8,0
		c-0.7,0.2-1.2,0.9-1,1.7c0,0.1,0.1,0.2,0.1,0.3c1.2,1.1,3,1,4.1-0.1c0.4-0.4,0.6-0.9,0.7-1.4c0-0.1,0-0.2,0-0.3
		C72.8,107.8,72,107.5,71.3,107.7z"/>
	<path d="M74.8,91.8L74.8,91.8l-5.1-0.3c-0.8-0.1-1.4-0.5-1.6-1.1s0.1-1.5,0.6-1.9l4.1-3.5c1-1,2.2-1.5,3-0.9
		c0.8,0.5,0.7,1.7,0.1,2.3l-2.7,2.1c-0.3,0.2-0.2,0.4,0.3,0.3l2.2,0.1c0.7,0.1,1.5,0.4,1.6,1.2C77.4,91,76.6,91.9,74.8,91.8z"/>
	<path d="M35.3,93.5c-0.6,0.1-1.4,0-1.6-0.6c-0.3-0.8,0.3-1.3,1.1-1.9l2-1c0.3-0.1,0.2-0.3,0.1-0.3l-2.7-1.2
		c-0.8-0.6-1.1-1.4-0.7-2.1c0.4-0.8,1.7-1,2.5-0.5l4.5,2.8c0.5,0.3,0.7,0.8,0.7,1.3s-0.3,1-0.8,1.3l-3.8,1.9
		C36.4,93.3,35.5,93.5,35.3,93.5z"/>
</g>
<g id="グループ_1462">
	<g>
		<g id="グループ_1461">
			<path id="パス_3225" d="M417.4,40.8c0.8,0,1.6,0.2,2.3,0.6c0.7,0.4,1.3,1,1.7,1.7c1.3,2.2,0.5,5.1-1.7,6.4c0,0,0,0,0,0
				c-2.2,1.3-5.1,0.5-6.4-1.7c-1.3-2.2-0.5-5.1,1.7-6.4C415.7,41,416.6,40.7,417.4,40.8 M417.4,41.5c-2.2,0-3.9,1.7-3.9,3.9
				c0,2.2,1.7,3.9,3.9,3.9s3.9-1.7,3.9-3.9c0-1-0.4-2-1.1-2.8C419.4,41.9,418.4,41.5,417.4,41.5 M416.3,47.9h-0.8v-5h1.7
				c0.4,0,0.9,0,1.3,0.1c0.2,0.1,0.5,0.3,0.6,0.5c0.1,0.2,0.2,0.5,0.2,0.7c0,0.4-0.1,0.7-0.4,1c-0.3,0.3-0.6,0.4-1,0.4
				c0.2,0.1,0.4,0.2,0.5,0.4c0.2,0.3,0.4,0.6,0.6,0.9l0.6,1h-1l-0.4-0.8c-0.2-0.4-0.5-0.8-0.8-1.1c-0.2-0.2-0.5-0.3-0.7-0.3h-0.5
				L416.3,47.9z M416.3,43.6v1.5h1c0.3,0,0.6,0,0.9-0.2c0.2-0.1,0.3-0.3,0.3-0.6c0-0.2-0.1-0.5-0.3-0.6c-0.3-0.1-0.7-0.2-1-0.2
				L416.3,43.6z"/>
		</g>
	</g>
</g>
</svg>
