<?xml version="1.0" encoding="utf-8"?>
<!-- Generator: Adobe Illustrator 24.2.0, SVG Export Plug-In . SVG Version: 6.00 Build 0)  -->
<svg version="1.1" id="グループ_454" xmlns="http://www.w3.org/2000/svg" xmlns:xlink="http://www.w3.org/1999/xlink" x="0px"
	 y="0px" viewBox="0 0 108 116" style="enable-background:new 0 0 108 116;" xml:space="preserve">
<path id="パス_1_2_" d="M100.6,86.7c-0.7-6.5,2.1-9.4,3.9-21c2.5-15.4-4.7-24.8-10.4-30.6c-7.5-7.7-17.2-10.9-24-13.2
	c-7.8-2.6-11.9-5.1-13.7-9.9c-2.6-7.1-1.8-10.9-4-10.9c-2,0-1,7-4.7,12.2c-6.9,9.8-25.5,9.4-37.9,26.6c-12,16.7-5.6,29.6-3.6,39.3
	c1.2,5.7,1.5,8.4,0.6,11.9c-0.8,3.2-2.9,6-5.8,7.8c4.5,4.9,13.5,4.2,17.5,1.6s7.6-8.8,6.6-19.5c9.6,1.1,19.2,1.6,28.8,1.3
	c15.1-0.5,23.2-1,28.7-2.5c-0.5,13.2,2,16.7,7.6,19.4c5.9,2.9,13,0,16.9-3.5C104.5,94.7,101.3,92.6,100.6,86.7z"/>
<path id="パス_3_2_" d="M58.3,97.1c-1.2-0.4-2.5-0.7-3.7-0.7c-0.8,0-1.5,0.1-2.3,0.3c-1.7,0.4-3,1.6-3.7,3.3c-0.9,2.2,0,4.7,2,5.8
	l0.1,0.1l-0.1,0.1c-0.4,0.2-0.7,0.6-1,0.9c-0.8,1-1.1,2.3-0.9,3.6c0.3,1.3,1,2.5,2.1,3.2c1.3,0.7,2.8,1,4.2,1.1
	c1.1,0.1,2.2,0,3.3-0.4l0,0l0,0v-2.3l0,0c-2.9,0.6-4.4,0.6-5.8-0.1c-0.6-0.3-1.1-0.9-1.2-1.6c-0.2-0.7-0.1-1.5,0.4-2.1
	c0-0.1,0.1-0.1,0.1-0.2c0.4-0.6,0.9-1.3,3-1.2c0.4,0,0.8,0,1.1,0c0.2,0,0.4,0,0.5,0h0.1v-0.2v-0.3c0-0.1,0-0.2,0-0.3V105
	c0,0,0-0.1-0.1-0.1H56c-1.2,0-2.5-0.2-3.6-0.6c-1.2-0.5-1.8-1.9-1.2-3.1v-0.1c0.4-0.9,1.2-1.5,2.2-1.6c1.3-0.1,2.5-0.1,3.8,0.2
	c0.1,0,0.7,0.1,0.9,0.1l0.1-1.2C58.3,98.2,58.3,97.3,58.3,97.1z"/>
<path id="パス_4_2_" d="M58.4,97L58.4,97L58.4,97c-2.5-0.8-3.8-1.1-6.2-0.5c-1.7,0.4-3.2,1.7-3.8,3.4c-0.9,2.2,0,4.7,2,6
	c-0.3,0.2-0.7,0.5-0.9,0.9c-0.8,1.1-1.2,2.4-0.9,3.7c0.3,1.4,1.1,2.5,2.2,3.3c1.3,0.7,2.8,1.1,4.3,1.1c0.4,0,0.7,0,0.9,0
	c0.8,0,1.6-0.2,2.4-0.4c0.1,0,0.1-0.1,0.1-0.1v-0.1V112l0,0c-0.1-0.1-0.2-0.1-0.3-0.1c-2.8,0.6-4.3,0.6-5.7-0.1
	c-0.6-0.3-1-0.9-1.1-1.5c-0.2-0.7,0-1.4,0.4-2c0-0.1,0.1-0.1,0.2-0.2c0.4-0.6,0.8-1.3,2.8-1.2c0.4,0,0.8,0,1.1,0c0.2,0,0.4,0,0.5,0
	s0.2,0,0.2-0.1c0.1-0.1,0.1-0.2,0.1-0.4v-0.2c0-0.1,0-0.2,0-0.3v-1.1c0-0.1-0.1-0.2-0.2-0.2h-0.4c-1.2,0-2.4-0.2-3.5-0.6
	c-1.1-0.5-1.6-1.8-1.1-2.9V101c0.4-0.8,1.1-1.4,2-1.5c1.2-0.1,2.5-0.1,3.7,0.2c1,0.2,1,0.1,1.1,0.1l0,0l0.2-1.3l0,0
	C58.5,97.9,58.5,97.4,58.4,97z"/>
<path id="パス_5_2_" d="M70.8,108.2c-0.3,0.1-0.5,0.2-0.7,0.4c-0.1,0.2-0.4,0.2-0.6,0.2c-0.3-0.1-0.5,0-0.8,0
	c-0.7,0.2-1.2,0.9-1,1.7c0,0.1,0.1,0.2,0.1,0.3c1.2,1.1,3,1,4.1-0.1c0.4-0.4,0.6-0.9,0.7-1.4c0-0.1,0-0.2,0-0.3
	C72.3,108.3,71.5,108,70.8,108.2z"/>
<path d="M74.3,92.3L74.3,92.3L69.2,92c-0.8-0.1-1.4-0.5-1.6-1.1s0.1-1.5,0.6-1.9l4.1-3.5c1-1,2.2-1.5,3-0.9c0.8,0.5,0.7,1.7,0.1,2.3
	L72.7,89c-0.3,0.2-0.2,0.4,0.3,0.3l2.2,0.1c0.7,0.1,1.5,0.4,1.6,1.2C76.9,91.5,76.1,92.4,74.3,92.3z"/>
<path d="M34.8,94c-0.6,0.1-1.4,0-1.6-0.6c-0.3-0.8,0.3-1.3,1.1-1.9l2-1c0.3-0.1,0.2-0.3,0.1-0.3L33.7,89c-0.8-0.6-1.1-1.4-0.7-2.1
	c0.4-0.8,1.7-1,2.5-0.5l4.5,2.8c0.5,0.3,0.7,0.8,0.7,1.3s-0.3,1-0.8,1.3l-3.8,1.9C35.9,93.8,35,94,34.8,94z"/>
</svg>
