<?xml version="1.0" encoding="utf-8"?>
<!-- Generator: Adobe Illustrator 24.2.0, SVG Export Plug-In . SVG Version: 6.00 Build 0)  -->
<svg version="1.1" id="レイヤー_1" xmlns="http://www.w3.org/2000/svg" xmlns:xlink="http://www.w3.org/1999/xlink" x="0px"
	 y="0px" viewBox="0 0 64 30" style="enable-background:new 0 0 64 30;" xml:space="preserve">
<path d="M52.5,24.5L35.1,15l17.4-9.5c0.7-0.4,1-1.3,0.6-2c-0.4-0.7-1.3-1-2-0.6L32,13.3L13,2.8c-0.7-0.4-1.6-0.1-2,0.6
	c-0.4,0.7-0.1,1.6,0.6,2L28.9,15l-17.4,9.5c-0.7,0.4-1,1.3-0.6,2c0.3,0.5,0.8,0.8,1.3,0.8c0.2,0,0.5-0.1,0.7-0.2l19-10.4l19,10.4
	c0.2,0.1,0.5,0.2,0.7,0.2c0.5,0,1-0.3,1.3-0.8C53.5,25.8,53.2,24.9,52.5,24.5z"/>
</svg>
