<?xml version="1.0" encoding="utf-8"?>
<!-- Generator: Adobe Illustrator 24.2.0, SVG Export Plug-In . SVG Version: 6.00 Build 0)  -->
<svg version="1.1" id="レイヤー_1" xmlns="http://www.w3.org/2000/svg" xmlns:xlink="http://www.w3.org/1999/xlink" x="0px"
	 y="0px" viewBox="0 0 132 16" style="enable-background:new 0 0 132 16;" xml:space="preserve">
<style type="text/css">
	.st0{stroke:#000000;stroke-width:0.2941;}
</style>
<path id="パス_2172" class="st0" d="M5.3,3.3c-0.7,0-1.5-0.1-2.2-0.1c-0.4,0-0.4,0.2-0.4,0.8c0,0.6,0,0.8,0.5,0.8
	c0.7,0,1.4-0.1,2.2-0.1h6.3c0.5,0,0.9-0.1,0.9,0.4c0,0.1,0,0.2,0,0.4c-0.2,1.8-1,3.4-2.1,4.8c-1.5,1.5-3.3,2.6-5.3,3.2
	c-0.2,0.1-0.3,0.1-0.3,0.3c0,0.3,0.5,1.1,0.9,1.1c0.2,0,0.4-0.1,0.6-0.2c1.2-0.5,2.3-1,3.3-1.7c2.6-1.7,4.4-4.5,4.7-7.7
	c0.1-0.8,0.3-0.9,0.3-1s-0.7-1.1-1.2-1.1c0,0-0.9,0-1.5,0L5.3,3.3z M15.5,1c0.5,0,1,0.4,1,0.9c0,0,0,0,0,0c0,0.5-0.4,1-0.9,1
	c0,0,0,0,0,0c-0.5,0-1-0.4-1-0.9c0,0,0,0,0,0C14.5,1.4,14.9,1,15.5,1C15.5,1,15.5,1,15.5,1z M15.5,0.2c-0.9,0-1.7,0.8-1.7,1.7
	c0,0,0,0,0,0c0,0.9,0.8,1.7,1.7,1.7c0,0,0,0,0,0c0.9,0,1.7-0.8,1.7-1.7C17.2,1,16.4,0.2,15.5,0.2z M24.9,5.2c0-0.5,0-1.3,0-1.8
	c0-0.1,0-0.3,0.1-0.4c0.1,0,0.1-0.1,0.1-0.2c0-0.2-0.5-0.3-1.4-0.4c-0.1,0-0.2,0-0.3-0.1c-0.1,0-0.2,0.1-0.2,0.2c0,0,0,0,0,0
	c0,0,0,0.1,0,0.1c0.1,0.6,0.1,1.2,0.1,1.8v6.8c0,0.8-0.1,1.8-0.1,2c0,0.2,0,0.4,0.2,0.5c0.4,0.2,0.8,0.4,1.2,0.6
	c0.2,0,0.3-0.1,0.4-0.2c0.2-0.1,0.4-0.2,0.7-0.3c2.8-1.1,5.4-2.7,7.7-4.5c0.4-0.4,0.9-0.7,1.3-1.1C34.9,8.1,34.9,8,35,7.9
	c0-0.3-0.5-1.1-0.7-1.1c-0.1,0-0.3,0.2-0.4,0.2c-2,1.9-4.4,3.5-7,4.7c-0.5,0.3-1.1,0.5-1.7,0.7c-0.3,0-0.3-0.3-0.3-0.8L24.9,5.2z
	 M44.6,3.2c-0.7,0-1.5,0-2.2,0C42,3.1,42,3.4,42,3.8c0,0.6,0,0.8,0.4,0.8c0.7,0,1.5,0,2.2,0h4.1c0.3,0,0.5,0,0.5,0.3
	c0,0.2-0.1,0.4-0.2,0.5c-2,3.2-4.8,5.7-8.2,7.2c-0.1,0.1-0.3,0.1-0.3,0.3c0,0.3,0.6,1.1,1,1.1c0.2,0,0.4-0.1,0.6-0.2
	c1.4-0.7,2.8-1.6,4-2.6c0.1-0.1,0.2-0.2,0.3-0.3c0.4-0.4,0.7-0.7,0.9-0.7c0.1,0,0.3,0.1,0.4,0.2c1.5,1,2.9,2.2,4.1,3.6
	c0.1,0.1,0.2,0.3,0.4,0.3c0.3,0,1.1-0.8,1.1-1.1c0-0.2-0.7-0.8-0.9-1c-1.1-1-2.2-1.9-3.5-2.7c-0.2-0.1-0.4-0.2-0.4-0.5
	c0-0.1,0.1-0.3,0.2-0.4c0.9-1.1,1.7-2.3,2.4-3.5c0.1-0.3,0.3-0.5,0.5-0.7c0.1-0.1,0.2-0.2,0.2-0.4c0-0.2-0.7-1-1-1
	c-0.1,0-0.2,0-0.4,0c-0.3,0-1,0-1.3,0L44.6,3.2z M70,3.1c0-0.3,0-0.6,0.1-0.9c0.1-0.1,0.1-0.1,0.1-0.2c0-0.2-0.2-0.2-0.4-0.2
	c-0.3,0-1.1-0.1-1.3-0.1c-0.1,0-0.2,0-0.2,0.2c0,0.1,0,0.2,0,0.3c0,0.4,0.1,0.8,0.1,1.2v3.9c0,1.1-0.1,2.2-0.2,3.3
	c-0.3,2.1-1.4,3.1-3.2,4.1c-0.1,0.1-0.5,0.2-0.5,0.4c0,0.3,1,0.9,1.2,0.9c1-0.4,1.9-1.1,2.6-1.9c1.1-1.3,1.7-3,1.6-4.7
	C70,8.5,70,7.8,70,7L70,3.1z M63,3.9c0-0.4,0-0.8,0.1-1.2c0.1-0.1,0.1-0.2,0.2-0.3c0-0.1-0.2-0.2-0.5-0.2c-0.2,0-1.1-0.2-1.3-0.2
	c-0.1,0-0.2,0.1-0.2,0.2c0,0.1,0,0.2,0,0.3c0,0.5,0.1,1,0.1,1.5v3.4c0,0.9,0,1.7,0,2.6c0,0.5,0.2,0.5,0.8,0.5S63,10.4,63,10
	c0-0.9,0-1.7,0-2.6L63,3.9z M89.1,3.1c0-0.3,0-0.6,0.1-0.9c0.1-0.1,0.1-0.1,0.1-0.2c0-0.2-0.2-0.2-0.4-0.2c-0.3,0-1.1-0.1-1.3-0.1
	c-0.1,0-0.2,0-0.2,0.2c0,0.1,0,0.2,0,0.3c0,0.4,0.1,0.8,0.1,1.2v3.9c0,1.1-0.1,2.2-0.2,3.3c-0.3,2.1-1.4,3.1-3.2,4.1
	c-0.1,0.1-0.5,0.2-0.5,0.4c0,0.3,1,0.9,1.2,0.9c1-0.4,1.9-1.1,2.6-1.9c1.1-1.3,1.7-3,1.6-4.7c0-0.8,0.1-1.5,0.1-2.3L89.1,3.1z
	 M82.1,3.9c0-0.4,0-0.8,0.1-1.2c0.1-0.1,0.1-0.2,0.2-0.3c0-0.1-0.2-0.2-0.5-0.2c-0.2,0-1.1-0.2-1.3-0.2c-0.1,0-0.2,0.1-0.2,0.2
	c0,0.1,0,0.2,0,0.3c0,0.5,0.1,1,0.1,1.5v3.4c0,0.9,0,1.7,0,2.6c0,0.5,0.2,0.5,0.8,0.5c0.6,0,0.8-0.1,0.8-0.5c0-0.9,0-1.7,0-2.6
	L82.1,3.9z M99.9,7.3c-0.8,0-1.9-0.1-2.1-0.1c-0.4,0-0.5,0.1-0.5,0.9c0,0.4,0,0.8,0.4,0.8c0.7,0,1.4-0.1,2.2-0.1h8.1
	c0.7,0,1.4,0.1,2.2,0.1c0.4,0,0.4-0.4,0.4-0.8c0-0.7,0-0.9-0.5-0.9c-0.3,0-1.4,0.1-2.1,0.1H99.9z M120.9,3.2c-0.7,0-1.5,0-2.2,0
	c-0.4,0-0.4,0.3-0.4,0.7c0,0.6,0,0.8,0.4,0.8c0.7,0,1.5,0,2.2,0h4.1c0.3,0,0.5,0,0.5,0.3c0,0.2-0.1,0.4-0.2,0.5
	c-2,3.2-4.8,5.7-8.2,7.2c-0.1,0.1-0.3,0.1-0.3,0.3c0,0.3,0.6,1.1,1,1.1c0.2,0,0.4-0.1,0.6-0.2c1.4-0.7,2.8-1.6,4-2.6
	c0.1-0.1,0.2-0.2,0.3-0.3c0.4-0.4,0.7-0.7,0.9-0.7c0.1,0,0.3,0.1,0.4,0.2c1.5,1,2.9,2.2,4.1,3.6c0.1,0.1,0.2,0.3,0.4,0.3
	c0.3,0,1.1-0.8,1.1-1.1c0-0.2-0.7-0.8-0.9-1c-1.1-1-2.2-1.9-3.5-2.7c-0.2-0.1-0.4-0.2-0.4-0.5c0-0.1,0.1-0.3,0.2-0.4
	c0.9-1.1,1.7-2.3,2.4-3.5c0.1-0.3,0.3-0.5,0.5-0.7c0.1-0.1,0.2-0.2,0.2-0.4c0-0.2-0.7-1-1-1c-0.1,0-0.2,0-0.4,0c-0.3,0-1,0-1.3,0
	L120.9,3.2z"/>
</svg>
