<?xml version="1.0" encoding="utf-8"?>
<!-- Generator: Adobe Illustrator 24.2.0, SVG Export Plug-In . SVG Version: 6.00 Build 0)  -->
<svg version="1.1" id="レイヤー_1" xmlns="http://www.w3.org/2000/svg" xmlns:xlink="http://www.w3.org/1999/xlink" x="0px"
	 y="0px" viewBox="0 0 110 16" style="enable-background:new 0 0 110 16;" xml:space="preserve">
<style type="text/css">
	.st0{stroke:#000000;stroke-width:0.3;}
</style>
<path id="パス_2175" class="st0" d="M3.6,3.9c-0.6,0-1.2,0-1.8,0C1,3.9,1,4.1,1,4.6c0,0.3,0,0.6,0,0.9v2.4c0,0.4,0,0.9,0,1.3
	c0,0.4,0.1,0.4,0.7,0.4c0.8,0,0.9,0,0.9-0.5c0-0.3,0-0.9,0-1.3v-2c0-0.3,0.2-0.5,0.5-0.5h7.3c0.4,0,0.9-0.1,0.9,0.5
	c-0.1,1-0.4,2-0.8,3c-0.7,1.6-1.7,2.9-3.1,4c-0.7,0.6-1.5,1.1-2.3,1.5c-0.3,0.1-0.5,0.2-0.5,0.4c0,0.3,0.6,1.1,0.9,1.1
	c0.8-0.3,1.5-0.7,2.1-1.2c3.3-2.3,4.6-4.7,5.3-8.6C13,5.2,13.2,5,13.2,4.8c0-0.3-0.7-0.9-1-0.9c-0.1,0-0.2,0-0.4,0
	c-0.2,0-0.4,0-0.6,0h-3C7.9,4,7.7,3.7,7.7,3.5c0,0,0,0,0,0V2c0-0.5,0-0.7,0.2-0.8C7.9,1.1,8,1,8,0.9c0-0.2-0.5-0.2-0.6-0.2
	c-0.2,0-1-0.1-1.2-0.1C6.1,0.6,6,0.6,6,0.7C6,0.8,6,0.9,6,1c0.1,0.6,0.1,1.1,0.1,1.7v0.8c0,0.3-0.2,0.5-0.5,0.5c0,0,0,0,0,0L3.6,3.9
	z M23.2,2.7c-0.8,0-1.5,0-2.2,0c-0.5,0-0.5,0.2-0.5,0.8c0,0.7,0,0.8,0.5,0.8c0.7,0,1.5,0,2.2,0h6.7c0.4,0,0.6,0,0.6,0.4
	c0,0.1,0,0.3,0,0.4c-0.2,1.8-1,3.5-2.2,4.9c-1.5,1.6-3.4,2.7-5.4,3.3c-0.2,0.1-0.3,0.1-0.3,0.3c0,0.3,0.5,1.1,0.9,1.1
	c0.2,0,0.4-0.1,0.6-0.2c1.2-0.5,2.3-1.1,3.3-1.8c2.7-1.8,4.5-4.7,4.8-7.9c0.1-0.8,0.3-0.9,0.3-1.1c0-0.2-0.6-1-1-1
	c-0.1,0-0.2,0-0.3,0c-0.2,0-0.5,0-0.7,0L23.2,2.7z M42.6,2.7c-0.8,0-1.5,0-2.2,0c-0.5,0-0.5,0.2-0.5,0.8c0,0.7,0,0.8,0.5,0.8
	c0.7,0,1.5,0,2.2,0h6.7c0.4,0,0.6,0,0.6,0.4c0,0.1,0,0.3,0,0.4c-0.2,1.8-1,3.5-2.2,4.9c-1.5,1.6-3.4,2.7-5.4,3.3
	c-0.2,0.1-0.3,0.1-0.3,0.3c0,0.3,0.5,1.1,0.9,1.1c0.2,0,0.4-0.1,0.6-0.2c1.2-0.5,2.3-1.1,3.4-1.8c2.7-1.8,4.5-4.7,4.8-7.9
	c0.1-0.8,0.3-0.9,0.3-1.1c0-0.2-0.6-1-1-1c-0.1,0-0.2,0-0.3,0c-0.2,0-0.5,0-0.7,0L42.6,2.7z M64.8,12.2c-0.3,0-0.9,0.8-0.9,1.1
	c0,0.3,0.6,0.8,0.9,1c1.2,0.6,2.5,0.8,3.8,0.7c0.9,0,1.8-0.1,2.6-0.2c0.2-0.1,0.2-0.4,0.2-0.7c0-0.5,0-0.9-0.3-0.9c0,0-0.1,0-0.1,0
	c-0.8,0.2-1.6,0.4-2.5,0.3c-1.2,0.1-2.4-0.2-3.3-1C65,12.3,64.9,12.2,64.8,12.2z M66.3,7.5c0,0.3,0.1,0.4,0.4,0.4c0.2,0,0.5,0,0.7,0
	c0.9,0,1.9,0.1,2.7,0.4c0.1,0.1,0.2,0.1,0.3,0.1c0.2,0,0.3-0.1,0.3-0.3C70.9,7.9,71,7.5,71,7.2c0-0.1-0.1-0.3-0.2-0.3
	c-1.1-0.3-2.3-0.5-3.4-0.5C66.5,6.4,66.3,6.3,66.3,7.5z M71,0.5c-0.2,0-0.8,0.4-0.8,0.6c0,0.1,0.1,0.2,0.1,0.2
	c0.4,0.4,0.8,0.9,1.2,1.4C71.7,2.9,71.8,3,71.9,3c0.2,0,0.8-0.5,0.8-0.7C72.2,1.7,71.7,1,71,0.5z M64,0.2c-0.2,0-0.2,0.2-0.2,0.4
	C63.7,1.8,63.4,3,63,4.1c-0.1,0.1-0.3,0.2-0.4,0.2c-0.4,0-0.8,0.1-1.2,0.1c-0.8,0-1.5-0.1-1.6-0.1c-0.2,0-0.3,0.1-0.3,0.3
	c0,0.4,0.1,0.7,0.2,1.1c0.1,0.2,0.3,0.2,0.7,0.2c0.7,0,1.6-0.1,1.8-0.1c0.1,0,0.3,0.1,0.3,0.2c0,0,0,0,0,0c0,0.1,0,0.1,0,0.2
	c-0.9,2.6-2,5-3.4,7.4c-0.1,0.1-0.3,0.4-0.3,0.5c0,0.3,0.9,0.8,1.2,0.8s0.4-0.3,0.6-0.7c1.3-2.6,2.5-5.3,3.4-8
	c0.2-0.6,0.2-0.6,0.8-0.7c1-0.2,2-0.4,3-0.7C68,4.5,68,4.3,68,4C68,3.7,68,3,67.7,3c-0.2,0-0.3,0.1-0.5,0.1c-0.5,0.2-1,0.4-1.6,0.5
	c-0.2,0.1-0.4,0.1-0.7,0.2c-0.1,0-0.2-0.1-0.2-0.2c0,0,0,0,0,0c0-0.1,0-0.1,0-0.2l0.3-1c0.3-0.9,0.3-1.1,0.6-1.3
	c0.1-0.1,0.1-0.1,0.1-0.2C65.8,0.7,64,0.2,64,0.2L64,0.2z M69.2,1.6c-0.2,0-0.8,0.4-0.8,0.6c0,0.1,0.1,0.2,0.1,0.3
	c0.4,0.5,0.8,0.9,1.2,1.4C69.9,4,70,4.1,70.1,4.1c0.2,0,0.8-0.4,0.8-0.7C70.4,2.7,69.9,2.1,69.2,1.6z M83,11.2c1,0,1.2,0,1.2,0.9
	c0,1.2-0.7,1.6-1.8,1.6c-0.7,0-2-0.2-2-1.1C80.3,11.4,82.1,11.2,83,11.2z M83.8,0.5c-0.1,0-0.3,0-0.3,0.2c0,0.1,0,0.1,0,0.2
	c0.2,1.8,0.3,3.5,0.3,5.3c0,0.6,0.1,3,0.1,3.2c0,0.4-0.2,0.4-0.4,0.4c-0.2,0-0.5,0-0.7,0c-1.7,0-3.9,0.7-3.9,2.7
	c0,1.8,1.9,2.4,3.5,2.4c0.9,0,1.8-0.2,2.6-0.8c0.5-0.6,0.8-1.3,0.7-2.1c0-0.2,0-0.4,0.3-0.4c0.2,0,0.5,0.1,0.7,0.2
	c0.9,0.3,1.8,0.8,2.7,1.3c0.2,0.1,0.4,0.2,0.6,0.3c0.3,0,0.8-0.9,0.8-1.2c0-0.2-0.4-0.4-0.5-0.5c-1.3-0.7-2.7-1.2-4.1-1.6
	c-0.3-0.1-0.6-0.1-0.6-0.5c-0.1-0.5-0.1-2.6-0.1-3.2c0-0.4,0.1-0.6,0.6-0.6c0.9-0.1,1.9-0.3,2.8-0.5c0.8-0.2,1-0.3,1-0.6
	c0-0.2-0.3-1.2-0.7-1.2c-0.1,0-0.2,0-0.4,0.1c-1,0.4-2,0.6-3,0.7c-0.4,0-0.4-0.2-0.4-0.5V3.3c0-1.5,0.1-1.8,0.3-2
	c0.1-0.1,0.2-0.2,0.2-0.3c0-0.2-0.3-0.3-0.5-0.3C85,0.7,84.1,0.5,83.8,0.5z M108.1,1c-0.2,0-1.3,0.1-1.3,0.5c0,0.1,0,0.1,0,0.2
	c0.5,1.6,0.7,3.2,0.6,4.9c0.1,1.6-0.2,3.2-0.8,4.7c-0.6,1.2-1.4,2.2-2.5,2.9c-0.1,0.1-0.3,0.1-0.3,0.3c0,0.3,0.8,1,1.1,1
	c0.4,0,1.1-0.6,1.4-0.9c2.3-2.3,2.8-4.9,2.8-8.1c0-1.7-0.2-3.4-0.5-5.1C108.5,1.2,108.4,1,108.1,1z M100.4,1.5
	c-0.2,0-0.2,0.3-0.2,0.4c0,0.2-0.1,0.5-0.1,0.7c-0.4,1.4-0.5,2.7-0.6,4.1c0,1.4,0.2,2.8,0.6,4.2c0.1,0.3,0.2,0.6,0.5,0.6
	c0.3,0,1-0.2,1-0.6c0-0.1,0-0.1,0-0.2c0-0.1,0-0.3,0-0.4c0.2-1.2,0.6-2.4,1.1-3.5c0-0.1,0.1-0.2,0.1-0.3c0-0.2-0.4-0.4-0.6-0.4
	c-0.2,0-0.6,1-0.7,1.2c-0.1,0.3-0.2,0.5-0.4,0.5c-0.2,0-0.2-1.1-0.2-1.2c0-0.7,0.1-1.4,0.2-2.1c0.1-0.4,0.4-1.5,0.7-1.7
	c0.1-0.1,0.3-0.2,0.3-0.3c0-0.2-0.4-0.3-0.6-0.4C101.3,1.8,100.8,1.7,100.4,1.5L100.4,1.5z"/>
</svg>
