<?xml version="1.0" encoding="utf-8"?>
<!-- Generator: Adobe Illustrator 24.2.0, SVG Export Plug-In . SVG Version: 6.00 Build 0)  -->
<svg version="1.1" id="レイヤー_1" xmlns="http://www.w3.org/2000/svg" xmlns:xlink="http://www.w3.org/1999/xlink" x="0px"
	 y="0px" viewBox="0 0 132 16" style="enable-background:new 0 0 132 16;" xml:space="preserve">
<style type="text/css">
	.st0{stroke:#000000;stroke-width:0.3;}
</style>
<path id="パス_2173" class="st0" d="M4.7,9c0.1,0,0.2,0.1,0.2,0.2c0,0,0,0,0,0C4.8,9.6,4.6,10,4.4,10.4c-0.3,0.5-0.8,1.5-1.5,1.5
	c-0.4,0-0.6-0.3-0.6-0.7C2.3,10,4,9,4.7,9z M8.5,1.7C8.3,1.7,8.1,1.8,8,1.9C6.6,2.5,5.2,3,3.7,3.2c-0.1,0-0.3,0.1-0.3,0.3
	c0,0.2,0.4,1.3,0.9,1.3c0.2,0,0.3-0.1,0.4-0.1c0.2-0.1,2.7-1,2.7-1c0.1,0,0.2,0.1,0.2,0.2c0,0.1-0.1,0.2-0.1,0.3c-0.5,1-1,2-1.5,3
	C5.9,7.5,5.7,7.5,5.4,7.5c-0.5,0-1,0.1-1.5,0.3C2.3,8.3,1.2,9.7,1,11.3c-0.1,1.1,0.8,2,1.9,2.1c0,0,0.1,0,0.1,0
	c1.5,0,2.1-1.4,2.6-2.5c0.1-0.3,0.3-0.5,0.3-0.7C6.4,9.2,6.6,9,6.9,9c0.8,0.1,1.6,0.3,2.3,0.6C9.8,9.9,10,9.9,10,10.3
	c-0.7,1.6-1.9,3-3.4,3.8c-0.1,0.1-0.3,0.2-0.3,0.3c0,0.3,1,0.9,1.2,0.9c0.3,0,1.5-1.1,1.7-1.4c0.8-0.8,1.5-1.8,2-2.8
	c0.1-0.1,0.2-0.3,0.3-0.3c0.6,0.3,1.2,0.7,1.7,1.1c0.1,0.1,0.3,0.3,0.4,0.3c0.3,0,1-1.1,1-1.4c0-0.2-0.3-0.3-0.4-0.4
	c-0.3-0.1-1.4-0.7-1.7-0.9c-0.2-0.1-0.5-0.3-0.5-0.6c0-0.1,0-0.2,0.1-0.3c0.2-0.6,0.3-1.2,0.4-1.8c0.1-0.4,0.1-0.4,0.3-0.6
	c0.1-0.1,0.1-0.1,0.1-0.2c0-0.2-0.2-0.2-0.3-0.3c-0.2-0.1-1.3-0.3-1.5-0.3c-0.2,0-0.2,0.2-0.2,0.4V6c0,0.7-0.1,1.4-0.3,2.1
	c-0.1,0.2-0.1,0.4-0.4,0.4c-0.1,0-0.2,0-0.3-0.1C9.5,8.2,8.8,7.9,8.1,7.8C7.8,7.7,7.4,7.7,7.4,7.4C8,5.9,8.8,4.6,9.8,3.3
	C9.9,3.2,9.9,3.1,9.9,3C9.9,2.6,8.7,1.7,8.5,1.7z M23.5,4.3c-0.3,0-0.3,0.2-0.3,0.9c0,0.2,0,0.5,0,0.8c-0.1,1.4-0.3,2.7-0.6,4.1
	c-0.1,0.4-0.4,1.5-0.4,1.5c0,0.5,1,0.6,1.1,0.6c0.2,0,0.4-0.2,0.5-0.4c1.2-1.5,3.1-3,5.1-3c1.2-0.1,2.2,0.8,2.3,1.9
	c0,0.1,0,0.1,0,0.2c0,1.7-1.3,2.3-2.7,2.6c-0.8,0.2-1.6,0.3-2.4,0.4c-0.2,0-0.5,0-0.5,0.3c0,0.3,0.1,0.6,0.3,0.9
	c0.1,0.3,0.2,0.4,0.6,0.4c0.5-0.1,0.9-0.1,1.4-0.3c2.3-0.6,4.9-1.5,4.9-4.4c0-2-1.5-3.6-3.5-3.6c-0.1,0-0.2,0-0.3,0
	c-1.7,0.1-3.2,0.8-4.4,1.9c-0.1,0.1-0.1,0.1-0.2,0.1c-0.1,0-0.2-0.1-0.1-0.2c0-0.1,0-0.1,0-0.2c0.2-1,0.4-2,0.5-3
	c0.1-0.5,0.1-0.6,0.4-0.8c0.1,0,0.1-0.1,0.1-0.2c0-0.1-0.2-0.2-0.3-0.2C24.5,4.5,24,4.4,23.5,4.3z M24.7,1.9c0,0.2,0.2,0.3,0.4,0.4
	c0.8,0.4,1.5,0.9,2.2,1.5C27.4,3.8,27.6,4,27.8,4c0.3,0,0.9-0.9,0.9-1.2c0-0.3-0.8-0.7-1-0.9c-0.7-0.5-1.4-0.8-2.1-1.2
	C25.1,0.8,24.7,1.7,24.7,1.9z M49.1,4.6c0,0.1,0.1,0.2,0.1,0.3c1.6,1.2,2.6,3.1,2.7,5.1c0,0.3,0,0.6,0.5,0.6c0.3,0,0.6-0.1,0.9-0.2
	c0.2,0,0.3-0.2,0.3-0.4c0-0.2,0-0.4-0.1-0.6c-0.2-1.3-0.6-2.5-1.3-3.6c-0.6-0.9-1.4-1.6-2.3-2.1C49.5,3.8,49.2,4.2,49.1,4.6z
	 M40.8,3.6c-0.2,0-0.2,0.1-0.2,0.3c0,0.6-0.1,2.1-0.1,2.7c0,2.1,0.2,4.5,1.3,6.2c0.5,1,1.4,1.6,2.5,1.7c0.6,0,1.2-0.3,1.5-0.8
	c0.3-0.3,1.3-1.4,1.3-1.7c0-0.3-0.7-0.9-1-0.9c-0.2,0-0.4,0.3-0.5,0.5c-0.2,0.4-0.8,1.3-1.3,1.3c-0.7,0-1.4-1.2-1.7-1.7
	C42.2,9.7,42,8.4,42,7c0-0.6,0-1.2,0.1-1.7c0.1-0.3,0.1-0.6,0.3-0.8c0.1-0.1,0.2-0.1,0.2-0.3c0-0.2-0.2-0.2-0.3-0.3
	C41.8,3.8,41.3,3.7,40.8,3.6L40.8,3.6z M65,4c0.2,0,0.3,0.2,0.3,0.4c0,1.8-0.4,3.6-1.1,5.3c-0.3,0.8-1.2,2.7-2.2,2.7
	c-1,0-1.3-1.8-1.3-2.6c-0.1-2.4,1.4-4.7,3.7-5.5C64.6,4.1,64.8,4.1,65,4z M66.5,2.4c-4,0-7.3,3.2-7.4,7.3c0,0.1,0,0.1,0,0.2
	c0,0.9,0.2,1.7,0.5,2.5c0.4,0.9,1.3,1.5,2.3,1.6c0.9-0.1,1.7-0.6,2.2-1.3c1.7-2.1,2.4-5.4,2.6-8.1c0-0.3,0-0.7,0.5-0.7
	c0.3,0,0.5,0.1,0.8,0.2c2,0.6,3.3,2.5,3.2,4.6c0,2.5-1.8,4.5-4.3,4.9c-0.2,0-0.4,0.1-0.4,0.3c0,0.3,0.6,1.2,1,1.2
	c0.6-0.1,1.3-0.4,1.9-0.7c2.2-1.1,3.5-3.3,3.5-5.7c0-1.6-0.6-3.2-1.8-4.4C69.9,3,68.2,2.3,66.5,2.4z M85,12.4
	c-0.3,0-0.9,0.8-0.9,1.1c0,0.3,0.6,0.8,0.9,1c1.2,0.6,2.5,0.8,3.8,0.7c0.9,0,1.8-0.1,2.6-0.2c0.2-0.1,0.2-0.4,0.2-0.7
	c0-0.5,0-0.9-0.3-0.9c0,0-0.1,0-0.1,0c-0.8,0.2-1.6,0.4-2.5,0.3c-1.2,0.1-2.4-0.2-3.3-1C85.2,12.6,85.1,12.4,85,12.4z M86.5,7.8
	c0,0.3,0.1,0.4,0.4,0.4c0.2,0,0.5,0,0.7,0c0.9,0,1.9,0.1,2.7,0.4c0.1,0.1,0.2,0.1,0.3,0.1c0.2,0,0.3-0.1,0.3-0.3
	c0.1-0.3,0.2-0.6,0.2-0.9c0-0.1-0.1-0.3-0.2-0.3c-1.1-0.3-2.3-0.5-3.4-0.5C86.7,6.7,86.5,6.6,86.5,7.8z M84.2,0.5
	C84,0.5,84,0.7,84,0.9c-0.1,1.2-0.4,2.3-0.8,3.4c-0.1,0.1-0.3,0.2-0.4,0.2c-0.4,0-0.8,0.1-1.2,0.1c-0.8,0-1.5-0.1-1.6-0.1
	c-0.2,0-0.3,0.1-0.3,0.3c0,0.4,0.1,0.7,0.2,1.1C79.9,6,80.1,6,80.6,6c0.7,0,1.6-0.1,1.8-0.1c0.1,0,0.3,0.1,0.3,0.2c0,0,0,0,0,0
	c0,0.1,0,0.1,0,0.2c-0.9,2.6-2,5-3.4,7.4c-0.1,0.1-0.3,0.4-0.3,0.5c0,0.3,0.9,0.8,1.2,0.8s0.4-0.3,0.6-0.7c1.3-2.6,2.5-5.3,3.4-8
	c0.2-0.6,0.2-0.6,0.8-0.7c1-0.2,2-0.4,3-0.7c0.2-0.1,0.2-0.3,0.2-0.7c0-0.2,0-0.9-0.3-0.9c-0.2,0-0.3,0.1-0.5,0.1
	c-0.5,0.2-1,0.4-1.6,0.5c-0.2,0.1-0.4,0.1-0.7,0.2c-0.1,0-0.2-0.1-0.2-0.2c0,0,0,0,0,0c0-0.1,0-0.1,0-0.2l0.3-1
	c0.3-0.9,0.3-1.1,0.6-1.3C85.9,1.4,86,1.3,86,1.2C86,0.9,84.2,0.5,84.2,0.5z M104.7,5.4c0.1,0,0.3,0.1,0.3,0.2c0,0,0,0,0,0
	c0,0.1,0,0.1,0,0.2c-0.2,1.2-0.6,2.4-1.2,3.5c-0.2,0.3-0.3,0.5-0.4,0.5s-0.3-0.3-0.5-0.7c-0.3-0.8-0.6-1.5-0.9-2.3
	C101.9,6.1,104.2,5.4,104.7,5.4z M100.7,8c0.1,0,0.2,0.1,0.2,0.2c0.4,0.9,0.8,1.9,1.3,2.8c0.1,0.1,0.1,0.2,0.1,0.3
	c0,0.5-1.1,1.2-1.8,1.2c-0.7,0-0.8-1-0.8-1.5C99.6,9.5,100.4,8,100.7,8L100.7,8z M105.5,1.3c-0.2,0-0.2,0.1-0.2,0.3
	c0,0.3,0,0.6,0,0.9c0,1.4-0.1,1.5-0.6,1.5c-0.9,0.1-1.9,0.4-2.7,0.9C101.9,5,101.7,5,101.6,5c-0.2,0-0.2-0.1-0.3-0.3
	c-0.1-0.3-0.4-1.4-0.4-1.8c0-0.2,0-0.4-0.3-0.4c-0.4,0.1-0.7,0.1-1.1,0.3c-0.1,0.1-0.3,0.1-0.3,0.3c0,0.1,0,0.1,0.1,0.2
	c0.2,0.8,0.4,1.6,0.7,2.4c0.1,0.1,0.1,0.3,0.1,0.4c0,0.1-0.1,0.2-0.1,0.3c-1.2,1.2-1.8,2.9-1.8,4.6c0,1.3,0.5,3,2.1,3
	c0.8,0,1.5-0.3,2.1-0.7c1-0.7,1.8-1.6,2.3-2.6c0.9-1.5,1.4-3.1,1.7-4.8c0-0.2,0.1-0.4,0.4-0.4c0.1,0,0.2,0,0.3,0.1
	c1.7,0.5,2.9,1.6,2.9,3.5c0,2.6-2.2,4.1-4.4,4.9c-0.3,0.1-0.5,0.1-0.5,0.3c0,0.3,0.6,1.2,1,1.2c0.6-0.2,1.1-0.4,1.6-0.7
	c2.2-1.2,3.8-3,3.8-5.6c0.1-1.4-0.6-2.8-1.7-3.7c-0.8-0.6-1.6-1-2.6-1.2c-0.3-0.1-0.6-0.1-0.6-0.4c0-0.1,0-0.2,0-0.4
	c0-0.4,0.1-0.7,0.3-1.1c0.1-0.1,0.1-0.2,0.1-0.3c0-0.2-0.1-0.2-0.3-0.3C106.5,1.5,106,1.4,105.5,1.3L105.5,1.3z M123.3,11.1
	c-0.3,0-0.8,1-0.8,1.2s1.2,1.8,4.1,1.8c1.4,0,2.8-0.2,4.2-0.5c0.2-0.1,0.2-0.5,0.2-0.7c0-0.7,0-1-0.3-1c-0.1,0-0.2,0-0.4,0.1
	c-1.3,0.4-2.6,0.6-3.9,0.6c-1.1,0.1-2.2-0.4-2.9-1.3C123.5,11.2,123.4,11.1,123.3,11.1z M123.9,3.3c-0.3,0-0.3,0.4-0.3,0.9
	c0,0.2,0,0.5,0.2,0.6c1,0.2,2,0.4,3,0.4c1.1,0,2.1-0.1,3.1-0.3c0.2-0.1,0.2-0.2,0.2-0.5c0-0.3,0-1-0.3-1c-0.1,0-0.2,0-0.3,0.1
	c-0.9,0.2-1.8,0.3-2.8,0.3c-0.8,0-1.6-0.1-2.4-0.3C124.1,3.3,124,3.3,123.9,3.3L123.9,3.3z M121,2.4c-0.4-0.2-0.9-0.4-1.4-0.5
	c-0.2,0-0.2,0.2-0.2,0.3c-0.1,0.3-0.1,0.6-0.2,0.8c-0.6,1.9-0.9,3.9-1,5.9c-0.1,1.9,0.3,3.7,1.1,5.4c0.1,0.3,0.4,0.9,0.7,0.9
	c0.3,0,1.2-0.4,1.2-0.7c0-0.1,0-0.2,0-0.2c0-0.1-0.1-0.5-0.1-0.6c0.2-0.9,0.4-1.8,0.7-2.6c0-0.2-0.4-0.4-0.5-0.4s-0.3,0.2-0.4,0.5
	c0,0.1-0.1,0.2-0.1,0.3c-0.2,0.4-0.3,0.6-0.4,0.6c-0.5,0-0.6-2.6-0.6-3c0-1.8,0.3-3.5,1-5.2c0.2-0.4,0.3-0.6,0.5-0.8
	c0.2-0.1,0.3-0.1,0.3-0.2c0-0.1-0.1-0.2-0.3-0.3C121.2,2.5,121.1,2.5,121,2.4L121,2.4z"/>
</svg>
