<?xml version="1.0" encoding="utf-8"?>
<!-- Generator: Adobe Illustrator 24.2.0, SVG Export Plug-In . SVG Version: 6.00 Build 0)  -->
<svg version="1.1" id="レイヤー_1" xmlns="http://www.w3.org/2000/svg" xmlns:xlink="http://www.w3.org/1999/xlink" x="0px"
	 y="0px" viewBox="0 0 16 24" style="enable-background:new 0 0 16 24;" xml:space="preserve">
<style type="text/css">
	.st0{fill:#B99C78;}
</style>
<path id="パス_508" class="st0" d="M15.8,7.2c0-0.8-0.2-1.7-0.4-2.5c-0.2-0.9-0.6-1.8-1.2-2.5C14,2,13.8,1.8,13.5,1.7
	c-0.2-0.1-0.5-0.2-0.8-0.3C12.4,1.2,12,1.1,11.6,1c-0.5-0.1-0.9-0.1-1.4-0.1h-0.1C9.7,0.9,9.4,0.9,9,1C8.7,1,8.4,1,8.1,1.1
	c-0.2,0-0.4,0.1-0.6,0.2c-0.2,0-0.4,0.1-0.6,0.3C6.6,1.7,6.4,2,6.2,2.2C6,2.6,5.8,3,5.6,3.4C5.5,3.8,5.4,4.2,5.3,4.5
	C5.1,5.4,5,6.3,5,7.1C5,7.6,5,8,5,8.4C4.5,8.3,4,8.3,3.5,8.2l0,0C3.4,8.4,3.2,8.4,3.1,8.4C2.9,8.6,2.8,8.7,2.6,8.7s-0.4,0-0.5,0
	c-0.2,0-0.4,0-0.6,0c-0.5,0-0.9,0-1.4,0.1c0,0.4,0.1,0.8,0.1,1.3c0,0.1,0,0.2,0,0.3s0,0.1,0,0.2c0,0.1,0,0.1,0,0.1v0.2
	c0,0.1,0,0.1,0,0.2c0,0.1,0,0.1,0,0.2c0.1,0.1,0.2,0.3,0.2,0.5c0,0.3,0,0.6,0,0.8v0.1c0.3,0,0.7,0,1,0h0.9c0.3,0,0.7,0,1,0.1
	c0.2,0,0.3,0.1,0.5,0.1S4.1,13,4.3,13l0,0h0.4c0.1,0,0.3,0.1,0.4,0.1c0,0.7,0.1,1.4,0.1,2c0,0.5,0,1,0,1.5c0,0.6,0.1,1.1,0.2,1.7
	c0.1,0.4,0.1,0.8,0.1,1.3S5.4,20.5,5.4,21c0,0.2-0.1,0.4-0.1,0.6s-0.1,0.5-0.1,0.7c0,0.3,0,0.6,0.2,0.9c0.1,0,0.3,0,0.4,0
	C6.4,23,6.8,23,7.2,23c0.7-0.1,1.4-0.1,2.1-0.2c0.2,0,0.3,0,0.5,0v-0.1c0-0.2,0-0.4,0-0.6c0-0.4-0.1-0.8-0.1-1.2c0-0.4,0-0.8,0-1.2
	c-0.1-0.9-0.2-1.7-0.2-2.6c0-0.4,0-0.8-0.1-1.2c0-0.4,0-0.9,0-1.3c0-0.2,0-0.5,0-0.7l0,0c-0.1-0.2-0.1-0.3-0.1-0.5s0.2-0.3,0.3-0.4
	c0.1-0.1,0.2-0.1,0.3-0.1s0.3,0,0.4,0c0.2,0,0.3,0,0.5,0h0.3c0-0.1,0-0.1,0-0.2c0-0.1,0-0.2,0.1-0.3c0.1-0.3,0.1-0.6,0.1-0.9
	c0.1-0.6,0.1-1.1,0-1.7c0-0.2,0-0.3-0.1-0.5V9.2C11.1,9,11.1,9,11,9s-0.2,0-0.2,0s0,0-0.1,0h-0.2c-0.1,0-0.2,0-0.3,0
	C10.1,9.1,10,9,9.9,9C9.8,9,9.8,9,9.7,9C9.5,9,9.3,8.9,9.1,8.8C9,8.6,8.9,8.4,8.9,8.2s0-0.3,0-0.5C9,7.5,9,7.2,9.1,7
	c0-0.2,0.1-0.3,0.1-0.5c0-0.1,0.1-0.3,0.2-0.4l0,0c0-0.3,0.1-0.6,0.2-0.9C9.7,5,9.8,5,9.9,4.9c0.1,0,0.3,0,0.4,0
	c0.2,0,0.4,0.1,0.6,0.1c0.2,0.1,0.4,0.2,0.6,0.3c0.1,0.1,0.2,0.2,0.3,0.3c0,0,0,0.1,0.1,0.1l0,0c0,0,0,0,0.1,0.1
	c0,0.2,0,0.3,0.1,0.3c0.1,0.1,0.2,0.2,0.2,0.4c0.2,0.3,0.3,0.6,0.4,0.8c0.1,0.3,0.2,0.5,0.2,0.8c0,0.1,0,0.2,0.1,0.3l0,0h0.2
	c0.1,0,0.1-0.1,0.2-0.1c0.1,0,0.2,0,0.3,0H14c0.2,0,0.4-0.1,0.6-0.1c0.2,0,0.4,0,0.6-0.1c0.1,0,0.2,0,0.3,0s0.2,0,0.3,0.1
	c0.1-0.1,0.1-0.3,0.1-0.5C15.9,7.5,15.8,7.3,15.8,7.2z"/>
</svg>
