<?xml version="1.0" encoding="utf-8"?>
<!-- Generator: Adobe Illustrator 24.2.0, SVG Export Plug-In . SVG Version: 6.00 Build 0)  -->
<svg version="1.1" id="レイヤー_1" xmlns="http://www.w3.org/2000/svg" xmlns:xlink="http://www.w3.org/1999/xlink" x="0px"
	 y="0px" viewBox="0 0 24 24" style="enable-background:new 0 0 24 24;" xml:space="preserve">
<g id="グループ_324" transform="translate(0 0)">
	<path id="パス_509" d="M23.5,20.2c0-0.4,0-0.8,0-1.2s0-0.8,0-1.2c0-1.7,0-3.4-0.2-5c-0.1-0.7-0.2-1.3-0.3-2c0,0,0-0.1,0-0.1
		c0-0.6-0.1-1.2-0.2-1.8c-0.1-1.3-0.2-2.7-0.4-4c-0.1-0.4-0.2-0.9-0.3-1.3c-0.1-0.4-0.2-0.8-0.3-1.2c0-0.2-0.1-0.3-0.2-0.5
		c0-0.1,0-0.3-0.1-0.4c0-0.2-0.1-0.5-0.2-0.7c-0.1-0.1-0.2-0.2-0.3-0.3c-0.1-0.1-0.2-0.1-0.3-0.2c-0.2,0-0.3-0.1-0.5-0.1
		c-0.1,0-0.1,0-0.2,0c-0.2,0-0.4,0-0.6,0c-0.1,0-0.1,0-0.2,0c-0.3,0-0.7,0-1,0.1c-0.5,0-0.9,0.1-1.4,0.1c-0.5,0.1-1,0.1-1.5,0.2
		c-0.8,0.1-1.5,0.2-2.3,0.2c-0.4,0-0.8,0-1.2,0c-0.4,0-0.8,0-1.2,0C9.7,0.9,8.9,0.9,8,1C7.6,1,7.2,1.1,6.7,1.1c-0.4,0-0.8,0-1.2,0.1
		c-0.5,0-1,0.1-1.4,0.1C3.5,1.3,3,1.3,2.4,1.4l0.2,0c-0.2,0-0.4,0-0.6,0.1c-0.1,0-0.2,0-0.2,0l-0.2,0c0,0,0,0.1,0,0.1
		c0,0.3,0,0.5,0,0.8c0,0.2,0,0.4,0,0.6c0,0,0,0,0,0.1c0,0,0,0.1,0,0.1c0.1,0,0.3,0,0.4,0C2.2,3.1,2.4,3,2.5,3l0.2,0
		c0.2,0,0.4,0,0.7-0.1C3.5,3,3.6,3,3.8,3C4.2,3,4.6,3,5,3h0.4C5.7,3,6,3,6.3,3C7.2,3,8,2.9,8.9,2.9c0.8-0.1,1.7-0.1,2.5-0.1
		c0.7,0,1.4,0,2.1,0H14c1.2,0,2.3,0,3.5-0.1c0.5,0,1.1,0,1.6,0c0.2,0,0.5,0,0.7,0c0.1,0,0.2,0,0.2,0c0,0.3,0.1,0.6,0.1,0.8
		c0.1,0.3,0.2,0.7,0.3,1c0.1,0.3,0.1,0.6,0.2,0.9c0.1,0.8,0.2,1.7,0.3,2.5C21,8.2,21.1,8.6,21.1,9v0c0.1,0.6,0.1,1.2,0.2,1.8l0,0
		c0,0.1,0,0.2,0,0.4c0,0.5,0,0.9,0,1.4c0,0.8-0.1,1.7-0.1,2.5c0,0.9-0.1,1.8-0.1,2.8c0,0.8,0,1.7-0.1,2.5c-0.3,0.1-0.6,0.1-0.9,0.2
		c-0.4,0.1-0.9,0.1-1.3,0.2c-0.4,0.1-0.8,0.1-1.3,0.2h0c-0.5,0.1-1,0.1-1.5,0.2c-0.4,0-0.7,0.1-1.1,0.1c-0.4,0-0.8,0-1.2,0
		c-0.8,0-1.7,0.1-2.5,0.1c-0.9,0-1.7,0.1-2.6,0.1c-0.9,0-1.7,0-2.6,0c-0.4,0-0.7,0-1.1-0.1c-0.3,0-0.6-0.1-0.9-0.2
		C4,21,4,20.9,3.9,20.7c-0.1-0.2-0.1-0.4-0.2-0.6c0-0.2-0.1-0.3-0.1-0.5c-0.1-0.7-0.2-1.5-0.2-2.2c-0.1-0.8-0.1-1.6-0.2-2.4
		c0-0.4,0-0.8,0-1.3c0-0.4,0-0.8-0.1-1.2c0-0.4,0-0.9,0-1.3C3.1,10.8,3,10.4,3,10C2.9,9.2,2.8,8.4,2.6,7.5C2.5,7.1,2.4,6.7,2.3,6.2
		l0-0.1c0-0.2,0-0.4,0-0.5l0-0.1C2.2,5.5,2.2,5.4,2.1,5.3l0,0l0,0C2,5.2,1.9,5.1,1.8,5c-0.1,0-0.2,0.1-0.4,0.1
		c-0.1,0-0.3,0.1-0.4,0.1C0.9,5.3,0.7,5.3,0.5,5.4c0,0.1,0,0.1,0,0.2c0,0,0,0,0,0c0,0.6,0.1,1.2,0.2,1.7c0,0.5,0,1.1,0,1.6v1.8
		c0,0.3,0,0.6,0,0.9c0,0.3,0,0.5,0.1,0.8c0,0.3,0.1,0.7,0.1,1c0,0.6,0,1.1,0,1.7c0,0.8,0.1,1.7,0.1,2.5c0,0.3,0.1,0.5,0.1,0.8
		c0,0.2,0,0.3,0.1,0.5l0-0.2c0,0.4,0.1,0.7,0.1,1.1s0.1,0.8,0.1,1.1c0,0.4,0.1,0.7,0.1,1.1c0,0.1,0,0.3,0.1,0.4c0,0.1,0,0.2,0.1,0.3
		c0.1,0.2,0.1,0.3,0.3,0.5c0.2,0.2,0.5,0.4,0.9,0.4c0.4,0.1,0.8,0.2,1.3,0.2c0.3,0,0.7,0,1,0c0.8,0,1.6-0.2,2.4-0.3
		c0.8-0.1,1.5-0.2,2.3-0.2c0.6,0,1.2,0,1.7,0c0.2,0,0.5,0,0.7,0c0.9,0,1.7,0,2.6,0c0.4,0,0.8,0,1.3-0.1c0.5,0,0.9-0.1,1.3-0.2
		c0.5-0.1,0.9-0.2,1.4-0.2c0.4-0.1,0.9-0.1,1.3-0.2c0.5-0.1,1-0.1,1.6-0.2l0.5-0.1l-0.1,0c0.2,0,0.3,0,0.5-0.1
		c0.2,0,0.4-0.1,0.6-0.3c0.2-0.2,0.3-0.5,0.3-0.8c0-0.2,0-0.3,0-0.5C23.5,20.5,23.5,20.4,23.5,20.2z"/>
	<path id="パス_510" d="M16.3,6.3L16.3,6.3c0.1,0.2,0.3,0.4,0.5,0.5c0.2,0.1,0.4,0.2,0.6,0.1l0,0c0.1,0.1,0.2,0.2,0.4,0.2
		c0.2,0.1,0.4,0,0.6-0.1c0.1-0.1,0.3-0.2,0.3-0.3c0.2-0.2,0.2-0.5,0.1-0.8l0-0.1c0-0.1-0.1-0.2-0.1-0.4c-0.1-0.4-0.3-0.7-0.6-1
		c-0.1-0.1-0.1-0.1-0.2-0.2c-0.2-0.1-0.4-0.2-0.6-0.2h0c-0.4,0-0.8,0.2-1,0.5c-0.3,0.3-0.4,0.7-0.3,1.1C16,5.9,16.2,6.1,16.3,6.3z"
		/>
	<path id="パス_511" d="M14.4,7.3c-0.6-0.1-1.2-0.2-1.7-0.2c0,0-0.1,0-0.1,0c-0.1,0-0.2,0-0.3,0.1c-0.1,0-0.2,0.1-0.3,0.2
		c-0.2,0.1-0.4,0.2-0.6,0.4C11.1,7.7,11,7.8,10.8,8l-0.3,0c-0.4,0.1-0.7,0.2-1.1,0.3C9.3,8.4,9.1,8.6,8.9,8.8
		C8.8,8.8,8.7,8.9,8.7,8.9C8.6,9,8.5,9.1,8.4,9.2C8.2,9.4,8.1,9.6,7.9,9.8c-0.2,0.3-0.4,0.7-0.6,1.1c-0.2,0.4-0.3,0.9-0.4,1.3
		c-0.1,0.3-0.1,0.7,0,1C7,13.4,7.1,13.7,7.2,14c0.1,0.2,0.2,0.3,0.3,0.4c0.1,0.2,0.2,0.3,0.4,0.5c0.2,0.2,0.5,0.5,0.7,0.7
		C8.8,15.7,9,15.8,9.2,16c0.2,0.1,0.5,0.2,0.7,0.3c0.1,0,0.3,0.1,0.4,0.1c0.5,0.3,1,0.4,1.6,0.3c0.4,0,0.8,0,1.3-0.1
		c0.2,0,0.4-0.1,0.6-0.1c0.3-0.1,0.6-0.3,0.8-0.5c0.1-0.1,0.1-0.1,0.2-0.2h0c0.1,0,0.1,0,0.2-0.1l0.2-0.1c0.3-0.1,0.5-0.2,0.8-0.3
		c0.2-0.1,0.4-0.1,0.6-0.2c0.2-0.1,0.3-0.2,0.5-0.3c0.3-0.4,0.5-0.8,0.5-1.3c0-0.4,0-0.7,0-1.1c0-0.5-0.1-0.9-0.2-1.4
		c-0.1-0.4-0.3-0.7-0.4-1c-0.2-0.3-0.3-0.6-0.5-0.9c-0.2-0.4-0.5-0.7-0.8-1C15.3,7.7,14.9,7.4,14.4,7.3z M14.3,9
		c0.1,0.1,0.2,0.2,0.3,0.3c0.1,0.2,0.3,0.4,0.4,0.6C14.7,9.6,14.5,9.3,14.3,9c-0.2,0-0.2-0.1-0.3-0.1c0.1,0,0.1,0,0.2,0
		C14.2,9,14.2,9,14.3,9L14.3,9z M13.6,14c-0.1,0.1-0.3,0.2-0.5,0.3c-0.2,0.1-0.3,0.2-0.5,0.2c-0.2,0-0.4,0.1-0.5,0
		c-0.1,0-0.2,0-0.3,0s-0.2,0-0.3,0c-0.4-0.1-0.7-0.2-1-0.3c-0.3-0.1-0.6-0.3-0.8-0.5c-0.1,0-0.1-0.1-0.2-0.2c0,0,0-0.1-0.1-0.1
		c-0.1-0.2-0.1-0.5-0.2-0.7c0-0.2,0-0.4,0-0.5c0-0.2,0.1-0.5,0.2-0.7c0.1-0.3,0.3-0.5,0.4-0.8c0.1-0.1,0.1-0.1,0.2-0.2
		c0.1-0.1,0.1-0.2,0.2-0.3c0.1,0,0.3,0,0.5,0c0.2-0.1,0.4-0.2,0.5-0.4c0.1-0.1,0.1-0.2,0.2-0.3c0.1-0.1,0.1-0.1,0.2-0.2
		c0,0,0.1,0,0.1,0c0.1,0,0.1,0,0.2,0c0.3,0,0.5,0,0.7,0.1c0.2,0.1,0.3,0.1,0.5,0.2c0.1,0,0.1,0.1,0.2,0.1c0.2,0.1,0.3,0.2,0.4,0.4
		c0.3,0.3,0.5,0.6,0.6,1c0.1,0.2,0.1,0.5,0.1,0.7c0,0.3,0,0.7-0.2,1C14.1,13.4,13.9,13.7,13.6,14L13.6,14z M15.9,12.8
		c0,0.3,0,0.5,0,0.8v0l0,0c0,0-0.1,0-0.1,0l-0.1,0c0-0.1,0-0.2,0-0.3c0-0.4,0-0.7,0-1.1c0-0.2-0.1-0.5-0.1-0.7
		c0-0.1-0.1-0.2-0.1-0.3c0-0.3-0.1-0.5-0.2-0.7c0.1,0.2,0.2,0.4,0.3,0.6c0.1,0.3,0.2,0.5,0.2,0.8C15.9,12.2,15.9,12.5,15.9,12.8
		L15.9,12.8z"/>
</g>
</svg>
