<?xml version="1.0" encoding="utf-8"?>
<!-- Generator: Adobe Illustrator 24.2.0, SVG Export Plug-In . SVG Version: 6.00 Build 0)  -->
<svg version="1.1" id="レイヤー_1" xmlns="http://www.w3.org/2000/svg" xmlns:xlink="http://www.w3.org/1999/xlink" x="0px"
	 y="0px" viewBox="0 0 112 16" style="enable-background:new 0 0 112 16;" xml:space="preserve">
<style type="text/css">
	.st0{stroke:#000000;stroke-width:0.3;}
</style>
<path id="パス_2180" class="st0" d="M3.2,1.5c0,0.1,0,0.1,0.1,0.2C3.4,2.1,3.5,2.6,3.6,3c0.2,0.8,0.6,2.5,0.9,3.2
	c0,0.1,0.1,0.2,0.1,0.3c0,0.2-0.1,0.3-0.3,0.5C2.8,8,1,9.2,1,11.2c0,1.1,0.6,2.1,1.6,2.6c1.1,0.6,2.3,0.9,3.6,0.8
	c1.7,0,3.3-0.1,5-0.3c0.3-0.1,0.3-0.3,0.3-0.7c0-0.4,0-1-0.2-1c-0.1,0-0.1,0-0.2,0c-1.6,0.3-3.1,0.4-4.7,0.4c-1,0.1-2.1-0.1-3-0.6
	c-0.4-0.2-0.7-0.7-0.8-1.2c0-1.5,2.1-2.8,3.3-3.4c1.7-1,3.5-1.9,5.4-2.6c0.1,0,0.3-0.1,0.3-0.3c0-0.2-0.7-1.5-1-1.5
	c-0.2,0-0.3,0.1-0.5,0.2C8.9,4.4,7.6,5.1,6.3,5.8C6,5.8,6,5.5,5.9,5.3C5.6,4.1,5.4,2.9,5.2,1.7c0-0.4,0-0.6-0.5-0.6
	c-0.2,0-0.4,0-0.6,0.1C3.7,1.2,3.2,1.2,3.2,1.5z M26,0.8c-0.1,0-0.3,0.4-0.4,0.5c-0.2,0.3-0.3,0.6-0.5,0.9c-1.4,2-2.7,4.2-3.8,6.4
	c-0.7,1.5-1.4,3-2.1,4.5c0,0-0.3,0.7-0.3,0.8c0,0.3,1.2,0.7,1.4,0.7c0.2,0,0.3-0.1,0.3-0.3c0.3-1.2,0.8-2.4,1.4-3.5
	c0.5-0.7,1.1-1.4,1.8-1.8C24.5,8.3,25.2,8,26,7.9c0.6,0,0.8,0.4,0.8,1c0,0.5-0.1,1-0.2,1.5c-0.1,0.7-0.2,1.4-0.3,2.1
	c0,1.1,0.5,2.1,1.7,2.1c1.3,0,2.5-1,3.4-1.8c0.4-0.4,0.8-0.8,1.3-1.2c0.1-0.1,0.2-0.2,0.2-0.4c0-0.2-0.5-1.4-0.8-1.4
	c-0.1,0-0.2,0.1-0.3,0.2c-0.6,0.9-2.3,3-3.4,3c-0.4,0-0.5-0.5-0.5-0.8c0-0.6,0.1-1.3,0.3-1.9c0.1-0.6,0.2-1.2,0.2-1.8
	c0-0.5-0.1-0.9-0.4-1.3c-0.4-0.5-1-0.7-1.6-0.7c-0.9,0.1-1.7,0.4-2.4,0.9c-0.1,0.1-0.2,0.1-0.3,0.2c-0.1,0-0.1-0.1-0.1-0.1
	c0,0,0,0,0,0c0.5-0.9,1-1.9,1.7-2.7c0.5-0.7,1-1.4,1.5-2c0.1-0.2,0.3-0.3,0.5-0.3c0.2,0,0.3-0.1,0.3-0.3c0-0.2-0.5-0.6-0.7-0.7
	S26.1,0.8,26,0.8L26,0.8z M43.7,1.5c-0.3,0-0.7,1-0.7,1.2c0,0.2,0.2,0.3,0.5,0.3c0.6,0.2,1.2,0.3,1.7,0.6c0.3,0.1,0.5,0.2,0.8,0.3
	c0.4,0,0.7-0.8,0.7-1c0-0.3-0.5-0.4-1-0.6C45.1,1.9,44.4,1.7,43.7,1.5L43.7,1.5z M39.4,10.2c0.1,0,0.3-0.1,0.4-0.2
	c0.6-0.6,1.3-1.1,2.1-1.5c0.3,0,0.4,0.2,0.5,0.4c1,1.8,1.9,3.6,2.9,5.4c0.2,0.3,0.3,0.6,0.5,0.6c0.3,0,1.3-0.5,1.3-0.8
	c-0.1-0.3-0.2-0.5-0.4-0.7c-0.5-0.7-3.3-5.3-3.3-5.8c0-0.2,0.2-0.3,0.4-0.4c1.3-0.8,3.4-2,5-2c1,0,1.9,0.5,1.9,1.6
	c0,1.7-2.2,2.3-3.6,2.6c-0.3,0.1-0.6,0.1-0.6,0.3c0,0.2,0.4,1.2,0.8,1.2c0.2,0,0.4-0.1,0.7-0.1c2-0.5,4.2-1.6,4.2-4c0-2-1.4-3-3.3-3
	c-2.1,0-4,1.1-5.7,2.1C43,6,42.8,6.1,42.7,6.1c-0.2,0-0.3-0.2-0.4-0.4c-0.3-0.6-0.6-1.3-0.8-1.9c0,0,0-0.1,0-0.1c0-0.1,0-0.1,0-0.2
	c0-0.1-0.1-0.2-0.2-0.2c0,0,0,0,0,0c-0.3,0.1-0.6,0.2-0.9,0.3c-0.4,0.1-0.9,0.3-0.9,0.5c0,0.1,0.1,0.2,0.2,0.3
	c0.5,0.6,0.9,1.3,1.2,2c0.1,0.2,0.2,0.3,0.2,0.5c0,0.3-0.3,0.4-0.5,0.6c-0.4,0.3-1.5,1-1.8,1.2c-0.2,0.1-0.4,0.2-0.4,0.4
	C38.5,9.3,39.1,10.2,39.4,10.2z M64,0.7c-0.2,0-1.4,0.3-1.4,0.5c0,0.1,0.1,0.2,0.2,0.3c0.6,0.7,1,1.6,1.4,2.4c0,0.2-0.2,0.3-0.3,0.3
	c-1.1,0.3-2.2,0.4-3.3,0.4c-0.1,0-0.2,0-0.3,0c-0.5,0-0.6,0-0.6,0.3c0,0.3,0.1,0.6,0.3,0.9c0.1,0.3,0.2,0.4,0.5,0.4
	c1.5-0.1,2.9-0.3,4.4-0.7c0.1,0,0.2,0,0.2,0c0.3,0,0.4,0.1,0.5,0.4c0.5,0.9,1,1.7,1.5,2.5c0.1,0.1,0.2,0.3,0.2,0.4
	c0,0.1-0.1,0.1-0.1,0.1c0,0,0,0,0,0c-0.1,0-0.1,0-0.2-0.1c-0.9-0.4-1.8-0.7-2.8-0.7c-2,0-3.7,1.2-3.7,3.3c0,2.1,1.7,3.1,3.5,3.5
	c1,0.2,2,0.4,3,0.4c0.2,0,0.8,0.1,0.8-1.2c0-0.3-0.1-0.4-0.3-0.4c-0.2,0-0.6,0-1,0c-1.5,0-4.4-0.4-4.4-2.4c0.1-1.1,1-1.9,2.1-1.8
	c0,0,0.1,0,0.1,0c1.5,0.1,3,0.6,4.2,1.5c0.2,0.1,0.5,0.4,0.8,0.4c0.3,0,1-0.6,1-1c0-0.2-0.2-0.3-0.3-0.5c-1-1.2-1.9-2.5-2.6-3.9
	c-0.2-0.3-0.3-0.6-0.4-0.9c0-0.3,0.2-0.3,0.4-0.4c0.4-0.1,2.4-1,2.4-1.3c0-0.3-0.6-1.1-0.9-1.1c-0.2,0-0.3,0.1-0.5,0.2
	c-0.7,0.4-1.4,0.8-2.1,1c-0.3,0-0.4-0.2-0.5-0.4c-0.2-0.4-1-1.9-1.2-2.2C64.3,0.7,64.1,0.7,64,0.7z M84.3,0.8
	c-0.1,0-0.3,0.4-0.4,0.5c-0.2,0.3-0.3,0.6-0.5,0.9c-1.4,2-2.7,4.2-3.8,6.4c-0.7,1.5-1.4,3-2.1,4.5c0,0-0.3,0.7-0.3,0.8
	c0,0.3,1.2,0.7,1.4,0.7c0.2,0,0.3-0.1,0.3-0.3c0.3-1.2,0.8-2.4,1.4-3.5c0.5-0.7,1.1-1.4,1.8-1.8c0.6-0.5,1.4-0.8,2.2-0.8
	c0.6,0,0.8,0.4,0.8,1c0,0.5-0.1,1-0.2,1.5c-0.1,0.7-0.2,1.4-0.3,2.1c0,1.1,0.5,2.1,1.7,2.1c1.3,0,2.5-1,3.4-1.8
	c0.4-0.4,0.8-0.8,1.3-1.2c0.1-0.1,0.2-0.2,0.2-0.4c0-0.2-0.5-1.4-0.8-1.4c-0.1,0-0.2,0.1-0.3,0.2c-0.6,0.9-2.3,3-3.4,3
	c-0.4,0-0.5-0.5-0.5-0.8c0-0.6,0.1-1.3,0.3-1.9c0.1-0.6,0.2-1.2,0.2-1.8c0-0.5-0.1-0.9-0.4-1.3c-0.4-0.5-1-0.7-1.6-0.7
	c-0.9,0.1-1.7,0.4-2.4,0.9c-0.1,0.1-0.2,0.1-0.3,0.2c-0.1,0-0.1-0.1-0.1-0.1c0,0,0,0,0,0c0.5-0.9,1-1.9,1.6-2.7c0.5-0.7,1-1.4,1.5-2
	c0.1-0.2,0.3-0.3,0.5-0.3c0.2,0,0.3-0.1,0.3-0.3c0-0.2-0.5-0.6-0.7-0.7S84.5,0.8,84.3,0.8L84.3,0.8z M102.4,4.4
	c-0.9,0-1.7,0.8-2.4,1.4c-0.9,0.8-1.8,1.5-2.8,2.1c-0.2,0.1-0.6,0.3-0.6,0.4c0,0.3,0.9,1.4,1.2,1.4c0.1,0,0.3-0.2,0.4-0.3
	c0.7-0.7,1.4-1.3,2.1-2c0.3-0.3,1-0.9,1.3-1.1c0.2-0.2,0.4-0.3,0.6-0.3c0.6,0,1.5,1.3,1.9,1.7c1.3,1.5,2.7,2.9,4.2,4.1
	c0.4,0.3,0.9,0.6,1.4,0.8c0.4,0,1.1-1.1,1.1-1.3c0-0.2-0.2-0.3-0.3-0.3c-2.2-1.2-4.1-2.8-5.7-4.8C104.3,5.4,103.5,4.4,102.4,4.4
	L102.4,4.4z"/>
</svg>
