<?xml version="1.0" encoding="utf-8"?>
<!-- Generator: Adobe Illustrator 24.2.0, SVG Export Plug-In . SVG Version: 6.00 Build 0)  -->
<svg version="1.1" id="レイヤー_1" xmlns="http://www.w3.org/2000/svg" xmlns:xlink="http://www.w3.org/1999/xlink" x="0px"
	 y="0px" viewBox="0 0 93 16" style="enable-background:new 0 0 93 16;" xml:space="preserve">
<style type="text/css">
	.st0{stroke:#000000;stroke-width:0.3;}
</style>
<path id="パス_2121" class="st0" d="M11.8,4C11.6,4,11,4.6,11,4.9c0,0.2,0.2,0.3,0.3,0.4c0.8,0.6,1.6,1.3,2.3,2
	c0.1,0.1,0.2,0.2,0.4,0.2c0.3,0,0.9-0.7,0.9-1c-0.3-0.3-0.6-0.7-0.9-0.9c-0.5-0.4-1.4-1.1-1.8-1.4C12.1,4,12,4,11.8,4z M4.9,11.9
	c0,0.3,0.1,0.9,0.1,1c0,0.1,0,0.1-0.1,0.1c-0.1,0-0.2-0.1-0.3-0.2c-0.2-0.1-0.8-0.6-1-0.6c-0.2,0-0.3,0.1-0.3,0.3
	c0,0.1,0.1,0.2,0.2,0.3c0.5,0.4,0.8,0.9,1.1,1.4C4.7,14.7,4.8,15,5.2,15c0.4,0,1.3-0.3,1.3-1.2c0-0.1-0.1-1.9-0.2-2.2
	c0-0.3-0.1-1-0.1-1.3c0-0.2,0.1-0.4,0.2-0.5c1.1-0.6,2.3-1,3.5-1c1.1,0,2.4,0.6,2.4,1.9c0,1.5-1.6,1.9-2.8,1.9c-0.5,0-1-0.1-1.5-0.2
	c-0.2,0-0.3,0.2-0.3,0.3c0,0.4,0.1,0.8,0.3,1.1c0.1,0.1,0.4,0.1,0.7,0.1c1.3,0.1,2.6-0.2,3.7-0.7c0.9-0.5,1.5-1.5,1.4-2.6
	c0-2.1-1.9-3.3-3.8-3.3C9,7.5,7.9,7.8,6.9,8.2C6.8,8.3,6.6,8.3,6.5,8.4C6.3,8.4,6.3,8,6.3,7.7C6.3,6.1,6.2,6,7,5.9
	c1.5-0.3,1.7-0.3,1.7-0.7C8.7,4.9,8.7,4,8.3,4C8.2,4,8.1,4.1,8,4.1C7.6,4.2,7.1,4.4,6.7,4.4c-0.1,0-0.3-0.1-0.3-0.2c0,0,0,0,0,0V4
	c0-0.2,0-0.3,0-0.5c0-0.4,0.1-0.8,0.3-1.2C6.9,2.3,7,2.2,7,2.1c0-0.1-0.2-0.2-0.3-0.2C6.4,1.8,5.4,1.6,5.2,1.6
	C5,1.6,4.9,1.7,4.9,1.8c0,0,0,0,0,0c0,0.1,0,0.1,0,0.2c0,0.2,0,0.4,0,0.6c0,0.2-0.1,1.8-0.1,1.9C4.9,4.8,4.6,4.9,4.4,4.9
	C3.7,5,3,5.1,2.4,5.1C2,5.1,2,5.1,2,5.6c0,1.1,0.3,1.1,0.5,1.1c0.2,0,0.3,0,0.5-0.1c0.2,0,1.5-0.3,1.6-0.3c0.3,0,0.4,0.2,0.4,0.4
	c0,0.7,0,1.3,0,2c0,0.5-0.1,0.5-0.8,1c-1,0.6-1.9,1.3-2.9,1.9c-0.2,0.1-0.4,0.2-0.4,0.3c0,0.3,0.6,1.4,0.9,1.4
	c0.1,0,0.2-0.1,0.3-0.1c0.9-0.8,1.9-1.5,2.9-2.1C5,11,4.9,11.3,4.9,11.9z M31.6,3c-0.3,0-1.1,0.5-1.1,0.8c0,0.1,0.1,0.2,0.1,0.3
	c1,1.1,1.8,2.4,2.4,3.8c0.1,0.2,0.2,0.4,0.4,0.4c0.3,0,1.2-0.5,1.2-0.8C34.6,6.9,32.2,3,31.6,3z M25.2,1.2c-0.1,0-0.2,0.1-0.2,0.2
	v0.1c0,0.2,0,0.4,0,0.6c0,0.7-0.1,1.4-0.2,2c-0.1,0.5,0,0.8-0.6,0.9c-0.9,0.2-2.2,0.5-3.1,0.6c-0.2,0-0.5,0-0.5,0.3
	c0,0.2,0.3,1.5,0.7,1.5c0.1,0,0.1,0,0.2-0.1c0.8-0.3,1.7-0.6,2.5-0.8c0.1,0,0.2,0.1,0.2,0.2c0,0,0,0,0,0c0,0.1,0,0.2-0.1,0.3
	c-0.7,2.4-2,4.7-3.7,6.5c-0.1,0.1-0.3,0.3-0.3,0.4c0,0.3,0.9,0.9,1.1,0.9c0.1,0,0.2-0.1,0.3-0.1c0.7-0.8,1.3-1.7,1.8-2.6
	c1.1-1.7,1.8-3.6,2.3-5.5C26,6.2,26.1,6,27.4,6c1.2,0,1.3,0.9,1.3,1.9c0,1.4-0.3,2.8-0.8,4.1c-0.3,0.8-1.1,1.3-2,1.2
	c-0.4,0-0.7-0.1-0.9-0.1c-0.1,0-0.2,0.1-0.2,0.2c0,0.4,0.1,0.7,0.3,1c0.1,0.3,0.4,0.4,0.7,0.4c1.4,0,2.6-0.7,3.2-1.9
	c0.7-1.7,1.1-3.6,1.1-5.5c0-1.8-0.7-2.8-2.6-2.8c-0.3,0-0.8,0-0.9,0c-0.2,0-0.3-0.1-0.3-0.3c0,0,0,0,0-0.1c0-0.1,0-0.1,0-0.2
	c0.1-0.4,0.1-0.6,0.2-0.9c0.1-0.6,0.1-1,0.4-1.2c0.1-0.1,0.2-0.1,0.2-0.3c0-0.2-0.3-0.3-0.5-0.3C26.4,1.4,25.4,1.2,25.2,1.2z
	 M49,4.5c0,0.1,0.1,0.2,0.1,0.3c1.6,1.2,2.6,3.1,2.7,5.1c0,0.3,0,0.6,0.5,0.6c0.3,0,0.6-0.1,0.9-0.2c0.2,0,0.3-0.2,0.3-0.4
	c0-0.2,0-0.4-0.1-0.6c-0.2-1.3-0.6-2.5-1.3-3.6c-0.6-0.9-1.4-1.6-2.3-2.1C49.5,3.7,49.2,4.1,49,4.5z M40.8,3.5
	c-0.2,0-0.2,0.1-0.2,0.3c0,0.6-0.1,2.1-0.1,2.7c0,2.1,0.2,4.5,1.3,6.2c0.5,1,1.4,1.6,2.5,1.7c0.6,0,1.2-0.3,1.5-0.8
	c0.3-0.3,1.3-1.4,1.3-1.7c0-0.3-0.7-0.9-1-0.9c-0.2,0-0.4,0.3-0.5,0.4c-0.2,0.4-0.8,1.3-1.3,1.3c-0.7,0-1.4-1.2-1.7-1.7
	c-0.5-1.3-0.7-2.7-0.6-4.1c0-0.6,0-1.2,0.1-1.7c0.1-0.3,0.1-0.6,0.3-0.8c0.1-0.1,0.2-0.1,0.2-0.3c0-0.2-0.2-0.2-0.3-0.3
	C41.8,3.7,41.3,3.6,40.8,3.5L40.8,3.5z M66,0.8c-0.3-0.1-0.6-0.2-0.9-0.3c-0.2,0-0.2,0.2-0.3,0.4c-0.2,0.8-0.5,1.7-0.8,2.5
	C64,3.5,64,3.8,63.7,3.8c-0.5-0.1-0.9-0.3-1.4-0.6c-0.2-0.1-0.4-0.3-0.6-0.3c-0.3,0-0.5,1-0.5,1.2c0,0.2,0.1,0.3,0.3,0.4
	c0.3,0.2,1.1,0.5,1.4,0.6c0.3,0.1,0.6,0.2,0.6,0.6c0,0.1,0,0.2-0.1,0.3c-0.1,0.4-0.2,0.8-0.3,1.1C63,7.7,63,7.9,62.7,7.9
	c-0.5-0.1-0.9-0.3-1.3-0.6c-0.1-0.1-0.3-0.2-0.4-0.2c-0.3,0-0.5,1-0.5,1.2c0,0.2,0.1,0.3,0.3,0.4c0.3,0.2,0.7,0.3,1.1,0.5
	c0.3,0.1,0.8,0.2,0.8,0.6v0.2c0,0.4-0.1,1.1-0.1,1.5c0,1,0.3,2,0.9,2.7c0.8,0.9,2,1.3,3.2,1.2c2.3,0,4.8-1,4.8-3.6
	c0-1.1-0.2-2.2-0.6-3.3c-0.1-0.3-0.2-0.5-0.4-0.5c-0.2,0-1.2,0.2-1.2,0.5c0,0.1,0,0.2,0.1,0.3c0.4,0.8,0.6,1.7,0.6,2.7
	c0,0.5-0.1,1-0.4,1.4c-0.8,0.7-1.8,1-2.8,0.9c-1.8,0-2.6-1-2.6-2.7c0-1,0.1-1.4,0.5-1.4c0.1,0,0.2,0,0.3,0c0.6,0.1,1.3,0.2,1.9,0.2
	c0.3,0,0.3-0.1,0.4-0.3c0.1-0.3,0.2-0.6,0.2-0.9c0-0.2-0.1-0.3-0.5-0.3c-0.6,0-1.2,0-1.8-0.1c-0.3,0-0.6,0-0.6-0.4
	c0.1-0.6,0.2-1.3,0.4-1.9c0-0.1,0.1-0.4,0.5-0.4c0.1,0,0.1,0,0.2,0c0.8,0.2,1.7,0.3,2.5,0.3c0.2,0,0.3-0.1,0.3-0.3
	c0.1-0.3,0.2-0.6,0.2-1c0-0.3-0.3-0.3-0.6-0.3c-0.7,0-1.3-0.1-2-0.2c-0.2,0-0.5-0.1-0.5-0.4c0-0.1,0-0.1,0.1-0.2
	c0.2-0.8,0.5-1.5,0.9-2.1c0.2-0.1,0.3-0.2,0.3-0.3C66.8,1.1,66.2,0.9,66,0.8z M84.4,3.9c0.2,0,0.3,0.2,0.3,0.4
	c0,1.8-0.4,3.6-1.1,5.3c-0.3,0.8-1.2,2.7-2.2,2.7c-1,0-1.3-1.8-1.3-2.6C80,7.2,81.5,5,83.8,4.1C84,4,84.2,4,84.4,3.9z M85.9,2.3
	c-4,0-7.3,3.2-7.4,7.3c0,0.1,0,0.1,0,0.2c0,0.9,0.2,1.7,0.5,2.5c0.4,0.9,1.3,1.5,2.3,1.6c0.9-0.1,1.7-0.6,2.2-1.3
	c1.7-2.1,2.4-5.4,2.6-8.1c0-0.3,0-0.7,0.5-0.7c0.3,0,0.5,0.1,0.8,0.2c2,0.6,3.3,2.5,3.2,4.6c0,2.5-1.8,4.5-4.3,4.9
	c-0.2,0-0.4,0.1-0.4,0.3c0,0.3,0.6,1.2,1,1.2c0.6-0.1,1.3-0.4,1.9-0.7c2.2-1.1,3.5-3.3,3.5-5.7c0-1.6-0.6-3.2-1.8-4.4
	C89.3,2.8,87.6,2.2,85.9,2.3z"/>
</svg>
