<?xml version="1.0" encoding="utf-8"?>
<!-- Generator: Adobe Illustrator 24.2.0, SVG Export Plug-In . SVG Version: 6.00 Build 0)  -->
<svg version="1.1" id="レイヤー_1" xmlns="http://www.w3.org/2000/svg" xmlns:xlink="http://www.w3.org/1999/xlink" x="0px"
	 y="0px" viewBox="0 0 72 16" style="enable-background:new 0 0 72 16;" xml:space="preserve">
<style type="text/css">
	.st0{stroke:#000000;stroke-width:0.3;}
</style>
<path id="パス_2174" class="st0" d="M13.1,1.9c-0.2-0.3-0.4-0.4-0.5-0.4c-0.2,0-0.8,0.4-0.8,0.6c0,0.1,0.1,0.2,0.1,0.2
	c0.4,0.5,0.8,1,1.1,1.5c0.1,0.1,0.1,0.2,0.2,0.2c0.2,0,0.8-0.4,0.8-0.7c-0.2-0.4-0.5-0.9-0.9-1.2C13.3,2.1,13.2,2,13.1,1.9z
	 M15.2,1.2c-0.2-0.3-0.6-0.7-0.7-0.7c-0.2,0-0.8,0.4-0.8,0.6c0,0.1,0.1,0.2,0.1,0.2c0.4,0.5,0.8,1,1.2,1.5C15,2.9,15.1,3,15.2,3
	C15.4,3,16,2.6,16,2.4c-0.1-0.3-0.3-0.6-0.6-0.9C15.3,1.4,15.3,1.3,15.2,1.2z M7,3.8c-0.2,0-0.3-0.1-0.3-0.3c0-0.1,0.1-0.3,0.2-0.4
	C7,2.9,7.1,2.7,7.2,2.6C7.4,2.2,7.4,2.1,7.7,2c0.1-0.1,0.2-0.1,0.2-0.2c0-0.2-0.3-0.3-0.4-0.3c-0.1,0-0.3-0.1-0.4-0.2
	C6.8,1.1,6.5,1,6.2,0.9C6.1,0.9,6,1.1,6,1.3c-1,2.5-2.7,4.6-4.7,6.3c-0.1,0-0.1,0.1-0.2,0.2c0,0.3,1,0.8,1.2,0.8
	c0.5,0,2.5-2.5,2.9-3C5.5,5.4,5.5,5.3,6,5.3h3.9c0.3,0,0.6,0,0.6,0.2c-0.4,1-0.9,2-1.5,2.8c-1.7,2.7-4.2,4.7-7.1,6
	c-0.1,0.1-0.4,0.1-0.4,0.3c0,0.3,0.9,0.9,1.3,0.9c0.8-0.3,1.6-0.8,2.4-1.3c3.3-2.1,5-4.7,6.8-8.2c0.2-0.4,0.4-0.7,0.5-0.9
	c0.1-0.2,0.2-0.3,0.2-0.4c0-0.3-0.8-1.2-1.1-1.2c-0.1,0-0.1,0-0.2,0c-0.3,0.1-0.7,0.1-1,0.1L7,3.8z M31.1,5.8
	c-0.3-0.1-0.6-0.2-1-0.3c-0.2,0-0.2,0.2-0.2,0.3c-0.1,1-0.4,2-0.8,2.9c-1.1,2.6-3.3,4.4-6,5c-0.3,0.1-0.5,0.1-0.5,0.3
	c0,0.3,0.5,1,0.8,1c0.6-0.1,1.2-0.3,1.8-0.6c3.5-1.5,5-4.2,6-7.6c0.1-0.2,0.1-0.3,0.2-0.4c0.1,0,0.2-0.1,0.2-0.3
	c0-0.1-0.1-0.2-0.3-0.3C31.2,5.9,31.1,5.9,31.1,5.8z M25.8,5.1c-0.2,0-0.9,0.3-0.9,0.6c0,0.1,0.1,0.2,0.2,0.3c0.4,0.6,0.8,1.3,1.2,2
	c0.1,0.2,0.2,0.3,0.4,0.3c0.2,0,1-0.3,1-0.7c-0.2-0.5-0.5-1-0.8-1.4C26.5,5.9,26.1,5.1,25.8,5.1L25.8,5.1z M22,6.1
	c-0.2,0-0.9,0.3-0.9,0.6c0,0.1,0.1,0.2,0.1,0.3c0.5,0.7,0.9,1.4,1.2,2.1c0.1,0.1,0.1,0.3,0.3,0.3c0.2,0,1-0.3,1-0.7
	c-0.2-0.5-0.4-0.9-0.7-1.4c-0.2-0.4-0.5-0.8-0.8-1.1C22.3,6.2,22.1,6.1,22,6.1z M40.9,7.1c-0.7,0-1.6-0.1-2.2-0.1
	c-0.4,0-0.4,0.3-0.4,0.8c0,0.4,0,0.7,0.5,0.7c0.7,0,1.5,0,2.2,0h4c0.2,0,0.3,0.1,0.3,0.3c0,0.1,0,0.2-0.1,0.3
	c-0.3,1.1-0.9,2-1.6,2.9c-0.8,0.9-1.8,1.6-2.9,2.1c-0.2,0.1-0.4,0.2-0.4,0.3c0,0.3,0.8,1,1.1,1c0.8-0.3,1.5-0.8,2.2-1.3
	c1.6-1.3,2.7-3,3.2-4.9c0.1-0.4,0.2-0.7,0.7-0.7h3c0.7,0,1.5,0,2.2,0c0.4,0,0.5-0.3,0.5-0.7c0-0.6,0-0.8-0.5-0.8
	c-0.7,0-1.5,0.1-2.2,0.1h-2.8c-0.3,0-0.4-0.2-0.4-0.5c0-0.3,0-0.8,0-1.1c0-0.4-0.1-1.1-0.1-1.3c0-0.3,0.2-0.4,0.4-0.5
	c0.7-0.2,1.5-0.4,2.2-0.6C50,3.1,50.2,3,50.5,3c0.1,0,0.1,0,0.2,0c0.1,0,0.1,0,0.2,0c0.1,0,0.2-0.1,0.2-0.2c0-0.2-0.4-0.6-0.7-0.9
	l-0.1-0.1c-0.1-0.1-0.3-0.4-0.5-0.4c-0.1,0-0.2,0.1-0.3,0.1c-1.1,0.5-2.2,0.8-3.4,1C44.5,2.9,42.9,3,41.3,3c-0.2,0-0.5,0-0.6,0
	c-0.2,0-0.4,0-0.4,0.3c0,0.3,0.1,0.6,0.3,0.9c0.1,0.3,0.2,0.4,0.6,0.4c1.5,0,4-0.3,4-0.3c0.4,0,0.4,0.3,0.4,1.5c0,0.8,0,1.5-0.6,1.5
	L40.9,7.1z M63.6,6c-0.7,0-1.3,0-1.7,0c-0.4,0-0.4,0.3-0.4,0.7c0,0.4,0,0.7,0.4,0.7c0.4,0,1.1,0,1.7,0h2.8c0.2,0,0.4,0.2,0.4,0.4
	c0,0,0,0,0,0c0,0.1,0,0.3,0,0.4l-0.4,3.5c0,0.3-0.2,0.4-0.5,0.4h-4.5c-0.6,0-1.3,0-1.7,0s-0.4,0.3-0.4,0.7c0,0.3,0,0.6,0.4,0.6
	c0.5,0,1.2,0,1.7,0h7.4c0.6,0,1.1,0,1.7,0c0.4,0,0.4-0.3,0.4-0.6c0-0.5,0-0.7-0.4-0.7c-0.6,0-1.2,0-1.7,0h-0.6
	c-0.2,0-0.4-0.2-0.4-0.4c0,0,0,0,0-0.1l0.4-3.6c0-0.2,0.2-1.3,0.2-1.3C68.2,6.3,67.8,6,67.4,6c-0.2,0-0.8,0-1.3,0L63.6,6z"/>
</svg>
