<?xml version="1.0" encoding="UTF-8"?>
<svg id="_レイヤー_1" data-name="レイヤー_1" xmlns="http://www.w3.org/2000/svg" width="127.7580032" height="14.592" version="1.1" viewBox="0 0 127.7580032 14.592">
  <!-- Generator: Adobe Illustrator 29.1.0, SVG Export Plug-In . SVG Version: 2.1.0 Build 142)  -->
  <defs>
    <style>
      .st0 {
        stroke: #000;
        stroke-width: .3px;
      }
    </style>
  </defs>
  <path id="_パス_3401" data-name="パス_3401" class="st0" d="M2.76,2.4360046c-.8639998,0-1.8000002-.0539999-2.2320001-.0539999-.306,0-.378.1440001-.378.7379999,0,.6119995.036.8640003.4000001.8640003.4000001,0,1.4219999-.0539999,2.2320004-.0539999h6.5c.2882929,0,.5220003.2337074.5220003.5219994v5.6880012c0,.2882926-.2337074.5220001-.5220003.5220001H2.7780001c-.8099999,0-1.8179998-.0539999-2.214-.0539999-.414,0-.414.2-.414.7920001s0,.8099999.414.8099999c.1619999,0,.306-.018.45-.018.5-.036,1.2420001-.036,1.7820001-.036h6.1199999c.4860001,0,.7379999,0,.8100004.414.0539999.342.0719995.414.7379999.414.7559996,0,.9180002,0,.9180002-.558,0-.45-.0360003-.99-.0360003-1.53v-6.0480015c0-.5220003.0179996-1.026.0179996-1.5299997,0-.7919998-.3599997-.9180002-1.1000004-.9180002-.4499998,0-.8999996.0360003-1.3500004.0360003H2.76ZM21.1599987,6.0720043c-.7740002,0-1.8899994-.0539999-2.1779995-.0539999-.4319992,0-.4860001.1259999-.4860001.882,0,.414,0,.7740002.4500008.7740002.7380009,0,1.4759998-.0539999,2.2140007-.0539999h8.2580013c.737999,0,1.4760017.0539999,2.2140007.0539999.4319992,0,.4319992-.3600001.4319992-.7740002,0-.756-.0359993-.882-.4860001-.882-.2879982,0-1.4000015.0539999-2.1599998.0539999h-8.2580032ZM39.9699962,6.0000043c-.737999,0-1.5660019-.0540004-2.2319984-.0540004-.4319992,0-.4319992.3059998-.4319992.8280001,0,.4499998.0180016.7379999.4500008.7379999.6839981,0,1.4580002-.0359998,2.2140007-.0359998h4.0139999c.1634293-.0033984.2994957.1246657.3059998.2880001-.0092697.0974336-.0273438.1938272-.0540009.2880001-.321785,1.0620923-.8543968,2.0484087-1.5659981,2.9000001-.8032494.9076798-1.7922668,1.6320484-2.9000015,2.1240001-.1619987.072-.4000015.162-.4000015.342,0,.27.8279991,1.026,1.1160011,1.026.780117-.3402068,1.5080338-.7893469,2.1620026-1.3340002,1.5821228-1.2512411,2.7041283-2.9922842,3.1899986-4.9499997.1080017-.3779998.2159996-.684.6660004-.684h2.9700012c.737999,0,1.4939995.0359998,2.25.0359998.4140015,0,.4500008-.2519999.4500008-.7379999,0-.6300001-.0359993-.8279996-.4500008-.8279996-.6839981,0-1.4939995.0539999-2.25.0539999h-2.8120003c-.3059998,0-.4000015-.2159996-.4000015-.4680004,0-.2880001.0359993-.7559996.0359993-1.1160002,0-.4320002-.0540009-1.1160002-.0540009-1.3000002,0-.2880001.2000008-.4139996.4319992-.4680004.7308769-.1644278,1.4525528-.3673773,2.1620026-.6079988.2261734-.0850248.4608688-.1453743.7000008-.1800003.0540009,0,.1080017.0179996.1619987.0179996.0651512.0192776.1322174.0313501.2000008.0360003.1091423.0092726.2054405-.0709743.2159996-.1800003,0-.1999998-.4000015-.6120005-.6660004-.882l-.144001-.1440001c-.1080017-.1079998-.3419991-.3780003-.5-.3780003-.1158791.0100784-.2243729.0611343-.3059998.1440001-1.081543.4946575-2.2253723.8398256-3.4000015,1.026-1.5518837.2726059-3.1243553.4111176-4.7000008.4139996-.2000008,0-.4679985-.0179996-.5760002-.0179996-.1800003,0-.3779984.0360003-.3779984.2700005.0410767.3091784.1387024.6081581.2879982.882.144001.2880001.2340012.3599997.5579987.3599997,1.4580002,0,3.9780006-.3240004,4.0320015-.3240004.4000015,0,.4319992.3240004.4319992,1.4580002,0,.7740002.0180016,1.4580002-.5579987,1.4580002l-4.2280006.0000005ZM60.0380008,6.0720043c-.7739983,0-1.8899994-.0539999-2.1780014-.0539999-.4319992,0-.4860001.1259999-.4860001.882,0,.414,0,.7740002.4500008.7740002.737999,0,1.4760017-.0539999,2.2140007-.0539999h8.2599983c.737999,0,1.4759979.0539999,2.2139969.0539999.4319992,0,.4319992-.3600001.4319992-.7740002,0-.756-.0360031-.882-.4860001-.882-.288002,0-1.4000015.0539999-2.1600037.0539999h-8.2599907ZM82.6079967,2.8140039c.1999969,0,.288002.1619997.288002.3599997-.0424576,1.8200188-.4081497,3.6179948-1.0800018,5.3099999-.3059998.7919998-1.2419968,2.6819999-2.2139969,2.6819999-1.0439987,0-1.3320007-1.8180001-1.3320007-2.6099999-.0530319-2.4385877,1.4199371-4.6516285,3.6900024-5.5440006.2068253-.092948.4245377-.1594715.647995-.197999ZM84.1199977,1.1580038c-4.0404282-.0263014-7.3371658,3.2277918-7.363472,7.2682214-.0004349.0672631.0000534.1345291.0014725.2017784-.0100021.8633094.1745605,1.7177863.5400009,2.5.4101257.9221169,1.2936325,1.5444117,2.3000031,1.62.906601-.0862442,1.7294159-.5667695,2.25-1.314,1.7460022-2.1059997,2.3939972-5.4359996,2.5559998-8.1000001.0179977-.342.0179977-.7379999.4860001-.7379999.2568665.028039.5101929.0823221.7559967.1619997,1.9748611.6290522,3.2851486,2.5011206,3.1999969,4.572-.0239258,2.4664159-1.842865,4.5469072-4.2839966,4.9000001-.1620026.036-.4499969.054-.4499969.252,0,.324.6299973,1.17,1.0080032,1.17.6472168-.1302221,1.2718582-.354607,1.8539963-.666,2.1566162-1.0874375,3.5048828-3.3089298,3.473999-5.7239999.0315704-1.6319747-.6057816-3.2058425-1.7639999-4.3559995-1.2264786-1.1693802-2.870163-1.7989073-4.564003-1.7480001ZM98.5559947,8.7180037c-.0179977,0-1.2600021.27-1.2600021.6659999.0888672.5881081.3104706,1.1482639.6480026,1.638,1.1340027,1.6,3.1319962,1.872,4.9499969,1.872,1.8115005-.0214562,3.6179352-.1960793,5.4000015-.5220001.3059998-.108.3600006-.4000001.3600006-.684,0-.72-.0719986-1.0440001-.3420029-1.0440001-.0679703.0030529-.135231.0151596-.1999969.036-1.7942276.4167149-3.6300201.6280718-5.4720001.6299999-1.1322021.1101019-2.2610626-.2402337-3.1319962-.9720001-.3241119-.3713393-.5363159-.8269529-.6119995-1.3140001-.052002-.1979985-.1240005-.3059988-.340004-.3059993ZM99.5279949,1.7340031c-.2160034,0-.2699966.1619997-.3239975.3240004-.0639725.279047-.1120453.5615015-.1439972.8459997-.0187531.1318331.0365982.2632828.1439972.342.5940018.3999996,3.2220001.4860001,4.0319977.4860001,1.101181.0051479,2.2015305-.0616608,3.2939987-.1999998.3600006-.0539999.4680023-.1079998.4680023-.54,0-.2880001,0-1.1519995-.4140015-1.1519995-.0719986,0-.1620026.0179996-.2160034.0179996-1.0746078.2450752-2.1738205.3658667-3.276001.3599997-1.0520096.0202274-2.1012573-.1145506-3.1139984-.3999996-.146286-.0451298-.2972717-.0733147-.4499969-.0840006ZM119.2019985.5280027c.0005798.0701904.0191803.1390553.0540009.1999998.1450195.4307585.265213.8694792.3600006,1.3140001.1999969.8280001.6299973,2.5.9179993,3.2399998.03685.0977602.0551605.2015314.0540009.3059998,0,.2340002-.1259995.342-.3059998.4679999-1.4940033.954-3.2580032,2.2140002-3.2580032,4.1760001.0039825,1.1006017.6031113,2.1129174,1.5660019,2.6459999,1.0973358.5888108,2.3403091.8511468,3.5820007.756,1.6658707-.0094356,3.3301239-.1055664,4.9860077-.288.2879944-.072.3059998-.306.3059998-.6659999,0-.4.0180054-1.026-.2339935-1.026-.0605621-.002949-.1212158.0031173-.1799927.0179999-1.5633087.277174-3.1464615.4276632-4.7340012.45-1.0331039.071211-2.0660858-.1403639-2.987999-.612-.4440308-.237751-.7359161-.6857686-.7740021-1.188,0-1.5480001,2.1060028-2.7539999,3.2939987-3.438,1.7323685-1.025413,3.5441818-1.9102502,5.4180069-2.6459994.1260071-.0360003.3419952-.0900002.3419952-.2519999,0-.2340002-.6999969-1.4940004-.9720001-1.4940004-.172821.0171127-.3361969.0869322-.4680023.1999998-1.2467804.7840509-2.5390625,1.4933014-3.8700027,2.1239996-.2699966,0-.3420029-.2519999-.4000015-.4680004-.2962341-1.178997-.5186615-2.3753185-.6660004-3.5819998-.0360031-.3999996-.0179977-.6120005-.4860001-.6120005-.2160034,0-.4140015.0360003-.6299973.0539999-.4100189.0500031-.9140167.0680037-.9140167.3200016Z"/>
</svg>