<?xml version="1.0" encoding="utf-8"?>
<!-- Generator: Adobe Illustrator 24.2.0, SVG Export Plug-In . SVG Version: 6.00 Build 0)  -->
<svg version="1.1" id="レイヤー_1" xmlns="http://www.w3.org/2000/svg" xmlns:xlink="http://www.w3.org/1999/xlink" x="0px"
	 y="0px" viewBox="0 0 108 108" style="enable-background:new 0 0 108 108;" xml:space="preserve">
<path id="パス_485" d="M106.2,39.4c-0.2-2.9-0.4-5.7-0.5-8.6c-2-2.9-4-5.7-6.1-8.5c-1.4-2-2.8-4-4.1-6.1c-0.1-0.2-0.2-0.3-0.3-0.5
	c-0.3-0.2-0.6-0.4-0.9-0.6c-3.5-2.4-7-4.8-10.5-7.1c-3.6-2.4-7.4-4.4-11.1-6.5c-0.2,0-0.4-0.1-0.6-0.1c-3-0.4-6.1-0.6-9.1-0.6
	c-0.1,0-0.1,0-0.2,0c-3.5,0-7,0.3-10.5,0.6c-3.4,0.3-6.9,0.5-10.3,0.7c-2.8,0.2-5.6,0.3-8.4,0.6c-0.3,0-0.5,0.1-0.8,0.1
	c-1.2,0.6-2.4,1.3-3.5,2c-6.8,4.6-12,9.2-16.3,16.3c-2.5,4.3-4.5,8.9-6,13.7c-0.5,1.4-0.8,2.9-1.1,4.4c-2.5,4.8-4.3,9.9-5.3,15.3
	c0.3,1.8,0.7,3.5,1,5.3c0.6,3.4,1.3,6.8,2,10.2c0.7,2.9,1.4,5.8,2.2,8.7c1,1.2,1.9,2.5,2.9,3.7c1.6,1.9,3.1,3.8,4.6,5.8
	c1.3,1.6,2.7,3,4.1,4.4c1.9,1.7,3.9,3.2,5.9,4.8c0.2,0.1,0.3,0.1,0.5,0.2c2.1,0.8,4.2,1.6,6.2,2.4c4.3,1.6,8.5,3.4,12.8,5
	c1.8,0.7,3.7,1.3,5.6,1.8c3.6,0,7.2,0.2,10.8,0.3c1.8,0.1,3.5,0.1,5.2,0.1c0.5-0.1,1.1-0.1,1.6-0.2c1.9-0.3,3.8-0.5,5.7-0.8
	c2.6-1.5,5.3-3.1,8-4.4c3.4-1.7,6.9-3.1,10.4-4.6c0.1,0,0.2-0.1,0.3-0.1c1.6-1.9,3.3-3.8,5.1-5.7c1.4-1.4,2.7-2.8,4-4.4
	c2.2-2.9,4.1-6,5.7-9.3c0.9-2.4,1.6-4.8,2.1-7.3c0.1-4.9,0-9.9-0.1-14.8C107.1,50.2,106.7,44.8,106.2,39.4z"/>
</svg>
