<?xml version="1.0" encoding="utf-8"?>
<!-- Generator: Adobe Illustrator 24.2.0, SVG Export Plug-In . SVG Version: 6.00 Build 0)  -->
<svg version="1.1" id="レイヤー_1" xmlns="http://www.w3.org/2000/svg" xmlns:xlink="http://www.w3.org/1999/xlink" x="0px"
	 y="0px" viewBox="0 0 26 24" style="enable-background:new 0 0 26 24;" xml:space="preserve">
<style type="text/css">
	.st0{fill:#B99C78;}
</style>
<path id="パス_512" class="st0" d="M25.8,3c0-0.1,0-0.2,0-0.2l0,0c-0.2-0.1-0.4-0.2-0.6-0.1l0,0c-0.1,0-0.2-0.1-0.4-0.1
	c-0.1,0-0.1,0-0.2,0c-0.4,0-0.8,0-1.3,0c-0.4,0-0.7,0-1.1,0.1c-0.2,0-0.4,0-0.5,0c-0.2,0-0.4,0-0.6,0c-0.1-0.4-0.4-0.8-0.7-1
	c-0.2-0.1-0.4-0.2-0.6-0.3c-0.2-0.1-0.4-0.2-0.6-0.3l0,0C18.9,1,18.7,1,18.5,1l0,0c-0.1,0-0.1,0-0.2-0.1C18,1,17.8,1,17.6,1.1
	c-0.3,0.1-0.6,0.1-0.9,0.1c-0.2,0-0.4,0.1-0.6,0.1c-0.1,0-0.2,0-0.3,0l0,0c-0.3,0.3-0.7,0.6-1,0.9s-0.6,0.6-0.9,0.9v0.1
	c-0.2,0.4-0.4,0.9-0.5,1.3s-0.2,0.8-0.3,1.2C13,6.1,12.9,6.5,12.8,7c0,0.2-0.1,0.5-0.1,0.7c0,0.1,0,0.2,0,0.2c0,0.1,0,0.2,0,0.3
	h-0.5C11.8,8,11.4,8,11,8c-0.8-0.1-1.7-0.3-2.4-0.7L8.1,7.1L7.9,7c-0.4-0.1-0.7-0.2-1-0.3C6.4,6.6,5.8,6.3,5.3,6l0,0
	c0,0-0.1-0.1-0.2-0.1l0,0l0,0C5,5.8,5,5.8,5,5.7C4.7,5.5,4.4,5.3,4.1,5C4,4.9,3.9,4.8,3.8,4.7l0,0l0,0C3.5,4.4,3.3,4.2,3.1,4l0,0
	C3,3.9,2.8,3.8,2.7,3.6c0-0.1-0.1-0.1-0.2-0.2c0,0,0-0.1-0.1-0.1c0,0,0-0.1-0.1-0.1l0,0L2.2,3.1c0,0,0-0.1-0.1-0.1l0,0
	C2,3,1.8,3.2,1.5,3.3H1.4L1.3,3.4c0,0.1,0,0.1,0,0.2c0,0,0,0,0,0.1s0,0.2,0,0.3c0,0.2-0.1,0.4-0.2,0.6C1,4.9,1,5.2,0.9,5.5
	C0.7,6.1,0.6,6.6,0.7,7.2c0,0.5,0.1,0.9,0.4,1.3c0.1,0.1,0.2,0.3,0.3,0.4c0,0.1,0,0.1,0.1,0.2c0.2,0.2,0.4,0.4,0.7,0.6
	C1.9,9.8,1.8,9.9,1.7,10c-0.3,0.2-0.5,0.3-0.8,0.5c-0.3,0.1-0.5,0.3-0.6,0.5c-0.3,0.5-0.1,1,0.3,1.2c0.1,0,0.1,0.1,0.2,0.1h0.1
	c0.7,0.3,1.3,0.7,1.9,1.1c0.1,0.1,0.2,0.1,0.3,0.2c-0.3,0.3-0.3,0.7-0.1,1l0.1,0.2C3.2,14.9,3.4,15,3.5,15c0.2,0.1,0.4,0.2,0.7,0.3
	c0.1,0.1,0.2,0.1,0.2,0.2c0.1,0.1,0.2,0.1,0.4,0.1c0.1,0.1,0.2,0.1,0.3,0.2c0.3,0.2,0.6,0.3,1,0.4c0.3,0.1,0.5,0.1,0.8,0.2
	s0.7,0.1,1,0.1c0,0.2,0,0.4,0,0.6s-0.1,0.4-0.2,0.6C7.5,18,7.3,18.4,7,18.8c0,0.1-0.1,0.2-0.2,0.3s-0.2,0.1-0.2,0.1
	c-0.4,0.2-0.9,0.2-1.4,0.2c-0.2,0-0.4-0.1-0.6-0.1s-0.3,0-0.5,0C4,19.2,3.8,19.1,3.7,19c-0.2-0.1-0.4-0.2-0.7-0.1
	c-0.5,0.1-0.7,0.6-0.6,1c0.1,0.2,0.2,0.4,0.4,0.5c0.3,0.3,0.7,0.5,1,0.7c0.4,0.2,0.8,0.4,1.2,0.5c0.3,0.1,0.7,0.2,1.1,0.3L6.4,22
	c0.3,0.1,0.7,0.2,1,0.4h0.1c0.1,0,0.3,0,0.4,0s0.2,0,0.3,0c0.1,0,0.2,0,0.3,0.1c0.4,0.1,0.7,0.2,1.1,0.2c0.4,0.1,0.8,0.1,1.3,0.1
	c0.4,0,0.7,0.1,1.1,0.1c0.2,0,0.5,0,0.7,0c0.1,0,0.2,0,0.3,0c0.3,0,0.5,0,0.8-0.1c0.4-0.1,0.8-0.2,1.2-0.3c0.4-0.1,0.7-0.2,1.1-0.3
	c0.4-0.1,0.9-0.3,1.3-0.5c0.2,0,0.3-0.1,0.5-0.1c0.2-0.1,0.5-0.2,0.7-0.3c0.4-0.3,0.7-0.6,1-1c0.2-0.3,0.4-0.7,0.6-1s0.4-0.7,0.6-1
	c0.4-0.7,0.7-1.5,1-2.2c0.1-0.4,0.2-0.7,0.3-1.1c0.1-0.4,0.2-0.9,0.2-1.4c0.1-0.6,0.1-1.1,0.1-1.7c0-0.6-0.1-1.3-0.2-1.9
	c-0.1-0.6-0.2-1.1-0.3-1.7c0-0.1-0.1-0.2-0.1-0.3c0-0.1,0-0.3,0-0.4c0-0.2,0-0.4,0-0.6V6.9c0-0.1,0-0.3,0-0.4V6.4l0,0V6.3l0,0
	c0,0,0,0,0.1-0.1l0,0L22,6.1l0,0c0.1,0,0.1-0.1,0.2-0.1l0,0c0.1,0,0.1-0.1,0.2-0.1l0,0c0,0,0.1,0,0.1-0.1h0.1c0,0,0.1,0,0.1-0.1
	c0,0,0,0,0.1,0l0,0l0,0c0.2-0.1,0.4-0.3,0.7-0.4l0.4-0.2L24.1,5c0.3-0.2,0.6-0.4,0.9-0.6l0,0c0-0.1,0.1-0.2,0.2-0.2
	c0.2-0.2,0.4-0.4,0.6-0.5V3.5C25.8,3.3,25.8,3.1,25.8,3z"/>
</svg>
