<?xml version="1.0" encoding="UTF-8"?>
<svg id="_レイヤー_1" data-name="レイヤー_1" xmlns="http://www.w3.org/2000/svg" width="148.9259949" height="14.592" version="1.1" viewBox="0 0 148.9259949 14.592">
  <!-- Generator: Adobe Illustrator 29.1.0, SVG Export Plug-In . SVG Version: 2.1.0 Build 142)  -->
  <defs>
    <style>
      .st0 {
        stroke: #000;
        stroke-width: .3px;
      }
    </style>
  </defs>
  <path id="_パス_3400" data-name="パス_3400" class="st0" d="M2.8140001,6.0000043c-.7379999,0-1.566-.0540004-2.2320001-.0540004-.432,0-.432.3059998-.432.8280001,0,.4499998.018.7379999.4499999.7379999.684,0,1.4579999-.0359998,2.2140002-.0359998h4.0139999c.1634283-.0033984.2994967.1246657.3059998.2880001-.0092688.0974336-.0273428.1938272-.0539999.2880001-.3217859,1.0620923-.8543968,2.0484087-1.566,2.9000001-.8028731.9067249-1.7911706,1.6303854-2.8979998,2.122-.1619999.072-.4000001.162-.4000001.342.0039999.27.8319998,1.026,1.1199999,1.026.7792964-.3397549,1.5065241-.7882118,2.1599998-1.332,1.5806375-1.2518563,2.7011905-2.9928288,3.1860003-4.9499997.1079998-.3779998.2159996-.684.6660004-.684h2.9700003c.7379999,0,1.4939995.0359998,2.25.0359998.4139996,0,.4500008-.2519999.4500008-.7379999,0-.6300001-.0359993-.8279996-.4500008-.8279996-.684,0-1.4939995.0539999-2.25.0539999h-2.8080006c-.3059998,0-.3999996-.2159996-.3999996-.4680004,0-.2880001.0360003-.7559996.0360003-1.1160002,0-.4320002-.0539999-1.1160002-.0539999-1.3000002,0-.2880001.1999998-.4139996.4320002-.4680004.7302771-.1658106,1.4512825-.3700953,2.1599998-.6120005.2261734-.0850248.4608669-.1453743.6999998-.1800003.0539999,0,.1079998.0179996.1619997.0179996.0651493.0192776.1322174.0313501.1999998.0360003.1091433.0092726.2054396-.0709743.2159996-.1800003,0-.1999998-.3999996-.6120005-.6660004-.882l-.1440001-.1440001c-.1079998-.1079998-.342-.3780003-.5-.3780003-.11588.0100784-.2243729.0611343-.3059998.1440001-1.0815411.4946575-2.2253704.8398256-3.4000006,1.026-1.5518851.2726059-3.1243563.4111176-4.6999998.4139996-.1999998,0-.4679999-.0179996-.5760002-.0179996-.1800001,0-.378.0360003-.378.2700005.0410776.3091784.1387036.6081581.2879999.882.1440001.2880001.2340002.3599997.5580001.3599997,1.4579997,0,3.9780002-.3240004,4.0320001-.3240004.3999996,0,.4320002.3240004.4320002,1.4580002,0,.7740002.0179996,1.4580002-.5579996,1.4580002l-4.2299995.0040021ZM25.4759998,4.9380045c-.7000008,0-1.3320007-.0360003-1.6919994-.0360003-.4139996,0-.3999996.3059998-.3999996.6660004,0,.4320002,0,.7200003.3999996.7200003.3780003,0,1.0799999-.0359998,1.710001-.0359998h2.7539997c.227272-.0110493.4204712.1642342.4315205.3915071.0003643.0074921.0005245.0149922.0004787.0224929,0,.0539999-.0359993.3059998-.0359993.3779998l-.3999996,3.51c-.0288315.2548876-.243494.4480839-.5.45h-4.4780006c-.5760002,0-1.2600002-.036-1.6919994-.036s-.4319992.3240001-.4319992.7379999c0,.342,0,.648.4319992.648.4500008,0,1.1700001-.036,1.6919994-.036h7.4160004c.5760002,0,1.1339989.018,1.7099991.018.4500008,0,.4500008-.27.4500008-.6479999,0-.4679999,0-.72-.4319992-.72-.5760002,0-1.1520004.036-1.7280006.036h-.6480007c-.2275181.0032191-.4145679-.1786115-.4177876-.4061301-.0002918-.020689.0009727-.0413709.003788-.0618699l.4139996-3.5640001c.0179996-.1620002.1800003-1.2600002.1800003-1.2779999-.0723953-.4596014-.4707546-.7966747-.9360008-.7919998-.2159996,0-.8279991.0360003-1.3139992.0360003l-2.4880009-.000001ZM43.3680019,2.4380045c-.8639984,0-1.7999992-.0539999-2.2319984-.0539999-.3059998,0-.3779984.1440001-.3779984.7379999,0,.6120005.0359993.8640003.4000015.8640003.4000015,0,1.4220009-.0539999,2.2319984-.0539999h6.5c.2882919,0,.5219994.2337074.5219994.5220003v5.6880002c0,.2882924-.2337074.5219998-.5219994.5220001h-6.5c-.8100014,0-1.8180008-.0539999-2.2140007-.0539999-.4140015,0-.4140015.2-.4140015.7920001s0,.8099999.4140015.8099999c.1619987,0,.3059998-.018.4500008-.018.5-.036,1.2420006-.036,1.7820015-.036h6.1199989c.4860001,0,.737999,0,.8100014.414.0540009.342.0719986.414.737999.414.7560005,0,.9179993,0,.9179993-.558,0-.45-.0359993-.99-.0359993-1.53v-6.0500014c0-.5220003.0180016-1.026.0180016-1.5299997,0-.7919998-.3600006-.9180002-1.0999985-.9180002-.4500008,0-.9000015.0360003-1.3499985.0360003l-6.1580086.0019999ZM61.7660007,6.0720043c-.7739983,0-1.8899994-.0539999-2.1780014-.0539999-.4319992,0-.4860001.1259999-.4860001.882,0,.414,0,.7740002.4500008.7740002.737999,0,1.4760017-.0539999,2.2140007-.0539999h8.2599983c.737999,0,1.4759979.0539999,2.2139969.0539999.4319992,0,.4319992-.3600001.4319992-.7740002,0-.756-.0360031-.882-.4860001-.882-.288002,0-1.4000015.0539999-2.1600037.0539999h-8.2599907ZM91.8960018,3.840004c-.1080017,0-.2160034.1079998-.288002.1999998-2.5199966,3.1520004-7.1279984,6.6400006-11.0159988,7.7920005-.2160034.0539999-.5.108-.5.288.1167908.3211893.2676544.6289446.4499969.918.2519989.45.4000015.738.5759964.738.0839157-.0047495.1594849-.0523564.1999969-.126.1620026-.324.1999969-.36.6839981-.576,3.6418381-1.6251224,6.9453278-3.9210755,9.737999-6.7680002.2160034-.2160001.935997-.9900002.935997-1.1880002-.0099869-.2339993-.455986-1.2779999-.7799835-1.2779999ZM81.0959988.8700037c-.3600006,0-.9000015.882-.9000015,1.0799999,0,.1619997.1439972.2519999.2699966.3240004.7599945.4730234,1.4876022.9961834,2.1780014,1.566.2160034.1619997.6119995.4860001.7559967.4860001.3239975,0,.9540024-.7379999.9540024-1.0799999,0-.1800003-.8099976-.7919998-1.026001-.9540005-.6969681-.5440683-1.4443665-1.0202351-2.2319946-1.4219999ZM103.7759991,2.8140039c.1999969,0,.288002.1619997.288002.3599997-.0424576,1.8200188-.4081497,3.6179948-1.0800018,5.3099999-.3059998.7919998-1.2419968,2.6819999-2.2139969,2.6819999-1.0439987,0-1.3320007-1.8180001-1.3320007-2.6099999-.0530319-2.4385877,1.4199371-4.6516285,3.6900024-5.5440006.2068253-.092948.4245377-.1594715.647995-.197999ZM105.2880001,1.1580038c-4.0404282-.0263014-7.3371658,3.2277918-7.363472,7.2682214-.0004349.0672631.0000534.1345291.0014725.2017784-.0100021.8633094.1745605,1.7177863.5400009,2.5.4101257.9221169,1.2936325,1.5444117,2.3000031,1.62.906601-.0862442,1.7294159-.5667695,2.25-1.314,1.7460022-2.1059997,2.3939972-5.4359996,2.5559998-8.1000001.0179977-.342.0179977-.7379999.4860001-.7379999.2568665.028039.5101929.0823221.7559967.1619997,1.9748611.6290522,3.2851486,2.5011206,3.1999969,4.572-.0239258,2.4664159-1.842865,4.5469072-4.2839966,4.9000001-.1620026.036-.4499969.054-.4499969.252,0,.324.6299973,1.17,1.0080032,1.17.6472168-.1302221,1.2718582-.354607,1.8539963-.666,2.1566162-1.0874375,3.5048828-3.3089298,3.473999-5.7239999.0315704-1.6319747-.6057816-3.2058425-1.7639999-4.3559995-1.2264786-1.1693802-2.870163-1.7989073-4.564003-1.7480001ZM119.7239971,8.7180037c-.0179977,0-1.2600021.27-1.2600021.6659999.0888672.5881081.3104706,1.1482639.6480026,1.638,1.1340027,1.6,3.1319962,1.872,4.9499969,1.872,1.8115005-.0214562,3.6179428-.1960793,5.4000015-.5220001.3059998-.108.3600006-.4000001.3600006-.684,0-.72-.0720062-1.0440001-.3419952-1.0440001-.0679626.0030529-.1352234.0151596-.1999969.036-1.79422.4167149-3.6300201.6280718-5.4720001.6299999-1.1322098.1101041-2.2610703-.2402318-3.1320038-.9720001-.3241119-.3713393-.5363159-.8269529-.6119995-1.3140001-.052002-.1979985-.1240005-.3059988-.340004-.3059993ZM120.6959972,1.7340031c-.2160034,0-.2699966.1619997-.3239975.3240004-.0639725.279047-.1120453.5615015-.1439972.8459997-.0187531.1318331.0365982.2632828.1439972.342.5940018.3999996,3.2220001.4860001,4.0319977.4860001,1.1011887.0051479,2.2015381-.0616608,3.2940063-.1999998.3600006-.0539999.4680023-.1079998.4680023-.54,0-.2880001,0-1.1519995-.4140015-1.1519995-.0720062,0-.1620026.0179996-.2160034.0179996-1.0746078.2450752-2.1738205.3658667-3.276001.3599997-1.0520096.0202274-2.1012573-.1145506-3.1139984-.3999996-.1462936-.0451307-.2972794-.0733156-.4500046-.0840006ZM140.366003.5280046c.0005798.0701904.0191803.1390553.0540009.1999998.1450195.4307585.265213.8694792.3600006,1.3140001.1999969.8280001.6300049,2.5.9179993,3.2399998.03685.0977602.0551605.2015314.0540009.3059998,0,.2340002-.1260071.342-.3059998.4679999-1.4940033.954-3.2579956,2.2140002-3.2579956,4.1760001.0039825,1.1006.6031036,2.1129154,1.5659943,2.6459999,1.0973358.5888108,2.3403168.8511468,3.5820007.756,1.6658783-.0094356,3.3301239-.1055664,4.9860077-.288.2879944-.072.3059998-.306.3059998-.6659999,0-.4.0180054-1.026-.2339935-1.026-.0605621-.002949-.1212158.0031173-.1799927.0179999-1.5633087.2771735-3.1464539.4276627-4.7339935.45-1.0330963.0712124-2.0660858-.1403625-2.9880066-.612-.4440308-.237751-.7359161-.6857686-.7740021-1.188,0-1.5480001,2.1060028-2.7539999,3.2940063-3.438,1.7323608-1.025413,3.5441742-1.9102492,5.4179993-2.6459994.1260071-.0360003.3419952-.0900002.3419952-.2519999,0-.2340002-.6999969-1.4940004-.9720001-1.4940004-.172821.0171127-.3361969.0869322-.4680023.1999998-1.2455902.7825499-2.5365295,1.4904613-3.8660278,2.1199999-.2700043,0-.3419952-.2519999-.3999939-.4680004-.2962189-1.1789989-.5186615-2.3753195-.6660004-3.5819998-.0359955-.3999996-.0180054-.6120005-.4859924-.6120005-.2160034,0-.4140015.0360003-.6300049.0539999-.4100037.0540009-.9179993.0720015-.9179993.3240013Z"/>
</svg>