<?xml version="1.0" encoding="UTF-8"?>
<svg id="_レイヤー_1" data-name="レイヤー_1" xmlns="http://www.w3.org/2000/svg" width="110.3339996" height="16.4279995" version="1.1" viewBox="0 0 110.3339996 16.4279995">
  <!-- Generator: Adobe Illustrator 29.1.0, SVG Export Plug-In . SVG Version: 2.1.0 Build 142)  -->
  <defs>
    <style>
      .st0 {
        stroke: #000;
        stroke-width: .3px;
      }
    </style>
  </defs>
  <path id="_パス_3400" data-name="パス_3400" class="st0" d="M6.4319999,14.046c0-.126-.1999998-.342-.342-.5s-.5580001-.648-.7379999-.648c-.0676489.0113275-.1303482.0426772-.1799998.0899999-1.3975267.8944688-2.9569869,1.5060218-4.5900002,1.8-.1619999.036-.432.072-.432.288,0,.162.306,1.044.738,1.044.2272327-.0316921.4504752-.0873351.6660001-.1659999,1.4333422-.3902518,2.8120961-.9586855,4.1040001-1.692.0789747-.0563258.1730247-.0876759.27-.09.048696-.0028303.0974989.0032701.1440001.018.0359998,0,.1440001.018.1799998.018.0931482.0014228.1716371-.0692173.1799998-.1620001ZM15.72,15.288c0-.18-.1620007-.216-.2880001-.252-1.616725-.4288939-3.1627836-1.0897585-4.5900002-1.962-.1159344-.092913-.2535725-.1548504-.3999996-.1799999-.3059998,0-.7740002.576-.7740002.8099999,0,.342,2.0880003,1.386,2.4659996,1.548.9257355.4314744,1.8899755.7749852,2.8800001,1.026.4359999,0,.7060003-.738.7060003-.99ZM11.5440003,10.4819999c.2237349-.014852.4171486.1544814.4320002.3782167.0011892.0179081.0011892.0358753,0,.0537834v.286c.0218925.2259309-.1435137.4268312-.3694448.4487233-.0207891.0020146-.0417013.0024414-.0625553.0012767h-6.9840002c-.2324171.006634-.4262066-.1763992-.4328408-.4088166-.000392-.0137334-.0001111-.0274775.0008407-.0411835v-.2879999c-.0090137-.2295737.169786-.4229865.3993592-.4320002.0108762-.0004272.0217648-.0004272.0326409,0l6.9840002.0019999ZM11.6159999,8.3759999c.1960354-.0031748.3575268.1531696.3607016.349205.0001564.0096035-.0000782.0192099-.0007019.0287948v.3239999c.0113916.1874309-.1313162.3486085-.3187475.3600001-.0137377.0008349-.0275145.0008349-.0412521,0h-7.1279998c-.1874309.0113916-.3486085-.1313167-.3600001-.3187475-.0008349-.0137382-.0008349-.0275145,0-.0412526v-.3239999c-.0127282-.1956477.1355572-.3645692.3312049-.3772974.0095849-.0006237.0191913-.0008578.0287952-.0007024h7.1279998ZM11.9759995,6.9759998c.0127277.1956477-.1355572.3645692-.3312044.3772974-.0095854.0006237-.0191917.0008578-.0287952.0007024h-7.1279998c-.1960354.0031753-.3575273-.1531692-.3607025-.3492045-.0001554-.0096035.0000787-.0192099.0007024-.0287952v-.3059998c-.0113912-.1874313.1313171-.348608.318748-.3599997.0137382-.0008354.027514-.0008354.0412521,0h7.1279998c.1874313-.0113916.348608.1313171.3599997.3187475.0008345.0137386.0008345.0275145,0,.0412521v.3059998ZM13.4339997,7.0299997c0-.3599997.0360003-.7379999.0360003-1.1000004,0-.5939999-.2880001-.7919998-.8459997-.7919998-.4860001,0-.9539995.0360003-1.4219999.0360003h-6.2820005c-.5,0-.9359999-.0360003-1.2600002-.0360003-.684,0-1.0079999.1260004-1.0079999.7919998,0,.3780003.0179999.7379999.0179999,1.0999999v3.888c0,.3600001-.0179999.7379999-.0179999,1.0999999,0,.648.2880001.7920001.882.7920001.4679999,0,.9179997-.0179999,1.3860002-.0179999h6.2820005c.4499998,0,.9180002.0179999,1.368.0179999.5760002,0,.8999996-.1440001.8999996-.7739999,0-.378-.0360003-.7379999-.0360003-1.1160002v-3.8899994ZM10.8419997,2.1299992c-.0148516-.2237349.1544819-.4171486.3782167-.4320002.0179081-.0011892.0358753-.0011892.0537834,0h2c.2295732-.0090132.422987.1697855.4320002.3993597.0004272.0108757.0004272.0217648,0,.0326405v.5c.0161104.2319527-.158864.4330482-.3908167.4491596-.0137062.0009518-.0274506.0012321-.0411835.0008402h-2c-.2266359.0126562-.4206209-.1608086-.4332771-.3874445-.0011644-.020854-.0007372-.0417662.001277-.0625553v-.5ZM6.6839997,2.1299992c-.0066342-.2324171.1763992-.4262066.4088163-.4328403.0137339-.000392.0274773-.0001116.0411835.0008402h1.9080009c.2237349-.0148516.4171486.1544819.4320002.3782167.0011892.0179081.0011892.0358753,0,.0537834v.5c.0218925.2259312-.1435137.4268312-.3694448.4487228-.0207891.0020151-.0417013.0024414-.0625553.001277h-1.9080009c-.2342887.0142393-.4357605-.1641464-.4499998-.3984346-.0010438-.0171728-.0010438-.0343924,0-.0515652v-.5ZM4.9020001,1.6999998c.2295737-.0090132.4229865.1697855.4320002.3993597.0004272.0108757.0004272.0217648,0,.0326405v.5c.0161109.2319527-.158864.4330482-.3908172.4491596-.0137057.0009518-.0274496.0012321-.041183.0008402h-1.9620001c-.2342887.0142393-.4357605-.1641455-.45-.3984346-.0010438-.0171728-.0010438-.0343924,0-.0515652v-.5c-.006634-.2324171.1763992-.4262066.4088166-.4328403.0137334-.000392.0274775-.0001116.0411835.0008402h1.9620001ZM15.1080005,1.7539997c0-.2340002.0179996-.3999996.0179996-.5939999,0-.6300001-.6300001-.6479998-1.1000004-.6479998-.54,0-1.0620003.0360003-1.6000004.0360003H3.7879998c-.5580001,0-1.0999999-.0360003-1.638-.0360003-.4679999,0-1.062.0179996-1.062.6479998,0,.1619997.0179999.3240004.0179999.5939999v1.2600002c0,.2880001-.018.4499998-.018.6119995,0,.6300001.63.6300001,1.1.6300001.5220001,0,1.062-.0179996,1.6000001-.0179996h8.6400003c.54,0,1.1000004.0179996,1.6380005.0179996.4680004,0,1.0620003-.0179996,1.0620003-.6300001,0-.1999998-.0179996-.3599997-.0179996-.6119995l-.0020008-1.2600002ZM28.5539996,8.7360001c-.090374-.0029774-.1808205.0030522-.2700005.0180001-.1002731.0266948-.2026463.0447607-.3059998.0539999-.0720005,0-.1620007-.0359998-.1620007-.1259999.0185604-.0977054.0692463-.1864042.1439991-.2519999.9148769-1.1036773,1.9402103-2.1109161,3.0599995-3.0060005.0720005-.0719995.1799984-.1619997.1799984-.2700005,0-.2700005-.7199993-1.3319998-1.1000004-1.3319998-.1414852.0107965-.2808018.0410824-.4139996.0900002-1.9755936.596096-3.9981689,1.0236273-6.0459957,1.2779999-.0720005,0-.1259995.0179996-.1800003.0179996-.3239994.0360003-.5400009.0539999-.5400009.2880001.0349483.2179575.1146183.4263258.2339993.6120005.3239994.5939999.3780003.7200003.6119995.7200003s2.7719994-.6479998,3.1679993-.7559996c.4119091-.1373215.832943-.2455873,1.2600002-.3240004.0725689-.0069599.1370392.0462265.1439991.1187954.0008049.0083818.0008049.0168219,0,.0252047,0,.1440001-.1620007.3059998-.2700005.4139996-.4860001.5-.9540005,1.0999999-1.4220009,1.6199999-1.3139992,1.5299997-2.6639996,3.0419998-4.0319996,4.5359998-.4139996.4679999-.8460007.918-1.2779999,1.368-.1070518.0926461-.1778946.2201623-.2000008.36,0,.324.7919998,1.044,1.1159992,1.044.1800003,0,.3780003-.306.5-.486.8160057-1.0479994,2.2360058-2.8619996,3.1360054-3.7619994.5445881-.5882292,1.2759895-.9698305,2.0699997-1.0799999.5760002,0,.7740002.2880001.7740002.8099999-.0142956.3924878-.0564003.783468-.1259995,1.1700001-.0894337.4571664-.1435947.9205315-.1620007,1.386-.0331669,1.0537898.7942123,1.9349417,1.8480034,1.9681079.0747204.0023517.1495152.0003122.2239971-.0061081,1.105402-.0673839,2.1851215-.3614809,3.171999-.864.2700005-.18.3059998-.8100001.3059998-1.1160001,0-.1440001.0180016-.72-.2000008-.72-.1705208.0447526-.3298836.1244354-.4679985.234-.7772331.5767388-1.6996574.9257634-2.6639996,1.008-.4680004,0-.7199993-.2-.7199993-.6999999.0163822-.4273896.0577869-.8534529.1240005-1.276.0746365-.4346697.1227245-.8734825.1439991-1.3139999.0247707-.4401174-.109375-.8744903-.3780003-1.224-.342577-.3330503-.8002338-.5214128-1.2779999-.526ZM25.4399993.6719999c-.3600006,0-.5939999,1.0620003-.5939999,1.1339998,0,.2340002.2000008.3059998.3780003.3599997.7560005.2519999,1.4939995.4860001,2.2320004.7740002.2917252.1448345.5999908.2536345.9179993.3240004.4139996,0,.5580006-1.2060003.5580006-1.2600002,0-.1999998-.1259995-.2700005-.2880001-.3059998-.4499989-.1260004-3.0419998-1.026-3.2040005-1.026ZM47.0580012,13.038c0,.306-.144001.72-.5.72-.6119995,0-1.5999985-.36-1.5999985-1.1.0200081-.4671738.414814-.8297505.882-.8099999.6626663-.0099628,1.2079391.5191586,1.2179031,1.1818254.000042.0027248.0000725.0054497.0000954.0081745ZM48.6240031,1.5380001c-.2161598.0263319-.4279518.0807924-.6300011.1619997-1.4762344.4200325-3.0013313.6439552-4.5359993.6660004h-.3240013c-.5,0-.5940018.0360003-.5940018.4499998,0,.2880001.0359993,1.3000002.4319992,1.3000002.1512756-.0152082.3015327-.0392485.4500008-.0719995,1.1339989-.2159996,2.2859993-.4139996,3.4000015-.684.1124458-.0267534.2267838-.0448074.3419991-.0539999.1259995,0,.2519989.0539999.2519989.1999998,0,.1619997-.1259995.2700005-.2159996.3780003-1.977272,2.2268906-4.0673447,4.3510075-6.262001,6.3639994-.1259995.1259999-.3600006.2880001-.3600006.4860001,0,.2519999.6839981,1.026,1.0439987,1.026.1080017,0,.1800003-.108.2879982-.234.6119995-.7,1.2420006-1.3999999,1.9080009-2.0520003,1.0579071-1.1161022,2.5322609-1.7420678,4.0700035-1.7280002,1.6380005,0,3.2220001.756,3.2220001,2.592-.0618782,1.5102696-1.1337814,2.7891607-2.6100006,3.1140001-.0937157.0056959-.174305-.065658-.1800003-.1593734-.0004158-.0068692-.0004158-.0137575,0-.0206267.0392914-.1471506.0634155-.2979364.0719986-.45,0-1.26-1.4580002-2.1600001-2.5919991-2.1600001-1.1413269-.0326853-2.0964432.8591151-2.1419983,2,.0207329.635078.3412704,1.2227368.8639984,1.584.7569237.5134193,1.6605453.7661808,2.5740013.72,2.8079987,0,5.5620003-1.638,5.5620003-4.6999999,0-2.4660001-2.0699997-3.8520002-4.3740005-3.8520002-.3460121-.0025539-.6908913.0397997-1.026001.1260004-.1006012.0251894-.2028542.0432348-.3059998.0539999-.1091423.0092726-.2054405-.0709743-.2159996-.1800003.0118179-.1012239.0560112-.1959238.1259995-.2700005.9050484-1.0384846,1.904686-1.9905806,2.9860001-2.8439989.0900002-.0539999.3419991-.1999998.3419991-.3059998-.0019989-.2880001-.8819962-1.4580002-1.5659981-1.4580002l.0000038.0019999ZM73.5000026.1499996c-.1800003,0-.7559967.4320002-.7559967.6479998,0,.0719995.0899963.1619997.1439972.2159996.4482956.4544821.8690491.935338,1.2600021,1.4399996.0540009.0719995.1259995.1800003.2340012.1800003.2340012,0,.7919998-.4680004.7919998-.6999998-.4517136-.6861486-1.017952-1.2895927-1.6740036-1.7839994ZM71.8080012,1.25c-.1800003,0-.7559967.4499998-.7559967.6479998.0232773.0907488.0734787.1723261.1439972.2340002.4319992.4499998.8280029.9180002,1.223999,1.4219999.0540009.0719995.1439972.1999998.2519989.1999998.2340012,0,.7919998-.4680004.7919998-.6999998-.4492645-.6887102-1.008728-1.298851-1.6559982-1.8059998v.0019999ZM67.7400004,11.9219999c.3779984,0,1.223999.036,1.223999.54,0,.882-.4860001,1.188-1.314003,1.188-.5220032,0-1.4400024-.234-1.4400024-.882.0000076-.668,1.0440063-.846,1.5300064-.846ZM68.4600016,1.6800003c-.1439972,0-.2340012.0719995-.2340012.2159996-.0040054.0671911.0020599.1346035.0179977.1999998.0719986.4680004.2699966,2.3000002.2699966,2.7179995,0,.4320002-.4140015.4320002-1.6200027.4320002-.7919998,0-2.1999969-.1260004-2.4120026-.1260004-.2340012,0-.2699966.1440001-.2699966.3599997.0131073.3389845.0552673.6762199.1259995,1.0080004.0540009.1440001.3420029.1999998,1.4000015.1999998.9899979,0,2.538002-.1079998,2.5559998-.1079998.4140015,0,.3779984.4679999.4000015.6659999.0360031.54.1800003,2.6279998.1800003,3.1139998,0,.1999998-.0899963.342-.3059998.342-.288002,0-.5759964-.0539999-.9540024-.0539999-1.3320007,0-2.7720032.5580001-2.7720032,2.1059999s1.5120087,2.1740012,2.8460083,2.1740012c1.1520004,0,2.2860031-.342,2.538002-1.6000001.0360031-.1620001.0540009-.4139999.2519989-.4139999.288002,0,1.314003.882,1.5660019,1.1.1080017.108.3059998.288.4680023.288.3600006,0,.8460007-.72.8460007-1.062,0-.5580001-1.961998-1.5839999-2.4660034-1.8180001-.4319992-.2-.5940018-.2160001-.6119995-.756-.0360031-.7199998-.2160034-3.3659997-.2160034-3.8340001,0-.4320002.288002-.5.5940018-.54.5400009-.0719995,1.3680038-.2340002,1.8899994-.3599997.1999969-.0539999.4319992-.1079998.4319992-.3599997,0-.0360003-.0899963-1.2600002-.4680023-1.2600002-.1425247.0253763-.2815094.0676756-.4140015.1260004-.5758667.1940832-1.165535.3445091-1.7639999.4499998-.4319992,0-.4000015-.4320002-.4000015-1.2779999-.0345001-.4016943.0145264-.806181.1439972-1.1879997.0705719-.0877466.1143265-.1939993.1259995-.3059998,0-.1440001-.1439972-.1800003-.4140015-.2159996-.4391479-.0967026-.8830948-.1701384-1.3299866-.2200012ZM62.8260028,2.3100004c-.4277115-.2040796-.8663826-.3843546-1.3139992-.54-.1619987,0-.2000008.1619997-.2340012.2880001-.1080017.5-.2700005,1.0080004-.4000015,1.5120001-.4932594,1.8021412-.7461205,3.661582-.7520027,5.5299993-.0481796,1.9604826.3391228,3.9072425,1.1340027,5.7000001.0900002.2.2519989.558.5.558.0719986,0,1.1160011-.2,1.1160011-.738,0-.27-.0359993-.558-.0359993-.828.1115303-.9738944.3467598-1.9295979.7000008-2.8440001.0488815-.1144757.0792542-.2359905.0899963-.3600001,0-.1799998-.4140015-.414-.5760002-.414-.2000008,0-.2879982.27-.3779984.5219998s-.3720016,1.1900003-.5880013,1.1900003c-.4140015,0-.5219994-2.4480002-.5219994-2.8440001.0139122-1.9074116.3423195-3.799469.9720001-5.6000004.0822105-.2788315.2879295-.5044565.5580025-.6119995.0899963-.0360003.1620026-.0719995.1620026-.1999998-.0000076-.1759996-.2520065-.2480001-.432003-.3199997ZM82.3880031,1.4820004c-.2340012,0-.2519989.1800003-.2519989.4320002.0059891.3543816-.0060272.7088385-.0360031,1.0620003-.1800003,2.2320004-.3420029,4.4640002-.3420029,6.6999998-.1164398,1.3689022.1781235,2.7414212.8460007,3.9419999.7352295.8998239,1.8487015,1.4043989,3.0100021,1.3639995,2.2884598-.0716751,4.3570251-1.3817668,5.4000015-3.42.3445587-.6344702.5811234-1.321861.6999969-2.0340002,0-.5-.8639984-1.224-1.2060013-1.224-.2340012,0-.2699966.3059998-.3059998.5580001-.1169968.9771247-.4972,1.9041228-1.0999985,2.6819999-.8714752,1.1143053-2.1867523,1.7916729-3.5999985,1.854-2.1060028,0-2.1419983-2.232-2.1419983-3.7799999-.0108185-2.0528502.1228409-4.1039171.4000015-6.1380005-.0020523-.3897972.1244812-.7693949.3600006-1.0799999.0899963-.0719995.1999969-.1440001.1999969-.2700005,0-.1619997-.1999969-.2340002-.3420029-.2700005-.5200577-.1646519-1.0514755-.2909889-1.5899963-.3779984ZM104.1540019,12.2639999c.6999969,0,.8460007.0179999.8460007.648,0,.882-.5400009,1.1-1.3320007,1.1-.5,0-1.4400024-.126-1.4400024-.7919999,0-.7939999,1.3499985-.9560001,1.9260025-.9560001ZM104.5540034,4.1280003c0,.0360003.0179977.0719995.0179977.1079998.1488037,1.4229803.2155838,2.8533454.1999969,4.2839999,0,.4499998.0899963,1.98.0899963,2.25-.0014648.1805911-.1490555.3258004-.3296432.3243339-.0041199-.0000334-.0082397-.0001447-.0123596-.000334h-.4140015c-1.3499985,0-3.1320038.5-3.1320038,2.1600001,0,1.4400001,1.5299988,1.98,2.7180023,1.98.7306137.0328061,1.4498367-.1899614,2.0339966-.63.3692474-.3415223.5671768-.8297653.5400009-1.332.0179977-.216,0-.558.3420029-.558.8409805.2499523,1.641304.62047,2.3759995,1.1.143837.1151639.3089981.2008009.4860001.252.288002,0,.7200012-.72.7200012-.972,0-.5400001-2.987999-1.5299999-3.5279999-1.656-.3420029-.0899999-.4860001-.2160001-.5-.576-.0179977-.612-.0899963-1.566-.0899963-2.1600003,0-.4320002.3600006-.4499998.6839981-.5.7885818-.1012287,1.5659637-.2759895,2.3219986-.5219998.1800003-.0539999.4000015-.1259999.4000015-.342,0-.1259999-.2340012-1.0079999-.5759964-1.0079999-.1055984.0047188-.2093811.0291386-.3059998.0719995-.7020874.2452946-1.4250793.4260435-2.1600037.54-.3059998,0-.3779984-.2340002-.3779984-.4860001,0-1.5120001.0719986-1.6920004.2340012-1.8360004.0785599-.0519543.1258698-.1398125.1259995-.2340002,0-.1440001-.1259995-.2159996-.2699966-.2519999-.4288254-.0969086-.8628769-.1690283-1.3000031-.2159996-.1539917-.0059996-.2979965.0480003-.2979965.210001h.0040054Z"/>
</svg>