<?xml version="1.0" encoding="utf-8"?>
<!-- Generator: Adobe Illustrator 24.2.0, SVG Export Plug-In . SVG Version: 6.00 Build 0)  -->
<svg version="1.1" id="レイヤー_1" xmlns="http://www.w3.org/2000/svg" xmlns:xlink="http://www.w3.org/1999/xlink" x="0px"
	 y="0px" viewBox="0 0 108 108" style="enable-background:new 0 0 108 108;" xml:space="preserve">
<style type="text/css">
	.st0{fill:#FFFFFF;}
</style>
<path id="パス_484" class="st0" d="M104.4,36.9c-0.3-1-0.6-1.9-1-2.8c-0.1-0.5-0.2-1-0.4-1.5c-0.7-2.5-2.1-4.9-3.9-6.7
	c-0.5-0.5-0.9-0.9-1.5-1.3c-1.6-2.4-3.4-4.7-5.3-7c-1.7-2.1-3.5-4.1-5.6-5.8c-2.8-2.4-5.8-4.6-8.9-6.7c-2.5-1.3-5.1-2.4-7.7-3.4h0
	C64.4,1.7,58.7,0.9,53,0.9c-1.8,0-3.5,0-5.3,0c-1.9,0.7-3.9,1.4-5.8,2.1c-3.3,1.2-6.6,2.3-9.9,3.5c-3.3,1.6-6.3,3.6-9.2,5.8
	c-0.7,0.5-1.5,1-2.3,1.5c-2.1,2.5-4.2,5-6.2,7.5c-1.3,1.7-2.5,3.6-3.6,5.5c-1.2,2.1-2.2,4.2-3.1,6.4c-0.6,1.3-1.1,2.7-1.4,4.1
	c-0.4,1.8-0.4,4-1.6,5.5C3.8,44,2.9,45,1.8,45.8c-0.2,1.8-0.4,3.6-0.5,5.4c-0.1,1.6-0.2,3.1-0.2,4.7c0,0.8,0,1.6-0.1,2.4
	c-0.1,0.7-0.1,1.3-0.2,2c1.2,1.9,2,3.9,2.5,6c0.5,2,1.1,4,1.9,5.9c1.6,3.6,3.6,7,5.3,10.5c1.5,3.3,3.3,6.6,5.3,9.7
	c0.7,0.8,1.4,1.7,2.1,2.5c0.9,0.5,1.8,1.1,2.6,1.6c2.8,1.6,5.6,3,8.5,4.2c3.6,1.7,7.3,3.4,10.9,5.1c1.3,0.4,2.7,0.7,4,1.1
	c0.3,0.1,0.7,0.2,1,0.3c1.1-0.1,2.2-0.2,3.3-0.3c3.6-0.3,7.2-0.6,10.9-0.8c1.3-0.1,2.6-0.1,3.9-0.1c1.1,0,2.3,0.1,3.4,0.4
	c1.3-0.5,2.6-0.9,3.8-1.4c2.6-1.1,5.1-2.3,7.7-3.3c0.8-0.3,1.6-0.6,2.4-0.8c0.3-0.1,0.5-0.1,0.8-0.2c1-0.3,2.1-0.4,3.1-0.4
	c1.7-1.4,3.5-2.7,5.4-3.9l0.9-0.5c0.7-1,1.4-2,2.1-3c1.6-2.4,3.3-4.7,4.9-7.1c1-1.5,2.1-3.1,3.1-4.6l0.3-0.7
	c0.5-1.2,0.9-2.3,1.3-3.5c0.2-0.9,0.4-1.9,0.6-2.8c0.3-1.4,0.8-2.8,1.3-4.2c0.4-1,0.7-2,1.1-3c0-0.2,0-0.5,0-0.7
	c1.1-2.3,1.8-4.8,1.9-7.3c0.4-5.2-0.5-10.5-1.3-15.6C105.5,41.2,105,39.1,104.4,36.9z"/>
</svg>
