<?xml version="1.0" encoding="utf-8"?>
<!-- Generator: Adobe Illustrator 24.2.0, SVG Export Plug-In . SVG Version: 6.00 Build 0)  -->
<svg version="1.1" id="レイヤー_1" xmlns="http://www.w3.org/2000/svg" xmlns:xlink="http://www.w3.org/1999/xlink" x="0px"
	 y="0px" viewBox="0 0 145 16" style="enable-background:new 0 0 145 16;" xml:space="preserve">
<style type="text/css">
	.st0{stroke:#000000;stroke-width:0.3;}
</style>
<path id="パス_2119" class="st0" d="M8.1,0.7c-0.2,0-0.8,0.4-0.8,0.6c0,0.1,0.1,0.2,0.2,0.2C7.9,2.1,8.3,2.5,8.7,3
	c0.1,0.1,0.1,0.2,0.3,0.2c0.2,0,0.8-0.5,0.8-0.7c0-0.2-0.5-0.8-0.7-0.9C8.9,1.5,8.2,0.7,8.1,0.7z M5.8,7.1C5.1,6.5,4.4,6,3.6,5.6
	c-0.3,0-0.8,0.7-0.8,1c0,0.2,0.2,0.3,0.3,0.4c1,0.7,2,1.5,2.9,2.3C6,9.4,6.2,9.5,6.3,9.5c0.3,0,0.9-0.7,0.9-1c0-0.2-0.6-0.7-1-1
	C6.1,7.4,5.9,7.3,5.8,7.1z M6.3,1.9c-0.2,0-0.8,0.4-0.8,0.6c0,0.1,0.1,0.2,0.2,0.3c0.4,0.4,0.8,0.9,1.2,1.4C6.9,4.3,7,4.4,7.1,4.4
	c0.3,0,0.8-0.5,0.8-0.7C7.5,3,6.9,2.4,6.3,1.9L6.3,1.9z M2.6,3.2c0-0.5,0-1,0-1.5c0-0.2,0-0.4,0.1-0.6C2.8,1.1,2.8,1,2.9,0.9
	c0-0.2-0.2-0.2-0.4-0.3c-0.2,0-1.2-0.2-1.3-0.2S0.9,0.5,0.9,0.7c0,0.1,0,0.3,0,0.3c0,0.4,0.1,1,0.1,1.5v9.9c0,0.8,0,1.7,0,2.6
	c0,0.6,0.2,0.7,0.8,0.7c0.8,0,0.9-0.1,0.9-0.9c0-0.8,0-1.6,0-2.4L2.6,3.2z M18.2,6.8c-0.8,0-1.9-0.1-2.2-0.1c-0.4,0-0.5,0.1-0.5,0.9
	c0,0.4,0,0.8,0.5,0.8c0.7,0,1.5-0.1,2.2-0.1h8.3c0.7,0,1.5,0.1,2.2,0.1c0.4,0,0.4-0.4,0.4-0.8c0-0.8,0-0.9-0.5-0.9
	c-0.3,0-1.4,0.1-2.2,0.1H18.2z M37.2,5.3c-0.7,0-1.5-0.1-2.2-0.1c-0.4,0-0.4,0.2-0.4,0.8c0,0.6,0,0.8,0.4,0.8c0.7,0,1.5,0,2.2,0H41
	c0.2,0,0.4,0.2,0.4,0.4c0,0.2,0,0.3-0.1,0.4c-0.3,2.6-2,4.9-4.4,6c-0.2,0.1-0.5,0.2-0.5,0.4c0.3,0.5,0.7,0.9,1.2,1
	c0.6-0.2,1.1-0.5,1.6-0.9c2.2-1.6,3.5-4,3.8-6.7c0-0.3,0.2-0.6,0.5-0.6h2.8c0.8,0,1.5,0,2.3,0C49,6.8,49,6.6,49,6.1
	c0-0.6,0-0.8-0.4-0.8c-0.8,0-1.5,0-2.3,0h-2.7c-0.3,0-0.5-0.2-0.5-0.6c0-0.9,0-1.8,0-2.6V1.9c0-0.4,0-0.4,0.2-0.6
	c0,0,0.1-0.1,0.1-0.2c0-0.1-0.1-0.2-0.2-0.2c-0.2,0-1.3-0.2-1.5-0.2c-0.1,0-0.2,0-0.2,0.2c0,0.1,0,0.1,0,0.2c0.1,0.5,0.1,2.4,0.1,3
	v0.3c0,0.4-0.1,0.8-0.5,0.8L37.2,5.3z M56.5,6.8c-0.7,0-1.6-0.1-2.2-0.1c-0.4,0-0.4,0.3-0.4,0.8c0,0.4,0,0.7,0.5,0.7
	c0.7,0,1.5,0,2.2,0h4c0.2,0,0.3,0.1,0.3,0.3c0,0.1,0,0.2-0.1,0.3c-0.3,1.1-0.9,2-1.6,2.9c-0.8,0.9-1.8,1.6-2.9,2.1
	c-0.2,0.1-0.4,0.2-0.4,0.3c0,0.3,0.8,1,1.1,1c0.8-0.3,1.5-0.8,2.2-1.3c1.6-1.3,2.7-3,3.2-4.9c0.1-0.4,0.2-0.7,0.7-0.7h3
	c0.7,0,1.5,0,2.2,0c0.4,0,0.4-0.3,0.4-0.7c0-0.6,0-0.8-0.4-0.8c-0.7,0-1.5,0.1-2.2,0.1h-2.8c-0.3,0-0.4-0.2-0.4-0.5
	c0-0.3,0-0.8,0-1.1c0-0.4-0.1-1.1-0.1-1.3c0-0.3,0.2-0.4,0.4-0.5c0.7-0.2,1.5-0.4,2.2-0.6c0.2-0.1,0.5-0.1,0.7-0.2
	c0.1,0,0.1,0,0.2,0c0.1,0,0.1,0,0.2,0c0.1,0,0.2-0.1,0.2-0.2c0-0.2-0.4-0.6-0.7-0.9l-0.1-0.1c-0.1-0.1-0.3-0.4-0.5-0.4
	c-0.1,0-0.2,0.1-0.3,0.1c-1.1,0.5-2.2,0.8-3.4,1c-1.6,0.3-3.1,0.4-4.7,0.4c-0.2,0-0.5,0-0.6,0c-0.2,0-0.4,0-0.4,0.3
	c0,0.3,0.1,0.6,0.3,0.9c0.1,0.3,0.2,0.4,0.6,0.4c1.5,0,4-0.3,4-0.3c0.4,0,0.4,0.3,0.4,1.5c0,0.8,0,1.5-0.6,1.5L56.5,6.8z M79.2,5.7
	c-0.7,0-1.3,0-1.7,0c-0.4,0-0.4,0.3-0.4,0.7c0,0.4,0,0.7,0.4,0.7c0.4,0,1.1,0,1.7,0h2.8c0.2,0,0.4,0.2,0.4,0.4c0,0,0,0,0,0
	c0,0.1,0,0.3,0,0.4l-0.4,3.5c0,0.3-0.2,0.4-0.5,0.4h-4.5c-0.6,0-1.3,0-1.7,0s-0.4,0.3-0.4,0.7c0,0.3,0,0.6,0.4,0.6
	c0.4,0,1.2,0,1.7,0h7.4c0.6,0,1.1,0,1.7,0c0.4,0,0.4-0.3,0.4-0.6c0-0.5,0-0.7-0.4-0.7c-0.6,0-1.2,0-1.7,0h-0.6
	c-0.2,0-0.4-0.2-0.4-0.4c0,0,0,0,0-0.1l0.4-3.6c0-0.2,0.2-1.3,0.2-1.3C83.8,6,83.4,5.7,83,5.7c-0.2,0-0.8,0-1.3,0L79.2,5.7z
	 M99.1,3.6c0.2,0,0.3,0.2,0.3,0.4c0,1.8-0.4,3.6-1.1,5.3c-0.3,0.8-1.2,2.7-2.2,2.7c-1,0-1.3-1.8-1.3-2.6c-0.1-2.4,1.4-4.7,3.7-5.5
	C98.7,3.7,98.9,3.6,99.1,3.6z M100.7,1.9c-4,0-7.3,3.2-7.4,7.3c0,0.1,0,0.1,0,0.2c0,0.9,0.2,1.7,0.5,2.5c0.4,0.9,1.3,1.5,2.3,1.6
	c0.9-0.1,1.7-0.6,2.2-1.3c1.7-2.1,2.4-5.4,2.6-8.1c0-0.3,0-0.7,0.5-0.7c0.3,0,0.5,0.1,0.8,0.2c2,0.6,3.3,2.5,3.2,4.6
	c0,2.5-1.8,4.5-4.3,4.9c-0.2,0-0.4,0.1-0.4,0.3c0,0.3,0.6,1.2,1,1.2c0.6-0.1,1.3-0.4,1.9-0.7c2.2-1.1,3.5-3.3,3.5-5.7
	c0-1.6-0.6-3.2-1.8-4.4C104,2.5,102.3,1.9,100.7,1.9z M115.1,9.5c0,0-1.3,0.3-1.3,0.7c0.1,0.6,0.3,1.1,0.6,1.6
	c1.1,1.6,3.1,1.9,4.9,1.9c1.8,0,3.6-0.2,5.4-0.5c0.3-0.1,0.4-0.4,0.4-0.7c0-0.7-0.1-1-0.3-1c-0.1,0-0.1,0-0.2,0
	c-1.8,0.4-3.6,0.6-5.5,0.6c-1.1,0.1-2.3-0.2-3.1-1c-0.3-0.4-0.5-0.8-0.6-1.3C115.4,9.6,115.3,9.5,115.1,9.5z M116.1,2.5
	c-0.2,0-0.3,0.2-0.3,0.3c-0.1,0.3-0.1,0.6-0.1,0.8c0,0.1,0,0.3,0.1,0.3c0.6,0.4,3.2,0.5,4,0.5c1.1,0,2.2-0.1,3.3-0.2
	c0.4-0.1,0.5-0.1,0.5-0.5c0-0.3,0-1.2-0.4-1.2c-0.1,0-0.2,0-0.2,0c-1.1,0.2-2.2,0.4-3.3,0.4c-1.1,0-2.1-0.1-3.1-0.4
	C116.4,2.5,116.2,2.5,116.1,2.5z M135.7,1.3c0,0.1,0,0.1,0.1,0.2c0.1,0.4,0.3,0.9,0.4,1.3c0.2,0.8,0.6,2.5,0.9,3.2
	c0,0.1,0.1,0.2,0.1,0.3c0,0.2-0.1,0.3-0.3,0.5c-1.5,1-3.3,2.2-3.3,4.2c0,1.1,0.6,2.1,1.6,2.6c1.1,0.6,2.3,0.9,3.6,0.8
	c1.7,0,3.3-0.1,5-0.3c0.3-0.1,0.3-0.3,0.3-0.7c0-0.4,0-1-0.2-1c-0.1,0-0.1,0-0.2,0c-1.6,0.3-3.1,0.4-4.7,0.4c-1,0.1-2.1-0.1-3-0.6
	c-0.4-0.2-0.7-0.7-0.8-1.2c0-1.5,2.1-2.8,3.3-3.4c1.7-1,3.5-1.9,5.4-2.6c0.1,0,0.3-0.1,0.3-0.3c0-0.2-0.7-1.5-1-1.5
	c-0.2,0-0.3,0.1-0.5,0.2c-1.2,0.8-2.5,1.5-3.9,2.1c-0.3,0-0.3-0.3-0.4-0.5c-0.3-1.2-0.5-2.4-0.7-3.6c0-0.4,0-0.6-0.5-0.6
	c-0.2,0-0.4,0-0.6,0.1C136.2,1,135.7,1,135.7,1.3z"/>
</svg>
