<?xml version="1.0" encoding="utf-8"?>
<!-- Generator: Adobe Illustrator 26.1.0, SVG Export Plug-In . SVG Version: 6.00 Build 0)  -->
<svg version="1.1" id="レイヤー_1" xmlns="http://www.w3.org/2000/svg" xmlns:xlink="http://www.w3.org/1999/xlink" x="0px"
	 y="0px" viewBox="0 0 155 155" style="enable-background:new 0 0 155 155;" xml:space="preserve">
<style type="text/css">
	.st0{fill:#FCFBFA;}
</style>
<g id="グループ_1241" transform="translate(-1273.861 7.091)">
	<path id="パス_485" class="st0" d="M1426.7,49.4c-0.3-4.1-0.6-8.3-0.8-12.4c-2.9-4.1-5.8-8.2-8.7-12.3c-2.1-2.9-4.1-5.8-6-8.8
		c-0.1-0.2-0.3-0.5-0.4-0.7c-0.4-0.3-0.9-0.6-1.3-0.9c-5.1-3.4-10.1-6.9-15.2-10.2c-5.2-3.4-10.7-6.3-16.1-9.4
		c-0.3-0.1-0.6-0.1-0.9-0.2c-4.4-0.5-8.8-0.8-13.2-0.8c-0.1,0-0.2,0-0.3,0c-5.1,0-10.1,0.5-15.2,0.9c-4.9,0.4-9.9,0.7-14.8,1
		c-4,0.3-8.1,0.5-12.1,0.9c-0.4,0.1-0.7,0.1-1.1,0.2c-1.7,0.9-3.4,1.8-5,2.9c-9.8,6.6-17.3,13.3-23.5,23.5
		c-3.6,6.2-6.5,12.9-8.6,19.8c-0.7,2.1-1.2,4.2-1.6,6.3c-3.6,6.9-6.2,14.4-7.7,22c0.5,2.5,1,5.1,1.5,7.6c0.9,4.9,1.8,9.8,2.9,14.7
		c1,4.2,2,8.4,3.1,12.6c1.4,1.8,2.8,3.6,4.2,5.4c2.3,2.7,4.4,5.5,6.6,8.3c1.8,2.3,3.8,4.4,6,6.4c2.7,2.4,5.6,4.6,8.5,6.9
		c0.2,0.1,0.5,0.2,0.7,0.3c3,1.2,6,2.3,9,3.5c6.2,2.4,12.3,4.9,18.5,7.2c2.7,1,5.3,1.8,8,2.6c5.2,0,10.4,0.3,15.6,0.4
		c2.5,0.1,5.1,0.1,7.6,0.1c0.8-0.1,1.6-0.2,2.4-0.3c2.7-0.4,5.5-0.7,8.2-1.1c3.8-2.2,7.6-4.5,11.5-6.4c4.9-2.4,10-4.4,15-6.7
		c0.1-0.1,0.3-0.1,0.4-0.2c2.4-2.8,4.8-5.5,7.4-8.2c2-2.1,3.9-4.1,5.8-6.3c3.1-4.2,5.9-8.7,8.3-13.4c1.3-3.4,2.3-6.9,3.1-10.5
		c0.1-7.1,0-14.3-0.2-21.4C1428.1,64.9,1427.4,57.1,1426.7,49.4z"/>
</g>
<g id="グループ_94_00000163753745842167653740000006909068078226679693_" transform="translate(1301.503 37.867)">
	<path id="パス_2191" d="M-1258.4,21.4c-0.3,0-0.6-0.2-0.6-0.6c0,0,0,0,0,0c-0.1-0.5,0.3-0.9,0.7-0.9c0,0,0,0,0,0
		c0.1,0,0.2,0,0.3,0.1c0.3,0.2,0.7,0.4,1,0.5c0.6,0,1.7-1.6,1.7-1.9c0-0.3-0.2-0.4-0.4-0.5c-0.7-0.3-1.4-0.7-2-1.2
		c-0.2-0.1-0.3-0.3-0.3-0.5c0-0.2,0.1-0.4,0.3-0.5c0.6-0.6,2.2-2.5,2.2-3.3c0-0.4-0.2-0.7-0.5-1c-0.5-0.5-1.2-0.8-1.9-0.7
		c-0.4,0-0.8,0-1.2,0h-2.8c-1.1,0-1.8,0-2.3,0c-0.7,0-0.8,0.1-0.8,0.7v1.1c0,0.6,0,0.8,0.5,0.8h0.5c0,0,0.1,0,0.1,0.1s0,0.1-0.1,0.1
		c0,0.1-0.1,0.1-0.1,0.2c0.3,0.7,0.7,1.4,1.1,2c0.1,0.1,0.2,0.2,0.2,0.4c0,0.3-0.4,0.5-0.7,0.7c-0.6,0.4-1.2,0.7-1.8,1
		c-0.2,0-0.2-0.3-0.2-0.4c0-0.4,0-0.9,0-1.2c0-0.7-0.5-0.8-1.1-0.8c-0.5,0-1,0-1.5,0c-0.1,0-0.3-0.1-0.3-0.2c0,0,0,0,0,0v-0.3
		c0-0.1,0.1-0.2,0.3-0.2h0.3c0.7,0,1.3,0,1.9,0c0.5,0,0.6-0.2,0.6-0.7v-0.9c0-0.6,0-0.8-0.5-0.8c-0.5,0-1,0-1.5,0h-0.2
		c-0.3,0-0.7-0.1-0.7-0.6c0-0.5,0-0.7,0.2-0.8c0.1-0.1,0.2-0.2,0.2-0.3c0-0.2-0.2-0.3-0.4-0.3c-0.3,0-2.1-0.2-2.4-0.2
		c-0.2,0-0.4,0-0.4,0.3v0.2c0,0.4,0.1,0.7,0.1,1.1c0,0.3-0.2,0.6-0.6,0.6c0,0-0.1,0-0.1,0h-0.3c-0.5,0-1.1,0-1.6,0
		c-0.5,0-0.5,0.1-0.5,0.7v1c0,0.5,0,0.7,0.6,0.7c0.6,0,1.3,0,1.9,0h0.4c0.1,0,0.2,0.1,0.2,0.2v0.3c0,0.1-0.1,0.2-0.2,0.3
		c0,0,0,0-0.1,0c-0.5,0-1,0-1.5,0c-0.6,0-1,0.1-1,0.8c0,0.3,0,0.7,0,1.2v3.8c0,0.5,0,0.9,0,1.2c0,0.7,0.4,0.8,1,0.8c0.5,0,1,0,1.5,0
		c0.2,0,0.3,0.1,0.3,0.3c0,0,0,0,0,0v0.1c0,0.2-0.1,0.3-0.3,0.3c0,0,0,0,0,0h-0.5c-0.6,0-1.3,0-1.9,0c-0.5,0-0.5,0.2-0.5,0.8v0.9
		c0,0.5,0,0.7,0.5,0.7c0.7,0,1.3,0,1.9,0h0.3c0.3,0,0.6,0.3,0.6,0.6c0,0.7-0.1,1.3-0.1,2c0,0.5,0.2,0.6,0.9,0.6h1.1
		c0.6,0,0.8,0,0.8-0.6c0-0.7,0-1.3,0-1.9c0-0.5,0.4-0.7,1-0.7c0.4,0,0.9,0,1.6,0c0.5,0,0.5-0.2,0.5-0.8v-0.8c0-0.6,0-0.8-0.5-0.8
		c-0.7,0-1.3,0-2,0h-0.4c-0.1,0-0.3-0.1-0.3-0.3v-0.2c0-0.2,0.1-0.3,0.3-0.3c0,0,0,0,0,0c0.5,0,1,0,1.5,0c0.6,0,1-0.1,1-0.8
		c0-0.3,0-0.7,0-1.2V20c0-0.1,0-0.4,0.2-0.4c0.1,0,0.2,0.2,0.3,0.3c0.2,0.2,0.4,0.5,0.7,0.5c1.1-0.4,2.1-1,3.1-1.7
		c0.2-0.1,0.4-0.2,0.6-0.2c0.3,0,0.6,0.1,0.8,0.3c0.3,0.3,0.6,0.4,0.6,0.5c0,0.1-0.1,0.1-0.2,0.1c0,0-0.3,0-0.7-0.1
		c-0.3,0-1.2-0.1-1.4-0.1c-0.2,0-0.4,0-0.4,0.3c0,0.2,0.1,0.8,0.1,1.2c0,0.3-0.3,0.6-0.6,0.6c0,0,0,0,0,0c-0.5,0-1,0-1.6,0
		c-0.5,0-0.6,0.2-0.6,1v0.9c0,0.6,0,0.9,0.6,0.9s1-0.1,1.6-0.1c0.3,0,0.6,0.2,0.7,0.5c0,0,0,0,0,0.1v0.7c0,0.5-0.5,0.6-0.7,0.6h-0.2
		c-0.6,0-1.3,0-1.9,0c-0.6,0-0.7,0.3-0.7,1v0.8c0,0.8,0,1.1,0.7,1.1c0.7,0,1.5-0.1,2.2-0.1h4c0.8,0,1.5,0.1,2.2,0.1
		c0.7,0,0.7-0.3,0.7-1v-1c0-0.6-0.1-0.9-0.7-0.9c-0.7,0-1.3,0-1.9,0h-0.2c-0.3,0-0.8-0.1-0.8-0.6v-0.7c0-0.5,0.2-0.6,0.7-0.6h0.1
		c0.6,0,1.3,0.1,1.7,0.1c0.5,0,0.6-0.2,0.6-0.9v-0.9c0-0.7,0-0.9-0.6-0.9c-0.5,0-1.1,0-1.7,0L-1258.4,21.4z M-1259.4,13.5
		c0,0.1-0.3,0.5-0.4,0.6c-0.1,0.1-0.2,0.2-0.3,0.2c-0.3,0-0.6-0.6-0.6-0.7c0-0.3,0.2-0.3,0.5-0.3h0.4
		C-1259.8,13.3-1259.4,13.3-1259.4,13.5L-1259.4,13.5z M-1270.7,17.9c0,0.1-0.1,0.3-0.2,0.3c0,0,0,0,0,0h-0.3
		c-0.1,0-0.3-0.1-0.3-0.3v-0.2c0-0.1,0.1-0.3,0.3-0.3h0.3c0.1,0,0.3,0.1,0.3,0.3L-1270.7,17.9z M-1270.7,20.6c0,0.2-0.2,0.3-0.3,0.3
		h-0.2c-0.2,0-0.3-0.2-0.3-0.3v-0.1c0-0.2,0.1-0.3,0.3-0.3c0,0,0,0,0,0h0.2c0.2,0,0.3,0.2,0.3,0.3c0,0,0,0,0,0V20.6z M-1268.5,17.7
		c0-0.1,0.1-0.3,0.2-0.3c0,0,0,0,0,0h0.3c0.1,0,0.3,0.1,0.3,0.3v0.2c0,0.1-0.1,0.3-0.3,0.3h-0.3c-0.1,0-0.3-0.1-0.3-0.2c0,0,0,0,0,0
		L-1268.5,17.7z M-1268.5,20.4c0-0.2,0.1-0.3,0.3-0.3c0,0,0,0,0,0h0.2c0.2,0,0.3,0.1,0.3,0.3c0,0,0,0,0,0v0.1c0,0.2-0.2,0.3-0.3,0.3
		h-0.2c-0.2,0-0.3-0.2-0.3-0.3V20.4z M-1249.8,20.3c-0.9,0-1.9,0-2.9,0c-0.5,0-0.6,0.2-0.6,0.9v1.2c0,0.7,0,0.9,0.6,0.9
		c1,0,1.9,0,2.9,0c0.2,0,0.4,0,0.4,0.2c-0.1,0.4-0.4,0.7-0.6,1c-0.8,0.9-1.8,1.7-2.8,2.3c-0.1,0.1-0.4,0.3-0.4,0.5c0,0.5,1.3,2,2,2
		c0.7,0,4.2-2.5,5.2-5.4c0.2-0.5,0.5-0.5,0.9-0.5h2.5c0.3,0,0.6,0.3,0.6,0.6c0,0,0,0,0,0v1.3c0,1.2-0.1,2.3-0.1,3.5
		c0,0.5,0.2,0.5,0.8,0.5h1.5c0.7,0,0.9-0.1,0.9-0.5c0-1.2-0.1-2.3-0.1-3.5v-1c0-0.6,0.1-0.9,0.8-0.9h0.3c1,0,1.9,0,2.9,0
		c0.5,0,0.6-0.3,0.6-0.9v-1.2c0-0.7,0-0.9-0.6-0.9c-0.9,0-1.9,0-2.9,0h-0.3c-0.5,0-0.7-0.3-0.7-0.8v-1.9c-0.1-0.3,0.2-0.6,0.5-0.7
		c0,0,0.1,0,0.1,0c0.9,0,1.8,0.1,2.7,0.1c0.5,0,0.6-0.3,0.6-0.9v-1.2c0-0.7,0-0.9-0.6-0.9c-0.8,0-1.5,0-2.3,0h-0.4
		c-0.3,0-0.6-0.3-0.6-0.6c0,0,0,0,0,0v-1.5c0-0.3,0-0.6,0.2-0.9c0.1-0.1,0.2-0.2,0.2-0.3c0-0.3-0.3-0.3-0.7-0.3
		c-0.8,0-1.8-0.1-2.6-0.1c-0.2,0-0.3,0.1-0.3,0.3c0,0.1,0,0.1,0,0.2c0.1,0.5,0.1,0.9,0.1,1.4v1.2c0,0.5-0.4,0.6-0.8,0.6h-1.8
		c-0.5,0-0.8-0.2-0.8-0.7v-1.6c0-0.3,0-0.5,0.3-0.7c0.1-0.1,0.3-0.1,0.3-0.3c0-0.1-0.1-0.3-0.3-0.3c-0.3-0.1-2.5-0.2-2.9-0.2
		c-0.3,0-0.5,0-0.5,0.4c0,0.1,0.1,1.5,0.1,2.4v0.3c0,0.3-0.2,0.6-0.5,0.7c0,0-0.1,0-0.1,0h-0.6c-0.8,0-1.6,0-2.3,0
		c-0.5,0-0.6,0.3-0.6,0.9V16c0,0.7,0,0.9,0.6,0.9c0.8,0,1.6-0.1,2.4-0.1h0.6c0.4,0,0.6,0.3,0.6,0.7v0.9c0,1.4-0.1,1.7-0.7,1.7
		L-1249.8,20.3z M-1242.1,19.7c0,0.3-0.2,0.6-0.6,0.6c0,0,0,0,0,0h-2c-0.4,0-0.8-0.1-0.8-0.6v-2.2c0-0.3,0.3-0.6,0.6-0.6h2.2
		c0.3,0,0.6,0.3,0.6,0.6V19.7z M-1228.5,20c-0.2,0-0.2,0.1-0.3,0.2c-0.9,2.2-2,4.2-3.3,6.2c-0.1,0.1-0.3,0.3-0.3,0.5
		c0,0.3,0.6,0.7,0.9,0.9c0.1,0,0.1,0.1,0.1,0.1c0.1,0.1,0.2,0.1,0.3,0.2c0.4,0.4,0.8,0.7,1.3,0.9c0.2,0,0.3-0.1,0.3-0.3
		c0-0.1,0-0.2,0-0.3c0-0.1,0-0.2,0-0.3c0-0.2,0.1-0.4,0.3-0.6c0.9-1.5,1.7-3.1,2.5-4.7c0-0.1,0.1-0.2,0.1-0.3
		c0.2-0.3,0.3-0.6,0.4-0.9C-1226.4,21.2-1227.9,20-1228.5,20z M-1232.2,16.8c0,0.1,0.1,0.2,0.3,0.4c0.6,0.4,1.3,0.9,1.9,1.4
		c0,0,0.1,0.1,0.1,0.1c0.3,0.3,0.8,0.7,1,0.7c0.3,0,0.7-0.5,0.9-0.7c0.3-0.3,0.8-0.9,0.8-1.3c0-0.3-0.8-0.9-1-1.1
		c-0.1-0.1-0.1-0.1-0.2-0.2c-0.6-0.5-1.3-1-2-1.3C-1231,14.7-1232.2,16.4-1232.2,16.8z M-1227.9,11.1c-0.4-0.4-0.9-0.7-1.4-0.9
		c-0.3,0-0.5,0.3-0.7,0.5c0,0-0.1,0.1-0.1,0.1c0,0-0.1,0.1-0.1,0.2c-0.3,0.3-0.7,0.9-0.7,1.1c0,0.2,0.1,0.3,0.3,0.4
		c0.7,0.5,1.4,1.1,2.1,1.6c0,0,0.1,0.1,0.2,0.1c0.2,0.1,0.5,0.4,0.6,0.4c0.3,0,0.5-0.3,0.7-0.5c0.1-0.1,0.2-0.2,0.3-0.4
		c0.3-0.3,0.6-0.7,0.7-1.2c0-0.1-0.1-0.2-0.2-0.3c-0.4-0.4-1-0.9-1.4-1.2C-1227.8,11.2-1227.9,11.1-1227.9,11.1z M-1221.5,16.4
		c-0.3,0-0.6-0.2-0.6-0.6c0,0,0,0,0,0v-1.6c0-0.3,0.3-0.6,0.6-0.6h4c0.3,0,0.6,0.3,0.6,0.6c0,0,0,0,0,0v1.6c0,0.3-0.2,0.6-0.6,0.6
		c0,0,0,0,0,0H-1221.5z M-1216.9,19.2c0.6,0,1.2,0,1.8,0c0.7,0,1.1-0.2,1.1-1c0-0.7,0-1.3,0-2v-2.4c0-0.7,0-1.3,0-2
		c0-0.8-0.4-1.1-1.1-1.1c-0.7,0-1.3,0-2,0h-4.8c-0.7,0-1.4,0-2,0c-0.8,0-1.1,0.3-1.1,1.1c0,0.7,0,1.3,0,2v3.3c0,3.4-0.5,7-2.5,9.8
		c-0.1,0.1-0.2,0.3-0.3,0.5c0,0.5,1.6,1.8,2.2,1.8c0.8,0,1.9-2.4,2.2-3c0.8-2.1,1.2-4.3,1.2-6.5c0-0.4,0.2-0.5,0.5-0.5h0.5
		c0.3,0,0.4,0.1,0.5,0.4c0.2,1.8,0.7,3.6,1.5,5.2c0.7,1.3,1.5,2.5,2.5,3.6l0.2,0.2c0.3,0.3,0.6,0.7,0.8,0.7c0.6,0,2.3-1.4,2.3-2
		c0-0.2-0.2-0.4-0.4-0.5c-1.7-1.4-3-3.2-3.7-5.2c-0.2-0.7-0.4-1.3-0.5-2c0-0.2,0.1-0.4,0.3-0.4c0,0,0,0,0,0L-1216.9,19.2z
		 M-1202.4,25.6c-0.3,0-0.6-0.2-0.6-0.5c0,0,0,0,0-0.1v-1c0-0.3,0.3-0.6,0.6-0.6c0,0,0,0,0,0h4.7c0.3,0,0.6,0.3,0.6,0.6c0,0,0,0,0,0
		v1c0,0.3-0.2,0.6-0.6,0.6c0,0,0,0,0,0H-1202.4z M-1197.8,28.2c0.4,0,0.7,0.2,0.7,0.6v0.1c0,0.3,0.3,0.4,0.8,0.4h1.4
		c0.6,0,0.9,0,0.9-0.4c0-0.1-0.1-0.8-0.1-1.6v-4.3c0-0.6,0.1-1,0.1-1.3c0-0.7-0.7-0.8-1.6-0.8c-0.7,0-1.3,0-2,0h-1
		c-0.3,0-0.6-0.2-0.6-0.6c0,0,0,0,0,0v-0.4c0-0.3,0.3-0.6,0.6-0.6c0,0,0,0,0,0h2.7c0.8,0,1.6,0.1,2.4,0.1c0.4,0,0.5-0.2,0.5-0.8
		v-1.1c0-0.6,0-0.8-0.5-0.8c-0.8,0-1.6,0-2.4,0h-2.6c-0.3,0-0.6-0.2-0.6-0.5c0,0,0-0.1,0-0.1c0-0.3,0-0.4,0.2-0.5
		c0.1-0.1,0.2-0.1,0.2-0.3c0-0.1,0-0.1,0-0.1c0-0.1,0.2-0.1,0.2-0.1h2.9c0.8,0,1.7,0.1,2.5,0.1c0.5,0,0.6-0.2,0.6-0.9v-1.2
		c0-0.7,0-0.9-0.6-0.9c-0.8,0-1.7,0-2.5,0h-3.6c-0.3,0-0.6-0.2-0.6-0.5c0,0,0,0,0-0.1c0-0.2,0-0.5,0.2-0.7c0.1-0.1,0.2-0.2,0.2-0.3
		c0-0.3-0.3-0.3-0.5-0.3c-0.8-0.1-1.5-0.1-2.2-0.2c-0.1,0-0.4,0-0.5,0c-0.2,0-0.4,0-0.4,0.3c0,0.3,0.1,0.9,0.1,1.2
		c0,0.3-0.2,0.6-0.6,0.6c0,0-0.1,0-0.1,0h-2.5c-0.7,0-1.4,0-2.2,0c-0.8,0-1.2,0.2-1.2,1.1c0,0.7,0.1,1.5,0.1,2.2v2.2
		c0,3.4-0.1,6.1-1.6,9.2c-0.1,0.2-0.2,0.5-0.3,0.7c0,0.5,1.8,1.5,2.3,1.5c0.2,0,0.3-0.1,0.4-0.3c0.5-0.8,0.9-1.6,1.1-2.5
		c0.8-2.6,1.1-5.3,1.1-8v-2.6c0-0.3,0.3-0.6,0.6-0.6c0,0,0,0,0,0h3c0.6,0,0.7,0.4,0.7,1.4v3.8c0,0.3-0.2,0.6-0.5,0.6
		c0,0-0.1,0-0.1,0c-0.5,0-1,0-1.5,0c-0.9,0-1.6,0.1-1.6,0.8c0,0.4,0.1,0.8,0.1,1.3v4.3c0,0.6-0.1,1.4-0.1,1.6c0,0.3,0.3,0.4,0.9,0.4
		h1.5c0.5,0,0.8-0.1,0.8-0.4c0-0.4,0.3-0.6,0.7-0.6L-1197.8,28.2z M-1182.4,10.2c-0.2,0-0.2,0.1-0.3,0.5c-0.2,0.8-0.5,1.9-0.7,2.5
		c-0.1,0.3-0.2,0.6-0.5,0.6c-0.4-0.1-0.8-0.3-1.1-0.5c-0.2-0.2-0.5-0.3-0.8-0.4c-0.6,0-1.1,2.1-1.1,2.6c0,0.3,0.1,0.5,1.8,1.2
		c0.3,0.1,0.6,0.3,0.6,0.7c0,0.2-0.1,0.5-0.1,0.7c-0.1,0.4-0.3,0.5-0.5,0.5c-0.3-0.1-0.6-0.2-0.9-0.4c-0.2-0.1-0.4-0.2-0.6-0.3
		c-0.5,0-0.6,0.6-0.8,1.2c-0.1,0.5-0.2,0.9-0.3,1.4c0,0.4,0.3,0.5,1.7,1c0.3,0.1,0.6,0.2,0.6,0.7c0,0-0.1,0.7-0.1,0.9
		c0,3.5,1.9,5.6,5.5,5.6c1.5,0,3-0.3,4.3-1.1c1.2-0.8,1.9-2.1,1.9-3.6c0-1.3-0.3-2.5-0.7-3.7c-0.2-0.7-0.3-1-0.7-1
		c-0.6,0.1-1.2,0.2-1.8,0.4c-0.6,0.3-0.8,0.4-0.8,0.6c0,0.2,0,0.3,0.1,0.5c0.4,1,0.6,1.9,0.6,3c0,0.5-0.2,1.1-0.7,1.4
		c-0.7,0.3-1.5,0.5-2.3,0.5c-0.8,0.1-1.5-0.3-2-0.9c-0.2-0.4-0.3-0.9-0.3-1.4v-0.1c0-0.3,0-0.7,0.5-0.7c0,0,0.1,0,0.1,0
		c0.6,0.1,1.2,0.2,1.7,0.2c0.5,0,0.7-0.2,0.8-0.7c0.2-0.7,0.3-1.3,0.4-2c0-0.4-0.3-0.4-0.9-0.4c-1.5,0-2.1,0-2.1-0.6
		c0-0.1,0-0.2,0-0.3l0-0.2c0.1-0.4,0.2-0.8,0.7-0.8c0.1,0,0.1,0,0.2,0c0.9,0.1,1.7,0.2,2.6,0.3c0.3,0,0.4-0.2,0.6-0.7
		c0.2-0.6,0.3-1.2,0.3-1.9c0-0.5-0.3-0.5-0.7-0.5c-0.5,0-1,0-1.5-0.1c-0.7,0-1-0.1-1-0.5c0-0.1,0-0.2,0.1-0.3l0.4-1.2
		c0.3-0.8,0.4-0.9,0.8-1c0.1,0,0.2-0.1,0.2-0.2c0-0.1-0.1-0.3-0.3-0.3C-1180.4,10.8-1181.4,10.5-1182.4,10.2L-1182.4,10.2z
		 M-1258.9,50.6c-0.4,0.8-0.8,1.6-1.3,2.3c-0.2,0.3-0.6,0.5-1,0.5h-0.9c-0.1,0-0.3,0-0.3-0.1c0-0.1,0-0.1,0.1-0.1
		c0.1-0.1,0.4-0.3,0.4-0.5c-0.3-0.6-0.6-1.1-0.9-1.6c-0.2-0.3-0.7-1.1-1-1.1c-0.4,0-2.2,0.8-2.2,1.3c0,0.1,0.1,0.3,0.2,0.4
		c0.4,0.5,0.7,1,1,1.5c0,0.2-0.3,0.3-0.4,0.3h-1.2c-0.2,0-0.3,0-0.3-0.1c0,0,0,0,0-0.1c0.2-0.1,0.2-0.2,0.2-0.3
		c-0.2-0.5-0.5-0.9-0.8-1.3c-0.1-0.1-0.1-0.2-0.2-0.3c-0.2-0.3-0.8-1.1-1.2-1.1c-0.4,0-2.1,0.8-2.1,1.3c0,0.1,0,0.2,0.1,0.3
		c0.4,0.4,0.7,0.8,0.9,1.3c0,0.1-0.1,0.2-0.3,0.2h-1.1c-0.5,0-1.2,0.1-1.2,0.7c0,0.2,0,0.5,0,1v1.6c0,0.4-0.1,0.8-0.1,1
		c0,0.4,0.3,0.5,0.9,0.5h1.2c0.6,0,0.9,0,0.9-0.5c0-0.3-0.1-0.6-0.1-1v-0.1c0-0.5,0.3-0.7,0.8-0.7h11c0.3,0,0.6,0.2,0.7,0.5
		c0,0,0,0.1,0,0.1v0.2c0,0.4-0.1,0.8-0.1,1c0,0.4,0.3,0.5,1,0.5h1.2c0.6,0,0.9,0,0.9-0.5c0-0.2,0-0.5,0-1v-1.6c0-0.5,0-0.9,0-1.1
		c0-0.7-0.7-0.7-1.4-0.7c-0.3,0-0.7,0-1,0c-0.2,0-0.4,0-0.4-0.3c0.2-0.4,0.5-0.9,0.8-1.2c0.1-0.1,0.3-0.2,0.4-0.2
		c0.2,0,0.3,0,0.3-0.3c0-0.2-0.1-0.2-0.4-0.3c-0.4-0.1-2.6-0.9-2.8-0.9C-1258.7,50.2-1258.8,50.4-1258.9,50.6z M-1267.5,65.4
		c0-0.2,0.2-0.4,0.4-0.4h7.9c0.2,0,0.4,0.2,0.4,0.4c0,0,0,0,0,0v0.2c0,0.2-0.2,0.4-0.4,0.4c0,0,0,0,0,0h-7.9c-0.2,0-0.4-0.2-0.4-0.4
		c0,0,0,0,0,0V65.4z M-1265.8,59.1c0-0.2,0.2-0.4,0.4-0.4l0,0h4.5c0.2,0,0.4,0.2,0.4,0.4c0,0,0,0,0,0v0.1c0,0.2-0.2,0.4-0.4,0.4l0,0
		h-4.5c-0.2,0-0.4-0.2-0.4-0.4c0,0,0,0,0,0V59.1z M-1261.3,62.7c-0.2,0-0.5,0-0.5-0.3c0-0.1,0.1-0.7,1-0.7c0.1,0,0.2,0.1,0.3,0.2
		c0.1,0.3,0.3,0.3,0.8,0.3h1.4c0.7,0,0.9,0,0.9-0.5c0-0.3-0.1-1.3-0.1-1.9v-1c0-0.5,0-1,0-1.4c0-0.8-0.8-0.8-1.4-0.8
		c-0.7,0-1.4,0-2,0h-4.5c-0.7,0-1.3,0-2,0c-0.6,0-1.4,0-1.4,0.8c0,0.5,0,1,0,1.4v1c0,0.7-0.1,1.6-0.1,1.9c0,0.4,0.3,0.5,0.9,0.5h1.4
		c0.5,0,0.8,0,0.9-0.3c0-0.1,0.1-0.2,0.3-0.2c0.2,0,0.4,0.1,0.4,0.3c0,0.1,0,0.1-0.1,0.3c-0.2,0.3-0.3,0.4-0.8,0.4h-1.2
		c-0.7,0-1.4,0-2.1,0c-0.6,0-1.4,0-1.4,0.8c0,0.5,0,1,0,1.5v1.8c0,0.8-0.1,1.6-0.1,2c0,0.4,0.2,0.5,0.9,0.5h1.3c0.7,0,1,0,1-0.5
		v-0.1c0-0.2,0.2-0.4,0.3-0.4c0,0,0,0,0.1,0h7.8c0.2,0,0.4,0.1,0.4,0.3v0.1c0,0.4,0.3,0.5,1,0.5h1.4c0.7,0,0.9,0,0.9-0.5
		c0-0.3-0.1-1.3-0.1-2V65c0-0.5,0-1,0-1.5c0-0.8-0.8-0.8-1.4-0.8c-0.7,0-1.4,0-2.1,0H-1261.3z M-1241.4,55.7c0.2,0,0.5,0,0.5,0.3
		c0,0.1,0,0.2-0.1,0.3c-0.2,0.4-0.6,0.6-1,0.5h-2c-0.3,0.1-0.7-0.1-0.9-0.4c-0.1-0.3-0.2-0.3-0.2-0.4c0-0.3,0.3-0.3,0.6-0.3H-1241.4
		z M-1237.7,50.6c-0.4,0.9-0.8,1.7-1.3,2.5c-0.1,0.2-0.1,0.2-0.2,0.2c-0.1,0-0.1-0.2-0.1-0.4v-0.9c0-0.5,0-0.9,0.2-1.1
		c0.1-0.1,0.2-0.2,0.2-0.3c0-0.3-0.3-0.3-0.7-0.3c-0.1,0-0.2,0-0.3,0c-0.4,0-1.8-0.2-2.1-0.2c-0.3,0-0.4,0.1-0.4,0.3
		c0,0.2,0.1,0.7,0.1,1.5v1.2c0,0.2-0.1,0.3-0.3,0.3c0,0,0,0,0,0h-0.7c-0.1,0-0.3-0.1-0.3-0.3v-1c0-0.5,0-0.9,0.2-1.1
		c0.2-0.1,0.3-0.3,0.3-0.4c0-0.3-0.2-0.3-0.8-0.4c-0.3,0-1.9-0.2-2.2-0.2c-0.3,0-0.4,0.1-0.4,0.3c0,0.1,0,0.1,0,0.2
		c0,0.5,0.1,1.1,0.1,1.7v0.6c0,0.3-0.3,0.6-0.6,0.6c0,0,0,0-0.1,0h-0.2c-0.1,0-0.2,0-0.2-0.1c0-0.1,0.1-0.1,0.1-0.2
		c0.1-0.1,0.4-0.2,0.4-0.4c-0.4-0.6-0.8-1.2-1.2-1.8c-0.1-0.1-0.1-0.2-0.2-0.2c-0.2-0.3-0.3-0.4-0.5-0.4c-0.5,0-2.3,0.8-2.3,1.1
		c0,0.1,0,0.1,0.1,0.2c0.4,0.5,0.8,1,1.1,1.5c0,0.3-0.3,0.3-0.5,0.3c-0.3,0-0.6,0-0.9,0c-0.4,0-0.5,0.2-0.5,0.7V55
		c0,0.5,0,0.7,0.5,0.7c0.8,0,1.7,0,2.5,0c0.3,0,0.6,0.2,0.7,0.5c0.1,0.1,0.1,0.2,0.1,0.4c0,0.2-0.2,0.3-0.4,0.3c-0.9,0-1.6,0-2,0
		c-0.7,0-0.7,0.1-0.7,0.8v0.6c0,0.5,0,0.7,0.5,0.7c0.9,0,1.8,0,2.8,0h2.8c0.2,0,0.3,0.1,0.3,0.3c0,0,0,0,0,0v0.1
		c0,0.2-0.1,0.3-0.3,0.3c0,0,0,0,0,0h-2.1c-0.8,0-1.6,0-2.5,0c-0.5,0-0.5,0.2-0.5,0.7V61c0,0.5,0,0.7,0.5,0.7c0.8,0,1.7,0,2.5,0h2.1
		c0.2,0,0.3,0.1,0.3,0.3c0,0,0,0,0,0v0c0,0.2-0.1,0.3-0.3,0.3c0,0,0,0,0,0h-3.9c-1,0-2,0-2.9,0c-0.5,0-0.5,0.2-0.5,0.7v0.6
		c0,0.7,0,0.8,0.5,0.8c1,0,2,0,2.9,0h0.8c0.2,0,0.3,0,0.3,0.1c0,0,0,0.1-0.1,0.1c-1.2,0.7-2.5,1.2-3.8,1.6c-0.5,0.2-0.8,0.2-0.8,0.5
		c0,0.5,1.2,2.2,1.7,2.2c0.5-0.1,1-0.3,1.4-0.5c1.4-0.7,2.8-1.5,4.1-2.4c0.1-0.1,0.2-0.2,0.4-0.2c0.2,0,0.3,0.2,0.3,0.3
		c0,0.8-0.1,1.6-0.1,2.4c0,0.6,0.3,0.7,1.1,0.7h1.3c0.8,0,1-0.1,1-0.7c0-0.8-0.1-1.5-0.1-2.3c0-0.2,0-0.4,0.3-0.4
		c0.1,0,0.3,0.1,0.4,0.2c1,0.8,2,1.4,3.1,2c0.7,0.4,1.5,0.7,2.3,1c0.6,0,1.8-1.5,1.8-2c0-0.2-0.2-0.3-0.5-0.4
		c-1.1-0.4-2.2-0.9-3.3-1.4c-0.4-0.2-0.8-0.5-0.8-0.5c0-0.1,0.1-0.1,0.3-0.1h0.9c1,0,2,0,2.9,0c0.4,0,0.5-0.1,0.5-0.8V63
		c0-0.5,0-0.7-0.5-0.7c-1,0-1.9,0-2.9,0h-4c-0.2,0-0.3-0.1-0.3-0.3c0,0,0,0,0,0v0c0-0.2,0.1-0.3,0.3-0.3c0,0,0,0,0,0h2.2
		c0.8,0,1.7,0,2.5,0c0.5,0,0.5-0.2,0.5-0.7v-0.7c0-0.5,0-0.7-0.5-0.7c-0.8,0-1.6,0-2.5,0h-2.2c-0.2,0-0.3-0.1-0.3-0.3c0,0,0,0,0,0
		v-0.1c0-0.2,0.1-0.3,0.3-0.3c0,0,0,0,0,0h3c0.9,0,1.8,0,2.8,0c0.4,0,0.5-0.2,0.5-0.7v-0.8c0-0.4,0-0.6-0.5-0.6c-0.5,0-1,0-1.5,0
		h-0.8c-0.2,0-0.3-0.1-0.3-0.3c0,0,0,0,0,0c0-0.1,0-0.1,0.1-0.2c0.1-0.2,0.3-0.3,0.5-0.3c0.1,0,0.3-0.1,0.3-0.2c0-0.1,0-0.2,0.3-0.2
		c0.7,0,1.5,0,2.2,0c0.4,0,0.5-0.2,0.5-0.7v-0.8c0-0.5,0-0.7-0.5-0.7s-0.9,0-1.4,0c-0.2,0-0.3-0.1-0.3-0.3c0.2-0.4,0.4-0.8,0.7-1.2
		c0.1-0.1,0.2-0.2,0.4-0.3c0.1,0,0.3,0,0.3-0.2c0-0.2-0.3-0.3-0.5-0.4c-0.7-0.3-1.4-0.6-2.1-0.8
		C-1237.6,50.4-1237.6,50.5-1237.7,50.6L-1237.7,50.6z M-1228.3,57.7c-1,0-2.5-0.1-2.8-0.1c-0.5,0-0.6,0.2-0.6,1.1v1.2
		c0,0.6,0.1,1,0.7,1c0.5,0,1.7-0.1,2.7-0.1h3.4c0.2,0,0.4,0.2,0.4,0.4l0,0c-0.1,0.3-0.2,0.6-0.3,0.9c-0.9,1.8-2.4,3.2-4.2,4.1
		c-0.3,0.1-0.5,0.2-0.5,0.4c0,0.4,1.6,2.1,2.2,2.1c0.9-0.3,1.6-0.8,2.3-1.4c1.9-1.4,3.3-3.4,3.9-5.7c0.2-0.7,0.4-0.7,1.1-0.7h2.6
		c1,0,1.9,0,2.9,0c0.6,0,0.7-0.2,0.7-1.1v-1c0-0.9-0.1-1-0.6-1c-0.8,0-1.9,0-3,0h-2.4c-0.3,0-0.5-0.2-0.5-0.5c0,0,0,0,0-0.1V56
		c0-0.5,0.1-0.7,0.7-0.8c0.8-0.2,2-0.6,2.8-0.8c0.2-0.1,0.5-0.1,0.7-0.2c0.1,0,0.1,0,0.2,0h0.2c0.1,0,0.3-0.1,0.3-0.2
		c0-0.1,0-0.2-0.1-0.2c-0.1-0.2-1.2-1.3-1.4-1.5s-0.9-0.9-1.1-0.9c-0.1,0-0.1,0-0.2,0.1c-1.9,1.2-6.4,1.6-8.6,1.6
		c-0.7,0-1.6-0.1-1.9-0.1c-0.3,0-0.4,0.1-0.4,0.3c0.1,0.7,0.2,1.5,0.5,2.2c0.2,0.5,0.3,0.6,0.9,0.6c0.8,0,2.5-0.1,3.3-0.2
		c0.2,0,0.3,0,0.5,0c0.4,0,0.5,0.4,0.5,0.6v0.2c0,0.7,0,1.1-0.6,1.1H-1228.3z M-1204.4,56.8c-0.8,0-1.9,0-2.2,0
		c-0.4,0-0.5,0.2-0.5,0.9v0.9c0,0.7,0.1,0.9,0.6,0.9c0.6,0,1.4,0,2.2,0h2.4c0.2,0,0.5,0,0.5,0.4c0,0,0,0.3,0,0.3l-0.3,2.8
		c0,0.3-0.3,0.5-0.6,0.5h-4.6c-0.7,0-1.9,0-2.2,0c-0.4,0-0.5,0.2-0.5,0.8v0.9c0,0.6,0,1,0.6,1c0.4,0,1.4,0,2.1,0h8.4
		c0.7,0,1.5,0,2.2,0c0.6,0,0.6-0.4,0.6-1v-0.8c0-0.7-0.1-0.9-0.6-0.9c-0.8,0-1.5,0-2.3,0h-0.1c-0.2,0-0.4-0.2-0.4-0.4v-0.1l0.4-3.3
		c0.2-1.4,0.3-1.4,0.3-1.7c0-0.2-0.1-0.4-0.3-0.5c-0.3-0.3-0.9-0.8-1.2-0.8c-0.1,0-0.2,0-0.3,0c-0.4,0-1.4,0-1.8,0L-1204.4,56.8z
		 M-1187.3,57.8c-1.3,0-2.5-0.1-2.8-0.1c-0.5,0-0.6,0.3-0.6,0.9v1c0,1.1,0,1.5,0.7,1.5c0.8,0,1.8-0.1,2.7-0.1h9.7
		c0.9,0,1.9,0.1,2.7,0.1c0.7,0,0.7-0.4,0.7-1.5v-1c0-0.6-0.1-0.8-0.6-0.8c-0.2,0-1.5,0.1-2.8,0.1H-1187.3z"/>
	<path id="軽井沢店も_営業チュー_-_アウトライン" d="M-1202.3,10c0.3,0,0.8,0.1,1.2,0.1l0.1,0l0.1,0
		c0.3,0,0.7,0,0.7,0.4c0,0.2-0.1,0.3-0.3,0.4l-0.1,0.1c-0.2,0.1-0.2,0.3-0.2,0.7V12c0,0.3,0.1,0.4,0.4,0.4h4.6c0.5,0,1,0,1.4,0
		c0.4,0,0.7,0,1,0c0.6,0,0.6,0.4,0.6,1s0,1-0.6,1c-0.3,0-0.7,0-1.1,0c-0.4,0-0.9,0-1.3,0h-11.3c-0.3,0-0.4,0.1-0.4,0.4v3.7
		c0.1,3.1-0.5,6.2-1.6,9.1c0,0,0,0.1-0.1,0.1c-0.3,0.7-0.6,1.4-1,1.4c-0.4,0-1.4-0.5-1.4-1c0.1-0.3,0.2-0.6,0.4-0.8
		c1.3-2.8,1.9-5.9,1.7-9v-2.9c0-0.3,0-0.6,0-0.9c0-0.3,0-0.6,0-0.9c0-1,0.6-1.1,1.3-1.1c0.3,0,0.7,0,1,0s0.7,0,1,0h3
		c0.3,0,0.4-0.1,0.4-0.4c0-0.4,0-0.9-0.1-1.3c0-0.1,0-0.2,0-0.2C-1202.8,10-1202.4,10-1202.3,10z M-1195.7,12.7h-4.6
		c-0.5,0-0.7-0.2-0.7-0.7v-0.3c0-0.4,0-0.7,0.3-0.9l0.1-0.1c0.1-0.1,0.1-0.1,0.1-0.1c0-0.1-0.3-0.1-0.5-0.1l-0.1,0h0l-0.1,0
		c-0.4,0-0.9-0.1-1.2-0.1c-0.2,0-0.2,0-0.2,0.1c0,0.1,0,0.1,0,0.2v0v0c0.1,0.5,0.1,0.9,0.1,1.4c0,0.3-0.2,0.7-0.6,0.7
		c0,0-0.1,0-0.1,0h-3c-0.3,0-0.7,0-1,0s-0.7,0-1,0c-0.7,0-1,0.1-1,0.8c0,0.3,0,0.6,0,0.9s0,0.6,0,0.9v2.9c0.1,3.2-0.5,6.3-1.8,9.2v0
		c-0.1,0.2-0.2,0.4-0.3,0.7c0,0.2,0.8,0.7,1.1,0.7c0,0,0.1,0,0.4-0.4c0.1-0.3,0.3-0.5,0.4-0.8c0-0.1,0-0.1,0.1-0.1
		c1.1-2.9,1.6-5.9,1.5-8.9v-3.7c0-0.4,0.2-0.7,0.6-0.7c0.1,0,0.1,0,0.2,0h11.3c0.4,0,0.9,0,1.3,0c0.4,0,0.8,0,1.1,0
		c0.3,0,0.3,0,0.3-0.7c0-0.7,0-0.7-0.3-0.7s-0.6,0-1,0C-1194.7,12.7-1195.2,12.7-1195.7,12.7z M-1270.1,10.2c0.2,0,0.5,0,0.8,0
		c0.1,0,0.1,0,0.2,0s0.1,0,0.1,0h0h0c0.4,0,0.8,0.1,0.8,0.4c0,0.2-0.1,0.3-0.3,0.4l-0.1,0c-0.2,0.1-0.2,0.2-0.2,1
		c0,0.3,0.1,0.4,0.4,0.4h0.4c0.3,0,0.7,0,1,0c0.3,0,0.7,0,1,0c0.6,0,0.6,0.4,0.6,0.9s0,0.9-0.6,0.9c-0.3,0-0.7,0-1,0
		c-0.3,0-0.7,0-1,0h-0.5c-0.3,0-0.4,0.1-0.4,0.4v0.7c0,0.3,0.1,0.4,0.4,0.4h0.5c0.2,0,0.4,0,0.6,0c0.2,0,0.4,0,0.6,0
		c0.5,0,1,0.1,1,0.9v2.2c0.1-0.3,0.4-0.4,0.6-0.5l0.1,0c1-0.5,1.9-1.1,2.8-1.7c0.1-0.1,0.2-0.2,0.2-0.3c0-0.1,0-0.2-0.1-0.3
		c-0.6-0.9-1.1-1.8-1.5-2.8c0-0.2-0.3-0.4-0.5-0.3h-0.5c-0.6,0-0.6-0.4-0.6-0.9c0-0.5,0-0.9,0.6-0.9c0.4,0,0.8,0,1.2,0s0.8,0,1.2,0
		h2.8c0.2,0,0.5,0,0.7,0s0.5,0,0.7,0c0.8,0,1.4,0.5,1.5,1.3c0,1-2,3.2-2.5,3.8l0,0.1c-0.1,0.1-0.1,0.1-0.1,0.2c0,0.1,0,0.2,0.2,0.3
		c0.9,0.7,2,1.3,3.1,1.8c0.2,0.1,0.6,0.2,0.6,0.6s-0.6,1.2-1.1,1.2c-0.2,0-0.5-0.1-0.7-0.2c-1.2-0.6-2.3-1.3-3.3-2.1
		c-0.1-0.1-0.2-0.1-0.3-0.2c-0.1,0-0.2,0.1-0.3,0.1c0,0-3,2.2-3.7,2.2c-0.5,0-0.9-0.6-1-1V22c0,0.8-0.6,0.9-1,0.9
		c-0.2,0-0.4,0-0.6,0c-0.2,0-0.4,0-0.6,0h-0.5c-0.3,0-0.4,0.1-0.4,0.4v0.6c0,0.3,0.1,0.4,0.4,0.4h0.7c0.3,0,0.7,0,1,0s0.7,0,1,0
		c0.6,0,0.6,0.4,0.6,0.9s0,0.9-0.6,0.9c-0.3,0-0.7,0-1,0c-0.3,0-0.7,0-1,0h-0.6c-0.3,0-0.4,0.1-0.4,0.4c0,0.4,0,0.8,0,1.2
		c0,0.3,0,0.6,0,0.9c0,0.7-0.3,0.8-1,0.8c-0.7,0-1-0.1-1-0.8c0-0.7,0-1.4,0-2.1v0c0-0.3-0.1-0.4-0.4-0.4h-0.6c-0.3,0-0.7,0-1,0
		c-0.3,0-0.7,0-1,0c-0.6,0-0.6-0.3-0.6-0.9c0-0.5,0-0.9,0.6-0.9c0.4,0,0.7,0,1,0c0.3,0,0.7,0,1,0h0.7c0.3,0,0.4-0.1,0.4-0.4v-0.6
		c0-0.3-0.1-0.4-0.4-0.4h-0.4c-0.2,0-0.3,0-0.5,0c-0.2,0-0.4,0-0.6,0c-0.5,0-1-0.1-1-0.9c0-0.1,0-0.3,0-0.4c0-0.1,0-0.3,0-0.4v-3.7
		c0-0.1,0-0.3,0-0.4s0-0.3,0-0.4c0-0.8,0.6-0.9,1-0.9c0.2,0,0.4,0,0.6,0s0.4,0,0.6,0h0.4c0.3,0,0.4-0.1,0.4-0.4v-0.7
		c0-0.3-0.1-0.4-0.4-0.4h-0.4c-0.3,0-0.6,0-1,0s-0.7,0-1,0c-0.6,0-0.6-0.4-0.6-0.9c0-0.5,0-0.9,0.6-0.9c0.3,0,0.7,0,1,0s0.7,0,1,0
		h0.3c0.3,0,0.4-0.1,0.4-0.4v0c0-0.4,0-0.9-0.1-1.3c0-0.1,0-0.1,0-0.2C-1270.6,10.4-1270.5,10.2-1270.1,10.2L-1270.1,10.2z
		 M-1269,10.6c0,0-0.1,0-0.1,0c0,0-0.1,0-0.1,0h0c-0.2,0-0.6,0-0.7,0s-0.2,0-0.2,0.1c0,0,0,0.1,0,0.1l0,0c0.1,0.5,0.1,0.9,0.1,1.4
		c0,0.5-0.2,0.7-0.7,0.7h-0.3c-0.3,0-0.7,0-1,0s-0.7,0-1,0c-0.3,0-0.3,0-0.3,0.6c0,0.6,0,0.6,0.3,0.6c0.3,0,0.7,0,1,0
		c0.3,0,0.7,0,1,0h0.4c0.3,0,0.6,0.2,0.7,0.5c0,0.1,0,0.1,0,0.2v0.7c0,0.3-0.2,0.6-0.5,0.7c-0.1,0-0.1,0-0.2,0h-0.4
		c-0.2,0-0.4,0-0.6,0s-0.4,0-0.6,0c-0.5,0-0.7,0.2-0.7,0.6c0,0.1,0,0.3,0,0.4c0,0.1,0,0.3,0,0.4v3.7c0,0.1,0,0.3,0,0.4
		c0,0.1,0,0.3,0,0.4c0,0.5,0.2,0.6,0.7,0.6c0.2,0,0.4,0,0.6,0c0.2,0,0.4,0,0.5,0h0.4c0.3,0,0.6,0.2,0.7,0.5c0,0.1,0,0.1,0,0.2v0.6
		c0,0.3-0.2,0.6-0.5,0.7c-0.1,0-0.1,0-0.2,0h-0.7c-0.3,0-0.7,0-1,0c-0.3,0-0.7,0-1,0c-0.3,0-0.3,0-0.3,0.6c0,0.6,0,0.6,0.3,0.6
		c0.3,0,0.7,0,1,0c0.3,0,0.7,0,1,0h0.6c0.5,0,0.7,0.2,0.7,0.7v0v0.1c0,0.7,0,1.4,0,2.1c0,0.5,0.1,0.5,0.7,0.5c0.6,0,0.7,0,0.7-0.5
		c0-0.3,0-0.6,0-0.9c0-0.4,0-0.8,0-1.2c0-0.3,0.2-0.7,0.5-0.7c0.1,0,0.1,0,0.2,0h0.6c0.3,0,0.7,0,1,0s0.7,0,1,0c0.3,0,0.3,0,0.3-0.6
		c0-0.6,0-0.6-0.3-0.6c-0.3,0-0.7,0-1,0s-0.7,0-1,0h-0.7c-0.3,0-0.6-0.2-0.7-0.5c0-0.1,0-0.1,0-0.2v-0.6c0-0.3,0.2-0.6,0.5-0.7
		c0.1,0,0.1,0,0.2,0h0.5c0.2,0,0.4,0,0.6,0c0.2,0,0.4,0,0.6,0c0.5,0,0.7-0.2,0.7-0.6v-5.4c0-0.5-0.2-0.6-0.7-0.6c-0.2,0-0.4,0-0.6,0
		c-0.2,0-0.4,0-0.6,0h-0.5c-0.3,0-0.6-0.2-0.7-0.5c0-0.1,0-0.1,0-0.2v-0.7c0-0.3,0.2-0.6,0.5-0.7c0.1,0,0.1,0,0.2,0h0.5
		c0.3,0,0.7,0,1,0s0.7,0,1,0c0.3,0,0.3,0,0.3-0.6s0-0.6-0.3-0.6c-0.3,0-0.7,0-1,0s-0.7,0-1,0h-0.4c-0.4,0-0.7-0.2-0.7-0.6
		c0,0,0-0.1,0-0.1v0c0-0.8,0-1.1,0.3-1.3l0.1,0c0.1-0.1,0.1-0.1,0.1-0.1C-1268.4,10.6-1268.7,10.6-1269,10.6L-1269,10.6z
		 M-1259.3,11.3h-2.8c-0.4,0-0.8,0-1.2,0c-0.4,0-0.8,0-1.2,0c-0.3,0-0.3,0-0.3,0.6c0,0.6,0,0.6,0.3,0.6h0.5c0.3,0,0.7,0.2,0.7,0.5
		c0.4,1,0.8,1.9,1.4,2.7c0.1,0.1,0.2,0.3,0.2,0.5c0,0.2-0.1,0.4-0.3,0.5h0c-0.9,0.6-1.8,1.2-2.8,1.7h0l-0.1,0
		c-0.2,0.1-0.5,0.2-0.5,0.4c0,0.3,0.4,0.9,0.7,0.9c1.3-0.6,2.4-1.3,3.5-2.1c0.1-0.1,0.3-0.2,0.5-0.2c0.2,0,0.4,0.1,0.5,0.2
		c1,0.8,2.1,1.5,3.2,2.1h0c0.2,0.1,0.4,0.2,0.6,0.2c0.2,0,0.8-0.7,0.8-0.9c0-0.2-0.2-0.3-0.4-0.3c-1.1-0.5-2.2-1.1-3.1-1.8l0,0
		c-0.2-0.1-0.3-0.3-0.3-0.5c0-0.1,0.1-0.3,0.2-0.4l0-0.1l0,0c0.9-0.9,2.5-2.8,2.5-3.6c-0.1-0.6-0.6-1.1-1.2-1c-0.2,0-0.4,0-0.7,0
		S-1259.1,11.3-1259.3,11.3L-1259.3,11.3z M-1247.3,10.3c0.3,0,1.3,0.1,1.7,0.1c0.4,0.1,0.5,0.3,0.5,0.4c0,0.2-0.1,0.3-0.3,0.4
		c0,0-0.1,0-0.1,0.1l0,0c-0.2,0.1-0.2,0.2-0.2,1V14c0,0.3,0.1,0.4,0.4,0.4h3.4c0.3,0,0.4-0.1,0.4-0.4v-1.2c0-0.6,0-1.2-0.1-1.9
		c0-0.1,0-0.2,0-0.2c0-0.2,0.1-0.4,0.5-0.4c0.3,0,0.9,0,1.3,0.1l0.3,0h0c0.2,0,0.6,0.1,0.6,0.4c0,0.2-0.1,0.3-0.3,0.4l-0.1,0h0
		c-0.2,0.1-0.2,0.4-0.2,1V14c0,0.3,0.1,0.4,0.4,0.4h0.9c0.4,0,0.8,0,1.3,0s0.8,0,1.3,0c0.6,0,0.6,0.4,0.6,1c0,0.7,0,1-0.6,1
		c-0.4,0-0.9,0-1.3,0c-0.4,0-0.8,0-1.3,0h-0.9c-0.3,0-0.4,0.1-0.4,0.4V20c0,0.3,0.1,0.4,0.4,0.4h1.4c0.4,0,0.9,0,1.3,0s0.9,0,1.3,0
		c0.6,0,0.6,0.4,0.6,1s0,1-0.6,1c-0.4,0-0.9,0-1.3,0c-0.4,0-0.8,0-1.3,0h-1.4c-0.3,0-0.4,0.1-0.4,0.4v2.4c0,0.5,0,1,0,1.6s0,1,0,1.6
		c0,0.8-0.3,0.8-1.1,0.8c-0.7,0-1.1-0.1-1.1-0.8c0-0.5,0-1,0-1.5c0-0.5,0-1,0-1.6v-2.4c0-0.3-0.1-0.4-0.4-0.4h-3.8
		c-0.4,0-0.5,0.1-0.5,0.4c-0.6,2.4-2.2,4.5-4.3,5.8l-0.1,0.1c-0.2,0.2-0.5,0.3-0.8,0.4c-0.5,0-1.2-0.8-1.2-1.3
		c0-0.3,0.3-0.4,0.5-0.6c0,0,0.1,0,0.1-0.1c1.8-0.9,3.1-2.5,3.7-4.4v0l0,0c0,0,0-0.1,0-0.1c0-0.1,0-0.2-0.3-0.2h-1.4
		c-0.4,0-0.8,0-1.3,0c-0.4,0-0.9,0-1.3,0c-0.6,0-0.6-0.4-0.6-1s0-1,0.6-1c0.4,0,0.9,0,1.3,0c0.4,0,0.8,0,1.3,0h1.7
		c0.3,0,0.4-0.1,0.5-0.4c0.1-0.7,0.1-1.6,0.1-2.5v-0.7c0-0.3-0.1-0.4-0.4-0.4h-1.2c-0.4,0-0.8,0-1.3,0s-0.8,0-1.3,0
		c-0.6,0-0.6-0.4-0.6-1c0-0.6,0-1,0.6-1c0.4,0,0.8,0,1.3,0c0.4,0,0.8,0,1.3,0h1.2c0.3,0,0.4-0.1,0.4-0.4v-1.4c0-0.6,0-1.2-0.1-1.7v0
		c0,0,0-0.1,0-0.1c0,0,0-0.1,0-0.1C-1247.8,10.4-1247.6,10.3-1247.3,10.3L-1247.3,10.3z M-1245.7,11c0,0,0.1,0,0.1-0.1
		c0.1-0.1,0.1-0.1,0.1-0.1c0-0.1-0.1-0.1-0.2-0.1c-0.3,0-1.3-0.1-1.6-0.1c-0.2,0-0.2,0.1-0.2,0.1c0,0,0,0.1,0,0.1c0,0,0,0.1,0,0.1
		c0,0.5,0.1,1.1,0.1,1.7V14c0,0.4-0.2,0.7-0.6,0.7c-0.1,0-0.1,0-0.2,0h-1.2c-0.4,0-0.8,0-1.3,0c-0.4,0-0.8,0-1.3,0
		c-0.3,0-0.3,0-0.3,0.7c0,0.7,0,0.7,0.3,0.7c0.4,0,0.8,0,1.3,0s0.8,0,1.3,0h1.2c0.4-0.1,0.7,0.2,0.7,0.5c0,0.1,0,0.1,0,0.2v0.7
		c0,1,0,1.8-0.1,2.6c0,0.4-0.3,0.7-0.7,0.7c0,0-0.1,0-0.1,0h-1.7c-0.4,0-0.9,0-1.3,0s-0.9,0-1.3,0c-0.3,0-0.3,0-0.3,0.7
		c0,0.7,0,0.7,0.3,0.7c0.4,0,0.9,0,1.3,0c0.4,0,0.8,0,1.3,0h1.4c0.6,0,0.6,0.4,0.6,0.5c0,0.1,0,0.1,0,0.2c-0.6,2-2,3.7-3.9,4.6
		c0,0-0.1,0-0.1,0.1c-0.2,0.1-0.4,0.2-0.4,0.3c0,0.3,0.6,1,0.9,1c0.2-0.1,0.5-0.2,0.7-0.3l0.1-0.1c2.1-1.2,3.6-3.3,4.2-5.6
		c0-0.4,0.4-0.7,0.8-0.7c0,0,0,0,0,0h3.8c0.4-0.1,0.7,0.2,0.7,0.5c0,0.1,0,0.1,0,0.2v2.4c0,0.5,0,1.1,0,1.6s0,1,0,1.5
		c0,0.5,0.1,0.5,0.8,0.5c0.7,0,0.8,0,0.8-0.5c0-0.5,0-1,0-1.6c0-0.5,0-1,0-1.6v-2.3c0-0.5,0.2-0.7,0.7-0.7h1.4c0.4,0,0.9,0,1.3,0
		c0.4,0,0.8,0,1.3,0c0.3,0,0.3,0,0.3-0.7c0-0.7,0-0.7-0.3-0.7c-0.4,0-0.9,0-1.3,0s-0.9,0-1.3,0h-1.4c-0.4,0.1-0.7-0.2-0.7-0.5
		c0-0.1,0-0.1,0-0.2v-3.2c0-0.5,0.2-0.7,0.7-0.7h0.9c0.4,0,0.8,0,1.3,0c0.4,0,0.8,0,1.3,0c0.3,0,0.3,0,0.3-0.7c0-0.7,0-0.7-0.3-0.7
		c-0.4,0-0.8,0-1.3,0s-0.8,0-1.3,0h-0.9c-0.5,0-0.7-0.2-0.7-0.7v-1.8c0-0.7,0-1.1,0.3-1.3l0.1,0c0.1,0,0.1-0.1,0.1-0.1
		c0-0.1-0.1-0.1-0.3-0.1h0l-0.3,0c-0.4,0-1-0.1-1.2-0.1c-0.2,0-0.2,0.1-0.2,0.1c0,0.1,0,0.1,0,0.2l0,0c0.1,0.6,0.1,1.3,0.1,1.9V14
		c0,0.4-0.2,0.7-0.6,0.7c-0.1,0-0.1,0-0.2,0h-3.4c-0.5,0-0.7-0.2-0.7-0.7v-1.8C-1246,11.5-1246,11.1-1245.7,11L-1245.7,11z
		 M-1229.7,10.5c0.8,0.3,1.5,0.8,2.2,1.3l0.1,0.1c0.7,0.5,1.2,0.9,1.2,1.2c0,0.4-0.6,1.2-1.1,1.2c-0.2,0-0.4-0.1-0.6-0.3l-0.1-0.1
		c-0.7-0.5-1.5-1.1-2.3-1.6l0,0c-0.2-0.1-0.4-0.3-0.4-0.6C-1230.7,11.4-1230.1,10.5-1229.7,10.5z M-1227.4,13.9
		c0.2,0,0.8-0.6,0.8-0.9c0-0.1-0.1-0.3-1-0.9l-0.1-0.1c-0.6-0.5-1.3-0.9-2-1.2c-0.2,0-0.7,0.7-0.7,0.9c0,0.1,0.2,0.2,0.3,0.3l0,0
		c0.8,0.5,1.5,1,2.3,1.6l0.1,0.1C-1227.7,13.8-1227.5,13.8-1227.4,13.9L-1227.4,13.9z M-1181.8,10.5c0.4,0.1,0.7,0.2,1.1,0.4l0.1,0
		c0.4,0.1,1,0.3,1,0.7c0,0.2-0.2,0.3-0.4,0.4c0,0-0.1,0-0.1,0.1c-0.5,0.7-0.8,1.5-1,2.4c0,0,0,0.1,0,0.1c0,0,0,0.1,0,0.1
		c0,0.1,0.1,0.3,0.4,0.3c0.8,0.1,1.5,0.2,2.3,0.2h0.1c0.3,0,0.8,0,0.8,0.5c0,0.4-0.1,0.8-0.2,1.2c0,0.3-0.3,0.5-0.5,0.5
		c-0.7,0-2.6-0.3-3-0.4l0,0c-0.1,0-0.1,0-0.2,0c-0.3,0-0.3,0.2-0.4,0.4l0,0c-0.2,0.7-0.3,1.4-0.5,2.1c0,0.2,0.1,0.3,0.5,0.3l0.1,0
		c0.7,0.1,1.4,0.1,2.1,0.1c0.3,0,0.7,0,0.7,0.5c0,0.4-0.1,0.8-0.3,1.1c-0.1,0.3-0.2,0.5-0.6,0.5c-0.7,0-1.5-0.1-2.2-0.2
		c-0.1,0-0.1,0-0.2,0c0,0-0.1,0-0.1,0c-0.4,0-0.5,0.1-0.5,1.4c0,2,0.9,3,2.9,3c1.1,0.1,2.3-0.3,3.1-1c0.4-0.4,0.5-1,0.5-1.5
		c-0.1-1.1-0.3-2.1-0.7-3.1c-0.1-0.1-0.1-0.3-0.1-0.4c0-0.6,1.4-0.8,1.6-0.8c0.4,0,0.5,0.3,0.6,0.6l0,0.1c0.5,1.2,0.7,2.5,0.8,3.9
		c0,1.4-0.7,2.7-1.9,3.4c-1.2,0.7-2.5,1-3.9,1c-1.4,0.1-2.9-0.4-3.9-1.5c-0.7-0.9-1.1-2.1-1.1-3.3c0-0.4,0.1-1.1,0.1-1.7v-0.2
		c0-0.3-0.2-0.4-0.7-0.5c-0.1,0-0.1,0-0.2-0.1c-0.4-0.2-0.9-0.3-1.3-0.6l0,0c-0.2-0.1-0.4-0.2-0.4-0.6c0,0,0.1-1.6,0.7-1.6
		c0.2,0,0.4,0.1,0.6,0.2c0.5,0.3,1,0.5,1.5,0.6c0.2,0,0.2-0.2,0.4-0.9c0.1-0.4,0.2-0.8,0.3-1.3l0,0c0-0.1,0.1-0.2,0.1-0.3
		c0-0.3-0.2-0.4-0.5-0.5l0,0l-0.2-0.1c-0.5-0.2-1.1-0.4-1.5-0.6c-0.3-0.1-0.4-0.3-0.4-0.6c0-0.3,0.3-1.6,0.8-1.6
		c0.3,0.1,0.5,0.2,0.8,0.4l0.1,0c0.5,0.3,1,0.5,1.5,0.7c0.2,0,0.2-0.1,0.3-0.3c0,0,0-0.1,0-0.1c0.1-0.5,0.3-1.1,0.5-1.6
		c0.1-0.4,0.3-0.9,0.4-1.3v0c0,0,0-0.1,0-0.1C-1182.2,10.8-1182.1,10.5-1181.8,10.5z M-1178.5,15.6c-0.8,0-1.5-0.1-2.3-0.2
		c-0.4-0.1-0.7-0.3-0.7-0.6c0-0.1,0-0.1,0-0.2c0,0,0-0.1,0-0.1v0c0.2-0.7,0.7-2.3,1.2-2.6c0,0,0.1,0,0.1-0.1
		c0.1-0.1,0.2-0.1,0.2-0.2c0-0.1-0.3-0.2-0.8-0.4l-0.1,0c-0.3-0.2-0.6-0.3-1-0.3c-0.1,0-0.1,0-0.1,0.2c0,0,0,0.1,0,0.1
		c-0.1,0.4-0.3,0.9-0.4,1.3c-0.2,0.5-0.3,1.1-0.5,1.6v0c0,0,0,0,0,0.1c-0.1,0.2-0.2,0.6-0.6,0.6c-0.6-0.2-1.2-0.4-1.7-0.7l-0.1,0
		c-0.2-0.1-0.4-0.2-0.6-0.3c0,0-0.2,0.1-0.3,0.5c-0.1,0.2-0.1,0.5-0.2,0.8c0,0.2,0.1,0.2,0.3,0.3c0.3,0.2,1,0.4,1.4,0.6l0.2,0.1l0,0
		c0.3,0.1,0.7,0.3,0.7,0.8c0,0.1,0,0.3-0.1,0.4c-0.1,0.5-0.2,0.9-0.3,1.3c-0.2,0.8-0.2,1.2-0.7,1.2c-0.6-0.1-1.1-0.4-1.7-0.7l0,0
		c-0.1-0.1-0.2-0.2-0.4-0.2c0,0-0.2,0.1-0.3,0.5c-0.1,0.2-0.1,0.5-0.1,0.7c0,0.1,0.1,0.2,0.3,0.3l0,0c0.4,0.2,0.8,0.4,1.2,0.5
		c0.1,0,0.1,0,0.2,0.1c0.4,0.1,0.9,0.2,0.9,0.8v0.2c-0.1,0.6-0.1,1.3-0.1,1.7c0,1.1,0.4,2.2,1.1,3.1c0.9,1,2.3,1.5,3.6,1.4
		c2.6,0,5.5-1.1,5.5-4.1c0-1.3-0.3-2.5-0.7-3.7l0-0.1c-0.1-0.3-0.2-0.4-0.3-0.4c-0.3,0-0.5,0.1-0.8,0.2c-0.4,0.1-0.5,0.3-0.5,0.3
		c0,0.1,0,0.2,0.1,0.3c0.5,1,0.7,2.1,0.8,3.2c0.1,0.6-0.2,1.3-0.6,1.7c-0.9,0.8-2.1,1.2-3.4,1.1c-2.1,0-3.2-1.1-3.2-3.3
		c0-1.1,0-1.7,0.8-1.7c0.1,0,0.1,0,0.2,0c0.1,0,0.1,0,0.2,0h0c0.7,0.1,1.5,0.2,2.2,0.2c0.2,0,0.2,0,0.3-0.3v0c0.1-0.3,0.2-0.7,0.2-1
		c0-0.1,0-0.2-0.4-0.2c-0.7,0-1.4,0-2.1-0.1l-0.1,0c-0.3,0-0.7-0.1-0.7-0.6c0.1-0.8,0.3-1.5,0.5-2.2l0,0c0-0.3,0.3-0.6,0.7-0.6
		c0.1,0,0.2,0,0.2,0c1,0.2,1.9,0.3,2.9,0.4c0.1,0,0.2,0,0.3-0.2v0c0.1-0.3,0.2-0.7,0.2-1.1c0-0.2,0-0.2-0.5-0.2L-1178.5,15.6z
		 M-1223.6,11c0.2,0,0.5,0,0.7,0c0.2,0,0.5,0,0.7,0h5.2c0.2,0,0.5,0,0.7,0c0.2,0,0.5,0,0.7,0c0.8,0,1.3,0.2,1.3,1.1
		c0,0.3,0,0.6,0,0.9s0,0.6,0,0.9v2.4c0,0.3,0,0.6,0,0.9s0,0.6,0,0.9c0,0.7-0.3,0.9-1,0.9c-0.3,0-0.6,0-0.8-0.2l0,0
		c-0.1-0.1-0.1-0.1-0.2-0.1h-1.3c-0.1,0-0.2,0-0.3,0.1c-0.1,0.1-0.1,0.2-0.1,0.3c0,1.9,0.6,3.7,1.6,5.3c0.7,1.2,1.7,2.2,2.8,3
		c0.2,0.1,0.3,0.3,0.3,0.5c-0.1,0.6-0.6,1.1-1.3,1.2c-0.7,0-2.6-2.4-2.7-2.4c-1.7-2.2-2.6-4.9-2.7-7.6c0-0.3-0.1-0.4-0.5-0.4h-1.9
		c-0.3,0-0.4,0.1-0.4,0.4c-0.1,3-0.9,5.9-2.3,8.5c-0.9,1.4-1.3,1.6-1.5,1.6c-0.4,0-1.3-0.6-1.3-1.1c0-0.2,0.3-0.7,0.5-0.8
		c1.8-2.3,2.7-5.5,2.7-9.6v-3.7c0-0.3,0-0.6,0-0.8s0-0.6,0-0.9C-1224.8,11.2-1224.4,11-1223.6,11L-1223.6,11z M-1217,11.3h-5.2
		c-0.2,0-0.5,0-0.7,0c-0.2,0-0.5,0-0.7,0c-0.8,0-1,0.2-1,0.9c0,0.3,0,0.6,0,0.8s0,0.6,0,0.9v3.7c0,4.2-0.9,7.3-2.8,9.8v0
		c-0.2,0.2-0.3,0.4-0.4,0.6c0,0.3,0.7,0.8,1,0.8c0.1,0,0.4-0.1,1.3-1.4c1.4-2.6,2.2-5.4,2.2-8.3c0-0.4,0.2-0.7,0.6-0.7
		c0.1,0,0.1,0,0.2,0h1.9c0.4-0.1,0.7,0.2,0.8,0.6c0,0.1,0,0.1,0,0.2c0.1,2.7,1,5.3,2.6,7.5c0.7,0.8,2.1,2.3,2.4,2.3
		c0.3,0,1-0.6,1-0.9c0-0.1-0.1-0.1-0.2-0.2c-1.2-0.8-2.2-1.9-2.9-3.1c-1.1-1.6-1.6-3.5-1.7-5.5c0-0.2,0-0.4,0.2-0.5
		c0.1-0.1,0.3-0.2,0.5-0.2h1.4c0.2,0,0.3,0.1,0.4,0.2c0.2,0.1,0.4,0.2,0.6,0.1c0.6,0,0.7-0.1,0.7-0.6c0-0.3,0-0.6,0-0.9s0-0.6,0-0.9
		v-2.4c0-0.3,0-0.6,0-0.9c0-0.3,0-0.6,0-0.9c0-0.6-0.2-0.8-1-0.8c-0.2,0-0.5,0-0.7,0S-1216.7,11.3-1217,11.3L-1217,11.3z
		 M-1261.5,12.4h2.2c0.3,0,0.7,0,0.7,0.3c0,0.5-1.5,2.1-1.5,2.2l0,0c-0.1,0.1-0.3,0.2-0.5,0.2c-0.2,0-0.4-0.1-0.5-0.3l0,0
		c-0.4-0.5-0.7-1.1-1-1.7c0-0.1-0.1-0.2-0.1-0.2C-1262,12.6-1261.9,12.5-1261.5,12.4L-1261.5,12.4z M-1258.8,12.8
		c-0.1,0-0.3,0-0.4,0h-2.2c-0.2,0-0.3,0.1-0.3,0.2c0,0,0,0.1,0,0.1c0.3,0.6,0.6,1.1,1,1.7c0.1,0.1,0.1,0.1,0.2,0.2
		c0.1,0,0.2-0.1,0.3-0.1C-1259.7,14.1-1259.2,13.5-1258.8,12.8L-1258.8,12.8z M-1222.4,12.6h5.6c0.4-0.1,0.7,0.2,0.7,0.5
		c0,0.1,0,0.1,0,0.2v3c0,0.5-0.3,0.7-0.8,0.7h-5.6c-0.5,0-0.7-0.2-0.7-0.7v-3C-1223.1,12.8-1222.9,12.6-1222.4,12.6z M-1216.8,16.7
		c0.3,0,0.5-0.1,0.5-0.4v-3c0-0.3-0.1-0.4-0.4-0.4h-5.6c-0.3,0-0.4,0.1-0.4,0.4v3c0,0.3,0.1,0.4,0.4,0.4H-1216.8z M-1201.4,14.5
		c0.2,0,0.5,0,0.8,0.1c0.2,0,0.4,0,0.5,0h0c0.3,0,0.8,0.1,0.8,0.4c0,0.2-0.1,0.3-0.3,0.4l-0.1,0c-0.1,0.1-0.2,0.2-0.2,1v0.3
		c0,0.3,0.1,0.4,0.4,0.4h3.1c0.4,0,0.8,0,1.1,0s0.8,0,1.1,0c0.6,0,0.6,0.4,0.6,0.9c0,0.6,0,0.9-0.6,0.9c-0.4,0-0.8,0-1.1,0
		c-0.4,0-0.8,0-1.1,0h-3.1c-0.3,0-0.4,0.1-0.4,0.4v1.5c0,0.3,0.1,0.4,0.4,0.4h2.1c0.2,0,0.5,0,0.8,0c0.2,0,0.5,0,0.8,0
		c0.4,0,1.3,0,1.3,1c0,0.2,0,0.4,0,0.6c0,0.2,0,0.4,0,0.6v3.9c0,0.2,0,0.4,0,0.6c0,0.2,0,0.4,0,0.7c0,0.6-0.4,0.6-1,0.6
		c-0.6,0-1,0-1-0.6c0-0.1,0-0.1,0-0.2c0-0.1,0-0.1,0-0.2c0-0.2-0.1-0.3-0.3-0.3h-7.3c-0.2,0-0.3,0-0.3,0.2c0,0.1,0,0.2,0,0.3
		c0,0.6-0.4,0.6-1,0.6c-0.6,0-1,0-1-0.6c0-0.2,0-0.4,0-0.6c0-0.2,0-0.4,0-0.6v-3.9c0-0.2,0-0.4,0-0.6c0-0.2,0-0.4,0-0.6
		c0-1,0.9-1,1.3-1c0.3,0,0.5,0,0.8,0c0.3,0,0.5,0,0.8,0h1.2c0.3,0,0.4-0.1,0.4-0.4v-4.1c0-0.5,0-1-0.1-1.5c0-0.1,0-0.2,0-0.2
		C-1201.9,14.6-1201.7,14.5-1201.4,14.5z M-1196.2,17.4h-3.1c-0.4,0-0.7-0.2-0.7-0.6c0,0,0-0.1,0-0.1v-0.3c0-0.8,0-1,0.3-1.2l0.1,0
		c0.1-0.1,0.1-0.1,0.1-0.1c0-0.1-0.4-0.1-0.5-0.1h0c-0.1,0-0.3,0-0.5,0c-0.3,0-0.6-0.1-0.8-0.1c-0.2,0-0.2,0-0.2,0.1
		c0,0.1,0,0.1,0,0.2l0,0c0.1,0.5,0.1,1,0.1,1.5v4.1c0,0.4-0.2,0.7-0.6,0.7c-0.1,0-0.1,0-0.2,0h-1.2c-0.3,0-0.5,0-0.8,0
		c-0.3,0-0.5,0-0.8,0c-0.7,0-1,0.1-1,0.7c0,0.2,0,0.4,0,0.6c0,0.2,0,0.4,0,0.6v3.9c0,0.2,0,0.4,0,0.7s0,0.4,0,0.6
		c0,0.2,0,0.3,0.7,0.3c0.7,0,0.7-0.1,0.7-0.3c0-0.1,0-0.2,0-0.3v0v0c0-0.3,0.2-0.5,0.5-0.5c0,0,0.1,0,0.1,0h7.3
		c0.3,0,0.5,0.2,0.6,0.4c0,0,0,0.1,0,0.1v0c0,0.1,0,0.1,0,0.2c0,0.1,0,0.1,0,0.2c0,0.2,0,0.3,0.7,0.3c0.7,0,0.7-0.1,0.7-0.3
		s0-0.4,0-0.6s0-0.4,0-0.6v-3.9c0-0.2,0-0.4,0-0.6c0-0.2,0-0.4,0-0.6c0-0.5-0.3-0.7-1-0.7c-0.2,0-0.5,0-0.8,0c-0.2,0-0.5,0-0.8,0
		h-2.1c-0.4,0.1-0.7-0.2-0.7-0.5c0-0.1,0-0.1,0-0.2v-1.5c0-0.4,0.2-0.7,0.6-0.7c0.1,0,0.1,0,0.2,0h3.1c0.4,0,0.8,0,1.1,0
		c0.4,0,0.8,0,1.1,0c0.3,0,0.3,0,0.3-0.6c0-0.6,0-0.6-0.3-0.6c-0.4,0-0.8,0-1.1,0S-1195.8,17.4-1196.2,17.4z M-1231,15
		c0.8,0.4,1.6,0.8,2.3,1.4l0.2,0.1c0.6,0.4,1,0.8,1,1.1c0,0.4-0.6,1.2-1.1,1.2c-0.2,0-0.4-0.1-0.5-0.3c-0.8-0.6-1.7-1.2-2.5-1.7
		l-0.1-0.1c-0.2-0.1-0.4-0.2-0.4-0.5C-1232.1,15.9-1231.5,15-1231,15z M-1228.6,18.5c0.3,0,0.8-0.6,0.8-0.9c0-0.2-0.7-0.7-0.9-0.8
		l-0.2-0.1c-0.7-0.5-1.4-1-2.1-1.3c-0.2,0-0.7,0.7-0.7,0.9c0,0.1,0.1,0.2,0.3,0.3l0.1,0.1c0.8,0.5,1.7,1.1,2.5,1.7l0,0
		C-1228.8,18.5-1228.7,18.5-1228.6,18.5z M-1245.3,16.1h3.4c0.4-0.1,0.7,0.2,0.7,0.5c0,0.1,0,0.1,0,0.2V20c0,0.4-0.2,0.7-0.6,0.7
		c-0.1,0-0.1,0-0.2,0h-3.6c-0.2,0-0.4,0-0.5-0.2c-0.1-0.1-0.2-0.3-0.1-0.5c0-0.8,0.1-1.6,0.1-2.4v-0.8
		C-1246,16.3-1245.8,16.1-1245.3,16.1z M-1241.9,20.4c0.3,0,0.4-0.1,0.4-0.4v-3.2c0-0.3-0.1-0.4-0.4-0.4h-3.4
		c-0.3,0-0.4,0.1-0.4,0.4v0.8c0,0.8,0,1.7-0.1,2.5c0,0.1,0,0.2,0.1,0.3c0.1,0.1,0.2,0.1,0.3,0.1L-1241.9,20.4z M-1271.3,16.9h0.6
		c0.3,0,0.6,0.3,0.7,0.6c0,0,0,0,0,0v0.5c0,0.3-0.3,0.6-0.6,0.7c0,0,0,0,0,0h-0.6c-0.3,0-0.6-0.3-0.7-0.6c0,0,0,0,0,0v-0.5
		C-1272,17.2-1271.7,16.9-1271.3,16.9C-1271.4,16.9-1271.3,16.9-1271.3,16.9z M-1270.8,18.4c0.2,0,0.3-0.1,0.4-0.3c0,0,0,0,0,0v-0.5
		c0-0.2-0.1-0.3-0.3-0.4c0,0,0,0,0,0h-0.6c-0.2,0-0.3,0.1-0.4,0.3c0,0,0,0,0,0v0.5c0,0.2,0.1,0.3,0.3,0.4c0,0,0,0,0,0H-1270.8z
		 M-1268.4,16.9h0.6c0.4,0,0.7,0.3,0.7,0.6c0,0,0,0,0,0v0.5c0,0.4-0.3,0.6-0.6,0.7c0,0,0,0,0,0h-0.6c-0.4,0-0.7-0.3-0.7-0.6
		c0,0,0,0,0,0v-0.5C-1269.1,17.2-1268.8,16.9-1268.4,16.9C-1268.4,16.9-1268.4,16.9-1268.4,16.9z M-1267.7,18.4
		c0.2,0,0.4-0.1,0.4-0.3c0,0,0,0,0,0v-0.5c0-0.2-0.1-0.3-0.3-0.4c0,0,0,0,0,0h-0.6c-0.2,0-0.4,0.1-0.4,0.3c0,0,0,0,0,0v0.5
		c0,0.2,0.1,0.3,0.3,0.4c0,0,0,0,0,0H-1267.7z M-1261.2,19.1c0.2,0,0.7,0,1.1,0.1c0.2,0,0.3,0,0.4,0l0,0c0.2,0,0.5,0.1,0.5,0.4
		c0,0.2-0.2,0.3-0.3,0.4l0,0c-0.2,0.1-0.2,0.3-0.2,1v0.6c0,0.3,0.1,0.4,0.4,0.4h0.6c0.3,0,0.7,0,1,0c0.3,0,0.7,0,1,0
		c0.2,0,0.3,0,0.4,0.1c0.2,0.2,0.2,0.4,0.2,0.7V23c0,0.3,0,0.6-0.2,0.7c-0.1,0.1-0.3,0.2-0.4,0.1c-0.3,0-0.6,0-1,0s-0.7,0-1,0h-0.6
		c-0.3,0-0.4,0.1-0.4,0.4v1.9c0,0.3,0.1,0.4,0.4,0.4h0.8c0.4,0,0.8,0,1.2,0c0.4,0,0.8,0,1.2,0c0.7,0,0.7,0.4,0.7,1s0,1-0.7,1
		c-0.4,0-0.8,0-1.2,0c-0.4,0-0.8,0-1.2,0h-4.4c-0.4,0-0.8,0-1.2,0s-0.8,0-1.2,0c-0.7,0-0.7-0.4-0.7-1s0-1,0.7-1c0.4,0,0.8,0,1.2,0
		c0.4,0,0.8,0,1.2,0h0.8c0.3,0,0.4-0.1,0.4-0.4v-2c0-0.3-0.1-0.4-0.4-0.4h-0.3c-0.3,0-0.7,0-1,0s-0.7,0-1,0c-0.6,0-0.6-0.4-0.6-0.9
		c0-0.5,0-0.9,0.6-0.9c0.3,0,0.7,0,1,0c0.3,0,0.7,0,1,0h0.3c0.3,0,0.4-0.1,0.4-0.4v-0.5c0-0.5,0-0.9-0.1-1.4c0-0.1,0-0.2,0-0.2
		C-1261.7,19.4-1261.6,19.1-1261.2,19.1L-1261.2,19.1z M-1259.7,19.5c-0.1,0-0.2,0-0.4,0c-0.4,0-0.9-0.1-1.1-0.1
		c-0.2,0-0.2,0.1-0.2,0.1c0,0.1,0,0.1,0,0.2v0v0c0.1,0.5,0.1,1,0.1,1.4v0.5c0.1,0.4-0.2,0.7-0.5,0.7c-0.1,0-0.1,0-0.2,0h-0.3
		c-0.3,0-0.7,0-1,0s-0.7,0-1,0c-0.3,0-0.3,0-0.3,0.6s0,0.6,0.3,0.6c0.3,0,0.6,0,1,0c0.3,0,0.7,0,1,0h0.3c0.4-0.1,0.7,0.2,0.7,0.5
		c0,0.1,0,0.1,0,0.2v2c0,0.5-0.2,0.7-0.7,0.7h-0.8c-0.4,0-0.8,0-1.2,0c-0.4,0-0.8,0-1.2,0c-0.3,0-0.4,0-0.4,0.7s0,0.7,0.4,0.7
		c0.4,0,0.8,0,1.2,0c0.4,0,0.8,0,1.2,0h4.4c0.4,0,0.8,0,1.2,0s0.8,0,1.2,0c0.3,0,0.4-0.1,0.4-0.7c0-0.6,0-0.7-0.4-0.7
		c-0.4,0-0.8,0-1.2,0c-0.4,0-0.8,0-1.2,0h-0.8c-0.5,0-0.7-0.2-0.7-0.7v-2c-0.1-0.4,0.2-0.7,0.5-0.7c0.1,0,0.1,0,0.2,0h0.6
		c0.3,0,0.7,0,1,0s0.7,0,1,0c0.1,0,0.2,0,0.2-0.1c0.1-0.1,0.1-0.3,0.1-0.5v-0.1c0-0.3,0-0.5-0.1-0.5c-0.1,0-0.1-0.1-0.2-0.1
		c-0.3,0-0.7,0-1,0c-0.3,0-0.7,0-1,0h-0.6c-0.4,0.1-0.7-0.2-0.7-0.5c0-0.1,0-0.1,0-0.2V21c0-0.7,0-1,0.3-1.2l0,0
		c0.1-0.1,0.2-0.1,0.2-0.2S-1259.5,19.5-1259.7,19.5L-1259.7,19.5z M-1271.3,19.6h0.6c0.3,0,0.6,0.3,0.7,0.6c0,0,0,0,0,0.1v0.6
		c0,0.3-0.3,0.6-0.6,0.7c0,0,0,0,0,0h-0.6c-0.3,0-0.6-0.3-0.7-0.6c0,0,0,0,0,0v-0.6C-1272,19.9-1271.7,19.7-1271.3,19.6
		C-1271.4,19.6-1271.3,19.6-1271.3,19.6L-1271.3,19.6z M-1270.8,21.2c0.2,0,0.3-0.1,0.4-0.3c0,0,0,0,0,0v-0.6c0-0.2-0.1-0.3-0.3-0.4
		c0,0,0,0-0.1,0h-0.6c-0.2,0-0.3,0.1-0.4,0.3c0,0,0,0,0,0.1v0.6c0,0.2,0.1,0.3,0.3,0.4c0,0,0,0,0,0H-1270.8z M-1268.4,19.6h0.6
		c0.3,0,0.6,0.2,0.7,0.6c0,0,0,0,0,0.1v0.6c0,0.4-0.3,0.6-0.6,0.7c0,0,0,0,0,0h-0.6c-0.4,0-0.7-0.3-0.7-0.6c0,0,0,0,0,0v-0.6
		C-1269.1,19.9-1268.8,19.7-1268.4,19.6C-1268.4,19.6-1268.4,19.6-1268.4,19.6L-1268.4,19.6z M-1267.7,21.2c0.2,0,0.4-0.1,0.4-0.3
		c0,0,0,0,0,0v-0.6c0-0.2-0.1-0.3-0.3-0.4c0,0,0,0-0.1,0h-0.6c-0.2,0-0.3,0.1-0.4,0.3c0,0,0,0,0,0.1v0.6c0,0.2,0.1,0.3,0.3,0.4
		c0,0,0,0,0,0H-1267.7z M-1227.7,20.2c0.4,0,1.3,0.7,1.3,1.1c0,0.2-0.1,0.4-0.2,0.6l0,0c-1,1.9-2.2,3.7-3.4,5.5c0,0,0,0.1-0.1,0.1
		c-0.1,0.1-0.1,0.2-0.2,0.4c0,0,0,0.1,0,0.1c0,0.1,0,0.2,0,0.3c0,0.2-0.1,0.4-0.4,0.4c0,0,0,0,0,0c-0.2,0-0.3-0.1-0.6-0.4
		c-0.1-0.1-0.2-0.1-0.3-0.2c0,0-0.1,0-0.1-0.1c0,0,0,0-0.1,0l0,0l0,0l-0.1-0.1c-0.3-0.2-0.5-0.5-0.5-0.7c0-0.2,0.1-0.4,0.3-0.5
		l0-0.1c1.5-1.9,2.7-3.9,3.8-6.1l0,0C-1228,20.4-1227.9,20.2-1227.7,20.2z M-1226.8,21.7c0.1-0.1,0.1-0.3,0.2-0.4
		c-0.2-0.4-0.6-0.7-1-0.8c0,0-0.1,0.1-0.1,0.2l0,0c-1.1,2.2-2.4,4.2-3.8,6.1l0,0.1c-0.1,0.1-0.2,0.2-0.2,0.3c0,0.1,0.2,0.2,0.4,0.4
		l0.1,0.1c0,0,0.1,0,0.1,0.1c0,0,0,0,0.1,0.1h0c0.1,0.1,0.2,0.1,0.3,0.2c0.1,0.1,0.3,0.2,0.4,0.3c0,0,0.1,0,0.1-0.1
		c0-0.1,0-0.1,0-0.2c0-0.1,0-0.1,0-0.2c0-0.2,0.1-0.4,0.2-0.5c0,0,0-0.1,0.1-0.1l0,0C-1229,25.5-1227.9,23.6-1226.8,21.7z
		 M-1203.8,22.7h7c0.4,0,0.7,0.3,0.7,0.7v2.3c0,0.4-0.3,0.7-0.7,0.7c0,0,0,0-0.1,0h-7c-0.4,0-0.7-0.3-0.7-0.7c0,0,0,0,0,0v-2.3
		C-1204.5,23-1204.2,22.7-1203.8,22.7L-1203.8,22.7z M-1196.8,23h-7c-0.2,0-0.4,0.2-0.4,0.4v2.2c0,0.4,0.3,0.4,0.4,0.4h7
		c0.3,0,0.4-0.1,0.4-0.4v-2.2C-1196.4,23.2-1196.5,23-1196.8,23C-1196.8,23-1196.8,23-1196.8,23z M-1264.1,50.1c0.4,0,0.6,0.4,1,1.1
		l0.2,0.3c0.4,0.5,0.6,1,0.8,1.6c0,0.4-0.5,0.6-0.8,0.8h2.2c0.4,0,0.5,0,0.8-0.3c0.8-0.9,1.4-1.9,2-3v0l0,0c0.1-0.2,0.2-0.3,0.4-0.3
		c0.3,0.1,0.7,0.2,1,0.4c0.9,0.4,0.9,0.6,0.9,0.7c0,0.3-0.3,0.3-0.5,0.3c-0.1,0-0.2,0-0.2,0.1c-0.2,0.2-0.3,0.4-0.4,0.6
		c-0.3,0.5-0.6,0.9-0.9,1.3l0,0c0,0,0,0,0,0.1s0,0.1,0.1,0.1c0.3,0,0.6,0,0.9,0c0.3,0,0.6,0,0.9,0c0.5,0,1.4,0,1.4,1
		c0,0.2,0,0.3,0,0.5s0,0.3,0,0.5V57c0,0.1,0,0.2,0,0.3s0,0.3,0,0.4c0,0.6-0.4,0.6-1,0.6c-0.5,0-1,0-1-0.6c0-0.1,0-0.3,0-0.4
		s0-0.3,0-0.4v-0.9c0-0.3-0.1-0.4-0.4-0.4h-12.5c-0.3,0-0.4,0.1-0.4,0.4V57c0,0.1,0,0.2,0,0.4s0,0.3,0,0.4c0,0.5-0.5,0.5-1,0.5
		c-0.6,0-1,0-1-0.6c0-0.1,0-0.3,0-0.4c0-0.1,0-0.2,0-0.4v-1.2c0-0.2,0-0.3,0-0.5c0-0.1,0-0.3,0-0.4c0-1,0.9-1,1.3-1c0.3,0,0.7,0,1,0
		c0.2,0,0.4,0,0.7,0c-0.1-0.1-0.2-0.2-0.2-0.3c-0.4-0.7-0.9-1.3-1.3-1.9l0,0c0,0,0,0-0.1-0.1c-0.1-0.1-0.1-0.2-0.2-0.4
		c0-0.5,0.9-0.9,1.2-0.9s0.7,0.5,1,1l0.1,0.2c0.4,0.5,0.7,1,0.9,1.6c0,0.4-0.4,0.6-0.8,0.8h4.3c-0.2-0.2-0.3-0.4-0.4-0.6
		c0-0.1-0.1-0.1-0.1-0.2c-0.3-0.5-0.6-1-1-1.5l0,0l0-0.1c-0.1-0.1-0.2-0.3-0.2-0.4C-1265.3,50.6-1264.4,50.1-1264.1,50.1z
		 M-1263.3,53.7c0.2,0,1-0.3,1-0.6c-0.2-0.5-0.5-1-0.8-1.4l-0.2-0.3c-0.3-0.5-0.6-0.9-0.8-0.9c-0.3,0-0.9,0.4-0.9,0.6
		c0,0.1,0.1,0.2,0.1,0.3l0,0.1c0.4,0.5,0.7,1,1,1.5c0,0.1,0.1,0.1,0.1,0.2C-1263.6,53.5-1263.5,53.7-1263.3,53.7z M-1256,51.3
		c-0.5-0.4-1-0.6-1.6-0.8c0,0-0.1,0-0.1,0.1l0,0c-0.6,1.1-1.2,2.1-2,3c-0.2,0.3-0.6,0.5-1,0.5h-7.7c-0.3,0-0.7,0-1,0s-0.7,0-1,0
		c-0.7,0-1,0.1-1,0.7c0,0.1,0,0.3,0,0.4c0,0.2,0,0.3,0,0.5v1.2c0,0.1,0,0.3,0,0.4s0,0.2,0,0.4c0,0.2,0,0.3,0.7,0.3
		c0.6,0,0.7,0,0.7-0.2c0-0.1,0-0.3,0-0.4c0-0.1,0-0.3,0-0.4v-0.9c0-0.4,0.2-0.7,0.6-0.7c0.1,0,0.1,0,0.2,0h12.5
		c0.4-0.1,0.7,0.2,0.7,0.5c0,0.1,0,0.1,0,0.2V57c0,0.1,0,0.3,0,0.4s0,0.2,0,0.4c0,0.2,0.1,0.3,0.7,0.3c0.7,0,0.7,0,0.7-0.3
		c0-0.1,0-0.2,0-0.4c0-0.1,0-0.3,0-0.4v-1.2c0-0.2,0-0.3,0-0.5s0-0.3,0-0.5c0-0.6-0.4-0.7-1.1-0.7c-0.3,0-0.6,0-0.9,0
		c-0.3,0-0.6,0-0.9,0c-0.2,0-0.4-0.1-0.4-0.4c0,0,0,0,0,0c0-0.1,0-0.2,0.1-0.2l0,0l0,0l0,0c0.3-0.4,0.6-0.9,0.9-1.3
		c0.1-0.2,0.2-0.3,0.4-0.6c0.1-0.2,0.3-0.2,0.5-0.2C-1256.1,51.4-1256.1,51.4-1256,51.3C-1256,51.3-1256,51.3-1256,51.3L-1256,51.3z
		 M-1268.4,53.7c0.2,0,1-0.3,1-0.6c-0.2-0.5-0.5-1-0.9-1.4l0,0l-0.1-0.2c-0.3-0.4-0.6-0.9-0.8-0.9c-0.3,0-0.9,0.4-0.9,0.6
		c0,0.1,0,0.1,0.1,0.2c0,0,0,0.1,0.1,0.1c0.4,0.6,0.9,1.2,1.3,1.9C-1268.6,53.6-1268.5,53.7-1268.4,53.7z M-1245.3,50.1
		c0.4,0,0.8,0,1.2,0.1h0c0.3,0,0.8,0.1,0.8,0.4c0,0.2-0.1,0.3-0.3,0.4l-0.1,0.1c-0.2,0.1-0.2,0.3-0.2,1v1.6c0,0.3,0.1,0.4,0.4,0.4
		h0.8c0.3,0,0.4-0.1,0.4-0.4v-1.4c0-0.5,0-0.9-0.1-1.4c0-0.1,0-0.1,0-0.2c0-0.3,0.2-0.4,0.5-0.4c0.3,0,1.2,0.1,1.5,0.1h0
		c0.2,0,0.5,0.1,0.5,0.4c0,0.2-0.2,0.3-0.3,0.4h0c-0.1,0.1-0.2,0.3-0.2,0.9v1.5c0,0.3,0.1,0.4,0.4,0.4c0.3,0,0.4-0.1,0.5-0.2
		c0.6-0.9,1.1-1.9,1.6-2.9c0-0.1,0.1-0.3,0.4-0.3c0.3,0.1,0.6,0.2,0.9,0.4c0.7,0.4,0.8,0.6,0.8,0.7c0,0.2-0.2,0.3-0.4,0.3h0
		c-0.2,0-0.2,0-0.2,0.1c-0.1,0.2-0.3,0.5-0.4,0.7c-0.2,0.3-0.4,0.7-0.6,1c0,0,0,0.1,0,0.1c0,0,0,0.1,0.2,0.1h0.1c0.4,0,0.8,0,1.3,0
		c0.4,0,0.9,0,1.3,0c0.6,0,0.6,0.4,0.6,0.9s0,0.9-0.6,0.9c-0.4,0-0.9,0-1.3,0c-0.4,0-0.8,0-1.3,0h-1.2c0,0,0,0.1,0,0.1
		c0,0.2-0.3,0.3-0.4,0.3l-0.1,0c-0.1,0-0.2,0-0.2,0.2c-0.1,0.1-0.1,0.3-0.2,0.4c-0.1,0.1-0.1,0.3-0.2,0.4c0,0,0,0.1,0,0.1
		c0,0.1,0,0.1,0.2,0.2h1.1c0.4,0,0.8,0,1.2,0c0.4,0,0.8,0,1.3,0c0.6,0,0.6,0.4,0.6,0.9c0,0.4,0,0.8-0.6,0.8c-0.4,0-0.8,0-1.2,0
		c-0.4,0-0.8,0-1.2,0h-3.8c-0.2,0-0.3,0.1-0.3,0.3v0.2c0,0.2,0,0.3,0.3,0.3h2.6c0.4,0,0.8,0,1.2,0s0.8,0,1.2,0
		c0.6,0,0.6,0.4,0.6,0.9s0,0.8-0.6,0.8c-0.4,0-0.8,0-1.2,0s-0.8,0-1.2,0h-2.6c-0.3,0-0.3,0.1-0.3,0.3v0.2c0,0.2,0.1,0.3,0.3,0.3h5
		c0.4,0,0.9,0,1.3,0s0.9,0,1.3,0c0.6,0,0.6,0.4,0.6,0.9s0,0.9-0.6,0.9c-0.4,0-0.9,0-1.3,0c-0.4,0-0.9,0-1.3,0h-3.5c0,0-0.1,0-0.1,0
		c0,0,0,0,0,0.1c1.8,1.3,3.7,2.3,5.8,2.9h0c0.3,0.1,0.8,0.2,0.8,0.6c0,0.5-0.6,1.3-1.1,1.3c-0.9-0.2-1.8-0.6-2.6-1
		c-1.6-0.8-3.2-1.8-4.5-3l0,0c0,0-0.1,0-0.1,0c-0.1,0-0.1,0-0.1,0.2v0.6c0,0.4,0,0.9,0,1.3c0,0.4,0,0.9,0,1.3c0,0.8-0.3,0.9-1.1,0.9
		c-0.7,0-1.1-0.1-1.1-0.8c0-0.5,0-0.9,0-1.4c0-0.4,0-0.9,0-1.4v-0.6c0-0.2-0.1-0.2-0.1-0.2c0,0-0.1,0-0.1,0.1
		c-1.9,1.5-4.1,2.8-6.4,3.7l0,0c-0.2,0.1-0.5,0.2-0.8,0.2c-0.4,0-1-0.9-1-1.3c0-0.3,0.4-0.5,0.7-0.6l0.1,0c2-0.7,4-1.7,5.8-2.9
		c0,0,0,0,0,0c0,0-0.1,0-0.1,0h-3.3c-0.4,0-0.9,0-1.3,0c-0.4,0-0.9,0-1.3,0c-0.6,0-0.6-0.4-0.6-0.9c0-0.5,0-0.9,0.6-0.9
		c0.4,0,0.9,0,1.3,0s0.9,0,1.3,0h4.9c0.2,0,0.3-0.1,0.3-0.3v-0.2c0-0.2-0.1-0.3-0.3-0.3h-2.5c-0.4,0-0.8,0-1.2,0c-0.4,0-0.8,0-1.2,0
		c-0.6,0-0.6-0.4-0.6-0.8c0-0.5,0-0.9,0.6-0.9c0.4,0,0.8,0,1.2,0s0.8,0,1.2,0h2.5c0.2,0,0.3-0.1,0.3-0.3v-0.2c0-0.3-0.1-0.3-0.3-0.3
		h-3.7c-0.4,0-0.8,0-1.2,0c-0.4,0-0.8,0-1.2,0c-0.6,0-0.6-0.4-0.6-0.8c0-0.4,0-0.9,0.6-0.9c0.4,0,0.8,0,1.2,0c0.4,0,0.8,0,1.2,0h1
		c0.2,0,0.3-0.1,0.3-0.2c0,0,0-0.1,0-0.1c-0.2-0.4-0.4-0.8-0.6-1.2c-0.2-0.3-0.2-0.3-0.6-0.3h-1c-0.4,0-0.8,0-1.2,0
		c-0.4,0-0.9,0-1.3,0c-0.6,0-0.6-0.4-0.6-0.9c0-0.5,0-0.9,0.6-0.9c0.4,0,0.9,0,1.3,0s0.8,0,1.2,0h0.7c-0.1-0.1-0.2-0.2-0.3-0.4l0,0
		c-0.4-0.6-0.9-1.2-1.3-1.8l0,0c-0.1-0.1-0.2-0.3-0.2-0.4c0-0.4,0.9-0.8,1.2-0.8s0.6,0.3,0.8,0.6c0,0,0.1,0.1,0.1,0.1l0,0
		c1.1,1.4,1.3,1.8,1.3,1.9c0,0.3-0.5,0.6-0.9,0.7h1.4c0.3,0,0.4-0.1,0.4-0.4v-1.5c0-0.5,0-0.9-0.1-1.4v0v-0.2c0-0.2,0.1-0.4,0.4-0.4
		C-1245.4,50.1-1245.3,50.1-1245.3,50.1z M-1242.5,54.4h-0.9c-0.4,0-0.7-0.2-0.7-0.7v-1.6c0-0.6,0-1,0.3-1.2l0.1-0.1
		c0.1-0.1,0.1-0.1,0.1-0.1c0-0.1-0.3-0.1-0.5-0.1l-0.1,0c-0.4-0.1-0.8-0.1-1.2-0.1c-0.2,0-0.2,0-0.2,0.1v0.2
		c0.1,0.5,0.1,0.9,0.1,1.4v1.5c0,0.4-0.2,0.7-0.6,0.7c-0.1,0-0.1,0-0.2,0h-2.8c-0.4,0-0.8,0-1.3,0s-0.8,0-1.3,0
		c-0.3,0-0.3,0-0.3,0.6c0,0.5,0,0.6,0.3,0.6c0.4,0,0.9,0,1.3,0s0.8,0,1.3,0h1c0.5,0,0.7,0.1,0.9,0.5c0.2,0.4,0.4,0.8,0.6,1.2
		c0,0.1,0.1,0.2,0.1,0.2c0,0.3-0.2,0.5-0.5,0.5h-1c-0.4,0-0.8,0-1.2,0c-0.4,0-0.8,0-1.2,0c-0.2,0-0.3,0.1-0.3,0.6
		c0,0.5,0,0.5,0.3,0.5c0.4,0,0.8,0,1.2,0c0.4,0,0.8,0,1.2,0h3.7c0.3,0,0.5,0.2,0.6,0.5c0,0,0,0.1,0,0.1v0.2c0,0.3-0.2,0.5-0.4,0.6
		c0,0-0.1,0-0.1,0h-2.5c-0.4,0-0.8,0-1.2,0c-0.4,0-0.8,0-1.2,0c-0.3,0-0.3,0-0.3,0.6c0,0.5,0,0.5,0.3,0.5c0.4,0,0.8,0,1.2,0
		c0.4,0,0.8,0,1.2,0h2.5c0.3,0,0.5,0.2,0.6,0.4c0,0,0,0.1,0,0.1v0.2c0,0.3-0.2,0.5-0.4,0.6c0,0-0.1,0-0.1,0h-4.9c-0.4,0-0.9,0-1.3,0
		s-0.9,0-1.3,0c-0.3,0-0.3,0-0.3,0.6s0,0.6,0.3,0.6c0.4,0,0.9,0,1.3,0s0.9,0,1.3,0h3.3c0.2,0,0.4,0.1,0.4,0.3c0,0,0,0,0,0
		c0,0.1-0.1,0.2-0.2,0.3c-1.8,1.3-3.8,2.3-5.8,3l-0.1,0c-0.3,0.1-0.5,0.2-0.5,0.3c0,0.3,0.5,1,0.7,1c0.2,0,0.4-0.1,0.6-0.2l0,0
		c2.3-0.9,4.4-2.1,6.3-3.6l0,0c0.1-0.1,0.2-0.1,0.3-0.1c0.2,0,0.3,0.1,0.4,0.4v0v0.6c0,0.5,0,0.9,0,1.4c0,0.4,0,0.9,0,1.4
		c0,0.5,0.1,0.5,0.8,0.5c0.7,0,0.8-0.1,0.8-0.6c0-0.4,0-0.9,0-1.3c0-0.4,0-0.9,0-1.3v-0.6c0-0.2,0.2-0.4,0.4-0.4c0,0,0,0,0,0
		c0.1,0,0.2,0,0.3,0.1c1.4,1.2,2.9,2.1,4.5,2.9c0.8,0.4,1.7,0.7,2.5,1c0.3,0,0.8-0.6,0.8-1c0-0.2-0.4-0.3-0.6-0.4h0
		c-2.1-0.6-4.1-1.6-5.9-2.9l0,0c-0.1-0.1-0.1-0.2-0.1-0.3c0-0.2,0.2-0.3,0.4-0.3c0,0,0,0,0,0h3.5c0.4,0,0.9,0,1.3,0
		c0.4,0,0.9,0,1.3,0c0.3,0,0.3,0,0.3-0.6s0-0.6-0.3-0.6c-0.4,0-0.9,0-1.3,0s-0.9,0-1.3,0h-5c-0.3,0-0.5-0.2-0.6-0.4
		c0-0.1,0-0.1,0-0.2v-0.2c0-0.3,0.2-0.5,0.5-0.6c0,0,0.1,0,0.1,0h2.6c0.4,0,0.8,0,1.2,0c0.4,0,0.8,0,1.2,0c0.3,0,0.3,0,0.3-0.5
		c0-0.5,0-0.6-0.3-0.6c-0.4,0-0.8,0-1.2,0c-0.4,0-0.8,0-1.2,0h-2.6c-0.3,0-0.5-0.1-0.6-0.4c0,0,0-0.1,0-0.1v-0.2
		c0-0.3,0.2-0.6,0.5-0.6c0,0,0.1,0,0.1,0h3.8c0.4,0,0.8,0,1.2,0c0.4,0,0.8,0,1.2,0c0.2,0,0.3-0.1,0.3-0.5c0-0.5,0-0.6-0.3-0.6
		c-0.4,0-0.8,0-1.3,0c-0.4,0-0.8,0-1.2,0h-1.1c-0.4,0-0.5-0.3-0.5-0.5c0-0.1,0-0.2,0.1-0.2l0,0c0.1-0.1,0.1-0.3,0.2-0.4
		c0.1-0.1,0.1-0.3,0.2-0.5v0c0.1-0.2,0.2-0.3,0.4-0.3l0.1,0h0c0.1,0,0.1,0,0.1,0l0,0l0,0v0c0,0,0-0.1,0-0.1c0-0.1,0-0.2,0.1-0.2l0,0
		h1.4c0.4,0,0.9,0,1.3,0c0.4,0,0.8,0,1.3,0c0.3,0,0.3,0,0.3-0.6c0-0.6,0-0.6-0.3-0.6c-0.4,0-0.8,0-1.3,0s-0.9,0-1.3,0h-0.2
		c-0.4-0.1-0.5-0.3-0.5-0.4c0-0.1,0-0.2,0.1-0.3c0.2-0.3,0.4-0.6,0.6-1c0.1-0.2,0.3-0.5,0.4-0.7c0.1-0.2,0.3-0.2,0.5-0.2l0.1,0
		c0,0,0.1,0,0.1,0l0,0c-0.4-0.3-0.9-0.6-1.4-0.8c0,0-0.1,0.1-0.1,0.1c-0.5,1-1,2-1.6,2.9c-0.2,0.3-0.4,0.4-0.7,0.4h0
		c-0.5-0.1-0.7-0.3-0.7-0.7v-1.5c0-0.6,0-1,0.3-1.2l0,0c0.1-0.1,0.2-0.1,0.2-0.2s0-0.1-0.2-0.1h0c-0.3,0-1.2-0.1-1.5-0.1
		c-0.2,0-0.2,0-0.2,0.1c0,0,0,0.1,0,0.1l0,0c0.1,0.5,0.1,1,0.1,1.5v1.4C-1241.8,54.1-1242,54.3-1242.5,54.4L-1242.5,54.4z
		 M-1248,53.9c0.2,0,1-0.3,1-0.5c-0.3-0.6-0.7-1.2-1.2-1.8l0,0c0,0-0.1-0.1-0.1-0.1c-0.2-0.2-0.4-0.5-0.6-0.5
		c-0.3,0-0.9,0.4-0.9,0.5c0,0.1,0.1,0.2,0.1,0.2l0,0c0.5,0.6,1,1.3,1.3,1.8l0,0C-1248.1,53.8-1248.1,53.9-1248,53.9z M-1218.1,51.6
		c0.2,0,0.4,0.2,0.6,0.4l0.1,0.1l0.2,0.2c0.6,0.6,0.8,0.9,0.8,1.1c0,0.2-0.2,0.4-0.4,0.4c0,0,0,0,0,0c-0.1,0-0.2,0-0.3,0
		c0,0-0.1,0-0.1,0c0,0,0,0-0.1,0c-0.2,0-0.4,0.1-0.6,0.2l-0.2,0c-0.8,0.3-1.7,0.5-2.5,0.7c-0.3,0.1-0.4,0.3-0.4,0.4
		c0,0.1,0,0.3,0,0.5c0,0.3,0,0.7,0,1.1c0,0.2,0,0.5,0,0.7c0,0.2,0,0.4,0,0.6c0,0.3,0.2,0.4,0.3,0.4h3.3c0.4,0,0.9,0,1.4,0
		c0.5,0,0.9,0,1.3,0c0.7,0,0.7,0.5,0.7,1.1c0,0.5,0,1-0.7,1c-0.4,0-0.9,0-1.3,0s-0.9,0-1.3,0h-3.5c-0.4,0-0.5,0.2-0.6,0.7
		c-0.6,2.3-1.9,4.4-3.8,5.9c-0.8,0.7-1.7,1.2-2.6,1.6c-0.3,0-0.7-0.4-0.9-0.5c-0.2-0.2-0.6-0.6-0.6-0.8c0-0.3,0.3-0.4,0.5-0.5l0,0
		c1.3-0.6,2.4-1.4,3.3-2.4c0.8-1,1.4-2.1,1.8-3.3c0,0,0-0.1,0-0.1c0-0.1,0-0.1,0-0.2c0-0.1-0.1-0.2-0.2-0.2h-4.7c-0.4,0-0.9,0-1.4,0
		c-0.4,0-0.8,0-1.2,0c-0.7,0-0.7-0.5-0.7-1c0-0.6,0-1.1,0.7-1.1c0.4,0,0.8,0,1.2,0c0.4,0,0.9,0,1.4,0h4.9c0.2,0,0.4-0.1,0.4-0.4
		c0.1-0.4,0.1-0.7,0.1-1.1v-0.1c0-1.4-0.1-1.5-0.3-1.6l-0.2,0c-0.8,0.1-3,0.4-4.5,0.4c-0.3,0-0.7-0.2-0.8-0.5
		c-0.2-0.3-0.3-0.7-0.3-1.1c0-0.2,0.1-0.5,0.6-0.5c0.1,0,0.1,0,0.2,0c0.1,0,0.3,0,0.4,0c1.8,0,3.7-0.2,5.5-0.5
		c1.3-0.2,2.7-0.6,3.9-1.2C-1218.4,51.7-1218.2,51.6-1218.1,51.6L-1218.1,51.6z M-1216.8,53.5C-1216.8,53.5-1216.7,53.5-1216.8,53.5
		c0.1-0.1,0-0.3-0.6-1l-0.2-0.2l-0.1-0.1c-0.1-0.1-0.3-0.3-0.4-0.3c-0.1,0-0.2,0.1-0.3,0.1l0,0c-1.3,0.6-2.6,1-4,1.2
		c-1.8,0.3-3.7,0.5-5.5,0.5c-0.1,0-0.3,0-0.4,0c-0.1,0-0.2,0-0.2,0c-0.3,0-0.3,0.1-0.3,0.2c0,0.3,0.2,0.7,0.3,1
		c0.2,0.3,0.2,0.3,0.5,0.3c1.4,0,3.7-0.3,4.4-0.4c0.2,0,0.2,0,0.3,0c0.7,0,0.7,0.7,0.7,1.9v0.1c0,0.4,0,0.8-0.1,1.2
		c-0.1,0.4-0.4,0.6-0.7,0.6h-4.9c-0.4,0-0.9,0-1.4,0c-0.4,0-0.9,0-1.2,0c-0.3,0-0.4,0.1-0.4,0.8c0,0.6,0.1,0.7,0.4,0.7
		c0.4,0,0.8,0,1.2,0c0.4,0,0.9,0,1.4,0h4.7c0.3,0,0.5,0.2,0.5,0.5c0,0.1,0,0.2,0,0.3c0,0,0,0.1,0,0.1v0c-0.4,1.3-1,2.4-1.9,3.4
		c-0.9,1.1-2.1,1.9-3.4,2.5l0,0c-0.1,0.1-0.3,0.1-0.3,0.2c0.1,0.2,0.3,0.4,0.5,0.6c0.2,0.2,0.4,0.4,0.7,0.4c0.9-0.4,1.7-0.9,2.4-1.5
		c1.8-1.4,3.1-3.4,3.7-5.7c0.1-0.4,0.3-0.9,0.9-0.9h3.5c0.4,0,0.9,0,1.3,0c0.4,0,0.9,0,1.3,0c0.3,0,0.4-0.1,0.4-0.7
		c0-0.8-0.1-0.8-0.4-0.8c-0.4,0-0.8,0-1.2,0c-0.5,0-0.9,0-1.4,0h-3.3c-0.4,0-0.6-0.3-0.6-0.7c0-0.2,0-0.4,0-0.6c0-0.2,0-0.5,0-0.7
		c0-0.3,0-0.7,0-1c0-0.2,0-0.4,0-0.5c0-0.4,0.3-0.7,0.6-0.7c0.8-0.2,1.7-0.4,2.5-0.7h0l0.2,0c0.2-0.1,0.5-0.1,0.7-0.2
		c0,0,0.1,0,0.1,0c0,0,0,0,0.1,0h0l0,0C-1216.9,53.5-1216.8,53.5-1216.8,53.5L-1216.8,53.5z M-1245,55.4h4.1c0.5,0,0.5,0.4,0.5,0.5
		c0,0.1,0,0.2,0,0.2l0,0c-0.2,0.4-0.4,0.8-0.5,1.1v0c-0.2,0.4-0.5,0.6-0.9,0.5h-2.2c-0.4,0.1-0.7-0.2-0.8-0.5
		c-0.2-0.4-0.4-0.8-0.5-1.1c-0.1-0.1-0.1-0.2-0.1-0.3C-1245.5,55.7-1245.4,55.5-1245,55.4L-1245,55.4z M-1241,55.7h-4
		c-0.2,0-0.2,0.1-0.2,0.2c0,0.1,0,0.1,0,0.1c0.2,0.4,0.4,0.8,0.6,1.2v0c0.1,0.2,0.2,0.3,0.5,0.3h2.2c0.3,0.1,0.6-0.1,0.7-0.4
		c0.2-0.4,0.4-0.7,0.5-1.1c0,0,0-0.1,0-0.1C-1240.7,55.9-1240.7,55.8-1241,55.7L-1241,55.7z M-1267.5,56.7c0.1,0,0.3,0,0.5,0
		c0.2,0,0.3,0,0.5,0h6.3c0.2,0,0.5,0,0.7,0c0.2,0,0.5,0,0.7,0c0.7,0,1.3,0.1,1.3,1.1c0,0.2,0,0.3,0,0.5s0,0.3,0,0.5v1.5
		c0,0.2,0,1.1,0,1.2c0,0.6-0.5,0.6-1,0.6c-0.6,0-0.8,0-1-0.3l0,0c-0.1-0.2-0.1-0.2-0.2-0.2h-2.4c-0.3,0-0.4,0.1-0.5,0.4
		c-0.1,0.3-0.2,0.5-0.4,0.8c0,0,0,0.1,0,0.1c0,0.1,0.1,0.2,0.2,0.2h3.7c0.3,0,0.6,0,0.9,0s0.6,0,0.9,0c0.5,0,1.3,0,1.3,1
		c0,0.2,0,0.4,0,0.6c0,0.2,0,0.4,0,0.6v2.4c0,0.1,0,0.4,0,0.7c0,0.2,0,0.4,0,0.5c0,0.6-0.4,0.6-1.1,0.6c-0.6,0-1.1,0-1.1-0.6
		c0,0,0-0.1,0-0.1c0-0.2-0.1-0.2-0.3-0.2h-9.9c-0.2,0-0.2,0-0.3,0.3c0,0.6-0.4,0.6-1.1,0.6c-0.6,0-1,0-1-0.6c0-0.1,0-0.3,0-0.5
		c0-0.3,0-0.6,0-0.7V65c0-0.2,0-0.4,0-0.6c0-0.2,0-0.4,0-0.6c0-1,0.9-1,1.3-1c0.3,0,0.6,0,0.9,0c0.3,0,0.6,0,0.9,0h1.7
		c0.4,0,0.4,0,0.6-0.3l0.1-0.2c0.1-0.2,0.2-0.3,0.3-0.5c0,0,0,0,0-0.1c0,0,0-0.1,0-0.1c0-0.1,0-0.2-0.3-0.2h-1.7
		c-0.1,0-0.1,0-0.2,0.2c-0.1,0.3-0.4,0.3-1,0.3c-0.6,0-1,0-1-0.6c0-0.2,0-0.4,0-0.6c0-0.2,0-0.4,0-0.6v-1.5c0-0.2,0-0.3,0-0.5
		c0-0.2,0-0.3,0-0.5C-1268.8,56.8-1268.2,56.7-1267.5,56.7L-1267.5,56.7z M-1260.3,57h-6.3c-0.2,0-0.4,0-0.5,0c-0.2,0-0.3,0-0.4,0
		c-0.7,0-1,0.1-1,0.8c0,0.2,0,0.3,0,0.5s0,0.3,0,0.5v1.5c0,0.2,0,0.4,0,0.6c0,0.2,0,0.4,0,0.6c0,0.3,0,0.3,0.7,0.3
		c0.6,0,0.6,0,0.7-0.1v0c0.1-0.2,0.2-0.3,0.5-0.4h1.7c0.4,0,0.6,0.2,0.6,0.5c0,0.1,0,0.1,0,0.2c0,0,0,0,0,0.1l0,0
		c-0.1,0.2-0.2,0.4-0.3,0.6l-0.1,0.2c-0.1,0.3-0.5,0.6-0.8,0.5h-1.7c-0.3,0-0.6,0-0.9,0c-0.3,0-0.6,0-0.9,0c-0.7,0-1,0.1-1,0.7
		c0,0.2,0,0.4,0,0.6c0,0.2,0,0.4,0,0.6v2.3c0,0.1,0,0.5,0,0.7c0,0.2,0,0.4,0,0.5c0,0.2,0,0.3,0.7,0.3c0.8,0,0.8-0.1,0.8-0.3v0
		c0-0.3,0.2-0.5,0.5-0.5c0,0,0,0,0,0h9.9c0.3,0,0.5,0.2,0.6,0.5c0,0,0,0.1,0,0.1v0c0,0,0,0.1,0,0.1c0,0.2,0.1,0.2,0.8,0.2
		c0.8,0,0.8,0,0.8-0.3c0-0.1,0-0.3,0-0.5c0-0.3,0-0.6,0-0.7V65c0-0.2,0-0.4,0-0.6c0-0.2,0-0.4,0-0.6c0-0.6-0.4-0.7-1-0.7
		c-0.3,0-0.6,0-0.9,0c-0.3,0-0.6,0-0.9,0h-3.7c-0.3,0-0.5-0.2-0.5-0.4c0,0,0,0,0,0c0-0.1,0-0.2,0.1-0.2l0,0c0.1-0.2,0.2-0.5,0.4-0.7
		v0c0.1-0.3,0.4-0.6,0.8-0.5h2.4c0.2,0,0.4,0.2,0.4,0.4c0.1,0.1,0.1,0.1,0.7,0.1c0.7,0,0.7,0,0.7-0.3c0-0.1,0-1,0-1.2v-1.5
		c0-0.2,0-0.3,0-0.5s0-0.3,0-0.5c0-0.6-0.3-0.8-1-0.8c-0.2,0-0.5,0-0.7,0C-1259.8,57-1260,57-1260.3,57L-1260.3,57z M-1206.4,57
		c0.2,0,0.4,0,0.7,0c0.4,0,0.8,0,1.3,0h2.9c0.3,0,0.7,0,1,0c0.2,0,0.4,0,0.5,0c0.6,0,1.2,0.5,1.2,1.1c0,0,0,0-0.1,0.5
		c-0.1,0.4-0.1,0.9-0.1,1l-0.5,4.2c0,0.1,0,0.2,0.1,0.3c0.1,0.1,0.2,0.1,0.3,0.1h0.8c0.3,0,0.7,0,1,0c0.3,0,0.7,0,1,0
		c0.7,0,0.7,0.5,0.7,1c0,0.4,0,0.9-0.7,0.9c-0.3,0-0.7,0-1,0c-0.3,0-0.7,0-1,0h-8.6c-0.3,0-0.7,0-1.1,0c-0.3,0-0.7,0-0.9,0
		c-0.7,0-0.7-0.5-0.7-0.9c0-0.5,0-1,0.7-1c0.2,0,0.5,0,0.9,0c0.4,0,0.8,0,1.1,0h5.2c0.2,0,0.4-0.2,0.4-0.4l0.5-4.1
		c0-0.1,0-0.1,0-0.3c0-0.1,0-0.2,0-0.2c0-0.2-0.1-0.3-0.3-0.3c0,0,0,0,0,0h-3.2c-0.4,0-0.8,0-1.2,0c-0.3,0-0.6,0-0.8,0
		c-0.6,0-0.6-0.5-0.6-1v0c0-0.3,0-0.5,0.2-0.7C-1206.7,57-1206.6,57-1206.4,57z M-1201.5,57.3h-2.9c-0.5,0-0.9,0-1.3,0
		c-0.3,0-0.5,0-0.7,0c-0.1,0-0.2,0-0.2,0.1c-0.1,0.1-0.1,0.3-0.1,0.5v0.1c0,0.6,0,0.7,0.3,0.7c0.2,0,0.4,0,0.8,0c0.4,0,0.8,0,1.2,0
		h3.2c0.3,0,0.6,0.3,0.7,0.6c0,0,0,0,0,0c0,0,0,0.1,0,0.2c0,0.1,0,0.2,0,0.2v0l-0.5,4.1c0,0.4-0.4,0.7-0.7,0.7h-5.2
		c-0.4,0-0.8,0-1.1,0c-0.3,0-0.6,0-0.8,0c-0.3,0-0.4,0.1-0.4,0.7c0,0.5,0,0.6,0.4,0.6c0.3,0,0.6,0,0.9,0c0.4,0,0.7,0,1.1,0h8.7
		c0.3,0,0.7,0,1,0c0.3,0,0.7,0,1,0c0.4,0,0.4-0.1,0.4-0.6c0-0.6,0-0.7-0.4-0.7s-0.7,0-1,0c-0.3,0-0.7,0-1,0h-0.8
		c-0.2,0-0.4-0.1-0.5-0.2c-0.1-0.1-0.2-0.3-0.1-0.5l0.5-4.2c0-0.1,0.1-0.6,0.1-1c0-0.2,0.1-0.4,0.1-0.5c-0.1-0.4-0.5-0.8-0.9-0.8
		c-0.1,0-0.3,0-0.5,0C-1200.8,57.3-1201.2,57.3-1201.5,57.3L-1201.5,57.3z M-1266.4,58.1h6.6c0.3,0,0.6,0.2,0.7,0.6c0,0,0,0.1,0,0.1
		v0.8c0,0.3-0.3,0.6-0.6,0.7c0,0,0,0-0.1,0h-6.6c-0.3,0-0.6-0.3-0.7-0.6c0,0,0,0,0,0v-0.8C-1267.1,58.4-1266.8,58.1-1266.4,58.1
		C-1266.5,58.1-1266.5,58.1-1266.4,58.1L-1266.4,58.1z M-1259.9,59.8c0.2,0,0.3-0.1,0.4-0.3c0,0,0,0,0-0.1v-0.8
		c0-0.2-0.1-0.3-0.3-0.4c0,0-0.1,0-0.1,0h-6.6c-0.2,0-0.3,0.1-0.4,0.3c0,0,0,0,0,0.1v0.8c0,0.2,0.1,0.3,0.3,0.4c0,0,0,0,0,0H-1259.9
		z M-1189.8,58.3c0.1,0,0.4,0,0.7,0c0.5,0,1.3,0,1.8,0h9.6c0.5,0,1.3,0,1.8,0c0.3,0,0.6,0,0.7,0c0.7,0,0.7,0.3,0.7,1.2
		c0,0.5,0,1.1-0.7,1.1c-0.4,0-0.9,0-1.3,0s-0.9,0-1.3,0h-9.6c-0.4,0-0.9,0-1.3,0s-0.9,0-1.3,0c-0.7,0-0.7-0.6-0.7-1.1
		C-1190.6,58.6-1190.5,58.3-1189.8,58.3z M-1177.7,58.6h-9.6c-0.6,0-1.3,0-1.8,0c-0.3,0-0.6,0-0.7,0c-0.4,0-0.4,0-0.4,0.9
		c0,0.6,0,0.8,0.4,0.8c0.4,0,0.9,0,1.3,0s0.9,0,1.3,0h9.6c0.4,0,0.9,0,1.3,0s0.9,0,1.3,0c0.3,0,0.4-0.2,0.4-0.8c0-0.9,0-0.9-0.4-0.9
		c-0.1,0-0.4,0-0.7,0C-1176.4,58.6-1177.1,58.6-1177.7,58.6z M-1268,64.3h9.7c0.4,0,0.7,0.3,0.7,0.7c0,0,0,0,0,0.1v1.2
		c0,0.4-0.3,0.7-0.7,0.7h-9.7c-0.4,0-0.7-0.3-0.7-0.7V65C-1268.7,64.6-1268.4,64.3-1268,64.3L-1268,64.3z M-1258.3,64.6h-9.6
		c-0.2,0-0.4,0.2-0.4,0.4v1.2c0,0.3,0.1,0.4,0.4,0.4h9.6c0.2,0,0.4-0.2,0.4-0.4c0,0,0,0,0,0V65C-1257.9,64.8-1258,64.6-1258.3,64.6z
		"/>
</g>
</svg>
