<?xml version="1.0" encoding="utf-8"?>
<!-- Generator: Adobe Illustrator 28.0.0, SVG Export Plug-In . SVG Version: 6.00 Build 0)  -->
<svg version="1.1" id="レイヤー_1" xmlns="http://www.w3.org/2000/svg" xmlns:xlink="http://www.w3.org/1999/xlink" x="0px"
	 y="0px" viewBox="0 0 185 185" style="enable-background:new 0 0 185 185;" xml:space="preserve">
<style type="text/css">
	.st0{fill:#FCFBFA;}
	.st1{stroke:#000000;stroke-width:0.7;}
</style>
<g id="グループ_1477" transform="translate(-1152.348 -359.937)">
	<path id="パス_485" class="st0" d="M1335.3280029,427.1914978c-0.4190674-4.9809875-0.75-9.9419861-0.9160156-14.8999939
		c-3.4370117-4.9500122-6.9610596-9.8349915-10.5-14.7390137c-2.4749756-3.447998-4.8850098-6.9500122-7.1480713-10.553009
		c-0.1669922-0.2739868-0.3419189-0.552002-0.5089111-0.82901c-0.5090332-0.3540039-1.0269775-0.7000122-1.5469971-1.0490112
		c-6.0760498-4.1319885-12.1309814-8.2730103-18.2630615-12.2999878
		c-6.2419434-4.0899963-12.7999268-7.5690002-19.2789307-11.2709961c-0.3649902-0.0650024-0.7299805-0.1329956-1.0949707-0.1870117
		c-5.2476807-0.6280823-10.526123-0.9642639-15.8110352-1.0069885c-0.1209717-0.0119934-0.243042-0.0119934-0.3649902-0.0119934
		c-6.0999756,0-12.1850586,0.5429993-18.2520752,1.0299988c-5.93396,0.4530029-11.8769531,0.7950134-17.7999268,1.2250061
		c-4.8280029,0.3420105-9.7000732,0.5859985-14.5180664,1.0950012c-0.440918,0.0759888-0.8709717,0.1549988-1.3149414,0.2319946
		c-2.0827637,1.0258179-4.0969238,2.1852417-6.0300293,3.4710083c-11.7349854,7.9110107-20.7839355,16-28.2729492,28.1629944
		c-4.5090332,7.3259888-7.69104,15.5450134-10.3210449,23.7200012c-0.7922363,2.4901428-1.4232178,5.028717-1.8890381,7.6000061
		c-4.2897949,8.3414612-7.3950195,17.2405396-9.2259521,26.4400024c0.5999756,3.0599976,1.2390137,6.0999756,1.8129883,9.1469727
		c1.1169434,5.9000244,2.1779785,11.8120117,3.5360107,17.6550293c1.1933594,5.0713501,2.4489746,10.1173096,3.7669678,15.1380005
		c1.69104,2.1329956,3.3599854,4.2849731,4.9840088,6.4630127c2.7299805,3.2470093,5.3149414,6.5999756,7.8890381,9.9650269
		c2.2062988,2.7016602,4.5946045,5.2495728,7.1479492,7.6259766c3.2700195,2.9160156,6.7740479,5.5780029,10.2000732,8.3300171
		c0.2999268,0.1099854,0.5999756,0.2210083,0.8939209,0.34198c3.6000977,1.4000244,7.2150879,2.7630005,10.8270264,4.1439819
		c7.4250488,2.8510132,14.7619629,5.9000244,22.2320557,8.6409912c3.1820068,1.1710205,6.4179688,2.1859741,9.6448975,3.1710205
		c6.2540283-0.0109863,12.4620361,0.3079834,18.7000732,0.4860229c3.0410156,0.0880127,6.0670166,0.1099854,9.0909424,0.0880127
		c0.9450684-0.1300049,1.887085-0.257019,2.8310547-0.3759766c3.2779541-0.4439697,6.5649414-0.8740234,9.8399658-1.3579712
		c4.5650635-2.6589966,9.1220703-5.3569946,13.8480225-7.690979c5.888916-2.9190063,12.0209961-5.3259888,18.0089111-8.03302
		c0.1550293-0.0759888,0.3200684-0.1439819,0.4749756-0.2210083c2.8510742-3.348999,5.7670898-6.6530151,8.8499756-9.7999878
		c2.4000244-2.4639893,4.7290039-4.927002,6.9160156-7.5460205c3.7290039-5.0950928,7.0467529-10.4787598,9.9219971-16.0999756
		c1.5216064-4.0996704,2.7513428-8.3018188,3.6800537-12.5750122c0.1329346-8.5620117-0.0109863-17.1459961-0.2210693-25.7000122
		C1336.9310303,445.7885132,1336.1140137,436.4945068,1335.3280029,427.1914978z"/>
	<path id="パス_3281" class="st1" d="M1227.0549316,403.7765198c-0.0682373-0.3081665-0.1646729-0.609436-0.2879639-0.9000244
		c-0.2340088-0.6299744-0.2879639-0.8099976-0.5760498-0.8099976c-0.2340088,0-0.9179688,0.1800232-0.9179688,0.4500122
		c-0.0013428,0.0755005,0.0172119,0.1500244,0.0539551,0.2160034c0.144043,0.3599854,0.2340088,0.6479797,0.3060303,0.8460083
		c0.2000732,0.5759888,0.2340088,0.6479797,0.5,0.6479797
		C1226.2269287,404.2265015,1227.0549316,404.1365051,1227.0549316,403.7765198z M1235.6229248,405.9544983
		c0.3599854,0,0.5,0.1440125,0.5,0.4860229v5.7419739c0,0.684021-0.0539551,1.3500061-0.0539551,2.0340271
		c0,0.539978,0.2340088,0.5759888,0.7559814,0.5759888c0.5939941,0,0.7559814-0.0360107,0.7559814-0.6119995
		c0-0.6660156-0.0360107-1.3320007-0.0360107-2v-5.7220154c0-0.3239746,0.1080322-0.5,0.4500732-0.5
		c0.3599854-0.0179749,0.9179688,0.0360107,1.223999,0.0360107c0.4000244,0,0.4139404-0.1799927,0.4139404-0.7000122
		c0-0.519989-0.0179443-0.7200012-0.4139404-0.7200012c-0.4500732,0-1.0620117,0.0360107-1.6380615,0.0360107h-2.8399658
		c-0.342041,0-0.4859619-0.1439819-0.4859619-0.4859924v-1.8359985c0-0.8099976,0.0539551-0.8280029,0.6660156-0.9179993
		c1.2406006-0.1730042,2.463501-0.4561157,3.6539307-0.8460083c0.0697021-0.0263977,0.1420898-0.0445251,0.2160645-0.0539856
		c0.0983887,0.0004272,0.1960449,0.0187378,0.2879639,0.0539856c0.0805664,0.0346069,0.1652832,0.0588074,0.2519531,0.071991
		c0.1101074,0.0088501,0.206543-0.0732422,0.215332-0.1833496c0.0004883-0.0055237,0.0007324-0.0110779,0.0007324-0.0166321
		c0-0.1260071-0.1259766-0.2700195-0.4000244-0.6300049c-0.4499512-0.5939941-0.5939941-0.6839905-0.7199707-0.6839905
		c-0.0638428,0.0010986-0.1260986,0.0197754-0.1800537,0.0539856c-1.3735352,0.5490112-2.8143311,0.9122314-4.2839355,1.0800171
		c-0.6660156,0.071991-1.1520996,0.071991-1.1520996,0.9179993v4.8999939
		c0.138916,2.5834045-0.6160889,5.1358337-2.1379395,7.2279968c-0.1181641,0.111084-0.1998291,0.2554626-0.2340088,0.4140015
		c0,0.2879944,0.8099365,0.6479797,1.0799561,0.6479797c0.5579834,0,1.6000977-2.3759766,1.8179932-2.8999939
		c0.6102295-1.5962219,0.9213867-3.2911072,0.9180908-5c0-0.34198,0.1619873-0.4679871,0.4859619-0.4679871
		L1235.6229248,405.9544983z M1228.5670166,399.8705139c0-0.2879944,0.0179443-0.4500122,0.2159424-0.5939941
		c0.144043-0.1080017,0.2340088-0.1440125,0.2340088-0.2700195c0-0.1619873-0.1999512-0.1799927-0.3239746-0.1999817
		c-0.2340088-0.0180054-1.1700439-0.1260071-1.3499756-0.1260071c-0.1621094,0-0.3060303,0.0539856-0.3060303,0.2340088
		c-0.0029297,0.0545959,0.0031738,0.1093445,0.0179443,0.1619873c0.0507812,0.3153992,0.0749512,0.634552,0.0720215,0.95401
		c-0.0360107,0.3599854-0.1619873,0.4859924-0.5,0.4859924h-0.5939941c-0.4859619,0-0.9899902-0.0360107-1.4399414-0.0360107
		c-0.4000244,0-0.3780518,0.2520142-0.3780518,0.6480103s-0.0180664,0.6480103,0.3780518,0.6480103
		c0.4499512,0,0.9539795-0.0360107,1.4399414-0.0360107h3.7800293c0.5,0,1.0079346,0.0360107,1.4580078,0.0360107
		c0.3779297,0,0.3779297-0.2520142,0.3779297-0.6480103c0-0.4140015,0-0.6480103-0.4000244-0.6480103
		c-0.4318848,0-0.9359131,0.0360107-1.4399414,0.0360107h-0.7559814c-0.3060303,0-0.4859619-0.1260071-0.4859619-0.4680176
		V399.8705139z M1229.2509766,402.2105103c-0.1707764,0.6369629-0.4122314,1.2527771-0.7199707,1.8359985
		c-0.0981445,0.303894-0.4057617,0.4884644-0.7200928,0.4320068h-1.7819824c-0.6660156,0-1.3139648-0.0540161-1.9619141-0.0540161
		c-0.4000244,0-0.4000244,0.1800232-0.4000244,0.6660156s0,0.6659851,0.4000244,0.6659851
		c0.6479492,0,1.2999268-0.0539856,1.9619141-0.0539856h3.6359863c0.6480713,0,1.3140869,0.0539856,1.9620361,0.0539856
		c0.4000244,0,0.4000244-0.1999817,0.4000244-0.6659851c0-0.4500122,0.0179443-0.6660156-0.4000244-0.6660156
		c-0.4000244,0-1.0439453,0.0360107-1.4940186,0.0540161c-0.1568604,0.0022278-0.2857666-0.1231079-0.2879639-0.2799377
		c0-0.0026855,0-0.0053711,0-0.0080566c0.1324463-0.4166565,0.2886963-0.8253174,0.4680176-1.223999
		c0.0437012-0.1159363,0.1472168-0.198761,0.2700195-0.2160034c0.0899658-0.0360107,0.2159424-0.0720215,0.2159424-0.1800232
		c0-0.2159729-1.1340332-0.5939941-1.3499756-0.5939941
		C1229.3049316,401.9765015,1229.2869873,402.1045227,1229.2509766,402.2105103z M1226.4969482,409.1045227
		c-0.6044922,1.1366882-1.3548584,2.1895752-2.2319336,3.1319885c-0.1080322,0.1080017-0.2160645,0.1999817-0.2160645,0.3420105
		c0,0.3059998,0.6480713,0.8639832,0.9000244,0.8639832c0.4139404,0,1.7640381-2.25,2-2.6820068
		c0.019165-0.0427246,0.0611572-0.0707092,0.1080322-0.071991c0.0899658,0,0.1079102,0.0899963,0.1259766,0.1440125v1.4219971
		c0,0.6659851-0.0540771,1.3500061-0.0540771,2.0159912c0,0.4859924,0.1621094,0.5,0.7200928,0.5s0.6999512-0.0360107,0.6999512-0.5
		c0-0.6659851-0.0360107-1.3500061-0.0360107-2.0159912v-1.7279968c0-0.0720215,0.0360107-0.1620178,0.1259766-0.1620178
		c0.0501709,0.0054932,0.0958252,0.0315857,0.1260986,0.071991c0.1799316,0.2700195,1.0079346,1.5480042,1.3139648,1.5480042
		c0.2879639,0,0.7739258-0.6299744,0.7739258-0.9179993c-0.0108643-0.10495-0.0709229-0.1985168-0.1619873-0.2519836
		c-0.5615234-0.5282288-1.0736084-1.1066284-1.5299072-1.7279968c-0.0465088-0.0483704-0.0723877-0.1129456-0.0720215-0.1800232
		c0-0.1619873,0.1619873-0.2159729,0.2879639-0.2339783c0.5939941,0,1.2060547,0.0359802,1.8000488,0.0359802
		c0.3599854,0,0.3779297-0.1999817,0.3779297-0.6659851c0-0.4500122,0-0.6660156-0.3779297-0.6660156
		c-0.5939941,0-1.1700439,0.0360107-1.7640381,0.0360107h-0.4680176c-0.2879639,0-0.4139404-0.0899963-0.4320068-0.3999939
		c0.0180664-0.2879944,0-0.4680176,0.2000732-0.6119995c0.1259766-0.0899963,0.1999512-0.1260071,0.1999512-0.2340088
		c0-0.1799927-0.2160645-0.1799927-0.342041-0.1999817c-0.237915-0.0120239-0.9899902-0.0620117-1.1899414-0.0620117
		c-0.144043,0-0.2879639,0.0360107-0.2879639,0.2160034c0,0.0539856,0.0179443,0.1260071,0.0179443,0.1799927
		c0.0360107,0.2340088,0.0539551,0.4679871,0.0720215,0.7200012c-0.0180664,0.2879944-0.144043,0.3999939-0.4500732,0.3999939
		h-0.5219727c-0.7919922,0-1.2779541-0.0359802-1.5999756-0.0359802c-0.5219727,0-0.5219727,0.1080017-0.5219727,0.6659851
		c0,0.4859924,0,0.6660156,0.3779297,0.6660156c0.5760498,0,1.1700439-0.0360107,1.7460938-0.0360107
		c0.1619873,0.0180054,0.3239746,0.071991,0.3239746,0.269989
		C1226.5314941,409.0035706,1226.5180664,409.0555115,1226.4969482,409.1045227z M1248.9969482,405.990509
		c0-0.2000122-1.1879883-0.6119995-1.3139648-0.6119995c-0.144043,0-0.1800537,0.1080017-0.2160645,0.2000122
		c-0.1542969,0.3975525-0.3800049,0.7635803-0.6660156,1.0799866c-0.5167236,0.5480957-1.1184082,1.0093384-1.7819824,1.3659973
		c-0.1439209,0.071991-0.3599854,0.1799927-0.3599854,0.3420105c0,0.2879944,0.5400391,0.7380066,0.8640137,0.7380066
		c1.2419434-0.5764465,2.2781982-1.5184631,2.9699707-2.7000122c0.0512695-0.1244507,0.1578369-0.2177124,0.2880859-0.2520142
		C1248.8709717,406.1345215,1248.9969482,406.0805054,1248.9969482,405.990509z M1248.006958,410.6705017
		c-0.0214844-0.2475891,0.1617432-0.4657593,0.4093018-0.4872742c0.0302734-0.0026245,0.0605469-0.0021973,0.0906982,0.0012817
		h2.3000488c0.239624-0.0287781,0.4571533,0.1421204,0.4859619,0.3817444c0.0041504,0.0346375,0.0041504,0.0696411,0,0.104248
		v0.7000122c0.0285645,0.2468872-0.1484375,0.4701538-0.3953857,0.4987183
		c-0.0300293,0.003479-0.0604248,0.0039062-0.0905762,0.0012817h-2.3000488c-0.2498779,0.0262146-0.4737549-0.1551208-0.5-0.4050293
		c-0.0032959-0.0315857-0.0032959-0.0634155,0-0.0949707V410.6705017z M1252.6870117,410.3285217v-0.6300049
		c0-0.5580139-0.3601074-0.6480103-0.8280029-0.6480103c-0.3601074,0-0.7380371,0.0180054-1.1000977,0.0180054h-2.1999512
		c-0.3780518,0-0.7559814-0.0180054-1.1340332-0.0180054c-0.4499512,0-0.8099365,0.1080017-0.8099365,0.6300049
		c0,0.2160034,0.0179443,0.4320068,0.0179443,0.6480103v3.0999756c0,0.3600159,0.2160645,0.3600159,0.6660156,0.3600159
		c0.6120605,0,0.6999512-0.0180054,0.6999512-0.3600159c0.0180664-0.4140015,0.3240967-0.4319763,0.6660156-0.4319763h2.0960693
		c0.3779297,0,0.737915,0.0179749,1.1159668,0.0179749c0.4859619,0,0.8100586-0.1080017,0.8100586-0.6659851V410.3285217z
		 M1252.2729492,402.1045227c-0.2169189,0.5118103-0.4633789,1.0106506-0.7380371,1.493988
		c-0.1236572,0.288147-0.4289551,0.4536743-0.737915,0.3999939h-2.7540283c-0.0720215,0-0.1619873-0.0360107-0.1619873-0.1260071
		s0.0899658-0.1259766,0.0899658-0.2519836c-0.1357422-0.4611816-0.3293457-0.9033508-0.5759277-1.3160095
		c-0.0540771-0.0899963-0.0900879-0.1799927-0.1260986-0.2340088c-0.0288086-0.0488281-0.0413818-0.1055298-0.0360107-0.1619873
		c0-0.1799927,0.1080322-0.2160034,0.2700195-0.2340088h4.4639893c0.1800537,0.0180054,0.342041,0.0720215,0.342041,0.2879944
		C1252.3052979,402.0115662,1252.2930908,402.0596313,1252.2729492,402.1045227z M1255.0629883,412.2745056
		c0,0.5400085,0.0360107,1.0079956-0.5,1.0079956c-0.4140625,0-0.8640137-0.0539856-1.2420654-0.0539856
		c-0.2519531,0-0.3059082,0.1619873-0.3059082,0.3779907c0,1.1159973,0.539917,1.0799866,1.0799561,1.0799866
		c1.723999-0.0019836,2.3859863-0.3079834,2.3859863-1.7479858c0-0.3779907-0.0360107-0.756012-0.0360107-1.1520081v-5.7420044
		c0-0.4319763,0.0180664-0.8639832,0.0180664-1.3139954c0-0.6659851-0.3240967-0.7559814-0.9180908-0.7559814
		c-0.4680176,0-0.9539795,0.0180054-1.4219971,0.0180054h-0.8099365c-0.1619873,0-0.3060303-0.0540161-0.3060303-0.2340088
		c-0.001709-0.0642395,0.0172119-0.1273499,0.0539551-0.1799927c0.2000732-0.3420105,0.3060303-0.5940247,0.4500732-0.8460083
		c0.0720215-0.1080017,0.1259766-0.1260071,0.2700195-0.1620178c0.1999512-0.0359802,0.3239746-0.071991,0.3239746-0.2159729
		c0-0.2000122-0.4500732-0.3420105-0.9360352-0.5400085c-0.0179443-0.0180054-0.0539551-0.0360107-0.0539551-0.071991
		c-0.00354-0.0362854,0.0230713-0.0685425,0.0593262-0.0720215c0.0042725-0.0003967,0.0084229-0.0003967,0.0126953,0h1.8939209
		c0.7000732,0,1.4000244,0.0360107,2.1060791,0.0360107c0.3779297,0,0.3999023-0.1619873,0.3999023-0.6660156
		c0-0.5039978-0.0179443-0.6659851-0.3999023-0.6659851c-0.7000732,0-1.4000244,0.0360107-2.1060791,0.0360107h-4.1760254
		c-0.3239746,0-0.4499512-0.1260071-0.4859619-0.4500122c0-0.4320068,0-0.6119995,0.2160645-0.756012
		c0.1439209-0.0899963,0.2340088-0.1259766,0.2340088-0.2339783c0-0.1620178-0.2340088-0.1800232-0.3601074-0.2000122
		c-0.2879639-0.0180054-1.0999756-0.1080017-1.3499756-0.1080017c-0.1619873,0-0.3060303,0.0360107-0.3060303,0.2340088
		c0,0.0360107,0.0180664,0.1080017,0.0180664,0.1439819c0.053833,0.3028564,0.0718994,0.6109619,0.0539551,0.9179993
		c-0.0360107,0.3240051-0.1439209,0.4500122-0.4859619,0.4500122h-4.1219482c-0.7000732,0-1.4000244-0.0360107-2.1060791-0.0360107
		c-0.3779297,0-0.4000244,0.1620178-0.4000244,0.6660156c0,0.4859924,0.0180664,0.6659851,0.4000244,0.6659851
		c0.7000732,0,1.4000244-0.0359802,2.1060791-0.0359802h1.5839844c0.0700684-0.0088501,0.1341553,0.0408325,0.1429443,0.1109924
		c0.0006104,0.0049744,0.0009766,0.0099792,0.0009766,0.0150146c0,0.0539856-0.0360107,0.0899963-0.0720215,0.1439819
		c-0.0782471,0.0464478-0.1312256,0.125885-0.1439209,0.2160034c0.0168457,0.1077881,0.0534668,0.2115173,0.1080322,0.3059998
		c0.1999512,0.3420105,0.4320068,0.756012,0.5939941,1.1000061c0.0205078,0.0517578,0.0325928,0.1064148,0.0360107,0.1619873
		c0,0.2000122-0.144043,0.2520142-0.3240967,0.2700195h-1.0999756c-0.4680176,0-0.9179688-0.0180054-1.3859863-0.0180054
		c-0.5939941,0-0.9179688,0.1080017-0.9179688,0.7739868c0,0.4500122,0.0179443,0.882019,0.0179443,1.3320007v5.9240112
		c0,0.7200012-0.0360107,1.4400024-0.0360107,2.1779785c0,0.4680176,0.1800537,0.5220032,0.7559814,0.5220032
		c0.6300049,0,0.7561035-0.071991,0.7561035-0.539978c0-0.7200012-0.0360107-1.4400024-0.0360107-2.1600037v-6.2660217
		c0-0.34198,0.1439209-0.5,0.5-0.5h4.9379883c0.3599854,0,0.5,0.1620178,0.5,0.5v1.4940186
		c0,1.026001,0.7739258,1.026001,1.7459717,1.026001h0.8499756c0.5,0,1.2420654,0.0359802,1.5999756-0.3780212
		c0.2811279-0.411377,0.4493408-0.8892822,0.4880371-1.3859863c0-0.4320068-0.6479492-0.5-0.9899902-0.5
		c-0.2159424,0-0.2519531,0.071991-0.3239746,0.3420105c-0.144043,0.6300049-0.1619873,0.7559814-0.7919922,0.7559814h-0.5579834
		c-0.4000244,0-0.6480713-0.0359802-0.6480713-0.5v-0.8459778c0-0.3600159,0.144043-0.4680176,0.486084-0.5h2.4659424
		c0.2409668-0.0351562,0.4648438,0.1317444,0.5,0.3727722c0.0061035,0.0421753,0.0061035,0.085022,0,0.1272278
		L1255.0629883,412.2745056z M1265.1069336,401.4364929c-0.0126953-0.2631226,0.1901855-0.4867554,0.4533691-0.4995117
		c0.0108643-0.0005493,0.0217285-0.0007019,0.0327148-0.0004883h4.2479248c0.2602539-0.0159302,0.4840088,0.1820679,0.5,0.4422607
		c0.0012207,0.0192261,0.0012207,0.0385132,0,0.0577393v2.4120178c0.005249,0.2633972-0.2039795,0.4811707-0.4672852,0.4864502
		c-0.0109863,0.0002136-0.0218506,0.000061-0.0327148-0.0004578h-4.2479248
		c-0.2446289,0.0238037-0.4622803-0.1552124-0.486084-0.3998108c-0.0028076-0.028656-0.0028076-0.0575256,0-0.0861816V401.4364929z
		 M1269.7509766,405.6304932c0.1619873-0.0179749,0.5-0.0179749,0.5759277,0.1800232
		c0.0900879,0.1999817,0.144043,0.2519836,0.7561035,0.2519836c0.539917,0,0.7559814-0.0359802,0.7559814-0.4679871
		c0-0.3999939-0.0180664-0.7740173-0.0180664-1.1700134v-3.1000061c0-0.3239746,0.0180664-0.6479797,0.0180664-0.9719849
		c0-0.6300049-0.3599854-0.7380066-1.0440674-0.7380066c-0.2700195,0-0.6119385,0.0180054-0.9899902,0.0180054h-4.1760254
		c-0.3779297,0-0.7199707-0.0180054-0.9899902-0.0180054c-0.68396,0-1.026001,0.1080017-1.026001,0.7380066
		c0,0.3240051,0.0180664,0.6480103,0.0180664,0.9719849v3.1000061c0,0.3999939-0.0180664,0.7920227-0.0180664,1.1880188
		c0,0.4319763,0.2160645,0.4499817,0.7561035,0.4499817c0.1439209,0,0.6298828,0,0.68396-0.1619873
		c0.0899658-0.2340088,0.1999512-0.2700195,0.6300049-0.2700195H1269.7509766z M1270.3449707,412.2904968
		c-0.276123,0-0.5-0.2238464-0.5-0.5v-2.6099854c0-0.3059998,0.1999512-0.4680176,0.5-0.5h2.5
		c0.263916-0.0046997,0.4816895,0.2054749,0.4864502,0.4694214c0.0001221,0.0101929,0,0.0203857-0.0004883,0.0305786v2.6099854
		c0.0179443,0.2578735-0.1766357,0.4813843-0.4344482,0.4992676c-0.0172119,0.0011902-0.0343018,0.0014343-0.0515137,0.0007324
		H1270.3449707z M1273.3149414,414.3244934c0,0.4000244,0.144043,0.4140015,0.7559814,0.4140015
		c0.5760498,0,0.7559814-0.0179749,0.7559814-0.4140015c0-0.4679871-0.0179443-0.9539795-0.0179443-1.4219971v-3.5979919
		c0-0.3779907,0.0179443-0.756012,0.0179443-1.1340027c0-0.6300049-0.1999512-0.8460083-0.8278809-0.8460083
		c-0.342041,0-0.684082,0.0180054-1.026001,0.0180054h-2.7720947c-0.3419189,0-0.68396-0.0180054-1.0439453-0.0180054
		c-0.6120605,0-0.8100586,0.2340088-0.8100586,0.8460083c0,0.3779907,0.0180664,0.756012,0.0180664,1.1340027v3.6000061
		c0,0.4679871-0.0180664,0.95401-0.0180664,1.4219971c0,0.3999939,0.1800537,0.4140015,0.7559814,0.4140015
		c0.5941162,0,0.7561035-0.0180054,0.7561035-0.4140015v-0.3439941c0-0.3059998,0.1259766-0.4140015,0.4139404-0.4140015h2.6280518
		c0.2879639,0,0.4139404,0.1080017,0.4139404,0.4140015V414.3244934z M1262.6049805,412.2904968
		c-0.2634277,0.0052795-0.4812012-0.203949-0.4864502-0.4673462c-0.0002441-0.0108643-0.0001221-0.021759,0.0004883-0.0326538
		v-2.6099854c-0.0128174-0.2631226,0.1901855-0.4867859,0.4532471-0.4995422
		c0.0108643-0.0005188,0.0218506-0.0006714,0.0327148-0.0004578h2.2999268
		c0.2695312,0.0010071,0.4871826,0.2203369,0.4862061,0.4898376c0,0.0033875-0.0001221,0.0067749-0.0001221,0.0101624v2.6099854
		c0.0065918,0.2694397-0.2064209,0.4932251-0.4758301,0.4998779c-0.003418,0.000061-0.0068359,0.0001221-0.0102539,0.0001221
		H1262.6049805z M1265.3809814,414.3605042c0,0.3779907,0.2340088,0.3779907,0.7380371,0.3779907
		c0.5579834,0,0.737915-0.0179749,0.737915-0.4140015c0-0.4859924-0.0360107-0.9539795-0.0360107-1.4219971v-3.5979919
		c0-0.3999939,0.0360107-0.7919922,0.0360107-1.1879883c0-0.5939941-0.2519531-0.7920227-0.8280029-0.7920227
		c-0.3419189,0-0.68396,0.0180054-1.026001,0.0180054h-2.5219727c-0.342041,0-0.6999512-0.0180054-1.0439453-0.0180054
		c-0.6120605,0-0.8100586,0.2340088-0.8100586,0.8460083c0,0.3780212,0.0180664,0.756012,0.0180664,1.1340027v3.6000061
		c0,0.4679871-0.0180664,0.95401-0.0180664,1.4219971c0,0.3999939,0.1619873,0.4140015,0.7559814,0.4140015
		s0.7559814-0.0180054,0.7559814-0.4140015v-0.3439941c0-0.3059998,0.1260986-0.4140015,0.4140625-0.4140015h2.4119873
		c0.2879639,0,0.4139404,0.1260071,0.4139404,0.4140015L1265.3809814,414.3605042z M1194.0429688,430.6045227
		c-0.5939941,0-1.1879883-0.0180054-1.7640381-0.0180054c-0.8099365,0-0.8459473,0.1999817-0.8459473,0.6999817
		c0,0.2880249,0.0179443,0.5940247,0.0179443,0.9000244v2.4179993c0,0.4319763-0.0360107,0.8639832-0.0360107,1.2999878
		c0,0.4140015,0.144043,0.4500122,0.7380371,0.4500122c0.7559814,0,0.8640137-0.0360107,0.8640137-0.4680176
		c0-0.269989-0.0180664-0.9179993-0.0180664-1.2999878v-2.0360107c0-0.2761536,0.223877-0.5,0.5-0.5h7.3260498
		c0.4499512,0,0.9179688-0.0539856,0.9179688,0.5c-0.1151123,1.0296326-0.381958,2.0365295-0.7919922,2.9880066
		c-0.6552734,1.5765991-1.7268066,2.9454346-3.0999756,3.9599915c-0.7227783,0.5631104-1.5007324,1.0516052-2.3220215,1.4580078
		c-0.2700195,0.1260071-0.4859619,0.1999817-0.4859619,0.3999939c0,0.269989,0.5939941,1.0620117,0.9360352,1.0620117
		c0.7521973-0.2877197,1.4562988-0.688324,2.0880127-1.1880188c3.2579346-2.2999878,4.6259766-4.7160034,5.3099365-8.6399841
		c0.1259766-0.756012,0.2879639-0.9360046,0.2879639-1.1000061c0-0.2700195-0.7199707-0.9360046-1.026001-0.9360046
		c-0.1207275,0.0030823-0.2409668,0.0151062-0.3599854,0.0360107c-0.1799316,0.0179749-0.4139404,0.0179749-0.6479492,0.0179749
		h-3.0419922c-0.2640381,0.0046997-0.4818115-0.2054443-0.4864502-0.4693909c-0.0002441-0.0102234,0-0.0204163,0.0003662-0.0306091
		v-1.4400024c0-0.4859924,0.0180664-0.6839905,0.1800537-0.8279724c0.0720215-0.0720215,0.1999512-0.1800232,0.1999512-0.2700195
		c0-0.1999817-0.4678955-0.2340088-0.6119385-0.2340088c-0.1800537-0.0359802-1.0440674-0.1079712-1.1879883-0.1079712
		c-0.1259766,0-0.2520752,0.0539856-0.2520752,0.1799927c0.0031738,0.0791016,0.0152588,0.1575928,0.0360107,0.2339783
		c0.060791,0.5558167,0.0848389,1.1150513,0.0720215,1.6740112v0.7880249c0.0045166,0.2716675-0.2121582,0.4955444-0.4838867,0.5
		c-0.0053711,0.000061-0.0107422,0.000061-0.0161133,0H1194.0429688z M1210.7650146,429.3804932
		c-0.7561035,0-1.4940186-0.0359802-2.25-0.0359802c-0.4500732,0-0.4500732,0.2160034-0.4500732,0.7559814
		c0,0.6660156,0,0.8280029,0.4680176,0.8280029c0.7380371,0,1.4759521-0.0359802,2.2139893-0.0359802h6.7340088
		c0.3599854,0,0.6479492,0.0359802,0.6479492,0.3999939c0,0.0899963-0.0358887,0.269989-0.0358887,0.3599854
		c-0.2244873,1.8011475-0.9830322,3.493866-2.1781006,4.8600159c-1.4888916,1.5542603-3.3557129,2.6954651-5.4179688,3.3120117
		c-0.1619873,0.0539856-0.3239746,0.0899963-0.3239746,0.2879944c0,0.2879944,0.5219727,1.1340027,0.8640137,1.1340027
		c0.2003174-0.0178528,0.3956299-0.0727844,0.5759277-0.1620178c1.1831055-0.4562683,2.3065186-1.0539551,3.3460693-1.7799988
		c2.7028809-1.7876587,4.475708-4.6801758,4.8419189-7.8999939c0.1260986-0.7919922,0.2700195-0.9179993,0.2700195-1.1159973
		c0-0.1620178-0.6300049-0.95401-1.026001-0.95401c-0.1027832,0.0031128-0.2052002,0.0151367-0.3059082,0.0360107
		c-0.2000732,0.0180054-0.4500732,0.0180054-0.7200928,0.0180054L1210.7650146,429.3804932z M1227.3249512,429.3804932
		c-0.7559814,0-1.4940186-0.0359802-2.25-0.0359802c-0.4499512,0-0.4499512,0.2160034-0.4499512,0.7559814
		c0,0.6660156,0,0.8280029,0.4680176,0.8280029c0.737915,0,1.4759521-0.0359802,2.2139893-0.0359802h6.7319336
		c0.3599854,0,0.6480713,0.0359802,0.6480713,0.3999939c0,0.0899963-0.0360107,0.269989-0.0360107,0.3599854
		c-0.2244873,1.8011475-0.9830322,3.493866-2.1781006,4.8600159c-1.4888916,1.5542603-3.3557129,2.6954651-5.4179688,3.3120117
		c-0.1619873,0.0539856-0.3239746,0.0899963-0.3239746,0.2879944c0,0.2879944,0.5219727,1.1340027,0.8640137,1.1340027
		c0.2003174-0.0178528,0.395752-0.0727844,0.5760498-0.1620178c1.1835938-0.4561157,2.3078613-1.0538025,3.3479004-1.7799988
		c2.7030029-1.7876587,4.4758301-4.6801758,4.842041-7.8999939c0.1259766-0.7919922,0.2700195-0.9179993,0.2700195-1.1159973
		c0-0.1620178-0.6300049-0.95401-1.026001-0.95401c-0.1029053,0.0031128-0.2052002,0.0151367-0.3060303,0.0360107
		c-0.1999512,0.0180054-0.4499512,0.0180054-0.7199707,0.0180054L1227.3249512,429.3804932z M1242.3009033,433.6105042
		c-0.737915,0-1.565918-0.0539856-2.2319336-0.0539856c-0.4320068,0-0.4320068,0.3059998-0.4320068,0.8280029
		c0,0.4499817,0.0179443,0.7379761,0.4499512,0.7379761c0.684082,0,1.4580078-0.0359802,2.2139893-0.0359802h4.0140381
		c0.1634521-0.003418,0.2995605,0.1246643,0.3060303,0.2879944c-0.0092773,0.0974426-0.0273438,0.1938171-0.0539551,0.2879944
		c-0.3218994,1.0621033-0.8544922,2.0484009-1.56604,2.8999939c-0.8032227,0.9076843-1.7922363,1.6320496-2.9000244,2.1240234
		c-0.1619873,0.071991-0.4000244,0.1619873-0.4000244,0.34198c0,0.2700195,0.8280029,1.026001,1.1160889,1.026001
		c0.7806396-0.3394165,1.5092773-0.7878723,2.1639404-1.3320007c1.5806885-1.2518616,2.7011719-2.9928284,3.1860352-4.9499817
		c0.1079102-0.3780212,0.2159424-0.684021,0.6660156-0.684021h2.9699707c0.7380371,0,1.4940186,0.0360107,2.25,0.0360107
		c0.4139404,0,0.4499512-0.2520142,0.4499512-0.7380066c0-0.6300049-0.0360107-0.8280029-0.4499512-0.8280029
		c-0.68396,0-1.4940186,0.0540161-2.25,0.0540161h-2.8060303c-0.3060303,0-0.4000244-0.2160034-0.4000244-0.4680176
		c0-0.2879944,0.0360107-0.7559814,0.0360107-1.1159973c0-0.4320068-0.0539551-1.1159973-0.0539551-1.2999878
		c0-0.2879944,0.1999512-0.4140015,0.4320068-0.4680176c0.7302246-0.165802,1.4512939-0.3700867,2.1600342-0.6119995
		c0.2260742-0.085022,0.4608154-0.1453552,0.6999512-0.1799927c0.0539551,0,0.1080322,0.0180054,0.1619873,0.0180054
		c0.0651855,0.0192871,0.1322021,0.0313416,0.1999512,0.0360107c0.1092529,0.0092468,0.2054443-0.0709839,0.2160645-0.1800232
		c0-0.1999817-0.4000244-0.6119995-0.6660156-0.8819885l-0.144043-0.1440125
		c-0.1079102-0.1080017-0.3419189-0.3779907-0.5-0.3779907c-0.1158447,0.0100708-0.2243652,0.0611267-0.3059082,0.1440125
		c-1.081543,0.4946594-2.2254639,0.8398132-3.4000244,1.026001c-1.5518799,0.272583-3.1243896,0.4111023-4.7000732,0.4140015
		c-0.1999512,0-0.4678955-0.0180054-0.5759277-0.0180054c-0.1800537,0-0.3780518,0.0359802-0.3780518,0.269989
		c0.0411377,0.3091736,0.1387939,0.6081543,0.2880859,0.8819885c0.1439209,0.2880249,0.2338867,0.3600159,0.5579834,0.3600159
		c1.4580078,0,3.9779053-0.3240051,4.0319824-0.3240051c0.4000244,0,0.4320068,0.3240051,0.4320068,1.4580078
		c0,0.7739868,0.0179443,1.4580078-0.5579834,1.4580078L1242.3009033,433.6105042z M1262.0809326,432.5505066
		c-0.6999512,0-1.3320312-0.0360107-1.6920166-0.0360107c-0.4139404,0-0.3999023,0.3059998-0.3999023,0.6660156
		c0,0.4320068,0,0.7200012,0.3999023,0.7200012c0.3780518,0,1.0800781-0.0360107,1.710083-0.0360107h2.7539062
		c0.2272949-0.0110474,0.4205322,0.1642456,0.4315186,0.39151c0.0003662,0.0075073,0.0006104,0.0149841,0.0004883,0.0224915
		c0,0.0540161-0.0360107,0.3059998-0.0360107,0.3779907l-0.3999023,3.5100098
		c-0.0289307,0.2548828-0.2435303,0.4480896-0.5,0.4500122h-4.4799805c-0.5760498,0-1.2600098-0.0360107-1.6920166-0.0360107
		s-0.4320068,0.3240051-0.4320068,0.7380066c0,0.3420105,0,0.6480103,0.4320068,0.6480103
		c0.4499512,0,1.1699219-0.0360107,1.6920166-0.0360107h7.4119873c0.5759277,0,1.1339111,0.0180054,1.7099609,0.0180054
		c0.4499512,0,0.4499512-0.2700195,0.4499512-0.6480103c0-0.4679871,0-0.7200012-0.4320068-0.7200012
		c-0.5759277,0-1.1519775,0.0360107-1.7279053,0.0360107h-0.6480713c-0.2275391,0.0032043-0.4145508-0.1786194-0.4177246-0.4061279
		c-0.0003662-0.0206909,0.0009766-0.0413818,0.0037842-0.0618896l0.4139404-3.5639954
		c0.0180664-0.1619873,0.1800537-1.2599792,0.1800537-1.2779846c-0.0723877-0.4595947-0.4708252-0.7966919-0.9360352-0.7919922
		c-0.2159424,0-0.8280029,0.0359802-1.3139648,0.0359802H1262.0809326z M1276.0509033,433.6845093
		c-0.7739258,0-1.8898926-0.0540161-2.1779785-0.0540161c-0.4320068,0-0.4859619,0.1260071-0.4859619,0.882019
		c0,0.4140015,0,0.7739868,0.4499512,0.7739868c0.7380371,0,1.4760742-0.0539856,2.2139893-0.0539856h8.262085
		c0.737915,0,1.4759521,0.0539856,2.2139893,0.0539856c0.4320068,0,0.4320068-0.3599854,0.4320068-0.7739868
		c0-0.756012-0.0360107-0.882019-0.4859619-0.882019c-0.2880859,0-1.4000244,0.0540161-2.1600342,0.0540161H1276.0509033z
		 M1292.2509766,429.5444946c-0.7559814,0-1.4940186-0.0539856-2.25-0.0539856
		c-0.4500732,0-0.4500732,0.2160034-0.4500732,0.7739868c0,0.6480103,0,0.8280029,0.4680176,0.8280029
		c0.7380371,0,1.4760742-0.0539856,2.2139893-0.0539856h6.4620361c0.4680176,0,0.9179688-0.0540161,0.9179688,0.3999939
		c-0.0020752,0.1207886-0.0141602,0.2411804-0.0360107,0.3599854c-0.2128906,1.8043518-0.9729004,3.5003052-2.1779785,4.8600159
		c-1.4893799,1.5527954-3.3562012,2.6925964-5.4179688,3.3080139c-0.1619873,0.0539856-0.3239746,0.0899963-0.3239746,0.2879944
		c0,0.2879944,0.5219727,1.1519775,0.8640137,1.1519775c0.1987305-0.0263367,0.3925781-0.0809021,0.5759277-0.1619873
		c1.182251-0.460144,2.3060303-1.0582886,3.3480225-1.7820129c2.6821289-1.7615051,4.4429932-4.6236877,4.8060303-7.8119812
		c0.1259766-0.7740173,0.2700195-0.882019,0.2700195-1.0620117s-0.7399902-1.0839844-1.1879883-1.0839844
		c-0.0360107,0-0.8820801,0.0359802-1.5480957,0.0359802L1292.2509766,429.5444946z M1302.5809326,427.114502
		c0.5368652,0,0.9720459,0.4351807,0.9720459,0.9720154c0,0.5368042-0.4351807,0.9719849-0.9720459,0.9719849
		c-0.5367432,0-0.9719238-0.4351807-0.9719238-0.9719849c-0.0023193-0.5346069,0.4293213-0.9697876,0.9639893-0.9720154
		C1302.5755615,427.114502,1302.5782471,427.114502,1302.5809326,427.114502z M1302.5809326,426.3405151
		c-0.9642334,0-1.7459717,0.7817078-1.7459717,1.7460022c0,0.9642639,0.7817383,1.7460022,1.7459717,1.7460022
		c0.9643555,0,1.7459717-0.7817078,1.7459717-1.7460022l0,0
		C1304.3198242,427.1251526,1303.5423584,426.3475952,1302.5809326,426.3405151z M1308.5389404,437.8405151
		c0.4000244,0,0.4500732-0.0899963,0.4500732-0.4680176l0.0899658-4.5359802
		c0.0179443-0.6480103,0.0360107-1.7279968,0.0539551-2.447998c0.0180664-0.5940247,0.0360107-1.0080261,0.0360107-1.1520081
		c0-0.3240051-0.1080322-0.3999939-0.5219727-0.3999939h-0.6300049c-0.4140625,0-0.5219727,0.071991-0.5219727,0.3999939
		c0,0.1619873,0.0179443,0.5759888,0.0360107,1.1699829c0.0179443,0.7200012,0.0360107,1.8000183,0.0539551,2.3580017
		l0.0959473,4.6100159c0,0.3779907,0.0540771,0.4679871,0.4500732,0.4679871L1308.5389404,437.8405151z M1308.3809814,439.318512
		c-0.5917969-0.0171204-1.0854492,0.4487305-1.1025391,1.0405273c-0.0010986,0.0371704-0.0002441,0.0743713,0.0025635,0.1114807
		c-0.0085449,0.5196228,0.4057617,0.9477539,0.925415,0.9562683c0.0275879,0.0004578,0.0550537-0.0003052,0.0825195-0.0022888
		c0.5917969,0.0159912,1.0845947-0.4508362,1.1005859-1.0426941c0.0006104-0.0244141,0.0004883-0.0488586-0.0006104-0.0733032
		c0.0114746-0.5355835-0.4133301-0.9790649-0.9489746-0.9905396
		C1308.4202881,439.3175659,1308.4006348,439.317749,1308.3809814,439.318512z M1199.4249268,460.2805176
		c0-0.1800232,0.0360107-0.2700195,0.1080322-0.2700195c0.0539551,0,0.1259766,0.0540161,0.2159424,0.1620178l3.762085,4.9499817
		c0.0760498,0.1257019,0.2130127,0.2017822,0.3599854,0.2000122c0.1488037,0.0097656,0.2896729-0.0684509,0.3599854-0.2000122
		l3.8000488-4.9319763c0.0899658-0.1080017,0.1619873-0.1800232,0.2340088-0.1800232
		c0.0718994,0,0.1079102,0.1080017,0.1079102,0.2879944l0.0900879,5.1660156c0.0360107,1.0440063,0,2.8079834,0,3.2940063
		c0,0.4679871,0.0899658,0.5579834,0.5579834,0.5579834h0.5579834c0.4139404,0,0.5219727-0.071991,0.5219727-0.3999939
		c0-0.3600159-0.0899658-2.2999878-0.1080322-3.5280151l-0.0718994-5.1839905c-0.0180664-0.8999939,0-2.2860107,0-2.8079834
		c0-0.4680176-0.0900879-0.5580139-0.5581055-0.5580139h-0.2519531c-0.3596191-0.0515747-0.7127686,0.1286011-0.881958,0.4500122
		c-0.4500732,0.6479797-0.9180908,1.2599792-1.3859863,1.8899841l-2.6101074,3.473999
		c-0.1259766,0.1799927-0.2338867,0.2700195-0.3239746,0.2700195c-0.0899658,0-0.1799316-0.0900269-0.3239746-0.2700195
		l-2.6459961-3.5099792c-0.4680176-0.5940247-0.9360352-1.223999-1.3859863-1.8540039
		c-0.1663818-0.3243713-0.5217285-0.5057068-0.8820801-0.4500122h-0.2338867c-0.4320068,0-0.5400391,0.071991-0.5400391,0.4500122
		c0,0.6839905,0.0179443,1.9620056-0.0180664,2.9159851l-0.0899658,5.2000122
		c-0.0179443,1.2059937-0.1080322,3.1499939-0.1080322,3.5099792c0,0.3240051,0.1080322,0.4000244,0.5220947,0.4000244h0.5759277
		c0.4680176,0,0.5579834-0.0899963,0.5579834-0.5580139c0-0.6659851-0.0179443-2.321991,0-3.3119812L1199.4249268,460.2805176z
		 M1218.7929688,469.3164978c0.4139404,0,0.5219727-0.071991,0.5219727-0.3999939
		c0-0.4859924-0.0539551-1.6199951-0.0360107-2.5559998l0.0360107-2.519989
		c0.0360107-2.0339966-0.6660156-3.5280151-3.1500244-3.5280151c-1.0578613,0.0199585-2.0977783,0.2783813-3.0419922,0.756012
		c-0.2700195,0.1260071-0.3779297,0.2160034-0.3779297,0.3779907c0.0117188,0.1259766,0.0484619,0.2483521,0.1079102,0.3600159
		l0.1621094,0.3999939c0.1079102,0.2519836,0.1999512,0.3599854,0.3239746,0.3599854
		c0.1324463-0.0201416,0.256958-0.0761719,0.3599854-0.1619873c0.696167-0.4194946,1.4876709-0.6548767,2.2999268-0.6839905
		c0.5740967-0.0415955,1.1322021,0.2004395,1.4940186,0.6479797c0.1966553,0.3140564,0.3083496,0.6737976,0.3240967,1.0440063
		c0,0.2340088-0.1260986,0.2879944-0.4680176,0.3240051c-2.2139893,0.1999817-5.0760498,1.1159973-5.0760498,3.3999939
		c0,1.5299988,1.0999756,2.2860107,2.5739746,2.2860107c0.9494629-0.0120544,1.875-0.2997131,2.6640625-0.8280029
		c0.1439209-0.0899963,0.1999512-0.1260071,0.2700195-0.1260071c0.0899658,0,0.1259766,0.1080017,0.1259766,0.3600159
		c0,0.4140015,0.0899658,0.4859924,0.5,0.4859924L1218.7929688,469.3164978z M1217.8209229,465.5045166l-0.0179443,1.1159973
		c0.0406494,0.3293152-0.1331787,0.6478882-0.4320068,0.7919922c-0.657959,0.4249878-1.4174805,0.6666565-2.2000732,0.7000122
		c-0.8099365,0-1.3499756-0.3999939-1.3499756-1.0620117c0-0.9179993,1.1700439-1.5119934,2.6099854-1.8540039
		c0.3469238-0.096344,0.7027588-0.1566772,1.0620117-0.1799927
		C1217.7669678,465.0144958,1217.8209229,465.1405029,1217.8209229,465.5045166z M1224.6209717,465.1045227
		c0.144043-0.1440125,0.2519531-0.2160034,0.342041-0.2160034c0.1079102,0,0.1999512,0.0899963,0.3239746,0.3059998
		l1.0439453,1.7099915c0.4000244,0.6480103,0.7380371,1.223999,1.1340332,1.9259949
		c0.1174316,0.3447876,0.4697266,0.5515442,0.8280029,0.4859924h0.7559814c0.2700195,0,0.4000244-0.0359802,0.4000244-0.1439819
		c-0.0219727-0.1177979-0.0712891-0.2287903-0.144043-0.3240051c-0.5759277-0.882019-1.0999756-1.7099915-1.5119629-2.3940125
		l-1.4219971-2.321991c-0.0925293-0.1214905-0.1541748-0.2635193-0.1800537-0.4140015
		c0-0.1440125,0.0900879-0.2520142,0.2700195-0.4320068l0.5579834-0.5579834
		c0.6120605-0.6119995,1.2600098-1.223999,1.9620361-1.8720093c0.1259766-0.1080017,0.1800537-0.2000122,0.1800537-0.269989
		c0-0.1080017-0.144043-0.1620178-0.3780518-0.1620178h-0.881958c-0.3651123-0.0492859-0.7269287,0.1107483-0.9360352,0.4140015
		c-0.4499512,0.5-0.881958,0.95401-1.368042,1.4400024l-1.6920166,1.7099915
		c-0.1079102,0.1080017-0.1799316,0.1440125-0.2338867,0.1440125c-0.0900879,0-0.144043-0.1080017-0.144043-0.3059998v-4.7000122
		c0-0.8280029,0.0360107-2.1239929,0.0360107-2.3580017c0-0.3779907-0.1080322-0.4499817-0.5400391-0.4499817h-0.5
		c-0.4320068,0-0.5400391,0.071991-0.5400391,0.4499817c0,0.2340088,0.0360107,1.5299988,0.0360107,2.3580017v7.4000244
		c0,0.8099976-0.0360107,2.1059875-0.0360107,2.3399963c0,0.3779907,0.1080322,0.4499817,0.5400391,0.4499817h0.5
		c0.4320068,0,0.5400391-0.071991,0.5400391-0.4499817c0-0.2340088-0.0360107-1.4940186-0.0360107-2.0700073
		c0-0.4859924,0.0539551-0.6480103,0.2340088-0.8280029L1224.6209717,465.1045227z M1237.8690186,469.3164978
		c0.4318848,0,0.539917-0.071991,0.539917-0.4499817c0-0.2340088-0.0360107-1.5299988-0.0360107-2.3399963v-3.3120117
		c0-0.8099976,0.0360107-2.1059875,0.0360107-2.3399963c0-0.3779907-0.1080322-0.4500122-0.539917-0.4500122h-0.5
		c-0.4320068,0-0.5400391,0.0720215-0.5400391,0.4500122c0,0.2340088,0.0360107,1.5299988,0.0360107,2.3399963v3.276001
		c0.0338135,0.3294067-0.1208496,0.6497803-0.4000244,0.8280029c-0.553833,0.4399414-1.2368164,0.6858826-1.9439697,0.7000122
		c-0.9916992,0.0697632-1.8521729-0.6775513-1.9219971-1.66922c-0.0089111-0.1277161-0.0042725-0.2560425,0.013916-0.382782
		v-2.7520142c0-0.8099976,0.0360107-2.1059875,0.0360107-2.3399963c0-0.3779907-0.1079102-0.4500122-0.539917-0.4500122h-0.5220947
		c-0.4320068,0-0.539917,0.0720215-0.539917,0.4500122c0,0.2340088,0.0360107,1.5299988,0.0360107,2.3399963v3.1319885
		c-0.1381836,1.5574341,1.0124512,2.9319153,2.5698242,3.0700378c0.1270752,0.011261,0.2547607,0.013916,0.3820801,0.0079651
		c0.90625-0.0041504,1.7879639-0.2938843,2.5200195-0.8280029c0.0767822-0.065979,0.170166-0.1095886,0.2700195-0.1259766
		c0.0899658,0,0.1259766,0.0899963,0.1259766,0.3240051c0,0.4499817,0.1080322,0.5219727,0.5400391,0.5219727H1237.8690186z
		 M1247.0849609,469.3164978c0.4139404,0,0.5219727-0.071991,0.5219727-0.3999939
		c0-0.4859924-0.0539551-1.6199951-0.0360107-2.5559998l0.0360107-2.519989
		c0.0360107-2.0339966-0.6660156-3.5280151-3.1500244-3.5280151c-1.0578613,0.0199585-2.0977783,0.2783813-3.0419922,0.756012
		c-0.2698975,0.1260071-0.3779297,0.2160034-0.3779297,0.3779907c0.0117188,0.1259766,0.0484619,0.2483521,0.1080322,0.3600159
		l0.1619873,0.3999939c0.1079102,0.2519836,0.1999512,0.3599854,0.3239746,0.3599854
		c0.1324463-0.0201416,0.256958-0.0761719,0.3599854-0.1619873c0.696167-0.4194946,1.4876709-0.6548767,2.3000488-0.6839905
		c0.5739746-0.0415955,1.1320801,0.2004395,1.4938965,0.6479797c0.1966553,0.3140564,0.3083496,0.6737976,0.3240967,1.0440063
		c0,0.2340088-0.1260986,0.2879944-0.4680176,0.3240051c-2.2139893,0.1999817-5.0760498,1.1159973-5.0760498,3.3999939
		c0,1.5299988,1.0999756,2.2860107,2.5739746,2.2860107c0.9494629-0.0120544,1.875-0.2997131,2.6640625-0.8280029
		c0.1439209-0.0899963,0.1999512-0.1260071,0.2700195-0.1260071c0.0899658,0,0.1259766,0.1080017,0.1259766,0.3600159
		c0,0.4140015,0.0899658,0.4859924,0.5,0.4859924L1247.0849609,469.3164978z M1246.1169434,465.5045166l-0.0179443,1.1159973
		c0.0406494,0.3293152-0.1331787,0.6478882-0.4320068,0.7919922c-0.657959,0.4249878-1.4174805,0.6666565-2.2000732,0.7000122
		c-0.8099365,0-1.3499756-0.3999939-1.3499756-1.0620117c0-0.9179993,1.1700439-1.5119934,2.6099854-1.8540039
		c0.3469238-0.096344,0.7027588-0.1566772,1.0620117-0.1799927
		C1246.0629883,465.0144958,1246.1169434,465.1405029,1246.1169434,465.5045166z M1252.9169922,465.1045227
		c0.1439209-0.1440125,0.2519531-0.2160034,0.3419189-0.2160034c0.1080322,0,0.2000732,0.0899963,0.3240967,0.3059998
		l1.0479736,1.7099915c0.4000244,0.6480103,0.7380371,1.223999,1.1340332,1.9259949
		c0.1174316,0.3447876,0.4696045,0.5515442,0.8280029,0.4859924h0.7559814c0.2700195,0,0.3999023-0.0359802,0.3999023-0.1439819
		c-0.0218506-0.1177979-0.071167-0.2287903-0.1439209-0.3240051c-0.5760498-0.882019-1.0999756-1.7099915-1.5119629-2.3940125
		l-1.4260254-2.321991c-0.0925293-0.1214905-0.1542969-0.2635193-0.1800537-0.4140015
		c0-0.1440125,0.0899658-0.2519836,0.2700195-0.4320068l0.5579834-0.5579834
		c0.6120605-0.6119995,1.2600098-1.223999,1.9620361-1.8720093c0.1259766-0.1080017,0.1799316-0.2000122,0.1799316-0.269989
		c0-0.1080017-0.1439209-0.1620178-0.3779297-0.1620178h-0.881958c-0.3651123-0.0492859-0.7269287,0.1107483-0.9360352,0.4140015
		c-0.4500732,0.5-0.8820801,0.95401-1.368042,1.4400024l-1.6920166,1.7099915
		c-0.1079102,0.1080017-0.1799316,0.1440125-0.2340088,0.1440125c-0.0899658,0-0.1439209-0.1080017-0.1439209-0.3059998v-4.7000122
		c0-0.8279724,0.0360107-2.1239929,0.0360107-2.3580017c0-0.3779907-0.1080322-0.4499817-0.5400391-0.4499817h-0.5
		c-0.4320068,0-0.5400391,0.071991-0.5400391,0.4499817c0,0.2340088,0.0360107,1.5299988,0.0360107,2.3580017v7.4000244
		c0,0.8099976-0.0360107,2.1059875-0.0360107,2.3399963c0,0.3779907,0.1080322,0.4499817,0.5400391,0.4499817h0.5
		c0.4320068,0,0.5400391-0.071991,0.5400391-0.4499817c0-0.2340088-0.0360107-1.4940186-0.0360107-2.0700073
		c0-0.4859924,0.0539551-0.6480103,0.2340088-0.8280029L1252.9169922,465.1045227z M1265.6809082,467.8225098
		c-0.1259766-0.269989-0.2159424-0.3779907-0.3419189-0.3779907c-0.142334,0.0177612-0.2790527,0.0669556-0.4000244,0.1439819
		c-0.592041,0.3183594-1.2537842,0.485321-1.9260254,0.4860229c-1.4698486,0.1306152-2.767334-0.9550781-2.8980713-2.4249878
		c-0.0006104-0.0076599-0.0013428-0.0153503-0.0019531-0.0230103c0-0.2520142,0.1260986-0.3240051,0.4680176-0.3240051h5.2000732
		c0.4139404,0,0.539917-0.1260071,0.539917-0.7920227c0-2.5559998-1.2059326-4.1940002-3.4199219-4.1940002
		c-2.6280518,0-4.3200684,2.052002-4.3200684,4.7160034c0,2.3399963,1.3000488,4.3919983,4.2480469,4.3919983
		c0.9346924,0.0025024,1.8577881-0.2067261,2.6999512-0.6119995c0.2520752-0.1259766,0.3599854-0.2339783,0.3599854-0.3999939
		c-0.0117188-0.1259766-0.0484619-0.2483521-0.1079102-0.3599854L1265.6809082,467.8225098z M1264.3309326,463.9884949h-3.6159668
		c-0.2879639,0-0.4140625-0.0539856-0.4140625-0.2159729c0.0511475-0.2950134,0.161377-0.5766602,0.3240967-0.8280029
		c0.4769287-0.7811584,1.3349609-1.2479248,2.25-1.223999c0.7443848-0.0287781,1.4274902,0.4106445,1.7099609,1.0999756
		c0.1242676,0.2660217,0.1976318,0.5529785,0.2159424,0.8460083c0,0.25-0.1259766,0.321991-0.4678955,0.321991H1264.3309326z
		 M1275.1149902,465.5045166c-0.3060303,0-0.7919922,1.026001-0.7919922,1.2420044s1.1519775,1.7579956,4.0859375,1.7579956
		c1.4122314-0.02948,2.817627-0.2044067,4.1939697-0.5220032c0.1800537-0.1080017,0.1800537-0.5220032,0.1800537-0.7200012
		c0-0.6839905-0.0360107-0.95401-0.2700195-0.95401c-0.1225586,0.0083008-0.2436523,0.0325012-0.3599854,0.0720215
		c-1.2786865,0.3842163-2.6068115,0.5783081-3.9420166,0.5759888c-1.1104736,0.0956726-2.1918945-0.3872681-2.8619385-1.2780151
		C1275.2949219,465.6045227,1275.2229004,465.5045166,1275.1149902,465.5045166z M1275.6549072,457.6565247
		c-0.2879639,0-0.3239746,0.3599854-0.3239746,0.8819885c0,0.2000122-0.0179443,0.5,0.1800537,0.6119995
		c0.9954834,0.2434387,2.0170898,0.3643188,3.0419922,0.3599854c1.0498047-0.0067139,2.0968018-0.1091309,3.1279297-0.3059998
		c0.1621094-0.071991,0.1621094-0.2339783,0.1621094-0.539978c0-0.2520142,0.0179443-1.0440063-0.342041-1.0440063
		c-0.1092529,0.0092163-0.2176514,0.0272827-0.3239746,0.0539856c-0.9013672,0.222168-1.8258057,0.3369751-2.7540283,0.3420105
		c-0.7996826,0.0001526-1.5968018-0.0904236-2.3759766-0.269989c-0.1260986-0.0480347-0.2579346-0.0796204-0.3920898-0.0940247
		V457.6565247z M1272.8109131,456.792511c-0.4464111-0.2032471-0.9030762-0.3834839-1.3679199-0.5400085
		c-0.1619873,0-0.2160645,0.2000122-0.2340088,0.3420105c-0.05896,0.2869568-0.137085,0.5695801-0.2340088,0.8460083
		c-0.6026611,1.9174805-0.9240723,3.9122314-0.9539795,5.9219971c-0.0601807,1.8649292,0.3093262,3.718689,1.0799561,5.4179993
		c0.144043,0.3059998,0.4000244,0.8819885,0.6999512,0.8819885c0.2880859,0,1.1520996-0.3999939,1.1520996-0.7380066
		c0.0023193-0.0783997-0.0037842-0.1568604-0.0180664-0.2339783c-0.0179443-0.1440125-0.0539551-0.4680176-0.0539551-0.6119995
		c0.1580811-0.8927307,0.3868408-1.7714844,0.68396-2.6280212c0-0.1619873-0.3599854-0.4140015-0.5-0.4140015
		s-0.2519531,0.1620178-0.4139404,0.5c-0.0360107,0.0900269-0.0900879,0.1800232-0.1259766,0.2700195
		c-0.1621094,0.3779907-0.2700195,0.5939941-0.4140625,0.5939941c-0.4680176,0-0.5939941-2.6099854-0.5939941-3.0239868
		c-0.0057373-1.7807312,0.3303223-3.54599,0.9899902-5.2000122c0.1800537-0.4500122,0.2519531-0.6300049,0.5400391-0.7739868
		c0.1619873-0.0899963,0.2519531-0.1260071,0.2519531-0.2340088c0-0.1440125-0.144043-0.2160034-0.2519531-0.269989
		c-0.0380859-0.0200195-0.1280518-0.0560303-0.236084-0.1100159V456.792511z M1287.8409424,458.0345154
		c-0.5939941,0.0180054-0.7380371,0.0360107-0.7380371,0.3779907c0,0.1260071,0.1260986,1.5119934,0.5,1.5119934
		c0.0926514-0.0004883,0.1843262-0.0188293,0.2700195-0.0539856c0.9180908-0.2340088,1.8720703-0.3779907,2.8079834-0.5220032
		c0.4000244-0.071991,2.5740967-0.3599854,2.8260498-0.3599854c0.1080322,0,0.2340088,0.0359802,0.2340088,0.1619873
		c0,0.071991-0.0539551,0.1440125-0.342041,0.4140015c-1.4213867,1.5074158-2.2299805,3.490448-2.2679443,5.5620117
		c0,3.3299866,2.5739746,4.3559875,5.4719238,4.3559875c0.2700195,0,0.4000244-0.0360107,0.486084-0.269989
		c0.1473389-0.3736267,0.2324219-0.7688599,0.2519531-1.1700134c0-0.2519836-0.1999512-0.2519836-0.4139404-0.2519836
		c-0.2000732,0-0.4680176,0.0179749-0.7000732,0.0179749c-0.6975098,0.0350037-1.3950195-0.0690002-2.052002-0.3059998
		c-0.9377441-0.4671326-1.4997559-1.4551697-1.4219971-2.5c0.0222168-1.2219543,0.3569336-2.4179077,0.9720459-3.473999
		c0.6688232-1.287323,1.8120117-2.2641602,3.1879883-2.723999c0.9962158-0.2723083,2.02771-0.3936768,3.0599365-0.3599854
		c0.4500732,0,0.7200928,0,0.7200928-0.4000244c-0.0181885-0.3257141-0.0543213-0.6502075-0.1080322-0.9719849
		c-0.0360107-0.1799927-0.0899658-0.3779907-0.3060303-0.3779907c-0.085083,0.0018311-0.1696777,0.013916-0.2519531,0.0359802
		c-1.2420654,0.2160034-2.8260498,0.4000244-4.0999756,0.5400085c-2.5560303,0.3059998-5.1120605,0.5759888-7.6860352,0.7380066
		c-0.1479492,0.0039978-0.2919922,0.0220032-0.4000244,0.0220032V458.0345154z M1197.7509766,495.7545166
		c0,0.3420105-0.0180664,0.6660156-0.0180664,1.0079956c0,1.3320007,0.6660156,1.6000061,1.8900146,1.6000061h3.0059814
		c0.8640137,0,1.4760742-0.0899963,1.8360596-0.9899902c0.2663574-0.7142334,0.4476318-1.4573364,0.5400391-2.2139893
		c0-0.3780212-0.7200928-0.4860229-1.0080566-0.4860229c-0.342041,0-0.3779297,0.1800232-0.4320068,0.5760193
		c-0.2519531,1.5999756-0.4139404,1.6919861-1.1519775,1.6919861h-2.394043c-0.6479492,0-0.8280029-0.0899963-0.8280029-0.7559814
		v-4.5200195c0-0.3600159,0.144043-0.4680176,0.5-0.5h2.8620605c0.7199707,0,1.4399414,0.0359802,2.1600342,0.0359802
		c0.3779297,0,0.4139404-0.1619873,0.4139404-0.7379761c0-0.5400085-0.0179443-0.7380066-0.4139404-0.7380066
		c-0.7200928,0-1.4400635,0.0539856-2.1600342,0.0539856h-4.157959c-0.3601074,0-0.5-0.1439819-0.5-0.5v-1.9339905
		c0-0.3600159,0.1439209-0.5,0.5-0.5h2.8439941c0.68396,0,1.3499756,0.0360107,2.0339355,0.0360107
		c0.3599854,0,0.3780518-0.1800232,0.3780518-0.7200012c0-0.5580139-0.0180664-0.7380066-0.3780518-0.7380066
		c-0.68396,0-1.3499756,0.0360107-2.0339355,0.0360107h-2.8439941c-0.3601074,0-0.5-0.1440125-0.5-0.5v-0.6119995
		c0-0.6480103,0.0179443-0.9179993,0.2338867-1.0800171c0.144043-0.1080017,0.2340088-0.1439819,0.2340088-0.269989
		c0-0.2000122-0.2698975-0.2160034-0.7199707-0.2520142c-0.0963135,0.0024414-0.192749-0.0035706-0.2879639-0.0179749
		c-0.2000732-0.0180054-0.5400391-0.0540161-0.7380371-0.0540161c-0.1799316,0-0.3239746,0.0540161-0.3239746,0.2520142
		c0,0.0539856,0.0179443,0.1259766,0.0179443,0.1799927c0.0360107,0.4320068,0.0720215,0.8639832,0.0720215,1.3139954v0.5400085
		c0,0.3599854-0.1439209,0.5-0.5,0.5h-1.6419678c-0.1800537,0-0.342041-0.071991-0.342041-0.269989
		c0.0013428-0.0558472,0.0136719-0.1108704,0.0360107-0.1620178c0.0721436-0.1572571,0.1323242-0.3197021,0.1800537-0.4859924
		c0.1259766-0.3600159,0.1799316-0.4680176,0.4000244-0.5400085c0.1079102-0.0360107,0.2519531-0.0899963,0.2519531-0.2340088
		c0-0.1799927-0.1999512-0.2339783-0.7199707-0.3779907c-0.2884521-0.0932617-0.583252-0.1654358-0.8820801-0.2160034
		c-0.1439209,0-0.1799316,0.1260071-0.2159424,0.2340088c-0.3913574,1.5950012-1.1219482,3.0868835-2.1419678,4.3739929
		c-0.210083,0.220459-0.3793945,0.4764099-0.5,0.756012c0,0.2879944,0.7559814,0.6839905,1.0620117,0.6839905
		c0.2034912-0.0282288,0.3792725-0.1566772,0.4678955-0.3420105c0.3814697-0.5239563,0.7301025-1.0710144,1.0440674-1.6380005
		c0.1182861-0.2840576,0.4162598-0.4496155,0.7199707-0.3999939h2.2800293c0.3599854,0,0.5,0.1439819,0.5,0.5v1.9259949
		c0,0.3600159-0.144043,0.5-0.5,0.5h-4.0860596c-0.7199707,0-1.4399414-0.0539856-2.1599121-0.0539856
		c-0.4000244,0-0.4140625,0.1799927-0.4140625,0.7379761c0,0.5580139,0.0180664,0.7380066,0.4000244,0.7380066
		c0.7380371,0,1.4580078-0.0360107,2.1779785-0.0360107h2.1240234c0.3060303,0,0.4139404,0.1440125,0.4139404,0.4680176
		c0.0076904,0.95578-0.2611084,1.8934021-0.7739258,2.6999817c-0.947998,1.4244995-2.3621826,2.4745789-4,2.9700012
		c-0.2000732,0.0540161-0.4680176,0.0899963-0.4680176,0.3420105c0,0.3240051,0.5219727,0.9899902,0.9000244,0.9899902
		c0.5936279-0.1364136,1.1624756-0.3644714,1.6859131-0.6759949c2.276001-1.1123657,3.8100586-3.3280945,4.0500488-5.8499756
		c0.0179443-0.1440125,0.0360107-0.2000122,0.1619873-0.2700195c0.1080322-0.0359802,0.2700195-0.1080017,0.2700195-0.2519836
		c0-0.1799927-0.2700195-0.2160034-0.5-0.269989c-0.0360107-0.0180054-0.0720215-0.0360107-0.0720215-0.0720215
		c0-0.0539856,0.0540771-0.071991,0.0899658-0.071991h1.56604c0.3599854,0.0360107,0.5,0.1260071,0.5,0.5L1197.7509766,495.7545166z
		 M1212.7269287,483.42453c0-0.1260071-0.1439209-0.2160034-0.2340088-0.2700195
		c-0.3464355-0.2427063-0.7211914-0.4421692-1.1159668-0.5939941c-0.1080322,0-0.1799316,0.1080017-0.2340088,0.2000122
		c-1.0579834,1.3544922-2.3070068,2.5482483-3.7080078,3.5439758c-0.1439209,0.1080017-0.3060303,0.2000122-0.3060303,0.3999939
		c0.1083984,0.3812561,0.3980713,0.6844177,0.7740479,0.8099976c0.2163086-0.0515442,0.4154053-0.1583557,0.5780029-0.3099976
		c1.3187256-0.9558716,2.4997559-2.0884705,3.5100098-3.3659973c0.144043-0.1799927,0.2159424-0.2519836,0.4139404-0.2519836
		c0.1060791-0.0039978,0.3220215-0.0220032,0.3220215-0.1660156V483.42453z M1219.7109375,484.9725037
		c0.6120605,0,1.2060547,0.0360107,1.8179932,0.0360107c0.4140625,0,0.4140625-0.2519836,0.4140625-0.7200012
		c0-0.4859924,0.0179443-0.7200012-0.4140625-0.7200012c-0.6119385,0-1.2059326,0.0360107-1.8179932,0.0360107h-3.2399902
		c-0.6119385,0-1.2059326-0.0360107-1.8179932-0.0360107c-0.4139404,0-0.4139404,0.2160034-0.4139404,0.7000122
		c0,0.5,0,0.7379761,0.4139404,0.7379761c0.6120605,0,1.2060547-0.0359802,1.8179932-0.0359802L1219.7109375,484.9725037z
		 M1217.9829102,489.5625305c0.3601074,0,0.5,0.1439819,0.5,0.4859924v5.6340027
		c0,1.1000061,0.0180664,1.4580078-1.2419434,1.4580078c-0.4000244,0-0.7559814-0.0540161-0.9179688-0.0540161
		c-0.2700195,0-0.342041,0.1799927-0.342041,0.4140015c0.0136719,0.324646,0.0932617,0.6431274,0.2340088,0.9360046
		c0.144043,0.2160034,0.5219727,0.2160034,0.7559814,0.2160034c1.2600098,0,3.0600586-0.071991,3.0600586-1.7640076
		c0-0.4140015-0.0540771-0.8460083-0.0540771-1.2600098v-5.5839844c0-0.3420105,0.1619873-0.4860229,0.5-0.4860229h0.3060303
		c0.6660156,0,1.3499756,0.0360107,2.0159912,0.0360107c0.4000244,0,0.4140625-0.2160034,0.4140625-0.7200012
		c0-0.5220032-0.0180664-0.7200012-0.4140625-0.7200012c-0.6660156,0-1.3499756,0.0360107-2.0159912,0.0360107h-4.9859619
		c-0.6660156,0-1.3320312-0.0360107-2-0.0360107c-0.4000244,0-0.4140625,0.1620178-0.4140625,0.7200012
		c0,0.5220032,0.0180664,0.7200012,0.4140625,0.7200012c0.6660156,0,1.3319092-0.0360107,2-0.0360107L1217.9829102,489.5625305z
		 M1211.1829834,489.9225159c0.6328125-0.7137451,1.2219238-1.4651184,1.7640381-2.25
		c0.1799316-0.269989,0.1799316-0.2879944,0.4499512-0.3779907c0.1080322-0.0360107,0.2700195-0.0899963,0.2700195-0.2160034
		c0-0.2160034-0.3060303-0.3420105-0.6120605-0.4859924c-0.0539551-0.0180054-0.1259766-0.0720215-0.2159424-0.1080017
		c-0.1781006-0.1047363-0.3729248-0.1778259-0.5760498-0.2160034c-0.1019287,0.0067139-0.1917725,0.0689697-0.2340088,0.1619873
		c-1.2142334,1.995575-2.7961426,3.7424927-4.6619873,5.1480103c-0.1799316,0.1260071-0.3599854,0.2340088-0.3599854,0.4679871
		c0,0.2880249,0.4680176,0.882019,0.7740479,0.882019c0.4320068,0,1.3679199-0.9360046,1.7099609-1.2420044
		c0.0397949-0.0479126,0.0997314-0.0745544,0.1619873-0.071991c0.1259766,0,0.1800537,0.1080017,0.1800537,0.2160034v4.2999878
		c0,0.6300049-0.0360107,1.2600098-0.0360107,1.8900146c0,0.5579834,0.1799316,0.5939941,0.737915,0.5939941
		c0.5760498,0,0.7561035-0.0360107,0.7561035-0.6119995c0-0.6119995-0.0540771-1.2420044-0.0540771-1.8720093v-4.5559998
		c0-0.5580139,0.0180664-0.8099976,0.2160645-0.95401c0.1259766-0.0899963,0.2159424-0.1440125,0.2159424-0.2520142
		c0-0.1999817-0.2519531-0.2160034-0.4000244-0.2160034c-0.0718994-0.0179749-0.1259766-0.0539856-0.1259766-0.1259766
		c0.0014648-0.039032,0.0147705-0.0766907,0.0379639-0.1080017L1211.1829834,489.9225159z M1228.9669189,490.9305115
		c0.2762451,0,0.5,0.223877,0.5,0.5v1.1740112c-0.0360107,0.3059998-0.1799316,0.4859924-0.5,0.4859924h-1.2860107
		c-0.2630615,0.0127563-0.4866943-0.1902161-0.4995117-0.4533386c-0.0004883-0.0108948-0.0006104-0.0217896-0.0004883-0.0326538
		v-1.1700134c0.0079346-0.2728271,0.2271729-0.492157,0.5-0.5L1228.9669189,490.9305115z M1228.9849854,487.6905212
		c0.2679443,0.0135498,0.4799805,0.23172,0.4859619,0.5v0.9899902c0.0010986,0.2673035-0.2147217,0.4848938-0.4819336,0.4860229
		c-0.0013428,0-0.0026855,0-0.0040283,0h-1.3040771c-0.2694092,0.0066223-0.4931641-0.2064209-0.4997559-0.4758606
		c-0.0001221-0.0033875-0.0001221-0.0067749-0.0002441-0.0101624v-0.9899902c-0.0043945-0.271698,0.2122803-0.4955444,0.4838867-0.5
		c0.0053711-0.0000916,0.0107422-0.0000916,0.0161133,0H1228.9849854z M1228.9849854,484.4905396
		c0.2695312,0.0010071,0.4871826,0.2203369,0.486084,0.4898376c0,0.0033875,0,0.0067749-0.0001221,0.0101624v0.9539795
		c0.0065918,0.2694397-0.2064209,0.4932251-0.4758301,0.4998779c-0.003418,0.000061-0.0067139,0.0001221-0.0101318,0.0001221
		h-1.3040771c-0.2716064,0.0044556-0.4954834-0.2121582-0.5-0.4838562c0-0.0053711,0-0.0107422,0-0.0161438v-0.9719849
		c0.0010986-0.2695312,0.2203369-0.4871826,0.4898682-0.486145c0.003418,0,0.0068359,0.000061,0.0101318,0.0001526
		L1228.9849854,484.4905396z M1230.8029785,485.2825317c0-0.4140015,0.0179443-0.8099976,0.0179443-1.223999
		c0-0.5400085-0.0539551-0.8999939-0.68396-0.8999939c-0.2700195,0-0.5219727,0.0179749-0.7919922,0.0179749h-2.052002
		c-0.2519531,0-0.5219727-0.0179749-0.7919922-0.0179749c-0.6120605,0-0.68396,0.34198-0.68396,0.8819885
		c0,0.4140015,0.0179443,0.8280029,0.0179443,1.2420044v7.019989c0,0.4320068-0.0179443,0.8640137-0.0179443,1.3000183
		c0,0.5220032,0.1079102,0.8280029,0.6999512,0.8280029c0.2700195,0,0.5219727-0.0180054,0.7740479-0.0180054h2.052002
		c0.2519531,0,0.5219727,0.0180054,0.7739258,0.0180054c0.6660156,0,0.7000732-0.3780212,0.7000732-0.9360046
		c0-0.3999939-0.0180664-0.7919922-0.0180664-1.1880188L1230.8029785,485.2825317z M1228.0809326,495.3905029
		c0-0.1799927-0.1439209-0.1999817-0.7919922-0.4140015c-0.2056885-0.0741882-0.4161377-0.1343384-0.6300049-0.1799927
		c-0.1259766,0-0.1439209,0.071991-0.1799316,0.1799927c-0.3509521,0.9747925-0.8034668,1.9099426-1.3500977,2.7900085
		c-0.0666504,0.0762329-0.1103516,0.1698608-0.1259766,0.269989c0,0.2700195,0.7919922,0.5580139,1.026001,0.5580139
		c0.1513672-0.0155029,0.2823486-0.11203,0.342041-0.2520142c0.4393311-0.800415,0.8358154-1.6235962,1.1879883-2.4660034
		c0.1080322-0.2339783,0.1259766-0.2519836,0.3239746-0.3059998
		C1227.9729004,495.5525208,1228.0809326,495.4985046,1228.0809326,495.3905029z M1238.3409424,489.0905151
		c0.3239746,0,0.5,0.0180054,0.5,0.269989c-0.0050049,0.1642456-0.0291748,0.3273621-0.0720215,0.4859924
		c-0.2474365,1.1002197-0.6331787,2.1646729-1.1479492,3.1680298c-0.0422363,0.0929871-0.1320801,0.1552429-0.2340088,0.1619873
		c-0.0966797-0.0073547-0.1838379-0.0610046-0.2340088-0.1439819c-0.6000977-1.0714417-1.0024414-2.2420959-1.1879883-3.4560242
		v-0.1080017c0-0.269989,0.2159424-0.3779907,0.4680176-0.3779907H1238.3409424z M1230.8170166,497.6045227
		c-0.0523682,0.0605164-0.0839844,0.1362305-0.0900879,0.2160034c0,0.2879944,0.7559814,0.7379761,1.0080566,0.7379761
		c0.0854492,0.0021973,0.1663818-0.0382996,0.2159424-0.1080017c0.4001465-0.6442871,0.7376709-1.3254089,1.0080566-2.0339966
		c0.7779541-2.1958618,1.1677246-4.5104065,1.1519775-6.8399963c-0.0288086-0.2006226,0.09375-0.3920898,0.2879639-0.4499817
		c0.1748047,0.0818176,0.2869873,0.256958,0.2880859,0.4499817c0.2509766,1.6481018,0.8063965,3.2351074,1.6379395,4.6799927
		c0.0762939,0.1118774,0.119873,0.2427673,0.1259766,0.3780212c-0.0092773,0.1549072-0.072998,0.3015442-0.1799316,0.4140015
		c-0.7646484,0.8920593-1.65625,1.6669922-2.6459961,2.2999878c-0.1619873,0.1080017-0.5579834,0.3240051-0.5579834,0.5220032
		c0,0.269989,0.539917,0.8640137,0.8459473,0.8640137c0.2021484-0.0422058,0.3927002-0.1282349,0.5579834-0.2520142
		c0.96875-0.6452942,1.8516846-1.4107056,2.6280518-2.2780151c0.081543-0.0828552,0.1900635-0.1339111,0.3059082-0.1439819
		c0.1118164,0.0062561,0.2160645,0.0583496,0.2880859,0.1439819c0.4139404,0.5,2.25,2.5200195,2.8079834,2.5200195
		c0.4260254-0.1165771,0.7562256-0.4536438,0.8640137-0.882019c0-0.1619873-0.1800537-0.269989-0.3239746-0.3999939
		c-0.9215088-0.714386-1.7659912-1.5227356-2.5200195-2.4120178c-0.0930176-0.1125793-0.1439209-0.2539978-0.144043-0.3999939
		c-0.0002441-0.1280212,0.0372314-0.2532654,0.1080322-0.3599854c0.8011475-1.371521,1.3841553-2.859314,1.7280273-4.4100037
		c0.0948486-0.3533325,0.1551514-0.7150269,0.1799316-1.0800171c-0.0146484-0.2542725-0.116333-0.4957886-0.2879639-0.6839905
		c-0.1918945-0.2460327-0.5013428-0.369812-0.8100586-0.3240051h-4.6619873c-0.3599854,0-0.5-0.1439819-0.5-0.4859924v-2.0820007
		c0-0.34198,0.144043-0.5,0.5-0.5h4c0.7000732,0,1.4219971,0.0540161,2.1240234,0.0540161
		c0.3780518,0,0.3780518-0.1620178,0.3780518-0.7200012c0-0.5580139,0-0.7200012-0.3780518-0.7200012
		c-0.6999512,0-1.4219971,0.0539856-2.1240234,0.0539856h-3.4199219c-0.5220947,0-1.0440674-0.0359802-1.56604-0.0359802
		c-0.6480713,0-0.9539795,0.1439819-0.9539795,0.8459778c0,0.5,0.0179443,1.0080261,0.0179443,1.5120239v2.9519958
		c0.1002197,2.7181396-0.3656006,5.4274292-1.3679199,7.9559937c-0.0540771,0.0899963-0.1080322,0.1799927-0.2160645,0.1799927
		s-0.1619873-0.071991-0.2340088-0.1439819c-0.2519531-0.4680176-0.5-0.95401-0.7199707-1.4400024
		c-0.0720215-0.1799927-0.1259766-0.3999939-0.3599854-0.3999939c-0.144043,0-0.9360352,0.1999817-0.9360352,0.4859924
		c0.1732178,0.5185547,0.3837891,1.0238647,0.6300049,1.5119934c0.1259766,0.2879944,0.3599854,0.8640137,0.6479492,0.8640137
		c0.1687012-0.0216675,0.3327637-0.070282,0.486084-0.1440125c0.0179443,0,0.0720215-0.0360107,0.0899658-0.0360107
		c0.046875-0.0028381,0.0871582,0.0328369,0.0899658,0.0797119c0.0002441,0.003418,0.0002441,0.0068665,0,0.0102844
		L1230.8170166,497.6045227z M1254.4509277,497.0645142c-0.68396,0-0.9000244-0.0899963-0.9000244-0.756012v-2.8039856
		c0-0.5580139-0.0179443-1.026001,0.2340088-1.223999c0.0900879-0.0540161,0.2000732-0.1080017,0.2000732-0.2340088
		c0-0.1799927-0.2879639-0.1799927-0.4320068-0.1999817c-0.2520752-0.0360107-1.0620117-0.1080017-1.2600098-0.1080017
		c-0.144043,0-0.2700195,0.0359802-0.2700195,0.2160034c0,0.0539856,0.0180664,0.1259766,0.0180664,0.1799927
		c0.0533447,0.4545898,0.0706787,0.9126587,0.052002,1.3699951v2.7720032c0,0.3059998-0.0360107,0.6119995-0.0360107,0.9179993
		c0,1.026001,0.7559814,1.2420044,1.6379395,1.2420044h2.592041c0.7919922,0,1.3679199,0,1.8179932-0.756012
		c0.3696289-0.6723938,0.5963135-1.4138794,0.6660156-2.178009c0-0.1999817-0.0720215-0.2519836-0.2340088-0.3239746
		c-0.2689209-0.1159668-0.5544434-0.1888733-0.8460693-0.2160034c-0.3059082,0-0.3059082,0.1999817-0.3599854,0.4859924
		c-0.2519531,1.6380005-0.7199707,1.6199951-1.2999268,1.6199951L1254.4509277,497.0645142z M1249.6809082,492.3665161
		c0.0900879-0.071991,0.3060303-0.1620178,0.3060303-0.3059998c0-0.1620178-0.3419189-0.2000122-0.4680176-0.2160034
		c-0.3676758-0.0803833-0.7406006-0.1345215-1.1159668-0.1620178c-0.2700195,0-0.2879639,0.1620178-0.2879639,0.3780212v0.1080017
		c0,3.0419922-1.6380615,4.3919983-4.3380127,5.2559814c-0.2000732,0.071991-0.4500732,0.1080017-0.4500732,0.3059998
		c0,0.2520142,0.4320068,0.9720154,0.8460693,0.9720154c0.9301758-0.2388,1.8128662-0.634491,2.6099854-1.1700134
		c1.6824951-1.0438538,2.7093506-2.8800354,2.7180176-4.8599854
		C1249.5369873,492.4925232,1249.5369873,492.4745178,1249.6809082,492.3665161z M1256.3590088,491.1605225
		c0.3419189,0,0.5,0.1439819,0.5,0.4859924v0.6480103c0,0.1799927-0.0360107,0.4679871-0.0360107,0.6839905
		c0,0.3420105,0.2700195,0.3599854,0.7559814,0.3599854c0.5759277,0,0.7739258-0.0359802,0.7739258-0.3999939
		c0-0.1999817-0.0358887-0.4859924-0.0358887-0.6659851v-0.8099976c0-0.3240051,0.0179443-0.5940247,0.0179443-0.8460083
		c0-0.7200012-0.5-0.7740173-1.0799561-0.7740173c-0.5800781,0-1.1340332,0.0180054-1.710083,0.0180054h-8.9099121
		c-0.5760498,0-1.1520996-0.0180054-1.7460938-0.0180054c-0.5579834,0-1.0439453,0.0899963-1.0439453,0.7740173
		c0,0.2340088,0.0179443,0.4859924,0.0179443,0.8460083v0.7919922c0,0.2160034-0.0360107,0.4499817-0.0360107,0.6659851
		c0,0.3600159,0.2160645,0.4000244,0.7740479,0.4000244c0.5219727,0,0.7740479-0.0180054,0.7740479-0.3780212
		c0-0.2339783-0.0360107-0.4499817-0.0360107-0.6839905v-0.6119995c0-0.3420105,0.1439209-0.4859924,0.4859619-0.4859924
		H1256.3590088z M1251.8409424,483.9244995c0-0.3239746,0.0180664-0.4859924,0.2160645-0.6299744
		c0.1259766-0.0899963,0.2340088-0.1260071,0.2340088-0.2520142c0-0.2340088-0.4140625-0.2340088-0.9901123-0.2879944
		c-0.2159424-0.0180054-0.5219727-0.0360107-0.7199707-0.0360107c-0.1439209,0-0.3060303,0.0360107-0.3060303,0.2160034
		c0,0.0540161,0.0180664,0.1260071,0.0180664,0.1799927c0.0418701,0.3224487,0.065918,0.6469421,0.0720215,0.9720154
		c-0.0360107,0.3420105-0.144043,0.4679871-0.5,0.4679871h-3.8560791c-0.6999512,0-1.3999023-0.0359802-2.105957-0.0359802
		c-0.3780518,0-0.3780518,0.1619873-0.3780518,0.6839905c0,0.5,0,0.6839905,0.3780518,0.6839905
		c0.6999512,0,1.4000244-0.0539856,2.105957-0.0539856h3.9240723c0.3060303,0,0.4320068,0.1439819,0.4320068,0.4319763v0.6300049
		c0,0.3059998-0.1259766,0.4320068-0.4320068,0.4320068h-2.7719727c-0.6300049,0-1.2600098-0.0360107-1.8900146-0.0360107
		c-0.342041,0-0.342041,0.2000122-0.342041,0.6660156c0,0.5220032,0,0.6839905,0.3599854,0.6839905
		c0.6120605,0,1.2420654-0.0359802,1.8720703-0.0359802h7.8839111c0.6300049,0,1.2420654,0.0359802,1.8720703,0.0359802
		c0.3419189,0,0.3599854-0.1799927,0.3599854-0.6839905c0-0.4679871,0-0.6659851-0.3599854-0.6659851
		c-0.6300049,0-1.2420654,0.0359802-1.8720703,0.0359802h-2.7719727c-0.2879639,0-0.4320068-0.1259766-0.4320068-0.4319763
		v-0.6300049c-0.0296631-0.2088623,0.1154785-0.4022827,0.3244629-0.4320068c0.0356445-0.0050659,0.0718994-0.0050659,0.1075439,0h4
		c0.6999512,0,1.4000244,0.0540161,2.105957,0.0540161c0.4000244,0,0.4000244-0.2000122,0.4000244-0.684021
		c0-0.5,0-0.6839905-0.4000244-0.6839905c-0.6999512,0-1.3999023,0.0360107-2.105957,0.0360107h-3.9279785
		c-0.3239746,0-0.4680176-0.1080017-0.5-0.4500122L1251.8409424,483.9244995z M1264.3690186,489.6125183
		c-0.7380371,0-1.56604-0.0540161-2.2320557-0.0540161c-0.4320068,0-0.4320068,0.3059998-0.4320068,0.8280029
		c0,0.4500122,0.0179443,0.7380066,0.4499512,0.7380066c0.684082,0,1.4580078-0.0360107,2.2141113-0.0360107h4.0119629
		c0.1634521-0.0033875,0.2994385,0.1246643,0.3060303,0.2880249c-0.0092773,0.0974121-0.0273438,0.1938171-0.0540771,0.2879944
		c-0.3217773,1.0621033-0.8543701,2.0484009-1.565918,2.8999939c-0.8033447,0.9076843-1.7923584,1.6320496-2.9000244,2.1239929
		c-0.1619873,0.0720215-0.4000244,0.1620178-0.4000244,0.3420105c0,0.269989,0.8280029,1.026001,1.1159668,1.026001
		c0.7792969-0.3397522,1.5065918-0.788208,2.1600342-1.3320007c1.5806885-1.2518616,2.7011719-2.9928284,3.1860352-4.9499817
		c0.1079102-0.3780212,0.2159424-0.684021,0.6660156-0.684021h2.9699707c0.737915,0,1.4940186,0.0360107,2.25,0.0360107
		c0.4139404,0,0.4499512-0.2519836,0.4499512-0.7380066c0-0.6299744-0.0360107-0.8280029-0.4499512-0.8280029
		c-0.684082,0-1.4940186,0.0540161-2.25,0.0540161h-2.8000488c-0.3060303,0-0.4000244-0.2160034-0.4000244-0.4680176
		c0-0.2879944,0.0360107-0.7559814,0.0360107-1.1159973c0-0.4319763-0.0539551-1.1159973-0.0539551-1.2999878
		c0-0.2879944,0.1999512-0.4140015,0.4320068-0.4680176c0.7302246-0.165802,1.4512939-0.3700867,2.1600342-0.6119995
		c0.2260742-0.085022,0.4608154-0.1453552,0.6999512-0.1799927c0.0539551,0,0.1080322,0.0180054,0.1619873,0.0180054
		c0.0651855,0.0192871,0.1322021,0.0313416,0.1999512,0.0360107c0.1092529,0.0092468,0.2054443-0.0709839,0.2160645-0.1800232
		c0-0.1999817-0.4000244-0.6119995-0.6660156-0.8819885l-0.144043-0.1440125
		c-0.1079102-0.1080017-0.3419189-0.3779907-0.5-0.3779907c-0.1158447,0.0100708-0.2243652,0.0611267-0.3059082,0.1440125
		c-1.081543,0.4946594-2.2254639,0.8398132-3.4000244,1.026001c-1.5518799,0.272583-3.1243896,0.4111023-4.7000732,0.4140015
		c-0.1999512,0-0.4678955-0.0180054-0.5759277-0.0180054c-0.1800537,0-0.3780518,0.0360107-0.3780518,0.269989
		c0.0411377,0.3091736,0.1387939,0.6081543,0.2880859,0.882019c0.1439209,0.2879944,0.2340088,0.3599854,0.5579834,0.3599854
		c1.4580078,0,3.9780273-0.3240051,4.0319824-0.3240051c0.4000244,0,0.4320068,0.3240051,0.4320068,1.4580078
		c0,0.7740173,0.0179443,1.4580078-0.5579834,1.4580078L1264.3690186,489.6125183z M1284.151001,488.5505066
		c-0.7000732,0-1.3320312-0.0360107-1.6920166-0.0360107c-0.4140625,0-0.4000244,0.3059998-0.4000244,0.6660156
		c0,0.4320068,0,0.7200012,0.4000244,0.7200012c0.3779297,0,1.0799561-0.0360107,1.7099609-0.0360107h2.7540283
		c0.2272949-0.0110474,0.4204102,0.1642456,0.4315186,0.39151c0.0003662,0.0075073,0.0004883,0.0149841,0.0004883,0.0224915
		c0,0.0540161-0.0360107,0.3059998-0.0360107,0.3779907l-0.4000244,3.5100098
		c-0.0288086,0.2548828-0.2435303,0.4480896-0.5,0.4500122h-4.4819336c-0.5760498,0-1.2600098-0.0360107-1.6920166-0.0360107
		s-0.4320068,0.3240051-0.4320068,0.7380066c0,0.34198,0,0.6479797,0.4320068,0.6479797
		c0.4499512,0,1.1699219-0.0359802,1.6920166-0.0359802h7.4158936c0.5760498,0,1.1340332,0.0179749,1.710083,0.0179749
		c0.4499512,0,0.4499512-0.269989,0.4499512-0.6479797c0-0.4680176,0-0.7200012-0.4320068-0.7200012
		c-0.5759277,0-1.1519775,0.0359802-1.7280273,0.0359802h-0.6479492c-0.2275391,0.0032349-0.4145508-0.1785889-0.4177246-0.4061279
		c-0.0003662-0.0206909,0.0008545-0.0413513,0.0037842-0.0618591l0.4139404-3.5639954
		c0.0180664-0.1620178,0.1800537-1.2600098,0.1800537-1.2780151c-0.0723877-0.4595947-0.4708252-0.7966614-0.9360352-0.7919922
		c-0.2160645,0-0.8280029,0.0360107-1.3139648,0.0360107H1284.151001z M1298.1190186,489.6845093
		c-0.7740479,0-1.8900146-0.0539856-2.1781006-0.0539856c-0.4320068,0-0.4859619,0.1259766-0.4859619,0.8819885
		c0,0.4140015,0,0.7740173,0.4499512,0.7740173c0.7380371,0,1.4760742-0.0540161,2.2141113-0.0540161h8.2619629
		c0.7380371,0,1.4759521,0.0540161,2.2139893,0.0540161c0.4320068,0,0.4320068-0.3600159,0.4320068-0.7740173
		c0-0.7559814-0.0360107-0.8819885-0.4859619-0.8819885c-0.2880859,0-1.4000244,0.0539856-2.1600342,0.0539856H1298.1190186z"/>
</g>
</svg>
