<?xml version="1.0" encoding="utf-8"?>
<!-- Generator: Adobe Illustrator 26.1.0, SVG Export Plug-In . SVG Version: 6.00 Build 0)  -->
<svg version="1.1" id="レイヤー_1" xmlns="http://www.w3.org/2000/svg" xmlns:xlink="http://www.w3.org/1999/xlink" x="0px"
	 y="0px" viewBox="0 0 155 155" style="enable-background:new 0 0 155 155;" xml:space="preserve">
<style type="text/css">
	.st0{fill:#FFFFFF;}
</style>
<g id="グループ_1241" transform="translate(-1273.861 7.091)">
	<path id="パス_485" d="M1426.7,49.4c-0.3-4.1-0.6-8.3-0.8-12.4c-2.9-4.1-5.8-8.2-8.7-12.3c-2.1-2.9-4.1-5.8-6-8.8
		c-0.1-0.2-0.3-0.5-0.4-0.7c-0.4-0.3-0.9-0.6-1.3-0.9c-5.1-3.4-10.1-6.9-15.2-10.2c-5.2-3.4-10.7-6.3-16.1-9.4
		c-0.3-0.1-0.6-0.1-0.9-0.2c-4.4-0.5-8.8-0.8-13.2-0.8c-0.1,0-0.2,0-0.3,0c-5.1,0-10.1,0.5-15.2,0.9c-4.9,0.4-9.9,0.7-14.8,1
		c-4,0.3-8.1,0.5-12.1,0.9c-0.4,0.1-0.7,0.1-1.1,0.2c-1.7,0.9-3.4,1.8-5,2.9c-9.8,6.6-17.3,13.3-23.5,23.5
		c-3.6,6.2-6.5,12.9-8.6,19.8c-0.7,2.1-1.2,4.2-1.6,6.3c-3.6,6.9-6.2,14.4-7.7,22c0.5,2.5,1,5.1,1.5,7.6c0.9,4.9,1.8,9.8,2.9,14.7
		c1,4.2,2,8.4,3.1,12.6c1.4,1.8,2.8,3.6,4.2,5.4c2.3,2.7,4.4,5.5,6.6,8.3c1.8,2.3,3.8,4.4,6,6.4c2.7,2.4,5.6,4.6,8.5,6.9
		c0.2,0.1,0.5,0.2,0.7,0.3c3,1.2,6,2.3,9,3.5c6.2,2.4,12.3,4.9,18.5,7.2c2.7,1,5.3,1.8,8,2.6c5.2,0,10.4,0.3,15.6,0.4
		c2.5,0.1,5.1,0.1,7.6,0.1c0.8-0.1,1.6-0.2,2.4-0.3c2.7-0.4,5.5-0.7,8.2-1.1c3.8-2.2,7.6-4.5,11.5-6.4c4.9-2.4,10-4.4,15-6.7
		c0.1-0.1,0.3-0.1,0.4-0.2c2.4-2.8,4.8-5.5,7.4-8.2c2-2.1,3.9-4.1,5.8-6.3c3.1-4.2,5.9-8.7,8.3-13.4c1.3-3.4,2.3-6.9,3.1-10.5
		c0.1-7.1,0-14.3-0.2-21.4C1428.1,64.9,1427.4,57.1,1426.7,49.4z"/>
</g>
<g id="グループ_94_00000163753745842167653740000006909068078226679693_" transform="translate(1301.503 37.867)">
	<path id="パス_2191" class="st0" d="M-1258.7,20.8c-0.3,0-0.6-0.2-0.6-0.6c0,0,0,0,0,0c-0.1-0.5,0.3-0.9,0.7-0.9c0,0,0,0,0,0
		c0.1,0,0.2,0,0.3,0.1c0.3,0.2,0.7,0.4,1,0.5c0.6,0,1.7-1.6,1.7-1.9c0-0.3-0.2-0.4-0.4-0.5c-0.7-0.3-1.4-0.7-2-1.2
		c-0.2-0.1-0.3-0.3-0.3-0.5c0-0.2,0.1-0.4,0.3-0.5c0.6-0.6,2.2-2.5,2.2-3.3c0-0.4-0.2-0.7-0.5-1c-0.5-0.5-1.2-0.8-1.9-0.7
		c-0.4,0-0.8,0-1.2,0h-2.8c-1.1,0-1.8,0-2.3,0c-0.7,0-0.8,0.1-0.8,0.7V12c0,0.6,0,0.8,0.5,0.8h0.5c0,0,0.1,0,0.1,0.1s0,0.1-0.1,0.1
		c0,0.1-0.1,0.1-0.1,0.2c0.3,0.7,0.7,1.4,1.1,2c0.1,0.1,0.2,0.2,0.2,0.4c0,0.3-0.4,0.5-0.7,0.7c-0.6,0.4-1.2,0.7-1.8,1
		c-0.2,0-0.2-0.3-0.2-0.4c0-0.4,0-0.9,0-1.2c0-0.7-0.5-0.8-1.1-0.8c-0.5,0-1,0-1.5,0c-0.1,0-0.3-0.1-0.3-0.2c0,0,0,0,0,0v-0.3
		c0-0.1,0.1-0.2,0.3-0.2h0.3c0.7,0,1.3,0,1.9,0c0.5,0,0.6-0.2,0.6-0.7v-0.9c0-0.6,0-0.8-0.5-0.8c-0.5,0-1,0-1.5,0h-0.2
		c-0.3,0-0.7-0.1-0.7-0.6c0-0.5,0-0.7,0.2-0.8c0.1-0.1,0.2-0.2,0.2-0.3c0-0.2-0.2-0.3-0.4-0.3c-0.3,0-2.1-0.2-2.4-0.2
		c-0.2,0-0.4,0-0.4,0.3V10c0,0.4,0.1,0.7,0.1,1.1c0,0.3-0.2,0.6-0.6,0.6c0,0-0.1,0-0.1,0h-0.3c-0.5,0-1.1,0-1.6,0
		c-0.5,0-0.5,0.1-0.5,0.7v1c0,0.5,0,0.7,0.6,0.7c0.6,0,1.3,0,1.9,0h0.4c0.1,0,0.2,0.1,0.2,0.2v0.3c0,0.1-0.1,0.2-0.2,0.3
		c0,0,0,0-0.1,0c-0.5,0-1,0-1.5,0c-0.6,0-1,0.1-1,0.8c0,0.3,0,0.7,0,1.2v3.8c0,0.5,0,0.9,0,1.2c0,0.7,0.4,0.8,1,0.8c0.5,0,1,0,1.5,0
		c0.2,0,0.3,0.1,0.3,0.3c0,0,0,0,0,0v0.1c0,0.2-0.1,0.3-0.3,0.3c0,0,0,0,0,0h-0.5c-0.6,0-1.3,0-1.9,0c-0.5,0-0.5,0.2-0.5,0.8v0.9
		c0,0.5,0,0.7,0.5,0.7c0.7,0,1.3,0,1.9,0h0.3c0.3,0,0.6,0.3,0.6,0.6c0,0.7-0.1,1.3-0.1,2c0,0.5,0.2,0.6,0.9,0.6h1.1
		c0.6,0,0.8,0,0.8-0.6c0-0.7,0-1.3,0-1.9c0-0.5,0.4-0.7,1-0.7c0.4,0,0.9,0,1.6,0c0.5,0,0.5-0.2,0.5-0.8v-0.8c0-0.6,0-0.8-0.5-0.8
		c-0.7,0-1.3,0-2,0h-0.4c-0.1,0-0.3-0.1-0.3-0.3v-0.2c0-0.2,0.1-0.3,0.3-0.3c0,0,0,0,0,0c0.5,0,1,0,1.5,0c0.6,0,1-0.1,1-0.8
		c0-0.3,0-0.7,0-1.2v-1.1c0-0.1,0-0.4,0.2-0.4c0.1,0,0.2,0.2,0.3,0.3c0.2,0.2,0.4,0.5,0.7,0.5c1.1-0.4,2.1-1,3.1-1.7
		c0.2-0.1,0.4-0.2,0.6-0.2c0.3,0,0.6,0.1,0.8,0.3c0.3,0.3,0.6,0.4,0.6,0.5c0,0.1-0.1,0.1-0.2,0.1c0,0-0.3,0-0.7-0.1
		c-0.3,0-1.2-0.1-1.4-0.1c-0.2,0-0.4,0-0.4,0.3c0,0.2,0.1,0.8,0.1,1.2c0,0.3-0.3,0.6-0.6,0.6c0,0,0,0,0,0c-0.5,0-1.1,0-1.6,0
		c-0.5,0-0.6,0.2-0.6,1v0.9c0,0.6,0,0.9,0.6,0.9s1-0.1,1.6-0.1c0.3,0,0.6,0.2,0.7,0.5c0,0,0,0,0,0.1v0.7c0,0.5-0.5,0.6-0.7,0.6h-0.2
		c-0.6,0-1.3,0-1.9,0c-0.6,0-0.7,0.3-0.7,1V27c0,0.8,0,1.1,0.7,1.1c0.7,0,1.5-0.1,2.2-0.1h4c0.8,0,1.5,0.1,2.2,0.1
		c0.7,0,0.7-0.3,0.7-1v-1c0-0.6-0.1-0.9-0.7-0.9c-0.7,0-1.3,0-1.9,0h-0.2c-0.3,0-0.8-0.1-0.8-0.6V24c0-0.5,0.2-0.6,0.7-0.6h0.1
		c0.6,0,1.3,0.1,1.7,0.1c0.5,0,0.6-0.2,0.6-0.9v-0.9c0-0.7,0-0.9-0.6-0.9c-0.5,0-1.1,0-1.7,0L-1258.7,20.8z M-1259.8,12.9
		c0,0.1-0.3,0.5-0.4,0.6c-0.1,0.1-0.2,0.2-0.3,0.2c-0.3,0-0.6-0.6-0.6-0.7c0-0.3,0.2-0.3,0.5-0.3h0.4
		C-1260.1,12.7-1259.8,12.7-1259.8,12.9L-1259.8,12.9z M-1271,17.3c0,0.1-0.1,0.3-0.2,0.3c0,0,0,0,0,0h-0.3c-0.1,0-0.3-0.1-0.3-0.3
		v-0.2c0-0.1,0.1-0.3,0.3-0.3h0.3c0.1,0,0.3,0.1,0.3,0.3L-1271,17.3z M-1271,20c0,0.2-0.2,0.3-0.3,0.3h-0.2c-0.2,0-0.3-0.2-0.3-0.3
		v-0.1c0-0.2,0.1-0.3,0.3-0.3c0,0,0,0,0,0h0.2c0.2,0,0.3,0.2,0.3,0.3c0,0,0,0,0,0V20z M-1268.8,17.1c0-0.1,0.1-0.3,0.2-0.3
		c0,0,0,0,0,0h0.3c0.1,0,0.3,0.1,0.3,0.3v0.2c0,0.1-0.1,0.3-0.3,0.3h-0.3c-0.1,0-0.3-0.1-0.3-0.2c0,0,0,0,0,0L-1268.8,17.1z
		 M-1268.8,19.8c0-0.2,0.1-0.3,0.3-0.3c0,0,0,0,0,0h0.2c0.2,0,0.3,0.1,0.3,0.3c0,0,0,0,0,0V20c0,0.2-0.2,0.3-0.3,0.3h-0.2
		c-0.2,0-0.3-0.2-0.3-0.3V19.8z M-1250.1,19.7c-0.9,0-1.9,0-2.9,0c-0.5,0-0.6,0.2-0.6,0.9v1.2c0,0.7,0,0.9,0.6,0.9c1,0,1.9,0,2.9,0
		c0.2,0,0.4,0,0.4,0.2c-0.1,0.4-0.4,0.7-0.6,1c-0.8,0.9-1.8,1.7-2.8,2.3c-0.1,0.1-0.4,0.3-0.4,0.5c0,0.5,1.3,2,2,2
		c0.7,0,4.2-2.5,5.2-5.4c0.2-0.5,0.5-0.5,0.9-0.5h2.5c0.3,0,0.6,0.3,0.6,0.6c0,0,0,0,0,0v1.3c0,1.2-0.1,2.3-0.1,3.5
		c0,0.5,0.2,0.5,0.8,0.5h1.5c0.7,0,0.9-0.1,0.9-0.5c0-1.2-0.1-2.3-0.1-3.5v-1c0-0.6,0.1-0.9,0.8-0.9h0.3c1,0,1.9,0,2.9,0
		c0.5,0,0.6-0.3,0.6-0.9v-1.2c0-0.7,0-0.9-0.6-0.9c-0.9,0-1.9,0-2.9,0h-0.3c-0.5,0-0.7-0.3-0.7-0.8V17c-0.1-0.3,0.2-0.6,0.5-0.7
		c0,0,0.1,0,0.1,0c0.9,0,1.8,0.1,2.7,0.1c0.5,0,0.6-0.3,0.6-0.9v-1.2c0-0.7,0-0.9-0.6-0.9c-0.8,0-1.5,0-2.3,0h-0.4
		c-0.3,0-0.6-0.3-0.6-0.6c0,0,0,0,0,0v-1.5c0-0.3,0-0.6,0.2-0.9c0.1-0.1,0.2-0.2,0.2-0.3c0-0.3-0.3-0.3-0.7-0.3
		c-0.8,0-1.8-0.1-2.6-0.1c-0.2,0-0.3,0.1-0.3,0.3c0,0.1,0,0.1,0,0.2c0.1,0.5,0.1,0.9,0.1,1.4v1.2c0,0.5-0.4,0.6-0.8,0.6h-1.8
		c-0.5,0-0.8-0.2-0.8-0.7V11c0-0.3,0-0.5,0.3-0.7c0.1-0.1,0.3-0.1,0.3-0.3c0-0.1-0.1-0.3-0.3-0.3c-0.3-0.1-2.5-0.2-2.9-0.2
		c-0.3,0-0.5,0-0.5,0.4c0,0.1,0.1,1.5,0.1,2.4v0.3c0,0.3-0.2,0.6-0.5,0.7c0,0-0.1,0-0.1,0h-0.6c-0.8,0-1.6,0-2.3,0
		c-0.5,0-0.6,0.3-0.6,0.9v1.2c0,0.7,0,0.9,0.6,0.9c0.8,0,1.6-0.1,2.4-0.1h0.6c0.4,0,0.6,0.3,0.6,0.7v0.9c0,1.4-0.1,1.7-0.7,1.7
		L-1250.1,19.7z M-1242.4,19.1c0,0.3-0.2,0.6-0.6,0.6c0,0,0,0,0,0h-2c-0.4,0-0.8-0.1-0.8-0.6v-2.2c0-0.3,0.3-0.6,0.6-0.6h2.2
		c0.3,0,0.6,0.3,0.6,0.6V19.1z M-1228.8,19.4c-0.2,0-0.2,0.1-0.3,0.2c-0.9,2.2-2,4.2-3.3,6.2c-0.1,0.1-0.3,0.3-0.3,0.5
		c0,0.3,0.6,0.7,0.9,0.9c0.1,0,0.1,0.1,0.1,0.1c0.1,0.1,0.2,0.1,0.3,0.2c0.4,0.4,0.8,0.7,1.3,0.9c0.2,0,0.3-0.1,0.3-0.3
		c0-0.1,0-0.2,0-0.3c0-0.1,0-0.2,0-0.3c0-0.2,0.1-0.4,0.3-0.6c0.9-1.5,1.7-3.1,2.5-4.7c0-0.1,0.1-0.2,0.1-0.3
		c0.2-0.3,0.3-0.6,0.4-0.9C-1226.7,20.6-1228.2,19.4-1228.8,19.4z M-1232.5,16.2c0,0.1,0.1,0.2,0.3,0.4c0.6,0.4,1.3,0.9,1.9,1.4
		c0,0,0.1,0.1,0.1,0.1c0.3,0.3,0.8,0.7,1,0.7c0.3,0,0.7-0.5,0.9-0.7c0.3-0.3,0.8-0.9,0.8-1.3c0-0.3-0.8-0.9-1-1.1
		c-0.1-0.1-0.1-0.1-0.2-0.2c-0.6-0.5-1.3-1-2-1.3C-1231.3,14.1-1232.5,15.8-1232.5,16.2z M-1228.2,10.5c-0.4-0.4-0.9-0.7-1.4-0.9
		c-0.3,0-0.5,0.3-0.7,0.5c0,0-0.1,0.1-0.1,0.1c0,0-0.1,0.1-0.1,0.2c-0.3,0.3-0.7,0.9-0.7,1.1c0,0.2,0.1,0.3,0.3,0.4
		c0.7,0.5,1.4,1.1,2.1,1.6c0,0,0.1,0.1,0.2,0.1c0.2,0.1,0.5,0.4,0.6,0.4c0.3,0,0.5-0.3,0.7-0.5c0.1-0.1,0.2-0.2,0.3-0.4
		c0.3-0.3,0.6-0.7,0.7-1.2c0-0.1-0.1-0.2-0.2-0.3c-0.4-0.4-1-0.9-1.4-1.2C-1228.1,10.6-1228.2,10.5-1228.2,10.5z M-1221.8,15.8
		c-0.3,0-0.6-0.2-0.6-0.6c0,0,0,0,0,0v-1.6c0-0.3,0.3-0.6,0.6-0.6h4c0.3,0,0.6,0.3,0.6,0.6c0,0,0,0,0,0v1.6c0,0.3-0.2,0.6-0.6,0.6
		c0,0,0,0,0,0H-1221.8z M-1217.2,18.6c0.6,0,1.2,0,1.8,0c0.7,0,1.1-0.2,1.1-1c0-0.7,0-1.3,0-2v-2.4c0-0.7,0-1.3,0-2
		c0-0.8-0.4-1.1-1.1-1.1c-0.7,0-1.3,0-2,0h-4.8c-0.7,0-1.4,0-2,0c-0.8,0-1.1,0.3-1.1,1.1c0,0.7,0,1.3,0,2v3.3c0,3.4-0.5,7-2.5,9.8
		c-0.1,0.1-0.2,0.3-0.3,0.5c0,0.5,1.6,1.8,2.2,1.8c0.8,0,1.9-2.4,2.2-3c0.8-2.1,1.2-4.3,1.2-6.5c0-0.4,0.2-0.5,0.5-0.5h0.5
		c0.3,0,0.4,0.1,0.5,0.4c0.2,1.8,0.7,3.6,1.5,5.2c0.7,1.3,1.5,2.5,2.5,3.6l0.2,0.2c0.3,0.3,0.6,0.7,0.8,0.7c0.6,0,2.3-1.4,2.3-2
		c0-0.2-0.2-0.4-0.4-0.5c-1.7-1.4-3-3.2-3.7-5.2c-0.2-0.7-0.4-1.3-0.5-2c0-0.2,0.1-0.4,0.3-0.4c0,0,0,0,0,0L-1217.2,18.6z
		 M-1202.7,25c-0.3,0-0.6-0.2-0.6-0.5c0,0,0,0,0-0.1v-1c0-0.3,0.3-0.6,0.6-0.6c0,0,0,0,0,0h4.7c0.3,0,0.6,0.3,0.6,0.6c0,0,0,0,0,0v1
		c0,0.3-0.2,0.6-0.6,0.6c0,0,0,0,0,0H-1202.7z M-1198.1,27.6c0.4,0,0.7,0.2,0.7,0.6v0.1c0,0.3,0.3,0.4,0.8,0.4h1.4
		c0.6,0,0.9,0,0.9-0.4c0-0.1-0.1-0.8-0.1-1.6v-4.3c0-0.6,0.1-1,0.1-1.3c0-0.7-0.7-0.8-1.6-0.8c-0.7,0-1.3,0-2,0h-1
		c-0.3,0-0.6-0.2-0.6-0.6c0,0,0,0,0,0v-0.4c0-0.3,0.3-0.6,0.6-0.6c0,0,0,0,0,0h2.7c0.8,0,1.6,0.1,2.4,0.1c0.4,0,0.5-0.2,0.5-0.8
		v-1.1c0-0.6,0-0.8-0.5-0.8c-0.8,0-1.6,0-2.4,0h-2.6c-0.3,0-0.6-0.2-0.6-0.5c0,0,0-0.1,0-0.1c0-0.3,0-0.4,0.2-0.5
		c0.1-0.1,0.2-0.1,0.2-0.3c0-0.1,0-0.1,0-0.1c0-0.1,0.2-0.1,0.2-0.1h2.9c0.8,0,1.7,0.1,2.5,0.1c0.5,0,0.6-0.2,0.6-0.9v-1.2
		c0-0.7,0-0.9-0.6-0.9c-0.8,0-1.7,0-2.5,0h-3.6c-0.3,0-0.6-0.2-0.6-0.5c0,0,0,0,0-0.1c0-0.2,0-0.5,0.2-0.7c0.1-0.1,0.2-0.2,0.2-0.3
		c0-0.3-0.3-0.3-0.5-0.3c-0.8-0.1-1.5-0.1-2.2-0.2c-0.1,0-0.4,0-0.5,0c-0.2,0-0.4,0-0.4,0.3c0,0.3,0.1,0.9,0.1,1.2
		c0,0.3-0.2,0.6-0.6,0.6c0,0-0.1,0-0.1,0h-2.5c-0.7,0-1.4,0-2.2,0c-0.8,0-1.2,0.2-1.2,1.1c0,0.7,0.1,1.5,0.1,2.2v2.2
		c0,3.4-0.1,6.1-1.6,9.2c-0.1,0.2-0.2,0.5-0.3,0.7c0,0.5,1.8,1.5,2.3,1.5c0.2,0,0.3-0.1,0.4-0.3c0.5-0.8,0.9-1.6,1.1-2.5
		c0.8-2.6,1.1-5.3,1-8v-2.6c0-0.3,0.3-0.6,0.6-0.6c0,0,0,0,0,0h3c0.6,0,0.7,0.4,0.7,1.4v3.8c0,0.3-0.2,0.6-0.5,0.6c0,0-0.1,0-0.1,0
		c-0.5,0-1,0-1.5,0c-0.9,0-1.6,0.1-1.6,0.8c0,0.4,0.1,0.8,0.1,1.3v4.3c0,0.6-0.1,1.4-0.1,1.6c0,0.3,0.3,0.4,0.9,0.4h1.5
		c0.5,0,0.8-0.1,0.8-0.4c0-0.4,0.3-0.6,0.7-0.6L-1198.1,27.6z M-1182.7,9.6c-0.2,0-0.2,0.1-0.3,0.5c-0.2,0.8-0.5,1.9-0.7,2.5
		c-0.1,0.3-0.2,0.6-0.5,0.6c-0.4-0.1-0.8-0.3-1.1-0.5c-0.2-0.2-0.5-0.3-0.8-0.4c-0.6,0-1.1,2.1-1.1,2.6c0,0.3,0.1,0.5,1.8,1.2
		c0.3,0.1,0.6,0.3,0.6,0.7c0,0.2-0.1,0.5-0.1,0.7c-0.1,0.4-0.3,0.5-0.5,0.5c-0.3-0.1-0.6-0.2-0.9-0.4c-0.2-0.1-0.4-0.2-0.6-0.3
		c-0.5,0-0.6,0.6-0.8,1.2c-0.1,0.5-0.2,0.9-0.3,1.4c0,0.4,0.3,0.5,1.7,1c0.3,0.1,0.6,0.2,0.6,0.7c0,0-0.1,0.7-0.1,0.9
		c0,3.5,1.9,5.6,5.5,5.6c1.5,0,3-0.3,4.3-1.1c1.2-0.8,1.9-2.1,1.9-3.6c0-1.3-0.3-2.5-0.7-3.7c-0.2-0.7-0.3-1-0.7-1
		c-0.6,0.1-1.2,0.2-1.8,0.4c-0.6,0.3-0.8,0.4-0.8,0.6c0,0.2,0,0.3,0.1,0.5c0.4,1,0.6,1.9,0.6,3c0,0.5-0.2,1.1-0.7,1.4
		c-0.7,0.3-1.5,0.5-2.3,0.5c-0.8,0.1-1.5-0.3-2-0.9c-0.2-0.4-0.3-0.9-0.3-1.4v-0.1c0-0.3,0-0.7,0.5-0.7c0,0,0.1,0,0.1,0
		c0.6,0.1,1.2,0.2,1.7,0.2c0.5,0,0.7-0.2,0.8-0.7c0.2-0.7,0.3-1.3,0.4-2c0-0.4-0.3-0.4-0.9-0.4c-1.5,0-2.1,0-2.1-0.6
		c0-0.1,0-0.2,0-0.3l0-0.2c0.1-0.4,0.2-0.8,0.7-0.8c0.1,0,0.1,0,0.2,0c0.9,0.1,1.7,0.2,2.6,0.3c0.3,0,0.4-0.2,0.6-0.7
		c0.2-0.6,0.3-1.2,0.3-1.9c0-0.5-0.3-0.5-0.7-0.5c-0.5,0-1,0-1.5-0.1c-0.7,0-1-0.1-1-0.5c0-0.1,0-0.2,0.1-0.3l0.4-1.2
		c0.3-0.8,0.4-0.9,0.8-1c0.1,0,0.2-0.1,0.2-0.2c0-0.1-0.1-0.3-0.3-0.3C-1180.7,10.2-1181.7,9.9-1182.7,9.6L-1182.7,9.6z M-1259.2,50
		c-0.4,0.8-0.8,1.6-1.3,2.3c-0.2,0.3-0.6,0.5-1,0.5h-0.9c-0.1,0-0.3,0-0.3-0.1c0-0.1,0-0.1,0.1-0.1c0.1-0.1,0.4-0.3,0.4-0.5
		c-0.3-0.6-0.6-1.1-0.9-1.6c-0.2-0.3-0.7-1.1-1-1.1c-0.4,0-2.2,0.8-2.2,1.3c0,0.1,0.1,0.3,0.2,0.4c0.4,0.5,0.7,1,1,1.5
		c0,0.2-0.3,0.3-0.4,0.3h-1.2c-0.2,0-0.3,0-0.3-0.1c0,0,0,0,0-0.1c0.2-0.1,0.2-0.2,0.2-0.3c-0.2-0.5-0.5-0.9-0.8-1.3
		c-0.1-0.1-0.1-0.2-0.2-0.3c-0.2-0.3-0.8-1.1-1.2-1.1c-0.4,0-2.1,0.8-2.1,1.3c0,0.1,0,0.2,0.1,0.3c0.4,0.4,0.7,0.8,0.9,1.3
		c0,0.1-0.1,0.2-0.3,0.2h-1.1c-0.5,0-1.2,0.1-1.2,0.7c0,0.2,0,0.5,0,1v1.6c0,0.4-0.1,0.8-0.1,1c0,0.4,0.3,0.5,0.9,0.5h1.2
		c0.6,0,0.9,0,0.9-0.5c0-0.3-0.1-0.6-0.1-1v-0.1c0-0.5,0.3-0.7,0.8-0.7h11c0.3,0,0.6,0.2,0.7,0.5c0,0,0,0.1,0,0.1v0.2
		c0,0.4-0.1,0.8-0.1,1c0,0.4,0.3,0.5,1,0.5h1.2c0.6,0,0.9,0,0.9-0.5c0-0.2,0-0.5,0-1v-1.6c0-0.5,0-0.9,0-1.1c0-0.7-0.7-0.7-1.4-0.7
		c-0.3,0-0.7,0-1,0c-0.2,0-0.4,0-0.4-0.3c0.2-0.4,0.5-0.9,0.8-1.2c0.1-0.1,0.3-0.2,0.4-0.2c0.2,0,0.3,0,0.3-0.3
		c0-0.2-0.1-0.2-0.4-0.3c-0.4-0.1-2.6-0.9-2.8-0.9C-1259,49.6-1259.1,49.8-1259.2,50z M-1267.9,64.8c0-0.2,0.2-0.4,0.4-0.4h7.9
		c0.2,0,0.4,0.2,0.4,0.4c0,0,0,0,0,0V65c0,0.2-0.2,0.4-0.4,0.4c0,0,0,0,0,0h-7.9c-0.2,0-0.4-0.2-0.4-0.4c0,0,0,0,0,0V64.8z
		 M-1266.1,58.5c0-0.2,0.2-0.4,0.4-0.4l0,0h4.5c0.2,0,0.4,0.2,0.4,0.4c0,0,0,0,0,0v0.1c0,0.2-0.2,0.4-0.4,0.4l0,0h-4.5
		c-0.2,0-0.4-0.2-0.4-0.4c0,0,0,0,0,0V58.5z M-1261.6,62.2c-0.2,0-0.5,0-0.5-0.3c0-0.1,0.1-0.7,1-0.7c0.1,0,0.2,0.1,0.3,0.2
		c0.1,0.3,0.3,0.3,0.8,0.3h1.4c0.7,0,0.9,0,0.9-0.5c0-0.3-0.1-1.3-0.1-1.9v-1c0-0.5,0-1,0-1.4c0-0.8-0.8-0.8-1.4-0.8
		c-0.7,0-1.4,0-2,0h-4.5c-0.7,0-1.3,0-2,0c-0.6,0-1.4,0-1.4,0.8c0,0.5,0,1,0,1.4v1c0,0.7-0.1,1.6-0.1,1.9c0,0.4,0.3,0.5,0.9,0.5h1.4
		c0.5,0,0.8,0,0.9-0.3c0-0.1,0.1-0.2,0.3-0.2c0.2,0,0.4,0.1,0.4,0.3c0,0.1,0,0.1-0.1,0.3c-0.2,0.3-0.3,0.4-0.8,0.4h-1.2
		c-0.7,0-1.4,0-2.1,0c-0.6,0-1.4,0-1.4,0.8c0,0.5,0,1,0,1.5v1.8c0,0.8-0.1,1.6-0.1,2c0,0.4,0.2,0.5,0.9,0.5h1.3c0.7,0,1,0,1-0.5V68
		c0-0.2,0.2-0.4,0.3-0.4c0,0,0,0,0.1,0h7.8c0.2,0,0.4,0.1,0.4,0.3v0.1c0,0.4,0.3,0.5,1,0.5h1.4c0.7,0,0.9,0,0.9-0.5
		c0-0.3-0.1-1.3-0.1-2v-1.8c0-0.5,0-1,0-1.5c0-0.8-0.8-0.8-1.4-0.8c-0.7,0-1.4,0-2.1,0H-1261.6z M-1241.7,55.1c0.2,0,0.5,0,0.5,0.3
		c0,0.1,0,0.2-0.1,0.3c-0.2,0.4-0.6,0.6-1,0.5h-2c-0.3,0.1-0.7-0.1-0.9-0.4c-0.1-0.3-0.2-0.3-0.2-0.4c0-0.3,0.3-0.3,0.6-0.3H-1241.7
		z M-1238,50c-0.4,0.9-0.8,1.7-1.3,2.5c-0.1,0.2-0.1,0.2-0.2,0.2c-0.1,0-0.1-0.2-0.1-0.4v-0.9c0-0.5,0-0.9,0.2-1.1
		c0.1-0.1,0.2-0.2,0.2-0.3c0-0.3-0.3-0.3-0.7-0.3c-0.1,0-0.2,0-0.3,0c-0.4,0-1.8-0.2-2.1-0.2c-0.3,0-0.4,0.1-0.4,0.3
		c0,0.2,0.1,0.7,0.1,1.5v1.2c0,0.2-0.1,0.3-0.3,0.3c0,0,0,0,0,0h-0.7c-0.1,0-0.3-0.1-0.3-0.3v-1c0-0.5,0-0.9,0.2-1.1
		c0.2-0.1,0.3-0.3,0.3-0.4c0-0.3-0.2-0.3-0.8-0.4c-0.3,0-1.9-0.2-2.2-0.2c-0.3,0-0.4,0.1-0.4,0.3c0,0.1,0,0.1,0,0.2
		c0,0.5,0.1,1.1,0.1,1.7v0.6c0,0.3-0.3,0.6-0.6,0.6c0,0,0,0-0.1,0h-0.2c-0.1,0-0.2,0-0.2-0.1c0-0.1,0.1-0.1,0.1-0.2
		c0.1-0.1,0.4-0.2,0.4-0.4c-0.4-0.6-0.8-1.2-1.2-1.8c-0.1-0.1-0.1-0.2-0.2-0.2c-0.2-0.3-0.3-0.4-0.5-0.4c-0.5,0-2.3,0.8-2.3,1.1
		c0,0.1,0,0.1,0.1,0.2c0.4,0.5,0.8,1,1.1,1.5c0,0.3-0.3,0.3-0.5,0.3c-0.3,0-0.6,0-0.9,0c-0.4,0-0.5,0.2-0.5,0.7v0.8
		c0,0.5,0,0.7,0.5,0.7c0.8,0,1.7,0,2.5,0c0.3,0,0.6,0.2,0.7,0.5c0.1,0.1,0.1,0.2,0.1,0.4c0,0.2-0.2,0.3-0.4,0.3c-0.9,0-1.6,0-2,0
		c-0.7,0-0.7,0.1-0.7,0.8v0.6c0,0.5,0,0.7,0.5,0.7c0.9,0,1.8,0,2.8,0h2.8c0.2,0,0.3,0.1,0.3,0.3c0,0,0,0,0,0v0.1
		c0,0.2-0.1,0.3-0.3,0.3c0,0,0,0,0,0h-2.1c-0.8,0-1.6,0-2.5,0c-0.5,0-0.5,0.2-0.5,0.7v0.7c0,0.5,0,0.7,0.5,0.7c0.8,0,1.7,0,2.5,0
		h2.1c0.2,0,0.3,0.1,0.3,0.3c0,0,0,0,0,0v0c0,0.2-0.1,0.3-0.3,0.3c0,0,0,0,0,0h-3.9c-1,0-2,0-2.9,0c-0.5,0-0.5,0.2-0.5,0.7v0.6
		c0,0.7,0,0.8,0.5,0.8c1,0,2,0,2.9,0h0.8c0.2,0,0.3,0,0.3,0.1c0,0,0,0.1-0.1,0.1c-1.2,0.7-2.5,1.2-3.8,1.6c-0.5,0.2-0.8,0.2-0.8,0.5
		c0,0.5,1.2,2.2,1.7,2.2c0.5-0.1,1-0.3,1.4-0.5c1.4-0.7,2.8-1.5,4.1-2.4c0.1-0.1,0.2-0.2,0.4-0.2c0.2,0,0.3,0.2,0.3,0.3
		c0,0.8-0.1,1.6-0.1,2.4c0,0.6,0.3,0.7,1,0.7h1.3c0.8,0,1-0.1,1-0.7c0-0.8-0.1-1.5-0.1-2.3c0-0.2,0-0.4,0.3-0.4
		c0.1,0,0.3,0.1,0.4,0.2c1,0.8,2,1.4,3.1,2c0.7,0.4,1.5,0.7,2.3,1c0.6,0,1.8-1.5,1.8-2c0-0.2-0.2-0.3-0.5-0.4
		c-1.1-0.4-2.2-0.9-3.3-1.4c-0.4-0.2-0.8-0.5-0.8-0.5c0-0.1,0.1-0.1,0.3-0.1h0.9c1,0,2,0,2.9,0c0.4,0,0.5-0.1,0.5-0.8v-0.7
		c0-0.5,0-0.7-0.5-0.7c-1,0-1.9,0-2.9,0h-4c-0.2,0-0.3-0.1-0.3-0.3c0,0,0,0,0,0v0c0-0.2,0.1-0.3,0.3-0.3c0,0,0,0,0,0h2.2
		c0.8,0,1.7,0,2.5,0c0.5,0,0.5-0.2,0.5-0.7v-0.7c0-0.5,0-0.7-0.5-0.7c-0.8,0-1.6,0-2.5,0h-2.2c-0.2,0-0.3-0.1-0.3-0.3c0,0,0,0,0,0
		v-0.1c0-0.2,0.1-0.3,0.3-0.3c0,0,0,0,0,0h3c0.9,0,1.8,0,2.8,0c0.4,0,0.5-0.2,0.5-0.7v-0.8c0-0.4,0-0.6-0.5-0.6c-0.5,0-1,0-1.5,0
		h-0.8c-0.2,0-0.3-0.1-0.3-0.3c0,0,0,0,0,0c0-0.1,0-0.1,0.1-0.2c0.1-0.2,0.3-0.3,0.5-0.3c0.1,0,0.3-0.1,0.3-0.2c0-0.1,0-0.2,0.3-0.2
		c0.7,0,1.5,0,2.2,0c0.4,0,0.5-0.2,0.5-0.7v-0.8c0-0.5,0-0.7-0.5-0.7s-0.9,0-1.4,0c-0.2,0-0.3-0.1-0.3-0.3c0.2-0.4,0.4-0.8,0.7-1.2
		c0.1-0.1,0.2-0.2,0.4-0.3c0.1,0,0.3,0,0.3-0.2c0-0.2-0.3-0.3-0.5-0.4c-0.7-0.3-1.4-0.6-2.1-0.8C-1237.9,49.8-1237.9,49.9-1238,50
		L-1238,50z M-1228.6,57.1c-1,0-2.5-0.1-2.8-0.1c-0.5,0-0.6,0.2-0.6,1.1v1.2c0,0.6,0.1,1,0.7,1c0.5,0,1.7-0.1,2.7-0.1h3.4
		c0.2,0,0.4,0.2,0.4,0.4l0,0c-0.1,0.3-0.2,0.6-0.3,0.9c-0.9,1.8-2.4,3.2-4.2,4.1c-0.3,0.1-0.5,0.2-0.5,0.4c0,0.4,1.6,2.1,2.2,2.1
		c0.9-0.3,1.6-0.8,2.3-1.4c1.9-1.4,3.3-3.4,3.9-5.7c0.2-0.7,0.4-0.7,1.1-0.7h2.6c1,0,1.9,0,2.9,0c0.6,0,0.7-0.2,0.7-1.1v-1
		c0-0.9-0.1-1-0.6-1c-0.8,0-1.9,0-3,0h-2.4c-0.3,0-0.5-0.2-0.5-0.5c0,0,0,0,0-0.1v-1.2c0-0.5,0.1-0.7,0.7-0.8c0.8-0.2,2-0.6,2.8-0.8
		c0.2-0.1,0.5-0.1,0.7-0.2c0.1,0,0.1,0,0.2,0h0.2c0.1,0,0.3-0.1,0.3-0.2c0-0.1,0-0.2-0.1-0.2c-0.1-0.2-1.2-1.3-1.4-1.5
		c-0.2-0.2-0.9-0.9-1.1-0.9c-0.1,0-0.1,0-0.2,0.1c-1.9,1.2-6.4,1.6-8.6,1.6c-0.7,0-1.6-0.1-1.9-0.1c-0.3,0-0.4,0.1-0.4,0.3
		c0.1,0.7,0.2,1.5,0.5,2.2c0.2,0.5,0.3,0.6,0.9,0.6c0.8,0,2.5-0.1,3.3-0.2c0.2,0,0.3,0,0.5,0c0.4,0,0.5,0.4,0.5,0.6V56
		c0,0.7,0,1.1-0.6,1.1H-1228.6z M-1204.7,56.2c-0.8,0-1.9,0-2.2,0c-0.4,0-0.5,0.2-0.5,0.9V58c0,0.7,0.1,0.9,0.6,0.9
		c0.6,0,1.4,0,2.2,0h2.4c0.2,0,0.5,0,0.5,0.4c0,0,0,0.3,0,0.3l-0.3,2.8c0,0.3-0.3,0.5-0.6,0.5h-4.6c-0.7,0-1.9,0-2.2,0
		c-0.4,0-0.5,0.2-0.5,0.8v0.9c0,0.6,0,1,0.6,1c0.4,0,1.4,0,2.1,0h8.4c0.7,0,1.5,0,2.2,0c0.6,0,0.6-0.4,0.6-1v-0.8
		c0-0.7-0.1-0.9-0.6-0.9c-0.8,0-1.5,0-2.3,0h-0.1c-0.2,0-0.4-0.2-0.4-0.4v-0.1l0.4-3.3c0.2-1.4,0.3-1.4,0.3-1.7
		c0-0.2-0.1-0.4-0.3-0.5c-0.3-0.3-0.9-0.8-1.2-0.8c-0.1,0-0.2,0-0.3,0c-0.4,0-1.4,0-1.8,0L-1204.7,56.2z M-1187.6,57.2
		c-1.3,0-2.5-0.1-2.8-0.1c-0.5,0-0.6,0.3-0.6,0.9v1c0,1.1,0,1.5,0.7,1.5c0.8,0,1.8-0.1,2.7-0.1h9.7c0.9,0,1.9,0.1,2.7,0.1
		c0.7,0,0.7-0.4,0.7-1.5v-1c0-0.6-0.1-0.8-0.6-0.8c-0.2,0-1.5,0.1-2.8,0.1H-1187.6z"/>
	<path id="軽井沢店も_営業チュー_-_アウトライン" class="st0" d="M-1202.6,9.4c0.3,0,0.8,0.1,1.2,0.1l0.1,0l0.1,0
		c0.3,0,0.7,0,0.7,0.4c0,0.2-0.1,0.3-0.3,0.4l-0.1,0.1c-0.2,0.1-0.2,0.3-0.2,0.7v0.3c0,0.3,0.1,0.4,0.4,0.4h4.6c0.5,0,1,0,1.4,0
		c0.4,0,0.7,0,1,0c0.6,0,0.6,0.4,0.6,1s0,1-0.6,1c-0.3,0-0.7,0-1.1,0c-0.4,0-0.9,0-1.3,0h-11.3c-0.3,0-0.4,0.1-0.4,0.4v3.7
		c0.1,3.1-0.5,6.2-1.6,9.1c0,0,0,0.1-0.1,0.1c-0.3,0.7-0.6,1.4-1,1.4c-0.4,0-1.4-0.5-1.4-1c0.1-0.3,0.2-0.6,0.4-0.8
		c1.3-2.8,1.9-5.9,1.7-9v-2.9c0-0.3,0-0.6,0-0.9s0-0.6,0-0.9c0-1,0.6-1.1,1.3-1.1c0.3,0,0.7,0,1,0s0.7,0,1,0h3
		c0.3,0,0.4-0.1,0.4-0.4c0-0.4,0-0.9-0.1-1.3c0-0.1,0-0.2,0-0.2C-1203.1,9.4-1202.7,9.4-1202.6,9.4z M-1196,12.1h-4.6
		c-0.5,0-0.7-0.2-0.7-0.7v-0.3c0-0.4,0-0.7,0.3-0.9l0.1-0.1c0.1-0.1,0.1-0.1,0.1-0.1c0-0.1-0.3-0.1-0.5-0.1l-0.1,0h0l-0.1,0
		c-0.4,0-0.9-0.1-1.2-0.1c-0.2,0-0.2,0-0.2,0.1c0,0.1,0,0.1,0,0.2v0v0c0.1,0.5,0.1,0.9,0.1,1.4c0,0.3-0.2,0.7-0.6,0.7
		c0,0-0.1,0-0.1,0h-3c-0.3,0-0.7,0-1,0s-0.7,0-1,0c-0.7,0-1,0.1-1,0.8c0,0.3,0,0.6,0,0.9s0,0.6,0,0.9v2.9c0.1,3.2-0.5,6.3-1.8,9.2v0
		c-0.1,0.2-0.2,0.4-0.3,0.7c0,0.2,0.8,0.7,1.1,0.7c0,0,0.1,0,0.4-0.4c0.1-0.3,0.3-0.5,0.4-0.8c0-0.1,0-0.1,0.1-0.1
		c1.1-2.9,1.6-5.9,1.5-8.9v-3.7c0-0.4,0.2-0.7,0.6-0.7c0.1,0,0.1,0,0.2,0h11.3c0.4,0,0.9,0,1.3,0c0.4,0,0.8,0,1.1,0
		c0.3,0,0.3,0,0.3-0.7c0-0.7,0-0.7-0.3-0.7s-0.6,0-1,0C-1195,12.1-1195.5,12.1-1196,12.1z M-1270.4,9.6c0.2,0,0.5,0,0.8,0
		c0.1,0,0.1,0,0.2,0s0.1,0,0.1,0h0h0c0.4,0,0.8,0.1,0.8,0.4c0,0.2-0.1,0.3-0.3,0.4l-0.1,0c-0.2,0.1-0.2,0.2-0.2,1
		c0,0.3,0.1,0.4,0.4,0.4h0.4c0.3,0,0.7,0,1,0c0.3,0,0.7,0,1,0c0.6,0,0.6,0.4,0.6,0.9s0,0.9-0.6,0.9c-0.3,0-0.7,0-1,0
		c-0.3,0-0.7,0-1,0h-0.5c-0.3,0-0.4,0.1-0.4,0.4v0.7c0,0.3,0.1,0.4,0.4,0.4h0.5c0.2,0,0.4,0,0.6,0c0.2,0,0.4,0,0.6,0
		c0.5,0,1,0.1,1,0.9v2.2c0.1-0.3,0.4-0.4,0.6-0.5l0.1,0c1-0.5,1.9-1.1,2.8-1.7c0.1-0.1,0.2-0.2,0.2-0.3c0-0.1,0-0.2-0.1-0.3
		c-0.6-0.9-1.1-1.8-1.5-2.8c0-0.2-0.3-0.4-0.5-0.3h-0.5c-0.6,0-0.6-0.4-0.6-0.9c0-0.5,0-0.9,0.6-0.9c0.4,0,0.8,0,1.2,0s0.8,0,1.2,0
		h2.8c0.2,0,0.5,0,0.7,0s0.5,0,0.7,0c0.8,0,1.4,0.5,1.5,1.3c0,1-2,3.2-2.5,3.8l0,0.1c-0.1,0.1-0.1,0.1-0.1,0.2c0,0.1,0,0.2,0.2,0.3
		c0.9,0.7,2,1.3,3.1,1.8c0.2,0.1,0.6,0.2,0.6,0.6s-0.6,1.2-1.1,1.2c-0.2,0-0.5-0.1-0.7-0.2c-1.2-0.6-2.3-1.3-3.3-2.1
		c-0.1-0.1-0.2-0.1-0.3-0.2c-0.1,0-0.2,0.1-0.3,0.1c0,0-3,2.2-3.7,2.2c-0.5,0-0.9-0.6-1-1v2.9c0,0.8-0.6,0.9-1,0.9
		c-0.2,0-0.4,0-0.6,0c-0.2,0-0.4,0-0.6,0h-0.5c-0.3,0-0.4,0.1-0.4,0.4v0.6c0,0.3,0.1,0.4,0.4,0.4h0.7c0.3,0,0.7,0,1,0
		c0.3,0,0.7,0,1,0c0.6,0,0.6,0.4,0.6,0.9s0,0.9-0.6,0.9c-0.3,0-0.7,0-1,0c-0.3,0-0.7,0-1,0h-0.6c-0.3,0-0.4,0.1-0.4,0.4
		c0,0.4,0,0.8,0,1.2c0,0.3,0,0.6,0,0.9c0,0.7-0.3,0.8-1,0.8c-0.7,0-1-0.1-1-0.8c0-0.7,0-1.4,0-2.1v0c0-0.3-0.1-0.4-0.4-0.4h-0.6
		c-0.3,0-0.7,0-1,0c-0.3,0-0.7,0-1,0c-0.6,0-0.6-0.3-0.6-0.9c0-0.5,0-0.9,0.6-0.9c0.4,0,0.7,0,1,0c0.3,0,0.7,0,1,0h0.7
		c0.3,0,0.4-0.1,0.4-0.4v-0.6c0-0.3-0.1-0.4-0.4-0.4h-0.4c-0.2,0-0.4,0-0.5,0c-0.2,0-0.4,0-0.6,0c-0.5,0-1-0.1-1-0.9
		c0-0.1,0-0.3,0-0.4c0-0.1,0-0.3,0-0.4v-3.7c0-0.1,0-0.3,0-0.4s0-0.3,0-0.4c0-0.8,0.6-0.9,1-0.9c0.2,0,0.4,0,0.6,0
		c0.2,0,0.4,0,0.6,0h0.4c0.3,0,0.4-0.1,0.4-0.4V14c0-0.3-0.1-0.4-0.4-0.4h-0.4c-0.3,0-0.6,0-1,0s-0.7,0-1,0c-0.6,0-0.6-0.4-0.6-0.9
		c0-0.5,0-0.9,0.6-0.9c0.3,0,0.7,0,1,0c0.3,0,0.7,0,1,0h0.3c0.3,0,0.4-0.1,0.4-0.4v0c0-0.4,0-0.9-0.1-1.3c0-0.1,0-0.1,0-0.2
		C-1270.9,9.8-1270.8,9.6-1270.4,9.6L-1270.4,9.6z M-1269.4,10c0,0-0.1,0-0.1,0c0,0-0.1,0-0.1,0h0c-0.2,0-0.6,0-0.7,0
		c-0.2,0-0.2,0-0.2,0.1c0,0,0,0.1,0,0.1l0,0c0.1,0.5,0.1,0.9,0.1,1.4c0,0.5-0.2,0.7-0.7,0.7h-0.3c-0.3,0-0.7,0-1,0c-0.3,0-0.7,0-1,0
		c-0.3,0-0.3,0-0.3,0.6c0,0.6,0,0.6,0.3,0.6c0.3,0,0.7,0,1,0s0.7,0,1,0h0.4c0.3,0,0.6,0.2,0.7,0.5c0,0.1,0,0.1,0,0.2v0.7
		c0,0.3-0.2,0.6-0.5,0.7c-0.1,0-0.1,0-0.2,0h-0.4c-0.2,0-0.4,0-0.6,0c-0.2,0-0.4,0-0.6,0c-0.5,0-0.7,0.2-0.7,0.6c0,0.1,0,0.3,0,0.4
		s0,0.3,0,0.4v3.7c0,0.1,0,0.3,0,0.4s0,0.3,0,0.4c0,0.5,0.2,0.6,0.7,0.6c0.2,0,0.4,0,0.6,0c0.2,0,0.4,0,0.5,0h0.4
		c0.3,0,0.6,0.2,0.7,0.5c0,0.1,0,0.1,0,0.2v0.6c0,0.3-0.2,0.6-0.5,0.7c-0.1,0-0.1,0-0.2,0h-0.7c-0.3,0-0.7,0-1,0c-0.3,0-0.7,0-1,0
		c-0.3,0-0.3,0-0.3,0.6c0,0.6,0,0.6,0.3,0.6c0.3,0,0.7,0,1,0c0.3,0,0.7,0,1,0h0.6c0.5,0,0.7,0.2,0.7,0.7v0v0.1c0,0.7,0,1.4,0,2.1
		c0,0.5,0.1,0.5,0.7,0.5c0.6,0,0.7,0,0.7-0.5c0-0.3,0-0.6,0-0.9c0-0.4,0-0.8,0-1.2c0-0.3,0.2-0.7,0.5-0.7c0.1,0,0.1,0,0.2,0h0.6
		c0.3,0,0.7,0,1,0c0.3,0,0.7,0,1,0c0.3,0,0.3,0,0.3-0.6c0-0.6,0-0.6-0.3-0.6c-0.3,0-0.7,0-1,0s-0.7,0-1,0h-0.7
		c-0.3,0-0.6-0.2-0.7-0.5c0-0.1,0-0.1,0-0.2v-0.6c0-0.3,0.2-0.6,0.5-0.7c0.1,0,0.1,0,0.2,0h0.5c0.2,0,0.4,0,0.6,0c0.2,0,0.4,0,0.6,0
		c0.5,0,0.7-0.2,0.7-0.6v-5.4c0-0.5-0.2-0.6-0.7-0.6c-0.2,0-0.4,0-0.6,0c-0.2,0-0.4,0-0.6,0h-0.5c-0.3,0-0.6-0.2-0.7-0.5
		c0-0.1,0-0.1,0-0.2V14c0-0.3,0.2-0.6,0.5-0.7c0.1,0,0.1,0,0.2,0h0.5c0.3,0,0.7,0,1,0s0.7,0,1,0c0.3,0,0.3,0,0.3-0.6s0-0.6-0.3-0.6
		c-0.3,0-0.7,0-1,0s-0.7,0-1,0h-0.4c-0.4,0-0.7-0.2-0.7-0.6c0,0,0-0.1,0-0.1v0c0-0.8,0-1.1,0.3-1.3l0.1,0c0.1-0.1,0.1-0.1,0.1-0.1
		C-1268.7,10-1269,10-1269.4,10L-1269.4,10z M-1259.7,10.7h-2.8c-0.4,0-0.8,0-1.2,0c-0.4,0-0.8,0-1.2,0c-0.3,0-0.3,0-0.3,0.6
		c0,0.6,0,0.6,0.3,0.6h0.5c0.3,0,0.7,0.2,0.7,0.5c0.4,1,0.8,1.9,1.4,2.7c0.1,0.1,0.2,0.3,0.2,0.5c0,0.2-0.1,0.4-0.3,0.5h0
		c-0.9,0.6-1.8,1.2-2.8,1.7h0l-0.1,0c-0.2,0.1-0.5,0.2-0.5,0.4c0,0.3,0.4,0.9,0.7,0.9c1.3-0.6,2.4-1.3,3.5-2.1
		c0.1-0.1,0.3-0.2,0.5-0.2c0.2,0,0.4,0.1,0.5,0.2c1,0.8,2.1,1.5,3.2,2.1h0c0.2,0.1,0.4,0.2,0.6,0.2c0.2,0,0.8-0.7,0.8-0.9
		c0-0.2-0.2-0.3-0.4-0.3c-1.1-0.5-2.2-1.1-3.1-1.8l0,0c-0.2-0.1-0.3-0.3-0.3-0.5c0-0.1,0.1-0.3,0.2-0.4l0-0.1l0,0
		c0.9-0.9,2.5-2.8,2.5-3.6c-0.1-0.6-0.6-1.1-1.2-1c-0.2,0-0.4,0-0.7,0S-1259.4,10.7-1259.7,10.7L-1259.7,10.7z M-1247.6,9.7
		c0.3,0,1.3,0.1,1.7,0.1c0.4,0.1,0.5,0.3,0.5,0.4c0,0.2-0.1,0.3-0.3,0.4c0,0-0.1,0-0.1,0.1l0,0c-0.2,0.1-0.2,0.2-0.2,1v1.8
		c0,0.3,0.1,0.4,0.4,0.4h3.4c0.3,0,0.4-0.1,0.4-0.4v-1.2c0-0.6,0-1.2-0.1-1.9c0-0.1,0-0.2,0-0.2c0-0.2,0.1-0.4,0.5-0.4
		c0.3,0,0.9,0,1.3,0.1l0.3,0h0c0.2,0,0.6,0.1,0.6,0.4c0,0.2-0.1,0.3-0.3,0.4l-0.1,0h0c-0.2,0.1-0.2,0.4-0.2,1v1.8
		c0,0.3,0.1,0.4,0.4,0.4h0.9c0.4,0,0.8,0,1.3,0s0.8,0,1.3,0c0.6,0,0.6,0.4,0.6,1c0,0.7,0,1-0.6,1c-0.4,0-0.8,0-1.3,0
		c-0.4,0-0.8,0-1.3,0h-0.9c-0.3,0-0.4,0.1-0.4,0.4v3.2c0,0.3,0.1,0.4,0.4,0.4h1.4c0.4,0,0.9,0,1.3,0s0.9,0,1.3,0
		c0.6,0,0.6,0.4,0.6,1s0,1-0.6,1c-0.4,0-0.9,0-1.3,0c-0.4,0-0.8,0-1.3,0h-1.4c-0.3,0-0.4,0.1-0.4,0.4v2.4c0,0.5,0,1,0,1.6s0,1,0,1.6
		c0,0.8-0.3,0.8-1.1,0.8c-0.7,0-1.1-0.1-1.1-0.8c0-0.5,0-1,0-1.5c0-0.5,0-1,0-1.6v-2.4c0-0.3-0.1-0.4-0.4-0.4h-3.8
		c-0.4,0-0.5,0.1-0.5,0.4c-0.6,2.4-2.2,4.5-4.3,5.8l-0.1,0.1c-0.2,0.2-0.5,0.3-0.8,0.4c-0.5,0-1.2-0.8-1.2-1.3
		c0-0.3,0.3-0.4,0.5-0.6c0,0,0.1,0,0.1-0.1c1.8-0.9,3.1-2.5,3.7-4.4v0l0,0c0,0,0-0.1,0-0.1c0-0.1,0-0.2-0.3-0.2h-1.4
		c-0.4,0-0.8,0-1.3,0s-0.9,0-1.3,0c-0.6,0-0.6-0.4-0.6-1s0-1,0.6-1c0.4,0,0.9,0,1.3,0c0.4,0,0.8,0,1.3,0h1.7c0.3,0,0.4-0.1,0.5-0.4
		c0.1-0.7,0.1-1.6,0.1-2.5v-0.7c0-0.3-0.1-0.4-0.4-0.4h-1.2c-0.4,0-0.8,0-1.3,0s-0.8,0-1.3,0c-0.6,0-0.6-0.4-0.6-1s0-1,0.6-1
		c0.4,0,0.8,0,1.3,0c0.4,0,0.8,0,1.3,0h1.2c0.3,0,0.4-0.1,0.4-0.4V12c0-0.6,0-1.2-0.1-1.7v0c0,0,0-0.1,0-0.1c0,0,0-0.1,0-0.1
		C-1248.1,9.8-1248,9.7-1247.6,9.7L-1247.6,9.7z M-1246,10.4c0,0,0.1,0,0.1-0.1c0.1-0.1,0.1-0.1,0.1-0.1c0-0.1-0.1-0.1-0.2-0.1
		c-0.3,0-1.3-0.1-1.6-0.1c-0.2,0-0.2,0.1-0.2,0.1c0,0,0,0.1,0,0.1c0,0,0,0.1,0,0.1c0,0.5,0.1,1.1,0.1,1.7v1.4c0,0.4-0.2,0.7-0.6,0.7
		c-0.1,0-0.1,0-0.2,0h-1.2c-0.4,0-0.8,0-1.3,0c-0.4,0-0.8,0-1.3,0c-0.3,0-0.3,0-0.3,0.7s0,0.7,0.3,0.7c0.4,0,0.8,0,1.3,0
		s0.8,0,1.3,0h1.2c0.4-0.1,0.7,0.2,0.7,0.5c0,0.1,0,0.1,0,0.2v0.7c0,1,0,1.8-0.1,2.6c0,0.4-0.3,0.7-0.7,0.7c0,0-0.1,0-0.1,0h-1.7
		c-0.4,0-0.9,0-1.3,0c-0.4,0-0.9,0-1.3,0c-0.3,0-0.3,0-0.3,0.7c0,0.7,0,0.7,0.3,0.7c0.4,0,0.9,0,1.3,0c0.4,0,0.9,0,1.3,0h1.4
		c0.6,0,0.6,0.4,0.6,0.5c0,0.1,0,0.1,0,0.2c-0.6,2-2,3.7-3.9,4.6c0,0-0.1,0-0.1,0.1c-0.2,0.1-0.4,0.2-0.4,0.3c0,0.3,0.6,1,0.9,1
		c0.2-0.1,0.5-0.2,0.7-0.3l0.1-0.1c2.1-1.2,3.6-3.3,4.2-5.6c0-0.4,0.4-0.7,0.8-0.7c0,0,0,0,0,0h3.8c0.4-0.1,0.7,0.2,0.7,0.5
		c0,0.1,0,0.1,0,0.2v2.4c0,0.5,0,1.1,0,1.6s0,1,0,1.5c0,0.5,0.1,0.5,0.8,0.5s0.8,0,0.8-0.5c0-0.5,0-1,0-1.6s0-1,0-1.6v-2.3
		c0-0.5,0.2-0.7,0.7-0.7h1.4c0.4,0,0.9,0,1.3,0c0.4,0,0.8,0,1.3,0c0.3,0,0.3,0,0.3-0.7c0-0.7,0-0.7-0.3-0.7c-0.4,0-0.9,0-1.3,0
		s-0.9,0-1.3,0h-1.4c-0.4,0.1-0.7-0.2-0.7-0.5c0-0.1,0-0.1,0-0.2v-3.2c0-0.5,0.2-0.7,0.7-0.7h0.9c0.4,0,0.9,0,1.3,0
		c0.4,0,0.8,0,1.3,0c0.3,0,0.3,0,0.3-0.7c0-0.7,0-0.7-0.3-0.7c-0.4,0-0.8,0-1.3,0s-0.8,0-1.3,0h-0.9c-0.5,0-0.7-0.2-0.7-0.7v-1.8
		c0-0.7,0-1.1,0.3-1.3l0.1,0c0.1,0,0.1-0.1,0.1-0.1c0-0.1-0.1-0.1-0.3-0.1h0l-0.3,0c-0.4,0-1-0.1-1.2-0.1c-0.2,0-0.2,0.1-0.2,0.1
		c0,0.1,0,0.1,0,0.2l0,0c0.1,0.6,0.1,1.3,0.1,1.9v1.2c0,0.4-0.2,0.7-0.6,0.7c-0.1,0-0.1,0-0.2,0h-3.4c-0.5,0-0.7-0.2-0.7-0.7v-1.8
		C-1246.3,10.9-1246.3,10.5-1246,10.4L-1246,10.4z M-1230,9.9c0.8,0.3,1.5,0.8,2.2,1.3l0.1,0.1c0.7,0.5,1.2,0.9,1.2,1.2
		c0,0.4-0.6,1.2-1.1,1.2c-0.2,0-0.4-0.1-0.6-0.3l-0.1-0.1c-0.7-0.5-1.5-1.1-2.3-1.6l0,0c-0.2-0.1-0.4-0.3-0.4-0.6
		C-1231.1,10.8-1230.4,9.9-1230,9.9z M-1227.7,13.3c0.2,0,0.8-0.6,0.8-0.9c0-0.1-0.1-0.3-1-0.9l-0.1-0.1c-0.6-0.5-1.3-0.9-2-1.2
		c-0.2,0-0.7,0.7-0.7,0.9c0,0.1,0.2,0.2,0.3,0.3l0,0c0.8,0.5,1.5,1,2.3,1.6l0.1,0.1C-1228,13.2-1227.8,13.2-1227.7,13.3
		L-1227.7,13.3z M-1182.1,9.9c0.4,0.1,0.7,0.2,1.1,0.4l0.1,0c0.4,0.1,1,0.3,1,0.7c0,0.2-0.2,0.3-0.4,0.4c0,0-0.1,0-0.1,0.1
		c-0.5,0.7-0.8,1.5-1,2.4c0,0,0,0.1,0,0.1c0,0,0,0.1,0,0.1c0,0.1,0.1,0.3,0.4,0.3c0.8,0.1,1.5,0.2,2.3,0.2h0.1c0.3,0,0.8,0,0.8,0.5
		c0,0.4-0.1,0.8-0.2,1.2c0,0.3-0.3,0.5-0.5,0.5c-0.7,0-2.6-0.3-3-0.4l0,0c-0.1,0-0.1,0-0.2,0c-0.3,0-0.3,0.2-0.4,0.4l0,0
		c-0.2,0.7-0.3,1.4-0.5,2.1c0,0.2,0.1,0.3,0.5,0.3l0.1,0c0.7,0.1,1.4,0.1,2.1,0.1c0.3,0,0.7,0,0.7,0.5c0,0.4-0.1,0.8-0.3,1.1
		c-0.1,0.3-0.2,0.5-0.6,0.5c-0.7,0-1.5-0.1-2.2-0.2c-0.1,0-0.1,0-0.2,0c0,0-0.1,0-0.1,0c-0.4,0-0.5,0.1-0.5,1.4c0,2,0.9,3,2.9,3
		c1.1,0.1,2.3-0.3,3.1-1c0.4-0.4,0.5-1,0.5-1.5c-0.1-1.1-0.3-2.1-0.7-3.1c-0.1-0.1-0.1-0.3-0.1-0.4c0-0.6,1.4-0.8,1.6-0.8
		c0.4,0,0.5,0.3,0.6,0.6l0,0.1c0.5,1.2,0.7,2.5,0.8,3.9c0,1.4-0.7,2.7-1.9,3.4c-1.2,0.7-2.5,1-3.9,1c-1.4,0.1-2.9-0.4-3.9-1.5
		c-0.7-0.9-1.1-2.1-1.1-3.3c0-0.4,0.1-1.1,0.1-1.7V21c0-0.3-0.2-0.4-0.7-0.5c-0.1,0-0.1,0-0.2-0.1c-0.4-0.2-0.9-0.3-1.3-0.6l0,0
		c-0.2-0.1-0.4-0.2-0.4-0.6c0,0,0.1-1.6,0.7-1.6c0.2,0,0.4,0.1,0.6,0.2c0.5,0.3,1,0.5,1.5,0.6c0.2,0,0.2-0.2,0.4-0.9
		c0.1-0.4,0.2-0.8,0.3-1.3l0,0c0-0.1,0.1-0.2,0.1-0.3c0-0.3-0.2-0.4-0.5-0.5l0,0l-0.2-0.1c-0.5-0.2-1.1-0.4-1.5-0.6
		c-0.3-0.1-0.4-0.3-0.4-0.6c0-0.3,0.3-1.6,0.8-1.6c0.3,0.1,0.5,0.2,0.8,0.4l0.1,0c0.5,0.3,1,0.5,1.5,0.7c0.2,0,0.2-0.1,0.3-0.3
		c0,0,0-0.1,0-0.1c0.1-0.5,0.3-1.1,0.5-1.6c0.1-0.4,0.3-0.9,0.4-1.3v0c0,0,0-0.1,0-0.1C-1182.5,10.2-1182.4,9.9-1182.1,9.9z
		 M-1178.8,15c-0.8,0-1.5-0.1-2.3-0.2c-0.4-0.1-0.7-0.3-0.7-0.6c0-0.1,0-0.1,0-0.2c0,0,0-0.1,0-0.1v0c0.2-0.7,0.7-2.3,1.2-2.6
		c0,0,0.1,0,0.1-0.1c0.1-0.1,0.2-0.1,0.2-0.2c0-0.1-0.3-0.2-0.8-0.4l-0.1,0c-0.3-0.2-0.6-0.3-1-0.3c-0.1,0-0.1,0-0.1,0.2
		c0,0,0,0.1,0,0.1c-0.1,0.4-0.3,0.9-0.4,1.3c-0.2,0.5-0.3,1.1-0.5,1.6v0c0,0,0,0,0,0.1c-0.1,0.2-0.2,0.6-0.6,0.6
		c-0.6-0.2-1.2-0.4-1.7-0.7l-0.1,0c-0.2-0.1-0.4-0.2-0.6-0.3c0,0-0.2,0.1-0.3,0.5c-0.1,0.2-0.1,0.5-0.2,0.8c0,0.2,0.1,0.2,0.3,0.3
		c0.3,0.2,1,0.4,1.4,0.6l0.2,0.1l0,0c0.3,0.1,0.7,0.3,0.7,0.8c0,0.1,0,0.3-0.1,0.4c-0.1,0.5-0.2,0.9-0.3,1.3
		c-0.2,0.8-0.2,1.2-0.7,1.2c-0.6-0.1-1.1-0.4-1.7-0.7l0,0c-0.1-0.1-0.2-0.2-0.4-0.2c0,0-0.2,0.1-0.3,0.5c-0.1,0.2-0.1,0.5-0.1,0.7
		c0,0.1,0.1,0.2,0.3,0.3l0,0c0.4,0.2,0.8,0.4,1.2,0.5c0.1,0,0.1,0,0.2,0.1c0.4,0.1,0.9,0.2,0.9,0.8v0.2c0,0.6-0.1,1.3-0.1,1.7
		c0,1.1,0.4,2.2,1.1,3.1c0.9,1,2.3,1.5,3.6,1.4c2.6,0,5.5-1.1,5.5-4.1c0-1.3-0.3-2.5-0.7-3.7l0-0.1c-0.1-0.3-0.2-0.4-0.3-0.4
		c-0.3,0-0.5,0.1-0.8,0.2c-0.4,0.1-0.5,0.3-0.5,0.3c0,0.1,0,0.2,0.1,0.3c0.5,1,0.7,2.1,0.8,3.2c0.1,0.6-0.2,1.3-0.6,1.7
		c-0.9,0.8-2.1,1.2-3.4,1.1c-2.1,0-3.2-1.1-3.2-3.3c0-1.1,0-1.7,0.8-1.7c0.1,0,0.1,0,0.2,0c0.1,0,0.1,0,0.2,0h0
		c0.7,0.1,1.5,0.2,2.2,0.2c0.2,0,0.2,0,0.3-0.3v0c0.1-0.3,0.2-0.7,0.2-1c0-0.1,0-0.2-0.4-0.2c-0.7,0-1.4,0-2.1-0.1l-0.1,0
		c-0.3,0-0.7-0.1-0.7-0.6c0.1-0.8,0.3-1.5,0.5-2.2l0,0c0-0.3,0.3-0.6,0.7-0.6c0.1,0,0.2,0,0.2,0c1,0.2,1.9,0.3,2.9,0.4
		c0.1,0,0.2,0,0.3-0.2v0c0.1-0.3,0.2-0.7,0.2-1.1c0-0.2,0-0.2-0.5-0.2L-1178.8,15z M-1223.9,10.4c0.2,0,0.5,0,0.7,0
		c0.2,0,0.5,0,0.7,0h5.2c0.2,0,0.5,0,0.7,0s0.5,0,0.7,0c0.8,0,1.3,0.2,1.3,1.1c0,0.3,0,0.6,0,0.9s0,0.6,0,0.9v2.4c0,0.3,0,0.6,0,0.9
		s0,0.6,0,0.9c0,0.7-0.3,0.9-1,0.9c-0.3,0-0.6,0-0.8-0.2l0,0c-0.1-0.1-0.1-0.1-0.2-0.1h-1.3c-0.1,0-0.2,0-0.3,0.1
		c-0.1,0.1-0.1,0.2-0.1,0.3c0,1.9,0.6,3.7,1.6,5.3c0.7,1.2,1.7,2.2,2.8,3c0.2,0.1,0.3,0.3,0.3,0.5c-0.1,0.6-0.6,1.1-1.3,1.2
		c-0.7,0-2.6-2.4-2.7-2.4c-1.7-2.2-2.6-4.9-2.7-7.6c0-0.3-0.1-0.4-0.5-0.4h-1.9c-0.3,0-0.4,0.1-0.4,0.4c-0.1,3-0.9,5.9-2.3,8.5
		c-0.9,1.4-1.3,1.6-1.5,1.6c-0.4,0-1.3-0.6-1.3-1.1c0-0.2,0.3-0.7,0.5-0.8c1.8-2.3,2.7-5.5,2.7-9.6v-3.7c0-0.3,0-0.6,0-0.8
		s0-0.6,0-0.9C-1225.1,10.6-1224.7,10.4-1223.9,10.4L-1223.9,10.4z M-1217.3,10.7h-5.2c-0.2,0-0.5,0-0.7,0c-0.2,0-0.5,0-0.7,0
		c-0.8,0-1,0.2-1,0.9c0,0.3,0,0.6,0,0.8s0,0.6,0,0.9V17c0,4.2-0.9,7.3-2.8,9.8v0c-0.2,0.2-0.3,0.4-0.4,0.6c0,0.3,0.7,0.8,1,0.8
		c0.1,0,0.4-0.1,1.3-1.4c1.4-2.6,2.2-5.4,2.2-8.3c0-0.4,0.2-0.7,0.6-0.7c0.1,0,0.1,0,0.2,0h1.9c0.4-0.1,0.7,0.2,0.8,0.6
		c0,0.1,0,0.1,0,0.2c0.1,2.7,1,5.3,2.6,7.5c0.7,0.8,2.1,2.3,2.4,2.3c0.3,0,1-0.6,1-0.9c0-0.1-0.1-0.1-0.2-0.2
		c-1.2-0.8-2.2-1.9-2.9-3.1c-1.1-1.6-1.6-3.5-1.7-5.5c0-0.2,0-0.4,0.2-0.5c0.1-0.1,0.3-0.2,0.5-0.2h1.4c0.2,0,0.3,0.1,0.4,0.2
		c0.2,0.1,0.4,0.2,0.6,0.1c0.6,0,0.7-0.1,0.7-0.6c0-0.3,0-0.6,0-0.9s0-0.6,0-0.9v-2.4c0-0.3,0-0.6,0-0.9s0-0.6,0-0.9
		c0-0.6-0.2-0.8-1-0.8c-0.2,0-0.5,0-0.7,0C-1216.8,10.7-1217.1,10.7-1217.3,10.7L-1217.3,10.7z M-1261.8,11.8h2.2
		c0.3,0,0.7,0,0.7,0.3c0,0.5-1.5,2.1-1.5,2.2l0,0c-0.1,0.1-0.3,0.2-0.5,0.2c-0.2,0-0.4-0.1-0.5-0.3l0,0c-0.4-0.5-0.7-1.1-1-1.7
		c0-0.1-0.1-0.2-0.1-0.2C-1262.4,12-1262.2,11.9-1261.8,11.8L-1261.8,11.8z M-1259.2,12.2c-0.1,0-0.3,0-0.4,0h-2.2
		c-0.2,0-0.3,0.1-0.3,0.2c0,0,0,0.1,0,0.1c0.3,0.6,0.6,1.1,1,1.7c0.1,0.1,0.1,0.1,0.2,0.2c0.1,0,0.2-0.1,0.3-0.1
		C-1260,13.5-1259.5,12.9-1259.2,12.2L-1259.2,12.2z M-1222.7,12h5.6c0.4-0.1,0.7,0.2,0.7,0.5c0,0.1,0,0.1,0,0.2v3
		c0,0.5-0.3,0.7-0.8,0.7h-5.6c-0.5,0-0.7-0.2-0.7-0.7v-3C-1223.5,12.2-1223.2,12-1222.7,12z M-1217.1,16.1c0.3,0,0.5-0.1,0.5-0.4v-3
		c0-0.3-0.1-0.4-0.4-0.4h-5.6c-0.3,0-0.4,0.1-0.4,0.4v3c0,0.3,0.1,0.4,0.4,0.4H-1217.1z M-1201.7,13.9c0.2,0,0.5,0,0.8,0.1
		c0.2,0,0.4,0,0.5,0h0c0.3,0,0.8,0.1,0.8,0.4c0,0.2-0.1,0.3-0.3,0.4l-0.1,0c-0.1,0.1-0.2,0.2-0.2,1v0.3c0,0.3,0.1,0.4,0.4,0.4h3.1
		c0.4,0,0.8,0,1.1,0s0.8,0,1.1,0c0.6,0,0.6,0.4,0.6,0.9c0,0.6,0,0.9-0.6,0.9c-0.4,0-0.8,0-1.1,0s-0.8,0-1.1,0h-3.1
		c-0.3,0-0.4,0.1-0.4,0.4v1.5c0,0.3,0.1,0.4,0.4,0.4h2.1c0.2,0,0.5,0,0.8,0c0.2,0,0.5,0,0.8,0c0.4,0,1.3,0,1.3,1c0,0.2,0,0.4,0,0.6
		c0,0.2,0,0.4,0,0.6v3.9c0,0.2,0,0.4,0,0.6c0,0.2,0,0.4,0,0.7c0,0.6-0.4,0.6-1,0.6c-0.6,0-1,0-1-0.6c0-0.1,0-0.1,0-0.2
		c0-0.1,0-0.1,0-0.2c0-0.2-0.1-0.3-0.3-0.3h-7.3c-0.2,0-0.3,0-0.3,0.2c0,0.1,0,0.2,0,0.3c0,0.6-0.4,0.6-1,0.6c-0.6,0-1,0-1-0.6
		c0-0.2,0-0.4,0-0.6c0-0.2,0-0.4,0-0.6v-3.9c0-0.2,0-0.4,0-0.6c0-0.2,0-0.4,0-0.6c0-1,0.9-1,1.3-1c0.3,0,0.5,0,0.8,0s0.5,0,0.8,0
		h1.2c0.3,0,0.4-0.1,0.4-0.4V16c0-0.5,0-1-0.1-1.5c0-0.1,0-0.2,0-0.2C-1202.2,14-1202,13.9-1201.7,13.9z M-1196.5,16.8h-3.1
		c-0.4,0-0.7-0.2-0.7-0.6c0,0,0-0.1,0-0.1v-0.3c0-0.8,0-1,0.3-1.2l0.1,0c0.1-0.1,0.1-0.1,0.1-0.1c0-0.1-0.4-0.1-0.5-0.1h0
		c-0.1,0-0.3,0-0.5,0c-0.3,0-0.6-0.1-0.8-0.1s-0.2,0-0.2,0.1c0,0.1,0,0.1,0,0.2l0,0c0.1,0.5,0.1,1,0.1,1.5v4.1
		c0,0.4-0.2,0.7-0.6,0.7c-0.1,0-0.1,0-0.2,0h-1.2c-0.3,0-0.5,0-0.8,0c-0.3,0-0.5,0-0.8,0c-0.7,0-1,0.1-1,0.7c0,0.2,0,0.4,0,0.6
		c0,0.2,0,0.4,0,0.6v3.9c0,0.2,0,0.4,0,0.7c0,0.2,0,0.4,0,0.6c0,0.2,0,0.3,0.7,0.3c0.7,0,0.7-0.1,0.7-0.3c0-0.1,0-0.2,0-0.3v0v0
		c0-0.3,0.2-0.5,0.5-0.5c0,0,0.1,0,0.1,0h7.3c0.3,0,0.5,0.2,0.6,0.4c0,0,0,0.1,0,0.1v0c0,0.1,0,0.1,0,0.2c0,0.1,0,0.1,0,0.2
		c0,0.2,0,0.3,0.7,0.3c0.7,0,0.7-0.1,0.7-0.3s0-0.4,0-0.6c0-0.2,0-0.4,0-0.6v-3.9c0-0.2,0-0.4,0-0.6c0-0.2,0-0.4,0-0.6
		c0-0.5-0.3-0.7-1-0.7c-0.2,0-0.5,0-0.8,0c-0.2,0-0.5,0-0.8,0h-2.1c-0.4,0.1-0.7-0.2-0.7-0.5c0-0.1,0-0.1,0-0.2v-1.5
		c0-0.4,0.2-0.7,0.6-0.7c0.1,0,0.1,0,0.2,0h3.1c0.4,0,0.8,0,1.1,0s0.8,0,1.1,0c0.3,0,0.3,0,0.3-0.6c0-0.6,0-0.6-0.3-0.6
		c-0.4,0-0.8,0-1.1,0S-1196.1,16.8-1196.5,16.8z M-1231.3,14.4c0.8,0.4,1.6,0.8,2.3,1.4l0.2,0.1c0.6,0.4,1,0.8,1,1.1
		c0,0.4-0.6,1.2-1.1,1.2c-0.2,0-0.4-0.1-0.5-0.3c-0.8-0.6-1.7-1.2-2.5-1.7l-0.1-0.1c-0.2-0.1-0.4-0.2-0.4-0.5
		C-1232.4,15.3-1231.8,14.4-1231.3,14.4z M-1228.9,17.9c0.3,0,0.8-0.6,0.8-0.9c0-0.2-0.7-0.7-0.9-0.8l-0.2-0.1
		c-0.7-0.5-1.4-1-2.1-1.3c-0.2,0-0.7,0.7-0.7,0.9c0,0.1,0.1,0.2,0.3,0.3l0.1,0.1c0.8,0.5,1.7,1.1,2.5,1.7l0,0
		C-1229.1,17.9-1229,17.9-1228.9,17.9z M-1245.6,15.5h3.4c0.4-0.1,0.7,0.2,0.7,0.5c0,0.1,0,0.1,0,0.2v3.2c0,0.4-0.2,0.7-0.6,0.7
		c-0.1,0-0.1,0-0.2,0h-3.6c-0.2,0-0.4,0-0.5-0.2c-0.1-0.1-0.2-0.3-0.2-0.5c0-0.8,0.1-1.6,0.1-2.4v-0.8
		C-1246.3,15.7-1246.1,15.5-1245.6,15.5z M-1242.2,19.8c0.3,0,0.4-0.1,0.4-0.4v-3.2c0-0.3-0.1-0.4-0.4-0.4h-3.4
		c-0.3,0-0.4,0.1-0.4,0.4V17c0,0.8,0,1.7-0.1,2.5c0,0.1,0,0.2,0.1,0.3c0.1,0.1,0.2,0.1,0.3,0.1L-1242.2,19.8z M-1271.6,16.3h0.6
		c0.3,0,0.6,0.3,0.7,0.6c0,0,0,0,0,0v0.5c0,0.3-0.3,0.6-0.6,0.7c0,0,0,0,0,0h-0.6c-0.3,0-0.6-0.3-0.7-0.6c0,0,0,0,0,0V17
		C-1272.3,16.6-1272,16.3-1271.6,16.3C-1271.7,16.3-1271.7,16.3-1271.6,16.3z M-1271.1,17.8c0.2,0,0.3-0.1,0.4-0.3c0,0,0,0,0,0V17
		c0-0.2-0.1-0.3-0.3-0.4c0,0,0,0,0,0h-0.6c-0.2,0-0.3,0.1-0.4,0.3c0,0,0,0,0,0v0.5c0,0.2,0.1,0.3,0.3,0.4c0,0,0,0,0,0H-1271.1z
		 M-1268.7,16.3h0.6c0.4,0,0.7,0.3,0.7,0.6c0,0,0,0,0,0v0.5c0,0.4-0.3,0.6-0.6,0.7c0,0,0,0,0,0h-0.6c-0.4,0-0.7-0.3-0.7-0.6
		c0,0,0,0,0,0V17C-1269.4,16.6-1269.1,16.3-1268.7,16.3C-1268.7,16.3-1268.7,16.3-1268.7,16.3z M-1268.1,17.8c0.2,0,0.4-0.1,0.4-0.3
		c0,0,0,0,0,0V17c0-0.2-0.1-0.3-0.3-0.4c0,0,0,0,0,0h-0.6c-0.2,0-0.4,0.1-0.4,0.3c0,0,0,0,0,0v0.5c0,0.2,0.1,0.3,0.3,0.4
		c0,0,0,0,0,0H-1268.1z M-1261.5,18.5c0.2,0,0.7,0,1.1,0.1c0.2,0,0.3,0,0.4,0l0,0c0.2,0,0.5,0.1,0.5,0.4c0,0.2-0.2,0.3-0.3,0.4l0,0
		c-0.2,0.1-0.2,0.3-0.2,1V21c0,0.3,0.1,0.4,0.4,0.4h0.6c0.3,0,0.7,0,1,0c0.3,0,0.7,0,1,0c0.2,0,0.3,0,0.4,0.1
		c0.2,0.2,0.2,0.4,0.2,0.7v0.1c0,0.3,0,0.6-0.2,0.7c-0.1,0.1-0.3,0.2-0.4,0.1c-0.3,0-0.6,0-1,0s-0.7,0-1,0h-0.6
		c-0.3,0-0.4,0.1-0.4,0.4v1.9c0,0.3,0.1,0.4,0.4,0.4h0.8c0.4,0,0.8,0,1.2,0c0.4,0,0.8,0,1.2,0c0.7,0,0.7,0.4,0.7,1s0,1-0.7,1
		c-0.4,0-0.8,0-1.2,0s-0.8,0-1.2,0h-4.4c-0.4,0-0.8,0-1.2,0s-0.8,0-1.2,0c-0.7,0-0.7-0.4-0.7-1s0-1,0.7-1c0.4,0,0.8,0,1.2,0
		s0.8,0,1.2,0h0.8c0.3,0,0.4-0.1,0.4-0.4v-2c0-0.3-0.1-0.4-0.4-0.4h-0.3c-0.3,0-0.7,0-1,0c-0.3,0-0.7,0-1,0c-0.6,0-0.6-0.4-0.6-0.9
		c0-0.5,0-0.9,0.6-0.9c0.3,0,0.7,0,1,0c0.3,0,0.7,0,1,0h0.3c0.3,0,0.4-0.1,0.4-0.4v-0.5c0-0.5,0-0.9-0.1-1.4c0-0.1,0-0.2,0-0.2
		C-1262,18.8-1261.9,18.5-1261.5,18.5L-1261.5,18.5z M-1260,18.9c-0.1,0-0.2,0-0.4,0c-0.4,0-0.9-0.1-1.1-0.1c-0.2,0-0.2,0.1-0.2,0.1
		c0,0.1,0,0.1,0,0.2v0v0c0.1,0.5,0.1,1,0.1,1.4V21c0.1,0.4-0.2,0.7-0.5,0.7c-0.1,0-0.1,0-0.2,0h-0.3c-0.3,0-0.7,0-1,0s-0.7,0-1,0
		c-0.3,0-0.3,0-0.3,0.6s0,0.6,0.3,0.6c0.3,0,0.6,0,1,0c0.3,0,0.7,0,1,0h0.3c0.4-0.1,0.7,0.2,0.7,0.5c0,0.1,0,0.1,0,0.2v2
		c0,0.5-0.2,0.7-0.7,0.7h-0.8c-0.4,0-0.8,0-1.2,0c-0.4,0-0.8,0-1.2,0c-0.3,0-0.4,0-0.4,0.7s0,0.7,0.4,0.7c0.4,0,0.8,0,1.2,0
		c0.4,0,0.8,0,1.2,0h4.4c0.4,0,0.8,0,1.2,0c0.4,0,0.8,0,1.2,0c0.3,0,0.4-0.1,0.4-0.7c0-0.6,0-0.7-0.4-0.7c-0.4,0-0.8,0-1.2,0
		c-0.4,0-0.8,0-1.2,0h-0.8c-0.5,0-0.7-0.2-0.7-0.7v-2c-0.1-0.4,0.2-0.7,0.5-0.7c0.1,0,0.1,0,0.2,0h0.6c0.3,0,0.7,0,1,0s0.7,0,1,0
		c0.1,0,0.2,0,0.2-0.1c0.1-0.1,0.1-0.3,0.1-0.5v-0.1c0-0.3,0-0.5-0.1-0.5c-0.1,0-0.1-0.1-0.2-0.1c-0.3,0-0.7,0-1,0c-0.3,0-0.7,0-1,0
		h-0.6c-0.4,0.1-0.7-0.2-0.7-0.5c0-0.1,0-0.1,0-0.2v-0.6c0-0.7,0-1,0.3-1.2l0,0c0.1-0.1,0.2-0.1,0.2-0.2S-1259.8,18.9-1260,18.9
		L-1260,18.9z M-1271.6,19h0.6c0.3,0,0.6,0.3,0.7,0.6c0,0,0,0,0,0.1v0.6c0,0.3-0.3,0.6-0.6,0.7c0,0,0,0,0,0h-0.6
		c-0.3,0-0.6-0.3-0.7-0.6c0,0,0,0,0,0v-0.6C-1272.3,19.3-1272,19.1-1271.6,19C-1271.7,19-1271.7,19-1271.6,19L-1271.6,19z
		 M-1271.1,20.6c0.2,0,0.3-0.1,0.4-0.3c0,0,0,0,0,0v-0.6c0-0.2-0.1-0.3-0.3-0.4c0,0,0,0-0.1,0h-0.6c-0.2,0-0.3,0.1-0.4,0.3
		c0,0,0,0,0,0.1v0.6c0,0.2,0.1,0.3,0.3,0.4c0,0,0,0,0,0H-1271.1z M-1268.7,19h0.6c0.3,0,0.6,0.2,0.7,0.6c0,0,0,0,0,0.1v0.6
		c0,0.4-0.3,0.6-0.6,0.7c0,0,0,0,0,0h-0.6c-0.4,0-0.7-0.3-0.7-0.6c0,0,0,0,0,0v-0.6C-1269.4,19.3-1269.1,19.1-1268.7,19
		C-1268.7,19-1268.7,19-1268.7,19L-1268.7,19z M-1268.1,20.6c0.2,0,0.4-0.1,0.4-0.3c0,0,0,0,0,0v-0.6c0-0.2-0.1-0.3-0.3-0.4
		c0,0,0,0-0.1,0h-0.6c-0.2,0-0.3,0.1-0.4,0.3c0,0,0,0,0,0.1v0.6c0,0.2,0.1,0.3,0.3,0.4c0,0,0,0,0,0H-1268.1z M-1228,19.6
		c0.4,0,1.3,0.7,1.3,1.1c0,0.2-0.1,0.4-0.2,0.6l0,0c-1,1.9-2.2,3.7-3.4,5.5c0,0,0,0.1-0.1,0.1c-0.1,0.1-0.1,0.2-0.2,0.4
		c0,0,0,0.1,0,0.1c0,0.1,0,0.2,0,0.3c0,0.2-0.1,0.4-0.4,0.4c0,0,0,0,0,0c-0.2,0-0.3-0.1-0.6-0.4c-0.1-0.1-0.2-0.1-0.3-0.2
		c0,0-0.1,0-0.1-0.1c0,0,0,0-0.1,0l0,0l0,0l-0.1-0.1c-0.3-0.2-0.5-0.5-0.5-0.7c0-0.2,0.1-0.4,0.3-0.5l0-0.1c1.5-1.9,2.7-3.9,3.8-6.1
		l0,0C-1228.3,19.8-1228.2,19.6-1228,19.6z M-1227.2,21.1c0.1-0.1,0.1-0.3,0.2-0.4c-0.2-0.4-0.6-0.7-1-0.8c0,0-0.1,0.1-0.1,0.2l0,0
		c-1.1,2.2-2.4,4.2-3.8,6.1l0,0.1c-0.1,0.1-0.2,0.2-0.2,0.3c0,0.1,0.2,0.2,0.4,0.4l0.1,0.1c0,0,0.1,0,0.1,0.1c0,0,0,0,0.1,0.1h0
		c0.1,0.1,0.2,0.1,0.3,0.2c0.1,0.1,0.3,0.2,0.4,0.3c0,0,0.1,0,0.1-0.1c0-0.1,0-0.1,0-0.2c0-0.1,0-0.1,0-0.2c0-0.2,0.1-0.4,0.2-0.5
		c0,0,0-0.1,0.1-0.1l0,0C-1229.3,24.9-1228.2,23-1227.2,21.1z M-1204.1,22.1h7c0.4,0,0.7,0.3,0.7,0.7v2.3c0,0.4-0.3,0.7-0.7,0.7
		c0,0,0,0-0.1,0h-7c-0.4,0-0.7-0.3-0.7-0.7c0,0,0,0,0,0v-2.3C-1204.8,22.4-1204.5,22.1-1204.1,22.1L-1204.1,22.1z M-1197.1,22.4h-7
		c-0.2,0-0.4,0.2-0.4,0.4v2.2c0,0.4,0.3,0.4,0.4,0.4h7c0.3,0,0.4-0.1,0.4-0.4v-2.2C-1196.7,22.6-1196.9,22.4-1197.1,22.4
		C-1197.1,22.4-1197.1,22.4-1197.1,22.4z M-1264.4,49.5c0.4,0,0.6,0.4,1,1.1l0.2,0.3c0.4,0.5,0.6,1,0.8,1.6c0,0.4-0.5,0.6-0.8,0.8
		h2.2c0.4,0,0.5,0,0.8-0.3c0.8-0.9,1.4-1.9,2-3v0l0,0c0.1-0.2,0.2-0.3,0.4-0.3c0.3,0.1,0.7,0.2,1,0.4c0.9,0.4,0.9,0.6,0.9,0.7
		c0,0.3-0.3,0.3-0.5,0.3c-0.1,0-0.2,0-0.2,0.1c-0.2,0.2-0.3,0.4-0.4,0.6c-0.3,0.5-0.6,0.9-0.9,1.3l0,0c0,0,0,0,0,0.1s0,0.1,0.1,0.1
		c0.3,0,0.6,0,0.9,0c0.3,0,0.6,0,0.9,0c0.5,0,1.4,0,1.4,1c0,0.2,0,0.3,0,0.5s0,0.3,0,0.5v1.2c0,0.1,0,0.2,0,0.3s0,0.3,0,0.4
		c0,0.6-0.4,0.6-1,0.6c-0.5,0-1,0-1-0.6c0-0.1,0-0.3,0-0.4s0-0.3,0-0.4v-0.9c0-0.3-0.1-0.4-0.4-0.4h-12.5c-0.3,0-0.4,0.1-0.4,0.4
		v0.9c0,0.1,0,0.2,0,0.4c0,0.1,0,0.3,0,0.4c0,0.5-0.5,0.5-1,0.5c-0.6,0-1,0-1-0.6c0-0.1,0-0.3,0-0.4s0-0.2,0-0.4v-1.2
		c0-0.2,0-0.3,0-0.5c0-0.1,0-0.3,0-0.4c0-1,0.9-1,1.3-1c0.3,0,0.7,0,1,0c0.2,0,0.4,0,0.7,0c-0.1-0.1-0.2-0.2-0.2-0.3
		c-0.4-0.7-0.9-1.3-1.3-1.9l0,0c0,0,0,0-0.1-0.1c-0.1-0.1-0.1-0.2-0.2-0.4c0-0.5,0.9-0.9,1.2-0.9s0.7,0.5,1,1l0.1,0.2
		c0.4,0.5,0.7,1,0.9,1.6c0,0.4-0.4,0.6-0.8,0.8h4.3c-0.2-0.2-0.3-0.4-0.4-0.6c0-0.1-0.1-0.1-0.1-0.2c-0.3-0.5-0.6-1-1-1.5l0,0l0-0.1
		c-0.1-0.1-0.2-0.3-0.2-0.4C-1265.6,50-1264.7,49.5-1264.4,49.5z M-1263.6,53.1c0.2,0,1-0.3,1-0.6c-0.2-0.5-0.5-1-0.8-1.4l-0.2-0.3
		c-0.3-0.5-0.6-0.9-0.8-0.9c-0.3,0-0.9,0.4-0.9,0.6c0,0.1,0.1,0.2,0.1,0.3l0,0.1c0.4,0.5,0.7,1,1,1.5c0,0.1,0.1,0.1,0.1,0.2
		C-1263.9,52.9-1263.8,53.1-1263.6,53.1z M-1256.3,50.7c-0.5-0.4-1-0.6-1.6-0.8c0,0-0.1,0-0.1,0.1l0,0c-0.6,1.1-1.2,2.1-2,3
		c-0.2,0.3-0.6,0.5-1,0.5h-7.7c-0.3,0-0.7,0-1,0c-0.3,0-0.7,0-1,0c-0.7,0-1,0.1-1,0.7c0,0.1,0,0.3,0,0.4c0,0.2,0,0.3,0,0.5v1.2
		c0,0.1,0,0.3,0,0.4s0,0.2,0,0.4c0,0.2,0,0.3,0.7,0.3c0.6,0,0.7,0,0.7-0.2c0-0.1,0-0.3,0-0.4c0-0.1,0-0.3,0-0.4v-0.9
		c0-0.4,0.2-0.7,0.6-0.7c0.1,0,0.1,0,0.2,0h12.5c0.4-0.1,0.7,0.2,0.7,0.5c0,0.1,0,0.1,0,0.2v0.9c0,0.1,0,0.3,0,0.4s0,0.2,0,0.4
		c0,0.2,0.1,0.3,0.7,0.3c0.7,0,0.7,0,0.7-0.3c0-0.1,0-0.2,0-0.4c0-0.1,0-0.3,0-0.4v-1.2c0-0.2,0-0.3,0-0.5c0-0.2,0-0.3,0-0.5
		c0-0.6-0.4-0.7-1.1-0.7c-0.3,0-0.6,0-0.9,0c-0.3,0-0.6,0-0.9,0c-0.2,0-0.4-0.1-0.4-0.4c0,0,0,0,0,0c0-0.1,0-0.2,0.1-0.2l0,0l0,0
		l0,0c0.3-0.4,0.6-0.9,0.9-1.3c0.1-0.2,0.2-0.3,0.4-0.6c0.1-0.2,0.3-0.2,0.5-0.2C-1256.4,50.8-1256.4,50.8-1256.3,50.7
		C-1256.3,50.7-1256.3,50.7-1256.3,50.7L-1256.3,50.7z M-1268.7,53.1c0.2,0,1-0.3,1-0.6c-0.2-0.5-0.5-1-0.9-1.4l0,0l-0.1-0.2
		c-0.3-0.4-0.6-0.9-0.8-0.9c-0.3,0-0.9,0.4-0.9,0.6c0,0.1,0,0.1,0.1,0.2c0,0,0,0.1,0.1,0.1c0.4,0.6,0.9,1.2,1.3,1.9
		C-1268.9,53-1268.8,53.1-1268.7,53.1z M-1245.6,49.5c0.4,0,0.8,0,1.2,0.1h0c0.3,0,0.8,0.1,0.8,0.4c0,0.2-0.1,0.3-0.3,0.4l-0.1,0.1
		c-0.2,0.1-0.2,0.3-0.2,1V53c0,0.3,0.1,0.4,0.4,0.4h0.8c0.3,0,0.4-0.1,0.4-0.4v-1.4c0-0.5,0-0.9-0.1-1.4c0-0.1,0-0.1,0-0.2
		c0-0.3,0.2-0.4,0.5-0.4c0.3,0,1.2,0.1,1.5,0.1h0c0.2,0,0.5,0.1,0.5,0.4c0,0.2-0.2,0.3-0.3,0.4h0c-0.1,0.1-0.2,0.3-0.2,0.9V53
		c0,0.3,0.1,0.4,0.4,0.4c0.3,0,0.4-0.1,0.5-0.2c0.6-0.9,1.1-1.9,1.6-2.9c0-0.1,0.1-0.3,0.4-0.3c0.3,0.1,0.6,0.2,0.9,0.4
		c0.7,0.4,0.8,0.6,0.8,0.7c0,0.2-0.2,0.3-0.4,0.3h0c-0.2,0-0.2,0-0.2,0.1c-0.1,0.2-0.3,0.5-0.4,0.7c-0.2,0.3-0.4,0.7-0.6,1
		c0,0,0,0.1,0,0.1c0,0,0,0.1,0.2,0.1h0.1c0.4,0,0.8,0,1.3,0s0.9,0,1.3,0c0.6,0,0.6,0.4,0.6,0.9s0,0.9-0.6,0.9c-0.4,0-0.9,0-1.3,0
		c-0.4,0-0.8,0-1.3,0h-1.2c0,0,0,0.1,0,0.1c0,0.2-0.3,0.3-0.4,0.3l-0.1,0c-0.1,0-0.2,0-0.2,0.2c-0.1,0.1-0.1,0.3-0.2,0.4
		c-0.1,0.1-0.1,0.3-0.2,0.4c0,0,0,0.1,0,0.1c0,0.1,0,0.1,0.2,0.2h1.1c0.4,0,0.8,0,1.2,0c0.4,0,0.8,0,1.3,0c0.6,0,0.6,0.4,0.6,0.9
		c0,0.4,0,0.8-0.6,0.8c-0.4,0-0.8,0-1.2,0c-0.4,0-0.8,0-1.2,0h-3.8c-0.2,0-0.3,0.1-0.3,0.3v0.2c0,0.2,0,0.3,0.3,0.3h2.6
		c0.4,0,0.8,0,1.2,0c0.4,0,0.8,0,1.2,0c0.6,0,0.6,0.4,0.6,0.9s0,0.8-0.6,0.8c-0.4,0-0.8,0-1.2,0s-0.8,0-1.2,0h-2.6
		c-0.3,0-0.3,0.1-0.3,0.3v0.2c0,0.2,0.1,0.3,0.3,0.3h5c0.4,0,0.9,0,1.3,0s0.9,0,1.3,0c0.6,0,0.6,0.4,0.6,0.9s0,0.9-0.6,0.9
		c-0.4,0-0.9,0-1.3,0c-0.4,0-0.9,0-1.3,0h-3.5c0,0-0.1,0-0.1,0c0,0,0,0,0,0.1c1.8,1.3,3.7,2.3,5.8,2.9h0c0.3,0.1,0.8,0.2,0.8,0.6
		c0,0.5-0.6,1.3-1.1,1.3c-0.9-0.2-1.8-0.6-2.6-1c-1.6-0.8-3.2-1.8-4.5-3l0,0c0,0-0.1,0-0.1,0c-0.1,0-0.1,0-0.1,0.2v0.6
		c0,0.4,0,0.9,0,1.3c0,0.4,0,0.9,0,1.3c0,0.8-0.3,0.9-1.1,0.9c-0.7,0-1.1-0.1-1.1-0.8c0-0.5,0-0.9,0-1.4c0-0.4,0-0.9,0-1.4v-0.6
		c0-0.2-0.1-0.2-0.1-0.2c0,0-0.1,0-0.1,0.1c-1.9,1.5-4.1,2.8-6.4,3.7l0,0c-0.2,0.1-0.5,0.2-0.8,0.2c-0.4,0-1-0.9-1-1.3
		c0-0.3,0.4-0.5,0.7-0.6l0.1,0c2-0.7,4-1.7,5.8-2.9c0,0,0,0,0,0c0,0-0.1,0-0.1,0h-3.3c-0.4,0-0.9,0-1.3,0s-0.9,0-1.3,0
		c-0.6,0-0.6-0.4-0.6-0.9c0-0.5,0-0.9,0.6-0.9c0.4,0,0.9,0,1.3,0s0.9,0,1.3,0h4.9c0.2,0,0.3-0.1,0.3-0.3v-0.2c0-0.2-0.1-0.3-0.3-0.3
		h-2.5c-0.4,0-0.8,0-1.2,0c-0.4,0-0.8,0-1.2,0c-0.6,0-0.6-0.4-0.6-0.8c0-0.5,0-0.9,0.6-0.9c0.4,0,0.8,0,1.2,0c0.4,0,0.8,0,1.2,0h2.5
		c0.2,0,0.3-0.1,0.3-0.3v-0.2c0-0.3-0.1-0.3-0.3-0.3h-3.7c-0.4,0-0.8,0-1.2,0c-0.4,0-0.8,0-1.2,0c-0.6,0-0.6-0.4-0.6-0.8
		c0-0.4,0-0.9,0.6-0.9c0.4,0,0.8,0,1.2,0c0.4,0,0.8,0,1.2,0h1c0.2,0,0.3-0.1,0.3-0.2c0,0,0-0.1,0-0.1c-0.2-0.4-0.4-0.8-0.6-1.2
		c-0.2-0.3-0.2-0.3-0.6-0.3h-1c-0.4,0-0.8,0-1.2,0c-0.4,0-0.9,0-1.3,0c-0.6,0-0.6-0.4-0.6-0.9c0-0.5,0-0.9,0.6-0.9
		c0.4,0,0.9,0,1.3,0c0.4,0,0.8,0,1.2,0h0.7c-0.1-0.1-0.2-0.2-0.3-0.4l0,0c-0.4-0.6-0.9-1.2-1.3-1.8l0,0c-0.1-0.1-0.2-0.3-0.2-0.4
		c0-0.4,0.9-0.8,1.2-0.8s0.6,0.3,0.8,0.6c0,0,0.1,0.1,0.1,0.1l0,0c1.1,1.4,1.3,1.8,1.3,1.9c0,0.3-0.5,0.6-0.9,0.7h1.4
		c0.3,0,0.4-0.1,0.4-0.4v-1.5c0-0.5,0-0.9-0.1-1.4v0V50c0-0.2,0.1-0.4,0.4-0.4C-1245.7,49.5-1245.7,49.5-1245.6,49.5z M-1242.8,53.8
		h-0.9c-0.4,0-0.7-0.2-0.7-0.7v-1.6c0-0.6,0-1,0.3-1.2l0.1-0.1c0.1-0.1,0.1-0.1,0.1-0.1c0-0.1-0.3-0.1-0.5-0.1l-0.1,0
		c-0.4-0.1-0.8-0.1-1.2-0.1c-0.2,0-0.2,0-0.2,0.1v0.2c0.1,0.5,0.1,0.9,0.1,1.4V53c0,0.4-0.2,0.7-0.6,0.7c-0.1,0-0.1,0-0.2,0h-2.8
		c-0.4,0-0.8,0-1.3,0s-0.8,0-1.3,0c-0.3,0-0.3,0-0.3,0.6c0,0.5,0,0.6,0.3,0.6c0.4,0,0.9,0,1.3,0s0.8,0,1.3,0h1
		c0.5,0,0.7,0.1,0.9,0.5c0.2,0.4,0.4,0.8,0.6,1.2c0,0.1,0.1,0.2,0.1,0.2c0,0.3-0.2,0.5-0.5,0.5h-1c-0.4,0-0.8,0-1.2,0
		c-0.4,0-0.8,0-1.2,0c-0.2,0-0.3,0.1-0.3,0.6c0,0.5,0,0.5,0.3,0.5c0.4,0,0.8,0,1.2,0c0.4,0,0.8,0,1.2,0h3.7c0.3,0,0.5,0.2,0.6,0.5
		c0,0,0,0.1,0,0.1v0.2c0,0.3-0.2,0.5-0.4,0.6c0,0-0.1,0-0.1,0h-2.5c-0.4,0-0.8,0-1.2,0c-0.4,0-0.8,0-1.2,0c-0.3,0-0.3,0-0.3,0.6
		c0,0.5,0,0.5,0.3,0.5c0.4,0,0.8,0,1.2,0c0.4,0,0.8,0,1.2,0h2.5c0.3,0,0.5,0.2,0.6,0.4c0,0,0,0.1,0,0.1v0.2c0,0.3-0.2,0.5-0.4,0.6
		c0,0-0.1,0-0.1,0h-4.9c-0.4,0-0.9,0-1.3,0s-0.9,0-1.3,0c-0.3,0-0.3,0-0.3,0.6s0,0.6,0.3,0.6c0.4,0,0.9,0,1.3,0c0.4,0,0.9,0,1.3,0
		h3.3c0.2,0,0.4,0.1,0.4,0.3c0,0,0,0,0,0c0,0.1-0.1,0.2-0.2,0.3c-1.8,1.3-3.8,2.3-5.8,3l-0.1,0c-0.3,0.1-0.5,0.2-0.5,0.3
		c0,0.3,0.5,1,0.7,1c0.2,0,0.4-0.1,0.6-0.2l0,0c2.3-0.9,4.4-2.1,6.3-3.6l0,0c0.1-0.1,0.2-0.1,0.3-0.1c0.2,0,0.3,0.1,0.4,0.4v0v0.6
		c0,0.5,0,0.9,0,1.4c0,0.4,0,0.9,0,1.4c0,0.5,0.1,0.5,0.8,0.5c0.7,0,0.8-0.1,0.8-0.6c0-0.4,0-0.9,0-1.3c0-0.4,0-0.9,0-1.3v-0.6
		c0-0.2,0.2-0.4,0.4-0.4c0,0,0,0,0,0c0.1,0,0.2,0,0.3,0.1c1.4,1.2,2.9,2.1,4.5,2.9c0.8,0.4,1.7,0.7,2.5,1c0.3,0,0.8-0.6,0.8-1
		c0-0.2-0.4-0.3-0.6-0.4h0c-2.1-0.6-4.1-1.6-5.9-2.9l0,0c-0.1-0.1-0.1-0.2-0.1-0.3c0-0.2,0.2-0.3,0.4-0.3c0,0,0,0,0,0h3.5
		c0.4,0,0.9,0,1.3,0c0.4,0,0.9,0,1.3,0c0.3,0,0.3,0,0.3-0.6s0-0.6-0.3-0.6c-0.4,0-0.9,0-1.3,0s-0.9,0-1.3,0h-5
		c-0.3,0-0.5-0.2-0.6-0.4c0-0.1,0-0.1,0-0.2v-0.2c0-0.3,0.2-0.5,0.5-0.6c0,0,0.1,0,0.1,0h2.6c0.4,0,0.8,0,1.2,0c0.4,0,0.8,0,1.2,0
		c0.3,0,0.3,0,0.3-0.5c0-0.5,0-0.6-0.3-0.6c-0.4,0-0.8,0-1.2,0c-0.4,0-0.8,0-1.2,0h-2.6c-0.3,0-0.5-0.1-0.6-0.4c0,0,0-0.1,0-0.1
		v-0.2c0-0.3,0.2-0.6,0.5-0.6c0,0,0.1,0,0.1,0h3.8c0.4,0,0.8,0,1.2,0c0.4,0,0.8,0,1.2,0c0.2,0,0.3-0.1,0.3-0.5c0-0.5,0-0.6-0.3-0.6
		c-0.4,0-0.8,0-1.3,0c-0.4,0-0.8,0-1.2,0h-1.1c-0.4,0-0.5-0.3-0.5-0.5c0-0.1,0-0.2,0-0.2l0,0c0.1-0.1,0.1-0.3,0.2-0.4
		c0.1-0.1,0.1-0.3,0.2-0.5v0c0.1-0.2,0.2-0.3,0.4-0.3l0.1,0h0c0.1,0,0.1,0,0.1,0l0,0l0,0v0c0,0,0-0.1,0-0.1c0-0.1,0-0.2,0.1-0.2l0,0
		h1.4c0.4,0,0.9,0,1.3,0c0.4,0,0.8,0,1.3,0c0.3,0,0.3,0,0.3-0.6c0-0.6,0-0.6-0.3-0.6c-0.4,0-0.8,0-1.3,0c-0.4,0-0.9,0-1.3,0h-0.2
		c-0.4-0.1-0.5-0.3-0.5-0.4c0-0.1,0-0.2,0.1-0.3c0.2-0.3,0.4-0.6,0.6-1c0.1-0.2,0.3-0.5,0.4-0.7c0.1-0.2,0.3-0.2,0.5-0.2l0.1,0
		c0,0,0.1,0,0.1,0l0,0c-0.4-0.3-0.9-0.6-1.4-0.8c0,0-0.1,0.1-0.1,0.1c-0.5,1-1,2-1.6,2.9c-0.2,0.3-0.4,0.4-0.7,0.4h0
		c-0.5-0.1-0.7-0.3-0.7-0.7v-1.5c0-0.6,0-1,0.3-1.2l0,0c0.1-0.1,0.2-0.1,0.2-0.2s0-0.1-0.2-0.1h0c-0.3,0-1.2-0.1-1.5-0.1
		c-0.2,0-0.2,0-0.2,0.1c0,0,0,0.1,0,0.1l0,0c0.1,0.5,0.1,1,0.1,1.5v1.4C-1242.2,53.5-1242.3,53.7-1242.8,53.8L-1242.8,53.8z
		 M-1248.3,53.3c0.2,0,1-0.3,1-0.5c-0.3-0.6-0.7-1.2-1.2-1.8l0,0c0,0-0.1-0.1-0.1-0.1c-0.2-0.2-0.4-0.5-0.6-0.5
		c-0.3,0-0.9,0.4-0.9,0.5c0,0.1,0.1,0.2,0.1,0.2l0,0c0.5,0.6,1,1.3,1.3,1.8l0,0C-1248.4,53.2-1248.4,53.3-1248.3,53.3z M-1218.4,51
		c0.2,0,0.4,0.2,0.6,0.4l0.1,0.1l0.2,0.2c0.6,0.6,0.8,0.9,0.8,1.1c0,0.2-0.2,0.4-0.4,0.4c0,0,0,0,0,0c-0.1,0-0.2,0-0.3,0
		c0,0-0.1,0-0.1,0c0,0,0,0-0.1,0c-0.2,0-0.4,0.1-0.6,0.2l-0.2,0c-0.8,0.3-1.7,0.5-2.5,0.7c-0.3,0.1-0.4,0.3-0.4,0.4
		c0,0.1,0,0.3,0,0.5c0,0.3,0,0.7,0,1.1c0,0.2,0,0.5,0,0.7c0,0.2,0,0.4,0,0.6c0,0.3,0.2,0.4,0.3,0.4h3.3c0.4,0,0.9,0,1.4,0
		c0.5,0,0.9,0,1.3,0c0.7,0,0.7,0.5,0.7,1.1c0,0.5,0,1-0.7,1c-0.4,0-0.9,0-1.3,0s-0.9,0-1.3,0h-3.5c-0.4,0-0.5,0.2-0.6,0.7
		c-0.6,2.3-1.9,4.4-3.8,5.9c-0.8,0.7-1.7,1.2-2.6,1.6c-0.3,0-0.7-0.4-0.9-0.5c-0.2-0.2-0.6-0.6-0.6-0.8c0-0.3,0.3-0.4,0.5-0.5l0,0
		c1.3-0.6,2.4-1.4,3.3-2.4c0.8-1,1.4-2.1,1.8-3.3c0,0,0-0.1,0-0.1c0-0.1,0-0.1,0-0.2c0-0.1-0.1-0.2-0.2-0.2h-4.7c-0.4,0-0.9,0-1.4,0
		s-0.8,0-1.2,0c-0.7,0-0.7-0.5-0.7-1c0-0.6,0-1.1,0.7-1.1c0.4,0,0.8,0,1.2,0c0.4,0,0.9,0,1.4,0h4.9c0.2,0,0.4-0.1,0.4-0.4
		c0.1-0.4,0.1-0.7,0.1-1.1v-0.1c0-1.4-0.1-1.5-0.3-1.6l-0.2,0c-0.8,0.1-3,0.4-4.5,0.4c-0.3,0-0.7-0.2-0.8-0.5
		c-0.2-0.3-0.3-0.7-0.3-1.1c0-0.2,0.1-0.5,0.6-0.5c0.1,0,0.1,0,0.2,0c0.1,0,0.3,0,0.4,0c1.8,0,3.7-0.2,5.5-0.5
		c1.3-0.2,2.7-0.6,3.9-1.2C-1218.7,51.1-1218.5,51-1218.4,51L-1218.4,51z M-1217.1,52.9C-1217.1,52.9-1217,52.9-1217.1,52.9
		c0.1-0.1,0-0.3-0.6-1l-0.2-0.2l-0.1-0.1c-0.1-0.1-0.3-0.3-0.4-0.3c-0.1,0-0.2,0.1-0.3,0.1l0,0c-1.3,0.6-2.6,1-4,1.2
		c-1.8,0.3-3.7,0.5-5.5,0.5c-0.1,0-0.3,0-0.4,0c-0.1,0-0.2,0-0.2,0c-0.3,0-0.3,0.1-0.3,0.2c0,0.3,0.2,0.7,0.3,1
		c0.2,0.3,0.2,0.3,0.5,0.3c1.4,0,3.7-0.3,4.4-0.4c0.2,0,0.2,0,0.3,0c0.7,0,0.7,0.7,0.7,1.9v0.1c0,0.4,0,0.8-0.1,1.2
		c-0.1,0.4-0.4,0.6-0.7,0.6h-4.9c-0.4,0-0.9,0-1.4,0c-0.4,0-0.9,0-1.2,0c-0.3,0-0.4,0.1-0.4,0.8c0,0.6,0.1,0.7,0.4,0.7
		c0.4,0,0.8,0,1.2,0c0.4,0,0.9,0,1.4,0h4.7c0.3,0,0.5,0.2,0.5,0.5c0,0.1,0,0.2,0,0.3c0,0,0,0.1,0,0.1v0c-0.4,1.3-1,2.4-1.9,3.4
		c-0.9,1.1-2.1,1.9-3.4,2.5l0,0c-0.1,0.1-0.3,0.1-0.3,0.2c0.1,0.2,0.3,0.4,0.5,0.6c0.2,0.2,0.4,0.4,0.7,0.4c0.9-0.4,1.7-0.9,2.4-1.5
		c1.8-1.4,3.1-3.4,3.7-5.7c0.1-0.4,0.3-0.9,0.9-0.9h3.5c0.4,0,0.9,0,1.3,0s0.9,0,1.3,0c0.3,0,0.4-0.1,0.4-0.7c0-0.8-0.1-0.8-0.4-0.8
		c-0.4,0-0.8,0-1.2,0c-0.5,0-0.9,0-1.4,0h-3.3c-0.4,0-0.6-0.3-0.6-0.7c0-0.2,0-0.4,0-0.6c0-0.2,0-0.5,0-0.7c0-0.3,0-0.7,0-1
		c0-0.2,0-0.4,0-0.5c0-0.4,0.3-0.7,0.6-0.7c0.8-0.2,1.7-0.4,2.5-0.7h0l0.2,0c0.2-0.1,0.5-0.1,0.7-0.2c0,0,0.1,0,0.1,0c0,0,0,0,0.1,0
		h0l0,0C-1217.2,52.9-1217.2,52.9-1217.1,52.9L-1217.1,52.9z M-1245.3,54.8h4.1c0.5,0,0.5,0.4,0.5,0.5c0,0.1,0,0.2,0,0.2l0,0
		c-0.2,0.4-0.4,0.8-0.5,1.1v0c-0.2,0.4-0.5,0.6-0.9,0.5h-2.2c-0.4,0.1-0.7-0.2-0.8-0.5c-0.2-0.4-0.4-0.8-0.5-1.1
		c-0.1-0.1-0.1-0.2-0.1-0.3C-1245.8,55.1-1245.8,54.9-1245.3,54.8L-1245.3,54.8z M-1241.3,55.1h-4c-0.2,0-0.2,0.1-0.2,0.2
		c0,0.1,0,0.1,0,0.1c0.2,0.4,0.4,0.8,0.6,1.2v0c0.1,0.2,0.2,0.3,0.5,0.3h2.2c0.3,0.1,0.6-0.1,0.7-0.4c0.2-0.4,0.4-0.7,0.5-1.1
		c0,0,0-0.1,0-0.1C-1241,55.3-1241,55.2-1241.3,55.1L-1241.3,55.1z M-1267.8,56.1c0.1,0,0.3,0,0.5,0c0.2,0,0.3,0,0.5,0h6.3
		c0.2,0,0.5,0,0.7,0c0.2,0,0.5,0,0.7,0c0.7,0,1.3,0.1,1.3,1.1c0,0.2,0,0.3,0,0.5s0,0.3,0,0.5v1.5c0,0.2,0,1.1,0,1.2
		c0,0.6-0.5,0.6-1,0.6c-0.6,0-0.8,0-1-0.3l0,0c-0.1-0.2-0.1-0.2-0.2-0.2h-2.4c-0.3,0-0.4,0.1-0.5,0.4c-0.1,0.3-0.2,0.5-0.4,0.8
		c0,0,0,0.1,0,0.1c0,0.1,0.1,0.2,0.2,0.2h3.7c0.3,0,0.6,0,0.9,0s0.6,0,0.9,0c0.5,0,1.3,0,1.3,1c0,0.2,0,0.4,0,0.6s0,0.4,0,0.6v2.4
		c0,0.1,0,0.4,0,0.7c0,0.2,0,0.4,0,0.5c0,0.6-0.4,0.6-1.1,0.6c-0.6,0-1.1,0-1.1-0.6c0,0,0-0.1,0-0.1c0-0.2-0.1-0.2-0.3-0.2h-9.9
		c-0.2,0-0.2,0-0.3,0.3c0,0.6-0.4,0.6-1.1,0.6c-0.6,0-1,0-1-0.6c0-0.1,0-0.3,0-0.5c0-0.3,0-0.6,0-0.7v-2.3c0-0.2,0-0.4,0-0.6
		s0-0.4,0-0.6c0-1,0.9-1,1.3-1c0.3,0,0.6,0,0.9,0c0.3,0,0.6,0,0.9,0h1.7c0.4,0,0.4,0,0.6-0.3l0.1-0.2c0.1-0.2,0.2-0.3,0.3-0.5
		c0,0,0,0,0-0.1c0,0,0-0.1,0-0.1c0-0.1,0-0.2-0.3-0.2h-1.7c-0.1,0-0.1,0-0.2,0.2c-0.1,0.3-0.4,0.3-1,0.3c-0.6,0-1,0-1-0.6
		c0-0.2,0-0.4,0-0.6s0-0.4,0-0.6v-1.5c0-0.2,0-0.3,0-0.5s0-0.3,0-0.5C-1269.1,56.2-1268.5,56.1-1267.8,56.1L-1267.8,56.1z
		 M-1260.6,56.4h-6.3c-0.2,0-0.4,0-0.5,0c-0.2,0-0.3,0-0.4,0c-0.7,0-1,0.1-1,0.8c0,0.2,0,0.3,0,0.5s0,0.3,0,0.5v1.5
		c0,0.2,0,0.4,0,0.6s0,0.4,0,0.6c0,0.3,0,0.3,0.7,0.3c0.6,0,0.6,0,0.7-0.1v0c0.1-0.2,0.2-0.3,0.5-0.4h1.7c0.4,0,0.6,0.2,0.6,0.5
		c0,0.1,0,0.1,0,0.2c0,0,0,0,0,0.1l0,0c-0.1,0.2-0.2,0.4-0.3,0.6l-0.1,0.2c-0.1,0.3-0.5,0.6-0.8,0.5h-1.7c-0.3,0-0.6,0-0.9,0
		c-0.3,0-0.6,0-0.9,0c-0.7,0-1,0.1-1,0.7c0,0.2,0,0.4,0,0.6c0,0.2,0,0.4,0,0.6v2.3c0,0.1,0,0.5,0,0.7c0,0.2,0,0.4,0,0.5
		c0,0.2,0,0.3,0.7,0.3c0.8,0,0.8-0.1,0.8-0.3v0c0-0.3,0.2-0.5,0.5-0.5c0,0,0,0,0,0h9.9c0.3,0,0.5,0.2,0.6,0.5c0,0,0,0.1,0,0.1v0
		c0,0,0,0.1,0,0.1c0,0.2,0.1,0.2,0.8,0.2c0.8,0,0.8,0,0.8-0.3c0-0.1,0-0.3,0-0.5c0-0.3,0-0.6,0-0.7v-2.4c0-0.2,0-0.4,0-0.6
		c0-0.2,0-0.4,0-0.6c0-0.6-0.4-0.7-1-0.7c-0.3,0-0.6,0-0.9,0c-0.3,0-0.6,0-0.9,0h-3.7c-0.3,0-0.5-0.2-0.5-0.4c0,0,0,0,0,0
		c0-0.1,0-0.2,0.1-0.2l0,0c0.1-0.2,0.2-0.5,0.4-0.7v0c0.1-0.3,0.4-0.6,0.8-0.5h2.4c0.2,0,0.4,0.2,0.4,0.4c0.1,0.1,0.1,0.1,0.7,0.1
		c0.7,0,0.7,0,0.7-0.3c0-0.1,0-1,0-1.2v-1.5c0-0.2,0-0.3,0-0.5c0-0.2,0-0.3,0-0.5c0-0.6-0.3-0.8-1-0.8c-0.2,0-0.5,0-0.7,0
		C-1260.1,56.4-1260.3,56.4-1260.6,56.4L-1260.6,56.4z M-1206.7,56.4c0.2,0,0.4,0,0.7,0c0.4,0,0.8,0,1.3,0h2.9c0.3,0,0.7,0,1,0
		c0.2,0,0.4,0,0.5,0c0.6,0,1.2,0.5,1.2,1.1c0,0,0,0-0.1,0.5c-0.1,0.4-0.1,0.9-0.1,1l-0.5,4.2c0,0.1,0,0.2,0.1,0.3
		c0.1,0.1,0.2,0.1,0.3,0.1h0.8c0.3,0,0.7,0,1,0c0.3,0,0.7,0,1,0c0.7,0,0.7,0.5,0.7,1c0,0.4,0,0.9-0.7,0.9c-0.3,0-0.7,0-1,0
		c-0.3,0-0.7,0-1,0h-8.6c-0.3,0-0.7,0-1.1,0c-0.3,0-0.7,0-0.9,0c-0.7,0-0.7-0.5-0.7-0.9c0-0.5,0-1,0.7-1c0.2,0,0.5,0,0.9,0
		c0.4,0,0.8,0,1.1,0h5.2c0.2,0,0.4-0.2,0.4-0.4l0.5-4.1c0-0.1,0-0.1,0-0.3c0-0.1,0-0.2,0-0.2c0-0.2-0.1-0.3-0.3-0.3c0,0,0,0,0,0
		h-3.2c-0.4,0-0.8,0-1.2,0c-0.3,0-0.6,0-0.8,0c-0.6,0-0.6-0.5-0.6-1v0c0-0.3,0-0.5,0.2-0.7C-1207.1,56.4-1206.9,56.4-1206.7,56.4z
		 M-1201.9,56.7h-2.9c-0.5,0-0.9,0-1.3,0c-0.3,0-0.5,0-0.7,0c-0.1,0-0.2,0-0.2,0.1c-0.1,0.1-0.1,0.3-0.1,0.5v0.1
		c0,0.6,0,0.7,0.3,0.7c0.2,0,0.5,0,0.8,0c0.4,0,0.8,0,1.2,0h3.2c0.3,0,0.6,0.3,0.7,0.6c0,0,0,0,0,0c0,0,0,0.1,0,0.2
		c0,0.1,0,0.2,0,0.2v0l-0.5,4.1c0,0.4-0.4,0.7-0.7,0.7h-5.2c-0.4,0-0.8,0-1.1,0c-0.3,0-0.6,0-0.8,0c-0.3,0-0.4,0.1-0.4,0.7
		c0,0.5,0,0.6,0.4,0.6c0.3,0,0.6,0,0.9,0c0.4,0,0.7,0,1.1,0h8.7c0.3,0,0.7,0,1,0c0.3,0,0.7,0,1,0c0.4,0,0.4-0.1,0.4-0.6
		c0-0.6,0-0.7-0.4-0.7s-0.7,0-1,0s-0.7,0-1,0h-0.8c-0.2,0-0.4-0.1-0.5-0.2c-0.1-0.1-0.2-0.3-0.1-0.5l0.5-4.2c0-0.1,0.1-0.6,0.1-1
		c0-0.2,0.1-0.4,0.1-0.5c-0.1-0.4-0.5-0.8-0.9-0.8c-0.1,0-0.3,0-0.5,0C-1201.1,56.7-1201.5,56.7-1201.9,56.7L-1201.9,56.7z
		 M-1266.8,57.5h6.6c0.3,0,0.6,0.2,0.7,0.6c0,0,0,0.1,0,0.1v0.8c0,0.3-0.3,0.6-0.6,0.7c0,0,0,0-0.1,0h-6.6c-0.3,0-0.6-0.3-0.7-0.6
		c0,0,0,0,0,0v-0.8C-1267.4,57.8-1267.2,57.5-1266.8,57.5C-1266.8,57.5-1266.8,57.5-1266.8,57.5L-1266.8,57.5z M-1260.2,59.2
		c0.2,0,0.3-0.1,0.4-0.3c0,0,0,0,0-0.1v-0.8c0-0.2-0.1-0.3-0.3-0.4c0,0-0.1,0-0.1,0h-6.6c-0.2,0-0.3,0.1-0.4,0.3c0,0,0,0,0,0.1v0.8
		c0,0.2,0.1,0.3,0.3,0.4c0,0,0,0,0,0H-1260.2z M-1190.2,57.7c0.1,0,0.4,0,0.7,0c0.5,0,1.3,0,1.8,0h9.6c0.5,0,1.3,0,1.8,0
		c0.3,0,0.6,0,0.7,0c0.7,0,0.7,0.3,0.7,1.2c0,0.5,0,1.1-0.7,1.1c-0.4,0-0.9,0-1.3,0s-0.9,0-1.3,0h-9.6c-0.4,0-0.9,0-1.3,0
		s-0.9,0-1.3,0c-0.7,0-0.7-0.6-0.7-1.1C-1190.9,58-1190.8,57.7-1190.2,57.7z M-1178,58h-9.6c-0.6,0-1.3,0-1.8,0c-0.3,0-0.6,0-0.7,0
		c-0.4,0-0.4,0-0.4,0.9c0,0.6,0,0.8,0.4,0.8c0.4,0,0.9,0,1.3,0s0.9,0,1.3,0h9.6c0.4,0,0.9,0,1.3,0s0.9,0,1.3,0
		c0.3,0,0.4-0.2,0.4-0.8c0-0.9,0-0.9-0.4-0.9c-0.1,0-0.4,0-0.7,0C-1176.7,58-1177.4,58-1178,58z M-1268.3,63.7h9.7
		c0.4,0,0.7,0.3,0.7,0.7c0,0,0,0,0,0.1v1.2c0,0.4-0.3,0.7-0.7,0.7h-9.7c-0.4,0-0.7-0.3-0.7-0.7v-1.2
		C-1269,64-1268.7,63.7-1268.3,63.7L-1268.3,63.7z M-1258.7,64h-9.6c-0.2,0-0.4,0.2-0.4,0.4v1.2c0,0.3,0.1,0.4,0.4,0.4h9.6
		c0.2,0,0.4-0.2,0.4-0.4c0,0,0,0,0,0v-1.2C-1258.2,64.2-1258.4,64-1258.7,64z"/>
</g>
</svg>
