<?xml version="1.0" encoding="utf-8"?>
<!-- Generator: Adobe Illustrator 27.5.0, SVG Export Plug-In . SVG Version: 6.00 Build 0)  -->
<svg version="1.1" xmlns="http://www.w3.org/2000/svg" xmlns:xlink="http://www.w3.org/1999/xlink" x="0px" y="0px" width="242px"
	 height="218px" viewBox="0 0 242 218" style="enable-background:new 0 0 242 218;" xml:space="preserve">
<style type="text/css">
	.st0{fill:#1A1311;}
</style>
<g id="レイヤー_1">
	<g id="グループ_451" transform="translate(0)">
		<g id="グループ_1" transform="translate(50.408)">
			<path id="パス_1" class="st0" d="M127.7,110.4c-1-8.3,2.7-12,5-26.7c3.1-19.6-6-31.6-13.2-39C110,34.9,97.6,30.8,89,27.9
				c-9.9-3.3-15.2-6.6-17.4-12.6c-3.4-9.1-2.2-13.8-5.1-13.8c-2.6,0-1.3,8.9-6,15.5C51.7,29.4,28,29,12.2,50.9
				c-15.3,21.2-7.1,37.8-4.6,50c1.5,7.3,2,10.7,0.8,15.1c-1.1,4.2-3.7,7.8-7.4,10c5.7,6.2,17.2,5.4,22.3,2s9.7-11.2,8.4-24.8
				c12.2,1.5,24.4,2,36.7,1.7c19.2-0.7,29.6-1.3,36.5-3.2c-0.7,16.8,2.5,21.3,9.6,24.7c7.6,3.7,16.6,0,21.5-4.4
				C132.7,120.6,128.6,118,127.7,110.4z"/>
			<path id="パス_2" class="st0" d="M44.5,110.9c-2.3,0-4.2,1.9-4.2,4.2s1.9,4.2,4.2,4.2s4.2-1.9,4.2-4.2l0,0
				C48.7,112.8,46.8,110.9,44.5,110.9z"/>
			<circle id="楕円形_1" class="st0" cx="92.3" cy="114.6" r="4.2"/>
			<path id="パス_3" class="st0" d="M73.8,123.7c-1.5-0.5-3.1-0.8-4.8-0.9c-1,0-1.9,0.1-2.9,0.4c-2.1,0.5-3.9,2.1-4.7,4.1
				c-1.1,2.8,0,5.9,2.6,7.4l0.2,0.1l-0.2,0.1c-0.5,0.3-0.9,0.7-1.3,1.2c-1,1.3-1.5,3-1.2,4.6c0.3,1.7,1.3,3.1,2.7,4
				c1.7,0.9,3.5,1.3,5.4,1.4c1.4,0.1,2.9,0,4.2-0.5l0,0l0,0v-2.9c0,0,0,0-0.1,0c-3.7,0.8-5.6,0.7-7.4-0.2c-0.8-0.4-1.4-1.2-1.6-2.1
				c-0.2-0.9-0.1-1.9,0.5-2.7c0.1-0.1,0.1-0.2,0.2-0.3c0.5-0.8,1.1-1.7,3.8-1.6c0.5,0,1,0,1.3,0.1c0.2,0,0.5,0,0.7,0h0.1
				c0.1-0.1,0.1-0.2,0.1-0.3v-0.3c0-0.2,0-0.3,0-0.4v-1.3c0,0,0-0.1-0.1-0.1h-0.5c-1.6,0-3.1-0.2-4.6-0.8c-1.5-0.7-2.2-2.5-1.6-4
				c0,0,0-0.1,0.1-0.1c0.5-1.1,1.6-1.9,2.8-2c1.6-0.2,3.2-0.1,4.8,0.3c0.1,0,0.9,0.1,1.1,0.1l0.2-1.5
				C73.8,125.1,73.8,123.9,73.8,123.7z"/>
			<path id="パス_4" class="st0" d="M74,123.6L74,123.6L74,123.6c-3.1-1-4.9-1.4-7.9-0.6c-2.2,0.6-4,2.2-4.9,4.3
				c-1.1,2.8,0,6,2.5,7.6c-0.4,0.3-0.8,0.7-1.2,1.1c-1.1,1.3-1.5,3.1-1.2,4.8s1.4,3.2,2.8,4.2c1.7,0.9,3.6,1.3,5.5,1.4
				c0.5,0,0.9,0,1.2,0c1.1,0,2.1-0.2,3.1-0.5c0.1,0,0.1-0.1,0.2-0.1c0-0.1,0-0.1,0-0.2v-3v-0.1c-0.1-0.1-0.2-0.2-0.3-0.1
				c-3.6,0.8-5.5,0.7-7.2-0.2c-0.7-0.4-1.3-1.1-1.4-1.9c-0.2-0.9-0.1-1.8,0.4-2.5c0.1-0.1,0.1-0.2,0.2-0.3c0.5-0.7,1.1-1.6,3.6-1.5
				c0.5,0,1,0,1.3,0.1c0.2,0,0.5,0,0.7,0c0.1,0,0.2,0,0.3-0.1c0.1-0.1,0.2-0.3,0.1-0.5v-0.3c0-0.2,0-0.3,0-0.4v-1.3
				c0-0.2-0.1-0.3-0.3-0.3c-0.1,0-0.3,0-0.5,0c-1.5,0-3.1-0.2-4.5-0.8s-2.1-2.3-1.5-3.7c0,0,0-0.1,0.1-0.1c0.5-1,1.5-1.7,2.6-1.9
				c1.6-0.2,3.2-0.1,4.7,0.3c1.3,0.2,1.3,0.1,1.4,0.1l0,0l0.2-1.6l0,0C74.1,124.7,74.1,124.1,74,123.6z M72.5,126.6
				c-1.6-0.4-3.2-0.4-4.8-0.3c-1.2,0.2-2.2,0.9-2.8,2c-0.7,1.5-0.1,3.3,1.4,4.1c0,0,0.1,0,0.1,0.1c1.5,0.6,3,0.8,4.6,0.8h0.5
				c0.1,0,0.1,0,0.1,0.1v1.3c0,0.2,0,0.3,0,0.4v0.3c0,0.1,0,0.2-0.1,0.3h-0.1c-0.2,0-0.4,0-0.7,0c-0.4,0-0.8,0-1.3-0.1
				c-2.6-0.1-3.3,0.8-3.8,1.6c-0.1,0.1-0.1,0.2-0.2,0.3c-0.5,0.8-0.7,1.8-0.5,2.7s0.8,1.6,1.6,2.1c1.8,0.9,3.7,1,7.4,0.2
				c0,0,0,0,0.1,0v2.9l0,0l0,0c-1.4,0.4-2.8,0.6-4.2,0.5c-1.9,0-3.7-0.5-5.4-1.4c-1.4-0.9-2.4-2.4-2.7-4s0.1-3.3,1.2-4.6
				c0.4-0.5,0.8-0.9,1.3-1.2l0.2-0.1l-0.2-0.1c-2.6-1.5-3.7-4.7-2.6-7.4c0.8-2.1,2.6-3.6,4.7-4.1c0.9-0.2,1.9-0.4,2.9-0.4
				c1.6,0.1,3.2,0.4,4.8,0.9c0,0.3,0,1.4,0,1.6l-0.2,1.5C73.4,126.8,72.6,126.6,72.5,126.6L72.5,126.6z"/>
			<path id="パス_5" class="st0" d="M89.8,137.9c-0.3,0.1-0.6,0.3-0.9,0.6c-0.2,0.2-0.5,0.3-0.7,0.2c-0.3-0.1-0.7,0-1,0.1
				c-0.9,0.2-1.5,1.2-1.3,2.1c0,0.1,0.1,0.2,0.2,0.3c0.6,0.9,2.1,1.3,3.6,0.8s2.6-1.7,2.5-2.8c0-0.1,0-0.3-0.1-0.4
				C91.7,138,90.7,137.5,89.8,137.9z"/>
		</g>
		<g id="グループ_3" transform="translate(0 160.063)">
			<g id="グループ_2" transform="translate(28.198 48.887)">
				<path id="パス_6" class="st0" d="M1.9,1.5l2,2.4l2-2.4h1v6H5.7V3.3l0,0L3.9,5.4H3.8L2,3.3l0,0v4.2H0.9v-6H1.9z"/>
				<path id="パス_7" class="st0" d="M12.3,1.5c0.6,0,1.2,0.1,1.7,0.4c1.5,0.8,2.1,2.6,1.3,4.1C15,6.5,14.6,7,14,7.3
					c-1.1,0.5-2.3,0.5-3.4,0C9.6,6.8,9,5.8,9,4.6C8.9,4,9.1,3.4,9.4,3c0.3-0.5,0.7-0.9,1.2-1.1C11.1,1.6,11.7,1.4,12.3,1.5z
					 M10.1,4.5c0,0.4,0.1,0.7,0.3,1.1c0.2,0.3,0.4,0.6,0.8,0.7c0.3,0.2,0.7,0.3,1.1,0.3c0.6,0,1.1-0.2,1.5-0.6s0.6-0.9,0.6-1.5
					c0-0.4-0.1-0.7-0.3-1.1c-0.2-0.3-0.4-0.6-0.8-0.7c-0.3-0.2-0.7-0.3-1.1-0.3c-0.4,0-0.8,0.1-1.1,0.3s-0.6,0.4-0.7,0.7
					C10.2,3.8,10.1,4.2,10.1,4.5L10.1,4.5z"/>
				<path id="パス_8" class="st0" d="M18.7,1.5l2,2.4l2-2.4h1v6h-1.2V3.3l0,0l-1.7,2.1h-0.2l-1.7-2.1l0,0v4.2h-1.2v-6
					C17.7,1.5,18.7,1.5,18.7,1.5z"/>
				<path id="パス_9" class="st0" d="M27.4,1.5l2,2.4l2-2.4h1v6h-1.2V3.3l0,0l-1.7,2.1h-0.2l-1.7-2.1l0,0v4.2h-1.2v-6
					C26.4,1.5,27.4,1.5,27.4,1.5z"/>
				<path id="パス_10" class="st0" d="M35.4,1.5l1.4,2l1.5-2h1.4l-2.3,3v3h-1.2v-3l-2.3-3H35.4z"/>
				<path id="パス_11" class="st0" d="M42,1.5c0.2,0,0.4,0.1,0.5,0.3s0.2,0.4,0.2,0.7c0,0.8-0.6,1.4-1.3,1.5V3.7
					c0.3-0.2,0.4-0.6,0.4-0.9V2.7c-0.3,0-0.5-0.3-0.5-0.6l0,0c0-0.2,0.1-0.3,0.2-0.4C41.7,1.5,41.8,1.5,42,1.5z"/>
				<path id="パス_12" class="st0" d="M46.8,1.5c0.6,0,1.2,0.2,1.7,0.4v1c-0.5-0.3-1.1-0.5-1.6-0.6c-0.2,0-0.5,0-0.7,0.2
					C46,2.6,45.9,2.8,45.9,3s0.2,0.4,0.5,0.6c0.1,0.1,0.4,0.2,1,0.5c0.4,0.2,0.8,0.4,1.1,0.8c0.2,0.3,0.3,0.7,0.3,1
					c0,0.5-0.2,0.9-0.6,1.2c-0.4,0.3-0.9,0.5-1.4,0.5c-0.3,0-0.7,0-1-0.1s-0.6-0.3-0.9-0.4V5.9c0.5,0.5,1.1,0.8,1.8,0.8
					c0.2,0,0.5-0.1,0.7-0.2s0.3-0.3,0.3-0.5c0-0.3-0.2-0.6-0.5-0.7c-0.2-0.1-0.6-0.3-1-0.5s-0.8-0.4-1.1-0.7c-0.2-0.3-0.4-0.6-0.3-1
					c0-0.5,0.2-0.9,0.6-1.2C45.7,1.6,46.2,1.4,46.8,1.5z"/>
				<path id="パス_13" class="st0" d="M56.4,1.5V4h3.1V1.5h1.2v6h-1.2V5h-3.1v2.5h-1.2v-6H56.4z"/>
				<path id="パス_14" class="st0" d="M66.1,1.5c0.6,0,1.2,0.1,1.7,0.4c1.5,0.8,2.1,2.6,1.3,4.1c-0.3,0.5-0.7,1-1.3,1.3
					c-1.1,0.5-2.3,0.5-3.4,0c-1.5-0.8-2-2.6-1.3-4.1c0,0,0-0.1,0.1-0.1c0.3-0.5,0.7-0.9,1.2-1.1C64.9,1.6,65.5,1.4,66.1,1.5z
					 M64,4.5c0,0.4,0.1,0.7,0.3,1.1c0.2,0.3,0.4,0.6,0.8,0.7c0.3,0.2,0.7,0.3,1.1,0.3c0.6,0,1.1-0.2,1.5-0.6s0.6-0.9,0.6-1.5
					c0-0.4-0.1-0.7-0.3-1.1c-0.2-0.3-0.4-0.6-0.8-0.7c-0.3-0.2-0.7-0.3-1.1-0.3S65.3,2.5,65,2.7c-0.3,0.2-0.6,0.4-0.7,0.7
					C64.1,3.8,64,4.2,64,4.5L64,4.5z"/>
				<path id="パス_15" class="st0" d="M72.4,1.5l2,2.4l2-2.4h1v6h-1.2V3.3l0,0l-1.7,2.1h-0.2l-1.7-2.1l0,0v4.2h-1.2v-6
					C71.4,1.5,72.4,1.5,72.4,1.5z"/>
				<path id="パス_16" class="st0" d="M84,1.5v0.9h-2.7V4h2.6v0.9h-2.6v1.7h2.8v0.9h-3.9v-6L84,1.5z"/>
				<path id="パス_17" class="st0" d="M87.7,1.5l2,2.4l2-2.4h1v6h-1.2V3.3l0,0l-1.7,2.1h-0.2l-1.7-2.1l0,0v4.2h-1.2v-6
					C86.7,1.5,87.7,1.5,87.7,1.5z"/>
				<path id="パス_18" class="st0" d="M98.3,1.5l2.6,6h-1.2L99.1,6h-2.7l-0.6,1.5h-1.2l2.5-6H98.3z M96.8,5.2h1.9l-1-2.4L96.8,5.2
					z"/>
				<path id="パス_19" class="st0" d="M105.1,1.5c0.6,0,1.1,0.1,1.7,0.4c0.5,0.2,0.9,0.6,1.1,1.1c0.3,0.5,0.4,1,0.4,1.6
					c0,0.5-0.1,1.1-0.4,1.6s-0.7,0.8-1.1,1.1c-0.5,0.3-1.1,0.4-1.7,0.4h-2.4v-6L105.1,1.5z M104.9,6.6c0.6,0,1.1-0.2,1.5-0.6
					c0.8-0.9,0.8-2.2,0-3c-0.4-0.4-1-0.6-1.6-0.6h-1.2v4.2H104.9z"/>
				<path id="パス_20" class="st0" d="M114.1,1.5v0.9h-2.7V4h2.6v0.9h-2.6v1.7h2.8v0.9h-3.9v-6L114.1,1.5z"/>
				<path id="パス_21" class="st0" d="M123.3,1.5c0.6,0,1.1,0.1,1.7,0.4c0.5,0.2,0.9,0.6,1.1,1.1c0.3,0.5,0.4,1,0.4,1.6
					c0,0.5-0.1,1.1-0.4,1.6S125.4,7,125,7.3c-0.5,0.3-1.1,0.4-1.7,0.4h-2.4v-6L123.3,1.5z M123.1,6.6c0.6,0,1.1-0.2,1.5-0.6
					c0.8-0.9,0.8-2.2,0-3c-0.4-0.4-1-0.6-1.6-0.6h-1.2v4.2H123.1z"/>
				<path id="パス_22" class="st0" d="M131.4,1.5c0.6,0,1.2,0.1,1.7,0.4c1.5,0.8,2.1,2.6,1.3,4.1c-0.3,0.5-0.7,1-1.3,1.3
					c-1.1,0.5-2.3,0.5-3.4,0c-1.5-0.8-2-2.6-1.3-4.1c0.3-0.5,0.7-1,1.2-1.2C130.2,1.6,130.8,1.4,131.4,1.5z M129.3,4.5
					c0,0.4,0.1,0.7,0.3,1.1c0.2,0.3,0.4,0.6,0.8,0.7c0.3,0.2,0.7,0.3,1.1,0.3c0.6,0,1.1-0.2,1.5-0.6s0.6-0.9,0.6-1.5
					c0-0.4-0.1-0.7-0.3-1.1c-0.2-0.3-0.4-0.6-0.8-0.7c-0.3-0.2-0.7-0.3-1.1-0.3c-0.4,0-0.8,0.1-1.1,0.3s-0.6,0.4-0.7,0.7
					C129.4,3.8,129.3,4.2,129.3,4.5L129.3,4.5z"/>
				<path id="パス_23" class="st0" d="M137.7,1.5V5c0,0.3,0,0.6,0.2,0.9c0.1,0.2,0.3,0.4,0.5,0.5c0.3,0.1,0.6,0.2,0.8,0.2
					c0.3,0,0.6-0.1,0.9-0.2c0.2-0.1,0.4-0.3,0.5-0.5c0.1-0.3,0.2-0.6,0.2-0.9V1.5h1.2v3.6c0,0.7-0.2,1.4-0.7,1.9
					c-0.6,0.5-1.3,0.7-2,0.6c-0.5,0-1-0.1-1.4-0.3c-0.4-0.2-0.7-0.5-0.9-0.9s-0.3-0.9-0.3-1.3V1.5H137.7z"/>
				<path id="パス_24" class="st0" d="M147.3,1.5c0.8,0,1.5,0.2,2.2,0.5v1c-0.7-0.4-1.4-0.5-2.1-0.6c-0.4,0-0.8,0.1-1.2,0.3
					c-0.3,0.2-0.6,0.4-0.8,0.8c-0.2,0.3-0.3,0.7-0.3,1.1c0,0.6,0.2,1.1,0.6,1.5c0.4,0.4,1,0.6,1.6,0.6c0.2,0,0.4,0,0.5,0
					c0.2,0,0.4-0.1,0.6-0.2v-1h-1v-1h2.1V7c-0.3,0.2-0.7,0.4-1.1,0.5c-0.4,0.1-0.9,0.2-1.3,0.2c-0.6,0-1.2-0.1-1.7-0.4
					c-1-0.5-1.6-1.5-1.6-2.7c0-0.6,0.1-1.1,0.4-1.6c0.3-0.5,0.7-0.9,1.2-1.1C146.1,1.6,146.7,1.5,147.3,1.5z"/>
				<path id="パス_25" class="st0" d="M153.3,1.5V4h3.1V1.5h1.2v6h-1.2V5h-3.1v2.5h-1.2v-6H153.3z"/>
				<path id="パス_26" class="st0" d="M161,1.5l3.6,4.2V1.5h1.1v6h-1l-3.6-4.2v4.2H160v-6H161z"/>
				<path id="パス_27" class="st0" d="M169.2,1.5V5c0,0.3,0,0.6,0.2,0.9c0.1,0.2,0.3,0.4,0.5,0.5c0.3,0.1,0.6,0.2,0.8,0.2
					c0.3,0,0.6-0.1,0.9-0.2c0.2-0.1,0.4-0.3,0.5-0.5c0.1-0.3,0.2-0.6,0.2-0.9V1.5h1.2v3.6c0,0.7-0.2,1.4-0.7,1.9
					c-0.6,0.5-1.3,0.7-2,0.6c-0.5,0-1-0.1-1.4-0.3c-0.4-0.2-0.7-0.5-0.9-0.9C168.1,6,168,5.6,168,5.1V1.5H169.2z"/>
				<path id="パス_28" class="st0" d="M180.7,1.5v0.9h-2.1v5.1h-1.2V2.4h-2.1V1.5H180.7z"/>
			</g>
			<path id="パス_29" class="st0" d="M22.8,6.9c-0.1,0-0.2,0-0.3,0C21.4,7.1,20.2,7.1,19,7c-1.6,0.1-3.1,0.2-4.7,0.3
				c0-0.2,0-0.3,0-0.5C14.1,5.3,14,3.7,14,2.1c0-0.2,0-0.4-0.1-0.6c-0.5,0-1,0-1.4,0c-0.9,0-1.8,0.1-2.6,0.2
				C9.7,1.9,9.6,2.2,9.7,2.6C9.9,4.3,10,6,10.2,7.7C8.4,7.7,6.6,7.8,4.8,8c0,0-0.1,0-0.1,0.1C3.4,8.3,2.2,8.4,1,8.5
				c0,0.1-0.1,0.1-0.1,0.2c0.2,2.5,0.5,5,0.6,7.5c1.6,0.1,3.2,0.2,4.7,0.2c-0.1-0.7-0.1-1.5-0.1-2.2c-0.1-0.9-0.2-1.8-0.4-2.8
				c5.2,0,10.5,0,15.7-0.2c-2.4,9.1-5.2,18.2-8.3,27.1C13,38.6,13,39,13.2,39.4c1.3,0.3,2.7,0.6,4.1,0.8c0.2-0.2,0.3-0.4,0.4-0.7
				c2.5-8.2,5-16.5,7.6-24.7c0.5-2.4,1.1-4.8,1.7-7.1V7.6c0-0.2-0.1-0.3-0.1-0.4C25.4,7.1,24.1,7,22.8,6.9z"/>
			<path id="パス_30" class="st0" d="M62.9,7.4c-0.6-0.1-1.1-0.1-1.7-0.1c-1,0.1-1.9,0.1-2.9,0.1C52.5,7.9,46.8,8.5,41,9.1
				c-0.9,0.3-1.9,0.5-2.9,0.6c0,0.1-0.1,0.2-0.2,0.3l0,0c0.1,0.9,0.3,1.8,0.5,2.8c0.3,0.1,0.6,0.2,0.9,0.1
				c6.4-0.9,12.8-1.5,19.3-1.8c-3.9,6.5-7.6,13.1-10.8,20c-0.1,0.2-0.1,0.4-0.1,0.7c0.4,0.5,0.8,0.9,1.2,1.4
				c0.2,0.1,0.5,0.2,0.7,0.3c0.1,0,0.2,0,0.3-0.1c0.3-0.4,0.7-0.8,1-1.2c0.5-0.7,0.9-1.3,1.4-1.9c3-5.2,5.9-10.5,8.7-15.8
				c0.7-1.7,1.4-3.4,2.2-5.1c0.1-0.5,0.3-0.9,0.4-1.4c-0.1-0.2-0.1-0.3-0.3-0.5C63.1,7.6,63,7.5,62.9,7.4z"/>
			<path id="パス_31" class="st0" d="M90.7,7.9c-0.5-0.1-1.1-0.2-1.6-0.2h-0.4c-0.7-0.1-1.5-0.1-2.2-0.2c-3.9-0.2-7.7,0-11.5,0.4
				c-0.3,0-0.7,0-1,0c-0.4,0-0.7,0.1-1,0.3c0,0.9,0.1,1.7,0.1,2.6c0.2,0.1,0.3,0.2,0.5,0.2c0.2,0.1,0.5,0.2,0.8,0.1
				c0.2,0,0.4,0,0.6,0c4,0.1,8,0.1,12,0.1c-0.1,0.2-0.1,0.3-0.2,0.5c-5.2,9-10.2,18.2-14.6,27.7c-0.1,0.2-0.1,0.3-0.1,0.5
				c0,0.1,0.1,0.1,0.1,0.1c1,0.4,2,1,2.9,1.5h0.1c0.1,0,0.2,0,0.2,0c0.1-0.1,0.2-0.2,0.2-0.3c4.7-9.2,10.3-18.4,14.1-28.1
				c0.2-0.4,0.5-0.8,0.7-1.2c0-0.1,0.1-0.2,0.1-0.3c0.2-0.5,0.4-1.1,0.6-1.6c0.1-0.4,0.3-0.8,0.4-1.2C91.4,8.4,91.1,8.1,90.7,7.9z"
				/>
			<path id="パス_32" class="st0" d="M124.2,17.2c-2.7-0.2-5.4-0.3-8.2-0.3c0-2.8,0-5.5,0-8.3c0-0.5-0.3-1-0.8-1.3
				c-0.9-0.1-1.9-0.2-2.9-0.3c-0.1,0.1-0.1,0.1-0.1,0.2l0,0c-0.3,1-0.4,2.1-0.2,3.1c0,0.3,0,0.5-0.1,0.8c0.1,6.6-0.1,13.1-0.6,19.7
				c0,0.1,0,0.3,0.1,0.4c1.3-0.3,2.6-0.6,3.8-0.9c0.2-0.2,0.3-0.5,0.4-0.7c0-0.4,0.1-0.8,0.1-1.2c0-1,0.1-2.1,0.1-3.1
				c-0.1-0.4-0.1-0.9,0-1.3c0-0.9,0.1-1.8,0.1-2.7c3.6,0.1,7.2,0.2,10.7,0.3c0.4,0,0.7-0.1,1-0.3v-0.1l0,0l0,0c0.2-1,0.2-2,0.2-3
				c-0.1-0.1-0.2-0.2-0.3-0.3C126.5,17.6,125.3,17.4,124.2,17.2z"/>
			<path id="パス_33" class="st0" d="M129.3,6.6c0-0.3-0.1-0.7-0.3-0.9c-0.9,0.1-1.9,0.1-2.8,0.2c-0.2,0.2-0.3,0.5-0.3,0.8
				c-0.1,1.4-0.1,2.8,0,4.3c0,0.4,0.2,0.7,0.4,1c0.4,0,0.9,0,1.3,0.1c0.4-0.1,0.9-0.2,1.3-0.3c0,0,0-0.1,0.1-0.1
				c0.3-0.3,0.4-0.7,0.4-1.1C129.3,9.2,129.3,7.9,129.3,6.6z"/>
			<path id="パス_34" class="st0" d="M132.5,4.6c-0.2,0-0.3,0-0.5,0c0,2.1-0.1,4.3-0.1,6.4l0,0c1,0,2,0.2,3,0.2
				c0.2-0.2,0.2-0.5,0.2-0.8V5.8c0-0.2,0-0.5-0.2-0.7C134.1,5,133.3,4.8,132.5,4.6z"/>
			<path id="パス_35" class="st0" d="M162.2,16.3c-5.1,0.3-10.1,0.9-15.1,1.6c-1,0.1-2,0.2-3,0.2c-0.6,0.2-1.3,0.4-1.9,0.5l0,0
				c-0.2,0-0.4,0-0.5,0.1c-0.2,0-0.3,0.1-0.5,0.2c0.1,0.1,0.1,0.3,0,0.4c0,0.6,0.1,1.3,0.2,1.9c0,0.1,0.1,0.3,0.1,0.4
				c0.3,0.2,0.7,0.2,1,0.2c1.6-0.3,3.2-0.4,4.8-0.7c4.5-0.3,8.9-0.8,13.3-1.3c0.2,0,0.3-0.1,0.4-0.1c0.4,0,0.8-0.1,1.2-0.1
				c0.3,0,0.7-0.1,0.9-0.4c-0.1-0.9-0.1-1.8-0.1-2.7C162.8,16.4,162.5,16.3,162.2,16.3z"/>
			<path id="パス_36" class="st0" d="M192.7,9.3L192.7,9.3l-0.1-0.1c-0.1,0-0.3,0-0.4,0l-1.8,0.1c-0.8,0-1.6,0-2.4,0.1h-1.2
				l0.2-0.5c0.1-0.2,0.2-0.5,0.3-0.7c0.2-0.4,0.2-0.8,0.1-1.2V6.9h-0.1c-1.2-0.2-2.2-0.3-3.1-0.4l0,0l0,0c-0.2,0.1-0.3,0.3-0.4,0.5
				c-0.2,0.5-0.4,0.9-0.6,1.4c-0.2,0.4-0.3,0.7-0.5,1.1c-1,0-1.9,0.1-2.9,0.2c-0.5,0-1,0.1-1.6,0.1l-6.3,0.3c-0.3,0-0.5,0.1-0.8,0.2
				H171c0,0,0,0-0.1,0h-0.1v0.1c-0.2,1-0.4,2.1-0.5,3.1v0.1h0.1c0.2,0.1,0.4,0.1,0.6,0.1c2-0.2,4.1-0.3,6.1-0.4l1.1-0.1l2.9-0.1
				c-3.4,8-6.4,15.1-9,21.8c-0.1,0.3-0.2,0.7-0.1,1V36h0.1c0.8,0.2,1.6,0.5,2.5,0.7h0.2l0,0c0.3-0.2,0.5-0.4,0.6-0.7
				c3.5-8.2,6.6-15.6,9.9-23l5.2-0.2h0.8c0.3,0,0.6,0,0.8,0h0.1h0.1c0.2,0,0.5-0.1,0.7-0.2h0.1v-0.4
				C192.8,11.1,192.7,10.2,192.7,9.3z"/>
			<path id="パス_37" class="st0" d="M223,16.6c-0.5,0.1-1,0.1-1.5,0h-0.2c-0.2,0-0.4,0.1-0.6,0.1c-1.3,0-2.7,0.1-4,0.2
				c-1,0-2,0-3.2,0h-0.1v-0.1v-0.2l0.1-0.5c0-0.3,0.1-0.5,0.1-0.8l0.8-3.2h0.1c0.2,0,0.4,0,0.6-0.1h0.2c0.4-0.1,0.9-0.2,1.3-0.2
				c0.2,0,0.4-0.1,0.6-0.1c0.8-0.2,1.7-0.4,2.5-0.5c0-0.3,0.1-0.6,0.1-0.9c0-0.4,0-0.7,0.1-1.1V9.1c0-0.1,0-0.2,0-0.2V8.8
				c0-0.4,0-0.9,0-1.3c-0.1-0.1-0.1-0.2-0.2-0.3l0,0l0,0l-0.1,0.1c-2.4,0.3-4.9,0.5-7.4,0.7c-2.6,0.2-5.2,0.4-7.8,0.8
				c-0.1,0.3-0.2,0.6-0.3,0.9c0,0.1,0,0.1,0,0.2c0,0.1,0,0.2,0,0.3l0,0c0,0,0,0.1,0,0.2L204,11c0,0.3-0.1,0.6-0.1,0.9
				c0,0.4-0.1,0.8-0.1,1.2l0,0c0.2,0.1,0.5,0.1,0.8,0.1c1.8-0.3,3.7-0.5,5.7-0.7h0.1l-0.8,4.5h-0.1c-2.8,0.1-5.6,0.2-8.3,0.4h-0.4
				c-0.6,0.1-1.3,0.2-2,0.3l-0.2,0.4c0,0.1,0.1,0.2,0.1,0.3c0,0.5,0,0.9,0,1.4v0.4l0.1,0.9v0.1c0,0.1,0,0.2,0,0.2l0,0
				c0.1,0,0.3,0.1,0.4,0.1h0.8h0.1l1.1-0.1c2.4-0.1,4.9-0.2,7.6-0.3h0.1v0.1l-1.4,7.8v0.1c0,0.4,0,0.8-0.1,1.3
				c0,1.6-0.2,3.3-0.4,4.9v0.4l0.7,0.2c0.5,0,1,0.1,1.5,0.2l1.3,0.2l0.2-1.2c0.3-1.1,0.5-2.1,0.5-3.2c0.6-3.4,1.1-7.1,1.6-10.8V21
				h0.1c3.8-0.2,7.3-0.4,10.6-0.6c0.1-0.4,0.1-0.8,0.2-1.2c0.1-0.7,0.3-1.5,0.4-2.2c0-0.1-0.1-0.2-0.1-0.3
				C223.8,16.6,223.4,16.6,223,16.6z"/>
			<path id="パス_38" class="st0" d="M241.1,34.4c-0.2-0.6-0.4-1.2-0.5-1.8c-0.2,0-0.4,0-0.7,0l0,0c-0.2,0-0.3,0-0.5,0
				c-0.3,0-0.6,0-0.9,0c-0.1,0-0.1,0-0.2,0c-0.2,0.1-0.4,0.1-0.6,0c-0.2,0-0.4,0-0.6,0c0-0.1,0.1-0.3,0.1-0.4c0-0.1-0.1-0.2,0-0.3
				c0-0.1,0-0.2,0-0.4c-0.1-0.1-0.1-0.3-0.1-0.4c0-1.9-0.2-3.9-0.2-5.8c-0.1-0.5-0.2-1.1-0.3-1.7h-0.3c-1,0-2,0-3,0.1
				c-0.7,0.1-1.4,0.1-2.1,0.1c-0.7,0.1-1.5,0.2-2.2,0.3l0,0c0,1.2,0,2.3,0.1,3.5c0.6-0.1,1.2-0.1,1.9-0.1c0.8,0,1.7-0.1,2.5-0.1l0,0
				c0,1.7,0.2,3.4,0.4,5.1c-0.6,0-1.2,0.1-1.9,0.2c-0.1,0-0.3,0-0.4,0c-0.1,0.1-0.3,0.1-0.4,0v0.1l0,0c-0.8,0-1.6,0.1-2.5,0.2l0,0
				h-0.1l0,0l0,0c0,1.4,0.1,2.8,0.2,4.2c0.6,0,1.2,0,1.7-0.1c3.2-0.1,6.6-0.1,9.8-0.5h0.1l0,0c0.2,0,0.4,0,0.7,0
				C241.1,36,241.1,35.2,241.1,34.4z"/>
		</g>
	</g>
</g>
<g id="グループ_1475">
	<g>
		<g id="グループ_1474">
			<path id="パス_3276" d="M236.6,166.9c0.7,0,1.4,0.2,2,0.5c0.6,0.3,1.1,0.8,1.5,1.4c1.1,1.9,0.4,4.3-1.4,5.4
				c-0.6,0.3-1.3,0.5-2,0.5c-0.7,0-1.4-0.2-2-0.5c-1.9-1.1-2.5-3.5-1.4-5.4C233.9,167.6,235.2,166.9,236.6,166.9 M236.6,167.5
				c-1.8,0-3.3,1.5-3.3,3.3s1.5,3.3,3.3,3.3s3.3-1.5,3.3-3.3c0-0.9-0.3-1.7-1-2.4C238.3,167.9,237.5,167.5,236.6,167.5 M235.7,173
				H235v-4.3h1.5c0.4,0,0.7,0,1.1,0.1c0.2,0.1,0.4,0.2,0.5,0.4c0.1,0.2,0.2,0.4,0.2,0.6c0,0.3-0.1,0.6-0.3,0.8
				c-0.2,0.2-0.5,0.4-0.9,0.4c0.2,0.1,0.3,0.2,0.5,0.3c0.2,0.2,0.4,0.5,0.5,0.7l0.5,0.8h-0.8l-0.4-0.7c-0.2-0.3-0.4-0.7-0.6-0.9
				c-0.2-0.1-0.4-0.2-0.6-0.2h-0.4L235.7,173z M235.7,169.3v1.3h0.8c0.3,0,0.5,0,0.8-0.2c0.2-0.1,0.3-0.3,0.2-0.5
				c0-0.2-0.1-0.4-0.2-0.5c-0.3-0.1-0.6-0.2-0.8-0.1H235.7z"/>
		</g>
	</g>
</g>
</svg>
