<?xml version="1.0" encoding="utf-8"?>
<!-- Generator: Adobe Illustrator 24.2.0, SVG Export Plug-In . SVG Version: 6.00 Build 0)  -->
<svg version="1.1" id="レイヤー_1" xmlns="http://www.w3.org/2000/svg" xmlns:xlink="http://www.w3.org/1999/xlink" x="0px"
	 y="0px" viewBox="0 0 234 70" style="enable-background:new 0 0 234 70;" xml:space="preserve">
<style type="text/css">
	.st0{fill:#A22727;stroke:#A22727;stroke-width:0.5;}
</style>
<g id="グループ_613" transform="translate(0.25 0.25)">
	<g id="グループ_104">
		<g id="グループ_99">
			<path id="パス_117" class="st0" d="M19.5,19.4c-1,0.2-1.8-0.7-2,0.8c-0.1,0.2-0.6,0.4-0.6,0.7c0,0.4,0.6,0.4,0.6,0.8
				c0,0.3-0.1,0.5,0,0.7c0.2,1.2,1.2,0.7,2,1c0.4,0.2,0.5-0.5,0.9-0.5c0.4,0,0.4,0.5,0.7,0.5c0.9-0.1,1-0.4,1.5-0.5
				c0.2,0,0.3,0.6,0.5,0.7s0.7,0.2,0.7,0.5c0,0.4-0.4,0.4-0.4,0.9c0.3,0.8,0.2,1.5,0,2.3c0.2,0.5,0.3,1,0.1,1.5
				c0,0.2-0.7,0.3-0.8,0.6s0,0.5,0,0.7c0.1,1,0.1,0.8-0.7,1.2c-0.1,0.5-0.2,1-0.4,1.5c-0.5,0.3-0.7,0.7-1,1.2
				c-0.4,0.5-0.9,0.5-1.5,0.5c-0.3,0.4-0.7,0.7-1.2,0.9c-0.5,0-1,0-1.4,0.3c-0.7-0.1-1.5-0.1-2.2,0.2c-1-0.2-2.1-0.1-3-0.7
				c-0.3-0.1-0.7,0.3-0.9,0.2c-0.5-0.3-0.9-0.7-1.2-1.1c-0.2-0.2-0.6-0.1-0.8-0.2S8.2,33.3,8,33.1c-0.7-0.3-1.3-0.9-1.8-1.5
				c-0.1-0.5,0-1.1-0.1-1.6c-0.5-0.6-0.3-1.5-0.9-2.1c0.1-0.5,0.3-1,0.4-1.5c-0.6-0.9-0.6-0.6,0-1.5c0.1-0.6-0.2-1-0.5-1.5
				c0.2-0.5,0.3-1,0.2-1.5c0.1-0.6-0.1-1-0.4-1.5c0-0.5,0.1-1,0.3-1.5c0-0.2,0.3-0.5,0.3-0.7S4.9,17.7,5,17.4
				c0.2-0.7,0.2-1.5,0.6-2.2c-0.2-0.5-0.1-1,0.2-1.5c-0.5-1-0.8-0.6,0.1-1.5c0.3-0.6,0.1-1.1-0.1-1.6C7,8.9,8.1,6.5,10.5,6.1
				C11,5.8,11.4,5.4,11.8,5c0.3-0.1,0.6,0.4,0.9,0.3s0.5-0.5,0.7-0.5s0.5,0.3,0.8,0.3c0.6-0.3,0.8-0.5,1.5-0.2
				c0.2,0,0.4,0.4,0.7,0.5s0.6-0.2,0.8-0.2c1.6-0.1,0.4,1,2,0.9c0.4,0.3,0.8,0.6,1.3,0.8c0.2,0.2,0.1,0.6,0.3,0.8
				c0.4,0.3,0.9,0.5,1.3,0.8c0,1,0.7,1.2,1.1,2c-0.3,1.1,0,1.4,0.9,1.4c0.1-0.1-0.2-0.1-0.1-0.1s0.1-0.2,0.1,0l-0.1-0.2
				c0.3,0,0.3,0.4,0.7,0.4c0.2,0,0.5-0.1,0.7-0.1c0.5,0.2,1.1,0.1,1.4-0.2c0.1,0,0.2,0,0.3-0.2c0.1-0.1,0.5-0.2,0.5-0.5
				c0-0.3-0.6-0.4-0.7-0.6c0.1-0.9,0.1-1.7-0.7-2.1c0-1.2-1.1-1.7-1.4-2.8c-0.6-0.2-0.9-0.6-1.1-1.1C23.6,4.1,23.2,4.2,23,4
				s-0.2-0.6-0.4-0.7s-0.6,0-0.8-0.1c-0.4-0.4-0.7-0.7-1.3-0.8c-1.1-1-2.5-0.6-3.8-0.7c-0.5-0.2-1-0.5-1.5-0.7c-1.1,0-2,0.3-3.1,0.5
				c-0.3,0-0.6-0.2-0.8-0.2s-0.4,0.4-0.7,0.5c-1-0.3-1.4,0.4-2,1.1c-0.9,0.1-1.6,0.1-2,1.1C5.9,4,5.6,4.1,5.3,4.7
				C5,5.1,4.5,5.4,4.2,5.7C2.7,6.2,2.7,7.8,2.3,9c-0.9,0.6-0.9,0.3-0.5,1.4c-0.6,1.1-0.6,2.5-0.5,3.8c-0.1,0.8-0.5,1.5-0.1,2.3
				c0,0.3,0.2,0.5,0.2,0.8s-0.4,0.5-0.4,0.8c-0.1,0.6,0.1,1.1,0.4,1.6c-0.2,0.5-0.4,1-0.5,1.6c0.4,0.7,0.4,1.5,0.5,2.3
				c-0.3,1.2-0.9,2.1,0.2,3.1c-0.4,0.8-0.5,1.6,0.1,2.3c-0.3,0.8,0.1,1.5,0.1,2.3c0.1,0.8,0.8,1.4,1.3,1.9c-0.2,1,0.5,1.3,1.2,1.9
				c0.8,0.9,0.8,2,2.3,2c0.2,0.9,1,1.1,1.8,1.4c0.6,0,0.9,0.3,1.4,0.8c1.2-0.4,0.7-0.6,1.5,0.3c1,0.2,2.1,0.4,3.1-0.1
				c0.6,0.3,0.9,0.3,1.5-0.1c0.6,0.2,0.9,0.2,1.5-0.2c0.2-0.1,0.6,0.3,0.9,0.3c0.4-0.3,0.8-0.7,1.2-1c0.5-0.1,1.1-0.1,1.6-0.1
				c0.3-0.9,1-1.1,1.9-1.3c0.3-1,1.4-1.4,2.1-2.3c0.7-0.5,0.7-1.3,1.3-1.9c0.1-0.8,0.8-1.3,1-2.1c0.1-0.5,0.2-1,0.3-1.5
				c0-0.3-0.2-0.5-0.2-0.8s0.4-0.5,0.4-0.7c-0.1-0.9,0.3-1.6-0.2-2.3c0-0.4,0.2-0.4,0.2-0.7c-0.2-0.5-0.3-0.9-0.4-1.5
				c0.8-1.1,0.5-4.1-1.4-3.4c-0.6-0.1-1-0.1-1.6-0.1c-0.8-0.3-1.5-0.2-2.3-0.3c-0.6,0.2-0.8,0.4-1.6,0.4
				C20.1,19.6,19.9,19,19.5,19.4z"/>
		</g>
		<g id="グループ_100" transform="translate(41.521 1.839)">
			<path id="パス_118" class="st0" d="M13.1,1.3c-0.5-0.2-0.9-0.3-1.5-0.1c-0.2,0-0.5-0.2-0.8-0.2s-0.4,0.4-0.7,0.5
				c-1,0.1-2.2,0-2.8,1c-2,0.2-2.7,2.2-4.3,3.1C3,6.5,2.4,7,2,7.8c0,0.6-0.2,1-0.5,1.5c-0.1,0.3,0.1,0.5,0.1,0.8
				c-0.3,0.5-0.5,0.9-0.3,1.5c-0.2,0.5-0.2,1-0.1,1.6c0,0.3-0.4,0.5-0.4,0.8c0.3,0.5,0.7,0.9,0.5,1.6c-1,1.5,0.2,3.1-0.3,4.7
				c0.2,0.8,0.2,1.6-0.2,2.4c0.6,1-0.2,2.1,0.5,3.1c-0.1,0.8,0.4,1.6,0,2.4c0.4,0.4,0.8,0.8,0.9,1.3c0.4,0.7,0.4,1.5,1,2.1
				c0.2,0.2,0.1,0.6,0.3,0.8s0.6,0.1,0.8,0.3s0.1,0.6,0.3,0.8s0.7,0,0.9,0.1c1,0.6,1.2,1.9,2.6,1.5c0.4,0.4,0.8,0.5,1.4,0.5
				c0.2,0.1,0.4,0.6,0.6,0.6c0.5-0.2,1-0.4,1.6-0.2c0.4,0.3,0.9,0.6,1.5,0.5c1-0.1,1.9-0.5,2.9-0.8c1,0.3,0.7,0.5,1.4-0.4
				c0.5-0.2,1.1-0.1,1.6-0.1c0.2-0.1,0.3-0.5,0.5-0.7c0.4-0.4,0.9-0.5,1.4-0.7c0.2-0.2,0.2-0.6,0.3-0.8c0.5-0.2,1-0.3,1.4-0.8
				c0.2-0.2,0-0.7,0.2-0.9s0.5-0.3,0.6-0.5c0-0.8,0.7-1.4,0.7-2.2c0.1-1.1,0.9-1.9,1-3c-0.5-1.1,0.3-2,0.2-3.1
				c0-0.3-0.3-0.5-0.3-0.8s0.4-0.5,0.4-0.8c0.1-0.6-0.1-1.1-0.4-1.6c-0.2-0.8-0.1-1.6-0.1-2.4c0.1-0.5,0.3-1.1,0.5-1.6
				c0.1-1.1-0.3-2.1-0.1-3.1c-1-0.9-0.1-2-0.4-3.1c-0.1-0.2-0.5-0.4-0.6-0.6C24.4,7.9,24.5,7.5,24,7c-0.3-0.4-0.8-0.7-1.2-1
				c-0.2-0.2,0.1-0.7-0.1-0.9c-0.5-0.7-1.4-0.7-1.8-1.4c-1.4-0.7-2.6-1.2-3.2-2c-0.5,0-1.1,0.1-1.6,0.1c-0.2-0.1-0.4-0.5-0.6-0.6
				s-0.5,0.3-0.8,0.3s-0.5-0.4-0.7-0.4S13.4,1.3,13.1,1.3z M13.1,33c-0.2,0-0.5-0.3-0.7-0.3c-0.6,0.1-1,0-1.4-0.4
				c-1.1,0.4-1.7-0.6-2.6-1.2c-1.2,0-1.3-1.3-2.1-2.1c-0.8-0.7-1.2-1.8-1-2.8c-0.3-0.5-0.4-0.9-0.4-1.5c0.1-0.8-0.5-1.5-0.1-2.3
				c-0.3-0.5-0.3-1,0-1.5c-0.1-0.5-0.1-1,0-1.5c-0.2-0.6-0.1-1,0.3-1.5c-0.3-0.5-0.7-0.9-0.5-1.5C5,15.6,5,14.8,5.1,14
				c-0.4-0.8-0.2-1.5,0-2.3C5,10.9,5.2,10.1,5.8,9.5C5.6,8.3,6.9,7.8,7.1,6.8c0.7-0.4,1.1-1.1,1.9-1c0.4-1,1.6-1.3,2.6-1.1
				c0.5-0.2,0.9-0.1,1.4,0.1c0.2,0,0.5-0.3,0.7-0.3s0.4,0.4,0.7,0.4s0.6-0.4,0.8-0.3c0.8,0.1,1.2,0.8,1.9,1.2c0.2,0.1,0.7-0.2,0.9,0
				c0.3,0.4,0.7,0.7,1.2,1c0.2,0.2,0,0.7,0.2,0.9c1.6,0.4,1.1,1.4,1.4,2.6c0.4,1.2,1.3,2.6,0.4,3.8c0,0.2,0.5,0.5,0.5,0.8
				c0,0.6-0.3,1.1-0.6,1.6c0.4,0.7,0.5,1.5,0.1,2.3c0,0.3,0.4,0.5,0.4,0.8s-0.4,0.5-0.4,0.8c-0.2,0.6,0,1,0.2,1.5
				c-0.3,0.6-0.2,1,0,1.5c-0.2,0.8,0,1.5-0.1,2.3c-0.4,1-1,1.9-1,3c-0.6,0.9-1.6,1.4-1.9,2.4c-0.5,0.1-1,0.1-1.4,0.5
				c-0.2,0.1-0.2,0.6-0.4,0.7C15.7,33,14.3,32.7,13.1,33L13.1,33z"/>
		</g>
		<g id="グループ_101" transform="translate(79.521 0.963)">
			<path id="パス_119" class="st0" d="M14.2,0.9C13.5,1.1,12.7,1,12,1.5c-0.2,0-0.6-0.3-0.8-0.3c-0.6,0.5-1.4,0.7-2,1.1
				C8.7,2.7,8.2,2.7,7.6,2.7C7.4,2.8,7.3,3.2,7.1,3.3s-0.6,0-0.8,0.2S6.1,4,5.9,4.2s-0.7,0-0.9,0.1S4.9,4.8,4.7,5
				C4.1,5.2,3.8,5.4,3.5,6.1C3.1,6.4,2.8,6.7,2.6,7.3C2.1,7.7,2,8.1,2.1,8.8C1.4,9.3,1.4,10.1,1.3,11c-0.3,0.5-0.4,1-0.3,1.5
				c0.6,1,0.6,0.6-0.1,1.6c0,0.5,0.2,1.1,0.3,1.6C0.7,17.3,0.8,19.2,1,21c-0.3,0.8-0.3,1.7,0.4,2.3c-0.7,1-0.3,2-0.2,3.1
				c0,0.3,0.4,0.5,0.4,0.7S1.3,27.8,1.3,28c0.6,0.9,0.3,2,0.9,3c0.1,0.2,0.6,0.2,0.7,0.5C3,32,3,32.6,3.5,33c0.4,1,1.5,1.3,2.4,1.9
				C6.2,35.3,6.5,35.7,7,36c0.5,0.1,1,0.2,1.5,0.3C8.7,36.4,8.8,37,9,37.1c1.1,0,1.9,0.7,3,0.8c0.3,0,0.6-0.4,0.8-0.3
				s0.5,0.4,0.7,0.4c0.9,0.2,1.4-0.6,2.3-0.2c0.3,0,0.5-0.4,0.7-0.4s0.5,0.2,0.8,0.2c0.7-0.6,1.5-0.6,2.3-0.4
				c0.8-0.3,1.1-1.1,1.8-1.4c0.9-0.1,1.6-0.5,1.7-1.4c0.4-0.5,1-0.5,1.5-0.6c1.2-1.2,1.5-2.7,2-4.2c0.5-0.7,1-1.4,0.5-2.2
				c0.5-1.4,0.6-2.4,0.4-3.8c0.3-0.8-0.2-1.5,0.1-2.3c-0.5-1.2-0.2-2.6-0.3-3.9c0-0.3,0.4-0.5,0.4-0.8c-0.3-0.5-0.7-0.9-0.6-1.5
				c0.5-0.7,0.6-1.5,0.4-2.4c0.1-0.8-0.2-1-0.6-1.5c0.1-0.8-0.2-1.5-0.2-2.3c-0.5-0.3-0.8-0.6-1-1.2c0.1-0.9-0.6-1.4-1.1-2.1
				c-0.2-0.2-0.7,0-0.9-0.2s-0.2-0.6-0.4-0.7s-0.6-0.1-0.8-0.2c-0.3-0.6-0.5-0.8-1.2-0.9c-0.2-0.1-0.2-0.7-0.4-0.9c-1,0-2-0.2-3-0.7
				c-0.2-0.1-0.4-0.5-0.6-0.6s-0.6,0.2-0.8,0.2C15.7,1.5,14.9,1.3,14.2,0.9z M14.2,33.9c-0.8,0.2-1.6-0.1-2.4,0.1
				c-0.3-0.1-0.4-0.5-0.6-0.6c-1.1,0.2-2.1-0.5-3-1c-0.2-0.2-0.2-0.6-0.4-0.8c-0.2-0.2-0.6-0.2-0.7-0.3S7,30.7,6.9,30.5
				S6.3,30.2,6.2,30s0.2-0.6,0.1-0.9s-0.4-0.4-0.5-0.6c0.1-0.6,0.1-0.9-0.2-1.5c0.2-0.8-0.2-1.5,0-2.3c0-0.2-0.3-0.5-0.4-0.7
				c0-0.2,0.3-0.5,0.3-0.8c-0.1-0.8-0.2-1.5,0.1-2.3c0.1-0.6-0.3-1.1-0.6-1.5c0-0.3,0.5-0.5,0.5-0.8c0-0.8-0.6-1.5-0.2-2.3
				c0.2-0.5,0.3-1,0.1-1.5c0.2-0.5,0.2-1,0.2-1.5c0.1-0.8-0.1-1.5,0.4-2.2c0.3-0.6,0-1.1-0.1-1.6c1-0.8,1.8-2,2.4-3.1
				c0.2-0.2,0.7,0,0.9-0.1s0.3-0.5,0.5-0.6c0.8-0.1,1.5-0.4,2.3-0.5c0.7-0.6,0.5-0.7,1.5-0.3c1.3,0.2,2.6,0.1,3.9,0.2
				c0.8,0.8,1.9,0.9,2.9,1.4c0.2,0.2,0.1,0.7,0.3,0.9c0.4,0.3,0.8,0.6,1.1,1c0.1,0.8,0.5,1.5,1.2,2c-0.3,0.8-0.1,1.6,0.4,2.3
				c-0.2,0.6,0,1,0.3,1.5c0,0.2-0.3,0.5-0.3,0.8c0,0.2,0.3,0.5,0.3,0.7c0.1,0.6-0.3,1-0.5,1.5c0,0.5,0.2,1,0.4,1.5
				c0.2,0.8-0.3,1.5-0.3,2.3c0.3,0.5,0.6,0.9,0.4,1.5c0,0.3-0.5,0.5-0.5,0.7c-0.1,1.3,0.2,2.5,0.1,3.8c0,1.2-1.2,1.7-1,2.9
				c-0.6,0.9-1.6,1.3-2.1,2.2c-0.4,0.4-0.9,0.6-1.4,0.7c-0.4,0.4-0.8,0.6-1.4,0.6C16.4,34.2,15.2,34.4,14.2,33.9z"/>
		</g>
		<g id="グループ_102" transform="translate(163.669 1.75)">
			<path id="パス_120" class="st0" d="M25.5,1c-0.7,0.1-1.3-0.1-2,0c-0.3,0.4-0.6,1.1-0.8,1.6c0,0.4,0.3,0.4,0.3,0.8
				c-0.1,0.6-0.2,1-0.3,1.6c0,0.4,0.3,0.4,0.3,0.8c-0.2,0.8,0,1.5,0,2.3c0.1,0.8,0.1,1.5,0,2.3c-0.1,0.5-0.5,1-0.6,1.6
				c0.2,0.6,0.2,1,0.1,1.6c0,0.4,0.3,0.4,0.3,0.8s-0.3,0.4-0.3,0.8s0.2,0.4,0.2,0.8c-0.1,0.3-0.6,0.7-0.9,0.8
				c-0.6-0.1-0.9-0.1-1.5,0c-0.4,0-0.4-0.2-0.8-0.2s-0.4,0.4-0.8,0.4c-0.6-0.1-0.9-0.2-1.5-0.1c-0.4,0-0.4-0.2-0.8-0.2
				s-0.4,0.5-0.8,0.5s-0.4-0.2-0.8-0.2c-1.2,0.4-1.8-0.5-3-0.2c-0.4,0-0.4,0.4-0.8,0.4s-0.4-0.4-0.8-0.4s-0.4,0.3-0.8,0.3
				s-0.4-0.4-0.8-0.4c-0.7,0.2-0.8,0.2-1.5,0c-0.9,0.5-2.2,0.4-2.7-0.6c0-0.4,0.4-0.4,0.4-0.8s-0.4-0.4-0.4-0.8s0.6-0.4,0.6-0.8
				c-0.1-0.8,0-1.5-0.2-2.3c0.2-0.6,0.3-1,0.2-1.6C5.4,9.1,5,9.1,5,8.7S5.5,8.4,5.5,8s0-0.4,0-0.8S5,6.8,5,6.4S5.3,6,5.3,5.6
				S5,5.2,5,4.9c0.3-0.8,0.3-1.5,0.4-2.3C5,1.5,2.8,0.5,1.9,1.5c-0.7,0-1.1,0.3-1.1,1.1c0,0.4,0.3,0.4,0.3,0.8c0.1,0.6,0,1-0.1,1.5
				c0,0.4,0.2,0.4,0.2,0.8c0,1.1-0.3,2-0.1,3.1c-0.3,0.6-0.4,0.8-0.2,1.5c0,0.4,0.4,0.4,0.4,0.8c-0.2,0.6-0.4,1-0.5,1.5
				c0,0.4,0.2,0.4,0.2,0.8c0,1.1-0.4,2.1,0.2,3.1c0,0.4,0,0.4,0,0.8s-0.4,0.4-0.4,0.8s0.4,0.4,0.4,0.8S0.8,19,0.8,19.4
				s0.4,0.4,0.4,0.8c0,0.6,0,1-0.2,1.5c0.1,0.6,0.2,1,0.2,1.5c-0.3,0.8-0.1,1.5,0,2.3C1,26.3,1,26.5,1.3,27.1c0,0.4-0.4,0.4-0.4,0.8
				s0.4,0.4,0.4,0.8S1,29.1,1,29.4s0.3,0.4,0.3,0.8S1.1,30.6,1.1,31c0,0,0,0.8,0,0.8c0,0.4-0.3,0.4-0.3,0.8c0.1,0.6,0.2,1,0.3,1.5
				c-0.1,0.6-0.3,1,0.1,1.5c0.3,1.2,1.5,0.9,2.4,0.9c0.3,0,0.4-0.5,0.6-0.6c0.5-0.1,1.1-0.5,1.2-1.1c-0.1-0.6-0.2-0.9-0.1-1.5
				C5.4,33,5,33,5,32.6s0-0.4,0-0.8c0.3-0.7,0.5-0.6,0.4-1.5c-0.2-0.5-0.4-0.9-0.5-1.5c0-0.4,0.5-0.4,0.5-0.7c0-0.8-0.4-1.4-0.1-2.3
				c0.1-0.8,0.2-1.5-0.2-2.3c0.3-0.8,0.1-1.5,0.4-2.3c0-0.2-0.3-0.6-0.2-0.8c0.4-0.2,1,0,1.5-0.2c0.4,0,0.4,0.3,0.8,0.3
				c0.5-0.2,0.9-0.4,1.5-0.5c0.5,0.2,0.9,0.3,1.5,0.3c0.4,0,0.4-0.3,0.8-0.3c0.7,0.3,1.5,0.3,2.3,0.5c0.6-0.1,1-0.3,1.5-0.4
				c0.4,0,0.4,0.4,0.8,0.4s0.4-0.5,0.8-0.5c0.6,0.2,0.9,0.3,1.5,0.1c0.4,0,0.4,0.3,0.8,0.3s0.4-0.3,0.8-0.3c0.6,0.1,0.9,0.3,1.5,0.3
				c1.2-0.7,2,0.3,1.7,1.5c0.1,0.8,0,1.5-0.2,2.3c0,0.4,0.4,0.4,0.4,0.8c-0.1,0.6-0.2,1-0.4,1.5c0.2,0.6,0.3,0.9,0.1,1.5
				c0.1,0.5,0.3,0.9,0.3,1.5c-0.1,1-0.4,1-0.5,1.5c0.1,0.8,0.2,1.5,0.4,2.3c0,0.4-0.3,0.4-0.3,0.8c0.4,0.8-0.2,1.7,0.9,2.2
				c0.2,0.1,0.5,0,0.8,0c0.7,0.2,1.2,0.6,1.9,0.1c0.9-0.4,1-1.4,0.6-2.2c0.3-0.8,0.4-1.5,0.2-2.3c0-0.4-0.4-0.4-0.4-0.8
				s0.3-0.4,0.3-0.8s-0.3-0.4-0.3-0.8c0.2-0.5,0.4-0.9,0.4-1.5c0.1-0.8-0.1-0.9-0.4-1.5c0-0.8,0.4-1.5,0.4-2.3
				c0-0.4-0.4-0.4-0.4-0.8s0.1-0.4,0.1-0.8c-0.1-0.8-0.2-1.5,0.1-2.3c0-1.1-0.2-2,0.1-3.1c0.2-0.8,0-0.9-0.3-1.5
				c0-0.4,0.1-0.4,0.1-0.8c0.1-0.8,0.3-1.5,0.1-2.3c0.2-0.6,0.2-0.9,0-1.5c0-0.4,0.1-0.4,0.1-0.8s-0.5-0.4-0.5-0.8s0.5-0.4,0.5-0.8
				s-0.2-0.4-0.2-0.8c0.1-0.8,0-1.6-0.3-2.3c0-0.4,0-0.4,0-0.8s0.5-0.4,0.5-0.8c-0.2-0.6-0.4-1-0.5-1.6C27.3,1.6,26.4,0.8,25.5,1z"
				/>
		</g>
		<g id="グループ_103" transform="translate(204.91 1.587)">
			<path id="パス_121" class="st0" d="M26,0.9c-0.9,0.1-2.2-0.1-2.1,1.2c-1,0.7-0.3,1.2-0.3,2.1c0,0.4-0.5,0.4-0.5,0.8
				s0.5,0.4,0.5,0.8c-0.2,0.6-0.3,0.9-0.3,1.5c0,0.4,0.4,0.4,0.4,0.8c-0.2,0.6-0.3,0.9-0.2,1.5c0,0.4-0.3,0.4-0.3,0.8
				s0.4,0.4,0.4,0.8c0,1.1,0,2-0.3,3.1c0.1,0.6,0.1,1,0.1,1.5c-0.1,0.6-0.2,0.9-0.2,1.5c0,0.4,0.4,0.4,0.4,0.8s-0.5,0.4-0.5,0.8
				s0.2,0.4,0.2,0.8s-0.2,0.4-0.2,0.8s0.5,0.4,0.5,0.8c-0.1,0.6-0.2,0.9,0,1.5c0,0.4-0.5,0.4-0.5,0.8c0.1,0.6,0.2,1,0.4,1.5
				c-0.1,0.8-0.2,1.6,0,2.4c-0.9,0.8-0.8,0.4-0.4,1.5c-0.1,0.2-0.7,0.3-0.8,0.5c-0.2,1-1,1.8-1.3,2.8c-0.4,0.4-0.9,0.5-1.5,0.6
				c-0.5,0.6-1.3,0.9-2.1,0.8c-0.6,0.1-1,0.4-1.4,0.7c-0.8-0.2-1.5,0.2-2.4,0.2c-0.9-0.9-2.1-0.2-3-0.9c-0.6-0.6-1.4-0.7-2.2-0.9
				c-0.3-0.5-0.6-0.9-1.1-1.2c-0.7-0.5-0.9-1.3-1-2.1c-0.8-1-1.4-2.6-0.7-3.7c-0.4-0.6-0.5-0.8-0.3-1.5C4.8,23,5.4,22.3,5.1,21
				c0.2-0.6,0.4-0.9,0.3-1.5c0.1-0.6-0.1-1.1-0.3-1.6c0-0.8,0-1.5,0-2.3c0-0.4,0.2-0.4,0.2-0.8c-0.1-0.6-0.3-1-0.3-1.6
				c0.1-0.6,0.3-1,0.4-1.6c0-0.4-0.4-0.4-0.4-0.8c0-0.6,0.1-1,0.2-1.6C5.1,8.8,5,8.4,4.9,7.8c0-0.4,0.6-0.4,0.6-0.8
				c0-0.6-0.1-1-0.2-1.6C5.1,4.8,5,4.7,5.3,3.9C5,3.4,4.4,2.6,3.7,2.3c-0.6,0-0.6,0.3-1.1,0.3C1.4,2.2,1.3,3.8,1,4.7
				C1.1,5.5,0.8,6.2,0.8,7c0,0.4,0.3,0.4,0.3,0.8S0.8,8.1,0.8,8.5s0.5,0.4,0.5,0.8S1.2,9.6,1.2,10c0,0.6-0.2,1-0.4,1.5
				c0,0.4,0.2,0.4,0.2,0.8c-0.2,0.6-0.3,0.9-0.1,1.5c0,0.6,0.1,1,0.3,1.5c0.1,0.7,0,0.9-0.2,1.5c0,0.4,0.3,0.4,0.3,0.8
				S0.9,18,0.9,18.4s0.3,0.4,0.3,0.8s-0.3,0.4-0.3,0.8S1,20.3,1,20.7c-0.2,0.7-0.2,0.8,0,1.5c0.3,0.6,0.3,0.8,0.2,1.5
				C1,24.3,1,24.7,1,25.3c0.5,0.7,0.5,1.5,0.2,2.3c-0.1,0.7,0.1,1,0.6,1.4c0.1,0.2-0.2,0.6-0.1,0.8s0.5,0.4,0.6,0.6
				c0,0.6,0.2,1,0.7,1.3c0.4,0.4,0.5,0.9,0.6,1.4c0.8,0.3,1.2,1.1,1.4,1.9c0.9,0.5,1.6,1.3,2.8,1.4c0.4,0.4,0.7,0.8,1.2,1
				c0.2,0.1,0.6-0.3,0.9-0.2s0.4,0.5,0.6,0.6c0.8-0.3,1.6-0.3,2.3,0.2c0.5-0.1,1-0.1,1.5,0.1c0.3,0,0.5-0.3,0.8-0.3
				c0.8,0,1.5,0.5,2.3,0.2c1.3-0.3,2.3-1.3,3.7-1.2c0.2-0.1,0.2-0.8,0.4-0.9c0.4-0.3,1-0.4,1.4-0.6c0.4-0.9,1.3-1.6,2-2.3
				c0.9-0.6,0.9-1.8,1.4-2.7c0.4-0.7,1-1.3,0.5-2.2c0.4-0.7,0.4-1.5,0.8-2.2c0-0.3-0.4-0.5-0.4-0.8c0.3-0.7,0.5-0.6,0.5-1.5
				c0-0.4-0.4-0.4-0.4-0.8c-0.2-1.4,0-1.8,0-3c0.5-1-0.1-1.9-0.1-3c0.2-0.5,0.4-0.7,0.5-1.5c-0.2-0.6-0.3-0.9-0.3-1.5
				c0.2-0.6,0.2-0.9,0-1.5c0.2-0.8-0.2-1.4-0.2-2.3c0-0.4-0.1-0.4-0.1-0.8c0.3-0.7,0.4-0.6,0.5-1.5c-0.4-0.7-0.5-1.4-0.4-2.3
				c0-0.4,0.4-0.4,0.4-0.8s-0.5-0.4-0.5-0.8C27.9,2.9,27.7,1.1,26,0.9L26,0.9z"/>
		</g>
		<path id="パス_122" class="st0" d="M144.2,27.6c0.1,0.4-0.1,1-0.1,1.5c-0.2,0.2-0.4,0.6-0.5,0.9l0.3,0.6l-0.7,0.2l0,0.5
			c-0.2,0.4-0.7,0.7-1,1V33c-0.6,0-0.9,0.4-1.3,0.7c-0.3,0-0.6,0.3-0.8,0.6c-0.3,0-0.7,0.2-0.9,0.4c-0.5,0-1,0.3-1.4,0.4
			c-0.2-0.1-0.8-0.1-1-0.2c-0.3,0.1-0.7,0.1-1-0.1l-0.5,0.3l-0.5-0.1c-0.5,0.5-1.4,0.4-1.9-0.1c-0.4,0.1-1,0.2-1.4-0.1
			c-0.3,0.2-0.7,0.2-1,0.1l-0.5,0.3c-0.4-0.1-1-0.4-1.5-0.3l-0.2-0.6l-0.6,0c-0.1-0.2-0.2-0.7-0.1-1c-0.1-0.2-0.1-0.7,0-0.9
			l-0.4-0.5c0-0.4,0.2-1-0.1-1.4c0.1-0.6,0-1.4,0.4-1.9l-0.4-0.5l0.4-0.5l0-0.5l-0.5-0.5c0.2-0.4,0.3-1,0.4-1.4
			c0.1-0.3,0.1-0.7,0-0.9c0.1-0.3,0.1-0.7-0.1-0.9c0.4-0.5,0.2-1-0.2-1.4l0.4-0.5l-0.2-0.5c0.1-0.2,0.3-0.7,0.2-0.9l-0.3-0.5
			l0.4-0.5l-0.5-0.5c0.2-0.4,0.1-1,0.1-1.4c0,0,0.2-0.5,0.2-0.5l-0.3-0.5c0.4-0.7,0-1.6,0-2.3c0.2-0.4,0.4-1,0.2-1.4
			c0.2-0.4,0.2-1,0.1-1.4c0.1-0.3-0.1-0.7-0.4-0.9c0.5-0.5,0.5-1.3,0.4-1.9L127.3,8c0-0.6,0.5-0.9,0.5-1.5c0.4-0.3,1-0.3,1.4-0.4
			c0.2-0.2,0.6-0.4,0.9-0.5l0.5,0.3l0.5-0.2l0.5,0.2l0.5-0.2c0.2,0.1,0.7,0,1,0c0.4,0.3,1,0.3,1.4,0.4c0.4-0.4,0.9-0.5,1.4-0.4
			l0.5,0.4l0.5-0.4c0.5,0,1.1,0.1,1.4,0.5c0.5,0,0.9,0.4,1.4,0.2c0.5,0.5,1.2,0.5,1.8,0.8l0.2,0.5c0.5,0,1.1,0.3,1.3,0.7l-0.1,0.6
			l0.6,0.1l-0.2,0.6c0.1,0.4,0.6,0.8,0.9,1.1c0.1,0.3,0.1,0.7,0,1c0,0.7,0.8,1,0.7,1.7c0.2-0.1,0.7-0.1,0.9,0
			c0.4-0.3,0.9-0.2,1.3-0.2c0,0,0.5,0.4,0.5,0.4l0.5-0.3c0.3,0,0.7-0.2,0.9-0.3l-0.1-0.5l-0.6-0.4c0.1-0.4,0-1,0.2-1.5l-0.6-0.3
			l0.3-0.6c-0.3-0.3-0.6-0.8-0.9-1.2c0-0.4-0.3-1-0.3-1.5c-0.3-0.1-0.5-0.5-0.6-0.8c-0.3-0.1-0.7-0.3-0.9-0.5l-0.1-0.6l-0.6-0.1
			c-0.3-0.6-0.7-1.2-1.4-1.2l-0.3-0.4c-0.2-0.1-0.7-0.2-0.9-0.2c-0.1-0.2-0.5-0.6-0.7-0.8L141,3.1c-0.3-0.3-0.8-0.7-1.2-0.7
			c-0.2,0-0.7,0-0.9-0.1l-0.5,0.3c-0.2-0.1-0.6-0.4-0.9-0.5l-0.5,0.4l-0.5-0.2c-0.4,0.2-1,0-1.4-0.2c-0.2,0.1-0.7,0-0.9,0
			c-0.2,0.2-0.6,0.4-0.9,0.4c-0.7-0.5-1.6-0.6-2.3-0.1c-0.2,0.1-0.7,0.1-0.9,0c0,0-0.5,0.2-0.5,0.2c-0.2-0.1-0.7-0.3-0.9-0.4
			L128,2.5c-0.2-0.1-0.7-0.2-0.9-0.3c-0.3,0.1-0.7,0.1-0.9-0.1l-0.5,0.3l-0.5-0.3l-0.3,0.5l-0.5,0.1c-0.3,0.2-0.5,0.5-0.5,0.8
			l-0.5,0.4l0.2,0.5l-0.2,0.5l0.4,0.5l-0.3,0.5c0,0.3,0.1,0.7,0.3,0.9l-0.4,0.5l0.1,0.5l-0.2,0.5l0.5,0.5c-0.1,0.3-0.3,0.7-0.4,0.9
			c0.1,0.2,0.3,0.7,0.4,0.9l-0.2,0.5l0.2,0.5c-0.1,0.2-0.2,0.7-0.3,0.9c0.1,0.2,0.3,0.7,0.4,0.9c0,0.2-0.2,0.7-0.2,0.9
			c0.1,0.4,0.2,1,0,1.4l0.2,0.5l-0.4,0.5c0.2,0.6,0.6,1.3,0.1,1.9c0.4,0.4,0.4,0.9,0.3,1.4l-0.5,0.5c0.1,0.2,0.1,0.7,0.2,0.9
			c0.2,0.2,0.3,0.7,0.3,0.9l-0.5,0.5l0.4,0.5c-0.2,0.2-0.4,0.7-0.4,0.9c0.2,0.2,0.4,0.7,0.4,0.9c-0.2,0.4-0.5,1-0.4,1.4l0.5,0.5
			l0.1,0.5l-0.3,0.5c0.1,0.2,0.2,0.7,0.2,0.9l-0.4,0.5l0.4,0.5c-0.2,0.6-0.6,1.4-0.1,1.9c-0.1,0.8-0.3,1.7,0.1,2.4l-0.4,0.5l0.1,0.5
			l-0.2,0.5l0.4,0.5l-0.4,0.5l0.4,0.4v0.5l0.4,0.3l0.1,0.6c0.2,0.2,0.6,0.5,0.9,0.6l0.5-0.5c0.5,0,1.1,0.1,1.4,0.5
			c0.5-0.3,1-0.3,1.4,0c0.4-0.1,1-0.3,1.4-0.1c0.3-0.1,0.7,0,0.9,0.1l0.5-0.2l0.5,0.1c0.4-0.2,1-0.2,1.4-0.4l0.5,0.3l0.5-0.3
			c0.2,0.2,0.7,0.5,0.9,0.5l0.5-0.4c0.3,0,0.7,0.2,0.9,0.3c0.3,0,0.7-0.2,0.9-0.4l0.5,0.1l0.4-0.3c0.3,0,0.8,0.2,1,0.3l0.4-0.6
			l0.5,0.3c0.4-0.3,0.9-0.3,1.3-0.4l0.3-0.5l0.6,0.1c0.1-0.2,0.4-0.6,0.6-0.8c0.2-0.1,0.7-0.2,1-0.2l0.2-0.5
			c0.2-0.1,0.7-0.2,0.9-0.3c0-0.3,0.2-0.8,0.3-1l0.7,0c0-0.3,0-0.8,0.2-1l0.6-0.2c0.1-0.5,0.3-1,0.2-1.5c0.3-0.1,0.7-0.4,0.7-0.7
			l-0.2-0.6l0.6-0.3l-0.3-0.6l0.1-0.4l0.5-0.4l-0.4-0.5l0.6-0.4c0.1-0.3-0.1-0.8-0.3-1c-0.4,0-0.9,0.3-1.4,0.2c-0.7,0-1.4,0-2.2-0.3
			L144.2,27.6z"/>
	</g>
	<g id="グループ_105" transform="translate(0.822 57.425)">
		<path id="パス_123" class="st0" d="M8.1,11.1V4.3L5.8,9.3H4.7L2.3,4.3v6.7H0.8V1h1.5l2.9,6.3L8.1,1h1.5v10.1H8.1z"/>
		<path id="パス_124" class="st0" d="M19.6,10.1c-1.4,1.4-3.9,1.4-5.3,0c-1.4-1.5-1.4-6.6,0-8.1c1.4-1.4,3.9-1.4,5.3,0
			C21,3.5,21,8.6,19.6,10.1z M18.4,2.9c-4-2.9-4.3,4.4-3,6.3c2.2,1.5,3.9,0.1,3.6-3.1C19,4,18.9,3.4,18.4,2.9z"/>
		<path id="パス_125" class="st0" d="M31.2,11.1V4.3l-2.3,4.9h-1.1l-2.4-4.9v6.7h-1.5V1h1.5l2.9,6.3L31.2,1h1.5v10.1H31.2z"/>
		<path id="パス_126" class="st0" d="M44.4,11.1V4.3L42,9.3h-1.1l-2.4-4.9v6.7H37V1h1.5l2.9,6.3L44.4,1h1.5v10.1H44.4z"/>
		<path id="パス_127" class="st0" d="M54,6.9v4.2h-1.5V6.9l-3-5.9h1.7l2.1,4.4L55.4,1H57L54,6.9z"/>
		<path id="パス_128" class="st0" d="M73.7,10l-0.6,0.6l-3.9-3.9l-3.9,3.9L64.6,10l3.9-3.9l-3.9-3.9l0.6-0.6l3.9,3.9l3.9-3.9
			l0.6,0.6l-3.9,3.9L73.7,10z"/>
		<path id="パス_129" class="st0" d="M88.7,11.1V6.7h-4.1v4.4h-1.5V1h1.5v4.3h4.1V1h1.5v10.1H88.7z"/>
		<path id="パス_130" class="st0" d="M101,11.1l-0.7-2h-4l-0.7,2H94L97.7,1h1.2l3.7,10.1H101z M98.3,3.3l-1.6,4.5h3.1L98.3,3.3z"
			/>
		<path id="パス_131" class="st0" d="M112.4,11.1L107.8,4v7.1h-1.5V1h1.4l4.7,7.1V1h1.5v10.1H112.4z"/>
		<path id="パス_132" class="st0" d="M125.1,10.1c-1.3,1.4-4.4,0.8-6.1,0.9V1c1.7,0.1,4.8-0.5,6.2,0.9
			C126.7,4.1,126.6,8,125.1,10.1z M124.1,3c-0.8-1-2.5-0.6-3.6-0.7v7.3c1.1-0.1,2.8,0.3,3.6-0.7C124.8,8.1,124.9,4,124.1,3L124.1,3z
			"/>
		<path id="パス_133" class="st0" d="M138,11.1V4.3l-2.3,4.9h-1.1l-2.4-4.9v6.7h-1.5V1h1.5l2.9,6.3L138,1h1.5v10.1H138z"/>
		<path id="パス_134" class="st0" d="M150.5,11.1l-0.7-2h-4l-0.7,2h-1.6L147.2,1h1.2l3.7,10.1H150.5z M147.9,3.3l-1.6,4.5h3.1
			L147.9,3.3z"/>
		<path id="パス_135" class="st0" d="M161.7,10.1c-1.3,1.4-4.4,0.8-6.2,0.9V1c1.7,0.1,4.8-0.5,6.2,0.9
			C163.3,4.1,163.3,8,161.7,10.1z M160.7,3c-0.8-1-2.5-0.6-3.6-0.7v7.3c1.1-0.1,2.8,0.3,3.6-0.7C161.5,8.1,161.5,4,160.7,3L160.7,3z
			"/>
		<path id="パス_136" class="st0" d="M166.8,11.1V1h6.4v1.4h-4.9v2.9h4.2v1.4h-4.2v3h4.9v1.4L166.8,11.1z"/>
		<path id="パス_137" class="st0" d="M188.6,10c-1.5,1.5-3.9,1.5-5.4,0.1c-1.4-1.5-1.4-6.6,0-8.1c2-2.1,6.1-1,6.3,2.1h-1.5
			c-0.2-1.7-2.5-2.4-3.6-1.1c-0.8,0.3-0.8,5.9,0,6.3c1.6,1.6,4.1-0.1,3.6-2.3h-2.2V5.6h3.7C189.5,7.1,189.7,8.9,188.6,10z"/>
		<path id="パス_138" class="st0" d="M199.3,10.1c-8.6,6-8.6-14.1,0-8.1C200.7,3.5,200.7,8.6,199.3,10.1z M198.1,2.9
			c-4-2.9-4.3,4.4-3,6.3c2.2,1.5,3.9,0.1,3.6-3.1C198.7,4,198.6,3.4,198.1,2.9z"/>
		<path id="パス_139" class="st0" d="M209.8,10.1c-8.6,6-8.6-14.1,0-8.1C211.2,3.5,211.2,8.6,209.8,10.1z M208.6,2.9
			c-2.2-1.5-3.9-0.1-3.6,3.1c-0.3,3.3,1.4,4.7,3.6,3.1C209.5,8.8,209.5,3.2,208.6,2.9L208.6,2.9z"/>
		<path id="パス_140" class="st0" d="M220.5,10.1c-1.3,1.4-4.4,0.8-6.2,0.9V1c1.7,0.1,4.8-0.5,6.2,0.9
			C222.1,4.1,222.1,8,220.5,10.1z M219.5,3c-0.8-1-2.5-0.6-3.6-0.7v7.3c1.1-0.1,2.8,0.3,3.6-0.7C220.3,8.1,220.3,4,219.5,3z"/>
		<path id="パス_141" class="st0" d="M228.1,11.2c-1.3,0.1-2.6-0.4-3.6-1.3l1-1c2.3,2.7,7.3-0.6,3.2-2.1c-1-0.1-2.3-0.2-3.1-1
			c-3-3.6,3-6.7,5.8-3.7l-1,1c-2.1-2.4-6.4,1.1-2.5,2.2C232.7,4.9,233.3,11.2,228.1,11.2z"/>
	</g>
</g>
</svg>
