<?xml version="1.0" encoding="utf-8"?>
<!-- Generator: Adobe Illustrator 24.2.0, SVG Export Plug-In . SVG Version: 6.00 Build 0)  -->
<svg version="1.1" id="レイヤー_1" xmlns="http://www.w3.org/2000/svg" xmlns:xlink="http://www.w3.org/1999/xlink" x="0px"
	 y="0px" viewBox="0 0 264 110" style="enable-background:new 0 0 264 110;" xml:space="preserve">
<style type="text/css">
	.st0{fill:#FFFFFF;}
	.st1{fill:#FFFFFF;stroke:#FFFFFF;stroke-width:2;}
</style>
<g id="グループ_688" transform="translate(-546.66 -425.999)">
	<path id="パス_673" class="st0" d="M559.6,520.4c-0.8,0.1-1.5,0.2-2.3,0.1H552c-0.8,0-1.6,0-2.3-0.1v2.2c0.8-0.1,1.5-0.1,2.3-0.1
		h5.4c0.8,0,1.5,0,2.3,0.1V520.4z M560.8,527c0.8,0,1.5,0,2.3,0.1v-2.1c-0.8,0.1-1.5,0.2-2.3,0.1h-10.5c-0.8,0-1.6,0-2.3-0.1v2.1
		c0.8-0.1,1.5-0.1,2.3-0.1h4.4c-0.1,3.5-1.5,5.3-5.1,6.4c0.6,0.6,1.1,1.2,1.5,2c4.1-1.6,5.8-3.9,6-8.4L560.8,527z M564.6,521.2
		c-0.4-1-0.9-1.9-1.6-2.7l-1.3,0.5c0.6,0.9,1.1,1.8,1.5,2.8L564.6,521.2z M559.3,519.7c0.6,0.9,1.2,1.9,1.6,2.9l1.3-0.5
		c-0.4-1-0.9-2-1.6-2.8L559.3,519.7z M582.1,533.4v1.1h2.4c-0.1-0.6-0.1-1.2-0.1-1.9v-9.9c0-0.5,0-1,0.1-1.5c-0.6,0-0.6,0-1.6,0
		h-8.7c-0.8,0-1.6,0-2.3-0.1v2.3c0.8-0.1,1.5-0.1,2.3-0.1h7.9v7.8h-8.2c-0.8,0-1.5,0-2.2-0.1v2.3c0.7-0.1,1.5-0.1,2.2-0.1
		L582.1,533.4z M595.2,520.1c0.1,0.6,0.1,1.2,0.1,1.9l-0.1,9.7c0,0.6,0,1.2-0.2,1.9l1.2,1.4c0.3-0.1,0.7-0.2,1.1-0.3
		c2.3-0.3,4.6-1.2,6.6-2.5c1.6-1.1,3-2.5,4-4.2c-0.7-0.5-1.2-1.1-1.7-1.8c-0.8,1.7-2.1,3.1-3.7,4.1c-1.5,1-3.2,1.7-4.9,2l0.1-10.3
		c0-0.6,0-1.2,0.1-1.8L595.2,520.1z M615.4,528.6c1-0.1,2-0.1,2.9-0.1h9.6c1,0,2,0,2.9,0.1v-2.5c-1,0.1-1.9,0.2-2.9,0.1h-9.6
		c-1,0-1.9,0-2.9-0.1V528.6z M640.1,521.8c1.7,0.6,3.3,1.5,4.8,2.5l1.2-2c-1.5-0.9-3.1-1.7-4.8-2.3L640.1,521.8z M638.6,526.1
		c1.7,0.7,3.4,1.6,4.9,2.6l1.1-2c-1.5-1-3.1-1.8-4.8-2.4L638.6,526.1z M639.7,534.8c0.4-0.1,0.8-0.2,1.3-0.3
		c4.4-0.9,7.5-2.5,9.8-5.1c1.2-1.4,2.1-2.9,2.7-4.6c-0.7-0.4-1.3-1-1.9-1.6c-0.5,1.4-1.2,2.8-2.1,4c-1.3,1.8-3.1,3.2-5.2,4
		c-1.7,0.7-3.4,1.1-5.2,1.2L639.7,534.8z M671.2,534.5v0.8h2.1c-0.1-0.5-0.1-0.9-0.1-1.4v-8.2c0-0.8,0-1.2,0.1-1.9
		c-0.6,0.1-1.1,0.1-1.7,0.1h-7.1c-0.5,0-1.1,0-1.6-0.1v2c0.5-0.1,1.1-0.1,1.6-0.1h6.7v2.5h-6.3c-0.5,0-1.1,0-1.6-0.1v2
		c0.5-0.1,1.1-0.1,1.6-0.1h6.3v2.7h-6.9c-0.5,0-1.1,0-1.6-0.1v2c0.5-0.1,1.1-0.1,1.6-0.1H671.2z M683.8,522.7c1.7,1,3.3,2.2,4.6,3.7
		l1.5-2c-1.4-1.3-3-2.5-4.6-3.5L683.8,522.7z M684.5,534.6c0.4-0.1,0.8-0.2,1.2-0.3c2.4-0.5,4.8-1.4,6.9-2.7
		c2.6-1.7,4.5-4.2,5.7-7.1c-0.7-0.5-1.4-1.1-1.9-1.8c-0.4,1.3-1.1,2.5-1.8,3.6c-1.3,2-3.2,3.5-5.3,4.4c-1.7,0.7-3.5,1.2-5.3,1.3
		L684.5,534.6z M711.1,535c-0.1-0.7-0.1-1.3-0.1-2v-4.8c0-0.4,0-0.8-0.1-1.2c0.2,0.1,0.4,0.2,0.6,0.3c2.2,1,4.3,2.1,6.4,3.4l1.3-2.1
		c-2.6-1.5-5.3-2.8-8.2-3.8v-3.3c0-0.6,0-1.3,0.1-1.9h-2.5c0.1,0.6,0.1,1.2,0.1,1.8V533c0,0.7,0,1.3-0.1,2H711.1z M714.8,521.2
		c0.7,0.8,1.4,1.7,1.9,2.7l1.3-0.7c-0.5-1-1.1-1.9-1.9-2.6L714.8,521.2z M720,522.1c-0.5-0.9-1.1-1.8-1.9-2.5l-1.2,0.6
		c0.7,0.8,1.3,1.7,1.8,2.6L720,522.1z M727.9,528.6c1-0.1,2-0.1,2.9-0.1h9.6c1,0,2,0,2.9,0.1v-2.5c-1,0.1-1.9,0.2-2.9,0.1h-9.6
		c-1,0-1.9,0-2.9-0.1V528.6z M759.8,524c0-0.2,0-0.2,0-1.4l0-1.1c0-0.6,0-1.2,0.1-1.7h-2.5c0.1,0.6,0.1,1.2,0.1,1.7v1.1
		c0,0.3,0,0.6,0,1.4h-4.5c-0.8,0-1.6,0-2.3-0.1v2.3c0.8-0.1,1.5-0.1,2.3-0.1h4.5c0,1.3-0.3,2.5-0.9,3.6c-1,1.6-2.5,2.9-4.3,3.5
		c0.7,0.5,1.3,1.2,1.6,1.9c1.9-0.9,3.5-2.3,4.6-4c0.9-1.5,1.3-3.3,1.3-5.1h3.7c0.8,0,1.5,0,2.3,0.1v-2.3c-0.8,0.1-1.6,0.2-2.3,0.1
		H759.8z M785.3,519.6c-0.7,0.4-1.4,0.7-2.2,0.8c-2.5,0.7-5.1,1-7.7,1c-0.3,0-0.6,0-1.1,0c0.3,0.6,0.5,1.3,0.7,1.9
		c1.7,0,3.3-0.2,5-0.4c0,1.3,0,2,0,2.7h-4.6c-0.7,0-1.5,0-2.2-0.1v2.2c0.7-0.1,1.4-0.1,2.2-0.1h4.4c0,0.4-0.1,0.8-0.2,1.2
		c-0.3,1.2-1.1,2.3-2.1,3.1c-0.8,0.7-1.8,1.2-2.8,1.5c0.7,0.5,1.2,1.2,1.6,1.9c0.6-0.3,1.1-0.6,1.7-0.9c1.2-0.7,2.2-1.7,2.9-2.9
		c0.7-1.2,1.1-2.5,1.2-3.9h4c0.7,0,1.4,0,2.2,0.1v-2.2c-0.7,0.1-1.5,0.2-2.2,0.1h-3.8c0-0.6,0-0.6,0.1-3c1-0.2,2-0.4,3-0.7
		c1.3-0.4,1.3-0.4,1.5-0.5L785.3,519.6z M805.9,532.7c0.3-1.6,0.5-2.9,0.8-4.9c0-0.7,0.2-1.4,0.4-2.1l-1-0.9
		c-0.4,0.1-0.9,0.2-1.3,0.2h-4.6c-0.6,0-1.1,0-1.7-0.1v2c0.5-0.1,1.1-0.1,1.6-0.1h4.5c-0.2,1.6-0.6,4.2-0.9,5.8h-5.3
		c-0.6,0-1.1,0-1.7-0.1v2.1c0.6-0.1,1.1-0.1,1.7-0.1h9.3c0.6,0,1.1,0,1.7,0.1v-2.1c-0.5,0.1-1.1,0.1-1.7,0.1H805.9z"/>
	<g id="グループ_289" transform="translate(567.748 427.386)">
		<path id="パス_359" class="st1" d="M230.3,8.3L229,8.5c0,0-0.1-0.8-0.2-0.4v0.2l-1,0.2V8.3l-0.4,0.2l-0.2-0.4l-0.6,0.2V8.1
			c-0.5-0.2-1,0-1.2,0.4h-0.2l0.2-0.6h-0.8V7.7h-0.2c-0.1,0.1,0,0.3-0.6,0.2V7.7l-0.4,0.2V7.7l-0.6,0.2l-0.2-0.4l-1,0.2V7.5h-1v0.2
			c-0.6,0.1-0.9-0.4-1.7,0c-0.1-0.2-0.1-0.4-0.2-0.6l-1,0.4V7.1h-0.2v0.2h-1.7V7.1l-0.6,0.2V6.9l-1,0.2v0.2H213V7.1
			c-0.9-0.1-1.8-0.1-2.7,0.2V6.9l-1.2-0.2v0.2h-0.2V6.6h-1.2V6.4c-0.3,0-0.2,0.3-0.4,0.4c-0.3,0-0.4-0.2-0.8-0.2V6.2l-1.5,0.2v0.2
			c-0.3,0-0.3-0.4-0.4-0.4c-0.5-0.2-0.6,0.2-0.8,0.2c-0.4,0-1.1-0.6-1.5-0.8V6l-3.3-0.2l-0.2-0.4c-0.5-0.2-0.6,0.3-0.8,0.2V5.4
			l-1.5-0.2V4.8c0,0-0.8,0-0.4-0.2h0.2V3.9h-0.8V3.5c-1.2,0.2-0.6,0.4-1.2,0.8l-1.2,0.4c-0.2-0.6-0.1,0,0-0.6l-1.5-0.2v0.2h-0.2V3.9
			h-0.6V3.7h-1.5c-0.3,0.1,0.1,0.3-0.2,0.2l-0.2-0.4l-1,0.2V3.5l-1.9-0.2V3.1l-1,0.4V3.3h-1.2l-0.2-0.4l-0.2,0.2h-1V2.9
			c-0.3,0.1-0.5,0.2-0.8,0.2V2.7l-1,0.4L180,2.5c-0.6,0.1-0.5,0.3-1,0.4V2.3h-0.2v0.4h-0.6V2.3h-0.4v0.2l-2.1-0.4V1.7
			c-1.6-0.1-3.2-0.1-4.8,0V1.2c-0.3,0-0.6,0.1-0.8,0.2V1l-1,0.2c-0.1-0.2-0.2-0.3-0.4-0.2v0.2h-0.2c0,0-0.1-0.4-0.4-0.2v0.2h-0.2
			V0.6l-0.6,0.2V0.6h-0.2L166.7,1h-0.2V0.8h-0.2V1h-0.8l-0.2,1h0.2v0.6h0.2l0.2,0.6c0.3,0,0.6-0.1,0.8-0.2l0.2,0.6h0.2V3.3h0.2v0.4
			c0.6,0,1.3,0,1.9-0.2c0.2,0.6,0.1,0,0,0.6h1.2v0.2h0.2c0.2-0.2-0.1-0.3,0.2-0.2v0.2h0.4v0.2l0.6-0.2v0.4h0.2
			c0.2-0.2-0.2-0.2,0.2-0.4l0.2,0.4h1.2V4.6h0.2v0.2h0.8c0.7,0.3,0.4,1,1,0.2h0.2v0.6l0.6-0.2V5.2l1,0.2v0.2
			c0.7,0.2,1.1-0.2,1.5-0.4v0.4h0.6V6c0.5-0.1,0.4-0.1,0.6-0.4h1v0.2h0.2l-0.2,0.6l0.2-0.2h1.5V6h0.2l-0.2,0.4l0.8-0.2V5.8h0.2v0.6
			c0.2-0.1,0.4-0.3,0.8-0.2c0.1,0,0,0.6,0.6,0.4l0.2-0.4l1.7,0.4c0.4-0.8,0.4,0.4,1.5,0.2V6.7h0.2v0.2h0.8l0.2,0.4
			c0.3,0,0.4-0.3,0.8-0.2v0.2h1v0.2h0.2V7.3h0.2l-0.2,0.4c0.4,0,0.7-0.1,1-0.2l0.4,0.8l-0.4-0.2v0.4h0.4v0.6h0.2v0.2h-0.2v0.4h0.2
			l-0.2,0.2l0.2,0.2l-0.2,0.6h0.4l-0.2,0.8c0.2,0.1,0.3,0.4,0.2,0.6c-0.1,0.3-0.2-0.1-0.2,0.2l0.2,0.4h-0.2v0.4h0.4
			c-0.1,0.5-0.1,1.1,0,1.7h0.2v0.2h-0.2l-0.2,0.6l0.4,0.2v0.6h0.2v0.2h-0.4c0,0.1,0.4,0.4,0.4,0.4l-0.2,0.6h0.2v0.2l-0.4,0.2
			l0.2,0.6h0.2l-0.2,0.4h0.2v0.8h-0.2c0.1,0.5,0.4,0.2,0.6,0.4c-0.4,0.5-0.5,1.1-0.4,1.7c0.1,0.3,0.2-0.1,0.2,0.2l-0.2,0.4
			c0,0,0.2,0,0.2,0.4l-0.2,0.4h0.2c-0.1,0.3-0.1,0.7-0.2,1l0.4,0.2l-0.2,0.4c0.1,0.1,0.5,0.1,0.4,0.4h-0.2v0.6H195
			c0.1,0.5,0.2-0.1,0.4,0.2l-0.2,0.2v0.6H195c0,0.3,0.3,0.2,0.4,0.4l-0.2,0.2v1.5h0.2v0.2h-0.2v0.2h0.2v0.2h-0.2v0.2h0.2l-0.2,0.8
			c0,0,0.3,0.1,0.2,0.6c0,0-0.3,0.1-0.2,0.4l0.4,0.2c0.2,0.7-0.6,0.8-0.4,1.5h0.2v0.6h0.2c0.1,0.2,0,0.5-0.2,0.6l0.2,1.2h-0.2v0.8
			h0.2c0,0.5,0,1-0.2,1.5h0.4l-0.2,0.6h-0.4v0.2h0.2v0.4h0.2l-0.2,0.6h0.2v1.2h-0.2V42h0.4l-0.2,0.2c0,0.3,0.3,0.3,0.2,0.8h-0.2v0.8
			c0.1,0.3,0.3-0.1,0.2,0.2h-0.2v0.8l0.2,0.6h-0.2v0.2h0.2l0.2,0.6h-0.2V47h-0.2v0.2h0.2v1.5h0.2v0.2h-0.2v0.6h-0.2
			c-0.1,0.6,0.3,0.4,0.4,0.6c0,0.3-0.3,0.3-0.2,0.8h0.2v0.2h-0.2v1h0.2c0.1,0.4,0,0.7-0.2,1h-0.2l0.2,0.2v0.8h0.2v0.2h-0.2l0.2,0.6
			l-0.2,0.6h0.2c-0.1,0.3-0.1,0.7-0.2,1h0.2v0.4h0.2c-0.1,0.3-0.1,0.6-0.2,0.8h0.2v0.8h0.2c0,0.3-0.4,0.4-0.2,0.8l0.4,0.2l-0.2,0.4
			h0.2c0.2,0.3,0.2,0.7,0.2,1h0.6v0.4l0.6-0.2l0.6,0.2l0.2-0.4c0.7-0.4,1-0.2,1.2-1h-0.4l0.2-0.6h-0.2l-0.2-1.7h-0.4v-0.2
			c0,0,0.3-0.1,0.2-0.4c0,0-0.3-0.1-0.2-0.6c0,0,0.3-0.1,0.2-0.4l-0.4-0.2v-1.5h0.2c0.1-0.6-0.3-0.4-0.4-0.6l0.2-0.2v-2.1h0.2v-0.2
			h-0.2v-0.8h-0.2c0.1-0.3,0.4-0.4,0.4-0.4c0.1-0.4-0.2-0.4-0.2-0.4c-0.1-0.6,0-1.1,0.2-1.7h-0.4v-0.8h0.2v-0.2
			c-0.2-0.1-0.2-0.2-0.2-0.4h0.2l-0.2-0.4h0.2v-0.2h-0.2l0.2-0.6c-0.1-0.4-0.1-0.8-0.2-1.2h0.2v-0.2h-0.2v-0.8h-0.2
			c-0.2-0.9-0.1-1.9,0.4-2.7v-0.2l-0.6-0.2c0.1-0.3,0.4-0.4,0.4-0.4c0-0.3-0.3-0.3-0.2-0.8h0.2v-0.2c-0.2-0.1-0.3-0.4-0.2-0.6
			c0,0,0.3-0.1,0.2-0.4c-0.2-0.1-0.3-0.4-0.2-0.6h0.2c0-0.4-0.1-0.7-0.2-1h0.2l0.2-0.4h-0.4v-1h-0.2v-0.2h0.2l0.2-0.6h-0.4
			c0.2-0.6,0.3-0.5,0.4-1.2c-0.4-0.1-0.2,0-0.4-0.2h0.4c-0.1-0.6-0.3-0.5-0.4-1h0.4l-0.2-0.4h-0.2c-0.1-0.4,0.2-0.4,0.2-0.4
			c-0.1-0.6-0.1-1.1-0.2-1.7h0.2v-0.2h-0.4c0.3-0.8-0.1-3.7,0.2-4.2v-0.6c-0.2,0.2-0.2,0.3-0.4,0.4l-0.2-0.6
			c0.1-0.4,0.6-0.9,0.4-1.7h-0.2l0.2-0.8l-0.4-0.2c-0.2-0.5,0.2-1.3,0.4-1.7l-0.6-0.2v-0.4c0.7-0.3,0.1-0.7-0.2-1.2l0.6-0.2
			c-0.2-0.2-0.4-0.4-0.6-0.6c-0.1-0.3,0.2-0.4,0.2-0.4v-0.2h-0.2c-0.1-0.5,0.2-0.5,0.2-0.8h-0.2v-0.2h0.2v-1.2h-0.2
			c-0.1-0.4-0.1-0.8-0.2-1.2c0.4-0.1,0.2,0,0.4-0.2H197v-1c0,0-0.2,0-0.2-0.4h0.2v-0.2l-0.4-0.2c-0.1-0.4,0.3-0.1,0.4-0.4h-0.2
			l-0.2-1l0.4-0.2V8.3h0.2l0.6,0.2V8.3h0.2v0.2l0.6,0.2V8.5c0.3,0-0.1,0.1,0.2,0.2h0.6v0.2h0.2V8.7h0.8v0.2l0.4-0.2v0.2h0.8v0.2
			l0.6-0.2v0.2l2.3,0.2v0.2h0.2V9.3l0.6,0.2v0.2c0.3-0.1,0.3-0.2,0.8-0.2l1,0.2V9.5c0.1,0,0.9-0.1,0.6,0.2h-0.2V10
			c0.5-0.1,1-0.2,1.5-0.2v0.4h0.2c0.1-0.2,0.2-0.3,0.4-0.2c0.1,0,0,0.3,0.4,0.2V10l0.4,0.2V10h0.8v0.2h1v0.2h0.2v-0.2h1.2v0.2
			c0.5,0.1,0.6-0.3,0.8-0.2c0.3,0.1-0.1,0.3,0.2,0.2l0.2-0.4l1,0.2l0.2,0.4l0.6-0.2v-0.2c0.3,0.1,0.1,0.5,0.4,0.4v-0.2l1,0.2
			c0.1-0.2,0.4-0.3,0.6-0.2c0.2,0.1-0.1,0.3,0.2,0.2v-0.2h0.2l-0.2,0.4c0.9-0.1,1.8-0.1,2.7,0c0.1,0.4,0,0.2,0.2,0.4v-0.4l2.1,0.2
			l0.2,0.4l1.7-0.2v0.2h2.5l0.2,0.4h0.2v-0.2c0.3,0-0.1,0.2,0.2,0.2l0.6-0.2v0.2h0.2v-0.2l1.2-0.2c0.2-0.7,0.2-1.5,0-2.3h0.2V8.9
			h-1.5V8.3z"/>
		<path id="パス_360" class="st1" d="M52.9,52.5v-0.4h-0.2l-0.2-1c-0.5,0.1-1.1,0.1-1.7,0l-0.2,0.4h-0.8c-0.2,0.1-0.1,0.4-0.4,0.4
			c-0.4-0.3,0.2-0.2-0.2-0.4L49,52.1c-0.4-0.1-0.7-0.2-1-0.4c-0.1,0.2-0.2,0.5-0.4,0.6v0.2l-0.4-0.2c-0.3,0-0.3,0.3-0.8,0.2
			c0,0-0.1-0.3-0.6-0.2v0.2h-0.2v-0.2l-1.2,0.2c-0.2-0.1,0-0.5-0.6-0.4v0.2h-1v0.2c-0.4,0.1-0.4-0.6-1-0.4l-0.2,0.4
			c-0.5,0.1-0.7-0.4-1-0.4v0.2c-0.5,0.1-0.8-0.2-1-0.2c-0.1,0.1-0.1,0.3-0.4,0.4c-0.2-0.2,0.1-0.3-0.2-0.2v0.2h-1v-0.2h-0.2v0.2
			l-0.6-0.2v0.2l-0.4,0.2v-0.4l-0.6,0.2v-0.2h-0.6v-0.2h-0.2v0.4c-0.3,0.1-0.1-0.1-0.2-0.2c-0.3,0-0.3,0.3-0.8,0.2v-0.2h-0.2v0.2
			h-0.8c-0.3-0.1,0.1-0.2-0.2-0.2v0.2l-0.6-0.2v0.2h-0.8v-0.2h-0.2v0.2h-1.5c0,0,0-0.3-0.4-0.2v0.2h-0.2v-0.2h-0.2v0.2
			c-0.3,0,0-0.1-0.2-0.2h-0.2v0.2h-1v0.2H27v-0.2h-0.8v0.2l-0.6-0.2v0.2h-0.4V53h-0.2v-0.2L24.3,53v-0.2H23l-0.2,0.4L22,52.7V53
			l-2.1-0.2V53l-1,0.2v-0.4h-0.2c0,0.2-2,0.4-2.1,0.4v-0.6l-1-0.2v-0.4l-1,0.2v-0.2h-0.2v0.4h-0.2c-0.2-0.3,0.3-0.3-0.2-0.6v0.2
			h-0.2c0.2-0.9,0.6-1-0.2-1.5v-1.9L13,48.8l-0.2-1H13v-0.2c-0.2-0.1-0.3-0.2-0.2-0.4c0,0,0,0,0,0c0.1-0.3,0.3,0.1,0.2-0.2h-0.2
			c-0.3-0.6-0.2-0.5,0-1h-0.4c-0.1-0.7-0.1-1.4-0.2-2.1c0-0.3,0.2,0.1,0.2-0.2h-0.2v-0.4H12v-1.9h-0.6c0.2-0.6,0-0.5,0.6-0.6v-0.4
			h-0.6c0-0.6,0-1.1,0.2-1.7c-0.3-0.2-0.6-0.4-0.8-0.6H11c-0.3-0.5-0.1-0.5,0-1h-0.4l0.2-0.6h-0.2c-0.1-0.6-0.1-1.3,0-1.9h-0.4v-0.4
			c0.8,0,1.3,0,1.7-0.4h1l-0.2,0.4c0.8-0.1,0.8-0.2,1.7-0.4v0.4h0.2v-0.4c0.3,0,0.3,0.3,0.8,0.2v-0.2h2.3c0,0,0,0.2,0.4,0.2l0.6-0.2
			v0.2l1.9-0.4v0.4c0.7-0.2,1.4-0.1,2.1,0.2v-0.4c0.8,0.1,1.5,0.3,2.1-0.2h0.2l-0.2,0.4l1.7-0.2v0.2h1v0.2h1v0.2
			c0.2,0,0.3,0,0.4-0.2c0.5-0.1,0.4,0.2,0.4,0.2h1l0.2,0.4l2.1-0.2v0.2h-0.6v0.2l1.2-0.2v-0.2h0.2v0.2h0.8v0.4h0.2
			c0-0.5,1.5-0.1,1.7,0c0.1,0,0.9,0.1,0.6-0.2h-0.2v-0.2c0.5,0.2,1.1,0.3,1.7,0.2v-0.2H39l0.2,0.4h0.2v-0.2H40v-0.2
			c0.4-0.1,0.3,0.2,0.4,0.2l0.2-0.2c0.4,0,0.4,0.2,0.4,0.2h2.5v-0.4h0.2v0.6l1.2-0.6l0.2-1h0.4V33h-0.4c0-0.4-0.1-0.7-0.2-1
			l-0.2-0.2L44.2,32v-0.2h-2.3v-0.2c-0.3-0.1-0.4,0.2-0.4,0.2h-0.2v-0.2c0,0-1.7,0.2-1.9,0.2V32h-0.2v-0.2c-0.4-0.1-0.4,0.2-0.4,0.2
			c-0.2,0.1-0.4-0.4-0.8-0.2V32h-0.2l0.2-0.4L36.5,32v-0.4l-2.1,0.2v-0.2H34v-0.2c-0.6-0.1-0.6,0.7-1.5,0.4l-0.2-0.4l-0.8,0.2v-0.2
			h-0.2v0.2c-0.4,0-0.4-0.2-0.4-0.2h-1v-0.4h-0.2c0,0.6-0.3,0.2-0.6,0v-0.2c-0.5,0.2-1,0.3-1.5,0.2v-0.2h-1v0.2
			c-0.3-0.1-0.1-0.5-0.4-0.4v0.2L25.5,31v-0.2h-0.4v-0.2c-0.6,0.1-1.3,0.2-1.9,0.4H23v-0.2h-0.6v-0.2C22,30.5,22,30.7,22,30.7h-1.9
			v-0.4l-0.6,0.4c-0.6-0.2-1.3-0.2-1.9,0v0.2h-0.2v-0.4c-0.2-0.1-0.4,0.4-0.8,0.2v-0.2h-0.4v-0.2c-0.6-0.1-0.5,0.4-0.6,0.4l-1.7-0.2
			v0.2l-1,0.2v-0.4h-0.2v0.2L12,30.5v0.2l-0.4-0.2v0.2h-0.4V31h-1c0,0,0-0.8-0.2-0.4v0.2H9.7v-1.2l-0.4-0.2v-0.2h0.2v-0.6H9.3
			l0.2-0.6l-0.4-0.2l0.2-1H9.1V26H8.9v-0.2h0.2v-0.2H8.9c-0.1-0.5,0.2-0.5,0.2-0.8H8.7l0.2-0.4H8.7v-0.2h0.2c0-0.3-0.3-0.2-0.4-0.4
			v-0.4H8.3v-0.6H8.1c0-0.5,0.1-1,0.2-1.5c-0.4-0.1-0.2,0-0.4-0.2H7.7v-0.2l0.4-0.2c0.1-0.3-0.4-0.3-0.4-0.4v-2.1H7.2L7,17h0.2v-0.2
			c-0.1-0.2-0.6-0.2-0.4-0.6H7V16H6.4c0.2-0.9,0.1-1.3,0.2-2.1L6,13.7l-0.4-1.9c1-0.1,1.9-0.2,2.9-0.2l1.2,0.2l0.2-0.4h1.9v-0.2
			c0.2-0.1,0.5,0,0.6,0.2c0.5,0.1,0.4-0.4,0.6,0c0,0.1,0,0.4,0.2,0.2l0.2-0.6l2.3,0.4v-0.2c0.2,0,0.3,0,0.4,0.2c0.2,0,0.3,0,0.4-0.2
			l0.8,0.2v-0.2l0.2,0.2l0.2-0.2H18v0.2h1v-0.2l1.2,0.2V11c0.2,0.3,1.6,0.1,2.1,0.6c0,0,0.8,0,0.4-0.2h-0.2v-0.2
			c0.5,0.1,1,0.2,1.5,0.2v0.2h0.2v-0.2h0.8v0.4l1.2-0.2l0.2,0.4c0.3,0,0.5-0.4,1-0.2V12h0.8v0.2l0.8-0.4l0.2,0.6l1.5-0.4v0.2h0.4
			v0.2c0.3-0.1,0.7-0.2,1-0.2l0.2,0.2l0.4-0.2c0.6,0,0.5,0.2,0.6,0.2l0.2-0.2H34v0.2l1.9-0.2v0.4h0.4l0.2-0.4l1,0.2
			c0,0,0.3-0.8,0.4-0.6V12h0.4l-0.2-0.6h0.4L38.4,11h0.2v-0.6h-0.2v0.2h-0.2v-0.2H38c-0.3-0.3,0.4-0.2,0.4-0.2V10H38V9.3h-0.8V9.1
			h-0.2v0.2h-0.4v0.2c-0.3,0-0.5-0.3-1-0.2v0.2h-1V9.3h-2.3V9.1l-0.6,0.2V9.1h-1.5v0.2h-0.2V9.1h-0.4v0.2c-0.3-0.1-0.5-0.2-0.8-0.2
			V8.7h-1V8.5h-0.2v0.2l-0.8,0.2V8.7h-0.4V8.5l-2.1,0.2c-0.4-0.1-1.4-0.9-2.1-0.6l-0.2,0.4c-0.3,0.1-0.1-0.1-0.2-0.2
			c-0.3,0-0.4,0.4-0.8,0.2c-0.2-0.1,0-0.5-0.8-0.4c-0.3,0-0.5,0.3-1,0.2V8.1H16c-0.3,0,0.1,0.2-0.2,0.2V8.1l-0.6-0.2l-0.2,0.6h-0.4
			V8.3l-1,0.2V8.3h-0.2l0.2-0.4l-0.8,0.2v0.2L12,8.1v0.2l-0.8-0.2L11,8.5C10.2,8.8,10.4,8,9.7,8.1v0.2H9.1v0.2H8.3v0.2
			C8,8.7,8.4,8.6,8.1,8.5H6.6v0.4C7,9.1,6.8,8.9,7,9.1C6.6,9,6.1,8.8,5.6,8.7c-0.1,0.4,0,0.2-0.2,0.4v0.2H5.2
			C5.1,9.2,5.3,8.8,4.9,8.9v0.4L4.5,9.1v0.4L3.3,9.3C3.1,9.6,3,9.5,2.9,9.8C3.1,9.9,3,9.7,3.1,10H2.7V9.6H2v0.2
			c-0.4,0.1-0.2,0-0.4,0.2H1.4v0.6H1.2c0.2,0.5,0.5,1,0.8,1.5h0.6l0.6,2.3H2.9c0.1,0.2,0.3,0.3,0.4,0.4v1h0.2v0.6h0.2V17l0.4,0.2
			c0.2,0.5-0.1,1.1-0.2,1.5l0.6,0.2v0.8h0.2c0.1,0.4-0.2,0.4-0.2,0.4c-0.1,0.4,0.1,0.3,0.2,0.4l-0.2,0.6h0.2v0.4L5.6,22
			c-0.3,0.5-0.5,1.1-0.4,1.7h0.6c-0.1,0.2-0.4,0.4-0.4,0.4c0,0.2,0.2,0.4,0.4,0.4l-0.2,1h0.6L6,27.6l0.6,0.2c-1,0.7,0.1,0.9,0,1.7
			H6.4v0.2h0.2c-0.1,0.6-0.1,1.2-0.2,1.9H5.6L5.8,32H5.2v0.2l-0.6,0.2l-0.2,1.2c0.6,0.2,0.5,0,0.6,0.6c0.6,0.1,1.2-0.1,1.7-0.4h0.2
			L7,35.1l0.6,0.4c0.1,0.2,0,0.3-0.2,0.4c0,0,0,0,0,0v0.2h0.2l-0.2,0.6L7.9,37v0.8H7.6l0.2,0.6h0.4c-0.1,0.5-0.2,1-0.2,1.5h0.4
			c0.1,0.9,0.1,1.8,0.2,2.7h0.2V43h0.2l-0.2,0.2l0.2,0.6C9,44,8.8,43.8,8.9,44c0,0,0.7,0.6,0.6,0.8H9.3v0.4H9.1v0.2h0.2v1
			c0.2,0.5,1.1,0.4,0.2,1.2V48l0.6-0.2l-0.2,1.7h0.2v0.4h0.2l0.2,0.6h-0.4c-0.3,0.3,0.4,0.2,0.4,0.2l-0.2,0.6l0.4,0.2v0.2H11
			l-0.2,0.4h0.4v1l-1,0.2v-0.2H9.9v0.2H9.7v-0.2H9.5v0.2c-0.2,0-1.2-0.5-1.7-0.2v0.2c-0.8,0-1,0.1-1.2,0.6c-0.2,0.3,0,0.8,0,1.7
			c0.6,0.1,0.5,0.3,1,0.4v0.4l2.5-0.2v-0.2c0.6,0,1.2,0.1,1.7,0.4l0.4-0.2L12,57.5h0.4v0.2h-0.2v0.2h0.4v0.2c-0.4,0.2,0,0.2,0.2,0.4
			v0.2l1,0.2v0.2h0.6l-0.2,0.4h0.4c0.3-0.8,0.1-0.2,0.6-0.6l0.2-0.4h0.2l0.2-1.9c0.4-0.1,0.4-0.2,0.4-0.2h1v-0.2h0.4v-0.2
			c0.2-0.1,0.5,0,0.6,0.2l0.8-0.2v0.2h0.2v-0.2h1.7v-0.2c0.6-0.1,0.5,0.4,0.6,0.4c0.3,0.1,0.3-0.4,0.4-0.4H23v-0.2h0.2v0.4h0.6v-0.4
			c0.7,0.1,1.4,0.1,2.1,0v0.4c0.2,0.2,0.2-0.2,0.2-0.2h0.6v-0.2l0.6,0.2v-0.2l0.6-0.2v0.4c0.6-0.1,1.5,0,2.3-0.2v-0.2l0.4,0.2v-0.2
			h0.2v0.2l1.9-0.2v0.2l0.6-0.2c0.1,0.2,0.2,0.2,0.4,0.2v-0.2c0.5-0.1,0.6,0.2,0.6,0.2h0.8v-0.2l0.6,0.2v-0.2l0.6,0.2l0.2-0.4
			c0.1,0,0.6,0.3,1,0.2v-0.2l2.1,0.2v0.2c0.3,0,0.7-0.6,1.5-0.4v0.2h0.6v-0.2h0.2v0.2c0.5,0.1,1,0,1.5-0.2v0.4
			c0.6-0.2,0.5,0,0.6-0.6l1,0.2l0.2,0.4c0.6,0.2,0.8-0.6,1.7-0.4v0.2l2.1-0.4v-0.2h1l0.2-0.4l0.2,0.2c0.3,0,0.3-0.3,0.8-0.2
			c0,0,0.1,0.3,0.4,0.2v-0.2l0.8-0.2c0.1-0.5,0.6-1.1,0.4-1.7L52.9,52.5z M10.6,33.6v-0.2h0.2v0.4c-0.4-0.1-0.2,0-0.4-0.2H10.6z"/>
		<path id="パス_361" class="st1" d="M21.4,8.1V7.9h-0.4C21.2,8.1,20.9,8,21.4,8.1z"/>
		<path id="パス_362" class="st1" d="M128.1,49.8V49h0.2l-0.2-0.6h0.2v-0.2l-0.6,0.2c-0.2-0.6-0.1,0,0-0.6h-0.4v-0.4l-0.8,0.4
			c-0.6,0.1-0.6-0.2-0.6-0.2c-0.6-0.2-1.3-0.2-1.9,0v-0.4l-0.8,0.2v0.2c-0.3,0,0.1-0.2-0.2-0.2h-0.8v0.2l-0.8-0.2l-0.2,0.2v-0.4
			h-0.6v0.2H120c0.2,0.2,0.3,0.2,0.4,0.4l-1-0.2l-0.2-0.4c-0.3,0.1-0.4,0.4-0.4,0.4h-1.2v0.2c-0.5,0-1,0-1.5-0.2v0.2
			c-0.5,0.1-0.6-0.2-0.6-0.2h-1.2v0.2c-0.2,0.1-0.5,0-0.6-0.2c-0.6-0.1-1.1,0-1.7,0.2v-0.6c-0.3,0.1-0.6,0.5-1,0.4v-0.2h-0.6v0.2
			H110c-0.1-0.2-0.2-0.3-0.4-0.2c-0.1,0.2-0.4,0.3-0.6,0.2v-0.2l-1.5-0.2v0.2c-0.2,0.1-0.5,0-0.6-0.2l-0.8,0.2v-0.2h-0.4v-0.2h-0.2
			v0.2h-0.8v-0.2c-0.3,0-0.3,0.3-0.8,0.2l-0.4-0.2v0.2h-0.6v0.2h-0.2l-0.2-0.4l-1.2,0.2v-0.2h-0.6v-0.2c-0.2-0.1-0.5,0-0.6,0.2
			c-0.6,0.1-0.5-0.2-0.6-0.2H99v0.2c-0.6,0.1-0.5-0.1-0.6-0.2l-0.6,0.2l-0.2-1.9c0-0.1,0.3-0.1,0.2-0.4h-0.2V44h-0.2v-0.2h0.4
			l-0.4-1.2h0.2v-0.8h0.2c0.1-0.6-0.5-0.5-0.4-0.8l0.4-0.2v-0.4h-0.4l0.2-0.6h0.2c0.1-0.3-0.1,0-0.2-0.2l0.2-0.6h-0.4
			c0.1-1.1,0.5-2,0-3.3h0.4c0-0.1,0.1-0.9-0.2-0.6v0.2h-0.2c0.1-0.3,0.3-0.4,0.2-0.8c-0.2-0.1-0.2-0.2-0.2-0.4c0,0,0.3-0.1,0.2-0.6
			h-0.2V33h0.2c0.1-0.5-0.2-0.6-0.2-0.6c0.1-0.3,0.2-0.5,0.2-0.8l1,0.2v0.4h1V32h0.4c0.2,0.2-0.2,0.2-0.2,0.2l0.2,0.4h1
			c0.1,0,0.1-0.3,0.4-0.2v0.2l1.2,0.2V33l1.2-0.2v0.6c0.7-0.2,1.4-0.2,2.1,0v0.2h1v0.2h0.4v0.2l0.6-0.2v-0.2l0.4,0.2v-0.2h0.2
			l-0.2,0.6h0.4v-0.4c0.4,0.1,0.4,0.2,0.4,0.2h1.2l0.2,0.4c0,0,0.8,0,0.4-0.2h-0.2v-0.2c0.6,0.2,1.3,0.2,1.9,0v0.4l0.8-0.2
			c0.1,0.2,0.2,0.3,0.4,0.2v-0.2h1l0.4,0.2c0.1-0.2,0.4-0.3,0.6-0.2v0.2l0.6-0.2v0.2h0.4v0.2h1.2v0.2c0.8,0.3,0.8,0,1.7,0v0.4
			c0.5,0,0.6-0.2,0.8-0.2c0.3,0.2-0.2,0.2,0.2,0.4v-0.4l0.8-0.2v0.4h0.2v-0.2h0.2v0.2h0.6v0.2h0.2v-0.2h0.2v0.2h1v0.2l0.4-0.2v0.2
			c0.4-0.1,0.6,0,0.8-0.2v-0.4l0.8-0.4v-0.8l-0.4,0.2c0.3-0.9,0-0.6-0.2-1.5h-0.8v-0.2H125v0.2h-0.2v-0.2l-1-0.2v0.2l-0.8-0.2
			l-0.2,0.4h-0.2l0.2-0.6c0,0-1.3,0.2-0.6,0.2h0.2v0.2l-0.4-0.2c-0.2,0.2,0.1,0.3-0.2,0.2v-0.2h-0.4V32l-0.8,0.2V32h-1.2
			c0,0-0.1-0.2-0.4-0.2v-0.4l-1.7,0.2v-0.2h-0.2c-0.1,0.1,0,0.3-0.4,0.2c0,0-0.1-0.3-0.6-0.2v0.2h-0.2l-0.2-0.4
			c-0.5-0.2-0.6,0.2-0.8,0.2v-0.2c-0.4-0.1-0.4,0.2-0.4,0.2c-0.2,0-0.3-0.1-0.4-0.2c-0.5,0-0.5,0.3-0.8,0.4v-0.4h-0.6v-0.4h-1v0.4
			c-0.6-0.1-2.1-0.8-2.9-0.4l-0.2,0.4h-0.4v-0.8l-0.8,0.6v-0.4c-0.3-0.1-0.6-0.1-0.8-0.2v0.2h-0.2l-0.2-0.4h-1v-0.2h-1.5v0.2H103
			c-0.5-0.1-0.9-0.6-1.7-0.6v-0.4l-1.5,0.2v-0.4l-1,0.2v-0.2h-0.4c-0.2-0.1-0.1-0.5-0.4-0.4v0.2h-0.2v-0.4h-0.2l0.2-0.6H98l-0.2-1
			c0,0,0.8,0,0.4-0.2H98v-0.6h-0.4v-0.2c0.4,0,0.2-0.7,0.2-1h0.4c-0.2-0.6-0.2-1.3,0-1.9c0-0.1,0.3-0.1,0.2-0.4L98,22
			c0.1-0.7,0.3-1.4,0.4-2.1h-0.2v-0.4H98l0.2-0.6H98l0.4-0.6h-0.2v-0.4H98V17h0.2v-1.7h0.2v-0.2L98.2,15h0.2v-0.2l1.9,0.2
			c-0.2,0.2,0,0.1-0.4,0.2v0.2h1.5v0.2h0.2c0,0,0.2-0.6,0.4-0.4l0.2,0.6h1.2V16h0.8v0.2h1.2l0.2,0.4c0.5-0.1,0.2-0.4,0.4-0.4
			l0.6,0.2v0.2c0.2,0,0.3,0,0.4-0.2h0.4v0.2l0.4-0.2v0.2h0.2v-0.2c0.3,0.1-0.1,0.1,0.2,0.2h1.5v0.2h0.2v-0.4l0.6,0.2v-0.2h0.8v0.2
			h0.4v0.2c0.8-0.2,1.7-0.3,2.5-0.2v0.2h0.8V17c0.4,0.1,1-0.5,1.7-0.2l0.2,0.4c0.4,0.2,0.6-0.3,0.8-0.2l0.2,0.4
			c0.5,0.2,0.6-0.3,0.8-0.2v0.2h0.4v0.2c0.3,0-0.1-0.2,0.2-0.2h0.6v-0.2c0.3-0.1,0.4,0.2,0.4,0.2h1v-0.2l0.8,0.2V17h0.4v-0.4h0.2
			c0.2-0.7-0.4-0.4-0.6-0.6v-0.2c0.2-0.1,0.5-0.2,0.6-0.4c-0.8-0.4-0.8-1-1.9-0.6v-0.4H119v-0.2h-0.6v-0.2h-0.2l-0.2,0.4
			c-0.5-0.1-0.2-0.4-0.4-0.6l-0.4,0.2h-0.6v0.2h-0.2l0.2-0.4h-1.2v0.2H115c-0.1-0.2-0.2-0.3-0.4-0.2v0.2h-0.2l-0.2-0.6l-0.6,0.2v0.2
			l-0.6-0.2v0.2h-1v-0.2h-0.2v0.2h-0.4v-0.2c-0.3,0.1-0.5,0.2-0.8,0.2v-0.4h-0.2c-0.1,0.4-0.6,0.1-1,0.2v0.2l-0.4-0.2v0.2
			c-0.5,0.1-1,0-1.5-0.2v-0.2l-0.6,0.2v-0.2l-2.3-0.2c0,0,0-0.8-0.2-0.4c-0.3,0,0.1,0.3-0.2,0.2v-0.2h-0.8v-0.2H103v0.2
			c-0.5,0-0.4-0.2-0.4-0.2h-1v-0.2l-0.6-0.2v0.2h-0.2l-0.2-0.4l-2.1-0.2v-0.4c0,0-0.5,0.4-0.8,0.2l0.2-0.4h-0.8l-0.2-0.4h-0.4v-0.2
			c-1,0-1.9,0.5-2.3,1.5h-0.4v0.4l0.4,0.2l0.2,0.6h0.4c0.2,0.3,0.4,0.7,0.4,1c0.4,0.4,0,0.5-0.2,1.2h0.4v0.4h-0.4v0.6h0.4
			c-0.1,0.6-0.3,0.5-0.4,1h0.4c-0.1,1.2-0.1,2.5-0.2,3.7h0.2v0.2h-0.2c-0.1,0.4,0.2,0.4,0.2,0.4l-0.2,0.6h0.2v0.2c0,0-0.4,0-0.4,0.4
			h0.2l0.2,0.6h-0.6v0.6c0.4,0.1,0.2,0,0.4,0.2h0.2c-0.2,0.4-0.5,0.4-0.4,1h0.2v0.2h-0.2l-0.2,0.6h0.4L94.7,27h-0.2l0.2,0.2
			c0.1,1.1-0.1,1.6-0.6,2.1v1l0.4,0.2l-0.2,0.4h0.4L94.5,33h0.4c0,0.3-0.1,0.6-0.2,0.8h-0.2l0.2,0.6h-0.4v0.2h0.2l-0.2,0.6h0.2
			l0.2,0.6h-0.2v1h-0.2v0.2l0.4,0.2v1.5h-0.2v0.4h-0.2c-0.1,0.3,0,0,0.2,0.2l-0.2,1.2h0.4l-0.2,1.9h0.2v0.8c0,0-0.2,0-0.2,0.4
			l0.2,0.8h-0.2l0.2,0.4l-0.2,0.2h0.2v0.2h-0.2c0,0.5,0.2,0.4,0.4,0.6v0.2h-0.6v-0.4c-0.3,0-0.6,0.1-0.8,0.2v-0.2h-0.6v-0.2h-1.5
			v-0.2h-0.2v0.2c-0.3,0.2-0.7,0.4-1,0.4l-0.2,1.7c0.6,0.1,0.5,0.3,1,0.4v0.4c0.3,0,1.5,0.2,1.5,0.2v-0.2h0.2v0.6
			c0.8-0.3,0.9,0,1.7,0l0.2-0.2l0.2,0.6l0.6-0.2v0.2h0.2v-0.2h0.2v0.2l1.2-0.2v0.4l0.4-0.2v0.2l0.6,0.2v-0.4
			c0.8,0.2,1.7,0.2,2.5,0.2v0.4h0.2c0-0.2,0.2-0.3,0.4-0.2c0,0,0,0,0.1,0v0.2l0.6,0.2v-0.2h1.2v0.2h0.2v-0.2h1.2v-0.2h0.2v0.2
			c0.4,0,0.7-0.1,1-0.2v0.4l0.2-0.2c0.4,0,0.4,0.2,0.4,0.2l1-0.2c0,0,0.1,0.8,0.2,0.4v-0.2h0.4v-0.2c0.2,0,0.3,0,0.4,0.2l0.8-0.2
			v0.2l3.3,0.2v-0.2c0.4-0.1,0.4,0.2,0.4,0.2c1.2,0.2,2.4,0.2,3.5,0v-0.2l0.6,0.4v-0.2h0.6v-0.2c0.3,0,0.5,0.4,1,0.2v-0.2h0.6v-0.2
			h0.2v0.2h2.3v-0.2c0.3,0,0.3,0.3,0.8,0.2v-0.2h0.2v0.2c1.8,0.3,3.5-0.1,4.6,0.4c0.2-0.3,0.4-0.3,0.6-0.6h0.2
			C128.4,50.1,128.3,49.9,128.1,49.8C128.1,49.9,128.1,49.8,128.1,49.8z"/>
		<path id="パス_363" class="st1" d="M82.4,13.9c-0.2-0.1-0.6,0.2-0.4-0.2h0.2c-0.2-0.6,0-0.2-0.6-0.2l-0.2-0.6h-0.8v0.4h-0.4
			l-0.2,0.8h-0.2v-0.2h-0.2v0.2h-0.2v0.4l-0.4,0.2c-0.1,0.2,0.4,0.4,0.2,0.8l-0.4,0.2c-0.1,0.3,0.2,0.4,0.2,0.4
			c0.1,0.5-0.2,0.5-0.2,0.8h0.2v0.2h-0.2v0.4h-0.2c-0.1,0.2,0,0.4,0.2,0.4c0,0,0,0,0,0v0.2h-0.2v1h-0.2v0.8l-0.4,0.2
			c0.2,0.3,0.2,0.7,0.2,1h-0.2v0.4h-0.2c-0.1,0.3,0.1,0,0.2,0.2l-0.2,0.4c0.2,0.2,0.2-0.1,0.2,0.2h-0.4v0.2h0.2v0.2h-0.2
			c-0.1,0.2,0,0.5,0.2,0.6v0.2h-0.2v1.2h-0.2V26H77c-0.3,0.6-0.1,0.7,0,1.2h-0.4l-0.2,0.4h-0.2l0.2,1.2L76,29.1v1
			c-0.1,0-0.6-0.1-0.4,0.2h0.2v0.2c-0.8,0.5,0.3,0.5-0.8,0.8c0.1,0.2,0.2,0.3,0.4,0.4c-0.2,0.8-0.8,1.2-1,1.9v0.6h0.2v0.2h-0.2
			c-0.1,0.4,0.1,0.3,0.2,0.4v0.2l-0.4,0.2v0.4h-0.2c0,0.4,0.1,0.8,0.2,1.2c0,0-0.5,0.3-0.6,0.6L73.3,38h0.4l-0.8,2.7l0.2,0.2
			l-0.6,0.2v-0.6H72v-0.4c-0.4-0.1-0.2,0-0.4-0.2H72c-0.1-0.4,0-0.2-0.2-0.4c0,0,0-0.8-0.2-0.4v0.2h-0.2l0.2-0.6l-0.4-0.2v-1.1h-0.4
			l0.2-0.8h-0.6c0.1-0.3,0.2-0.7,0.2-1h-0.6c-0.1-0.4-0.1-0.8,0-1.2h-0.2v-0.2h-0.2v0.2h-0.4l0.2-0.6l-0.4,0.2V33
			c-0.3-0.1-0.5-0.1-0.2-0.2l-0.2-0.6h-0.6l-0.2-0.6h-0.2l0.2-0.4h-0.2L67,30.5c0.3-0.2,0.3-0.1,0.4-0.6l-0.8,0.2
			c-0.2-0.6-0.1,0,0-0.6h-0.4l-0.2-1h-0.4v-0.6h-0.8c0.1-0.3,0.2-0.5,0.2-0.8h-0.4v-0.8h-0.4c-0.2-0.7-0.2-0.6-1-0.6
			c0.1-0.3,0.2-0.5,0.2-0.8h-0.4v-0.8c-0.8-0.2-0.4-0.4-1-0.8v-0.4c-0.1,0-0.7,0.1-0.4-0.2c0,0,0.4,0,0.2-0.2h-0.4
			C61,22,61,21.6,61,21.2h-0.4l-0.2-0.8h-0.2v-0.8c-0.6,0.5-0.2-0.2-0.4-0.6h-0.2l-0.2-0.6c0.2-0.2,0.1,0,0.2-0.4h-0.4
			c0.4-0.4-0.3-0.7-0.4-1.2h-0.4c0-0.1,0.1-0.9-0.2-0.6v0.2h-0.2l0.2-0.6h-0.8c-0.3,0.1,0.1,0.3-0.2,0.2v-0.4l-0.6,0.2
			c-0.2,0.6,0,0.5-0.6,0.6l0.4,1.2H56l-0.2,1l0.4,0.2l0.2,1h0.2v0.4h0.2c0.4,0.4,0.6,0.9,0.6,1.5h0.4c-0.1,0.4,0,0.2-0.2,0.4
			c0.2,0.8,0.8,1,1,1.9h0.4v0.4h0.4v1.2l0.8,0.2l-0.2,0.6h0.6v0.2H61c-0.2,0.2-0.2,0.6,0,0.8h0.2c0.2,0.2,0.4,0.5,0.4,0.8h0.4
			c0.2,0.6,0,0.5,0.6,0.6c0.1,1.8,0.9,1.1,1.2,2.5h0.6v0.4h-0.4c0.2,0.4,0.1,0.3,0.6,0.4v0.4h0.4v1h0.6c-0.1,0.4,0,0.2-0.2,0.4v0.2
			l0.6,0.2v0.4l0.4,0.2v0.4h0.2v0.8l0.4-0.2v0.4l0.4,0.2V37h-0.2v0.4h0.4v0.4h0.4c-0.3,0.2-0.2,1.2,0,1.5l0.4,0.2v0.8h0.6v0.2h-0.4
			l0.2,0.6h-0.2v0.2h0.2c0.3,0.3,0.4,0.8,0.4,1.2h0.4l0.2,1.5l0.4,0.2l-0.2,0.4h0.2c0.2,0.5,0.1,0.4,0,0.8H71
			c0.2,0.8,0.4,0.4,0.4,1.5l1.5,0.4v-0.2l0.8-0.2v0.4c0,0,0.8,0,0.4-0.2h-0.2v-0.2l0.8-0.2l0.2-1h0.2l-0.2-0.2l0.2-0.2l-0.2-0.4h0.2
			v-0.4h0.2V44h0.2l0.2-1.5H76c0-0.4-0.7-0.4-0.4-1l0.8-0.6l-0.2-0.2v-1h0.4l-0.2-1l0.4-0.2c0.1-0.3-0.3-1.1,0-1.7l0.4-0.2L77,35.9
			l0.6-0.4l-0.2-0.4h0.2v-0.2c0-0.1-0.3,0.1-0.4-0.2h0.2l0.2-1l0.4-0.2V33h0.2L78,32.2l0.6-0.4c0.1-0.2-0.4-0.4-0.2-0.8h0.2l0.2-0.8
			h0.2v-1.2h0.2v-0.4h0.2V28l0.4-0.2l-0.2-0.4h0.2v-0.6l0.4-0.2L80.1,26l0.4-0.2c0.2-0.6-0.4-0.5-0.4-0.6l0.2-1.5
			c0.6-0.3,0.1-0.4,0.4-1.2H81L80.7,22l0.4-0.2L81,21.4h0.2V21h0.2l-0.2-0.6h0.4c0.3-0.3-0.4-0.2-0.4-0.2v-0.2h0.2l-0.2-0.6
			c0.4-0.1,0.2,0,0.4-0.2h0.2c0.2-0.3-0.2-0.6-0.2-0.6v-0.2h0.2l-0.2-0.4l0.4-0.2l-0.2-0.4l0.4-0.2c0.2-0.6-0.4-0.5-0.4-0.6l0.2-0.6
			h0.4v-0.4H82l0.2-0.6h0.2l-0.2-0.6C82.3,13.8,82.5,14.2,82.4,13.9z M72.9,41.7c-0.4-0.1-0.2,0-0.4-0.2h0.2v-0.2h0.2L72.9,41.7z"/>
		<path id="パス_364" class="st1" d="M165.9,22c0-0.4-0.4-0.3-0.4-0.4l0.2-0.2v-0.8h-0.2l0.2-1.9h-0.2l0.2-0.2
			c0-0.4-0.1-0.3-0.2-0.4v-0.2h0.2v-1h-0.2l0.2-0.4l-0.6-0.2V16h-0.6v-0.2l-1.2,0.2v-0.2H163c0,0.6-0.4,0.4,0.2,0.6v0.4h-0.4l-0.2,1
			h-0.2c0.1,0.7,0.1,1.4,0.2,2.1h-0.2v0.2h0.2v1h-0.2l0.4,1.5h-0.4c0.1,0.6,0.1,1.2,0.2,1.9h-0.4c0.1,0.6,0.4,0.5,0.4,0.6l-0.2,0.4
			h0.2c0.1,0.2,0,0.5-0.2,0.6l0.2,0.4h-0.2V27h-0.2l0.2,0.6h-0.2l-0.2,0.8h0.4c-0.2,1.2-0.2,2.5-0.2,3.7h0.2l-0.2,0.4h0.2l-0.4,1.2
			h-0.2v0.2h0.4c-0.1,0.3-0.3,0.3-0.2,0.8h0.2c0.1,0.2,0,0.5-0.2,0.6v1.2h0.2V37l-0.4,0.2l0.2,1h-0.2v0.2h0.4
			c-0.1,0.2-0.4,0.5-0.2,0.8h0.2c-0.2,0.2-0.3,0.2-0.4,0.4c-0.1,0-0.6,0.1-0.4-0.2h0.2v-0.2h-0.2v-0.4l-0.4,0.2l-0.2-0.6l-0.4-0.2
			l0.2-0.4h-0.4v-0.6c-0.7-0.2-0.5-0.4-1.2-0.6v-0.8l-1-0.2v-0.6h-0.4l-0.2-0.4H157v-0.4l-0.8-0.6V33h-0.4v-0.4
			c-0.4,0-0.7-0.3-0.8-0.6h-0.2l0.2-0.6l-0.6-0.2c-0.2-0.8-0.5-0.6-1-1c-0.1-0.1-0.1-0.3-0.4-0.4v-0.4h-0.4v-0.2
			c0.4-0.1,0.2,0.2,0.4-0.2h-0.4v-0.4c-0.9-0.2-0.2-0.2-0.6-0.6l-0.4,0.2v-0.2h-0.2l0.2-0.4h-0.2l-0.2-0.6h-0.6
			c-0.3-0.9-0.9-0.4-0.2-1c-0.6-0.7-0.6-0.5-1.5-0.4l0.2-0.6c-0.4-0.1-0.2,0-0.4-0.2h-0.2v-0.6c-0.6-0.1-0.5-0.3-1-0.4l-0.2-1.2
			c-0.4,0.1-0.2,0-0.4,0.2c-0.3-0.2-0.1-0.3-0.4-0.4v0.2H146v-0.6h-0.4c-0.1-0.4,0-0.2-0.2-0.4V21h-0.2v0.2h-0.2l0.2-0.4l-0.8-0.2
			c-0.2-0.1-0.2-0.4-0.4-0.6c-0.6-0.6-1.5-0.3-2.3-0.2c-0.2,0.6-0.2,0.7-0.8,0.8c0,0,0,0.8,0.2,0.4v-0.2h0.2l-0.2,0.6h-0.2
			c0.1,0.4,0.3,0.6,0.4,1h0.4c-0.2,0.2,0,0.1-0.4,0.2c0.2,0.2,0,0.1,0.4,0.2v1.2l0.4,0.2v1l0.4,0.2V26h0.2l-0.2,1l0.6,0.2
			c-0.1,0.6-0.2,0.5,0,1.2h0.2l-0.2,0.6h0.2v0.4h0.2v0.6h0.2v1.2h0.2c0.2,0.8,0.2,1.7,0,2.5h0.4v1.5h-0.2v0.2h0.2l0.2,0.6h0.2
			l-0.4,1.2l0.6,0.4v1h-0.2l0.2,1.7h0.4c-0.1,0.2-0.4,0.4-0.4,0.4c0.1,0.4,0.4,0.3,0.4,0.4v0.2h-0.2c0,0.5,0.2,0.7,0.2,0.8l-0.2,0.2
			h0.4l-0.2,0.8h0.2V44h0.2v0.4h0.2l-0.2,0.6h0.2c0.1,0.5,0,0.4-0.2,0.6c0.2,0.3,0.5,0.2,0.6,0.4v0.4c0.3,0.2,0.7,0.4,1,0.4
			c0.2,0.2,0,0.1,0.4,0.2l0.2-0.6c0.4-0.1,0.2,0,0.4-0.2h0.2l-0.2-1l0.4-0.2l-0.2-0.4c0.2-0.1,0.3-0.2,0.2-0.4c0,0,0,0,0,0l-0.4-0.2
			c-0.1-0.3,0.1,0,0.2-0.2c0-0.4-0.2-0.4-0.2-0.4l0.2-0.6l-0.4-0.2l0.4-0.8l-0.4-0.2v-0.2h0.2v-1h-0.6l0.2-0.6h-0.2v-0.2h0.2
			c0.2-0.3,0.2-0.7,0.2-1h-0.6V38c0.4-0.1,0.2,0,0.4-0.2h-0.4c0.2-0.5,0.2-1.1,0-1.7l-0.4-0.2v-0.4h0.4v-0.4h-0.4l0.2-0.6h-0.2v-1.2
			h0.2l-0.2-1h-0.4c0-0.2,0.2-1.4,0.2-1.5l-0.4-0.2c-0.1-0.9-0.1-1.8-0.2-2.7H146l-0.2-1.5h-0.2v-0.2h0.8c-0.2,0.2,0,0.1-0.4,0.2
			c0.4,0.4,0.4,0.1,0.6,0.8h0.6l-0.2,0.6l0.8-0.2c0,0.4,0,0.6,0.2,0.8h0.4l-0.2,0.6c0.2,0.3,0.6,0,0.8,0.2v0.2h0.2v0.6h0.4v0.6
			c0.6,0.1,0.5,0.3,1,0.4l0.2,1c0.3,0.2,0.7,0.3,1,0.4l0.2,1h0.6v0.8l0.8,0.2c-0.1,0.4,0,0.2-0.2,0.4v0.2h0.6v0.2l0.4,0.2
			c0.3,0.4-0.1,0.3,0.4,0.6V37h0.8c-1,0.5,0.6,1,1,1l-0.2,0.6h0.6c0.1,0.8,0.3,0.6,0.4,1.2l0.8,0.2c0.2,0.5,0.5,0.9,0.8,1.2h0.2v0.4
			h0.2l-0.2,0.4c0.4,0.5,0.8,0.5,1,1.2h0.4V44h0.4v0.4c0.6,0.2,0.7,0.2,0.8,0.8h1.5c0.5-0.6,0.9-0.7,1.2-1.5h0.2l-0.2-0.6h0.2V43
			h-0.2c0-0.3,0.3-0.5,0.2-1c0,0-0.2,0-0.2-0.4h0.2c0-0.3-0.3-0.3-0.2-0.8h0.2v-1.5c0-0.1-0.3-0.1-0.2-0.4h0.2
			c0.1-0.5-0.2-0.6-0.2-0.6v-1h0.2c0.1-0.6,0-1.1-0.2-1.7h0.4v-0.4h-0.4l0.2-0.8h0.2l-0.2-1.2h0.2c0.1-0.5-0.2-0.6-0.2-0.8h0.2v-0.8
			h-0.2v-0.2l0.4-0.2c-0.2-0.9-0.1-0.6,0.2-1.5h-0.4l0.2-0.6c-0.2-0.1-0.3-0.4-0.2-0.6c0,0,0.3,0,0.2-0.4c-0.2-0.1-0.3-0.2-0.2-0.4
			c0,0,0.2-0.1,0.2-0.4l-0.2-0.6h0.2v-0.2c0-0.4-0.1-0.7-0.2-1h0.2v-1.2h0.2l-0.2-0.2c0-0.3,0.2,0.1,0.2-0.2c0-0.2-0.1-0.3-0.2-0.4
			l0.2-1L165.9,22z"/>
		<path id="パス_365" class="st1" d="M110.4,16.8V17h0.8v-0.4c-0.4,0.1-0.2,0-0.4,0.2H110.4z"/>
		<path id="パス_366" class="st1" d="M10.8,33.9v-0.4h-0.2v0.2h-0.2C10.6,33.9,10.3,33.7,10.8,33.9z"/>
		<path id="パス_367" class="st1" d="M23.2,34.1v-0.2h-0.4C23,34.1,22.8,33.9,23.2,34.1z"/>
		<path id="パス_368" class="st1" d="M115.4,34.7v-0.2H115C115.2,34.7,115,34.6,115.4,34.7z"/>
		<path id="パス_369" class="st1" d="M72.6,41.5h-0.2c0.2,0.2,0,0.1,0.4,0.2v-0.4h-0.2L72.6,41.5z"/>
	</g>
</g>
</svg>
