<?xml version="1.0" encoding="utf-8"?>
<!-- Generator: Adobe Illustrator 24.2.0, SVG Export Plug-In . SVG Version: 6.00 Build 0)  -->
<svg version="1.1" id="レイヤー_1" xmlns="http://www.w3.org/2000/svg" xmlns:xlink="http://www.w3.org/1999/xlink" x="0px"
	 y="0px" viewBox="0 0 160 192" style="enable-background:new 0 0 160 192;" xml:space="preserve">
<style type="text/css">
	.st0{fill:#FFFFFF;stroke:#FFFFFF;stroke-width:0.5;}
	.st1{fill:#FFFFFF;}
</style>
<g id="グループ_609" transform="translate(0.25)">
	<g id="グループ_106" transform="translate(0 145.784)">
		<g id="グループ_104">
			<g id="グループ_99">
				<path id="パス_117" class="st0" d="M13.7,12.6c-0.3,0-0.3,0-0.5,0c-0.2,0-0.4-0.1-0.6-0.1s-0.1,0.4-0.2,0.6s-0.4,0.3-0.4,0.5
					c0,0.3,0.4,0.3,0.4,0.5c0,0.2-0.1,0.3,0,0.5s0.1,0.4,0.3,0.5c0.2,0.1,0.4,0.1,0.6,0c0.3,0,0.3,0.1,0.5,0.1l0.1,0
					c0.3,0,0.3-0.3,0.5-0.3s0.3,0.3,0.5,0.3s0.3-0.1,0.5-0.1s0.3-0.3,0.5-0.3c0.2,0,0.2,0.4,0.3,0.5s0.5,0.2,0.5,0.3
					c0,0.3-0.3,0.3-0.3,0.6s0.1,0.3,0.1,0.6c0,0.2,0,0.3-0.1,0.5s-0.1,0.3-0.1,0.5s0.2,0.4,0.1,0.5s0,0.3,0,0.5s-0.5,0.2-0.5,0.4
					s0,0.3,0,0.5s0.1,0.4,0,0.5s-0.4,0.1-0.5,0.3s0,0.4-0.1,0.5s-0.1,0.4-0.2,0.5s-0.3,0.2-0.4,0.3s-0.1,0.4-0.3,0.5
					s-0.3,0.2-0.4,0.3s-0.5-0.1-0.6,0S13.2,23,13,23.1s-0.3,0.2-0.4,0.3s-0.4,0-0.5,0s-0.3,0.2-0.4,0.2s-0.3-0.1-0.5-0.1
					s-0.3,0-0.5,0s-0.3,0.2-0.5,0.2s-0.3-0.1-0.5-0.1s-0.4,0-0.5,0s-0.3-0.1-0.5-0.1s-0.3-0.2-0.5-0.2s-0.5,0.2-0.6,0.1
					S7.2,23.1,7,23s-0.2-0.3-0.4-0.4s-0.4-0.1-0.6-0.2S6,22,5.9,21.9s-0.4-0.1-0.5-0.2S5.1,21.4,5,21.3S4.8,21,4.7,20.9s0-0.4,0-0.6
					s0-0.3-0.1-0.5s-0.2-0.3-0.3-0.5s0-0.3,0-0.5S4,18.5,4,18.4s0.2-0.4,0.2-0.5s0.1-0.3,0.1-0.5S3.9,17,3.9,16.8s0.3-0.3,0.3-0.5
					s0-0.3,0-0.5s-0.3-0.3-0.3-0.5s0.1-0.3,0.1-0.5s0-0.3,0-0.5s0-0.3,0-0.5s-0.3-0.3-0.3-0.5s0-0.3,0-0.5S4,12.4,4,12.3
					s0.2-0.3,0.2-0.5s-0.3-0.3-0.3-0.5S4,10.9,4,10.7S4,10.4,4,10.2s0.2-0.3,0.2-0.5S4.1,9.4,4.1,9.2s0.2-0.3,0.2-0.5S4,8.3,4,8.2
					s0.4-0.3,0.4-0.5s0.1-0.3,0.1-0.5S4.3,6.8,4.3,6.7s0.3-0.3,0.4-0.4C4.8,6.1,4.9,6,5,5.8C5,5.7,5.1,5.5,5.2,5.4
					C5.3,5.2,5.4,5.1,5.5,5c0.1-0.1,0.2-0.3,0.3-0.4s0.3-0.2,0.5-0.3S6.5,4,6.7,3.9s0.3-0.2,0.5-0.3s0.4,0,0.5-0.1s0.3-0.3,0.4-0.3
					s0.3-0.4,0.4-0.4S8.9,3.1,9.1,3s0.3-0.3,0.5-0.3s0.4,0.2,0.5,0.2s0.3-0.3,0.5-0.3s0.3,0.1,0.5,0.1s0.3,0.3,0.5,0.3
					s0.4-0.2,0.5-0.1s0.4,0,0.5,0s0.2,0.5,0.3,0.5s0.4,0,0.5,0s0.3,0.2,0.4,0.3s0.3,0.1,0.5,0.2s0.1,0.4,0.2,0.5s0.3,0.1,0.4,0.3
					s0.4,0.1,0.5,0.3s0,0.4,0.1,0.6s0.3,0.2,0.4,0.4s0.2,0.3,0.3,0.4s-0.2,0.4-0.1,0.6c0.1,0.4,0.6,0.4,0.8,0.4
					c0.1-0.1-0.2-0.1-0.1-0.1s0.1-0.1,0.1,0l-0.1-0.2c0.2,0,0.2,0.3,0.5,0.3c0.1,0,0.3-0.1,0.5-0.1s0.3,0.1,0.5,0.1
					c0.2,0,0.4-0.3,0.5-0.3s0.1,0,0.2-0.2c0.1-0.1,0.3-0.2,0.3-0.3c0-0.2-0.4-0.3-0.5-0.4s0.1-0.4,0-0.6s0-0.4-0.1-0.5
					s-0.4-0.2-0.5-0.4s0-0.4-0.1-0.5S18.1,4.1,18,3.9s-0.3-0.2-0.4-0.4S17.5,3.2,17.4,3S17,2.9,16.9,2.8s-0.1-0.4-0.3-0.5
					s-0.4-0.1-0.5-0.2s-0.2-0.4-0.3-0.5s-0.4,0-0.6-0.1S15,1.2,14.8,1.1S14.5,1.1,14.3,1S14,0.8,13.8,0.7s-0.3-0.1-0.5-0.2
					s-0.4,0-0.5-0.1s-0.4,0.1-0.6,0.1s-0.3,0-0.5-0.1s-0.3-0.2-0.5-0.2S10.9,0,10.7,0s-0.4,0.1-0.5,0.1s-0.4,0-0.5,0
					S9.3,0.2,9.1,0.3s-0.3,0-0.5,0.1S8.2,0.2,8.1,0.2S7.8,0.5,7.6,0.5S7.2,0.4,7,0.5S6.8,0.8,6.6,0.8S6.4,1.2,6.2,1.3
					s-0.4,0-0.5,0.1S5.3,1.4,5.2,1.5S5.1,1.9,4.9,2S4.5,2,4.4,2.2S4.2,2.5,4.1,2.6S3.8,2.8,3.7,2.9S3.4,3.1,3.3,3.3S2.9,3.4,2.8,3.5
					S2.6,3.8,2.5,4S2.4,4.3,2.3,4.5s0,0.4-0.1,0.5S2.1,5.4,2,5.5S1.6,5.7,1.5,5.9s0.2,0.4,0.2,0.6S1.5,6.8,1.5,7S1.4,7.3,1.3,7.5
					s0,0.4,0,0.5c0,0.2,0,0.3,0,0.5s0,0.3,0,0.5S1.2,9.4,1.2,9.6s-0.1,0.3-0.1,0.5s0.1,0.3,0.1,0.5s0.1,0.3,0.1,0.5
					s-0.3,0.3-0.3,0.5s0,0.3,0,0.5s0.3,0.3,0.3,0.5s-0.2,0.3-0.2,0.5S1,13.6,1,13.8s0.2,0.4,0.2,0.5s0,0.4,0.1,0.5s0.1,0.4,0.1,0.5
					s-0.1,0.4-0.1,0.5S1,16.3,1,16.4s0.1,0.4,0.1,0.5s0.4,0.3,0.4,0.5S1.2,17.8,1.2,18s0,0.4,0,0.5s0.2,0.3,0.3,0.5
					s-0.1,0.4-0.1,0.5s0.1,0.3,0.1,0.5s0,0.4,0,0.5s0.1,0.3,0.2,0.5s0.3,0.3,0.4,0.4s0.3,0.2,0.4,0.4s-0.1,0.4,0,0.6
					s0.3,0.2,0.4,0.4s0.3,0.2,0.4,0.3s0.2,0.3,0.3,0.4s0.1,0.4,0.2,0.5s0.3,0.2,0.4,0.3s0.4,0,0.6,0.1S5,25,5.2,25.1
					s0.3,0.1,0.5,0.2s0.3,0.1,0.5,0.2s0.4,0,0.5,0.1S6.9,26,7,26s0.4-0.3,0.6-0.2s0.3,0.4,0.4,0.4s0.3,0.1,0.5,0.1s0.4,0,0.5,0
					s0.3,0,0.5,0s0.3-0.2,0.5-0.2s0.3,0.2,0.5,0.2s0.3-0.2,0.5-0.2s0.4,0.1,0.5,0.1S12,26,12.2,26s0.4,0.2,0.6,0.2s0.3-0.3,0.4-0.3
					s0.2-0.3,0.4-0.4s0.4,0,0.5-0.1s0.4,0,0.6,0s0.1-0.4,0.3-0.5s0.3-0.1,0.5-0.2s0.4-0.1,0.5-0.2s0.1-0.4,0.2-0.5s0.3-0.2,0.4-0.3
					s0.2-0.2,0.4-0.4s0.3-0.2,0.4-0.4s0.3-0.2,0.4-0.4s0.1-0.4,0.2-0.5s0.2-0.3,0.3-0.4s0.1-0.3,0.1-0.5s0.3-0.3,0.3-0.4
					s0.1-0.3,0.2-0.5s0-0.3,0.1-0.5s0.1-0.3,0.2-0.5S19,18.8,19,18.6s0.3-0.3,0.3-0.5s0-0.4,0-0.5s0.1-0.4,0.1-0.5
					c0-0.2-0.2-0.2-0.2-0.5s0.1-0.2,0.1-0.5s-0.2-0.2-0.2-0.5s-0.1-0.2-0.1-0.5s0.2-0.2,0.2-0.5s0.1-0.2,0.1-0.5s-0.1-0.2-0.1-0.5
					c0-0.2-0.1-0.4-0.2-0.5c-0.1-0.2-0.3-0.3-0.4-0.4c-0.2-0.1-0.3,0.1-0.5,0.1c-0.3,0-0.3-0.1-0.5-0.1s-0.3,0-0.5,0
					s-0.3-0.2-0.5-0.2s-0.3,0-0.5,0s-0.3-0.1-0.5-0.1s-0.3,0.2-0.5,0.2s-0.3,0.1-0.5,0.1s-0.3-0.3-0.5-0.3L13.7,12.6z"/>
			</g>
			<g id="グループ_100" transform="translate(28.194 1.249)">
				<path id="パス_118" class="st0" d="M9.4,0.3C9.2,0.3,9,0.1,8.9,0.1S8.5,0.2,8.4,0.2S8,0,7.8,0.1S7.5,0.4,7.4,0.4s-0.3,0-0.5,0
					s-0.4,0-0.5,0.1S6,0.6,5.9,0.7S5.6,1,5.5,1.1S5.1,1.1,5,1.2S4.6,1.3,4.5,1.4S4.2,1.6,4.1,1.7C4,1.9,3.9,2.1,3.8,2.2
					S3.5,2.4,3.4,2.5S3.2,2.8,3.1,2.9S2.7,3.1,2.6,3.2S2.5,3.6,2.4,3.8S2.2,4,2.1,4.2S1.9,4.5,1.9,4.7s0,0.4,0,0.5S1.6,5.5,1.5,5.7
					S1.6,6,1.6,6.2S1.4,6.5,1.3,6.7s0,0.4,0,0.5S1.2,7.6,1.2,7.8s0.1,0.4,0.1,0.5S1,8.6,1,8.8s0.4,0.4,0.4,0.5s0,0.3,0,0.5
					s-0.2,0.3-0.2,0.5s0,0.3,0,0.5s0,0.4,0,0.5s0.2,0.4,0.2,0.5s0,0.4,0,0.5s-0.1,0.4-0.1,0.5s0.1,0.4,0.1,0.5s0,0.4,0,0.5
					S1,14.5,1,14.7s0.2,0.4,0.2,0.5s-0.1,0.4-0.1,0.5s0,0.4,0,0.5s0.2,0.3,0.2,0.5s0,0.4,0,0.5s0.1,0.3,0.2,0.5s-0.2,0.4-0.1,0.6
					s0.4,0.3,0.4,0.4S2,19.2,2,19.3s0.1,0.3,0.2,0.5s0,0.4,0.1,0.5s0.2,0.3,0.4,0.4s0,0.4,0.2,0.6s0.4,0.1,0.5,0.2s0.1,0.4,0.2,0.5
					s0.5,0,0.6,0.1s0.3,0.2,0.4,0.3s0.2,0.3,0.3,0.4s0.3,0.3,0.4,0.3S5.8,23,6,23.1s0.3,0.2,0.4,0.3s0.4,0,0.5,0s0.2,0.4,0.4,0.4
					s0.4-0.2,0.6-0.2c0.2,0,0.3,0,0.5,0.1S8.7,24,8.9,24s0.3,0.1,0.5,0.1S9.7,24,9.9,24s0.3-0.2,0.5-0.2s0.3-0.1,0.5-0.1
					s0.3-0.1,0.5-0.2s0.4,0.2,0.6,0.2s0.2-0.4,0.4-0.4s0.4,0,0.5-0.1s0.4,0.1,0.6,0s0.2-0.4,0.3-0.5s0.3-0.2,0.4-0.3
					s0.4-0.1,0.5-0.2s0.1-0.4,0.2-0.5s0.4-0.1,0.5-0.2s0.3-0.2,0.4-0.3s0-0.4,0.1-0.6s0.3-0.2,0.4-0.3s0-0.4,0.1-0.6
					s0.2-0.3,0.3-0.4s0-0.4,0.1-0.5s0-0.3,0.1-0.5s0.2-0.3,0.3-0.5s0.1-0.3,0.2-0.5s0.1-0.3,0.1-0.5s-0.2-0.4-0.2-0.5
					s0.1-0.3,0.1-0.5s0.1-0.3,0.2-0.5s0-0.4,0-0.5s-0.2-0.4-0.2-0.5s0.3-0.3,0.3-0.5s0-0.4,0-0.5s-0.3-0.4-0.3-0.5s-0.1-0.4-0.1-0.5
					s0-0.4,0-0.5s0-0.4,0-0.5s0.1-0.4,0.1-0.5s0.2-0.4,0.2-0.5s0-0.4,0-0.5s0-0.4,0-0.5s-0.1-0.4-0.1-0.5s0.1-0.4,0.1-0.5
					s-0.3-0.3-0.4-0.5s0.1-0.4,0-0.5s0.1-0.4,0.1-0.6s0-0.4,0-0.5S17,5.4,17,5.2s0.1-0.4,0.1-0.6s-0.2-0.3-0.3-0.5s-0.3-0.2-0.4-0.4
					S16,3.6,15.9,3.4s0-0.5-0.1-0.6s-0.3-0.2-0.4-0.4s-0.4-0.1-0.5-0.2s-0.2-0.3-0.3-0.4s-0.3-0.1-0.5-0.2s-0.2-0.2-0.4-0.3
					s-0.3-0.1-0.5-0.2S13,0.9,12.8,0.9s-0.2-0.4-0.4-0.4S12,0.6,11.9,0.5s-0.3,0-0.5,0s-0.3-0.4-0.4-0.4s-0.4,0.2-0.5,0.2
					S10.1,0,9.9,0S9.5,0.3,9.4,0.3z M9.4,21.8c-0.2,0-0.3-0.2-0.5-0.2s-0.3,0-0.5,0s-0.3-0.2-0.4-0.3c-0.2,0-0.4,0.1-0.5,0.1
					S7.1,21.2,7,21.1s-0.2-0.2-0.4-0.3s-0.3-0.2-0.4-0.3s-0.4,0-0.5-0.1S5.5,20.1,5.4,20s-0.2-0.3-0.3-0.5c-0.1-0.1-0.2-0.3-0.3-0.4
					c-0.1-0.1-0.3-0.2-0.4-0.4c-0.1-0.2-0.1-0.3-0.2-0.5c-0.1-0.2-0.1-0.3-0.2-0.5c0-0.2,0.1-0.4,0.1-0.5s-0.2-0.3-0.2-0.5
					s0-0.3,0-0.5s0-0.3,0-0.5s-0.2-0.3-0.2-0.5s0.1-0.3,0.1-0.5s-0.2-0.3-0.2-0.5s0.2-0.3,0.2-0.5s-0.1-0.3-0.1-0.5s0.1-0.3,0.1-0.5
					S3.7,12.2,3.7,12s0.3-0.4,0.3-0.5S3.6,11.1,3.6,11s0-0.4,0-0.5s0.2-0.4,0.3-0.5s0-0.4,0-0.5s0-0.4,0-0.5S3.7,8.5,3.7,8.4
					s0-0.4,0.1-0.5s0.1-0.3,0.1-0.5s0-0.4,0-0.5C3.9,6.6,4,6.4,4,6.3S4.3,6,4.4,5.8s0-0.4,0-0.5C4.5,5.2,4.6,5,4.7,4.9
					C4.9,4.8,5,4.6,5.1,4.5C5.2,4.4,5.2,4.1,5.3,4s0.3-0.2,0.4-0.3s0.2-0.3,0.4-0.4s0.4,0,0.5-0.1s0.2-0.4,0.3-0.5s0.3-0.1,0.5-0.2
					s0.3-0.1,0.5-0.1c0.2,0,0.4,0.1,0.5,0s0.3-0.1,0.5-0.1s0.3,0.2,0.5,0.2s0.3-0.2,0.5-0.2s0.3,0.3,0.5,0.3s0.4-0.2,0.5-0.2
					s0.3,0.1,0.5,0.1s0.2,0.3,0.4,0.4s0.2,0.2,0.4,0.3s0.5-0.1,0.6,0s0.2,0.3,0.3,0.4s0.3,0.1,0.5,0.3s0,0.5,0.1,0.6
					s0.5,0.1,0.6,0.2c0.1,0.2,0.2,0.3,0.3,0.5c0.1,0.2-0.1,0.4,0,0.6s0.1,0.3,0.1,0.5s0.1,0.3,0.2,0.5s0.2,0.3,0.2,0.5
					s0.1,0.3,0.1,0.5c0,0.2,0.1,0.3,0.1,0.5s-0.3,0.4-0.3,0.5s0.3,0.3,0.3,0.5s-0.1,0.3-0.1,0.5s-0.3,0.3-0.3,0.5S15,10.8,15,11
					s0,0.3,0,0.5s-0.2,0.3-0.2,0.5s0.2,0.4,0.2,0.5s-0.2,0.4-0.2,0.5s-0.1,0.4-0.1,0.5s0.3,0.4,0.3,0.5s-0.2,0.3-0.2,0.5
					s0.2,0.4,0.2,0.5S15,15.5,15,15.7s0.1,0.4,0,0.5s0,0.4,0,0.5s-0.2,0.3-0.2,0.5c0,0.2-0.2,0.3-0.2,0.5s-0.1,0.3-0.2,0.5
					s0.1,0.4,0,0.6c-0.1,0.1-0.2,0.3-0.3,0.4c-0.1,0.1-0.3,0.2-0.4,0.3s-0.2,0.3-0.3,0.4s-0.1,0.4-0.2,0.5s-0.4,0-0.6,0.1
					s-0.3,0.2-0.4,0.2s-0.2,0.4-0.3,0.5s-0.3,0.2-0.4,0.3s-0.3,0.1-0.5,0.1s-0.3,0.1-0.5,0.1s-0.4-0.1-0.5-0.1S9.5,21.8,9.4,21.8
					L9.4,21.8z"/>
			</g>
			<g id="グループ_101" transform="translate(53.997 0.654)">
				<path id="パス_119" class="st0" d="M10.1,0C10,0,9.8,0.1,9.6,0.1s-0.3,0-0.5,0S8.8,0.4,8.6,0.4S8.2,0.2,8.1,0.2
					c-0.2,0-0.3,0.3-0.5,0.3S7.3,0.7,7.1,0.7S6.8,0.9,6.7,0.9S6.4,1.1,6.2,1.2s-0.4-0.1-0.6,0S5.5,1.5,5.3,1.6s-0.4,0-0.5,0.1
					S4.6,2.1,4.5,2.2s-0.5,0-0.6,0.1C3.8,2.4,3.8,2.7,3.7,2.8S3.2,2.9,3.1,3S3,3.4,2.9,3.5S2.6,3.7,2.5,3.8S2.3,4.2,2.2,4.3
					S2,4.6,1.9,4.8s0.1,0.4,0,0.6S1.6,5.6,1.5,5.8s0,0.4-0.1,0.5s0,0.3-0.1,0.5S1.2,7.2,1.1,7.3s0,0.4,0,0.5c0,0.2,0.3,0.4,0.3,0.6
					S1.1,8.7,1.1,8.9s0.1,0.3,0.1,0.5S1.3,9.8,1.3,10s-0.1,0.3-0.1,0.5S1,10.9,1,11s0.1,0.3,0.1,0.5S1,11.9,1,12.1s0,0.3,0,0.5
					s0,0.4,0,0.5s0.1,0.4,0.1,0.5S1,14,1,14.2s0,0.4,0,0.5s0.4,0.3,0.4,0.5s-0.2,0.4-0.2,0.5s0,0.4,0,0.5s0.1,0.4,0.1,0.5
					s0,0.4,0,0.5s0.3,0.3,0.3,0.5s-0.2,0.4-0.2,0.6s0.2,0.3,0.3,0.5s-0.1,0.4,0,0.5s0.1,0.3,0.1,0.5s0.1,0.3,0.2,0.5
					c0.1,0.2,0.4,0.2,0.5,0.3s0,0.4,0.1,0.6s0.2,0.3,0.3,0.4s0.2,0.3,0.3,0.5s0.3,0.2,0.5,0.3s0.3,0.2,0.4,0.3
					c0.1,0.1,0.3,0.1,0.5,0.2s0.2,0.3,0.3,0.4s0.3,0.2,0.4,0.3s0.4,0,0.5,0.1S6.1,24,6.2,24s0.2,0.5,0.3,0.5s0.4,0,0.5,0.1
					s0.3,0.1,0.5,0.1S7.9,25,8.1,25c0.2,0,0.3,0.1,0.5,0.1s0.4-0.3,0.5-0.2s0.3,0.3,0.5,0.3s0.4,0,0.5,0s0.3-0.2,0.5-0.3
					s0.4,0.1,0.5,0.1s0.3-0.3,0.5-0.3s0.4,0.1,0.5,0.1s0.3-0.3,0.5-0.3s0.3,0,0.5-0.1s0.4,0.2,0.6,0.1s0.3-0.2,0.5-0.3
					s0.2-0.3,0.4-0.4s0.3-0.2,0.4-0.3s0.4,0,0.5-0.1s0.3-0.2,0.5-0.3s0.1-0.4,0.2-0.6s0.3-0.2,0.4-0.3s0.5,0,0.6-0.1
					s0.2-0.3,0.3-0.4s0.3-0.3,0.4-0.4s0.1-0.4,0.2-0.5s0-0.4,0.1-0.5s0.1-0.3,0.2-0.5s0.1-0.3,0.2-0.5s0.2-0.3,0.3-0.5
					s0.2-0.3,0.2-0.5s-0.2-0.4-0.2-0.6s0.1-0.3,0.1-0.5s0.2-0.3,0.2-0.5s0-0.3,0.1-0.5s-0.1-0.4-0.1-0.5s0-0.3,0-0.5
					s0.1-0.3,0.1-0.5s-0.1-0.4-0.1-0.5s0.1-0.3,0.1-0.5s-0.1-0.3-0.1-0.5S19,12.8,19,12.6s0.1-0.4,0.1-0.5s0-0.4,0-0.5s0-0.4,0-0.5
					s0.3-0.4,0.3-0.5s-0.4-0.4-0.4-0.5s-0.1-0.4-0.1-0.5s0.3-0.4,0.3-0.5s0-0.4,0-0.5S19.2,8,19.1,7.9c0-0.2,0-0.4,0-0.5
					S18.7,7,18.7,6.9s0-0.4,0-0.5S18.6,6,18.6,5.8s0-0.4,0-0.5s-0.4-0.2-0.5-0.4S18,4.6,17.9,4.4s0-0.4-0.1-0.6s-0.2-0.3-0.3-0.4
					S17.3,3.1,17.2,3s-0.5,0-0.6-0.1s-0.1-0.4-0.2-0.5s-0.4,0-0.5-0.2s-0.2-0.4-0.3-0.5S15.1,1.7,15,1.7s-0.1-0.5-0.3-0.6
					s-0.4,0.1-0.6,0S13.8,1,13.6,1s-0.3-0.1-0.5-0.2s-0.3-0.2-0.5-0.2s-0.3-0.4-0.4-0.4s-0.4,0.1-0.5,0.1s-0.3,0-0.5,0
					s-0.3-0.1-0.5-0.1C10.5,0.2,10.3,0,10.1,0z M10.1,22.4c-0.2,0-0.4,0.1-0.5,0.1s-0.3,0-0.5-0.1s-0.4,0.1-0.6,0.1S8.3,22.1,8.1,22
					c-0.2-0.1-0.4,0.1-0.6,0S7.2,21.9,7,21.9s-0.3-0.1-0.5-0.2s-0.3-0.2-0.5-0.3s-0.1-0.4-0.2-0.5s-0.4-0.1-0.5-0.2
					s-0.1-0.4-0.2-0.5s-0.4-0.2-0.5-0.3s0.1-0.4,0-0.6s-0.3-0.3-0.3-0.4s0.1-0.4,0.1-0.5s-0.2-0.3-0.2-0.5s0.1-0.3,0.1-0.5
					s-0.1-0.3-0.1-0.5s0.1-0.3,0.1-0.5S4,15.9,4,15.7s0.2-0.3,0.2-0.5s-0.1-0.3-0.1-0.5s0-0.3,0-0.5s0.1-0.3,0.1-0.5
					s-0.1-0.3-0.1-0.5s-0.4-0.3-0.4-0.5s0.3-0.3,0.3-0.5S4,11.8,4,11.6s-0.2-0.3-0.2-0.5S4,10.7,4,10.6s0.2-0.3,0.2-0.5
					S4.1,9.7,4.1,9.5S4.2,9.2,4.2,9s0-0.3,0-0.5s0-0.3,0-0.5c0-0.2,0-0.4,0-0.5S4.4,7.2,4.5,7s0.1-0.3,0.1-0.5S4.4,6.1,4.4,5.9
					s0.4-0.2,0.5-0.4C5,5.4,5.1,5.3,5.2,5.2C5.3,5,5.3,4.9,5.4,4.7c0.1-0.1,0.2-0.2,0.4-0.4S5.9,4,6.1,3.9s0.4,0,0.6-0.1
					S6.9,3.4,7,3.3s0.4,0,0.5-0.1s0.3-0.1,0.5-0.2C8.2,3,8.4,3,8.6,3s0.3-0.4,0.5-0.4s0.4,0.2,0.6,0.2s0.3,0,0.5,0s0.3,0.1,0.5,0.1
					s0.4-0.1,0.5-0.1s0.4,0,0.5,0s0.4,0,0.5,0.1s0.3,0.3,0.4,0.3s0.3,0.2,0.5,0.3s0.4,0,0.6,0.1s0.4,0.1,0.5,0.3s0,0.5,0.2,0.6
					s0.3,0.2,0.4,0.3C15,4.9,15.1,5,15.2,5.1c0.1,0.1,0,0.4,0.1,0.5c0.1,0.1,0.1,0.3,0.2,0.4c0.1,0.2,0.4,0.2,0.5,0.4
					S15.8,6.9,15.8,7s0.1,0.3,0.1,0.5s0.3,0.3,0.3,0.5c0,0.2-0.1,0.3-0.1,0.5s0.3,0.3,0.3,0.5s-0.2,0.3-0.2,0.5s0.2,0.3,0.2,0.5
					s-0.1,0.3-0.1,0.5s-0.3,0.3-0.3,0.5s0.1,0.3,0.1,0.5s0.2,0.3,0.2,0.5s0,0.3,0,0.5s-0.2,0.3-0.2,0.5s-0.1,0.3-0.1,0.5
					s0.3,0.4,0.3,0.5s0,0.3,0,0.5s-0.4,0.3-0.4,0.5s0,0.3,0,0.5s-0.1,0.3-0.1,0.5s0.1,0.4,0.1,0.5s0.1,0.4,0.1,0.5s0,0.4-0.1,0.5
					s-0.1,0.3-0.1,0.5s-0.2,0.3-0.3,0.5s-0.2,0.3-0.3,0.4s0.1,0.4,0,0.6c-0.1,0.1-0.2,0.3-0.3,0.4c-0.1,0.1-0.3,0.2-0.4,0.3
					s-0.2,0.2-0.4,0.3s-0.2,0.3-0.3,0.4s-0.3,0.2-0.4,0.3s-0.4,0.1-0.5,0.2S12.9,22,12.8,22s-0.4,0-0.5,0.1s-0.3,0.2-0.5,0.3
					s-0.3,0.1-0.5,0.2s-0.4,0-0.5,0S10.3,22.4,10.1,22.4L10.1,22.4z"/>
			</g>
			<g id="グループ_102" transform="translate(111.137 1.188)">
				<path id="パス_120" class="st0" d="M17.8,0c-0.4,0-0.4,0-0.8,0c-0.2,0-0.5-0.1-0.6,0s-0.2,0.4-0.3,0.5s-0.3,0.3-0.3,0.5
					c0,0.3,0.2,0.3,0.2,0.5S16,1.9,16,2.2s-0.1,0.3-0.1,0.5s0.2,0.3,0.2,0.5s-0.1,0.3-0.1,0.5s0.1,0.3,0.1,0.5s0,0.3,0,0.5
					s0,0.3,0,0.5s0,0.3,0,0.5s0,0.3,0,0.5s-0.2,0.3-0.2,0.5s-0.2,0.3-0.2,0.5s0.1,0.3,0.1,0.5c0,0.3,0,0.3,0,0.5s0.2,0.3,0.2,0.5
					s-0.2,0.3-0.2,0.5S16,9.8,16,10.1c0,0.2-0.2,0.2-0.3,0.3s-0.2,0.2-0.3,0.2c-0.3,0-0.3-0.1-0.5-0.1s-0.3,0.1-0.5,0.1
					s-0.3-0.1-0.5-0.1s-0.3,0.3-0.5,0.3s-0.3-0.1-0.5-0.1s-0.3,0-0.5,0s-0.3-0.1-0.5-0.1s-0.3,0.3-0.5,0.3s-0.3-0.2-0.5-0.2
					s-0.3,0.1-0.5,0.1s-0.3-0.1-0.5-0.1s-0.3-0.1-0.5-0.1S9,10.6,8.7,10.6s-0.3,0.3-0.5,0.3s-0.3-0.3-0.5-0.3s-0.3,0.2-0.5,0.2
					s-0.3-0.3-0.5-0.3s-0.3,0.1-0.5,0.1s-0.3-0.1-0.5-0.1s-0.3,0.2-0.5,0.2s-0.3,0-0.5,0c-0.2,0-0.3-0.1-0.4-0.2
					c-0.1-0.1-0.4-0.3-0.4-0.4c0-0.3,0.3-0.3,0.3-0.5S3.8,9.3,3.8,9s0.4-0.3,0.4-0.5s0-0.3,0-0.5c0-0.3,0-0.3,0-0.5S4,7.2,4,6.9
					s0.1-0.3,0.1-0.5s0-0.3,0-0.5S3.9,5.6,3.9,5.3s0.3-0.3,0.3-0.5s0-0.3,0-0.5S3.9,4,3.9,3.8s0.2-0.3,0.2-0.5S3.9,3,3.9,2.7
					s0.2-0.3,0.2-0.5s0-0.3,0-0.5s0.1-0.3,0.1-0.5c0-0.2-0.3-0.3-0.4-0.5S3.5,0.5,3.4,0.4S3.1,0.2,2.9,0.2c-0.4,0-0.4-0.1-0.7-0.1
					C2,0.1,1.9,0.3,1.8,0.4s-0.5,0-0.6,0.1C1.1,0.7,1,0.9,1,1.1c0,0.3,0.2,0.3,0.2,0.5s0,0.3,0,0.5S1.1,2.4,1.1,2.7s0.1,0.3,0.1,0.5
					s0,0.3,0,0.5s0,0.3,0,0.5s0,0.3,0,0.5S1.2,5,1.2,5.3S1,5.5,1,5.8s0,0.3,0,0.5s0.3,0.3,0.3,0.5S1.2,7.1,1.2,7.4S1,7.6,1,7.9
					c0,0.3,0.1,0.3,0.1,0.5s0,0.3,0,0.5S1,9.2,1,9.5S1,9.7,1,10s0.2,0.3,0.2,0.5s0,0.3,0,0.5S1,11.3,1,11.5s0.2,0.3,0.2,0.5
					S1,12.3,1,12.6s0.3,0.3,0.3,0.5s0,0.3,0,0.5s-0.1,0.3-0.1,0.5s0.1,0.3,0.1,0.5s0.1,0.3,0.1,0.5s-0.1,0.3-0.1,0.5s0,0.3,0,0.5
					s0.1,0.3,0.1,0.5S1.2,17,1.2,17.3s0.2,0.3,0.2,0.5S1,18.1,1,18.3s0.3,0.3,0.3,0.5s-0.2,0.3-0.2,0.5s0.2,0.3,0.2,0.5
					s-0.1,0.3-0.1,0.5V21c0,0.3-0.2,0.3-0.2,0.5s0.1,0.3,0.1,0.5s0.1,0.3,0.1,0.5s-0.1,0.3-0.1,0.5c0,0.2,0.1,0.4,0.2,0.5
					c0.1,0.2,0.1,0.4,0.3,0.5c0.2,0.1,0.4,0.1,0.6,0.1c0.4,0,0.4,0,0.7,0c0.2,0,0.3-0.3,0.4-0.4s0.4-0.1,0.5-0.2s0.4-0.3,0.4-0.5
					c0-0.3-0.1-0.3-0.1-0.5s0-0.3,0-0.5s-0.3-0.3-0.3-0.5s0-0.3,0-0.5s0.3-0.3,0.3-0.5s0-0.3,0-0.5s-0.2-0.3-0.2-0.5
					S3.8,19.2,3.8,19s0.3-0.3,0.3-0.5s0-0.3,0-0.5S4,17.7,4,17.5s0.1-0.3,0.1-0.5s0-0.3,0-0.5s0-0.3,0-0.5s-0.2-0.3-0.2-0.5
					S4,15.2,4,14.9s0-0.3,0-0.5s0.1-0.3,0.1-0.5c0-0.2-0.2-0.4-0.1-0.5s0.4,0,0.5,0c0.3,0,0.3-0.1,0.5-0.1s0.3,0.2,0.5,0.2
					s0.3-0.2,0.5-0.2s0.3-0.1,0.5-0.1s0.3,0.2,0.5,0.2s0.3,0,0.5,0s0.3-0.2,0.5-0.2s0.3,0.2,0.5,0.2s0.3,0,0.5,0s0.3,0.1,0.5,0.1
					s0.3-0.1,0.5-0.1s0.3-0.1,0.5-0.1s0.3,0.3,0.5,0.3s0.3-0.3,0.5-0.3s0.3,0.2,0.5,0.2s0.3-0.1,0.5-0.1s0.3,0.2,0.5,0.2
					s0.3-0.2,0.5-0.2s0.3,0.1,0.5,0.1s0.3,0,0.5,0s0.3-0.2,0.5-0.2c0.2,0,0.3,0.1,0.5,0.2c0.1,0.1,0.2,0.3,0.2,0.5
					c0,0.3,0,0.3,0,0.5s0,0.3,0,0.5S16,15.2,16,15.4s-0.1,0.3-0.1,0.5s0.3,0.3,0.3,0.5S16,16.7,16,16.9s-0.2,0.3-0.2,0.5
					S16,17.7,16,18s-0.1,0.3-0.1,0.5s0.1,0.3,0.1,0.5s0.1,0.3,0.1,0.5S16,19.7,16,20s-0.3,0.3-0.3,0.5s0.1,0.3,0.1,0.5
					s0.1,0.3,0.1,0.5s0.1,0.3,0.1,0.5s-0.2,0.3-0.2,0.5s0.1,0.3,0.1,0.5c0,0.2-0.1,0.4,0,0.6c0.1,0.2,0.3,0.3,0.4,0.4
					c0.2,0.1,0.4,0,0.6,0c0.4,0,0.4,0.2,0.8,0.2c0.2,0,0.4-0.1,0.6-0.2c0.4-0.2,0.6-0.6,0.6-1c0-0.3-0.2-0.3-0.2-0.5
					s0.2-0.3,0.2-0.5s0-0.3,0-0.5s-0.1-0.3-0.1-0.5s-0.2-0.3-0.2-0.5s0.2-0.3,0.2-0.5s-0.2-0.3-0.2-0.5s0.2-0.3,0.2-0.5
					s0.1-0.3,0.1-0.5s0-0.3,0-0.5s-0.2-0.3-0.2-0.5s0.1-0.3,0.1-0.5s0.2-0.3,0.2-0.5S19,16,19,15.8s-0.2-0.3-0.2-0.5
					s0.1-0.3,0.1-0.5s-0.1-0.3-0.1-0.5s0-0.3,0-0.5s0.1-0.3,0.1-0.5s0-0.3,0-0.5s-0.1-0.3-0.1-0.5s0.1-0.3,0.1-0.5s0.1-0.3,0.1-0.5
					s0.1-0.3,0.1-0.5s-0.2-0.3-0.2-0.5s0.1-0.3,0.1-0.5s0.1-0.3,0.1-0.5s0.1-0.3,0.1-0.5s-0.1-0.3-0.1-0.5c0-0.3,0.1-0.3,0.1-0.5
					s-0.1-0.3-0.1-0.5s0.1-0.3,0.1-0.5s-0.3-0.3-0.3-0.5S19,5.6,19,5.3s-0.1-0.3-0.1-0.5s0-0.3,0-0.5S18.8,4,18.8,3.7
					s-0.2-0.3-0.2-0.5s0-0.3,0-0.5S19,2.4,19,2.2s-0.2-0.3-0.2-0.5s-0.1-0.3-0.1-0.5c0-0.2,0.2-0.4,0.1-0.6
					c-0.1-0.2-0.2-0.3-0.4-0.4C18.2,0,18,0,17.8,0z"/>
			</g>
			<g id="グループ_103" transform="translate(139.14 1.078)">
				<path id="パス_121" class="st0" d="M18.1,0c-0.4,0-0.4,0.1-0.7,0.1c-0.2,0-0.4,0.1-0.6,0.2c-0.2,0.1-0.1,0.4-0.2,0.5
					S16.3,1,16.3,1.2c0,0.3,0.1,0.3,0.1,0.5s0.1,0.3,0.1,0.5s-0.3,0.3-0.3,0.5s0.3,0.3,0.3,0.5s-0.2,0.3-0.2,0.5s0,0.3,0,0.5
					s0.3,0.3,0.3,0.5s-0.2,0.3-0.2,0.5s0,0.3,0,0.5s-0.2,0.3-0.2,0.5s0.3,0.3,0.3,0.5s0,0.3,0,0.5S16.4,7.7,16.4,8
					c0,0.3,0,0.3,0,0.5S16.3,8.7,16.3,9s0.1,0.3,0.1,0.5s0,0.3,0,0.5s-0.1,0.3-0.1,0.5s0,0.3,0,0.5s0.3,0.3,0.3,0.5
					s-0.4,0.3-0.4,0.5s0.2,0.3,0.2,0.5s-0.2,0.3-0.2,0.5s0.3,0.3,0.3,0.5s-0.1,0.3-0.1,0.5s0.1,0.3,0.1,0.5s-0.3,0.3-0.3,0.5
					s0.1,0.3,0.1,0.5s0.2,0.3,0.2,0.5c0,0.2,0,0.4,0,0.5s0,0.4-0.1,0.5s0.1,0.4,0.1,0.6s-0.4,0.3-0.5,0.4s0.2,0.4,0.2,0.6
					s-0.5,0.2-0.6,0.3s0,0.4-0.1,0.5c-0.1,0.1-0.2,0.3-0.3,0.4c-0.1,0.1-0.1,0.4-0.2,0.5s-0.1,0.4-0.2,0.5s-0.3,0.2-0.5,0.3
					s-0.4,0-0.5,0.1S13.4,22,13.2,22s-0.3,0.1-0.5,0.2s-0.4,0-0.5,0s-0.3,0.1-0.5,0.2s-0.3,0.3-0.5,0.3s-0.4-0.1-0.5-0.1
					s-0.3,0.1-0.5,0.1s-0.4,0-0.5,0s-0.3-0.3-0.5-0.3s-0.3,0-0.5-0.1s-0.4,0.1-0.5,0c-0.2-0.1-0.3-0.2-0.5-0.3s-0.3-0.3-0.4-0.3
					s-0.4,0-0.5-0.1s-0.4,0-0.6-0.1s-0.2-0.3-0.3-0.5s-0.3-0.2-0.4-0.3S5.1,20.6,5,20.4S4.9,20,4.8,19.9s-0.1-0.4-0.1-0.5
					s-0.3-0.3-0.3-0.4s-0.1-0.3-0.2-0.5S4.1,18.1,4,17.9s0-0.4,0-0.5s0.3-0.4,0.3-0.5s-0.3-0.3-0.3-0.5c0-0.3,0.1-0.3,0.1-0.5
					s-0.2-0.3-0.2-0.5S4,15,4,14.7s0-0.3,0-0.5s0-0.3,0-0.5s0.2-0.3,0.2-0.5s0-0.3,0-0.5v-0.5c0-0.3-0.2-0.3-0.2-0.5s0-0.3,0-0.5
					s0-0.3,0-0.5s0-0.3,0-0.5s0.2-0.3,0.2-0.5S4,9.2,4,8.9S3.9,8.7,3.9,8.4S4,8.2,4,7.9c0-0.3,0.1-0.3,0.1-0.5S3.9,7.1,3.9,6.8
					S4,6.6,4,6.3S4,6,4,5.8S3.9,5.5,3.9,5.3S3.8,5,3.8,4.7s0.4-0.3,0.4-0.5S4.1,3.9,4.1,3.7S4.1,3.4,4.1,3.1S3.9,2.9,3.9,2.6
					s0.2-0.3,0.2-0.5c0-0.2-0.2-0.3-0.3-0.4C3.7,1.5,3.6,1.4,3.4,1.3C3.3,1.2,3.2,1,3,1C2.6,1,2.6,1.2,2.2,1.2c-0.2,0-0.4-0.1-0.5,0
					S1.6,1.5,1.5,1.6C1.4,1.8,1.3,1.9,1.3,2.1c0,0.3-0.2,0.3-0.2,0.5s0,0.3,0,0.5S1,3.4,1,3.6s0,0.3,0,0.5s0.2,0.3,0.2,0.5
					S1,4.9,1,5.2s0.3,0.3,0.3,0.5S1.3,6,1.3,6.2S1.2,6.5,1.2,6.7S1,7,1,7.2s0.2,0.3,0.2,0.5C1.2,8,1,8,1,8.3s0.1,0.3,0.1,0.5
					s0,0.3,0,0.5s0.2,0.3,0.2,0.5s0.1,0.3,0.1,0.5s-0.2,0.3-0.2,0.5s0.2,0.3,0.2,0.5s-0.3,0.3-0.3,0.5s0.2,0.3,0.2,0.5
					S1,12.7,1,12.9s0.1,0.3,0.1,0.5S1,13.7,1,14s0.1,0.3,0.1,0.5s0.2,0.3,0.2,0.5s-0.1,0.3-0.1,0.5S1.1,15.8,1.1,16s0,0.3,0,0.5
					c0,0.2,0.3,0.3,0.3,0.5s0,0.3,0,0.5s-0.2,0.4-0.1,0.5s0,0.4,0,0.5s0.4,0.3,0.4,0.4s-0.1,0.4,0,0.6s0.3,0.2,0.4,0.4
					c0.1,0.2,0,0.4,0.1,0.5s0.3,0.2,0.4,0.4s0.2,0.3,0.3,0.4s0,0.4,0.1,0.5s0.4,0.1,0.5,0.3s0.2,0.3,0.3,0.4s0,0.5,0.2,0.6
					s0.3,0.2,0.5,0.3s0.3,0.2,0.4,0.3S5,24,5.2,24.1s0.4,0,0.5,0.1s0.2,0.3,0.4,0.4s0.3,0.2,0.5,0.3s0.4-0.2,0.6-0.1
					s0.3,0.3,0.4,0.4S8,24.9,8.1,25c0.2,0,0.3,0,0.5,0s0.3,0.3,0.5,0.3s0.4-0.1,0.5-0.1s0.3,0.1,0.5,0.1s0.3-0.2,0.5-0.2
					s0.3,0.1,0.5,0.1s0.4,0.2,0.5,0.2s0.4-0.1,0.5-0.1s0.3-0.1,0.5-0.1s0.3-0.3,0.4-0.3s0.3-0.1,0.5-0.2s0.3-0.1,0.5-0.1
					s0.4,0,0.6,0s0.1-0.5,0.3-0.6s0.3-0.1,0.4-0.2s0.4,0,0.5-0.1s0.1-0.4,0.3-0.5s0.2-0.3,0.3-0.4s0.3-0.2,0.4-0.3s0.3-0.2,0.4-0.4
					s0.3-0.2,0.4-0.4s0.1-0.4,0.2-0.5s0.1-0.3,0.2-0.5s0.1-0.3,0.2-0.5s0.2-0.3,0.3-0.5s0.2-0.3,0.3-0.5s-0.2-0.4-0.1-0.6
					s0.2-0.3,0.2-0.5s0.1-0.3,0.1-0.5s0.2-0.3,0.2-0.5S19,16.7,19,16.6c0-0.3,0.3-0.3,0.3-0.5s0-0.3,0-0.5S19,15.3,19,15
					s0-0.3,0-0.5S19,14.3,19,14s0.1-0.3,0.1-0.5s0-0.3,0-0.5s0.2-0.3,0.2-0.5s-0.1-0.3-0.1-0.5s-0.1-0.3-0.1-0.5S19,11.2,19,10.9
					s0.2-0.3,0.2-0.5s0.1-0.3,0.1-0.5s-0.2-0.3-0.2-0.5s0-0.3,0-0.5s0.1-0.3,0.1-0.5s-0.1-0.3-0.1-0.5c0-0.3,0.1-0.3,0.1-0.5
					s-0.2-0.3-0.2-0.5s0-0.3,0-0.5S19,6.1,19,5.8s0.3-0.3,0.3-0.5s0.1-0.3,0.1-0.5s-0.3-0.3-0.3-0.5S19,4,19,3.8s0-0.3,0-0.5
					s0.3-0.3,0.3-0.5S19,2.5,19,2.2s0.2-0.3,0.2-0.5s0.1-0.3,0.1-0.5C19.2,0.6,18.7,0.1,18.1,0L18.1,0z"/>
			</g>
			<path id="パス_122" class="st0" d="M98.4,18.2l0,0.3l-0.1,0.3l0,0.3l-0.2,0.3l-0.1,0.3l0.2,0.4l-0.5,0.2l0,0.4l-0.2,0.3
				l-0.3,0.2l-0.2,0.2v0.5l-0.4,0.1l-0.2,0.2l-0.3,0.2l-0.3,0.1l-0.2,0.3l-0.3,0.1L95,22.9l-0.3,0l-0.3,0.1L94,23.2l-0.3-0.1l-0.3,0
				L93,23.2L92.7,23l-0.3,0.2l-0.3-0.1l-0.3,0.2h-0.3l-0.3,0l-0.3-0.2l-0.3,0.1l-0.3,0L89.8,23l-0.3,0.1l-0.3-0.1l-0.3,0.2l-0.3-0.1
				l-0.3-0.1l-0.4,0l-0.1-0.4l-0.4,0l-0.1-0.3V22l-0.1-0.3l0.1-0.3l-0.2-0.3l0-0.3l0.1-0.3l-0.1-0.3l0-0.3l0-0.3l0-0.3l0.2-0.3
				l-0.3-0.3l0.3-0.3l0-0.3l-0.3-0.3l0.1-0.3l0.1-0.3l0.1-0.3l0.1-0.3L87.1,16l0.1-0.3l-0.1-0.3l0.1-0.3l-0.1-0.3l-0.3-0.3l0.3-0.3
				l-0.1-0.3l0.1-0.3l0-0.3L87,12.8l0.3-0.3l-0.3-0.3l0.1-0.3l0-0.3l0-0.3l0.2-0.3l-0.2-0.3l0.1-0.3l0-0.3l-0.1-0.3l-0.1-0.3l0-0.3
				L87,8.7l0.1-0.3l0-0.3l0.1-0.3l0-0.3l0-0.3l0-0.3l-0.2-0.3l0.2-0.3l0.1-0.3l0-0.3l0-0.3l-0.3-0.3L87,4.5l0.2-0.3l0.1-0.3l0.3-0.2
				l0.3,0l0.3-0.1l0.3-0.2l0.3-0.1l0.3,0.2l0.3-0.2l0.3,0.2l0.3-0.1l0.3,0l0.3-0.1l0.3,0.2l0.3,0l0.3,0l0.3-0.3l0.3,0l0.3,0L93,3.6
				l0.3-0.3l0.3,0L94,3.4l0.3,0.3l0.3,0l0.3,0.1l0.4,0l0.3,0.2l0.3,0.1l0.3,0.1l0.3,0.1l0.1,0.4l0.4,0L97.3,5l0.2,0.3l-0.1,0.4
				l0.4,0.1l-0.1,0.4l0.1,0.3l0.2,0.2l0.2,0.2l0.1,0.3l-0.1,0.3l0,0.3l0.2,0.3l0.2,0.3l0,0.3l0.3-0.1l0.3,0.1l0.3-0.2h0.3l0.3,0
				l0.3,0.2l0.3-0.2l0.3,0l0.3-0.2l0-0.3l-0.4-0.3l0.1-0.3l0-0.3l0.1-0.3l-0.4-0.2l0.2-0.4l-0.2-0.3l-0.2-0.3l-0.2-0.3l-0.1-0.3
				l-0.1-0.3l0-0.4l-0.3-0.2l-0.1-0.3l-0.4-0.1l-0.2-0.2l-0.1-0.4l-0.4,0l-0.2-0.3l-0.2-0.3l-0.3-0.2l-0.3,0L97.6,2L97.3,2L97,1.9
				l-0.2-0.3l-0.2-0.2l-0.4,0.1l-0.3-0.2l-0.3-0.2L95.3,1L95,1l-0.3-0.1l-0.3,0.2L94.1,1l-0.3-0.2l-0.3,0.3l-0.3-0.1L92.8,1
				l-0.3-0.1l-0.3-0.1l-0.3,0l-0.3-0.1L91.2,1l-0.3,0.1l-0.3-0.2l-0.3-0.1l-0.3,0l-0.3,0.1L89.3,1L89,1.1L88.7,1l-0.3,0.1l-0.3-0.2
				l-0.3-0.1l-0.3,0.3L87.1,1l-0.3-0.1L86.5,1l-0.3-0.1L85.8,1l-0.4-0.2l-0.2,0.3l-0.4,0l-0.2,0.2l-0.1,0.3L84.2,2l0.2,0.4l-0.2,0.3
				L84.5,3l-0.2,0.3l0,0.3L84.5,4l-0.3,0.3l0.1,0.3l-0.1,0.3l0.3,0.3l-0.1,0.3l-0.2,0.3l0.1,0.3l0.1,0.3l-0.2,0.3l0.2,0.3l-0.1,0.3
				l-0.1,0.3l0.1,0.3l0.1,0.3l-0.1,0.3l-0.1,0.3l0.1,0.3l0,0.3L84.3,10l0.1,0.3l-0.2,0.3l0.1,0.3l0.1,0.3l0,0.3L84.3,12l0.2,0.3
				l0,0.3l0,0.3l-0.3,0.3l0.1,0.3l0,0.3l0.2,0.3l0.1,0.3l-0.3,0.3l0.3,0.3l-0.2,0.3l-0.1,0.3l0.2,0.3l0.1,0.3l-0.2,0.3l-0.1,0.3
				l0,0.3l0.3,0.3l0,0.3l-0.2,0.3l0.1,0.3l0.1,0.3l-0.3,0.3l0.3,0.3L84.4,20l-0.1,0.3l0,0.3l0.2,0.3l0,0.3l0,0.3l0,0.3l0,0.3
				l0.1,0.3l-0.3,0.3l0.1,0.3l-0.1,0.3l0.3,0.3l-0.3,0.3l0.3,0.3v0.3l0.3,0.2l0.1,0.4l0.3,0.2l0.3,0.2l0.4-0.3l0.3,0l0.3,0l0.3,0.3
				l0.3-0.2l0.3,0l0.3,0.2l0.3-0.1l0.3-0.1l0.3,0l0.3,0l0.3,0.1l0.3-0.2l0.3,0.1l0.3-0.1l0.3,0l0.3-0.1l0.3,0.2l0.3-0.2l0.3,0.2
				l0.3,0.1l0.3-0.3l0.3,0.1l0.3,0.2l0.3,0l0.3-0.2l0.3,0.1l0.3-0.2l0.3,0l0.3,0.2l0.2-0.4l0.4,0.2l0.3-0.2l0.3-0.1l0.3-0.1l0.2-0.3
				l0.4,0.1l0.2-0.3l0.2-0.3l0.3-0.1l0.4,0l0.1-0.3l0.3-0.1l0.3-0.1l0.1-0.4l0.1-0.3l0.5,0l0-0.4l0.1-0.3l0.4-0.1l0.1-0.3l0.1-0.3
				l-0.1-0.4l0.4-0.2l0.2-0.3l-0.1-0.4l0.4-0.2l-0.2-0.4l0.1-0.3l0.3-0.3l-0.3-0.4l0.4-0.3l0-0.3l-0.2-0.4l-0.3,0l-0.3,0.1l-0.4,0
				l-0.4,0l-0.4,0l-0.4-0.1l-0.4-0.1L98.4,18.2z"/>
		</g>
		<g id="グループ_105" transform="translate(0.558 38.993)">
			<path id="パス_123" class="st0" d="M6,6.9V2.3L4.4,5.7H3.6L2,2.3v4.6H1V0.1h1l2,4.3l2-4.3h1v6.9H6z"/>
			<path id="パス_124" class="st0" d="M13.8,6.2C13.3,6.7,12.6,7,11.9,7c-0.7,0-1.3-0.2-1.8-0.7C9.5,5.6,9.5,4.8,9.5,3.5
				s0-2.1,0.7-2.8C10.6,0.3,11.3,0,11.9,0c0.7,0,1.3,0.2,1.8,0.7c0.7,0.7,0.7,1.4,0.7,2.8S14.4,5.6,13.8,6.2z M13,1.4
				c-0.6-0.6-1.5-0.6-2,0c0,0,0,0,0,0c-0.3,0.4-0.4,0.7-0.4,2.1s0.1,1.8,0.4,2.1c0.6,0.6,1.5,0.6,2,0c0,0,0,0,0,0
				c0.3-0.4,0.4-0.8,0.4-2.1S13.3,1.7,13,1.4L13,1.4z"/>
			<path id="パス_125" class="st0" d="M21.7,6.9V2.3l-1.6,3.3h-0.8l-1.6-3.3v4.6h-1V0.1h1l2,4.3l2-4.3h1v6.9H21.7z"/>
			<path id="パス_126" class="st0" d="M30.6,6.9V2.3L29,5.7h-0.8l-1.6-3.3v4.6h-1V0.1h1l2,4.3l2-4.3h1v6.9H30.6z"/>
			<path id="パス_127" class="st0" d="M37.2,4.1v2.8h-1V4.1l-2-4h1.1l1.4,3l1.4-3h1.1L37.2,4.1z"/>
			<path id="パス_128" class="st0" d="M50.5,6.2l-0.4,0.4L47.4,4l-2.7,2.7l-0.4-0.4L47,3.5l-2.7-2.7l0.4-0.4l2.7,2.7l2.7-2.7
				l0.4,0.4l-2.7,2.7L50.5,6.2z"/>
			<path id="パス_129" class="st0" d="M60.7,6.9v-3h-2.8v3h-1V0.1h1V3h2.8V0.1h1v6.9H60.7z"/>
			<path id="パス_130" class="st0" d="M69.1,6.9l-0.5-1.4h-2.7l-0.5,1.4h-1.1l2.5-6.9h0.8l2.5,6.9H69.1z M67.3,1.6l-1.1,3h2.1
				L67.3,1.6z"/>
			<path id="パス_131" class="st0" d="M76.8,6.9l-3.2-4.8v4.8h-1V0.1h1l3.2,4.8V0.1h1v6.9H76.8z"/>
			<path id="パス_132" class="st0" d="M85.4,6.3c-0.5,0.4-1.1,0.7-1.8,0.6h-2.4V0.1h2.4c0.7,0,1.3,0.2,1.8,0.6
				c0.6,0.8,0.8,1.8,0.7,2.7C86.3,4.4,86,5.5,85.4,6.3z M84.7,1.5C84.4,1.1,84,1,83.6,1h-1.3v5h1.3c0.4,0,0.9-0.1,1.2-0.5
				c0.3-0.6,0.5-1.4,0.4-2.1C85.1,2.5,85.1,1.9,84.7,1.5z"/>
			<path id="パス_133" class="st0" d="M94.2,6.9V2.3l-1.6,3.3h-0.8l-1.6-3.3v4.6h-1V0.1h1l2,4.3l2-4.3h1v6.9H94.2z"/>
			<path id="パス_134" class="st0" d="M102.7,6.9l-0.5-1.4h-2.7l-0.5,1.4h-1.1l2.5-6.9h0.8l2.5,6.9H102.7z M100.9,1.6l-1.1,3h2.1
				L100.9,1.6z"/>
			<path id="パス_135" class="st0" d="M110.3,6.3c-0.5,0.4-1.1,0.7-1.8,0.6h-2.4V0.1h2.4c0.7,0,1.3,0.2,1.8,0.6
				c0.6,0.8,0.8,1.8,0.7,2.7C111.1,4.4,110.9,5.5,110.3,6.3z M109.6,1.5c-0.3-0.3-0.7-0.5-1.2-0.5h-1.3v5h1.3c0.4,0,0.9-0.1,1.2-0.5
				c0.3-0.6,0.5-1.4,0.4-2.1C109.9,2.5,109.9,1.9,109.6,1.5z"/>
			<path id="パス_136" class="st0" d="M113.7,6.9V0.1h4.4V1h-3.3v2h2.8v0.9h-2.8V6h3.3v0.9L113.7,6.9z"/>
			<path id="パス_137" class="st0" d="M128.5,6.2c-1,1-2.7,1-3.7,0c-0.7-0.7-0.7-1.4-0.7-2.8s0-2.1,0.7-2.8
				c0.5-0.5,1.1-0.7,1.8-0.7c1.3-0.1,2.3,0.9,2.5,2.1h-1c-0.1-0.7-0.7-1.2-1.4-1.2c-0.4,0-0.7,0.1-1,0.4c-0.3,0.4-0.4,0.7-0.4,2.1
				s0.1,1.8,0.4,2.1c0.3,0.3,0.6,0.4,1,0.4c0.4,0,0.8-0.2,1.1-0.5c0.2-0.3,0.4-0.7,0.3-1.1V4.1h-1.5V3.2h2.5v1
				C129.2,5,129,5.7,128.5,6.2z"/>
			<path id="パス_138" class="st0" d="M135.8,6.2c-1,1-2.6,1-3.6,0c-0.7-0.7-0.7-1.4-0.7-2.8s0-2.1,0.7-2.8c1-1,2.6-1,3.6,0
				c0.7,0.7,0.7,1.4,0.7,2.8S136.5,5.6,135.8,6.2z M135,1.4c-0.6-0.6-1.5-0.6-2,0c0,0,0,0,0,0c-0.3,0.4-0.4,0.7-0.4,2.1
				s0.1,1.8,0.4,2.1c0.6,0.6,1.5,0.6,2,0c0,0,0,0,0,0c0.3-0.4,0.4-0.8,0.4-2.1S135.4,1.7,135,1.4L135,1.4z"/>
			<path id="パス_139" class="st0" d="M142.9,6.2c-1,1-2.6,1-3.6,0c-0.7-0.7-0.7-1.4-0.7-2.8s0-2.1,0.7-2.8c1-1,2.6-1,3.6,0
				c0.7,0.7,0.7,1.4,0.7,2.8S143.6,5.6,142.9,6.2z M142.1,1.4c-0.6-0.6-1.5-0.6-2,0c0,0,0,0,0,0c-0.3,0.4-0.4,0.7-0.4,2.1
				s0.1,1.8,0.4,2.1c0.6,0.6,1.5,0.6,2,0c0,0,0,0,0,0c0.3-0.4,0.4-0.8,0.4-2.1S142.5,1.7,142.1,1.4L142.1,1.4z"/>
			<path id="パス_140" class="st0" d="M150.2,6.3c-0.5,0.4-1.1,0.7-1.8,0.6H146V0.1h2.4c0.7,0,1.3,0.2,1.8,0.6
				c0.6,0.8,0.9,1.8,0.7,2.7C151.1,4.4,150.8,5.5,150.2,6.3z M149.5,1.5c-0.3-0.3-0.7-0.5-1.2-0.5h-1.3v5h1.3c0.4,0,0.9-0.1,1.2-0.5
				c0.3-0.6,0.5-1.4,0.4-2.1C149.9,2.5,149.9,1.9,149.5,1.5z"/>
			<path id="パス_141" class="st0" d="M155.4,7c-0.9,0.1-1.8-0.3-2.4-0.9l0.7-0.7c0.5,0.5,1.1,0.7,1.8,0.7c0.9,0,1.4-0.4,1.4-1
				c0-0.3-0.1-0.5-0.3-0.7c-0.2-0.2-0.5-0.3-0.8-0.3L155,3.9c-0.5,0-0.9-0.2-1.3-0.5c-0.3-0.3-0.5-0.8-0.5-1.3c0-1.1,0.9-2,2-2
				c0.1,0,0.2,0,0.3,0c0.8,0,1.6,0.2,2.1,0.8l-0.7,0.7c-0.4-0.4-0.9-0.6-1.5-0.5c-0.8,0-1.3,0.5-1.3,1.1c0,0.2,0.1,0.5,0.3,0.6
				c0.2,0.2,0.5,0.3,0.8,0.3L156,3c0.5,0,0.9,0.2,1.3,0.5c0.4,0.4,0.6,0.9,0.6,1.4C157.8,6.2,156.8,7,155.4,7z"/>
		</g>
	</g>
	<g id="グループ_110" transform="translate(44.09)">
		<g id="グループ_109">
			<g id="グループ_108">
				<g id="グループ_107">
					<path id="パス_142" class="st1" d="M68.1,100.6c-0.2-1.2-0.7-2.3-1.6-3.1c-1.5,0.2-2.8,0.7-4.1,1.5c-1.1,0.6-2.3,1.2-3.5,1.7
						c-1.4,0.5-3,1-4.5,1.4c-1.4,0.4-2.7,0.8-4,1.2c-4.1,1.5-8.4,2.2-12.8,2c-5.3-0.2-10.4-2-14.7-5.1l-0.2-0.1l-0.2-0.2
						c-0.4-0.4-0.8-0.8-1.2-1.2c-2.1-1.7-3.4-4.2-3.6-6.8c-0.1-0.4-0.3-0.8-0.5-1.2c-0.2-0.4-0.3-0.7-0.5-1.1l-0.1-0.4
						c-0.3-1.5-0.6-3.1-0.8-4.6c-0.5-6,0.6-9.3,4.7-13.5c5-5.1,11.5-7,17.3-8.4l0.4-0.1l0.3,0c0.2,0,0.5-0.1,0.7-0.1
						c0.4-0.1,0.7-0.1,1-0.1c1.2-0.3,2.3-0.9,3.3-1.8l0.1-0.1c0.2-0.1,0.3-0.2,0.5-0.3l0.1,0c0-0.2,0.1-0.4,0.1-0.6
						c0.1-0.7,0.2-1.4,0.2-2.1c0-0.3,0-0.5,0.1-0.8c-0.3-0.3-0.8-0.7-1.3-1.1c-0.2-0.2-0.5-0.4-0.7-0.6c-0.6-0.1-1-0.3-1.4-0.4
						c-0.6-0.2-1.2-0.3-1.8-0.4c-0.9-0.1-1.8-0.1-2.7-0.1c-3.3-0.2-6.5-1.2-9.3-2.8c-0.8-0.5-1.6-1-2.4-1.5c-0.7-0.4-1.3-0.8-2-1.2
						c-2.5-1.6-4-3.9-5.4-6.1l-0.3-0.5c-2.5-3.8-2.4-6.5-3.3-10.8c-0.5-2.7,1.4-7.7,3.5-10.1c1.3-1.4,2.6-2.6,4.1-3.8
						c1-0.8,1.9-1.6,2.8-2.4c2.3-2.5,5.7-3.7,9.1-3.3c1.2,0.1,2.4,0.2,3.7,0.2c0.5,0,1,0,1.5,0c2.4,0.1,4.7,1,6.5,2.7
						c1.1,0.9,2.4,1.6,3.8,2c1.8,0.6,3.5,1.4,5,2.5c0.4,0.1,0.7,0.1,1.1,0.2c0.2,0,0.4,0,0.6,0.1c1.4,0,2.7,0.4,3.9,1.1
						c0.7-0.8,1.4-1.7,1.9-2.6c0.2-0.4,0.5-0.8,0.7-1.2c0.4-0.5,0.8-1,1.2-1.4c0.1-0.1,0.2-0.2,0.3-0.3c0-0.7-0.1-1.4-0.2-2.2
						c-0.1-0.7-0.2-1.5-0.3-2.3c0,0,0-0.1,0-0.1c-0.3-0.3-0.6-0.5-1-0.7C62,9.5,61.6,9.3,61.1,9c-0.1-0.1-0.2-0.2-0.4-0.2
						c-0.9-0.5-1.6-1.2-2.1-2.1c-0.6-1.1-1.6-2-2.7-2.5c-1.6-0.9-3.2-1.5-5-1.8c-0.9-0.2-1.8-0.4-2.7-0.7c-0.4-0.1-0.9-0.3-1.3-0.4
						c-1.7-0.6-3.4-1-5.1-1.2c-0.7,0-1.3,0-2,0.1c-1.7,0.3-3.4,0.3-5.1-0.2c-0.1,0-0.3,0.1-0.4,0.1c-0.6,0.2-1.2,0.3-1.8,0.4
						c-2,0.1-3.9,0.4-5.8,0.8c-2.2,0.5-4.3,1.3-6.3,2.2c-0.8,0.3-1.5,0.6-2.3,1c-0.4,0.2-0.8,0.3-1.2,0.5c-0.8,0.2-1.6,0.6-2.2,1.1
						c-0.8,0.9-1.7,1.8-2.7,2.6c-1.4,1.1-2.6,2.5-3.5,4c-0.6,1.2-1.4,2.3-2.2,3.4c-0.5,0.7-1,1.4-1.4,2.1c-0.2,0.3-0.4,0.7-0.6,1
						c-0.8,1.2-1.5,2.5-1.9,4c-0.8,3.4-1.3,6.9-1.4,10.4c0,0.4,0,0.7-0.1,1.1c-0.2,1.3-0.1,2.7,0.3,4c0.6,1.5,1.1,3,1.5,4.5
						C3.2,44,3.6,45.1,4,46.2c0.4,1.4,1.3,2.7,2.4,3.7c1.1,1,1.9,2.3,2.2,3.8c0.2,0.6,0.2,0.6,0.6,0.8c0.4,0.2,0.9,0.5,1.3,0.8
						c0.3,0.2,0.6,0.4,1,0.6l3.8,2l-3.6,2.3c-0.3,0.2-0.5,0.4-0.7,0.5c-0.5,0.3-0.9,0.6-1.5,0.9c-0.3,0.1-0.6,0.3-0.9,0.6
						C8,62.8,7.5,63.1,7,63.5c-0.9,0.6-1.3,1-1.8,3.3L5.2,67c-0.2,0.5-0.3,1-0.3,1.5c0,1.1-0.4,2.2-1.1,3.1c0,0.1,0,0.1,0,0.2
						c0.3,1.3-0.1,2.6-0.9,3.6c-0.9,0.8-1.1,2-1.2,3.8c-0.1,1.5-0.3,3.1-0.4,4.6l-0.1,1.4c-0.3,1.7-0.2,3.4,0.3,5
						c0.1,0.2,0.2,0.4,0.2,0.6c0.4,0.9,0.7,1.8,0.9,2.8c0.3,1.7,1,3.3,2.1,4.6c1.1,1.5,2.1,3.1,3.1,4.6c1.4,2,2.7,4.1,4.1,6.1
						c0,0,0,0,0,0c4.1,1.3,8,3.2,11.6,5.7c3.1,1.9,6.7,2.9,10.3,3c1.3,0.1,2.6,0,3.8-0.4c1.7-0.7,3.5-0.9,5.3-0.8
						c3.1,0.1,6.4,0,9.5-1.6c0.7-0.3,1.5-0.6,2.3-0.8c0.2,0,0.3-0.1,0.5-0.1c0.8-0.2,1.6-0.4,2.5-0.5c1.7-0.3,2.7-0.5,3.5-1.4
						c1.3-1.3,2.9-2.3,4.6-3c0.7-0.3,1.4-0.7,2-1.1c0.8-0.5,0.8-0.6,0.6-1.5C68.1,104.4,68,102.5,68.1,100.6z"/>
				</g>
			</g>
		</g>
		<path id="パス_143" class="st1" d="M95.6,104.2c-1,0.3-1.4,1.3-2,2c-0.7,0.5-1.6,0.8-2.4,0.6c-0.9-0.3-1.8-0.4-2.8-0.3
			c-0.6,0.1-1.2,0.4-1.8,0.7c-0.5,0.4-1,0.9-1.3,1.5c-0.4,0.5-0.1,1.3-0.2,1.9c-0.1,0.6-0.1,1.2,0,1.7c0.1,0.3,0.4,0.5,0.6,0.8
			c0.3,0.5,0.7,0.9,1.1,1.2c0.4,0.4,0.9,0.7,1.4,1c0.5,0.2,1,0.8,1.6,0.9c0.6,0.2,1.2,0.3,1.8,0.4c0.6,0,1.1-0.9,1.7-1
			c0.6-0.1,1.4,0.6,2,0.4s0.9-1,1.5-1.2c0.6-0.2,1.1-0.5,1.6-0.8c0.6-0.3,1.1-0.6,1.6-0.9c0.4-0.4,0.1-1.5,0.4-2
			c0.3-0.5,1.6-0.6,1.7-1.2c0.2-0.6-0.2-1.3-0.2-1.9c0-0.3-0.3-0.6-0.5-0.9c-0.2-0.6-0.5-1.1-0.9-1.5c-0.4-0.4-1-0.7-1.5-0.8
			c-0.5-0.2-1.1-0.4-1.7-0.4C96.9,104.3,96.2,104,95.6,104.2z"/>
	</g>
</g>
</svg>
