<?xml version="1.0" encoding="utf-8"?>
<!-- Generator: Adobe Illustrator 24.2.0, SVG Export Plug-In . SVG Version: 6.00 Build 0)  -->
<svg version="1.1" id="レイヤー_1" xmlns="http://www.w3.org/2000/svg" xmlns:xlink="http://www.w3.org/1999/xlink" x="0px"
	 y="0px" viewBox="0 0 294 68" style="enable-background:new 0 0 294 68;" xml:space="preserve">
<style type="text/css">
	.st0{fill:#FFFFFF;}
</style>
<g id="グループ_1153" transform="translate(-820.653 -411.95)">
	<path id="パス_2138" class="st0" d="M828.9,430c-0.2,0.6-0.5,1.3-0.8,1.8c-0.4,0.8-1.4,2.6-2.4,2.6c-0.6,0-0.9-0.5-0.9-1.1
		c0-2.1,2.8-3.7,3.7-3.7C828.7,429.6,828.9,429.8,828.9,430C828.9,430,828.9,430,828.9,430z M836.1,415.2c-0.4,0-0.7,0.2-1.1,0.4
		c-2.5,1.1-5.1,1.9-7.8,2.4c-0.6,0.1-1.1,0.1-1.1,0.5s1,3.2,2,3.2c0.5-0.1,0.9-0.2,1.3-0.4c1.1-0.4,3.9-1.5,4-1.5
		c0.2,0,0.4,0.1,0.4,0.3c0,0,0,0,0,0c0,0.2-0.1,0.3-0.2,0.5c-0.8,1.5-1.5,3.1-2.2,4.6c-0.2,0.4-0.4,0.8-1.1,0.9
		c-0.7,0.1-1.3,0.2-2,0.3c-3.3,0.7-6.6,3.5-6.6,7c-0.1,2.3,1.6,4.2,3.9,4.3c0,0,0.1,0,0.1,0c1.6,0,3.1-0.9,3.8-2.3
		c1-1.6,1.9-3.3,2.7-5.1c0.1-0.4,0.5-0.7,1-0.7c1.1,0.2,2.2,0.5,3.3,0.9c1.3,0.4,1.8,0.7,1.8,1.3c0,0.7-2.7,4.9-6.2,6.8
		c-0.2,0.1-0.6,0.3-0.6,0.6c0,0.6,2.3,2.1,2.8,2.1c0.5,0,2.2-1.5,2.6-1.8c1.8-1.7,3.3-3.6,4.4-5.7c0.2-0.3,0.3-0.6,0.7-0.6
		c1,0.4,1.9,1,2.8,1.8c0.3,0.3,0.8,0.7,1,0.7c0.7,0,2.4-2.7,2.4-3.3c0-0.4-0.4-0.6-0.7-0.7c-0.5-0.2-2.5-1.3-3.2-1.7
		c-0.4-0.2-0.8-0.5-0.8-1.1c0-0.2,0.1-0.5,0.1-0.7c0.3-1.1,0.5-2.1,0.7-3.2c0-0.3,0.1-0.6,0.2-0.9c0.3-0.3,0.5-0.5,0.5-0.7
		c0-0.3-0.4-0.4-0.6-0.4c-0.4-0.1-3.2-0.7-3.4-0.7c-0.4,0-0.5,0.3-0.5,0.6c0,0.2,0,0.3,0,0.5c-0.1,1.2-0.2,2.4-0.5,3.6
		c-0.1,0.4-0.3,0.7-0.8,0.7c-0.2,0-0.4-0.1-0.6-0.2c-0.8-0.3-1.5-0.6-2.3-0.8c-1.2-0.3-1.9-0.3-1.9-1c0-0.2,0.1-0.4,0.2-0.6
		c0.9-1.8,2.6-5.4,3.9-6.7c0.2-0.1,0.3-0.3,0.3-0.6C839.2,417.3,836.8,415.2,836.1,415.2L836.1,415.2z M871.7,420
		c-0.5,0-0.6,0.5-0.6,1.5c0,0.2,0,0.5,0,0.7c-0.1,2.5-0.4,5-0.8,7.4c-0.2,1.1-0.5,2.2-0.8,3.3c-0.2,0.4-0.3,0.8-0.3,1.2
		c0,1,2.3,1.3,2.6,1.3c0.5,0,0.7-0.4,1-0.7c2.1-2.7,5.7-5.7,9.3-5.7c2.2,0,4.1,1.3,4.1,3.6c0,2.9-2.5,3.9-4.9,4.6
		c-1.5,0.4-3,0.6-4.5,0.7c-0.4,0-0.8,0.1-0.8,0.6c0.1,0.8,0.3,1.5,0.6,2.2c0.3,0.6,0.5,1,1.3,1c1.5-0.2,3-0.5,4.4-0.9
		c4.1-1.2,7.7-3.3,7.7-8.1c0-4.3-3.2-7.1-7.4-7.1c-3.2,0-5.3,1.4-7.8,3.1c-0.1,0.1-0.3,0.2-0.4,0.2c-0.2,0-0.3-0.2-0.3-0.4
		c0-0.2,0.1-0.5,0.1-0.7c0.3-1.6,0.5-3.2,0.8-4.7c0.1-0.7,0.2-1,0.7-1.3c0.1-0.1,0.3-0.2,0.3-0.4c0-0.3-0.4-0.4-0.6-0.5
		C874,420.5,872.8,420.2,871.7,420z M873.8,416.1c0,0.4,0.4,0.5,0.8,0.7c1.5,0.8,2.9,1.8,4.3,2.9c0.3,0.2,0.7,0.7,1.1,0.7
		c0.7,0,2.1-2.1,2.1-2.7c0-0.6-2-1.7-2.5-2c-0.6-0.4-3.4-2.1-3.9-2.1C874.9,413.6,873.8,415.6,873.8,416.1z M927.2,421.1
		c0,0.2,0.1,0.4,0.3,0.5c3.2,2.5,4.6,5.7,5,9.7c0.1,0.8,0,1.3,1.1,1.3c0.6,0,1.3-0.1,1.9-0.3c0.6-0.2,0.9-0.3,0.9-1
		c-0.2-2.5-0.9-4.9-2-7.1c-1.6-3.1-4.5-5.3-5.2-5.3C928.5,418.9,927.2,420.4,927.2,421.1L927.2,421.1z M911.8,418.8
		c-0.2,0-0.4,0.1-0.5,0.4c0,0,0,0,0,0c-0.1,0.3-0.2,4.6-0.2,5.2c0,3.6,0.3,7.9,2,11.1c1.1,2.1,3.1,4.4,5.6,4.4c1.6,0,2.7-1,3.6-2.1
		c0.5-0.5,2-2.3,2-3c0-0.6-1.7-2-2.4-2c-0.4,0-0.7,0.5-0.9,0.9c-0.4,0.7-1.4,2.2-2.3,2.2c-1.2,0-2.3-2-2.7-3
		c-0.8-2.3-1.2-4.7-1.1-7.1c0-1.2,0.1-2.4,0.3-3.6c0.1-0.6,0.1-1.3,0.6-1.6c0.2-0.2,0.3-0.2,0.3-0.4c0-0.3-0.5-0.4-0.7-0.5
		C914.8,419.5,912.3,418.8,911.8,418.8L911.8,418.8z M965.9,420.5c0.4,0,0.5,0.3,0.5,0.6c-0.1,2.2-0.5,4.5-1.1,6.6
		c-1,3.5-2.9,7.3-4.6,7.3c-1.7,0-2.2-3.2-2.2-4.4c-0.1-4.2,2.3-8,6.1-9.8C965.1,420.7,965.5,420.6,965.9,420.5L965.9,420.5z
		 M969.2,416.5c-7.7-0.1-14.1,6.2-14.1,13.9c0,0.1,0,0.3,0,0.4c0,1.7,0.3,3.3,1,4.8c0.8,1.8,2.6,3.1,4.6,3.2
		c1.8-0.2,3.5-1.1,4.5-2.6c3.3-3.9,4.5-10,4.8-14.9c0-0.6,0-1.3,0.8-1.3c0.4,0.1,0.9,0.2,1.3,0.3c3.4,1.2,5.6,4.5,5.4,8.1
		c0,4.9-3.5,7.8-8,8.8c-0.3,0.1-0.8,0.1-0.8,0.5c0,0.7,1.4,2.9,2.3,2.9c1.3-0.3,2.5-0.7,3.7-1.4c4.1-2.1,6.7-6.4,6.6-11
		c0-3.1-1.2-6.2-3.4-8.4C975.6,417.6,972.4,416.4,969.2,416.5z M1011.6,435.2c-0.5,0-2.1,2-2.1,2.5c0,0.7,1.1,1.6,1.7,1.9
		c1.9,1.3,5,1.5,7.3,1.5c1.8,0,3.5-0.2,5.3-0.4c0.4-0.2,0.4-1,0.4-1.7c0-1.4,0-2.1-0.6-2.1c-0.1,0-0.2,0-0.3,0.1
		c-1.6,0.5-3.2,0.7-4.8,0.7c-2.1,0-4.7-0.3-6.2-2C1012,435.5,1011.8,435.2,1011.6,435.2z M1014.1,427.4c0,0.6,0.2,0.7,0.9,0.7
		c0.4,0,0.8,0,1.3,0c1.8,0,3.7,0.2,5.4,0.9c0.2,0.1,0.5,0.2,0.7,0.2c0.3,0,0.5-0.1,0.6-0.4c0.3-0.8,0.5-1.6,0.6-2.4
		c0-0.3-0.2-0.6-0.5-0.7c-2.2-0.6-4.5-1-6.8-1C1014.7,424.7,1014.1,424.5,1014.1,427.4z M1009.7,412.9c-0.3,0-0.3,0.3-0.4,0.9
		c-0.2,2.1-0.6,4.2-1.3,6.2c-0.3,0.5-0.8,0.5-3,0.5c-1.5,0-2.9-0.1-3.2-0.1c-0.4,0-0.5,0.2-0.5,0.6c0,0.8,0.1,1.7,0.3,2.5
		c0.2,0.6,0.7,0.6,1.4,0.6c1.1,0,2.5-0.2,3-0.2c0.3,0,0.6,0.2,0.6,0.5c-0.1,0.3-0.2,0.6-0.3,0.9c-1.3,3.6-3.9,9.5-6,12.6
		c-0.3,0.3-0.5,0.7-0.6,1.1c0,0.7,2.3,1.8,2.9,1.8c0.5,0,0.8-0.5,1.2-1.3c2.5-4.8,4.6-9.8,6.3-15c0.3-1,0.4-1.1,1.4-1.3
		c1.9-0.3,3.7-0.8,5.6-1.3c0.6-0.2,0.6-0.6,0.6-1.2c0-0.5,0-2.6-0.7-2.6c-0.2,0-0.5,0.1-0.7,0.2c-1.3,0.5-2.6,1-3.9,1.3
		c-0.3,0-0.5-0.2-0.5-0.5c0,0,0,0,0,0c0-0.2,0.7-2.7,0.8-3c0.2-0.7,0.3-0.9,0.8-1.2c0.1-0.1,0.3-0.2,0.3-0.3c0-0.4-1-0.6-1.3-0.7
		C1012.2,413.6,1010,412.9,1009.7,412.9z M1055.8,423c0.2,0,0.4,0.1,0.5,0.4c0,0,0,0.1,0,0.1c0,1-1.7,6.6-2.6,6.6
		c-0.3,0-0.5-0.4-0.8-1.1c-0.6-1.2-1-2.4-1.4-3.7C1051.5,424.1,1055,423,1055.8,423z M1051.3,433.4c0,0.8-1.9,2-2.9,2
		c-1.2,0-1.3-1.6-1.3-2.5c0-2.2,1.1-4.7,1.6-4.7c0.2,0,0.4,0.3,0.5,0.5c0.6,1.4,1.3,2.8,1.9,4.2
		C1051.2,433,1051.3,433.2,1051.3,433.4L1051.3,433.4z M1057.5,414.5c-0.4,0-0.5,0.3-0.5,0.6c0,0.5,0,1,0,1.5c0,2.6-0.1,2.8-1.2,3
		c-1.6,0.2-3.1,0.7-4.5,1.5c-0.2,0.1-0.4,0.2-0.6,0.2c-0.4,0-0.5-0.2-0.6-0.5c-0.2-0.8-0.5-2.1-0.6-2.9c-0.1-0.4-0.1-1-0.6-1
		c-0.9,0.2-1.8,0.4-2.7,0.7c-0.3,0.1-0.5,0.2-0.5,0.5c0,0.2,0,0.3,0.1,0.5c0.5,1.5,0.8,2.9,1.3,4.4c0.1,0.3,0.2,0.5,0.2,0.8
		c0,0.3-0.1,0.6-0.4,0.8c-2.1,2.3-3.2,5.3-3.2,8.4c0,2.6,1.1,5.9,4.2,5.9c3,0,5.8-2.3,7.5-4.7c2.2-3.1,3.7-6.6,4.4-10.3
		c0.1-0.4,0.3-0.8,0.7-0.8c3.1,0.5,5.4,3.1,5.4,6.2c0,4.6-4,7.5-8,8.8c-0.5,0.2-1.1,0.3-1.1,0.7c0,0.7,1.4,2.8,2.1,2.8
		c0.6-0.1,1.2-0.3,1.7-0.6c4.9-2.3,8.8-5.8,8.8-11.6c0-4.9-3.2-8.3-7.8-9.5c-0.5-0.1-1.1-0.2-1.1-0.9c0-0.1,0-0.2,0-0.3
		c0-0.8,0.2-1.5,0.6-2.2c0.1-0.2,0.2-0.3,0.2-0.6c0-0.3-0.3-0.5-0.6-0.6C1059.7,415,1058.6,414.7,1057.5,414.5L1057.5,414.5z
		 M1099.1,432.9c-0.6,0-1.8,2.4-1.8,2.9c0,0.5,2.3,3.4,7.8,3.4c1.4,0,7.1-0.5,8.1-1c0.4-0.2,0.4-0.8,0.4-1.3c0-1.7-0.1-2.5-0.6-2.5
		c-0.2,0-0.5,0.1-0.7,0.1c-2.4,0.7-4.9,1.1-7.5,1.1c-2,0.2-4-0.7-5.2-2.4C1099.5,433,1099.3,432.9,1099.1,432.9L1099.1,432.9z
		 M1099.9,418.2c-0.5,0-0.7,0.5-0.7,2.1c0,0.4,0,1.1,0.3,1.3c0.7,0.5,4.9,0.7,5.9,0.7c1.9,0,3.8-0.2,5.7-0.5
		c0.6-0.1,0.6-0.4,0.6-1.1c0-0.6-0.1-1.2-0.1-1.8c-0.1-0.4-0.2-0.8-0.7-0.8c-0.2,0-0.4,0-0.6,0.1c-1.7,0.4-3.4,0.7-5.2,0.7
		c-1.5,0-3-0.2-4.5-0.5C1100.5,418.2,1100.2,418.2,1099.9,418.2L1099.9,418.2z M1091.7,415.5c-0.4,0-0.4,0.4-0.5,0.7
		c-0.1,0.6-0.3,1.1-0.4,1.7c-1.1,3.7-1.7,7.4-1.7,11.3c-0.1,3.6,0.6,7.2,2.1,10.4c0.4,0.9,0.8,1.7,1.4,1.7c0.7,0,2.7-0.8,2.7-1.7
		c0-0.2,0-0.3-0.1-0.5c0-0.3-0.1-1.1-0.1-1.4c0-1.5,1.4-4.6,1.4-4.9c0-0.4-0.9-1.1-1.2-1.1c-0.3,0-0.5,0.4-0.7,0.8
		c-0.1,0.3-0.6,1.3-0.9,1.3c-0.8,0-0.9-4.1-0.9-4.8c0-3.3,0.7-6.6,1.9-9.7c0.3-0.9,0.5-1.2,1.1-1.5c0.3-0.2,0.5-0.2,0.5-0.4
		c0-0.3-0.4-0.5-0.7-0.6C1094.9,416.7,1092,415.5,1091.7,415.5L1091.7,415.5z"/>
	<path id="パス_2172" class="st0" d="M832.7,474.9c0,1.1-0.4,2.1-1.2,2.9c-0.7,0.8-1.8,1.2-2.9,1.2c-1.1,0-2.1-0.4-2.9-1.2
		c-0.8-0.8-1.2-1.8-1.2-2.9v-5c0-0.2,0.1-0.4,0.2-0.5c0.1-0.1,0.3-0.2,0.5-0.2c0.2,0,0.4,0.1,0.6,0.2c0.2,0.1,0.2,0.3,0.2,0.5v5
		c0,0.7,0.3,1.3,0.7,1.8c0.5,0.5,1.1,0.7,1.8,0.7c0.7,0,1.3-0.3,1.8-0.7c0.5-0.5,0.7-1.1,0.7-1.8v-5c0-0.2,0.1-0.4,0.2-0.5
		c0.1-0.1,0.3-0.2,0.6-0.2c0.2,0,0.4,0.1,0.5,0.2c0.1,0.1,0.2,0.3,0.2,0.5V474.9z M838.7,478.8c-0.1,0.1-0.3,0.2-0.5,0.2
		c-0.2,0-0.4-0.1-0.5-0.2c-0.1-0.1-0.2-0.3-0.2-0.5v-8.3c0-0.2,0.1-0.4,0.2-0.5c0.1-0.1,0.3-0.2,0.5-0.2h4.6c0.2,0,0.4,0.1,0.5,0.2
		c0.1,0.1,0.2,0.3,0.2,0.5c0,0.2-0.1,0.4-0.2,0.5c-0.1,0.1-0.3,0.2-0.5,0.2h-3.8v2.6h3.3c0.2,0,0.4,0.1,0.5,0.2
		c0.1,0.1,0.2,0.3,0.2,0.5c0,0.2-0.1,0.4-0.2,0.5c-0.1,0.2-0.3,0.2-0.5,0.2h-3.3v3.4C838.9,478.4,838.8,478.6,838.7,478.8z
		 M855.4,474.9c0,1.1-0.4,2.1-1.2,2.9c-0.7,0.8-1.8,1.2-2.9,1.2c-1.1,0-2.1-0.4-2.9-1.2c-0.8-0.8-1.2-1.8-1.2-2.9v-5
		c0-0.2,0.1-0.4,0.2-0.5c0.1-0.1,0.3-0.2,0.5-0.2c0.2,0,0.4,0.1,0.6,0.2c0.2,0.1,0.2,0.3,0.2,0.5v5c0,0.7,0.3,1.3,0.7,1.8
		c0.5,0.5,1.1,0.7,1.8,0.7c0.7,0,1.3-0.3,1.8-0.7c0.5-0.5,0.7-1.1,0.7-1.8v-5c0-0.2,0.1-0.4,0.2-0.5c0.1-0.1,0.3-0.2,0.6-0.2
		c0.2,0,0.4,0.1,0.5,0.2c0.1,0.1,0.2,0.3,0.2,0.5L855.4,474.9z M861.4,478.8c-0.1,0.1-0.3,0.2-0.5,0.2c-0.2,0-0.4-0.1-0.5-0.2
		c-0.1-0.1-0.2-0.3-0.2-0.5v-8.3c0-0.2,0.1-0.4,0.2-0.5c0.1-0.1,0.3-0.2,0.5-0.2h4.6c0.2,0,0.4,0.1,0.5,0.2c0.1,0.1,0.2,0.3,0.2,0.5
		c0,0.2-0.1,0.4-0.2,0.5c-0.1,0.1-0.3,0.2-0.5,0.2h-3.8v2.6h3.3c0.2,0,0.4,0.1,0.5,0.2c0.1,0.1,0.2,0.3,0.2,0.5
		c0,0.2-0.1,0.4-0.2,0.5c-0.1,0.2-0.3,0.2-0.5,0.2h-3.3v3.4C861.6,478.4,861.5,478.6,861.4,478.8z M878,474.9c0,1.1-0.4,2.1-1.2,2.9
		c-0.7,0.8-1.8,1.2-2.9,1.2c-1.1,0-2.1-0.4-2.9-1.2c-0.8-0.7-1.2-1.8-1.2-2.9v-5c0-0.2,0.1-0.4,0.2-0.5c0.1-0.1,0.3-0.2,0.5-0.2
		c0.2,0,0.4,0.1,0.6,0.2c0.2,0.1,0.2,0.3,0.2,0.5v5c0,0.7,0.3,1.3,0.7,1.8c0.5,0.5,1.1,0.7,1.8,0.7c0.7,0,1.3-0.3,1.8-0.7
		c0.5-0.5,0.7-1.1,0.7-1.8v-5c0-0.2,0.1-0.4,0.2-0.5c0.1-0.1,0.3-0.2,0.6-0.2c0.2,0,0.4,0.1,0.5,0.2c0.1,0.1,0.2,0.3,0.2,0.5
		L878,474.9z M891.6,469.2c0.8,0,1.6,0.3,2.1,0.9c0.6,0.6,0.9,1.3,0.9,2.1c0,0.8-0.3,1.6-0.9,2.1c-0.6,0.6-1.3,0.9-2.1,0.9h-1.7v3
		c0,0.2-0.1,0.4-0.2,0.5c-0.1,0.1-0.3,0.2-0.6,0.2c-0.2,0-0.4-0.1-0.5-0.2c-0.1-0.1-0.2-0.3-0.2-0.5v-8.3c0-0.2,0.1-0.4,0.2-0.5
		c0.1-0.1,0.3-0.2,0.5-0.2H891.6z M889.9,470.7v2.9h1.7c0.4,0,0.8-0.1,1-0.4c0.3-0.3,0.4-0.6,0.4-1c0-0.4-0.2-0.8-0.4-1
		c-0.3-0.3-0.6-0.4-1-0.4H889.9z M902.9,474.5c0.6,0.5,1,1.2,1,2c0,0.3,0,0.6,0.1,0.8c0.2,0.1,0.4,0.2,0.5,0.5
		c0.1,0.2,0,0.5-0.1,0.7c-0.2,0.2-0.4,0.3-0.7,0.3h0c-0.4,0-0.8-0.3-1-0.6c-0.2-0.5-0.3-1.1-0.3-1.7c0-0.4-0.2-0.8-0.6-1
		c-0.2-0.2-0.5-0.3-0.8-0.3h-1.7v3c0,0.2-0.1,0.4-0.2,0.5c-0.1,0.1-0.3,0.2-0.5,0.2c-0.2,0-0.4-0.1-0.5-0.2
		c-0.1-0.1-0.2-0.3-0.2-0.5v-8.3c0-0.2,0.1-0.4,0.2-0.5c0.1-0.1,0.3-0.2,0.5-0.2h2.5c0.8,0,1.6,0.3,2.1,0.9c0.6,0.6,0.9,1.4,0.9,2.2
		C903.9,473.1,903.5,473.9,902.9,474.5z M901,473.6c0.4,0,0.8-0.1,1-0.4c0.3-0.3,0.4-0.6,0.4-1c0-0.4-0.1-0.8-0.4-1
		c-0.3-0.3-0.6-0.4-1-0.4h-1.7v2.9H901z M909,477.5c-0.9-1-1.4-2.2-1.4-3.6c0-1.3,0.5-2.6,1.4-3.6c0.9-1,2.1-1.5,3.4-1.5
		c1.3,0,2.5,0.5,3.4,1.5c0.9,1,1.4,2.2,1.4,3.5c0,1.3-0.5,2.6-1.4,3.5c-0.4,0.5-0.9,0.8-1.5,1.1c-0.6,0.3-1.2,0.4-1.8,0.4
		C911.1,479,909.8,478.5,909,477.5L909,477.5z M909.2,473.9c0,0.9,0.3,1.8,0.9,2.4c0.6,0.6,1.4,1,2.3,1c0.9,0,1.7-0.4,2.3-1
		c0.6-0.7,0.9-1.5,0.9-2.4c0-0.9-0.3-1.8-0.9-2.4c-0.6-0.7-1.4-1-2.3-1c-0.9,0-1.7,0.4-2.3,1C909.5,472.2,909.2,473,909.2,473.9
		L909.2,473.9z M920.6,476.6c-0.1-0.2,0-0.4,0-0.6c0.1-0.2,0.3-0.3,0.4-0.4c0.2-0.1,0.4,0,0.6,0c0.2,0.1,0.3,0.3,0.4,0.4
		c0.1,0.4,0.4,0.7,0.7,1c0.4,0.3,0.8,0.4,1.2,0.4c0.5,0,1-0.2,1.3-0.6c0.4-0.4,0.6-0.8,0.6-1.4v-5.6c0-0.2,0.1-0.4,0.2-0.5
		c0.1-0.1,0.3-0.2,0.6-0.2c0.2,0,0.4,0.1,0.5,0.2c0.1,0.1,0.2,0.3,0.2,0.5v5.6c0,0.9-0.4,1.8-1,2.5c-0.6,0.7-1.5,1-2.5,1
		c-0.7,0-1.5-0.2-2.1-0.7C921.2,477.9,920.8,477.3,920.6,476.6L920.6,476.6z M931.8,479c-0.2,0-0.4-0.1-0.5-0.2
		c-0.1-0.1-0.2-0.3-0.2-0.5v-8.3c0-0.2,0.1-0.4,0.2-0.5c0.1-0.1,0.3-0.2,0.5-0.2h4.6c0.2,0,0.4,0.1,0.5,0.2c0.2,0.1,0.2,0.3,0.2,0.5
		c0,0.2-0.1,0.4-0.2,0.6c-0.1,0.1-0.3,0.2-0.5,0.2h-3.8v2.6h3.3c0.2,0,0.4,0.1,0.5,0.2c0.1,0.1,0.2,0.3,0.2,0.5
		c0,0.2-0.1,0.4-0.2,0.5c-0.1,0.2-0.3,0.2-0.5,0.2h-3.3v2.6h3.8c0.2,0,0.4,0.1,0.5,0.2c0.1,0.1,0.2,0.3,0.2,0.5
		c0,0.2-0.1,0.4-0.2,0.5c-0.1,0.1-0.3,0.2-0.5,0.2H931.8L931.8,479L931.8,479z M942.9,471.5c-0.7,0.6-1,1.5-1,2.5
		c0,0.9,0.4,1.8,1,2.4c0.6,0.6,1.5,1,2.4,1c0.8,0,1.7-0.2,2.3-0.8c0.2-0.1,0.4-0.2,0.6-0.1c0.2,0,0.4,0.1,0.5,0.3
		c0.1,0.2,0.2,0.4,0.2,0.6c0,0.2-0.1,0.4-0.3,0.5c-0.9,0.7-2.1,1.1-3.2,1.1c-1.4,0-2.7-0.5-3.6-1.5c-1-0.9-1.5-2.2-1.5-3.6
		c0-1.3,0.5-2.6,1.5-3.5c1-1,2.3-1.5,3.6-1.5c1.2,0,2.3,0.4,3.2,1.1c0.2,0.1,0.3,0.3,0.3,0.5c0,0.2,0,0.4-0.2,0.6
		c-0.1,0.2-0.3,0.3-0.5,0.3c-0.2,0-0.4,0-0.6-0.2c-0.7-0.5-1.5-0.8-2.3-0.8C944.5,470.5,943.6,470.9,942.9,471.5z M959.5,469.4
		c0.1,0.1,0.2,0.3,0.2,0.5c0,0.2-0.1,0.4-0.2,0.6c-0.1,0.1-0.3,0.2-0.5,0.2h-2.2v7.5c0,0.2-0.1,0.4-0.2,0.5
		c-0.1,0.1-0.3,0.2-0.6,0.2c-0.2,0-0.4-0.1-0.5-0.2c-0.1-0.1-0.2-0.3-0.2-0.5v-7.5h-2.2c-0.2,0-0.4-0.1-0.5-0.2
		c-0.1-0.1-0.2-0.3-0.2-0.6c0-0.2,0.1-0.4,0.2-0.5c0.1-0.1,0.3-0.2,0.5-0.2h6C959.1,469.2,959.3,469.3,959.5,469.4L959.5,469.4z"/>
</g>
</svg>
