<?xml version="1.0" encoding="utf-8"?>
<!-- Generator: Adobe Illustrator 24.2.0, SVG Export Plug-In . SVG Version: 6.00 Build 0)  -->
<svg version="1.1" id="レイヤー_1" xmlns="http://www.w3.org/2000/svg" xmlns:xlink="http://www.w3.org/1999/xlink" x="0px"
	 y="0px" viewBox="0 0 49 36" style="enable-background:new 0 0 49 36;" xml:space="preserve">
<style type="text/css">
	.st0{fill:#1A1311;}
</style>
<path id="前面オブジェクトで型抜き_1" class="st0" d="M45.2,35.1H3.5c-0.4,0-0.8-0.2-1.1-0.5c-0.7-0.6-1.6-2.6-1.8-5.5
	c-0.1-3.8,1.1-7.4,3.4-10.4c1.5-2,3.3-3.8,5.4-5.1c1.8-1.1,3.7-2.1,5.7-2.9c2.8-1.2,5.1-2.3,6.5-4.2c0.8-1.2,1.2-2.5,1.4-3.9
	c0.2-1,0.3-1.7,0.8-1.7c0.6,0,0.7,0.6,1,1.7c0.2,1.1,0.5,2.2,0.9,3.3c0.4,1.1,1.2,2,2.1,2.7c1.3,0.8,2.7,1.5,4.2,1.9l0.1,0
	c3.2,1.1,7.6,2.5,11.1,6c2.6,2.7,6,7,4.8,14.1c-0.3,2-1.2,3.9-1.8,4.3C45.9,35,45.6,35.1,45.2,35.1z"/>
</svg>
