<?xml version="1.0" encoding="utf-8"?>
<!-- Generator: Adobe Illustrator 24.2.0, SVG Export Plug-In . SVG Version: 6.00 Build 0)  -->
<svg version="1.1" id="レイヤー_1" xmlns="http://www.w3.org/2000/svg" xmlns:xlink="http://www.w3.org/1999/xlink" x="0px"
	 y="0px" viewBox="0 0 120 75" style="enable-background:new 0 0 120 75;" xml:space="preserve">
<path id="パス_697" d="M22.4,11.3c-0.8,0-1.1,0-1.1-0.3c0-0.1,0.2-0.3,0.3-0.4c1.6-1.5,3.2-3.1,4.6-4.7c0.1-0.2,0.3-0.4,0.6-0.4
	c0.3,0,0.6,0.3,0.7,0.6c1.3,1.7,2.8,3.2,4.5,4.5c0.1,0.1,0.3,0.2,0.3,0.3c0,0.3-0.3,0.3-1,0.3H22.4z M30.4,15.1
	c1.1,0,2.1,0.1,3.2,0.1c0.8,0,0.9-0.3,0.9-1.7c0-0.3,0-0.6,0.3-0.6c0.2,0,0.3,0.1,0.4,0.2c0.8,0.6,1.7,1,2.6,1.4
	c1,0,2.2-2.6,2.2-3.5c0-0.3-0.2-0.4-0.9-0.7c-3.5-1.4-6.6-3.7-8.9-6.7c-0.2-0.3-0.4-0.6-0.5-0.9c0-0.1,0-0.3,0.1-0.4
	C30,2.1,30,2,30,1.9c0-0.4-0.6-0.5-1.5-0.7c-0.7-0.1-2.9-0.5-3.3-0.5c-0.3,0-0.4,0.1-0.5,0.4c-1,1.6-2.1,3-3.3,4.4
	c-2,2-4.3,3.7-6.9,5.1c-0.4,0.2-0.8,0.3-0.8,0.7c0,0.8,1.3,3.1,2.5,3.1c0.6-0.1,1.2-0.4,1.6-0.8c0.2-0.1,0.5-0.4,0.8-0.4
	c0.3,0,0.3,0.3,0.3,0.6v0.1c0,1,0,1.4,0.8,1.4c1.1,0,2.2-0.1,3.2-0.1h0.8c0.3,0,0.6,0.2,0.6,0.6v0.6c0,0.4-0.3,0.7-0.7,0.7h-1.4
	c-1.2,0-2.4-0.1-3.5-0.1c-0.8,0-0.8,0.3-0.8,1.4v1.4c0,0.7,0.1,1.1,0.8,1.1c1.2,0,2.3-0.1,3.5-0.1h1.4c0.4,0,0.7,0.3,0.7,0.7v0.4
	c0,0.4-0.3,0.7-0.7,0.7h-5c-1.2,0-2.5-0.1-3.8-0.1c-0.7,0-0.8,0.3-0.8,1.2v1.7c0,0.9,0.1,1.3,0.8,1.3c1.3,0,2.6-0.1,3.8-0.1h15.8
	c1.2,0,2.5,0.1,3.8,0.1c0.7,0,0.8-0.3,0.8-1.3v-1.7c0-0.9-0.1-1.2-0.8-1.2c-1.3,0-2.5,0.1-3.8,0.1h-4.9c-0.4,0-0.7-0.3-0.7-0.7
	c0,0,0,0,0,0v-0.4c0-0.4,0.3-0.7,0.7-0.7c0,0,0,0,0,0h1.3c1.2,0,2.3,0.1,3.5,0.1c0.8,0,0.8-0.4,0.8-1.3v-1.1c0-1.1,0-1.5-0.8-1.5
	c-1.2,0-2.3,0.1-3.5,0.1h-1.3c-0.4,0-0.7-0.3-0.7-0.7c0,0,0,0,0,0v-0.6c0-0.3,0.2-0.6,0.6-0.6l0,0L30.4,15.1z M61.1,14.7
	c0.1,0,0.2,0,0.2,0.1c0,0.1-0.1,0.1-0.1,0.2c-0.2,0.1-0.9,0.6-0.9,0.9c0,0.1,0.1,0.3,0.2,0.3c0.3,0.4,0.6,0.8,0.8,1.2
	c0,0.2-0.1,0.3-0.3,0.3c0,0,0,0,0,0h-0.2c-0.4,0-0.7-0.3-0.7-0.7V15c0-0.2,0.1-0.3,0.3-0.3L61.1,14.7z M61.5,9.8c1,0,2,0.1,3,0.1
	c0.6,0,0.7-0.3,0.7-1.1V7.6c0-0.7-0.1-1.1-0.7-1.1c-1,0-2,0.1-3,0.1h-6.7c-1,0-2-0.1-3-0.1c-0.7,0-0.7,0.3-0.7,1.1v1.3
	c0,0.7,0.1,1,0.7,1c1,0,2-0.1,3-0.1h0.6c0.2,0,0.4,0.2,0.5,0.5V11c0,0.3-0.1,0.6-0.5,0.6h-0.2c-0.8,0-1.6-0.1-2.4-0.1
	c-0.7,0-0.8,0.3-0.8,1.1v1.2c0,1,0.4,1,0.7,1c0.8,0,1.6-0.1,2.3-0.1c0.5,0,0.8,0.4,0.8,0.8c0,0,0,0.1,0,0.1V17
	c0,0.5-0.3,0.9-0.8,0.9c0,0-0.1,0-0.1,0h-0.3c-1,0-2-0.1-3-0.1c-0.7,0-0.8,0.3-0.8,1.6v0.7c0,0.8,0.1,1.2,0.7,1.2c1,0,2-0.1,3-0.1h7
	c1,0,2,0.1,3,0.1c0.6,0,0.7-0.4,0.7-1.1v-1.2c0-0.6,0-1-0.4-1c-0.2,0-0.2-0.1-0.2-0.2c0-0.1,0.1-0.1,0.1-0.2
	c0.1-0.1,0.2-0.3,0.3-0.5c-0.3-0.7-0.7-1.3-1.2-1.9c-0.1-0.1-0.1-0.2-0.1-0.2c0-0.1,0.1-0.2,0.1-0.2c0.3-0.1,0.3-0.5,0.3-0.9v-1.2
	c0-0.8-0.1-1.1-0.7-1.1c-0.9,0-1.8,0.1-2.7,0.1h-0.4c-0.2,0-0.3-0.1-0.3-0.3v-0.7c0-0.4,0.3-0.7,0.7-0.7H61.5z M50.1,6.3
	c0-0.4,0.4-0.8,0.8-0.8c0,0,0,0,0,0h14.4c0.4,0,0.8,0.4,0.8,0.8v15.1c0,0.4-0.4,0.8-0.8,0.8c0,0,0,0,0,0H50.9
	c-0.5,0-0.8-0.4-0.8-0.9c0,0,0,0,0,0V6.3z M65.2,26c0.4,0,0.7,0.1,0.8,0.6c0.1,0.6,0.3,0.7,1.3,0.7h1.8c1,0,1.3-0.1,1.3-0.8
	c0-1.4-0.1-2.8-0.1-4.2V6.5c0-1,0.1-2.1,0.1-3.1c0-1.4-0.8-1.6-1.7-1.6c-1,0-1.9,0.1-2.9,0.1H50.4c-1,0-2-0.1-3-0.1
	c-1.1,0-1.7,0.4-1.7,1.6c0,1,0.1,2.1,0.1,3.1v15.8c0,1.4-0.1,2.8-0.1,4.3c0,0.7,0.3,0.8,1.4,0.8h1.7c0.8,0,1.2-0.1,1.2-0.5
	c0.1-0.6,0.2-0.8,0.8-0.8H65.2z M90.2,4c-6.8,0-12.3,5.4-12.4,12.2c0,0.1,0,0.2,0,0.3c0,1.5,0.3,3,1,4.4c0.8,1.7,2.5,2.9,4.4,3
	c1.7-0.1,3.2-1,4.2-2.4c2.7-3.2,3.8-8.1,4.1-12.2c0-0.5,0.1-1,0.6-1c0.9,0,4.3,1.8,4.3,6.4c0,3.7-2.8,5.8-6.1,6.7
	c-0.8,0.2-1.1,0.3-1.1,0.6c0,0.8,1.5,3.5,2.6,3.5c1.2-0.2,2.4-0.7,3.5-1.3c3.6-1.9,5.8-5.6,5.8-9.6c0-2.8-1.1-5.5-3.1-7.5
	C96,5,93.1,3.9,90.2,4L90.2,4z M86.8,8.9c0.3,0,0.4,0.2,0.4,0.4c-0.2,2.5-0.9,5-1.8,7.4c-0.3,0.6-1.3,2.5-2,2.5
	c-1,0-1.2-2.1-1.2-2.8C82.2,11.6,86,8.9,86.8,8.9z M6.4,50.8c-0.6,0-2.5,2.4-2.5,2.9c0,0.2,0.4,0.5,0.6,0.6c1.6,1,3.2,2.1,4.8,3.3
	c0.2,0.1,0.6,0.5,0.8,0.5c0.6,0,2.5-2.4,2.5-3.1c0-0.4-1.5-1.5-1.9-1.8C9.9,52.9,6.9,50.8,6.4,50.8z M0.7,60.3
	c0,0.3,0.3,0.4,0.6,0.6c1.7,0.9,3.3,2,4.9,3.1c0.2,0.2,0.5,0.3,0.7,0.4c0.6,0,2.5-2.6,2.5-3.2c0-0.5-1.6-1.4-2.1-1.8
	c-1.4-0.9-2.8-1.7-4.3-2.3C2.4,57.1,0.7,59.7,0.7,60.3z M2.7,69.8c0,0.1,0.1,0.3,0.1,0.4c0.4,0.7,1,2.2,1.4,3
	c0.1,0.3,0.5,1.1,0.8,1.1c0.1,0,0.2-0.1,0.3-0.2c0.3-0.5,0.4-0.5,1.2-0.8C14,70.5,19,66.5,22.1,59c0.3-0.6,0.5-1.3,0.6-1.9
	c0-0.4-1.1-1.5-1.5-1.9C20.9,54.9,20,54,19.6,54c-0.4,0-0.6,0.4-0.7,0.8c-1.1,3.1-2.8,6.7-5.1,9.1c-2,1.9-4.4,3.4-7,4.3
	C6,68.5,4,69.2,3.3,69.4C3.1,69.4,2.7,69.5,2.7,69.8L2.7,69.8z M37.4,57.3c-0.6,0-1.1,0-1.6,0c-0.6,0-0.7,0.4-0.7,1.3v0.9
	c0,1.2,0.1,1.5,0.8,1.5c1,0,2-0.1,3-0.1h6.4c0.3,0,0.6,0.2,0.6,0.6v0.9c0,0.3-0.2,0.6-0.6,0.6h-7.4c-0.8,0-1.5-0.1-1.8-0.1
	c-0.7,0-0.7,0.4-0.7,1.3V65c0,1.1,0.1,1.5,0.8,1.5c0.8,0,2-0.1,3.1-0.1h6.1c0.3,0,0.5,0.2,0.6,0.5c0,0,0,0,0,0v0.9
	c0,0.3-0.2,0.6-0.6,0.6H39c-1.1,0-2.5-0.1-3.1-0.1c-0.6,0-0.7,0.4-0.7,1.1v1c0,1.4,0.1,1.6,0.8,1.6c1,0,2.1-0.1,3.1-0.1h6
	c0.8,0,0.9,0.1,1,0.4c0.1,0.5,0.3,0.6,1.2,0.6h1.1c1.2,0,1.3-0.2,1.3-1.3c0-0.6,0-1.3,0-1.9V58.7c0-1-0.6-1.3-1.5-1.3L37.4,57.3z
	 M68.2,58.6c-0.1-0.2-0.3-0.4-0.6-0.4c-0.5,0-2.9,1.1-2.9,1.7c0,0.2,0.1,0.4,0.3,0.6c0.8,1.2,1.6,2.5,2.3,3.8
	c0.1,0.2,0.3,0.6,0.6,0.6c0.4,0,3-1.1,3-1.9c0-0.2-0.1-0.4-0.2-0.6C69.9,61,69.1,59.8,68.2,58.6L68.2,58.6z M73.2,56.6
	c-0.6,0-2.9,1.1-2.9,1.7c0,0.2,0.1,0.4,0.2,0.5c0.9,1.2,1.7,2.6,2.3,3.9c0.1,0.3,0.3,0.6,0.6,0.6c0.4,0,3-1.1,3-1.8
	c0-0.2-0.1-0.4-0.2-0.6c-0.7-1.4-1.6-2.7-2.5-3.9C73.6,56.7,73.4,56.6,73.2,56.6L73.2,56.6z M79,57.1c-0.3,0-0.4,0.4-0.4,0.6
	c-0.3,2.3-1,4.5-2.1,6.5c-1,1.7-2.5,3.1-4.3,4.1c-1.5,0.9-3.1,1.5-4.7,2c-0.3,0.1-0.5,0.2-0.5,0.6c0.1,0.4,0.3,0.8,0.6,1.2
	c0.1,0.1,0.1,0.1,0.1,0.2c0.3,0.4,1,1.5,1.5,1.5c0.3,0,0.7-0.1,1-0.3c3.2-0.9,6-2.7,8.2-5.3c2.2-2.7,3-4.9,3.9-8.1
	c0.1-0.5,0.2-0.5,0.5-0.7c0.2-0.2,0.4-0.3,0.4-0.5c0-0.4-0.8-0.7-1.7-1C80.6,57.6,79.8,57.3,79,57.1L79,57.1z M116.3,48.4
	c-1.7,0-3,1.3-3,3c0,1.7,1.3,3,3,3c1.7,0,3-1.3,3-3c0,0,0,0,0,0C119.3,49.8,118,48.4,116.3,48.4C116.3,48.4,116.3,48.4,116.3,48.4
	L116.3,48.4z M116.3,49.9c0.8,0,1.5,0.7,1.5,1.5c0,0.8-0.7,1.5-1.5,1.5c0,0,0,0,0,0c-0.8,0-1.5-0.7-1.5-1.5c0,0,0,0,0-0.1
	C114.8,50.6,115.5,49.9,116.3,49.9L116.3,49.9z M99.4,53.2c-1.3,0-2.6-0.1-3.9-0.1c-0.8,0-1,0.2-1,1.4v1.9c0,1.1,0.1,1.2,1.1,1.2
	c1.2,0,2.5,0,3.7,0h9.2c0.5,0,1,0.1,1,0.6c0,1.6-1.3,4.7-3.1,6.6c-2.3,2.3-5.2,4-8.4,4.8c-0.3,0.1-0.6,0.1-0.6,0.5
	c0.2,0.8,0.5,1.5,1,2.2c0.3,0.5,0.8,1.4,1.5,1.4c0.9,0,3.5-1.4,4.4-1.8c5.4-3,8.7-7,10-13.2c0.1-0.5,0.2-0.9,0.3-1.4
	c0.1-0.3,0.2-0.6,0.3-1c0-0.4-0.8-1.3-1.3-1.8l-0.2-0.2c-0.4-0.5-1.2-1.2-1.8-1.2c-0.6,0-1.9,0.1-2.8,0.1L99.4,53.2z"/>
</svg>
