<?xml version="1.0" encoding="utf-8"?>
<!-- Generator: Adobe Illustrator 24.2.0, SVG Export Plug-In . SVG Version: 6.00 Build 0)  -->
<svg version="1.1" id="レイヤー_1" xmlns="http://www.w3.org/2000/svg" xmlns:xlink="http://www.w3.org/1999/xlink" x="0px"
	 y="0px" viewBox="0 0 119 74" style="enable-background:new 0 0 119 74;" xml:space="preserve">
<path id="パス_696" d="M11.5,19.1c0-0.3-0.1-1.2-0.1-1.6c0-0.4,0.1-0.7,0.4-1c1.4-0.7,2.9-1.2,4.5-1.2c1.3-0.1,2.5,0.8,2.6,2.1
	c0,0,0,0,0,0c0,1.6-2.1,1.9-3.4,1.9c-0.3,0-0.9,0-1.2-0.1c-0.2,0-0.8-0.1-1-0.1c-0.6,0-0.7,0.6-0.7,1.1c0,0.9,0.2,1.9,0.5,2.7
	c0.2,0.4,0.8,0.4,1.6,0.4c1.9,0,4.7-0.4,6.3-1.5c1.5-1.1,2.4-2.8,2.3-4.6c0-3.9-3.4-5.9-6.9-5.9c-1.3,0-2.6,0.2-3.9,0.6
	c-0.2,0.1-0.4,0.1-0.7,0.2c-0.5,0-0.6-0.3-0.6-0.8c0-0.6,0.4-0.8,0.9-0.9c2.4-0.4,2.8-0.4,2.8-1.2c0-0.6-0.1-1.1-0.1-1.7
	c-0.1-1.1-0.4-1.8-0.9-1.8c-0.3,0-0.5,0.1-0.8,0.2c-0.3,0.1-0.6,0.2-0.9,0.3c-0.3,0-0.6-0.3-0.6-0.6c0-0.1,0.1-0.5,0.2-1.2
	c0.1-0.4,0.3-0.8,0.6-1c0.1-0.1,0.3-0.2,0.3-0.3c0-0.2-0.3-0.3-0.6-0.4C11.3,2.6,8.4,2,7.8,2C7.6,2,7.4,2.2,7.4,2.4c0,0,0,0.1,0,0.1
	c0,0.2,0.1,0.8,0.1,1.4v0.5c0,0.9,0,1.8-0.2,2.6C7,7.3,6.8,7.4,6.5,7.4C5.6,7.5,4.8,7.6,3.9,7.6C2.8,7.7,2.8,7.7,2.8,8.8
	c0,3,0.6,3,1.2,3c0.5,0,1.1-0.1,1.6-0.2c0.2,0,0.9-0.1,1-0.1c0.4,0,0.7,0.3,0.7,0.7c0,0,0,0,0,0.1v1.1c0,0.4,0,0.7-0.2,1
	c-0.3,0.4-5,3.2-5.7,3.6c-0.3,0.2-0.6,0.3-0.6,0.6c0,0.7,1.7,3.9,2.3,3.9c0.2,0,0.5-0.3,0.8-0.5c0.3-0.3,0.6-0.5,1-0.5
	c0.7,0,2,1.5,2.4,2.4C7.5,24.5,7.7,25,8.3,25c1,0,3.4-1,3.4-2.6C11.7,22,11.5,19.6,11.5,19.1z M7.4,20.7c0,0.2,0,0.3-0.2,0.3
	c-0.1,0-0.2-0.1-0.3-0.2c-0.5-0.3-0.6-0.4-0.6-0.7c0-0.2,0.1-0.3,0.2-0.3c0.2-0.2,0.4-0.3,0.7-0.4c0.3,0,0.3,0.4,0.3,0.7V20.7z
	 M19.5,5.6c-0.3,0-0.8,0.5-1.1,0.9c-0.1,0.1-0.1,0.1-0.2,0.2c-0.3,0.3-1.1,1.2-1.1,1.7c0,0.3,0.3,0.5,0.6,0.8c1.4,1,2.8,2.2,4.1,3.3
	c0.2,0.2,0.4,0.4,0.7,0.4c0.7,0,2.5-2,2.5-2.8c0-0.2-0.2-0.4-0.4-0.6C24,8.9,23,8,22.3,7.5C21.9,7.1,20,5.6,19.5,5.6z M34,5.2
	c-0.3,0-0.5,0.1-0.5,0.5c0,0.4-0.1,3.9-0.1,4.5c0,3.6,0.2,7.8,2.3,10.8c1.1,1.5,2.7,2.9,4.7,2.9c1.6,0,2.6-1,3.6-2.1
	c0.5-0.6,1.8-2.1,1.8-2.8s-2.1-2.3-3-2.3c-0.4,0-0.7,0.4-0.9,0.7c-0.3,0.5-0.9,1.7-1.6,1.7c-0.6,0-1.2-0.9-1.4-1.4
	c-0.7-1.8-1.1-3.7-1-5.6c0-1.4,0.1-2.7,0.4-4.1c0-0.5,0.2-0.9,0.6-1.3c0.2-0.1,0.3-0.2,0.3-0.3c0-0.3-0.3-0.3-0.6-0.4
	C37.7,5.8,34.3,5.2,34,5.2L34,5.2z M46.5,7.7c0,0.2,0.1,0.4,0.3,0.5c2.8,2,4,4.7,4.2,8.2c0.1,1.1,0.1,1.5,1.2,1.5
	c0.9,0,1.9-0.2,2.8-0.5c0.6-0.2,0.7-0.4,0.7-1c0-0.3-0.1-1-0.1-1.5c-0.3-2.1-1-4.1-2.1-5.9C52.1,6.8,49.8,5,49.1,5
	C48.2,5,46.5,7,46.5,7.7L46.5,7.7z M72.1,1c-0.5,0-0.6,0.5-0.6,1.2c-0.4,4-0.7,4.1-2,4.1c-2.1,0-4.2-0.2-4.4-0.2
	c-0.5,0-0.6,0.3-0.6,0.8c0.1,1,0.2,2,0.5,3c0.1,0.5,0.5,0.8,1,0.7c1,0,3.1-0.3,3.3-0.3c0.3,0,0.5,0.2,0.6,0.5c0,0,0,0,0,0
	c-0.4,1.6-0.9,3.2-1.7,4.7c-0.2,0.4-0.4,0.8-0.4,1.2c0,0.6,0.4,0.8,0.9,1.2c0.7,0.5,1.5,0.9,2.4,1c0.3-0.1,0.6-0.3,0.8-0.6
	c0.3-0.3,0.6-0.8,0.9-1.1c1.5-1.5,3.6-2.4,5.7-2.6c1.2,0,2.2,1,2.2,2.2c0,0.1,0,0.1,0,0.2c0,3.2-4.3,3.9-6.8,3.9
	c-0.9,0-1.8-0.1-2.8-0.3c-0.4,0-0.7,0.3-0.7,0.7c0,0,0,0,0,0c0.1,0.8,0.2,1.6,0.4,2.4c0.3,1.1,0.4,1.4,1.7,1.4
	c5.2,0,12.3-1.5,12.3-8.1c0.2-3.4-2.4-6.3-5.7-6.5c-0.2,0-0.5,0-0.7,0c-1.3,0-2.6,0.3-3.8,0.9c-0.1,0.1-0.2,0.1-0.3,0.1
	c-0.2,0-0.4-0.1-0.4-0.3c0-0.4,0.2-0.8,0.3-1.2c0.2-0.4,0.7-0.5,1.2-0.5c1.7-0.2,4.3-0.6,5.9-0.9c1.1-0.2,1.5-0.3,1.5-1
	c0-0.8-0.1-1.6-0.3-2.4c-0.2-0.9-0.3-1.3-0.7-1.3c-0.3,0-0.6,0.1-0.8,0.2c-1.5,0.6-3.1,1-4.7,1.3c-0.3,0-0.5-0.1-0.5-0.5
	c0.1-0.7,0.4-1.3,0.8-1.9c0.1-0.1,0.2-0.3,0.2-0.4C76.5,2.1,72.7,1,72.1,1L72.1,1z M96.6,5.2c-0.3,0-0.5,0.1-0.5,0.5
	c0,0.4-0.1,3.9-0.1,4.5c0,3.6,0.2,7.8,2.3,10.8c1.1,1.5,2.7,2.9,4.7,2.9c1.6,0,2.6-1,3.6-2.1c0.5-0.6,1.8-2.1,1.8-2.8
	s-2.1-2.3-3-2.3c-0.4,0-0.7,0.4-0.9,0.7c-0.3,0.5-0.9,1.7-1.6,1.7c-0.6,0-1.2-0.9-1.4-1.4c-0.7-1.8-1.1-3.7-1-5.6
	c0-1.4,0.1-2.7,0.4-4.1c0-0.5,0.2-0.9,0.6-1.3c0.2-0.1,0.3-0.2,0.3-0.3c0-0.3-0.3-0.3-0.6-0.4C100.4,5.8,97,5.2,96.6,5.2L96.6,5.2z
	 M109.2,7.7c0,0.2,0.1,0.4,0.3,0.5c2.8,2,4,4.7,4.2,8.2c0.1,1.1,0.1,1.5,1.2,1.5c0.9,0,1.9-0.2,2.8-0.5c0.6-0.2,0.7-0.4,0.7-1
	c0-0.3-0.1-1-0.1-1.5c-0.3-2.1-1-4.1-2.1-5.9c-1.3-2.1-3.6-3.9-4.3-3.9C110.8,5,109.1,7,109.2,7.7L109.2,7.7z M9.5,48.1
	c-0.2,0-0.2,0.1-0.2,0.3c-0.1,1.8-0.4,3.6-0.8,5.3c-0.2,0.7-0.7,0.7-2.1,0.7c-1.5,0-2.8-0.1-3.1-0.1c-0.5,0-0.5,0.3-0.5,0.7
	C2.7,56,2.8,57,3,58c0.2,0.6,0.6,0.7,1.2,0.7c0.6,0,1.3-0.1,1.9-0.1c0.3,0,0.6,0.1,0.6,0.5c0,0.2-0.1,0.5-0.2,0.7
	c-1.2,3.4-2.8,6.6-4.8,9.5c-0.3,0.3-0.5,0.7-0.6,1.1c0,0.9,3,2.2,3.5,2.2s0.7-0.3,0.9-0.7c2.2-4.1,4.1-8.4,5.6-12.8
	c0.3-1,0.4-1.1,1.7-1.3c1.1-0.2,3-0.7,4.1-1c0.5-0.1,0.6-0.3,0.6-0.7c0-0.9,0-3.7-0.8-3.7c-0.3,0-0.5,0.1-0.7,0.2
	c-0.8,0.3-1.5,0.6-2.3,0.8c-0.3,0-0.5-0.2-0.5-0.4c0,0,0-0.1,0-0.1c0-0.1,0-0.2,0.1-0.3c0.1-0.4,0.2-0.7,0.3-1
	c0.3-1,0.4-1.4,0.8-1.6c0.1-0.1,0.3-0.1,0.3-0.3c0-0.3-0.9-0.6-1.4-0.7C12.6,48.8,9.9,48.1,9.5,48.1z M13.5,61.7
	c0,0.5,0.2,0.6,0.9,0.6h1c1.7-0.1,3.4,0.2,5,0.8c0.2,0.1,0.5,0.2,0.7,0.2c0.2,0,0.4-0.1,0.6-0.3c0.5-1,0.8-2.1,0.9-3.2
	c0-0.5-0.3-0.6-0.7-0.7c-2.1-0.6-4.4-0.9-6.6-0.9C14.1,58.2,13.5,58.4,13.5,61.7z M11.9,66.6c-0.3,0-0.9,0.6-1.1,0.8
	c-0.3,0.4-1.4,1.7-1.4,2.2c0,0.7,0.9,1.5,1.4,1.8c1.7,1.2,4.5,1.5,6.6,1.5c1.6,0,3.3-0.1,4.9-0.4c0.5-0.1,0.5-0.5,0.5-2.1v-0.9
	c0-0.9-0.1-1.6-0.5-1.6c-0.1,0-0.2,0-0.3,0.1c-1.4,0.4-2.9,0.6-4.4,0.6c-1.7,0-3.9-0.3-5.1-1.7C12.3,66.9,12.1,66.6,11.9,66.6
	L11.9,66.6z M49.7,53.7c-0.3,0-1.8,1.1-1.8,1.5c0,0.1,0.1,0.3,0.2,0.3c0.7,0.7,1.4,1.4,2.1,2.1c0.3,0.4,0.5,0.6,0.6,0.6
	c0.4,0,1.7-1.2,1.7-1.7C52.5,56.1,49.9,53.7,49.7,53.7z M53.1,51.4c-0.3,0-1.8,1.1-1.8,1.5c0,0.1,0.1,0.3,0.2,0.3
	c0.8,0.7,1.6,1.5,2.3,2.4c0.1,0.1,0.2,0.3,0.3,0.3c0.3,0,1.7-1.2,1.7-1.7S53.4,51.4,53.1,51.4z M41.9,54.6c-1.5,0-2.7,1-4.4,2.5
	c-1.5,1.4-3.2,2.6-5,3.7c0,0-0.1,0.1-0.1,0.1c-0.3,0.1-0.8,0.4-0.8,0.6c0.4,0.9,1,1.7,1.6,2.5c0.3,0.4,1.2,1.6,1.7,1.6
	c0.2,0,0.5-0.3,0.6-0.4c0.5-0.6,1-1.1,1.6-1.6c1.1-0.9,2.1-1.9,3.2-2.9c0.3-0.3,0.9-0.8,1.4-0.8c0.5,0,0.8,0.4,1.1,0.7
	c2.1,2.7,4.5,5.1,7.1,7.2c0.6,0.5,2.9,2.2,3.6,2.2c0.9,0,2.9-3.1,2.9-3.8c0-0.4-0.4-0.6-0.7-0.7c-3.6-1.9-6.8-4.6-9.3-7.8
	C45,55.9,43.8,54.6,41.9,54.6z M71.5,49.5c-0.3,0-0.4,0.3-0.4,0.6v0.4c0,1.4-0.1,2.8-0.2,4.2c-0.1,0.6-0.4,0.8-1,1
	c-1.5,0.4-3,0.6-4.5,0.8c-0.8,0.1-1.1,0.1-1.1,0.6c0,0.3,0.3,1.4,0.4,2.1c0.2,1,0.6,2.1,1,2.1c0.2,0,0.4-0.1,0.6-0.2
	c0.8-0.3,1.6-0.6,2.5-0.8c0.2,0,0.4,0.1,0.5,0.3c0,0,0,0.1,0,0.1c0,0.2-0.1,0.4-0.1,0.5c-1.1,3-2.9,5.8-5.2,8.1
	c-0.3,0.3-0.6,0.6-0.6,0.9c0,1,2.8,2.5,3.4,2.5c0.2,0,0.4-0.1,0.5-0.2c0.8-0.9,1.5-1.8,2.1-2.8c1.9-3,3.4-6.2,4.5-9.6
	c0.3-1,0.5-1.1,1.5-1.1c1.1,0,1.3,0.4,1.3,1.8c0,2.2-0.4,4.4-1.3,6.4c-0.6,1.1-1,1.2-2.8,1.2c-0.4,0-0.8,0-1.2,0s-0.6,0.3-0.6,0.7
	c0.1,1,0.3,2,0.6,2.9c0.3,0.7,0.7,0.8,1.5,0.8c2.5,0.2,4.9-1.1,6.1-3.2c1.3-2.2,1.8-6.4,1.8-9c0-2.1-0.5-3.9-2.4-5
	c-0.8-0.4-1.6-0.6-2.4-0.6c-0.2,0-0.5,0-0.7-0.1c-0.2-0.1-0.3-0.3-0.3-0.6c0-0.1,0-0.2,0.1-0.4l0.1-0.6c0.1-0.8,0.2-1.6,0.7-1.9
	c0.2-0.1,0.4-0.2,0.4-0.4c0-0.3-0.3-0.3-0.8-0.5C75.1,50.3,71.8,49.5,71.5,49.5z M82.5,52.3c-0.7,0-3.2,1.6-3.2,2.2
	c0,0.2,0.2,0.4,0.3,0.5c1.7,2,3,4.2,4,6.5c0.1,0.3,0.3,0.8,0.8,0.8c0.8,0,3.5-1.5,3.5-2.5c-0.5-1.3-1.2-2.5-2-3.6
	c-0.1-0.2-0.2-0.3-0.3-0.5c-0.7-1-1.4-2-2.3-2.9C83.2,52.6,82.9,52.4,82.5,52.3z M103.5,48.1c-0.2,0-0.2,0.1-0.2,0.3
	c-0.1,1.8-0.4,3.6-0.8,5.3c-0.2,0.7-0.7,0.7-2.1,0.7c-1.5,0-2.8-0.1-3.1-0.1c-0.5,0-0.5,0.3-0.5,0.7c0,1,0.1,2.1,0.3,3.1
	c0.2,0.6,0.6,0.7,1.2,0.7c0.6,0,1.3-0.1,1.9-0.1c0.3,0,0.6,0.1,0.6,0.5c0,0.2-0.1,0.5-0.2,0.7c-1.2,3.4-2.8,6.6-4.8,9.5
	c-0.3,0.3-0.5,0.7-0.6,1.1c0,0.9,3,2.2,3.5,2.2c0.5,0,0.7-0.3,0.9-0.7c2.2-4.1,4.1-8.4,5.6-12.8c0.3-1,0.4-1.1,1.7-1.3
	c1.1-0.2,3-0.7,4.1-1c0.5-0.1,0.6-0.3,0.6-0.7c0-0.9,0-3.7-0.8-3.7c-0.3,0-0.5,0.1-0.7,0.2c-0.8,0.3-1.5,0.6-2.3,0.8
	c-0.3,0-0.5-0.2-0.5-0.4c0,0,0-0.1,0-0.1c0-0.1,0-0.2,0.1-0.3c0.1-0.4,0.2-0.7,0.3-1c0.3-1,0.4-1.4,0.8-1.6c0.1-0.1,0.3-0.1,0.3-0.3
	c0-0.3-0.9-0.6-1.4-0.7C106.5,48.8,103.8,48.1,103.5,48.1z M107.4,61.7c0,0.5,0.2,0.6,0.9,0.6h1c1.7-0.1,3.4,0.2,5,0.8
	c0.2,0.1,0.5,0.2,0.7,0.2c0.2,0,0.4-0.1,0.6-0.3c0.5-1,0.8-2.1,0.9-3.2c0-0.5-0.3-0.6-0.7-0.7c-2.1-0.6-4.4-0.9-6.6-0.9
	C108,58.2,107.4,58.4,107.4,61.7z M105.8,66.6c-0.3,0-0.9,0.6-1.1,0.8c-0.3,0.4-1.4,1.7-1.4,2.2c0,0.7,0.9,1.5,1.4,1.8
	c1.7,1.2,4.5,1.5,6.6,1.5c1.6,0,3.3-0.1,4.9-0.4c0.5-0.1,0.5-0.5,0.5-2.1v-0.9c0-0.9-0.1-1.6-0.5-1.6c-0.1,0-0.2,0-0.3,0.1
	c-1.4,0.4-2.9,0.6-4.4,0.6c-1.7,0-3.9-0.3-5.1-1.7C106.2,66.9,106,66.6,105.8,66.6L105.8,66.6z"/>
</svg>
