<?xml version="1.0" encoding="utf-8"?>
<!-- Generator: Adobe Illustrator 24.2.0, SVG Export Plug-In . SVG Version: 6.00 Build 0)  -->
<svg version="1.1" id="レイヤー_1" xmlns="http://www.w3.org/2000/svg" xmlns:xlink="http://www.w3.org/1999/xlink" x="0px"
	 y="0px" viewBox="0 0 174 74" style="enable-background:new 0 0 174 74;" xml:space="preserve">
<path id="パス_695" d="M5.5,14.5c0-0.3,0-0.7,0.4-0.7c0.5,0,2.8,2.1,3.3,2.6c0.2,0.2,0.5,0.5,0.7,0.5c0.7,0,2.8-2.3,2.8-2.9
	c0-0.2-0.1-0.3-0.2-0.5c-0.8-0.8-1.7-1.6-2.7-2.3c-0.8-0.7-1.6-1.3-2.5-1.8c-0.3-0.2-0.7-0.4-1-0.5C6.2,8.8,6,8.9,5.9,8.9
	c-0.3,0-0.3-0.3-0.3-0.4V2.9c0-0.4,0.1-0.7,0.3-1C5.9,1.8,6,1.7,6,1.5c0-0.2-0.1-0.3-0.3-0.3C5,1,1.6,0.6,1.2,0.6
	c-0.4,0-0.5,0.2-0.5,0.6c0,0.8,0.1,2.6,0.1,3.6v16.7c0,1.2-0.1,2.3-0.1,3.5c0,0.8,0.3,0.9,1.5,0.9h1.3c1.9,0,1.9-0.2,1.9-1.5
	c0-1,0-1.9,0-2.9L5.5,14.5z M10.3,3.4c-0.3,0-1.8,1-1.8,1.4c0,0.2,0.1,0.3,0.3,0.5c0.7,0.7,1.4,1.5,2,2.3C10.9,7.8,11.1,8,11.3,8
	C11.5,8,13,7,13,6.4C12.3,5.3,11.4,4.3,10.3,3.4z M13.6,1.1c-0.3,0-1.8,1-1.8,1.5c0,0.2,0.1,0.3,0.3,0.5c0.7,0.7,1.4,1.5,2,2.3
	c0.1,0.1,0.3,0.4,0.4,0.4c0.3,0,1.7-1.1,1.7-1.6C15.6,2.9,14.7,1.9,13.6,1.1z M29.6,10.4c-1.8,0-3.5-0.1-3.9-0.1
	c-0.8,0-0.8,0.3-0.8,1.2v1.3c0,1.5,0,2.1,1,2.1c1.1,0,2.4-0.1,3.7-0.1h13.3c1.3,0,2.6,0.1,3.7,0.1c0.9,0,1-0.5,1-2.1v-1.4
	c0-0.8-0.1-1.2-0.9-1.2c-0.3,0-2.1,0.1-3.8,0.1H29.6z M60.2,8.1c-0.9,0-1.7,0-2.6,0C57.2,8,56.7,8,56.3,8c-0.8,0-0.8,0.4-0.8,1.5
	v1.2c0,1.2,0.1,1.9,0.9,1.9c0.3,0,0.6,0,0.9,0c0.5,0,1,0,1.5,0h6.4c0.4,0,0.7,0.3,0.7,0.7c0,0,0,0,0,0c0,0.3-0.1,0.5-0.1,0.8
	c-0.9,3.5-3.4,6.5-6.7,7.9c-0.3,0.1-0.8,0.3-0.8,0.6c0,0.6,2.6,3,3.3,3c0.2,0,0.5-0.1,0.7-0.2c4.3-2.3,7.3-6.6,8.1-11.5
	c0.1-0.8,0.3-1.3,1-1.3h3.4c1.3,0,2.7,0,4,0c0.7,0,0.9-0.2,0.9-1.7V9.5c0-1.3-0.1-1.5-0.8-1.5c-0.4,0-0.8,0-1.2,0c-1,0-2,0-3,0h-3
	c-0.4,0-0.7-0.3-0.9-0.6c0-0.1,0-1,0-2V3.3c0-0.6,0-0.8,0.3-1.1c0.1-0.1,0.2-0.2,0.2-0.3c0-0.3-0.6-0.4-0.8-0.4
	c-0.6-0.1-3.4-0.3-3.9-0.3c-0.2,0-0.3,0.1-0.3,0.2c0,0.2,0.1,0.4,0.1,0.9v0.3c0,1.5,0.1,3,0.1,4.6c0,0.5-0.3,0.9-0.8,0.9
	c0,0,0,0,0,0L60.2,8.1z M91.3,10.4c-1.4,0-3.4-0.1-3.9-0.1c-0.7,0-0.8,0.3-0.8,1.5v1.6c0,0.9,0.1,1.3,0.9,1.3c0.7,0,2.3-0.1,3.8-0.1
	H96c0.3,0,0.6,0.2,0.6,0.6c-0.1,0.4-0.3,0.8-0.5,1.2c-1.2,2.5-3.3,4.4-5.8,5.6c-0.3,0.2-0.7,0.3-0.7,0.6c0,0.6,2.3,2.9,3,2.9
	c0.7,0,2.6-1.5,3.2-1.9c2.6-2,4.5-4.7,5.4-7.9c0.3-0.9,0.5-1,1.5-1h3.5c1.3,0,2.6,0.1,4,0.1c0.8,0,1-0.3,1-1.5v-1.4
	c0-1.3-0.1-1.4-0.8-1.4c-1,0-2.6,0.1-4.1,0.1H103c-0.4,0-0.8-0.3-0.8-0.7c0,0,0,0,0-0.1V7.9c0-0.7,0.2-1,0.9-1.1
	c1.1-0.2,2.8-0.8,3.8-1.2c0.3-0.1,0.6-0.2,1-0.2c0.1,0,0.2,0,0.2,0h0.3c0.2,0,0.4-0.1,0.4-0.3c0-0.1-0.1-0.2-0.1-0.3
	c-0.2-0.2-1.7-1.7-1.9-2c-0.3-0.3-1.2-1.2-1.5-1.2c-0.1,0-0.2,0-0.3,0.1c-2.6,1.6-8.8,2.2-11.9,2.2c-1,0-2.2-0.1-2.7-0.1
	c-0.4,0-0.6,0.1-0.6,0.5c0.1,1,0.3,2,0.7,3C90.8,8,91,8.1,91.8,8.1c1.1,0,3.4-0.1,4.6-0.3c0.2,0,0.5-0.1,0.7-0.1
	c0.6,0,0.7,0.5,0.7,0.8v0.2c0,0.9-0.1,1.5-0.8,1.5L91.3,10.4z M127.8,9.1c-1.1,0-2.7-0.1-3.1-0.1c-0.6,0-0.7,0.3-0.7,1.2v1.3
	c0,0.9,0.1,1.3,0.8,1.3c0.9,0,2-0.1,3-0.1h3.3c0.3,0,0.8,0.1,0.8,0.5c0,0.1,0,0.4,0,0.5l-0.5,3.9c0,0.4-0.4,0.7-0.8,0.7h-6.3
	c-1,0-2.6-0.1-3-0.1c-0.6,0-0.8,0.3-0.8,1.1v1.2c0,0.8,0.1,1.4,0.9,1.4c0.6,0,1.9-0.1,2.9-0.1H136c1,0,2,0,3,0
	c0.8,0,0.9-0.5,0.9-1.4v-1.2c0-0.9-0.1-1.2-0.8-1.2c-1,0-2.1,0.1-3.1,0.1h-0.2c-0.3,0-0.5-0.2-0.6-0.5v-0.1l0.5-4.5
	c0.2-1.9,0.4-1.9,0.4-2.4c0-0.3-0.2-0.6-0.4-0.8c-0.4-0.4-1.2-1.1-1.7-1.1c-0.1,0-0.3,0-0.4,0.1c-0.5,0.1-1.9,0.1-2.5,0.1L127.8,9.1
	z M162.3,2.9c-6.8,0-12.3,5.4-12.4,12.2c0,0.1,0,0.2,0,0.3c0,1.5,0.3,3,1,4.4c0.8,1.7,2.5,2.9,4.4,3c1.7-0.1,3.2-1,4.2-2.4
	c2.7-3.2,3.8-8.1,4.1-12.2c0-0.5,0.1-1,0.6-1c0.9,0,4.4,1.8,4.4,6.4c0,3.7-2.8,5.8-6.1,6.7c-0.8,0.2-1.1,0.3-1.1,0.6
	c0,0.8,1.5,3.5,2.6,3.5c1.2-0.2,2.4-0.7,3.5-1.3c3.6-1.9,5.8-5.6,5.8-9.6c0-2.8-1.1-5.5-3.1-7.5C168.1,3.9,165.2,2.8,162.3,2.9z
	 M158.9,7.8c0.3,0,0.4,0.2,0.4,0.4c-0.2,2.5-0.9,5-1.8,7.4c-0.3,0.6-1.3,2.5-2,2.5c-1,0-1.2-2.1-1.2-2.8
	C154.3,10.5,158.1,7.8,158.9,7.8z M34.1,50c-0.4,0-0.7,0.5-0.9,0.8c-0.5,1-1.3,1.7-2.4,2.1c-1.4,0.4-2.8,0.6-4.2,0.7
	c-0.9,0.1-1.2,0.1-1.2,0.6c0,0.7,1.1,4.1,1.9,4.1c0.2,0,0.4-0.1,0.6-0.2c0.1-0.1,0.3-0.1,0.4-0.1c0.1,0,0.2,0.1,0.2,0.2
	c0,0.1-0.1,0.2-0.1,0.3c-1.1,2.1-1.6,4.3-1.6,6.6c0,4.5,2.9,7.7,7.5,7.7c3.3,0,6.4-1.9,7.9-4.8c0.8-1.8,1.3-3.8,1.3-5.8
	c0-0.5,0-0.7,0.3-0.7c0.2,0,0.3,0.2,0.3,0.3c0.2,0.3,0.5,0.8,0.9,0.8c0.7-0.2,1.4-0.6,1.9-1c0.6-0.4,1.1-0.8,1.1-1.2
	c-0.1-0.3-0.2-0.7-0.5-0.9c0-0.1-0.1-0.1-0.1-0.2c-1.9-2.5-3.7-5.2-4.3-8.4c-0.1-0.8-0.2-1.3-1.1-1.3c-0.7,0-3.5,0.6-3.5,1.4
	c0,0.2,0,0.4,0.1,0.6c0.9,2.3,1.4,4.7,1.3,7.2c0,2.4-0.3,5.7-1.8,7.7c-1,1.4-2.6,2.2-4.3,2.2c-2.3,0-3.2-1.6-3.2-3.7
	c0-4.2,3-8.7,6-11.5c0.2-0.2,0.5-0.5,0.5-0.8C37.2,52,35,50,34.1,50z M60,52.5c0.1,0.8,0.4,1.5,0.8,2.2c0.3,0.6,0.8,1.7,1.6,1.7
	c0.9-0.2,1.8-0.6,2.7-1c0.2-0.1,0.4-0.2,0.6-0.2c0.2,0,0.3,0.1,0.3,0.3c0,0,0,0,0,0c-0.3,0.8-0.7,1.6-1.1,2.4c-0.2,0.4-0.3,0.9-1,1
	c-0.6,0.1-1.2,0.2-1.8,0.3c-3,0.7-5.9,3.1-5.9,6.4c-0.1,2.3,1.6,4.3,3.9,4.4c0,0,0.1,0,0.1,0c3.2,0,4.7-3.6,5.9-6.1
	c0.1-0.3,0.4-0.6,0.8-0.6c0.6,0.1,1.2,0.3,1.7,0.5c0.6,0.2,1.1,0.4,1.1,0.9c0,0.6-2.2,3.6-4.9,5c-0.2,0.1-0.7,0.4-0.7,0.7
	c0,0.7,2.8,2.6,3.3,2.6c0.7-0.3,1.3-0.7,1.8-1.2c1.6-1.3,3-2.9,4.1-4.7c0.2-0.3,0.4-0.6,0.7-0.6c0.4,0,1.5,0.9,1.8,1.2
	c0.1,0.1,0.1,0.1,0.2,0.1c0.2,0.2,0.6,0.6,0.8,0.6c0.7,0,2.8-3.2,2.8-3.9c0-0.4-0.3-0.6-0.6-0.8c-0.9-0.5-1.7-0.9-2.5-1.4
	c-0.4-0.1-0.7-0.5-0.7-0.9c0-0.2,0-0.3,0.1-0.5c0.2-0.8,0.5-1.9,0.6-2.6c0.1-0.3,0.1-0.7,0.2-0.8c0.3-0.3,0.5-0.5,0.5-0.6
	c0-0.2-0.3-0.4-0.7-0.4c-1.5-0.3-3.9-0.8-4.1-0.8c-0.3,0-0.5,0.3-0.5,0.6c0,0,0,0,0,0c0,0.2,0,0.4,0,0.7c0,0.8-0.1,1.6-0.3,2.3
	c-0.1,0.4-0.2,0.6-0.7,0.6c-0.2,0-0.7-0.2-1.3-0.4c-0.8-0.2-1.1-0.3-1.1-0.8c0-0.2,0.1-0.4,0.2-0.5c0.7-1.3,1.9-3.9,3-4.9
	c0.1-0.1,0.3-0.3,0.3-0.5c0-0.8-2.3-3-3.2-3c-0.4,0-0.8,0.2-1.2,0.4c-2.2,1-4.5,1.6-6.9,2C60.1,52.3,60,52.3,60,52.5L60,52.5z
	 M62,63.4c0,0.3-1.1,2.5-1.8,2.5c-0.3,0-0.4-0.3-0.4-0.6c0.2-1,0.9-1.9,1.9-2.2C61.9,63.2,62,63.3,62,63.4L62,63.4z M95.9,48.7
	c-0.5,0-0.6,0.5-0.6,1.2c-0.4,4-0.7,4.1-2,4.1c-2.1,0-4.2-0.2-4.4-0.2c-0.5,0-0.6,0.3-0.6,0.8c0.1,1,0.2,2,0.5,3
	c0.1,0.5,0.5,0.8,1,0.7c1,0,3.1-0.3,3.3-0.3c0.3,0,0.5,0.2,0.6,0.5c0,0,0,0,0,0c-0.4,1.6-0.9,3.2-1.7,4.7c-0.2,0.4-0.4,0.8-0.4,1.2
	c0,0.6,0.4,0.8,0.9,1.2c0.7,0.5,1.5,0.9,2.4,1c0.3-0.1,0.6-0.3,0.8-0.6c0.3-0.3,0.6-0.8,0.9-1.1c1.5-1.5,3.6-2.4,5.7-2.6
	c1.2,0,2.2,1,2.2,2.2c0,0.1,0,0.1,0,0.2c0,3.2-4.3,3.9-6.8,3.9c-0.9,0-1.8-0.1-2.8-0.3c-0.4,0-0.7,0.3-0.7,0.7c0,0,0,0,0,0
	c0.1,0.8,0.2,1.6,0.4,2.4c0.3,1.1,0.4,1.4,1.7,1.4c5.2,0,12.3-1.4,12.3-8.1c0.2-3.4-2.4-6.3-5.7-6.5c-0.2,0-0.5,0-0.7,0
	c-1.3,0-2.6,0.3-3.8,0.9c-0.1,0.1-0.2,0.1-0.3,0.1c-0.2,0-0.4-0.1-0.4-0.3c0-0.4,0.2-0.8,0.3-1.2c0.2-0.4,0.7-0.5,1.2-0.5
	c1.7-0.2,4.3-0.6,5.9-0.9c1.1-0.2,1.5-0.3,1.5-1c0-0.8-0.1-1.6-0.3-2.4c-0.2-0.9-0.3-1.3-0.7-1.3c-0.3,0-0.6,0.1-0.8,0.2
	c-1.5,0.6-3.1,1-4.7,1.3c-0.3,0-0.5-0.1-0.5-0.5c0.1-0.7,0.4-1.3,0.8-1.9c0.1-0.1,0.2-0.3,0.2-0.4C100.3,49.8,96.5,48.7,95.9,48.7
	L95.9,48.7z M123.1,56.3c-0.2,0-0.4,0.2-0.4,0.4c-0.1,0.2-0.3,1.4-0.3,1.7c-0.3,1.8-0.4,3.6-0.4,5.4c0,2,0.2,3.9,0.8,5.8
	c0.1,0.4,0.3,0.8,0.8,0.8c0.3,0,2.6-0.4,2.6-1.2c0-0.2,0-0.3-0.1-0.5c-0.1-0.5-0.2-0.9-0.2-1.4c0.1-2.2,1.1-4.3,2.8-5.7
	c0.5-0.4,1-0.8,1.6-1c0.4,0,0.5,0.4,0.5,1.7c0,1-0.1,2.1-0.3,3.1c-0.1,0.1-0.1,0.3-0.3,0.3c-0.3,0-0.5-0.7-0.6-1.1
	c0-0.5-0.1-0.8-0.6-0.8c-0.7,0-1.3,0.3-1.9,0.7c-0.2,0.2-0.4,0.5-0.3,0.9c0.1,1.5,0.8,2.8,2,3.7c0.2,0.1,0.3,0.3,0.3,0.6
	c0,0.3-0.5,0.8-0.8,1.2c-0.1,0.1-0.1,0.1-0.2,0.2c-0.1,0.1-0.2,0.3-0.2,0.5c0,0.6,2,2,2.5,2c0.9,0,1.9-1.9,2.2-2.6
	c0.1-0.4,0.4-0.6,0.8-0.6c1.1-0.1,2.2-0.5,3.1-1.1c1.9-1.3,3-3.5,2.9-5.8c0.1-2.6-1.4-5-3.9-6c-0.3-0.1-0.6-0.2-0.9-0.3
	c-0.5-0.1-0.9-0.2-0.9-1.5c0-0.2,0-0.3,0.1-0.5c0.1-0.1,0.2-0.3,0.2-0.5c0-0.4-0.3-0.6-3.2-0.6c-0.4,0-1,0-1,0.6
	c0,0.2,0,0.3,0.1,0.5c0.2,0.5,0.3,1,0.4,1.5c0,0.3-0.2,0.6-0.5,0.7c-1.3,0.5-2.5,1.3-3.4,2.4c-0.1,0.1-0.2,0.2-0.3,0.2
	c-0.1,0-0.2-0.1-0.2-0.3c0.1-0.5,0.3-1,0.7-1.4c0.1-0.1,0.3-0.2,0.3-0.3c0-0.3-0.3-0.4-0.5-0.5C125.1,56.9,124.1,56.6,123.1,56.3
	L123.1,56.3z M134.4,60.5c0.3,0,1.4,0.8,1.4,2.7c0,1.9-1.2,3.2-1.6,3.2c-0.2,0-0.4-0.2-0.4-0.4c0,0,0,0,0,0c0,0,0-0.1,0-0.2
	c0.1-1,0.2-2,0.2-3c0-0.6-0.1-1.2-0.1-1.9C134,60.7,134.2,60.5,134.4,60.5C134.4,60.5,134.4,60.5,134.4,60.5L134.4,60.5z"/>
</svg>
