<?xml version="1.0" encoding="utf-8"?>
<!-- Generator: Adobe Illustrator 24.2.0, SVG Export Plug-In . SVG Version: 6.00 Build 0)  -->
<svg version="1.1" id="レイヤー_1" xmlns="http://www.w3.org/2000/svg" xmlns:xlink="http://www.w3.org/1999/xlink" x="0px"
	 y="0px" viewBox="0 0 88 88" style="enable-background:new 0 0 88 88;" xml:space="preserve">
<style type="text/css">
	.st0{fill:#FFFFFF;}
</style>
<g id="グループ_751" transform="translate(-1273.86 7.091)">
	<path id="パス_485" class="st0" d="M1360,25.1c-0.2-2.3-0.3-4.6-0.4-6.9c-1.6-2.3-3.2-4.6-4.9-6.9c-1.2-1.6-2.3-3.2-3.3-4.9
		c-0.1-0.1-0.2-0.3-0.2-0.4c-0.2-0.2-0.5-0.3-0.7-0.5c-2.8-1.9-5.7-3.9-8.5-5.7c-2.9-1.9-6-3.5-9-5.3c-0.2,0-0.3-0.1-0.5-0.1
		c-2.4-0.3-4.9-0.4-7.4-0.5c-0.1,0-0.1,0-0.2,0c-2.8,0-5.7,0.3-8.5,0.5c-2.8,0.2-5.5,0.4-8.3,0.6c-2.3,0.2-4.5,0.3-6.8,0.5l-0.6,0.1
		c-1,0.5-1.9,1-2.8,1.6c-5.5,3.7-9.7,7.5-13.2,13.1c-2,3.5-3.7,7.2-4.8,11.1c-0.4,1.2-0.7,2.3-0.9,3.5c-2,3.9-3.4,8-4.3,12.3
		c0.3,1.4,0.6,2.8,0.8,4.3c0.5,2.8,1,5.5,1.6,8.2c0.6,2.4,1.1,4.7,1.8,7.1c0.8,1,1.6,2,2.3,3c1.3,1.5,2.5,3.1,3.7,4.6
		c1,1.3,2.1,2.4,3.3,3.6c1.5,1.4,3.2,2.6,4.8,3.9c0.1,0.1,0.3,0.1,0.4,0.2c1.7,0.7,3.4,1.3,5,1.9c3.5,1.3,6.9,2.8,10.4,4
		c1.5,0.5,3,1,4.5,1.5c2.9,0,5.8,0.1,8.7,0.2c1.4,0,2.8,0.1,4.2,0c0.4-0.1,0.9-0.1,1.3-0.2c1.5-0.2,3.1-0.4,4.6-0.6
		c2.1-1.2,4.3-2.5,6.5-3.6c2.7-1.4,5.6-2.5,8.4-3.7c0.1,0,0.1-0.1,0.2-0.1c1.3-1.6,2.7-3.1,4.1-4.6c1.1-1.1,2.2-2.3,3.2-3.5
		c1.7-2.4,3.3-4.9,4.6-7.5c0.7-1.9,1.3-3.9,1.7-5.9c0.1-4,0-8-0.1-12C1360.8,33.8,1360.4,29.5,1360,25.1z"/>
	<g id="グループ_94" transform="translate(27 -14)">
		<path id="パス_673" d="M1288.4,39.5L1288.4,39.5c-0.3,0-0.5-0.1-0.7-0.3l-2-2.8v5.9c0,0.2-0.1,0.4-0.2,0.5
			c-0.1,0.1-0.3,0.2-0.6,0.2c-0.2,0-0.4-0.1-0.5-0.2c-0.1-0.1-0.2-0.3-0.2-0.5V34c0-0.2,0.1-0.4,0.2-0.5c0.1-0.1,0.3-0.2,0.5-0.2h0
			c0.2,0,0.5,0.1,0.6,0.3l2.8,3.9l2.8-3.9c0.1-0.2,0.4-0.3,0.6-0.3h0c0.2,0,0.4,0.1,0.6,0.2c0.1,0.1,0.2,0.3,0.2,0.5v8.3
			c0,0.2-0.1,0.4-0.2,0.5c-0.1,0.2-0.3,0.2-0.6,0.2c-0.2,0-0.4-0.1-0.5-0.2c-0.1-0.1-0.2-0.3-0.2-0.5v-5.9l-2,2.8
			C1288.9,39.4,1288.6,39.5,1288.4,39.5z M1301.6,33.7c0.1-0.2,0.3-0.3,0.5-0.3c0.2,0,0.4,0,0.6,0.1c0.2,0.1,0.3,0.3,0.3,0.5
			c0,0.2,0,0.4-0.1,0.6l-2.9,3.9v3.8c0,0.2-0.1,0.4-0.2,0.5c-0.1,0.1-0.3,0.2-0.5,0.2c-0.2,0-0.4-0.1-0.5-0.2
			c-0.2-0.1-0.2-0.3-0.2-0.5v-3.8l-2.8-3.9c-0.1-0.2-0.2-0.4-0.2-0.6c0-0.2,0.1-0.4,0.3-0.5c0.2-0.1,0.4-0.2,0.6-0.1
			c0.2,0,0.4,0.1,0.5,0.3l2.4,3.3L1301.6,33.7z M1263.1,59.6l-0.7-1.8h-3.4l-0.7,1.8c-0.1,0.3-0.4,0.5-0.7,0.5
			c-0.3,0-0.5-0.1-0.7-0.3c-0.1-0.2-0.2-0.5-0.1-0.7l3.1-8.2c0.1-0.1,0.2-0.3,0.3-0.4c0.1-0.1,0.3-0.1,0.4-0.1
			c0.3,0,0.6,0.2,0.7,0.5l3.1,8.2c0.1,0.2,0.1,0.5-0.1,0.7c-0.1,0.2-0.4,0.4-0.7,0.3C1263.4,60.1,1263.2,59.9,1263.1,59.6z
			 M1259.6,56.2h2.3l-1.1-3L1259.6,56.2z M1268.6,52.6c-0.7,0.6-1,1.5-1,2.5c0,0.9,0.4,1.8,1,2.4c0.6,0.6,1.5,1,2.4,1
			c0.8,0,1.7-0.2,2.3-0.8c0.2-0.1,0.4-0.2,0.6-0.1c0.2,0,0.4,0.1,0.5,0.3c0.1,0.2,0.2,0.4,0.2,0.6c0,0.2-0.1,0.4-0.3,0.5
			c-0.9,0.7-2.1,1.1-3.2,1.1c-1.4,0-2.7-0.5-3.6-1.5c-1-0.9-1.5-2.2-1.5-3.6c0-1.3,0.5-2.6,1.5-3.5c1-1,2.3-1.5,3.6-1.5
			c1.2,0,2.3,0.4,3.2,1.1c0.2,0.1,0.3,0.3,0.3,0.5c0,0.2,0,0.4-0.2,0.6c-0.1,0.2-0.3,0.3-0.5,0.3c-0.2,0-0.4,0-0.6-0.2
			c-0.7-0.5-1.5-0.8-2.3-0.8C1270.2,51.6,1269.3,52,1268.6,52.6z M1279.4,52.6c-0.7,0.6-1,1.5-1,2.5c0,0.9,0.4,1.8,1,2.4
			c0.6,0.6,1.5,1,2.4,1c0.8,0,1.7-0.2,2.3-0.8c0.2-0.1,0.4-0.2,0.6-0.1c0.2,0,0.4,0.1,0.5,0.3c0.1,0.2,0.2,0.4,0.2,0.6
			c0,0.2-0.1,0.4-0.3,0.5c-0.9,0.7-2.1,1.1-3.2,1.1c-1.4,0-2.7-0.5-3.6-1.5c-1-0.9-1.5-2.2-1.5-3.6c0-1.3,0.5-2.6,1.5-3.5
			c1-1,2.3-1.5,3.6-1.5c1.2,0,2.3,0.4,3.2,1.1c0.2,0.1,0.3,0.3,0.3,0.5c0,0.2,0,0.4-0.2,0.6c-0.1,0.2-0.3,0.3-0.5,0.3
			c-0.2,0-0.4,0-0.6-0.2c-0.7-0.5-1.5-0.8-2.3-0.8C1281,51.6,1280.1,52,1279.4,52.6z M1289,58.6c-0.9-1-1.4-2.2-1.4-3.6
			c0-1.3,0.5-2.6,1.4-3.6c0.9-1,2.1-1.5,3.4-1.5c1.3,0,2.5,0.5,3.4,1.5c0.9,1,1.4,2.2,1.4,3.5c0,1.3-0.5,2.6-1.4,3.5
			c-0.4,0.5-0.9,0.8-1.5,1.1c-0.6,0.3-1.2,0.4-1.8,0.4C1291.1,60.1,1289.9,59.6,1289,58.6z M1289.2,55c0,0.9,0.3,1.8,0.9,2.4
			c0.6,0.7,1.4,1,2.3,1c0.9,0,1.7-0.4,2.3-1c0.6-0.7,0.9-1.5,0.9-2.4c0-0.9-0.3-1.8-0.9-2.4c-0.6-0.7-1.4-1-2.3-1
			c-0.9,0-1.7,0.4-2.3,1C1289.5,53.3,1289.2,54.1,1289.2,55z M1308,56c0,2.2-1.8,4-4,4c-2.2,0-4-1.8-4-4c0,0,0,0,0,0v-5
			c0-0.4,0.3-0.8,0.8-0.8c0,0,0,0,0,0c0.2,0,0.4,0.1,0.6,0.2c0.2,0.1,0.2,0.3,0.2,0.5v5c0,1.4,1.1,2.5,2.5,2.5
			c1.4,0,2.5-1.1,2.5-2.5c0,0,0,0,0,0v-5c0-0.2,0.1-0.4,0.2-0.5c0.1-0.1,0.3-0.2,0.6-0.2c0.4,0,0.8,0.3,0.8,0.8c0,0,0,0,0,0V56z
			 M1312.9,53.5v5.8c0,0.2-0.1,0.4-0.2,0.5c-0.1,0.1-0.3,0.2-0.5,0.2c-0.2,0-0.4-0.1-0.5-0.2c-0.1-0.1-0.2-0.3-0.2-0.5v-8.1
			c0-0.2,0.1-0.5,0.3-0.6c0.2-0.1,0.4-0.2,0.6-0.2c0.2,0,0.4,0.1,0.5,0.3l4.5,6.3v-5.8c0-0.4,0.3-0.8,0.8-0.8c0.2,0,0.4,0.1,0.5,0.2
			c0.1,0.1,0.2,0.3,0.2,0.5v8.1c0,0.2-0.1,0.4-0.2,0.5c-0.1,0.1-0.3,0.2-0.6,0.2c-0.2,0-0.4-0.1-0.6-0.3c0,0-0.1-0.1-0.1-0.1
			L1312.9,53.5z M1328.7,50.5c0.1,0.1,0.2,0.3,0.2,0.5c0,0.2-0.1,0.4-0.2,0.6c-0.1,0.1-0.3,0.2-0.5,0.2h-2.2v7.5
			c0,0.4-0.3,0.8-0.8,0.8s-0.8-0.3-0.8-0.8v-7.5h-2.2c-0.2,0-0.4-0.1-0.5-0.2c-0.1-0.1-0.2-0.3-0.2-0.6c0-0.4,0.3-0.8,0.8-0.8
			c0,0,0,0,0,0h6C1328.3,50.3,1328.5,50.4,1328.7,50.5L1328.7,50.5z"/>
	</g>
</g>
</svg>
