<?xml version="1.0" encoding="utf-8"?>
<!-- Generator: Adobe Illustrator 24.2.0, SVG Export Plug-In . SVG Version: 6.00 Build 0)  -->
<svg version="1.1" id="レイヤー_1" xmlns="http://www.w3.org/2000/svg" xmlns:xlink="http://www.w3.org/1999/xlink" x="0px"
	 y="0px" viewBox="0 0 40 40" style="enable-background:new 0 0 40 40;" xml:space="preserve">
<g id="グループ_285" transform="translate(-1301.112 -7)">
	<g id="グループ_423">
		<g id="グループ_320" transform="matrix(0.998, 0.07, -0.07, 0.998, 876.995, -466.595)">
			<path id="パス_505" d="M495,444.3c-0.4,0-0.9,0-1.3,0c-1.1,0-2.2-0.1-3.2-0.3l-0.1,0l-0.1,0c-0.6,0.1-1.1,0.2-1.7,0.3
				c-0.4,0.1-0.8,0.1-1.1,0.1l0,0c-0.2,0.3-0.4,0.6-0.6,0.9c-0.2,0.3-0.3,0.7-0.4,1c-0.3,0.9-0.5,1.8-0.9,2.7
				c-0.6,1.3-1.2,2.5-1.7,3.9s-1,2.7-1.4,4c-0.4,1.3-0.7,2.7-1,4.1c-0.2,0.7-0.3,1.5-0.3,2.2c0,0.1,0,0.3,0,0.4
				c-0.4,0-0.8-0.1-1.2-0.1c-0.2-0.1-0.3-0.2-0.5-0.3c0,0,0-0.1,0-0.1c0.2-1.1,0.4-2.2,0.5-3.3c0.2-1.2,0.4-2.4,0.5-3.6
				c0.2-1.4,0.4-2.9,0.6-4.4c0.1-0.5,0.1-1,0.2-1.5c0-0.5-0.1-0.9-0.3-1.3c-0.1-0.2-0.3-0.4-0.6-0.6c-0.3-0.2-0.7-0.3-1.1-0.3
				c-0.2,0-0.3,0-0.5,0.1l-0.1,0c-0.3,0-0.6-0.1-0.9-0.1c-0.2,0-0.4,0-0.6,0c-0.4,0-0.9,0-1.3,0c-1.4,0-2.7,0.1-4.1,0.3
				c-2.5,0.3-4.9,0.8-7.4,1.1c-1,0-2,0.1-3,0.2c-0.6,0.1-1.2,0.1-1.8,0.2c-0.5,0-1,0.1-1.6,0.1c-0.3,0-0.6,0.1-0.8,0.2
				c0,0-0.1,0-0.1,0.1c0,0.1,0,0.2,0.1,0.3c0.1,0.3,0.2,0.5,0.2,0.8c0,0,0,0.1,0,0.1c0.1,0.2,0.2,0.5,0.3,0.7c0,0.2,0.1,0.3,0.2,0.5
				c0.1,0.4,0.2,0.7,0.4,1.1c0.2,0.5,0.4,1,0.5,1.6c0.2,0.6,0.3,1.1,0.5,1.7c0.3,1.2,0.6,2.3,0.8,3.5c0,0.2,0.1,0.3,0.1,0.5
				c0.4,1.1,0.8,2.2,1.1,3.3c0.1,0.5,0.3,1.1,0.4,1.6c0,0.3,0.1,0.5,0.1,0.8c0,0.2,0,0.4,0.1,0.6c0,0.1,0,0.2,0,0.3
				c0,0.1,0.1,0.3,0.2,0.4c0.3,0.4,0.7,0.7,1.2,0.8h0l0.4,0c0.2,0,0.3-0.1,0.5-0.2c0,0.1,0.1,0.1,0.1,0.1c0.8,0,1.6,0,2.4,0
				c1.2,0,2.3-0.1,3.5-0.2c0.5,0,1.1-0.1,1.6-0.1c0.6,0,1.2-0.1,1.8-0.1c1.1-0.1,2.3-0.2,3.4-0.3c0.2,0,0.4,0,0.5,0
				c0.9,0,1.9,0,2.8-0.1c0.7,0,1.4-0.1,2.1-0.1c0,0,0,0,0,0c0.4,0,0.7-0.1,1-0.4c0,0,0,0,0-0.1c0-0.1,0-0.3,0-0.4c0-0.1,0-0.1,0-0.2
				c0,0,0,0,0-0.1c0-0.1,0.1-0.2,0.1-0.2c0,0,0,0,0-0.1l0,0c0-0.1,0.1-0.2,0.1-0.3c0,0,0-0.1,0.1-0.1c0.1-0.1,0.1-0.3,0.2-0.4
				c0.1-0.3,0.3-0.5,0.5-0.8l0.1-0.1c0.1-0.1,0.2-0.2,0.2-0.4l0,0c0.1-0.4,0.2-0.8,0.3-1.2c0.4-1.5,0.8-2.9,1.2-4.3s0.9-2.9,1.4-4.3
				c0.5-1.5,1.1-2.9,1.6-4.4c0.2-0.6,0.3-1.2,0.6-1.8c0.1-0.2,0.2-0.4,0.4-0.6c0.1-0.1,0.2-0.2,0.3-0.3c0.1-0.1,0.2-0.1,0.3-0.1
				c0.5-0.2,1-0.3,1.6-0.4c0.5-0.1,1-0.1,1.5-0.2c0.3,0,0.6-0.1,1-0.1c0.2,0,0.3-0.1,0.5-0.2c0-0.1,0.1-0.2,0.1-0.3c0,0,0,0,0-0.1
				c0-0.1,0-0.2,0-0.2c0-0.2,0-0.4,0-0.5c0-0.2,0-0.4,0.1-0.6l0-0.1C495.4,444.4,495.2,444.3,495,444.3z M471.5,463l-0.3-0.2l0,0
				c0.2-0.4,0.4-0.7,0.7-1.1C471.8,462.1,471.7,462.5,471.5,463z M477.2,452.4l-0.1,0c0,0,0-0.1,0-0.1c0,0,0,0,0,0
				C477.1,452.4,477.2,452.4,477.2,452.4L477.2,452.4z"/>
			<path id="パス_506" d="M469.2,473.7c0-1-0.4-1.9-1.2-2.4c-0.4-0.2-0.8-0.4-1.3-0.4c-0.5,0-1,0.1-1.5,0.4
				c-0.8,0.4-1.4,1.1-1.8,1.8c-0.2,0.3-0.3,0.7-0.4,1.1c-0.1,0.3-0.1,0.6,0,0.9c-0.3,0.8-0.3,1.7,0.2,2.4c0.2,0.2,0.4,0.5,0.6,0.7
				c0.2,0.2,0.5,0.4,0.7,0.6c0.3,0.3,0.7,0.5,1.1,0.5c0.4,0,0.8-0.2,1.1-0.4c0.1,0,0.1,0,0.2,0c0.3,0,0.6,0,0.9-0.2
				c0.4-0.2,0.8-0.4,1.1-0.8c0.6-0.7,0.9-1.6,0.8-2.6c0-0.5-0.2-1.1-0.5-1.5C469.2,473.8,469.2,473.8,469.2,473.7z M466.9,475.7
				L466.9,475.7z"/>
			<path id="パス_507" d="M483.7,471c-0.3-0.3-0.6-0.5-0.9-0.6c-0.3-0.1-0.5-0.1-0.8-0.1h0c-0.5,0-1,0.2-1.4,0.4
				c-0.2,0-0.4,0.1-0.7,0.1c-0.6,0.2-1.1,0.6-1.4,1.1c-0.1,0.2-0.3,0.5-0.4,0.8c-0.1,0.3-0.1,0.6-0.1,0.9c0,0.2,0,0.4,0,0.5
				c0,0.2,0.1,0.4,0.1,0.6c0,0.1,0,0.2,0,0.3c0,0.5,0.1,1,0.3,1.5c0.2,0.5,0.6,1,1.1,1.2c0.5,0.2,1,0.3,1.5,0.2l0.1,0
				c0.3,0.1,0.7,0.1,1,0c0.3-0.1,0.6-0.2,0.8-0.4c0.3-0.2,0.5-0.4,0.7-0.6c0.2-0.2,0.3-0.4,0.4-0.6c0.3-0.3,0.5-0.8,0.5-1.2
				c0-0.1,0.1-0.2,0.1-0.3c0.1-0.4,0.1-0.8,0.1-1.1c-0.1-0.6-0.2-1.2-0.5-1.7C484.2,471.6,484,471.3,483.7,471z"/>
		</g>
	</g>
</g>
</svg>
