<?xml version="1.0" encoding="utf-8"?>
<!-- Generator: Adobe Illustrator 24.2.0, SVG Export Plug-In . SVG Version: 6.00 Build 0)  -->
<svg version="1.1" id="レイヤー_1" xmlns="http://www.w3.org/2000/svg" xmlns:xlink="http://www.w3.org/1999/xlink" x="0px"
	 y="0px" viewBox="0 0 216 80" style="enable-background:new 0 0 216 80;" xml:space="preserve">
<style type="text/css">
	.st0{fill:#FFFFFF;stroke:#FFFFFF;stroke-width:2;stroke-linecap:round;}
	.st1{fill:#FFFFFF;}
</style>
<g id="グループ_527" transform="translate(1 1.055)">
	<g id="グループ_276">
		<path id="パス_287" class="st0" d="M200.9,22.2h0.3v-0.1C200.9,22.2,201,22.1,200.9,22.2z"/>
		<path id="パス_288" class="st0" d="M45,4.9V4.6h0.1v0.3c0.2-0.1,0.2-0.2,0.5-0.1c0,0,0,0.2,0.3,0.1c0,0,0-0.2,0.3-0.1
			c0,0,0,0.2,0.3,0.1l0.1-0.3l0.5,0.1v0.4h0.4V5h0.7v0.1h0.1V5c0.1,0,0.2,0,0.3,0.1L49.2,5V4.9L49.4,5V4.9h0.7V5H50v0.1l0.3,0.1
			l0.1,0.8h0.1v0.1h-0.1l0.1,0.3h-0.1v0.7l0.3,0.1c0.1,0.2-0.3,0.5-0.1,0.9c0.1,0.4,0.2,0.9,0.1,1.3c0,0-0.2,0-0.1,0.3h0.1
			c0.1,0.5-0.3,0.7-0.3,0.8h0.1v0.3h0.1c0.1,0.3-0.2,0.4-0.1,0.5h0.3l-0.1,0.1c0,0.2,0.1,0.4,0.1,0.5h-0.1l-0.1,0.7
			c0,0,0.5,0.1,0.3,0.1h-0.1c0,0.2-0.1,0.4-0.1,0.5l0.3,0.1l-0.3,0.8h0.3v0.5L50.5,15v0.3h0.3l-0.1,0.4h0.1v0.1h-0.1v0.1
			c0.1,0,0.2,0.1,0.1,0.2c0,0,0,0,0,0h-0.1c-0.1,0.2-0.1,0.3-0.1,0.5c-0.4,0-0.7,0.1-1.1,0.1v0.5h0.3c0,0.5,0.1,0.6,0.5,0.7
			c0.1,0.4,0,0.3,0.4,0.4l0.1,0.7H51c-0.1,0.2-0.2,0.2-0.1,0.5c0,0,0.2,0,0.1,0.3c0,0-0.2,0.1-0.1,0.3c0,0.2,0.2-0.1,0.1,0.1
			c-0.1,0-0.2,0.2-0.1,0.3H51v0.1h-0.1v0.1c0.1,0.1,0.1-0.1,0.3,0.1h-0.3v0.4h0.3c-0.1,0.5-0.1,0.2,0,0.7c-0.3,0.1-0.6,0.2-0.9,0.1
			v-0.1h-0.1c-0.1,0.1-0.1,0.4-0.4,0.3l-0.1-0.3L49,22.2v-0.1h-0.1v0.1h-0.1v-0.1c-0.2,0,0,0-0.1,0.1h-0.1v-0.1h-0.7v-0.3L47.4,22
			v0.1c-0.2,0-0.2-0.3-0.5-0.1v0.1c-0.2,0.2-0.4,0.3-0.7,0.3v0.3h0.3c0,0-0.2,0.3-0.1,0.5h0.1v0.4c0,0,0.2,0.1,0.3,0.3l1.5,0.1v0.1
			h0.3v0.1l0.8-0.1v0.1h0.1v-0.1l0.4,0.1c0.1-0.1,0-0.2,0.3-0.1c0,0,0,0.2,0.3,0.3l0.1-0.3h0.9V25h-0.3l0.1,1.1h0.1l-0.1,0.5h0.1V27
			h0.1c0.1,0.2-0.1,0.2-0.1,0.3v0.1h0.1c0,0.2-0.2,0.2-0.1,0.5h0.1v0.3h0.1c0.1,0.2-0.1,0.2-0.1,0.3v0.1h0.1v0.1h-0.1l0.1,1.1h-0.3
			v0.7h0.3l-0.3,0.4h0.3c0,0.2,0,0-0.1,0.1v0.1h0.1c0,0.2-0.1,0-0.1,0.1v0.4h-0.1c0,0,0,0.5,0.1,0.3c0.2,0-0.1-0.1,0.1-0.1
			c0,0.2-0.1,0.3-0.1,0.3v1.3h-0.1c0.2,0.1,0,0.1,0.3,0.1l-0.1,0.7h-0.1v0.1h0.1v0.5h0.1v0.1h-0.1l0.1,0.4c-0.1,0.2-0.1-0.1-0.1,0.1
			l0.3,0.1L51.7,36l0.3,0.1v0.1h-0.1l0.1,0.4h-0.1v0.4H52c0,0.2-0.2,0.3-0.1,0.7H52v0.8l-0.1,0.4c0.1,0.1,0.1,0.2,0.1,0.3l-0.1,0.3
			H52v0.4h0.1c0,0.1,0,0.2-0.1,0.3l0.1,0.5h0.3l-0.1,0.4h0.1v0.1l0.3-0.1v0.3h0.1v-0.1H53v0.1h0.1v-0.1h0.4v-0.1
			c0.2-0.1,0.6-0.6,0.5-0.9c0,0-0.2,0-0.1-0.3c0,0,0.1,0,0.1-0.3h-0.3v-0.3h0.3v-0.1l-0.3-0.1l0.3-1.2h-0.4c0-0.5,0.1-0.4,0-0.8H54
			l-0.1-0.4h-0.1l0.1-0.1c-0.1-0.3-0.1-0.6-0.1-0.9h-0.3l0.1-0.4h0.1v-0.5h-0.1l0.1-0.5h-0.3v-0.5h0.3c0.2-0.2-0.2-0.1-0.3-0.1v-0.1
			h0.1L53.4,33c0.1-0.1,0.1,0,0.1-0.3l-0.1-0.3c0-0.1,0.3,0,0.3-0.3h-0.3c0-0.2,0.2,0,0.3-0.3h-0.1l0.1-0.4h-0.1v-0.4h-0.1V31h0.1
			c0.1-0.3-0.1-0.4-0.1-0.4c-0.1-0.3,0.1-0.3,0.1-0.5c-0.1-0.1-0.2,0-0.1-0.1l0.3-0.1v-0.1h-0.1c0-0.5-0.1-1.1-0.1-1.6l0.3-0.1v-0.1
			l-0.4-0.1v-0.1h0.1v-0.1h-0.1c-0.1-0.1,0-0.3,0.1-0.4c0.1-0.4-0.2-0.8-0.1-0.9h0.1l0.1-0.3h-0.3v-0.7c0-0.2-0.2,0.1-0.1-0.1h0.1
			v-0.5h-0.1v-0.1h0.1v-0.3h0.1V24l0.8,0.1l0.1-0.3c0.3-0.1,0.6,0.1,0.8,0.1c0.3,0,0.9-0.3,1.1-0.3l0.1,0.3h0.4v0.3l0.3,0.1l0.1,0.4
			h0.3l0.3,0.4H58l0.1,0.3h0.1l-0.1,0.3h0.3l0.1,0.3h0.3c0.1,0.1,0.1,0.2,0.3,0.3v0.3l0.4,0.1v-0.1h0.1v0.3c0.1,0.1,0.3,0.2,0.5,0.3
			v0.4l0.8,0.3v0.1c0.2,0.2,0.4,0.3,0.7,0.4l0.1,0.4h0.1v0.3l0.3-0.1v0.1l0.4,0.1c0.1,0.3,0,0.1,0.1,0.3v0.1H63v0.4h0.1V30l0.3-0.1
			l0.1,0.4c0.4,0.1,0.4,0.1,0.5,0.5l0.5,0.1c0.2,0.1-0.1,0.1-0.1,0.1c0,0.2,0.1,0.1,0.3,0.1c0.1,0.4,0.1,0.4,0.5,0.4
			c-0.1,0.2-0.1,0.3-0.1,0.5h0.4l0.1,0.4h0.4c0.2,0.3,0.3,0.6,0.4,0.9h0.4v0.3h0.3v0.1c0.3,0.2,0.1,0.3,0.5,0.4l0.1,0.4l0.3,0.1
			c0.1,0,0-0.2,0.1-0.1v0.1c0.2,0.1,0.3,0.2,0.5,0.3c0.1,0.3,0.1,0.2,0.3,0.4v0.1h0.3l-0.1,0.3h0.3l0.4,0.5l0.5,0.1l-0.1,0.3
			l0.4,0.1v0.1h0.3l0.5,0.7l0.3-0.1l0.1,0.8h0.5c0,0.4,0,0.4,0.3,0.5h0.3c0.2,0.1-0.1,0.1-0.1,0.1l0.1,0.4l0.4,0.1l0.1,0.3h0.3
			l-0.1,0.3c0.1,0.1,0.2,0.1,0.3,0.3l0.8,0.1v-0.1l0.3,0.1v-0.1c0.4-0.2,0.1,0,0.1-0.4l0.4-0.1l0.1-0.5h-0.3v-0.3h0.1
			c0.1-0.3-0.3-0.5-0.5-0.5v-0.3h-0.3l-0.1-0.5c-0.5-0.1-0.4-0.4-0.9-0.5c-0.2-0.8-1.1-0.9-1.6-1.7h-0.4v-0.5c-0.2,0-0.5,0-0.7-0.1
			v-0.3h-0.2v-0.4h-0.3v-0.3L70,33.7v-0.1h-0.3l0.1-0.3l-0.4,0.1c-0.1-0.2-0.1-0.3-0.1-0.5l-0.7-0.1l-0.1-0.5
			c-0.4-0.1-0.3,0-0.4-0.4h-0.4v-0.5h-0.5v-0.1h0.1V31h-0.1c-0.2-0.2-0.1-0.2-0.4-0.3c-0.1-0.3-0.2-0.6-0.4-0.8H66v-0.3h-0.3v-0.1
			c0.2-0.1,0.1,0.1,0.1-0.1h-0.4l0.1-0.4c-0.1-0.2-0.4-0.1-0.5-0.3h0.1v-0.1h-0.5v-0.3h-0.4l0.1-0.4c-0.5,0-0.6-0.1-0.7-0.5h-0.4
			c-0.2-0.7-0.5-0.3-0.9-0.7l0.1-0.3L62,26.2V26c-0.3-0.1-0.1,0-0.3-0.1h-0.5c0.4-0.3-0.3-0.6-0.7-0.7c-0.1-0.3,0-0.1-0.1-0.3v-0.3
			c-0.3,0.3-0.6-0.4-0.9-0.5v-0.3c-0.3-0.1-0.5-0.3-0.7-0.5c0,0-0.5,0-0.3-0.1c0.1-0.1,0.4,0.1,0.3-0.1h-0.1
			c0.1-0.2,0.5,0.1,0.9-0.1l0.3-0.4h0.4v-0.1h0.3v-0.1l0.3,0.1v-0.1h0.3v-0.1c0.4-0.3,0.3-0.4,0.8-0.3v-0.3l0.4,0.1v-0.1h0.3
			c0.2-0.4,0-0.1,0.4-0.1v-0.3l0.7-0.1v-0.1c0.2-0.2,0.5-0.3,0.8-0.3v-0.3h0.1v0.1c0.2-0.1,0.2-0.2,0.3-0.3l0.4-0.1l0.1-0.4h0.3
			v-0.1c0.4-0.2,0.2,0.1,0.4-0.4l0.5-0.1v-0.4l0.5-0.1v-0.3h0.4V18h0.3c0.1-0.4,0.3-0.5,0.4-0.9l0.5-0.1v-0.3h0.3v-0.4
			c0.4-0.1,0.3,0,0.4-0.4h0.1l-0.1-0.5h0.3c0-0.5,0.1-0.3,0-0.7l0.4-0.1l-0.1-0.8l0.3-0.1L70,13h0.1v-0.5H70v-0.1h0.1v-0.3h0.1v-0.1
			h-0.1v-1.2H70l0.1-0.4c-0.1-0.1-0.1-0.2-0.1-0.3c0.1,0,0.2-0.1,0.1-0.3c0,0,0,0,0,0l-0.3-0.1V8.9h-0.3l0.1-0.4h-0.1V8.2h-0.3
			c-0.1-0.6-0.2-0.4-0.3-1.1h-0.5l-0.1-0.4l0.1-0.1c-0.3-0.2-0.4-0.5-0.7-0.7V5.8l-0.4,0.1V5.5h-0.5V5.3c-0.3-0.1-0.5-0.2-0.7-0.4
			V4.7h-0.7l-0.1-0.3l-0.3,0.1V4.2c-0.1,0.1-0.3,0.1-0.5,0.1V4.1l-0.3,0.1v0.1h-0.1l0.1-0.3l-1.2-0.4c-0.2-0.1-0.5,0.2-0.5,0.1
			l-0.1-0.4c-0.4-0.2-0.9,0.1-1.1,0l-0.1-0.3l-1.2,0.1V3.1h-0.4V3c-0.3-0.1-0.4,0.2-0.5,0.1V3h-0.4V2.8l-1.3,0.3V3
			c-0.3,0.1-0.5,0.1-0.8,0.1V3h-0.1v0.1L56,3.2L55.8,3l-0.3,0.1V3c-0.2,0,0.1,0.1-0.1,0.1H55v0.1c-0.3,0-0.3-0.3-0.7-0.3v0.1h-0.3
			v0.1c-0.2,0,0.1-0.1-0.1-0.1h-0.5V3c-0.1,0-0.2,0-0.3,0.1c-0.6,0.1-0.6-0.4-1.1,0.1H52L52.1,3l-0.3-0.1L52,2.4h-0.1V2.2h-0.4
			l-0.1-0.9c-0.2,0-0.4,0.1-0.5,0.1V1.2h-0.3c-0.1,0.2-0.3,0.3-0.5,0.4l0.1,1.2c0,0-0.5,0-0.3,0.1h0.3c-0.4,0.2-0.9,0.3-1.3,0.3
			c0,0,0-0.2-0.3-0.1v0.1l-0.4,0.1L48,3.1h-0.1l-0.1,0.4h-0.3V3.2H47c0,0-0.3,0.1-0.1,0.1C47,3.4,47,3.5,47,3.6
			c-0.1-0.1-0.2-0.1-0.3-0.3c-0.3,0.1-0.5,0.3-0.7,0.5h-0.3V3.8h0.3V3.5c-0.2,0-0.4-0.1-0.5-0.1v0.1h-0.3v0.1c-0.1,0-0.2,0-0.3-0.1
			c-0.5,0-0.1,0.2-0.7,0c-0.1,0.3-0.1,0.4-0.3,0.5v0.4C44.4,4.6,44.7,4.8,45,4.9z M54.5,22L54,22.1v0.1h-0.1V22l-0.1,0.1H53
			c0.1-0.4,0.2-0.3,0.3-0.7l-0.4-0.1l0.1-0.5l-0.1-0.1H53c0.2-0.1,0-0.1,0.3-0.1l0.1,0.4c0.2,0.5,0.3,0.1,0.7,0.3
			c-0.4,0.4,0.3,0.3,0.4,0.5L54.5,22z M52.4,5c1.3,0.1,2.7,0.1,4,0v0.3h0.1c0.1,0,0.1-0.4,0.7-0.3v0.1h0.1V5h1.1V4.9L58.8,5V4.7
			l0.4,0.1V5h0.4V4.9h0.1V5h0.9v0.1c0.4,0.1,0.7,0.1,1.1,0.3v0.1c0.2,0,0,0,0.1-0.1l1.1,0.1l0.4,0.5c0,0,0.6-0.2,0.8-0.1v0.1
			c0.2,0.1,0.3,0.1,0.5,0.1v0.3l0.4,0.1v0.1h0.5c0.1,0,0.1,0.3,0.3,0.3V6.9H66l-0.1,0.3H66v0.1h0.4c0.2,0,0,0.2,0.1,0.1V7.3
			c0.2,0.2-0.1,0.4,0.5,0.5c0.1,0.3,0.2,0.7,0.4,0.9h0.1v0.4h0.1v0.3h0.1l-0.1,0.3h0.1v0.3l0.3,0.1L68,10.3c0.1,0.2,0.3,0,0.3,0.4
			c-0.1,0-0.2,0.2-0.1,0.3c0,0,0,0,0,0c0,0,0.2,0,0.3,0.3L68,11.5v0.1h0.1v0.4h0.1c0,0.2,0,0-0.1,0.1l0.1,0.7H68l0.3,0.4H68
			c0.1,0.2,0.1,0.3,0.1,0.5h-0.3c0.3,0.2-0.2,0.7-0.3,0.9V15l-0.3,0.1l-0.1,0.5h-0.1l-0.1,0.3c-0.2,0.2-0.2-0.1-0.4,0.3h-0.3v0.3H66
			c-0.1,0.3,0,0.1-0.1,0.3v0.1h-0.4v0.4c-0.3,0.1-0.3,0-0.4,0.3h0.1v0.1c-0.2,0.2-0.2-0.1-0.4,0.3h-0.4v0.4l-0.8,0.3l-0.1,0.3h-0.3
			V19h-0.5l-0.1,0.3l-0.3-0.1v0.1c-0.2,0.2-0.5,0.3-0.8,0.3v0.3h-0.3v0.3c-0.2,0-0.4-0.1-0.5-0.1v0.1h-0.4v0.1h0.1v0.1h-0.1
			c0,0.1,0,0.2-0.1,0.1v-0.3c-0.2,0.1-0.2,0.2-0.3,0.3h-0.3v0.1h-0.4v0.1h-0.3L58.8,21h-0.1v-0.1l-0.5,0.3v0.1h-0.3v0.1h-0.1v-0.1
			l-0.5,0.3c-0.1-0.2-0.3-0.3-0.5-0.3c-0.1-0.5-0.1-0.2-0.4-0.4v-0.1H56l0.1-0.3h-0.3v-0.3h-0.3c0-0.5-0.1-0.6-0.5-0.7v-0.4
			c-0.2,0.1-0.3,0.1-0.5,0.1c0-0.1,0.1-0.6-0.1-0.4C54.2,19,54.4,19,54.2,19v-0.3c-0.4-0.1-0.3,0-0.4-0.4l-0.5-0.1
			c0.1-0.3,0-0.1,0.1-0.3v-0.1h-0.7c0.1-0.3,0.1-0.6,0-0.9h-0.3v-0.3l0.3-0.1c0-0.1,0-0.2-0.1-0.3c0,0,0,0,0,0c0-0.1,0-0.2,0.1-0.3
			l-0.1-0.5h0.1v-0.1h-0.1v-0.5h-0.1v-0.1h0.1v-0.1h-0.1l0.1-0.9h0.1c0-0.1,0-0.2-0.1-0.3l0.1-0.7h-0.3l0.1-0.5h-0.1v-0.1h0.1
			c0-0.4-0.1-0.8-0.1-1.2h0.1l0.1-0.5h-0.3l-0.1-0.4c0.1-0.1,0.4-0.1,0.3-0.5h-0.1l-0.1-0.4h0.1V8.6h0.1c0.1-0.4-0.2-0.3-0.3-0.4
			l0.1-0.4c0-0.1-0.2,0-0.1-0.3c0,0,0.2-0.1,0.3-0.3h-0.1V7h-0.1V6.1h-0.1V5.9h0.3c0.1-0.1-0.4-0.2-0.4-0.3
			C52.2,5.3,52.3,5.4,52.4,5L52.4,5z"/>
		<path id="パス_289" class="st0" d="M187.2,37.3c0.2,0.2,0.3,0.5,0.4,0.8h0.3c0.1,0.1-0.1,0.1-0.1,0.1c0,0.3-0.1,0.4-0.1,0.5h0.3
			l-0.1,0.3h0.3l-0.1,0.4l0.3,0.1c0.2,0.3-0.1,0.2,0.3,0.4c-0.2,0.1,0,0.1-0.3,0.1c0.2,0.1,0,0.1,0.3,0.1l0.1,0.7
			c0.3,0.1,0.1,0,0.3,0.1h0.1v0.5h0.1c0.2,0.2,0.3,0.4,0.3,0.7h0.4c0.1,0.4,0.2,0.3,0.3,0.7l0.4-0.1v0.3h0.3v0.3l0.5-0.1l0.1,0.4
			h0.3v0.3c0.6,0.1,0.4,0.2,1.1,0.3v0.3l0.4,0.1v0.1h0.5l0.1,0.3h0.7l0.1,0.3l1.6,0.3l0.3-0.1l0.1,0.3c0.1,0,0.2,0,0.3-0.1
			c0,0,0,0,0,0c0.2,0,0.3,0.1,0.3,0.1l0.4-0.1l0.1,0.1l0.3-0.1c0.2,0-0.1,0.2,0.1,0.1v-0.1c0.1,0,0.8-0.1,0.9-0.1v-0.1h0.1l-0.1,0.3
			c0.7-0.2,1.3-0.7,2-0.4v-0.3l1.1-0.1v-0.1l0.4,0.1l0.1-0.3c0.2-0.1,0.1,0.1,0.1,0.1l0.3-0.1c0.2,0.1-0.1,0.1,0.1,0.1v-0.1
			c0.1,0,0.6,0.1,0.4-0.1h-0.1v-0.1c0.2,0.1,0.2,0.2,0.5,0.1c0.2,0-0.1-0.2,0.1-0.1v0.1h0.3V44c0.5-0.1,0.3-0.2,0.9-0.3l0.1-0.4h0.7
			l0.3-0.5h0.4l0.3-0.4h0.3c0.3-0.1,0.2-0.2,0.3-0.5l0.1,0.1c0.1,0,0.4-0.2,0.7-0.3c0.1-0.3,0.1-0.2,0.3-0.4v-0.1l0.7-0.1l0.3-0.4
			h0.3v-0.1h0.3v-0.1l0.4-0.1V40c0,0,0.5,0,0.3-0.1c0-0.2-0.1,0.1-0.1-0.1h0.3c0.1-0.9,0.2-0.4,0.5-0.8l-0.1-0.3l0.3-0.1v-0.4
			c0.1-0.2,0.2,0,0.1-0.1h-0.1v-0.1l0.3,0.1c0-0.1-0.1-0.3-0.1-0.4h0.1v-0.3h0.1l0.3-0.4h-0.3c0.1-0.7,0.4-0.6,0.4-1.5
			c0.4-0.2,0-0.4,0.1-1.1h0.1c0-0.3-0.3-0.2-0.3-0.5h0.1c0-0.2,0.1-0.4,0.1-0.7c0.1-0.3-0.2-0.1-0.3-0.3h0.1c0-0.2,0.1-0.4,0.1-0.7
			h-0.3c0.3-0.2-0.2-0.7-0.1-0.9h0.1l0.1-0.4h-0.1v-0.3l-0.3-0.1v-0.4h-0.1c0-0.4-0.1-0.7-0.1-1.1h-0.3c0.2-0.1,0-0.7,0-1.1h-0.3
			v-0.4H211l0.1-0.4h-0.3l0.1-0.3h-0.3c-0.2-0.7-0.7-0.9-0.8-1.6l-0.4,0.1V25c-0.4,0-0.8-0.2-1.1-0.4l-0.1-0.4l-0.7-0.1l-0.1-0.4
			l-0.3,0.1v-0.1l-0.8-0.1l-0.1-0.4L205,23v-0.1h-0.8l-0.1-0.3l-0.4,0.1v-0.3l-0.4,0.1l-0.1-0.3h-0.4v-0.1h-0.1
			c-0.2,0,0,0.2-0.1,0.1v-0.1c-0.3,0-0.6,0-0.9,0.1v-0.3h-0.4v0.1h-0.3c0.2-0.1,0-0.1,0.3-0.1V22h-0.4v0.1c-0.3,0.1-0.4-0.2-0.5-0.1
			l-0.1,0.3l-0.1-0.1c-0.2,0-0.4,0.1-0.5,0.3h-0.1V22c-0.6,0.2-0.6-0.1-1.1,0v0.1h-0.4v-0.3h-0.5v-0.1h-0.1v0.1h-0.3v-0.4
			c-0.3,0.1-0.5,0.1-0.8,0v-0.1h-0.4l0.1-0.3c-0.4-0.3-0.5,0.4-0.7-0.4c-0.2,0-0.4-0.1-0.5-0.1l-0.1-0.3h0.1v-0.1h-0.1l-0.1-0.3H194
			c0.3-0.4-0.5-0.9-0.4-1.2h0.1v-0.3h-0.4v-0.8c0-0.2,0.1,0.1,0.1-0.1l-0.3-0.1c-0.2-0.3,0.1-0.1,0-0.4h-0.1v-0.4h-0.3v-0.1
			c0.3-0.1,0-0.2,0-0.4c0-0.1,0.2,0,0.1-0.3l-0.3-0.1c0-0.4,0.1-0.9,0.1-1.3h-0.1l0.1-0.7l0.3-0.1L193,13h0.1v-0.3l0.3-0.1l-0.1-0.3
			h0.1l0.1-0.4h0.3v-0.1c0,0-0.2-0.1-0.1-0.3l0.3-0.1v-0.5l0.3-0.1l0.1-0.7l0.3-0.1l-0.1-0.5h0.4c0-0.2,0-0.5,0.1-0.7h0.1V8.3
			l0.3-0.1V7.9h0.1l0.1-0.4h0.3V7.1h0.4c0-0.2,0.1-0.3,0.1-0.3l-0.1-0.4h0.5l0.1-0.4c0.3-0.4,0.6-0.1,0.8-0.8l0.5,0.1V5.1
			c0.2,0,0.4-0.1,0.5-0.3V4.7h0.4V4.6h1.1V4.5l0.8-0.1v0.3c0.7-0.1,1.4-0.1,2.1,0v0.1h0.3l0.1,0.3h0.5l0.1,0.3l0.7,0.1v0.3l0.8,0.1
			v0.3h0.4c-0.3,0.3,0.2,0.5,0.5,0.5c-0.1,0.1-0.1,0.2-0.3,0.3c0.2,0.1,0,0.1,0.3,0.1c0,0.3,0.1,0.6,0.3,0.8h0.1v0.4h0.1l0.4,0.5
			h0.4V9l0.8-0.1c0-0.3,0.1-0.5,0.1-0.8h-0.1l-0.3-0.9L208.1,7l0.1-0.4c-0.3-0.2-0.6-0.3-0.9-0.3V6.2h0.3c0-0.4-0.2-0.7-0.4-0.9
			l-0.3-0.1c-0.1-0.2,0-0.6-0.3-0.8l-0.3,0.1V3.9h-0.4V3.7c-0.2,0-0.4-0.1-0.5-0.1l-0.1,0.1c-0.1-0.1-0.1-0.6-0.3-0.7
			c-0.4-0.1-0.7-0.1-1.1,0V2.7h-0.8c0,0,0-0.2-0.3-0.1v0.1h-0.3V2.5c-0.2,0-0.4,0.1-0.5,0.1c-0.1-0.1,0-0.2-0.3-0.1v0.1h-0.1V2.5
			h-0.4v0.1c-0.2,0-0.8-0.3-1.2-0.1l-0.1,0.3c-0.1,0-0.2-0.2-0.5-0.1v0.1h-0.5v0.1h-0.4V3H198l-0.1,0.3c-0.3,0.2-0.6,0.3-0.9,0.1
			l-0.1,0.4h-0.4l-0.1,0.4h-0.4v0.1h-0.1v0.4h-0.3c-0.1,0.4,0,0.3-0.4,0.4v0.3c-0.7,0.2-0.4,0.4-0.7,0.8l-0.3-0.1v0.4l-0.4,0.3
			c-0.3,0.5,0.3,0.4-0.4,0.7v0.4H193c0.2,0.1,0,0.1,0.3,0.1c-0.2,0.3-0.2,0.2-0.3,0.8h-0.3c-0.1,1-0.7,1-0.7,2.1
			c-0.3,0.1-0.1,0-0.3,0.1h-0.1c0.1,0.1,0.1,0.2,0.3,0.3c-0.3,0.4-0.5,0.3-0.5,0.9h-0.3v0.3H191c0.1,0.2,0.1,0.4,0.1,0.5h-0.3
			c0,0.4,0,0.7-0.1,1.1l0.3,0.5l-0.3,0.1c0,0,0,0.5,0.1,0.3v-0.1h0.1l-0.3,0.9l0.4,0.1c-0.4,0.6,0.4,1.8,0.4,2.7
			c0.3,0.1,0.1,0,0.3,0.1h0.1v0.1h-0.1l0.1,0.4h-0.1c0,0.5,0.1,0.6,0.5,0.7c0.1,0.8,0.4,0.7,0.5,1.5h0.3c0.1,0.4,0.2,0.3,0.3,0.8
			l0.4-0.1v0.1h0.1v0.4h0.1v0.1l0.4-0.1v0.3l0.9,0.1v0.4h0.7v-0.1h0.1l-0.1,0.3l1.3,0.1V24c0.4,0,0.3-0.2,0.8,0v0.1h1.5V24l0.9,0.3
			V24h0.8v0.3l1.1,0.1v-0.1h0.1v0.3l0.4-0.1l0.1,0.3l1.1,0.1v-0.1h0.1l0.1,0.4c0,0,0.4-0.2,0.7-0.1l0.1,0.3h0.1V25
			c0.2,0,0.1,0.2,0.3,0.3l0.3-0.1l0.4,0.5l0.3-0.1v0.1c0.4,0.1,0.3,0.1,0.5,0l0.1,0.4h0.3v0.3h0.3v0.3h0.5V27h0.3
			c0.1,0,0,0.2,0.3,0.3v-0.1h0.1c-0.2,0.6,0,0.2,0.1,0.8h0.3c0,0.4,0.1,0.7,0.1,1.1h0.3l0.1,0.8c0,0.2-0.2-0.1-0.1,0.1l0.3,0.1
			l-0.1,0.3h0.3l-0.1,0.8l0.3,0.1l-0.1,0.3h0.1v0.3h0.1l-0.1,0.3h0.1v0.8c0,0,0.1,0,0.1,0.3h-0.3c0.1,0.1,0.2,0.2,0.3,0.3l-0.1,0.4
			h0.1c0,0.4-0.1,0.9-0.1,1.3h-0.1c0,0.1,0,0.2,0.1,0.3v0.1h-0.1l0.1,0.4l-0.3,0.1v0.4h-0.1v0.1h0.1v0.1c-0.1,0.2-0.5,0.3-0.5,0.5
			h0.1v0.1h-0.3c0,0.4-0.2,0.8-0.4,1.2c-0.3,0.4-0.8,0.5-1.1,0.9h-0.4v0.3h-0.3v0.3l-0.4,0.1c0,0,0-0.3-0.1-0.1l-0.1,0.4h-0.3
			l-0.1,0.3h-0.3v0.1h-0.3v0.1h-0.4v0.1c-0.2,0.1-0.3,0.2-0.5,0.3v0.3c-0.4,0-0.9,0.1-1.2,0.4l-0.1,0.3l-0.1-0.1l-0.8,0.1v0.3
			l-0.1-0.1h-0.1v0.1h-0.7v0.1l-0.4-0.1v0.1l-0.5,0.1v0.1l-0.4-0.1l-0.1,0.3h-0.3v0.1l-0.7-0.1v0.1H199v0.1h-1.1v0.1h-0.7v0.1h-0.1
			v-0.1c-0.6-0.1-0.8-0.2-1.1,0.1h-0.1v-0.4l-1.2-0.1l-0.1-0.3h-0.4l-0.1-0.3h-0.3l-0.1-0.3h-0.4l-0.1-0.3l-0.3,0.1l-0.1-0.4h-0.5
			c-0.1-0.3,0-0.1-0.1-0.3c-0.3-0.2-0.6-0.3-0.9-0.4c-0.1-0.4-0.2-0.3-0.3-0.8c-0.3-0.1-0.1,0-0.3-0.1h-0.1c0-0.3-0.1-0.5-0.1-0.8
			l-0.3-0.1c0-0.3-0.1-0.5-0.1-0.8l-0.3,0.1c-0.1-0.3,0.2-0.3,0.3-0.5l-0.3-0.1c0-0.3-0.1-0.6-0.1-0.9h-0.1
			c-0.3-0.3-0.3-0.1-0.4-0.7c-0.2,0-0.4,0.1-0.5,0.1v-0.1c-0.6,0-0.6,0.1-0.8,0.4h-0.1C187.6,37.2,187.8,37.1,187.2,37.3z
			 M195.8,43.6c-0.3-0.1-0.1,0-0.3-0.1C195.8,43.6,195.6,43.5,195.8,43.6z"/>
		<path id="パス_290" class="st0" d="M1.2,9.4l0.1,0.7h0.1l-0.1,0.4h0.3l-0.1,0.4h0.1l0.1,0.3c0.1,0.2,0.2,0,0.1,0.1H1.7v0.3H2
			c0,0.5,0.1,0.9,0.3,1.3h0.1l-0.1,0.3h0.3l-0.1,0.4h0.1v0.3h0.3c0,0.4,0,0.6,0.3,0.7v-0.1h0.1L3,15l0.3,0.1l0.1,0.9h0.3v0.3h0.1
			c-0.1,0.2-0.1,0.4-0.1,0.5h0.4v0.3H4c0,0.2,0.1-0.1,0.1,0.1v0.5h0.3c0,0.3,0.1,0.6,0.1,0.9h0.3c0.1,0.4,0.1,0.8,0,1.2
			C5,19.9,4.9,20,5,19.8h0.1L5,20.2h0.1v0.1H5v0.1l0.4,0.3c-0.1,0.2-0.2,0.4-0.1,0.7h0.1v0.4L5.7,22v0.5h0.1C6,22.7,6,23,5.9,23.3
			h0.3l0.1,0.5H6.1V24h0.1v0.3h0.1l0.1,0.4H6.3v0.3h0.3c0.1,1.2,0.8,2,0.5,2.9L7.5,28l-0.1,1.2c-0.2,0-0.5,0-0.7,0.1v0.1l-0.3-0.1
			v0.1H6.1L6,29.7l-0.4-0.1v0.3H5.2v0.3H5.1l0.1,0.8H5.1c0.1,0.4,0.1,0.4,0.5,0.5v-0.3h0.3v0.3c0.9-0.1,1-0.4,2-0.4
			C7.9,31.3,8,31.2,8,31.3l-0.1,0.3H8v0.1h0.3v0.1H8.1c0,0.2,0.3,0.2,0.3,0.3S8.3,32.9,8.3,33c0.3,0.1,0.1,0,0.3,0.1h0.1
			c0.1,0.2-0.1,0.6-0.1,0.7L8.9,34c-0.1,0.3,0,0.1-0.1,0.3c0,0.3,0,0.3,0.1,0.5h0.1v0.4h0.1l-0.1,0.1l0.1,0.5h0.3v0.7l0.3,0.1
			l-0.1,0.5h0.3v0.4h0.3c-0.2,0.2,0.2,0.8,0.3,1.1l-0.1,0.4c0.2,0.1,0.2,0.2,0.5,0.3c-0.1,0.3,0,0.1-0.1,0.3l0.1,0.4h0.1v0.3
			l0.3,0.1l0.1,0.5h0.1l-0.1,0.3l0.4,0.1v0.9l0.3,0.1v0.3h0.1L12,43.1h0.1v0.5h0.1v0.5h0.1v0.3h0.1v0.1h-0.1v0.8h0.4l-0.1,0.4
			l0.1,0.1L12.5,46l0.1,0.4h0.3v0.4h-0.1c0.2,0.2,0,0.1,0.3,0.1c-0.1,0.3,0,0.1-0.1,0.3c0,0.3,0,0.5,0.1,0.7h0.3l-0.1,0.4l0.4,0.1
			c0,0.3-0.1,0.4-0.1,0.5h0.3v0.1h-0.1l0.1,0.4h0.1v0.4H14v0.5h0.1v0.3h0.1c0.2,0.4,0,0.3,0,0.5h0.1l0.1,0.5h0.3
			c-0.1,0.2-0.1,0.4-0.1,0.7l0.5,0.1v0.3h-0.1c0,0.2,0.1-0.1,0.1,0.1v0.7h0.3v0.5c0.3,0.1,0.1,0,0.3,0.1h0.1
			c-0.1,0.1-0.1,0.2-0.3,0.3v0.1H16v0.1h0.1L16,55.2h0.3c0.1,0.3,0,0.1,0.1,0.3c0.1,0.4,0,0.3,0.4,0.4v0.5c0.3-0.3,0.4,0.5,0.7,0.7
			h0.4l-0.1,0.3H18c0.3,0.1,0.3,0.3,0.4,0.7c0.2,0,0.5,0,0.7,0.1v0.3c0.3,0,0.3,0.1,0.3,0.1c0.1,0,0.4-0.3,0.7-0.1v0.1
			c0,0,0.5,0,0.3-0.1c0,0,0,0,0-0.1l0,0c0,0-0.1,0.1-0.1-0.1l0.1,0.1c0,0,0,0,0,0l0.3,0.2v-0.1h0.1c-0.2-0.4-0.1-0.4,0-0.8
			c-0.1-0.1-0.2-0.2-0.3-0.3c-0.2-0.1-0.2,0.1-0.3,0.1l-0.4-0.1l0.1-0.7h-0.3l-0.1-0.4h-0.1l-0.1-0.4H19l0.1-0.3h-0.4l-0.3-0.8h0.1
			v-0.1c-0.2-0.1-0.4,0-0.5-0.1v-0.3h-0.1c-0.2-0.4,0.1-0.2-0.4-0.4c0-0.2-0.1-0.4-0.1-0.5h0.1v-0.1l-0.3-0.1v-0.3L17,52.7l-0.1-1.1
			h-0.1v-0.3l-0.3-0.1l-0.1-0.8H16c0-0.3,0.1-0.4,0.1-0.5l-0.4-0.3l0.1-0.3h-0.1v-0.8l-0.4-0.3v-0.6l-0.3-0.1v-0.4h-0.1v-0.1h0.1
			v-0.8h-0.4c0-0.6,0-0.9-0.3-1.2c0-0.2,0.3-0.2,0.3-0.3c0-0.2-0.2-0.4-0.3-0.5h-0.3l0.1-0.3h0.1v-0.1h-0.1v-0.4h-0.1
			c0-0.2,0.3-0.4,0-0.7l-0.3,0.1c0.1-0.4,0.2-0.3,0.3-0.7h-0.3c-0.1-0.7-0.4-0.7-0.1-1.3h-0.3c-0.1-0.4-0.2-0.3-0.3-0.8h-0.3
			c0-0.2,0.1-0.4,0.1-0.5l-0.4-0.1l-0.3-1.3h-0.3L12,37.7h0.1v-0.1c-0.1-0.1-0.3-0.1-0.4-0.3c0.2-0.2,0.2-0.1,0.3-0.4h-0.3v-0.5
			h-0.3v-0.7l-0.3-0.1c0-0.2,0.2-0.2,0.1-0.5l-0.3-0.1c-0.2-0.5,0.2-0.3-0.3-0.7v-0.5l-0.3,0.1c0.3-0.8-0.1-0.9-0.1-1.7h-0.3
			c0.1-0.2,0.1-0.4,0.1-0.7H10l0.1-0.5l0.5-0.1c0.2,0-0.1,0.1,0.1,0.1v-0.1h0.1v0.1h0.7V31h0.1v-0.1l0.4-0.1c0.5,0.2,1,0.2,1.5,0V31
			c2.4-0.2,3.5,0.2,5.6-0.3c0.5-0.1,0.5,0.2,0.5,0.3c0.2-0.1,0.4-0.1,0.5-0.1v-0.3c0.2,0,0.5,0,0.7,0.1v0.1c0.2,0,0.2-0.3,0.3-0.3
			l0.9-0.1v-0.1h0.1l-0.1,0.4c0.2-0.1,0,0,0.1-0.1h1.3c-0.2-0.1,0-0.1-0.3-0.1v-0.1l0.7,0.1v0.1l0.8-0.1v-0.1l0.8,0.1v-0.1h0.8v-0.1
			c0.3,0,0.3,0.1,0.3,0.1c0.5,0.1,0.9,0,1.3-0.3c0,0,0.5,0,0.3,0.1c0,0.2-0.1-0.1-0.1,0.1l1.1-0.1v-0.1l0.4,0.1c0,0,0-0.5,0.1-0.3
			c0,0.1-0.1,0.3,0.1,0.3v-0.1h0.9V30c0.2,0,0.9,0.3,1.1,0.3v-0.1h0.4V30H33v-0.1h0.1l0.3-1.2l-0.3-0.1v-0.3l-0.4-0.1l-0.1,0.1V28
			l-0.8,0.1V28h-0.1l-0.1,0.3c-0.2,0.1,0-0.1-0.1-0.1c-0.2,0-0.2,0.2-0.5,0.1c0,0,0-0.2-0.3-0.1v0.1L30,28.1V28l-1.6,0.5h-0.1v-0.4
			h-0.1v0.3h-0.5v-0.1h-0.1v0.3h-0.1v-0.3l-0.7,0.1v0.1c-0.1,0-0.2,0-0.3-0.1h-0.1v0.1c-0.3,0.1-0.4-0.1-0.4-0.1l-0.4,0.1
			c-0.2-0.1,0.1-0.1-0.1-0.1v0.1h-0.5l0.1-0.3c-0.4,0.1-0.7,0.3-1.1,0.4h-1.2v-0.1L22,28.6v-0.1h-0.1v0.1h-0.5v0.1l-0.5-0.1
			c-0.1,0,0,0.3-0.4,0.3v-0.1h-0.5v0.1h-0.8c0,0,0,0.2-0.3,0.1v-0.1h-0.1V29h-0.1v-0.1c0,0-0.5,0-0.3,0.1h0.1v0.1
			c-0.4-0.1-0.3-0.1-0.7,0v-0.3c-0.2,0-0.4,0.1-0.5,0.1l-0.1-0.1v0.3L16.7,29v-0.1L16.6,29c-0.3,0-0.3-0.1-0.3-0.1
			C16,28.8,16,29,15.9,29l-0.4-0.1v0.3c-0.5,0-0.7,0.2-1.2,0V29l-0.7-0.1V29h-0.3v0.1c-0.2,0-0.2-0.3-0.3-0.3
			c-0.6-0.2-0.5,0.3-0.9,0.3V29h-0.4v-0.1c-0.4-0.1-0.9,0.2-1.1,0.1l-0.1-0.3h-0.3V29c-0.3-0.1-0.6-0.2-0.9-0.1l0.1-0.5H9.3v-0.3
			H9.2l-0.1-1.3H8.8L8.9,26H8.8l-0.1-0.8H8.4l0.1-0.4H8.4v-0.1c0-0.2,0.2,0.1,0.1-0.1s-0.2,0.1-0.1-0.1h0.1v-0.1l-0.3-0.1v-0.7
			c-0.1,0.2-0.1,0-0.1,0.3H8c-0.2-0.3,0.1-0.8,0.1-0.9H7.9c-0.1-0.6-0.3-0.5-0.3-1.2c-0.3-0.1-0.1,0-0.3-0.1h0.3V21
			c-0.3-0.1-0.1,0-0.3-0.1H7.2v-0.1c0.3-0.2,0-0.2,0-0.4h0.1v-0.1H7.1l-0.1-0.7h0.1v-0.1l-0.3-0.1l0.1-0.4l-0.4-0.3l0.1-0.4
			l-0.3-0.1v-0.4L6,17.4l0.1-0.3H6v-0.5H5.9v-0.3H5.7v-0.4l-0.3-0.1v-0.5L5.1,15l0.1-0.5l-0.3-0.1l-0.1-0.8H4.5c0-0.4,0.2-0.3,0-0.7
			l-0.3-0.1v-0.7L4,11.9L3.9,11H3.7v-0.3H3.6v-0.4C3.4,10,3.3,9.6,3.2,9.1L4.7,9c0.1,0.1,0.2,0.2,0.3,0.3V9l0.4,0.1
			C5.4,9.1,5.3,9,5.6,9c0.2,0-0.1,0.2,0.1,0.1l0.1-0.3l0.5,0.3V8.9L6.7,9c0,0,0-0.1,0.3-0.1V9h0.1V8.7c0,0,0.4,0.2,0.7,0.1V8.7
			l0.4,0.1l0.1-0.3C8.6,8.5,8.8,8.8,9,8.7V8.6l0.5-0.1V8.3c0.2,0,0,0,0.1,0.1l1.1-0.1l0.1-0.3H11v0.1h0.1V8.1c0.1,0,0.2,0,0.3,0.1
			l0.8-0.1c0.2-0.4,0.4-0.1,1.1-0.3V7.7h0.7V7.5h0.3V7.4h0.1v0.1h0.1V7.4h0.7v0.1l0.4-0.1v0.1h0.1V7.3L17,7.5V7.3
			c0.3,0,0.4-0.1,0.5-0.1c0.2,0.1-0.2,0.2,0.1,0.3V7.3L18,7.1v0.1h0.4v0.1h0.1V7.3l1.1-0.1v0.3l1.2-0.1V7.1h0.3V7
			c0.4,0,0.9,0,1.3,0.1l0.1-0.3L22.8,7V6.9l0.3-0.1V7L24,6.9V6.7c0.4-0.1,1.2,0.2,1.3,0.1l0.1-0.3h0.5v0.1h0.1V6.6h0.5
			c0.2,0-0.1,0.1,0.1,0.1V6.6h0.3V6.5h0.9l0.1-0.3c0.3-0.1,0.5,0.1,0.7,0.1V6h0.4v0.3h0.3c0,0,0-0.5,0.1-0.3c0.2,0-0.1,0.1,0.1,0.1
			V5.9l0.4,0.1V5.9h0.4c0,0,0.3-0.1,0.1-0.1c-0.1-0.1-0.1-0.2-0.1-0.3L31,5.4c0-0.3,0-0.4-0.1-0.5h-0.3c0.1-0.2,0.1-0.4,0.1-0.5
			L29,4l-0.1,0.3c-0.3,0.1-0.6-0.2-1.1,0v0.1h-0.4v0.1l-1.1-0.1l-0.1,0.3l-0.3-0.1c0,0,0,0.2-0.3,0.1c0-0.1-0.2-0.2-0.3-0.1v0.1
			h-0.1V4.6h-0.1L25,4.9h-0.1V4.7H24V5c-0.7-0.1-1.4-0.1-2,0.1L21.8,5c0,0-0.1,0.2-0.3,0.3V5.1h-1.1v0.1l-0.3-0.1v0.3H20V5
			c-0.1,0.1-0.2,0.2-0.3,0.3h-0.3v0.1l-0.4-0.1v0.1c-0.6,0.1-0.9-0.5-1.3,0.1h-0.4V5.4h0.1V5.2h-0.1V5.1L17,5.2v0.1
			c-0.3,0.1-0.5-0.1-0.7-0.1v0.1l-1.2,0.1V5.2l-0.4,0.3V5.4l-1.2,0.4V5.6c-0.3,0-0.3,0.3-0.7,0.3V5.8l-1.2,0.1l-0.1,0.3
			c-0.2,0.1-0.2-0.1-0.3-0.1L11,6.2C10.9,6.1,10.7,6,10.6,6v0.1h-0.3l-0.1,0.3H9.8v0.1L9.1,6.7V6.5C8.7,6.5,8.8,6.7,8.7,6.7H8.2v0.1
			L7.9,6.7H7.8v0.1H7.1V7H6.4v0.1H6v0.1C5.6,7.3,5.8,7.1,5.6,7L5.2,7.1v0.1L4.9,7.1v0.1c-0.1,0-0.6,0.1-0.4-0.1C4.7,7,4.7,7.2,4.7,7
			H4.1v0.1H4V7C3.7,7,3.7,7.1,3.7,7.1H2.7V7L2.4,7.1V6.9c0,0-0.5,0-0.3,0.1h0.1v0.1c-0.4,0-0.7,0.1-1.1,0.3v0.3H0.9V9l0.4,0.3
			L1.2,9.4z"/>
		<path id="パス_291" class="st0" d="M27.2,4.5V4.3H27C27.1,4.5,27,4.4,27.2,4.5z"/>
		<path id="パス_292" class="st0" d="M141.9,7c0.1,0.2-0.2,0.1-0.3,0.1c0.2,0.1,0,0.1,0.3,0.1v0.4l0.8,0.1V7.7h0.1v0.1h0.3v0.1
			c0.3,0,0.6,0,0.9-0.1V7.7l0.1,0.1h0.1c0.2,0-0.1-0.2,0.1-0.1v0.1c0.1,0,0.8-0.3,1.1-0.1v0.1h0.1l-0.1-0.4c0.5,0.1,1,0.1,1.5,0v0.3
			h0.4c0,0,0-0.5,0.1-0.3v0.1h0.1V7.3c0.2,0,0.4,0,0.5,0.1v0.1l0.7-0.1v0.1h0.1V7.4h0.9V7.3h0.1l-0.1,0.3c0.4,0,0.4,0,0.5-0.3
			c0.4,0.2,0.1,0,0.1,0.4l0.1-0.1l0.4,0.1c0.2-0.2-0.1-0.3,0.4-0.4c0.2,0.1,0,0.1,0.3,0.1v0.3c0.2,0.2,0.1-0.2,0.1-0.3l0.3,0.1
			l0.1-0.3h0.1l0.1,0.4c0.3,0.2,0.8-0.1,0.9-0.1h0.7v0.1l1.2-0.1v0.3h0.4V7.7c0.1,0,0.6-0.1,0.4,0.1h-0.1v0.1l0.7-0.1V7.7
			c0.3,0,0,0.3,0.3,0.3V7.8h0.3V7.7l0.4,0.1V7.7h0.1v0.1h1.2v0.1h0.5v0.1h0.1c0.2,0-0.1-0.1,0.1-0.1c0.3,0,0.6,0,0.9,0.1V7.9h0.1
			v0.3h0.3V9h0.1l-0.1,0.4h0.3c-0.1,0.3-0.1,0.5,0,0.8h0.1l-0.1,0.3h0.1v0.4h0.1l-0.1,0.4c0,0,0.5,0,0.3,0.1c0,0.2-0.2,0-0.1,0.1
			h0.1v0.3h0.1c0,0.2-0.3,0.5-0.1,0.8h0.1v0.3h0.1l-0.1,0.3h0.1v0.3h0.1v0.9h0.1v0.3h0.1l-0.1,0.1c0,0.4,0.4,0.6,0.1,0.9v0.5
			l0.3-0.1l-0.1,0.7l0.3,0.1l-0.1,0.4h-0.1l0.1,0.4c0,0-0.2,0-0.1,0.3l0.3,0.1c0,0.2-0.1,0.2-0.1,0.5h0.3v0.3l-0.3,0.1
			c-0.1,0.2,0,0,0.1,0.1l-0.1,0.8h0.3l-0.1,0.4c0,0.1,0.3,0.1,0.3,0.3h-0.3c0,0.2,0.2,0.3,0.1,0.7c-0.1,0.1-0.2,0.3-0.1,0.4
			c0,0,0.2,0,0.1,0.3c-0.1,0-0.2,0.2-0.1,0.3h0.1v0.3h0.1v0.1H163c-0.1,0.8-0.1,0.9,0.1,1.5l-0.3-0.1v0.1c-0.2,0.1,0,0-0.1,0.1h0.3
			v0.7c0,0-0.2,0-0.1,0.3h0.1l0.1,0.4H163v0.7h-0.1v0.1h0.1v0.3h0.1c0.1,0.2,0.1,0.2,0.1,0.5H163c0.1,0.2,0.2,0.2,0.3,0.3l-0.1,0.1
			v0.7h0.1c0.1,0.1,0,0.3-0.1,0.4c0,0.3,0.1,0.7,0.3,0.9l-0.3-0.1v0.3h0.3c-0.1,0.3-0.1,0.7,0,1.1h0.1c0.1,0.4-0.2,0.3-0.3,0.5
			c0.3,0.6,0.4,1.3,0.4,2h0.3l-0.1,0.4h-0.1v0.1h0.1v0.8h0.1v0.3h0.1l0.1,0.9h0.1v0.7l0.4,0.1c0.1,0.2-0.1,0.1-0.1,0.1l-0.1,0.3
			c0.1,0.2,0.2-0.1,0.1,0.1h-0.1v0.4h0.3l-0.3,0.5l0.3,0.1l-0.1,0.7h0.1v0.4l0.3,0.1l-0.1,0.1l0.1,0.5c0,0-0.5,0-0.3,0.1h0.1v0.4
			h0.3c-0.3,0.2,0.2,1.2,0.3,1.6l0.7-0.1c-0.1,0.3,0,0.1-0.1,0.3v0.1c0.5-0.2,0.3-0.3,0.9-0.4c0-0.2,0.2-0.4,0.4-0.5v-0.3l-0.4-0.1
			L167,40l-0.3-0.1l0.1-0.3h-0.1c0-0.2,0.3-0.2,0.1-0.5l-0.3-0.1v-0.3h-0.1c0-0.2,0.2-0.2,0.3-0.3c0-0.2-0.1,0.1-0.1-0.1v-0.8h-0.1
			c0-0.3,0.1-0.5,0.1-0.8l-0.3-0.1v-0.3h-0.1c-0.1-0.2,0.1-0.3,0.1-0.3c0-0.2-0.1,0.1-0.1-0.1v-0.5h-0.1l0.1-0.3h-0.1v-0.4l-0.3-0.1
			l0.1-0.7h-0.1c0-0.1,0.1-0.6-0.1-0.4v0.1h-0.1v-0.3l0.3-0.1c0-0.2-0.2-0.2-0.3-0.3l0.1-0.7h-0.3c0-0.4,0.1-0.7,0.1-1.1h-0.3
			c0-0.3,0.1-0.5,0.1-0.8h-0.1v-1.2h-0.1V29c0.1,0,0.2-0.2,0.1-0.3c-0.1,0-0.2-0.2-0.1-0.3h0.1v-0.3H165c0-0.4,0.1-0.7,0.1-1.1H165
			v-1h0.1V26H165l0.1-0.3H165v-0.3h-0.1c0-0.1,0.2-0.4,0.1-0.7c0,0-0.2,0-0.3-0.3h0.1c0-0.2,0.1-0.4,0.1-0.7h-0.3
			c0.3,0,0.3-1.5,0.3-2l-0.1-0.1c0-0.2,0.1,0.1,0.1-0.1c0.1-0.7-0.3-0.3,0.1-0.9c-0.1-0.5-0.7-0.2-0.1-0.8c0,0,0-0.5-0.1-0.3v0.1
			h-0.1c0.3-0.9-0.2-2.5-0.3-3.9h0.3v-0.3l-0.4-0.1c0-0.3,0.1-0.6,0.1-0.9h-0.4c0.1-0.3,0-0.2,0.3-0.4l-0.1-0.4h-0.1l0.1-0.3h-0.1
			c-0.1-0.2,0.2-0.5,0.1-0.5H164l-0.3-0.4h0.3l-0.1-0.5l-0.3-0.1l0.1-0.4h-0.3l0.1-0.9l-0.4-0.1l0.1-0.4h-0.1V9.4H163V9.3h0.1V9
			h-0.4c0.1-0.2,0.2-0.1,0.3-0.1l-0.1-0.4h-0.1V8.3l1.1-0.1l0.1,0.3l0.8-0.1v0.1h0.4v0.1l0.3-0.1h0.1v0.1l0.3-0.1
			c0.2,0-0.1,0.1,0.1,0.1h0.9V8.3c0.3,0.2,0,0.1,0.1,0.4l0.3-0.1l-0.1,0.3h0.5V8.6c0.3,0,0.9,0.1,0.9,0.1c0.1,0,0.1-0.4,0.7-0.3v0.1
			l1.2,0.1c0-0.1,0.2-0.2,0.3-0.1v0.1h0.3V8.5c0.3,0.1,0.2,0,0.4,0.3h-0.1c0,0.2,0.1,0.1,0.3,0.1V8.6h1.1v0.1h0.1V8.6h0.4V8.5
			c0.2,0-0.1,0.1,0.1,0.1h0.9V8.5h0.1v0.1c0.3,0.1,0.4-0.2,0.5-0.1c0,0,0.2,0.2,0.3,0.3l0.1-0.4c0.3-0.1,0.3,0.2,0.4,0.3h1.2V8.5
			c0.4,0.1,0.8,0.1,1.2,0.1c1.2-0.1,2.4-0.1,3.6,0l-0.1-0.5l0.4-0.1V7.5l-0.4-0.1l-0.1-0.7h-0.8l-0.1-0.3c-0.4-0.1-0.3,0.4-0.8,0.3
			l-0.1-0.3l-0.8,0.1v0.1l-0.1-0.1c-0.2,0-0.2,0.1-0.5,0.1V6.5H178c0,0.2-0.6,0.2-0.8,0.1V6.5l-0.4,0.1l-1.5-0.1v0.3h-0.5V6.5
			c-0.2,0.1-0.4,0.2-0.7,0.3V6.6H174v0.1l-0.4-0.1l-0.3,0.1c0,0,0-0.2-0.3-0.1v0.1h-0.1l-0.1-0.3L172,6.6l-0.1,0.3h-0.1l0.1-0.3
			l-0.7,0.1v0.1l-2.4-0.4v0.3l-0.7-0.1c0,0,0,0.2-0.3,0.3l-0.1-0.3h-1.6V6.5l-0.8,0.1V6.5h-0.7V6.3l-0.3,0.1l-0.1-0.3
			c-0.4-0.1-0.3,0.2-0.4,0.3c-0.5,0.2-0.5-0.4-0.7-0.4c-0.3-0.1-0.4,0.3-0.4,0.3c-0.4,0.1-0.3-0.2-0.4-0.3h-0.5V5.8h-0.1v0.1
			L161,5.8v0.3c-0.2-0.2,0-0.2-0.1-0.3c-0.1-0.1-0.3,0.3-0.5,0.3V5.9l-1.6-0.1l-0.1,0.3h-0.3V5.8c-0.2,0-0.4,0.1-0.5,0.1
			c0-0.1-0.2-0.2-0.3-0.1v0.1l-0.8-0.1c-0.1,0-0.1,0.3-0.3,0.3V5.9h-0.3c0,0,0-0.5-0.1-0.3v0.1H156V5.5c-1.2,0.2-1.7-0.1-2.7,0.3
			V5.5c-0.2,0-0.4-0.1-0.5-0.1v0.1l-0.5,0.1V5.3h-0.1v0.3l-0.7-0.1v0.1h-0.1V5.4h-0.1v0.1l-0.7-0.1v0.1h-0.4v0.1
			c-0.4,0.1-0.3-0.2-0.4-0.3l-0.9,0.1l-0.3-0.1v0.1c-0.1,0-0.6,0.1-0.4-0.1h0.1V5.3c-0.2,0-0.4,0.1-0.5,0.1v0.1l-0.1-0.1H147v0.3
			c-0.2-0.1-0.4-0.2-0.7-0.1c-0.5,0.1-1.1,0.1-1.6,0v0.3l-1.1,0.1v0.1l-0.3-0.1c0,0,0,0.2-0.3,0.1V5.9H143v0.1
			c-0.3,0.2-0.6,0.3-0.9,0.3c-0.1,0.3-0.1,0.3-0.3,0.5h-0.1C141.5,7.1,141.9,7,141.9,7z"/>
		<path id="パス_293" class="st0" d="M150.3,5.4V5.3h-0.3C150.2,5.4,150.1,5.3,150.3,5.4z"/>
		<path id="パス_294" class="st0" d="M121.1,8.1l0.3,0.1v0.1h-0.1c0,0.5,0.5,0.7,0.3,0.9c0,0.3,0.1,0.3,0.1,0.3v0.7l0.4,0.1
			c0.1,0.1-0.1,0.1-0.1,0.1l0.1,0.4h0.1c0.1,0.3-0.1,0.5-0.1,0.7c0.1,0.1,0.3,0.2,0.4,0.4h-0.1l0.1,0.3h-0.1c0,0.1-0.1,0.6,0.1,0.4
			v-0.1h0.1c-0.1,0.3-0.1,0.6,0,0.9l0.3,0.1l-0.1,0.4l0.3,0.1v1.1h0.1c0.1,0.4,0.1,0.3,0,0.5h0.3v1.2l0.3,0.1l-0.1,0.4h0.1v0.8h0.1
			v0.7h0.1l-0.1,0.3h0.3v0.1h-0.1c-0.1,0.7,0.4,0.7,0,1.1v0.3l0.4-0.1v0.7c0,0.2-0.1-0.1-0.1,0.1c0.1,0.1,0.2,0,0.1,0.3h-0.1v0.1
			h0.1v0.7h-0.1c0,0.2,0.2,0.2,0.3,0.3v0.1h-0.1v0.1h0.1c0,0.3-0.2,0.4-0.3,0.5l0.4,0.1c-0.1,0.2-0.2,0.5-0.1,0.8h0.1l-0.1,0.4h0.1
			l-0.1,0.4c0,0.3,0.1,0.3,0.1,0.3c0.1,0.3-0.1,0.3-0.1,0.4l0.1,0.4h-0.1v0.1h0.1v0.5h0.1c0.1,0.3-0.2,0.4-0.3,0.7l0.3,0.1v0.1h-0.1
			V28h0.1l-0.1,0.8c0.3,0.1,0.1,0,0.3,0.1h0.1l-0.3,0.5h0.1v0.3h0.1v0.8h0.1c0,0.5,0.1,1.1,0.1,1.6h0.3c0,0-0.2,0.3-0.1,0.5l0.3,0.1
			v0.5h0.1v0.4h0.1l0.1,0.4l0.3,0.1V34h0.3v0.3h0.3v-0.1c0.1,0,0.2,0,0.3,0.1c0.2,0,0.6-0.3,0.7-0.4h0.1l-0.1-0.3h0.1v-0.1h-0.1
			v-0.1h0.1v-0.5h-0.1l-0.3-0.8c0,0,0.2-0.1,0.1-0.3l-0.4-0.3v-0.4h-0.1v-0.3h-0.1v-0.1h0.1v-0.1h-0.1v-1.1l-0.3-0.1
			c0.1-0.3,0.2-0.6,0.1-0.9h-0.1v-0.1h0.1v-0.1h-0.3c0.1-0.5,0.1-1.1,0-1.6h-0.1l0.1-0.3h-0.1v-1.3c0,0,0.2,0,0.1-0.3
			c0-0.2-0.1,0-0.1-0.1v-0.8c-0.3-0.1-0.1,0-0.3-0.1h0.3l-0.1-0.8c0,0,0.2,0,0.1-0.3h-0.1v-0.4h-0.1l0.1-0.8h-0.1
			c-0.1-0.5-0.1-1.1,0-1.6h-0.3v-0.3c0.1-0.1,0.2,0,0.1-0.3l-0.3-0.1c-0.1-0.3,0.2-0.4,0.1-0.5c-0.1-0.1-0.2-0.3-0.1-0.4h0.1V18
			h-0.3v-0.1h0.1v-0.3h-0.3c0-0.6-0.1-1.2-0.1-1.7h-0.1v-0.5h-0.1l0.1-0.5h-0.3c0-0.4,0.2-0.4,0-0.7h-0.3c0.4-0.4,0-0.7,0-1.5h-0.3
			v-0.5h-0.1V12h0.1v-0.3h-0.3l-0.1-0.5h0.3v-0.3h-0.4V9.9l-0.3-0.1c0-0.2,0.1-0.4,0.1-0.7h-0.1l-0.1-0.7h-0.3
			c-0.1-0.3-0.1-0.5,0-0.8h-0.3V7.5h0.1l-0.1-1.1h-0.1l-0.1-0.8h0.1V5.5l-1.1-0.1v0.3c-0.6,0.2-0.2,0.3-0.7,0.7
			c-0.1,0.5-0.1,1,0.1,1.5L121.1,8.1z"/>
		<path id="パス_295" class="st0" d="M146.3,7.7V7.5h-0.3C146.2,7.7,146.1,7.6,146.3,7.7z"/>
		<path id="パス_296" class="st0" d="M175.6,8.6h-0.3c0.2,0.2,0,0.1,0.3,0.1V8.6z"/>
		<path id="パス_297" class="st0" d="M110.9,39.3l0.3-0.1l-0.1-0.4h0.1v-0.3h0.1v-0.3l0.3-0.1c0.1-0.3-0.2-0.4-0.1-0.5l0.3-0.1
			l0.1-0.4h0.1l-0.1-0.4h0.1v-0.5h0.1v-0.8h0.1l-0.1-0.4l0.3-0.1l-0.1-0.5h0.1V34h0.1l-0.1-0.8h0.1v-0.3h0.1c0-0.2-0.2-0.5-0.1-0.9
			h0.1c0-0.2-0.1,0.1-0.1-0.1c0-0.5,0.1-1,0.1-1.5h0.1l0.1-0.4h-0.3l-0.1-0.4h0.1v-0.7h0.1l-0.1-0.4h0.1V28h-0.1
			c-0.1-0.3,0.1-0.6,0.1-0.7l-0.3-0.1l0.1-0.1v-1.2h-0.3l0.1-0.9h-0.4c0.2-0.5,0.2-1,0-1.5H112v-0.5h-0.1v-1.1l-0.3,0.1l-0.1-0.4
			h0.1v-0.1l-0.3-0.1l0.1-0.4h-0.3c0-0.2,0.1-0.4,0.1-0.5H111c0-0.3,0-0.4-0.1-0.5h-0.1l0.1-0.3l-0.4-0.1v-0.7h-0.1l-0.1-0.5h-0.1
			l0.1-0.4l-0.4-0.1c0.3-0.5-0.3-0.2-0.1-0.7h0.1v-0.1h-0.4l-0.1-0.7h-0.1v-0.5H109c-0.1,0.2,0.1,0.1-0.1,0.1v-0.3h-0.1
			c-0.2-0.3,0.1-0.3-0.4-0.4l-0.1-0.4c0.4-0.1-0.5-0.3-0.5-0.4v-0.3l-0.3-0.1v-0.3l-0.4-0.1c-0.2-0.3-0.3-0.6-0.4-0.9h-0.3v-0.3
			c-0.3-0.1-0.1,0-0.3-0.1H106v-0.4h-0.5l-0.1-0.4c-0.4,0-0.3-0.2-0.7,0v0.1l-0.3-0.1v0.1c-0.2,0.1-0.3,0.2-0.4,0.4h0.1v0.1
			l-0.3,0.1L104,13h0.3l0.3,0.4l0.4,0.1l-0.1,0.3l0.4,0.1l-0.1,0.3h0.1v0.1h0.4c-0.1,0.3,0,0.1-0.1,0.3v0.1c0.2,0.1,0.4,0,0.5,0.1
			c0.2,0.3-0.1,0.3,0.3,0.5v0.3h0.4c0.1,0.3,0.2,0.5,0.4,0.7h0.1v0.3h0.1l0.1,0.7h0.3v0.7c0.3,0.1,0.3,0.1,0.5,0.3
			c-0.1,0.3-0.1,0.6,0,0.9l0.5,0.1c-0.1,0.2-0.1,0.3-0.1,0.5c0.3,0.1,0.1,0,0.3,0.1h0.1c-0.1,0.2-0.1,0.1-0.3,0.3
			c0.2,0.2,0,0.1,0.3,0.1V21h0.3v0.4h0.3c-0.1,0.2-0.1,0.5,0,0.7h0.1v0.4l0.3,0.1v0.1h-0.1l0.3,0.8L110,24h0.1v0.3h0.1l-0.1,0.4
			l0.4,0.3l-0.1,0.5h0.1v0.4h-0.3c0.1,0.1,0.1,0.4,0.1,0.5h0.1v0.3l0.3,0.1l-0.1,0.8c0,0,0.2,0.1,0.1,0.4h-0.1
			c0,0.4,0.3,0.3,0.3,0.5h-0.1v0.4h-0.1c0,0.2,0.1,0.2,0.1,0.3v0.5h-0.1c-0.1,0.4,0.4,0.3,0.3,0.7l-0.3,0.1c0,0.5-0.1,1-0.1,1.5h0.1
			v0.1l-0.3,0.1c0,0.3,0.4,0.4,0.3,0.8h-0.1v0.3h-0.1v1.3h-0.1c0,0.4-0.1,0.9-0.1,1.3H110v0.3h-0.1l0.1,0.3h-0.3
			c0,0.4,0.2,0.4,0,0.7l-0.3,0.1c-0.1,0.3,0.2,0.5,0.1,0.7h-0.1v0.3c-0.1,0.1-0.2,0-0.3,0.3h0.1v0.1H109l-0.1,0.4l0.1,0.1h-0.3
			l-0.1,0.8l-0.3-0.1v0.3c-0.2,0.3-0.4,0.6-0.5,0.9h-0.4v0.3l-0.4,0.1l-0.8,1.1h0.1v0.1l-0.3-0.1c-0.4,0.7-1.2,0.7-1.5,1.6
			c-0.5,0.1-0.1,0.1-0.4,0.4l-0.3-0.1v0.1l-0.5,0.4v0.3c-0.2-0.1-0.4-0.1-0.7-0.1v0.4h-0.5v0.3c-0.2,0-0.4,0-0.5,0.1V46l-0.3-0.1V46
			l-1.3,0.3v-0.1H100v0.1h-0.4v0.1c-0.2,0-0.2-0.1-0.3-0.1c-0.5-0.1-0.8-0.1-1.1-0.4c-0.4-0.1-0.3,0-0.4-0.4
			c-0.5-0.1-0.7-0.2-0.8-0.7h-0.3c0-0.3-0.2-0.7-0.4-0.9L96.1,44v-0.2l-0.4-0.3v-0.4c-0.4-0.1-0.3,0-0.4-0.4c-0.4-0.1-0.3,0-0.4-0.4
			h-0.3c0-0.3,0-0.4-0.1-0.5h-0.3l0.1-0.4h-0.3c-0.2-0.1,0.1-0.1,0.1-0.1l-0.1-0.4c-0.3-0.1-0.1,0-0.3-0.1h-0.1l0.1-0.4h-0.3
			l0.1-0.4h-0.1l-0.1-0.8l-0.3-0.1l0.1-0.3L93,38.5l0.1-0.4c-0.4-0.1,0-0.1-0.4,0v-0.3H93v-0.1l-0.3-0.1v-0.5l-0.3-0.1l0.1-0.8h-0.4
			V36h-0.1l0.1-0.4c0-0.1-0.3,0-0.3-0.4h0.1v-0.5l-0.4-0.3l0.1-0.5h-0.1v-0.7h-0.3v-0.1h0.1v-0.1h-0.1c-0.1-0.3,0.1-0.4,0.1-0.5
			h-0.3V32H91l0.3-0.5H91v-0.7c0,0,0.2,0,0.1-0.3c0,0-0.2,0-0.1-0.3h0.1v-0.1H91v-0.4h-0.1c-0.1-0.2-0.1-0.3-0.1-0.5H91V29l-0.3-0.1
			v-0.4h-0.1c0-0.1-0.1-0.6,0.1-0.4c0.2,0.1-0.1,0.1,0.1,0.1L90.5,27h0.3v-0.1c-0.1-0.5-0.5,0-0.3-0.9h-0.3c0-0.4,0.1-0.7,0.1-1.1
			c-0.3-0.1-0.1,0-0.3-0.1h-0.1v-0.4h0.3v-0.3h-0.5c0.1-0.1,0.2-0.2,0.3-0.3v-0.1h-0.1l0.1-0.8l-0.5-0.1c0.1-0.3,0-0.1,0.1-0.3
			c0-0.2,0-0.5-0.1-0.7h-0.1l0.1-0.3h-0.3c0.1-0.8,0-1.2,0.1-2.1H89c-0.2-0.4,0-0.1-0.4-0.1c-0.1-0.3,0-0.1-0.1-0.3v-0.1
			c-0.2-0.1-0.2,0.1-0.3,0.1h-0.4l0.1,0.3h-0.3l-0.1,0.3h-0.2V20h-0.1v0.3h-0.1c0,0.1,0,0.2,0.1,0.3c0,0.5-0.2,0.1,0,0.7H87v0.3
			c0.4,0.1,0.4,0.1,0.5,0.5h-0.3c0,0.2,0.1,0.4,0.1,0.7l0.3-0.1v0.4c0.1,0.2,0.2-0.1,0.1,0.1c-0.1,0-0.2,0.1-0.1,0.2c0,0,0,0,0,0
			h0.1v0.4h0.1c0,0.1,0,0.2-0.1,0.3l0.1,0.7h0.1l-0.1,0.3h0.1c0,0.3,0.1,0.5,0.1,0.8h0.3V26h-0.3c-0.1,0.1,0.1,0.1,0.1,0.1v0.5h0.3
			c-0.1,0.2-0.1,0.6,0,0.8h0.1V28h0.1c0,0.2-0.1-0.1-0.1,0.1c0,0.3,0.1,0.3,0.1,0.3c0.2,0.7-0.4,1.2,0.3,1.7v0.1h-0.3
			c0,0.5,0,0.6,0.4,0.7l-0.1,0.7h0.1v0.1c-0.1,0-0.2,0.1-0.1,0.3c0,0,0,0,0,0h0.1v0.3h0.1l-0.1,0.3h0.1v0.9l0.4,0.3v0.4h-0.1v0.1
			h0.1l-0.1,0.4h0.3v0.5h0.3v0.1c-0.2,0-0.2,0.4-0.1,0.5h0.1v0.3h0.1v0.7c0,0,0.1,0,0.1,0.3h0.3c-0.1,0.4,0,0.7,0.1,1.2h0.3v0.7
			c0,0.2,0.2-0.1,0.1,0.1h-0.1v0.4c0.3,0.1,0.1,0,0.3,0.1h0.1l-0.1,0.3h0.1V40h-0.1c0,0.1-0.1,0.6,0.1,0.4c0.2-0.1-0.1-0.1,0.1-0.1
			v0.7h0.3c0,0.4-0.2,0.5,0.1,0.8h0.3l-0.1,0.4l0.3,0.1v0.4l0.8,0.7v0.3l0.3,0.1V44h0.1v0.3l0.3-0.1c0.1,0.2,0.1,0.3,0.1,0.5h0.3
			c0.1,0.5,0.1,0.2,0.4,0.4l-0.1,0.3c0.3,0.3,0.5,0,0.7,0.7h0.3v0.4h0.1c0.2,0.3,0.3,0.1,0.4,0.5l0.5,0.1v0.3H97l0.1,0.4l0.3,0.1
			c0.1-0.1,0-0.2,0.1-0.1v0.1l0.5,0.1v0.1h0.1V48l0.5,0.1c0.1,0.3,0,0.1,0.1,0.3v-0.3h1.1v0.1l1.3-0.3v-0.1l0.4,0.1v-0.1h0.3v-0.1
			l0.9-0.1c0.1,0,0-0.2,0.4-0.3v-0.3c0.3,0,0.3,0,0.5-0.1v-0.1h0.3v-0.1h0.4l0.1-0.3c0.3-0.3,0.7-0.5,1.1-0.7v-0.3h0.1
			c0.2-0.3,0.3-0.1,0.4-0.5c0.6-0.2,0.6-0.5,1.2-0.7c-0.1-0.3,0-0.1-0.1-0.3v-0.1l0.5-0.1c0.1-0.4,0-0.3,0.4-0.4
			c0.1-0.4,0.2-0.4,0.4-0.7h0.4c-0.1-0.3,0-0.1-0.1-0.3v-0.1h0.4l0.4-0.7h0.3v-0.4h0.1l-0.1-0.3l0.5-0.4v-0.3h0.1l-0.1-0.3l0.3-0.1
			L110.9,39.3z"/>
		<path id="パス_298" class="st0" d="M46.6,22.1h0.1V22h-0.3c0.1,0.3,0,0.1,0.1,0.3V22.1z"/>
		<path id="パス_299" class="st0" d="M53.4,25.7h0.1c-0.1-0.3,0-0.1-0.1-0.3V25.7z"/>
		<path id="パス_300" class="st0" d="M195.8,43.6c-0.2-0.2,0-0.1-0.3-0.1C195.7,43.6,195.5,43.5,195.8,43.6z"/>
	</g>
	<path id="パス_674" class="st1" d="M44.7,71v0.8h-3.9c-0.5,0-1,0-1.6-0.1v1.6c0.5-0.1,1-0.1,1.6-0.1h2.8
		c-0.5,0.7-1.2,1.2-1.9,1.6c-0.9,0.5-1.8,0.9-2.7,1.2c0.3,0.4,0.6,0.9,0.8,1.4c0.9-0.4,1.8-0.9,2.7-1.4c0.8-0.6,1.6-1.2,2.2-2
		c0,0.4,0,0.4,0,1v1.2c0,0.5,0,1-0.1,1.5h1.7c-0.1-0.5-0.1-1-0.1-1.5V75c0-0.2,0-0.3,0-0.5c0-0.3,0-0.3,0-0.5
		c1.4,1.6,3.1,2.8,5.1,3.4c0.2-0.5,0.5-1,0.8-1.5c-1.1-0.3-2.1-0.7-3-1.2c-0.7-0.4-1.4-0.9-1.9-1.5h3.1c0.5,0,1.1,0,1.6,0.1v-1.6
		c-0.5,0.1-1.1,0.1-1.6,0.1h-4V71h2.7c0.6,0,1.1,0,1.7,0.1c-0.1-0.5-0.1-1.1-0.1-1.6v-2.6c0-0.5,0-1.1,0.1-1.6
		c-0.6,0.1-1.1,0.1-1.7,0.1h-6.6c-0.6,0-1.1,0-1.7-0.1c0.1,0.5,0.1,1,0.1,1.5v2.7c0,0.5,0,1.1-0.1,1.6c0.6-0.1,1.1-0.1,1.7-0.1
		L44.7,71z M44.7,66.6v1h-2.5v-1H44.7z M46.2,66.6H49v1h-2.8V66.6z M44.7,68.8v1h-2.5v-1H44.7z M46.2,68.8H49v1h-2.8V68.8z
		 M61.9,65.7c0,0,0,0.1,0.1,0.1l0.2,0.4l0.2,0.5c0,0.1,0.4,1,0.4,1.1c-1.3,0.2-2.5,0.2-3.8,0.3c-0.5,0-0.9,0-1.4-0.1l0.1,1.7
		c0.2,0,0.4,0,0.6,0c1.7,0,3.3-0.1,5-0.4c0.4,0.9,0.9,1.8,1.5,2.5c-0.8-0.3-1.6-0.4-2.4-0.4c-1.3-0.1-2.5,0.3-3.6,1
		c-0.6,0.5-1,1.3-1,2.1c0,0.7,0.3,1.4,0.8,1.9c1.1,0.8,2.5,1.2,3.8,1.1c1,0,2-0.1,2.9-0.3c0.2,0,1.3-0.3,1.6-0.4L66.8,75
		c-1.3,0.6-2.8,0.9-4.2,0.9c-1.9,0-2.9-0.5-2.9-1.4c0-1,1.1-1.6,3-1.6c0.7,0,1.5,0.1,2.2,0.3c0.4,0.1,0.7,0.3,1,0.6l1.6-0.7
		c-0.8-1-1.5-2.1-2.1-3.3l-0.2-0.3c0,0-0.1-0.2-0.2-0.4c0.9-0.2,1.5-0.3,1.9-0.4c0.2,0,0.3-0.1,0.3-0.1c0.1,0,0.2,0,0.3-0.1l0.3,0
		l-0.1-1.1l0.6-0.3c-0.4-0.8-0.9-1.4-1.5-2.1l-1,0.5c0.4,0.5,0.8,1,1.1,1.5c-0.8,0.2-1.6,0.4-2.5,0.5c-0.3-0.7-0.6-1.5-0.8-2.2
		L61.9,65.7z M69.9,66.4c-0.4-0.7-0.9-1.4-1.5-2l-0.9,0.5c0.6,0.6,1,1.3,1.4,2L69.9,66.4z M76.7,65c0,0.2,0,0.3,0,0.5l-0.2,1.7
		c-0.1,1-0.2,2.5-0.2,3.7c0,0.3,0,1.3,0,1.7v0.3c0,0.1,0,0.1,0,0.2l1.7,0v-0.3c0-1.7,0.6-3.3,1.8-4.5c0.4-0.4,0.9-0.7,1.5-0.7
		c1.2,0,1.9,1.1,1.9,3.1c0,2.1-0.7,3.5-2.4,4.3c-1,0.5-2,0.7-3.1,0.8c0.4,0.5,0.7,1.1,0.8,1.7c0.9-0.2,1.9-0.4,2.7-0.8
		c2.3-1,3.7-3.3,3.6-5.8c0.1-1.3-0.3-2.6-1-3.7c-0.5-0.8-1.4-1.3-2.4-1.3c-1.1,0-2.1,0.6-2.7,1.4c-0.4,0.5-0.7,1.1-0.9,1.7
		c0,0.1-0.1,0.2-0.1,0.3h0c0-0.3,0.1-0.8,0.2-1.4c0.1-0.9,0.2-1.8,0.5-2.7L76.7,65z M96.4,77.2c0-0.5-0.1-1-0.1-1.6v-3.7
		c0-0.3,0-0.6-0.1-1c0.2,0.1,0.3,0.2,0.5,0.2c1.7,0.8,3.4,1.6,5,2.7l1-1.7c-2-1.2-4.2-2.2-6.4-3v-2.6c0-0.5,0-1,0.1-1.5h-1.9
		c0.1,0.5,0.1,1,0.1,1.4v9c0,0.5,0,1-0.1,1.6H96.4z M99.3,66.4c0.6,0.6,1.1,1.3,1.5,2.1l1-0.5c-0.4-0.8-0.9-1.4-1.5-2.1L99.3,66.4z
		 M103.4,67.1c-0.4-0.7-0.9-1.4-1.5-2l-0.9,0.5c0.6,0.6,1,1.3,1.4,2L103.4,67.1z M109.5,72.2c0.8-0.1,1.5-0.1,2.3-0.1h7.4
		c0.8,0,1.5,0,2.3,0.1v-1.9c-0.8,0.1-1.5,0.1-2.3,0.1h-7.5c-0.8,0-1.5,0-2.3-0.1V72.2z M134.3,68.6c0-0.2,0-0.2,0-1.1l0-0.8
		c0-0.4,0-0.9,0.1-1.3h-1.9c0.1,0.4,0.1,0.9,0.1,1.3v0.8c0,0.3,0,0.5,0,1.1H129c-0.6,0-1.2,0-1.8-0.1v1.8c0.6-0.1,1.2-0.1,1.8-0.1
		h3.5c0,1-0.2,1.9-0.7,2.8c-0.8,1.3-2,2.3-3.4,2.8c0.5,0.4,1,0.9,1.3,1.5c1.5-0.7,2.7-1.8,3.6-3.1c0.7-1.2,1-2.6,1-3.9h2.9
		c0.6,0,1.2,0,1.8,0.1v-1.8c-0.6,0.1-1.2,0.1-1.8,0.1L134.3,68.6z M154.2,65.2c-0.5,0.3-1.1,0.5-1.7,0.7c-2,0.5-4,0.8-6,0.8
		c-0.2,0-0.4,0-0.9,0c0.2,0.5,0.4,1,0.5,1.5c1.3,0,2.6-0.1,3.9-0.3c0,1,0,1.5,0,2.1h-3.6c-0.6,0-1.1,0-1.7-0.1v1.7
		c0.6-0.1,1.1-0.1,1.7-0.1h3.5c0,0.3-0.1,0.6-0.2,0.9c-0.3,0.9-0.8,1.8-1.6,2.4c-0.6,0.5-1.4,0.9-2.2,1.2c0.5,0.4,0.9,0.9,1.2,1.5
		c0.5-0.2,0.9-0.4,1.3-0.7c0.9-0.6,1.7-1.3,2.3-2.2c0.5-0.9,0.9-2,0.9-3.1h3.1c0.6,0,1.1,0,1.7,0.1v-1.7c-0.6,0.1-1.1,0.1-1.7,0.1
		h-3c0-0.5,0-0.5,0-2.4c0.8-0.1,1.6-0.3,2.3-0.6c1-0.3,1-0.3,1.2-0.4L154.2,65.2z M170.2,75.3c0.2-1.3,0.4-2.3,0.6-3.8
		c0-0.5,0.1-1.1,0.3-1.6l-0.8-0.7c-0.3,0.1-0.7,0.1-1,0.1h-3.5c-0.4,0-0.9,0-1.3-0.1v1.6c0.4,0,0.8-0.1,1.2-0.1h3.5
		c-0.1,1.3-0.4,3.2-0.7,4.5h-4.1c-0.4,0-0.9,0-1.3-0.1v1.6c0.4,0,0.9-0.1,1.3-0.1h7.3c0.4,0,0.9,0,1.3,0.1v-1.6
		c-0.4,0.1-0.9,0.1-1.3,0.1L170.2,75.3z"/>
</g>
</svg>
