<?xml version="1.0" encoding="utf-8"?>
<!-- Generator: Adobe Illustrator 24.2.0, SVG Export Plug-In . SVG Version: 6.00 Build 0)  -->
<svg version="1.1" id="レイヤー_1" xmlns="http://www.w3.org/2000/svg" xmlns:xlink="http://www.w3.org/1999/xlink" x="0px"
	 y="0px" viewBox="0 0 310 80" style="enable-background:new 0 0 310 80;" xml:space="preserve">
<style type="text/css">
	.st0{fill:#FFFFFF;}
	.st1{fill:#FFFFFF;stroke:#FFFFFF;stroke-width:2;}
</style>
<g id="グループ_530" transform="translate(2.373 1.612)">
	<path id="パス_676" class="st0" d="M79.3,66.9c2.6,0.3,5.2,0.8,7.6,1.6l0.6-1.7c-2.5-0.7-5-1.2-7.6-1.5L79.3,66.9z M79,70.8
		c1.2,0.1,2.4,0.3,3.5,0.6c1.3,0.3,2.6,0.6,3.8,1.1l0.5-1.7c-2.4-0.7-4.8-1.3-7.3-1.6L79,70.8z M77.9,74.7c1.5,0.2,3,0.5,4.4,0.8
		c1.7,0.4,3.4,0.9,5,1.6l0.6-1.8c-3-1.1-6.1-1.8-9.3-2.2L77.9,74.7z M96.2,68.7c0.5-0.1,1.1-0.1,1.6-0.1h5.5c0.5,0,1.1,0,1.6,0.1
		v-1.8c-0.5,0.1-1.1,0.1-1.7,0.1h-5.5c-0.6,0-1.1,0-1.7-0.1L96.2,68.7z M94.8,75.5c0.6-0.1,1.2-0.1,1.8-0.1h8.1c0.6,0,1.2,0,1.8,0.1
		v-1.9c-0.6,0.1-1.2,0.1-1.8,0.1h-8c-0.6,0-1.2,0-1.8-0.1V75.5z M116.5,77.2c0-0.5-0.1-1-0.1-1.6v-3.7c0-0.3,0-0.6-0.1-1
		c0.2,0.1,0.3,0.2,0.5,0.2c1.7,0.8,3.4,1.6,5,2.7l1-1.7c-2-1.2-4.2-2.2-6.4-3v-2.6c0-0.5,0-1,0.1-1.5h-1.9c0.1,0.5,0.1,1,0.1,1.4v9
		c0,0.5,0,1-0.1,1.6H116.5z M119.4,66.4c0.6,0.6,1.1,1.3,1.5,2.1l1-0.5c-0.4-0.8-0.9-1.4-1.5-2.1L119.4,66.4z M123.5,67.1
		c-0.4-0.7-0.9-1.4-1.5-2l-0.9,0.5c0.6,0.6,1,1.3,1.4,2L123.5,67.1z M129.7,72.1c0.8-0.1,1.5-0.1,2.3-0.1h7.4c0.8,0,1.5,0,2.3,0.1
		v-1.9c-0.8,0.1-1.5,0.1-2.3,0.1h-7.5c-0.8,0-1.5,0-2.3-0.1V72.1z M154.4,68.6c0-0.2,0-0.2,0-1.1l0-0.8c0-0.4,0-0.9,0.1-1.3h-1.9
		c0.1,0.4,0.1,0.9,0.1,1.3v0.8c0,0.3,0,0.5,0,1.1h-3.5c-0.6,0-1.2,0-1.8-0.1v1.8c0.6-0.1,1.2-0.1,1.8-0.1h3.5c0,1-0.2,1.9-0.7,2.8
		c-0.8,1.3-2,2.3-3.4,2.8c0.5,0.4,1,0.9,1.3,1.5c1.5-0.7,2.7-1.8,3.6-3.1c0.7-1.2,1-2.6,1-3.9h2.9c0.6,0,1.2,0,1.8,0.1v-1.8
		c-0.6,0.1-1.2,0.1-1.8,0.1L154.4,68.6z M174.3,65.2c-0.5,0.3-1.1,0.5-1.7,0.7c-2,0.5-4,0.8-6,0.8c-0.2,0-0.4,0-0.9,0
		c0.2,0.5,0.4,1,0.5,1.5c1.3,0,2.6-0.1,3.9-0.3c0,1,0,1.5,0,2.1h-3.6c-0.6,0-1.1,0-1.7-0.1v1.7c0.6-0.1,1.1-0.1,1.7-0.1h3.5
		c0,0.3-0.1,0.6-0.2,0.9c-0.3,0.9-0.8,1.8-1.6,2.4c-0.6,0.5-1.4,0.9-2.2,1.2c0.5,0.4,0.9,0.9,1.2,1.5c0.5-0.2,0.9-0.4,1.3-0.7
		c0.9-0.6,1.7-1.3,2.3-2.2c0.5-0.9,0.9-2,0.9-3.1h3.1c0.6,0,1.1,0,1.7,0.1v-1.7c-0.6,0.1-1.1,0.1-1.7,0.1h-3c0-0.5,0-0.5,0-2.4
		c0.8-0.1,1.6-0.3,2.3-0.6c1-0.3,1-0.3,1.2-0.4L174.3,65.2z M190.3,75.3c0.2-1.3,0.4-2.3,0.6-3.8c0-0.5,0.1-1.1,0.3-1.6l-0.8-0.7
		c-0.3,0.1-0.7,0.1-1,0.1h-3.5c-0.4,0-0.9,0-1.3-0.1v1.6c0.4,0,0.8-0.1,1.2-0.1h3.5c-0.1,1.3-0.4,3.2-0.7,4.5h-4.1
		c-0.4,0-0.9,0-1.3-0.1v1.6c0.4,0,0.9-0.1,1.3-0.1h7.3c0.4,0,0.9,0,1.3,0.1v-1.6c-0.4,0.1-0.9,0.1-1.3,0.1L190.3,75.3z M202.5,66
		v0.2c0,0.5-0.1,0.9-0.1,1.4c-0.2,1.7-0.6,3.3-1.3,4.8c-0.5,1.1-1.1,2.1-2,3c0.6,0.3,1.1,0.7,1.6,1.2c1.9-2.2,3-4.9,3.6-8.9l0-0.3
		l0.1-0.4l0-0.2c0-0.1,0-0.2,0.1-0.3L202.5,66z M206.7,66.4c0.1,0.3,0.2,0.7,0.2,1c0.4,3.4,1.7,6.5,3.7,9.2c0.4-0.5,1-1,1.5-1.3
		c-1.5-1.7-2.6-3.8-3.1-6c-0.3-1.1-0.5-2.1-0.6-3.2L206.7,66.4z M208.6,65.5c0.5,0.7,0.9,1.5,1.1,2.3l1.1-0.3
		c-0.3-0.8-0.7-1.6-1.2-2.3L208.6,65.5z M212.6,66.9c-0.3-0.8-0.7-1.5-1.1-2.2l-1,0.3c0.5,0.7,0.8,1.4,1.1,2.2L212.6,66.9z
		 M216.6,72.1c0.8-0.1,1.5-0.1,2.3-0.1h7.4c0.8,0,1.5,0,2.3,0.1v-1.9c-0.8,0.1-1.5,0.1-2.3,0.1h-7.5c-0.8,0-1.5,0-2.3-0.1V72.1z"/>
	<g id="グループ_280" transform="translate(0)">
		<g id="グループ_290">
			<g id="グループ_281">
				<path id="パス_327" class="st1" d="M249.1,18h0.3v-0.1C249.1,18,249.3,17.9,249.1,18z"/>
				<path id="パス_328" class="st1" d="M253.6,2.5v0.1l0.1-0.1H253.6z"/>
				<path id="パス_329" class="st1" d="M256,2.6V2.5h-0.1C255.8,2.6,255.9,2.5,256,2.6z"/>
				<path id="パス_330" class="st1" d="M243.8,42.8v0.4h0.1l-0.1,0.1l0.1,0.3h-0.3c0.1,0.1,0,0,0.1,0.1v0.1h0.4
					c-0.1,0.3,0,0.1-0.1,0.3c0.1,0.4,0,0.3,0.4,0.4c-0.1,0.3,0,0.1-0.1,0.3v0.1c0.6,0,0.5-0.2,1.1-0.3c0.1-0.6,0.4-0.7,0.5-1.2h-0.3
					c0.1-0.2,0.1-0.3,0.1-0.5c0-0.4,0.1-0.7,0.1-1.1h-0.1v-0.5h0.1c0-0.3-0.2-0.3-0.3-0.7l0.4-0.1c0-0.4-0.1-0.9-0.1-1.3h0.1V39h0.1
					l-0.1-0.3l0.3-0.1v-1.1h0.1c0.1-0.3,0.1-0.7,0-1.1v-0.1l0.3,0.1l0.1-0.4h-0.3v-0.4h0.3v-0.1h-0.1v-0.1h0.1v-0.5h0.1l0.1-0.9h0.1
					l-0.1-0.7l0.4-0.1l-0.1-0.7h0.1v-0.3h0.1l0.1-0.4h-0.1l-0.1-0.4h0.1l0.1-0.7l0.3-0.1l-0.1-0.3l0.3-0.1v-0.5h0.1v-0.4
					c0.1-0.2,0.1,0.1,0.1-0.1l-0.1-0.3h0.1l0.1-0.8h0.1v-0.4c0.2-0.3,0.3-0.6,0.4-0.9H249v-0.1h0.1c0.1-0.1,0.2-0.3,0.3-0.5h-0.3
					l0.1-0.5c0.3-0.1,0.1,0,0.3-0.1h0.1l-0.1-0.4h0.1v-0.3h0.1l-0.1-0.3h0.1c0.1-0.4,0-0.3,0.4-0.4c0-0.4,0.1-0.9,0.1-1.3h0.3v-0.8
					h0.1v-0.3l0.3-0.1v-0.5c0.2-0.5,0.5-0.3,0.3-0.9h0.7v0.3c0.7,0,1.4-0.1,2.1-0.1v0.3h0.1c0-0.2,0.8-0.1,1.1-0.1v0.3
					c0.3-0.2,0.5-0.1,0.8,0v-0.3c0.5,0.1,1,0.1,1.5,0.1c0,0,0,0.5,0.1,0.3v-0.3l0.4,0.1v0.1l1.1-0.1v0.1h0.5V21c0.1,0,0.3,0,0.4-0.1
					c0.3-0.1,0.3,0.1,0.5,0.1h0.1v-0.1h0.5v-0.1l0.1,0.1l0.4-0.1c0.1,0.2,0.3,0.3,0.5,0.4c0.2,0.6,0.4,1.3,0.4,2h0.3
					c0,0.2,0,0.5,0.1,0.7h0.1c0.1,0.4,0.1,0.8,0,1.2c0.3,0.1,0.1,0,0.3,0.1c-0.2,0.1-0.1-0.1-0.1,0.1h0.1v0.3l0.3-0.1
					c0,0.1-0.2,0.3-0.1,0.5h0.1v0.3h0.1l0.3,0.5c-0.1,0.2-0.1-0.1-0.1,0.1h0.3c0,0.3-0.1,0.5-0.1,0.8h0.4c0,0.2-0.1,0.4-0.1,0.7h0.3
					c-0.1,0.3,0,0.2,0,0.7h0.3c0,0.2-0.1,0.4-0.1,0.5l0.3,0.1v0.5l0.3,0.1v0.3h0.1v0.7l0.3,0.1v0.6l0.3,0.1v0.9l0.4,0.3v0.7h0.1V34
					l-0.1,0.1h0.3l0.1,0.9l0.3,0.1v0.4h0.1c0,0.2-0.1,0.4-0.1,0.7h0.3v0.5h-0.1v0.1h0.3c-0.1,0.3-0.1,0.2,0,0.5h0.1l-0.1,0.4
					l0.3,0.4h-0.1v0.1c0.1,0.1,0,0,0.1,0.1h0.7v0.3h0.9v-0.1h0.1v0.1h0.3c-0.1-0.4-0.1-0.4-0.5-0.4v-0.1h0.3l0.1-0.5
					c0.1-0.1,0.2,0,0.1-0.1h-0.1v-0.4h-0.1v-0.4h-0.1v-0.7h-0.1l0.1-0.4l-0.3-0.1v-0.3h-0.1v-0.7l-0.3,0.1v-1.1h-0.4l0.1-0.4
					c-0.1-0.1-0.2,0-0.1-0.3h0.1v-0.1l-0.3-0.1c-0.1-0.3,0.1-0.4,0.1-0.5l-0.4-0.1c-0.1-0.1,0.1-0.1,0.1-0.1c0-0.2-0.1,0-0.1-0.1
					v-0.5h-0.1l-0.1-0.5h-0.1l0.1-0.3l-0.4-0.1l0.1-0.4h-0.1c0-0.3-0.1-0.5-0.1-0.8h-0.3l0.1-0.4h-0.3l-0.1-0.8h-0.1
					c0-0.3,0.1-0.5,0.1-0.8H266l-0.1-0.4c0.1-0.2,0.1,0.1,0.1-0.1h-0.3c-0.1-0.2,0.3-0.2,0.3-0.3c-0.1-0.2-0.1-0.3-0.1-0.5l-0.4-0.1
					l0.1-0.4h-0.1v-0.5h-0.1c-0.2-0.4,0-0.4,0-0.5h-0.1v-0.1h0.1v-0.1H265l-0.1-0.4h0.1v-0.3c0,0-0.5,0-0.3-0.1h0.1v-0.4h-0.3v-0.8
					l-0.3-0.1l0.1-0.1c0-0.4,0-0.4-0.3-0.5v-0.1c0.3-0.1,0.7-0.1,1.1,0v0.1l1.1-0.1c0,0,0,0.5,0.1,0.3v-0.1c0.8,0,0.9-0.3,1.3-0.5
					v-0.4h-0.1c-0.3-0.4-0.3-0.2-0.1-0.7c-0.3-0.1-0.2,0-0.4-0.3c-0.5,0-1.3,0.1-1.6-0.1h-1.3l0.1-0.3H264v0.3l-0.4-0.3
					c-0.1,0.1,0.1,0.1-0.1,0.1v-0.7h-0.1v-0.3h-0.1l0.1-0.3h-0.3c0-0.2,0.1-0.4,0.1-0.5H263c-0.1-0.3-0.1-0.7-0.1-1.1
					c0,0-0.5,0-0.3-0.1h0.1v-0.1h-0.3l0.1-0.4h-0.1v-0.3l-0.3-0.1v-0.4h-0.1v-0.5l-0.3-0.1l0.1-0.3h-0.3v-0.1
					c0.2-0.1,0.1-0.2,0.1-0.5h-0.3l-0.3-0.8h0.3v-0.1h-0.4c0-0.2,0-0.5-0.1-0.7h-0.1v-0.7l-0.3,0.1v-0.5h-0.1l-0.1-0.7l-0.3-0.1
					l0.1-0.4l-0.4-0.1c-0.1-0.3-0.2-0.7-0.3-1.1c-0.3-0.1-0.1,0-0.3-0.1h-0.1l0.1-0.3h-0.1V7.5H259V7.1l-0.5-0.4
					c-0.1-0.2,0.2-0.1,0.3-0.1V6.5h-0.4c-0.1-0.5-0.1-0.2,0-0.7l-0.3-0.1l-0.1,0.1c0-0.2-0.1-0.4-0.1-0.5h0.1V5.2h-0.1V4.9l-0.5-0.3
					c0-0.2-0.1-0.4-0.1-0.7l-0.3-0.1V3.6h-0.1l-0.1-0.4h-0.4c0-0.2-0.1-0.4-0.1-0.5l0.1-0.1L256,2.4v0.1c-0.1-0.1-0.2,0-0.1-0.1h0.1
					V2.3l-0.5-0.1c0.2-0.3,0.1-0.3-0.4-0.4V1.3c-0.4,0-0.3,0.3-0.4-0.1h-0.1v0.4h-0.1V0.9l-0.9,0.3V0.9l-0.3,0.1
					c-0.2,0,0.1-0.2-0.1-0.1v0.1h-0.3c-0.1,0.3-0.1,0.6-0.1,0.9c0.3-0.1,0.1,0,0.3-0.1h0.3l-0.1,0.4h0.3c0.1,0,0,0.2,0.3,0.3V2.4
					h0.1l-0.1,0.1c0,0.2,0.3,0.4,0.4,0.5c-0.2,0.3-0.6,0.4-0.8,0.7l0.1,0.3h-0.1v0.4c0,0.1-0.3,0.1-0.3,0.3h0.1v0.1l-0.3,0.1
					c0,0.3-0.1,0.6-0.1,0.9l-0.3,0.1l0.3,0.5l-0.3,0.1c-0.2,0.3,0,0.5,0,0.5h-0.1l-0.1,0.4h0.1c0,0.1,0.1,0.5-0.1,0.4V7.9H252
					l0.1,0.5h-0.3l0.1,0.8h-0.3c0,0.2,0.1,0.4,0.1,0.7h-0.1v0.4h-0.1l-0.1,0.4l0.1,0.1h-0.1c-0.2,0.2,0.2,0.1,0.3,0.1V11h-0.3
					l-0.1,0.5c0,0.1,0.2,0,0.1,0.1h-0.3c0.1,0.4,0.1,0.8,0,1.2c0,0-0.5,0-0.3,0.1h0.3c-0.2,0.6-0.2,0.4-0.1,1.1
					c-0.3,0.1-0.1,0-0.3,0.1h-0.1c0.1,0.1,0.1,0.2,0.3,0.3c-0.1,0.1-0.2,0.2-0.3,0.3V15h-0.1l0.1,0.5h-0.1v0.3l-0.3,0.1l0.1,0.4
					l-0.3,0.1V17c-0.1,0.2-0.1,0-0.1,0.1h0.1v0.1H250V18c-0.3-0.3-0.2,0.1-0.5,0v-0.1h-0.1V18h-0.3c0.2-0.1,0-0.1,0.3-0.1v-0.1
					l-0.7,0.1v-0.3l-0.4,0.1v-0.1c0,0,0.3,0,0.1-0.1l-0.8-0.1v-0.1h-0.4v-0.1l-0.4,0.1l-0.1-0.3h-0.1v0.1c-0.1,0-0.5,0.1-0.4-0.1
					h0.1v-0.1h-0.4V17c-0.5,0-0.9,0-1.1,0.3l0.1,0.4l-0.3,0.1v0.1h0.4c0.1,0.3,0.1,0.3,0.3,0.5c0.3-0.1,0.2,0,0.4-0.3h0.1l-0.1,0.5
					c0.7,0,0.8,0.3,1.3,0.4v0.3c0.2-0.3,0.7,0.1,0.9,0.3l0.3-0.1v0.1l0.4,0.1v-0.1c0.1,0,0.2,0.3,0.3,0.3v-0.3h0.1V20h0.3
					c-0.2,0.1,0,0.1-0.3,0.1c0.2,0.1,0,0.1,0.3,0.1v0.1h-0.3v0.1c0.1,0.1,0.2-0.1,0.1,0.1h-0.1v0.1l0.1,0.1H249v0.7l-0.3,0.1v0.4
					l-0.3,0.1l-0.1,0.5h-0.1c-0.1,0.2,0,0.5,0.1,0.7v0.1l-0.4,0.1l-0.1,0.8l-0.3,0.1l0.1,0.7l-0.3,0.1v0.3h-0.1
					c-0.1,0.3,0.1,0.4,0.1,0.5H247l-0.1,1.7l-0.3,0.1v0.4l-0.3,0.1l0.1,0.4c0,0-0.2,0-0.1,0.3c0.1,0,0.2,0.2,0.1,0.3c0,0,0,0,0,0
					h-0.1v0.3h-0.1v0.3l-0.3,0.1c-0.1,0.1,0.3,0.2,0.1,0.5l-0.4,0.3l0.1,0.4h-0.1l0.1,0.4l-0.3,0.1c-0.3,0.7,0.3,0.9-0.4,1.3
					c0.1,0.1,0.1,0.2,0.3,0.3c-0.1,0.1-0.4,0.2-0.4,0.3c-0.1,0.2,0.1,0.1,0.1,0.1v0.4H245l0.1,0.4H245c-0.2,0.2,0,0-0.3,0.1
					c0.2,0.1,0,0.1,0.3,0.1v0.3c-0.3,0.1-0.1,0-0.3,0.1h-0.1c0,0,0,0.5,0.1,0.3v-0.1h0.1c0,0.2,0,0.4-0.1,0.5h-0.1
					c0,0.1,0.1,0.3,0.1,0.4l-0.4,0.3v0.1h0.1c0,0.3-0.1,0.3-0.1,0.3l0.1,0.3l-0.3,0.1l0.3,0.5h-0.3v0.1h0.1v0.7h-0.3
					c0,0.5-0.1,0.9-0.3,1.3h0.3l-0.3,0.8c0.1,0,0.2,0.2,0.1,0.3h-0.1v0.1c0.1,0.1,0.2,0,0.1,0.4h-0.1v0.1h0.1l0.1,0.3l-0.3-0.1
					c0,0.4-0.2,0.7-0.1,0.9L243.8,42.8z M252.5,15.2h0.3c-0.1-0.6-0.3-0.8,0.3-1.1v-0.7l-0.3,0.1c0.1-0.4,0.2-0.3,0.3-0.7h-0.1v-0.1
					l0.4-0.1v-1.3l0.3-0.1v-0.5h0.1c0-0.2-0.2-0.2-0.1-0.5h0.1l0.1-0.4h-0.1V9h0.1V8.8l0.3-0.1c0.2-0.4,0-0.8,0-1.1l0.3-0.1
					l-0.1-0.5c0.1,0.2,0.1,0,0.1,0.3h0.1c0.1-0.3-0.1-0.5-0.1-0.7h0.1V6.3h0.1V5.7h0.1L255,5h-0.1V4.8c0.2,0.2,0.5,0.3,0.8,0.4
					l0.4,1.3l0.3,0.1v0.4h0.1c0.2,0.2,0.3,0.4,0.4,0.7h0.3L257,8.3h0.4c-0.2,0.1-0.1,0.6,0,0.8h0.1v0.4l0.5,0.4v0.3l0.3-0.1v0.7h0.1
					V11l0.3,0.1v0.5h0.1v0.1c0,0.2-0.2,0-0.1,0.1l0.3,0.1v0.1h-0.1v0.3l0.4,0.1l0.1,0.1v0.5l0.3,0.1l-0.1,0.1c0,0.2,0.1,0.4,0.1,0.7
					l0.3,0.1l-0.1,0.3h0.1l0.1,0.4h-0.1v0.1l0.4,0.3v0.8h0.1c0.1,0.2,0.1,0.3,0.1,0.5h0.3v0.7c0.4,0.1,0.1,0,0.1,0.4l0.4-0.1
					l-0.3,0.4h0.1c0,0.6,0,0.7,0.4,0.9v0.1l-1.1-0.1v0.1h-0.1V19c-0.4-0.1-0.8,0-1.2,0.3V19h-1.2v-0.1c-0.3-0.1-0.6,0.1-0.7,0.1
					v-0.1l-0.4-0.1v-0.1l-0.4,0.1v0.1l-0.8-0.1v-0.1l-1.2,0.1v-0.1l-0.3,0.1l-0.1-0.3l-0.7,0.1v-0.1l-1.2,0.1v-0.3
					c-0.3,0.1-0.1,0-0.3,0.1c-0.1-0.2-0.1,0-0.1-0.3C251.8,17.8,252.5,16.2,252.5,15.2L252.5,15.2z"/>
				<path id="パス_331" class="st1" d="M281.8,24.5l0.4,0.1v0.1l0.4,0.1l0.1,0.3l0.8-0.1v0.1h0.3l0.1,0.3l0.8,0.1l0.1,0.3l0.4-0.1
					v0.1h-0.1c0,0.2,0.2,0.1,0.3,0.3l-0.1,0.3c0,0,0.2,0,0.1,0.3l-0.3,0.1l0.1,0.3h-0.1v0.1c0,0.1,0.3,0.1,0.3,0.3l-0.3,0.1v0.3h0.3
					V28l-0.3,0.1v0.1h0.1l-0.1,0.4h0.3c0.1,0.2-0.1,0.1-0.1,0.1c0,0.2,0.1,0.4,0.1,0.7l-0.3,0.1v0.3h0.3c-0.1,0.6-0.2,1.1-0.3,1.7
					h0.3c-0.2,0.5-0.2,1.1-0.1,1.6h0.1c0,0.2-0.1,0.3-0.1,0.3c-0.1,0.3,0.1,0.4,0.1,0.4c0,0.3-0.1,0.5-0.1,0.8
					c0.3-0.1,0.1,0,0.3-0.1h0.1l-0.1,0.4h-0.3c0,0.3-0.1,0.5-0.1,0.8h0.3c-0.1,0.1-0.2,0.2-0.3,0.3c0,0.1,0,0.3,0.1,0.4
					c0,0.2-0.1-0.1-0.1,0.1c-0.1,0.5,0.5,0.3-0.1,0.8c0.1,0.1,0,0.1,0.3,0.1v0.4c0.3,0.1,0.1,0,0.3,0.1h-0.3c-0.1,0.3-0.1,0.7,0,1.1
					h0.1v0.3h0.1v0.4l0.3-0.1l-0.1,0.3h0.3c-0.1,0.2-0.2,0.1,0,0.3v0.1c0.2,0.1,0.4-0.1,0.5-0.1v0.3c0.4-0.1,0.8-0.3,1.1-0.5
					c0.1-0.1,0.2,0,0.1-0.1h-0.1v-0.1c0.1-0.1,0.2-0.2,0.3-0.3h-0.3c0.1-0.4,0.2-0.3,0.3-0.7c-0.2-0.1-0.3-0.1-0.5-0.1
					c0-0.6,0-0.7-0.4-0.9c0.2-0.1-0.1-0.2,0.1-0.1v0.1h0.3v-0.1h-0.1c0.1-0.2,0.2-0.5,0.1-0.8h-0.1v-0.1h0.1v-0.9h0.1v-0.1h-0.1
					c0-0.3-0.1-0.5-0.1-0.8h0.1v-0.5h0.1l-0.1-0.7c0.1-0.1,0.2-0.3,0.1-0.4h-0.1c0-0.2-0.1-0.4-0.1-0.5h0.1c0-0.1-0.1-0.3-0.1-0.4
					h0.1v-0.7h0.1v-0.1c-0.1,0-0.2,0-0.3-0.1c0,0,0,0,0,0l0.3-0.1V31h-0.1v-0.8h-0.1c-0.1-0.5,0.4-0.4,0.3-0.9l-0.3-0.1l0.3-0.5
					h-0.1l0.1-0.4c0,0-0.2-0.1-0.1-0.4h0.1c0-0.3-0.2,0-0.3-0.1s0.1-0.1,0.1-0.1c0-0.1,0-0.2-0.1-0.3v-0.1h0.1c0-0.2,0-0.5-0.1-0.7
					l0.4-0.1c0.1,0.6,0.3,0.4,0.7,0.7l-0.1,0.3l0.5,0.3v0.3l0.4,0.3c0.3,0.4,0.1,0.4,0.7,0.7v0.4c0.9,0.2,1.1,1,2,1.5V31h0.4v0.3
					h0.3v0.3h0.4v0.3h0.3l0.1,0.5c0.8,0.1,0.7,0.5,1.2,0.8v0.4c0.3-0.1,0.1,0,0.3-0.1h0.1V34h0.4c0.1,0.5,0.4,0.5,0.7,0.8l0.1,0.4
					l0.3-0.1v0.3h0.3v0.3h0.1l-0.1,0.4h0.1v0.1l0.3-0.1c0.2,0.4,0.2,0.7,0.7,0.8c0,0.2,0.1,0.5,0.3,0.7h0.1v0.3h0.1
					c0.1-0.1,0-0.1,0.1,0h0.1c0.4,0.5-0.1,0.5,0.7,0.8v0.3h0.3V39h0.3c0.1,0.3,0,0.1,0.1,0.3v0.1l0.3-0.1l0.1,0.3h0.1v-0.1h0.5
					l0.1-0.4h0.1c0.1,0.2,0.1,0.1,0.4,0.1l-0.1-0.3v-0.1h0.1c0-0.4-0.1-0.7-0.4-0.9v-0.1h-0.4v-0.4c-0.5-0.1-0.5-0.5-0.9-0.8v-0.3
					l-0.4-0.1l-0.1,0.1l0.1-0.4l-0.4-0.3v-0.3l-0.3-0.1V35h-0.3v-0.5h-0.3c-0.1-0.3,0-0.1-0.1-0.3v-0.1h-0.4c-0.1-0.3,0-0.1-0.1-0.3
					c-0.1-0.4,0-0.3-0.4-0.4v-0.4c-0.2-0.4-0.5,0.1-0.7-0.8h-0.5v-0.4c0-0.1-0.3-0.1-0.3-0.3h0.1v-0.1h-0.4v-0.3
					c-0.1,0.1-0.3,0.1-0.4,0v-0.4c0-0.1-0.2-0.1-0.3-0.3h-0.4v-0.4l-0.3,0.1v-0.1h-0.3v-0.4c-0.4-0.1-0.4-0.2-0.7-0.4v-0.3h-0.4
					c0-0.1-0.1-0.3-0.1-0.4h-0.3c-0.1-0.3,0-0.1-0.1-0.3v-0.1h-0.4c-0.1-0.6-0.3-0.5-0.5-0.8h-0.1v-0.4h-0.4
					c-0.1-0.5-0.2-0.4-0.3-0.8l-0.4,0.1v-0.1h-0.3c0.1-0.2,0.1-0.3,0.1-0.5c0.4,0.1,0.8,0.1,1.2,0c0.1-0.3,0-0.1,0.1-0.3v0.3h0.3
					v-0.4l0.3,0.1c0.2,0,0,0,0.1-0.1h0.1c0,0.1-0.1,0.3-0.1,0.4c0.4-0.1,0.3,0,0.4-0.4l0.4,0.1l0.1-0.3l0.5-0.1V25
					c0.2-0.1,0,0,0.1,0.1h0.1V25l0.5,0.1V25l0.4-0.1l0.1-0.3c0.2-0.1,0.1,0.1,0.1,0.1h0.1v-0.1h1.1l0.1-0.3l0.9-0.1
					c0-0.1,0.1-0.3,0.1-0.4h0.1L297,24h0.1v0.1c0.1,0,0.6-0.2,0.7-0.3v-0.1h0.4l0.1-0.3l0.4,0.1l0.1-0.3c0.5-0.2,0.7,0.1,1.1,0v-0.1
					c0.4-0.3,0.2-0.3,0.7-0.1v-0.3h0.4v-0.3h0.4l0.3-0.4h0.4v-0.1h0.1v-0.4h0.1c0.3-0.3,0.4-0.6,0.5-0.9h0.3v-0.4h0.1
					c0.1-0.1,0.2-0.3,0.1-0.5h-0.1v-0.1l0.3,0.1c0.1-0.3,0.2-0.6,0.3-0.9h0.1l-0.1-0.3c0.2-0.2,0.2,0.1,0.4-0.3H304l0.4-0.5h-0.1
					v-0.5l0.3,0.1c0.1-0.2,0.2-0.4,0.3-0.7h-0.3c-0.1-0.1,0.4-0.2,0.3-0.7h-0.1V16c0.1-0.2,0.2,0,0.1-0.1l-0.3-0.1v-0.1h0.1v-0.8
					c0,0,0.2,0,0.1-0.3c0,0-0.2,0-0.1-0.3c0-0.2,0.1,0.1,0.1-0.1h-0.1V14h0.1v-0.1h-0.1c-0.1-0.3,0.1-0.3,0.1-0.5
					c-0.1-0.1-0.2,0-0.3-0.3h0.1V13h-0.3l0.3-0.8l-0.4-0.3V12h-0.1c0.1-0.2,0.2-0.2,0.3-0.3l-0.3-0.4l0.1-0.1H304V11h-0.1
					c0-0.1,0.1-0.3,0.1-0.4h-0.1v-0.3h-0.1V9.9h-0.1V10h-0.1V9.9h-0.1l0.1-0.3h-0.1V9.2l-0.7-0.1l0.1-0.4l-0.4-0.1
					c-0.2-0.6-0.1-0.2-0.5-0.4l-0.1-0.3h-0.3l-0.3-0.3V7.4l-0.4-0.1L300.7,7h-0.3l-0.1-0.4h-0.5c0,0,0-0.5-0.1-0.3v0.1h-0.1l0.1-0.3
					h-0.1c-0.2-0.3-0.6-0.4-0.9-0.4V5.5c-0.5-0.1-0.4-0.2-0.8-0.3V4.9h-0.1V5L297,4.9c-0.2-0.6-0.1-0.2-0.5-0.4l-0.1-0.3l-0.8-0.3
					V3.7l-1.3-0.1c-0.1-0.3,0-0.1-0.1-0.3V3.2l-0.5,0.1V3.2h-0.7l0.1-0.3c-0.4,0.1-0.8,0.1-1.2,0V2.8l-0.5,0.1l-0.1-0.3
					c-0.2-0.1-0.2,0.1-0.3,0.1c-0.3,0-0.5,0-0.8-0.1v0.1h-0.8V2.6c-0.2,0-0.3,0.1-0.3,0.1l-0.4-0.1c-0.1,0-0.1,0.3-0.3,0.3V2.6
					c-0.2,0-0.2,0.2-0.5,0.1c-0.1,0-0.1-0.3-0.3-0.3v0.1L287,2.8l-0.1-0.3h-0.3l-0.1,0.4h-0.3V2.6h-0.7v0.1h-0.1
					c-0.1-0.1,0-0.2-0.4-0.1c-0.2,0,0.1,0.1-0.1,0.1V2.6c-0.3-0.1-0.3,0.1-0.5,0.1V2.6h-0.1c0,0.1-0.2,0.2-0.3,0.1V2.6
					c-0.6-0.1-0.8,0.5-1.6,0.3l-0.5,0.9c0.1,0.2,0.3,0.3,0.5,0.4c0.1-0.1,0-0.2,0.3-0.1v0.1h0.3v0.2h0.5l0.1,0.3l0.4-0.1v0.3
					l0.4-0.3v0.1h0.7c0,0,0,0.2,0.3,0.1V4.7h0.7v0.1h0.9V4.6h0.1v0.3c0.5-0.2,0.9,0.1,1.6-0.1V4.6h0.1v0.1l0.8,0.3l0.1-0.3
					c0.6,0.1,1.2,0.1,1.8,0V5h0.1V4.8l0.7,0.1V4.8h0.1l-0.1,0.4c0.2-0.1,0.4-0.2,0.7-0.3v0.3l0.4-0.1c0,0.1,0.1,0.3,0.1,0.4l0.4-0.1
					l0.1,0.3c0.2,0,0.2-0.2,0.5-0.1v0.1h-0.1v0.1h0.5v0.1c0.2,0.2,0.5,0.3,0.8,0.3v0.3l0.8,0.1l0.1,0.4h0.5v0.3
					c0.4,0.1,0.3,0.2,0.7,0.3v0.3l0.7,0.1l0.1,0.3h0.3v0.1c0.2,0.1,0.2,0.1,0.5,0.1l0.1,0.5c0.3,0.1,0.6,0.2,0.9,0.4v0.3l0.3,0.1
					v0.1c0.4,0.3,0.3-0.2,0.5,0.4h0.3v0.4h0.4c0,0.2,0,0.4,0.1,0.5h0.1V12l0.4,0.1c0,0-0.2,0.3-0.1,0.5h0.1v0.5h0.1l-0.1,0.4h0.1
					v0.3h0.1V14h-0.1c0,0.5,0.2,0.5,0,1.1h0.3c0,0.2,0,0.5-0.1,0.7h-0.1l0.1,1.1h-0.1V17l-0.4,0.3l0.1,0.3h-0.1v0.3h-0.1v0.3H302
					l0.1,0.1c0,0.2-0.1,0.2-0.1,0.5h-0.4l0.1,0.4c-0.1,0.1-0.4,0.2-0.4,0.4h0.1v0.1l-0.4,0.1c-0.1,0.6-0.4,0.6-0.5,1.2l-1.2,0.3
					l-0.1,0.3h-0.5l-0.1,0.3h-0.9l-0.1,0.3l-0.7,0.1v0.3l-0.1-0.1c-0.2,0,0.1,0.1-0.1,0.1h-0.5v0.1l-0.7-0.1v0.3l-0.4,0.1
					c-0.3-0.1,0.1-0.1-0.1-0.3l-0.3,0.4h-0.5v-0.1l-0.7,0.1c-0.1,0.3,0,0.1-0.1,0.3c-0.3,0.2-0.5-0.1-0.9,0.1l-0.1,0.3l-0.3-0.1v0.1
					h-0.4v0.1h-0.3v0.1h-0.7l-0.3,0.4l-0.8-0.3v0.1c-0.1,0-0.5,0.1-0.4-0.1h0.1v-0.1h-0.4v0.3H288V24h-0.1c0-0.2-0.1-0.4-0.1-0.7
					l-0.4-0.1l-0.1-0.5h0.1v-0.5l-0.3,0.1c0-0.2,0.1-0.4,0.1-0.7h0.1c0-0.3-0.1-0.5-0.1-0.8h0.1c0-0.1-0.2-0.3-0.1-0.7h0.1l-0.1-0.3
					h0.1v-0.1l-0.4-0.3v-0.1l0.3,0.1V19h-0.1v-0.1h0.1v-0.7c0,0,0.2,0,0.1-0.3c0-0.1-0.4-0.1-0.3-0.5h0.1V17h0.1
					c0-0.2-0.2-0.2-0.3-0.3c0-0.2,0.1,0,0.1-0.1v-0.4h0.1l-0.3-0.5c0-0.1,0.2-0.1,0.3-0.3h-0.3c0.1-0.3,0.1-0.7,0-1.1h-0.1
					c0-0.2,0,0,0.1-0.1c0-0.2-0.1,0-0.1-0.1c-0.1-0.4,0.1-0.6,0.1-0.8l-0.3-0.1c-0.1-0.4-0.1-0.8,0-1.2c-0.3-0.1-0.1,0-0.3-0.1h0.3
					c-0.1-0.3-0.2-0.3-0.3-0.5c0.1-0.1,0.2,0,0.3-0.3l-0.4-0.1l0.3-0.5h-0.1V9.8h0.1V9.6c-0.2-0.3,0-1-0.1-1.3l-0.3,0.1V7.8
					c-0.3,0.1-0.6,0.1-0.9,0.1c-0.2,0.6-0.3,0.2-0.7,0.7h-0.1l0.1,0.4c0,0.2-0.1-0.1-0.1,0.1h0.1V10l-0.3,0.1v0.3h0.3v0.1
					c-0.3,0.1,0,0.2,0,0.4h-0.1v0.9l0.3,0.1c0.1,0.3-0.1,0.4-0.1,0.5h0.1v0.3h0.1v1.1l0.3,0.1c0,0.1,0,0.2-0.1,0.3c0,0,0,0,0,0
					c0,0.2,0.1,0.4,0.1,0.5c-0.2,0.1-0.1,0-0.3,0.1h0.3l-0.1,0.3l0.3,0.1c0,0.1-0.2,0.2-0.1,0.5h0.1c0,0.3-0.1,0.5-0.1,0.8h0.1
					c0,0.2-0.1,0.2-0.1,0.3c-0.1,0.3,0.1,0.3,0.1,0.5h-0.1c-0.1,0.2-0.1,0.3-0.1,0.5c0.3-0.1,0.1,0,0.3-0.1h0.1
					c-0.1,0.2-0.2,0.2-0.3,0.5h0.3c-0.1,0.1-0.2,0.2-0.3,0.3v0.7h0.1l-0.1,0.5h0.3v0.3c-0.4,0.1-0.3,0-0.4,0.4h0.3v0.4
					c-0.3-0.1-0.7-0.2-1.1-0.3c0.1-0.1,0.2-0.1,0.3-0.3l-0.1-0.1l-0.4,0.1l-0.1-0.3h-0.4v-0.1h-0.1c-0.1,0.2-0.3,0.4-0.5,0.5
					c0,0.1-0.1,0.3-0.1,0.4l0.4,0.3c0.1-0.1-0.1-0.1,0.1-0.1l-0.1,0.4c0.1,0,0.5,0.1,0.5,0.1l-0.1,0.3h0.3V22l0.3,0.1l0.1,0.4
					l0.4,0.1l-0.1,0.3h0.3c0.2,0.2,0.1,0.3,0.4,0.5v0.3c-0.4-0.1-0.1-0.1-0.5,0l-0.1-0.4l-0.9-0.3v-0.3L283,23
					c-0.1-0.1-0.3-0.2-0.4-0.1c-0.1,0-0.2,0.5-0.4,0.5c-0.1-0.2,0-0.1-0.3-0.1c0,0.1,0.1,0.3,0.1,0.4c-0.4,0.1-0.3,0-0.4,0.4h0.3
					L281.8,24.5z"/>
				<path id="パス_332" class="st1" d="M225.5,48.1h0.1v-0.1h0.5v-0.1l0.4,0.1l0.1-0.3c0.3-0.2,0.7-0.3,1.1-0.3l0.1-0.4
					c0.4-0.2,0.8-0.3,1.2-0.3l0.1-0.4c0.3,0.1,0.1,0,0.3,0.1c0.2-0.1,0.1-0.3,0.3-0.4h0.3l0.1-0.4l0.7-0.1l0.1-0.4h0.5v-0.3
					c0.4-0.1,0.3,0,0.4-0.4l0.7-0.1c0.1-0.4,0.2-0.4,0.4-0.7h0.3v-0.3h0.3c0.1-0.3,0.2-0.6,0.4-0.8l0.3-0.1c0.3-0.5-0.3-0.6,0.5-0.8
					c0-0.2,0.1-0.4,0.3-0.5h0.1c0.1-0.2-0.1-0.1-0.1-0.1v-0.1h0.3l-0.1-0.3h0.1l0.1-0.4c-0.1-0.1-0.1,0.1-0.1-0.1l0.3-0.1
					c0.3-0.4,0.2-0.4,0.1-0.9c0.3-0.1,0.1,0,0.3-0.1c0.3-0.3,0.2-0.8,0.3-1.3h0.1c0-0.2,0,0-0.1-0.1c0-0.4,0.1-0.4,0.1-0.4l-0.1-0.3
					h0.3l-0.1-0.3h0.1V36h-0.1v-0.3h-0.1l0.1-0.4h-0.1c0-0.3,0.1-0.6,0.1-0.9l-0.3-0.1v-0.4l-0.3-0.1c0-0.2,0.1-0.1,0.3-0.1
					l-0.4-0.8c-0.2-0.2-0.2,0.1-0.3-0.1l0.3-0.1c-0.2-0.3-0.5-0.4-0.8-0.5c-0.1-0.4-0.3-0.5-0.4-0.9h-0.3c-0.2-0.6-0.1-0.1-0.5-0.4
					l-0.4-0.5h-0.5c-0.1-0.3,0-0.1-0.1-0.3v-0.1h-0.4v-0.3c-0.1,0.2-0.7-0.1-0.9-0.3L231,29l-0.4,0.1l-0.3-0.4h-0.7l-0.1-0.4
					c0,0-0.5,0-0.3-0.1h0.1v-0.1l-1.2-0.1v-0.5l-0.4,0.1v-0.3c-0.3-0.1-0.6-0.2-0.8-0.4v-0.1h-0.7l-0.3-0.4h-0.5l-0.3-0.4
					c-0.3-0.2-0.3,0-0.5,0l-0.1-0.4c-0.3-0.1-0.4,0.1-0.5,0.1v-0.3l-0.4,0.1c-0.1-0.3,0-0.1-0.1-0.3v-0.1l-0.8-0.1l-0.1-0.3
					l-0.3,0.1l-0.3-0.4l-1.8-0.4v-0.3l-0.4,0.1v-0.1h-0.2l0.1-0.4l1.1-0.4l0.4,0.1v-0.1h0.3v-0.1h0.9l0.1-0.3l0.5-0.1v-0.3h0.7v-0.1
					c0.2-0.2,0.4-0.3,0.7-0.3c0.2-0.6,0.3-0.3,0.7-0.7h0.1v-0.4c0.4,0,0.8-0.2,1.1-0.5l0.1-0.3c0.2-0.1,0.5-0.1,0.7-0.3v-0.3h0.1
					l0.1-0.4l0.3,0.1v-0.1c0.4-0.3,0.1-0.4,0.8-0.5V18l0.3,0.1v-0.4l0.7-0.1c0.1-0.4,0-0.3,0.4-0.4c0-0.7,0.5-1.4,0.3-2.2h-0.1
					c0-0.2,0.1-0.4,0.1-0.7h-0.1v-0.3h-0.1l0.1-0.5l-0.4-0.1c0.1-0.2,0.2-0.4,0.1-0.7h-0.1v-0.1h0.1l-0.3-0.5h-0.1v-0.5l-0.4-0.1
					l0.1-0.3h-0.1V11h0.1v-0.3h-0.4L228,9.9h0.1V9.7h-0.4l-0.1-0.4l-0.3-0.1l-0.1,0.1c-0.1-0.2-0.1-0.3-0.1-0.5
					c-0.6-0.1-0.4-0.2-0.9-0.3c-0.1-0.3,0-0.1-0.1-0.3V8.1l-0.3,0.1V8c-0.3-0.1-0.6-0.2-0.9-0.3V7.3l-0.4,0.1V7.2L224,7.3V7.1
					c-0.3-0.1-0.5-0.1-0.8,0V6.8l-0.7-0.1V6.5h-0.7l-0.3-0.4l-0.8,0.1V6.1h-0.9c0,0,0-0.2-0.3-0.1c0,0.1-0.2,0.2-0.3,0.1h-0.1V6
					h-0.5v0.1L218.4,6v0.1c-0.1,0-0.4-0.2-0.8-0.1v0.1c-0.3,0-0.6,0-0.9-0.1V5.9c-0.2-0.1-0.2,0.1-0.3,0.1l-1.3-0.1V6l-0.4,0.1V5.9
					L213.9,6v0.1c-0.2,0,0-0.1-0.1-0.1h-0.4V5.9h-0.1V6c-0.1,0-0.2,0-0.3-0.1h-0.1V6c-0.3,0.1-0.3-0.1-0.5-0.1l-0.1,0.3L211.9,6v0.1
					h-0.4c-0.2,0.1,0.1,0.1-0.1,0.1c-0.1-0.1,0-0.2-0.3-0.1L211,6.4h-0.3v0.1h-0.3v0.1c-0.1,0-0.4-0.2-0.7-0.1v0.1h-0.3v0.1
					c-0.2,0,0,0-0.1-0.1L209,6.8V6.7h-0.1v0.1h-0.4v0.1l-0.3-0.1v0.1c-0.3,0.1-0.6,0.1-0.9,0c-0.1,0.2-0.2,0.1-0.3,0.3h0.1v0.1h-0.3
					V7.1h-0.3v0.7c0.1-0.2,0.1,0,0.1-0.3h0.1V8h0.5c0.1-0.3,0-0.1,0.1-0.3V7.6h0.2L207.6,8h0.8v0.1h0.3v0.1L209,8v0.1h0.3l-0.1,0.4
					h0.3V8.3c0.7,0.1,0.5,0.2,1.1-0.1v0.3h0.3c-0.1-0.3,0-0.1-0.1-0.3V8c0.3,0.1,0.7,0.1,1.1,0c0.1,0.4,0.2,0.6,0.3,1.1h0.1
					l-0.1,0.4h-0.1l0.1,0.4h-0.1v0.8h-0.1l0.1,0.7h0.1v0.1h-0.1v0.4l-0.3,0.1c0,0.2,0.2,0.2,0.3,0.3v0.4h-0.3
					c-0.2,0.1,0.1,0.1,0.1,0.1l-0.1,0.4c0.3,0.1,0.1,0,0.3,0.1l-0.4,0.1c0,0.2,0.1,0.4,0.1,0.5h-0.1v0.4h-0.1
					c0.1,0.3,0.1,0.5,0.1,0.8c0,0.2-0.2-0.1-0.1,0.1c0.1,0,0.2,0,0.3,0.1l-0.3,0.1l-0.1,0.7H211l0.1,0.4c0,0-0.2,0-0.3,0.3h0.1
					l0.1,0.4c-0.4,0.1,0,0.4-0.3,0.9h-0.1l0.1,0.3c-0.1,0.1-0.2,0.3-0.1,0.4c0,0.1,0.3,0.1,0.3,0.3h-0.1v0.3h-0.1
					c-0.1,0.3,0.2,0.4,0.1,0.5h-0.1c0,0.3-0.1,0.6-0.1,0.9h-0.1c0,0.2,0.3,0.3,0.3,0.3v0.5h-0.1v0.1h0.1l-0.1,0.1l0.1,0.4
					c-0.3-0.1-0.1,0-0.3-0.1c-0.6,0.1-0.6,0.4-1.2,0.5l-0.1,0.5l-1.3-0.1l-0.1,0.3l-0.8,0.3l-0.3,0.9l1.2,0.4v0.1h0.8v0.1h0.5
					l0.1-0.3l0.4,0.1v0.1h0.1v-0.1h0.5v-0.1h0.1v0.4l0.4,0.3c-0.1,0.2-0.2,0.2-0.3,0.3c0,0.2,0.2,0.2,0.1,0.5c0,0-0.2,0-0.1,0.3h0.1
					c0.1,0.3,0,0.6-0.3,0.8c0.2,0.1,0,0.1,0.3,0.1c-0.1,0.5-0.1,0.7-0.1,1.2h0.3l-0.1,0.7h-0.1c-0.1,0.3,0.3,0.5,0.1,0.9
					c0,0.1-0.3,0.1-0.3,0.3h0.1v0.5h0.1c0,0.1,0,0.3-0.1,0.4c-0.1,0.3,0.1,0.4,0.1,0.4c0.1,0.6-0.2,0.5,0,1.1h-0.3l0.1,0.4h0.1
					c-0.1,0.2-0.2,0.5-0.1,0.8h0.1l-0.3,0.4l0.3,0.1c0,0.5-0.1,1.1-0.1,1.6h0.1v0.8c0,0-0.2,0-0.1,0.3c0.1,0,0.2,0.2,0.1,0.3
					c0,0.2-0.2-0.1-0.1,0.1c0.1,0.1,0.2,0.3,0.1,0.4c0,0-0.2,0-0.1,0.3h0.1l-0.1,0.3c0,0.2,0.2-0.1,0.1,0.1
					c-0.1,0.1-0.2,0.3-0.1,0.4h0.1c0.1,0.4-0.1,0.4-0.1,0.4c0,0.2,0.2,0.2,0.1,0.5c0,0-0.2,0-0.1,0.3c0.1,0,0.2,0.2,0.1,0.3
					c-0.1,0-0.2,0.2-0.1,0.3h0.1v0.3h0.1c0,0.2-0.2,0.1-0.3,0.3l0.1,0.3h-0.3c0.1,0.2,0.2,0.4,0.3,0.7h0.1l-0.1,0.4h-0.1
					c-0.1,0.2,0.1,0.2,0.1,0.3l-0.1,0.3h0.1c0,0.1-0.3,0.3-0.1,0.5h0.1V44c-0.4,0-0.7-0.1-1.1-0.3l-0.1-0.3l-0.3,0.1l-0.1-0.4
					c-0.2-0.1-0.1,0.1-0.1,0.1c-0.2,0-0.2-0.2-0.3-0.3h-0.1v0.1l-0.5-0.1c-0.3,0.2-0.6,0.4-0.9,0.5V44l0.4-0.1l-0.1,0.4
					c0,0.2,0.1-0.1,0.1,0.1c-0.1,0.1-0.2,0.1-0.3,0.3l0.8,0.3c0,0,0,0.5,0.1,0.3V45h0.1v0.1h0.1V45h0.1l-0.1,0.3
					c0.5,0,1.1,0.3,1.5,0.7h0.5c-0.2,0.2,0.2,0.8,0.3,1.1l0.8,0.1c-0.2,0.1,0,0.1-0.3,0.1v0.1c0.5,0,0.6,0.1,0.8-0.3h-0.1V47h0.4
					v-0.1c0.2-0.1,0.3-0.1,0.4-0.3c0.5,0,0.6,0,0.7,0.4c0.3-0.1,0.7-0.1,1.1,0c0,0,0,0.5,0.1,0.3v-0.1h0.7l-0.1,0.3h0.5v0.3h0.3
					v-0.1c0.1,0,0.9,0.1,1.2,0.1v0.3h0.1c0-0.2,0.3-0.2,0.5-0.1l0.4,0.1v0.1l0.5-0.1l0.1,0.4c0.3-0.1,0.7-0.2,1.1-0.1v0.1h0.1
					c0.1-0.1,0-0.2,0.3-0.1v0.1h0.1c0.1-0.1,0-0.2,0.3-0.1v0.1h0.1v-0.1l1.2,0.1v-0.1h0.3v-0.1h0.1v0.1h0.7v-0.1h0.1v0.1
					c0.2,0,0.5,0,0.7-0.1v0.3c0.4,0,0.7,0,1.1-0.1v-0.1h0.3v-0.1L225.5,48.1z M208.6,7.1c0.3,0.1,0.1,0,0.3,0.1
					C208.6,7.1,208.8,7.2,208.6,7.1L208.6,7.1z M211.4,16.3h-0.1V16h0.1V16.3z M212.6,20.7h0.1v-0.1h-0.1V20h0.1l-0.1-0.3h0.3
					l-0.3-0.4h0.1l0.1-0.8h-0.1v-0.1h0.1v-0.1h-0.1v-0.1h0.1v-0.4h0.1l-0.1-0.3l0.3-0.1c0,0-0.2-0.6-0.1-0.8l0.3-0.1
					c0.1-0.2-0.3-0.5-0.1-0.9l0.3-0.1l-0.1-0.7h0.1c0.1-0.4,0-0.3,0-0.7h0.3c0.2-0.2-0.2-0.1-0.3-0.1v-0.1h0.1
					c-0.1-0.2-0.1-0.3-0.1-0.5h0.3c0-0.2-0.3-0.7-0.1-1.1l0.3-0.1c0-0.1,0-0.2-0.1-0.3c0,0,0,0,0,0v-0.1h0.1l-0.1-0.4h0.1
					c0-0.1,0.1-0.5-0.1-0.4V11h-0.1c0.1-0.1,0.2-0.2,0.3-0.3c0.2-0.6-0.4-0.9-0.3-1.3h0.1l0.1-0.4h-0.3c0.1-0.5,0.2-0.4,0-0.8h0.3V8
					c0,0,0.5,0,0.3,0.1h-0.1v0.1l0.7-0.1l0.1-0.3c0.4-0.1,0.3,0.2,0.4,0.3h0.4v0.1l1.3-0.3v0.1c0.3,0.1,0.6-0.1,0.7-0.1v0.1
					c0.5,0.1,1,0.1,1.4,0v0.3l0.4-0.1V8.1l0.3,0.1h0.8V8.1h0.3v0.1l0.4-0.1v0.3l0.8,0.1v0.1l0.4-0.1l0.1,0.3h0.4v0.1
					C223,9,223.2,9,223.4,9v0.3l0.8,0.1v0.3l0.5,0.1v0.3h0.4V9.9h0.1v0.4l0.8,0.3v0.3l0.5,0.1l0.1,0.8c0.3,0.1,0.2,0,0.4,0.3H227
					c0,0.2,0.1,0.1,0.3,0.1c0.1,0.4,0.3,0.8,0.4,1.2h0.3c-0.1,0.5-0.1,1,0,1.5l0.3,0.1c0.1,0.4-0.2,0.4-0.3,0.5v0.1h0.1v0.7
					l-0.4,0.1v0.1c-0.3,0.2-0.3-0.1-0.4,0.4h-0.4c0,0.1,0.1,0.4-0.1,0.3c0,0,0-0.3-0.1-0.1l-0.1,0.7l-0.5,0.1
					c-0.1,0.4-0.2,0.4-0.4,0.7h-0.3c-0.2,0.5-0.1,0.2-0.4,0.4l-0.1,0.3h-0.3l-0.1,0.3h-0.3l0.1,0.1v0.1l-0.4-0.1
					c-0.2,0.6-0.2,0.1-0.5,0.4v0.1c-0.1,0.2-0.2-0.1-0.1,0.1h0.1v0.1l-0.4-0.1v0.3h-0.3v0.3c-0.4-0.1-0.3-0.1-0.7,0.1V21h-0.4v0.1
					h-0.7v0.1h-0.3v0.1c-0.2-0.1-0.4-0.1-0.7-0.1v0.3h-1.7l-0.1,0.3l-0.4-0.1v0.1h-0.8v0.3c-0.9-0.5-1.6,0-3,0v0.3l-1.2-0.1
					c0-0.6-0.1-0.7,0-1.1h-0.3L212.6,20.7z M219.6,23.7v0.1l-0.8-0.1v-0.1h0.7C219.6,23.7,219.4,23.6,219.6,23.7L219.6,23.7z
					 M224.8,46.1l-0.1,0.3l-0.9-0.1v0.3h-0.1l0.1-0.4h-0.3v0.3l-0.7-0.1c0,0,0,0.2-0.3,0.1c0-0.1-0.2-0.2-0.3-0.1v0.1l-0.9-0.1v0.1
					h-0.7v-0.1c-0.2,0,0.1,0.1-0.1,0.1l-0.9-0.1v-0.1l-0.4,0.3v-0.1c-0.5-0.1-0.3-0.1-0.8,0V46c-0.2,0-0.4,0.1-0.5,0.1V46h-0.1
					c-0.2,0,0.1,0.2-0.1,0.1c0-0.1-0.2-0.2-0.3-0.1v0.1h-0.1l-0.1-0.3c-0.3-0.1-0.6-0.2-0.9-0.1v-0.3l-0.3,0.1c-0.1,0,0,0.2-0.1,0.1
					l-0.4-0.5l-0.7,0.1v-0.1h-0.3V45h-0.7l-0.1-0.3h-0.1v0.1l-0.9-0.3l0.1-0.8l-0.3-0.1l0.1-0.7h-0.1c0-0.1,0-0.2,0.1-0.3l-0.1-0.3
					c0-0.5,0.1-1.1,0.1-1.6h-0.3c0,0,0.3-0.4,0.3-0.5l-0.3-0.1c-0.1-0.2,0.1-0.2,0.1-0.3v-0.8h0.1V39h0.1c0-0.2-0.2-0.2-0.3-0.3
					l0.1-0.3h-0.1v-0.1h0.1c0-0.3,0.1-0.5,0.1-0.8l-0.3-0.1l-0.1,0.1l0.3-1.1h-0.3l0.1-0.5h0.1l-0.1-0.7c0-0.2,0.1,0.1,0.1-0.1h-0.1
					l-0.1-0.4h0.3l-0.1-0.3h0.1l-0.1-0.3l0.1-0.3h-0.1v-0.1h0.1v-0.1h-0.1l0.1-0.4l-0.3-0.1c-0.1-0.2,0.1-0.2,0.1-0.3
					c0-0.1,0-0.2-0.1-0.3c0-0.2,0.1,0.1,0.1-0.1v-0.8h0.1c0-0.4-0.2-0.3-0.3-0.4l0.3-1.3h-0.1l0.1-0.4h-0.1v-0.1
					c0-0.1,0.2,0,0.1-0.3h-0.1l-0.1-0.4h0.1c0.1-0.2,0.2-0.5,0.1-0.8l-0.3-0.1c0-0.1,0.4-0.3,0.3-0.8c-0.1-0.3-0.2-0.6-0.1-0.9
					c0,0,0.2,0,0.1-0.3c-0.1,0-0.2-0.2-0.1-0.3c0,0,0,0,0,0h0.1l0.1-0.5l0.4-0.1c0,0.1,0.2,0.2,0.3,0.1V25h0.1v0.1h0.4v0.1l0.4-0.3
					l0.1,0.3h0.5V25c0.8,0.3,1.7,0.3,2.5,0.1l0.1,0.3l-0.1,0.1c0.3-0.1,0.7-0.1,1.1,0l0.1,0.3h0.1v-0.1h0.3v0.1h0.7L220,26l0.5-0.1
					l-0.1,0.3h0.5l0.1,0.3l0.8,0.1c0.2,0.4,0.4,0,0.9,0.3c-0.4,0.4,0.6,0.4,0.8,0.5l0.1,0.3c0.2-0.1,0.5-0.1,0.7,0l-0.1,0.3l0.4-0.1
					v0.2l0.5,0.1c-0.1,0.3,0,0.1-0.1,0.3c0.3,0.3,0.6,0.1,1.1,0.3l-0.1,0.3l0.8,0.1v0.1l0.3,0.1v0.3h0.1c0.1-0.2,0.2-0.1,0.3,0
					c0.4,0.1,0.3,0,0.4,0.4c0.2,0.1,0.8,0.5,1.1,0.4l0.1-0.3h0.3c0,0.2-0.1,0.4-0.1,0.5c0.3,0,0.6,0,0.8,0.1l0.1,0.4l0.8,0.1
					l0.3,0.4h0.4l0.1,0.3h0.5l0.1,0.3c0,0,0.3,0.3,0.3,0.3h0.3v0.1l0.3,0.1v0.3l0.4,0.1c0,0.3,0,0.4,0.1,0.5h0.1v0.3l0.3-0.1
					c-0.1,0.4-0.1,0.3,0,0.8h0.3c-0.1,0.4-0.1,0.8,0,1.2h0.1c0,0.2,0,0-0.1,0.1V36h0.1l-0.1,0.3h0.1c-0.1,0.2-0.2,0.4-0.3,0.7
					c0,0.1,0.2-0.1,0.3,0.1h-0.1l-0.1,0.7H234c0,0.1,0.3,0.4,0.1,0.7l-0.4,0.3v0.5l-0.3,0.1l-0.1,0.9H233c-0.3,0.4-0.5,0.9-0.7,1.3
					h-0.3v0.4l-0.4,0.1v0.4h-0.3v0.3h-0.5v0.4h-0.4c-0.1,0.3-0.1,0.2-0.3,0.4l-0.1,0.3h-0.7c0.3,0.3-0.3,0.5-0.5,0.7v0.1l-0.4-0.1
					c-0.2,0.5,0,0.2-0.4,0.4V45h-0.3l-0.1,0.3h-0.3l-0.1,0.3l-0.4-0.1l-0.3,0.4l-0.7,0.1v-0.1h-0.1l-0.1,0.3h-0.3v0.1l-0.4,0.1
					C225.1,46.2,225.1,46,224.8,46.1L224.8,46.1z"/>
				<path id="パス_333" class="st1" d="M1,48.9h0.3v0.4h0.1V49h0.3c-0.3,0.3,0.2,0.4,0.3,0.8l0.4-0.1c0.1,0,0,0.2,0.3,0.1v-0.1
					c0.2-0.1,0.4-0.1,0.7-0.1c0.1-0.1,0,0,0.1-0.1c0-0.1,0.1-0.5-0.1-0.4v0.1H3.2l0.1-0.4l-0.4-0.1L3,47.4h0.1L3,47l0.3-0.1
					l-0.1-0.5h0.1L3.4,45c0.3-0.1,0.1,0,0.3-0.1h0.1v-0.1H3.4v-0.3l0.3-0.1v-0.1H3.5l0.1-0.7l0.3-0.1c-0.1-0.2-0.2-0.4-0.1-0.7
					c0.1-0.2,0.3-0.7,0.4-0.9H3.9c0.1-0.3,0.1-0.3,0.1-0.3v-0.7h0.1v-0.3h0.1c0.1-0.3-0.1-0.6-0.1-0.8c0.1-0.1,0.2,0,0.3-0.3H4.3
					v-0.1h0.3c0.1-0.3,0-0.1,0.1-0.3v-0.1H4.3c0.1-0.2,0.1-0.3,0.1-0.5l-0.1-0.1l0.3-0.1l0.3-1.6c-0.3-0.1-0.1,0-0.3-0.1H4.5v-0.1
					c0.3,0.1,0.2,0,0.4,0.3H5c0.3-0.6-0.5-0.3,0.1-0.8c-0.1-0.1-0.2-0.2-0.4-0.3v-0.1L5,35.7v-0.3h0.3c0-0.3,0.1-0.4,0.1-0.5H5.3
					v-0.3H5.1c0-0.2,0.3-0.2,0.3-0.3v-0.1H5.3c0-0.3,0.2-0.5,0.4-0.7c-0.1-0.2-0.3-0.2-0.4-0.4C5.4,33.1,5.6,33,5.8,33
					c-0.1-0.3-0.1-0.5-0.1-0.8c0.3-0.1,0.1,0,0.3-0.1H5.7v-0.3h0.3l-0.1-0.4h0.1v-0.1c-0.1-0.2-0.2,0.1-0.1-0.1h0.1l0.1-0.7h0.3
					l-0.1-0.9l0.4-0.3l0.1-1.2h0.1v-0.3H7l0.1-0.8h0.1v-0.8H7.1v-0.1L7.4,26v-0.3h0.1c0-0.2-0.3-0.4-0.1-0.7L7.6,25v-0.7h0.1v-0.3
					h0.1l-0.1-0.5h0.1v-0.4H8l0.1-0.8H8v-0.1h0.1c0.2-0.6,0.3-0.9,0.1-1.3h0.3l0.1-0.8H8.6V20h0.1v-0.3h0.1l-0.1-0.9H9v-0.5h0.1
					v-0.1c0-0.1-0.2,0-0.1-0.3l0.3-0.1c0-0.1-0.2-0.4-0.1-0.7c0,0,0.2,0,0.3-0.3H9.2v-0.1h0.3c0.1-0.5,0.1-0.2,0-0.7h0.1v0.1h0.3
					l-0.1,0.4h0.1v0.3H10l-0.1,0.3H10c0.2,0.4,0,0.5,0.4,0.8c-0.1,0.1,0,0.1-0.3,0.1l0.4,0.7h-0.1c0,0,0,0.5,0.1,0.3v-0.1h0.1
					l-0.1,0.1v0.1h0.1v0.4h0.1v0.7h0.3v0.8h0.3c-0.1,0.1-0.2,0.2-0.3,0.3l0.1,0.4h0.1V22h0.3v0.8h0.3v0.5H12v0.1
					c-0.1,0.1-0.2,0-0.1,0.3H12l0.1,0.7c0.3,0.1,0.1,0,0.3,0.1h-0.1l0.1,0.4h0.3V25c-0.1,0-0.2,0-0.1,0.1h0.1v0.1
					c0,0-0.2,0.1-0.1,0.4l0.4,0.3c0.1,0.2-0.1,0.5-0.1,0.5h0.4c-0.1,0.2-0.2,0.2-0.1,0.5h0.1v0.1h-0.1v0.4h0.3c0,0.4-0.1,0.3,0,0.7
					h0.1l-0.1,0.4h0.1v0.3h0.1l0.1,0.8H14l-0.1,0.7H14v0.1c-0.1,0.2-0.1-0.1-0.1,0.1l0.3,0.1l0.1,1.1h0.3L14.4,32h0.3
					c-0.1,0.1-0.1,0.2-0.3,0.3c0.1,0.1,0,0.1,0.3,0.1l0.1,0.4h-0.1v0.1h0.3v0.1h-0.1c0,0.2,0.1,0,0.1,0.1v0.7l0.3,0.1
					c0.1,0.2-0.1,0-0.1,0.1l0.1,0.5c0,0,0.5,0,0.3,0.1h-0.1c0,0.2,0.1,0,0.1,0.1l-0.1,0.4l0.4,0.1c-0.3,0.4,0,0.3,0,0.5l-0.1,0.1
					h0.3c-0.1,0.3,0,0.1-0.1,0.3v0.1h0.4c0,0.2,0.1,0.4,0.1,0.5c0,0.1-0.2,0.1-0.1,0.4h0.1v0.4l0.3,0.1c0.2,0.4,0.1,0.7,0,1.1
					l0.4,0.1v0.3h-0.2c-0.1,0.4,0.3,0.3,0.3,0.7h-0.1v0.1l0.3,0.1L17,40.7h0.1v0.5h0.1v0.1h-0.1v0.1h0.1v0.3h0.1l-0.1,0.5h0.1
					l0.1,0.5h0.1l-0.1,0.3c0.1,0.1,0.2,0.3,0.1,0.4h-0.1v0.1h0.1l0.1,0.4c0,0.1-0.2,0-0.1,0.1l0.5,0.3l-0.1,0.7h0.1v0.3h0.3V46h0.1
					c0,0.1-0.1,0.5,0.1,0.4v-0.1h0.1l-0.1,0.1v0.1h0.1v0.5h0.3c-0.1,0.1-0.1,0.2-0.3,0.3c0.1,0.1,0,0.1,0.3,0.1
					c0.1,0.4,0.3,0.5,0.5,0.8l0.4,0.1c0.2-0.4,0.5-0.3,0.8-0.5h0.3c-0.3-0.3,0.1-0.3,0.1-0.4v-0.3h0.1c0.1-0.2-0.1-0.3-0.1-0.3v-0.1
					h0.1c0.1-0.4-0.1-0.4-0.1-0.4c0.1-0.2,0.1-0.4,0.1-0.7c0.3-0.1,0.1,0,0.3-0.1h0.1c0.1-0.3-0.2-0.1-0.3-0.1l0.1-0.3L21.5,45
					l0.4-0.3c0-0.1-0.2-0.2-0.1-0.5h0.1v-0.4l0.3-0.1v-0.8h0.1v-0.3h0.1c0-0.2,0,0-0.1-0.1c0-0.6,0.5-0.7,0.3-0.9l0.1-0.8h-0.1v-0.1
					l0.3,0.1l0.1-0.5h0.1l-0.1-0.5h0.1v-0.4h0.1V39h0.1l-0.1-0.3l0.3-0.1c0-0.4,0.1-0.9,0.1-1.3h0.3c-0.1-0.4,0-0.1-0.4-0.1l0.4-0.5
					H24c0-0.3-0.4,0-0.3-0.3l0.3-0.1l0.1-0.4h0.1l-0.1-0.3h0.3l-0.1-0.4h0.1v-0.3l0.3-0.1c0.1-0.3,0.1-0.6,0-0.9l0.5-0.1
					c-0.2-0.2-0.1-0.5,0-0.8h0.1l-0.1-0.3h0.1c0.1-0.3,0.2-0.6,0.1-0.9h0.3l0.1-0.4H26l-0.1-0.1l0.1-0.7h0.1v-0.4h0.1l0.1-0.5h0.1
					l0.1-0.9h0.1v-0.3h0.1v-0.3l0.3-0.1L27,27.5h0.1v-0.3h0.1v-0.4l0.3-0.1l-0.1-0.7h0.3l0.1-0.4c-0.1,0-0.2-0.1-0.1-0.2
					c0,0,0,0,0,0l0.3-0.1l-0.1-0.7c0.3-0.1,0.1,0,0.3-0.1h-0.3c0.1-0.4,0.2-0.4,0.4-0.7h0.1l-0.3-0.5l0.4-0.3l-0.1-0.5l0.4-0.3v-0.4
					h0.1v-0.1c-0.1-0.1-0.2,0-0.1-0.3l0.3-0.1l-0.1-0.4l0.4-1.2h0.3v-0.3l-0.3-0.1l0.1-0.4h0.3v-0.1c-0.2-0.1-0.1,0.1-0.3-0.1h0.3
					v-0.5h0.4v-0.3h-0.3l0.1-0.4h0.1l-0.1-0.3l0.3-0.1v-0.3h0.1c0.1-0.1,0-0.3-0.1-0.4c0.1-0.2,0.2-0.1,0.3-0.3l-0.1-0.3l0.3-0.1
					l0.1-0.5c-0.1,0-0.4,0.1-0.3-0.1h0.1c0.1-0.5,0.1-0.2,0.4-0.4c-0.1-0.3-0.1-0.6,0-0.9c0.3,0.2,0.3-0.1,0.4-0.4h-0.3v0.3H31
					l0.1-0.4h0.1v-0.4h0.1l0.1-0.5h0.1v-0.7h0.1v-0.3l0.3-0.1c0.1-0.3-0.1-0.6-0.1-0.8H32l0.1-0.4H32V9.9l0.3-0.1V9.3l0.3-0.1
					c0.1-0.3-0.1-0.5-0.1-0.7h0.1c0.1-0.2,0.2-0.2,0.3-0.5l0.4,0.1c0,0.3,0,0.3,0.1,0.5h0.1V9h0.1v0.4h0.1l-0.1,0.3l0.3,0.1v0.3
					c0.1,0.2,0.3,0,0.3,0.5H34c0.1,0.3,0.5,0.5,0.1,0.9v0.1h0.4l0.1,1.3l0.3,0.1c-0.1,0.3-0.2,0.3,0,0.7h0.1
					c0.1,0.3-0.1,0.3-0.1,0.4c0,0.2,0.1,0.2,0.1,0.5h0.3v1.1c0,0.2,0.2-0.1,0.1,0.1h-0.1v0.3h0.3c0,0.2-0.3,0.6-0.1,0.9l0.3,0.1
					l-0.1,0.7h0.3l-0.1,0.4c0,0.2,0.2,0,0.1,0.1h-0.1v0.1h0.1l0.1,1.2h-0.1V20l0.3-0.1v0.3h0.1c-0.1,0.2-0.1,0.4-0.1,0.7h0.3
					l-0.1,0.8c0,0,0.2,0.1,0.1,0.4l-0.1,0.1l0.4,0.1c0.1,0.3-0.1,0.5-0.1,0.7h0.1v0.3h0.1v0.7h0.1v0.5h0.1v1.3h0.1l-0.1,0.3h0.1
					c0,0.6-0.1,1.1-0.1,1.7c0.3,0.1,0.1,0,0.3,0.1h-0.3c0,0.2,0.1,0.4,0.1,0.5h-0.1v0.3h0.3c-0.1,0.2-0.2,0.4-0.1,0.7h0.1
					c0,0.1,0,0.2-0.1,0.3v0.1h0.1l-0.1,0.7h0.3l-0.1,0.3h0.3c-0.2,0.3-0.2,0.7-0.1,1.1h0.1L37.5,32c0,0,0.2,0,0.1,0.3l-0.3,0.1v0.1
					h0.1v0.7h0.1c0,0.6-0.1,1.2-0.1,1.8h0.3l-0.1,0.4h0.1v0.1h-0.1V36h-0.3l0.1,1.2h0.3c-0.1,0.5-0.1,1.1,0,1.6h0.1l-0.1,0.8h0.1V40
					H38l0.1,0.9c0,0-0.5,0-0.3,0.1h0.3l0.1,0.8c-0.1,0-0.2,0.1-0.1,0.2c0,0,0,0,0,0l0.3,0.1l-0.1,0.5h0.1c0.1,0.4,0.1,0.8,0,1.2h0.3
					c0,0.2,0.1,0.4,0.1,0.5c0,0-0.2,0-0.1,0.3c0,0.1,0.3,0.1,0.3,0.3l-0.3,0.1c0,0,0,0.5,0.1,0.3c0.2,0-0.1-0.1,0.1-0.1l-0.1,0.4
					l0.3,0.1c0.2,0.4,0,0.6-0.1,0.9l0.4,0.1v0.3h-0.1c-0.2,0.7,0.2,0.9,0,1.6c0.5,0.3,0.6,0.7,1.5,0.4c-0.2,0.2-0.1,0.2-0.4,0.3v0.1
					h0.7l-0.1-0.4h0.4c0.1-0.5,0.7-2.4-0.1-2.6v-0.1h0.4v-0.1L41,46.1l-0.3-1.3c-0.4-0.2-0.1-0.4-0.3-1.1h-0.1c0-0.1,0.2-0.1,0-0.5
					h-0.1V42h-0.1v-0.3H40c0-0.1,0-0.2,0.1-0.3c0,0,0,0,0,0L40,41.1l0.1-0.4c0,0-0.2-0.1-0.1-0.4c0-0.2,0.2,0.1,0.1-0.1H40v-0.4
					h-0.1l0.1-0.4l-0.3-0.1v-0.5h-0.1l0.1-0.3c0-0.2-0.1,0-0.1-0.1c0-0.1,0-0.3,0.1-0.4l-0.1-0.4h-0.3c-0.1-0.1,0.1-0.1,0.1-0.1V37
					c0,0,0.2,0,0.3-0.3h-0.1l-0.1-0.8h0.1v-0.1c-0.1-0.2-0.2,0.1-0.1-0.1h0.1l-0.1-1.1h0.1L39.4,34h0.1l-0.1-0.8h0.1l0.1-0.7h-0.3
					v-0.1c0.1-0.1,0.2-0.3,0.1-0.4l-0.3-0.1c0-0.1,0-0.2,0.1-0.3l-0.1-0.4h0.3c-0.1-0.5-0.2-0.2-0.4-0.4c-0.1-0.1,0.2-0.1,0.3-0.3
					l-0.3-0.1l0.1-1.2c-0.3-0.1-0.1,0-0.3-0.1h0.3v-0.3H39l0.1-0.8H39v-0.3h-0.1c0.1-0.2,0.1-0.4,0.1-0.7c0-0.2-0.2,0.1-0.1-0.1H39
					v-0.4h0.1v-0.1H39l-0.1-0.5H39v-0.5c0-0.2,0.1,0.1,0.1-0.1h-0.3C39,25,39,24.7,39,24.4h-0.1l0.1-0.7l-0.3-0.1
					c-0.1-0.3,0-0.6,0.1-0.8l-0.4-0.1c0-0.2,0.1-0.4,0.1-0.7h-0.3c0.1-0.3,0-0.1,0.1-0.3c0-0.3,0-0.4-0.1-0.5h-0.3
					c0.1-0.1,0.2-0.3,0.3-0.5h-0.3c0-0.4-0.1-0.5-0.3-0.7V20l0.4,0.1c-0.1-0.2-0.5-0.8-0.4-1.1H38v-0.1h-0.4v-0.4h0.1
					c0.1-0.1,0-0.3-0.1-0.4c0-0.2,0.1,0.1,0.1-0.1v-0.5h-0.1l0.1-0.4h-0.3l0.1-0.4h-0.3c0-0.2,0,0,0.1-0.1V16h-0.3l0.1-0.7
					c0-0.2-0.2,0.1-0.1-0.1h0.1v-0.1h-0.1v-0.4l-0.3-0.1c0-0.2,0.3-0.6,0.1-0.9l-0.3-0.1v-0.5h0.1l-0.1-0.4h-0.3v-0.3h0.1l-0.1-0.4
					h-0.1l0.1-0.3h-0.3l0.1-0.8H36v-0.1h0.3v-0.4h-0.1v-0.1l-0.3,0.1l0.1-0.1c0-0.2-0.1-0.2-0.1-0.3c-0.1-0.3-0.1-0.5,0-0.8L35.5,9
					V8.4h-0.3V8.3c0,0,0.2-0.1,0.1-0.3h-0.1V7.8c0-0.1-0.5-0.2-0.3-0.5h0.1V7.1h-0.4c0-0.6-0.3-0.7-0.4-1.2H34V5.4l-0.5-0.1V5.1
					c0.1-0.1,0.1,0,0-0.1V4.9L33.2,5V4.9h-0.3V4.8h-0.1v0.1c-0.2,0-0.5,0-0.7-0.1l-0.5,0.7h-0.1l0.1,0.4l-0.4,0.3l0.1,0.1
					c-0.2,0.5-0.3,1-0.4,1.5h-0.3L30.6,9l-0.3,0.1l0.1,0.3H30v1.2l-0.3,0.1v0.5h-0.1v0.3h-0.1l-0.1,1.2h-0.2v0.3h0.3
					c0,0.1-0.1,0.5-0.1,0.5L29,13.3v0.3h-0.1c-0.1,0.3,0.1,0.3,0.3,0.4c-0.1,0.1-0.3,0.3-0.4,0.4c-0.1,0.1,0.2,0.3,0.1,0.5l-0.3,0.1
					l-0.1,0.7l-0.3,0.1v0.9h-0.1v0.4h-0.1v0.4h-0.1l0.1,0.4h-0.1v0.3h-0.1c-0.2,0.6,0.1,0.5-0.4,0.8c0.1,0.1,0,0.1,0.3,0.1v0.4h-0.3
					c-0.1,0.6-0.3,0.6-0.1,1.1h-0.3l0.1,0.8h-0.3v0.3l-0.3,0.1l0.1,0.5l-0.3,0.1v0.4h-0.1c0,0.2,0.2,0.2,0.1,0.5h-0.1v0.3h-0.1
					L26,24.3h-0.1l0.1,0.5h-0.1v0.3h-0.1l-0.1,1.5h-0.1l-0.1,0.7H25l-0.3,1.7h-0.4v0.1h0.1l-0.1,0.1v0.7L24.1,30v0.3H24l0.1,0.4
					l-0.3,0.1c-0.3,0.4-0.2,0.3-0.1,0.8h-0.3c0,0.3,0.2,0.4,0,0.8l-0.3,0.1c-0.1,0.3,0.2,0.3,0,0.7l-0.3,0.1v0.1h-0.3
					c0.2,0.2,0,1-0.1,1.3h-0.1v0.7l-0.3,0.1V36l-0.3,0.1c-0.1,0.3-0.1,0.5,0,0.8h-0.3v0.5h-0.1v0.1h0.1v0.3c-0.3,0.1-0.1,0-0.3,0.1
					h-0.1v0.1h0.3l-0.3,0.8l-0.3,0.1l0.1,0.4l-0.1,0.3c0.1,0.1,0.2,0,0.1,0.3l-0.3,0.1v0.7h-0.1v0.4h-0.1v0.4l-0.4,0.3l0.1,1.1H20
					v0.1h0.1v0.1c0,0.1-0.2,0-0.1,0.3h0.1v0.1H20c-0.1,0.3,0,0.1-0.1,0.3l-0.3-0.8h-0.1l-0.1-1.3h-0.3v-0.1c0,0,0.2-0.1,0.1-0.3
					h-0.1L19,40.9h0.1v-0.1H19l0.1-0.3l-0.3-0.1V40h-0.1v-0.1H19c0-0.2-0.1-0.4-0.3-0.5h-0.1c-0.1-0.3,0.1-0.4,0.1-0.5l-0.3-0.1
					v-0.1h0.1v-0.1h-0.1v-0.9l-0.4-0.3l0.1-0.4h-0.1l-0.1-0.4c0.1-0.1,0.2,0,0.1-0.3h-0.1c-0.2-0.3-0.3-0.7-0.3-1.1
					c-0.3-0.1-0.1,0-0.3-0.1h-0.1v-0.3h0.1l-0.1-0.4l0.1-0.1L17,34.1l-0.1-1.2h-0.1v-0.4h-0.1v-0.5h-0.1v-0.3l-0.3-0.1
					c-0.1-0.2,0.1-0.2,0.1-0.3c0-0.2-0.1,0-0.1-0.1c-0.1-0.5,0.1-0.4-0.3-0.7l0.1-0.7h-0.4l-0.1-1.1h0.1v-0.1l-0.4-0.3
					c-0.1-0.3,0.2-0.4,0.1-0.5h-0.1v-0.4h-0.1v-0.3H15v-0.7l-0.4-0.1c0.1-0.2,0-0.8,0.1-1.2h-0.3l-0.1-0.7h-0.1l0.1-0.3h-0.3
					l0.1-0.1v-0.3H14l0.1-0.3c-0.2-0.4-0.3-0.8-0.3-1.2h-0.4c0.2-0.5,0.1-0.5-0.1-0.9l0.1-0.3h-0.1c-0.2-0.2-0.1-0.2-0.4-0.3
					l0.1-0.8L12.8,20c-0.1-0.3,0.2-0.4,0.1-0.5l-0.3-0.1v-0.4h-0.1l0.1-0.3c0,0-0.2,0-0.1-0.3c0-0.2,0.2,0,0.1-0.1
					c0,0-0.2,0-0.3-0.4h-0.3l0.1-0.4L12,17.3l-0.1-0.7c0.1-0.2,0.1,0,0.1-0.3c-0.3-0.1-0.1,0-0.3-0.1h-0.1l0.1-0.3h-0.1v-0.4
					l-0.3-0.1v-0.4c-0.1-0.2-0.1,0-0.1-0.1h0.1v-0.1h-0.1c-0.1-0.2-0.2-0.4-0.1-0.7h-0.3c0-0.8-0.4-0.9-0.7-1.5H9.6v0.1H9.5v-0.3
					H9.3v0.3c-0.3-0.1-0.6-0.1-0.9,0l-0.1,0.4c0,0,0.2,0,0.1,0.3H8.3c-0.1,0.4-0.1,0.3,0,0.7H8c-0.1,0.6-0.2,0.4-0.3,0.9H8
					c-0.1,0.2-0.2,0.2-0.3,0.5c-0.4,0.1-0.1,0-0.1,0.4H7.4c-0.1,0.1,0.1,0.1,0.1,0.1v0.5H7.2l0.1,0.4l-0.3,0.1V18H6.8v0.3
					c0.3,0.1,0.1,0,0.3,0.1H6.8c0.1,0.4,0.1,0.8,0,1.2l-0.4,0.3v0.7H6.3v0.1c0.1,0.1,0.4-0.1,0.3,0.1l-0.3,0.1V21h0.1
					c0,0.1-0.3,0.3-0.3,0.3c-0.1,0.2,0.1,0.2,0.1,0.3c0,0.2-0.1-0.1-0.1,0.1l0.1,0.7c-0.3,0.1-0.1,0-0.3,0.1H5.9
					c-0.2,0.3,0.1,0.5,0.1,0.7H5.9v0.4H5.8l-0.1,0.8l0.1,0.1c-0.2,0.5-0.4,0.4-0.3,0.9H5.3c0,0.4-0.1,0.7-0.3,1.1h0.3
					c-0.1,0.2,0,0.4-0.1,0.7c-0.2,0.4-0.4,0.8-0.4,1.2c0,0-0.5,0.1-0.3,0.1h0.1l0.1,0.7l-0.4,0.3V30H4.2v0.4H4.1v0.3H3.9
					c0,0.2,0.2,0.2,0.1,0.5l-0.3,0.1l0.1,0.1l-0.3,0.7l0.1,0.4H3.7v0.3H3.5l0.1,0.1l-0.1,0.4c0,0.2,0.2,0,0.1,0.1H3.5v0.3H3.4
					L3.5,34H3.4l-0.1,0.5H3.1c0,0.3,0.3,0.1,0.3,0.3l-0.3,0.5h0.1v0.1H3.1c-0.1,0.3,0.1,0.2,0.1,0.3v0.1H3.1v0.4H3l0.1,0.1
					c-0.1,0.4-0.2,0.7-0.4,1.1c0,0,0,0.5,0.1,0.3v-0.1H3v0.5l-0.3,0.1l-0.3,1.2l0.4,0.1l-0.1,0.3l-0.3,0.1c0,0.2,0.1,0.2,0.1,0.5
					H2.3c-0.1,0.3,0,0.1-0.1,0.3c0.1,0.1,0,0.1,0.3,0.1l-0.1,0.5H2.2l0.1,0.4H2.2V42H2.1c0,0.2,0.2,0.2,0.3,0.3l-0.1,0.3
					c0.1,0.1,0.2,0,0.1,0.1H2.2l-0.1,0.4H2c0,0.1,0,0.2,0.1,0.3c0,0,0,0,0,0v0.1H2v0.7H1.8l-0.1,0.9H1.6c0,0.2,0,0,0.1,0.1l-0.1,0.4
					h0.1v0.7l-0.3,0.1v0.3H1.3c-0.1,0.2,0,0,0.1,0.1v0.1H1.3c0,0.2,0.2,0.2,0.1,0.5H1.3v0.3H1.2v0.7H1c0.1,0.1,0,0.1,0.3,0.1v0.3
					C1.3,48.8,0.8,48.7,1,48.9z M30.5,9.7c-0.3-0.1-0.1,0-0.3-0.1C30.5,9.6,30.3,9.5,30.5,9.7L30.5,9.7z M16.3,32.2h0.1v0.3h-0.1
					V32.2z"/>
				<path id="パス_334" class="st1" d="M208.6,7.1c0.2,0.2,0,0.1,0.3,0.1C208.7,7.1,208.9,7.1,208.6,7.1z"/>
				<path id="パス_335" class="st1" d="M80.3,11.7v0.3h-0.4l-0.1,0.8h-0.1l0.1,0.3h-0.1v0.3h-0.1c0,0.1,0,0.2,0.1,0.3v0.3h-0.1
					l0.1,0.3h-0.1v0.1c0,0.1,0.3,0.1,0.3,0.3l-0.3,0.1v0.7c-0.2,0.5-0.3,0.4-0.1,0.9h-0.3v0.3h0.3V17h-0.3v0.1h0.1
					c-0.2,0.4,0,0.4,0,0.5h-0.1L79,18h0.3c-0.1,0.2-0.1,0.3-0.1,0.5H79l0.1,0.1c0,0.3-0.1,0.3-0.3,0.4c0.1,0.1,0.2,0.2,0.4,0.3
					c-0.1,0.2-0.2,0.2-0.3,0.3c0.1,0.4,0.1,0.8,0,1.2h-0.1l0.3,0.5H79v0.5c-0.1-0.2-0.1,0-0.1-0.3h-0.1l0.1,0.7H79v0.1h-0.1v0.9
					h-0.1c-0.1,0.3,0.2,0.4,0.1,0.5h-0.1v0.3h-0.1c0,0.2,0.1-0.1,0.1,0.1v0.4h-0.1l0.1,0.5l-0.1,0.4h0.1v0.1h-0.1v0.3h-0.1
					c0,0.2,0.2,0.2,0.1,0.5l-0.3,0.1c0,0.2,0.3,0.3,0.3,0.3l-0.1,0.7h0.1c0,0.2-0.1-0.1-0.1,0.1v0.8h-0.1l0.1,0.3h-0.1
					c-0.1,0.2-0.2,0.3-0.3,0.5h0.3c-0.2,0.1,0,0.1-0.3,0.1c0.2,0.1,0,0.1,0.3,0.1l-0.1,0.4h0.1V30l-0.3,0.1l0.1,0.8h-0.3
					c0,0.6,0.1,0.6,0,1.2h-0.1c0,0.3,0.3,0,0.3,0.3h-0.1v0.3h-0.1v0.8c0,0-0.1,0-0.1,0.3h0.3V34l-0.3,0.1l-0.1,1.2h0.3
					c-0.1,0.3,0,0.7-0.1,1.1h-0.1l0.1,0.3h-0.1v0.5h-0.1c0,0.2,0.1,0.2,0.1,0.3c0.2,0.6,0.1,1.2-0.1,1.7v0.1h0.4
					c-0.1,0.1-0.2,0.2-0.3,0.3v0.1h0.1c0,0.2-0.1,0.3-0.1,0.3c0,0.1,0,0.2,0.1,0.3v0.1h-0.1c0,0.3,0.1,0.3,0.1,0.3
					c0.1,0.3-0.1,0.3-0.1,0.5h0.1v0.1h-0.1v0.5h-0.1l0.1,0.4h-0.1v0.1h0.1l0.1,0.4h0.1c-0.1,0.3-0.2,0.7-0.3,1.1h0.3V44l-0.3,0.1
					v0.1h0.1v0.7l0.3,0.1l-0.1,0.1v0.1h0.1c0,1,0.3,1.8,1.1,2v0.1l0.8-0.3v-0.3h-0.1c0-0.2,0.2-0.2,0.3-0.3c0-0.1,0-0.2-0.1-0.3
					c0,0,0,0,0,0c0-0.2,0.1,0.1,0.1-0.1c0-0.1,0-0.3-0.1-0.4c0.1-0.2,0.1-0.3,0.1-0.5h-0.3l0.1-0.8h-0.1c0-0.7-0.1-1.4-0.1-2.1
					c0.3-0.1,0.1,0,0.3-0.1h-0.3l0.1-0.5h-0.1v-0.7h0.1V41h-0.3l0.3-0.5c0-0.2-0.1,0-0.1-0.1v-0.4h-0.1c0.1-0.2,0.1-0.3,0.1-0.5
					l-0.1-0.8h0.1v-0.8h-0.1v-0.1l0.3-0.1V37h-0.1l0.1-0.3h-0.1l-0.1-0.5h0.1v-0.4h0.1c0.1-0.2-0.1-0.2-0.1-0.3v-0.1h0.1
					c0-0.2-0.2-0.2-0.1-0.5h0.1v-0.3h0.1L79.6,34h0.1v-0.7h0.1l0.1-0.7c0,0-0.5,0.1-0.3-0.1h0.1v-0.1h-0.3c0.3-0.4,0.4-0.8,0.4-1.3
					h-0.3v-0.3H80c0-0.2-0.1-0.4-0.1-0.7l0.3-0.1c0.1-0.3-0.2-0.5-0.1-0.7h0.1V29h0.1v-0.3h0.1v-0.4h-0.1v-0.1h0.1
					c0-0.4,0-0.9-0.1-1.3h0.1v-0.5h0.1l-0.1-0.4h0.1v-0.3h0.1l-0.1-0.8c0.2-0.7,0.3-0.2,0-0.9h0.3l-0.1-0.5h0.1v-0.1h-0.1v-0.1h0.1
					v-0.5c0-0.2-0.2,0-0.1-0.1c0-0.1,0.3-0.1,0.3-0.3c-0.1-0.1-0.3,0.1-0.3-0.1h0.1v-0.3H81v-0.3h0.1c0-0.1-0.2-0.3-0.1-0.7h0.1
					v-0.1H81v-0.3h-0.1l0.1-0.8h0.1c0.1-0.3-0.2-0.4-0.1-0.5c0,0,0.3-0.2,0.3-0.3H81c0-0.7,0.3-0.8,0.4-1.3H81l0.1-0.7h0.1v-0.3h0.1
					c0.1-0.3-0.1-0.5-0.1-0.7v-0.1h0.1V15h0.3l0.3,0.8H82v0.1h0.4v0.3c0,0.1,0.2,0,0.3,0.3h-0.1v0.1h0.5v0.7h0.4v0.3
					c0.2,0.1,0.5,0.1,0.7,0.3v0.5h0.4v0.1c0.3,0.2,0.1,0.3,0.5,0.4v0.4l0.4,0.1c0,0.4,0.1,0.5,0.3,0.7v0.1h0.1V20H86l-0.1,0.4
					l0.4,0.1l0.1,0.7h0.3l0.1,0.7l0.4,0.1v0.3h0.3v0.5c0.2,0.1,0.3,0.4,0.4,0.5l0.4,0.1v0.4l0.3,0.1v0.3l0.3,0.1l-0.1,0.3h0.3v0.1
					l0.4,0.1c0,0.2-0.1,0.4-0.1,0.7l0.5,0.1c0.1,0.5,0.2,0.2,0.4,0.4L90,26.5l0.4,0.3c0.3,0.4,0.1,0.5,0.5,0.8
					c-0.1,0.1-0.1,0.2-0.3,0.3c0.1,0.1,0,0.1,0.3,0.1l0.1,0.4h0.1c0.2,0.3-0.1,0.3,0.4,0.4l0.1,0.4c0,0.1-0.2,0-0.1,0.3l0.4,0.3v0.4
					h0.1v0.1h0.4l0.1,0.4h-0.1v0.1l0.3,0.1c0.2,0.3,0.3,0.4,0.3,0.9c0.3,0.1,0.3,0.1,0.5,0.3v0.4H94l-0.1,0.4l0.4,0.1
					c0,0.3,0.1,0.6,0.1,0.9c0.3,0.1,0.1,0,0.3,0.1h0.1v0.7h0.1l0.3,0.8l0.3,0.1V36h0.1c0.2,0.1,0,0.1,0.3,0.1v0.5h0.1
					c0.1,0.4,0,0.3,0.4,0.4v0.5l0.5,0.4v0.3l0.3,0.3h0.3c-0.2,0.3,0,0.3,0.3,0.4v0.4c0,0,0.5,0,0.3,0.1h-0.1
					c0.1,0.2,0.1,0.2,0.4,0.3l0.1,0.4h-0.1v0.3h0.4l-0.1,0.3h0.3v0.1h0.1l-0.1,0.3l0.3,0.1V42c0.3,0.1,0.1,0,0.3,0.1h0.1
					c-0.2,0.3,0,0.4,0,0.8h0.3l0.1,0.8h-0.1v0.1h0.1c0.1,0.2,0.1,0.3,0.1,0.5l0.5,0.1c-0.1,0.2-0.1,0-0.3,0.1
					c0.1,0.1,0.2,0.3,0.3,0.5h0.3v0.4h0.4c0.1,0,0.1,0.4,0.5,0.3l0.1-0.3l0.3,0.1c0.1,0,0.1-0.3,0.3-0.3v0.1h0.1v-0.4l0.3-0.1
					c-0.1-0.3-0.1-0.5-0.1-0.8h0.1v-0.7c0.3-0.1,0.1,0,0.3-0.1h-0.3c0-0.2,0-0.4,0.1-0.5h0.1v-0.1h-0.3l0.1-0.4h-0.1v-0.1h0.1v-0.4
					h0.3c-0.2-0.9,0-1.5-0.1-2.2h0.4v-0.4l-0.4,0.1v-0.1h0.3l-0.1-0.4h0.1l0.1-0.4h-0.3l0.1-0.7h0.1v-0.3h0.1
					c-0.1-0.3-0.2-0.6-0.1-0.9h0.1v-0.3h0.1c0-0.1-0.2-0.4-0.1-0.7h0.1l-0.1-0.3h0.1l0.1-0.4h-0.3c0-0.2,0.1-0.4,0.1-0.5
					c0-0.1-0.3-0.1-0.3-0.3h0.1l0.1-0.8h-0.3c0.1-0.4,0.2-0.9,0.3-1.3h-0.1l-0.1-0.4h0.1v-0.4h0.1v-0.1h-0.3l0.1-0.4
					c0-0.2-0.2,0.1-0.1-0.1h0.1v-0.5h-0.1c0-0.3,0.1-0.5,0.1-0.8h-0.1l0.1-0.4h-0.1c0-0.3,0.2-0.4,0.1-0.5h-0.1
					c0-0.3,0.1-0.6,0.1-0.7h-0.1v-0.1h0.1c0-0.2-0.3-0.3-0.3-0.3c-0.1-0.3,0.2-0.5,0.1-0.7l-0.3-0.1c0-0.2,0.2-0.3,0.1-0.7
					c0,0-0.2,0-0.1-0.4h0.1v-0.1h-0.1v-0.4h-0.1c-0.1-0.3,0.3-0.6,0.1-1.1l-0.3-0.1v-0.3h-0.1l0.3-0.8l-0.3-0.1l-0.1-1.2
					c-0.3-0.1-0.1,0-0.3-0.1h0.3v-0.4h-0.3l0.1-0.4c0-0.1-0.2,0-0.1-0.4c0-0.2,0.1,0.1,0.1-0.1h-0.1c0-0.4-0.1-0.7-0.1-1.1H102v-0.5
					h-0.1l0.1-0.7h-0.1v-0.4h-0.1v-0.5h-0.1l0.1-0.4h-0.1v-0.3h-0.1v-0.1h0.1c0-0.1,0-0.2-0.1-0.3v-0.1h0.1l-0.1-0.5h-0.3v-0.1
					l0.3-0.1l-0.1-0.1l0.1-0.5h-0.3l0.1-0.4c-0.1-0.1-0.2-0.3-0.1-0.4c0,0,0.2,0,0.1-0.3c0-0.1-0.3-0.1-0.3-0.3h0.3l-0.1-0.3
					c0-0.2,0.2,0.1,0.1-0.1h-0.1v-0.1h0.1l-0.4-1.1h0.3c0-0.1-0.3-0.3-0.3-0.3c-0.1-0.3,0.2-0.5,0.1-0.7l-0.3-0.1
					c0-0.4,0.1-0.7,0.3-1.1h-0.3c0-0.6-0.1-0.8,0-1.2h-0.3l0.1-0.4h-0.1l-0.1-0.4H100V6.7c-0.7,0.1-0.3,0.3-0.9,0.1L99,7.3h-0.4
					c0.3,0.4,0.3,1,0.1,1.5H99c-0.1,0.5-0.1,1.1,0,1.6h0.1L99,10.5l0.1,0.3H99v0.1l0.3,0.1l-0.1,0.1l0.1,0.4c-0.1,0-0.2,0.2-0.1,0.3
					h0.1v0.4h0.1l-0.1,0.7h0.1v0.7c-0.1,0.2-0.2,0-0.1,0.1h0.1v0.3h0.1l-0.1,0.1c0,0.4,0.1,0.3,0.1,0.4l-0.1,0.1
					c0,0.3,0.1,0.3,0.1,0.3c0,0.3,0,0.6-0.1,0.9h0.3c0,0.4,0.1,0.9,0.1,1.3h0.1l-0.1,0.4c0.4,0.2,0.1,0.4,0.3,1.1h0.1l-0.1,0.3h0.1
					v0.5h0.1v0.8h0.1v0.1c-0.1,0.1-0.2,0.1-0.1,0.4h0.1v0.5c0.1,0.2,0.1-0.1,0.1,0.1h-0.1v0.1h0.3V22h-0.1c0.2,0.1,0,0.1,0.3,0.1
					c0,0.2-0.1,0.3-0.1,0.3c0,0.1,0.3,0.3,0.1,0.5h-0.1c0.2,0.1,0,0.1,0.3,0.1v0.8h-0.1c0.2,0.1,0,0.1,0.3,0.1l-0.1,0.8h0.3v0.7H101
					c0.1,0.1,0.3,0.3,0.4,0.4l-0.3,0.7l0.3,0.1v0.8h0.1v0.1h-0.1v0.3h-0.1c-0.1,0.2,0.4,0.2,0.3,0.7h-0.1l-0.1,0.4h0.3V29h-0.3
					c0.1,0.2,0.2,0.3,0.4,0.4c-0.1,0.2-0.2,0.2-0.3,0.3v0.1h0.3c-0.1,0.2-0.1,0.1-0.3,0.3v0.5l0.3-0.1c0,0.5-0.1,0.4,0,0.8h-0.3v0.3
					h0.3c-0.3,0.2,0.1,0.4,0,0.8h-0.1v0.1h0.1c0,0.3,0,0.6-0.1,0.9v0.1l0.3,0.1c0,0.2-0.1,0-0.1,0.1v0.5l-0.3-0.1v0.3h0.3
					c0,0.3-0.1,0.9-0.1,0.9l0.3,0.1l-0.1,0.4h-0.1l0.1,0.5h-0.1v0.5h-0.1c-0.1,0.3,0.2,0.4,0.1,0.5h-0.1v0.3h-0.1
					c-0.1,0.4,0.2,0.7,0.1,0.9l-0.3,0.1l0.1,0.3h-0.1v0.1h0.3c0,0.1-0.3,0.3-0.3,0.3l0.1,0.4l-0.3,0.1c0,0.1,0,0.2,0.1,0.3
					c0,0.3-0.1,0.3-0.1,0.3c-0.1,0.3,0.2,0.4,0.1,0.5H101v0.1h-0.1v-0.5h-0.1v-0.1h0.1v-0.1l-0.4-0.1l0.1-0.4h-0.1
					c-0.3-0.5-0.4-0.2-0.3-0.8h-0.3v-0.1l-0.3-0.1c-0.3-0.4,0.2-0.6-0.5-0.8c-0.1-0.7-0.3-0.5-0.7-0.8l0.1-0.3l-0.4-0.1
					c-0.2-0.3,0.2-0.5-0.3-0.7c-0.1,0.1,0.1,0.1-0.1,0.1v-0.4c0,0-0.5,0-0.3-0.1h0.1v-0.4h-0.4l0.1-0.4h-0.1
					c-0.2-0.3-0.2-0.2-0.3-0.8h-0.3v-0.3h-0.3c0-0.2,0.1-0.4,0.1-0.5h-0.3V33H96v-0.1c0.2-0.1,0.1,0.1,0.3-0.1l-0.4-0.1V32h-0.4
					c0.2-0.1-0.1-0.8-0.3-0.9h-0.3c-0.2-0.7-0.6-0.8-0.7-1.7H94v-0.1c-0.2-0.2-0.4-0.4-0.5-0.7l-0.3-0.1v-0.3h-0.1l0.1-0.3l-0.4-0.3
					v-0.3h-0.1l0.1-0.3l-0.5-0.3l0.1-0.1c-0.1-0.5-0.4-0.5-0.4-1.1h-0.3l-0.1-0.4L91.2,25c-0.3-0.5,0.2-0.6-0.5-0.8v-0.4h0.1
					c-0.1-0.2-0.3-0.1-0.4-0.3v-0.3L90,23.1c0-0.5-0.2-0.7-0.7-0.8l0.1-0.5h-0.3v-0.3c-0.3-0.1-0.1,0-0.3-0.1h-0.1V21l-0.3-0.1
					l0.1-0.4l-0.8-0.4c-0.1-0.3-0.1-0.6-0.1-0.9c-1-0.2-0.3-0.2-0.7-0.8l-0.3-0.1V18l-0.4-0.1l-0.3-0.4h-0.1V17h-0.1
					c-0.1-0.2-0.1-0.3-0.3-0.4v-0.1h-0.4v-0.3h-0.4c-0.1-0.5-0.2-0.4-0.3-0.8h-0.3c-0.1-0.4-0.4-0.7-0.8-0.8v-0.4h-0.1
					c0,0,0-0.5-0.1-0.3c-0.2,0,0.1,0.1-0.1,0.1L83,13.7c-0.4-0.1-0.3,0-0.4-0.4h-0.3v-0.5H82c0.4-0.3-0.2-0.4-0.3-0.5l0.1-0.3h-0.2
					v-0.4C81.1,11.7,80.8,11.9,80.3,11.7z"/>
				<path id="パス_336" class="st1" d="M116.6,16.8h0.1l-0.1,0.3h0.4c0,0.4-0.1,0.3,0,0.8h0.1c0.1,0.3-0.2,0.4-0.1,0.5h0.1v0.1
					H117v0.1h0.1c0.1,0.3-0.2,0.4-0.1,0.5l0.3,0.1V20h-0.1c0,0.3,0.1,0.3,0.1,0.3v0.9h-0.1v1.1h0.1v0.1h-0.1c-0.1,0.5,0,1.1,0.1,1.6
					l-0.3-0.1v0.3l0.3,0.1c0.2,0.4-0.2,1.1-0.1,1.3h0.1c0,0.3-0.1,0.4-0.1,0.4c-0.1,0.3,0.1,0.3,0.1,0.5v0.1h-0.1v0.5h0.1
					c0,0.3-0.1,0.3-0.1,0.3c0,0.3,0,0.6,0.1,0.9H117l0.1,0.4h0.1v0.1h-0.1l0.1,0.3h-0.1v0.5h0.1v0.1h-0.1v0.4H117v0.1l0.4,1.1h-0.1
					v0.3h-0.1c0,0.2,0.2,0.3,0.1,0.7c-0.1,0.1-0.2,0.3-0.1,0.4h0.1l0.1,0.4h-0.1v0.5h-0.1l0.1,0.4l-0.3,0.1v0.1h0.3
					c0,0.2-0.2,0.3-0.1,0.7c0.1,0.1,0.2,0.3,0.1,0.4c0,0.2-0.2-0.1-0.1,0.1s0.2-0.1,0.1,0.1h-0.1v0.1h0.1c0,0.2-0.1-0.1-0.1,0.1
					l0.1,0.4c-0.1,0.1-0.2,0.3-0.1,0.4h0.1c0,0.2,0,0.5-0.1,0.7H117c0,0.2,0.2,0.2,0.1,0.5H117v0.6h0.1l-0.1,0.4l0.3,0.1
					c-0.1,0.2-0.3,0.3-0.4,0.4c0,0.2,0.3,0.4,0.3,0.7c0,0.1-0.3,0.1-0.3,0.3h0.1c0.1,0.7,0.3,0.5,0.4,1.1l0.8,0.1l0.1-0.3l0.7-0.1
					l0.1-0.5c-0.1-0.1-0.2-0.3-0.1-0.4h0.1V40c-0.1,0-0.2-0.2-0.1-0.3c0-0.2,0.2,0.1,0.1-0.1c-0.1-0.1-0.2-0.3-0.1-0.4h0.1
					c0-0.2-0.2-0.3-0.1-0.7h0.1v-0.4h-0.1l0.1-0.4h-0.1v-0.1c0,0,0.1,0.1,0.3-0.1l-0.4-0.1l0.1-0.4l0.3-0.1c0.1-0.2-0.3-0.2-0.3-0.5
					h0.1v-0.3h0.1l-0.1-0.7h-0.1c0-0.2,0.2-0.2,0.3-0.3v-0.3h-0.3v-0.1l0.3-0.1v-0.7c0-0.4-0.1-0.8-0.1-1.2h0.1l0.1-0.8h-0.3
					l0.1-0.8c-0.1,0-0.2-0.2-0.1-0.3h0.1v-0.1c0,0-0.2,0-0.1-0.3l0.3-0.1c0-0.2-0.2-0.2-0.3-0.3v-1.2c0,0-0.2,0-0.1-0.3h0.1l0.1-0.4
					h-0.1V28h-0.1l0.3-0.4h-0.3l0.1-0.4h0.1l-0.3-0.5h0.1c0-0.4-0.1-0.8-0.1-1.2l0.3-0.1l-0.1-0.1v-0.8h0.1v-0.1
					c-0.1,0-0.2-0.2-0.1-0.3c0-0.2,0.2,0.1,0.1-0.1h-0.1c0-0.5,0-1,0.1-1.5l-0.3-0.1c-0.1-0.3,0.1-0.4,0.1-0.5l-0.1-0.3l0.3-0.1V21
					c-0.3-0.1-0.1,0.1-0.3-0.1h0.1v-0.1h-0.1l0.1-0.4h-0.3c0.1-0.5,0.1-1.1,0-1.6h-0.4v-0.1h0.3c0.1-0.1-0.1-0.1-0.1-0.1
					c0-0.2,0.2-0.2,0.1-0.5l-0.3-0.1v-0.3h-0.3l-0.1-0.8h-0.1v-0.3c-0.1,0.1-0.2,0.1-0.3,0.3h-0.1l0.4-0.5h-0.3v-0.7h-0.1l0.1-0.1
					c0-0.2-0.1-0.3-0.3-0.4c-0.1-0.4-0.3-0.5-0.8-0.5c-0.1,0.4-0.3,0.4-0.3,0.4c-0.1,0.2,0.1,0,0.1,0.1c-0.1,0.2-0.1,0.2-0.3,0.3
					c0.2,0.1,0,0.1,0.3,0.1c-0.1,0.6-0.3,0.2-0.1,0.8c-0.1,0-0.2,0-0.1,0.1h0.4C116.4,16.6,116.4,16.6,116.6,16.8z M116.4,16
					c0.3,0.1,0.1,0,0.3,0.1C116.4,16.1,116.6,16.2,116.4,16L116.4,16z"/>
				<ellipse id="楕円形_48" class="st1" cx="211.3" cy="16.2" rx="0.1" ry="0.2"/>
				<path id="パス_337" class="st1" d="M116.4,16c0.2,0.2,0,0.1,0.3,0.1C116.5,16,116.7,16.1,116.4,16z"/>
				<path id="パス_338" class="st1" d="M59.5,48.1c0.1-0.4-0.2-0.3-0.3-0.4v-0.3h-0.1v-0.1h0.1l-0.1-0.9h0.3V46h-0.4l0.3-0.5
					c-0.1-0.1-0.3,0.1-0.3-0.1c0-0.1,0.3-0.1,0.3-0.3l-0.3-0.1l0.1-0.3c-0.1-0.1-0.2-0.3-0.1-0.4h0.1V44h0.1c0-0.2-0.2-0.1-0.3-0.3
					l0.1-0.3h-0.1v-0.1c0.1,0,0.2-0.2,0.1-0.3h-0.1v-0.1c0.1-0.1,0.2-0.3,0.1-0.4h-0.1v-0.9h-0.1l0.3-0.4l-0.3-0.1l-0.1-1.6l0.3-0.1
					v-0.1h-0.3l0.1-0.1l-0.3-0.4l0.3-0.1c0-0.2-0.2-0.4-0.3-0.7h0.3c-0.2-0.1,0-0.3,0-0.4h-0.1c0-0.1-0.3-0.4-0.1-0.7h0.1
					c0,0,0-0.5-0.1-0.3c-0.2,0,0.1,0.1-0.1,0.1l0.1-0.4c-0.1-0.1-0.2-0.3-0.1-0.4c0,0,0.2-0.1,0.1-0.4h-0.1c0-0.3,0.4,0,0.3-0.3
					l-0.3-0.1v-0.4h0.1l-0.1-0.3h0.1v-0.1h-0.1v-0.4h-0.1c0-0.2,0.3-0.2,0.3-0.3c0.1-0.4-0.4-0.3,0.1-0.8v-0.3l-0.4,0.1l0.3-0.8
					h-0.3l0.1-0.8c0,0-0.2-0.1-0.1-0.4c0-0.2,0.1,0.1,0.1-0.1l-0.3-0.1V29H58v-0.1c0-0.1,0.2,0,0.1-0.3H58v-0.3h0.1L58,27.5h-0.1
					c0-0.2,0.3-0.4,0.3-0.7c0,0-0.2-0.1-0.3-0.3h0.3c0-0.2-0.2-0.2-0.3-0.3c-0.1-0.2,0.1-0.2,0.1-0.3l-0.1-0.7H58v-0.5h-0.1l0.1-0.4
					h-0.1v-1.1c0-0.1-0.4,0-0.3-0.4l0.3-0.1v-0.1h-0.1l0.1-0.7L57.6,22l-0.1-0.7c0.1,0,0.2-0.1,0.1-0.2c0,0,0,0,0,0l-0.3-0.1v-0.7
					h-0.1v-0.1h0.1V20l-0.3-0.1v-0.4l-0.3-0.1c-0.2-0.4,0-0.6,0-1.1h-0.3v-0.4L56.3,18l0.1-0.4h-0.1c-0.1-0.4,0-0.2,0-0.7
					c-0.3-0.2-0.7-0.3-1.1-0.1c0.1,0.4,0.1,0.4,0.3,0.7l-0.3-0.1c-0.1,0.1,0,0-0.1,0.1l0.1,1.3h0.1L55.2,19l0.3,0.1
					c0.1,0.3-0.2,0.5-0.1,0.7h0.1c0.1,0.3,0.1,0.7,0,1.1h0.3c-0.2,0.1,0,0.1-0.3,0.1c0.2,0.1,0,0.1,0.3,0.1v0.5h0.1v0.1h-0.3
					c0.1,0.1,0,0.1,0.3,0.1l0.1,0.8h-0.1v0.1H56v0.4h0.1L56,23.7h0.1v0.5H56c0,0.2,0.2,0.2,0.1,0.5H56v0.1c0,0.3,0,0.5,0.1,0.8H56
					v0.7c0,0.2-0.1-0.1-0.1,0.1h0.3v0.1c-0.1,0.1-0.3,0-0.3,0.3l0.3,0.1c0,0.2-0.3,0.4-0.3,0.7l0.3,0.1v0.1H56V28h0.1L56,28.7h0.1
					v0.3h0.1c0.1,0.2-0.1,0.2-0.1,0.3l0.1,0.3c0,0-0.2,0-0.3,0.3h0.3l-0.1,0.4c0,0.2,0.1,0.3,0.3,0.4c0,0.2-0.2,0.2-0.3,0.3l0.1,0.4
					h0.3l-0.1,1.1h0.1v0.1h-0.1v0.1h0.1v0.1c-0.1,0-0.2,0.2-0.1,0.3h0.1V33h-0.1c0,0.2,0.2,0.2,0.1,0.5h-0.1v0.1h0.1
					c0,0.3-0.1,0.1-0.3,0.1c0.1,0.1,0,0.1,0.3,0.1c-0.1,0.3-0.1,0.4-0.3,0.5c0.1,0.1,0,0.1,0.3,0.1l-0.1,1.2h0.1v0.4h0.1l-0.3,0.5
					l0.3,0.1l-0.1,0.7H57v0.1h-0.3l0.1,0.8c0,0.2-0.2-0.1-0.1,0.1h0.1v0.1c-0.1,0.1-0.2,0.3-0.1,0.4h0.1l-0.1,0.4l0.3,0.1l-0.1,0.4
					c0,0,0.2,0,0.1,0.3c0,0.1-0.3,0.1-0.3,0.3l0.3,0.1L56.8,41H57c0.2,0.7-0.2,1.3,0,2.1h0.1L57,43.6l0.3,0.1c0,0.2-0.3,0.3-0.3,0.3
					c0,0.1,0,0.2,0.1,0.3v0.4H57l0.1,0.4H57c0,0.4,0.2,0.3,0.3,0.4l-0.1,1.2h0.1v1.2h0.1c0,0.2-0.2,0.2-0.1,0.5h0.1l-0.1,0.3h0.1
					l0.1,0.8c0.4,0,0.9,0.1,1.3,0.3c0.2-0.3,0.3-0.3,0.4-0.7h0.3v-0.5l-0.3,0.1v-0.4L59.5,48.1z"/>
				<path id="パス_339" class="st1" d="M218.8,23.6v0.1l0.8,0.1v-0.1c-0.2-0.1,0,0-0.1-0.1H218.8z"/>
				<path id="パス_340" class="st1" d="M290.1,23.8h-0.3c0.1,0.1,0,0.1,0.3,0.1V23.8z"/>
			</g>
			<g id="グループ_279" transform="translate(139.263 5.529)">
				<path id="パス_341" class="st0" d="M42.7,17.3c-1.1-4.7-5.3-11.8-10.1-13.6c-9-3.5-12.5-3.5-19.2-0.3C2.9,8.4,0.2,20,1.2,25.5
					S5.1,36,11.3,39.7c8.4,5,14.8,2.4,20.8-0.9C38.3,35.4,44.2,23.8,42.7,17.3z M26.8,29.6c-3.2,1.6-5.9,1.7-10.6-3.7
					c-3.5-4.1-1.5-6.7,0.2-9.2c2.3-3.5,5.1-3.7,8.7-3c2.9,0.5,5.2,2.3,6.2,5.9C33,24.8,29.6,28.2,26.8,29.6L26.8,29.6z"/>
			</g>
		</g>
	</g>
</g>
</svg>
