<?xml version="1.0" encoding="utf-8"?>
<!-- Generator: Adobe Illustrator 24.2.0, SVG Export Plug-In . SVG Version: 6.00 Build 0)  -->
<svg version="1.1" id="レイヤー_1" xmlns="http://www.w3.org/2000/svg" xmlns:xlink="http://www.w3.org/1999/xlink" x="0px"
	 y="0px" viewBox="0 0 270 82" style="enable-background:new 0 0 270 82;" xml:space="preserve">
<style type="text/css">
	.st0{fill:#FFFFFF;}
</style>
<g id="グループ_528" transform="translate(62.834 2.55)">
	<path id="パス_722" class="st0" d="M15.6,73.6c-0.4,0.6-0.7,1.3-0.7,2c0,1.8,1.6,2.8,4.8,2.8c1.4,0,2.7-0.1,4.1-0.3
		c0.2,0,0.3-0.1,0.2-0.2c0-0.5-0.1-0.9-0.2-1.4c0-0.1-0.1-0.2-0.3-0.1c-1.2,0.3-2.5,0.4-3.8,0.4c-2.4,0-3.3-0.4-3.3-1.3
		c0-0.4,0.2-0.7,0.4-1.1c0.1-0.1,0.1-0.2-0.1-0.3C16.3,74,16,73.8,15.6,73.6z M15.9,68.3c0,0.5-0.1,0.9-0.1,1.2
		c0,0.2,0.1,0.2,0.2,0.3c0.9,0.1,1.7,0.2,2.6,0.2c0.3,0,0.7,0,1,0c-0.5,0.3-1.1,0.7-1.8,1.2c0.3,0.1,0.7,0.2,1,0.4
		c0.1,0.1,0.2,0.1,0.3,0.1c0.1,0,0.2,0,0.3-0.1c1-0.7,2.2-1.2,3.4-1.4c0.2,0,0.2-0.1,0.2-0.3c0-0.4-0.1-0.8-0.1-1.2
		c0-0.1-0.1-0.2-0.2-0.2c-0.9,0.1-1.9,0.1-2.9,0.1C18.5,68.7,17.2,68.6,15.9,68.3z M22.9,67.7c0.6,0.5,1,1,1.4,1.6
		c0,0.1,0.1,0.1,0.2,0.1l0,0l0.6-0.4c0.1,0,0.1-0.1,0.1-0.2l0,0c-0.4-0.6-0.8-1.1-1.3-1.5c-0.1-0.1-0.1-0.1-0.2,0L22.9,67.7z
		 M24.2,66.7c0.6,0.5,1,1,1.4,1.6c0,0.1,0.1,0.1,0.2,0.1l0,0l0.6-0.4c0.1,0,0.1-0.1,0.1-0.2l0,0c-0.4-0.6-0.8-1-1.3-1.4
		c-0.1-0.1-0.1-0.1-0.2,0L24.2,66.7z M33.8,79.2c0.1,0,0.2,0,0.2-0.2v-0.7h6.3V79c0,0.1,0,0.2,0.2,0.2h1.2c0.1,0,0.2,0,0.2-0.2
		c0-0.1,0-0.8,0-4.6v-3c0-2.2,0-3,0-3.1s0-0.2-0.2-0.2c-0.1,0-0.6,0-1.9,0H37c0.2-0.3,0.3-0.7,0.5-1c0-0.1,0.1-0.2,0.2-0.3
		c0.1,0,0.1-0.1,0.1-0.2s-0.1-0.2-0.2-0.2c-0.4-0.1-1-0.2-1.5-0.2c0,0.2-0.1,0.4-0.2,0.7c-0.1,0.5-0.3,0.9-0.5,1.3h-0.9
		c-1.4,0-1.8,0-1.9,0c-0.1,0-0.2,0-0.2,0.2c0,0.1,0,0.9,0,3.5v2.6c0,3.7,0,4.5,0,4.6c0,0.1,0,0.2,0.2,0.2L33.8,79.2z M34,77v-1.7
		h6.3V77H34z M34,74v-1.6h6.3V74H34z M34,69.6h6.3v1.5H34V69.6z M54.9,73.7V72c0.9-0.2,1.9-0.5,2.8-0.8c0.2-0.1,0.4-0.1,0.6-0.1
		c0.2,0,0.2-0.1,0.2-0.2s-0.1-0.2-0.1-0.3c-0.3-0.3-0.6-0.6-0.9-0.9c-0.3,0.2-0.7,0.3-1,0.4c-2.2,0.6-4.4,1-6.7,1.3
		c0.2,0.3,0.4,0.6,0.5,0.9c0.1,0.4,0.1,0.4,0.5,0.3c1-0.1,1.9-0.3,2.7-0.4v1.6l-2.9,0.3c-1.2,0.1-1.6,0.2-1.8,0.2
		c-0.2,0-0.2,0-0.2,0.2l0.1,1.1c0,0.2,0,0.2,0.2,0.2c0.2,0,0.5-0.1,1.8-0.2l2.8-0.3v2.3c-0.1,0.6,0.3,1.1,0.8,1.4
		c0.9,0.2,1.8,0.3,2.7,0.2c1,0.1,2-0.1,3-0.5c0.5-0.5,0.8-1.1,0.8-1.8c0-0.4,0-0.4-0.4-0.5c-0.4-0.1-0.8-0.2-1.1-0.4
		c0,1-0.2,1.3-0.4,1.6c-0.3,0.2-0.9,0.3-2,0.3c-0.5,0-1,0-1.5-0.1c-0.3-0.1-0.4-0.2-0.4-0.6v-2l4-0.4c1.2-0.1,1.7-0.2,1.8-0.2
		s0.2,0,0.1-0.2l-0.1-1.1c0-0.1,0-0.2-0.2-0.1c-0.1,0-0.6,0.1-1.8,0.2L54.9,73.7z M55.3,67.9L55.3,67.9c0-0.4,0-0.7,0.1-0.9
		c0-0.1,0.1-0.2,0.1-0.3c0-0.1-0.1-0.1-0.2-0.1c-0.5,0-1-0.1-1.5-0.1c0.1,0.4,0.1,0.9,0.1,1.3v0.1h-3.1c-1.3,0-1.8,0-1.8,0
		c-0.1,0-0.2,0-0.2,0.1s0,0.3,0,0.9v0.5c0,1.3,0,1.5,0,1.6c0,0.2,0,0.2,0.2,0.2h1.2c0.1,0,0.2,0,0.2-0.2v-1.8h8.9v1.7
		c0,0.1,0,0.2,0.2,0.2h1.2c0.1,0,0.2,0,0.2-0.2c0-0.1,0-0.3,0-1.6v-0.6c0-0.4,0-0.7,0-0.7c0-0.1,0-0.1-0.2-0.1c-0.1,0-0.6,0-1.8,0
		H55.3z M77.7,69.5c0-1.5,0-2.2,0-2.3c0-0.2,0-0.2-0.2-0.2c-0.1,0-0.6,0-1.9,0H69c-1.3,0-1.8,0-1.9,0c-0.2,0-0.2,0-0.2,0.2
		c0,0.1,0,0.8,0,2.3v2.3c0,3.4-0.4,5-1.4,6.4c0.4,0.2,0.7,0.4,1,0.7c0.2,0.2,0.2,0.2,0.3,0.2c0.1,0,0.1-0.1,0.3-0.3
		c0.7-1.2,1.1-2.5,1.2-3.9h3.2v1.7c0,1.4,0,2,0,2.1s0,0.2,0.2,0.2h1.2c0.1,0,0.2,0,0.2-0.2c0-0.1,0-0.7,0-2.1v-1.7h3.3v2.3
		c0,0.3-0.1,0.5-0.4,0.5c-0.5,0-0.7,0-1.3-0.1c0.2,0.3,0.3,0.7,0.4,1.1c0.1,0.4,0.1,0.4,0.5,0.4c1.2,0,1.6-0.1,1.8-0.4
		c0.3-0.3,0.5-0.7,0.5-1.1c0-0.6,0-1.3,0-1.9v-6.2H77.7z M73,73.6v-2h3.3v2H73z M76.3,68.4v1.9H73v-1.9H76.3z M68.4,73.6
		c0-0.5,0-1.1,0-1.8v-0.2h3.1v2H68.4z M68.5,70.4v-1.9h3.1v1.9H68.5z M87.3,71.3l-1.2,0.3c-0.9,0.2-1.7,0.4-2.6,0.5
		c0.2,0.5,0.3,1,0.6,1.4c0.1,0.2,0.1,0.2,0.2,0.2c0.1,0,0.1,0,0.2-0.1c0.6-0.2,1.3-0.4,2-0.6l0.9-0.2v2.8c0,1.9,0.8,2.5,3.5,2.5
		c1.1,0,2.2,0,3.3-0.2c0.2,0,0.3-0.1,0.3-0.2c0-0.4,0-0.8-0.1-1.2c0-0.2,0-0.3-0.2-0.3c-1.1,0.2-2.3,0.3-3.4,0.3
		c-1.5,0-1.8-0.2-1.8-1v-3.2l3.9-1c-0.6,1-1.4,2-2.3,2.8c0.4,0.1,0.8,0.3,1.2,0.5c0.1,0.1,0.2,0.1,0.3,0.1c0.1,0,0.3-0.1,0.4-0.2
		c0.9-0.9,1.6-1.9,2.2-3c0.1-0.2,0.3-0.4,0.4-0.5s0.2-0.2,0.2-0.3c0-0.1-0.1-0.2-0.1-0.3c-0.3-0.3-0.7-0.7-1-0.9
		c-0.1-0.1-0.1-0.1-0.2-0.1s-0.1,0-0.2,0.1c-0.3,0.2-0.6,0.4-1,0.4l-3.7,0.9v-1.4c0-0.4,0-0.9,0.2-1.2c0.1-0.1,0.1-0.1,0.1-0.2
		s-0.1-0.2-0.3-0.3c-0.6-0.1-1.2-0.2-1.8-0.3c0.1,0.8,0.2,1.6,0.2,2.5L87.3,71.3z M102.7,71.6c0.6,0.7,1,1.4,1.3,2.3
		c0.1,0.2,0.2,0.3,0.3,0.2c0.3-0.1,0.6-0.3,0.9-0.4c0.1-0.1,0.2-0.1,0.2-0.2s0-0.1-0.1-0.2c-0.3-0.8-0.7-1.5-1.2-2.1
		c-0.1-0.1-0.2-0.2-0.3-0.1l0,0C103.5,71.1,103.2,71.3,102.7,71.6L102.7,71.6z M105.5,70.8c0.5,0.7,0.9,1.4,1.2,2.2
		c0.1,0.2,0.1,0.3,0.3,0.2c0.3-0.1,0.7-0.3,1-0.4c0.2-0.1,0.2-0.2,0.1-0.4c-0.3-0.7-0.6-1.4-1.1-2c-0.1-0.1-0.2-0.2-0.3-0.1l0,0
		C106.4,70.4,106.1,70.6,105.5,70.8L105.5,70.8z M109.9,70.5c0,0.5-0.1,1-0.3,1.5c-0.5,1.2-1.1,2.3-1.9,3.4
		c-0.9,1.2-2.1,2.2-3.4,2.9c0.4,0.1,0.8,0.3,1.2,0.6c0.1,0.1,0.1,0.1,0.2,0.1s0.2-0.1,0.3-0.2c1.1-0.7,2.1-1.6,2.9-2.7
		c0.9-1.1,1.6-2.4,2.1-3.7c0.1-0.3,0.2-0.5,0.4-0.7c0.1-0.1,0.2-0.2,0.2-0.3s-0.1-0.2-0.2-0.2C111,70.9,110.5,70.7,109.9,70.5
		L109.9,70.5z M124.2,69c0-0.4,0-0.9,0.1-1.3c0.1-0.1,0.1-0.2,0.1-0.3s-0.1-0.2-0.3-0.2c-0.6-0.1-1.2-0.2-1.8-0.2
		c0.1,0.7,0.2,1.4,0.1,2.1V76c0,0.9,0,1.7-0.1,2.8c0,0.2,0.1,0.2,0.3,0.2c0.4,0,0.8,0,1.2,0c0.2,0,0.3,0,0.3-0.2
		c0-1-0.1-1.8-0.1-2.7V73c1.3,0.4,2.5,1,3.7,1.8c0,0,0.1,0.1,0.2,0.1s0.1-0.1,0.2-0.2c0.2-0.4,0.4-0.8,0.6-1.2
		c0.1-0.2,0-0.3-0.2-0.4c-1.4-0.8-2.9-1.5-4.5-1.9L124.2,69z"/>
	<g id="グループ_302" transform="translate(-312.245 -92.309)">
		<path id="パス_449" class="st0" d="M258.5,98.1c-1.5,0.4-2.3,1.9-1.9,3.4c0.7,2.4,1.3,4.8,1.7,7.3c0.5,2.4,0.9,4.8,1.3,7.2
			c0.3,2.5,0.6,4.9,0.9,7.4c0-0.2-0.1-0.5-0.1-0.7c0.2,1.3,0.4,2.7,0.6,4c0-0.2-0.1-0.5-0.1-0.7c0.5,4.1,1.3,8.2,1.9,12.3
			c0.1,0.6,0.1,1.2,0.2,1.8c0,1.5,1.2,2.7,2.7,2.8c1.5,0.1,2.7-1.2,2.8-2.7l0,0c-0.2-2.4-0.5-4.8-1-7.1c-0.3-2.3-0.7-4.6-1.1-7v0.1
			c-0.1-1.1-0.3-2.1-0.5-3.2c0,0.1,0,0.2,0,0.3c-0.1-0.5-0.1-1.1-0.2-1.6c-0.2-1.7-0.4-3.3-0.6-5c-0.3-2-0.6-4-1-6.1
			c-0.6-3.6-1.3-7.1-2.3-10.6c-0.3-1.2-1.4-2-2.7-2C259,98,258.7,98,258.5,98.1L258.5,98.1z"/>
		<path id="パス_450" class="st0" d="M250.6,98.1c0,0.2,0,0.4,0,0.6c0,1.6,0.1,3.2,0.1,4.8c0.1,0,0.1,0,0.2,0
			c2.1,0.1,4.2,0.2,6.3,0.2c2,0,4,0,6.1,0.2c2.2,0.3,4.4,0.9,6.4,1.7c1.2,0.5,2.3,1.1,3.3,1.8c0.5,0.4,1,0.9,1.5,1.4
			c0.4,0.5,0.7,1.1,1,1.7c0.4,1,0.7,2.1,0.9,3.1c0.2,1.1,0.4,2.2,0.6,3.3c0.1,1,0.2,1.9,0.2,2.9c0,0.9-0.1,1.8-0.2,2.6
			c-0.3,1.8-0.7,3.5-1.4,5.2c-0.3,0.7-0.8,1.4-1.2,2.1c-0.9,1-1.8,1.9-2.9,2.7c-0.8,0.6-1.6,1.1-2.4,1.6c-0.8,0.4-1.7,0.9-2.5,1.3
			c-0.9,0.4-1.7,0.9-2.6,1.3c-0.9,0.4-1.8,0.9-2.7,1.4c-0.1,0-0.1,0-0.2,0.1c-1.5,0.4-2.3,1.9-1.9,3.4c0.4,1.5,1.9,2.3,3.4,1.9l0,0
			c1.4-0.6,2.8-1.2,4.2-2c1-0.5,2.1-1,3.1-1.6c1.1-0.5,2.1-1.1,3.1-1.7c1.2-0.8,2.4-1.7,3.5-2.6c1.2-1,2.2-2.2,3-3.5
			c0.8-1.3,1.5-2.8,1.9-4.3c0.4-1.3,0.7-2.7,0.9-4c0.3-1.6,0.4-3.2,0.3-4.8c-0.1-1.6-0.3-3.2-0.6-4.8c-0.2-1.3-0.5-2.6-0.8-3.9
			c-0.2-0.5-0.4-1.1-0.6-1.6c-0.3-0.8-0.7-1.5-1.1-2.2c-0.7-1.1-1.5-2-2.5-2.8c-1-0.9-2.2-1.6-3.4-2.2c-1.3-0.7-2.7-1.2-4.1-1.7
			c-2.8-0.9-5.8-1.4-8.7-1.4c-3.3,0-6.6,0-9.8-0.2h-0.1C250.8,98,250.7,98.1,250.6,98.1L250.6,98.1z"/>
		<path id="パス_451" class="st0" d="M307.4,100.3c-1.4,0.2-2.7,0.5-4,0.9c-1.5,0.5-2.9,1.1-4.3,1.9c-0.8,0.4-1.5,0.9-2.2,1.5
			c-0.9,0.7-1.6,1.5-2.2,2.5c-0.4,0.7-0.8,1.5-1,2.2c-0.2,0.6-0.5,1.3-0.6,2c-0.4,1.5-0.6,3-0.7,4.5c-0.1,1.4-0.1,2.7,0,4.1
			c0.1,1.6,0.2,3.2,0.5,4.7c0.2,1.4,0.6,2.7,1,4c0.2,0.6,0.4,1.2,0.6,1.8c0.6,1.5,1.3,3,2.2,4.4c0.8,1.3,1.8,2.4,3,3.3
			c0.9,0.6,1.8,1.1,2.8,1.5c1.6,0.6,3.2,0.8,4.9,0.7c0.2,0,0.3,0,0.5,0c0.5,0.4,1.1,0.6,1.7,0.6c1.5-0.1,2.9-0.3,4.3-0.5
			c1.1-0.1,2.2-0.4,3.3-0.7c1.3-0.5,2.6-1.1,3.7-1.9c1.4-0.8,2.6-1.8,3.6-3c1-1.2,1.8-2.6,2.4-4.1c0.5-1.3,0.8-2.6,1.2-3.9
			c0.3-1.4,0.6-2.8,0.8-4.2c0.2-1.3,0.3-2.6,0.2-3.9c-0.1-1.4-0.2-2.9-0.5-4.3c-0.3-1.3-0.7-2.5-1.2-3.8c-0.6-1.5-1.3-2.9-2.1-4.2
			c-1.1-1.6-2.6-3-4.3-4c-1.3-0.8-2.8-1.4-4.3-1.9c-0.6-0.2-1.2-0.3-1.9-0.4c-0.9-0.2-1.8-0.3-2.7-0.3c-0.2,0-0.3,0-0.5,0
			C310.1,100,308.7,100.1,307.4,100.3L307.4,100.3z M312.8,105.5c0.6,0.1,1.1,0.2,1.7,0.3c0.7,0.2,1.3,0.4,2,0.7
			c0.8,0.4,1.6,0.8,2.3,1.3c0.5,0.4,1,0.9,1.4,1.4c0.7,1,1.3,2.1,1.8,3.2c0.3,0.7,0.5,1.3,0.7,2c0.2,0.8,0.4,1.7,0.6,2.6
			c0.1,0.9,0.2,1.8,0.2,2.8c0,1-0.1,2-0.2,2.9c-0.3,2.2-0.9,4.4-1.6,6.4c-0.3,0.7-0.7,1.4-1.2,2c-0.4,0.5-0.9,0.9-1.4,1.3
			c-1.1,0.8-2.4,1.5-3.7,2.1c-1.5,0.5-3,0.7-4.6,0.9c0.2,0,0.5-0.1,0.7-0.1c-0.7,0.1-1.4,0.1-2.1,0.2c-0.2,0-0.3,0-0.5,0.1
			c-0.5-0.4-1.1-0.6-1.7-0.6s-1.2,0-1.9,0c-0.4-0.1-0.8-0.2-1.2-0.3c-0.5-0.3-1-0.5-1.5-0.9c-0.4-0.3-0.7-0.7-1-1.1
			c-0.7-1-1.3-2-1.8-3.1c-0.4-1-0.8-2-1.1-3c-0.3-1.2-0.6-2.4-0.8-3.6c-0.3-2.5-0.4-5.1-0.2-7.6c0.2-1.5,0.6-3,1.1-4.5
			c0.2-0.4,0.4-0.8,0.6-1.1c0.3-0.3,0.6-0.6,0.9-0.9c1.1-0.7,2.2-1.4,3.4-1.9c1.7-0.6,3.5-1.1,5.4-1.3
			C310.4,105.4,311.6,105.4,312.8,105.5L312.8,105.5z M297.8,115.7v0.2V115.7z"/>
		<path id="パス_452" class="st0" d="M332.4,106c0.1,0.6,0.2,1.2,0.3,1.8c0.7,5.6,0.3,11.2,0.5,16.8c0.1,1.5,0.2,2.9,0.5,4.4
			c0.3,1.5,0.7,2.9,1.3,4.2c0.5,1.2,1.4,2.3,2.4,3.1c0.5,0.5,1.1,0.9,1.7,1.3c0.7,0.4,1.5,0.8,2.4,1.1c0.5,0.2,1.1,0.4,1.7,0.5
			c0.3,0.1,0.5,0.1,0.8,0.1c0.5,0.1,1,0.1,1.5,0.1s0.9-0.1,1.4-0.2c0.8-0.1,1.5-0.4,2.2-0.8c0.8-0.4,1.5-0.9,2.1-1.5
			c1.2-1.1,2.1-2.6,2.6-4.1c0.5-1.3,0.9-2.6,1.3-3.9c0.4-1.6,0.7-3.2,0.9-4.8c0.1-1.4,0.2-2.8,0.2-4.2c0.1-2.6,0.1-5.1,0.1-7.7
			c0-1.4,0-2.9-0.2-4.3c-0.7,0.1-1.4-0.1-2-0.4c-0.3-0.1-0.6-0.3-0.9-0.4l0,0c-0.1,0-0.1,0-0.2-0.1c-0.7-0.1-1.4-0.3-2-0.6
			c-0.3,0.4-0.4,0.9-0.4,1.4c0.1,1.4,0.2,2.7,0.2,4.1c0,1.3,0,2.5,0,3.8c0,2.9-0.1,5.9-0.4,8.8c-0.4,2.3-1,4.5-1.8,6.6
			c-0.2,0.4-0.4,0.8-0.7,1.2c-0.2,0.3-0.5,0.5-0.8,0.8c-0.2,0.1-0.4,0.3-0.6,0.4c-0.3,0.1-0.6,0.2-0.9,0.2c-0.2,0-0.4,0-0.7,0
			c-0.7-0.1-1.4-0.4-2.1-0.6c-0.5-0.3-1-0.5-1.5-0.9c-0.3-0.3-0.6-0.5-0.9-0.8c-0.2-0.3-0.4-0.6-0.6-1c-0.5-1.3-0.8-2.7-1-4
			c-0.2-1.5-0.2-2.9-0.2-4.4c0-1.9,0-3.7,0-5.6c0-1.8,0-3.6-0.1-5.5c-0.1-2.1-0.4-4.2-0.8-6.3c-0.9,0.1-1.8,0-2.7-0.1
			c-0.9-0.1-1.8-0.1-2.6-0.2C332.3,105,332.3,105.5,332.4,106L332.4,106z"/>
		<path id="パス_453" class="st0" d="M372.1,93.7c-1.2,0.6-2.3,1.4-3.2,2.4c-0.6,0.6-1.1,1.4-1.6,2.1c-0.4,0.7-0.8,1.5-1,2.3
			c-0.4,1.2-0.7,2.5-0.9,3.8c-0.3,1.5-0.5,3-0.7,4.4c-0.3,2.8-0.6,5.6-0.7,8.4c0,1.4-0.1,2.8-0.2,4.2c-0.1,1.3-0.2,2.7-0.2,4
			c0,1.5,0.2,3,0.5,4.5c0.1,0.5,0.3,1,0.5,1.5c0.3,0.8,0.7,1.6,1.1,2.4c0.4,0.7,1,1.3,1.6,1.8c0.9,0.7,2,1.3,3.2,1.7
			s2.5,0.8,3.7,0.9c1.5,0.3,3,0.4,4.5,0.3c1.4-0.1,2.9-0.3,4.3-0.8c0.7-0.2,1.3-0.5,2-0.8c0.8-0.4,1.5-0.9,2.2-1.5
			c1.2-1,2.2-2.1,3.1-3.3c0.3-0.4,0.7-0.9,1-1.4c0.4-0.7,0.8-1.5,1.1-2.3c0.5-1.2,0.9-2.5,1.2-3.7c0.6-2.6,0.9-5.3,0.9-7.9
			c0-0.5,0-0.9,0.1-1.4c0-0.8-0.3-1.6-0.8-2.2c-0.6-0.6-1.4-0.9-2.2-0.9c-1.1-0.1-2.3-0.2-3.4-0.3c-1.8-0.1-3.5,0-5.3,0.2
			c0.1,0.4,0.2,0.8,0.3,1.2c0.3,1.1,0.5,2.3,0.6,3.5c0,0.2,0.1,0.5,0.1,0.7c1.7-0.1,3.5-0.1,5.2,0c-0.1,1.2-0.1,2.4-0.3,3.5
			c-0.3,2-0.9,4-1.6,5.8c-0.4,0.8-0.8,1.5-1.3,2.2c-0.7,0.9-1.5,1.7-2.4,2.4c-0.4,0.2-0.7,0.5-1.1,0.7c-0.9,0.3-1.9,0.6-2.8,0.8
			c-1.2,0.1-2.4,0.1-3.5,0c-1.3-0.2-2.6-0.5-3.8-1c-0.4-0.2-0.7-0.4-1.1-0.6c-0.1-0.1-0.3-0.2-0.4-0.4c-0.2-0.3-0.4-0.7-0.6-1.1
			c-0.3-0.8-0.5-1.5-0.6-2.3c-0.1-3.1-0.1-6.3,0.2-9.4c0.1-3.3,0.3-6.5,0.7-9.8c0.2-2.2,0.7-4.4,1.4-6.5c0.3-0.6,0.6-1.2,1-1.7
			c0.3-0.3,0.6-0.7,1-1c0.3-0.2,0.7-0.4,1-0.6c0.1,0,0.3-0.1,0.4-0.1c0.2,0,0.4,0,0.6,0c0.4,0.1,0.8,0.2,1.2,0.3
			c0.3,0.2,0.7,0.3,1,0.5c0.2,0.1,0.3,0.3,0.4,0.4c0.2,0.2,0.3,0.5,0.4,0.8c0.1,0.2,0.1,0.4,0.2,0.6c0.1,1.3,0.1,2.7,0.1,4
			c0.3-0.1,0.6-0.1,0.8-0.2c0.6-0.1,1.2-0.3,1.8-0.4c0.9-0.2,1.9-0.3,2.9-0.4l0,0c0-0.8,0-1.7-0.1-2.5c0-1.2-0.3-2.4-0.8-3.5
			c-1.1-2.3-3.1-4.1-5.6-4.7c-0.7-0.2-1.3-0.4-2-0.4c-0.2,0-0.4,0-0.7,0C374.2,93,373.1,93.2,372.1,93.7L372.1,93.7z"/>
		<path id="パス_454" class="st0" d="M402.4,100.9c-1,0.1-2,0.2-3.1,0.3c-0.5,0-1-0.1-1.4-0.3c-0.1,0.6-0.2,1.2-0.2,1.9
			c-0.1,1.6-0.2,3.1-0.2,4.7c-0.1,2.9-0.1,5.7-0.1,8.6c0,2.8,0.2,5.5,0.3,8.2c-0.1,2.9,0.1,5.8,0.4,8.6c0,0.3,0.1,0.6,0.2,0.9l0,0
			l0,0c0.3,0,0.6-0.1,0.8-0.1l0.9-0.1c0.7-0.1,1.5-0.3,2.2-0.5c0.2,0,0.3-0.1,0.5-0.1c0.2-0.3,0.4-0.6,0.7-0.8
			c0-0.2-0.1-0.3-0.1-0.5c-0.2-2.3-0.2-4.7-0.2-7.1c-0.1-2.6-0.3-5.2-0.3-7.8c0-2.6,0-5.2,0.1-7.8c0-2.6,0.2-5.2,0.4-7.8
			c0-0.1,0-0.2,0.1-0.3C403.1,100.8,402.8,100.8,402.4,100.9L402.4,100.9z"/>
		<path id="パス_455" class="st0" d="M419,114.7c-1.4,0.1-2.8,0.2-4.2,0.3c-1.6,0.1-3.2,0.3-4.8,0.3c-1.8,0.1-3.6,0.2-5.4,0.3
			c-1.9,0.1-3.8,0.2-5.6,0.4c-0.7,0-1.4,0.3-1.9,0.8c-1.1,1.1-1.1,2.8,0,3.9l0,0c0.5,0.5,1.2,0.8,1.9,0.8c1.8-0.2,3.6-0.2,5.4-0.4
			c1.8-0.2,3.6-0.2,5.4-0.3c1.7-0.1,3.3-0.2,4.9-0.3c1.4-0.1,2.8-0.3,4.3-0.3c0.7,0,1.4-0.3,1.9-0.8c1.1-1.1,1.1-2.8,0-3.9
			C420.4,115,419.8,114.7,419,114.7C419.1,114.7,419.1,114.7,419,114.7L419,114.7z"/>
		<path id="パス_456" class="st0" d="M422.5,94.2c-1.1,0.1-2.3,0.2-3.4,0.3c-0.7,0-1.3,0.1-2,0.1c0.5,5.5,1.2,11,1.5,16.6
			c0.1,2.9,0.2,5.7,0.2,8.6c0,2.7,0,5.3-0.3,7.9c-0.2,2.3-0.3,4.5-0.4,6.8c0,2,0.1,4.1,0.3,6.1c0,0.2,0,0.4,0.1,0.6
			c0.2,0,0.4-0.1,0.6,0c0.5,0,1,0,1.4,0.1c0.7-0.3,1.5-0.4,2.3-0.4c0.3,0,0.7,0,1,0h0.1c0-0.1,0-0.1,0-0.2c-0.2-2.5-0.3-5-0.2-7.5
			c0.1-2.8,0.4-5.5,0.5-8.3c0.1-2.7,0.1-5.4,0.1-8.1c0-2.9-0.2-5.7-0.4-8.6c-0.2-2.4-0.4-4.8-0.7-7.1
			C422.9,98.8,422.7,96.5,422.5,94.2L422.5,94.2L422.5,94.2z"/>
		<path id="パス_457" class="st0" d="M435.6,99.2c-0.5,0.5-0.8,1.2-0.8,1.9c-0.3,2.3-0.4,4.5-0.5,6.8c-0.1,2.3-0.4,4.6-0.5,6.8
			c-0.2,4.1-0.2,8.3-0.2,12.4v0.8c0,0.6,0.2,1.1,0.5,1.6c0.1,0,0.2,0,0.4,0c0.5,0,0.9,0,1.4,0c0.9,0,1.8,0,2.7,0
			c0.3-0.5,0.5-1,0.5-1.6c0-4.4,0-8.8,0.2-13.2c0.1-2.3,0.3-4.6,0.5-6.8c0.2-2.2,0.2-4.5,0.5-6.8c0-0.7-0.3-1.4-0.8-1.9
			C438.4,98.2,436.7,98.2,435.6,99.2L435.6,99.2L435.6,99.2z"/>
		<path id="パス_458" class="st0" d="M438.7,99.5c-0.7,0.2-1.3,0.6-1.6,1.3c-0.4,0.6-0.5,1.4-0.3,2.1c1,4.6,2.5,9.1,4.6,13.4
			c0.5,0.9,1,1.8,1.6,2.6c0.6,0.9,1.3,1.9,1.9,2.8c0.5,0.8,1,1.6,1.5,2.4c0.6,1.1,1.1,2.2,1.6,3.4c0.8,1.3,2.4,1.8,3.8,1
			c0.6-0.4,1.1-1,1.3-1.6c0.2-0.7,0.1-1.5-0.3-2.1c-0.6-1.3-1.2-2.6-1.9-3.8c-0.6-1-1.2-2-1.9-3c-0.7-1.1-1.4-2.1-2.1-3.2
			c-0.6-1.1-1.2-2.1-1.7-3.3c-0.6-1.5-1.2-3-1.7-4.6c-0.6-1.8-1-3.6-1.4-5.4c-0.3-1.2-1.4-2-2.7-2C439.1,99.4,438.9,99.4,438.7,99.5
			L438.7,99.5z"/>
		<path id="パス_459" class="st0" d="M449,94.6c-0.3,0-0.6,0.1-0.8,0.1l0,0c-0.2,1.3-0.3,2.6-0.3,4c0,0.7,0,1.3,0.1,2
			c0.1,1.3,0.1,2.6,0.1,3.9c0.1,2.7,0.1,5.3,0.1,8c0,2.4,0,4.7,0.1,7.1c0.2,2.5,0.1,5,0.3,7.4c0,0.7,0.3,1.4,0.8,1.9
			c1.1,1.1,2.8,1.1,3.9,0c0.5-0.5,0.8-1.2,0.8-1.9c-0.2-2.4-0.2-4.9-0.3-7.3c-0.1-2.3-0.1-4.7-0.1-7c0-2.7,0-5.3-0.1-8
			c0-1.3-0.1-2.5-0.1-3.8c0-0.7,0-1.3-0.1-2c0-1,0-1.9,0.1-2.9c-0.3-0.2-0.5-0.5-0.7-0.8c0,0-0.1,0-0.1-0.1c-0.5-0.2-1-0.4-1.5-0.5
			c-0.3,0-0.5,0-0.8,0s-0.5,0-0.8-0.1C449.3,94.5,449.2,94.6,449,94.6L449,94.6z"/>
		<path id="パス_460" class="st0" d="M465.5,104.4c-0.1,0-0.2,0-0.3,0c-0.3,3-0.5,6-0.5,9c-0.1,2.7-0.1,5.3,0.1,8
			c0.1,0.7,0.2,1.3,0.4,2c0.2,0.5,0.4,0.9,0.6,1.4c0.3,0.6,0.6,1.1,1,1.6c0.8,1.3,1.8,2.5,3,3.6c0.8,0.7,1.8,1.3,2.8,1.8
			c0.7,0.3,1.5,0.5,2.3,0.5c1.1,0.1,2.3,0,3.3-0.4c0.7-0.3,1.4-0.6,2.1-1c1.1-0.7,2.1-1.6,2.8-2.7c0.6-0.9,1.1-1.9,1.4-2.9
			c0.9-2.1,1.5-4.3,1.8-6.5c0.2-1.9,0.3-3.8,0.4-5.8c0-0.9,0-1.8-0.1-2.7s-0.1-1.7-0.1-2.6h-0.6c-0.2,0-0.5,0-0.7,0h-0.4
			c-0.1,0-0.2,0-0.3,0H482c-0.4,0-0.8-0.1-1.1-0.2v0.1c-0.1,0.9,0,1.8,0.1,2.7c0.1,1,0.1,1.9,0.1,2.9c0,1.8-0.2,3.6-0.4,5.4
			c-0.4,1.8-0.9,3.7-1.6,5.4c-0.2,0.5-0.5,1-0.8,1.5c-0.2,0.2-0.4,0.4-0.6,0.6c-0.3,0.2-0.7,0.4-1.1,0.6c-0.3,0.1-0.6,0.2-0.9,0.3
			c-0.2,0-0.3,0-0.5,0c-0.3-0.1-0.6-0.1-0.9-0.2c-0.2-0.1-0.4-0.2-0.6-0.3c-0.6-0.5-1.1-1.1-1.7-1.7c-0.6-0.8-1.1-1.6-1.6-2.5
			c-0.1-0.3-0.2-0.7-0.3-1.1c-0.1-1.1-0.1-2.3-0.1-3.4c0-1.4,0-2.8,0-4.1c0-3.1,0.2-6.1,0.6-9.1c-0.4,0-0.8,0-1.3,0
			C468.1,104.2,466.8,104.3,465.5,104.4L465.5,104.4z"/>
		<path id="パス_461" class="st0" d="M487.6,90c-0.1,1.8-0.1,3.7-0.1,5.5c3,0.9,6.1,1.7,9.1,2.4c1.8,0.4,3.7,0.7,5.5,0.9
			c1.7,0.2,3.3,0.4,5,0.6c1.6,0.2,3.2,0.5,4.8,0.8c0.9,0.2,1.9,0.4,2.8,0.6c1.1,0.2,2.2,0.4,3.3,0.5c0-0.3,0-0.6,0-0.9
			c0-0.5,0-1,0-1.4c0-1,0-1.9,0.1-2.9c0-0.1,0-0.1,0-0.2H518l-0.6-0.1c-1.2-0.2-2.3-0.4-3.4-0.7c-1.2-0.3-2.4-0.5-3.7-0.7
			c-2.6-0.4-5.2-0.6-7.8-0.9c-2.3-0.4-4.7-0.8-7-1.4c-2.4-0.6-4.8-1.2-7.2-1.9C488.1,90.1,487.8,90.1,487.6,90
			C487.7,90,487.7,90,487.6,90L487.6,90z"/>
		<path id="パス_462" class="st0" d="M495.8,95.6c0,1.1-0.1,2.2-0.1,3.4c0,1,0.1,2,0.2,3c0.2,2.4,0.6,4.8,1,7.2
			c0.8,4.1,1.8,8.2,2.4,12.4c0.3,3.4,0.4,6.8,0.4,10.3c0,0.4,0.1,0.7,0.2,1c1.7-0.1,3.4-0.2,5.1-0.3h0.1c0.1-0.2,0.1-0.5,0.1-0.7
			c0-2.2,0-4.4-0.1-6.6c-0.1-2.5-0.4-4.9-0.8-7.3c-0.4-2.4-0.9-4.7-1.4-7c-0.5-2.3-0.9-4.5-1.2-6.8c-0.2-1.3-0.3-2.6-0.4-3.9
			c-0.1-1.5,0-3,0-4.5s-1.2-2.7-2.7-2.8S495.8,94,495.8,95.6L495.8,95.6L495.8,95.6z"/>
	</g>
</g>
</svg>
