<?xml version="1.0" encoding="utf-8"?>
<!-- Generator: Adobe Illustrator 24.2.0, SVG Export Plug-In . SVG Version: 6.00 Build 0)  -->
<svg version="1.1" id="レイヤー_1" xmlns="http://www.w3.org/2000/svg" xmlns:xlink="http://www.w3.org/1999/xlink" x="0px"
	 y="0px" viewBox="0 0 316 82" style="enable-background:new 0 0 316 82;" xml:space="preserve">
<style type="text/css">
	.st0{fill:#FFFFFF;}
	.st1{fill:#FFFFFF;stroke:#FFFFFF;stroke-width:2;}
</style>
<g id="グループ_524" transform="translate(-172.764 -153.718)">
	<path id="パス_723" class="st0" d="M241.8,229.6c0.4,0.4,0.8,0.8,1.3,1.2c0.1,0.1,0.1,0.1,0.2,0.1c0.1,0,0.2-0.1,0.3-0.2
		c0.2-0.3,0.4-0.5,0.6-0.7c1-1.1,1.6-1.8,2.3-2.5c0.1-0.1,0.1-0.1,0.2-0.1c0.1,0,0.2,0,0.2,0.1c2,1.8,4,3.4,6.2,4.9
		c0,0,0.1,0.1,0.2,0.1c0.1,0,0.1-0.1,0.2-0.2c0.3-0.4,0.5-0.8,0.7-1.2c0.1-0.1,0.1-0.3-0.1-0.3c0,0,0,0-0.1,0
		c-2.2-1.3-4.3-2.9-6.3-4.6c-0.3-0.4-0.7-0.6-1.2-0.6c-0.4,0-0.7,0.2-1.3,0.7c-0.7,0.7-1.3,1.4-2,2.1
		C242.8,228.9,242.3,229.3,241.8,229.6z M249.4,225.1c0.6,0.5,1,1,1.4,1.6c0,0.1,0.1,0.1,0.2,0.1c0,0,0,0,0,0l0.6-0.4
		c0.1,0,0.1-0.1,0.1-0.2c0,0,0,0,0,0c-0.4-0.6-0.8-1.1-1.3-1.5c-0.1-0.1-0.1-0.1-0.2,0L249.4,225.1z M250.7,224.2
		c0.6,0.5,1,1,1.4,1.6c0,0.1,0.1,0.1,0.2,0.1c0,0,0,0,0,0l0.6-0.4c0.1,0,0.1-0.1,0.1-0.2c0,0,0,0,0,0c-0.4-0.6-0.8-1-1.3-1.4
		c-0.1-0.1-0.1-0.1-0.2,0L250.7,224.2z M259.8,228.1c1,0.4,2,0.9,2.8,1.5c0,0,0.1,0.1,0.2,0.1c0.1,0,0.1-0.1,0.2-0.1
		c0.2-0.3,0.4-0.7,0.6-1.1c0,0,0-0.1,0.1-0.2c0-0.1-0.1-0.1-0.2-0.2c-0.8-0.6-1.7-1.1-2.7-1.4c-0.1,0-0.2,0-0.3,0.1
		C260.4,227.1,260.2,227.5,259.8,228.1L259.8,228.1z M261.5,224.8c1,0.5,1.9,1,2.7,1.7c0.1,0.1,0.1,0.1,0.2,0.1c0.1,0,0.1,0,0.1-0.1
		c0.3-0.3,0.5-0.7,0.7-1.1c0-0.1,0.1-0.1,0.1-0.2c0-0.1,0-0.1-0.1-0.2c-0.8-0.7-1.7-1.2-2.6-1.6c-0.2-0.1-0.3-0.1-0.4,0.1
		C262,224,261.7,224.4,261.5,224.8L261.5,224.8z M260.9,232.7c0.3,0.5,0.6,1,1,1.4c0.1,0.1,0.2,0.2,0.3,0.2c0.1,0,0.2,0,0.2-0.1
		c0.3-0.2,0.5-0.3,0.8-0.5c1.5-0.8,2.9-1.6,4.2-2.6c1.3-1,2.5-2,3.6-3.2c0.1-0.1,0.2-0.2,0.2-0.3c0-0.1,0-0.2-0.1-0.3
		c-0.2-0.5-0.3-1-0.4-1.6c-1.2,1.4-2.5,2.8-4,3.9c-1.2,0.9-2.5,1.7-3.8,2.4C262.2,232.4,261.6,232.6,260.9,232.7L260.9,232.7z
		 M267.9,223.7c0.6,0.5,1,1,1.4,1.6c0,0.1,0.1,0.1,0.2,0.1c0,0,0,0,0,0l0.6-0.4c0.1,0,0.1-0.1,0.1-0.2c0,0,0,0,0,0
		c-0.4-0.6-0.8-1.1-1.3-1.5c-0.1-0.1-0.1-0.1-0.2,0L267.9,223.7z M269.2,222.8c0.6,0.5,1,1,1.4,1.6c0,0.1,0.1,0.1,0.2,0.1
		c0,0,0,0,0,0l0.6-0.4c0.1,0,0.1-0.1,0.1-0.2c0,0,0,0,0,0c-0.4-0.6-0.8-1-1.3-1.4c-0.1-0.1-0.1-0.1-0.2,0L269.2,222.8z M283.1,224.7
		c0.2-0.4,0.3-0.5,0.4-0.7c0.1-0.1,0.2-0.2,0.3-0.3c0.1-0.1,0.2-0.2,0.2-0.3c0-0.1-0.1-0.2-0.2-0.2c-0.5-0.3-1.1-0.5-1.6-0.7
		c-0.1,0.6-0.4,1.2-0.8,1.7c-1,1.7-2.4,3.2-4,4.4c0.4,0.2,0.8,0.4,1.2,0.6c0.1,0.1,0.1,0.1,0.2,0.1c0.1,0,0.2-0.1,0.3-0.1
		c1.1-0.9,2.1-2,3-3.1l3.5-0.1c-0.4,1-1,1.9-1.6,2.8c-0.6-0.4-1.2-0.8-1.8-1.1c0,0-0.1,0-0.1-0.1c-0.1,0-0.1,0-0.2,0.1
		c-0.3,0.3-0.6,0.7-0.9,1c0.7,0.4,1.4,0.8,2,1.3c-1.5,1.6-3.2,2.9-5.2,3.8c0.5,0.2,0.9,0.4,1.3,0.7c0.1,0.1,0.2,0.1,0.3,0.1
		c0.1,0,0.2-0.1,0.4-0.1c1.7-0.9,3.2-2.1,4.5-3.5c0.5,0.4,0.9,0.9,1.4,1.4c0,0,0.1,0.1,0.2,0.1c0.1,0,0.1,0,0.2-0.1
		c0.3-0.3,0.6-0.6,0.9-0.9c0,0,0.1-0.1,0.1-0.2c0-0.1,0-0.1-0.1-0.2c-0.5-0.5-1-1-1.5-1.4c0.8-1.1,1.5-2.2,2.1-3.4
		c0.1-0.2,0.2-0.4,0.4-0.5c0.1-0.1,0.1-0.2,0.2-0.3c0-0.1,0-0.2-0.1-0.3c-0.3-0.3-0.6-0.6-1-0.9c-0.1-0.1-0.2-0.1-0.3-0.1
		c-0.1,0-0.2,0-0.2,0.1c-0.2,0.1-0.5,0.2-0.8,0.2L283.1,224.7z M302.8,226.1c-0.5,1.5-1.3,2.8-2.4,4c-1.3,1.5-2.8,2.7-4.6,3.5
		c0.5,0.2,0.9,0.4,1.3,0.8c0.1,0.1,0.2,0.2,0.3,0.2c0.1,0,0.3,0,0.4-0.1c1.5-0.9,2.8-2,4-3.3c1.1-1.4,2.1-2.9,2.7-4.6
		c0.1-0.2,0.2-0.4,0.3-0.5c0.1-0.1,0.2-0.2,0.2-0.4c0-0.1,0-0.2-0.1-0.2c-0.3-0.4-0.6-0.7-1-0.9c-0.1,0-0.2-0.1-0.3-0.1
		c-0.1,0-0.1,0-0.2,0.1c-0.2,0.1-0.5,0.2-0.8,0.1h-5c-0.9,0-1.8,0-2.7-0.1c0,0.4,0.1,1.1,0.1,1.4c0,0.2,0.1,0.3,0.3,0.3
		c0.6,0,1.4-0.1,2.3-0.1L302.8,226.1z M303.9,223.3c0.6,0.5,1,1,1.4,1.6c0,0.1,0.1,0.1,0.2,0.1c0,0,0,0,0,0l0.5-0.4
		c0.1,0,0.1-0.1,0.1-0.2c0,0,0,0,0,0c-0.4-0.6-0.8-1.1-1.3-1.5c-0.1-0.1-0.1-0.1-0.2,0L303.9,223.3z M305.1,222.4
		c0.6,0.5,1,1,1.4,1.6c0,0.1,0.1,0.1,0.1,0.1c0,0,0.1,0,0.1-0.1l0.5-0.4c0.1-0.1,0.1-0.2,0-0.3c-0.4-0.6-0.8-1-1.3-1.4
		c-0.1-0.1-0.1-0.1-0.2,0L305.1,222.4z M317.7,226.4c-0.1-0.5,0-1,0.1-1.6c0.1-0.1,0.1-0.2,0.1-0.3c0-0.1-0.1-0.2-0.3-0.2
		c-0.6-0.1-1.2-0.2-1.8-0.3c0.1,0.8,0.2,1.6,0.1,2.4v4.4c0,0.7,0,0.9-0.1,1.1c0,0.1-0.1,0.1-0.1,0.2c0,0.1,0.1,0.2,0.1,0.3
		c0.2,0.3,0.5,0.6,0.8,0.9c0.1,0.1,0.2,0.1,0.3,0.1c0.1,0,0.2,0,0.3-0.1c0.1-0.1,0.3-0.2,0.4-0.3c0.9-0.5,1.7-1.1,2.5-1.7
		c0.7-0.6,1.4-1.2,2.1-1.8c0.2-0.2,0.2-0.3,0.2-0.3c0-0.1,0-0.2-0.1-0.2c-0.2-0.4-0.4-0.9-0.4-1.4c-0.7,0.9-1.5,1.7-2.5,2.4
		c-0.6,0.5-1.3,0.9-2,1.3V226.4z M312.8,224.8c0.1,0.4,0.2,0.8,0.1,1.2c0.1,1.3-0.1,2.7-0.6,4c-0.5,1.1-1.3,2.1-2.3,2.8
		c0.4,0.1,0.8,0.3,1.2,0.6c0.1,0.1,0.2,0.1,0.3,0.1c0.1,0,0.3-0.1,0.4-0.2c0.9-0.7,1.5-1.6,2-2.6c0.5-1.3,0.8-2.7,0.8-4.1
		c0-0.3,0-0.7,0.2-1c0.1-0.2,0.1-0.4-0.2-0.4C314,225,313.4,224.9,312.8,224.8z M333,224.8c0-0.4,0-0.9,0.1-1.3
		c0.1-0.1,0.1-0.2,0.1-0.3c0-0.1-0.1-0.2-0.3-0.2c-0.6-0.1-1.2-0.2-1.8-0.2c0.1,0.7,0.2,1.4,0.1,2.1v6.9c0,0.9,0,1.7-0.1,2.8
		c0,0.2,0.1,0.2,0.3,0.2c0.4,0,0.8,0,1.2,0c0.2,0,0.3,0,0.3-0.2c0-1-0.1-1.8-0.1-2.7v-3.1c1.3,0.4,2.5,1,3.7,1.8
		c0,0,0.1,0.1,0.2,0.1c0.1,0,0.1-0.1,0.2-0.2c0.2-0.4,0.4-0.8,0.6-1.2c0.1-0.2,0-0.3-0.2-0.4c-1.4-0.8-2.9-1.5-4.5-1.9V224.8z
		 M335.5,223.9c0.6,0.5,1,1,1.4,1.6c0,0.1,0.1,0.1,0.2,0.1c0,0,0,0,0,0l0.6-0.4c0.1,0,0.1-0.1,0.1-0.2c0,0,0,0,0,0
		c-0.4-0.6-0.8-1.1-1.3-1.5c-0.1-0.1-0.1-0.1-0.2,0L335.5,223.9z M336.8,223c0.6,0.5,1,1,1.4,1.6c0,0.1,0.1,0.1,0.2,0.1c0,0,0,0,0,0
		l0.6-0.4c0.1,0,0.1-0.1,0.1-0.2c0,0,0,0,0,0c-0.4-0.6-0.8-1-1.3-1.4c-0.1-0.1-0.1-0.1-0.2,0L336.8,223z M353.3,229.7
		c1,0,2.1,0,3.1,0c0.2,0,0.3,0,0.3-0.2c0-0.4,0-0.9,0-1.3c0-0.2,0-0.2-0.3-0.2c-1.1,0-2.2,0-3.2,0h-4.5c-1,0-2,0-3-0.2
		c0,0.6,0.1,1.1,0.2,1.7c0,0.2,0.2,0.3,0.3,0.3c0.7-0.1,1.4-0.2,2.1-0.2L353.3,229.7z M369.9,226.4c0-0.8,0-1.3,0-1.9
		c0-0.3,0-0.6,0.1-0.9c0.1-0.1,0.1-0.2,0.1-0.3c0-0.1-0.1-0.2-0.2-0.2c-0.6-0.1-1.2-0.2-1.9-0.2c0.1,0.5,0.2,0.9,0.2,1.4
		c0,0.6,0,1.4,0,2.1h-2.8c-0.7,0-1.5,0-2.4-0.1c0,0.5,0.1,1.1,0.1,1.4c0,0.2,0.1,0.3,0.3,0.3c0.5,0,1.3-0.1,2-0.1h2.7
		c0,1.1-0.3,2.3-0.9,3.2c-0.8,1.1-1.9,2-3.2,2.5c0.4,0.2,0.8,0.4,1.2,0.8c0.1,0.1,0.2,0.1,0.3,0.1c0.1,0,0.2,0,0.3-0.1
		c1.2-0.6,2.2-1.6,3-2.8c0.7-1.2,1-2.5,1-3.8h2c0.8,0,1.8,0.1,2.4,0.1c0.2,0,0.3,0,0.3-0.3c0-0.4,0-0.7,0-1.1c0-0.2-0.1-0.3-0.3-0.3
		c-0.7,0-1.7,0-2.4,0L369.9,226.4z M383.2,227.6c-0.7,0-1.7,0-2.7-0.1c0,0.4,0,0.9,0.1,1.3c0,0.2,0.1,0.3,0.3,0.3
		c0.7-0.1,1.7-0.1,2.2-0.1h2.5c0,0.8-0.2,1.6-0.6,2.3c-0.6,1.1-1.5,2-2.6,2.6c0.5,0.1,1,0.3,1.5,0.5c0.1,0,0.2,0.1,0.3,0.1
		c0.1,0,0.2,0,0.2-0.1c1-0.7,1.7-1.6,2.2-2.6c0.4-0.9,0.6-1.8,0.7-2.8h1.7c1,0,1.8,0,2.7,0c0.2,0,0.2-0.1,0.2-0.3c0-0.4,0-0.7,0-1.1
		c0-0.2,0-0.2-0.2-0.2c-0.6,0-1.8,0.1-2.7,0.1h-1.7c0-0.5,0-0.8,0-1.1c0-0.2,0-0.3,0.1-0.5c0-0.1,0.1-0.2,0.1-0.2
		c0-0.1-0.1-0.2-0.2-0.2c-0.3-0.1-0.6-0.2-0.9-0.2c0.8-0.2,1.7-0.4,2.5-0.6c0.3-0.1,0.6-0.2,0.9-0.2c0.2,0,0.4,0,0.4-0.2
		c0-0.2-0.1-0.3-0.2-0.4c-0.3-0.4-0.7-0.7-1.1-1c-0.4,0.3-0.8,0.5-1.2,0.6c-0.8,0.3-1.5,0.5-2.3,0.6c-1.4,0.3-2.8,0.5-4.2,0.5
		c0.3,0.3,0.5,0.6,0.7,1c0.1,0.2,0.1,0.3,0.4,0.3c1.1-0.1,2.2-0.2,3.3-0.4c0,0.3,0.1,0.5,0.1,0.6c0,0.4,0,1,0,1.4L383.2,227.6z
		 M405.4,232.2l0.4-2.9c0-0.3,0.1-0.5,0.3-0.7c0.1-0.1,0.1-0.2,0.1-0.3c0-0.1-0.1-0.2-0.1-0.3c-0.3-0.3-0.5-0.5-0.9-0.8
		c-0.1,0-0.1-0.1-0.2-0.1c-0.1,0-0.1,0-0.2,0.1c-0.3,0.1-0.5,0.2-0.8,0.1h-1.9c-0.6,0-1,0-1.9-0.1c0,0.5,0.1,0.9,0.1,1.2
		c0,0.2,0.1,0.3,0.3,0.3c0.4,0,1,0,1.5,0h2.3l-0.5,3.4h-3.2c-0.7,0-1.2,0-2-0.1c0,0.4,0,0.8,0.1,1.2c0,0.2,0.1,0.3,0.2,0.3
		c0.7,0,1.2,0,1.8,0h5.2c0.6,0,1.3,0,1.9,0c0.2,0,0.3,0,0.3-0.3c0-0.3,0-0.6,0-0.9c0-0.2-0.1-0.3-0.3-0.3c-0.5,0-1.1,0-1.7,0H405.4z
		"/>
	<g id="グループ_277" transform="translate(173.815 154.773)">
		<path id="パス_301" class="st1" d="M128.1,27.9c-0.2-0.1-0.3,0-0.3,0.1h0.3V27.9z"/>
		<ellipse id="楕円形_45" class="st1" cx="79" cy="29.6" rx="0.1" ry="0.2"/>
		<path id="パス_302" class="st1" d="M294.9,37.7h-0.1l0.1,0.1V37.7z"/>
		<path id="パス_303" class="st1" d="M259.2,3.2L259.2,3.2C259.2,3.3,259.2,3.3,259.2,3.2z"/>
		<path id="パス_304" class="st1" d="M259.1,3.4L259.1,3.4C259.1,3.3,259.1,3.3,259.1,3.4z"/>
		<path id="パス_305" class="st1" d="M264.6,46.5v-0.1c-0.1,0-0.2,0-0.3,0.1c0,0,0,0,0,0h-0.1v-0.1l-0.9,0.1v-0.3l-0.7,0.1v-0.1
			h-0.4v-0.1H262v0.1c-0.3,0-0.3-0.1-0.3-0.1l-0.4,0.1v-0.1H261v-0.1h-1.2v-0.1h-0.7v-0.1c-0.3,0-0.2,0.1-0.3,0.1h-0.1
			c0.1-0.3,0.1-0.2,0-0.6h-0.1l0.1-0.9h-0.3l0.4-0.7h-0.1v-0.1h0.1l-0.1-0.6h-0.1l0.1-0.4h0.1c0-0.6,0.1-1.3,0.1-1.9
			c0.1-0.1,0.2-0.2,0.3-0.3h-0.3l0.1-0.7c0-0.2-0.1,0.1-0.1-0.1l0.3-0.1c0-0.2-0.3-0.3-0.1-0.6h0.1v-0.3h0.1l-0.1-0.4h-0.1
			c0-0.2,0.1,0.1,0.1-0.1v-0.4h0.1c0.1-0.5-0.2-0.7-0.1-1h0.1c0-0.3,0.1-0.6,0.1-0.9h0.1l-0.1-0.4c-0.3-0.1-0.1,0-0.3-0.1h0.3v-0.3
			h0.1v-0.1h-0.1l0.1-0.4h-0.3v-0.4h0.3c0.2-0.1-0.1-0.1-0.1-0.1v-0.4h-0.1v-0.1h0.1c0-0.3,0.1-0.7,0.1-1c0,0-0.2,0-0.1-0.3
			c0.1-0.1,0.2-0.3,0.1-0.4l-0.3-0.1c0-0.4,0.1-0.8,0.1-1.2c0.3-0.1,0.1,0,0.3-0.1h-0.3l0.3-1.3h-0.3c0-1.5,0.3-2.2,0.4-3.7h-0.4
			v-0.1h0.1c-0.1-0.2-0.1-0.5,0-0.7l0.3-0.1l-0.1-0.9l-0.3-0.1l0.1-0.4h0.1c-0.1-0.2-0.1-0.4-0.1-0.6c0.3-0.1,0.1,0,0.3-0.1h-0.3
			c0-0.2,0.1-0.4,0.1-0.6h-0.1v-0.6c0,0,0.2-0.1,0.1-0.4h-0.1v-0.1c0.1-0.1,0.2,0,0.1-0.3l-0.3-0.1v-0.1h0.1l-0.1-0.3h0.3v-0.4
			c0-0.1-0.4,0-0.3-0.4c0,0,0.5-0.4,0.4-0.6l-0.3-0.1c-0.1-0.3,0.2-0.4,0.1-0.6h-0.1v-0.6c0-0.2-0.2,0.1-0.1-0.1l0.3-0.1v-0.3h-0.3
			c0.2-0.5,0.2-1.1,0.1-1.6c0,0-0.2,0-0.1-0.3c0.1-0.1,0.2-0.2,0.1-0.3c-0.1-0.2-0.2,0.1-0.1-0.1h0.1l0.1-0.7h-0.3l0.1-0.3h-0.3
			c0.2-0.5,0.4-1,0.4-1.5h-0.3v-0.3l0.3-0.1V9.8h-0.1l0.1-0.9h-0.1V8.8h0.1V8.6h-0.1l-0.3-0.9l0.3-0.1c0.1-0.2,0-0.4-0.1-0.4
			c0-0.5-0.1-1.1-0.1-1.6h0.1V5.3h0.1c-0.1-0.5,0-0.5-0.4-0.6l0.1-0.6h0.1l-0.1-0.1l0.1-0.1l-0.1-0.3h0.1V3.3l-0.3-0.1
			c0,0.1-0.1,0.1-0.1,0.1l-0.1,0.1c0-0.1,0.1-0.1,0.1-0.1l0.1-0.1V2.8h0.1c0-0.3,0-0.4-0.1-0.6h-0.3c-0.1-0.1,0.3-0.3,0.1-0.6h-0.1
			L258.5,1c-0.5,0.1-0.5,0.1-0.7,0.4h-0.1v0.1h0.3c0,0,0,0.6-0.1,0.3V1.7h-0.1l-0.1,0.4h0.3v0.1h-0.4c0.1,0.2,0.3,0.2,0.3,0.3
			L257,4.5h0.4c0,0.3-0.1,0.6-0.1,0.9h0.1v0.1h-0.1v0.1c0.1,0.2,0.2-0.1,0.1,0.1h-0.1v0.3l0.1,0.4l-0.1,0.1c0,0.3,0.2,0.4,0.1,0.6
			h-0.1c-0.2,1.1,0.4,0.9-0.1,1.8l0.4,0.1c0.1,0.3-0.3,0.5-0.3,0.7c0.3,1.3,0.3,2.5,0.1,3.8h-0.1v0.1h0.1l0.1,0.3h-0.1
			c-0.1,0.2-0.2,0.5-0.1,0.7h0.3c-0.1,0.5-0.1,1,0,1.5h-0.3c0,0.3,0,0.6,0.1,0.7h0.3l-0.1,0.4c0,0-0.6,0-0.3,0.1h0.3l-0.1,0.7h0.1v1
			h-0.1c0,0.2,0.2,0.2,0.1,0.6c0,0-0.2,0.1-0.1,0.4h0.1l-0.1,0.4l0.1,0.4h-0.1v0.4h0.3c-0.1,0.2-0.2,0.5-0.1,0.7h-0.3v0.1
			c0.2,0,0.3,0.5,0.3,0.7h-0.1c0,0.2,0.2,0.2,0.1,0.6c-0.1,0.1-0.2,0.3-0.1,0.4c0.1,0.1,0.2,0.3,0.1,0.4c0,0-0.2,0-0.3,0.4h0.3v0.3
			h-0.1l0.1,0.3h-0.1v0.1c0.1,0,0.2,0.1,0.2,0.3c0,0,0,0,0,0l-0.3,0.1V27c0.2-0.1,0.3-0.2,0.4-0.3h0.1l-0.1,0.4h-0.1v0.4l-0.3,0.1
			c0,0.1,0,0.2,0.1,0.3c0,0,0,0,0,0c0,0.2-0.1,0.5-0.1,0.7h-0.1c0.1,0.3,0.1-0.1,0.3,0.1l-0.1,0.1c0,0.2,0.2,0.2,0.1,0.6h-0.1v0.1
			c0.1,0,0.2,0.2,0.1,0.3h-0.1v0.7h0.1v0.6h-0.1l0.1,0.4h-0.1v0.7h0.1l-0.1,0.4h0.1v0.1h-0.1v0.3h-0.1c0,0,0.3,1.2,0.3,1.2h-0.3
			c0.2,0.2,0,0.1,0.3,0.1c0,0.3-0.1,0.7-0.1,1h-0.1l0.1,0.4h-0.1v1.6H257v0.4h-0.1c0,0.2,0.3,0.4,0.1,0.7l-0.3,0.1l0.1,0.3h-0.1
			c0,0.2,0.1,0.3,0.1,0.3c0,0.4,0,0.8-0.1,1.2c0.3,0.1,0.1,0,0.3,0.1l-0.4,0.1v0.6h0.3l-0.3,0.4h-0.1c0.1,0.3,0.2,0.7,0.1,1
			l-0.3,0.1l0.3,1.3h-0.1v0.3h-0.1l0.1,0.7l-0.3,0.1l0.3,0.9h0.1l-0.1,0.3h0.1l0.1,0.3h0.3v0.1h1l-0.1,0.3c0.5-0.1,0.3-0.1,0.7,0V48
			l0.4-0.1V48h0.4v0.1c0.2,0,0.3-0.3,0.6-0.1l0.1,0.3l0.3-0.1v0.1c0.2,0,0.2-0.2,0.6-0.1v0.1h0.6v-0.1h0.1v0.3l0.3-0.1
			c0.2,0.1-0.1,0.2,0.1,0.1v-0.1c0.4,0,0.3,0.1,0.4,0.3c0,0,0.6,0,0.3-0.1h-0.1v-0.1l0.4,0.1v0.3c0.6-0.1,0.4-0.2,0.9-0.3
			c0.1,0.3,0,0.1,0.1,0.3v0.1h0.1v-0.3l1.3,0.3l0.1-0.3c0.2-0.1,0.2,0.3,0.3,0.3l0.3-0.1c0.2,0.1,0.2,0.4,0.4,0.4V49
			c0.1,0,0.6-0.1,0.6-0.1l0.1,0.3l0.4-0.1v0.1h1c0,0,0-0.2,0.3-0.1l0.1,0.3l0.7,0.1v-0.1l1.5,0.1v-0.1c0.1,0,0.2,0,0.3,0.1h0.1v-0.1
			h0.6c0.2,0.4,0.8,0.2,1.3,0v0.3l0.4-0.1v0.3h0.1v-0.3h0.3v0.3h0.1c0-0.1,0.2-0.2,0.3-0.1c0.1,0,0,0.2,0.3,0.1v-0.1l0.4-0.1v0.1
			c0.2,0,0.4,0.1,0.6,0.1v-0.3h0.3v0.3h0.6c0.2,0-0.1,0.1,0.1,0.1c0.1-0.1,0-0.2,0.3-0.1v0.1c0.2,0,0.2-0.2,0.6-0.1v0.1h0.4V50
			l1-0.1v-0.3c0.4-0.1,0.3-0.2,0.7-0.3c0-0.6-0.2-0.5,0.1-0.7v-0.1h-0.4l-0.1-0.4l-0.6-0.1v-0.1c-0.5-0.2-0.9,0.2-1.2,0.1v-0.1h-0.3
			v-0.1h-0.9v-0.1h-0.1c0,0.1-0.2,0.2-0.3,0.1v-0.1H277v0.1h-0.3v0.1l-0.7-0.4l-0.1,0.3h-0.7v-0.3c-0.1,0.2-0.4,0.1-0.6,0.1v0.1
			h-0.1v-0.4c-0.1,0.1-0.2,0.2-0.3,0.3l-0.4-0.1v0.1h-0.4v-0.1H273v0.1c-0.3,0-0.6-0.1-0.9-0.3c-0.1,0,0.1,0.1-0.1,0.3v-0.3h-0.4
			v0.3c-0.3-0.2,0-0.2-0.1-0.3c-0.1-0.1-0.3,0.3-0.6,0.1l-0.1-0.3c-0.1,0-0.2,0-0.3,0.1c0,0,0,0,0,0c-0.1,0-0.2,0-0.3-0.1l-0.3,0.1
			l-1-0.1c0,0-0.1,0.2-0.3,0.1V47c-0.3-0.1-0.4,0.2-0.6,0.1V47l-0.7-0.1v-0.1l-0.7,0.1v-0.1h-0.1v0.1c-0.2,0,0.1-0.1-0.1-0.1h-0.4
			v-0.1c-0.2,0-0.4,0.3-0.7,0.1v-0.1L264.6,46.5z"/>
		<path id="パス_306" class="st1" d="M16.8,48.1c0.5-0.4,0.3,0.3,0.4,0.6l0.4,0.1c-0.2,0.3-0.1,0.2,0,0.6c0.3,0.1,0.1,0,0.3,0.1
			c0.2,0.2,0,0,0,0.3h0.1c0.2,0.2,0.3,0.5,0.3,0.7h0.3l-0.1,0.4l0.4,0.1v0.6h0.3c0,0.3,0,0.4,0.1,0.6h0.1v0.4h0.1l0.1,0.4h0.3
			c0.1,0.3,0.2,0.5,0.3,0.7l0.4,0.1V54h0.1v0.1c1,0,0.6,0,1-0.6l0.4-0.3L22.4,53h0.3c-0.4-0.6-0.3-0.4,0-1l-0.1-0.3l0.3-0.1v-0.4H23
			l0.1-0.4h-0.3l0.1-0.3h0.3c-0.2-0.2-0.2-0.5,0-0.7h0.1V49h0.1c0.1-0.2,0.2-0.5,0.1-0.7H24v-0.6h-0.1v-0.1l0.4-0.1
			c-0.1-0.5,0-0.1,0.1-0.7h0.3l-0.3-0.4l0.4-0.1l0.1-1.3l0.3-0.1v-0.4c0.3-0.6,0.3-0.6,0.1-1.2h0.3c0-0.3,0-0.5,0.1-0.7h0.1v-0.4
			h0.1v-0.6l0.3-0.1v-0.7c0,0,0.1,0,0.1-0.3c0-0.2-0.2,0.1-0.1-0.1h0.1v-0.3h0.1v-0.3h0.1c0.2-0.5,0.4-1,0.4-1.5h0.3l-0.1-0.4h0.1
			l0.1-0.7h0.3l0.1-0.6h0.1v-0.4h0.1c0.2-0.2,0.3-0.5,0.3-0.7h0.3l0.1-0.7c0-0.2-0.2,0-0.1-0.1c0,0,0.2,0,0.3-0.4c0,0,0.6,0,0.3-0.1
			h-0.1v-0.1h0.3V33h-0.3c-0.1-0.1,0.4-0.3,0.4-0.3l0.1-0.6l0.3-0.1v-0.3h0.1v-0.3c0.1-0.1,0.2-0.1,0.3-0.3h-0.3
			c0.1-0.4,0-0.3,0.4-0.4v-0.4c0,0,0.5,0,0.3-0.1c-0.1-0.2-0.2,0.1-0.1-0.1h0.1v-0.1h-0.2c0,0,0-0.6,0.1-0.3v0.1h0.1
			c0.1-0.2,0.1-0.4,0.1-0.6c-0.3-0.1-0.1,0-0.3-0.1l0.6-0.1l0.3-1.8l0.4-0.3c0.2-0.5-0.4-0.5-0.3-0.7h0.1v-0.3l0.4-0.3l-0.1-0.6h0.1
			v-0.4l0.3-0.1c0-0.2-0.4-0.1-0.3-0.3l0.4-0.1c-0.1-0.2-0.2-0.4-0.1-0.6h0.3c0.1-0.3,0.1-0.2,0.1-0.3l-0.1-0.1v-0.1h0.1v-0.4h0.1
			v-0.3H34c0-0.2-0.3-0.3-0.1-0.6l0.3-0.1v-0.3h0.1v-0.6h0.1v-0.1c0,0-0.2-0.1-0.1-0.3h0.1v-0.3h0.1c0.1-0.4,0.2-0.8,0.3-1.2H35
			v-0.1h-0.1c0-0.2,0.3-0.5,0.1-0.9h-0.1v-0.1l0.3-0.1c0.1-0.3-0.2-0.5-0.1-0.6l0.4-0.3c0.1-0.3-0.2-0.6-0.1-0.7h0.1v-0.3h0.1v-0.6
			h0.1l-0.1-0.4c0-0.5,0.1-0.9,0.3-1.3h-0.3c0.1-0.3,0.1-0.7,0-1h0.3c0-0.2-0.3-0.7-0.3-0.7h0.1v-0.7h0.1V8.6H36V8.5h-0.1V8.2h-0.1
			V8.1H36V7.9h-0.1V7.5h-0.1c0-0.2,0.3-0.3,0.3-0.3L35.9,6c0-0.1,0.2-0.5,0.3-0.9h-0.3V4.8l0.3-0.1L36,4.2l0.1-0.3l-0.3-0.1
			c-0.1-0.2,0,0,0.1-0.1c0-0.4-0.1-0.4-0.1-0.4L36,2.3c-0.7-0.1-0.2-0.2-0.4-0.6h-0.1c0,0.1,0.1,0.5-0.1,0.3V1.9c0,0-0.6,0-0.3-0.1
			h0.3V1.6l-0.7,0.1V1.6c-0.3,0-0.5,0-0.7,0.1v0.9h-0.1v0.1h0.1v1.6c0,0,0.2,0,0.1,0.3c0,0.2-0.2-0.1-0.1,0.1S34,4.8,34,5
			c-0.1,0.2-0.2-0.1-0.1,0.1H34v0.7h-0.1L34,6.6h-0.1v0.3h-0.1c0,0.2,0.2,0.3,0.1,0.6h-0.1v0.4h-0.1c-0.1,0.5,0.3,0.5,0.3,0.6v0.1
			h-0.1v0.4h-0.1v0.1h0.1v1.2h-0.3v0.3l0.3,0.1c0.1,0.3-0.2,0.4-0.1,0.6c0.1,0.1,0.2,0.2,0.1,0.3h-0.1v0.1h0.1v0.6h-0.1v0.4h-0.1
			l-0.1,0.4l0.4,0.1v0.1h-0.3v0.1h0.1v0.1h-0.1c-0.1,0.2,0,0.3,0.1,0.4l-0.1,0.9l-0.3,0.1c0.1,0.1,0.2,0.1,0.3,0.3h-0.3l0.1,0.4
			l-0.3,0.1v0.6h-0.1v0.7h0.1c0,0.2-0.1-0.1-0.1,0.1v0.6h-0.4c0,0.7,0.2,0.9-0.1,1.5l-0.3,0.1l0.1,0.1L31.9,21h-0.1v0.3h-0.1v0.9
			h-0.1c-0.1,0.1-0.4,0.6-0.3,0.7h0.1c0,0,0,0.5-0.1,0.3V23c-0.2,0.1-0.2,0.1-0.3,0.3h-0.1v0.1c0.2,0.2,0.2,0.3,0.4,0.4
			c-0.2,0.2-0.4,0.4-0.6,0.6l0.1,0.4l-0.1,0.1h0.1v0.1l-0.3,0.1l-0.1,1.5L30,27v0.4h-0.1v0.3h-0.1v0.7l-0.6,0.3l0.1,0.4L29,29.3v0.4
			h-0.1v0.3h-0.1v0.7c-0.3,0.7-1.2,0.9-0.9,1.8h-0.3v0.3h-0.3c0,0.3,0,0.5-0.1,0.7h-0.1c-0.1,0.3,0.2,0.5,0.1,0.6h-0.3l-0.3,0.4h0.1
			l-0.1,0.4h-0.3v0.1h0.1v0.1L26,35.5v0.6l-0.3,0.1v0.3c-0.1,0.1-0.3,0.1-0.3,0.3c0,0,0.3,0.1,0.1,0.3c0,0.1-0.2,0-0.3,0.4H25v0.9
			l-0.3,0.1v0.6l-0.3,0.1c-0.1,0.2,0.1,0.1,0.1,0.1l-0.1,0.3h0.1v0.1h-0.3l-0.1,0.3H24v0.1h0.1L24,41.7l-0.3,0.1v0.3h-0.1
			c-0.1,0.2,0.2,0.1,0.3,0.3l-0.3,0.1l-0.1,0.9h-0.1v0.4h-0.1l0.1,0.4h-0.1v0.3l-0.4,0.3v0.4l-0.3,0.1v0.7h-0.1v0.3h-0.1V47
			l-0.3,0.1l-0.1,0.6h0.1v0.1L21.5,48c-0.1,0.3,0.1,0.4,0.1,0.6l-0.4,0.3L21.1,50c-0.2-0.1-0.4-0.2-0.6-0.4h-0.3v-0.1h0.1
			c0-0.3-0.1-0.5-0.3-0.7h-0.1v-0.3h-0.3c0-0.2-0.1-0.4-0.1-0.6l0.1-0.1h-0.3v-0.3h-0.4c-0.1-0.6-0.2-0.6-0.3-1.2l-0.4-0.1L18,45.6
			h0.3v-0.1h-0.1c-0.1-0.2-0.2-0.4-0.3-0.6h-0.3c-0.1-0.6-0.2-0.4-0.3-1h-0.3v-0.4h0.1v-0.1h-0.4c0.1-0.4,0.1-0.8,0-1.2h-0.3
			l-0.3-1.3c0,0-0.6,0-0.3-0.1h0.1v-0.1h-0.3c0-0.2,0.1-0.4,0.1-0.6l-0.3-0.1l-0.3-1.3c-0.1,0.1-0.1,0.2-0.3,0.3v-0.3h-0.1
			c-0.1-0.3,0.2-0.4,0.3-0.4v-0.1h-0.4c-0.1-0.3-0.1-0.7,0-1h-0.4l0.1-0.7h-0.1L14,35.2c-0.3-0.1-0.1,0-0.3-0.1h-0.1
			c-0.2-0.3,0.1-0.4,0.1-0.6l-0.4-0.3c-0.1-0.2,0.1-0.1,0.1-0.1l-0.1-0.9l-0.6-0.3v-0.6c-0.1-0.1-0.3-0.2-0.4-0.4
			c0.1-0.2,0.1,0.1,0.1-0.1c-0.1-0.1-0.4-0.1-0.3-0.4h0.1v-0.1h-0.4l-0.3-1.3h-0.3V29c-0.3-0.1-0.1,0-0.3-0.1h-0.1l0.1-0.3h-0.3
			l-0.1-0.4h0.1v-0.4h-0.1v-0.1h0.1v-0.3c-0.3,0.1-0.1,0-0.3,0.1h-0.1c0.1-0.3,0.1-0.7,0.1-1H10c-0.1-0.3-0.1-0.6,0-0.9H9.9
			c-0.3-0.5-0.3-0.2-0.1-0.7H9.5v-0.3H9.2c-0.2-0.1,0.1-0.1,0.1-0.1C9.3,24,9,24,9,23.8c0.1-0.1,0.1,0.1,0.1-0.1H8.9
			c-0.1-0.6-0.5-0.9-0.6-1.5H8v-0.6H7.7c-0.2-0.1,0.1-0.1,0.1-0.1c-0.1-0.4-0.3-0.3-0.3-0.6c0.1-0.2,0.1,0.1,0.1-0.1H7.4v-0.3H7.1
			l0.1-0.6c-0.4-0.1-0.4-0.3-0.7-0.4v-0.3H6.4c0-0.2,0.1,0.1,0.1-0.1v-0.6l-0.4-0.1c0-0.3-0.1-0.5-0.3-0.7H5.6l0.1-0.3L5.5,17
			l-0.1-0.9H5c0-0.2,0.1-0.4,0.1-0.6c0,0-0.5-0.2-0.4-0.4c0.1-0.1,0.2-0.2,0.1-0.3c-0.3-0.1-0.1,0-0.3-0.1H4.5v-0.7
			C4.3,13.6,4,13.5,3.9,13H3.6v-0.9c-0.2,0.3-0.3,0.1-0.4-0.1H3c0.1-0.3,0.2-0.6,0.1-0.9H2.6c0,0,0.2-0.5,0.1-0.7l-0.4-0.3V9.4
			c0,0-0.1,0-0.1-0.3l0.4-0.1C2.7,9,2.6,9.2,2.9,9.2V9.1C3.1,9,3,9.1,3.1,8.9h0.1V8.5h0.1C3.3,8.1,3.4,8.2,3.1,8V7.9H3
			C2.8,8.1,2.9,8,2.6,8v0.1L2.3,8L2.1,8.5C1.8,8.4,2,8.5,1.8,8.3H1.5c0.1,0.1,0.2,0.2,0.3,0.3v0.1H1.4v0.3L0.9,8.9v0.3H0.6
			c0,0.2,0.1,0.4,0.1,0.6c-0.1,0.1-0.2,0-0.1,0.3h0.1c0,0.2-0.2,0.4-0.1,0.7h0.1l0.1,0.9h0.3v0.1H1.1c0,0.3,0.1,0.5,0.3,0.7h0.1V13
			h0.6v0.1H1.8v0.3h0.3L2,14.2h0.1l0.1,0.7h0.1l0.1,0.6h0.1v0.6L3,16v0.7L3.4,17v0.7h0.1c0.2,0.2,0.3,0.6,0.3,0.9h0.3v0.1
			C4,18.8,3.9,19,4,19.2h0.1v0.1h0.4c0,0.4,0.1,0.8,0.3,1.2h0.3l-0.1,0.3c0.2,0.3,0.3,0.7,0.4,1h0.3c0.1,0.6,0.3,0.5,0.3,1.3
			c0.3,0.1,0.1,0,0.3,0.1h0.1l-0.1,0.4l0.3,0.1c0.2,0.3,0.4,0.7,0.3,1l0.4,0.1L7.5,26h0.3v0.9H8c0.1,0.2-0.1,0-0.1,0.1
			c0,0.4,0.1,0.3,0.4,0.4v1l0.4,0.3c0,0.1,0,0.2-0.1,0.3c0,0,0,0,0,0l0.1,0.6H9l0.1,0.9h0.3l0.1,1h0.3c0.2,0.1-0.1,0.1-0.1,0.1
			c0,0.3,0.2,0.1,0.4,0.1l0.1,1.2h0.3c0,0.4-0.2,0.3,0,0.6h0.1v0.1h0.3c-0.1,0.1-0.1,0.3-0.1,0.6h0.3l0.1,0.6h0.1l-0.1,0.7h0.4
			c0,0.3,0,0.7,0.1,1l0.3,0.1l-0.1,0.4l0.3,0.1l0.1,0.4h0.1l-0.1,0.6h0.1c0.2,0.4,0.3,0.8,0.3,1.2l0.4,0.1c-0.1,0.3-0.1,0.4-0.3,0.6
			c0.2,0.2,0,0.1,0.3,0.1v0.4h0.3c0,0.2,0,0.4,0.1,0.6H14L13.9,42H14c0.1,0.4,0,0.3,0.4,0.4v0.3h-0.1l0.3,0.9h0.1l-0.1,0.3h0.3v0.7
			h0.3V45h0.3l0.3,1.3l0.4,0.1l0.1,0.7C17.1,47.4,16.5,47.4,16.8,48.1z"/>
		<path id="パス_307" class="st1" d="M182.4,34.8h-0.3v0.9H182v0.3h-0.1l0.1,0.9h-0.1c-0.2,0.2-0.5,0.2-0.4,0.6l0.1,0.1h-0.3
			l-0.1,0.6c0,0,0.2,0,0.1,0.3h-0.1v0.3H181c-0.1,0.3,0.2,0.4,0.1,0.6l-0.3,0.1c0,0.4-0.1,0.8-0.1,1.2l-0.3,0.1
			c0,0.4-0.1,0.9-0.1,1.3h-0.3l0.1,0.6h-0.1c-0.1,0.4-0.2,0.3,0.1,0.6v0.6l0.3-0.1l0.3,0.4c0.4,0.3,1,0,1.5-0.1
			c0-0.9,0.4-1.1,0.1-1.9h0.3v-0.7l0.3-0.1l-0.1-0.9c0.3-0.1,0.1,0,0.3-0.1h0.1l-0.1-0.6l0.3-0.1l-0.1-0.7c0.3-0.1,0.1,0,0.3-0.1
			h0.1c0-0.1-0.1-0.3-0.1-0.4l0.4-0.3l-0.1-0.7h0.1v-0.3h0.1l-0.1-0.4l0.3-0.1v-0.3h0.1c0.1-0.2-0.2-0.5-0.1-0.6l0.6-0.1
			c-0.4-0.3,0.1-0.9,0.1-1.5h0.3v-0.9l0.3-0.1v-0.6l0.6-0.4c0.1-0.1-0.3-0.3-0.1-0.6h0.1v-0.3h0.1c0.2-0.4,0-0.4,0-0.6h0.1v-0.4h0.4
			l0.1-0.9h-0.1v-0.1l0.4-0.3l0.1-1c0,0,0.6,0,0.3-0.1h-0.1v-0.1h0.3c0-0.2,0-0.4,0.1-0.6h0.1v-0.1H188c0-0.2,0.2-0.2,0.3-0.3v-0.7
			h0.4c0-0.7,0.2-0.6,0.4-1h0.1l-0.1-0.4l0.3-0.1v-0.4l0.4-0.1v-0.4l0.4-0.1l-0.1-0.6h0.1c0.1-0.2,0,0,0.1-0.1v0.3
			c0.4,0.1,0.9,0.1,1.3,0c-0.2,0.2,0,0.1-0.3,0.1v0.1l0.9-0.1v0.1h0.4v0.1l0.4-0.1v0.1h0.1c0-0.1,0.2-0.3,0.3-0.3l0.1,0.3h0.3v0.1
			h0.7v0.1h0.6V23h0.1v-0.3h0.4V23l0.7,0.1V23h0.6v0.1c0.4,0.1,0.9,0.1,1.3,0v0.3l0.4-0.1v0.1c0.4,0,0.9-0.1,1,0.1l-0.1,0.4h0.3v1.2
			l0.3,0.1c-0.1,0.3-0.2,0.2,0,0.6h0.1l-0.1,0.1l0.1,0.3h-0.1v0.1l0.4,0.1l-0.3,0.4h0.3c-0.1,0.2-0.1,0.4-0.1,0.6h0.3l0.1,1
			c0,0.2-0.1-0.1-0.1,0.1l0.3,0.1v0.6l0.3,0.1c0.1,0.3-0.2,0.3-0.3,0.4v0.1h0.6c-0.1,0.3-0.2,0.2-0.3,0.6h0.3l-0.1,0.4h0.3
			c-0.3,0.2,0,0.8,0.1,1h0.1v0.4h-0.1l0.1,0.4c0,0,0.6,0,0.3,0.1h-0.1v0.7L203,34c-0.1,0.2-0.3,0.3-0.1,0.6l0.3,0.1v0.6h0.1v0.7h0.1
			l0.1,1.3l0.3,0.1c0.2,0.4,0,1,0,1.2l0.3,0.1l0.1,0.9h0.1v0.3h0.1l-0.1,0.4l0.3,0.1l-0.1,0.3h0.1v0.3h0.1l-0.1,0.6h0.1l0.1,0.6h0.1
			l0.1,0.4c0.3,0,1,0.2,1,0.1l0.1-0.3l0.1,0.1l0.4-0.1c-0.1-0.4-0.1-0.8,0-1.2h0.1c0.1-0.5-0.4-0.3-0.3-0.7l0.1-0.1h-0.3
			c0-0.6-0.1-0.8,0-1.2h-0.3l-0.1-0.6h-0.1l0.1-0.4h-0.3l0.1-0.4h-0.1v-0.3h-0.1v-0.4h-0.1c0-0.4-0.1-0.8-0.1-1.2h-0.1v-0.6
			l-0.3-0.1v-0.9c0,0-0.1,0-0.1-0.3c0.3-0.1,0.1,0,0.3-0.1c-0.3-0.1-0.3,0-0.4-0.3h-0.1v-0.1h0.1l0.1-0.3h-0.3c0-0.3,0-0.5,0.1-0.7
			l-0.4-0.3c-0.1-0.4-0.1-0.8,0-1.2V31H204l0.1-0.4H204l0.1-0.3l-0.4-0.1c0.1-0.2,0.1-0.4,0.1-0.6h-0.3c0.1-0.4,0.2-0.3,0.3-0.6
			l-0.4-0.1v-0.6c0-0.2-0.1,0.1-0.1-0.1c0-0.1,0.3-0.1,0.1-0.4l-0.4-0.3c0,0,0.2-0.6,0.1-0.9l-0.3-0.1l0.1-0.6l-0.4-0.1l0.1-0.7
			h-0.1v-0.4l-0.3-0.1l0.1-0.4l0.9-0.1v0.3h0.1c0-0.2,0.5-0.2,0.7-0.1c0,0,0,0.1,0.3,0.1v-0.3c0.2,0.1,0.4,0.2,0.6,0.1v-0.1l1.8,0.3
			v-0.1l0.6,0.1v-0.1h0.6v0.1h0.1c0-0.1,0.1-0.2,0.3-0.2c0,0,0,0,0,0l0.1,0.3l0.4-0.1l0.1,0.3c0.4-0.1,0.1-0.2,0.7-0.3l0.1-0.4h0.3
			v-0.3c-0.3-0.1-0.1,0-0.3-0.1h0.3l-0.1-0.4H210c-0.1-0.2,0.1-0.1,0.1-0.1v-0.1H210V22c-0.1,0.2-0.5,0-0.9,0l-0.1-0.4l-1.2,0.1v0.1
			l-0.4-0.1v-0.1l-0.4,0.1v-0.1l-0.4,0.1l-0.1-0.3c-0.2,0-0.3,0.3-0.3,0.3h-0.7v0.1h-0.1v-0.1l-0.7-0.1c0.1,0.1,0.2,0.1,0.3,0.3
			l-0.4-0.1v-0.1H204v-0.1l-1.5,0.3v-0.3l-0.4,0.1c-0.1,0,0-0.2-0.4-0.3c0-0.5-0.1-1-0.1-1.5h-0.3c0.3-0.1,0.1-0.7,0.1-1.2
			c-0.3-0.1-0.1,0-0.3-0.1h-0.1l0.1-0.9l-0.3-0.1l0.1-0.9h-0.1v-0.3h-0.1v-0.6h0.1c0-0.2-0.1-0.2-0.1-0.6h-0.4
			c0.2-0.3,0.2,0,0.3-0.1v-0.1c-0.2-0.1-0.2-0.6-0.1-0.9h0.1v-0.1l-0.4-0.3c0.1-0.2,0.1-0.4,0.1-0.6l-0.4-0.1c0.1-0.5,0.1-1,0-1.5
			l-0.3-0.1c0-0.4-0.1-0.9-0.1-1.3H199V9.2h-0.3V8.5h-0.1l0.1-0.7h-0.4c0.2-0.8-0.4-1.3-0.6-2.1c-0.1-0.3,0.2-0.8,0.1-0.9l-0.3-0.1
			V4.2c-0.1,0-0.4,0.1-0.3-0.1h0.1V3.9h-0.1c-0.2-0.7-0.1-0.2-0.6-0.4l-0.1-0.3l-0.9,0.1V3.2h-0.1v0.4c-0.1,0.1-0.4,0-0.3,0.4
			c0,0,0.2,0.1,0.1,0.3c0,0.1-0.3,0.1-0.3,0.3h0.1l0.1,0.4h-0.3l-0.1,0.6h-0.1l0.1,0.3h-0.1v0.3h-0.1v0.3l-0.4,0.3v0.4l-0.3,0.1v0.1
			h0.1c0,0.4-0.2,0.4-0.4,0.6c0.1,0.1,0.2,0.2,0.3,0.3l-0.4,0.6h-0.1l0.1,0.3l-0.6,0.3c0.4,0.8,0.3,0.6-0.1,1.3h-0.3
			c0.1,0.3,0,0.1,0.1,0.3c0,0.1,0.1,0.6-0.1,0.4v-0.1h-0.1l-0.1,0.4h0.3c-0.2,0.4-0.4,0.8-0.6,1.2h-0.3v0.9l-0.3,0.1l0.1,0.3h-0.3
			l-0.1,0.9l-0.4,0.1v0.3h0.1c-0.1,0.2-0.1,0.4-0.1,0.6h-0.3l-0.1,0.7l-0.3,0.1l0.1,0.3h-0.1v0.3h-0.1l0.1,0.3
			c-0.1,0.1-0.3,0.1-0.3,0.3h0.1v0.1h-0.3c-0.1,0.3-0.1,0.7-0.1,1l-0.9-0.1v-0.3c-0.4,0-0.4,0.2-0.9,0v-0.1l-0.3,0.1
			c0-0.1,0.1-0.5-0.1-0.3l-0.1,0.4c-0.3,0.1-0.4-0.2-0.6-0.1v0.1c-0.4,0.1-0.1,0.1-0.4,0c-0.1,0.2,0,0-0.1,0.1
			c0,0.3,0.1,0.3,0.1,0.3c0.1,0.4-0.3,0.3,0,0.6h0.3l-0.1,0.3h0.3l0.1,0.3h0.1l-0.1,0.3l0.4-0.1v0.1h0.3v0.1l0.6-0.1v0.4
			c0.3-0.1,0.1,0,0.3-0.1h0.1c-0.1,0.2-0.3,0.2-0.4,0.4c-0.2,0.1,0,0-0.1,0.1h0.3c-0.1,0.3-0.3,0.6-0.4,0.9h-0.3
			c-0.1,0.8-0.4,0.9-0.4,1.6c-0.3,0.1-0.1,0-0.3,0.1h-0.1v0.6l-0.4,0.3l0.1,0.4h-0.1c-0.2,0.4-0.4,0.8-0.7,1c0,0,0,0.6,0.1,0.3v-0.1
			h0.1l-0.1,0.3c0.1,0.2,0.2-0.1,0.1,0.1h-0.1V28l-0.4,0.1V29c-0.3,0.1-0.1,0-0.3,0.1c-0.3,0.3-0.2,0.6-0.1,1c0,0-0.6,0-0.3,0.1h0.3
			v0.1h-0.4v0.7h-0.4v0.9l-0.3,0.1L183,33l-0.3,0.1l0.1,0.4h-0.1V34h-0.3l-0.1,0.4h0.1L182.4,34.8z M190.9,19.6
			c0.2-0.1,0.4-0.1,0.6-0.1c0-1,0-0.5,0.4-1h0.1v-0.1h-0.4c0-0.1-0.1-0.4,0.1-0.3c0,0,0,0.3,0.1,0.1v-0.3l0.3-0.1
			c-0.1-0.2-0.1-0.5,0-0.7l0.3-0.1v-0.4h0.1l-0.1-0.3l0.3,0.1c0.2-0.3,0.7-0.9,0.3-1.3v-0.1h0.4v-0.1h0.1c-0.1-0.2-0.2-0.4-0.1-0.6
			c0.4-0.1,0.5-0.3,0.6-0.7h-0.3l0.3-0.9h0.4l-0.1-0.1v-0.1h0.1c0.1-0.7,0.2-1.2,0.7-1.5v-0.1h-0.4v-0.1h0.6
			c-0.1-0.2-0.2-0.5-0.1-0.7h0.3c0-0.3,0-0.4,0.1-0.6h0.1l0.1-0.9c0.2,0.1,0,0,0.1,0.1h0.3c0.2,0.1-0.1,0.1-0.1,0.1v0.6
			c0.6,0.2,0.4,0.1,0.3,0.6h0.1v0.4c0.3,0.1,0.1,0,0.3,0.1h0.1c-0.2,0.3-0.2,0.7-0.1,1l0.3,0.1c0.1,0.4,0.2,0.8,0.1,1.2h0.3V13h-0.1
			c0.1,0.4,0,0.3,0.4,0.4c-0.1,0.3,0,0.3-0.3,0.4c0.1,0.1,0.2,0.2,0.3,0.3V15l0.3,0.1l-0.1,0.9h0.3c-0.5,0.2,0.4,1.2,0.3,1.3h-0.3
			c0.2,0.2,0,0.1,0.3,0.1l-0.1,0.4L199,18v0.1h-0.1c0,0.5,0,0.6,0.3,0.7c-0.2,0.2,0,0.1-0.3,0.1l0.4,0.9h-0.1v0.3h0.3
			c-0.1,0.2-0.1,0.4-0.1,0.6l0.1,0.1h-0.1v0.1L199,21v0.1l-0.9-0.1v0.1H198V21l-1.8-0.1v-0.1l-1.5-0.1v0.1h-0.1v-0.3
			c-0.1,0-0.3,0.2-0.6,0.1v-0.1l-0.4,0.1l-0.1-0.3l-0.6,0.1v-0.3c-0.4,0.2-0.9,0.2-1.3,0v-0.1c-0.2-0.1-0.3-0.1-0.6-0.1L190.9,19.6z
			"/>
		<path id="パス_308" class="st1" d="M116.3,25.7l0.4-0.1v0.3c0.5-0.1,0.4-0.3,0.9-0.4c0,0,0-0.6-0.1-0.3v0.1h-0.4l0.1-0.4
			l0.3-0.1c-0.1-0.2-0.1-0.4-0.1-0.6l-0.4-0.1c-0.1-0.3,0.1-0.1-0.1-0.3v0.1h-0.1v-0.1h-0.4v-0.3l-0.9-0.1V23H115l-0.1-0.3h-0.3
			v-0.1c-0.3-0.1-0.6,0.2-0.7,0.1l-0.1-0.3l-0.1,0.1h-0.1v-0.1h-0.7v-0.1c-0.3-0.1-0.7,0.2-0.7,0.1v-0.1h-0.3l-0.1-0.3
			c-0.2-0.1-0.3,0.1-0.3,0.1l-0.3-0.1c-0.1,0.1-0.3,0.2-0.4,0.1V22h-0.1v0.1h-0.1V22h-1.9v-0.1l-1.5,0.1l-0.1-0.3l-0.7,0.3l-0.1-0.3
			h-1.2l-0.4-1h-0.4v0.1h-0.4l0.1-0.4l-0.6,0.4v0.4c-0.6,0.1-0.4,0.2-1,0.3v-0.4c-0.2,0.1-0.2,0.3-0.3,0.3c-0.2-0.1-0.2-0.3-0.3-0.3
			c-0.2,0,0.1,0.1-0.1,0.1h-1V21l-1,0.3h-0.1V21c-0.3,0.1-0.1,0-0.3,0.1c-0.1,0-0.6,0.1-0.4-0.1h0.1v-0.1c-0.4,0.1-0.3,0.2-0.7,0.3
			c-0.1-0.3,0-0.1-0.1-0.3v-0.1c-0.5,0.3-0.3-0.1-0.6,0v0.1h-0.9v-0.1l-0.1,0.1h-0.1v-0.1h-0.4v-0.1c-0.2,0.1-0.4,0.1-0.6,0.1v-0.3
			h-0.9v-0.1h-0.1v0.1h-0.1v-0.1h-0.1c0,0.1-0.2,0.2-0.3,0.1c0,0,0,0,0,0v-0.1c-0.3-0.1-0.7-0.2-1-0.1v-0.3l-0.3,0.1v0.1h-0.1v-0.1
			l-1.3,0.1c-0.1,0.2-0.2,0.4-0.4,0.6c0.2,0.3,0.2,0.3,0.3,0.7l0.9,0.3V22c0.1,0.1,0.1-0.1,0.1-0.1l0.6-0.1l0.1,0.4l0.3,0.1
			c0.2-0.1-0.1-0.2,0.1-0.1v0.1h0.4v0.1l0.4-0.1v0.1h0.3v0.1h0.9c0.5,0.2,1.1,0.3,1.6,0.3v0.3c0.2-0.3,2.1,0.1,2.3-0.1h0.1l-0.1,0.3
			l0.6-0.1v0.1h0.7c0,0,0,0.2,0.3,0.1v-0.1h0.9v0.1h0.6v-0.1h0.1v0.1h0.3v0.1l0.3-0.1v0.1l0.6,0.1v0.3h0.1c-0.1,0.2-0.1,0.4-0.1,0.6
			h0.3l-0.3,0.7h0.1V26h0.3l-0.3,1.3h0.3c-0.1,0.3-0.2,0.2-0.3,0.6h0.3c-0.1,0.2-0.2,0.2-0.1,0.6c0,0,0.2,0.1,0.1,0.4H103
			c0,0.1,0,0.2,0.1,0.3l-0.1,0.3l0.1,1.3c-0.3,0.1-0.1,0-0.3,0.1c-0.2,0.2,0,0,0,0.3h-0.1c-0.2,0.2-0.3,0.5-0.3,0.7
			c-0.3,0.1-0.1,0-0.3,0.1H102l0.1,0.4c-0.1,0.1-0.2,0.2-0.3,0.3h-0.1l0.1,0.3h-0.3l0.1,0.4h-0.1c-0.2,0.2-0.1,0.2-0.4,0.3l0.1,0.4
			l-0.4,0.1v0.3l-0.4,0.1l-0.3,0.4h-0.3l-0.3,0.4H99c-0.1,0.3,0,0.1-0.1,0.3v0.1l-0.3-0.1l-0.1,0.3h-0.6c-0.4,0.2-0.8,0.4-1.2,0.4
			c0.2,0.2,0,0.1,0.3,0.1v0.1h-0.9v0.1h-0.3v0.1l-0.4-0.1v0.1h-0.6v0.1c-0.3,0.1-0.4-0.1-0.6-0.1v0.1l-0.4,0.1v0.1
			c-0.3,0-0.3-0.5-0.7-0.3l-0.1,0.3c-0.1,0-0.2,0-0.3-0.1c0,0,0,0,0,0l-0.4,0.1v-0.1l-0.9-0.1v0.1c-0.4,0.1-1-0.2-1.2-0.1
			c0,0-0.1,0.3-0.3,0.3v-0.1L89,37.6v0.1h-0.1v-0.1l-0.7,0.1v-0.3h-0.6v-0.1l-1.3,0.1v-0.3c-0.2,0-0.4,0.1-0.6,0.1V37
			c-0.7-0.2-0.5-0.5-1.2-0.3l0.1-0.3c-0.2-0.1-0.5-0.2-0.7-0.1v-0.3c-0.5-0.1-0.5-0.4-0.9-0.6v-0.1h-0.4v-0.4h-0.1
			c-0.3-0.4-0.3-0.1-0.4-0.7h-0.1v0.1h-0.3c0.3-0.3-0.6-1-0.7-1.5h-0.3c-0.1-0.5-0.1-0.6-0.6-0.7c0-0.2-0.1-0.4-0.1-0.6l0.1-0.1
			h-0.3c0-0.3,0-0.5-0.1-0.7h-0.1l0.1-0.3h-0.1v-0.3h-0.1l0.1-0.3h-0.1v-0.1h-0.1v0.3h-0.1v-0.3h0.1c0.1-0.5-0.4-0.7,0-1.2v-0.1
			l-0.4,0.1c0.1-0.2,0.3-0.2,0.4-0.4h-0.3c0-0.4,0.1-0.4,0.1-0.6h-0.1v-0.1c0.1-0.1,0.2,0,0.1-0.3c0,0-0.2,0-0.1-0.3
			c0,0,0.2,0,0.1-0.3c0-0.2-0.1,0.1-0.1-0.1h0.1l-0.1-0.6l0.3-0.1v-0.6h-0.1v0.1h-0.1v-0.1c-0.2-0.1,0,0-0.1-0.1h0.3l0.1-1.6
			l-0.1-0.4h0.1v-0.3c0.1-0.1,0.4-0.1,0.3-0.4l-0.3-0.1v-0.3h0.3L79.2,21l0.4-0.3v-0.7h0.1v-0.7h0.1v-0.3h0.1l-0.1-0.4h0.1
			c0.3-0.3,0.4-0.6,0.4-1h0.3v-0.7l0.3-0.1v-0.1H81l0.3-1l0.4-0.3c-0.1-0.2-0.1-0.4-0.1-0.6h0.1c0.3-0.1-0.2-0.1,0-0.3
			c0,0,0.5-0.2,0.4-0.3c-0.2-0.2-0.1,0.1-0.3-0.1h0.3c0-0.2,0-0.4,0.1-0.6h0.1v-0.6h0.1v-0.3h0.1c0-0.3-0.3-0.2-0.3-0.3l0.3-0.6h0.1
			V11H83v-0.1c0-0.2-0.2,0.1-0.1-0.1c0,0,0.1,0,0.1-0.3c0.3-0.1,0.1,0,0.3-0.1l0.4-1.3H84c0.1-0.3,0-0.1,0.1-0.3V8.5l0.7-0.1
			C85,8,84.9,8.2,85.1,8c0.2-0.4,0.1-0.1,0.4-0.3V7.6h0.3V7.5h0.6L86.7,7h0.9V6.9L89,6.7V6.6h1.2V6.4c0.3,0,0.2,0.2,0.4,0V6.1
			c0.9,0.6,1.7,0.1,2.9,0.1h0.9v0.1l0.7-0.1v0.1h0.3v0.1l0.1-0.1c0.2,0-0.1,0.1,0.1,0.1h0.9v0.1H97v0.1l0.9-0.1v0.1h0.4V7
			c0.2,0,0.2-0.2,0.4,0v0.3c0.4-0.2,0.9,0,1.5,0v0.3h0.1c0.1,0,0-0.2,0.1-0.1v0.1h0.4v0.1h0.6l0.1,0.3h0.6l0.3,0.4
			c0.3,0.1,0.2-0.1,0.3-0.1h0.1v0.4h0.3v0.3c0.5,0,0.3,0.2,0.6-0.1h0.1v0.6c0.2-0.3,0.4,0,0.6,0.1V10c0.3,0,0.5-0.1,0.7-0.1v0.3
			l0.7,0.1c0.2-0.3,0.3-0.1,0.4-0.6c-0.3-0.1-0.1,0-0.3-0.1h0.3V8.9l-0.6-0.1c-0.1-0.3-0.2-0.7-0.3-1l-0.7-0.1V7.2L104.5,7V6.9
			L104,6.7l-0.1-0.3c-0.3-0.2-0.4,0.1-0.7-0.3h-0.6V6h0.1V5.8h-0.1V5.7l-0.4,0.1L102,5.5l-0.4,0.1l-0.1-0.3h-0.4V5.3h-0.1v0.1h-0.1
			l-0.1-0.3h-0.6V5h-0.6V4.8h-1l-0.1-0.3H98v0.1l-0.4-0.1c-0.1,0.1,0,0.2-0.3,0.1V4.5h-0.4V4.4c-0.2,0-0.3,0.3-0.6,0.1l-0.1-0.3h-1
			V4.1h-0.1v0.1h-0.4V4.1h-0.1v0.1c-0.4,0-0.4-0.1-0.4-0.1c-0.2-0.1-0.3,0-0.4,0.1l-0.3-0.1v0.1l-2.2-0.1v0.1h-0.6v0.1l-0.4-0.1v0.1
			h-0.3v0.1h-0.1V4.4h-0.1v0.1c-0.2,0,0.1-0.1-0.1-0.1c-0.4-0.1-0.5,0.1-0.7,0.1c-0.1-0.1,0-0.3-0.3-0.1l-0.3,0.4l-0.6-0.1v0.1h-0.7
			l-0.1,0.3h-0.3v0.1l-0.4-0.1l-0.1,0.3h-0.3l-0.1,0.3h-0.4v0.1C84.4,6,84.2,6,83.9,6v0.3h-0.4v0.3c-0.4,0.1-0.3,0-0.4,0.4
			c-0.3,0.1-0.1,0-0.3,0.1c-0.7,0.2-0.2,0.1-0.4,0.6L82,7.9l-0.3,0.9l-0.4,0.3l-0.1,1.2h-0.3l-0.1,0.9l-0.3,0.1
			c-0.1,0.2,0.2,0.1,0.3,0.3l-0.3,0.1l-0.1,1h-0.1c-0.2,0.4-0.3,0.8-0.3,1.2h-0.3c0.3,0.3-0.1,0.3-0.1,0.4v0.4h-0.1v0.3H79v0.1h0.1
			v0.1l-0.3-0.1l0.1,0.6h-0.3l0.1,0.4l-0.4,0.1l0.1,0.4c0,0-0.1,0-0.1,0.3c-0.3,0.1-0.1,0-0.3,0.1c-0.2,0.1,0,0-0.1,0.1h0.3
			c0,0.2-0.3,0.9-0.3,0.9h-0.3c0.1,0.2,0.1,0.4,0.1,0.6l-0.4,0.1l0.1,0.9h-0.3c-0.1,0.7-0.2,1.5-0.3,2.2h-0.1l0.1,0.1
			c0,0.3-0.1,0.3-0.1,0.3L77,23h-0.3c0.1,0.2,0.2,0.3,0.1,0.6c0,0.2-0.2-0.1-0.1,0.1h0.1V24h-0.3c0.1,0.3,0,0.3,0.3,0.4
			c-0.1,0.4,0,0.3-0.4,0.4v0.3l0.3,0.1l-0.1,1.3h0.1l-0.1,0.1V27h0.1c0,0.3-0.1,0.3-0.1,0.3l0.1,1.5h0.1v1H77v0.1h-0.1v0.1l0.3,0.1
			v0.3h0.1L77.1,31h0.1v0.4l0.4,0.3v0.4l0.3,0.1v0.3h0.1l0.1,0.4l0.3,0.1l-0.1,0.3h0.1c0.3,0.3,0.4,0.6,0.4,1h0.3v0.1l0.3,0.1v0.3
			l0.7,0.6v0.1h0.3l-0.1,0.3H81c-0.2,0.2,0,0.1-0.3,0.1v0.1h0.4v0.3h0.4c0.1,0.4,0.2,0.3,0.3,0.6h0.6c-0.1,0.3,0,0.1-0.1,0.3
			c0.2,0.2,0.4,0.3,0.6,0.4v0.1h0.4l0.1,0.3H84l0.1,0.3h0.4l0.1,0.3h0.6v0.1h0.4c0.2,0.1,0,0.2,0.4,0.3c0.1-0.3,0-0.1,0.1-0.3v0.3
			l0.9,0.1c0.1,0,0-0.2,0.3-0.1v0.1c0.3,0,0.5,0,0.7-0.1v0.3c0.6-0.1,1.3-0.1,1.9,0v0.1h0.1v-0.1h0.7v0.3c0.1-0.5,1.1,0,1.6-0.1
			v-0.1h0.1v0.1c0.1,0,0.2,0,0.3-0.1l0.6,0.1v-0.1h1.2l0.1-0.3h0.6v-0.1h0.3v-0.1h0.9V39l0.1,0.1l0.1-0.1c0.2,0.1,0.4,0.1,0.6,0.1
			c0.1-0.3,0-0.1,0.1-0.3v-0.1l0.7-0.1v-0.1h0.3v-0.1h0.3v-0.1l0.3,0.1l0.1-0.3c0.3-0.2,0.7-0.3,1-0.3c0.2-0.4,0-0.2,0.4-0.1
			c0.1-0.2,0,0,0.1-0.1l-0.1-0.3c0.3-0.3,0.4,0.3,0.6-0.4c0.4-0.1,0.3-0.2,0.7-0.3v-0.3h0.3l0.1-0.9h0.3c0.1-0.3,0.2-0.7,0.3-1
			L104,34v0.7h-0.1v0.1h0.1v0.4h-0.1l0.1,0.3h-0.3l0.1,0.4h0.1l-0.1,0.6h0.3c-0.1,0.2-0.4,0.3-0.3,0.6h0.1v0.1h-0.1v0.1h0.1v1
			c0,0.1-0.3,0.1-0.3,0.3L104,39c0,0.3,0,0.7-0.1,1h0.1v0.3h0.1c0,0.2-0.1-0.1-0.1,0.1l0.1,1.3l-0.3,0.1l0.1,0.9h-0.1l0.1,0.4v0.1
			h-0.1l0.1,0.3h-0.1v0.1h0.1c0.1,0.3-0.2,0.4-0.1,0.6l0.3,0.1l-0.1,0.1v0.6h-0.1l0.1,0.4c-0.1,0.1-0.2,0.3-0.1,0.4
			c0,0.2,0.2,0,0.1,0.1l-0.4,0.1c0.2,0.2,0.1,0.2,0,0.4h-0.1l-0.1,1.3h0.1l0.1,0.4l-0.3,0.1c-0.2,0.5,0.2,0.7,0.1,1h-0.1
			c0,0.3,0.1,0.2,0.1,0.3l-0.1,0.4h0.1v0.1c-0.1,0-0.2,0.2-0.1,0.3h0.1c0.1,0.5-0.2,0.8-0.1,1h0.1c0,0.2-0.2,0.4-0.1,0.7h0.1
			c0,0.3-0.1,0.3-0.1,0.3l-0.1,1.5h0.4c0.1,0.4,0.1,0,0,0.4l1.2,0.1c0.1-0.4,0-0.3,0.4-0.4c0-0.2,0-0.4,0.1-0.6h0.1v-1.3h-0.1
			l0.1-0.4h0.1V52h-0.3l0.1-0.6h-0.1v-0.1l0.3-0.1v-0.4l-0.4,0.1c0.3-0.6,0.2-0.4,0.1-1.2h0.3c-0.1-0.4-0.1-0.8,0-1.2h-0.1v-0.1h0.3
			l-0.3-0.4h0.1l-0.1-0.4l0.3-0.1V47h0.4v-0.3h-0.3v-0.1l0.3-0.1v-0.4h-0.1c0-0.2,0.1,0.1,0.1-0.1v-0.4h0.1c0-0.1,0.1-0.6-0.1-0.4
			V45h-0.1c0.2-1,0.3-2,0.1-2.9h-0.3V42h0.1l0.1-0.3h-0.1v-0.1c0,0,0.2,0,0.1-0.3h-0.1v-0.1h0.3v-0.1h-0.4v-0.1h0.3l-0.3-0.4
			l0.3-0.1l0.1-0.4h-0.3v-0.9h0.1v-0.1c-0.1,0.1-0.2,0-0.3-0.1c0,0,0,0,0-0.1l0.3-0.1l-0.1-1.5h0.1l-0.1-0.3v-0.1h0.1
			c0-0.1,0-0.3-0.1-0.3l0.1-0.9h-0.3l0.3-0.4h-0.1v-0.3h-0.1v-0.1h0.1v-0.1h-0.1c0-0.3,0.1-0.3,0.1-0.3v-1.3c0-0.1,0.2,0,0.1-0.3
			h-0.1v-0.3h-0.1c-0.1-0.4,0.4-0.3,0.3-0.6h-0.1c-0.1-0.6-0.1-1.2,0-1.8h-0.3l0.1-1h-0.3c0-0.3,0-0.5-0.1-0.7h0.3l-0.1-0.6h0.1
			v-0.1l-0.3-0.1c-0.1-0.3,0.1-0.9,0.1-0.9l-0.3-0.1l0.1-0.4h-0.1c-0.2-0.6,0-0.8-0.1-1v-0.7c0.2,0.3,0.3,0.1,0.4-0.1
			c0,0,0.6,0,0.3,0.1h-0.1V24h1.5v0.1h0.7V24l1.3,0.1v0.3l0.4-0.1v-0.1l0.7,0.1v0.1l0.3-0.1v0.1h0.1v-0.1h1.2v0.1
			c0.1,0,0.3,0,0.3-0.1h0.1v0.1h0.6v0.1h0.4v0.1l0.4-0.1v0.3h0.6v0.3h0.4c0.2,0.4,0,0.2,0.4,0.1v0.3l0.4-0.1c0.1,0,0,0.3,0.3,0.3
			C116.4,25.7,116.1,25.7,116.3,25.7z M89.9,6.1h0.1v0.3h-0.1V6.1z"/>
		<path id="パス_309" class="st1" d="M90.1,6.1h-0.1v0.3h0.1V6.1z"/>
		<path id="パス_310" class="st1" d="M302.5,8c-0.4,0.1-0.3-0.3-0.6-0.3L301.8,8l-1-0.1V8l-0.3-0.1c-0.2,0,0.1,0.1-0.1,0.1
			c-0.2,0-0.3,0-0.4-0.1c-0.3,0-0.7,0-1,0.1V7.8l-0.7,0.1V8H298V7.9L297.5,8c0-0.1-0.2-0.2-0.3-0.1C297.1,8,297,8.1,296.8,8V7.9
			h-0.4V7.8h-0.1l-0.3,0.4h-0.1V8H295v0.3h-0.1V7.8h-0.7L294,8c-0.3,0-0.5-0.5-1-0.3L292.8,8h-0.3V7.8c-0.7-0.1-1.5,0-2.2,0.3h-0.7
			l0.1-0.3l-1.5,0.1c-0.1,0,0-0.2-0.3-0.1v0.1l-0.4-0.3l-0.1,0.3c-0.3,0.1-0.7,0.2-1,0.1v0.3l-0.3,0.1c-0.2,0.4,0.1,0.9,0.1,1.2h0.4
			v0.1l0.3-0.1V10l0.4-0.1V10h1.2v0.1h0.3c-0.2,0.3-0.7,0.8-0.4,1.5c0,0,0.3,0.1,0.3,0.3c-0.1,0.1-0.2,0-0.3,0.4h0.3l-0.1,0.1
			l0.1,0.6h-0.1v0.6h0.3l-0.1,0.7l0.1,0.1l-0.3,0.1l0.1,0.4h-0.1v0.1h0.3c0.1,0.2-0.1,0.1-0.1,0.1l0.1,0.4h-0.1V16
			c0.1,0.2,0.2-0.1,0.1,0.1h-0.1v0.4h-0.1c0.1,0.2,0.1,0.4,0.1,0.6h0.3v0.1c-0.1,0-0.2,0.1-0.2,0.3c0,0,0,0,0,0h0.1l0.1,0.4H289
			l-0.1,0.4h0.3c-0.1,0.3-0.2,0.5-0.3,0.7l0.3,0.1l0.1,1.2l-0.3,0.1c0.2,0.2,0,0.1,0.3,0.1v1l0.3,0.1c0,0.3-0.3,0.2-0.3,0.3
			c0.1,0.3,0.2-0.1,0.3,0.1c-0.1,0.3-0.1,0.6-0.1,0.9h-0.3v0.3c0,0-0.6,0-0.3,0.1h0.3c-0.1,0.2-0.4,0.3-0.3,0.7h0.1v0.3l0.3,0.1
			c0,0.2,0.1,0.5,0.1,0.7l0.3,0.1l-0.1,0.4l0.4,0.3c-0.1,0.2-0.2,0.3-0.4,0.4c0.1,0.1,0.2,0.2,0.3,0.3c0.1,0.2-0.1,0.3-0.1,0.3v0.1
			h0.1l-0.2,0.9h0.3c-0.2,0.3-0.3,0.2-0.4,0.4c0.2,0.1,0.1,0,0.1,0.3h0.3l-0.3,1.5h0.1l0.1,0.4h-0.1v0.3h-0.1v0.1h0.1v0.9h-0.1
			c0.2,0.2,0,0.1,0.3,0.1l-0.3,1.3h0.3c-0.1,0.2-0.2,0.5-0.1,0.7h0.1v0.1h-0.1v0.1c0.1,0,0.2,0.2,0.1,0.3h-0.1c0,0.5-0.1,1-0.1,1.5
			h0.3V37h-0.3v0.1h0.1c0,0.6,0,1.3-0.1,1.9l-1,0.1v0.1h-0.3v0.1h-0.7v0.1h-0.1v-0.1h-0.1v0.1h-0.3l-0.3,0.4c-0.2,0-0.2,0-0.1-0.1
			v-0.1h-0.1v0.1h-0.6v0.1c-0.2,0.1-0.4,0.2-0.6,0.1c0,0,0,0.6-0.1,0.3v-0.1H285v0.4c-0.3,0.1-0.5,0.2-0.7,0.3c-0.1,0.3-0.1,0.7,0,1
			h0.7v0.1h0.1v-0.1h0.1v0.1l0.3-0.1c0,0.1,0.2,0.2,0.3,0.1v-0.1h0.7V42l0.4,0.1V42h0.3l0.1-0.3l0.6,0.1l0.1-0.3l0.4,0.1l0.1-0.3
			h0.4v-0.1l0.6-0.1v0.3h0.1c-0.1,0.2-0.1,0.4-0.1,0.6c0.4,0.1,0.3,0,0.4,0.4c0.7,0.1,1,0.2,1.5-0.3h0.1l0.1-0.7H292v-0.1h0.1v-0.4
			h0.1l0.1-0.4l0.7-0.1v-0.1c0.2,0,0.3,0.1,0.3,0.1c0.3,0,0.7,0,1-0.1c0.1-0.3,0-0.1,0.1-0.3v0.3h0.4v-0.3h0.6v0.1
			c0.1,0,0.6,0.1,0.4-0.1h-0.1v-0.1l0.4,0.1v-0.1h0.1c0.2,0.1-0.1,0.2,0.1,0.1v-0.1c0.4-0.1,0.8-0.1,1.2,0v-0.3
			c0.3,0.1,0.4,0,0.1,0.3c0.3,0.1,0.8-0.2,1-0.3v0.3h0.1v-0.3l0.6,0.1v-0.1h0.1v0.3l1.8-0.3v0.1l1.6,0.1v-0.1h0.7v-0.1l0.6,0.1v0.1
			c0.4,0.1,0.3-0.3,0.6-0.3c0.1,0.1-0.1,0.4,0.1,0.3l0.1-0.3c0.1,0,1.2,0.3,1.2,0.3h0.1v-0.1h0.7v0.3c0.1-0.2,0.6-0.1,0.9,0v0.1
			c0.2,0,0.2-0.2,0.6-0.1v0.1h0.4v-0.1h0.1v0.1h0.7v0.3l0.9,0.1c0-0.1,0.2-0.2,0.3-0.1c0,0,0,0,0,0v0.1h0.3l0.1,0.3h0.6v0.1h0.1
			l0.6-0.9c0.2-0.2,0.1-0.7,0-1.2h-0.6l-0.1-0.4l-0.1-0.1l-0.4,0.1v-0.1h-0.1v0.1h-0.1v-0.1H311l-0.1-0.3l-0.4,0.1l-0.1-0.3
			l-0.9,0.1l-0.1-0.3h-1.2v-0.1l-2.3-0.1v0.1l-0.4-0.1v0.1c-0.6,0.1-0.5-0.3-0.6-0.3c-0.1,0-0.2,0-0.3,0.1c0,0,0,0,0,0l-0.4-0.1v0.1
			h-0.3v0.1c-0.2,0.1-0.3-0.1-0.3-0.1h-0.9v-0.1l-0.4,0.1v0.1c-0.2,0.1-0.3-0.1-0.3-0.1h-1v-0.1h-0.1v0.1h-0.7v0.1h-0.6v-0.1h-1v0.1
			h-0.1v-0.3H298l-0.1,0.3h-0.9v0.1l-0.7-0.1v-0.1h-0.1v0.1h-0.7v0.1h-0.6v0.1h0.1v0.1l-0.1-0.1l-0.7,0.1v-0.1h-0.3l-0.1,0.3h-0.3
			v0.1L293,38v0.1c-0.3,0.1-0.5,0.1-0.7,0.1l-0.1-0.4c0-0.2,0.2,0.1,0.1-0.1c0-0.1-0.4,0-0.3-0.4h0.1l0.1-0.4h-0.1v-1.3H292l0.3-0.7
			l-0.4-0.1c0.2-0.3,0.3-0.7,0.3-1H292v-0.1h0.1v-0.1H292v-0.1h0.1c0-0.2,0.1-0.4,0.1-0.6H292l0.1-0.4H292v-0.7h0.1v-0.9
			c-0.1-0.1-0.2-0.2-0.3-0.3h0.3l-0.1-0.6h0.1v-0.1H292v-0.1h0.1l0.1-0.4l-0.3-0.1l0.1-0.6H292v-0.3h-0.1v-0.1h0.1v-0.3h0.1
			c0-0.2-0.5-0.4-0.3-0.9h0.1v-0.7c0.3,0.2,0.7,0.3,1,0.4c0.2,0,0.3-0.1,0.3-0.1h0.9v0.1h1v-0.1h0.1l0.1,0.3c0.2,0,0,0,0.1-0.1h0.7
			v0.1l0.7-0.1v0.4c0.4-0.2,0.8-0.2,1.2-0.1v0.1l0.7-0.1v0.3l2.2-0.3v0.3h0.1c0-0.2,0.7-0.2,0.9-0.1c0.1,0.1,0.2,0.2,0.3,0.3v-0.3
			c0.2,0,0.4-0.1,0.6-0.1v0.1h1c0.2,0-0.1,0.2,0.1,0.1v-0.1h0.4v-0.1c0.1,0,0.3,0,0.3,0.1c0.3-0.1,0.6-0.2,0.9-0.1v0.1l0.4-0.1
			c0.1,0,0,0.3,0.3,0.3l0.1-0.3h1v-0.1l1.9,0.1v-0.1l0.7-0.1v-0.1c0.2-0.2,0.4-0.3,0.6-0.3l-0.3-0.4h0.1c0-0.6-0.1-0.5-0.3-0.9H310
			v-0.3l-0.7,0.1c0-0.1-0.2-0.2-0.3-0.1v0.1c-0.5,0-1,0-1.5-0.1v0.1h-0.3v0.1h-0.1v-0.1l-0.9,0.1c-0.1-0.3,0-0.1-0.1-0.3v0.3
			l-0.4-0.1c-0.1,0.1,0,0.2-0.3,0.1c-0.2,0,0.1-0.2-0.1-0.1v0.1h-0.3v0.1h-0.1v-0.1h-0.1v0.1H304v0.1h-0.1l0.1-0.3l-0.6-0.1v0.3
			l-0.6-0.1v0.1h-0.1v-0.1h-0.1c0,0.1-0.2,0.2-0.3,0.1l-0.1-0.3c-0.2,0-0.2,0.1-0.1,0.3l-0.4-0.1v-0.1h-0.1v0.1
			c-0.2,0-0.4,0-0.6-0.1v0.3c-0.4-0.1-0.3-0.2-0.6-0.3v0.3l-0.7-0.1v-0.1H299v0.1h0.1v0.1H299v0.1h-0.1v-0.3c-0.6-0.1-1.2-0.1-1.8,0
			c-0.1-0.3,0-0.1-0.1-0.3v-0.1c-0.3-0.1-0.5,0.3-0.7,0.3v-0.1h-0.3v-0.1c-0.2,0.1-0.4,0.1-0.6,0.1c-0.2-0.6-0.9,0.2-1.6-0.1
			l-0.1-0.3l-0.4,0.1v-0.1l-0.4,0.1v-0.1c-0.5-0.1-0.4-0.1-0.9,0l-0.1-0.9h0.1v-0.1c-0.1,0-0.2-0.2-0.1-0.3h0.1v-0.1l-0.3-0.1
			l-0.1-0.7h0.3c0-0.3,0-0.5-0.1-0.7h-0.1c-0.1-0.3,0.1-0.6,0.1-0.7l-0.3-0.1l0.1-0.9h-0.1v-0.3h-0.1l0.1-0.4h-0.1
			c-0.1-0.9-0.1-1.9,0-2.8h-0.3c0-0.4,0.1-0.9,0.1-1.3h-0.1v-0.4l-0.3-0.1c-0.1-0.2,0.3-0.2,0.3-0.3v-0.6h-0.3l0.1-1.2l-0.3-0.1
			v-0.1h0.1V11h-0.1l0.1-0.4h-0.3c0.1-0.3,0-0.1,0.1-0.3v-0.1c0.7,0.3,1-0.2,1.8,0v0.1h0.6v-0.1h0.3V10l0.4,0.1v0.1h1v-0.1
			c0.2,0.1,0.4,0.1,0.6,0.1V10l1.2,0.1V10h0.1v0.1h0.3v0.1l0.1-0.1c0.5,0,0.3,0.3,0.7-0.1c0,0,0.6,0,0.3,0.1h-0.1v0.1h0.4V10h0.9
			l0.1,0.3c0.1,0,0.3,0,0.3-0.1c0,0,0,0,0,0c0.3,0,0.3,0.1,0.3,0.1l1-0.1v0.1h0.7l-0.1-0.3c0.3,0.2,0.7,0.2,1,0.1V10h0.1v0.1h0.7V10
			l0.3,0.1l1.9-0.1v0.3h0.1v-0.1h0.4V10h0.1v0.1c0.3,0,0.2-0.1,0.3-0.1l0.4,0.1l-0.1-0.4h0.1V9.5h0.1l-0.1,0.3l0.4-0.1l0.1-0.4
			c-0.3,0.1-0.1,0-0.3,0.1h-0.3c0.2-0.3,0.3-0.6,0.3-0.9h-0.3c-0.1-0.4-0.3-0.4-0.4-0.7h-0.6L305.8,8L305,7.9V8
			c-0.2,0-0.3,0-0.4-0.1h-0.9c-0.2,0,0.1,0.1-0.1,0.1l-0.1-0.3h-0.1v0.1h-0.7L302.5,8z"/>
		<path id="パス_311" class="st1" d="M177.6,14.2h0.3v0.1l0.4-0.1v0.1h0.4v0.1l0.6-0.1v0.1l0.3-0.1v0.1c0.4,0.1,0.8,0.1,1.2,0v0.3
			h0.1c0-0.2,0.7-0.4,1-0.4l0.1-1c-0.3-0.1-0.1,0-0.3-0.1c-0.2-0.1,0,0-0.1-0.1h0.3c-0.1-0.4-0.2-0.3-0.3-0.6l-0.9-0.1v0.1
			c0,0-0.6,0-0.3-0.1h0.1v-0.1c-0.3,0-0.5,0-0.7,0.1v0.1l-0.3-0.1v0.1h-0.3v-0.3h-0.9c-0.2,0,0.1-0.2-0.1-0.1c0,0,0,0.2-0.1,0.3
			c-0.1-0.1-0.1-0.3-0.3-0.3l-0.1,0.3l-0.4-0.1V12l-0.6,0.3V12h-1.6v-0.1l-0.9-0.1V12h-0.1v-0.3h-0.7v0.1h-0.1l-0.1-0.3l-0.4,0.1
			v-0.1h-0.3v-0.1l-0.4,0.1v-0.1l-1.2,0.1l-0.1-0.3h-0.3v-0.1h-0.1v0.1h-0.7v0.1c-0.2,0-0.3-0.3-0.3-0.3h-0.7v0.1l-0.3-0.1
			c-0.2,0,0,0.2-0.1,0.1l-0.1-0.3l-0.4,0.1c-0.1,0,0-0.2-0.4-0.3v0.3c-0.4-0.2-0.8-0.2-1.2,0v-0.3l-1.5,0.1v-0.1h-0.1
			c-0.1,0.1,0,0.2-0.3,0.1v-0.1h-0.3l-0.1-0.3h-1v-0.1h-0.4v-0.1c-0.1,0-0.5,0.2-0.9,0.1v-0.1h-0.6v-0.1h-0.1v0.1h-1.3V10h-0.3
			l-0.1,0.3c-0.2,0-0.1,0-0.1-0.1V10h-0.1v0.1h-0.6V10l-0.7,0.1l-0.1-0.3c-0.2-0.1-0.3,0-0.4,0.1h-0.4V9.8c-0.3,0-0.5,0.2-0.7,0.3
			V9.8h-0.3l-0.1,0.3c-0.2-0.1-0.4-0.1-0.6-0.1l-0.1,0.4l-0.4,0.1v0.3h-0.1c0.1,0.2,0.1,0.4,0.1,0.6h0.1v0.1h0.4v0.3h0.1v-0.1
			l0.3,0.1v-0.1h0.6v0.1h0.6v-0.1h0.1l-0.1,0.4h0.9V12h0.1l-0.1,0.3l1.3-0.1v0.1h0.6c0.2,0-0.1-0.2,0.1-0.1v0.1h0.6v0.1l0.7-0.1
			l0.1,0.3l0.9-0.1v0.3c0.1,0.1,0.6-0.6,1,0c0,0,0.6,0,0.3-0.1h-0.1v-0.1c0.2,0.2,0.2,0.1,0.3,0.4h1.3V13c0.1,0,0.5-0.3,0.9-0.1V13
			h0.3v0.1h0.4V13c0.2,0-0.1,0.1,0.1,0.1l1,0.1v0.1h-0.3c0,0,0,0.6,0.1,0.3v-0.1h0.1c-0.3,0.8,0.1,0.7,0.1,1.3h-0.1v0.7
			c0,0-0.2,0-0.1,0.3c0,0.6,0.4,1.2-0.1,1.8c0.2,0.2,0,0.1,0.3,0.1c0,0.3-0.1,0.7-0.1,1c0,0,0.2,0,0.1,0.3h-0.1l-0.1,0.4l0.3,0.1
			l-0.1,0.3h0.1v0.1c-0.1,0.1-0.2,0.3-0.1,0.4h0.1l0.1,0.4l-0.3,0.1l0.1,0.3h-0.1c-0.1,0.7,0.4,0.6,0.3,1.2h-0.1v0.4h-0.1v0.1h0.3
			c-0.1,0.2-0.1,0.3-0.1,0.6h-0.1c0,0.1,0.2,0.4,0.1,0.7h-0.1l0.1,0.4h0.1l-0.1,0.3h0.1V27h0.1v0.1h-0.1c-0.1,0.3,0.1,0.1-0.1,0.3
			c0.1,0.1,0.2,0.1,0.3,0.3h-0.3v0.6l0.3,0.1l-0.3,0.7c0,0.4,0.1,0.4,0.1,0.4c0.2,0.7,0.1,1.4-0.3,2.1c0.1,0.1,0.3,0.2,0.4,0.3v0.1
			h-0.3v0.1c0.1,0.1,0.4-0.1,0.3,0.1h-0.1v0.4h-0.1V33h0.3c-0.1,0.4,0,1-0.1,1.6h-0.1l0.1,0.6h-0.1c0.2,0.2,0,0.1,0.3,0.1v0.3h-0.3
			l0.1,1.5l-0.1,0.1h0.1l0.1,0.4h-0.3l0.1,0.4h-0.1v0.1h0.3v0.1c-0.3,0.2,0,0.6-0.1,1h-0.1c0,0.2,0.1,0.3,0.1,0.3v0.6h-0.1l0.1,0.4
			h-0.1v0.1h0.1v0.3h0.1v0.1h-0.1v0.7h0.1l-0.1,0.7c0,0,0.3,0.1,0.3,0.3c0,0.1-0.4,1-0.4,1h0.3l-0.1,0.4c0,0.1,0.2,0,0.3,0.4h-0.1
			l-0.1,0.7h0.3l-0.3,0.7h0.1v0.3h0.3c-0.1,0.3,0,0.1-0.1,0.3v0.1h0.6v0.1c0.3,0,0.5-0.1,0.7-0.3V47h0.4v-0.1h0.1v-0.4
			c0.1-0.2,0.2,0.1,0.1-0.1h-0.1v-0.1c0,0,0.2,0,0.1-0.3c-0.1,0-0.2-0.2-0.1-0.3c0.1-0.1,0.2-0.3,0.1-0.4c0,0-0.2,0-0.1-0.3
			c0.1-0.1,0.2-0.3,0.1-0.4h-0.1c0-0.3,0.1-0.3,0.1-0.3c0.1-0.3-0.2-0.4-0.1-0.6h0.1l-0.3-0.4l0.3-0.1l-0.3-0.4h0.3
			c-0.1-0.5-0.1-1.1,0-1.6h-0.3v-0.3h0.3v-0.1c-0.4,0-0.1-0.5-0.1-0.7h-0.1v-0.1h0.3c0.1-0.3-0.2-0.1-0.3-0.1l0.1-0.3v-0.6h-0.1
			v-0.9h0.1c0.1-0.3-0.2-0.4-0.1-0.6h0.1l-0.1-0.7h0.1l-0.1-0.3c0.1,0,0.2-0.2,0.1-0.3h-0.1v-0.1c0.1,0,0.2-0.2,0.1-0.3
			c0,0-0.2-0.1-0.1-0.3h0.1l0.1-0.4h-0.1v-0.3h-0.1V34h0.1c0-0.5-0.1-1-0.1-1.5c0,0,0.3-0.1,0.3-0.3h-0.3c0-0.2,0.2-0.3,0.1-0.6
			h-0.1c0-0.4,0.1-0.9,0.1-1.3c0.1-0.7-0.2,0-0.1-0.3h0.1v-0.1h-0.1l0.1-0.3l-0.3-0.1l0.1-0.4h0.1v-0.3h0.1v-0.1h-0.1
			c0-0.1,0-0.2,0.1-0.3c0-0.1-0.2-0.4-0.1-0.7h0.1v-0.1l-0.3-0.1l0.1-0.6h-0.1v-0.3h-0.1v-0.1h0.1l-0.1-0.3c0-0.1,0.4-0.1,0.3-0.6
			h-0.1c0-0.3,0.1-0.3,0.1-0.3v-0.1h-0.1c0-0.2,0.1,0.1,0.1-0.1c0-0.3-0.1-0.3-0.1-0.3l0.1-0.9h-0.3c0.2-1.1,0-2.6,0.1-3.4v-0.7
			h-0.1l0.1-0.4h-0.1c-0.1-0.4,0.1-0.4,0.3-0.6c-0.2-0.4,0-0.2-0.4-0.1c0.2-0.3,0.2,0,0.3-0.1V18h-0.1l0.1-0.7h-0.1v-0.1h0.1
			l-0.1-0.4c0-0.1,0-0.2,0.1-0.3l-0.1-0.3c0-0.1,0-0.2,0.1-0.3c0-0.3-0.1-0.3-0.1-0.3l0.1-0.9h-0.3v-0.1l0.3-0.1l-0.1-0.9h-0.1v-0.1
			h1.2c0.2,0-0.1,0.2,0.1,0.1v-0.1h0.3v0.3c0.5-0.1,1.1-0.1,1.6,0l0.1,0.3l0.6-0.3v0.1l0.4,0.1v0.1c0.2,0.1,0.2-0.3,0.3-0.3l0.3,0.1
			c0.2,0-0.1-0.1,0.1-0.1v0.1c0.3,0,0.3-0.1,0.3-0.1c0.4-0.1,0.4,0.1,0.6,0.1v-0.3c0.2-0.1,0,0.1,0.1,0.1h0.3l-0.1,0.4l0.6-0.1v0.3
			h0.3l0.1-0.3c0.1,0,0.3,0.2,0.6,0.1v-0.1c0.2,0,0.3,0.1,0.3,0.1c0.3,0,0.6,0,0.9-0.1L177.6,14.2z"/>
		<path id="パス_312" class="st1" d="M230.3,10.1V10c-0.4-0.1-0.8,0-1.2,0.1V9.8c-0.4,0-0.8,0.2-1.2,0.4V10l-1.2,0.1V10h-0.1v0.1
			h-0.1c-0.2,0,0.1-0.2-0.1-0.1v0.1c-0.3,0-0.5-0.3-1-0.1v0.1c-0.1,0-0.2,0-0.3-0.1h-0.4v0.1h-0.1V10h-0.1l-0.1,0.3
			c-0.6,0.2-0.6-0.5-1.2,0.1c-0.2,0.2,0,0,0,0.3l-0.3,0.1l0.1,0.3h-0.3v0.1c0.2,0.1,0.2,0.4,0.3,0.4h0.3l0.1,0.3
			c0.2,0.1,0-0.1,0.1-0.1c0.3,0,0.5,0,0.7,0.1c-0.2,0.2,0,0.1-0.3,0.1v0.1l1-0.1c0.2,0,0.2,0.1,0.6,0.1V12h0.1c0,0.3,1,0.1,1.3,0.1
			v0.1h0.1v-0.1h0.4v0.1c0.2-0.1,0.5-0.1,0.7-0.1l0.9,0.1v-0.1h0.1v0.1h0.1c0,0,0-0.3,0.3-0.3v0.3l0.3-0.1c0.1,0,0.2,0,0.3,0.1h0.1
			v-0.1c0.2,0,0,0,0.1,0.1h0.1v-0.1l0.4,0.1c0.2-0.1-0.2-0.2,0.1-0.3l0.1,0.3l0.3-0.1v0.1l0.9,0.1v0.3l0.3-0.1h0.1v0.1h0.4l0.1,0.3
			c0.3,0.2,0.6,0,1,0.1v0.1l0.4,0.1v0.1l0.3-0.1v0.3c0.8,0.1,0.7,0.5,1.5,0.6v0.4h0.1V15l0.4-0.1l-0.1,0.3h0.3v0.3h0.3l0.1,0.7h0.3
			v0.3h0.3v0.1h-0.2v0.1c0.1,0.2,0.2,0.2,0.3,0.3l-0.1,0.3h0.3c0,0.2-0.1,0.4-0.1,0.6l0.1,0.1h-0.1v0.1h0.3l-0.1,0.3h0.1v0.1
			c-0.1,0.1-0.2,0.3-0.1,0.4h0.1c0.1,0.4-0.1,0.7-0.1,0.9h0.1c0,0.3-0.1,0.3-0.1,0.3c0,0.1,0,0.2,0.1,0.3v0.1h-0.1
			c0,0.1,0,0.2,0.1,0.3c-0.1,0.2-0.1,0.4-0.1,0.6h-0.3v0.3h-0.1c-0.2,0.2,0.3,0.1,0.3,0.1v0.1l-0.4,0.1c0.3,0.5-0.5,0.4-0.1,0.9v0.1
			l-0.3-0.1l-0.1,0.3l-0.4,0.3l0.1,0.3h-0.3c-0.3,0.1-0.3,0.3-0.4,0.6h-0.3l-0.1,0.4l-0.6,0.1v0.3c-0.3,0.1-0.3,0.1-0.3,0.1h-0.7
			v0.1l-0.6,0.1v0.1c-0.3,0.1-0.4-0.2-0.6-0.1l-0.1,0.3h-1.2c-0.1,0.1-0.2,0.2-0.3,0.3v-0.3h-0.3l-0.1,0.3c-0.2,0.1-0.2-0.3-0.3-0.3
			c-0.3-0.1-0.3,0.1-0.3,0.1l-1.5-0.1v0.1h-0.1v-0.1l-0.3,0.1v-0.3c-0.1,0-0.3,0.2-0.6,0.1c-0.3-0.1-1-0.2-1.3-0.3
			c0-0.3,0-0.4-0.1-0.6h-0.3c0.3-0.5,0.3-1.1,0.1-1.6c0-0.1-0.2,0-0.1-0.3h0.1v-0.1h-0.1v-0.4h-0.1c0-0.2,0.2-0.4,0.1-0.7h-0.1
			c-0.1-0.3,0.2-0.4,0.1-0.6l-0.3-0.1v-0.7h0.1v-0.1l-0.4-0.1v-0.4h0.1l-0.1-0.4l0.3-0.1l-0.3-0.6h0.3v-0.3h-0.4v0.1h-0.1l0.3-0.9
			h-0.1v-0.1h0.3c0-0.2,0.1-0.8-0.1-0.4c-0.2,0.1-0.2-0.2-0.1-0.3h0.1v-0.1l-0.4,0.1c0.1-0.3,0.2-0.5,0.3-0.7h-0.3
			c0-0.3,0.1-0.6,0.3-0.9h-0.3v-0.4h-0.1v-0.3l-0.4,0.3v-0.3h0.3c-0.2-0.2,0-0.7,0.1-1h-0.3v-0.3h-0.6v0.1H224c0,0,0.2,0.4,0.1,0.6
			l-0.3,0.1v0.4c-0.2,0.6,0,1,0,1.8c0,0-0.6,0-0.3,0.1h0.3c0,0.5,0.1,1.1,0.1,1.6h0.1c0,0.4-0.1,0.9-0.1,1.3l0.1,0.1h0.1l-0.1,0.4
			h0.3c-0.1,0.1-0.2,0.2-0.3,0.3v0.1h0.4l-0.3,0.4h0.1V21c-0.1,0.1-0.3,0.1-0.3,0.3l0.4,0.1c0.1,0.1-0.4,0.5-0.3,0.7h0.1v0.3h0.1
			v0.7h-0.1v0.1h0.1l-0.1,0.4h0.3c-0.1,0.6-0.1,0.6-0.1,1.2h0.3l-0.1,0.7c0.1,0.1,0.2,0.3,0.1,0.4l-0.3,0.1c-0.2,0.4,0.1,0.8,0.1,1
			l-0.7,0.1l-0.1,0.3l-0.4,0.1v0.3h-0.4c0,0.3,0.1,0.7,0.1,1h0.1v0.1c0.3,0.1,0.2-0.1,0.3-0.1h0.6c-0.2-0.2,0-0.1-0.3-0.1v-0.1h0.6
			v0.4c0.2,0.1,0.2,0.2,0.6,0.1c0.2,0-0.1-0.1,0.1-0.1v0.1l0.4,0.3c-0.1,0.1-0.2,0.2-0.3,0.3l0.1,0.9h0.1l-0.1,1.5h0.3l0.1,0.7h-0.1
			v0.6c0,0.2,0.2-0.1,0.1,0.1h-0.1v0.3h0.3v0.1h-0.1v0.4h0.1l-0.1,0.7l0.3,0.1c0.1,0.2-0.1,0-0.1,0.1l0.1,0.4H226v0.6h0.1
			c0.1,0.3-0.1,0.4-0.1,0.6l0.3,0.1c0,0.2-0.2,0.3-0.1,0.6c0,0,0.1,0,0.1,0.3H226c0.1,0.6,0.2,0.4,0.3,0.9H226
			c-0.1,0.1,0.1,0.1,0.1,0.1v0.4h0.1v0.7h0.1v1h0.1l0.1,0.7c0.4,0,0.5,0.1,0.7,0.3h0.7c-0.2-0.2,0-0.1-0.3-0.1v-0.1l0.4,0.1
			c0.1-0.5,0.5-0.6,0.6-1.2h-0.3v-0.1h0.1l0.1-0.6c-0.4-0.2-0.1-0.5-0.3-1.2c0,0-0.2,0-0.1-0.3h0.1V39h-0.1v-0.3h-0.1l0.1-0.6
			l-0.3-0.1c-0.1-0.2,0.1,0,0.1-0.1c0-0.1,0-0.2-0.1-0.3v-0.1h0.1c0-0.3-0.1-0.3-0.1-0.3l0.1-0.7h-0.3v-0.1h0.1l-0.1-0.3
			c0.1-0.1,0.2-0.3,0.1-0.4h-0.1v-0.1l0.1-0.7h-0.1v-1.2l-0.3,0.1l0.1-1.3h-0.1v-0.1h0.1v-0.4h-0.3v-0.3h0.1c0-0.1,0-0.2-0.1-0.3
			c-0.1-0.3,0.1-0.4,0.1-0.6l-0.4-0.1c0.1-0.3,0.2-0.7,0.3-1h-0.1l-0.1-0.6h0.4V29h0.1l0.1-0.3c0.6-0.2,0.9,0.4,1.3,0.1h0.6
			l-0.1-0.3L231,29v-0.3c0.2,0.1,0.5,0.1,0.7,0.1v0.3l0.4-0.1v0.1h0.7l-0.1,0.3l0.7-0.1v0.1l1.5,0.3v0.3l0.7-0.1v0.3l0.4-0.1
			l0.3,0.4l0.4-0.1l0.1,0.3h0.3c0.1,0.1,0.1,0.3,0.3,0.3v-0.1h0.1v0.4h0.4c0.1,0.4,0,0.3,0.4,0.4c0.1,0.4,0,0.3,0.4,0.4
			c0.1,0.5,0.3,0.4,0.4,0.9l0.6,0.1c0.2,0.5,0.5,0.7,0.6,1.3h0.3c0.1,0.2,0.2,0.4,0.3,0.6h0.1l-0.1,0.4l0.3,0.1V36h0.3v0.1h-0.3
			l0.3,0.9h0.1l-0.1,0.4l0.3,0.1L242,38h0.1l-0.1,0.4h0.3l-0.1,0.1v0.3h-0.3c0.1,0.1,0.2,0.2,0.3,0.3c-0.1,0.1-0.2,0.2-0.3,0.3
			l0.1,0.4h-0.3c-0.2,0.3,0,0.2,0,0.6h-0.3l0.1,0.3l-0.4,0.3v0.3l-0.3,0.1v0.3l-0.4,0.3l-0.1,0.7h-0.1l-0.1,0.3
			c-0.2,0.1-0.4-0.1-0.6,0.1l0.1,0.4c-0.1,0.2-0.4,0-0.6,0.1l-0.1,0.4l-0.3-0.1l-0.1,0.4l0.1,0.1h-0.1v0.1l-0.3-0.1
			c-0.1,0.2-0.1,0.4-0.1,0.6c-0.2,0-0.4,0-0.6,0.1v0.1l-0.3-0.1l-0.1,0.3h-0.3v0.1l-0.9,0.1v0.1l-0.6-0.1v0.1l-0.9,0.1v-0.1h-0.4
			v-0.1h0.1v-0.1c-0.1,0-0.2,0-0.3,0.1c0,0,0,0,0,0h-0.1v-0.1h-0.7l-0.1-0.3h-0.3v-0.1l-1-0.1v0.1h-0.1c-0.1-0.1-0.1-0.2-0.3-0.3
			v0.1h-0.1c-0.2-0.1,0.1-0.1-0.1-0.3c-0.2,0.2,0.1,0.1-0.1,0.3v-0.3c-0.3-0.1-0.1,0-0.3-0.1H229l0.1-0.3c-0.6-0.2-0.9-0.2-1.2-0.7
			c-0.5,0.1-0.5,0-0.6,0.4c-0.3,0.1-0.1,0-0.3,0.1h-0.3v-0.1c0.2-0.1,0.3-0.2,0.4-0.3h0.1v-0.1l-0.4-0.1c-0.1,0.3-0.2,0.2-0.3,0.6
			h-0.4l-0.1,0.4h0.1l0.1,0.9h0.3v0.4c0.2,0.1,0.4,0.1,0.6,0.1v0.1h0.4l0.1,0.3l0.3-0.1l0.3,0.4l0.6-0.1l0.1,0.3
			c0.1,0,0.3-0.2,0.6-0.1l0.4,0.1l0.1,0.4l0.9-0.1v0.4h0.9c0,0,0,0.2,0.3,0.1l0.1-0.1V48c0.3,0.2,0.6,0.2,0.9,0v0.3l1.2,0.1
			c0.2,0-0.1-0.2,0.1-0.1v0.1h0.1l0.3-0.1c0,0.1,0.2,0.2,0.3,0.1v-0.1h0.7v-0.1h0.1v0.1h0.1l0.1-0.3l1-0.1l0.1-0.3h0.7
			c0.1-0.3,0-0.1,0.1-0.3v-0.1l0.3,0.1V47h0.4v-0.3h0.3l0.1-0.4l0.6-0.1c0.1-0.4,0.3-0.4,0.3-0.4l-0.1-0.4l0.6-0.4v-0.1h0.3l0.3-0.6
			h0.3l0.1-0.4h0.1c0.3-0.5-0.2-0.4,0.4-0.6c0.1-0.6,0.2-0.4,0.3-0.9h0.3c0.1-1.3,0.8-1.2,0.9-2.3c-0.3-0.1-0.1,0-0.3-0.1h0.3
			l0.1-0.7h-0.1v-0.1h0.1l0.1-0.4h-0.3v-0.7c0-0.2-0.1,0.1-0.1-0.1h0.1v-0.7h-0.1v-0.4l-0.3-0.1v-0.7h-0.1l-0.1-0.7h-0.1l-0.1-0.6
			h-0.1l0.1-0.3c-0.4-0.4-0.5,0-0.6-0.9c-0.8-0.2-0.3-0.3-0.6-0.7h-0.1c-0.2-0.2-0.3-0.4-0.3-0.6c-0.4-0.1-0.3,0-0.4-0.4h-0.3v-0.3
			c-0.4-0.1-0.3-0.2-0.7-0.3c-0.1-0.4-0.4-0.8-0.9-0.9v-0.3h-0.1c-0.1,0.2,0.1,0.1-0.1,0.1l0.1-0.3h-0.4v-0.3h-0.6v-0.3
			c-0.8,0-0.6,0-1-0.3v-0.1l-0.4,0.1V28l-0.7-0.1c0.1-0.3,0-0.1,0.1-0.3v-0.1l0.9-0.1v-0.1h0.4V27c0.3-0.2,0.3-0.3,0.7-0.4
			c-0.1-0.3,0-0.1-0.1-0.3v-0.1l0.4,0.1c0.1-0.4,0.1,0,0-0.4l0.6-0.1v-0.4c0.4-0.1,0.3,0,0.4-0.4h0.3l-0.1-0.4h0.3v-0.3h0.4v-0.3
			h0.1c-0.1-0.2-0.1-0.4-0.1-0.6c0.3-0.1,0.1,0,0.3-0.1h0.1v-0.4l0.3-0.1l0.1-1.3h0.1c0.1-0.2,0-0.3-0.1-0.4l0.1-0.4
			c0,0-0.2-0.1-0.1-0.3h0.1v-0.6l-0.1-0.4h0.1v-0.4h0.1c0-0.2-0.4-0.1-0.4-0.4h0.1l-0.1-0.9h-0.1v-0.7c0,0-0.2-0.1-0.3-0.3h0.1v-0.3
			h-0.4l0.1-0.4h-0.1v-0.3H240v-0.6h-0.3c0-0.4-0.3-0.7-0.7-0.7v-0.6l-0.7-0.1c-0.1-0.3,0-0.1-0.1-0.3v-0.1l-0.3,0.1v-0.1
			c-0.2-0.2-0.2-0.1-0.3-0.4c-0.4-0.2-0.8-0.3-1.2-0.3l-0.1-0.4c-0.3-0.1-0.7-0.1-1-0.1V11h-0.6v-0.1h-0.1V11h-0.3l-0.1-0.4
			l-0.4,0.1l-0.1-0.3l-0.3,0.1l-0.1-0.3h-0.7V10h-0.4v0.1l-0.6,0.1L231,10C230.7,9.8,230.4,10.1,230.3,10.1z M224,16.1
			c0.3,0.1,0.1,0,0.3,0.1C224,16.2,224.1,16.3,224,16.1z M224.3,14.8h-0.1v-0.3h0.1V14.8z M230.4,47.3c0.3,0.1,0.1,0,0.3,0.1
			C230.4,47.3,230.6,47.4,230.4,47.3L230.4,47.3z"/>
		<path id="パス_313" class="st1" d="M139.7,12.6v0.1l-0.3-0.1l-0.4,0.1v-0.1h-1v-0.1l-2.2,0.1v0.1c-0.4,0.1-0.3-0.3-0.4-0.3
			c-0.2-0.1,0,0-0.1,0.1l-0.7-0.1v0.3l-0.7-0.1v-0.1c-0.2-0.1-0.3,0.1-0.3,0.1c-0.3,0.1-0.6-0.2-0.7-0.1v0.1h-0.6v0.1
			c-0.2,0-0.3,0-0.4-0.1c-0.4-0.1-0.4,0.1-0.4,0.1h-0.6v-0.1l-0.4,0.1v-0.3c-0.3,0.1-0.3,0.1-0.3,0.1h-1v0.1h-0.3v0.1
			c-0.3,0.1-0.4-0.2-0.6-0.1v0.1h-1.6V13h-0.7v0.1h-0.3v0.3l-0.7,0.1c-0.1,0.4-0.1,0.8,0,1.2c0.4,0.1,0.8,0.2,1.2,0.3v-0.3h0.3v0.3
			c0,0,0.6,0,0.3-0.1h-0.1v-0.1c0.6,0.2,0.2,0.1,0.4,0.4c0.2-0.2,0.5-0.2,0.7-0.1v0.1h0.1V15l0.4,0.3v-0.1h0.1
			c-0.2,0.4-0.2,0.9-0.1,1.3c0.1,0.1,0.2,0.3,0.1,0.4h-0.1v0.4h-0.1v0.1h0.1l-0.1,1c0,0.1,0.3,0,0.3,0.4h-0.1l0.1,0.3h-0.1v0.3h-0.1
			v0.4h-0.1c0,0,0.1,1.2,0.1,1.3h0.1l-0.1,0.7h-0.1c0,0.1,0,0.2,0.1,0.3l-0.1,0.6h0.1c0,0.2-0.3,0.3-0.1,0.6l0.3,0.1
			c-0.2,0.2,0,0.1-0.3,0.1c0.1,0.2,0.2,0.2,0.3,0.3c-0.1,0.2-0.1,0.4-0.1,0.6c-0.3,0.1-0.1,0-0.3,0.1h-0.1v0.6h-0.1
			c0,0.6,0.1,0.8,0.6,0.9c0.1,0.6,0.1,0.6,0.1,1.2c-0.1,0-0.4-0.1-0.3,0.1h0.1v0.1h-0.1V28h0.1c0-0.2,0.1-0.2,0.3-0.1V28h-0.3
			l0.1,0.9h-0.1v0.1h0.1v0.1c-0.1,0.1-0.1,0.2-0.1,0.3l0.1,0.3l-0.3,0.1v0.1h0.1V31h0.3c-0.1,0.4-0.2,0.3-0.3,0.7h0.3
			c-0.2,0.6,0,1.3-0.4,1.6c0.2,0.2,0,0.1,0.3,0.1l-0.1,1.5h0.3c0,0.1-0.2,1.2-0.1,1.2l0.3,0.1c-0.1,0.1-0.2,0.1-0.3,0.3h0.1v0.1
			h-0.1c0.1,0.2,0.1,0.2,0.3,0.3v0.1l-0.7,0.1v0.1l-0.4-0.1v0.1l-0.3-0.1v0.3c-0.3-0.1-0.3,0-0.9,0c-0.1,0.2-0.2,0.4-0.3,0.6h-0.1
			l0.1,0.9c0.7,0.1,0.8,0.5,1.2,0h0.1v0.4c0.6-0.1,0.4-0.2,0.9-0.3v0.3l0.4,0.1c0.2-0.1-0.1-0.2,0.1-0.1l0.1,0.3
			c0.3,0.2,0.7,0.3,1,0.4c0.2-0.3,0.5-0.3,0.7-0.6h0.1v-0.4c0.6-0.1,0.4-0.1,0.9,0v-0.3l0.4,0.1c0.1-0.1,0-0.2,0.3-0.1
			c0,0,0,0.3,0.3,0.3l0.3-0.4l0.7,0.1v-0.1h0.3v-0.1l0.9,0.1c0.2,0-0.1-0.1,0.1-0.1c0.1,0.1,0,0.2,0.3,0.1v-0.1h0.7
			c0,0,0-0.2,0.3-0.1v0.1c0.1,0,0.2,0,0.3-0.1l0.4,0.1v-0.1c0.2,0,0.2,0.2,0.6,0.1v-0.1h0.4v-0.1l0.9,0.1l0.3-0.1v0.1l0.4-0.1
			c0.2,0.1,0.1,0.4,0.4,0.3l0.1-0.3c0.3,0.1,0.6,0.2,0.9,0.1v-0.1h0.9v-0.1c0.2,0,0.3,0,0.4,0.1c0.1,0,0.2,0,0.3-0.1l0.4,0.1v-0.1
			h0.1v0.1h0.4v-0.1h0.4V38c0.4-0.1,0.3,0.3,0.4,0.3c0.2,0.1,0,0,0.1-0.1c0.3,0,0.3,0.1,0.3,0.1h0.7c0.1-0.3,0-0.1,0.1-0.3v-0.1
			c0.4-0.1,0.4,0.3,0.4,0.3h0.4v-0.3h0.1c0,0,0.1,0.2,0.3,0.1c0,0,0-0.2,0.3-0.1V38h0.1v-0.1c0.2-0.2,0.5-0.3,0.7-0.3l0.1-0.7h-0.1
			v-0.7h-0.4l-0.1-0.4l-0.9,0.1v-0.1h-0.1v0.1l-0.9,0.1v-0.3l-1,0.3h-0.3v0.3h-0.1V36h-0.1c-0.1,0.2-0.3,0.1-0.6,0.1
			c-0.7,0-1.5,0-2.2-0.1v0.3l-0.6-0.1l-0.1,0.3l-0.4-0.3v0.1l-2.5,0.1v-0.3l-0.4,0.1v0.1c-0.6,0.1-1.1-0.5-1.6,0.1h-0.1l0.1-0.3
			c-0.5,0.1-1.1,0.3-1.6,0.4v-0.3c-0.3,0.1-0.3,0.1-0.3,0.1h-0.7l-0.1,0.3l-1-0.1v0.1l-0.3-0.1c-0.3,0-0.3,0.1-0.3,0.1h-0.9
			l-0.1-0.7H130l0.1-0.3H130v-0.1c0,0,0.2,0,0.1-0.3l-0.1-0.3c0-0.2,0.2,0.1,0.1-0.1H130l0.1-1l-0.3-0.1v-0.3h0.1v-1l0.3-0.1
			c0-0.2-0.3-0.2-0.3-0.3c0-0.2,0.2-0.4,0.1-0.7H130v-0.6h0.1v-0.1c0-0.2-0.2,0.1-0.1-0.1s0.2,0.1,0.1-0.1h-0.3
			c0-0.1,0.3-0.3,0.1-0.6h-0.1v-0.1h0.4v-0.4h-0.4l0.4-0.6H130c0-0.2,0.1-0.4,0.1-0.6H130v-0.7c0,0,0.2,0,0.1-0.3l-0.3-0.1v-0.3
			l0.6-0.1v-0.1c0.2-0.1,0.3,0.1,0.3,0.1h0.1v-0.1h0.4V26c0.5-0.2,1,0.2,1.3,0.1c0,0,0.4-0.5,0.6-0.4V26l0.4-0.1V26
			c0.3,0.1,0.5,0,0.7-0.1v-0.1h1v-0.1h0.1l0.1,0.3c0.4-0.1,0.1-0.1,0.4,0v-0.3l0.4-0.1v0.1h0.3v0.1h0.1v-0.1h1.3v-0.1h0.3v0.1
			c0,0,0.6,0,0.3-0.1h-0.1v-0.1l0.6,0.1c0.2,0-0.1-0.2,0.1-0.1v0.1h0.1v-0.1l1.2,0.1v-0.1h0.3v-0.1l0.7,0.1v-0.1h0.9v-0.1h1.6v0.1
			c0.6,0.1,0.4-0.3,0.9-0.3l0.4,0.1v-0.1h0.3v-0.1l0.4-0.1v-0.3h0.3c0.1-0.3,0.1-0.7,0.1-1c-0.6-0.1-0.6-0.3-1.2-0.4v-0.1l-0.4,0.1
			l-3.4,0.1V23l-1-0.1c0,0-0.1,0.2-0.4,0.1c-0.2,0,0.1-0.2-0.1-0.1V23H140v0.1l-0.4-0.1l-0.1,0.3h-0.6v-0.1h-0.6v0.1h-1.2v0.1h-0.7
			v0.1h-0.1c-0.1-0.1-0.1-0.2-0.3-0.3v0.3l-1.6-0.1v0.1h-0.6v0.1h-0.9v-0.1h-0.1c0,0,0.1,0.1-0.1,0.3v-0.3c-0.4,0.1-0.4,0.3-0.4,0.3
			c-0.5,0.2-1.1-0.2-1.5,0.1h-0.7c0.2-0.3,0.2,0,0.3-0.1l-0.1-0.4h-0.1c-0.2-0.5,0.2-0.8,0.3-1h-0.3L130,22c-0.1,0-0.2-0.2-0.1-0.3
			h0.1v-0.1c-0.1-0.1-0.4,0.1-0.3-0.1h0.1c0.1-0.2,0.1-0.5,0.1-0.7h-0.3l-0.1-0.4l0.3-0.1l0.1-0.9h-0.1l-0.1-0.3h0.3
			c-0.1-0.3-0.2-0.7-0.1-1c0-0.2,0.2,0.1,0.1-0.1s-0.1,0.1-0.1-0.1l0.1-0.3h-0.1c-0.1-0.4,0.1-0.4,0.1-0.4c0.1-0.5,0-1.1-0.1-1.6
			h0.3V15c0.4-0.1,0.8-0.2,1.2-0.1c0,0,0,0.1,0.3,0.1l0.7-0.1V15c0.1,0,0.6,0.1,0.4-0.1h-0.1v-0.1h0.6v0.1h0.1v-0.1h0.4v0.3l0.4-0.1
			v-0.1h0.1v0.1c0.3,0.1,0.5-0.2,0.6-0.1v0.1l0.4,0.1v-0.1c0.1,0,0.6,0.1,0.4-0.1h-0.1v-0.1c0.2,0.1,0.4,0.1,0.6,0.1
			c0.1,0,0.1,0.3,0.3,0.3v-0.1h0.3v-0.1c0.5-0.1,1-0.1,1.5,0.1c0.1,0,0.6,0.1,0.4-0.1h-0.1v-0.1c0.5,0.3,1.1,0.4,1.6,0.1v0.3
			l0.7-0.1v-0.1l0.4,0.1v-0.1h0.3v-0.1l0.6,0.3v-0.1l0.4-0.1v0.3h0.1l0.1-0.3c0.3-0.1,0.4,0.2,0.6,0.1l0.1-0.3l0.6-0.1
			c0-0.2,0.1-0.4,0.1-0.6l-0.3-0.1v-0.1h0.1v-0.7c0,0-0.6,0-0.3,0.1h0.1v0.1c-0.7-0.4-0.1-0.4-1-0.3v-0.3l-0.9,0.1v0.1
			c-0.2,0-0.4-0.2-0.7-0.1v0.1h-0.4v0.1H141v-0.1L139.7,12.6z"/>
		<path id="パス_314" class="st1" d="M174.3,14.1v-0.1h-0.3C174.2,14.1,174.1,14,174.3,14.1z"/>
		<ellipse id="楕円形_46" class="st1" cx="224.2" cy="14.7" rx="0.1" ry="0.2"/>
		<path id="パス_315" class="st1" d="M136.2,15v-0.1h-0.3C136,15,135.9,14.9,136.2,15z"/>
		<path id="パス_316" class="st1" d="M224,16.1c0.2,0.2,0,0.1,0.3,0.1C224.1,16.1,224.3,16.2,224,16.1z"/>
		<path id="パス_317" class="st1" d="M72.4,46.8h0.1l-0.1-0.6h0.1v-0.1l-0.4,0.1L72,45.9h0.1v-0.1c-0.1-0.1-0.2,0-0.3-0.4
			c-0.2,0.1-0.2,0.3-0.3,0.3c-0.2,0-0.2-0.2-0.6-0.1c-0.2,0,0.1,0.2-0.1,0.1s0.1-0.2-0.1-0.1v0.1h-0.1v-0.1l-1.5,0.1l-0.1-0.3
			l-0.4,0.3l-0.1-0.3l-0.4,0.1v0.1L67,45.5v0.1h-0.3v0.1h-0.1v-0.1H66l-0.1-0.3l-0.6,0.1v0.1c-0.1,0-0.4-0.3-0.7-0.1v0.1h-0.4
			c0.2-0.2,0-0.1,0.3-0.1v-0.1c-0.6,0-0.8,0.1-1,0.4h-0.1v-0.4h-0.3v0.3h-0.1v-0.1l-0.4,0.1v-0.1h-0.1v0.1l-0.4,0.1l-0.1-0.3
			c-0.3-0.2-0.8-0.1-1,0.2c0,0,0,0,0,0.1h-0.1l0.1-0.3c-0.3,0-0.5,0.2-0.6,0.1v-0.1h-1.2c-0.1,0.2-0.3,0.3-0.4,0.4v-0.3h-0.6
			l-0.1,0.3l-0.7-0.1v0.1l-0.6-0.1h-0.1v0.1c-0.2,0-0.3,0-0.4-0.1l-1.3,0.1v0.3c-0.4-0.1-0.1-0.1-0.6,0v-0.3c-0.3,0-0.6,0-0.9,0.1
			v0.1c-0.3,0-0.2-0.3-0.3-0.3L52,46.2v-0.3l-0.6,0.1v0.1c-0.2,0.1-0.3-0.1-0.3-0.1c-0.5-0.1-1,0-1.5,0.1c-0.1,0-0.6,0.1-0.4-0.1
			c0.1-0.2,0.2,0.1,0.1-0.1h-0.3v0.1c-0.2,0.1,0,0-0.1-0.1h-0.1v0.1h-0.4v0.1h-0.4l0.1-0.3h-0.3c-0.3-0.2-0.1-0.5,0-0.7h-0.3
			c0-0.3,0-0.6-0.1-0.9h0.1v-0.1h-0.3l0.1-0.4h-0.1v-0.3H47v-0.7h-0.1v-0.1c0.2-0.1,0.2-0.3,0.1-0.4h-0.1v-0.7l-0.3,0.1
			c0.1-0.7,0.2-0.5-0.1-1h0.3c0-0.2-0.1-0.4-0.1-0.6h0.1v-0.3h-0.3v-0.3c-0.1-0.1-0.4,0-0.3-0.4h0.1l0.1-0.4c0-0.1-0.3-0.1-0.3-0.3
			l0.3-0.1c0.1-0.4-0.2-0.3-0.3-0.4c-0.1-0.4,0-0.8,0.1-1.2H46c0-0.2,0.1-0.4,0.1-0.6H46v-0.1h0.1v-0.1H46v-0.3
			c-0.1-0.1-0.3-0.1-0.3-0.3H46c-0.1-0.4-0.7-0.4,0-0.9v-0.1h-0.4v-0.1h0.1c-0.2-0.5-0.1-0.5,0-1l0.7-0.1v0.3l0.9-0.1v-0.1h0.1v0.1
			h1.6v-0.1h0.1v0.1h0.1v-0.1H50v0.1l0.6-0.1c0.2,0-0.1,0.2,0.1,0.1v-0.1c0.7-0.1,1.5,0.5,2.3,0.3v-0.1c0.2,0,0.5,0.2,0.9,0.1v-0.1
			h0.1v0.1h1.8v-0.1h0.3v0.1l0.1-0.1h0.1v0.1c0.1,0,0.2,0,0.3-0.1c0.3,0,0.3,0.1,0.3,0.1h0.9v-0.3h0.3V33l0.4-0.1v-0.1h0.1v0.1h0.4
			v-0.1l0.3,0.1v-0.1l2.1,0.1c0,0,0-0.3,0.3-0.3l0.1,0.3l0.4-0.1c0.1,0.1,0.2,0.1,0.3,0.1v-0.1h0.1v0.1h0.9V33h0.1v-0.1h0.1V33h0.1
			v-0.1l0.4,0.1l0.1-0.3H65L64.8,33l2.8-0.3c0.1-0.3,0.1-0.4,0.3-0.6V32h-0.4v-1.2c-0.2,0-0.4,0.1-0.6,0.1c-0.1-0.1,0.2-0.4-0.1-0.3
			c-0.1,0-0.1,0.3-0.3,0.3v-0.1H66v-0.1l-1,0.1c-0.2-0.6-0.6,0.2-1.5,0v-0.1l-0.3,0.1v-0.1h-0.1v0.1h-0.2v-0.1h-0.1
			c-0.1,0.1-0.3,0.2-0.4,0.1v-0.1L62,30.8v-0.1h-0.4v-0.1h-0.3v-0.1l-0.1,0.1h-0.6v0.1l-0.4-0.1v0.1h-1v-0.1l-1.6,0.3v-0.3l-1.3,0.3
			v-0.1h-0.6v-0.1c-0.2-0.1-0.3,0-0.4,0.1c-0.3,0.1-0.6-0.2-0.7-0.1v0.1h-0.3v0.1c-0.3,0-0.2-0.4-0.7-0.3v0.1
			c-0.8,0.2-1.2-0.3-1.8,0.1h-0.1l0.1-0.3h-0.3v-0.1l-1.5,0.1v0.1h-0.7l0.1-0.3h-0.7v0.3h-0.4l-0.1-0.3l-0.7,0.1
			c-0.2,0,0.1-0.2-0.1-0.1v0.1h-0.3v0.1h-0.3v0.1c-0.1,0-0.6-0.3-0.9-0.1v0.1h-0.1v-0.4h-0.1l-0.1-0.6H45v-0.4l-0.3-0.1V29h0.1v-1
			h-0.1l0.1-0.6h-0.1v-0.3h-0.1l0.1-0.3h-0.1v-0.4h-0.3v-0.1h0.1c0.1-0.3,0.2-0.3,0-0.7h-0.1l0.1-0.6h-0.1v-0.3h-0.1v-0.6H44v-0.1
			c0.1,0,0.2-0.2,0.2-0.3c0,0,0,0,0,0H44v-0.3h-0.1l0.1-0.1l-0.1-0.7c-0.3-0.1-0.1,0-0.3-0.1h0.3l0.1-0.6h0.1v-0.1h-0.3
			c0.1-0.2,0.2-0.1,0-0.3v-0.4H44c0.1-0.2,0,0,0.1-0.1V21l0.9-0.1c0.1,0.1,0.3,0.2,0.4,0.1c0.2,0-0.1-0.2,0.1-0.1V21h0.6v0.3
			c0.3-0.4,0.8,0.1,1.3,0v-0.1c0.3,0,0.6,0.4,1,0.3v-0.1h0.1v0.3c0.2-0.1,0.3-0.2,0.6-0.1v0.1h0.1c0-0.1,0.2-0.2,0.3-0.1
			c0,0,0,0.2,0.3,0.1v-0.1h0.4v-0.3c0.1-0.1,0.3,0.4,0.3,0.4c0.4,0.1,0.3-0.2,0.4-0.3h0.3v0.3h0.1c0-0.2,0.4-0.2,0.6-0.1v0.1h0.3
			v0.1h0.1v-0.1h0.7v-0.1l1.5,0.1c0.1,0.3,0,0.1,0.1,0.3v-0.3h0.7v0.1c0.2,0-0.1-0.1,0.1-0.1c0.1,0,0.2,0,0.3,0.1l0.6-0.1v0.3
			l1.3-0.1v-0.1c0.2,0,0.1,0.2,0.3,0.3v-0.1l0.4,0.1v-0.1h0.3v-0.1h0.1v0.1h0.6V22c0.2-0.6,1,0.1,1.6-0.1l0.1-0.3h0.3L62,21h0.1
			L62,20.5h-0.4c0.1-0.1,0.2-0.1,0.3-0.3c-0.2-0.1-0.2-0.2-0.3-0.3l-0.3,0.1l-0.1-0.4c-0.4-0.2-0.7,0.2-1,0.1v-0.1h-0.6
			c-0.1-0.1-0.2-0.2-0.3-0.3v0.3h-0.7l0.1-0.3h-0.4v0.1h-1.6v0.1c-0.2-0.1-0.5-0.1-0.7-0.1l-0.3,0.1l-0.1-0.3L55,19.5
			c-0.1-0.1-0.2-0.2-0.3-0.1v0.1c-0.4,0.1-0.4-0.1-0.4-0.1h-1.5v-0.1h-0.9v-0.1c-0.4-0.1-0.3,0.3-0.4,0.3l-0.9-0.1v0.1h-0.4v-0.1
			l-0.6,0.1c0,0-0.1-0.6-0.1-0.3v0.1h-0.6v0.1h-0.1l-0.1-0.3l-0.3,0.1v-0.1h-0.1c-0.1,0.1-0.3,0.2-0.4,0.1v-0.1
			c-0.3-0.1-0.2,0.1-0.3,0.1h-0.1v-0.3l-0.4,0.1v-0.1h-0.3v-0.1L46,18.9v-0.1h-0.4v0.1l-0.3-0.1v0.1h-0.1v-0.1h-0.3v-0.1l-0.1,0.1
			l-0.4-0.1v0.1h-0.1v-0.1H44v0.1h-0.1v-0.1h-0.1v0.1c-0.3,0-0.6,0-0.9-0.1v0.3h-0.6c0.2,0.2,0,0.1,0.3,0.1v0.1h-0.3
			c-0.4,0.4,0.1,0.4,0.1,0.6v0.3h0.3v0.1h0.1v-0.1l0.4,0.1l-0.1,0.4l0.1,0.1L42.5,21v0.1c0.1,0.1,0.2-0.1,0.1,0.1h-0.1v0.1h-0.4
			c0,0.2,0.1,0.4,0.1,0.6h-0.1v0.3h-0.3l0.1,0.4h-0.1V23c0.3,0.1,0.1,0,0.3,0.1h-0.1c0.1,0.2,0.2,0.4,0.1,0.6h-0.1v0.1h0.1v0.1
			l-0.3,0.1c-0.1,0.2,0.2,0.6,0.3,0.7h0.1l-0.1,0.9h0.3c-0.1,0.3,0,0.3-0.3,0.4v0.1h0.4L42.2,27h0.3v0.1c0,0-0.2,0-0.1,0.3h0.1
			l-0.1,0.4h0.1v0.7h0.1c0.1,0.1,0.3,0.6,0.1,0.9h-0.1v0.1h0.4c-0.1,0.2-0.2,0.5-0.1,0.7h0.1c0.1,0.2-0.1,0-0.1,0.1
			c0,0.2,0.1,0.2,0.3,0.3c-0.3,0.3-0.7,0.3-0.9,0.4c-0.4,0.3-0.3,0.7-0.4,1c0.5,0.2,1,0.4,1.5,0.6c0,0.1-0.1,0.6,0.1,0.4v-0.1h0.1
			l-0.1,0.4h-0.1v0.1h0.1c0.2,0.5,0.2,0.3-0.1,0.6v0.1h0.4c-0.1,0.2-0.2,0.5-0.1,0.7H44l-0.1,0.4h-0.1c0,0.3,0.3,0.3,0.3,0.3v0.1
			h-0.1c-0.1,0.4,0.1,0.4,0.1,0.4L43.8,37h0.3L44,37.6c0.1,0,0.2,0.2,0.1,0.3H44V38l0.3,0.1c0.1,0.2,0,0.4-0.1,0.4l0.1,0.1
			c0,0.3-0.1,0.3-0.1,0.3l0.1,0.4h-0.1v0.2l0.4,0.1c0,0.4-0.1,0.4-0.1,0.6c0,0.1,0.2,0,0.1,0.4c0,0.2-0.1-0.1-0.1,0.1h0.1l0.1,0.7
			c-0.4,0.2-0.2,0-0.1,0.4h0.3L44.7,43l0.3,0.1l-0.1,0.7H45c0.1,0.2,0.1,0.2,0.3,0.3c-0.2,0.2,0,0.1-0.3,0.1
			c0.3,0.6,0.6,1.2,0.7,1.8h-0.3v0.1h-0.1v-0.1l-0.9,0.1l-0.1-0.1c-0.1,0.4-0.1,0,0,0.4l-0.4,0.1c0,0.3,0,0.7-0.1,1
			c0.2,0.1,0.3,0.3,0.4,0.4l1.3,0.1c0,0,0-0.2,0.3-0.1v0.1l0.7,0.1v0.9h0.4c-0.3,0.7-0.2,0.3-0.1,1h0.4v0.1h0.1v0.4
			c0.1,0,0.6-0.1,0.4,0.1c-0.1,0.2-0.2-0.1-0.1,0.1l1.5-0.1c-0.2-0.2,0-0.1-0.3-0.1v-0.1h0.4v-0.1h-0.1c0.2-0.3,0.2-0.7,0.1-1
			c-0.2-0.4-0.4-0.8-0.7-1.2v-0.3h0.1v0.3l0.4-0.1v-0.1c0.2,0,0.4,0.2,0.7,0.1c0,0,0-0.2,0.3-0.1l0.1,0.3h0.4v-0.3l0.9,0.1v-0.1h0.1
			v0.1h0.6c0.1-0.1,0.2-0.2,0.3-0.3l0.1,0.4c0.2,0.1,0.1-0.1,0.1-0.1l1.9-0.1v0.1h0.6v-0.1l0.4,0.1L56,48l0.7,0.1V48
			c0.2,0,0.3,0.1,0.3,0.1l1-0.1v-0.3h0.4V48l1.5-0.1l0.3,0.1v-0.1h0.6v-0.1h0.9v0.1l0.4-0.1h0.4v0.1h0.1v-0.1l0.3,0.1v-0.1h0.6v-0.1
			c0.6-0.1,0.4,0.4,0.9,0.3v-0.1c0.3,0,0.6,0,0.9,0.1v-0.1h0.7v-0.1h0.1v0.3c0.2-0.1,0.3-0.1,0.6-0.1v-0.1c0.3,0,0.4,0.4,0.7,0.3
			v-0.1l1.2,0.1v-0.1h1v-0.1c0.3,0.1,0.6,0.2,0.9,0.1v-0.1c0.2,0,0.2,0.2,0.6,0.1v-0.1h0.1v0.1c0.5,0,0.9-0.2,1.2-0.6l0.1-0.1h-0.3
			L72.4,46.8z M59.1,45.8c0.3,0.1,0.1,0,0.3,0.1C59.1,45.8,59.3,46,59.1,45.8L59.1,45.8z"/>
		<path id="パス_318" class="st1" d="M127.8,18.8c0.2-0.1,0,0,0.1-0.1h-0.3c0.1,0.3,0,0.1,0.1,0.3V18.8z"/>
		<path id="パス_319" class="st1" d="M60.3,19.5v-0.1H60C60.1,19.5,60,19.4,60.3,19.5z"/>
		<path id="パス_320" class="st1" d="M61.6,19.6v0.3h0.1C61.6,19.6,61.7,19.8,61.6,19.6z"/>
		<path id="パス_321" class="st1" d="M205.5,21.4h-0.3c0.1,0.3,0,0.1,0.1,0.3v-0.1C205.5,21.4,205.3,21.6,205.5,21.4z"/>
		<ellipse id="楕円形_47" class="st1" cx="205.5" cy="24" rx="0.5" ry="0.1"/>
		<path id="パス_322" class="st1" d="M127.9,31.2v-0.1h-0.3C127.8,31.3,127.7,31.2,127.9,31.2z"/>
		<path id="パス_323" class="st1" d="M67.7,31.8h0.1c-0.1-0.3,0-0.1-0.1-0.3V31.8z"/>
		<path id="パス_324" class="st1" d="M106.2,32h0.1c-0.1-0.3,0-0.1-0.1-0.3V32z"/>
		<path id="パス_325" class="st1" d="M106.2,41.8v0.3h0.1C106.3,41.8,106.4,42,106.2,41.8z"/>
		<path id="パス_326" class="st1" d="M59.1,45.8c0.2,0.2,0,0.1,0.3,0.1C59.2,45.8,59.4,45.9,59.1,45.8z"/>
	</g>
</g>
</svg>
