<?xml version="1.0" encoding="utf-8"?>
<!-- Generator: Adobe Illustrator 24.2.0, SVG Export Plug-In . SVG Version: 6.00 Build 0)  -->
<svg version="1.1" id="レイヤー_1" xmlns="http://www.w3.org/2000/svg" xmlns:xlink="http://www.w3.org/1999/xlink" x="0px"
	 y="0px" viewBox="0 0 172 82" style="enable-background:new 0 0 172 82;" xml:space="preserve">
<style type="text/css">
	.st0{fill:#FFFFFF;stroke:#FFFFFF;stroke-width:2;}
	.st1{fill:#FFFFFF;}
</style>
<g id="グループ_528" transform="translate(15.104 1.433)">
	<g id="グループ_532" transform="translate(-12.975)">
		<path id="パス_342" class="st0" d="M65.5,25.3l-1.1-0.2V25c-0.2,0-0.3,0.3-0.7,0.2V25h-0.4v-0.2l-1.8-0.2v-0.2h-0.4v-0.2
			l-0.7,0.2v-0.2h-0.7l-0.2-0.4c-0.4-0.2-0.7,0.2-0.9,0.2v-0.2l-2-0.2v-0.4c-0.7,0.1-0.6-0.1-0.9,0.6h-0.2l0.2-0.6L55,23.1v0.4
			c-0.6-0.2-1.2-0.3-1.8-0.2v-0.4c-0.4,0.1-0.3,0.1-0.6,0.4c-0.1,0-0.6,0.1-0.4-0.2h0.2v-0.2h-1.1v0.2l-0.6-0.2v0.4h-0.2v-0.4
			l-0.9,0.2c0-0.1-0.2-0.2-0.3-0.2c0,0,0,0,0,0c-0.1,0-0.2,0.6-0.7,0.4l-0.2-0.6c-0.2,0.2-0.3,0.1-0.7,0.2v0.2h-0.2v-0.2l-2.2,0.2
			v-0.2h-0.4v-0.2c-0.5-0.1-0.4,0.3-0.6,0.4h-1.1L43,22.7c-0.3,0.1-0.3,0.5-0.7,0.4v-0.2l-0.7-0.2v-0.2c-0.7-0.2-0.5,0.5-1.1,0.4
			v-0.2l-1.3,0.2v-0.2h-0.4v-0.2L38,22.7v-0.2h-1.8v-0.2h-0.6v-0.2L34.1,22v-0.2c-0.4-0.1-0.7,0.2-0.9,0.2v-0.2H33V22
			c-0.4,0.1-0.5-0.2-0.7-0.2L31.7,22l-0.2-0.4C31,21.5,31,21.8,30.8,22h-0.2l0.2-0.4c-1.1-0.1-1.1-0.3-2.2-0.4
			c0.1,0.2,0.2,0.2,0.4,0.4l-0.7-0.2v-0.2l-1.8,0.4c0,0,0-0.7-0.2-0.4v0.2h-0.6c-0.1,0.4,0,0.2-0.2,0.4v0.9c0.2-0.1,0.3-0.2,0.4-0.4
			H26l-0.2,0.4H26v0.2l1.1,0.2v0.6h1.1c0.1,0,0,0.2,0.4,0.2c0.3,0-0.1-0.3,0.2-0.2v0.2h0.4V24h0.6v0.2h0.2V24h0.9v0.2L31,24h0.2v0.2
			c0.6,0.2,1.2,0.2,1.8,0l-0.2,0.6H33V25c0.3,0,0.5-0.1,0.7-0.2v-0.2l0.2,0.2h0.6V25c0.9,0.3,1.5-0.1,1.8,0.2c0.1,0,0.8-0.1,0.6,0.2
			c-0.2,0.2-0.2-0.1-0.2,0.2l1.1-0.2v-0.2c0,0,0.7,0,0.4,0.2H38v0.2h1.5v-0.2h0.2v0.2c0.2,0,0.3,0,0.4-0.2c0.3,0-0.1,0.1,0.2,0.2
			c0.2,0,0.3,0,0.4-0.2c0.2,0.1,0.5,0.1,0.7,0.2v0.4l1.1-0.4v0.2l0.4-0.2v0.2l1.7-0.2v0.4h0.2v-0.2c0.3,0,0.5,0.1,0.7,0.2l0.2-0.4
			h1.3v0.2l0.7-0.2l0.2,0.4l0.7-0.2l-0.2,0.6c0.2,0.2,0.2-0.2,0.4,0.2h-0.2v0.2l0.4,0.2l-0.2,0.6h-0.2c0,0.1,0.4,0.7,0.2,1.1
			l-0.4,0.2V29h0.4l-0.2,0.7h-0.2l0.2,0.4h-0.2v0.4h-0.2v0.9c0,0-0.3,0.1-0.4,0.4c0.1,0.2,0.2-0.2,0.4,0.2l-0.6,0.4v0.6h-0.2v0.2
			c0.1,0.1,0.3,0,0.2,0.4l-0.4,0.2l0.2,0.6c0,0.1-0.3,0-0.4,0.6h0.2v0.2l-0.7,0.4l0.2,0.4h-0.2v0.6h-0.2L46.1,37h-0.2l0.2,0.4
			l-0.6,0.2c0.1,0.2,0.2,0.2,0.4,0.4h-0.4c-0.2,0.7-0.5,0.7-0.6,1.5h-0.4v0.6h-0.4c0,0.6-0.2,1.1-0.6,1.5h-0.4l0.2,0.4l-0.9,0.7
			l0.2,0.4h-0.4L41.5,44l0.2,0.4h-0.2l-0.4,0.6h-0.4v0.4h-0.6v0.6c-0.3,0.2-0.6,0.3-0.9,0.4v0.7h-0.2c-0.3,0.4-0.4,0.1-0.6,0.7h-0.4
			v0.6c0,0-1.1,0.2-0.6,0.2h0.2v0.2l-0.4-0.2V49h-0.4v0.4h-0.4v0.4h-0.2v-0.2L36,49.7l-0.2,0.4H35v0.2h-0.4v0.2l-0.4-0.2v0.4
			l-0.4-0.2v0.4h-0.7V51c-0.2,0-0.3,0-0.4-0.2c-0.4,0-0.4,0.2-0.4,0.2c-0.7,0.2-0.9-0.1-1.3,0.4c0,0-0.7,0-0.4-0.2H31V51l-1.1,0.4
			v0.2h-0.7v0.2c-0.2,0-0.3,0-0.4-0.2c-0.3-0.1-0.3,0.2-0.4,0.2c-0.2,0.1-0.4,0-0.6-0.2h-0.2v0.2c-0.4,0.1-0.8,0-1.1-0.2v0.4
			l-0.9-0.2v-0.2c-0.5-0.2-0.9,0.2-1.1,0.2v-0.2h-1.3l0.2-0.4c-0.7,0.1-1.4,0.1-2,0v-0.4h-0.2V51c-0.6,0-0.6-0.3-0.9,0h-0.2v-0.4
			c-0.4-0.3-0.8-0.1-1.3,0v-0.4c-0.2,0.3-1.3-0.2-1.7-0.4v-0.2h-0.9v-0.4h-0.7L15.3,49h-0.6v-0.2c-0.3-0.1-0.6-0.2-0.9-0.2v-0.4
			h-0.4v-0.4h-0.7v-0.4l-1.1-0.2l-0.2-0.6l-1.1-0.2v-0.4H9.9v-0.4l-0.7-0.2v-0.4l-0.6,0.2v-0.2h0.2c-0.2-0.3-0.4-0.3-0.9-0.4
			c-0.1-0.5-0.3-0.5-0.4-1.1H7.2c-0.2-0.5,0-0.2-0.6-0.2c-0.1-0.6-0.2-0.5,0-1.1H6.2c0,0,0-0.7-0.2-0.4v0.2H5.9c0-0.3,0-0.6-0.2-0.9
			H5.5v-0.7l-0.4-0.2l0.2-0.4H5.1v-0.7l-0.4,0.2v-0.9H4.4l-0.2-0.6h0.4l-0.2-0.6H4.2v-0.4H4l0.2-0.6l-0.4-0.2v-0.6H3.7l0.2-0.7
			c0-0.1-0.4-0.1-0.4-0.4h0.2c0-0.3-0.3-0.3-0.2-0.7h0.2l0.2-1.5H3.5l0.2-1.3h0.2v-0.2H3.7v-0.7H3.3v-0.4h0.4l-0.2-0.6h0.2V29H3.3
			l0.2-0.4c0.1,0,0.3,0,0.2-0.2H3.3v-0.2l0.6-0.2v-0.4H3.3l0.2-1.5c0.4-0.1,0.2,0,0.4-0.2H3.5c0.1-0.6,0.1-1.2,0.2-1.8h0.2V24H3.7
			l0.2-0.4H3.7v-0.2c0.2-0.5,0.4-0.9,0.7-1.3H4l0.4-1.1h0.2V20h0.2l0.4-0.7H4.9c0-0.3,0.6-0.4,0.4-0.9H5.1v-0.2h0.6l0.2-1.5h0.4
			c-0.3-0.3,0.1-0.4,0.2-0.9c1-0.2,0.4-0.4,0.7-0.9l0.6-0.4v-0.4h0.2l-0.2-0.4c0.4,0.5,0.8-0.9,0.9-1.3h0.7c0-0.8,0-0.5,0.4-0.9
			v-0.2h0.6l-0.2-0.4l0.9-0.2c0.3-1.2,1.7-0.8,2-2c0.4,0,0.8-0.1,1.1-0.4V8.2L14.9,8l0.2-0.4h0.4l0.2-0.4l0.6,0.2l0.6-0.7
			C17,6.6,16.9,6.8,17,6.9c0.6-0.1,0.4-0.4,0.9-0.4l0.2,0.2l0.4-0.6H19c0.2-0.1-0.1-0.3,0.6-0.4c0.1,0.1,0,0.3,0.4,0.2l0.2-0.4H21
			c0,0,0-0.1,0.4-0.2V5l0.9,0.2V4.8h1.1V4.7l0.2,0.2L24,4.7v0.2h0.2l0.4-0.6l0.4,0.2V4.1c0.3,0.2,0.6,0.2,0.9,0.2
			c0.3-0.1-0.1-0.2,0.2-0.2h0.2v0.2c0.6,0.1,1.1-0.1,1.5-0.6h0.6L28,4.1h0.4l0.2-0.6l0.9,0.2v0.2l0.2-0.2l0.2,0.2
			c0.3,0-0.1-0.2,0.2-0.2c0.4,0,0.2,0.1,0.4,0.2h0.2V3.7h0.7v0.2c0.4,0,0.8,0,1.1-0.2c0.4,0,0.8,0.1,1.1,0.2V3.7
			c0.3,0,0.6,0.1,0.9,0.2V3.7C35,3.7,35,3.9,35,3.9l1.1-0.2c0,0,0.1,0.3,0.4,0.2l0.2-0.4c0.2-0.1,0.4,0,0.6,0.2
			c0.6,0.1,1.1,0,1.7-0.2c-0.1,0.4,0,0.2-0.2,0.4v0.2c0.8-0.2,1.6-0.3,2.4-0.4c0.2,0.5,0.7,0.3,0.9-0.2h0.2c0.2,0.3-0.1,0.6-0.2,0.7
			c0.4,0.1,0.4,0.2,0.4,0.2h2L44.6,5c0.5-0.3,1,0.1,1.5,0.4l0.6-0.2v0.2h-0.2c0.2,0.3,0.1,0.2,0.6,0.4v0.2l0.4-0.2v0.4h0.7v0.6h0.4
			c0.1,0.7,0.2,0.5,0.4,1.1h0.4c0.2,0.8,0.4,0.4,0.6,1.3l0.6,0.2v0.2h0.6l-0.2,0.4c0.8,0,0.6-0.1,1.1-0.4c0-0.7,0-0.8-0.6-0.9V8.2
			h-0.4V7.8c0,0-0.7,0-0.4-0.2h0.2V7.4h-0.2V7.1L50,6.9c0.2-0.3,0.1-0.3,0-0.7c-0.4-0.1-0.4-0.2-0.7-0.4V5h-0.7l0.2-0.6h-0.4V4.1
			l-0.6-0.2l-0.2,0.2V3.7c0,0-0.7,0-0.4-0.2h0.2V3.4h-0.7c0.1-0.4,0-0.2,0.2-0.4V2.8h-0.7V2.6h-0.4V2.4l-1.1-0.2V2.1h-0.4V1.9H43
			c-0.1,0-0.1-0.5-0.4-0.4l-0.2,0.4h-0.2l0.2-0.4c-0.5-0.2-1-0.2-1.5,0c-0.1-0.4,0-0.2-0.2-0.4V1l-1.1,0.4V1.1h-0.7V1L38,1.1V1
			c-0.2,0-0.3,0-0.4,0.2L37.3,1v0.2h-0.2V1h-0.7v0.2h-0.7V1L35,1.1V0.8h-0.6V1l-0.6-0.2l-0.2,0.4h-0.4V0.8h-0.2L33,1.1L32.5,1v0.2
			h-0.7V1l-0.6,0.2C31,1,30.8,0.9,30.6,1v0.2h-0.9V1h-1.3v0.2h-0.7v0.2l-1.5-0.2v0.6l-0.7-0.2V1.3c-0.2-0.1-0.8,0.3-0.9,0.4v0.2
			l-2.2,0.4c-0.3,0,0.1-0.2-0.2-0.2v0.2l-0.7,0.2v0.4H21V2.6h-0.2v0.2h-1.7c-0.1,0-0.3,0.6-0.6,0.6V3.2h-0.4c-0.1,0.4,0,0.2-0.2,0.4
			v0.2l-1.3,0.2v0.2H16v0.2h-0.6v0.2h-0.4l-0.2,0.4h-0.4l-0.2,0.4h-0.2V5H14v0.2h-0.6l-0.4,0.7c-0.4,0.2-0.8-0.1-1.1,0.2l0.2,0.4
			h-0.4v0.4h-0.6v0.4h-0.7v0.4h-0.4v0.6L9.6,8c-0.4,0.8-1.1,1.5-2,1.7v0.6L7,10.4v0.7c-0.9,0.4-1.7,1-1.5,1.8
			c-0.2,0.1-0.5,0.2-0.7,0.2v0.6c-0.4,0.1-0.2,0-0.4,0.2H4.2l0.2,0.6H4.2L4,15H3.7c0.4,0.4-0.7,1.5-0.7,2.4H2.5v1.5l-0.4,0.2
			c-0.3,0.3-0.5,0.8-0.6,1.3H2c-0.1,0.4-0.3,0.8-0.6,1.1H1.2c-0.2,0.4,0.2,0.5,0.2,0.7H1.2v0.6H1.1v0.9H0.9v0.7H0.7l0.2,0.9H0.7v0.2
			h0.2v1.1H0.7l0.2,0.7H0.7c-0.2,0.9,0.5,0.8-0.2,1.5c0.2,0.2,0,0.1,0.4,0.2l-0.4,1.1l0.4,0.2c0.1,0.2-0.3,0.3-0.2,0.7h0.2
			c0.1,0.3,0,0-0.2,0.2v0.2h0.2c0.1,0.4-0.2,0.5-0.2,0.7c0,0.1,0.3,0.1,0.2,0.4l-0.4,0.2c0.2,0.5,0,0.2,0.6,0.2
			c-0.1,0.2-0.5,0.9-0.4,1.3l0.4,0.2v0.9H0.9c-0.1,0.4,0.2,0.4,0.2,0.4v1.1h0.4c-0.1,0.5-0.1,1,0,1.5l0.4,0.2L1.6,39H2l-0.2,0.6
			l0.4,0.2v0.2c0.1,0.2,0,0,0.2,0.2L2.2,41h0.6v0.7h0.4l-0.2,0.6l0.6,0.2v0.9l0.4,0.2L3.6,44l0.7,0.4c0.3-0.1-0.1-0.1,0.2-0.2
			l-0.2,0.6h0.2l0.2,0.7h0.4l0.2,0.7L6,46.4c0.1,0.4,0,0.2,0.2,0.4v0.2l0.4-0.2c0.6,0.5,0.2,0.9,1.3,1.1v0.6h0.9v0.4
			c0.4-0.1,0.2,0,0.4-0.2h0.2v0.6h0.7c-0.1,0.4,0,0.2-0.2,0.4v0.2l0.6-0.2v0.4l0.9,0.2l0.2,0.4l1.7,0.6v0.2h0.4v0.2
			c0.3,0.2,0.3,0.1,0.7,0.2v0.4l0.6-0.2v0.2h0.4v0.4h0.6v-0.2H16l-0.2,0.4H16v0.2c0.1-0.1,0.6-0.1,0.7-0.2v-0.2h0.2v0.6l0.9,0.2
			v-0.2h0.2V53h0.6v0.2H19v0.2h0.9v0.2h0.4v0.2c0.3,0-0.1-0.1,0.2-0.2h0.7V54c0.3,0,0.5-0.1,0.7-0.2v0.4l0.6-0.2v0.2h1.7v0.2h0.4
			v0.2c0.2,0.1,0.4,0,0.6-0.2h0.7v0.2h1.3v-0.2c0.3,0,1.1,0.4,1.7,0.2v-0.2h0.9v-0.2L31,54v-0.2h1.3v-0.2h0.2v0.2h0.2
			c0.1,0,0.1-0.2,0.4-0.2c0.3,0-0.1,0.2,0.2,0.2v-0.2l1.1-0.2v-0.2h0.6V53h0.4v-0.2c0.4-0.1,0.5,0.2,0.7,0.2v-0.2l0.9-0.2v-0.4
			c0.7-0.1,0.5-0.2,1.1-0.4v-0.4h0.4v-0.4h0.7l-0.2-0.4h0.2V51l0.7-0.6l-0.2-0.4H40v-0.2l0.4,0.2c-0.1-0.4,0-0.2-0.2-0.4v-0.2h0.6
			L40.6,49h0.6c0.2-0.6,0.4-0.7,0.6-1.3h0.6v-0.6c0.5-0.1,0.3-0.1,0.6-0.4H43v-0.4h0.2c0.2-0.2,0.3-0.5,0.4-0.7h0.6
			c0.2-0.8,0.4-0.4,0.6-1.3h0.6v-0.7h0.6c-0.2-0.5,0-0.2-0.6-0.2v-0.2h0.2c0.2-0.3,0.1-0.3,0.6-0.4l0.2-0.7h0.4v-0.6l0.6-0.2
			c0-0.3,0.1-0.7,0.4-0.9h0.2l0.2-1.1h0.6v-0.9c0.4,0.1,0.2,0,0.4,0.2h0.2c-0.2,0.3-0.2,0.7-0.2,1.1c0,0,0.2,0,0.2,0.4
			c-0.1,0.1-0.2,0.2-0.2,0.4h0.2V41h0.2c0.2,0.7-0.6,0.4,0.2,0.9l-0.2,0.9h0.6c-0.2,0.2,0,0.8,0,1.5H50l-0.2,0.6l0.4,0.2v0.4h0.2
			c0.1,0.3,0,0-0.2,0.2c0,0.1,0.1,0.3,0.2,0.4l-0.2,0.9h0.4v0.6c0.4,0,0.8,0.1,1.1,0.4v0.2c0.3,0.1,0.9-0.5,1.3-0.6
			c0.1-0.8,0.1-1.6,0-2.4c0,0-0.6,0.1-0.4-0.2c0.7,0.2-0.1-0.4,0-0.7h0.2c-0.1-0.3-0.3-0.3-0.4-0.4v-0.7h-0.2v-0.7H52
			c-0.2-0.3-0.2-0.6-0.2-0.9h-0.4c0.1-0.4,0-0.2,0.2-0.4v-1.1l-0.4,0.2l0.4-0.6h-0.4l0.2-1.1h-0.4l0.2-0.6h0.2
			c0.1-0.4-0.2-1-0.2-1.1l0.4-0.2l-0.2-0.4l0.4-0.2v-0.4h-0.4l0.2-1.8H52l-0.4-1.1c0.4-0.1,0.2,0,0.4-0.2h-0.4l0.4-2.4h-0.2v-0.6
			h-0.2v-0.2h0.2V29H52c0-0.2-0.6-0.7-0.6-0.7v-0.2h0.2v-0.6h0.2l-0.2-0.7l0.4-0.2v-0.2h-0.6v-0.2h0.2l-0.2-0.4h0.7v0.2h0.2v-0.2
			h1.1v0.2l0.6-0.2v0.2l0.6-0.2v0.2c0.6,0.1,1.2,0.1,1.8,0v0.4h0.9v-0.2h0.2v0.4c0.9-0.3,1.3,0,2,0.4v0.2L60,27v0.2h0.9
			c0,0,0.1,0.3,0.4,0.2l0.2-0.4h0.2v0.6c0.4-0.1,0.7-0.1,1.1,0c0.1,0.4,0,0.2,0.2,0.4v-0.4l0.7,0.2v0.2h0.7v0.2
			c0.8,0,1.1-0.1,1.5-0.6h-0.2v-0.2h0.2v-1.3l0.2-0.2C65.7,25.6,65.7,26.1,65.5,25.3z M28.2,22.6c0.4,0.1,0.2,0,0.4,0.2
			C28.2,22.6,28.4,22.8,28.2,22.6L28.2,22.6z M50.2,8.2c-0.4-0.1-0.2,0-0.4-0.2C50.2,8.1,50,8,50.2,8.2L50.2,8.2z M43,3.7h0.2
			c0.2,0.1-0.4,0.4-0.4,0.4L43,3.7z M1.1,33.8h0.6V34C1.3,34.2,1.2,33.9,1.1,33.8L1.1,33.8z M1.8,37.5H1.6v-0.4h0.2V37.5z"/>
		<path id="パス_343" class="st0" d="M43.2,3.7H43l-0.2,0.4C42.8,4.1,43.3,3.8,43.2,3.7z"/>
		<path id="パス_344" class="st0" d="M50.2,8.2C50,8,50.2,8.1,49.8,8C50,8.2,49.8,8.1,50.2,8.2z"/>
		<path id="パス_345" class="st0" d="M168,14.3h-0.7v-0.4c-0.5,0-0.5,0.2-0.7,0.2l-0.2-0.4H166v-0.2c-0.1,0-0.5,0.3-0.9,0.2v-0.2
			h-2v-0.4c-0.4,0.1-0.7,0.1-1.1,0V13h-0.2v0.2h-0.2V13h-0.7v-0.2l-0.6,0.2v-0.4l-1.8,0.4l-0.2-0.4l-0.6,0.2l-0.2-0.4
			c-0.3-0.1-0.3,0.3-0.4,0.4h-1.5v-0.4c-0.5,0.1-1,0.2-1.5,0.2V13c-0.5-0.2-1.1-0.2-1.7,0v-0.2l-0.6,0.2v-0.2h-0.2V13H151v-0.2h-0.2
			V13c-0.9,0.2-1.2-0.5-1.7,0.2H149l0.2-0.4c-0.4,0.1-0.9,0.1-1.3,0c0.1-0.3,0.2-0.6,0.4-0.9c-0.4-0.3-0.6-0.8-0.7-1.3l-1.1-0.2v0.2
			h-0.2v-0.2h-0.4c-0.2,0.4-0.4,0.4-0.6,0.9h0.4v0.2l-0.6,0.2v0.6h-0.2v0.2l0.4,0.2v0.6h-0.6v0.2H144v-0.2l-0.7,0.2V13
			c-0.2-0.2-0.2,0.2-0.2,0.2h-0.7c-0.1,0.5,0,0.4-0.6,0.6v-0.6h-0.6v0.2l-0.6-0.2l-0.2,0.4c-0.5,0.2-1.4-0.2-1.7-0.2v0.2l-0.6-0.2
			l-0.2,0.4h-0.6v0.2c-0.4,0.1-0.5-0.2-0.7-0.2v0.2l-0.6,0.2v-0.4h-0.4v0.4c-0.5-0.1-1.1-0.1-1.7,0v0.2l-0.6-0.2v0.2l-0.6-0.2v0.2
			c-0.3,0.3-0.7,0.4-1.1,0.4c-0.1,1-0.1,0.4-0.7,0.7c0.3,0.4,0,0.4-0.4,0.6l0.2,0.9h0.7c0.1,0.1,0.1,0.5,0.6,0.4l0.2-0.4l0.4-0.2V17
			l0.9,0.2v-0.4l0.4,0.2v-0.2h0.6v-0.2h0.2V17c0.4-0.1,0.4-0.2,0.4-0.2h0.9v-0.2h0.6v-0.2c0.4-0.1,0.5,0.2,0.7,0.2v-0.2h0.6v-0.2
			c0.2,0,0.5,0.3,0.9,0.2v-0.2h0.2v0.2h0.7l0.2-0.4c0.6-0.2,1.3,0.2,1.7-0.2h0.2l-0.2,0.4c0.4-0.1,0.5-0.1,0.7-0.4l0.9,0.2v-0.4
			c0.6,0.1,1.2,0.1,1.8,0l0.2,0.9h0.2l-0.2,0.6h-0.2c0,0.3,0.4,0.3,0.4,0.4c0.1,0.4-0.3,0-0.4,0.4h0.2v2.2h-0.2
			c0,0.3,0.3,0.2,0.4,0.4l-0.2,1.7h0.4l-0.2,0.6l-0.4,0.2c-0.1,0.5,0.3,0.4,0.4,0.7h-0.2v0.7l-0.4-0.2v0.4h0.6l-0.2,0.6h-0.2v0.2
			h0.2l0.2,0.4l-0.4,0.2V27h-0.2l0.2,0.6h-0.2v0.2c0.1,0.1,0.3,0.1,0.2,0.6h-0.2l-0.2,1.1h0.4c-0.1,0.5-0.3,0.9-0.6,1.3
			c0,0.3,0.1-0.1,0.2,0.2l-0.2,0.6h0.4c-0.1,0.2-0.4,0.6-0.2,0.9h0.2l-0.2,0.6h-0.4v0.2h0.4c-0.1,0.5,0,1.3-0.2,1.8h-0.2l0.2,0.2
			v0.2h-0.2V36l-0.4,0.2c-0.1,0.2,0,0.4,0.2,0.6c0.1,0.4-0.2,0.8-0.2,0.9h0.2v0.2c-0.2,0.7-0.6,0.3-0.2,1.3h-0.4v0.4h0.4
			c-0.3,0.7-0.1,1.6-0.4,2.4h-0.2l0.2,0.6h-0.2l0.2,1.1h-0.2l0.2,0.4v0.2h-0.2c-0.1,0.2,0,0.4,0.2,0.6v0.2h-0.2
			c-0.1,0.5,0.2,0.7,0.2,0.9h-0.2v0.7h-0.2l0.2,0.7h0.2l-0.2,0.6h-0.4v0.2h0.4c-0.1,0.5-0.4,0.3,0.2,0.7c-0.2,0.3-0.3,0.3-0.4,0.7
			h0.2v0.2h-0.4c-0.1,0.2,0.4,0.3,0.4,0.4c0,0.1-0.3,0.5-0.2,0.9h0.2l-0.2,0.7h0.2v0.4h0.2l0.2,0.6h1.3v-0.2h0.2l-0.2,0.6
			c0.4-0.1,0.4-0.2,0.7-0.4v-0.2h0.2l-0.2-0.6l0.4,0.2c-0.1-0.3-0.2-0.4-0.2-0.4v-1.7H146c0,0,0-0.7,0.2-0.4c0.3,0-0.1,0.2,0.2,0.2
			v-1.5h0.2v-0.2h-0.4l0.2-0.4H146v-0.2h0.2v-0.4h0.2c0-0.2-0.3-0.3-0.2-0.7h0.2c0.2-0.9-0.5-1.1,0.2-1.8c0,0,0-0.7-0.2-0.4
			c-0.3,0,0.1,0.2-0.2,0.2c0.1-0.3,0.2-0.6,0.2-0.9c0.4-0.1,0.2,0,0.4-0.2h-0.4l0.2-1.1h-0.2v-0.2h0.2v-0.4h0.2l-0.2-0.6
			c0-0.1,0.3,0,0.4-0.6h-0.4l0.2-1.1c0,0-0.3-0.1-0.2-0.4l0.4-0.2c0.1-0.3-0.3-0.1-0.4-0.4l0.4-0.2c0.1-0.2-0.3-0.3-0.2-0.7h0.2V37
			h0.2v-1.8l0.4-0.2l-0.2-0.7h0.2v-0.4h0.2c0.1-0.4-0.2-0.7-0.2-0.9h0.2c0-0.2-0.3-0.3-0.2-0.7c0,0,0.3,0,0.4-0.6h-0.6l0.2-0.6h0.2
			v-0.6h0.2c0-0.2,0-0.3-0.2-0.4l0.2-1.5h-0.2v-0.2h0.4c-0.1-0.3-0.3-0.2-0.4-0.4c0-0.3,0.4-0.4,0.4-0.4l-0.2-0.9h0.2
			c-0.2-0.5-0.2-1.1,0-1.7h0.2v-0.9h0.2V24H148v-0.2h0.2c0-0.3-0.1,0.1-0.2-0.2v-1.3c0,0,0.2-0.1,0.2-0.4H148l-0.2-0.6h0.4
			c0-0.3-0.3-0.2-0.4-0.4c0-0.3,0.4-0.4,0.6-0.6l-0.2-0.4h0.2c0-0.3-0.4-0.4-0.4-0.4l0.2-1.3H148v-0.2h0.2c0-0.8,0.1-1.6,0.2-2.4
			h-0.2v-0.2l1.3-0.2v-0.2l0.9,0.2v0.2h0.2v-0.2h1.5v0.2c0.9,0.2,0.6-0.7,1.1,0l0.9-0.4v0.4c0.2,0.1,1.4-0.6,2.2-0.4v0.2l1.1-0.2
			c0,0,0,0.2,0.4,0.2v-0.2h0.2v0.2h0.4v0.2l0.6-0.2v-0.2l1.3,0.2v-0.4h0.2v0.6c0.3,0,0.5-0.1,0.7-0.2v0.4l1.1-0.2v0.4l0.7,0.2v-0.2
			h0.7v0.2h0.2c0.1-0.2,0.2-0.2,0.4-0.2v0.2h0.6v0.2c0.4,0.1,0.5-0.2,0.7-0.2v0.2h0.4v0.2c0.3,0-0.1-0.2,0.2-0.2c0.5,0,1,0,1.5,0.2
			l0.2-0.6h0.4v-0.7h-0.4V15h0.6v-0.2h-0.2L168,14.3z M142,15.5c0.4,0.1,0.2,0,0.4,0.2C142,15.6,142.2,15.8,142,15.5L142,15.5z"/>
		<path id="パス_346" class="st0" d="M124.6,12h-0.4v-0.4h-1.7v0.2h-0.2l-1.1-0.4v0.2c-0.4,0-0.7-0.4-0.9-0.4v0.2H120v0.2
			c-0.8,0.3-1.1-0.1-1.7,0v0.2l-0.9-0.2v0.2l-0.4-0.2v0.2h-0.7c0,0-0.1-0.3-0.4-0.2l-0.2,0.4h-0.6v0.2c-0.3,0.1-0.3-0.2-0.4-0.2
			c-0.4-0.1-0.5,0.2-0.7,0.2l-0.2-0.4l-0.7,0.4v-0.4l-0.9,0.2v0.2h-0.7V12h-0.2v0.2l-0.6-0.2v0.4l-1.8-0.2v0.4c-0.5,0-1,0.1-1.5,0.4
			v-0.4l-0.9,0.2c-0.1-0.2-0.3-0.2-0.6-0.2v0.2H105V13h-0.4v0.2c-0.2,0-0.5-0.3-0.9-0.2v0.2H103v0.2l-0.6-0.2l-0.2,0.6
			c-0.3,0.1-0.4-0.2-0.4-0.2h-1.1c-0.1,0.4,0,0.2-0.2,0.4c0,0,0,0.3-0.2,0.2v-0.4l-0.4,0.2l-0.6-0.2v0.2c-0.1,0-0.5-0.1-0.4,0.2h0.2
			v0.2h-0.2v0.2c-0.2,0.1-1.4-0.6-2.2-0.4v0.2H96l-0.4,0.6h-1.3V15c-0.2,0-0.3,0-0.4-0.2L93,15v0.2h-0.2l0.2,0.6h-0.6v0.7h-0.4v0.4
			h0.4v0.4c0.1,0,0.8-0.1,0.6,0.2h-0.2v0.2c0.7,0,0.7,0.2,1.5,0v-0.2h1.3l0.2-0.4c0.9-0.3,0.8,0.7,1.5-0.2h0.2
			c0,0.3-0.1,0.5-0.2,0.7h0.2l0.2,0.7h-0.4v0.2h0.2l0.2,0.6c0,0.2-0.5,0.1-0.4,0.7h0.2v0.6h0.2l-0.2,0.6c0,0.1,0.2,0,0.2,0.4h-0.2
			v0.2c0,0,0.3,0.1,0.2,0.4h-0.2v0.9h0.2v0.7h-0.2l0.2,0.9l-0.4,0.2c0.2,0.2,0,0.1,0.4,0.2c0,0.3-0.2,1.3-0.2,1.3l0.6,0.2
			c-0.3,0.4-0.4,1-0.2,1.5l0.4,0.2L98,28.8h-0.2c-0.1,0.6,0.3,0.4,0.4,0.6c0.1,0.4-0.2,0.8-0.2,0.9h0.2v0.9H98v0.2l-0.9-0.2
			l-0.2,0.4c-0.6,0.3-0.5-0.3-0.9,0.4h-0.2v0.2H96v0.2l-0.4-0.2c0.1,0.4,0.2,0.9,0.4,1.3h0.6v-0.2h0.2c-0.2,0.4-0.1,0.2,0,0.6h1.5
			c0,0,0,0.7,0.2,0.4V34h0.6l-0.2,0.6h-0.2c-0.2,0.3,0.3,0.2,0.4,0.2c0.1,0.2-0.1,0-0.2,0.2v0.4h0.4l-0.2,0.6h0.4
			c-0.1,0.4-0.2,0.9-0.2,1.3h0.4l-0.2,1.1c0,0.1,0.3,0,0.2,0.4h-0.2v0.2l0.6,0.4c0.1,0.5-0.3,0.4-0.4,0.6v0.6h0.4
			c-0.1,0.2-0.2,0.5-0.2,0.7h0.4c-0.1,0.5-0.1,1.1,0,1.7h0.4c0.2,0.2-0.2,0.2-0.2,0.2c0,0.5-0.2,0.5-0.2,0.7l0.6,0.4
			c0,0.1-0.3,0.5-0.2,0.9h0.2v0.4l0.4,0.2l-0.2,1.1h0.2v0.6h0.2l-0.2,0.4l0.4,0.2l-0.2,0.6h0.2v0.9c0.1,0.3,0.2-0.1,0.2,0.2
			c-0.1,0.1-0.3,0-0.2,0.4l0.4,0.2l-0.2,0.6h0.2V51h0.2c0.1,0.3,0,0-0.2,0.2l0.2,0.4h-0.2v0.9h0.2v1.1h0.2V54h0.2v0.6h0.2v0.2h-0.2
			v1.1h0.4c-0.1,0.7-0.1,0.6-0.2,1.3h0.4c0.1,0.4,0,0.2,0.2,0.4c0.4,0.4,1,0.4,1.5,0.2v-0.2h0.7l-0.2-0.6l0.4-0.2V56h-0.2l0.2-0.9
			H105c0.5-0.6-0.3-0.3-0.2-0.7h0.2v-0.2c-0.3-0.2-0.2,0.1-0.4-0.2h0.4v-0.4h-0.4c0.2-1.2,0.2-0.7-0.4-1.5h0.4l-0.2-1.3h-0.2v-0.6
			h-0.2c0-0.3,0.4-1.1,0.2-1.7l-0.4-0.2c-0.2-0.4,0.1-0.7,0.2-0.9h-0.4c0-0.7,0.2-0.5,0-1.1h-0.2v-1.3l-0.4-0.2l0.2-0.2v-0.4h-0.2
			l0.2-0.6H103v-0.2c0.2-0.1,0.2-0.3,0.2-0.6H103v-0.6c0-0.1-0.5-0.1-0.4-0.4h0.4V42h-0.4l-0.2-1.1c0.1,0,0.2-0.2,0.2-0.3
			c0,0,0,0,0,0l-0.4-0.2v-0.2l0.4,0.2v-0.4h-0.4l0.2-1.7h-0.4c0-0.4-0.1-0.8-0.2-1.1h0.4v-0.4h-0.6c0.2-0.3,0.2-0.6,0.2-0.9
			c0,0-0.3-0.1-0.2-0.4h0.2v-0.6l-0.6,0.2c0-0.3,0.2-0.6,0.6-0.7v-0.2l0.6,0.2v-0.2l0.2,0.2l0.2-0.2c0.3,0-0.1,0.1,0.2,0.2h1.1v0.2
			h0.6v0.2l1.3-0.2v0.2h0.7v-0.2l0.9,0.2v-0.2l0.4,0.2c0.1-0.2,0.3-0.2,0.6-0.2v0.2h1.8c0,0,0.1,0.3,0.4,0.2v-0.2h0.4v-0.2l0.7,0.2
			v-0.2h0.6v0.2l0.2-0.2l0.2,0.2l0.4-0.2v0.2h0.7v0.2h0.2l0.2-0.4c0.3-0.1,0.3,0.2,0.4,0.2h0.9v-0.2c0.2-0.1,0.4,0,0.6,0.2l1.1-0.2
			v0.2l0.6,0.2l0.4-0.6c0.4-0.1,0,0.6,0.4,0.4c0.3-0.2-0.2-0.4,0.6-0.6l-0.2-0.6h0.2v-0.2h-0.2v-0.6h-0.2v-0.2h0.4v-0.2l-1.5-0.6
			c-0.2,0-0.5,0.3-0.9,0.2c0,0,0-0.2-0.4-0.2v0.2l-2-0.2v0.2h-0.2V32h-2.2l-0.6,0.2V32l-0.7-0.2V32h-0.7v-0.2
			c-0.5-0.1-0.4,0.3-0.6,0.4l-0.9-0.2v0.2c-0.3,0,0.1-0.1-0.2-0.2c-0.6,0-1.2,0.1-1.8,0.2l-0.2-0.4c-0.4-0.1-0.9,0-1.3,0.2v-0.4
			h-0.6c0.1,0.2,0.2,0.2,0.4,0.4l-1.1-0.2V32h-0.2l0.2-0.4c-0.4,0-0.9,0.1-1.3,0.2v-0.4c-0.5,0-0.7,0.1-0.9,0.4h-0.2
			c-0.2-0.3,0.3-0.6,0.2-0.7l-0.6-0.2v-0.2h0.2l-0.2-0.6c0-0.1,0.2-0.1,0.2-0.4h-0.2v-0.2h0.2v-0.2h-0.2v-0.6h-0.2l0.2-0.4h-0.2
			c-0.2-0.2-0.3-0.5-0.4-0.7h0.6c0-0.1,0.1-0.8-0.2-0.6v0.2h-0.2v-1.7h-0.2v-0.4H100c-0.1-0.4,0.3-1,0.2-1.7H100l0.2-0.4H100v-0.9
			h0.2v-0.7H100c0-0.2,0.3-0.3,0.2-0.7c0-0.3-0.2,0.1-0.2-0.2c0.1-0.2,0.2,0.1,0.2-0.2l-0.2-0.4h0.2l-0.2-0.9h0.2l0.2-0.7H100v-0.2
			c0.3,0,0.2-0.5,0.2-0.7H100v-0.2h0.2l-0.2-0.6h0.2v-0.2h-0.4v-0.2l1.1,0.2v-0.4h0.9v-0.2h0.2v0.2h0.7c0,0,0-0.7,0.2-0.4
			c0.3,0-0.1,0.3,0.2,0.2c0.1,0,0-0.3,0.4-0.2v0.2h0.2c0.1,0,0-0.3,0.6-0.4v0.4c0.6-0.1,0.7-0.4,1.3-0.6c-0.2,0.2,0,0.1-0.4,0.2v0.2
			c0.5,0.3,0.6-0.3,0.7-0.4l0.2,0.2h0.2v-0.2h0.7v-0.2h0.2l-0.2,0.4h0.6v-0.4l1.5-0.2V15c0.2,0,0.3,0.3,0.7,0.2l0.2-0.4
			c0.6-0.2,0.6,0.3,0.7,0.4c0.1,0.1,0.3,0,0.4-0.2c0,0,0,0,0,0h0.2v0.2h0.7v-0.4h0.6v-0.2c0.2,0,0.3,0,0.4,0.2
			c0.3,0,0.4-0.2,0.4-0.2h0.6v0.2l1.1-0.2v-0.2c0,0,0.7,0,0.4,0.2h-0.2v0.2c0.3,0,0.5-0.1,0.7-0.2c0.1,0.1,0,0.3,0.6,0.2v-0.2
			l1.3,0.2v-0.2h0.6v-0.2h1.1v-0.2c0.4,0,0.3,0.6,0.9,0.4v-0.2c0.2-0.1,0.5-0.2,0.7-0.2v0.4h0.4v-0.4c0.7-0.1,1.5,0,2.2,0.2v-0.4
			c0.8-0.1,0.5-0.3,1.3-0.4v-0.6h-0.4V12z M93.8,17c0.4,0.1,0.2,0,0.4,0.2C93.8,17.1,94,17.2,93.8,17L93.8,17z M111.1,14.6
			c0.4,0.1,0.2,0,0.4,0.2C111.1,14.7,111.3,14.8,111.1,14.6L111.1,14.6z"/>
		<path id="パス_347" class="st0" d="M80.7,17.8l-0.4-0.2l0.4-0.6h-0.2l-0.2-2l-0.4-0.2c-0.1-0.3,0.5-0.2,0.4-0.7h-0.2l-0.2-0.7
			h-0.2v-0.9h-0.2v-0.2c-0.4,0.2-0.4,0.1-0.7,0c-0.2,0.3-0.4,0.3-0.6,0.6h-0.2l0.2,0.9h-0.2v0.4h-0.2c-0.2,0.7,0.4,0.9,0,1.5
			c0,0.3,0.2,0.6,0.6,0.7v0.2h-0.4c-0.1,0.4,0,0.2-0.2,0.4c0.1,0.2,0.2,0.2,0.4,0.4h-0.4l0.2,0.9c0,0-0.2,0-0.2,0.4
			c0,0.3,0.2-0.1,0.2,0.2h-0.2v0.9h-0.2v0.2h0.2v0.4h-0.2l0.2,0.4l-0.2,0.4h0.4c-0.2,0.4-0.2,0.7-0.6,0.9c0.2,0.2,0,0.1,0.4,0.2
			l-0.2,0.6h-0.2v0.4h-0.2c0,0,0.3,0.7,0.2,1.1h-0.2L77.1,25h0.2v0.7h-0.2l0.2,0.6L77,26.4v0.2h0.2v1.1H77l0.2,0.6
			c0,0-0.2,0.1-0.2,0.4h0.2v0.7c0,0-0.2,0-0.2,0.4l0.2,0.6H77v0.2h0.2v0.7H77l0.2,0.6H77V32h0.2v0.6h0.2l-0.2,1.7l0.4,0.2
			c0.1,0.3-0.2,0.3-0.2,0.4l0.2,0.4h-0.4c-0.1,0.1,0.4,0.4,0.4,0.7h-0.2V36h0.2c0,0.2,0,0.3-0.2,0.4v0.2h0.2v1.5h0.2l-0.2,0.6h0.2
			v0.9h0.2v0.2h-0.4l0.2,0.4h-0.2v0.2h0.2V41h0.2c0.1,0.3-0.1,0-0.2,0.2v0.2h0.2v0.7h0.2c0.1,0.2,0.2,0.5,0.2,0.7
			c0.3,0,0.5,0.1,0.7,0.2c0.4-0.1,0.8-0.5,1.3-0.6l0.2-1.1h0.2l-0.4-1.1c0.3-0.3,0.2,0.2,0.4-0.2h-0.4c0-0.3,0.1-0.5,0.2-0.7h-0.2
			l-0.2-0.6h0.2v-0.6h0.2v-0.2h-0.2v-1.5h-0.2c0.1-0.4,0.1-0.7,0.2-1.1l-0.6-0.2v-0.2c0.4-0.2,0.1-0.7,0.2-1.1h0.2v-0.2h-0.2v-0.9
			h0.2v-0.2h-0.2c0-0.3,0-0.6,0.2-0.9h-0.4l-0.2-0.6h0.2v-0.6c0.1-0.3,0.2,0.1,0.2-0.2h-0.2l-0.2-0.7h0.2v-0.4h0.2
			c0.1-0.6-0.5-0.4-0.4-0.9l0.4-0.2l-0.2-0.9c0-0.3,0.2,0.1,0.2-0.2h-0.4l0.2-0.4h-0.2v-0.2h0.2v-0.9h0.2l-0.2-0.9h0.2v-0.6h0.2
			l0.2-1.1h-0.2v-0.2h0.2v-0.4h0.2v-1.1h0.2l0.2-0.6h-0.2v-0.4h-0.2c-0.1-0.5,0.3-0.4,0.4-0.6l-0.2-0.4h0.2v-0.2
			c-0.1-0.1-0.2,0-0.2-0.4h0.2v-0.2h-0.2L80.7,17.8z"/>
		<path id="パス_348" class="st0" d="M111.1,14.6c0.2,0.2,0,0.1,0.4,0.2C111.3,14.6,111.5,14.7,111.1,14.6z"/>
		<path id="パス_349" class="st0" d="M113.3,15h0.6v-0.2h-0.6V15z"/>
		<path id="パス_350" class="st0" d="M142,15.5c0.2,0.2,0,0.1,0.4,0.2C142.1,15.5,142.3,15.7,142,15.5z"/>
		<path id="パス_351" class="st0" d="M93.8,17c0.2,0.2,0,0.1,0.4,0.2C93.9,17,94.1,17.1,93.8,17z"/>
		<path id="パス_352" class="st0" d="M28.2,22.6c0.2,0.2,0,0.1,0.4,0.2C28.4,22.5,28.6,22.7,28.2,22.6z"/>
		<path id="パス_353" class="st0" d="M48.9,23.1h0.2c-0.1-0.4,0-0.2-0.2-0.4V23.1z"/>
		<path id="パス_354" class="st0" d="M76.8,25.5c0.2,0.2,0,0.1,0.4,0.2v-0.2H76.8z"/>
		<path id="パス_355" class="st0" d="M106.9,31.8v-0.2h-0.4C106.7,31.8,106.5,31.7,106.9,31.8z"/>
		<path id="パス_356" class="st0" d="M1.6,33.8H1.1c0.1,0.1,0.2,0.3,0.6,0.2V33.8z"/>
		<path id="パス_357" class="st0" d="M80.1,34.9h0.2c-0.1-0.4,0-0.2-0.2-0.4V34.9z"/>
	</g>
	<path id="パス_673" class="st1" d="M27.8,69.9l-0.2-1.2c-0.1-0.4-0.1-0.9-0.2-1.3l-1.8,0.3c0.2,0.4,0.3,0.9,0.3,1.3l0.2,1.2
		l-2.6,0.4c-0.5,0.1-1,0.1-1.5,0.2l0.3,1.7c0.5-0.1,1-0.2,1.5-0.3l2.6-0.4l0.4,2.3l-3.4,0.5c-0.5,0.1-1,0.1-1.5,0.1l0.3,1.7
		c0.5-0.1,0.9-0.2,1.4-0.3l3.5-0.5l0.5,2.8c0.1,0.5,0.2,1,0.2,1.5l1.9-0.3c-0.2-0.5-0.3-1-0.3-1.5l-0.5-2.7l3.3-0.5l0.6-0.1l0.2,0
		c0.2,0,0.4-0.1,0.6-0.1l-0.3-1.7c-0.5,0.1-1,0.3-1.5,0.3l-3.3,0.5L28,71.5l3-0.5l0.8-0.1l0.1,0c0.2,0,0.2,0,0.4,0l-0.2-1.2l0.7-0.3
		c-0.3-0.8-0.7-1.5-1.2-2.2l-1,0.4c0.4,0.6,0.8,1.2,1,1.8c-0.2,0-0.6,0.1-0.9,0.2L27.8,69.9z M34.6,68.6c-0.3-0.8-0.7-1.5-1.2-2.1
		l-1,0.4c0.5,0.7,0.9,1.4,1.2,2.2L34.6,68.6z M49.7,68.3c-0.5,0.1-1,0.2-1.5,0.1h-6.4c-0.6,0-1.2,0-1.8-0.1v1.8
		c0.6-0.1,1.2-0.1,1.8-0.1h6.7c-0.5,2.5-2.1,4.7-4.2,6.1c-0.9,0.6-2,1.1-3.1,1.4c0.5,0.5,0.9,1,1.2,1.7c2-0.8,3.8-2,5.2-3.6
		c1.4-1.7,2.4-3.7,2.9-5.9c0-0.2,0.1-0.4,0.2-0.6L49.7,68.3z M61.3,79.3c0-0.5-0.1-1-0.1-1.6V74c0-0.3,0-0.6-0.1-1
		c0.2,0.1,0.3,0.2,0.5,0.2c1.7,0.8,3.4,1.6,5,2.7l1-1.7c-2-1.2-4.2-2.2-6.4-3v-2.6c0-0.5,0-1,0.1-1.5h-1.9c0.1,0.5,0.1,1,0.1,1.4v9
		c0,0.5,0,1-0.1,1.6H61.3z M85.1,69.7C84.8,69.9,84.4,70,84,70l-5.1,0.6v-1.8c0-0.4,0-0.9,0.1-1.3h-1.9c0.1,0.4,0.1,0.9,0.1,1.3v1.9
		L75.7,71c-0.4,0.1-0.8,0.1-1.2,0.1c-0.1,0-0.2,0-0.3,0l0.2,1.7c0.5-0.1,1-0.2,1.6-0.3l1.3-0.2v3.2c-0.1,0.6,0,1.2,0.1,1.8
		c0.2,0.6,0.6,1.1,1.2,1.3c0.8,0.2,1.7,0.3,2.5,0.2c1.2,0,2.3-0.1,3.5-0.2c0.3,0,0.6-0.1,0.9-0.1l-0.1-1.9c-1.4,0.4-2.8,0.6-4.3,0.5
		c-1.4,0-1.9-0.2-2-0.7c-0.1-0.4-0.1-0.8-0.1-1.2v-3.2c1.5-0.2,2.9-0.4,4.3-0.6c0.2,0,0.3,0,0.5-0.1c-0.3,0.4-0.3,0.5-0.5,0.8
		c-0.6,0.8-1.4,1.5-2.3,2c0.5,0.3,1,0.7,1.4,1.1c1.5-1,2.7-2.4,3.4-4.1c0.1-0.2,0.2-0.5,0.4-0.7L85.1,69.7z M92.9,71
		c0.6,1.1,1,2.2,1.3,3.4l1.6-0.5c-0.3-1.2-0.8-2.3-1.4-3.3L92.9,71z M95.9,70.4c0.5,1,1,2.1,1.3,3.3l1.6-0.5
		C98.5,72.1,98,71,97.4,70L95.9,70.4z M100.8,70.3c0,0.5-0.1,1.1-0.3,1.6c-0.4,2-1.6,3.7-3.2,4.9c-0.7,0.5-1.5,1-2.4,1.3
		c0.5,0.4,0.8,0.9,1.1,1.4c1.7-0.7,3.2-1.9,4.3-3.4c1-1.4,1.6-3,1.9-4.7c0-0.2,0.1-0.5,0.2-0.7L100.8,70.3z M113.8,79.3
		c0-0.5-0.1-1-0.1-1.6V74c0-0.3,0-0.6-0.1-1c0.2,0.1,0.3,0.2,0.5,0.2c1.7,0.8,3.4,1.6,5,2.7l1-1.7c-2-1.2-4.2-2.2-6.4-3v-2.6
		c0-0.5,0-1,0.1-1.5h-1.9c0.1,0.5,0.1,1,0.1,1.4v9c0,0.5,0,1-0.1,1.6H113.8z"/>
</g>
</svg>
