<?xml version="1.0" encoding="utf-8"?>
<!-- Generator: Adobe Illustrator 24.2.0, SVG Export Plug-In . SVG Version: 6.00 Build 0)  -->
<svg version="1.1" id="レイヤー_1" xmlns="http://www.w3.org/2000/svg" xmlns:xlink="http://www.w3.org/1999/xlink" x="0px"
	 y="0px" viewBox="0 0 208 82" style="enable-background:new 0 0 208 82;" xml:space="preserve">
<style type="text/css">
	.st0{fill:#FFFFFF;}
	.st1{fill:#FFFFFF;stroke:#FFFFFF;stroke-width:2;}
</style>
<g id="グループ_529" transform="translate(1.29 1.386)">
	<path id="パス_675" class="st0" d="M37.2,67.8c-0.7,1-1.6,1.9-2.6,2.6c-2.2,1.7-4.7,2.9-7.3,3.6c0.4,0.5,0.7,1,0.9,1.6
		c1.8-0.6,3.4-1.3,5-2.3v4.9c0,0.5,0,1-0.1,1.5h2c-0.1-0.5-0.1-1-0.1-1.6v-6c1.2-0.9,2.3-1.8,3.3-2.9c0.2-0.2,0.3-0.3,0.5-0.5
		L37.2,67.8z M44.4,76.5c0.2-0.2,0.3-0.3,0.5-0.6c0.8-0.9,1.9-2.4,2.5-3.1C48,72,48.1,72,48.3,72s0.2,0,1.1,1
		c1.9,2.1,3.8,4.1,5.9,5.9l0.9-1.9c-0.5-0.3-0.9-0.7-1.3-1.1c-1.6-1.4-3.1-2.9-4.5-4.5C49.3,70.2,49,70,48.3,70
		c-0.3,0-0.7,0.1-1,0.3c-0.4,0.3-0.8,0.7-1,1.1c-1.9,2.4-2.6,3.2-3,3.4L44.4,76.5z M51.8,69.9c0.6,0.6,1.1,1.3,1.5,2.1l1-0.5
		c-0.4-0.8-0.9-1.4-1.5-2.1L51.8,69.9z M55.9,70.5c-0.4-0.7-0.9-1.4-1.5-2L53.5,69c0.6,0.6,1,1.3,1.4,2L55.9,70.5z M61.9,70.2
		c1.3,0.8,2.5,1.7,3.6,2.8l1.2-1.5c-1.1-1-2.3-1.9-3.6-2.7L61.9,70.2z M62.4,79.4c0.3-0.1,0.6-0.2,0.9-0.2c1.9-0.4,3.7-1.1,5.3-2.1
		c2-1.4,3.5-3.3,4.4-5.5c-0.6-0.4-1.1-0.8-1.5-1.4c-0.3,1-0.8,1.9-1.4,2.8c-1,1.5-2.5,2.7-4.2,3.4c-1.3,0.6-2.7,0.9-4.1,1L62.4,79.4
		z M83.4,79.8c0-0.5-0.1-1-0.1-1.6v-3.7c0-0.3,0-0.6-0.1-1c0.2,0.1,0.3,0.2,0.5,0.2c1.7,0.8,3.4,1.6,5,2.7l1-1.7
		c-2-1.2-4.2-2.2-6.4-3v-2.6c0-0.5,0-1,0.1-1.5h-1.9c0.1,0.5,0.1,1,0.1,1.4v9c0,0.5,0,1-0.1,1.6H83.4z M100.6,79.8
		c0-0.5-0.1-1-0.1-1.6v-3.7c0-0.3,0-0.6-0.1-1c0.2,0.1,0.3,0.2,0.5,0.2c1.7,0.8,3.4,1.6,5,2.7l1-1.7c-2-1.2-4.2-2.2-6.4-3v-2.6
		c0-0.5,0-1,0.1-1.5h-1.9c0.1,0.5,0.1,1,0.1,1.4v9c0,0.5,0,1-0.1,1.6H100.6z M103.5,69.1c0.6,0.6,1.1,1.3,1.5,2.1l1-0.5
		c-0.4-0.8-0.9-1.4-1.5-2.1L103.5,69.1z M107.6,69.7c-0.4-0.7-0.9-1.4-1.5-2l-0.9,0.5c0.6,0.6,1,1.3,1.4,2L107.6,69.7z M113.7,74.8
		c0.8-0.1,1.5-0.1,2.3-0.1h7.4c0.8,0,1.5,0,2.3,0.1v-1.9c-0.8,0.1-1.5,0.1-2.3,0.1H116c-0.8,0-1.5,0-2.3-0.1V74.8z M138.5,71.2
		c0-0.2,0-0.2,0-1.1l0-0.8c0-0.4,0-0.9,0.1-1.3h-1.9c0.1,0.4,0.1,0.9,0.1,1.3v0.8c0,0.3,0,0.5,0,1.1h-3.5c-0.6,0-1.2,0-1.8-0.1v1.8
		c0.6-0.1,1.2-0.1,1.8-0.1h3.5c0,1-0.2,1.9-0.7,2.8c-0.8,1.3-2,2.3-3.4,2.8c0.5,0.4,1,0.9,1.3,1.5c1.5-0.7,2.7-1.8,3.6-3.1
		c0.7-1.2,1-2.6,1-3.9h2.9c0.6,0,1.2,0,1.8,0.1v-1.8c-0.6,0.1-1.2,0.1-1.8,0.1L138.5,71.2z M158.4,67.8c-0.5,0.3-1.1,0.5-1.7,0.7
		c-2,0.5-4,0.8-6,0.8c-0.2,0-0.4,0-0.9,0c0.2,0.5,0.4,1,0.5,1.5c1.3,0,2.6-0.1,3.9-0.3c0,1,0,1.5,0,2.1h-3.6c-0.6,0-1.1,0-1.7-0.1
		v1.7c0.6-0.1,1.1-0.1,1.7-0.1h3.5c0,0.3-0.1,0.6-0.2,0.9c-0.3,0.9-0.8,1.8-1.6,2.4c-0.6,0.5-1.4,0.9-2.2,1.2
		c0.5,0.4,0.9,0.9,1.2,1.5c0.5-0.2,0.9-0.4,1.3-0.7c0.9-0.6,1.7-1.3,2.3-2.2c0.5-0.9,0.9-2,0.9-3.1h3.1c0.6,0,1.1,0,1.7,0.1v-1.7
		c-0.6,0.1-1.1,0.1-1.7,0.1h-3c0-0.5,0-0.5,0-2.4c0.8-0.1,1.6-0.3,2.3-0.6c1-0.3,1-0.3,1.2-0.4L158.4,67.8z M174.4,78
		c0.2-1.3,0.4-2.3,0.6-3.8c0-0.5,0.1-1.1,0.3-1.6l-0.8-0.7c-0.3,0.1-0.7,0.1-1,0.1H170c-0.4,0-0.9,0-1.3-0.1v1.6
		c0.4,0,0.8-0.1,1.2-0.1h3.5c-0.1,1.3-0.4,3.2-0.7,4.5h-4.1c-0.4,0-0.9,0-1.3-0.1v1.6c0.4,0,0.9-0.1,1.3-0.1h7.3
		c0.4,0,0.9,0,1.3,0.1v-1.6c-0.4,0.1-0.9,0.1-1.3,0.1H174.4z"/>
	<g id="グループ_289" transform="translate(0)">
		<path id="パス_359" class="st1" d="M203.3,7.3l-1.1,0.2c0,0-0.1-0.7-0.2-0.4v0.2l-0.9,0.2V7.3l-0.4,0.2
			c-0.1-0.1-0.1-0.2-0.2-0.4L200,7.3V7.2c-0.4-0.2-0.9,0-1.1,0.4h-0.2l0.2-0.6h-0.7V6.8h-0.2c-0.1,0,0,0.3-0.6,0.2V6.8L197,7V6.8
			L196.5,7l-0.2-0.4l-0.9,0.2V6.6h-0.9v0.2c-0.5,0.1-0.8-0.4-1.5,0c-0.1-0.2-0.1-0.4-0.2-0.6l-0.9,0.4V6.2h-0.2v0.2h-1.5V6.2
			l-0.6,0.2V6.1l-0.9,0.2v0.2h-0.7V6.2c-0.8-0.1-1.6-0.1-2.4,0.2V6.1l-1.1-0.2v0.2h-0.2V5.9h-1.1V5.7c-0.3,0-0.2,0.3-0.4,0.4
			c-0.3,0-0.3-0.2-0.7-0.2V5.5l-1.3,0.2v0.2c-0.3,0-0.2-0.3-0.4-0.4c-0.4-0.1-0.5,0.2-0.7,0.2c-0.4,0-1-0.6-1.3-0.7v0.4l-2.9-0.2
			l-0.2-0.4C175,4.6,174.9,5,174.7,5V4.8l-1.3-0.2V4.2c0,0-0.7,0-0.4-0.2h0.2V3.5h-0.7V3.1c-1,0.1-0.6,0.4-1.1,0.7l-1.1,0.4
			c-0.1-0.5-0.1,0,0-0.5L169,3.5v0.2h-0.2V3.5h-0.6V3.3H167c-0.3,0.1,0.1,0.2-0.2,0.2l-0.2-0.4l-0.9,0.2V3.1L164,2.9V2.8l-0.9,0.4
			V2.9H162l-0.2-0.4l-0.2,0.2h-0.9V2.6c-0.2,0.1-0.5,0.1-0.7,0.2V2.4l-0.9,0.4l-0.2-0.6c-0.5,0.1-0.4,0.2-0.9,0.4V2h-0.2v0.4h-0.6V2
			h-0.4v0.2l-1.8-0.4V1.5c-1.4-0.1-2.8-0.1-4.2,0V1.1c-0.3,0-0.5,0.1-0.7,0.2V0.9l-0.9,0.2c-0.1-0.1-0.2-0.2-0.4-0.2v0.2h-0.2
			c0,0-0.1-0.3-0.4-0.2v0.2h-0.2V0.6l-0.6,0.2V0.6h-0.2c-0.1,0.1-0.1,0.2-0.2,0.4H147V0.7h-0.2v0.2h-0.7c-0.1,0.3-0.1,0.6-0.2,0.9
			h0.2v0.5h0.2l0.2,0.6c0.2,0,0.5-0.1,0.7-0.2c0.1,0.2,0.1,0.4,0.2,0.5h0.2V2.9h0.2v0.4c0.6,0,1.1,0,1.6-0.2c0.1,0.5,0.1,0,0,0.6
			h1.1v0.2h0.2c0.2-0.1-0.1-0.2,0.2-0.2v0.2h0.4V4l0.6-0.2v0.4h0.2c0.2-0.2-0.2-0.2,0.2-0.4l0.2,0.4h1.1V4h0.2v0.2h0.7
			c0.6,0.2,0.4,0.8,0.9,0.2h0.2V5l0.6-0.2V4.6l0.9,0.2V5c0.6,0.2,0.9-0.2,1.3-0.4V5h0.6v0.4c0.4-0.1,0.3-0.1,0.6-0.4h0.9v0.2h0.2
			l-0.2,0.6l0.2-0.2h1.3V5.3h0.2l-0.2,0.4l0.7-0.2V5.1h0.2v0.6c0.2-0.1,0.3-0.3,0.7-0.2c0.1,0,0,0.5,0.6,0.4l0.2-0.4l1.5,0.4
			c0.4-0.7,0.3,0.3,1.3,0.2V5.9h0.2v0.2h0.7l0.2,0.4c0.2,0,0.3-0.3,0.7-0.2v0.2h0.9v0.2h0.2V6.4h0.2l-0.2,0.4c0.3,0,0.6-0.1,0.9-0.2
			l0.4,0.7l-0.4-0.2v0.4h0.4v0.5h0.2v0.2H171v0.4h0.2L171,8.8l0.2,0.2L171,9.5h0.4c-0.1,0.2-0.1,0.5-0.2,0.7
			c0.2,0.1,0.3,0.3,0.2,0.6c-0.1,0.3-0.2-0.1-0.2,0.2l0.2,0.4h-0.2v0.4h0.4c-0.1,0.5-0.1,1,0,1.5h0.2v0.2h-0.2
			c-0.1,0.2-0.1,0.4-0.2,0.6l0.4,0.2v0.6h0.2v0.2h-0.4c0,0.1,0.4,0.4,0.4,0.4c-0.1,0.2-0.1,0.4-0.2,0.6h0.2v0.2l-0.4,0.2l0.2,0.6
			h0.2l-0.2,0.4h0.2v0.7h-0.2c0.1,0.5,0.3,0.2,0.6,0.4c-0.3,0.4-0.5,0.9-0.4,1.5c0.1,0.3,0.2-0.1,0.2,0.2l-0.2,0.4
			c0,0,0.2,0,0.2,0.4l-0.2,0.4h0.2c-0.1,0.3-0.1,0.6-0.2,0.9l0.4,0.2l-0.2,0.4c0.1,0.1,0.4,0.1,0.4,0.4h-0.2v0.6h-0.2
			c0.1,0.4,0.2-0.1,0.4,0.2l-0.2,0.2v0.6h-0.2c0,0.3,0.3,0.2,0.4,0.4l-0.2,0.2V26h0.2v0.2h-0.2v0.2h0.2v0.2h-0.2v0.2h0.2
			c-0.1,0.2-0.1,0.5-0.2,0.7c-0.1,0.4,0.3,0.1,0.2,0.6c0,0-0.3,0.1-0.2,0.4l0.4,0.2c0.2,0.6-0.5,0.7-0.4,1.3h0.2v0.6h0.2
			c0.1,0.2,0,0.4-0.2,0.6l0.2,1.1h-0.2v0.7h0.2c0,0.4,0,0.9-0.2,1.3h0.4l-0.2,0.6h-0.4v0.2h0.2v0.4h0.2l-0.2,0.5h0.2v1.1h-0.2V37
			h0.4l-0.2,0.2c0,0.3,0.3,0.3,0.2,0.7h-0.2v0.7c0.1,0.3,0.2-0.1,0.2,0.2h-0.2v0.7c0.1,0.2,0.1,0.4,0.2,0.5h-0.2v0.2h0.2
			c0.1,0.2,0.1,0.4,0.2,0.5h-0.2v0.6h-0.2v0.2h0.2v1.3h0.2v0.2h-0.2v0.6h-0.2c-0.1,0.5,0.3,0.4,0.4,0.6c0,0.3-0.3,0.3-0.2,0.7h0.2
			v0.2h-0.2V46h0.2c0.1,0.3,0,0.6-0.2,0.9h-0.2l0.2,0.2v0.7h0.2V48h-0.2c0.1,0.2,0.1,0.4,0.2,0.5c-0.1,0.2-0.1,0.4-0.2,0.6h0.2
			c-0.1,0.3-0.1,0.6-0.2,0.9h0.2v0.4h0.2c-0.1,0.2-0.1,0.5-0.2,0.7h0.2v0.7h0.2c0,0.2-0.3,0.3-0.2,0.7l0.4,0.2
			c-0.1,0.1-0.1,0.2-0.2,0.4h0.2c0.1,0.3,0.2,0.6,0.2,0.9h0.6v0.4l0.6-0.2l0.6,0.2l0.2-0.4c0.6-0.3,0.9-0.1,1.1-0.9h-0.4l0.2-0.6
			h-0.2c-0.1-0.5-0.1-1-0.2-1.5h-0.4v-0.2c0,0,0.3-0.1,0.2-0.4c0,0-0.3-0.1-0.2-0.5c0,0,0.3-0.1,0.2-0.4l-0.4-0.2v-1.3h0.2
			c0.1-0.6-0.3-0.4-0.4-0.5l0.2-0.2v-1.8h0.2v-0.2h-0.2v-0.7h-0.2c0.1-0.2,0.4-0.4,0.4-0.4c0.1-0.3-0.2-0.3-0.2-0.4
			c-0.1-0.5,0-1,0.2-1.5h-0.4v-0.7h0.2v-0.2c-0.1-0.1-0.2-0.2-0.2-0.4h0.2l-0.2-0.4h0.2v-0.2h-0.2l0.2-0.6c-0.1-0.4-0.1-0.7-0.2-1.1
			h0.2v-0.2h-0.2v-0.7h-0.2c-0.2-0.8-0.1-1.7,0.4-2.4v-0.2l-0.6-0.2c0.1-0.3,0.3-0.3,0.4-0.4c0-0.3-0.3-0.3-0.2-0.7h0.2v-0.2
			c-0.2-0.1-0.2-0.3-0.2-0.6c0,0,0.2-0.1,0.2-0.4c-0.2-0.1-0.2-0.3-0.2-0.6h0.2c0-0.3,0-0.6-0.2-0.9h0.2l0.2-0.4h-0.4v-0.9H175v-0.2
			h0.2c0.1-0.2,0.1-0.4,0.2-0.5H175c0.1-0.5,0.3-0.4,0.4-1.1c-0.4-0.1-0.2,0-0.4-0.2h0.4c-0.1-0.5-0.2-0.4-0.4-0.9h0.4l-0.2-0.4H175
			c-0.1-0.3,0.2-0.3,0.2-0.4c-0.1-0.5-0.1-1-0.2-1.5h0.2v-0.2h-0.4c0.2-0.7-0.1-3.3,0.2-3.7v-0.6c-0.2,0.1-0.2,0.2-0.4,0.4
			c-0.1-0.2-0.1-0.4-0.2-0.6c0.1-0.4,0.5-0.8,0.4-1.5h-0.2l0.2-0.7l-0.4-0.2c-0.2-0.5,0.2-1.1,0.4-1.5l-0.6-0.2v-0.4
			c0.6-0.3,0.1-0.6-0.2-1.1l0.6-0.2c-0.2-0.2-0.4-0.4-0.6-0.5c-0.1-0.1,0-0.3,0.1-0.3c0,0,0,0,0.1,0v-0.2h-0.2
			c-0.1-0.4,0.2-0.5,0.2-0.7h-0.2V13h0.2v-1.1h-0.2c-0.1-0.4-0.1-0.7-0.2-1.1c0.4-0.1,0.2,0,0.4-0.2h-0.4V9.7c0,0-0.2,0-0.2-0.4h0.2
			V9.2L173.6,9c-0.1-0.3,0.3-0.1,0.4-0.4h-0.2l-0.2-0.9l0.4-0.2V7.3h0.2l0.6,0.2V7.3h0.2v0.2l0.6,0.2V7.5c0.3,0-0.1,0.1,0.2,0.2h0.6
			v0.2h0.2V7.7h0.7v0.2l0.4-0.2v0.2h0.7v0.2l0.6-0.2v0.2l2,0.2v0.2h0.2V8.3l0.6,0.2v0.2c0.3,0,0.3-0.2,0.7-0.2l0.9,0.2V8.4
			c0.1,0,0.8-0.1,0.6,0.2h-0.2v0.2c0.4-0.1,0.8-0.2,1.3-0.2V9h0.2c0.1-0.1,0.2-0.2,0.4-0.2c0.1,0,0,0.2,0.4,0.2V8.8L186,9V8.8h0.7V9
			h0.9v0.2h0.2V9h1.1v0.2c0.4,0.1,0.5-0.2,0.7-0.2c0.3,0-0.1,0.3,0.2,0.2l0.2-0.4L191,9l0.2,0.4l0.6-0.2V9c0.3,0.1,0.1,0.5,0.4,0.4
			V9.2l0.9,0.2c0.1-0.2,0.3-0.2,0.6-0.2c0.2,0-0.1,0.3,0.2,0.2V9.2h0.2c-0.1,0.1-0.1,0.2-0.2,0.4c0.8-0.1,1.6-0.1,2.4,0
			c0.1,0.4,0,0.2,0.2,0.4V9.5l1.8,0.2c0.1,0.1,0.1,0.2,0.2,0.4l1.5-0.2v0.2h2.2c0.1,0.1,0.1,0.2,0.2,0.4h0.2v-0.2
			c0.3,0-0.1,0.1,0.2,0.2l0.6-0.2v0.2h0.2v-0.2l1.1-0.2c0.2-0.7,0.2-1.4,0-2h0.2V7.9h-1.3L203.3,7.3z"/>
		<path id="パス_360" class="st1" d="M46.8,46.4V46h-0.2l-0.2-0.9c-0.5,0.1-1,0.1-1.5,0l-0.2,0.4H44c-0.1,0.1-0.1,0.4-0.4,0.4
			c-0.3-0.2,0.2-0.2-0.2-0.4L43.3,46c-0.3-0.1-0.6-0.2-0.9-0.4c-0.1,0.2-0.2,0.4-0.4,0.5v0.2l-0.4-0.2c-0.3,0-0.3,0.3-0.7,0.2
			c0,0-0.1-0.2-0.6-0.2v0.2h-0.2v-0.2l-1.1,0.2c-0.1-0.1,0-0.4-0.6-0.4v0.2h-0.9v0.2c-0.3,0.1-0.3-0.6-0.9-0.4l-0.2,0.4
			c-0.4,0.1-0.6-0.3-0.9-0.4v0.2c-0.5,0.1-0.7-0.2-0.9-0.2c-0.1,0.1-0.1,0.3-0.4,0.4c-0.2-0.2,0.1-0.2-0.2-0.2v0.2h-0.9v-0.2H33v0.2
			l-0.6-0.2v0.2l-0.4,0.2v-0.4l-0.6,0.2v-0.2H31V46h-0.2v0.4c-0.2,0.1-0.1-0.1-0.2-0.2c-0.3,0-0.3,0.2-0.7,0.2v-0.2h-0.2v0.2H29
			c-0.3,0,0.1-0.2-0.2-0.2v0.2l-0.6-0.2v0.2h-0.7v-0.2h-0.2v0.2h-1.3c0,0,0-0.2-0.4-0.2v0.2h-0.2v-0.2h-0.2v0.2c-0.3,0,0,0-0.2-0.2
			H25v0.2h-0.9v0.2h-0.2v-0.2h-0.7v0.2l-0.6-0.2v0.2h-0.4v0.2h-0.2v-0.2l-0.6,0.2v-0.2h-1.1l-0.2,0.4l-0.7-0.4v0.2l-1.8-0.2v0.2
			l-0.9,0.2v-0.4h-0.2c0,0.2-1.8,0.4-1.8,0.4v-0.6l-0.9-0.2v-0.4L12.9,46v-0.2h-0.2v0.4h-0.2c-0.2-0.2,0.2-0.3-0.2-0.5v0.2h-0.2
			c0.2-0.8,0.5-0.9-0.2-1.3v-1.6l-0.4,0.2l-0.2-0.9h0.2V42c-0.2,0-0.2-0.2-0.2-0.4c0,0,0,0,0,0c0.1-0.2,0.3,0.1,0.2-0.2h-0.2
			c-0.2-0.5-0.2-0.4,0-0.9h-0.4c-0.1-0.6-0.1-1.2-0.2-1.8c0-0.3,0.2,0.1,0.2-0.2h-0.2v-0.4h-0.2v-1.7h-0.6c0.1-0.5,0-0.4,0.6-0.5
			v-0.4h-0.6c0-0.5,0-1,0.2-1.5c-0.3-0.1-0.5-0.3-0.7-0.6h0.2c-0.3-0.4-0.1-0.4,0-0.9H9.4l0.2-0.6H9.4c-0.1-0.5-0.1-1.1,0-1.6H9
			v-0.4c0.7,0,1.1,0,1.5-0.4h0.9l-0.2,0.4c0.7-0.1,0.7-0.2,1.5-0.4v0.4h0.2v-0.4c0.3,0,0.3,0.3,0.7,0.2v-0.2h2c0,0,0,0.2,0.4,0.2
			l0.6-0.2v0.2l1.6-0.4v0.4c0.6-0.2,1.3-0.1,1.8,0.2v-0.4c0.7,0,1.4,0.3,1.8-0.2h0.2l-0.2,0.4l1.5-0.2v0.2h0.9v0.2h0.9v0.2
			c0.2,0,0.3,0,0.4-0.2c0.4-0.1,0.4,0.2,0.4,0.2h0.9l0.2,0.4l1.8-0.2v0.2h-0.6v0.2l1.1-0.2v-0.2h0.2v0.2h0.7V31h0.2
			c0-0.5,1.4-0.1,1.5,0c0.1,0,0.8,0.1,0.6-0.2h-0.2v-0.2c0.5,0.2,1,0.2,1.5,0.2v-0.2h0.7l0.2,0.4h0.2v-0.2h0.6v-0.2
			c0.3-0.1,0.3,0.1,0.4,0.2l0.2-0.2c0.4,0,0.4,0.2,0.4,0.2h2.2v-0.4h0.2V31l1.1-0.5l0.2-0.9h0.4v-0.4H40c0-0.3-0.1-0.6-0.2-0.9
			L39.6,28l-0.6,0.2V28h-2v-0.2c-0.3-0.1-0.3,0.2-0.4,0.2h-0.2v-0.2c0,0-1.5,0.1-1.6,0.2v0.2h-0.2V28c-0.4-0.1-0.4,0.2-0.4,0.2
			c-0.2,0-0.3-0.4-0.7-0.2v0.2h-0.2l0.2-0.4l-1.3,0.4v-0.4L30.5,28v-0.2h-0.4v-0.2c-0.6-0.1-0.5,0.6-1.3,0.4l-0.2-0.4l-0.7,0.2v-0.2
			h-0.2v0.2c-0.4,0-0.4-0.2-0.4-0.2h-0.9v-0.4h-0.2c0,0.5-0.3,0.2-0.6,0v-0.2c-0.4,0.2-0.8,0.2-1.3,0.2v-0.2h-0.9v0.2
			c-0.3-0.1-0.1-0.5-0.4-0.4v0.2l-0.6,0.2v-0.2h-0.4v-0.2c-0.6,0.1-1.1,0.2-1.6,0.4h-0.2v-0.2h-0.6v-0.2c-0.3-0.1-0.3,0.2-0.4,0.2
			h-1.6v-0.4l-0.6,0.4c-0.5-0.2-1.1-0.2-1.6,0v0.2h-0.2v-0.4c-0.2-0.1-0.3,0.3-0.7,0.2v-0.2h-0.4v-0.2c-0.5-0.1-0.4,0.3-0.5,0.4
			l-1.5-0.2v0.2l-0.9,0.2v-0.4h-0.2v0.2l-0.5-0.2v0.2l-0.4-0.2v0.2H10v0.2H9c0,0,0-0.7-0.2-0.4v0.2H8.7V26l-0.4-0.2v-0.2h0.2v-0.5
			H8.3l0.2-0.6l-0.4-0.2l0.2-0.9H8.1v-0.5H8v-0.2h0.2v-0.2H8c-0.1-0.4,0.2-0.5,0.2-0.7H7.8L8,21.4H7.8v-0.2H8c0-0.3-0.3-0.2-0.4-0.4
			v-0.4H7.4V20H7.2c0-0.4,0.1-0.9,0.2-1.3c-0.4-0.1-0.2,0-0.4-0.2H6.9v-0.2l0.4-0.2c0.1-0.3-0.3-0.2-0.4-0.4v-1.8H6.5L6.3,15h0.2
			v-0.2c-0.1-0.1-0.5-0.1-0.4-0.6h0.2v-0.2H5.8c0.1-0.8,0.1-1.1,0.2-1.8l-0.5-0.2L5,10.5c0.8-0.1,1.7-0.2,2.6-0.2l1.1,0.2l0.2-0.4
			h1.6V9.9c0.2-0.1,0.4,0,0.6,0.2c0.5,0.1,0.4-0.4,0.6,0c0,0.1,0,0.3,0.2,0.2L12,9.7l2,0.4V9.9c0.2,0,0.3,0,0.4,0.2
			c0.2,0,0.3,0,0.4-0.2l0.7,0.2V9.9l0.2,0.2l0.2-0.2H16v0.2h0.9V9.9l1.1,0.2V9.7c0.1,0.3,1.4,0.1,1.8,0.5c0,0,0.7,0,0.4-0.2H20V9.9
			c0.4,0.1,0.9,0.1,1.3,0.2v0.2h0.2v-0.2h0.7v0.4l1.1-0.2l0.2,0.4c0.2,0,0.5-0.3,0.9-0.2v0.2h0.7v0.2l0.7-0.4
			c0.1,0.2,0.1,0.4,0.2,0.5l1.3-0.4v0.2h0.4V11c0.3-0.1,0.6-0.2,0.9-0.2l0.2,0.2l0.4-0.2c0.5,0,0.5,0.1,0.6,0.2l0.2-0.2h0.2V11
			l1.6-0.2v0.4h0.4l0.2-0.4l0.9,0.2c0,0,0.3-0.7,0.4-0.5v0.2H34l-0.2-0.6h0.4L34,9.7h0.2V9.2H34v0.2h-0.2V9.2h-0.2
			C33.3,8.9,33.9,9,34,9V8.8h-0.4V8.3h-0.7V8.1h-0.2v0.2h-0.4v0.2c-0.2,0-0.5-0.3-0.9-0.2v0.2h-0.9V8.3h-2V8.1l-0.6,0.2V8.1h-1.3
			v0.2h-0.2V8.1h-0.4v0.2c-0.2-0.1-0.5-0.1-0.7-0.2V7.7h-0.9V7.5h-0.2v0.2l-0.7,0.2V7.7h-0.4V7.5l-1.8,0.2c-0.3-0.1-1.3-0.8-1.8-0.6
			l-0.2,0.4c-0.2,0.1-0.1-0.1-0.2-0.2c-0.2,0-0.3,0.3-0.7,0.2c-0.2-0.1,0-0.4-0.7-0.4c-0.2,0-0.5,0.3-0.9,0.2V7.2h-2.6
			c-0.3,0,0.1,0.2-0.2,0.2V7.2L13.4,7l-0.2,0.6h-0.4V7.3L12,7.5V7.3h-0.2L12,7l-0.7,0.2v0.2l-0.5-0.2v0.2L10,7.2L9.8,7.5
			C9.1,7.7,9.3,7.1,8.7,7.2v0.2H8.1v0.2H7.4v0.2c-0.3,0,0.1-0.1-0.2-0.2H5.9v0.4c0.4,0.1,0.2,0,0.4,0.2C5.9,7.9,5.5,7.8,5,7.7
			C4.9,8.1,5,7.9,4.8,8.1v0.2H4.6C4.6,8.1,4.8,7.8,4.5,7.9v0.4L4.1,8.1v0.4L3,8.3C2.8,8.5,2.8,8.4,2.6,8.6c0.2,0.1,0.1-0.1,0.2,0.2
			H2.5V8.4H1.9v0.2c-0.4,0.1-0.2,0-0.4,0.2H1.4v0.6H1.2c0.2,0.5,0.4,0.9,0.7,1.3h0.6l0.6,2H2.6C2.7,12.8,2.9,12.9,3,13v0.9h0.2v0.5
			h0.2V15l0.4,0.2c0.2,0.5-0.1,1-0.2,1.3l0.6,0.2v0.7h0.2c0.1,0.3-0.2,0.4-0.2,0.4C4,18.1,4.2,18,4.3,18.1l-0.2,0.6h0.2v0.4L5,19.4
			c-0.3,0.4-0.4,0.9-0.4,1.5h0.6c-0.1,0.2-0.4,0.3-0.4,0.4c0,0.2,0.2,0.3,0.4,0.4L5,22.5h0.6c-0.1,0.6-0.1,1.2-0.2,1.8l0.5,0.2
			c-0.9,0.7,0.1,0.8,0,1.5H5.7v0.2h0.2l-0.2,1.6H5l0.2,0.4H4.6v0.2l-0.6,0.2C4,29,4,29.3,3.9,29.7c0.5,0.1,0.4,0,0.6,0.6
			c0.5,0.1,1-0.1,1.5-0.4h0.2c0.1,0.4,0.1,0.7,0.2,1.1l0.6,0.4c0.1,0.1,0,0.3-0.2,0.4c0,0,0,0,0,0v0.2h0.2l-0.2,0.5L7,32.6v0.7H6.8
			C6.9,33.5,7,33.7,7,33.9h0.4c-0.1,0.4-0.2,0.8-0.2,1.3h0.4l0.2,2.4h0.2v0.4h0.2l-0.2,0.2l0.2,0.6c-0.1,0.1-0.3-0.1-0.2,0.2
			c0,0,0.6,0.5,0.6,0.7H8.3V40H8.1v0.2h0.2v0.9c0.2,0.4,1,0.4,0.2,1.1v0.2L9,42.2c-0.1,0.5-0.1,1-0.2,1.5H9V44h0.2l0.2,0.5H9
			c-0.3,0.2,0.3,0.2,0.4,0.2l-0.2,0.5l0.4,0.2v0.2h0.2L9.6,46H10v0.9L9,47.1v-0.2H8.9v0.2H8.7v-0.2H8.5v0.2c-0.2,0-1-0.4-1.5-0.2
			v0.2c-0.7,0-0.8,0.1-1.1,0.6c-0.2,0.2,0,0.7,0,1.5c0.5,0.1,0.4,0.2,0.9,0.4v0.4L9,49.7v-0.2c0.5,0,1,0.1,1.5,0.4l0.4-0.2
			c-0.1,0.4-0.1,0.7-0.2,1.1h0.4V51h-0.2v0.2h0.4v0.2c-0.3,0.2,0,0.2,0.2,0.4v0.2l0.9,0.2v0.2h0.6l-0.2,0.4h0.4
			c0.2-0.7,0.1-0.2,0.6-0.6l0.2-0.4H14c0.1-0.5,0.1-1.1,0.2-1.6c0.4-0.1,0.4-0.2,0.4-0.2h0.9v-0.2h0.4v-0.2c0.2-0.1,0.4,0,0.6,0.2
			l0.7-0.2v0.2h0.2v-0.2h1.5v-0.2c0.5-0.1,0.5,0.3,0.6,0.4c0.3,0.1,0.2-0.3,0.4-0.4h0.7v-0.2h0.2v0.4h0.5v-0.4
			c0.6,0.1,1.2,0.1,1.8,0v0.4c0.2,0.2,0.2-0.2,0.2-0.2h0.5v-0.2l0.6,0.2v-0.2l0.5-0.2v0.4c0.5-0.1,1.4,0,2-0.2v-0.2l0.4,0.2v-0.2
			h0.2v0.2l1.6-0.2v0.2l0.6-0.2c0.1,0.1,0.2,0.2,0.4,0.2v-0.2c0.5-0.1,0.6,0.2,0.6,0.2h0.7v-0.2l0.6,0.2v-0.2l0.6,0.2l0.2-0.4
			c0.1,0,0.5,0.3,0.9,0.2v-0.2l1.8,0.2v0.2c0.2,0,0.6-0.5,1.3-0.4v0.2h0.5v-0.2h0.2v0.2c0.4,0.1,0.9,0,1.3-0.2v0.4
			c0.5-0.1,0.4,0,0.6-0.6l0.9,0.2l0.2,0.4c0.5,0.2,0.7-0.5,1.5-0.4v0.2l1.8-0.4v-0.2h0.9l0.2-0.4l0.2,0.2c0.3,0,0.3-0.3,0.7-0.2
			c0,0,0.1,0.3,0.4,0.2V48l0.7-0.2c0.1-0.4,0.5-0.9,0.4-1.5L46.8,46.4z M9.4,29.7v-0.2h0.2v0.4c-0.4-0.1-0.2,0-0.4-0.2L9.4,29.7z"/>
		<path id="パス_361" class="st1" d="M18.9,7.2V7h-0.4C18.8,7.2,18.6,7,18.9,7.2z"/>
		<path id="パス_362" class="st1" d="M113.1,44v-0.7h0.2c-0.1-0.2-0.1-0.4-0.2-0.6h0.2v-0.2l-0.6,0.2c-0.1-0.5-0.1,0,0-0.5h-0.4
			v-0.4l-0.7,0.4c-0.5,0.1-0.5-0.2-0.6-0.2c-0.5-0.1-1.1-0.1-1.6,0v-0.4l-0.7,0.2V42c-0.3,0,0.1-0.2-0.2-0.2h-0.7V42l-0.7-0.2
			l-0.2,0.2v-0.4h-0.6v0.2H106c0.1,0.2,0.2,0.2,0.4,0.4l-0.9-0.2l-0.2-0.4c-0.3,0-0.3,0.4-0.4,0.4h-1.1v0.2c-0.4,0-0.9,0-1.3-0.2
			v0.2c-0.5,0-0.6-0.2-0.6-0.2h-1.1v0.2c-0.2,0.1-0.4,0-0.6-0.2c-0.5-0.1-1,0-1.5,0.2v-0.6c-0.3,0.1-0.5,0.4-0.9,0.4v-0.2h-0.6V42
			h-0.2c-0.1-0.1-0.2-0.2-0.4-0.2C96.7,42,96.5,42,96.3,42v-0.2L95,41.6v0.2c-0.2,0.1-0.4,0-0.5-0.2l-0.7,0.2v-0.2h-0.4v-0.2h-0.2
			v0.2h-0.7v-0.2c-0.3,0-0.3,0.2-0.7,0.2l-0.4-0.2v0.2h-0.6v0.2h-0.2l-0.2-0.4l-1.1,0.2v-0.2h-0.6v-0.2c-0.2-0.1-0.4,0-0.6,0.2
			c-0.5,0.1-0.5-0.1-0.6-0.2h-0.2v0.2c-0.5,0.1-0.4-0.1-0.6-0.2l-0.6,0.2c-0.1-0.5-0.1-1.1-0.2-1.6c0,0,0.2-0.1,0.2-0.4h-0.2v-0.6
			H86v-0.2h0.4L86,37.6h0.2v-0.7h0.2c0.1-0.5-0.4-0.4-0.4-0.7l0.4-0.2v-0.4H86l0.2-0.6h0.2c0.1-0.3,0,0-0.2-0.2l0.2-0.6H86
			c0.3-1,0.3-2,0-2.9h0.4c0-0.1,0.1-0.8-0.2-0.6V31H86c0.1-0.2,0.3-0.3,0.2-0.7C86,30.2,86,30,86,29.9c0,0,0.2-0.1,0.2-0.6H86v-0.2
			h0.2c0.1-0.4-0.2-0.5-0.2-0.5c0.1-0.2,0.1-0.5,0.2-0.7l0.9,0.2v0.4H88v-0.2h0.4c0.2,0.1-0.2,0.2-0.2,0.2l0.2,0.4h0.9
			c0,0,0.1-0.2,0.4-0.2v0.2l1.1,0.2v0.2l1.1-0.2v0.6c0.6-0.1,1.2-0.1,1.8,0v0.2h0.9v0.2H95v0.2l0.6-0.2v-0.2l0.4,0.2v-0.2h0.2
			l-0.2,0.6h0.4v-0.4c0.4,0.1,0.4,0.2,0.4,0.2h1.1l0.2,0.4c0,0,0.7,0,0.4-0.2h-0.2v-0.2c0.5,0.2,1.1,0.2,1.6,0v0.4l0.7-0.2
			c0.1,0.1,0.2,0.2,0.4,0.2v-0.2h0.9l0.4,0.2c0.1-0.2,0.3-0.2,0.6-0.2v0.2l0.6-0.2v0.2h0.4v0.2h1.1v0.2c0.7,0.2,0.7,0,1.5,0v0.4
			c0.4,0,0.6-0.2,0.7-0.2c0.3,0.2-0.2,0.1,0.2,0.4V31l0.7-0.2v0.4h0.2V31h0.2v0.2h0.6v0.2h0.2v-0.2h0.2v0.2h0.9v0.2l0.4-0.2v0.2
			c0.4-0.1,0.5,0,0.7-0.2V31l0.7-0.4v-0.7l-0.4,0.2c0.3-0.8,0-0.5-0.2-1.3h-0.7v-0.2h-0.2v0.2h-0.2v-0.2l-0.9-0.2v0.2l-0.7-0.2
			l-0.2,0.4h-0.2l0.2-0.6c0,0-1.1,0.2-0.6,0.2h0.2v0.2l-0.4-0.2c-0.2,0.1,0.1,0.2-0.2,0.2v-0.2h-0.4v-0.2l-0.7,0.2v-0.2h-1.1
			c0,0-0.1-0.1-0.4-0.2v-0.4l-1.5,0.2v-0.2h-0.2c-0.1,0.1,0,0.3-0.4,0.2c0,0-0.1-0.2-0.6-0.2v0.2h-0.2l-0.2-0.4
			c-0.4-0.1-0.5,0.2-0.7,0.2v-0.2c-0.3,0-0.4,0.2-0.4,0.2c-0.1,0-0.3,0-0.4-0.2c-0.4,0-0.4,0.2-0.7,0.4v-0.4h-0.6v-0.4h-0.9v0.4
			c-0.5-0.1-1.9-0.7-2.6-0.4l-0.2,0.4h-0.4v-0.7l-0.7,0.6v-0.4c-0.2,0-0.5-0.1-0.7-0.2v0.2h-0.2l-0.2-0.4h-0.9v-0.2h-1.3v0.2h-0.2
			c-0.5-0.1-0.8-0.5-1.5-0.6v-0.4l-1.3,0.2v-0.4l-0.9,0.2v-0.2h-0.4c-0.1-0.1-0.1-0.4-0.4-0.4v0.2h-0.2v-0.4h-0.2l0.2-0.6h0.2
			c-0.1-0.3-0.1-0.6-0.2-0.9c-0.1-0.5,0.7,0,0.4-0.2h-0.2v-0.6h-0.4v-0.2c0.3,0,0.2-0.6,0.2-0.9h0.4c-0.1-0.5-0.1-1.1,0-1.6
			c0-0.1,0.3,0,0.2-0.4l-0.4-0.2c0.1-0.6,0.2-1.2,0.4-1.8h-0.2v-0.4h-0.2c0.1-0.2,0.1-0.4,0.2-0.6h-0.2l0.4-0.6h-0.2v-0.4h-0.2V15
			h0.2v-1.5h0.2v-0.2l-0.2-0.2h0.2V13l1.6,0.2c-0.2,0.2,0,0.1-0.4,0.2v0.2h1.3v0.2h0.2c0,0,0.2-0.5,0.4-0.4l0.2,0.6h1.1v0.2H92v0.2
			h1.1l0.2,0.4c0.4-0.1,0.2-0.4,0.4-0.4l0.6,0.2v0.2c0.2,0,0.3,0,0.4-0.2H95v0.2l0.4-0.2v0.2h0.2v-0.2c0.3,0-0.1,0.1,0.2,0.2H97v0.2
			h0.2v-0.4l0.6,0.2v-0.2h0.7v0.2h0.4v0.2c0.7-0.2,1.5-0.3,2.2-0.2v0.2h0.7V15c0.4,0.1,0.9-0.4,1.5-0.2l0.2,0.4
			c0.4,0.2,0.5-0.2,0.7-0.2l0.2,0.4c0.4,0.2,0.5-0.2,0.7-0.2v0.2h0.4v0.2c0.3,0-0.1-0.1,0.2-0.2h0.6v-0.2c0.3,0,0.3,0.2,0.4,0.2h0.9
			v-0.2l0.7,0.2V15h0.4v-0.4h0.2c0.2-0.6-0.4-0.4-0.6-0.6v-0.2c0.2-0.1,0.4-0.2,0.6-0.4c-0.7-0.4-0.7-0.8-1.6-0.6v-0.4h-2v-0.2h-0.6
			v-0.2h-0.2l-0.2,0.4c-0.5-0.1-0.2-0.4-0.4-0.6l-0.4,0.2h-0.6v0.2h-0.2l0.2-0.4h-1.1v0.2h-0.2c-0.1-0.1-0.2-0.2-0.4-0.2v0.2H101
			l-0.2-0.6l-0.6,0.2v0.2l-0.6-0.2v0.2h-0.9v-0.2h-0.2v0.2h-0.4v-0.2c-0.2,0.1-0.5,0.1-0.7,0.2v-0.4h-0.2c-0.1,0.4-0.6,0.1-0.9,0.2
			v0.2l-0.4-0.2v0.2c-0.4,0.1-0.9,0-1.3-0.2v-0.2l-0.6,0.2v-0.2l-2-0.2c0,0,0-0.7-0.2-0.4c-0.2,0,0.1,0.3-0.2,0.2v-0.2h-0.7V11h-0.2
			v0.2c-0.4,0-0.4-0.2-0.4-0.2h-0.9v-0.2l-0.6-0.2v0.2h-0.2l-0.2-0.4l-1.8-0.2V9.9c0,0-0.4,0.3-0.7,0.2l0.2-0.4h-0.7l-0.2-0.4h-0.4
			V9.2c-0.9,0-1.7,0.5-2,1.3h-0.4v0.4l0.4,0.2l0.2,0.6h0.4c0.2,0.3,0.3,0.6,0.4,0.9c0.3,0.4,0,0.4-0.2,1.1h0.4v0.4h-0.4v0.6h0.4
			c-0.1,0.5-0.2,0.4-0.4,0.9h0.4c-0.1,1.1-0.1,2.2-0.2,3.3h0.2v0.2H84c0,0.3,0.2,0.4,0.2,0.4L84,19.8h0.2V20c0,0-0.3,0-0.4,0.4H84
			l0.2,0.6h-0.6v0.6c0.4,0.1,0.2,0,0.4,0.2h0.2C84,22,83.7,22,83.8,22.5H84v0.2h-0.2l-0.2,0.6H84l-0.4,0.6h-0.2l0.2,0.2
			c0.1,1-0.1,1.4-0.6,1.8v0.9l0.4,0.2l-0.2,0.4h0.4l-0.2,1.8h0.4c0,0.3-0.1,0.5-0.2,0.7h-0.2l0.2,0.6h-0.4v0.2h0.2l-0.2,0.6h0.2
			l0.2,0.6h-0.2v0.9h-0.2v0.2l0.4,0.2v1.3h-0.2v0.4h-0.2c-0.1,0.3,0,0,0.2,0.2l-0.2,1.1h0.4l-0.2,1.6h0.2v0.7c0,0-0.2,0-0.2,0.4
			l0.2,0.7h-0.2l0.2,0.4L83.4,40h0.2v0.2h-0.2c0,0.4,0.1,0.4,0.4,0.6v0.2h-0.6v-0.4c-0.2,0-0.5,0.1-0.7,0.2v-0.2H82v-0.2h-1.3v-0.2
			h-0.2v0.2c-0.3,0.2-0.6,0.3-0.9,0.4c-0.1,0.5-0.1,1-0.2,1.5c0.5,0.1,0.4,0.2,0.9,0.4v0.4c0.3,0,1.3,0.2,1.3,0.2v-0.2h0.2v0.6
			c0.7-0.3,0.8,0,1.5,0l0.2-0.2l0.2,0.6l0.6-0.2v0.2h0.2v-0.2h0.2v0.2l1.1-0.2V44l0.4-0.2V44l0.6,0.2v-0.4c0.7,0.1,1.5,0.2,2.2,0.2
			v0.4h0.2c0-0.1,0.2-0.2,0.3-0.2c0,0,0,0,0,0v0.2l0.6,0.2v-0.2h1.1v0.2h0.2v-0.2h1.1v-0.2h0.2v0.2c0.3,0,0.6-0.1,0.9-0.2v0.4
			l0.2-0.2c0.3,0,0.4,0.2,0.4,0.2l0.9-0.2c0,0,0.1,0.7,0.2,0.4v-0.2h0.4v-0.2c0.2,0,0.3,0,0.4,0.2l0.7-0.2v0.2l2.9,0.2v-0.2
			c0.3-0.1,0.3,0.2,0.4,0.2c1,0.2,2.1,0.2,3.1,0v-0.2l0.6,0.4v-0.2h0.6v-0.2c0.2,0,0.5,0.3,0.9,0.2v-0.2h0.5v-0.2h0.2v0.2h2v-0.2
			c0.3,0,0.3,0.3,0.7,0.2v-0.2h0.2v0.2c1.6,0.3,3.1-0.1,4,0.4c0.2-0.2,0.4-0.3,0.6-0.6h0.2C113.4,44.2,113.3,44.1,113.1,44
			C113.1,44,113.1,44,113.1,44z"/>
		<path id="パス_363" class="st1" d="M72.8,12.3c-0.1-0.1-0.5,0.2-0.4-0.2h0.2c-0.2-0.5,0-0.2-0.6-0.2l-0.2-0.6h-0.7v0.4h-0.4
			l-0.2,0.7h-0.2v-0.2h-0.2v0.2h-0.2v0.4L69.7,13c-0.1,0.2,0.3,0.4,0.2,0.7l-0.4,0.2c-0.1,0.3,0.2,0.3,0.2,0.4
			c0.1,0.4-0.1,0.5-0.2,0.7h0.2v0.2h-0.2v0.4h-0.2c-0.1,0.1,0,0.3,0.2,0.4c0,0,0,0,0,0v0.2h-0.2V17h-0.2v0.7L68.8,18
			c0.2,0.3,0.2,0.6,0.2,0.9h-0.2v0.4h-0.2c-0.1,0.2,0.1,0,0.2,0.2l-0.2,0.4c0.1,0.2,0.2-0.1,0.2,0.2h-0.4v0.2h0.2v0.2h-0.2
			c-0.1,0.2,0,0.4,0.2,0.6v0.2h-0.2v1.1h-0.2v0.7H68c-0.2,0.6-0.1,0.6,0,1.1h-0.4l-0.2,0.4h-0.2l0.2,1.1l-0.4,0.2v0.9
			c-0.1,0-0.5-0.1-0.4,0.2h0.2v0.2c-0.7,0.4,0.3,0.5-0.7,0.7c0.1,0.2,0.2,0.3,0.4,0.4c-0.2,0.7-0.7,1-0.9,1.6v0.6h0.2v0.2h-0.2
			c-0.1,0.4,0.1,0.2,0.2,0.4V31l-0.4,0.2v0.4h-0.2c0,0.4,0.1,0.7,0.2,1.1c0,0-0.5,0.3-0.6,0.6l-0.2,0.4h0.4l-0.7,2.4l0.2,0.2
			L64,36.3v-0.6h-0.4v-0.4c-0.4-0.1-0.2,0-0.4-0.2h0.4c-0.1-0.4,0-0.2-0.2-0.4c0,0,0-0.7-0.2-0.4v0.2h-0.2l0.2-0.6l-0.4-0.2V33h-0.4
			l0.2-0.7h-0.6c0.1-0.3,0.2-0.6,0.2-0.9h-0.6c-0.1-0.4-0.1-0.7,0-1.1h-0.2v-0.2h-0.2v0.2h-0.4l0.2-0.6l-0.4,0.2v-0.7
			c-0.2-0.1-0.4-0.1-0.2-0.2l-0.2-0.6H60l-0.2-0.6h-0.2l0.2-0.4h-0.2l-0.4-0.6c0.3-0.2,0.3-0.1,0.4-0.6l-0.7,0.2
			c-0.1-0.5-0.1,0,0-0.6h-0.4l-0.2-0.9H58v-0.6h-0.7c0.1-0.2,0.2-0.5,0.2-0.7h-0.4v-0.7h-0.4c-0.2-0.6-0.2-0.5-0.9-0.6
			c0.1-0.2,0.2-0.5,0.2-0.7h-0.4v-0.7c-0.7-0.2-0.4-0.4-0.9-0.7V20c-0.1,0-0.6,0.1-0.4-0.2c0,0,0.4,0,0.2-0.2h-0.4
			c-0.2-0.2-0.2-0.5-0.2-0.9h-0.4L53.4,18h-0.2v-0.7c-0.5,0.4-0.2-0.2-0.4-0.6h-0.2l-0.2-0.6c0.2-0.2,0.1,0,0.2-0.4h-0.4
			c0.4-0.4-0.3-0.6-0.4-1.1h-0.4c0-0.1,0.1-0.8-0.2-0.6v0.2h-0.2l0.2-0.6h-0.7c-0.3,0.1,0.1,0.2-0.2,0.2v-0.4l-0.6,0.2
			c-0.1,0.5,0,0.4-0.6,0.6l0.4,1.1h-0.2l-0.2,0.9l0.4,0.2c0.1,0.3,0.1,0.6,0.2,0.9h0.2v0.4h0.2c0.4,0.3,0.6,0.8,0.6,1.3h0.4
			c-0.1,0.4,0,0.2-0.2,0.4c0.2,0.7,0.7,0.9,0.9,1.6h0.4v0.4h0.4v1.1l0.7,0.2l-0.2,0.6h0.6v0.2h0.2c-0.2,0.2-0.2,0.5,0,0.7h0.2
			c0.2,0.2,0.3,0.5,0.4,0.7h0.4c0.1,0.5,0,0.4,0.6,0.6c0.1,1.6,0.8,1,1.1,2.2h0.5V28h-0.4c0.2,0.3,0.1,0.3,0.6,0.4v0.4h0.4v0.9h0.6
			c-0.1,0.4,0,0.2-0.2,0.4v0.2l0.6,0.2v0.4l0.4,0.2v0.4h0.2v0.7l0.4-0.2v0.4l0.4,0.2v0.2h-0.2V33H60v0.4h0.4c-0.3,0.2-0.1,1,0,1.3
			l0.4,0.2v0.7h0.6v0.2h-0.4l0.2,0.6h-0.2v0.2h0.2c0.3,0.3,0.4,0.7,0.4,1.1h0.4c0.1,0.4,0.1,0.9,0.2,1.3l0.4,0.2l-0.2,0.4h0.2
			c0.2,0.4,0.1,0.3,0,0.7h0.4c0.2,0.7,0.3,0.4,0.4,1.3l1.3,0.4v-0.2l0.7-0.2v0.4c0,0,0.7,0,0.4-0.2h-0.2v-0.2l0.7-0.2l0.2-0.9h0.2
			l-0.2-0.2l0.2-0.2l-0.2-0.4h0.2v-0.4h0.2v-0.4h0.2l0.2-1.3h0.2c0-0.3-0.6-0.4-0.4-0.9l0.7-0.6l-0.2-0.2V35h0.4l-0.2-0.9l0.4-0.2
			c0.1-0.2-0.2-0.9,0-1.5l0.4-0.2L68,31.7l0.6-0.4L68.4,31h0.2v-0.2c0-0.1-0.3,0.1-0.4-0.2h0.2l0.2-0.9l0.4-0.2v-0.4h0.2L69,28.4
			l0.6-0.4c0.1-0.2-0.3-0.3-0.2-0.7h0.2l0.2-0.7h0.2v-1.1h0.2v-0.4h0.2v-0.4l0.4-0.2l-0.2-0.4h0.2v-0.6l0.4-0.2l-0.2-0.6l0.4-0.2
			c0.1-0.5-0.3-0.4-0.4-0.6l0.2-1.3c0.6-0.2,0.1-0.4,0.4-1.1h0.2l-0.2-0.4l0.4-0.2l-0.2-0.4h0.2v-0.4h0.2L71.7,18h0.4
			c0.2-0.3-0.3-0.2-0.4-0.2v-0.2h0.2L71.7,17c0.4-0.1,0.2,0,0.4-0.2h0.2c0.2-0.3-0.2-0.6-0.2-0.6v-0.2h0.2l-0.2-0.4l0.4-0.2
			l-0.2-0.4l0.4-0.2c0.1-0.5-0.3-0.5-0.4-0.6l0.2-0.6h0.4v-0.4h-0.4l0.2-0.6h0.2l-0.2-0.6C72.7,12.2,72.8,12.5,72.8,12.3z
			 M64.4,36.8c-0.4-0.1-0.2,0-0.4-0.2h0.2v-0.2h0.2V36.8z"/>
		<path id="パス_364" class="st1" d="M146.5,19.4c0-0.3-0.3-0.3-0.4-0.4l0.2-0.2v-0.7h-0.2c0.1-0.5,0.1-1.1,0.2-1.6h-0.2l0.2-0.2
			c0-0.4-0.1-0.2-0.2-0.4v-0.2h0.2v-0.9h-0.2l0.2-0.4l-0.6-0.2v-0.2h-0.5v-0.2l-1.1,0.2v-0.2h-0.2c0,0.6-0.4,0.4,0.2,0.5v0.4h-0.4
			c-0.1,0.3-0.1,0.6-0.2,0.9h-0.2l0.2,1.8h-0.2v0.2h0.2v0.9h-0.2l0.4,1.3h-0.4l0.2,1.6h-0.4c0.1,0.5,0.3,0.4,0.4,0.6l-0.2,0.4h0.2
			c0.1,0.2,0,0.4-0.2,0.6l0.2,0.4h-0.2v0.4h-0.2l0.2,0.6h-0.2l-0.2,0.7h0.4c-0.2,1.1-0.2,2.2-0.2,3.3h0.2l-0.2,0.4h0.2l-0.4,1.1
			h-0.2v0.2h0.4c0,0.3-0.3,0.3-0.2,0.7h0.2c0.1,0.2,0,0.4-0.2,0.6v1.1h0.2v0.2l-0.4,0.2l0.2,0.9h-0.2v0.2h0.4
			c-0.1,0.1-0.4,0.4-0.2,0.7h0.2c-0.1,0.2-0.2,0.2-0.4,0.4c-0.1,0-0.5,0.1-0.4-0.2h0.2v-0.2h-0.2v-0.4l-0.4,0.2l-0.2-0.6l-0.4-0.2
			l0.2-0.4h-0.4v-0.6c-0.6-0.2-0.5-0.4-1.1-0.6v-0.7l-0.9-0.2v-0.6H139l-0.2-0.4h-0.2v-0.4l-0.7-0.5v-0.4h-0.4v-0.4
			c-0.3,0-0.6-0.2-0.7-0.5h-0.2l0.2-0.6l-0.6-0.2c-0.2-0.7-0.4-0.6-0.9-0.9c-0.1-0.1-0.1-0.2-0.4-0.4v-0.4h-0.4v-0.2
			c0.3-0.1,0.2,0.1,0.4-0.2h-0.4v-0.4c-0.8-0.2-0.2-0.2-0.6-0.6l-0.4,0.2v-0.2h-0.2l0.2-0.4h-0.2l-0.2-0.6h-0.6
			c-0.2-0.8-0.8-0.4-0.2-0.9c-0.5-0.6-0.5-0.4-1.3-0.4l0.2-0.6c-0.4-0.1-0.2,0-0.4-0.2h-0.2v-0.6c-0.5-0.1-0.4-0.2-0.9-0.4l-0.2-1.1
			c-0.4,0.1-0.2,0-0.4,0.2c-0.2-0.2-0.1-0.2-0.4-0.4v0.2h-0.2v-0.6h-0.4c-0.1-0.4,0-0.2-0.2-0.4v-0.2h-0.2v0.2H128l0.2-0.4l-0.7-0.2
			c-0.2-0.1-0.2-0.4-0.4-0.6c-0.5-0.5-1.3-0.2-2-0.2c-0.1,0.5-0.2,0.6-0.7,0.7c0,0,0,0.7,0.2,0.4v-0.2h0.2l-0.2,0.6h-0.2
			c0.1,0.3,0.3,0.5,0.4,0.9h0.4c-0.2,0.2,0,0.1-0.4,0.2c0.2,0.2,0,0.1,0.4,0.2v1.1l0.4,0.2v0.9l0.4,0.2v0.4h0.2
			c-0.1,0.3-0.1,0.6-0.2,0.9l0.6,0.2c-0.1,0.6-0.2,0.4,0,1.1h0.2l-0.2,0.6h0.2V26h0.2v0.6h0.2v1.1h0.2c0.1,0.7,0.1,1.5,0,2.2h0.4
			v1.3h-0.2v0.2h0.2l0.2,0.6h0.2l-0.4,1.1l0.6,0.4v0.9h-0.2c0.1,0.5,0.1,1,0.2,1.5h0.4c-0.1,0.2-0.3,0.3-0.4,0.4
			c0.1,0.4,0.4,0.2,0.4,0.4v0.2h-0.2c0,0.4,0.2,0.6,0.2,0.7l-0.2,0.2h0.4l-0.2,0.7h0.2v0.6h0.2v0.4h0.2l-0.2,0.6h0.2
			c0.1,0.5,0,0.4-0.2,0.6c0.2,0.2,0.4,0.2,0.6,0.4v0.4c0.3,0.2,0.6,0.3,0.9,0.4c0.2,0.2,0,0.1,0.4,0.2l0.2-0.6
			c0.4-0.1,0.2,0,0.4-0.2h0.2l-0.2-0.9l0.4-0.2l-0.2-0.4c0.2,0,0.2-0.2,0.2-0.4c0,0,0,0,0,0l-0.4-0.2c-0.1-0.2,0.1,0,0.2-0.2
			c0-0.3-0.2-0.4-0.2-0.4l0.2-0.6l-0.4-0.2l0.4-0.7l-0.4-0.2v-0.2h0.2v-0.9h-0.6l0.2-0.6h-0.2v-0.2h0.2c0.1-0.3,0.2-0.6,0.2-0.9
			h-0.6v-0.4c0.4-0.1,0.2,0,0.4-0.2h-0.4c0.2-0.5,0.2-1,0-1.5l-0.4-0.2v-0.4h0.4V31H130l0.2-0.6H130v-1.1h0.2l-0.2-0.9h-0.4
			c0-0.2,0.2-1.2,0.2-1.3l-0.4-0.2c-0.1-0.8-0.1-1.6-0.2-2.4h-0.4c-0.1-0.4-0.1-0.9-0.2-1.3h-0.2v-0.2h0.7c-0.2,0.2,0,0.1-0.4,0.2
			c0.3,0.4,0.4,0.1,0.6,0.7h0.6l-0.2,0.6l0.7-0.2c0,0.4,0,0.5,0.2,0.7h0.4l-0.2,0.6c0.2,0.3,0.5,0,0.7,0.2V26h0.2v0.6h0.4v0.6
			c0.5,0.1,0.4,0.2,0.9,0.4c0.1,0.3,0.1,0.6,0.2,0.9c0.3,0.2,0.6,0.3,0.9,0.4l0.2,0.9h0.6v0.7l0.7,0.2c-0.1,0.4,0,0.2-0.2,0.4v0.2
			h0.6v0.2l0.4,0.2c0.3,0.3-0.1,0.3,0.4,0.6v0.6h0.7c-0.9,0.4,0.5,0.9,0.9,0.9l-0.2,0.6h0.6c0.1,0.7,0.2,0.5,0.4,1.1l0.7,0.2
			c0.1,0.4,0.4,0.8,0.7,1.1h0.2v0.4h0.2l-0.2,0.4c0.3,0.4,0.7,0.4,0.9,1.1h0.4v0.6h0.4v0.4c0.5,0.1,0.6,0.2,0.7,0.7h1.3
			c0.4-0.5,0.8-0.6,1.1-1.3h0.2l-0.2-0.6h0.2v-0.2h-0.2c0-0.2,0.3-0.5,0.2-0.9c0,0-0.2,0-0.2-0.4h0.2c0-0.2-0.3-0.3-0.2-0.7h0.2
			v-1.3c0-0.1-0.2-0.1-0.2-0.4h0.2c0.1-0.5-0.2-0.6-0.2-0.6v-0.9h0.2c0.1-0.5,0-1-0.2-1.5h0.4V31h-0.4l0.2-0.7h0.2l-0.2-1.1h0.2
			c0.1-0.4-0.2-0.5-0.2-0.7h0.2v-0.7h-0.2v-0.2l0.4-0.2c-0.1-0.8-0.1-0.6,0.2-1.3h-0.4l0.2-0.6c-0.2-0.1-0.2-0.3-0.2-0.6
			c0,0,0.2,0,0.2-0.4c-0.2-0.1-0.2-0.2-0.2-0.4c0,0,0.2-0.1,0.2-0.4l-0.2-0.6h0.2v-0.2c0-0.3-0.1-0.6-0.2-0.9h0.2v-1.1h0.2l-0.2-0.2
			c0-0.3,0.1,0.1,0.2-0.2c0-0.1-0.1-0.3-0.2-0.4l0.2-0.9L146.5,19.4z"/>
		<path id="パス_365" class="st1" d="M97.5,14.8V15h0.7v-0.4c-0.4,0.1-0.2,0-0.4,0.2H97.5z"/>
		<path id="パス_366" class="st1" d="M9.6,29.9v-0.4H9.4v0.2H9.2C9.4,29.9,9.2,29.8,9.6,29.9z"/>
		<path id="パス_367" class="st1" d="M20.6,30.1v-0.2h-0.4C20.4,30.1,20.2,30,20.6,30.1z"/>
		<path id="パス_368" class="st1" d="M101.9,30.6v-0.2h-0.4C101.8,30.6,101.6,30.5,101.9,30.6z"/>
		<path id="パス_369" class="st1" d="M64.2,36.7H64c0.2,0.2,0,0.1,0.4,0.2v-0.4h-0.2L64.2,36.7z"/>
	</g>
</g>
</svg>
