<?xml version="1.0" encoding="utf-8"?>
<!-- Generator: Adobe Illustrator 24.2.0, SVG Export Plug-In . SVG Version: 6.00 Build 0)  -->
<svg version="1.1" id="レイヤー_1" xmlns="http://www.w3.org/2000/svg" xmlns:xlink="http://www.w3.org/1999/xlink" x="0px"
	 y="0px" viewBox="0 0 310 278" style="enable-background:new 0 0 310 278;" xml:space="preserve">
<g id="グループ_213" transform="translate(-355.848 -244.799)">
	<g id="グループ_1" transform="translate(420.289 244.799)">
		<path id="パス_1" d="M163.6,140.8c-1.2-10.7,3.4-15.4,6.4-34.2c4-25.1-7.7-40.4-16.9-49.8c-12.2-12.5-28-17.7-39.1-21.4
			c-12.7-4.3-19.4-8.4-22.3-16.1C87.4,7.6,88.9,1.5,85.2,1.5c-3.3,0-1.7,11.4-7.6,19.8C66.3,37.2,36,36.6,15.8,64.7
			c-19.6,27.2-9.1,48.3-5.9,64c1.9,9.3,2.5,13.7,1,19.3c-1.4,5.3-4.8,9.9-9.5,12.8c7.3,7.9,22,6.9,28.5,2.6s12.3-14.3,10.7-31.7
			c15.6,1.9,31.2,2.6,46.9,2.1c24.5-0.8,37.9-1.6,46.7-4.1c-0.9,21.4,3.2,27.2,12.3,31.6c9.7,4.7,21.2,0,27.5-5.6
			C170,153.9,164.7,150.5,163.6,140.8z"/>
		<path id="パス_2" d="M57.2,141.5c-3,0-5.4,2.4-5.4,5.4c0,3,2.4,5.4,5.4,5.4c3,0,5.4-2.4,5.4-5.4c0,0,0,0,0,0
			C62.6,143.9,60.2,141.5,57.2,141.5z"/>
		<circle id="楕円形_1" cx="118.3" cy="146.2" r="5.4"/>
		<path id="パス_3" d="M94.7,157.7c-2-0.7-4-1.1-6.1-1.2c-1.2,0-2.5,0.2-3.7,0.5c-2.7,0.7-5,2.7-6,5.3c-1.4,3.5,0,7.6,3.3,9.5
			l0.2,0.1l-0.2,0.1c-0.6,0.4-1.2,0.9-1.6,1.5c-1.3,1.6-1.9,3.8-1.5,5.9c0.4,2.1,1.7,4,3.5,5.2c2.1,1.1,4.5,1.7,6.9,1.7
			c1.8,0.2,3.7,0,5.4-0.6l0,0v0l0-3.8c0,0-0.1,0-0.1,0c-4.7,1-7.1,1-9.5-0.2c-1-0.6-1.8-1.5-2-2.7c-0.3-1.2-0.1-2.4,0.6-3.4
			c0.1-0.1,0.2-0.2,0.2-0.4c0.6-1,1.5-2.2,4.8-2c0.7,0,1.2,0.1,1.7,0.1c0.3,0,0.6,0,0.9,0c0.1,0,0.1,0,0.1,0
			c0.1-0.1,0.1-0.3,0.1-0.3v-0.4c0-0.2,0-0.4,0-0.6l0-1.7c0,0,0-0.1-0.1-0.1l-0.6,0c-2,0-4-0.3-5.9-1c-2-0.9-2.9-3.2-2-5.1
			c0-0.1,0-0.1,0.1-0.2c0.7-1.4,2-2.4,3.5-2.6c1.4-0.2,2.8-0.2,6.1,0.3c0.2,0,1.1,0.2,1.5,0.2l0.2-1.9
			C94.7,159.5,94.7,158.1,94.7,157.7z"/>
		<path id="パス_4" d="M94.9,157.6l0-0.1l-0.1,0c-3.9-1.1-6.1-1.7-10-0.7c-2.8,0.7-5.1,2.8-6.2,5.5c-1.4,3.6-0.1,7.7,3.2,9.7
			c-0.6,0.4-1.1,0.9-1.5,1.4c-1.4,1.7-1.9,3.9-1.5,6.1c0.4,2.2,1.7,4.2,3.6,5.4c2.2,1.1,4.6,1.7,7,1.8c0.6,0,1.1,0,1.5,0
			c1.3,0,2.7-0.3,4-0.7c0.1,0,0.2-0.1,0.2-0.2c0-0.1,0-0.2,0-0.2l0-3.8l0-0.1c-0.1-0.1-0.3-0.2-0.4-0.2c-4.6,1-7,0.9-9.3-0.2
			c-0.9-0.5-1.6-1.4-1.8-2.5c-0.3-1.1-0.1-2.3,0.6-3.2c0.1-0.1,0.2-0.2,0.3-0.4c0.6-1,1.3-2,4.6-1.9c0.7,0,1.2,0.1,1.7,0.1
			c0.3,0,0.6,0,0.9,0c0.1,0,0.3,0,0.4-0.1c0.1-0.2,0.2-0.4,0.2-0.6v-0.4c0-0.2,0-0.4,0-0.6l0-1.7c0-0.2-0.2-0.4-0.4-0.4
			c-0.2,0-0.4,0-0.6,0c-2,0-3.9-0.3-5.8-1c-1.8-0.8-2.7-2.9-1.9-4.8c0,0,0-0.1,0.1-0.1c0.6-1.3,1.9-2.2,3.3-2.4
			c1.3-0.2,2.7-0.2,6,0.3c1.6,0.3,1.7,0.2,1.7,0.1l0,0l0.2-2.1h0C95,159.1,95,158.4,94.9,157.6z M93,161.5c-3.3-0.5-4.8-0.6-6.1-0.3
			c-1.5,0.2-2.9,1.2-3.5,2.6c-0.9,1.9-0.1,4.3,1.8,5.2c0.1,0,0.1,0,0.2,0.1c1.9,0.7,3.9,1.1,5.9,1l0.6,0c0.1,0,0.1,0,0.1,0.1l0,1.7
			c0,0.2,0,0.3,0,0.6l0,0.4c0,0.1,0,0.3-0.1,0.3c0,0-0.1,0-0.1,0c-0.3,0-0.6,0-0.9,0c-0.5,0-1,0-1.7-0.1c-3.4-0.1-4.2,1.1-4.8,2
			c-0.1,0.1-0.2,0.2-0.2,0.4c-0.7,1-0.9,2.3-0.6,3.4c0.2,1.1,1,2.1,2,2.7c2.4,1.2,4.7,1.2,9.5,0.2c0,0,0.1,0,0.1,0l0,3.8v0l0,0
			c-1.7,0.6-3.6,0.8-5.4,0.6c-2.4,0-4.7-0.6-6.9-1.7c-1.8-1.2-3.1-3-3.5-5.2c-0.4-2.1,0.2-4.2,1.5-5.9c0.4-0.6,1-1.1,1.6-1.5
			l0.2-0.1l-0.2-0.1c-3.3-1.9-4.7-6-3.3-9.5c1-2.6,3.3-4.6,6-5.3c1.2-0.3,2.4-0.5,3.7-0.5c2.1,0.1,4.1,0.5,6.1,1.2c0,0.3,0,1.8,0,2
			l-0.2,1.9C94.1,161.7,93.1,161.6,93,161.5L93,161.5z"/>
		<path id="パス_5" d="M115.1,175.9c-0.4,0.1-0.8,0.4-1.1,0.7c-0.2,0.3-0.6,0.4-0.9,0.3c-0.4-0.1-0.9-0.1-1.3,0.1
			c-1.2,0.3-1.9,1.5-1.6,2.7c0.1,0.2,0.1,0.3,0.2,0.4c0.7,1.2,2.7,1.7,4.6,1.1s3.3-2.1,3.2-3.5c0-0.2,0-0.3-0.1-0.5
			C117.5,176,116.2,175.5,115.1,175.9z"/>
	</g>
	<g id="グループ_3" transform="translate(355.848 449.424)">
		<g id="グループ_2" transform="translate(36.049 62.497)">
			<path id="パス_6" d="M2.7,1.6l2.5,3l2.5-3h1.3v7.6H7.6V3.9h0L5.4,6.6H5.1L2.9,3.9h0v5.4H1.4V1.6H2.7z"/>
			<path id="パス_7" d="M16,1.5c0.7,0,1.5,0.2,2.1,0.5c1.9,1,2.6,3.3,1.6,5.2c-0.4,0.7-0.9,1.3-1.6,1.6c-1.4,0.7-3,0.7-4.3,0
				c-1.3-0.7-2.1-2-2.1-3.4c0-0.7,0.2-1.4,0.5-2c0.4-0.6,0.9-1.1,1.5-1.4C14.5,1.7,15.2,1.5,16,1.5z M13.3,5.4c0,0.5,0.1,1,0.3,1.4
				c0.2,0.4,0.6,0.7,1,0.9C15,8,15.5,8.1,16,8.1c0.7,0,1.4-0.2,1.9-0.7c0.5-0.5,0.8-1.2,0.8-1.9c0-0.5-0.1-1-0.3-1.4
				c-0.2-0.4-0.6-0.7-1-0.9c-0.4-0.2-0.9-0.3-1.4-0.3c-0.5,0-1,0.1-1.4,0.3c-0.4,0.2-0.7,0.5-1,0.9C13.4,4.5,13.3,5,13.3,5.4
				L13.3,5.4z"/>
			<path id="パス_8" d="M24.2,1.6l2.5,3l2.5-3h1.3v7.6h-1.5V3.9h0l-2.2,2.7h-0.2l-2.2-2.7h0v5.4h-1.5V1.6H24.2z"/>
			<path id="パス_9" d="M35.3,1.6l2.5,3l2.5-3h1.3v7.6h-1.5V3.9h0l-2.2,2.7h-0.2l-2.2-2.7h0v5.4H34V1.6H35.3z"/>
			<path id="パス_10" d="M45.6,1.6l1.9,2.6l1.9-2.6h1.8l-2.9,3.9v3.8h-1.5V5.5l-2.9-3.8L45.6,1.6z"/>
			<path id="パス_11" d="M54,1.5c0.3,0,0.5,0.1,0.7,0.3C54.9,2.1,55,2.4,55,2.7c0,1-0.7,1.8-1.7,2V4.4c0.3-0.3,0.5-0.7,0.5-1.2
				l0-0.2c-0.4,0-0.7-0.4-0.6-0.7c0,0,0,0,0,0c0-0.2,0.1-0.4,0.2-0.5C53.6,1.6,53.8,1.5,54,1.5z"/>
			<path id="パス_12" d="M60.1,1.5c0.8,0,1.5,0.2,2.1,0.6v1.3c-0.6-0.4-1.4-0.7-2.1-0.7c-0.3,0-0.6,0.1-0.9,0.2
				C59.1,3,59,3.2,59,3.5c0,0.3,0.2,0.6,0.6,0.8c0.1,0.1,0.5,0.3,1.3,0.6c0.5,0.2,1,0.6,1.4,1c0.3,0.4,0.4,0.8,0.4,1.3
				c0,0.6-0.2,1.2-0.7,1.6c-0.5,0.4-1.2,0.6-1.8,0.6c-0.4,0-0.9,0-1.3-0.2c-0.4-0.1-0.8-0.3-1.2-0.6V7.2c0.6,0.6,1.4,1,2.3,1
				c0.3,0,0.6-0.1,0.9-0.2c0.2-0.1,0.3-0.4,0.3-0.6c0-0.4-0.2-0.7-0.6-0.9c-0.3-0.2-0.7-0.4-1.2-0.6c-0.5-0.2-1-0.5-1.3-1
				c-0.3-0.4-0.5-0.8-0.4-1.3c0-0.6,0.2-1.2,0.7-1.5C58.8,1.7,59.4,1.5,60.1,1.5z"/>
			<path id="パス_13" d="M72.4,1.6v3.2h4V1.6h1.5v7.6h-1.5V6h-4v3.2h-1.5V1.6H72.4z"/>
			<path id="パス_14" d="M84.9,1.5c0.7,0,1.5,0.2,2.1,0.5c1.9,1,2.6,3.3,1.6,5.2c-0.4,0.7-0.9,1.3-1.6,1.6c-1.4,0.7-3,0.7-4.3,0
				c-1.9-1-2.6-3.3-1.6-5.2c0-0.1,0.1-0.1,0.1-0.2C81.5,2.9,82,2.4,82.7,2C83.3,1.7,84.1,1.5,84.9,1.5z M82.2,5.4
				c0,0.5,0.1,1,0.3,1.4c0.2,0.4,0.6,0.7,1,0.9c0.4,0.2,0.9,0.3,1.4,0.3c0.7,0,1.4-0.2,1.9-0.7c0.5-0.5,0.8-1.2,0.8-1.9
				c0-0.5-0.1-1-0.3-1.4c-0.2-0.4-0.6-0.7-1-0.9c-0.4-0.2-0.9-0.3-1.4-0.3c-0.5,0-1,0.1-1.4,0.3c-0.4,0.2-0.7,0.5-1,0.9
				C82.3,4.5,82.1,5,82.2,5.4L82.2,5.4z"/>
			<path id="パス_15" d="M92.9,1.6l2.5,3l2.5-3h1.3v7.6h-1.5V3.9h0l-2.2,2.7h-0.2l-2.2-2.7h0v5.4h-1.5V1.6H92.9z"/>
			<path id="パス_16" d="M107.7,1.6v1.2h-3.5v2h3.3v1.2h-3.3v2.2h3.5v1.2h-5V1.6L107.7,1.6z"/>
			<path id="パス_17" d="M112.5,1.6l2.5,3l2.5-3h1.3v7.6h-1.5V3.9h0l-2.2,2.7h-0.2l-2.2-2.7h0v5.4h-1.5V1.6H112.5z"/>
			<path id="パス_18" d="M126,1.6l3.4,7.6h-1.6L127,7.4h-3.4l-0.7,1.9h-1.5l3.2-7.6H126z M124.1,6.3h2.5l-1.3-3L124.1,6.3z"/>
			<path id="パス_19" d="M134.6,1.6c0.7,0,1.5,0.2,2.1,0.5c0.6,0.3,1.1,0.8,1.4,1.4c0.3,0.6,0.5,1.3,0.5,2c0,0.7-0.2,1.4-0.5,2
				c-0.3,0.6-0.9,1-1.5,1.3c-0.7,0.3-1.4,0.5-2.2,0.5h-3.1V1.6H134.6z M134.5,8.1c0.7,0,1.4-0.2,2-0.7c1-1.1,1-2.8,0-3.9
				c-0.5-0.5-1.3-0.8-2-0.7h-1.5v5.3L134.5,8.1z"/>
			<path id="パス_20" d="M146.2,1.6v1.2h-3.5v2h3.3v1.2h-3.3v2.2h3.5v1.2h-5V1.6L146.2,1.6z"/>
			<path id="パス_21" d="M157.9,1.6c0.7,0,1.5,0.2,2.1,0.5c0.6,0.3,1.1,0.8,1.4,1.4c0.3,0.6,0.5,1.3,0.5,2c0,0.7-0.2,1.4-0.5,2
				c-0.3,0.6-0.9,1.1-1.5,1.3c-0.7,0.3-1.4,0.5-2.2,0.5h-3.1V1.6H157.9z M157.7,8.1c0.7,0,1.4-0.2,2-0.7c1-1.1,1-2.8,0-3.9
				c-0.5-0.5-1.3-0.8-2-0.7h-1.5v5.3L157.7,8.1z"/>
			<path id="パス_22" d="M168.3,1.5c0.7,0,1.5,0.2,2.1,0.5c1.9,1,2.6,3.3,1.6,5.2c-0.4,0.7-0.9,1.3-1.6,1.6c-1.4,0.7-3,0.7-4.3,0
				c-1.9-1-2.6-3.3-1.6-5.2c0.4-0.7,0.9-1.2,1.6-1.6C166.8,1.7,167.5,1.5,168.3,1.5z M165.6,5.4c0,0.5,0.1,1,0.3,1.4
				c0.2,0.4,0.6,0.7,1,0.9c0.4,0.2,0.9,0.3,1.4,0.3c0.7,0,1.4-0.2,1.9-0.7c0.5-0.5,0.8-1.2,0.8-1.9c0-0.5-0.1-1-0.3-1.4
				c-0.2-0.4-0.6-0.7-1-0.9c-0.4-0.2-0.9-0.3-1.4-0.3c-0.5,0-1,0.1-1.4,0.3c-0.4,0.2-0.7,0.5-1,0.9C165.7,4.5,165.6,5,165.6,5.4
				L165.6,5.4z"/>
			<path id="パス_23" d="M176.3,1.6v4.5c0,0.4,0.1,0.7,0.2,1.1c0.2,0.3,0.4,0.5,0.7,0.7c0.3,0.2,0.7,0.3,1.1,0.3
				c0.4,0,0.8-0.1,1.2-0.2c0.3-0.1,0.5-0.4,0.7-0.7c0.2-0.4,0.2-0.8,0.2-1.2V1.6h1.5v4.5c0.1,0.9-0.3,1.8-0.9,2.4
				c-0.7,0.6-1.7,0.9-2.6,0.8c-0.6,0-1.3-0.1-1.8-0.4c-0.5-0.2-0.9-0.6-1.2-1.1c-0.3-0.5-0.4-1.1-0.4-1.7V1.6L176.3,1.6z"/>
			<path id="パス_24" d="M188.7,1.5c1,0,1.9,0.2,2.8,0.6v1.4c-0.8-0.4-1.8-0.7-2.7-0.7c-0.5,0-1,0.1-1.5,0.3c-0.4,0.2-0.8,0.5-1,1
				c-0.2,0.4-0.4,0.9-0.4,1.4c0,0.7,0.3,1.4,0.8,1.9c0.6,0.5,1.3,0.7,2.1,0.7c0.2,0,0.4,0,0.7-0.1c0.3-0.1,0.5-0.1,0.8-0.2V6.5h-1.3
				V5.4h2.7v3.2c-0.4,0.3-0.9,0.5-1.4,0.6c-0.5,0.1-1.1,0.2-1.6,0.2c-0.8,0-1.5-0.2-2.2-0.5c-1.3-0.6-2.1-2-2.1-3.4
				c0-0.7,0.2-1.4,0.6-2c0.4-0.6,0.9-1.1,1.5-1.4C187.1,1.7,187.9,1.5,188.7,1.5z"/>
			<path id="パス_25" d="M196.3,1.6v3.2h4V1.6h1.5v7.6h-1.5V6h-4v3.2h-1.5V1.6H196.3z"/>
			<path id="パス_26" d="M206.2,1.6l4.5,5.3V1.6h1.4v7.6h-1.3l-4.6-5.4v5.4h-1.4V1.6H206.2z"/>
			<path id="パス_27" d="M216.6,1.6v4.5c0,0.4,0.1,0.7,0.2,1.1c0.2,0.3,0.4,0.5,0.7,0.7c0.3,0.2,0.7,0.3,1.1,0.3
				c0.4,0,0.8-0.1,1.2-0.2c0.3-0.1,0.5-0.4,0.7-0.7c0.2-0.4,0.2-0.8,0.2-1.2V1.6h1.5v4.5c0.1,0.9-0.3,1.8-0.9,2.4
				c-0.7,0.6-1.7,0.9-2.6,0.8c-0.6,0-1.3-0.1-1.8-0.4c-0.5-0.2-0.9-0.6-1.2-1.1c-0.3-0.5-0.4-1.1-0.4-1.7V1.6L216.6,1.6z"/>
			<path id="パス_28" d="M231.4,1.6v1.2h-2.7v6.5h-1.5V2.8h-2.7V1.6L231.4,1.6z"/>
		</g>
		<path id="パス_29" d="M29.5,8.5c-0.1,0-0.2,0-0.4,0c-1.5,0.2-3,0.2-4.5,0.1c-2,0.1-4,0.3-6,0.4c0-0.2,0.1-0.4,0-0.6
			c-0.3-2-0.4-4-0.4-6.1c0-0.3,0-0.6-0.2-0.8c-0.6,0-1.2,0-1.8,0.1c-1.1,0.1-2.3,0.1-3.4,0.2c-0.2,0.3-0.3,0.7-0.3,1.1
			c0.2,2.2,0.4,4.3,0.6,6.5C11,9.5,8.7,9.7,6.4,9.8c-0.1,0-0.1,0.1-0.2,0.1c-1.5,0.3-3.1,0.5-4.7,0.6c-0.1,0.1-0.1,0.1-0.2,0.2
			C1.7,14,2,17.2,2.2,20.4c2,0.1,4,0.2,6,0.3c-0.1-0.9-0.1-1.9-0.1-2.9c-0.2-1.2-0.3-2.4-0.5-3.5c6.7,0,13.4,0,20.1-0.2
			c-3.1,11.7-6.6,23.2-10.7,34.6c-0.2,0.4-0.1,0.9,0.1,1.4c1.7,0.4,3.5,0.7,5.2,1.1c0.3-0.2,0.4-0.5,0.5-0.9
			c3.1-10.5,6.4-21.1,9.7-31.6c0.6-3.1,1.4-6.1,2.1-9.1l0-0.1c0-0.2-0.1-0.4-0.2-0.6C32.8,8.8,31.2,8.6,29.5,8.5z"/>
		<path id="パス_30" d="M80.7,9.1C80,9.1,79.3,9,78.6,9c-1.2,0.1-2.4,0.2-3.7,0.1c-7.4,0.6-14.7,1.3-22.1,2.1
			c-1.2,0.3-2.4,0.6-3.7,0.8c-0.2,0.1-0.3,0.3-0.4,0.4c0,0,0,0-0.1,0.1c0.2,1.2,0.4,2.4,0.6,3.5c0.4,0.2,0.7,0.2,1.1,0.2
			c8.2-1.2,16.4-1.9,24.7-2.3c-5,8.3-9.7,16.8-13.9,25.5c-0.1,0.3-0.2,0.6-0.2,0.8c0.5,0.6,1,1.2,1.6,1.8c0.3,0.1,0.6,0.3,0.9,0.4
			c0.1,0,0.2,0,0.4-0.1c0.4-0.5,0.9-1,1.2-1.5c0.6-0.8,1.1-1.7,1.7-2.5c3.9-6.7,7.6-13.4,11.2-20.2c0.8-2.2,1.8-4.4,2.9-6.5
			c0.2-0.6,0.3-1.2,0.5-1.8c-0.1-0.2-0.2-0.4-0.3-0.6C81,9.3,80.8,9.2,80.7,9.1z"/>
		<path id="パス_31" d="M116.3,9.7c-0.7-0.1-1.4-0.2-2.1-0.3l-0.5,0c-0.9-0.1-1.9-0.1-2.8-0.2C106,9,101.1,9.2,96.2,9.8
			c-0.4,0-0.9,0-1.3,0c-0.5,0-0.9,0.1-1.2,0.4c0,1.1,0.1,2.2,0.1,3.3c0.2,0.1,0.4,0.3,0.7,0.3c0.3,0.2,0.7,0.2,1,0.2
			c0.2,0,0.5,0,0.7-0.1c5.1,0.1,10.2,0.2,15.3,0.1c-0.1,0.2-0.1,0.4-0.2,0.6c-6.7,11.6-13,23.3-18.7,35.4c-0.1,0.2-0.1,0.4-0.1,0.6
			c0,0.1,0.1,0.1,0.1,0.2c1.3,0.6,2.5,1.2,3.7,1.9c0.1,0,0.1,0,0.2,0c0.1,0,0.2,0,0.3,0c0.1-0.1,0.2-0.2,0.3-0.4
			c6-11.8,13.1-23.6,18-36c0.3-0.5,0.6-1,0.9-1.5c0-0.1,0.1-0.3,0.2-0.4c0.2-0.7,0.5-1.3,0.8-2c0.2-0.5,0.3-1,0.5-1.6
			C117.1,10.4,116.8,9.9,116.3,9.7z"/>
		<path id="パス_32" d="M159.1,21.6c-3.5-0.2-7-0.4-10.4-0.4c0-3.5,0-7.1,0-10.6c0-0.7-0.4-1.3-1-1.7c-1.2-0.2-2.4-0.3-3.6-0.4
			c-0.1,0.1-0.1,0.2-0.2,0.2v0c-0.4,1.3-0.5,2.6-0.3,4c0,0.3,0,0.7-0.2,1c0.1,8.4-0.1,16.8-0.7,25.2c0,0.2,0,0.4,0.1,0.5
			c1.6-0.4,3.3-0.7,4.9-1.2c0.2-0.3,0.4-0.6,0.5-1c0-0.5,0.1-1,0.1-1.5c0-1.3,0.1-2.6,0.1-3.9c-0.2-0.5-0.2-1.1,0-1.7
			c0-1.1,0.1-2.3,0.1-3.4c4.6,0.1,9.2,0.2,13.7,0.4c0.5,0,0.9-0.1,1.2-0.4c0-0.1,0-0.1,0-0.2v0l0-0.1c0.2-1.3,0.3-2.6,0.3-3.9
			c-0.1-0.1-0.2-0.3-0.4-0.4C162,22.2,160.5,22,159.1,21.6z"/>
		<path id="パス_33" d="M165.7,8.1c0-0.4-0.1-0.9-0.4-1.2c-1.2,0.1-2.4,0.2-3.6,0.3c-0.2,0.3-0.4,0.7-0.4,1.1
			c-0.1,1.8-0.1,3.6-0.1,5.4c0,0.5,0.2,0.9,0.5,1.3c0.5,0,1.1,0,1.6,0.1c0.6-0.2,1.1-0.3,1.7-0.4c0,0,0.1-0.1,0.1-0.1
			c0.4-0.4,0.5-0.9,0.5-1.4C165.6,11.4,165.6,9.7,165.7,8.1z"/>
		<path id="パス_34" d="M169.7,5.6c-0.2,0-0.4,0-0.7-0.1c0,2.7-0.1,5.4-0.2,8.2l0,0c1.3,0,2.5,0.2,3.8,0.3
			c0.2-0.3,0.3-0.7,0.3-1.1V7c0-0.3-0.1-0.6-0.2-0.9C171.8,6,170.8,5.8,169.7,5.6z"/>
		<path id="パス_35" d="M207.7,20.5c-6.5,0.4-12.9,1.1-19.3,2c-1.3,0.1-2.5,0.2-3.8,0.3c-0.8,0.3-1.6,0.5-2.4,0.6l0,0
			c-0.2,0-0.5,0.1-0.7,0.1c-0.2,0-0.4,0.1-0.6,0.2c0.1,0.2,0.1,0.4,0,0.6c0.1,0.8,0.2,1.6,0.3,2.4c0,0.2,0.1,0.4,0.1,0.5
			c0.4,0.2,0.9,0.3,1.3,0.2c2-0.3,4-0.6,6.1-0.9c5.7-0.4,11.4-1,17-1.7c0.2,0,0.4-0.1,0.6-0.2c0.5,0,1-0.1,1.5-0.1
			c0.4,0,0.9-0.2,1.2-0.5c-0.1-1.1-0.1-2.3-0.2-3.4C208.4,20.6,208,20.5,207.7,20.5z"/>
		<path id="パス_36" d="M246.7,11.6v-0.1l-0.1,0c-0.2,0-0.4-0.1-0.5-0.1l-2.4,0.1c-1,0-2.1,0.1-3.1,0.1l-1.6,0.1
			c0.1-0.2,0.2-0.4,0.3-0.6c0.1-0.3,0.3-0.6,0.4-0.9c0.2-0.5,0.3-1,0.1-1.5l0-0.1l-0.1,0c-1.5-0.2-2.8-0.4-3.9-0.6l-0.1,0l0,0
			c-0.2,0.2-0.4,0.4-0.5,0.7c-0.3,0.6-0.5,1.2-0.8,1.8c-0.2,0.5-0.4,0.9-0.6,1.4c-1.2,0.1-2.5,0.1-3.7,0.2c-0.7,0-1.3,0.1-2,0.1
			l-8,0.3c-0.3,0-0.7,0.1-1,0.3l-0.1,0c0,0-0.1,0-0.1,0l-0.1,0l0,0.1c-0.3,1.3-0.5,2.7-0.7,4l0,0.1l0.1,0c0.3,0.1,0.5,0.1,0.8,0.1
			c2.6-0.2,5.2-0.4,7.7-0.5l1.3-0.1l3.7-0.2c-4.4,10.3-8.2,19.4-11.6,27.8c-0.2,0.4-0.2,0.9-0.1,1.3l0,0.1l0.1,0
			c1,0.3,2,0.6,3.2,0.9l0.2,0l0,0c0.4-0.2,0.6-0.5,0.8-0.9c4.4-10.5,8.5-19.9,12.6-29.4l6.7-0.3l1,0c0.4,0,0.7,0,1.1,0
			c0,0,0.1,0,0.1,0l0.2,0c0.3,0,0.6-0.1,0.9-0.2l0.1,0l-0.1-0.6C246.8,13.8,246.7,12.7,246.7,11.6z"/>
		<path id="パス_37" d="M285.5,20.9c-0.6,0.1-1.3,0.1-1.9,0l-0.2,0c-0.2,0-0.5,0.1-0.7,0.1c-1.7,0.1-3.4,0.2-5.1,0.3
			c-1.2,0-2.5,0-4,0h-0.2l0-0.2c0-0.1,0-0.1,0-0.2l0.1-0.6c0-0.3,0.1-0.7,0.1-1l1-4.1l0.1,0c0.3,0,0.6,0,0.8-0.1l0.3,0
			c0.6-0.1,1.1-0.2,1.7-0.3c0.2,0,0.5-0.1,0.7-0.1c1.1-0.3,2.2-0.5,3.3-0.6c0.1-0.4,0.1-0.7,0.2-1.1c0-0.5,0-0.9,0.1-1.4l0-0.2
			c0-0.1,0-0.2,0-0.3l0-0.2c0-0.5,0-1.1,0-1.6c-0.1-0.1-0.2-0.2-0.3-0.4h-0.1h0c-0.1,0-0.1,0.1-0.2,0.1c-3.1,0.4-6.3,0.7-9.4,0.9
			c-3.3,0.2-6.7,0.5-10,1c-0.1,0.4-0.2,0.8-0.3,1.2c0,0.1,0,0.2,0,0.3c0,0.1,0,0.3-0.1,0.4l0,0c0,0.1,0,0.1,0,0.2l-0.1,0.8
			c-0.1,0.4-0.1,0.7-0.2,1.1c0,0.5-0.1,1-0.1,1.5l0,0c0.3,0.1,0.7,0.2,1,0.1c2.3-0.3,4.7-0.6,7.3-0.9l0.2,0l-1,5.8h-0.1
			c-3.6,0.1-7.2,0.2-10.6,0.5l-0.6,0c-0.8,0.1-1.7,0.2-2.5,0.3l-0.3,0.6c0.1,0.1,0.1,0.2,0.1,0.3c0,0.6,0,1.2,0,1.8l0,0.5l0.2,1.1
			l0,0.1c0,0.1,0,0.2,0,0.3l0.1,0c0.2,0.1,0.4,0.1,0.5,0.1l1,0c0.1,0,0.1,0,0.2,0l1.4-0.1c3.1-0.1,6.2-0.3,9.7-0.4l0.2,0l0,0.2
			l-1.8,9.9c0,0.1,0,0.1,0,0.2c0,0.5,0,1.1-0.1,1.6c0,2.1-0.2,4.2-0.5,6.3l0,0.5l0.9,0.3c0.6,0.1,1.2,0.1,1.9,0.2l1.6,0.2l0.3-1.6
			c0.3-1.4,0.6-2.7,0.7-4.1c0.7-4.4,1.4-9,2-13.8l0-0.1l0.1,0c4.9-0.2,9.3-0.5,13.6-0.7c0.1-0.5,0.2-1,0.3-1.5
			c0.2-0.9,0.3-1.9,0.5-2.9c0-0.1-0.1-0.3-0.1-0.4C286.5,20.9,286,20.9,285.5,20.9z"/>
		<path id="パス_38" d="M308.5,43.6c-0.2-0.8-0.5-1.5-0.7-2.2c-0.3,0-0.6,0-0.9,0.1l0,0c-0.2,0-0.4,0-0.6,0c-0.4,0-0.8,0-1.2,0
			c-0.1,0-0.2,0-0.3,0c-0.2,0.1-0.5,0.1-0.8,0c-0.3,0-0.5,0-0.8,0c0-0.2,0.1-0.4,0.1-0.6c0-0.1-0.1-0.2-0.1-0.4c0-0.2,0-0.3,0-0.5
			c-0.1-0.2-0.1-0.3-0.1-0.5c0-2.4-0.3-4.9-0.3-7.4c-0.2-0.7-0.3-1.4-0.4-2.1l-0.4,0c-1.3,0-2.5,0-3.8,0.1c-0.9,0.1-1.8,0.1-2.7,0.1
			c-0.9,0.1-1.9,0.3-2.8,0.4v0c0,1.5,0,3,0.2,4.5c0.8-0.1,1.6-0.1,2.4-0.1c1.1,0,2.1-0.1,3.2-0.2l0,0c0,2.2,0.3,4.3,0.5,6.5
			c-0.8,0.1-1.6,0.2-2.4,0.3c-0.2,0-0.4,0-0.5,0c-0.2,0.1-0.4,0.1-0.5,0l0,0.1l0,0c-1,0.1-2.1,0.2-3.1,0.3l0,0l-0.1,0l-0.1,0h0
			c0,1.8,0.1,3.6,0.3,5.4c0.7,0,1.5-0.1,2.2-0.1c4.1-0.1,8.4-0.2,12.6-0.7l0.1,0v0c0.3,0,0.6,0,0.9,0
			C308.5,45.7,308.5,44.6,308.5,43.6z"/>
	</g>
</g>
</svg>
