<?xml version="1.0" encoding="utf-8"?>
<!-- Generator: Adobe Illustrator 27.5.0, SVG Export Plug-In . SVG Version: 6.00 Build 0)  -->
<svg version="1.1" id="レイヤー_1" xmlns="http://www.w3.org/2000/svg" xmlns:xlink="http://www.w3.org/1999/xlink" x="0px"
	 y="0px" width="246px" height="58px" viewBox="0 0 246 58" style="enable-background:new 0 0 246 58;" xml:space="preserve">
<style type="text/css">
	.st0{fill:#1A1311;}
</style>
<g id="グループ_282" transform="translate(-570.252 -100.225)">
	<g id="グループ_228" transform="translate(633.52 113.495)">
		<g id="グループ_2" transform="translate(21.142 36.654)">
			<path id="パス_6" d="M2.1,1.6l1.5,1.8L5,1.6h0.8v4.5H4.9V2.9l0,0L3.6,4.5H3.5L2.2,2.9l0,0V6H1.3V1.6H2.1z"/>
			<path id="パス_7" d="M9.8,1.6c0.4,0,0.9,0.1,1.3,0.3c1.1,0.6,1.5,1.9,1,3.1c-0.2,0.4-0.5,0.7-1,1c-0.8,0.4-1.7,0.4-2.5,0
				C7.9,5.6,7.4,4.8,7.4,4c0-0.4,0.1-0.8,0.3-1.2C7.9,2.3,8.2,2,8.5,1.9C8.9,1.6,9.4,1.5,9.8,1.6z M8.3,3.9c0,0.3,0.1,0.6,0.2,0.8
				C8.6,4.9,8.8,5.1,9,5.2c0.3,0.1,0.5,0.2,0.8,0.2c0.4,0,0.8-0.1,1.1-0.4s0.5-0.7,0.4-1.1c0-0.3-0.1-0.6-0.2-0.8
				c-0.1-0.2-0.3-0.4-0.6-0.6C10.2,2.4,10,2.3,9.7,2.3C9.5,2.3,9.3,2.4,9,2.5C8.8,2.6,8.6,2.8,8.4,3.1C8.3,3.3,8.2,3.6,8.3,3.9
				L8.3,3.9z"/>
			<path id="パス_8" d="M14.7,1.6l1.5,1.8l1.5-1.8h0.8v4.5h-0.9V2.9l0,0l-1.3,1.6h-0.1l-1.3-1.6l0,0V6H14V1.6H14.7z"/>
			<path id="パス_9" d="M21.2,1.6l1.5,1.8l1.5-1.8H25v4.5h-1V2.9l0,0l-1.3,1.6h-0.1l-1.3-1.6l0,0V6h-0.9V1.6H21.2z"/>
			<path id="パス_10" d="M27.2,1.6l1.1,1.5l1.1-1.5h1l-1.7,2.3v2.2h-0.9V3.9l-1.7-2.3L27.2,1.6z"/>
			<path id="パス_11" d="M32.1,1.6c0.2,0,0.3,0.1,0.4,0.2c0.1,0.1,0.2,0.3,0.2,0.5c0,0.6-0.4,1.1-1,1.1V3.2
				C31.9,3.1,32,2.8,32,2.5V2.4c-0.2,0-0.4-0.2-0.4-0.4l0,0c0-0.1,0-0.2,0.1-0.3C31.9,1.6,32,1.5,32.1,1.6z"/>
			<path id="パス_12" d="M35.7,1.6c0.4,0,0.9,0.1,1.3,0.3v0.8c-0.4-0.2-0.8-0.4-1.2-0.4c-0.2,0-0.4,0-0.5,0.1
				c-0.2,0-0.3,0.2-0.3,0.3c0,0.2,0.1,0.3,0.3,0.5c0.1,0,0.3,0.2,0.7,0.4c0.3,0.1,0.6,0.3,0.8,0.6C37,4.4,37.1,4.7,37,5
				c0,0.4-0.1,0.7-0.4,0.9c-0.3,0.2-0.7,0.4-1.1,0.4c-0.2,0-0.5,0-0.7-0.1S34.3,6,34.1,5.9v-1c0.4,0.4,0.8,0.6,1.4,0.6
				c0.2,0,0.4,0,0.5-0.1s0.2-0.2,0.2-0.4c0-0.2-0.1-0.4-0.3-0.5s-0.4-0.2-0.7-0.4c-0.3-0.1-0.6-0.3-0.8-0.6
				c-0.2-0.2-0.3-0.5-0.3-0.7c0-0.3,0.1-0.7,0.4-0.9C34.9,1.7,35.3,1.5,35.7,1.6z"/>
			<path id="パス_13" d="M42.9,1.6v1.9h2.3V1.6h0.9v4.5h-0.9V4.2h-2.3v1.9H42V1.6H42.9z"/>
			<path id="パス_14" d="M50.2,1.6c0.4,0,0.9,0.1,1.3,0.3c1.1,0.6,1.5,1.9,1,3.1c-0.2,0.4-0.5,0.7-1,1c-0.8,0.4-1.7,0.4-2.5,0
				c-1.1-0.6-1.5-2-0.9-3.1c0,0,0-0.1,0.1-0.1c0.2-0.4,0.5-0.6,0.9-0.8C49.3,1.7,49.8,1.5,50.2,1.6z M48.6,3.9
				c0,0.3,0.1,0.6,0.2,0.8c0.1,0.2,0.3,0.4,0.6,0.6c0.3,0.1,0.5,0.2,0.8,0.2c0.4,0,0.8-0.1,1.1-0.4s0.5-0.7,0.4-1.1
				c0-0.3-0.1-0.6-0.2-0.8c-0.1-0.2-0.3-0.4-0.6-0.6c-0.3-0.1-0.5-0.2-0.8-0.2s-0.6,0.1-0.8,0.2c-0.2,0.1-0.4,0.3-0.6,0.6
				C48.7,3.3,48.6,3.6,48.6,3.9L48.6,3.9z"/>
			<path id="パス_15" d="M55,1.6l1.5,1.8L58,1.6h0.8v4.5h-0.9V2.9l0,0l-1.3,1.6h-0.1l-1.3-1.6l0,0V6h-0.9V1.6H55z"/>
			<path id="パス_16" d="M63.6,1.6v0.7h-2v1.2h1.9v0.7h-1.9v1.3h2.1v0.7h-2.9V1.6H63.6z"/>
			<path id="パス_17" d="M66.4,1.6l1.5,1.8l1.5-1.8h0.8v4.5h-0.9V2.9l0,0L68,4.5h-0.1l-1.3-1.6l0,0V6h-0.9V1.6H66.4z"/>
			<path id="パス_18" d="M74.4,1.6l2,4.5h-0.9L75,5h-2l-0.4,1.1h-0.9l1.9-4.5C73.6,1.6,74.4,1.6,74.4,1.6z M73.2,4.3h1.4l-0.8-1.8
				L73.2,4.3z"/>
			<path id="パス_19" d="M79.4,1.6c0.4,0,0.9,0.1,1.2,0.3c0.4,0.2,0.6,0.5,0.8,0.8c0.2,0.4,0.3,0.8,0.3,1.2s-0.1,0.8-0.3,1.2
				c-0.2,0.3-0.5,0.6-0.9,0.8c-0.4,0.2-0.8,0.3-1.3,0.3h-1.8V1.6H79.4z M79.3,5.4c0.4,0,0.8-0.1,1.2-0.4c0.6-0.6,0.6-1.6,0-2.3
				c-0.3-0.3-0.7-0.4-1.2-0.4h-0.9v3.1C78.4,5.4,79.3,5.4,79.3,5.4z"/>
			<path id="パス_20" d="M86.2,1.6v0.7h-2v1.2h1.9v0.7h-1.9v1.3h2.1v0.7h-2.9V1.6H86.2z"/>
			<path id="パス_21" d="M93.1,1.6c0.4,0,0.9,0.1,1.2,0.3c0.4,0.2,0.6,0.5,0.8,0.8c0.2,0.4,0.3,0.8,0.3,1.2s-0.1,0.8-0.3,1.2
				c-0.2,0.3-0.5,0.6-0.9,0.8C93.9,6,93.5,6.1,93,6.1h-1.8V1.6H93.1z M93,5.4c0.4,0,0.8-0.1,1.2-0.4c0.6-0.6,0.6-1.6,0-2.3
				c-0.3-0.3-0.7-0.4-1.2-0.4h-0.9v3.1C92.1,5.4,93,5.4,93,5.4z"/>
			<path id="パス_22" d="M99.2,1.6c0.4,0,0.9,0.1,1.3,0.3c1.1,0.6,1.5,1.9,1,3.1c-0.2,0.4-0.5,0.7-1,1c-0.8,0.4-1.7,0.4-2.5,0
				c-1.1-0.6-1.5-2-0.9-3.1C97.3,2.5,97.6,2.2,98,2C98.3,1.7,98.7,1.5,99.2,1.6z M97.6,3.9c0,0.3,0.1,0.6,0.2,0.8
				c0.1,0.2,0.3,0.4,0.6,0.6c0.3,0.1,0.5,0.2,0.8,0.2c0.4,0,0.8-0.1,1.1-0.4c0.3-0.3,0.5-0.7,0.4-1.1c0-0.3-0.1-0.6-0.2-0.8
				s-0.3-0.4-0.6-0.6c-0.3-0.1-0.5-0.2-0.8-0.2s-0.6,0.1-0.8,0.2c-0.2,0.1-0.4,0.3-0.6,0.6C97.6,3.3,97.6,3.6,97.6,3.9L97.6,3.9z"/>
			<path id="パス_23" d="M103.9,1.6v2.6c0,0.2,0,0.4,0.1,0.6s0.2,0.3,0.4,0.4c0.2,0.1,0.4,0.2,0.6,0.2s0.5,0,0.7-0.1
				s0.3-0.2,0.4-0.4c0.1-0.2,0.1-0.5,0.1-0.7V1.6h0.9v2.7c0,0.5-0.2,1-0.5,1.4c-0.4,0.3-1,0.5-1.5,0.5c-0.4,0-0.7-0.1-1.1-0.2
				c-0.3-0.1-0.5-0.4-0.7-0.6c-0.2-0.3-0.2-0.6-0.2-1V1.6H103.9z"/>
			<path id="パス_24" d="M111.1,1.6c0.6,0,1.1,0.1,1.6,0.4v0.8c-0.5-0.3-1-0.4-1.6-0.4c-0.3,0-0.6,0.1-0.9,0.2
				c-0.2,0.1-0.5,0.3-0.6,0.6s-0.2,0.5-0.2,0.8c0,0.4,0.1,0.8,0.5,1.1c0.3,0.3,0.8,0.4,1.2,0.4c0.1,0,0.3,0,0.4,0
				c0.2,0,0.3-0.1,0.4-0.1V4.5h-0.7V3.8h1.6v1.9C112.6,5.8,112.3,6,112,6c-0.3,0.1-0.6,0.1-1,0.1s-0.9-0.1-1.3-0.3
				c-0.8-0.4-1.2-1.1-1.2-2c0-0.4,0.1-0.8,0.3-1.2c0.2-0.4,0.5-0.6,0.9-0.8C110.2,1.6,110.7,1.5,111.1,1.6z"/>
			<path id="パス_25" d="M115.6,1.6v1.9h2.3V1.6h0.9v4.5h-0.9V4.2h-2.3v1.9h-0.9V1.6H115.6z"/>
			<path id="パス_26" d="M121.4,1.6l2.7,3.1V1.6h0.8v4.5h-0.7l-2.7-3.2v3.2h-0.8V1.6H121.4z"/>
			<path id="パス_27" d="M127.5,1.6v2.6c0,0.2,0,0.4,0.1,0.6s0.2,0.3,0.4,0.4c0.2,0.1,0.4,0.2,0.6,0.2c0.2,0,0.5,0,0.7-0.1
				s0.3-0.2,0.4-0.4c0.1-0.2,0.1-0.5,0.1-0.7V1.6h0.9v2.7c0,0.5-0.2,1-0.5,1.4c-0.4,0.3-1,0.5-1.5,0.5c-0.4,0-0.7-0.1-1.1-0.2
				c-0.3-0.1-0.5-0.4-0.7-0.6c-0.2-0.3-0.2-0.6-0.2-1V1.6H127.5z"/>
			<path id="パス_28" d="M136.2,1.6v0.7h-1.6v3.8h-0.9V2.3h-1.6V1.6H136.2z"/>
		</g>
		<path id="パス_29" d="M17.8,5.7c-0.1,0-0.1,0-0.2,0c-0.9,0.1-1.7,0.1-2.6,0.1C13.8,5.9,12.6,6,11.5,6c0-0.1,0-0.2,0-0.4
			c-0.2-1.2-0.2-2.4-0.2-3.6c0-0.2,0-0.3-0.1-0.5c-0.4,0-0.7,0-1.1,0c-0.7,0-1.3,0.1-2,0.1C7.9,1.9,7.9,2.2,7.9,2.4
			C8,3.6,8.1,4.9,8.2,6.2c-1.3,0.1-2.7,0.2-4,0.3H4.1C3.2,6.7,2.3,6.8,1.4,6.8L1.3,6.9c0.2,1.9,0.3,3.8,0.5,5.6
			c1.2,0,2.4,0.1,3.5,0.2c-0.1-0.6-0.1-1.1-0.1-1.7C5.1,10.3,5,9.6,4.9,8.9c3.9,0,7.8,0,11.8-0.1c-1.8,6.9-3.9,13.6-6.3,20.3
			c-0.1,0.3-0.1,0.6,0,0.8c1,0.2,2,0.4,3,0.6c0.1-0.1,0.3-0.3,0.3-0.5c1.8-6.2,3.8-12.3,5.7-18.5c0.4-1.8,0.8-3.6,1.2-5.3V6.1
			c0-0.1,0-0.2-0.1-0.3C19.7,5.8,18.7,5.7,17.8,5.7z"/>
		<path id="パス_30" d="M47.8,6c-0.4,0-0.8,0-1.2-0.1C45.8,6,45.1,6,44.4,6c-4.3,0.4-8.6,0.8-13,1.3c-0.7,0.2-1.4,0.4-2.2,0.5
			c0,0-0.1,0.1-0.2,0.2l0,0c0.1,0.7,0.2,1.4,0.3,2.1c0.2,0.1,0.4,0.1,0.7,0.1c4.8-0.7,9.6-1.1,14.5-1.3c-2.9,4.9-5.7,9.8-8.1,15
			c-0.1,0.2-0.1,0.3-0.1,0.5c0.3,0.3,0.6,0.7,0.9,1c0.2,0.1,0.3,0.2,0.5,0.2c0.1,0,0.1,0,0.2,0c0.3-0.3,0.5-0.6,0.7-0.9
			c0.3-0.5,0.7-1,1-1.5c2.3-3.9,4.5-7.8,6.6-11.8c0.5-1.3,1.1-2.6,1.7-3.8c0.1-0.3,0.2-0.7,0.3-1c0-0.1-0.1-0.2-0.2-0.3
			C47.9,6.1,47.9,6.1,47.8,6z"/>
		<path id="パス_31" d="M68.7,6.4c-0.4-0.1-0.8-0.1-1.2-0.2h-0.3c-0.6,0-1.1-0.1-1.7-0.1c-2.9-0.1-5.8,0-8.6,0.4
			c-0.3,0-0.5,0-0.8,0s-0.5,0.1-0.7,0.2c0,0.6,0,1.3,0.1,1.9c0.1,0.1,0.3,0.1,0.4,0.2c0.2,0.1,0.4,0.1,0.6,0.1c0.1,0,0.3,0,0.4,0
			c3,0.1,6,0.1,9,0.1c0,0.1-0.1,0.2-0.1,0.4c-3.9,6.8-7.6,13.7-11,20.8c0,0.1-0.1,0.2-0.1,0.4c0,0,0,0.1,0.1,0.1
			c0.7,0.3,1.5,0.7,2.2,1.1h0.1c0.1,0,0.1,0,0.2,0c0.1-0.1,0.1-0.1,0.2-0.2c3.5-6.9,7.7-13.8,10.6-21.1c0.2-0.3,0.3-0.6,0.5-0.9
			c0-0.1,0.1-0.2,0.1-0.2C68.8,9,69,8.6,69.2,8.2c0.1-0.3,0.2-0.6,0.3-0.9C69.2,6.8,68.9,6.5,68.7,6.4z"/>
		<path id="パス_32" d="M93.7,13.4c-2-0.1-4.1-0.2-6.1-0.3c0-2.1,0-4.2,0-6.2c0-0.4-0.2-0.8-0.6-1c-0.7-0.1-1.4-0.2-2.1-0.2
			l-0.1,0.1l0,0c-0.2,0.7-0.3,1.5-0.2,2.3c0,0.2,0,0.4-0.1,0.6c0,4.9-0.1,9.9-0.4,14.8c0,0.1,0,0.2,0.1,0.3c1-0.2,1.9-0.4,2.9-0.7
			c0.1-0.2,0.2-0.3,0.3-0.6c0-0.3,0.1-0.6,0.1-0.9c0-0.8,0-1.5,0.1-2.3c-0.1-0.3-0.1-0.7,0-1c0-0.7,0-1.3,0.1-2
			c2.7,0.1,5.4,0.1,8.1,0.2c0.3,0,0.5-0.1,0.7-0.3v-0.1l0,0l0,0c0.1-0.8,0.2-1.5,0.2-2.3c-0.1-0.1-0.1-0.2-0.2-0.2
			C95.5,13.7,94.6,13.5,93.7,13.4z"/>
		<path id="パス_33" d="M97.6,5.4c0-0.3-0.1-0.5-0.2-0.7c-0.7,0.1-1.4,0.1-2.1,0.2c-0.1,0.2-0.2,0.4-0.2,0.6C95,6.5,95,7.6,95,8.7
			c0,0.3,0.1,0.6,0.3,0.8c0.3,0,0.6,0,1,0c0.3-0.1,0.7-0.2,1-0.2c0,0,0-0.1,0.1-0.1c0.2-0.2,0.3-0.5,0.3-0.8
			C97.6,7.3,97.6,6.4,97.6,5.4z"/>
		<path id="パス_34" d="M100,3.9c-0.1,0-0.3,0-0.4,0c0,1.6-0.1,3.2-0.1,4.8l0,0c0.7,0,1.5,0.1,2.2,0.2c0.1-0.2,0.2-0.4,0.2-0.6
			V4.8c0-0.2,0-0.4-0.1-0.5C101.2,4.2,100.6,4.1,100,3.9z"/>
		<path id="パス_35" d="M122.3,12.7c-3.8,0.2-7.6,0.6-11.3,1.2c-0.7,0.1-1.5,0.1-2.2,0.2c-0.5,0.1-0.9,0.3-1.4,0.3l0,0
			c-0.1,0-0.3,0-0.4,0.1c-0.1,0-0.2,0.1-0.3,0.1c0,0.1,0,0.2,0,0.3c0,0.5,0.1,1,0.2,1.4c0,0.1,0,0.2,0.1,0.3
			c0.2,0.1,0.5,0.2,0.8,0.1c1.2-0.2,2.4-0.3,3.6-0.5c3.3-0.3,6.7-0.6,10-1c0.1,0,0.2-0.1,0.3-0.1c0.3,0,0.6-0.1,0.9-0.1
			s0.5-0.1,0.7-0.3c-0.1-0.7-0.1-1.3-0.1-2C122.7,12.7,122.5,12.7,122.3,12.7z"/>
		<path id="パス_36" d="M145.1,7.5L145.1,7.5L145.1,7.5c-0.2-0.1-0.3-0.1-0.4-0.1l-1.4,0.1c-0.6,0-1.2,0-1.8,0.1h-0.9l0.2-0.4
			c0.1-0.2,0.2-0.4,0.2-0.5c0.1-0.3,0.2-0.6,0.1-0.9V5.7H141c-0.9-0.1-1.6-0.2-2.3-0.3l0,0l0,0c-0.1,0.1-0.2,0.2-0.3,0.4
			c-0.2,0.4-0.3,0.7-0.5,1.1c-0.1,0.3-0.2,0.6-0.4,0.8c-0.7,0-1.4,0.1-2.2,0.1c-0.4,0-0.8,0-1.2,0.1L129.5,8c-0.2,0-0.4,0.1-0.6,0.2
			h-0.1c0,0,0,0-0.1,0h-0.1v0.1c-0.2,0.8-0.3,1.6-0.4,2.4v0.1h0.1c0.2,0.1,0.3,0.1,0.5,0.1c1.5-0.1,3.1-0.2,4.5-0.3h0.8l2.2-0.1
			c-2.6,6-4.8,11.4-6.8,16.3c-0.1,0.2-0.1,0.5,0,0.7l0,0l0,0c0.6,0.2,1.2,0.4,1.9,0.5h0.1l0,0c0.2-0.1,0.4-0.3,0.5-0.5
			c2.6-6.1,5-11.7,7.4-17.2l3.9-0.2h0.6c0.2,0,0.4,0,0.6,0c0,0,0,0,0.1,0h0.1c0.2,0,0.4-0.1,0.5-0.1h0.1V9.7
			C145.2,8.8,145.1,8.1,145.1,7.5z"/>
		<path id="パス_37" d="M167.9,12.9c-0.4,0.1-0.7,0.1-1.1,0h-0.1c-0.1,0-0.3,0-0.4,0.1c-1,0-2,0.1-3,0.2c-0.7,0-1.5,0-2.4,0h-0.1
			v-0.1V13v-0.4c0-0.2,0.1-0.4,0.1-0.6l0.6-2.4h0.1h0.5h0.2c0.3-0.1,0.6-0.1,1-0.1c0.1,0,0.3-0.1,0.4-0.1c0.6-0.1,1.3-0.3,1.9-0.3
			c0-0.2,0.1-0.4,0.1-0.6c0-0.3,0-0.5,0.1-0.8V7.6c0-0.1,0-0.1,0-0.2V7.3c0-0.3,0-0.6,0-1c-0.1-0.1-0.1-0.1-0.1-0.2l0,0h-0.1
			c-1.8,0.2-3.7,0.4-5.5,0.5C158,6.7,156,6.9,154,7.1c-0.1,0.2-0.1,0.5-0.2,0.7c0,0.1,0,0.1,0,0.2s0,0.2,0,0.2l0,0v0.1l-0.1,0.5
			c0,0.2-0.1,0.4-0.1,0.6c0,0.3,0,0.6-0.1,0.9l0,0c0.2,0.1,0.4,0.1,0.6,0.1c1.3-0.2,2.7-0.4,4.3-0.6h0.1l-0.6,3.4h-0.1
			c-2.1,0-4.2,0.1-6.2,0.3h-0.3c-0.5,0.1-1,0.1-1.5,0.2l-0.2,0.3c0,0.1,0,0.1,0,0.2c0,0.4,0,0.7,0,1.1v0.3l0.1,0.7l0,0
			c0,0.1,0,0.1,0,0.2l0,0c0.1,0,0.2,0,0.3,0h0.6h0.1h0.8c1.8-0.1,3.7-0.2,5.7-0.3h0.1v0.1l-1,5.8v0.1c0,0.3,0,0.6,0,0.9
			c0,1.2-0.1,2.5-0.3,3.7v0.3l0.5,0.2c0.3,0,0.7,0.1,1.1,0.1l1,0.1l0.2-0.9c0.2-0.8,0.3-1.6,0.4-2.4c0.4-2.6,0.8-5.3,1.2-8.1V16h0.1
			c2.9-0.1,5.5-0.3,8-0.4c0-0.3,0.1-0.6,0.2-0.9c0.1-0.5,0.2-1.1,0.3-1.7c0-0.1,0-0.1-0.1-0.2C168.5,12.9,168.2,12.9,167.9,12.9z"/>
		<path id="パス_38" d="M181.4,26.2c-0.1-0.4-0.3-0.9-0.4-1.3c-0.2,0-0.3,0-0.5,0l0,0c-0.1,0-0.2,0-0.4,0s-0.4,0-0.7,0h-0.1
			c-0.1,0.1-0.3,0.1-0.5,0c-0.1,0-0.3,0-0.4,0c0-0.1,0-0.2,0.1-0.3c0-0.1,0-0.1,0-0.2s0-0.2,0-0.3c0-0.1-0.1-0.2-0.1-0.3
			c0-1.4-0.2-2.9-0.2-4.3c-0.1-0.4-0.2-0.8-0.2-1.2h-0.2c-0.7,0-1.5,0-2.2,0.1c-0.5,0-1.1,0.1-1.6,0c-0.5,0.1-1.1,0.2-1.6,0.3l0,0
			c0,0.9,0,1.8,0.1,2.6c0.5-0.1,0.9-0.1,1.4,0c0.6,0,1.2-0.1,1.9-0.1l0,0c0,1.3,0.2,2.5,0.3,3.8c-0.5,0-0.9,0.1-1.4,0.2
			c-0.1,0-0.2,0-0.3,0c-0.1,0.1-0.2,0.1-0.3,0l0,0l0,0c-0.6,0-1.2,0.1-1.8,0.2l0,0l0,0l0,0l0,0c0,1.1,0.1,2.1,0.2,3.2
			c0.4,0,0.9,0,1.3,0c2.4,0,4.9-0.1,7.4-0.4h0.1l0,0c0.2,0,0.3,0,0.5,0C181.4,27.4,181.4,26.8,181.4,26.2z"/>
	</g>
	<g id="グループ_227" transform="translate(570.252 100.225)">
		<path id="パス_1" d="M49.3,42.8c-0.4-3.2,1-4.6,1.9-10.1c1.2-7.4-2.3-12-5-14.8c-3.6-3.7-8.3-5.2-11.6-6.4
			C30.8,10.2,28.8,9,28,6.7c-1.3-3.4-0.8-5.2-1.9-5.2c-1,0-0.5,3.4-2.3,5.9C20.5,12.1,11.5,12,5.6,20.3c-5.8,8-2.7,14.3-1.7,19
			c0.6,2.8,0.7,4.1,0.3,5.7c-0.4,1.6-1.4,2.9-2.8,3.8c2.1,2.3,6.5,2,8.5,0.8s3.7-4.2,3.2-9.4c4.6,0.5,9.3,0.8,13.9,0.6
			c7.3-0.2,11.2-0.5,13.8-1.2c-0.3,6.3,1,8.1,3.7,9.4c2.9,1.4,6.3,0,8.1-1.7C50.6,46.5,49.4,44.8,49.3,42.8z"/>
		<path id="パス_2" d="M17.8,43c-0.9,0-1.6,0.7-1.6,1.6c0,0.9,0.7,1.6,1.6,1.6s1.6-0.7,1.6-1.6S18.7,43,17.8,43L17.8,43z"/>
		<circle id="楕円形_1" cx="35.9" cy="44.4" r="1.6"/>
		<path id="パス_3" d="M28.9,47.9c-0.6-0.2-1.2-0.3-1.8-0.3c-0.4,0-0.7,0.1-1.1,0.1c-0.8,0.2-1.5,0.8-1.8,1.6
			c-0.4,1.1,0,2.2,1,2.8h0.1h-0.1c-0.2,0.1-0.3,0.3-0.5,0.4c-0.4,0.5-0.6,1.1-0.4,1.7c0.1,0.6,0.5,1.2,1,1.5c0.6,0.3,1.3,0.5,2,0.5
			c0.5,0,1.1,0,1.6-0.2l0,0l0,0v-1.1l0,0C28,55.3,27,55.3,26.1,55c-0.3-0.2-0.5-0.5-0.6-0.8s0-0.7,0.2-1c0,0,0-0.1,0.1-0.1
			c0.2-0.3,0.4-0.6,1.4-0.6c0.2,0,0.4,0,0.5,0H28l0,0v-0.1v-0.1c0-0.1,0-0.1,0-0.2v-0.5l0,0h-0.2c-0.6,0-1.2-0.1-1.7-0.3
			c-0.6-0.3-0.9-0.9-0.6-1.5l0,0c0.2-0.4,0.6-0.7,1-0.8c0.6-0.1,1.2,0,1.8,0.1c0,0,0.3,0,0.4,0.1l0.1-0.6
			C28.9,48.4,28.9,48,28.9,47.9z"/>
		<path id="パス_4" d="M29,47.8L29,47.8L29,47.8c-1-0.4-2-0.5-3-0.2c-0.8,0.2-1.5,0.8-1.8,1.6c-0.4,1.1,0,2.3,1,2.9
			c-0.2,0.1-0.3,0.3-0.4,0.4c-0.4,0.5-0.6,1.2-0.5,1.8c0.1,0.7,0.5,1.2,1.1,1.6c0.6,0.3,1.4,0.5,2.1,0.5c0.2,0,0.3,0,0.4,0
			c0.4,0,0.8-0.1,1.2-0.2c0,0,0,0,0.1-0.1c0,0,0,0,0-0.1v-1.1l0,0c0,0-0.1-0.1-0.1,0c-0.9,0.3-1.9,0.3-2.7-0.1
			c-0.3-0.2-0.5-0.4-0.5-0.7c-0.1-0.3,0-0.7,0.2-0.9l0.1-0.1c0.2-0.3,0.4-0.6,1.4-0.6c0.2,0,0.4,0,0.5,0h0.3h0.1c0,0,0.1-0.1,0-0.2
			v-0.1c0-0.1,0-0.1,0-0.2v-0.5c0-0.1-0.1-0.1-0.1-0.1h-0.2c-0.6,0-1.2-0.1-1.7-0.3s-0.8-0.9-0.5-1.4l0,0c0.2-0.4,0.6-0.7,1-0.7
			c0.6-0.1,1.2,0,1.8,0.1c0.5,0.1,0.5,0.1,0.5,0l0,0l0.1-0.6l0,0C29,48.3,29,48,29,47.8z M28.4,49c-0.6-0.1-1.2-0.2-1.8-0.1
			c-0.5,0.1-0.9,0.4-1,0.8c-0.3,0.6,0,1.3,0.5,1.5l0,0c0.6,0.2,1.1,0.3,1.7,0.3H28l0,0V52c0,0.1,0,0.1,0,0.2v0.1v0.1l0,0h-0.3
			c-0.1,0-0.3,0-0.5,0c-1,0-1.2,0.3-1.4,0.6c0,0,0,0.1-0.1,0.1c-0.2,0.3-0.3,0.7-0.2,1c0.1,0.3,0.3,0.6,0.6,0.8
			c0.9,0.4,1.9,0.4,2.8,0.1l0,0v1.1l0,0l0,0c-0.5,0.2-1.1,0.2-1.6,0.2c-0.7,0-1.4-0.2-2-0.5c-0.5-0.3-0.9-0.9-1-1.5s0-1.2,0.4-1.7
			c0.1-0.2,0.3-0.3,0.5-0.4h0.1h-0.1c-1-0.6-1.4-1.8-1-2.8c0.3-0.8,1-1.4,1.8-1.6c0.4-0.1,0.7-0.1,1.1-0.1c0.6,0,1.2,0.1,1.8,0.3
			c0,0.1,0,0.5,0,0.6V49C28.8,49,28.5,49,28.4,49L28.4,49z"/>
		<path id="パス_5" d="M35,53.2c-0.1,0-0.2,0.1-0.3,0.2c-0.1,0.1-0.2,0.1-0.3,0.1s-0.3,0-0.4,0c-0.4,0.1-0.6,0.4-0.5,0.8
			c0,0,0,0.1,0.1,0.1c0.6,0.5,1.4,0.5,2-0.1c0.2-0.2,0.3-0.4,0.4-0.7v-0.1C35.7,53.3,35.3,53.1,35,53.2z"/>
	</g>
</g>
<g id="グループ_1473" transform="translate(0 0)">
	<g id="グループ_1472">
		<g>
			<g id="グループ_1471">
				<path id="パス_2785" class="st0" d="M241.2,18.8c0.5,0,1,0.1,1.5,0.4c0.5,0.3,0.8,0.6,1.1,1.1c0.8,1.4,0.3,3.2-1.1,4
					c0,0,0,0,0,0c-1.4,0.8-3.2,0.3-4.1-1.1c-0.3-0.5-0.4-1-0.4-1.5c0-1.1,0.6-2,1.5-2.6C240.2,18.9,240.7,18.8,241.2,18.8
					 M241.2,19.3c-1.4,0-2.5,1.1-2.5,2.5c0,1.4,1.1,2.5,2.5,2.5c1.4,0,2.5-1.1,2.5-2.5c0-0.7-0.3-1.3-0.7-1.8
					C242.5,19.5,241.9,19.3,241.2,19.3 M240.5,23.4H240v-3.2h1.1c0.3,0,0.6,0,0.8,0.1c0.3,0.1,0.5,0.4,0.5,0.8
					c0,0.2-0.1,0.5-0.3,0.6c-0.2,0.2-0.4,0.3-0.7,0.3c0.1,0.1,0.2,0.1,0.3,0.2c0.1,0.2,0.3,0.4,0.4,0.6l0.4,0.6h-0.6l-0.3-0.5
					c-0.1-0.3-0.3-0.5-0.5-0.7c-0.1-0.1-0.3-0.2-0.5-0.2h-0.3L240.5,23.4z M240.5,20.6v1h0.6c0.2,0,0.4,0,0.6-0.1
					c0.1-0.1,0.2-0.2,0.2-0.4c0-0.1-0.1-0.3-0.2-0.4c-0.2-0.1-0.4-0.1-0.6-0.1H240.5z"/>
			</g>
		</g>
	</g>
</g>
</svg>
