<?xml version="1.0" encoding="utf-8"?>
<!-- Generator: Adobe Illustrator 24.2.0, SVG Export Plug-In . SVG Version: 6.00 Build 0)  -->
<svg version="1.1" id="カートのアイコン素材"
	 xmlns="http://www.w3.org/2000/svg" xmlns:xlink="http://www.w3.org/1999/xlink" x="0px" y="0px" viewBox="0 0 28 28"
	 style="enable-background:new 0 0 28 28;" xml:space="preserve">
<style type="text/css">
	.st0{fill:#FFFFFF;}
</style>
<path id="パス_47" class="st0" d="M22,0.5l-1.3,4.8H1.2L4.8,18h12.7L17,19.7H5.7v1.9h12.8l5-19.3h3.4V0.5H22z M15.6,16.1v-3.6h3.3
	L18,16.1H15.6z M20.3,7.2l-0.9,3.5h-3.7V7.2L20.3,7.2z M13.8,12.5v3.6h-3.7v-3.6L13.8,12.5z M13.8,7.2v3.5h-3.7V7.2L13.8,7.2z
	 M8.2,7.2v3.5H4.6l-1-3.5L8.2,7.2z M8.2,12.5v3.6h-2l-1-3.6L8.2,12.5z"/>
<path id="パス_48" class="st0" d="M7.5,22.4c-1.4,0-2.5,1.1-2.5,2.5c0,1.4,1.1,2.5,2.5,2.5s2.5-1.1,2.5-2.5
	C10,23.5,8.9,22.4,7.5,22.4z M7.5,25.6c-0.4,0-0.6-0.3-0.6-0.6c0-0.4,0.3-0.6,0.6-0.6c0.4,0,0.6,0.3,0.6,0.6c0,0,0,0,0,0
	C8.1,25.3,7.8,25.6,7.5,25.6z"/>
<path id="パス_49" class="st0" d="M16.3,22.5c-1.4,0-2.5,1.1-2.5,2.5s1.1,2.5,2.5,2.5s2.5-1.1,2.5-2.5
	C18.8,23.6,17.7,22.5,16.3,22.5z M16.3,25.7c-0.4,0-0.6-0.3-0.6-0.6s0.3-0.6,0.6-0.6c0.4,0,0.6,0.3,0.6,0.6c0,0,0,0,0,0
	C16.9,25.4,16.7,25.7,16.3,25.7z"/>
</svg>
