<?xml version="1.0" encoding="utf-8"?>
<!-- Generator: Adobe Illustrator 24.2.0, SVG Export Plug-In . SVG Version: 6.00 Build 0)  -->
<svg version="1.1" id="レイヤー_1" xmlns="http://www.w3.org/2000/svg" xmlns:xlink="http://www.w3.org/1999/xlink" x="0px"
	 y="0px" viewBox="0 0 30 21" style="enable-background:new 0 0 30 21;" xml:space="preserve">
<style type="text/css">
	.st0{fill:#B11818;}
</style>
<g id="グループ_204" transform="translate(27.982 18.703) rotate(180)">
	<path class="st0" d="M18-1.6c0.4,0,0.8,0.1,1.1,0.4l8.3,8.3c0.2,0.3,0.4,0.7,0.4,1.1c0,0.4-0.2,0.8-0.4,1.1L19,17.6
		c-0.6,0.6-1.5,0.6-2.1,0s-0.6-1.5,0-2.1l7.2-7.2l-7.2-7.2c-0.6-0.6-0.6-1.5,0-2.1C17.1-1.5,17.5-1.6,18-1.6z"/>
	<path class="st0" d="M-0.3,6.7h16.4c0.8,0,1.5,0.7,1.5,1.5s-0.7,1.5-1.5,1.5H-0.3c-0.8,0-1.5-0.7-1.5-1.5S-1.1,6.7-0.3,6.7z"/>
</g>
</svg>
