<?xml version="1.0" encoding="utf-8"?>
<!-- Generator: Adobe Illustrator 24.2.0, SVG Export Plug-In . SVG Version: 6.00 Build 0)  -->
<svg version="1.1" id="レイヤー_1" xmlns="http://www.w3.org/2000/svg" xmlns:xlink="http://www.w3.org/1999/xlink" x="0px"
	 y="0px" viewBox="0 0 24 16" style="enable-background:new 0 0 24 16;" xml:space="preserve">
<style type="text/css">
	.st0{fill:#B99C78;}
</style>
<g id="グループ_751" transform="translate(-285.38 -41.906)">
	<g id="グループ_182" transform="translate(-529 -8431.5)">
		<path class="st0" d="M830.2,8488.8c-0.3,0-0.5-0.1-0.7-0.3c-0.4-0.4-0.4-1,0-1.4l5.6-5.6l-5.6-5.6c-0.4-0.4-0.4-1,0-1.4
			s1-0.4,1.4,0l6.3,6.3c0.2,0.2,0.3,0.4,0.3,0.7s-0.1,0.5-0.3,0.7l-6.3,6.3C830.7,8488.7,830.4,8488.8,830.2,8488.8z"/>
		<path class="st0" d="M828.8,8482.3h-12.5c-0.6,0-1-0.4-1-1s0.4-1,1-1h12.5c0.6,0,1,0.4,1,1C829.8,8482,829.3,8482.3,828.8,8482.3z
			"/>
	</g>
</g>
</svg>
