<?xml version="1.0" encoding="utf-8"?>
<!-- Generator: Adobe Illustrator 24.2.0, SVG Export Plug-In . SVG Version: 6.00 Build 0)  -->
<svg version="1.1" id="レイヤー_1" xmlns="http://www.w3.org/2000/svg" xmlns:xlink="http://www.w3.org/1999/xlink" x="0px"
	 y="0px" viewBox="0 0 30 21" style="enable-background:new 0 0 30 21;" xml:space="preserve">
<style type="text/css">
	.st0{fill:#B11818;}
</style>
<g id="グループ_205" transform="translate(1.5 2.121)">
	<path class="st0" d="M18.5,18.2c-0.4,0-0.8-0.1-1.1-0.4c-0.6-0.6-0.6-1.5,0-2.1l7.2-7.2l-7.2-7.2c-0.6-0.6-0.6-1.5,0-2.1
		s1.5-0.6,2.1,0l8.3,8.3C28,7.6,28.2,8,28.2,8.4S28,9.2,27.9,9.5l-8.3,8.3C19.2,18,18.9,18.2,18.5,18.2z"/>
	<path class="st0" d="M16.6,9.9H0.2c-0.8,0-1.5-0.7-1.5-1.5s0.7-1.5,1.5-1.5h16.4c0.8,0,1.5,0.7,1.5,1.5S17.5,9.9,16.6,9.9z"/>
</g>
</svg>
