<?xml version="1.0" encoding="utf-8"?>
<!-- Generator: Adobe Illustrator 24.2.0, SVG Export Plug-In . SVG Version: 6.00 Build 0)  -->
<svg version="1.1" id="コンポーネント_103_9"
	 xmlns="http://www.w3.org/2000/svg" xmlns:xlink="http://www.w3.org/1999/xlink" x="0px" y="0px" viewBox="0 0 121 44"
	 style="enable-background:new 0 0 121 44;" xml:space="preserve">
<path id="パス_743" d="M13.2,1.6c0.5,0.2,0.8,0.7,0.7,1.2c0,0.4-0.1,0.7-0.4,1c-0.2,0.3-0.6,0.5-1,0.5c-0.3,0-0.6-0.1-0.8-0.2
	C11,3.7,10.1,3.5,9.2,3.5c-1,0-2,0.2-2.9,0.7c-0.8,0.5-1.5,1.2-1.9,2C3.9,7.2,3.7,8.2,3.7,9.2c-0.1,1.6,0.4,3.1,1.5,4.3
	c1.1,1,2.5,1.5,4,1.5c0.9,0,1.8-0.2,2.5-0.6c0.2-0.1,0.5-0.2,0.8-0.2c0.4,0,0.8,0.2,1.1,0.5c0.2,0.3,0.4,0.6,0.4,1
	c0,0.2-0.1,0.5-0.2,0.7c-0.1,0.2-0.3,0.4-0.6,0.5c-1.2,0.6-2.6,0.9-4,0.9c-1.5,0-3-0.3-4.3-1c-1.3-0.7-2.4-1.7-3.1-2.9
	c-0.8-1.4-1.2-3.1-1.2-4.7c0-1.5,0.4-3.1,1.1-4.4c0.7-1.3,1.8-2.3,3.1-3C6.1,1,7.7,0.6,9.2,0.7C10.6,0.7,11.9,1,13.2,1.6z M33.8,9.2
	c0,1.5-0.3,3-1.1,4.4c-0.7,1.3-1.7,2.4-2.9,3.1c-1.3,0.8-2.7,1.2-4.2,1.2c-1.5,0-2.9-0.4-4.2-1.2c-1.2-0.8-2.2-1.8-2.9-3.1
	c-0.7-1.3-1.1-2.8-1-4.4c0-1.5,0.3-3,1-4.4c0.7-1.3,1.7-2.4,2.9-3.1c1.3-0.8,2.7-1.2,4.2-1.2c1.5,0,2.9,0.4,4.2,1.2
	c1.2,0.8,2.2,1.8,2.9,3.1C33.5,6.2,33.9,7.7,33.8,9.2z M30.7,9.2c0-1-0.2-2-0.6-2.9c-0.4-0.8-1-1.6-1.8-2.1
	c-0.8-0.5-1.7-0.8-2.6-0.8c-0.9,0-1.8,0.2-2.6,0.8c-0.8,0.5-1.4,1.2-1.8,2.1c-0.4,0.9-0.7,1.9-0.6,2.9c0,1,0.2,2,0.6,2.9
	c0.4,0.8,1,1.6,1.8,2.1c0.8,0.5,1.7,0.8,2.6,0.8c0.9,0,1.8-0.3,2.6-0.8c0.8-0.5,1.4-1.2,1.8-2.1C30.5,11.2,30.7,10.2,30.7,9.2
	L30.7,9.2z M51.3,0.8c0.4,0,0.7,0.1,0.9,0.4c0.2,0.3,0.4,0.6,0.4,1v14c0,0.4-0.1,0.8-0.4,1c-0.3,0.3-0.7,0.4-1,0.4
	c-0.2,0-0.4,0-0.7-0.1c-0.2-0.1-0.3-0.2-0.5-0.3L41.2,6v10.2c0,0.4-0.1,0.7-0.4,1c-0.3,0.3-0.6,0.4-1,0.4c-0.4,0-0.7-0.1-0.9-0.4
	c-0.2-0.3-0.4-0.6-0.4-1v-14c0-0.4,0.1-0.8,0.4-1c0.3-0.3,0.7-0.4,1-0.4c0.2,0,0.5,0,0.7,0.1c0.2,0.1,0.4,0.2,0.5,0.4l8.7,11.1V2.1
	c0-0.4,0.1-0.7,0.4-1C50.6,0.9,50.9,0.8,51.3,0.8z M69.1,0.8c0.4,0,0.8,0.1,1.1,0.4c0.3,0.3,0.4,0.6,0.4,1c0,0.4-0.1,0.7-0.4,1
	c-0.3,0.3-0.7,0.4-1.1,0.4h-3.8v12.6c0,0.4-0.2,0.8-0.5,1c-0.3,0.3-0.7,0.4-1.1,0.4c-0.4,0-0.8-0.1-1.1-0.4c-0.3-0.3-0.4-0.7-0.4-1
	V3.5h-3.8c-0.4,0-0.8-0.1-1.1-0.4c-0.3-0.3-0.4-0.6-0.4-1c0-0.4,0.1-0.7,0.4-1c0.3-0.3,0.7-0.4,1-0.4L69.1,0.8z M87,15.7
	c0.1,0.2,0.1,0.4,0.1,0.6c0,0.4-0.1,0.8-0.4,1c-0.2,0.3-0.6,0.4-0.9,0.4c-0.3,0-0.6-0.1-0.8-0.3c-0.2-0.2-0.4-0.4-0.5-0.7l-1.2-2.9
	h-7.2l-1.2,2.9c-0.1,0.3-0.3,0.5-0.5,0.7c-0.2,0.2-0.5,0.3-0.8,0.3c-0.3,0-0.7-0.1-0.9-0.3c-0.2-0.2-0.3-0.6-0.3-0.9
	c0-0.2,0-0.3,0.1-0.5l6-14.4c0.1-0.3,0.3-0.6,0.6-0.7c0.3-0.2,0.6-0.3,0.9-0.2c0.3,0,0.6,0.1,0.8,0.3c0.3,0.2,0.4,0.4,0.5,0.7
	L87,15.7z M77.2,11.1H82l-2.4-5.6L77.2,11.1z M102.7,1.6c0.5,0.2,0.8,0.7,0.7,1.2c0,0.4-0.1,0.7-0.4,1c-0.2,0.3-0.6,0.5-1,0.5
	c-0.3,0-0.6-0.1-0.8-0.2c-0.8-0.4-1.7-0.6-2.5-0.6c-1,0-2,0.2-2.9,0.7c-0.8,0.5-1.5,1.2-1.9,2c-0.5,0.9-0.7,1.9-0.7,2.9
	c-0.1,1.6,0.4,3.1,1.5,4.3c1.1,1,2.5,1.5,4,1.5c0.9,0,1.8-0.2,2.5-0.6c0.2-0.1,0.5-0.2,0.8-0.2c0.4,0,0.8,0.2,1.1,0.5
	c0.2,0.3,0.4,0.6,0.4,1c0,0.2-0.1,0.5-0.2,0.7c-0.1,0.2-0.3,0.4-0.6,0.5c-1.2,0.6-2.6,0.9-4,0.9c-1.5,0-3-0.3-4.3-1
	c-1.3-0.7-2.4-1.7-3.1-2.9c-0.8-1.4-1.2-3.1-1.2-4.7c0-1.5,0.4-3.1,1.1-4.4c0.7-1.3,1.8-2.3,3.1-3c1.4-0.7,2.9-1.1,4.4-1.1
	C100.1,0.7,101.5,1,102.7,1.6z M119,0.8c0.4,0,0.8,0.1,1.1,0.4c0.3,0.3,0.4,0.6,0.4,1c0,0.4-0.1,0.7-0.4,1c-0.3,0.3-0.7,0.4-1.1,0.4
	h-3.8v12.6c0,0.4-0.2,0.8-0.5,1c-0.3,0.3-0.7,0.4-1.1,0.4c-0.4,0-0.8-0.1-1.1-0.4c-0.3-0.3-0.4-0.7-0.4-1V3.5h-3.8
	c-0.4,0-0.8-0.1-1.1-0.4c-0.3-0.3-0.4-0.6-0.4-1c0-0.4,0.1-0.7,0.4-1c0.3-0.3,0.7-0.4,1-0.4H119z"/>
<path id="パス_749" d="M4.1,35.2c-0.9,0.1-1.8,0.1-2.7,0.1c0,0.2,0,0.4,0.1,0.6c0,0.1,0.1,0.2,0.2,0.2c0.8,0,1.6,0,2.4-0.1
	c0,0.9,0,1.9,0,2.8c-0.8,0.5-1.5,0.9-2.1,1.1c-0.4,0.2-0.8,0.4-1.3,0.5c0.1,0.3,0.2,0.5,0.4,0.8c0.1,0.1,0.1,0.1,0.2,0.1
	c0.1,0,0.1,0,0.2-0.1C1.6,41.1,1.8,41,2,40.9c0.7,0.4,1.3,0.9,1.9,1.5c0.3,0.3,0.4,0.5,0.5,0.5c0.2,0,0.4,0,0.5-0.1
	C5,42.7,5,42.6,5,42.4c0-0.2-0.1-0.6-0.1-1.2c0-0.8-0.1-1.5-0.1-2c1-0.6,2.1-1,3.2-1.1c1.2,0,1.8,0.6,1.8,1.6c0,1.1-0.8,1.6-1.8,1.6
	c-0.5,0-1-0.1-1.4-0.3c0.1,0.2,0.2,0.4,0.2,0.6c0,0.2,0.1,0.3,0.2,0.3c0.3,0.1,0.7,0.2,1,0.2c1.6,0,2.7-0.8,2.7-2.4
	c0-1.3-1-2.3-2.3-2.3c-0.1,0-0.2,0-0.3,0c-1.2,0.1-2.3,0.4-3.4,1c0-0.9,0-1.7,0-2.6c0.7-0.1,1.4-0.3,2-0.5c0.1,0,0.1-0.1,0.1-0.2
	c0-0.2,0-0.4,0-0.5c0-0.1-0.1-0.1-0.2-0.1c-0.6,0.2-1.3,0.4-1.9,0.5c0-0.4,0-0.8,0.1-1.1c0-0.2,0-0.5,0.2-0.7c0,0,0.1-0.1,0.1-0.2
	c0-0.1-0.1-0.2-0.2-0.2c-0.3-0.1-0.7-0.2-1-0.2c0.1,0.4,0.1,0.8,0.1,1.2C4.1,34.3,4.1,34.7,4.1,35.2z M4.1,39.6
	c0,0.7,0.1,1.3,0.1,1.8c0,0.1,0,0.1-0.1,0.1c-0.5-0.3-1-0.6-1.6-0.9C3.1,40.2,3.5,39.9,4.1,39.6z M8.5,34.8c1,0.2,1.8,0.7,2.5,1.4
	c0,0,0.1,0.1,0.1,0c0,0,0,0,0,0c0.2-0.2,0.3-0.3,0.4-0.5c0,0,0.1-0.1,0-0.2c0,0,0,0,0,0c-0.7-0.7-1.6-1.2-2.6-1.4
	c-0.1,0-0.1,0-0.2,0.1C8.7,34.4,8.6,34.6,8.5,34.8z M25.3,34.3c0-1.3,0-1.8,0-1.9c0-0.1,0-0.1-0.1-0.1c-0.1,0-0.4,0-1.4,0h-1.6
	c-1,0-1.3,0-1.4,0c-0.1,0-0.1,0-0.1,0.1c0,0.1,0,0.3,0,1.1v1.7c0,0.8,0,1.1,0,1.1c0,0.1,0,0.1,0.1,0.1c0.1,0,0.4,0,1.4,0h2.3v5.5
	c0,0.5-0.1,0.6-0.7,0.6c-0.3,0-0.7,0-1-0.1c0.1,0.2,0.2,0.4,0.2,0.6c0.1,0.2,0.1,0.2,0.3,0.2c1,0,1.4-0.1,1.6-0.3s0.3-0.4,0.3-1
	c0-0.5,0-1.2,0-1.9L25.3,34.3z M24.6,35.8h-3.1v-1.1h3.1L24.6,35.8z M24.6,34h-3.1V33h3.1L24.6,34z M19.5,33.6c0-0.8,0-1.1,0-1.2
	c0-0.1,0-0.1-0.1-0.1c-0.1,0-0.4,0-1.3,0h-1.5c-1,0-1.4,0-1.5,0s-0.1,0-0.1,0.1s0,0.9,0,2.7v5.5c0,1.9,0,2.6,0,2.7
	c0,0.1,0,0.1,0.1,0.1h0.6c0.1,0,0.1,0,0.1-0.1c0-0.1,0-0.8,0-2.7v-4.3h2.3c0.9,0,1.2,0,1.3,0c0.1,0,0.1,0,0.1-0.1c0-0.1,0-0.4,0-1.2
	L19.5,33.6z M18.7,35.8h-2.9v-1.1h2.9V35.8z M18.7,34h-2.9V33h2.9V34z M22.3,38.8c0-0.7,0-1,0-1.1c0-0.1,0-0.1-0.1-0.1s-0.4,0-1.3,0
	h-1.5c-1,0-1.3,0-1.3,0s-0.1,0-0.1,0.1c0,0.1,0,0.4,0,1.3v0.9c0,1.7,0,2,0,2.1c0,0.1,0,0.1,0.1,0.1h0.6c0.1,0,0.1,0,0.1-0.1v-0.9
	h2.8v0.6c0,0.1,0,0.1,0.1,0.1h0.5c0.1,0,0.1,0,0.1-0.1c0-0.1,0-0.3,0-2L22.3,38.8z M21.5,40.5h-2.8v-2.2h2.8L21.5,40.5z M29.5,33.7
	c0.1,0.4,0.1,0.8,0.1,1.2c0,1.2,0.1,2.4,0.2,3.6c0.3,2,1.1,3.5,2.2,3.5c0.9,0,1.6-1,1.9-2c0-0.1,0-0.2-0.1-0.3
	c-0.2-0.2-0.3-0.4-0.4-0.7c-0.4,1.2-0.9,2-1.4,2c-0.6,0-1.2-1.1-1.4-2.7c-0.1-1-0.2-2-0.2-3c0-0.4,0-0.8,0.1-1.2
	c0-0.1,0-0.2,0.1-0.2c0-0.1,0-0.1-0.1-0.1C30.2,33.8,29.9,33.7,29.5,33.7z M36.2,35.3c1.3,1.2,2.2,2.8,2.4,4.5
	c0,0.1,0.1,0.1,0.1,0.1c0,0,0,0,0,0c0.2-0.1,0.4-0.2,0.6-0.3c0.1,0,0.1-0.1,0.1-0.2c-0.3-1.7-1.2-3.3-2.5-4.5c-0.1-0.1-0.1,0-0.2,0
	C36.6,35.1,36.4,35.2,36.2,35.3z M52,39.8c0-0.9,0-1.2,0-1.3c0-0.1,0-0.1-0.1-0.1c-0.1,0-0.5,0-1.8,0h-3.6c-1.3,0-1.7,0-1.8,0
	s-0.1,0-0.1,0.1c0,0.1,0,0.4,0,1.5v1.1c0,1.9,0,2.2,0,2.3s0,0.1,0.1,0.1h0.6c0.1,0,0.1,0,0.1-0.1v-0.6h5.8v0.5c0,0.1,0,0.1,0.1,0.1
	h0.6c0.1,0,0.1,0,0.1-0.1c0-0.1,0-0.4,0-2.2L52,39.8z M51.2,42h-5.8v-2.8h5.8L51.2,42z M48.7,32.1c0.1,0,0.1-0.1,0.1-0.2
	c0-0.1-0.1-0.1-0.2-0.1c-0.2-0.1-0.5-0.1-0.8-0.2c-0.1,0.3-0.2,0.5-0.4,0.7c-1.3,2-3.2,3.5-5.3,4.4c0.2,0.1,0.3,0.3,0.4,0.5
	c0.1,0.1,0.1,0.2,0.2,0.2c0.1,0,0.1,0,0.2-0.1c2.1-1,3.9-2.6,5.3-4.5c1.4,2,3.3,3.5,5.5,4.5c0.1,0,0.1,0.1,0.2,0.1
	c0.1,0,0.1-0.1,0.2-0.2c0.1-0.2,0.2-0.4,0.4-0.5c-2.3-0.8-4.4-2.4-5.8-4.4L48.7,32.1z M50.9,36.2C50.9,36.1,50.9,36.1,50.9,36.2
	c-0.2-0.1-0.5-0.1-1.6-0.1h-2.1c-1.1,0-1.4,0-1.5,0s-0.1,0-0.1,0.1v0.6c0,0.1,0,0.1,0.1,0.1s0.4,0,1.5,0h2.1c1.1,0,1.5,0,1.5,0
	c0.1,0,0.1,0,0.1-0.1L50.9,36.2z M59.7,32.2c0.1,0.4,0.1,0.8,0.1,1.1c0,0.8,0,1.2-0.1,1.8c-0.8,0.2-1.3,0.4-1.8,0.5
	c-0.3,0.1-0.6,0.1-0.9,0.1c0.1,0.2,0.2,0.5,0.4,0.7c0.1,0.1,0.1,0.2,0.2,0.2c0.1,0,0.3-0.2,0.5-0.3c0.4-0.2,1-0.4,1.5-0.5
	c0,0.3,0,0.7,0,1.1c-1,1.4-1.9,2.6-2.9,3.8c-0.1,0.1-0.1,0.1,0,0.2c0.2,0.2,0.3,0.3,0.5,0.5c0.1,0.1,0.1,0,0.2-0.1
	c0.7-1,1.4-2.1,2.2-3.1c0,1.7,0,3.1,0,4.7c0,0.1,0,0.1,0.1,0.1c0.2,0,0.6,0,0.7,0c0.1,0,0.1,0,0.1-0.1c0-1.7-0.1-3.3,0-5
	c1-1.1,2.4-1.7,3.9-1.8c1.1-0.1,2.1,0.8,2.2,2c0,0.1,0,0.2,0,0.3c0,0.7-0.3,1.4-0.8,2c-0.7,0.7-1.7,1.2-2.7,1.4
	c0.2,0.1,0.4,0.3,0.6,0.5c0.1,0.1,0.2,0.2,0.4,0.1c2.4-0.7,3.4-2.3,3.4-3.9c0.1-1.6-1.1-3-2.7-3.1c-0.1,0-0.2,0-0.3,0
	c-1.5,0.1-2.9,0.6-4,1.7c0-0.2,0-0.4,0-0.7c0.2-0.3,0.4-0.6,0.6-0.9c0.1-0.1,0.2-0.2,0.2-0.3c0-0.1-0.1-0.2-0.2-0.3
	c-0.1-0.1-0.2-0.2-0.2-0.2c0,0-0.1,0-0.1,0c-0.1,0-0.1,0.1-0.2,0.1c0-0.6,0.1-1.1,0.1-1.7c0-0.2,0.1-0.3,0.1-0.5
	c0.1-0.2,0.1-0.3-0.1-0.3C60.4,32.3,60.1,32.2,59.7,32.2L59.7,32.2z M78.1,35.7c-1.2,0.1-2.6,0.3-3.7,0.4c0-0.5,0-0.9,0-1.4
	c0-0.2,0-0.4,0.1-0.6c0-0.1,0.1-0.2,0.1-0.3c0-0.1-0.1-0.2-0.2-0.2c-0.3-0.1-0.7-0.1-1-0.2c0.1,0.4,0.2,0.8,0.2,1.3c0,0.5,0,1,0,1.5
	c-0.6,0.1-1.3,0.2-2,0.3c-0.3,0-0.6,0.1-1,0.1c0.1,0.3,0.1,0.5,0.2,0.8c0.1,0.1,0.1,0.1,0.3,0.1c0.2-0.1,0.4-0.1,0.6-0.2
	c0.6-0.1,1.2-0.2,1.8-0.3c0,1.4,0,2.8,0.1,3.4c0.2,1.6,0.8,2.1,3.3,2.1c1.1,0,2.1-0.1,3.1-0.2c0.1,0,0.1-0.1,0.1-0.2
	c0-0.2,0-0.4,0-0.6c0-0.1-0.1-0.1-0.2-0.1c-1,0.2-2.1,0.2-3.1,0.2c-1.9,0-2.2-0.3-2.3-1.4c-0.1-0.7-0.1-2,0-3.3
	c1.2-0.2,2.5-0.3,3.7-0.4c0,0.6-0.1,1.2-0.1,1.8c-0.1,0.5-0.2,0.7-0.6,0.7c-0.4,0-0.9-0.1-1.3-0.2c0.1,0.2,0.2,0.5,0.2,0.7
	c0,0.1,0,0.2,0.2,0.2c0.3,0.1,0.6,0.1,1,0.1c0.8,0,1.2-0.4,1.4-1.3c0.1-0.5,0.1-1.3,0.2-2.1c1-0.1,1.8-0.1,2.7-0.1
	c0.1,0,0.1,0,0.1-0.2c0-0.2,0-0.4,0-0.6c0-0.1,0-0.1-0.1-0.1c-0.9,0-1.7,0.1-2.7,0.2c0-0.8,0-1.4,0.1-2.2c0-0.2,0-0.3,0.1-0.5
	c0-0.1,0.1-0.1,0.1-0.2c0-0.1,0-0.1-0.2-0.2c-0.3-0.1-0.7-0.2-1-0.2c0.1,0.4,0.1,0.7,0.1,1.1C78.1,34.1,78.1,34.9,78.1,35.7z"/>
</svg>
