<?xml version="1.0" encoding="utf-8"?>
<!-- Generator: Adobe Illustrator 24.2.0, SVG Export Plug-In . SVG Version: 6.00 Build 0)  -->
<svg version="1.1" id="コンポーネント_103_8"
	 xmlns="http://www.w3.org/2000/svg" xmlns:xlink="http://www.w3.org/1999/xlink" x="0px" y="0px" viewBox="0 0 182 44"
	 style="enable-background:new 0 0 182 44;" xml:space="preserve">
<path id="パス_742" d="M14.5,0.7c0.4,0,0.7,0.1,0.9,0.4c0.2,0.3,0.4,0.6,0.4,1v14c0,0.4-0.1,0.8-0.4,1c-0.3,0.3-0.7,0.4-1,0.4
	c-0.2,0-0.4,0-0.7-0.1c-0.2-0.1-0.3-0.2-0.5-0.3L4.4,5.9v10.2c0,0.4-0.1,0.7-0.4,1c-0.3,0.3-0.6,0.4-1,0.4c-0.4,0-0.7-0.1-0.9-0.4
	c-0.2-0.3-0.4-0.6-0.4-1v-14c0-0.4,0.1-0.8,0.4-1c0.3-0.3,0.7-0.4,1-0.4c0.2,0,0.5,0,0.7,0.1C4.2,1,4.4,1.1,4.5,1.3l8.7,11.1V2.1
	c0-0.4,0.1-0.7,0.4-1C13.8,0.9,14.2,0.7,14.5,0.7z M30.9,14.8c0.4,0,0.8,0.1,1,0.4c0.3,0.3,0.4,0.6,0.4,1c0,0.4-0.1,0.7-0.4,1
	c-0.3,0.3-0.7,0.4-1,0.4h-8c-0.4,0-0.8-0.1-1-0.4c-0.3-0.3-0.4-0.7-0.4-1V2.2c0-0.4,0.1-0.8,0.4-1c0.3-0.3,0.7-0.4,1-0.4h8
	c0.4,0,0.8,0.1,1,0.4c0.3,0.3,0.4,0.6,0.4,1c0,0.4-0.1,0.7-0.4,1c-0.3,0.3-0.7,0.4-1.1,0.4h-6.5v4.1h5.4c0.4,0,0.8,0.1,1,0.4
	c0.3,0.3,0.4,0.6,0.4,1c0,0.4-0.1,0.7-0.4,1c-0.3,0.3-0.7,0.4-1.1,0.4h-5.4v4.4L30.9,14.8z M55.9,0.7c0.4,0,0.8,0.2,1.1,0.4
	c0.3,0.3,0.5,0.7,0.5,1.1c0,0.2,0,0.3-0.1,0.5l-4.7,13.9c-0.1,0.3-0.3,0.5-0.5,0.6c-0.2,0.2-0.5,0.3-0.8,0.3c-0.3,0-0.6-0.1-0.8-0.2
	c-0.3-0.2-0.5-0.4-0.6-0.7l-3.4-7.7l-3.4,7.8c-0.1,0.3-0.3,0.5-0.6,0.7c-0.2,0.2-0.5,0.2-0.8,0.2c-0.3,0-0.6-0.1-0.8-0.3
	c-0.2-0.2-0.4-0.4-0.5-0.6L35.7,2.7c0-0.2-0.1-0.3-0.1-0.5c0-0.4,0.2-0.8,0.5-1.1c0.3-0.3,0.7-0.4,1.1-0.4c0.3,0,0.6,0.1,0.9,0.3
	c0.2,0.2,0.4,0.4,0.5,0.7l3.6,10.8L45.3,5c0.1-0.3,0.3-0.5,0.6-0.7c0.2-0.2,0.5-0.2,0.8-0.2c0.3,0,0.6,0.1,0.8,0.2
	C47.7,4.5,47.9,4.7,48,5l3,7.4l3.6-10.8c0.1-0.3,0.3-0.5,0.5-0.7C55.3,0.8,55.6,0.7,55.9,0.7z M66.7,17.8c-1,0-2.1-0.1-3.1-0.4
	c-0.9-0.3-1.8-0.8-2.5-1.5c-0.4-0.3-0.6-0.8-0.6-1.3c0-0.4,0.1-0.7,0.4-1c0.3-0.3,0.6-0.4,1-0.4c0.3,0,0.6,0.1,0.8,0.3
	c0.6,0.5,1.2,0.9,1.9,1.2c0.7,0.3,1.4,0.4,2.2,0.4c0.8,0,1.6-0.2,2.3-0.6c0.6-0.3,0.9-0.9,1-1.5c0-0.7-0.4-1.3-1-1.7
	c-0.9-0.5-2-0.8-3-0.9c-3.5-0.5-5.3-2.1-5.3-4.9c0-0.9,0.3-1.9,0.8-2.6c0.5-0.8,1.3-1.3,2.2-1.7c1-0.4,2-0.6,3-0.6
	c1,0,1.9,0.1,2.8,0.5c0.8,0.3,1.6,0.7,2.2,1.2c0.4,0.3,0.7,0.8,0.7,1.3c0,0.4-0.1,0.7-0.4,1c-0.2,0.3-0.6,0.4-1,0.4
	c-0.2,0-0.5-0.1-0.6-0.2c-0.5-0.4-1.1-0.7-1.7-0.9c-0.6-0.3-1.3-0.4-2-0.4c-0.8,0-1.6,0.1-2.3,0.6c-0.5,0.3-0.8,0.9-0.8,1.5
	c0,0.6,0.3,1.2,0.9,1.6c0.8,0.4,1.7,0.7,2.7,0.9c1.1,0.2,2.2,0.5,3.3,0.9c0.8,0.3,1.4,0.9,1.9,1.5c0.5,0.8,0.7,1.7,0.6,2.6
	c0,1-0.3,1.9-0.9,2.7c-0.6,0.8-1.4,1.4-2.3,1.8C68.8,17.6,67.8,17.8,66.7,17.8z M95.5,14.7c0.4,0,0.8,0.1,1,0.4
	c0.3,0.3,0.4,0.6,0.4,1c0,0.4-0.1,0.7-0.4,1c-0.3,0.3-0.7,0.4-1,0.4h-7.8c-0.4,0-0.8-0.1-1-0.4c-0.3-0.3-0.4-0.7-0.4-1V2.2
	c0-0.4,0.1-0.8,0.4-1c0.3-0.3,0.7-0.4,1.1-0.4c0.4,0,0.8,0.1,1,0.4c0.3,0.3,0.4,0.7,0.4,1v12.5H95.5z M111.1,14.8
	c0.4,0,0.8,0.1,1,0.4c0.3,0.3,0.4,0.6,0.4,1c0,0.4-0.1,0.7-0.4,1c-0.3,0.3-0.7,0.4-1,0.4h-8c-0.4,0-0.8-0.1-1-0.4
	c-0.3-0.3-0.4-0.7-0.4-1V2.2c0-0.4,0.1-0.8,0.4-1c0.3-0.3,0.7-0.4,1-0.4h8c0.4,0,0.8,0.1,1,0.4c0.3,0.3,0.4,0.6,0.4,1
	c0,0.4-0.1,0.7-0.4,1c-0.3,0.3-0.7,0.4-1.1,0.4h-6.5v4.1h5.4c0.4,0,0.8,0.1,1,0.4c0.3,0.3,0.4,0.6,0.4,1c0,0.4-0.1,0.7-0.4,1
	c-0.3,0.3-0.7,0.4-1.1,0.4h-5.4v4.4L111.1,14.8z M128.3,0.7c0.4,0,0.8,0.1,1.1,0.4c0.3,0.3,0.4,0.6,0.4,1c0,0.4-0.1,0.7-0.4,1
	c-0.3,0.3-0.7,0.4-1.1,0.4h-3.8v12.6c0,0.4-0.2,0.8-0.5,1c-0.3,0.3-0.7,0.4-1.1,0.4c-0.4,0-0.8-0.1-1.1-0.4c-0.3-0.3-0.4-0.7-0.4-1
	V3.5h-3.8c-0.4,0-0.8-0.1-1.1-0.4c-0.3-0.3-0.4-0.6-0.4-1c0-0.4,0.1-0.7,0.4-1c0.3-0.3,0.7-0.4,1-0.4L128.3,0.7z M146,0.7
	c0.4,0,0.8,0.1,1.1,0.4c0.3,0.3,0.4,0.6,0.4,1c0,0.4-0.1,0.7-0.4,1c-0.3,0.3-0.7,0.4-1.1,0.4h-3.8v12.6c0,0.4-0.2,0.8-0.5,1
	c-0.3,0.3-0.7,0.4-1.1,0.4c-0.4,0-0.8-0.1-1.1-0.4c-0.3-0.3-0.4-0.7-0.4-1V3.5h-3.8c-0.4,0-0.8-0.1-1.1-0.4c-0.3-0.3-0.4-0.6-0.4-1
	c0-0.4,0.1-0.7,0.4-1c0.3-0.3,0.7-0.4,1-0.4L146,0.7z M161.4,14.8c0.4,0,0.8,0.1,1,0.4c0.3,0.3,0.4,0.6,0.4,1c0,0.4-0.1,0.7-0.4,1
	c-0.3,0.3-0.7,0.4-1,0.4h-8c-0.4,0-0.8-0.1-1-0.4c-0.3-0.3-0.4-0.7-0.4-1V2.2c0-0.4,0.1-0.8,0.4-1c0.3-0.3,0.7-0.4,1-0.4h8
	c0.4,0,0.8,0.1,1,0.4c0.3,0.3,0.4,0.6,0.4,1c0,0.4-0.1,0.7-0.4,1c-0.3,0.3-0.7,0.4-1.1,0.4h-6.5v4.1h5.4c0.4,0,0.8,0.1,1,0.4
	c0.3,0.3,0.4,0.6,0.4,1c0,0.4-0.1,0.7-0.4,1c-0.3,0.3-0.7,0.4-1.1,0.4h-5.4v4.4H161.4z M180.7,15.2c0.2,0.1,0.4,0.3,0.5,0.5
	c0.1,0.2,0.2,0.4,0.2,0.6c0,0.3-0.1,0.6-0.3,0.8c-0.3,0.3-0.7,0.5-1.1,0.4c-0.4,0-0.7-0.1-1.1-0.3c-1.2-0.7-1.7-2-1.7-4
	c0-0.5-0.2-1-0.6-1.4c-0.5-0.4-1-0.5-1.6-0.5h-4.5v4.7c0,0.4-0.1,0.8-0.3,1.1c-0.2,0.3-0.6,0.4-0.9,0.4c-0.4,0-0.9-0.1-1.2-0.4
	c-0.3-0.2-0.5-0.6-0.5-1V2.2c0-0.4,0.1-0.8,0.4-1c0.3-0.3,0.7-0.4,1-0.4h6.9c0.8,0,1.6,0.2,2.4,0.7c0.7,0.5,1.3,1.1,1.8,1.8
	c0.4,0.8,0.7,1.7,0.7,2.6c0,0.8-0.2,1.6-0.6,2.3c-0.4,0.7-1,1.4-1.7,1.8c1,0.6,1.6,1.7,1.7,2.8c0,0.2,0.1,0.5,0.1,0.7
	c0,0.4,0.1,0.7,0.2,1.1C180.3,14.9,180.5,15.1,180.7,15.2L180.7,15.2z M175.8,8.9c0.3,0,0.6-0.2,0.8-0.4c0.3-0.3,0.5-0.7,0.7-1.1
	c0.2-0.5,0.3-1,0.3-1.5c0-0.4-0.1-0.8-0.3-1.2c-0.2-0.3-0.4-0.7-0.7-0.9c-0.2-0.2-0.5-0.3-0.8-0.3h-5.3v5.4H175.8z"/>
<path id="パス_749" d="M5.1,34.7c0-0.1,0-0.1-0.1-0.1c-0.1,0-0.3,0-1.2,0H3.7v-1.1c0-0.4,0-0.9,0.1-1.3c0-0.1,0.1-0.1,0.1-0.2
	c0-0.1-0.1-0.1-0.2-0.1c-0.3,0-0.5-0.1-0.8-0.1c0.1,0.6,0.1,1.2,0.1,1.8v1h-1c0.1-0.3,0.1-0.7,0.1-1c0-0.1,0-0.2,0.1-0.3
	c0,0,0.1-0.1,0.1-0.2C2.2,33.1,2.1,33,2,33c-0.2-0.1-0.5-0.1-0.7-0.1c0,0.3,0,0.6,0,0.8C1.2,34.8,1,35.9,0.6,37
	c0.1,0,0.3,0.1,0.4,0.1c0.1,0,0.1,0.1,0.2,0.1c0.1,0,0.1-0.1,0.1-0.2c0.2-0.5,0.3-1.1,0.4-1.7h1.1v3c-0.4,0.2-0.7,0.3-1.1,0.5
	c-0.4,0.2-0.8,0.3-1.1,0.4c0.1,0.3,0.2,0.5,0.3,0.8C1,40,1.1,40.1,1.2,40c0.1,0,0.1-0.1,0.2-0.1c0.1-0.1,0.3-0.2,0.4-0.3l1.1-0.5v2
	c0,1.5,0,2.2,0,2.3c0,0.1,0,0.1,0.1,0.1h0.6c0.1,0,0.1,0,0.1-0.1c0-0.1,0-0.7,0-2.3v-2.4c0.4-0.2,0.8-0.4,1.2-0.6
	C5.1,38,5.1,38,5.1,37.7c0-0.2,0-0.3,0-0.5c-0.5,0.3-1,0.5-1.4,0.7v-2.6h0.1c0.9,0,1.2,0,1.2,0c0.1,0,0.1,0,0.1-0.1V34.7z
	 M12.4,35.9c0-0.1,0-0.1-0.1-0.1c-0.1,0-0.5,0-1.8,0H8.8v-1.7h1.1c1.2,0,1.6,0,1.7,0c0.1,0,0.1,0,0.1-0.1v-0.5c0-0.1,0-0.1-0.1-0.1
	c-0.1,0-0.5,0-1.7,0H8.8c0-0.4,0-0.8,0.1-1.2c0-0.1,0.1-0.2,0.1-0.2c0-0.1-0.1-0.1-0.2-0.1c-0.3,0-0.6-0.1-0.9-0.1
	C8,32.3,8,32.9,8,33.5H7.2c-1.2,0-1.6,0-1.6,0c-0.1,0-0.1,0-0.1,0.1v0.5c0,0.1,0,0.1,0.1,0.1c0.1,0,0.4,0,1.6,0H8v1.7H6.8
	c-1.3,0-1.7,0-1.8,0c-0.1,0-0.1,0-0.1,0.1v0.5c0,0.1,0,0.1,0.1,0.1c0.1,0,0.5,0,1.8,0h3.7c1.3,0,1.7,0,1.8,0c0.1,0,0.1,0,0.1-0.1
	L12.4,35.9z M12.4,38.2c0-0.1,0-0.1-0.1-0.1c-0.1,0-0.5,0-1.7,0v0c0-0.3,0-0.6,0.1-0.9c0-0.1,0.1-0.1,0.1-0.2c0,0-0.1-0.1-0.2-0.1
	c-0.3,0-0.6-0.1-0.8-0.1c0.1,0.4,0.1,0.9,0.1,1.4H6.9c-1.3,0-1.7,0-1.8,0S5,38.2,5,38.2v0.5c0,0.1,0,0.1,0.1,0.1s0.5,0,1.8,0h2.9
	v3.3c0,0.4-0.2,0.5-0.4,0.5c-0.4,0-0.9,0-1.3,0c0.1,0.2,0.2,0.4,0.3,0.6c0.1,0.3,0.1,0.3,0.3,0.3c0.5,0.1,1,0,1.5-0.2
	c0.3-0.2,0.4-0.5,0.4-0.9c0-0.5,0-1.1,0-1.7v-1.8c1.2,0,1.6,0,1.7,0c0.1,0,0.1,0,0.1-0.1L12.4,38.2z M6.2,39.9C6,40,6,40,6.1,40.1
	c0.5,0.5,1,1.1,1.3,1.7c0.1,0.1,0.1,0.1,0.2,0L8,41.4c0.1-0.1,0.1-0.1,0.1-0.2c-0.4-0.6-0.9-1.1-1.4-1.6c-0.1-0.1-0.1-0.1-0.2,0
	L6.2,39.9z M25.5,38.1c0-0.1,0-0.1-0.1-0.1c-0.1,0-0.5,0-1.8,0H21v-1h1.8c1.3,0,1.7,0,1.8,0c0.1,0,0.1,0,0.1-0.1v-0.5
	c0-0.1,0-0.1-0.1-0.1c-0.1,0-0.5,0-1.8,0H21v-1h1.8c1.3,0,1.7,0,1.8,0c0.1,0,0.1,0,0.1-0.1v-0.5c0-0.1,0-0.1-0.1-0.1
	c-0.1,0-0.5,0-1.8,0H21v-1h2.4c1.3,0,1.7,0,1.8,0s0.1,0,0.1-0.1v-0.5c0-0.1,0-0.1-0.1-0.1s-0.5,0-1.8,0h-2.3
	c0.2-0.2,0.3-0.4,0.4-0.7c0.1-0.1,0.1-0.2,0.2-0.3c0.1,0,0.1-0.1,0.1-0.2c0-0.1,0-0.1-0.1-0.1c-0.2-0.1-0.5-0.2-0.8-0.2
	c0,0.2-0.1,0.5-0.2,0.7c-0.1,0.3-0.3,0.6-0.5,0.8h-2.9c0.1-0.2,0.3-0.4,0.4-0.5c0.1-0.2,0.2-0.3,0.4-0.5c0.1-0.1,0.1-0.1,0.1-0.2
	c0-0.1-0.1-0.1-0.1-0.1c-0.2-0.1-0.5-0.2-0.8-0.2c-0.1,0.3-0.2,0.5-0.4,0.8c-0.6,1.1-1.5,2-2.5,2.6c0.1,0.1,0.3,0.3,0.4,0.4
	c0.1,0.1,0.1,0.2,0.2,0.2s0.1,0,0.2-0.1c0.4-0.4,0.8-0.8,1.2-1.2c0,0.4,0,0.8,0,1.2v1.5c0,1,0,1.4,0,1.4s0,0.1,0.1,0.1
	c0.1,0,0.5,0,1.9,0h5.1c1.3,0,1.8,0,1.8,0c0.1,0,0.1,0,0.1-0.1L25.5,38.1z M20.3,38h-3.1v-1h3.1V38z M20.3,36.4h-3.1v-1h3.1V36.4z
	 M20.3,34.8h-3.1v-1h3.1V34.8z M24.3,40.3c1.2,0,1.7,0,1.7,0c0.1,0,0.1,0,0.1-0.1v-0.5c0-0.1,0-0.1-0.1-0.1c-0.1,0-0.5,0-1.7,0h-3.4
	c0-0.2,0-0.4,0-0.5C21,39.1,21,39,21,39s0-0.1-0.1-0.1c-0.2,0-0.5-0.1-0.8-0.1c0,0.3,0.1,0.6,0.1,0.9h-3.2c-1.2,0-1.7,0-1.7,0
	s-0.1,0-0.1,0.1v0.5c0,0.1,0,0.1,0.1,0.1s0.5,0,1.7,0h2.6c-1.4,1-3,1.8-4.7,2.1c0.1,0.1,0.2,0.3,0.3,0.4c0.1,0.2,0.1,0.2,0.4,0.2
	c1.8-0.4,3.4-1.3,4.7-2.5c0,1.8-0.1,2.6-0.1,2.9c0,0.1,0,0.1,0.1,0.1h0.6c0.1,0,0.1,0,0.1-0.1c0-0.2-0.1-1.1-0.1-2.9
	c1.4,1.3,3,2.1,4.8,2.6c0.3,0.1,0.3,0.1,0.4-0.2c0.1-0.2,0.2-0.4,0.4-0.5c-1.8-0.3-3.5-1-4.9-2.1H24.3z M37.5,37.6
	c0,0.9-0.3,1.9-0.8,2.7c-0.9-1-1.7-2.1-2.5-3.3c1.7-0.5,2.4-1.3,2.4-2.4c0-1.1-0.8-1.9-1.9-2c-0.1,0-0.2,0-0.2,0
	c-1.1-0.1-2.1,0.8-2.2,2c0,0,0,0.1,0,0.1c0,0.7,0.3,1.4,0.7,2c-1.3,0.4-2.1,1.6-2.1,2.9c0,1.6,1.3,2.8,2.8,2.8c0.1,0,0.2,0,0.2,0
	c1,0,1.9-0.3,2.6-0.9c0.5,0.6,1.2,1,2,0.9h0.3l0.2-0.8c-0.7,0.1-1.4-0.2-1.8-0.8c0.7-0.9,1.1-1.9,1.1-3L37.5,37.6z M33.4,37.4
	c0.8,1.3,1.7,2.5,2.7,3.6c-0.5,0.5-1.2,0.7-2,0.7c-1.2,0.1-2.1-0.8-2.2-2c0,0,0-0.1,0-0.1C31.8,38.6,32.4,37.7,33.4,37.4L33.4,37.4z
	 M33.9,36.5c-0.4-0.5-0.6-1.1-0.6-1.7c0-0.7,0.5-1.3,1.2-1.3c0,0,0,0,0.1,0c0.6,0,1.1,0.4,1.2,1c0,0,0,0.1,0,0.1
	C35.6,35.5,35.2,36,33.9,36.5L33.9,36.5z M49.5,35.5c0.8,0,1.6,0,2.3,0c0.1,0,0.2,0,0.2-0.2c0-0.2,0-0.4,0-0.7c0-0.1,0-0.2-0.1-0.2
	c-0.7,0-1.5,0.1-2.4,0.1h-2.1c-0.7,0-1.4,0-2.2-0.1c0,0.3,0,0.6,0.1,0.8c0,0.2,0.1,0.2,0.2,0.2c0.6,0,1.3-0.1,2-0.1H49.5z
	 M50.6,40.9c1,0,2.1,0,2.9,0c0.2,0,0.2,0,0.2-0.2c0-0.2,0-0.4,0-0.6c0-0.1,0-0.2-0.2-0.2c-0.8,0-1.9,0.1-2.9,0.1h-4.2
	c-1,0-1.8,0-2.7-0.1c0,0.4,0,0.7,0.1,0.9c0,0.1,0.1,0.2,0.2,0.2c0.7,0,1.5-0.1,2.4-0.1L50.6,40.9z M64.3,41.1l0.5-3.2
	c0-0.3,0.1-0.4,0.2-0.5c0.1-0.1,0.1-0.2,0.1-0.3c0,0,0,0,0,0c-0.1-0.2-0.3-0.3-0.5-0.5c-0.1-0.1-0.2-0.1-0.3,0
	c-0.2,0.1-0.3,0.1-0.5,0.1h-1.9c-0.5,0-1.1,0-1.8-0.1c0,0.2,0,0.5,0.1,0.7c0,0.1,0.1,0.2,0.2,0.2c0.4,0,1,0,1.5,0h2.2l-0.5,3.6h-3.1
	c-0.6,0-1.1,0-1.9-0.1c0,0.2,0,0.5,0.1,0.7c0,0.2,0,0.2,0.2,0.2c0.6-0.1,1.1-0.1,1.7-0.1h4.5c0.6,0,1.1,0,1.8,0c0.1,0,0.2,0,0.2-0.2
	v-0.5c0-0.2-0.1-0.2-0.2-0.2c-0.6,0-1.1,0-1.7,0L64.3,41.1z M78.6,38.2c0.9,0,1.8,0,2.8,0c0.2,0,0.2,0,0.2-0.2c0-0.2,0-0.5,0-0.7
	c0-0.1,0-0.2-0.2-0.2c-1,0-1.9,0-2.8,0h-4c-1,0-1.9,0-2.9-0.1c0,0.3,0.1,0.7,0.1,1c0,0.1,0.1,0.2,0.2,0.2c0.6-0.1,1.2-0.1,1.8-0.1
	H78.6z M88.8,33.8c-0.8,0-1.4,0-2-0.1c0,0.3,0,0.6,0.1,0.8c0,0.1,0,0.1,0.2,0.1c0.6,0,1.1-0.1,1.9-0.1h3.9c-0.7,1.3-1.5,2.4-2.5,3.5
	c-1.4,1.4-3,2.6-4.8,3.5c0.3,0.1,0.5,0.3,0.7,0.5c0.1,0.1,0.2,0.1,0.3,0c1.7-1,3.3-2.2,4.6-3.6c1.3,1,2.5,2.1,3.6,3.3
	c0.1,0.1,0.1,0.1,0.2,0c0.2-0.1,0.3-0.3,0.5-0.5c0.1-0.1,0.1-0.2,0-0.3c-1.1-1.2-2.4-2.3-3.7-3.3c0.7-0.9,1.4-1.8,1.9-2.8
	c0.1-0.2,0.2-0.3,0.4-0.5c0.1-0.1,0.1-0.2,0.1-0.3c-0.2-0.2-0.3-0.4-0.5-0.5c-0.1-0.1-0.2-0.1-0.3,0c-0.2,0.1-0.5,0.1-0.7,0.1
	L88.8,33.8z"/>
</svg>
