<?xml version="1.0" encoding="utf-8"?>
<!-- Generator: Adobe Illustrator 24.2.0, SVG Export Plug-In . SVG Version: 6.00 Build 0)  -->
<svg version="1.1" id="コンポーネント_103_7"
	 xmlns="http://www.w3.org/2000/svg" xmlns:xlink="http://www.w3.org/1999/xlink" x="0px" y="0px" viewBox="0 0 130 44"
	 style="enable-background:new 0 0 130 44;" xml:space="preserve">
<style type="text/css">
	.st0{fill:#B99C78;}
</style>
<path id="パス_741" class="st0" d="M14.1,8.4c0.4,0,0.8,0.1,1,0.4c0.3,0.3,0.4,0.7,0.4,1V15c0,0.5-0.3,1-0.7,1.3
	c-1.5,1-3.3,1.5-5.2,1.5c-1.5,0-3.1-0.4-4.4-1.2c-1.3-0.8-2.4-1.8-3.2-3.1s-1.2-2.8-1.2-4.3s0.4-3,1.2-4.3s1.9-2.4,3.2-3.1
	C6.5,1,8.1,0.6,9.6,0.6c1.4,0,2.9,0.3,4.1,1c0.2,0.1,0.4,0.3,0.5,0.5s0.2,0.4,0.2,0.7c0,0.4-0.1,0.8-0.4,1c-0.2,0.3-0.6,0.4-1,0.4
	c-0.3,0-0.5-0.1-0.8-0.2c-0.8-0.4-1.8-0.5-2.7-0.5c-1,0-2,0.3-2.8,0.8c-0.8,0.3-1.5,1-2,1.9S4,8.1,4,9.1s0.3,2,0.8,2.9
	s1.2,1.6,2.1,2.1s1.8,0.8,2.8,0.8c0.5,0,1,0,1.4-0.1c0.5-0.1,0.9-0.2,1.3-0.3v-3.1h-2.3c-0.4,0-0.8-0.1-1-0.4
	c-0.3-0.3-0.4-0.6-0.4-1s0.1-0.8,0.4-1c0.3-0.3,0.7-0.4,1-0.4h4V8.4z M35.8,9.1c0,1.5-0.3,3-1.1,4.4c-0.7,1.3-1.7,2.4-2.9,3.1
	c-1.3,0.8-2.7,1.2-4.2,1.2c-1.5,0-2.9-0.4-4.2-1.2c-1.2-0.8-2.2-1.8-2.9-3.1c-0.7-1.3-1.1-2.8-1-4.4c0-1.5,0.3-3,1-4.4
	c0.7-1.3,1.7-2.4,2.9-3.1c1.3-0.8,2.7-1.2,4.2-1.2s2.9,0.4,4.2,1.2C33,2.4,34,3.4,34.7,4.7C35.4,6.1,35.8,7.6,35.8,9.1L35.8,9.1z
	 M32.7,9.1c0-1-0.2-2-0.6-2.9c-0.4-0.8-1-1.6-1.8-2.1s-1.7-0.8-2.6-0.8s-1.8,0.2-2.6,0.8c-0.8,0.5-1.4,1.2-1.8,2.1s-0.7,1.9-0.6,2.9
	c0,1,0.2,2,0.6,2.9c0.4,0.8,1,1.6,1.8,2.1s1.7,0.8,2.6,0.8s1.8-0.3,2.6-0.8c0.8-0.5,1.4-1.2,1.8-2.1C32.4,11.1,32.7,10.1,32.7,9.1
	L32.7,9.1z M55.9,9.1c0,1.5-0.3,3-1.1,4.4c-0.7,1.3-1.7,2.4-2.9,3.1c-1.3,0.8-2.7,1.2-4.2,1.2s-2.9-0.4-4.2-1.2
	c-1.2-0.8-2.2-1.8-2.9-3.1s-1.1-2.8-1-4.4c0-1.5,0.3-3,1-4.4c0.7-1.3,1.7-2.4,2.9-3.1c1.3-0.8,2.7-1.2,4.2-1.2s2.9,0.4,4.2,1.2
	c1.2,0.8,2.2,1.8,2.9,3.1C55.6,6.1,55.9,7.6,55.9,9.1L55.9,9.1z M52.8,9.1c0-1-0.2-2-0.6-2.9c-0.4-0.8-1-1.6-1.8-2.1
	s-1.7-0.8-2.6-0.8c-0.9,0-1.8,0.2-2.6,0.8c-0.8,0.5-1.4,1.2-1.8,2.1c-0.4,0.9-0.7,1.9-0.6,2.9c0,1,0.2,2,0.6,2.9
	c0.4,0.8,1,1.6,1.8,2.1s1.7,0.8,2.6,0.8c0.9,0,1.8-0.3,2.6-0.8s1.4-1.2,1.8-2.1C52.6,11.1,52.8,10.1,52.8,9.1z M67.8,0.7
	c1.4,0,2.7,0.4,3.9,1.1c1.1,0.8,1.9,1.8,2.5,3C74.7,6.2,75,7.6,75,9.1s-0.3,2.9-0.9,4.3c-0.5,1.2-1.4,2.3-2.5,3
	c-1.1,0.8-2.5,1.2-3.9,1.1H62c-0.4,0-0.8-0.1-1-0.4c-0.3-0.3-0.4-0.7-0.4-1V2.2c0-0.4,0.1-0.8,0.4-1c0.3-0.3,0.7-0.4,1-0.4L67.8,0.7
	z M67.6,14.7c1.3,0.1,2.5-0.5,3.2-1.6c0.8-1.2,1.1-2.6,1.1-4c0.1-1.4-0.3-2.8-1.1-4c-0.7-1.1-1.9-1.7-3.2-1.6h-4v11.3L67.6,14.7z
	 M91.4,1.5c0.5,0.2,0.8,0.7,0.7,1.2c0,0.4-0.1,0.7-0.4,1c-0.2,0.3-0.6,0.5-1,0.5c-0.3,0-0.6-0.1-0.8-0.2c-0.8-0.4-1.7-0.6-2.5-0.6
	c-1,0-2,0.2-2.9,0.7c-0.8,0.5-1.5,1.2-1.9,2C82.1,7,81.9,8,81.9,9c-0.1,1.6,0.4,3.1,1.5,4.3c1.1,1,2.5,1.5,4,1.5
	c0.9,0,1.8-0.2,2.5-0.6c0.2-0.1,0.5-0.2,0.8-0.2c0.4,0,0.8,0.2,1.1,0.5c0.2,0.3,0.4,0.6,0.4,1c0,0.2-0.1,0.5-0.2,0.7
	s-0.3,0.4-0.6,0.5c-1.2,0.6-2.6,0.9-4,0.9c-1.5,0-3-0.3-4.3-1c-1.3-0.7-2.4-1.7-3.1-2.9c-0.8-1.4-1.2-3.1-1.2-4.7
	c0-1.5,0.4-3.1,1.1-4.4s1.8-2.3,3.1-3c1.4-0.7,2.9-1.1,4.4-1.1C88.9,0.6,90.2,0.9,91.4,1.5L91.4,1.5z M108.8,0.7
	c0.4,0,0.8,0.1,1.1,0.4c0.3,0.3,0.4,0.7,0.4,1.1V16c0,0.4-0.1,0.8-0.4,1c-0.3,0.3-0.7,0.4-1.1,0.4s-0.8-0.1-1-0.4
	c-0.3-0.3-0.4-0.7-0.4-1v-5.6h-7.7V16c0,0.4-0.2,0.8-0.5,1c-0.3,0.3-0.7,0.4-1.1,0.4S97.3,17.3,97,17c-0.3-0.3-0.4-0.7-0.4-1V2.2
	c0-0.4,0.1-0.8,0.4-1c0.3-0.3,0.7-0.4,1.1-0.4s0.8,0.1,1,0.4c0.3,0.3,0.4,0.7,0.4,1v5.5h7.7V2.2c0-0.4,0.2-0.8,0.5-1
	C108,0.8,108.4,0.7,108.8,0.7L108.8,0.7z M127.8,0.7c0.4,0,0.7,0.1,1,0.4s0.4,0.7,0.4,1.1v8.7c0,1.2-0.3,2.4-0.8,3.5
	c-0.5,1-1.4,1.8-2.4,2.4c-1.1,0.6-2.2,0.9-3.5,0.9c-1.2,0-2.4-0.3-3.5-0.9c-1-0.6-1.8-1.4-2.4-2.4c-0.6-1.1-0.9-2.3-0.8-3.5V2.1
	c0-0.4,0.1-0.8,0.4-1c0.3-0.3,0.7-0.4,1.1-0.4s0.7,0.1,1,0.4s0.4,0.7,0.4,1v8.7c0,0.7,0.2,1.4,0.5,2.1c0.3,0.6,0.8,1.1,1.4,1.4
	c0.6,0.3,1.2,0.5,1.8,0.5c0.7,0,1.3-0.2,1.9-0.5s1.1-0.8,1.4-1.4c0.4-0.6,0.6-1.3,0.5-2.1V2.1c0-0.4,0.1-0.8,0.4-1.1
	C127,0.8,127.4,0.6,127.8,0.7L127.8,0.7z"/>
<path id="パス_749" class="st0" d="M5.7,34.5C5.8,34.2,6,34,6.2,33.7c0.1-0.2,0.2-0.3,0.4-0.4c0.1,0,0.1-0.2,0.1-0.3
	c0,0,0-0.1-0.1-0.1c-0.3-0.2-0.6-0.4-1-0.5C5.5,33,5.3,33.5,4.9,34c-0.9,1.5-2,2.7-3.4,3.8c0.2,0,0.5,0.1,0.7,0.3
	c0.1,0.1,0.3,0.1,0.4,0l0,0c1-0.8,1.8-1.8,2.6-2.8l3.7-0.1c-0.6,1.4-1.4,2.8-2.4,4c-1.2,1.4-2.7,2.6-4.3,3.4
	c0.3,0.1,0.5,0.2,0.7,0.4c0.1,0.1,0.2,0.1,0.3,0c1.5-0.9,2.9-2,4.1-3.4c1-1.2,1.9-2.6,2.5-4.1c0.1-0.2,0.2-0.3,0.3-0.5
	c0.1-0.1,0.1-0.2,0-0.4c-0.2-0.2-0.3-0.3-0.5-0.4c-0.1-0.1-0.2-0.1-0.3-0.1c-0.1,0.1-0.3,0.1-0.6,0.1L5.7,34.5z M9.5,33
	c0.6,0.4,1.1,1,1.5,1.7c0,0.1,0.1,0.1,0.1,0.1l0,0l0.4-0.3c0,0,0.1-0.1,0-0.1l0,0c-0.4-0.6-0.9-1.1-1.5-1.6H9.9l0,0L9.5,33z
	 M10.7,32.1c0.6,0.4,1.1,1,1.5,1.6c0.1,0.1,0.1,0.1,0.2,0l0.4-0.3c0.1-0.1,0.1-0.1,0-0.2c-0.4-0.6-0.9-1.1-1.5-1.5
	c-0.1,0-0.1,0-0.1,0L10.7,32.1z M15.7,36.4c0.5,0.6,0.8,1.2,1.1,1.9c0,0.1,0.1,0.2,0.2,0.1c0.2-0.1,0.3-0.1,0.5-0.2
	c0.1-0.1,0.1-0.1,0.1-0.2c-0.3-0.7-0.6-1.3-1.1-1.8c-0.1-0.1-0.1-0.1-0.2-0.1C16.2,36.1,16,36.3,15.7,36.4z M18.3,35.8
	c0.4,0.6,0.8,1.2,1,1.9c0.1,0.1,0.1,0.2,0.2,0.1c0.2-0.1,0.4-0.2,0.5-0.2c0.1-0.1,0.1-0.1,0.1-0.2c-0.2-0.6-0.6-1.2-1-1.8
	c0-0.1-0.1-0.1-0.2-0.1l0,0C18.7,35.5,18.5,35.6,18.3,35.8z M22.3,35.7c0,0.4-0.1,0.7-0.2,1.1c-0.4,1.1-1,2.2-1.8,3.2
	s-1.8,1.9-2.9,2.6c0.2,0.1,0.5,0.2,0.7,0.3c0.1,0.1,0.2,0.1,0.3,0c1-0.7,1.9-1.5,2.6-2.5c0.8-1,1.4-2.2,1.9-3.4
	c0.1-0.2,0.2-0.4,0.4-0.6c0.1-0.1,0.1-0.2,0.1-0.3c0,0,0,0-0.1-0.1C22.9,35.9,22.6,35.8,22.3,35.7z M31,36.6c-0.8,0-1.6,0-2.5-0.1
	c0,0.3,0.1,0.6,0.1,0.7c0,0.2,0.1,0.2,0.2,0.2c0.7-0.1,1.5-0.1,2.2-0.1h2.4c0,0.9-0.2,1.7-0.5,2.5c-0.5,1.1-1.3,1.9-2.3,2.5
	c0.3,0.1,0.6,0.2,0.8,0.3c0.1,0.1,0.2,0.1,0.3,0l0,0c0.9-0.6,1.6-1.5,2.1-2.5c0.4-0.9,0.6-1.8,0.6-2.8H36c0.9,0,1.7,0,2.5,0
	c0.1,0,0.2,0,0.2-0.2s0-0.4,0-0.6c0-0.1,0-0.2-0.1-0.2c-0.7,0-1.7,0.1-2.5,0.1h-1.7c0-0.3,0-0.5,0-0.8c0-0.2,0-0.4,0-0.5
	s0-0.2,0.1-0.4c0.1-0.1,0-0.2-0.1-0.3c-0.4-0.1-0.7-0.1-1.1-0.2c0.1,0.3,0.1,0.7,0.1,1s0,0.8,0,1.2L31,36.6z M36.2,32.5
	c-0.3,0.2-0.6,0.4-0.9,0.5c-0.8,0.3-1.5,0.5-2.3,0.6c-1.2,0.3-2.5,0.4-3.8,0.5c0.2,0.2,0.3,0.3,0.5,0.6c0,0.1,0.1,0.2,0.2,0.2
	c1.1-0.1,2.3-0.3,3.4-0.5c0.9-0.2,1.8-0.4,2.7-0.7c0.2-0.1,0.5-0.2,0.7-0.2s0.3-0.1,0.3-0.2c0-0.1-0.1-0.2-0.2-0.3
	C36.7,32.8,36.4,32.7,36.2,32.5z M48.8,41.1l0.5-3.2c0-0.3,0.1-0.4,0.2-0.5c0.1-0.1,0.1-0.2,0.1-0.3l0,0c-0.1-0.2-0.3-0.3-0.5-0.5
	c-0.1-0.1-0.2-0.1-0.3,0c-0.2,0.1-0.3,0.1-0.5,0.1h-1.9c-0.5,0-1.1,0-1.8-0.1c0,0.2,0,0.5,0.1,0.7c0,0.1,0.1,0.2,0.2,0.2
	c0.4,0,1,0,1.5,0h2.2L48,41.1h-3.1c-0.6,0-1.1,0-1.9-0.1c0,0.2,0,0.5,0.1,0.7c0,0.2,0,0.2,0.2,0.2c0.6-0.1,1.1-0.1,1.7-0.1h4.5
	c0.6,0,1.1,0,1.8,0c0.1,0,0.2,0,0.2-0.2v-0.5c0-0.2-0.1-0.2-0.2-0.2c-0.6,0-1.1,0-1.7,0L48.8,41.1z M55.9,43.6L67.1,32l-0.5-0.5
	L55.4,43.1L55.9,43.6z M81.2,42C81.2,41.9,81.2,41.9,81.2,42c-0.2-0.1-0.6-0.1-1.7-0.1h-0.7v-2.1h0.3c1.1,0,1.5,0,1.5,0
	c0.1,0,0.1,0,0.1-0.1v-0.5c0-0.1,0-0.1-0.1-0.1s-0.4,0-1.5,0h-0.3v-1.9h0.3c1.1,0,1.5,0,1.5,0c0.1,0,0.1,0,0.1-0.1v-0.5
	c0-0.1,0-0.1-0.1-0.1s-0.4,0-1.5,0h-0.3v-1.9h0.8c1,0,1.4,0,1.4,0s0.1,0,0.1-0.1V34c0-0.1,0-0.1-0.1-0.1s-0.4,0-1.4,0h-0.7
	c0.2-0.4,0.3-0.8,0.5-1.2c0.1-0.3,0.2-0.4,0.2-0.4c0.1,0,0.1-0.1,0.1-0.2c0-0.1-0.1-0.1-0.2-0.1c-0.2-0.1-0.5-0.1-0.7-0.2
	c0,0.3-0.1,0.5-0.1,0.8c-0.1,0.5-0.3,0.9-0.5,1.4h-1.9c0.2-0.5,0.4-0.9,0.6-1.3c0.1-0.3,0.2-0.4,0.2-0.5c0.1-0.1,0.1-0.1,0.1-0.2
	c0-0.1-0.1-0.1-0.2-0.2c-0.2-0.1-0.5-0.1-0.7-0.2c0,0.3-0.1,0.5-0.2,0.8c-0.3,1.1-0.9,2.1-1.7,3c0.2,0.1,0.3,0.1,0.4,0.2l0.1,0.1
	c0.1,0,0.1,0,0.2-0.1l0.3-0.4c0,0.4,0,0.8,0,1.2v5.2c0,1.1,0,1.5,0,1.6s0,0.1,0.1,0.1H76c0.1,0,0.1,0,0.1-0.1v-0.7h3.2
	c1.2,0,1.6,0,1.6,0c0.1,0,0.1,0,0.1-0.1L81.2,42z M78.1,42h-1.9v-2.1h1.9V42z M78.1,39.2h-1.9v-1.9h1.9V39.2z M78.1,36.6h-1.9v-1.9
	h1.9V36.6z M73.2,39c1.1,0,1.4,0,1.5,0s0.1,0,0.1-0.1v-0.5c0-0.1,0-0.1-0.1-0.1s-0.4,0-1.5,0h-0.5V38c0-0.3,0-0.7,0.1-1
	c0-0.1,0.1-0.1,0.1-0.2c0-0.1-0.1-0.1-0.2-0.1c-0.2,0-0.5-0.1-0.7-0.1c0.1,0.5,0.1,0.9,0.1,1.4v0.3h-0.8c-1.1,0-1.4,0-1.5,0
	s-0.1,0-0.1,0.1v0.5c0,0.1,0,0.1,0.1,0.1s0.4,0,1.5,0h0.5c-0.6,1.1-1.4,2-2.4,2.8c0.1,0.1,0.3,0.2,0.4,0.4c0.1,0.1,0.1,0.1,0.1,0.1
	s0.1,0,0.2-0.1c0.8-0.7,1.5-1.6,1.9-2.5c0,1.7,0,3.2,0,3.7c0,0.1,0,0.1,0.1,0.1h0.5c0.1,0,0.1,0,0.1-0.1c0-0.5,0-2.1-0.1-3.8
	c0.4,0.7,1,1.3,1.6,1.9c0,0.1,0.1,0.1,0.2,0.1s0.1,0,0.1-0.1c0.1-0.2,0.2-0.3,0.3-0.4c-0.8-0.5-1.5-1.1-2.1-1.9L73.2,39z M73.8,34.6
	c0-0.4,0-0.8,0-1.1c0-0.1,0-0.1-0.1-0.1s-0.4,0-1.4,0H72v-0.6c0-0.2,0-0.5,0.1-0.7c0-0.1,0-0.1,0.1-0.2c0-0.1-0.1-0.1-0.2-0.1
	c-0.2,0-0.5-0.1-0.8-0.1c0.1,0.4,0.1,0.7,0.1,1.1c0,0.2,0,0.4,0,0.6h-0.2c-1,0-1.3,0-1.4,0s-0.1,0-0.1,0.1V34c0,0.1,0,0.1,0.1,0.1
	s0.4,0,1.4-0.1h0.2c-0.1,1.3-0.8,2.4-2,3c0.2,0.1,0.3,0.2,0.4,0.4c0.1,0.1,0.1,0.2,0.2,0.2s0.1-0.1,0.2-0.1c1.1-0.8,1.8-2,1.9-3.3
	h1.1v2.2c0,0.5,0.1,0.7,0.2,0.8c0.2,0.1,0.5,0.2,0.8,0.2s0.6,0,0.8-0.2c0.2-0.2,0.3-0.5,0.3-0.8c0-0.2,0-0.2-0.2-0.3
	c-0.1,0-0.3-0.1-0.4-0.2c0,0.5-0.1,0.7-0.1,0.8c-0.1,0.1-0.1,0.1-0.4,0.1c-0.1,0-0.2,0-0.3-0.1c-0.1-0.1-0.1-0.2-0.1-0.4L73.8,34.6z
	 M93.2,37.7c0-0.9,0-1.2,0-1.3s0-0.1-0.1-0.1s-0.5,0-1.8,0h-3.8c-1.3,0-1.7,0-1.8,0s-0.1,0-0.1,0.1s0,0.4,0,1.3V40
	c0,0.9,0,1.2,0,1.3s0,0.1,0.1,0.1s0.5,0,1.8,0h3.8c1.3,0,1.7,0,1.8,0s0.1,0,0.1-0.1s0-0.4,0-1.3V37.7z M92.4,40.8h-6.1v-1h6.1V40.8z
	 M92.4,37.8h-6.1v-0.9h6.1V37.8z M92.4,39.3h-6.1v-0.9h6.1V39.3z M89.7,33.9c1.2-0.2,2.3-0.5,3.4-0.9c0.2-0.1,0.4-0.1,0.6-0.2
	c0.1,0,0.2,0,0.2-0.1s0-0.1-0.1-0.2c-0.2-0.2-0.3-0.4-0.5-0.5c-0.2,0.2-0.4,0.3-0.7,0.4c-0.9,0.4-1.9,0.6-2.9,0.8v-0.3
	c0-0.3,0-0.6,0.1-0.9c0-0.1,0.1-0.2,0.1-0.2c0-0.1-0.1-0.1-0.2-0.1c-0.3,0-0.5-0.1-0.8-0.1C89,32.1,89,32.5,89,33v1.7
	c0,0.5,0.2,0.7,0.5,0.8c0.8,0.1,1.5,0.1,2.3,0.1c0.8,0.1,1.6,0,2.4-0.3c0.4-0.3,0.6-0.7,0.6-1.2c0-0.2,0-0.2-0.2-0.3
	s-0.3-0.2-0.5-0.3c0,0.6-0.1,1-0.4,1.2c-0.6,0.2-1.2,0.3-1.9,0.2c-0.6,0-1.2,0-1.8-0.1c-0.2,0-0.3-0.2-0.3-0.5V33.9z M85.8,34.9
	c0,0.6,0,0.8,0,0.8c0,0.1,0,0.1,0.1,0.1h0.6c0.1,0,0.1,0,0.1-0.1s0-0.3,0-0.9v-1.6c0.2-0.2,0.5-0.5,0.7-0.7c0.1-0.1,0.2-0.2,0.3-0.3
	c0.1-0.1,0.2-0.1,0.2-0.2c0-0.1-0.1-0.1-0.1-0.2c-0.2-0.1-0.4-0.2-0.7-0.3c-0.1,0.2-0.2,0.3-0.3,0.5c-0.9,1.1-2,1.9-3.3,2.5
	c0.1,0.1,0.2,0.2,0.3,0.4c0.1,0.1,0.1,0.2,0.2,0.2s0.1,0,0.2-0.1c0.6-0.3,1.2-0.7,1.8-1.2c0,0.2,0,0.4,0,0.5L85.8,34.9z M88,42
	C88,41.9,88,41.9,88,42c-0.3-0.2-0.5-0.3-0.8-0.4c-0.1,0.1-0.3,0.3-0.5,0.4c-1,0.4-2,0.7-3,0.8c0.1,0.1,0.3,0.3,0.4,0.4
	c0.1,0.2,0.1,0.2,0.4,0.2c1.1-0.2,2.1-0.5,3-1.1c0.1-0.1,0.3-0.1,0.4-0.2C87.9,42.1,88,42.1,88,42z M90.8,41.9
	c-0.2,0.1-0.2,0.1-0.1,0.2c1,0.6,2.2,1.1,3.4,1.3c0.3,0,0.3,0,0.4-0.2s0.2-0.3,0.4-0.5c-1.2-0.1-2.4-0.5-3.5-1.1
	c-0.1-0.1-0.1,0-0.2,0L90.8,41.9z"/>
</svg>
