<?xml version="1.0" encoding="utf-8"?>
<!-- Generator: Adobe Illustrator 24.2.0, SVG Export Plug-In . SVG Version: 6.00 Build 0)  -->
<svg version="1.1" id="コンポーネント_103_6"
	 xmlns="http://www.w3.org/2000/svg" xmlns:xlink="http://www.w3.org/1999/xlink" x="0px" y="0px" viewBox="0 0 143 44"
	 style="enable-background:new 0 0 143 44;" xml:space="preserve">
<path id="パス_739" d="M14.1,8.7c0.4,0,0.8,0.1,1,0.4c0.3,0.3,0.4,0.7,0.4,1v5.1c0,0.5-0.3,1-0.7,1.3c-1.5,1-3.3,1.5-5.2,1.5
	c-1.5,0-3.1-0.4-4.4-1.2c-1.3-0.8-2.4-1.8-3.2-3.1c-0.8-1.3-1.2-2.8-1.2-4.3c0-1.5,0.4-3,1.2-4.3c0.8-1.3,1.9-2.4,3.2-3.1
	c1.3-0.8,2.9-1.2,4.4-1.2c1.4,0,2.9,0.3,4.1,1C14,1.8,14.1,2,14.3,2.2c0.1,0.2,0.2,0.4,0.2,0.7c0,0.4-0.1,0.8-0.4,1
	c-0.2,0.3-0.6,0.4-1,0.4c-0.3,0-0.5-0.1-0.8-0.2c-0.8-0.4-1.8-0.5-2.7-0.5c-1,0-2,0.3-2.8,0.8C5.9,4.9,5.2,5.7,4.7,6.5
	C4.2,7.4,4,8.4,4,9.4c0,1,0.3,2,0.8,2.9c0.5,0.9,1.2,1.6,2.1,2.1c0.9,0.5,1.8,0.8,2.8,0.8c0.5,0,1,0,1.4-0.1
	c0.5-0.1,0.9-0.2,1.3-0.3v-3.1h-2.3c-0.4,0-0.8-0.1-1-0.4c-0.3-0.3-0.4-0.6-0.4-1c0-0.4,0.1-0.8,0.4-1c0.3-0.3,0.7-0.4,1-0.4H14.1z
	 M23.3,16.4c0,0.4-0.2,0.8-0.5,1c-0.3,0.3-0.7,0.4-1.1,0.4c-0.4,0-0.8-0.1-1.1-0.4c-0.3-0.3-0.4-0.7-0.4-1V2.5c0-0.4,0.1-0.8,0.4-1
	C21,1.2,21.4,1,21.8,1c0.4,0,0.8,0.1,1,0.4c0.3,0.3,0.4,0.7,0.4,1L23.3,16.4z M31.8,3.8V8H37c0.4,0,0.8,0.1,1,0.4
	c0.3,0.3,0.4,0.6,0.4,1c0,0.4-0.2,0.7-0.4,0.9c-0.3,0.3-0.7,0.4-1,0.4h-5.2v5.6c0,0.4-0.2,0.8-0.4,1c-0.3,0.3-0.7,0.4-1,0.4
	c-0.4,0-0.8-0.1-1.1-0.4c-0.3-0.3-0.4-0.7-0.4-1.1V2.5c0-0.4,0.1-0.8,0.4-1c0.3-0.3,0.7-0.4,1-0.4h7.8c0.4,0,0.8,0.1,1,0.4
	c0.3,0.3,0.4,0.6,0.4,1c0,0.4-0.2,0.7-0.4,0.9c-0.3,0.3-0.7,0.4-1,0.4L31.8,3.8z M55.6,1c0.4,0,0.8,0.1,1.1,0.4
	c0.3,0.3,0.4,0.6,0.4,1c0,0.4-0.1,0.7-0.4,1c-0.3,0.3-0.7,0.4-1.1,0.4h-3.8v12.6c0,0.4-0.2,0.8-0.5,1c-0.3,0.3-0.7,0.4-1.1,0.4
	c-0.4,0-0.8-0.1-1.1-0.4c-0.3-0.3-0.4-0.7-0.4-1V3.8H45c-0.4,0-0.8-0.1-1.1-0.4c-0.3-0.3-0.4-0.6-0.4-1c0-0.4,0.1-0.7,0.4-1
	C44.2,1.1,44.6,1,45,1H55.6z M84.2,15.4c0.2,0.2,0.4,0.4,0.5,0.6c0.1,0.2,0.1,0.4,0.1,0.7c0,0.3-0.1,0.6-0.3,0.8
	c-0.2,0.3-0.5,0.4-0.9,0.4c-0.3,0-0.6-0.1-0.8-0.2l-1.3-1.1l-0.8-0.7c-1.5,1.5-3.5,2.3-5.6,2.2c-1.1,0-2.1-0.2-3-0.7
	c-0.9-0.4-1.6-1.1-2.2-1.9c-0.5-0.8-0.8-1.7-0.8-2.6c-0.1-2.3,1.4-4.4,3.5-5.1c-0.3-0.4-0.5-0.8-0.7-1.2c-0.2-0.4-0.2-0.8-0.2-1.2
	c0-0.8,0.2-1.6,0.6-2.2c0.5-0.7,1.1-1.3,1.8-1.6C75,1,76,0.8,76.9,0.8c1,0,2,0.2,3,0.6c0.7,0.3,1.4,0.8,1.8,1.5
	c0.1,0.3,0.2,0.6,0.2,0.9c0,0.3-0.1,0.6-0.3,0.8c-0.2,0.2-0.6,0.3-0.9,0.3c-0.4,0-0.7-0.1-0.9-0.4c-0.3-0.4-0.7-0.8-1.2-1
	c-0.5-0.2-1.1-0.3-1.6-0.3c-0.6,0-1.2,0.2-1.6,0.6c-0.4,0.4-0.6,0.9-0.6,1.4c0,0.6,0.2,1.1,0.6,1.5c0.5,0.6,1,1.2,1.6,1.8l0.7,0.7
	c0.5,0.6,1.4,1.5,2.7,2.7c0.3-0.8,0.6-1.6,0.7-2.4c0-0.2,0.1-0.5,0.3-0.6c0.3-0.2,0.5-0.2,0.8-0.2c0.4,0,0.7,0.1,0.9,0.4
	c0.2,0.3,0.4,0.6,0.4,1l0,0.2c-0.2,1.2-0.5,2.3-1.1,3.4C82.9,14.2,83.6,14.8,84.2,15.4z M75.7,15.3c1.1,0,2.2-0.4,3-1.2
	c-1.4-1.2-2.7-2.6-4-4l-0.4-0.5c-0.7,0.2-1.3,0.5-1.8,1.1c-0.3,0.5-0.5,1.1-0.5,1.7c0,0.8,0.3,1.6,0.9,2.1
	C73.7,15.1,74.7,15.4,75.7,15.3z M103.2,18.1c-1,0-2.1-0.1-3.1-0.4c-0.9-0.3-1.8-0.8-2.5-1.5c-0.4-0.3-0.6-0.8-0.6-1.3
	c0-0.4,0.1-0.7,0.4-1c0.3-0.3,0.6-0.4,1-0.4c0.3,0,0.6,0.1,0.8,0.3c0.6,0.5,1.2,0.9,1.9,1.2c0.7,0.3,1.4,0.4,2.2,0.4
	c0.8,0,1.6-0.2,2.3-0.6c0.6-0.3,0.9-0.9,1-1.5c0-0.7-0.4-1.3-1-1.7c-0.9-0.5-2-0.8-3-0.9c-3.5-0.5-5.3-2.1-5.3-4.9
	c0-0.9,0.3-1.9,0.8-2.6c0.5-0.8,1.3-1.3,2.2-1.7c1-0.4,2-0.6,3-0.6c1,0,1.9,0.1,2.8,0.5c0.8,0.3,1.6,0.7,2.2,1.2
	c0.4,0.3,0.7,0.8,0.7,1.3c0,0.4-0.1,0.7-0.4,1c-0.2,0.3-0.6,0.4-1,0.4c-0.2,0-0.5-0.1-0.6-0.2c-0.5-0.4-1.1-0.7-1.7-0.9
	c-0.6-0.3-1.3-0.4-2-0.4c-0.8,0-1.6,0.1-2.3,0.6C100.3,4.4,100,5,100,5.6c0,0.6,0.3,1.2,0.9,1.6c0.8,0.4,1.7,0.7,2.7,0.9
	c1.1,0.2,2.2,0.5,3.3,0.9c0.8,0.3,1.4,0.9,1.9,1.5c0.5,0.8,0.7,1.7,0.6,2.6c0,1-0.3,1.9-0.9,2.7c-0.6,0.8-1.4,1.4-2.3,1.7
	C105.2,17.9,104.2,18.1,103.2,18.1z M123.5,15.1c0.4,0,0.8,0.1,1,0.4c0.3,0.3,0.4,0.6,0.4,1c0,0.4-0.1,0.7-0.4,1
	c-0.3,0.3-0.7,0.4-1,0.4h-8c-0.4,0-0.8-0.1-1-0.4c-0.3-0.3-0.4-0.7-0.4-1V2.5c0-0.4,0.1-0.8,0.4-1c0.3-0.3,0.7-0.4,1-0.4h8
	c0.4,0,0.8,0.1,1,0.4c0.3,0.3,0.4,0.6,0.4,1c0,0.4-0.1,0.7-0.4,1c-0.3,0.3-0.7,0.4-1.1,0.4H117v4.1h5.4c0.4,0,0.8,0.1,1,0.4
	c0.3,0.3,0.4,0.6,0.4,1c0,0.4-0.1,0.7-0.4,1c-0.3,0.3-0.7,0.4-1.1,0.4H117v4.4L123.5,15.1z M140.7,1c0.4,0,0.8,0.1,1.1,0.4
	c0.3,0.3,0.4,0.6,0.4,1c0,0.4-0.1,0.7-0.4,1c-0.3,0.3-0.7,0.4-1.1,0.4h-3.8v12.6c0,0.4-0.2,0.8-0.5,1c-0.3,0.3-0.7,0.4-1.1,0.4
	c-0.4,0-0.8-0.1-1.1-0.4c-0.3-0.3-0.4-0.7-0.4-1V3.8H130c-0.4,0-0.8-0.1-1.1-0.4c-0.3-0.3-0.4-0.6-0.4-1c0-0.4,0.1-0.7,0.4-1
	c0.3-0.3,0.7-0.4,1-0.4L140.7,1z"/>
<path id="パス_749" d="M5.3,35.4l-1.5,0.2c-0.7,0.1-1.4,0.2-2.1,0.3c0.1,0.2,0.2,0.6,0.2,0.8c0,0.1,0.1,0.1,0.2,0.1
	c0.5-0.1,1.1-0.3,1.8-0.4l1.5-0.2L6,38.3l-2.1,0.4C3,38.8,2.3,38.9,1.6,39c0.1,0.2,0.2,0.5,0.2,0.8c0,0.1,0.1,0.2,0.2,0.1
	c0.6-0.1,1.2-0.3,1.9-0.4l2.1-0.4l0.4,1.8c0.2,0.7,0.3,1.5,0.4,2.1c0,0.1,0.1,0.2,0.2,0.1c0.2,0,0.4-0.1,0.6-0.1
	c0.1,0,0.1-0.1,0.1-0.2c-0.2-0.6-0.3-1.3-0.5-2.1L7,38.9l2.1-0.4c0.7-0.1,1.4-0.2,1.9-0.3c0.1,0,0.1-0.1,0.1-0.2
	c0-0.2-0.1-0.4-0.1-0.6c0-0.1-0.1-0.1-0.2-0.1c-0.5,0.1-1.1,0.3-1.9,0.4l-2.2,0.4L6.4,36l1.4-0.2c0.6-0.1,1.4-0.2,2-0.3
	c0.1,0,0.1-0.1,0.1-0.1c0-0.2-0.1-0.4-0.1-0.6c0-0.1-0.1-0.1-0.1-0.1c-0.6,0.2-1.4,0.3-2,0.4l-1.4,0.2L6,34.1
	c-0.1-0.3-0.1-0.7-0.1-1.1c0-0.1,0-0.2-0.2-0.2c-0.4,0-0.7,0-1.1,0c0.2,0.4,0.4,0.9,0.5,1.4L5.3,35.4z M9.3,33
	c0.6,0.4,1.1,1,1.5,1.7c0,0.1,0.1,0.1,0.1,0.1c0,0,0,0,0,0l0.4-0.3c0,0,0.1-0.1,0-0.1c0,0,0,0,0,0c-0.4-0.6-0.9-1.1-1.5-1.6
	c0,0-0.1,0-0.1,0c0,0,0,0,0,0L9.3,33z M10.4,32.2c0.6,0.4,1.1,1,1.5,1.6c0.1,0.1,0.1,0.1,0.2,0l0.4-0.3c0.1-0.1,0.1-0.1,0-0.2
	c-0.4-0.6-0.9-1.1-1.5-1.5c-0.1,0-0.1,0-0.1,0L10.4,32.2z M23.2,35c-0.5,1.5-1.4,2.9-2.4,4.2c-1.2,1.4-2.6,2.5-4.2,3.2
	c0.3,0.1,0.5,0.3,0.7,0.4c0.1,0.1,0.3,0.1,0.4,0c1.5-0.8,2.8-1.9,3.9-3.1c1.1-1.3,2-2.7,2.5-4.3c0.1-0.2,0.2-0.3,0.3-0.4
	c0.1-0.1,0.1-0.3,0-0.4c0,0,0,0,0,0c-0.2-0.2-0.4-0.4-0.6-0.5c-0.1-0.1-0.2-0.1-0.3,0c-0.2,0.1-0.4,0.1-0.6,0.1h-4.6
	c-0.8,0-1.7,0-2.5-0.1c0,0.2,0.1,0.6,0.1,0.8c0,0.2,0.1,0.2,0.2,0.2c0.7-0.1,1.4-0.1,2.2-0.1L23.2,35z M33.4,34.5c0-0.5,0-1,0.1-1.4
	c0.1-0.2,0.1-0.3-0.1-0.4c-0.4-0.1-0.7-0.1-1.1-0.2c0.1,0.7,0.2,1.4,0.1,2.1v5.8c0,0.8,0,1.8-0.1,2.6c0,0.1,0,0.2,0.2,0.2
	c0.2,0,0.4,0,0.7,0c0.1,0,0.2,0,0.2-0.2c0-0.8,0-1.9,0-2.7v-3c1.3,0.4,2.6,1,3.8,1.7c0.1,0.1,0.2,0.1,0.2-0.1
	c0.1-0.2,0.2-0.4,0.3-0.6c0-0.1,0-0.2-0.1-0.2c-1.3-0.8-2.8-1.4-4.2-1.8L33.4,34.5z M48.1,36.8c-0.6,0-1.1,0.5-1.1,1.1
	c0,0.6,0.5,1.1,1.1,1.1c0.6,0,1.1-0.5,1.1-1.1C49.2,37.3,48.7,36.8,48.1,36.8C48.1,36.8,48.1,36.8,48.1,36.8z M60.3,36.7L59,37
	c-0.8,0.2-1.6,0.4-2.4,0.5c0.1,0.3,0.2,0.6,0.3,0.9c0.1,0.1,0.1,0.2,0.3,0.1c0.6-0.2,1.3-0.4,2-0.6l1.1-0.3v3c0,1.4,0.6,2,2.9,2
	c1,0,2,0,3-0.2c0.1,0,0.2-0.1,0.2-0.2c0-0.2,0-0.4-0.1-0.6c0-0.1,0-0.2-0.2-0.2c-1,0.2-2,0.3-2.9,0.2c-1.6,0-2-0.3-2-1.2v-3.1
	l4.4-1.1c-0.6,1.1-1.4,2.2-2.4,3c0.2,0.1,0.5,0.1,0.7,0.3c0.1,0.1,0.2,0.1,0.4-0.1c0.9-0.8,1.6-1.8,2.1-2.9c0.1-0.2,0.2-0.3,0.3-0.4
	c0.1-0.1,0.2-0.2,0.1-0.3c0,0,0,0,0-0.1c-0.2-0.2-0.4-0.4-0.6-0.5c-0.1-0.1-0.2-0.1-0.3,0c-0.2,0.1-0.3,0.2-0.9,0.3l-3.8,0.9v-1.4
	c0-0.5,0-0.9,0.2-1.4c0.1-0.2,0.1-0.3-0.1-0.4c-0.4-0.1-0.7-0.2-1.1-0.2c0.1,0.6,0.2,1.3,0.2,2L60.3,36.7z M72.4,36.7
	c0.5,0.6,0.8,1.2,1.1,1.9c0,0.1,0.1,0.2,0.2,0.1c0.2-0.1,0.3-0.1,0.5-0.2c0.1-0.1,0.1-0.1,0.1-0.2c-0.3-0.7-0.6-1.3-1.1-1.8
	c-0.1-0.1-0.1-0.1-0.2-0.1C72.8,36.5,72.6,36.6,72.4,36.7z M74.9,36.1c0.4,0.6,0.8,1.2,1,1.9c0.1,0.1,0.1,0.2,0.2,0.1
	c0.2-0.1,0.4-0.2,0.5-0.2c0.1-0.1,0.1-0.1,0.1-0.2c-0.2-0.6-0.6-1.2-1-1.8c0-0.1-0.1-0.1-0.2-0.1c0,0,0,0,0,0
	C75.4,35.9,75.2,36,74.9,36.1L74.9,36.1z M78.9,36c0,0.4-0.1,0.7-0.2,1.1c-0.4,1.1-1,2.2-1.8,3.2c-0.8,1-1.8,1.9-2.9,2.6
	c0.2,0.1,0.5,0.2,0.7,0.3c0.1,0.1,0.2,0.1,0.3,0c1-0.7,1.9-1.5,2.6-2.5c0.8-1,1.4-2.2,1.9-3.4c0.1-0.2,0.2-0.4,0.4-0.6
	c0.1-0.1,0.1-0.2,0.1-0.3c0,0,0,0-0.1-0.1C79.6,36.2,79.3,36.1,78.9,36L78.9,36z M89.6,34.5c0-0.5,0-1,0.1-1.4
	c0.1-0.2,0.1-0.3-0.1-0.4c-0.4-0.1-0.7-0.1-1.1-0.2c0.1,0.7,0.2,1.4,0.1,2.1v5.8c0,0.8,0,1.8-0.1,2.6c0,0.1,0,0.2,0.2,0.2
	c0.2,0,0.4,0,0.7,0c0.1,0,0.2,0,0.2-0.2c0-0.8,0-1.9,0-2.7v-3c1.3,0.4,2.6,1,3.8,1.7c0.1,0.1,0.2,0.1,0.2-0.1
	c0.1-0.2,0.2-0.4,0.3-0.6c0-0.1,0-0.2-0.1-0.2c-1.3-0.8-2.8-1.4-4.2-1.8V34.5z"/>
</svg>
