<?xml version="1.0" encoding="utf-8"?>
<!-- Generator: Adobe Illustrator 24.2.0, SVG Export Plug-In . SVG Version: 6.00 Build 0)  -->
<svg version="1.1" id="コンポーネント_103_10"
	 xmlns="http://www.w3.org/2000/svg" xmlns:xlink="http://www.w3.org/1999/xlink" x="0px" y="0px" viewBox="0 0 184 44"
	 style="enable-background:new 0 0 184 44;" xml:space="preserve">
<path id="パス_740" d="M15.3,15.9c0.1,0.2,0.1,0.4,0.1,0.6c0,0.4-0.1,0.8-0.4,1c-0.2,0.3-0.6,0.4-0.9,0.4c-0.3,0-0.6-0.1-0.8-0.3
	c-0.2-0.2-0.4-0.4-0.5-0.7l-1.2-2.9H4.4L3.1,17c-0.1,0.3-0.3,0.5-0.5,0.7c-0.2,0.2-0.5,0.3-0.8,0.3c-0.3,0-0.7-0.1-0.9-0.3
	c-0.2-0.2-0.3-0.6-0.3-0.9c0-0.2,0-0.3,0.1-0.5l6-14.4c0.1-0.3,0.3-0.6,0.6-0.7C7.5,1,7.8,0.9,8.1,0.9c0.3,0,0.6,0.1,0.8,0.3
	c0.3,0.2,0.4,0.4,0.5,0.7L15.3,15.9z M5.6,11.3h4.8L7.9,5.7L5.6,11.3z M29.5,8.5c0.8,0.3,1.5,0.8,2.1,1.5c0.6,0.8,0.8,1.7,0.8,2.7
	c0,1.9-0.5,3.2-1.6,4c-1.1,0.8-2.5,1.2-3.9,1.1h-6c-0.4,0-0.8-0.1-1-0.4c-0.3-0.3-0.4-0.7-0.4-1V2.5c0-0.4,0.1-0.8,0.4-1
	c0.3-0.3,0.7-0.4,1-0.4h6c3,0,4.6,1.4,4.6,4.3c0,0.7-0.2,1.3-0.5,1.9C30.6,7.8,30.1,8.2,29.5,8.5z M28.4,5.8c0-0.5-0.1-1.1-0.5-1.5
	C27.5,4,27,3.8,26.5,3.9h-4v3.7h4c0.5,0,0.9-0.2,1.3-0.5C28.2,6.8,28.4,6.3,28.4,5.8z M26.8,15.1c0.6,0,1.3-0.2,1.8-0.6
	c0.5-0.5,0.7-1.1,0.6-1.8c0.1-0.7-0.2-1.4-0.7-1.8c-0.6-0.3-1.2-0.5-1.8-0.4h-4.2v4.6H26.8z M52.5,9.4c0,1.5-0.3,3-1.1,4.4
	c-0.7,1.3-1.7,2.4-2.9,3.1c-1.3,0.8-2.7,1.2-4.2,1.2c-1.5,0-2.9-0.4-4.2-1.2c-1.2-0.8-2.2-1.8-2.9-3.1c-0.7-1.3-1.1-2.8-1-4.4
	c0-1.5,0.3-3,1-4.4c0.7-1.3,1.7-2.4,2.9-3.1c1.3-0.8,2.7-1.2,4.2-1.2c1.5,0,2.9,0.4,4.2,1.2c1.2,0.8,2.2,1.8,2.9,3.1
	C52.2,6.4,52.5,7.9,52.5,9.4z M49.4,9.4c0-1-0.2-2-0.6-2.9c-0.4-0.8-1-1.6-1.8-2.1c-0.8-0.5-1.7-0.8-2.6-0.8c-0.9,0-1.8,0.2-2.6,0.8
	C41,4.9,40.4,5.6,40,6.5c-0.4,0.9-0.7,1.9-0.6,2.9c0,1,0.2,2,0.6,2.9c0.4,0.8,1,1.6,1.8,2.1c0.8,0.5,1.7,0.8,2.6,0.8
	c0.9,0,1.8-0.3,2.6-0.8c0.8-0.5,1.4-1.2,1.8-2.1C49.2,11.4,49.4,10.4,49.4,9.4z M69.1,1c0.4,0,0.7,0.1,1,0.4
	c0.3,0.3,0.4,0.7,0.4,1.1v8.7c0,1.2-0.3,2.4-0.8,3.5c-0.5,1-1.4,1.8-2.4,2.4c-1.1,0.6-2.3,0.9-3.5,0.9c-1.2,0-2.4-0.3-3.5-0.9
	c-1-0.6-1.8-1.4-2.4-2.4c-0.6-1.1-0.9-2.3-0.8-3.5V2.5c0-0.4,0.1-0.8,0.4-1C57.9,1.1,58.3,1,58.7,1c0.4,0,0.7,0.1,1,0.4
	c0.3,0.3,0.4,0.7,0.4,1v8.7c0,0.7,0.2,1.4,0.5,2.1c0.3,0.6,0.8,1.1,1.4,1.4c0.6,0.3,1.2,0.5,1.8,0.5c0.7,0,1.3-0.2,1.9-0.5
	c0.6-0.3,1.1-0.8,1.4-1.4c0.4-0.6,0.6-1.3,0.5-2.1V2.5c0-0.4,0.1-0.8,0.4-1.1C68.4,1.1,68.7,1,69.1,1z M87.1,1
	c0.4,0,0.8,0.1,1.1,0.4c0.3,0.3,0.4,0.6,0.4,1c0,0.4-0.1,0.7-0.4,1c-0.3,0.3-0.7,0.4-1.1,0.4h-3.8v12.6c0,0.4-0.2,0.8-0.5,1
	c-0.3,0.3-0.7,0.4-1.1,0.4c-0.4,0-0.8-0.1-1.1-0.4c-0.3-0.3-0.4-0.7-0.4-1V3.8h-3.8c-0.4,0-0.8-0.1-1.1-0.4c-0.3-0.3-0.4-0.6-0.4-1
	c0-0.4,0.1-0.7,0.4-1C75.6,1.1,76,1,76.4,1L87.1,1z M113.5,1c0.4,0,0.7,0.1,1,0.4c0.3,0.3,0.4,0.7,0.4,1.1v8.7
	c0,1.2-0.3,2.4-0.8,3.5c-0.5,1-1.4,1.8-2.4,2.4c-1.1,0.6-2.2,0.9-3.5,0.9c-1.2,0-2.4-0.3-3.5-0.9c-1-0.6-1.8-1.4-2.4-2.4
	c-0.6-1.1-0.9-2.3-0.8-3.5V2.5c0-0.4,0.1-0.8,0.4-1c0.3-0.3,0.7-0.4,1.1-0.4c0.4,0,0.7,0.1,1,0.4c0.3,0.3,0.4,0.7,0.4,1v8.7
	c0,0.7,0.2,1.4,0.5,2.1c0.3,0.6,0.8,1.1,1.4,1.4c0.6,0.3,1.2,0.5,1.8,0.5c0.7,0,1.3-0.2,1.9-0.5c0.6-0.3,1.1-0.8,1.4-1.4
	c0.4-0.6,0.6-1.3,0.5-2.1V2.5c0-0.4,0.1-0.8,0.4-1.1C112.8,1.1,113.2,1,113.5,1z M123.4,3.8V8h5.2c0.4,0,0.8,0.1,1,0.4
	c0.3,0.3,0.4,0.6,0.4,1c0,0.4-0.2,0.7-0.4,0.9c-0.3,0.3-0.7,0.4-1,0.4h-5.2v5.6c0,0.4-0.2,0.8-0.4,1c-0.3,0.3-0.7,0.4-1,0.4
	c-0.4,0-0.8-0.1-1.1-0.4c-0.3-0.3-0.4-0.7-0.4-1.1V2.5c0-0.4,0.1-0.8,0.4-1c0.3-0.3,0.7-0.4,1-0.4h7.8c0.4,0,0.8,0.1,1,0.4
	c0.3,0.3,0.4,0.6,0.4,1c0,0.4-0.2,0.7-0.4,0.9c-0.3,0.3-0.7,0.4-1,0.4L123.4,3.8z M147.8,1c0.4,0,0.7,0.1,1,0.4
	c0.3,0.3,0.4,0.7,0.4,1.1v8.7c0,1.2-0.3,2.4-0.8,3.5c-0.5,1-1.4,1.8-2.4,2.4c-1.1,0.6-2.2,0.9-3.5,0.9c-1.2,0-2.4-0.3-3.5-0.9
	c-1-0.6-1.8-1.4-2.4-2.4c-0.6-1.1-0.9-2.3-0.8-3.5V2.5c0-0.4,0.1-0.8,0.4-1c0.3-0.3,0.7-0.4,1.1-0.4c0.4,0,0.7,0.1,1,0.4
	c0.3,0.3,0.4,0.7,0.4,1v8.7c0,0.7,0.2,1.4,0.5,2.1c0.3,0.6,0.8,1.1,1.4,1.4c0.6,0.3,1.2,0.5,1.8,0.5c0.7,0,1.3-0.2,1.9-0.5
	c0.6-0.3,1.1-0.8,1.4-1.4c0.4-0.6,0.6-1.3,0.5-2.1V2.5c0-0.4,0.1-0.8,0.4-1.1C147,1.1,147.4,1,147.8,1L147.8,1z M157.7,3.8V8h5.2
	c0.4,0,0.8,0.1,1,0.4c0.3,0.3,0.4,0.6,0.4,1c0,0.4-0.2,0.7-0.4,0.9c-0.3,0.3-0.7,0.4-1,0.4h-5.2v5.6c0,0.4-0.2,0.8-0.4,1
	c-0.3,0.3-0.7,0.4-1,0.4c-0.4,0-0.8-0.1-1.1-0.4c-0.3-0.3-0.4-0.7-0.4-1.1V2.5c0-0.4,0.1-0.8,0.4-1c0.3-0.3,0.7-0.4,1-0.4h7.8
	c0.4,0,0.8,0.1,1,0.4c0.3,0.3,0.4,0.6,0.4,1c0,0.4-0.2,0.7-0.4,0.9c-0.3,0.3-0.7,0.4-1,0.4L157.7,3.8z M182,1c0.4,0,0.7,0.1,1,0.4
	c0.3,0.3,0.4,0.7,0.4,1.1v8.7c0,1.2-0.3,2.4-0.8,3.5c-0.5,1-1.4,1.8-2.4,2.4c-1.1,0.6-2.2,0.9-3.5,0.9c-1.2,0-2.4-0.3-3.5-0.9
	c-1-0.6-1.8-1.4-2.4-2.4c-0.6-1.1-0.9-2.3-0.8-3.5V2.5c0-0.4,0.1-0.8,0.4-1c0.3-0.3,0.7-0.4,1.1-0.4c0.4,0,0.7,0.1,1,0.4
	c0.3,0.3,0.4,0.7,0.4,1v8.7c0,0.7,0.2,1.4,0.5,2.1c0.3,0.6,0.8,1.1,1.4,1.4c0.6,0.3,1.2,0.5,1.8,0.5c0.7,0,1.3-0.2,1.9-0.5
	c0.6-0.3,1.1-0.8,1.4-1.4c0.4-0.6,0.6-1.3,0.5-2.1V2.5c0-0.4,0.1-0.8,0.4-1.1C181.3,1.1,181.7,1,182,1L182,1z"/>
<path id="パス_749" d="M7.2,34.8v-0.7c0-0.3,0-0.7,0.1-1c0.1-0.1,0.1-0.3-0.1-0.3c-0.3-0.1-0.7-0.1-1.1-0.1c0.1,0.5,0.1,1,0.1,1.5
	v0.7H4.7c-0.7,0-1.2,0-1.8-0.1c-0.1,0-0.2,0-0.2,0.1c0,0.3,0,0.7,0,1.1v0.9c0,0.6,0,1,0,1.6c0,0.1,0,0.2,0.1,0.2c0.2,0,0.5,0,0.7,0
	c0.1,0,0.2,0,0.2-0.2c0-0.5,0-1,0-1.6v-1.3h6.4c-0.3,1.4-0.8,2.7-1.5,3.9C7.7,40.9,6.5,42,5,42.8c0.3,0.1,0.5,0.2,0.8,0.4
	c0.1,0.1,0.2,0.1,0.3,0c1.4-0.8,2.6-2,3.4-3.3c0.7-1.2,1.3-2.5,1.6-3.9c0-0.2,0.1-0.3,0.2-0.5c0.1-0.1,0.1-0.2,0-0.3c0,0,0,0,0,0
	c-0.1-0.2-0.3-0.4-0.5-0.5c-0.1-0.1-0.2-0.1-0.3,0c-0.2,0.1-0.4,0.1-1.2,0.1L7.2,34.8z M24.1,35c-0.5,1.5-1.4,2.9-2.4,4.2
	c-1.2,1.4-2.6,2.5-4.2,3.2c0.3,0.1,0.5,0.3,0.7,0.4c0.1,0.1,0.3,0.1,0.4,0c1.5-0.8,2.8-1.9,3.9-3.1c1.1-1.3,2-2.7,2.5-4.3
	c0.1-0.2,0.2-0.3,0.3-0.4c0.1-0.1,0.1-0.3,0-0.4c0,0,0,0,0,0c-0.2-0.2-0.4-0.4-0.6-0.5c-0.1-0.1-0.2-0.1-0.3,0
	c-0.2,0.1-0.4,0.1-0.6,0.1h-4.6c-0.8,0-1.7,0-2.5-0.1c0,0.2,0.1,0.6,0.1,0.8c0,0.2,0.1,0.2,0.2,0.2c0.7-0.1,1.4-0.1,2.2-0.1L24.1,35
	z M38.1,35c-0.5,1.5-1.4,2.9-2.4,4.2c-1.2,1.4-2.6,2.5-4.2,3.2c0.3,0.1,0.5,0.3,0.7,0.4c0.1,0.1,0.3,0.1,0.4,0
	c1.5-0.8,2.8-1.9,3.9-3.1c1.1-1.3,2-2.7,2.5-4.3c0.1-0.2,0.2-0.3,0.3-0.4c0.1-0.1,0.1-0.3,0-0.4c0,0,0,0,0,0
	c-0.2-0.2-0.4-0.4-0.6-0.5c-0.1-0.1-0.2-0.1-0.3,0c-0.2,0.1-0.4,0.1-0.7,0.1h-4.6c-0.8,0-1.7,0-2.5-0.1c0,0.2,0.1,0.6,0.1,0.8
	s0.1,0.2,0.2,0.2c0.7-0.1,1.4-0.1,2.2-0.1L38.1,35z M48.1,34.5c0-0.5,0-1,0.1-1.4c0.1-0.2,0.1-0.3-0.1-0.4c-0.4-0.1-0.7-0.1-1.1-0.2
	c0.1,0.7,0.2,1.4,0.1,2.1v5.8c0,0.8,0,1.8-0.1,2.6c0,0.1,0,0.2,0.2,0.2c0.2,0,0.4,0,0.7,0c0.1,0,0.2,0,0.2-0.2c0-0.8,0-1.9,0-2.7v-3
	c1.3,0.4,2.6,1,3.8,1.7c0.1,0.1,0.2,0.1,0.2-0.1c0.1-0.2,0.2-0.4,0.3-0.6c0-0.1,0-0.2-0.1-0.2c-1.3-0.8-2.8-1.4-4.2-1.8L48.1,34.5z
	 M50.9,33.4c0.6,0.4,1.1,1,1.5,1.7c0,0.1,0.1,0.1,0.1,0.1c0,0,0,0,0,0l0.4-0.3c0,0,0.1-0.1,0-0.1c0,0,0,0,0,0
	c-0.4-0.6-0.9-1.1-1.5-1.6c0,0-0.1,0-0.1,0c0,0,0,0,0,0L50.9,33.4z M52,32.5c0.6,0.4,1.1,1,1.5,1.6c0.1,0.1,0.1,0.1,0.2,0l0.4-0.3
	c0.1-0.1,0.1-0.1,0-0.2c-0.4-0.6-0.9-1.1-1.5-1.5c-0.1,0-0.1,0-0.1,0L52,32.5z M64.9,38.5c0.9,0,1.8,0,2.8,0c0.2,0,0.2,0,0.2-0.2
	c0-0.2,0-0.5,0-0.7c0-0.1,0-0.2-0.2-0.2c-1,0-1.9,0-2.8,0h-4c-1,0-1.9,0-2.9-0.1c0,0.3,0.1,0.7,0.1,1c0,0.1,0.1,0.2,0.2,0.2
	c0.6-0.1,1.2-0.1,1.8-0.1H64.9z M77.8,36c0-0.7,0-1.3,0-2.1c0-0.3,0-0.5,0.1-0.8c0.1-0.1,0.1-0.3-0.1-0.3c-0.4-0.1-0.7-0.1-1.1-0.1
	c0.1,0.5,0.1,0.9,0.1,1.4c0,0.7,0,1.2,0,1.9h-2.8c-0.7,0-1.3,0-2.1-0.1c0,0.3,0.1,0.6,0.1,0.8c0,0.2,0,0.2,0.2,0.2
	c0.6,0,1.2-0.1,1.9-0.1h2.7c0,1.2-0.3,2.3-0.8,3.4c-0.7,1.1-1.7,1.9-2.9,2.4c0.2,0.1,0.5,0.2,0.6,0.4c0.1,0.1,0.3,0.1,0.4,0
	c1.1-0.6,2.1-1.5,2.8-2.5c0.6-1.1,0.9-2.4,0.9-3.7h1.9c0.7,0,1.5,0,2.2,0c0.2,0,0.2,0,0.2-0.2c0-0.2,0-0.4,0-0.6
	c0-0.1,0-0.2-0.2-0.2c-0.7,0-1.5,0-2.2,0L77.8,36z M88.5,37c-0.8,0-1.6,0-2.5-0.1c0,0.3,0.1,0.6,0.1,0.7s0.1,0.2,0.2,0.2
	c0.7-0.1,1.5-0.1,2.2-0.1h2.4c0,0.9-0.2,1.7-0.5,2.5c-0.5,1.1-1.3,1.9-2.3,2.5c0.3,0.1,0.6,0.2,0.8,0.3c0.1,0.1,0.2,0.1,0.3,0
	c0,0,0,0,0,0c0.9-0.6,1.6-1.5,2.1-2.5c0.4-0.9,0.6-1.8,0.6-2.8h1.7c0.9,0,1.7,0,2.5,0c0.1,0,0.2,0,0.2-0.2c0-0.2,0-0.4,0-0.6
	c0-0.1,0-0.2-0.1-0.2c-0.7,0-1.7,0.1-2.5,0.1h-1.7c0-0.3,0-0.5,0-0.8c0-0.2,0-0.4,0-0.5c0-0.1,0-0.2,0.1-0.4c0.1-0.1,0-0.2-0.1-0.3
	c-0.4-0.1-0.7-0.1-1.1-0.2c0.1,0.3,0.1,0.7,0.1,1c0,0.3,0,0.8,0,1.2L88.5,37z M93.7,32.8c-0.3,0.2-0.6,0.4-0.9,0.5
	c-0.8,0.3-1.5,0.5-2.3,0.6c-1.2,0.3-2.5,0.4-3.8,0.5c0.2,0.2,0.3,0.3,0.5,0.6c0,0.1,0.1,0.2,0.2,0.2c1.1-0.1,2.3-0.3,3.4-0.5
	c0.9-0.2,1.8-0.4,2.7-0.7c0.2-0.1,0.5-0.2,0.7-0.2s0.3-0.1,0.3-0.2c0-0.1-0.1-0.2-0.2-0.3C94.2,33.2,93.9,33,93.7,32.8L93.7,32.8z
	 M106.3,41.4l0.5-3.2c0-0.3,0.1-0.4,0.2-0.5c0.1-0.1,0.1-0.2,0.1-0.3c0,0,0,0,0,0c-0.1-0.2-0.3-0.3-0.5-0.5c-0.1-0.1-0.2-0.1-0.3,0
	c-0.2,0.1-0.3,0.1-0.5,0.1h-1.9c-0.5,0-1.1,0-1.8-0.1c0,0.2,0,0.5,0.1,0.7c0,0.1,0.1,0.2,0.2,0.2c0.4,0,1,0,1.5,0h2.2l-0.5,3.6h-3.1
	c-0.6,0-1.1,0-1.9-0.1c0,0.2,0,0.5,0.1,0.7c0,0.2,0,0.2,0.2,0.2c0.6,0,1.1-0.1,1.7-0.1h4.5c0.6,0,1.1,0,1.8,0c0.1,0,0.2,0,0.2-0.2
	v-0.5c0-0.2-0.1-0.2-0.2-0.2c-0.6,0-1.1,0-1.7,0H106.3z M114.9,33.2c0,0.5-0.1,1-0.2,1.4c-0.3,1.5-0.5,2.9-0.5,4.4
	c0,1.3,0.2,2.6,0.6,3.8c0,0.1,0.1,0.1,0.1,0.1c0.2,0,0.4-0.1,0.6-0.1c0.1,0,0.1-0.1,0.1-0.1c0-0.1,0-0.2,0-0.3c0-0.1,0-0.2,0.1-0.3
	c0.3-0.8,0.5-1.4,0.8-2.1c0-0.1,0.1-0.1,0.1-0.2c0,0,0-0.1-0.1-0.1c-0.1-0.2-0.2-0.3-0.3-0.5c-0.4,0.9-0.7,1.5-1,2.2
	c-0.1-0.7-0.2-1.5-0.2-2.2c0-1.5,0.2-3,0.6-4.5c0-0.2,0.1-0.5,0.3-0.7c0.1-0.1,0.1-0.1,0.1-0.2c0-0.1-0.1-0.1-0.2-0.2
	C115.5,33.4,115.2,33.3,114.9,33.2L114.9,33.2z M117.8,39.8c0,0.6,0.2,1.1,0.5,1.5c0.6,0.6,1.4,0.8,2.9,0.8c0.8,0,1.6,0,2.3-0.1
	c0.2,0,0.2,0,0.2-0.2c0-0.2,0-0.5,0-0.6c0-0.1,0-0.1-0.1-0.1c-0.8,0.1-1.7,0.2-2.6,0.2c-1.5,0-2.3-0.4-2.4-1.4c0-0.1,0-0.1-0.1-0.1
	L117.8,39.8z M118.2,35.6c0.9-0.2,1.8-0.3,2.7-0.3c0.7,0,1.6,0,2.1,0.1c0.1,0,0.1,0,0.1-0.1c0-0.2,0-0.4,0-0.6c0-0.1,0-0.1-0.2-0.1
	c-0.4,0-1.1-0.1-1.8-0.1c-0.9,0-1.8,0.1-2.8,0.2c-0.1,0-0.2,0.1-0.2,0.2C118.2,35,118.2,35.2,118.2,35.6L118.2,35.6z M127.4,36.2
	c0.2,0.3,0.3,0.6,0.6,0.9c0.1,0.1,0.2,0.2,0.2,0.2c0.1,0,0.2-0.1,0.2-0.1c0.3-0.2,0.6-0.3,0.9-0.5c1.5-0.8,3.2-1.2,4.9-1.4
	c1.3-0.2,2.4,0.8,2.6,2c0,0.1,0,0.2,0,0.3c0,1.2-0.7,2.3-1.9,2.8c-1.2,0.6-2.4,0.9-3.7,1c0.2,0.2,0.4,0.4,0.6,0.6
	c0.1,0.1,0.2,0.2,0.3,0.2c1.2-0.2,2.4-0.5,3.5-1.1c1.3-0.6,2.2-1.9,2.1-3.4c0-1.9-1.3-3.2-3.5-3.2c-1.5,0.1-3,0.4-4.4,1
	C129.1,35.8,128.2,36.1,127.4,36.2L127.4,36.2z M142.2,33.9c0.1,0.4,0.1,0.8,0.1,1.2c0,1.2,0.1,2.4,0.2,3.6c0.3,2,1.1,3.5,2.2,3.5
	c0.9,0,1.6-1,1.9-2c0-0.1,0-0.2-0.1-0.3c-0.2-0.2-0.3-0.4-0.4-0.6c-0.4,1.2-0.9,2-1.4,2c-0.6,0-1.2-1.1-1.4-2.7c-0.1-1-0.2-2-0.2-3
	c0-0.4,0-0.8,0.1-1.2c0-0.1,0-0.2,0.1-0.2c0-0.1,0-0.1-0.1-0.1C142.9,34.1,142.5,34,142.2,33.9L142.2,33.9z M148.8,35.6
	c1.3,1.2,2.2,2.8,2.4,4.5c0,0.1,0.1,0.1,0.1,0.1c0,0,0,0,0,0c0.2-0.1,0.4-0.2,0.6-0.3c0.1,0,0.1-0.1,0.1-0.2
	c-0.3-1.7-1.2-3.3-2.5-4.5c-0.1-0.1-0.1,0-0.2,0C149.2,35.3,149,35.4,148.8,35.6z M162.6,34.7c-2,1.1-3.2,2.6-3.2,4.4
	c0,2.6,2.4,3.6,4.6,3.8c0.1,0,0.2,0,0.2-0.2c0-0.2,0.1-0.4,0.1-0.6c0-0.1,0-0.1-0.2-0.1c-1.9-0.2-3.8-0.8-3.8-3
	c0-1.7,1.5-3.3,3.4-4.1c0.6-0.2,1.2-0.4,1.9-0.4c0.1,0,0.2,0,0.2-0.2c0-0.2,0-0.4-0.1-0.6c0-0.1-0.1-0.1-0.2-0.1
	c-3.5,0.4-6.1,0.8-8.1,1.1c-0.5,0.1-1.1,0.1-1.6,0.2c0.1,0.3,0.2,0.6,0.4,0.9c0,0.1,0.1,0.1,0.2,0.1c0.1,0,0.2,0,0.2-0.1
	c0.2-0.1,0.5-0.2,0.8-0.2C158.9,35.3,160.6,35,162.6,34.7L162.6,34.7z"/>
</svg>
