<?xml version="1.0" encoding="utf-8"?>
<!-- Generator: Adobe Illustrator 24.2.0, SVG Export Plug-In . SVG Version: 6.00 Build 0)  -->
<svg version="1.1" id="レイヤー_1" xmlns="http://www.w3.org/2000/svg" xmlns:xlink="http://www.w3.org/1999/xlink" x="0px"
	 y="0px" viewBox="0 0 104 112" style="enable-background:new 0 0 104 112;" xml:space="preserve">
<style type="text/css">
	.st0{fill:#1A1311;}
</style>
<g id="グループ_78" transform="translate(-399.733 -244.799)">
	<g id="グループ_1" transform="translate(399.733 244.799)">
		<path id="パス_1" class="st0" d="M96.8,83.6c-0.7-6.3,2-9.1,3.8-20.2c2.4-14.8-4.5-23.9-10-29.5c-7.2-7.4-16.6-10.5-23.1-12.7
			c-7.5-2.5-11.5-5-13.2-9.5c-2.5-6.9-1.7-10.5-3.9-10.5c-1.9,0-1,6.7-4.5,11.7c-6.6,9.4-24.6,9-36.5,25.6
			C-2.1,54.6,4.1,67.1,6,76.4c1.1,5.5,1.5,8.1,0.6,11.4C5.8,91,3.8,93.7,1,95.4c4.3,4.7,13,4.1,16.9,1.5s7.3-8.4,6.4-18.8
			c9.2,1.1,18.5,1.5,27.7,1.3c14.5-0.5,22.4-0.9,27.6-2.4c-0.5,12.7,1.9,16.1,7.3,18.7c5.7,2.8,12.6,0,16.2-3.3
			C100.6,91.3,97.5,89.3,96.8,83.6z"/>
		<path id="パス_2" class="st0" d="M34,84c-1.8,0-3.2,1.4-3.2,3.2c0,1.8,1.4,3.2,3.2,3.2c1.8,0,3.2-1.4,3.2-3.2
			C37.1,85.4,35.7,84,34,84z"/>
		<circle id="楕円形_1" class="st0" cx="70.1" cy="86.8" r="3.2"/>
		<path id="パス_3" class="st0" d="M56.1,93.6c-1.2-0.4-2.4-0.6-3.6-0.7c-0.7,0-1.5,0.1-2.2,0.3c-1.6,0.4-2.9,1.6-3.5,3.1
			c-0.8,2.1,0,4.5,1.9,5.6l0.1,0.1l-0.1,0.1c-0.4,0.2-0.7,0.5-0.9,0.9c-0.8,1-1.1,2.2-0.9,3.5c0.2,1.3,1,2.4,2.1,3.1
			c1.3,0.6,2.7,1,4.1,1c1.1,0.1,2.2,0,3.2-0.4l0,0v0l0-2.2c0,0,0,0,0,0c-2.8,0.6-4.2,0.6-5.6-0.1c-0.6-0.3-1-0.9-1.2-1.6
			c-0.2-0.7,0-1.4,0.4-2c0-0.1,0.1-0.1,0.1-0.2c0.4-0.6,0.9-1.3,2.9-1.2c0.4,0,0.7,0,1,0c0.2,0,0.3,0,0.5,0c0,0,0.1,0,0.1,0
			c0,0,0-0.2,0-0.2v-0.3c0-0.1,0-0.2,0-0.3l0-1c0,0,0-0.1-0.1-0.1l-0.3,0c-1.2,0-2.4-0.2-3.5-0.6c-1.2-0.5-1.7-1.9-1.2-3
			c0,0,0-0.1,0-0.1c0.4-0.8,1.2-1.4,2.1-1.5c1.2-0.1,2.4-0.1,3.6,0.2c0.1,0,0.7,0.1,0.9,0.1l0.1-1.1C56.1,94.7,56.1,93.8,56.1,93.6z
			"/>
		<path id="パス_4" class="st0" d="M56.3,93.5L56.3,93.5L56.3,93.5c-2.4-0.7-3.7-1.1-6-0.5c-1.7,0.4-3,1.6-3.7,3.2
			c-0.8,2.1,0,4.6,1.9,5.8c-0.3,0.2-0.6,0.5-0.9,0.8c-0.8,1-1.1,2.3-0.9,3.6c0.3,1.3,1,2.5,2.1,3.2c1.3,0.7,2.7,1,4.2,1
			c0.4,0,0.7,0,0.9,0c0.8,0,1.6-0.2,2.3-0.4c0.1,0,0.1,0,0.1-0.1c0,0,0-0.1,0-0.1l0-2.2l0,0c-0.1-0.1-0.2-0.1-0.2-0.1
			c-2.7,0.6-4.1,0.6-5.5-0.1c-0.6-0.3-1-0.8-1.1-1.5c-0.2-0.6,0-1.3,0.3-1.9c0-0.1,0.1-0.1,0.1-0.2c0.4-0.6,0.8-1.2,2.7-1.1
			c0.4,0,0.7,0,1,0c0.2,0,0.3,0,0.5,0c0.1,0,0.2,0,0.2-0.1c0.1-0.1,0.1-0.2,0.1-0.4v-0.2c0-0.1,0-0.2,0-0.3l0-1
			c0-0.1-0.1-0.2-0.2-0.2l-0.4,0c-1.2,0-2.3-0.2-3.4-0.6c-1.1-0.5-1.6-1.7-1.1-2.8c0,0,0-0.1,0-0.1c0.4-0.8,1.1-1.3,2-1.4
			c1.2-0.1,2.4-0.1,3.6,0.2c1,0.2,1,0.1,1,0.1l0,0l0.1-1.2l0,0C56.3,94.4,56.3,94,56.3,93.5z M55.1,95.8c-1.2-0.3-2.4-0.3-3.6-0.2
			c-0.9,0.1-1.7,0.7-2.1,1.5c-0.6,1.1-0.1,2.5,1.1,3.1c0,0,0.1,0,0.1,0c1.1,0.4,2.3,0.6,3.5,0.6l0.3,0c0,0,0.1,0,0.1,0.1l0,1
			c0,0.1,0,0.2,0,0.3v0.3c0,0,0,0.2,0,0.2c0,0-0.1,0-0.1,0c-0.2,0-0.3,0-0.5,0c-0.3,0-0.6,0-1,0c-2-0.1-2.5,0.6-2.9,1.2
			c0,0.1-0.1,0.1-0.1,0.2c-0.4,0.6-0.5,1.3-0.4,2c0.1,0.7,0.6,1.2,1.2,1.6c1.4,0.7,2.8,0.7,5.6,0.1c0,0,0,0,0,0l0,2.2v0l0,0
			c-1,0.3-2.1,0.4-3.2,0.4c-1.4,0-2.8-0.4-4.1-1c-1.1-0.7-1.8-1.8-2.1-3.1c-0.2-1.2,0.1-2.5,0.9-3.5c0.3-0.3,0.6-0.6,0.9-0.9
			l0.1-0.1l-0.1-0.1c-1.9-1.1-2.8-3.5-1.9-5.6c0.6-1.6,1.9-2.7,3.5-3.1c0.7-0.2,1.4-0.3,2.2-0.3c1.2,0.1,2.4,0.3,3.6,0.7
			c0,0.2,0,1.1,0,1.2L56,95.9C55.8,95.9,55.2,95.9,55.1,95.8L55.1,95.8z"/>
		<path id="パス_5" class="st0" d="M68.2,104.3c-0.3,0.1-0.5,0.2-0.7,0.4c-0.1,0.2-0.3,0.2-0.5,0.2c-0.3-0.1-0.5,0-0.8,0
			c-0.7,0.2-1.1,0.9-1,1.6c0,0.1,0.1,0.2,0.1,0.3c1.1,1,2.9,1,3.9-0.1c0.4-0.4,0.6-0.8,0.7-1.4c0-0.1,0-0.2,0-0.3
			C69.6,104.4,68.8,104.1,68.2,104.3z"/>
	</g>
</g>
</svg>
