<?xml version="1.0" encoding="utf-8"?>
<!-- Generator: Adobe Illustrator 24.2.0, SVG Export Plug-In . SVG Version: 6.00 Build 0)  -->
<svg version="1.1" id="レイヤー_1" xmlns="http://www.w3.org/2000/svg" xmlns:xlink="http://www.w3.org/1999/xlink" x="0px"
	 y="0px" viewBox="0 0 30 40" style="enable-background:new 0 0 30 40;" xml:space="preserve">
<path id="パス_508" d="M28.6,11.6c-0.1-1.4-0.3-2.9-0.7-4.3c-0.4-1.6-1.1-3.1-2.2-4.3c-0.4-0.4-0.8-0.7-1.2-1
	c-0.4-0.2-0.9-0.4-1.3-0.5c-0.7-0.2-1.3-0.4-2-0.6c-0.8-0.2-1.6-0.2-2.4-0.2h-0.2c-0.6,0-1.3,0-1.9,0.1c-0.5,0.1-1,0.1-1.4,0.2
	c-0.3,0.1-0.7,0.2-1,0.3c-0.4,0.1-0.8,0.3-1.1,0.5c-0.5,0.3-0.9,0.7-1.2,1.2c-0.4,0.7-0.8,1.4-1.1,2.1c-0.2,0.6-0.5,1.3-0.6,1.9
	c-0.4,1.5-0.5,3-0.4,4.5c0,0.7,0.1,1.5,0,2.2c-0.9-0.1-1.8-0.2-2.7-0.3l0,0c-0.2,0.2-0.5,0.3-0.7,0.3c-0.2,0.2-0.5,0.4-0.9,0.4
	c-0.3,0-0.6,0-0.9,0c-0.3,0-0.7,0-1,0c-0.7,0-1.5,0.1-2.2,0.2c0,0.7,0.1,1.5,0.2,2.2c0,0.2,0,0.4,0.1,0.6c0,0.1,0,0.2,0,0.3
	s0,0.2,0,0.2l0,0.3c0,0.1,0,0.2,0,0.3c0,0.1,0,0.3,0.1,0.4c0.2,0.2,0.4,0.5,0.4,0.8c0,0.5,0,1-0.1,1.4c0,0.1,0,0.1,0,0.2
	c0.6,0,1.2,0,1.8,0c0.5,0,1.1,0,1.6,0c0.6,0,1.2,0,1.7,0.1c0.3,0,0.6,0.2,0.9,0.2s0.6,0.1,0.8,0.2h0c0.2,0,0.5,0.1,0.7,0.1
	c0.3,0.1,0.5,0.1,0.8,0.2c0.1,1.2,0.2,2.4,0.2,3.5c0,0.9,0,1.7,0.1,2.6c0.1,1,0.2,1.9,0.3,2.9c0.1,0.7,0.1,1.5,0.1,2.2
	c0,0.8-0.1,1.6-0.2,2.4c0,0.3-0.1,0.6-0.1,1c-0.1,0.4-0.1,0.9-0.2,1.3c-0.1,0.6,0,1.1,0.3,1.6c0.2,0,0.5,0,0.7,0
	c0.7-0.1,1.3-0.1,2-0.2c1.2-0.1,2.4-0.3,3.7-0.4c0.3,0,0.6,0,0.9-0.1c0,0,0-0.1,0-0.1c0-0.3,0-0.6,0-1c0-0.7-0.1-1.4-0.1-2.1
	c0-0.7,0-1.4-0.1-2.2c-0.1-1.5-0.3-3-0.4-4.4c0-0.7-0.1-1.4-0.1-2.2c0-0.8,0-1.5,0-2.3c0-0.4,0-0.8,0-1.2c0,0,0,0,0-0.1
	c-0.2-0.3-0.2-0.6-0.1-0.9c0.1-0.3,0.3-0.6,0.5-0.7c0.2-0.1,0.4-0.2,0.6-0.2c0.2,0,0.5-0.1,0.7-0.1c0.3,0,0.6,0,0.9,0
	c0.2,0,0.3,0,0.5,0c0-0.1,0.1-0.2,0.1-0.4c0-0.2,0.1-0.3,0.1-0.5c0.1-0.5,0.1-1,0.2-1.5c0.1-1,0.1-2,0-3c0-0.3-0.1-0.5-0.1-0.8
	c0-0.1,0-0.1-0.1-0.2c-0.1,0.1-0.2,0.1-0.3,0.2c-0.1,0-0.3,0.1-0.4,0.1c0,0-0.1,0-0.1,0h-0.1c-0.1,0-0.2,0-0.2,0c-0.2,0-0.3,0-0.5,0
	c-0.2,0-0.4,0-0.5-0.1c-0.1,0-0.2,0-0.4,0c-0.4,0-0.7-0.1-1-0.4c-0.3-0.3-0.4-0.6-0.4-1c0-0.3,0-0.6,0.1-0.9c0-0.4,0.1-0.8,0.2-1.2
	c0.1-0.3,0.1-0.6,0.3-0.9c0.1-0.2,0.2-0.5,0.3-0.7c0,0,0,0,0-0.1c0.1-0.6,0.2-1.1,0.4-1.6c0.2-0.1,0.4-0.2,0.6-0.3
	c0.2,0,0.4,0,0.7,0c0.3,0.1,0.7,0.1,1,0.3c0.3,0.2,0.7,0.4,1,0.6c0.2,0.2,0.4,0.3,0.5,0.5c0,0,0.1,0.1,0.1,0.2l0.1,0
	c0,0,0.1,0.1,0.1,0.1c0.1,0.1,0.2,0.3,0.3,0.4c0.1,0.2,0.3,0.4,0.4,0.6c0.3,0.5,0.6,1,0.7,1.5c0.2,0.5,0.3,0.9,0.4,1.4
	c0,0.2,0.1,0.3,0.1,0.5l0.1,0c0.1,0,0.2,0,0.3,0c0.1-0.1,0.2-0.1,0.3-0.2c0.1,0,0.3,0,0.5-0.1l0.5-0.1c0.3,0,0.7-0.1,1-0.1
	c0.3,0,0.6-0.1,1-0.1c0.2,0,0.3,0,0.5,0c0.2,0,0.4,0,0.5,0.1c0.1-0.3,0.2-0.5,0.2-0.8C28.7,12.2,28.7,11.9,28.6,11.6z"/>
</svg>
