<?xml version="1.0" encoding="utf-8"?>
<!-- Generator: Adobe Illustrator 24.2.0, SVG Export Plug-In . SVG Version: 6.00 Build 0)  -->
<svg version="1.1" id="レイヤー_1" xmlns="http://www.w3.org/2000/svg" xmlns:xlink="http://www.w3.org/1999/xlink" x="0px"
	 y="0px" viewBox="0 0 48 42" style="enable-background:new 0 0 48 42;" xml:space="preserve">
<path id="パス_512" d="M47,4.8c0-0.1,0-0.3,0-0.4V4.3c-0.3-0.2-0.8-0.3-1.2-0.2l-0.1,0C45.5,4,45.3,4,45.1,4c-0.1,0-0.2,0-0.3,0
	c-0.8,0-1.5-0.1-2.3,0c-0.7,0-1.3,0.1-2,0.2c-0.3,0-0.6,0.1-1,0.1c-0.4,0-0.7,0.1-1.1,0.1c-0.3-0.7-0.7-1.3-1.2-1.9
	c-0.4-0.1-0.7-0.3-1.1-0.5c-0.3-0.2-0.7-0.4-1-0.6l-0.1,0c-0.4-0.1-0.8-0.1-1.2-0.1h-0.1c-0.1,0-0.3-0.1-0.4-0.1
	c-0.4,0.1-0.8,0.2-1.2,0.2c-0.5,0.1-1.1,0.2-1.7,0.3c-0.4,0-0.7,0.1-1.1,0.1c-0.2,0-0.3,0-0.5,0.1l0,0c-0.6,0.5-1.2,1-1.8,1.6
	c-0.5,0.5-1.1,1-1.6,1.6l-0.1,0.1c-0.4,0.8-0.7,1.5-0.9,2.3c-0.2,0.7-0.4,1.4-0.6,2.1c-0.2,0.8-0.3,1.5-0.5,2.3
	c-0.1,0.4-0.2,0.8-0.2,1.3c0,0.1,0,0.3,0,0.4c0,0.2,0,0.4,0.1,0.5c-0.3,0-0.5-0.1-0.8-0.1c-0.7-0.1-1.4-0.1-2.1-0.2
	c-1.5-0.2-3-0.6-4.4-1.2l-0.8-0.4L14.8,12c-0.6-0.1-1.1-0.3-1.6-0.4c-1-0.3-2-0.7-2.9-1.3l0,0C10.1,10.1,10,10,9.9,10l0,0l0,0
	c-0.1,0-0.1-0.1-0.2-0.1C9,9.4,8.5,8.9,8.1,8.5C7.9,8.3,7.6,8.1,7.4,7.9l0,0l-0.1,0C7,7.4,6.6,7.1,6.2,6.7L6.2,6.6
	C5.9,6.4,5.7,6.2,5.5,6C5.4,5.8,5.3,5.6,5.2,5.5c0-0.1-0.1-0.1-0.1-0.2C5,5.2,5,5.2,5,5.1c0,0,0,0,0,0C4.9,5,4.8,4.9,4.7,4.8
	c0-0.1-0.1-0.1-0.1-0.2l0,0C4.2,4.9,3.8,5.2,3.3,5.4c0,0-0.1,0-0.1,0.1C3.1,5.5,3,5.6,2.9,5.6C2.9,5.7,3,5.9,3,6c0,0,0,0.1,0,0.1
	c0,0.2,0,0.3,0,0.5c-0.1,0.3-0.2,0.7-0.3,1C2.5,8.1,2.3,8.7,2.2,9.3c-0.3,1-0.4,2.1-0.4,3.2c0,0.8,0.2,1.6,0.6,2.3
	C2.6,15,2.8,15.3,3,15.5c0.1,0.1,0.2,0.2,0.3,0.3c0.4,0.4,0.8,0.8,1.2,1.1c-0.3,0.1-0.6,0.3-0.8,0.6c-0.5,0.3-0.9,0.6-1.4,0.9
	c-0.5,0.2-0.8,0.5-1.1,1c-0.4,0.7-0.2,1.7,0.6,2.1c0.1,0.1,0.2,0.1,0.4,0.2l0.2,0.1c1.2,0.6,2.3,1.3,3.5,1.9
	c0.2,0.1,0.4,0.2,0.6,0.3c-0.5,0.5-0.6,1.3-0.3,1.9c0.1,0.1,0.2,0.2,0.2,0.3c0.2,0.2,0.4,0.3,0.7,0.4c0.4,0.2,0.8,0.3,1.2,0.5
	c0.1,0.1,0.3,0.2,0.4,0.3c0.2,0.1,0.4,0.2,0.6,0.2c0.2,0.1,0.4,0.2,0.5,0.3c0.6,0.3,1.1,0.6,1.7,0.8c0.5,0.1,1,0.2,1.5,0.3
	c0.6,0.1,1.2,0.1,1.8,0.1c0,0.4,0,0.8,0,1.1c-0.1,0.3-0.2,0.7-0.3,1c-0.3,0.7-0.7,1.4-1.2,2.1c-0.1,0.2-0.3,0.3-0.5,0.5
	c-0.1,0.1-0.3,0.2-0.4,0.3c-0.8,0.3-1.6,0.4-2.4,0.3c-0.4-0.1-0.7-0.1-1.1-0.1c-0.3,0-0.6,0-0.9,0c-0.2-0.2-0.5-0.4-0.7-0.6
	c-0.4-0.2-0.8-0.3-1.2-0.2c-0.8,0.2-1.3,1.1-1.1,1.9c0.1,0.4,0.4,0.7,0.7,0.9c0.6,0.5,1.2,0.9,1.9,1.3c0.7,0.4,1.4,0.7,2.2,0.9
	c0.6,0.2,1.3,0.3,1.9,0.5l0.5,0.1c0.6,0.2,1.2,0.4,1.9,0.6c0.1,0,0.1,0.1,0.2,0.1c0.2,0,0.5,0.1,0.7,0.1c0.2,0,0.4,0,0.6,0
	c0.2,0,0.3,0.1,0.5,0.1c0.6,0.2,1.3,0.3,2,0.4c0.7,0.1,1.5,0.2,2.2,0.3c0.7,0.1,1.3,0.1,2,0.2c0.4,0,0.9,0.1,1.3,0.1
	c0.2,0,0.4,0,0.5,0c0.5,0,0.9,0,1.4-0.1c0.7-0.1,1.4-0.3,2.1-0.5c0.7-0.2,1.3-0.4,2-0.6c0.8-0.2,1.5-0.5,2.3-0.8
	c0.3,0,0.6-0.1,0.9-0.2c0.4-0.1,0.9-0.3,1.3-0.6c0.7-0.5,1.3-1.1,1.7-1.8c0.4-0.6,0.8-1.2,1.1-1.8s0.7-1.2,1-1.9
	c0.7-1.3,1.2-2.6,1.8-4c0.2-0.7,0.4-1.3,0.6-2c0.2-0.8,0.3-1.6,0.4-2.4c0.1-1,0.2-2,0.1-3.1c-0.1-1.1-0.2-2.3-0.4-3.4
	c-0.2-1-0.3-2-0.6-3c0-0.2-0.1-0.4-0.1-0.6c0-0.3,0-0.5,0-0.8c0-0.4,0-0.7,0.1-1.1c0-0.1-0.1-0.1-0.1-0.2c-0.1-0.2-0.1-0.5,0-0.7
	c0-0.1,0-0.1,0.1-0.2c0,0,0,0,0-0.1c0,0,0.1-0.1,0.1-0.1c0,0,0,0,0-0.1c0,0,0.1-0.1,0.1-0.1c0,0,0,0,0,0c0.1-0.1,0.1-0.1,0.2-0.1h0
	c0.1-0.1,0.3-0.1,0.4-0.2l0.1,0c0.1-0.1,0.2-0.1,0.3-0.2l-0.1,0c0.1,0,0.1-0.1,0.2-0.1c0.1,0,0.1-0.1,0.2-0.1c0.1,0,0.1-0.1,0.2-0.1
	c0,0,0.1-0.1,0.1-0.1l0,0l0,0c0.4-0.2,0.8-0.5,1.2-0.7l0.7-0.4L44,8.5c0.5-0.4,1.1-0.7,1.6-1.1c0,0,0,0,0-0.1
	C45.7,7.2,45.8,7,45.9,7c0.4-0.3,0.8-0.6,1.1-1l0-0.4C47,5.3,47,5.1,47,4.8z"/>
</svg>
