<?xml version="1.0" encoding="utf-8"?>
<!-- Generator: Adobe Illustrator 24.2.0, SVG Export Plug-In . SVG Version: 6.00 Build 0)  -->
<svg version="1.1" id="グループ_324" xmlns="http://www.w3.org/2000/svg" xmlns:xlink="http://www.w3.org/1999/xlink" x="0px"
	 y="0px" viewBox="0 0 44 46" style="enable-background:new 0 0 44 46;" xml:space="preserve">
<path id="パス_509" d="M43.2,38.1c0-0.7-0.1-1.5-0.1-2.2s0-1.4,0-2.1c0.1-3.1,0-6.2-0.3-9.3c-0.1-1.2-0.3-2.5-0.5-3.7
	c0-0.1,0-0.2,0-0.2c-0.1-1.1-0.2-2.2-0.4-3.2c-0.2-2.5-0.4-5-0.8-7.4c-0.1-0.8-0.3-1.6-0.5-2.4c-0.2-0.8-0.4-1.5-0.6-2.3
	c-0.1-0.3-0.2-0.6-0.3-0.9c0-0.2-0.1-0.5-0.1-0.7c0-0.4-0.1-0.9-0.3-1.3c-0.2-0.2-0.4-0.5-0.6-0.6c-0.2-0.1-0.4-0.2-0.6-0.3
	c-0.3-0.1-0.6-0.1-0.9-0.1c-0.1,0-0.2,0-0.4,0c-0.4,0-0.8-0.1-1.2-0.1c-0.1,0-0.2,0-0.3,0c-0.6,0-1.3,0.1-1.9,0.1
	c-0.8,0.1-1.7,0.1-2.5,0.2c-0.9,0.1-1.8,0.2-2.7,0.4c-1.4,0.2-2.8,0.4-4.3,0.5c-0.8,0.1-1.5,0.1-2.3,0.1s-1.5,0-2.3,0.1
	c-1.5,0.1-3,0.2-4.5,0.3c-0.8,0.1-1.6,0.2-2.5,0.2c-0.7,0-1.5,0.1-2.2,0.1C9.2,3,8.3,3.1,7.4,3.2c-1.1,0-2.1,0.1-3.2,0.2l0.4-0.1
	c-0.4,0-0.7,0.1-1.1,0.2c-0.2,0-0.3,0.1-0.5,0.1l-0.3,0c0,0.1,0,0.1,0,0.2c0,0.5,0,0.9,0,1.4c0,0.4,0,0.7,0,1.1c0,0,0,0.1,0,0.1
	C3,6.5,3,6.6,3,6.7c0.2,0,0.5-0.1,0.7-0.1c0.3,0,0.6-0.1,0.8-0.1c0.1,0,0.3,0,0.4-0.1c0.4,0,0.8-0.1,1.2-0.1
	c0.2,0.1,0.4,0.1,0.6,0.1c0.8,0,1.6,0,2.3,0c0.2,0,0.5,0,0.7,0c0.5,0,1,0,1.6,0c1.6-0.1,3.2-0.1,4.9-0.3C17.8,6,19.4,5.9,21,5.9
	c1.3,0,2.6,0,3.8,0c0.3,0,0.6,0,0.8,0c2.1,0,4.3-0.1,6.4-0.2c1-0.1,2-0.1,3-0.1c0.4,0,0.8,0,1.3,0c0.1,0,0.3,0,0.4,0
	c0.1,0.5,0.2,1,0.3,1.5c0.1,0.6,0.3,1.2,0.5,1.8c0.1,0.6,0.3,1.2,0.3,1.7c0.2,1.5,0.4,3.1,0.6,4.6c0.1,0.8,0.2,1.6,0.3,2.3l0,0.1
	c0.1,1.1,0.2,2.2,0.4,3.4l0,0c0,0.2,0,0.4,0,0.7c0,0.9,0,1.7,0,2.6c-0.1,1.5-0.2,3.1-0.3,4.6c-0.1,1.7-0.1,3.4-0.2,5.1
	c-0.1,1.6,0,3.1-0.2,4.7c-0.5,0.1-1.1,0.2-1.6,0.3c-0.8,0.1-1.6,0.2-2.4,0.3s-1.6,0.2-2.3,0.3c0,0,0,0,0.1,0
	c-0.9,0.1-1.8,0.3-2.7,0.4c-0.7,0.1-1.4,0.2-2.1,0.2c-0.7,0-1.5,0-2.2,0c-1.5,0-3.1,0.1-4.6,0.1c-1.6,0-3.2,0.1-4.8,0.1
	c-1.6,0-3.2,0-4.7-0.1c-0.7,0-1.3-0.1-2-0.1c-0.6-0.1-1.2-0.2-1.7-0.4c-0.1-0.3-0.2-0.6-0.3-0.9c-0.1-0.4-0.2-0.7-0.3-1.1
	c-0.1-0.3-0.1-0.6-0.2-0.9c-0.2-1.4-0.3-2.7-0.4-4.1c-0.2-1.5-0.3-2.9-0.3-4.4c0-0.8,0-1.6-0.1-2.3c0-0.8-0.1-1.5-0.1-2.3
	c0-0.8,0-1.6-0.1-2.4c0-0.8-0.1-1.5-0.2-2.3c-0.2-1.5-0.4-3.1-0.7-4.6c-0.1-0.8-0.3-1.6-0.5-2.4c0-0.1,0-0.1,0-0.2c0-0.3,0-0.7,0-1
	l-0.1-0.1C4,11,3.9,10.8,3.8,10.7v0c0,0,0,0,0,0c-0.2-0.2-0.4-0.4-0.5-0.5c-0.2,0.1-0.4,0.1-0.6,0.2c-0.2,0.1-0.5,0.1-0.7,0.2
	c-0.3,0.1-0.7,0.2-1,0.3c0,0.1,0,0.2,0,0.3c0,0,0,0,0-0.1c0.1,1.1,0.2,2.1,0.3,3.2c0,1,0,2,0,3v3.4c0,0.6,0,1.1,0,1.7
	c0,0.5,0.1,1,0.1,1.5c0.1,0.6,0.2,1.2,0.3,1.9c0,1,0,2.1,0,3.1c0,1.5,0.1,3,0.3,4.6c0,0.5,0.1,1,0.2,1.4C2,35,2,35.3,2.1,35.6
	c0-0.1,0-0.3-0.1-0.4c0.1,0.7,0.1,1.4,0.2,2.1s0.1,1.4,0.2,2.1s0.1,1.4,0.2,2.1c0,0.3,0.1,0.5,0.1,0.8c0,0.2,0.1,0.4,0.1,0.6
	c0.1,0.3,0.3,0.6,0.5,0.9c0.4,0.4,1,0.7,1.6,0.8c0.8,0.2,1.6,0.3,2.4,0.4c0.6,0.1,1.3,0.1,1.9,0.1c1.5-0.1,2.9-0.4,4.4-0.6
	c1.4-0.2,2.8-0.4,4.2-0.4c1.1,0,2.1,0,3.2,0c0.4,0,0.9,0,1.3,0c1.6,0,3.2,0,4.8,0c0.8,0,1.5,0,2.3-0.1c0.8-0.1,1.7-0.2,2.5-0.4
	c0.9-0.2,1.7-0.3,2.6-0.4c0.8-0.1,1.6-0.2,2.5-0.3c1-0.1,1.9-0.3,2.9-0.4c0.3,0,0.6-0.1,0.9-0.1l-0.1,0c0.3,0,0.6-0.1,1-0.1
	c0.4-0.1,0.8-0.2,1.1-0.5c0.3-0.4,0.5-0.9,0.5-1.4c0-0.3,0-0.6,0-0.9C43.2,38.8,43.2,38.4,43.2,38.1z"/>
<path id="パス_510" d="M30,12.4L30,12.4c0.2,0.4,0.5,0.7,0.9,0.9c0.3,0.2,0.7,0.3,1.1,0.3l0,0c0.2,0.2,0.4,0.3,0.7,0.4
	c0.4,0.1,0.8,0,1.2-0.2c0.3-0.1,0.5-0.3,0.6-0.6c0.3-0.4,0.4-1,0.2-1.5l0-0.1c0-0.2-0.1-0.4-0.2-0.7c-0.2-0.7-0.6-1.3-1.1-1.8
	C33.3,9,33.1,8.9,33,8.8c-0.4-0.2-0.8-0.3-1.2-0.3h0c-0.7,0-1.4,0.3-1.9,0.9c-0.6,0.5-0.8,1.3-0.6,2.1C29.4,11.8,29.7,12.1,30,12.4z
	"/>
<path id="パス_511" d="M26.3,14.3c-1.1-0.2-2.1-0.4-3.2-0.5c-0.1,0-0.1,0-0.2,0c-0.2,0-0.4,0-0.6,0.1c-0.2,0.1-0.4,0.2-0.6,0.3
	c-0.4,0.2-0.7,0.5-1.1,0.7c-0.2,0.2-0.5,0.4-0.7,0.6c-0.2,0-0.3,0.1-0.5,0.1c-0.7,0.1-1.4,0.3-2,0.6c-0.4,0.2-0.8,0.5-1.2,0.8
	c-0.1,0.1-0.3,0.2-0.4,0.3c-0.2,0.2-0.4,0.3-0.5,0.5c-0.3,0.3-0.6,0.7-0.8,1c-0.4,0.6-0.8,1.3-1.1,2c-0.4,0.8-0.6,1.6-0.7,2.4
	c-0.1,0.6-0.1,1.2,0,1.8c0.1,0.6,0.3,1.1,0.5,1.6c0.1,0.3,0.3,0.5,0.5,0.8c0.2,0.3,0.4,0.6,0.7,0.9c0.4,0.5,0.9,0.9,1.3,1.2
	c0.4,0.3,0.8,0.5,1.2,0.7c0.4,0.2,0.9,0.4,1.4,0.6c0.3,0.1,0.5,0.2,0.8,0.2c0.9,0.5,1.9,0.7,2.9,0.5c0.8,0,1.6-0.1,2.3-0.2
	c0.3,0,0.7-0.1,1-0.2c0.6-0.2,1.1-0.5,1.6-0.9c0.1-0.1,0.2-0.3,0.3-0.4h0c0.1,0,0.2-0.1,0.3-0.1l0.3-0.1c0.5-0.2,1-0.4,1.4-0.5
	c0.4-0.1,0.7-0.3,1.1-0.4c0.3-0.2,0.6-0.4,0.9-0.6c0.6-0.6,1-1.5,0.9-2.4c0-0.7,0-1.3,0-2c0-0.8-0.1-1.7-0.4-2.5
	c-0.2-0.7-0.5-1.3-0.8-1.9c-0.3-0.6-0.6-1.1-0.9-1.7c-0.4-0.7-0.9-1.3-1.4-1.9C28.1,15,27.3,14.5,26.3,14.3z M26.2,17.5
	c0.2,0.2,0.4,0.4,0.6,0.6c0.2,0.3,0.5,0.7,0.7,1C27,18.5,26.6,18,26,17.6c-0.1-0.1-0.2-0.2-0.4-0.3c0.1,0,0.2,0.1,0.3,0.1
	C26,17.4,26.1,17.4,26.2,17.5L26.2,17.5z M25,26.7c-0.2,0.2-0.5,0.4-0.8,0.6c-0.3,0.2-0.6,0.3-0.9,0.4c-0.3,0.1-0.7,0.1-1,0.1
	c-0.2,0-0.3,0.1-0.5,0.1s-0.3,0-0.5,0c-0.6-0.2-1.3-0.4-1.9-0.6c-0.5-0.3-1.1-0.5-1.6-0.9c-0.1-0.1-0.2-0.2-0.3-0.3
	c0-0.1-0.1-0.2-0.1-0.2c-0.2-0.4-0.3-0.9-0.3-1.4c0-0.3,0-0.7,0-1c0.1-0.4,0.2-0.8,0.3-1.2c0.2-0.5,0.5-1,0.8-1.5
	c0.1-0.1,0.2-0.3,0.3-0.4c0.1-0.2,0.2-0.4,0.4-0.5c0.3,0.1,0.6,0.1,0.8,0c0.4-0.1,0.7-0.4,0.9-0.7c0.1-0.2,0.2-0.3,0.3-0.5
	c0.1-0.1,0.2-0.2,0.3-0.3c0.1,0,0.1,0,0.1,0c0.1,0,0.2,0,0.3,0c0.5,0,0.9,0.1,1.4,0.3c0.3,0.1,0.6,0.2,0.9,0.4
	c0.1,0.1,0.2,0.1,0.3,0.2c0.3,0.2,0.6,0.4,0.8,0.7c0.5,0.5,0.9,1.2,1,1.9c0.1,0.4,0.1,0.8,0.2,1.3c0,0.6-0.1,1.2-0.3,1.8
	C25.9,25.6,25.5,26.2,25,26.7L25,26.7z M29.2,24.5c0,0.5,0,1,0,1.4l0,0l0,0c0,0-0.1,0.1-0.1,0.1s-0.1,0-0.1,0c0-0.2,0.1-0.4,0.1-0.6
	c0.1-0.7,0.1-1.4,0-2c0-0.4-0.1-0.9-0.3-1.3c-0.1-0.2-0.1-0.4-0.2-0.6c-0.1-0.5-0.2-0.9-0.4-1.4c0.2,0.4,0.4,0.7,0.6,1.1
	c0.2,0.5,0.4,1,0.5,1.5C29.2,23.4,29.2,24,29.2,24.5L29.2,24.5z"/>
</svg>
