<?xml version="1.0" encoding="utf-8"?>
<!-- Generator: Adobe Illustrator 24.2.0, SVG Export Plug-In . SVG Version: 6.00 Build 0)  -->
<svg version="1.1" id="コンポーネント_57_33"
	 xmlns="http://www.w3.org/2000/svg" xmlns:xlink="http://www.w3.org/1999/xlink" x="0px" y="0px" viewBox="0 0 212 190"
	 style="enable-background:new 0 0 212 190;" xml:space="preserve">
<style type="text/css">
	.st0{fill:#1A1311;}
</style>
<g id="グループ_78" transform="translate(-355.848 -244.799)">
	<g id="グループ_1" transform="translate(399.733 244.799)">
		<path id="パス_1" class="st0" d="M111.9,96.2c-0.8-7.3,2.3-10.5,4.4-23.3C119,55.9,111,45.4,104.7,39
			C96.4,30.5,85.7,27,78.1,24.4c-8.6-2.9-13.2-5.7-15.2-11C60,5.5,61,1.4,58.5,1.4c-2.2,0-1.1,7.7-5.2,13.5
			c-7.7,10.8-28.3,10.4-42,29.5C-2.1,62.9,5,77.3,7.2,87.9c1.3,6.4,1.7,9.3,0.7,13.2c-0.9,3.6-3.3,6.8-6.5,8.7
			c4.9,5.4,15,4.7,19.4,1.8s8.4-9.7,7.3-21.6c10.6,1.3,21.3,1.7,31.9,1.4c16.7-0.6,25.8-1.1,31.8-2.8c-0.6,14.6,2.2,18.5,8.4,21.5
			c6.6,3.2,14.5,0,18.7-3.8C116.2,105.1,112.6,102.8,111.9,96.2z"/>
		<path id="パス_2" class="st0" d="M39.4,96.7c-2,0-3.7,1.6-3.7,3.7s1.6,3.7,3.7,3.7c2,0,3.7-1.6,3.7-3.7
			C43.1,98.3,41.4,96.7,39.4,96.7z"/>
		<circle id="楕円形_1" class="st0" cx="81" cy="99.9" r="3.7"/>
		<path id="パス_3" class="st0" d="M64.9,107.8c-1.3-0.5-2.7-0.7-4.2-0.8c-0.8,0-1.7,0.1-2.5,0.3c-1.9,0.5-3.4,1.8-4.1,3.6
			c-1,2.4,0,5.2,2.2,6.5l0.1,0.1l-0.1,0.1c-0.4,0.3-0.8,0.6-1.1,1c-0.9,1.1-1.3,2.6-1,4c0.3,1.4,1.1,2.7,2.4,3.5
			c1.5,0.7,3.1,1.1,4.7,1.2c1.2,0.1,2.5,0,3.7-0.4l0,0v0l0-2.6c0,0,0,0-0.1,0c-3.2,0.7-4.8,0.6-6.4-0.2c-0.7-0.4-1.2-1-1.4-1.8
			c-0.2-0.8-0.1-1.7,0.4-2.3c0.1-0.1,0.1-0.2,0.2-0.2c0.4-0.7,1-1.5,3.3-1.4c0.5,0,0.8,0,1.2,0c0.2,0,0.4,0,0.6,0c0,0,0.1,0,0.1,0
			c0.1-0.1,0.1-0.2,0-0.2v-0.3c0-0.2,0-0.2,0-0.4l0-1.2c0,0,0-0.1-0.1-0.1l-0.4,0c-1.4,0-2.7-0.2-4-0.7c-1.3-0.6-2-2.1-1.4-3.5
			c0,0,0-0.1,0-0.1c0.5-1,1.4-1.6,2.4-1.8c1.4-0.2,2.8-0.1,4.2,0.2c0.1,0,0.8,0.1,1,0.1l0.2-1.3C64.9,109,64.9,108,64.9,107.8z"/>
		<path id="パス_4" class="st0" d="M65.1,107.7L65.1,107.7L65.1,107.7c-2.7-0.9-4.2-1.2-6.9-0.6c-1.9,0.5-3.5,1.9-4.2,3.7
			c-1,2.5,0,5.2,2.2,6.6c-0.4,0.3-0.7,0.6-1,1c-0.9,1.2-1.3,2.7-1,4.2c0.3,1.5,1.2,2.8,2.5,3.7c1.5,0.8,3.1,1.2,4.8,1.2
			c0.4,0,0.8,0,1,0c0.9,0,1.8-0.2,2.7-0.4c0.1,0,0.1-0.1,0.1-0.1c0-0.1,0-0.1,0-0.2l0-2.6l0,0c-0.1-0.1-0.2-0.1-0.3-0.1
			c-3.2,0.7-4.7,0.6-6.3-0.1c-0.6-0.4-1.1-1-1.3-1.7c-0.2-0.7-0.1-1.5,0.4-2.2c0.1-0.1,0.1-0.2,0.2-0.2c0.4-0.7,0.9-1.4,3.1-1.3
			c0.5,0,0.8,0,1.2,0.1c0.2,0,0.4,0,0.6,0c0.1,0,0.2,0,0.3-0.1c0.1-0.1,0.1-0.3,0.1-0.4v-0.3c0-0.2,0-0.2,0-0.4l0-1.2
			c0-0.1-0.1-0.3-0.3-0.3c-0.1,0-0.3,0-0.4,0c-1.3,0-2.7-0.2-3.9-0.7c-1.2-0.5-1.8-2-1.3-3.2c0,0,0-0.1,0-0.1
			c0.4-0.9,1.3-1.5,2.2-1.7c1.4-0.2,2.8-0.1,4.1,0.2c1.1,0.2,1.2,0.1,1.2,0.1l0,0l0.2-1.4l0,0C65.1,108.7,65.1,108.2,65.1,107.7z
			 M63.8,110.3c-1.4-0.3-2.8-0.4-4.2-0.2c-1.1,0.2-2,0.8-2.4,1.8c-0.6,1.3-0.1,2.9,1.2,3.5c0,0,0.1,0,0.1,0c1.3,0.5,2.6,0.7,4,0.7
			l0.4,0c0,0,0.1,0,0.1,0.1l0,1.2c0,0.1,0,0.2,0,0.4v0.3c0,0.1,0,0.2,0,0.2c0,0-0.1,0-0.1,0c-0.2,0-0.4,0-0.6,0c-0.3,0-0.7,0-1.2,0
			c-2.3-0.1-2.9,0.7-3.3,1.4c-0.1,0.1-0.1,0.2-0.2,0.2c-0.5,0.7-0.6,1.5-0.4,2.3c0.2,0.8,0.7,1.4,1.4,1.8c1.6,0.8,3.2,0.9,6.4,0.2
			c0,0,0,0,0.1,0l0,2.6v0l0,0c-1.2,0.4-2.4,0.5-3.7,0.4c-1.6,0-3.2-0.4-4.7-1.2c-1.2-0.8-2.1-2.1-2.4-3.5c-0.3-1.4,0.1-2.9,1-4
			c0.3-0.4,0.7-0.7,1.1-1l0.1-0.1l-0.1-0.1c-2.2-1.3-3.2-4.1-2.2-6.5c0.7-1.8,2.2-3.1,4.1-3.6c0.8-0.2,1.7-0.3,2.5-0.3
			c1.4,0.1,2.8,0.3,4.2,0.8c0,0.2,0,1.2,0,1.4l-0.2,1.3C64.5,110.5,63.9,110.4,63.8,110.3L63.8,110.3z"/>
		<path id="パス_5" class="st0" d="M78.8,120.2c-0.3,0.1-0.6,0.3-0.8,0.5c-0.2,0.2-0.4,0.2-0.6,0.2c-0.3-0.1-0.6,0-0.9,0
			c-0.8,0.2-1.3,1-1.1,1.8c0,0.1,0.1,0.2,0.1,0.3c1.3,1.2,3.3,1.1,4.5-0.1c0.4-0.4,0.7-1,0.8-1.6c0-0.1,0-0.2-0.1-0.3
			C80.5,120.2,79.6,119.8,78.8,120.2z"/>
	</g>
	<g id="グループ_3" transform="translate(355.848 384.152)">
		<g id="グループ_2" transform="translate(24.55 42.562)">
			<path id="パス_6" class="st0" d="M2.3,1.4L4,3.5l1.7-2.1h0.9v5.2h-1V3h0L4.1,4.8H3.9L2.4,3h0v3.7h-1V1.4L2.3,1.4z"/>
			<path id="パス_7" class="st0" d="M11.3,1.4c0.5,0,1,0.1,1.5,0.3c1.3,0.7,1.8,2.3,1.1,3.5c-0.2,0.5-0.6,0.9-1.1,1.1
				c-0.9,0.5-2,0.5-2.9,0C9,5.9,8.4,5,8.5,4c0-0.5,0.1-0.9,0.4-1.3c0.2-0.4,0.6-0.8,1-1C10.3,1.5,10.8,1.4,11.3,1.4z M9.5,4
				c0,0.3,0.1,0.6,0.2,0.9c0.2,0.3,0.4,0.5,0.7,0.6c0.3,0.2,0.6,0.2,0.9,0.2c0.5,0,1-0.2,1.3-0.5C13,5,13.2,4.5,13.2,4
				c0-0.3-0.1-0.6-0.2-0.9c-0.2-0.3-0.4-0.5-0.7-0.6c-0.3-0.2-0.6-0.2-1-0.2c-0.3,0-0.7,0.1-1,0.2c-0.3,0.1-0.5,0.4-0.7,0.6
				C9.6,3.4,9.5,3.7,9.5,4z"/>
			<path id="パス_8" class="st0" d="M16.9,1.4l1.7,2.1l1.7-2.1h0.9v5.2h-1V3h0l-1.5,1.8h-0.1L17.1,3h0v3.7h-1V1.4L16.9,1.4z"/>
			<path id="パス_9" class="st0" d="M24.5,1.4l1.7,2.1l1.7-2.1h0.9v5.2h-1V3h0l-1.5,1.8h-0.1L24.6,3h0v3.7h-1V1.4L24.5,1.4z"/>
			<path id="パス_10" class="st0" d="M31.5,1.4l1.3,1.7L34,1.4h1.2l-2,2.6v2.6h-1V4.1l-2-2.6L31.5,1.4z"/>
			<path id="パス_11" class="st0" d="M37.2,1.4c0.2,0,0.4,0.1,0.5,0.2c0.1,0.2,0.2,0.4,0.2,0.6c0,0.7-0.5,1.2-1.1,1.3V3.3
				c0.2-0.2,0.4-0.5,0.4-0.8l0-0.1c-0.3,0-0.4-0.2-0.4-0.5c0,0,0,0,0,0c0-0.1,0.1-0.3,0.2-0.4C36.9,1.4,37.1,1.4,37.2,1.4z"/>
			<path id="パス_12" class="st0" d="M41.4,1.4c0.5,0,1,0.1,1.5,0.4v0.9c-0.4-0.3-0.9-0.5-1.4-0.5c-0.2,0-0.4,0-0.6,0.1
				c-0.1,0.1-0.2,0.2-0.2,0.4c0,0.2,0.1,0.4,0.4,0.5c0.1,0,0.4,0.2,0.9,0.4c0.4,0.1,0.7,0.4,0.9,0.7c0.2,0.3,0.3,0.6,0.3,0.9
				c0,0.4-0.2,0.8-0.5,1.1c-0.4,0.3-0.8,0.4-1.3,0.4c-0.3,0-0.6,0-0.9-0.1c-0.3-0.1-0.6-0.2-0.8-0.4v-1c0.4,0.4,1,0.7,1.6,0.7
				c0.2,0,0.4,0,0.6-0.2c0.1-0.1,0.2-0.3,0.2-0.4c0-0.3-0.2-0.5-0.4-0.6c-0.2-0.1-0.5-0.3-0.8-0.4c-0.4-0.1-0.7-0.4-0.9-0.7
				c-0.2-0.2-0.3-0.6-0.3-0.9c0-0.4,0.2-0.8,0.5-1C40.5,1.5,40.9,1.4,41.4,1.4z"/>
			<path id="パス_13" class="st0" d="M49.7,1.4v2.2h2.7V1.4h1v5.2h-1V4.4h-2.7v2.2h-1V1.4H49.7z"/>
			<path id="パス_14" class="st0" d="M58.2,1.4c0.5,0,1,0.1,1.5,0.3C61,2.4,61.5,4,60.8,5.3c-0.2,0.5-0.6,0.9-1.1,1.1
				c-0.9,0.5-2,0.5-2.9,0c-1.3-0.7-1.8-2.3-1.1-3.5c0,0,0-0.1,0.1-0.1c0.2-0.4,0.6-0.8,1-1C57.2,1.5,57.7,1.4,58.2,1.4z M56.4,4
				c0,0.3,0.1,0.6,0.2,0.9c0.2,0.3,0.4,0.5,0.7,0.6c0.3,0.2,0.6,0.2,0.9,0.2c0.5,0,1-0.2,1.3-0.5C59.9,5,60.1,4.5,60.1,4
				c0-0.3-0.1-0.6-0.2-0.9c-0.2-0.3-0.4-0.5-0.7-0.6c-0.3-0.2-0.6-0.2-1-0.2c-0.3,0-0.7,0.1-1,0.2c-0.3,0.1-0.5,0.4-0.7,0.6
				C56.5,3.4,56.4,3.7,56.4,4z"/>
			<path id="パス_15" class="st0" d="M63.7,1.4l1.7,2.1l1.7-2.1H68v5.2h-1V3h0l-1.5,1.8h-0.1L63.8,3h0v3.7h-1V1.4L63.7,1.4z"/>
			<path id="パス_16" class="st0" d="M73.8,1.4v0.8h-2.4v1.4h2.3v0.8h-2.3v1.5h2.4v0.8h-3.4V1.4H73.8z"/>
			<path id="パス_17" class="st0" d="M77,1.4l1.7,2.1l1.7-2.1h0.9v5.2h-1V3h0l-1.5,1.8h-0.1L77.2,3h0v3.7h-1V1.4L77,1.4z"/>
			<path id="パス_18" class="st0" d="M86.3,1.4l2.3,5.2h-1.1L87,5.4h-2.3l-0.5,1.3h-1.1l2.1-5.2H86.3z M84.9,4.6h1.7l-0.9-2.1
				L84.9,4.6z"/>
			<path id="パス_19" class="st0" d="M92.1,1.4c0.5,0,1,0.1,1.4,0.3c0.4,0.2,0.8,0.5,1,0.9c0.2,0.4,0.4,0.9,0.3,1.4
				c0,0.5-0.1,0.9-0.4,1.4c-0.2,0.4-0.6,0.7-1,0.9c-0.5,0.2-1,0.3-1.5,0.3h-2.1V1.4H92.1z M92,5.9c0.5,0,1-0.2,1.3-0.5
				c0.7-0.8,0.7-1.9,0-2.6C93,2.4,92.5,2.2,92,2.2h-1v3.6H92z"/>
			<path id="パス_20" class="st0" d="M100,1.4v0.8h-2.4v1.4h2.3v0.8h-2.3v1.5h2.4v0.8h-3.4V1.4H100z"/>
			<path id="パス_21" class="st0" d="M108,1.4c0.5,0,1,0.1,1.4,0.3c0.4,0.2,0.8,0.5,1,0.9c0.2,0.4,0.4,0.9,0.4,1.4
				c0,0.5-0.1,0.9-0.4,1.4c-0.2,0.4-0.6,0.7-1,0.9c-0.5,0.2-1,0.3-1.5,0.3h-2.1V1.4H108z M107.9,5.9c0.5,0,1-0.2,1.3-0.5
				c0.7-0.8,0.7-1.9,0-2.6c-0.4-0.3-0.9-0.5-1.4-0.5h-1v3.6H107.9z"/>
			<path id="パス_22" class="st0" d="M115.1,1.4c0.5,0,1,0.1,1.5,0.3c1.3,0.7,1.8,2.3,1.1,3.5c-0.2,0.5-0.6,0.9-1.1,1.1
				c-0.9,0.5-2,0.5-2.9,0c-1.3-0.7-1.8-2.3-1.1-3.6c0.2-0.5,0.6-0.8,1.1-1.1C114,1.5,114.5,1.4,115.1,1.4z M113.2,4
				c0,0.3,0.1,0.6,0.2,0.9c0.2,0.3,0.4,0.5,0.7,0.6c0.3,0.2,0.6,0.2,0.9,0.2c0.5,0,1-0.2,1.3-0.5c0.3-0.3,0.5-0.8,0.5-1.3
				c0-0.3-0.1-0.6-0.2-0.9c-0.2-0.3-0.4-0.5-0.7-0.6c-0.3-0.2-0.6-0.2-1-0.2c-0.3,0-0.7,0.1-1,0.2c-0.3,0.1-0.5,0.4-0.7,0.6
				C113.3,3.4,113.2,3.7,113.2,4z"/>
			<path id="パス_23" class="st0" d="M120.5,1.4v3c0,0.3,0,0.5,0.1,0.7c0.1,0.2,0.3,0.4,0.5,0.5c0.2,0.1,0.5,0.2,0.7,0.2
				c0.3,0,0.5,0,0.8-0.2c0.2-0.1,0.4-0.3,0.5-0.5c0.1-0.3,0.2-0.5,0.1-0.8v-3h1v3.1c0,0.6-0.2,1.2-0.6,1.6c-0.5,0.4-1.1,0.6-1.8,0.6
				c-0.4,0-0.9-0.1-1.3-0.3c-0.3-0.2-0.6-0.4-0.8-0.7c-0.2-0.3-0.3-0.7-0.3-1.1V1.4L120.5,1.4z"/>
			<path id="パス_24" class="st0" d="M128.9,1.4c0.7,0,1.3,0.1,1.9,0.4v0.9c-0.6-0.3-1.2-0.5-1.9-0.5c-0.4,0-0.7,0.1-1,0.2
				c-0.3,0.1-0.5,0.4-0.7,0.7c-0.2,0.3-0.2,0.6-0.2,1c0,0.5,0.2,1,0.5,1.3c0.4,0.3,0.9,0.5,1.4,0.5c0.2,0,0.3,0,0.5,0
				c0.2,0,0.4-0.1,0.5-0.2V4.8h-0.9V4h1.9v2.1c-0.3,0.2-0.6,0.3-0.9,0.4c-0.4,0.1-0.7,0.2-1.1,0.1c-0.5,0-1-0.1-1.5-0.3
				C126.5,5.9,126,5,126,4.1c0-0.5,0.1-1,0.4-1.4c0.3-0.4,0.6-0.7,1.1-1C127.9,1.5,128.4,1.4,128.9,1.4z"/>
			<path id="パス_25" class="st0" d="M134.1,1.4v2.2h2.7V1.4h1v5.2h-1V4.4h-2.7v2.2h-1V1.4H134.1z"/>
			<path id="パス_26" class="st0" d="M140.9,1.4l3.1,3.6V1.4h1v5.2h-0.9L141,3v3.7h-1V1.4H140.9z"/>
			<path id="パス_27" class="st0" d="M148,1.4v3c0,0.3,0,0.5,0.1,0.7c0.1,0.2,0.3,0.4,0.5,0.5c0.2,0.1,0.5,0.2,0.7,0.2
				c0.3,0,0.5,0,0.8-0.2c0.2-0.1,0.4-0.3,0.5-0.5c0.1-0.3,0.2-0.5,0.1-0.8v-3h1v3.1c0,0.6-0.2,1.2-0.6,1.6c-0.5,0.4-1.1,0.6-1.8,0.6
				c-0.4,0-0.9-0.1-1.3-0.3c-0.3-0.2-0.6-0.4-0.8-0.7C147,5.4,146.9,5,147,4.6V1.4L148,1.4z"/>
			<path id="パス_28" class="st0" d="M158,1.4v0.8h-1.8v4.4h-1V2.2h-1.8V1.4H158z"/>
		</g>
		<path id="パス_29" class="st0" d="M20.5,6.1c-0.1,0-0.2,0-0.3,0c-1,0.1-2,0.2-3,0.1c-1.4,0.1-2.7,0.2-4.1,0.3c0-0.1,0-0.3,0-0.4
			c-0.2-1.4-0.3-2.7-0.3-4.1c0-0.2,0-0.4-0.1-0.6c-0.4,0-0.8,0-1.2,0c-0.8,0-1.5,0.1-2.3,0.2C9.1,1.8,9,2.1,9.1,2.3
			c0.1,1.5,0.3,2.9,0.4,4.4C7.9,6.8,6.4,6.9,4.8,7c0,0-0.1,0-0.1,0.1C3.7,7.3,2.6,7.5,1.5,7.5c0,0-0.1,0.1-0.1,0.1
			c0.2,2.2,0.4,4.4,0.5,6.6c1.4,0.1,2.7,0.1,4.1,0.2C6,13.8,6,13.1,6,12.5c-0.1-0.8-0.2-1.6-0.3-2.4c4.6,0,9.1,0,13.7-0.1
			c-2.1,8-4.5,15.8-7.3,23.6c-0.1,0.3-0.1,0.6,0.1,0.9c1.2,0.3,2.4,0.5,3.5,0.7c0.2-0.2,0.3-0.4,0.4-0.6c2.1-7.2,4.4-14.3,6.6-21.5
			C23,11,23.6,9,24,6.9l0-0.1c0-0.1-0.1-0.3-0.1-0.4C22.8,6.3,21.7,6.2,20.5,6.1z"/>
		<path id="パス_30" class="st0" d="M55.4,6.6c-0.5,0-1-0.1-1.5-0.1c-0.8,0-1.7,0.1-2.5,0.1c-5,0.4-10,0.9-15.1,1.5
			c-0.8,0.2-1.7,0.4-2.5,0.5c-0.1,0.1-0.2,0.2-0.3,0.3c0,0,0,0,0,0c0.1,0.8,0.3,1.6,0.4,2.4c0.2,0.1,0.5,0.2,0.8,0.1
			c5.6-0.8,11.2-1.3,16.8-1.6c-3.4,5.7-6.6,11.4-9.4,17.4c-0.1,0.2-0.1,0.4-0.1,0.6c0.4,0.4,0.7,0.8,1.1,1.2
			c0.2,0.1,0.4,0.2,0.6,0.3c0.1,0,0.2,0,0.2-0.1c0.3-0.3,0.6-0.7,0.8-1c0.4-0.6,0.8-1.1,1.2-1.7c2.6-4.5,5.2-9.1,7.6-13.8
			c0.6-1.5,1.2-3,2-4.4c0.1-0.4,0.2-0.8,0.3-1.2c-0.1-0.1-0.1-0.3-0.2-0.4C55.6,6.7,55.5,6.6,55.4,6.6z"/>
		<path id="パス_31" class="st0" d="M79.6,6.9c-0.5-0.1-0.9-0.2-1.4-0.2l-0.4,0c-0.6,0-1.3-0.1-1.9-0.2c-3.3-0.1-6.7,0.1-10,0.4
			c-0.3,0-0.6,0-0.9,0c-0.3,0-0.6,0.1-0.9,0.3c0,0.7,0.1,1.5,0.1,2.2c0.1,0.1,0.3,0.2,0.5,0.2c0.2,0.1,0.5,0.2,0.7,0.1
			c0.2,0,0.3,0,0.5,0c3.5,0.1,6.9,0.1,10.4,0.1c-0.1,0.1-0.1,0.3-0.2,0.4c-4.6,7.9-8.8,15.9-12.7,24.1c-0.1,0.1-0.1,0.3-0.1,0.4
			c0,0,0.1,0.1,0.1,0.1c0.9,0.4,1.7,0.8,2.5,1.3c0,0,0.1,0,0.1,0c0.1,0,0.1,0,0.2,0c0.1-0.1,0.2-0.2,0.2-0.3
			c4.1-8,8.9-16.1,12.3-24.5c0.2-0.3,0.4-0.7,0.6-1c0-0.1,0.1-0.2,0.1-0.3c0.2-0.5,0.4-0.9,0.5-1.4c0.1-0.4,0.2-0.7,0.3-1.1
			C80.2,7.4,80,7.1,79.6,6.9z"/>
		<path id="パス_32" class="st0" d="M108.8,15.1c-2.4-0.1-4.7-0.3-7.1-0.3c0-2.4,0-4.8,0-7.2c0-0.5-0.2-0.9-0.7-1.1
			c-0.8-0.1-1.7-0.2-2.5-0.3c0,0.1-0.1,0.1-0.1,0.2l0,0C98.1,7.2,98,8.1,98.2,9c0,0.2,0,0.5-0.1,0.7c0,5.7-0.1,11.4-0.5,17.2
			c0,0.1,0,0.2,0.1,0.4c1.1-0.3,2.2-0.5,3.3-0.8c0.2-0.2,0.3-0.4,0.3-0.6c0-0.3,0.1-0.7,0.1-1c0-0.9,0.1-1.8,0.1-2.7
			c-0.1-0.4-0.1-0.8,0-1.1c0-0.8,0-1.6,0.1-2.3c3.1,0.1,6.2,0.2,9.4,0.3c0.3,0,0.6-0.1,0.9-0.3c0,0,0-0.1,0-0.1v0l0,0
			c0.1-0.9,0.2-1.8,0.2-2.6c-0.1-0.1-0.2-0.2-0.3-0.3C110.7,15.4,109.7,15.3,108.8,15.1z"/>
		<path id="パス_33" class="st0" d="M113.3,5.8c0-0.3-0.1-0.6-0.2-0.8c-0.8,0.1-1.6,0.1-2.5,0.2c-0.2,0.2-0.2,0.5-0.3,0.7
			c-0.1,1.2-0.1,2.5,0,3.7c0,0.3,0.1,0.6,0.4,0.9c0.4,0,0.8,0,1.1,0c0.4-0.1,0.8-0.2,1.2-0.3c0,0,0-0.1,0.1-0.1
			c0.2-0.3,0.4-0.6,0.3-1C113.2,8.1,113.2,7,113.3,5.8z"/>
		<path id="パス_34" class="st0" d="M116,4.1c-0.2,0-0.3,0-0.5,0c0,1.9-0.1,3.7-0.1,5.6l0,0c0.9,0,1.7,0.2,2.6,0.2
			c0.1-0.2,0.2-0.5,0.2-0.7v-4c0-0.2,0-0.4-0.1-0.6C117.4,4.4,116.7,4.3,116,4.1z"/>
		<path id="パス_35" class="st0" d="M141.9,14.3c-4.4,0.2-8.8,0.7-13.2,1.4c-0.9,0.1-1.7,0.1-2.6,0.2c-0.5,0.2-1.1,0.3-1.7,0.4
			l0,0c-0.2,0-0.3,0-0.5,0.1c-0.1,0-0.3,0.1-0.4,0.1c0,0.1,0,0.3,0,0.4c0,0.6,0.1,1.1,0.2,1.7c0,0.1,0,0.2,0.1,0.4
			c0.3,0.2,0.6,0.2,0.9,0.1c1.4-0.2,2.8-0.4,4.1-0.6c3.9-0.3,7.7-0.7,11.6-1.1c0.1,0,0.3-0.1,0.4-0.1c0.3,0,0.7-0.1,1-0.1
			c0.3,0,0.6-0.1,0.8-0.3c-0.1-0.8-0.1-1.6-0.1-2.3C142.4,14.4,142.1,14.3,141.9,14.3z"/>
		<path id="パス_36" class="st0" d="M168.4,8.2L168.4,8.2L168.4,8.2c-0.2-0.1-0.3-0.1-0.4-0.1l-1.6,0.1c-0.7,0-1.4,0-2.1,0.1
			l-1.1,0l0.2-0.4c0.1-0.2,0.2-0.4,0.3-0.6c0.2-0.3,0.2-0.7,0.1-1l0-0.1l-0.1,0c-1-0.1-1.9-0.3-2.7-0.4l0,0l0,0
			c-0.2,0.1-0.3,0.3-0.3,0.5c-0.2,0.4-0.4,0.8-0.5,1.2c-0.1,0.3-0.3,0.6-0.4,1c-0.8,0-1.7,0.1-2.5,0.1c-0.5,0-0.9,0.1-1.4,0.1
			l-5.5,0.2c-0.2,0-0.5,0.1-0.7,0.2l-0.1,0c0,0,0,0-0.1,0l-0.1,0l0,0.1c-0.2,0.9-0.3,1.8-0.4,2.7l0,0.1l0.1,0
			c0.2,0.1,0.4,0.1,0.6,0.1c1.8-0.2,3.5-0.3,5.3-0.4l0.9-0.1l2.5-0.1c-3,7-5.6,13.2-7.9,19c-0.1,0.3-0.1,0.6,0,0.9l0,0l0,0
			c0.7,0.2,1.4,0.4,2.2,0.6h0.1l0,0c0.2-0.1,0.4-0.4,0.5-0.6c3-7.1,5.8-13.5,8.6-20l4.5-0.2l0.7,0c0.2,0,0.5,0,0.7,0
			c0,0,0.1,0,0.1,0l0.1,0c0.2,0,0.4-0.1,0.6-0.2l0.1,0l0-0.4C168.5,9.8,168.4,9,168.4,8.2z"/>
		<path id="パス_37" class="st0" d="M194.8,14.5c-0.4,0.1-0.9,0.1-1.3,0l-0.1,0c-0.2,0-0.3,0.1-0.5,0.1c-1.2,0-2.3,0.1-3.5,0.2
			c-0.8,0-1.7,0-2.7,0h-0.1l0-0.1c0,0,0-0.1,0-0.1l0-0.4c0-0.2,0.1-0.5,0.1-0.7l0.7-2.8l0.1,0c0.2,0,0.4,0,0.6,0l0.2,0
			c0.4-0.1,0.8-0.1,1.1-0.2c0.1,0,0.3-0.1,0.5-0.1c0.7-0.2,1.5-0.3,2.2-0.4c0-0.2,0.1-0.5,0.1-0.7c0-0.3,0-0.6,0.1-0.9l0-0.1
			c0-0.1,0-0.1,0-0.2l0-0.1c0-0.4,0-0.8,0-1.1c-0.1-0.1-0.1-0.2-0.2-0.3h0h0c0,0-0.1,0-0.1,0c-2.1,0.3-4.3,0.5-6.4,0.6
			c-2.2,0.2-4.5,0.3-6.8,0.7c-0.1,0.3-0.2,0.5-0.2,0.8c0,0.1,0,0.1,0,0.2c0,0.1,0,0.2,0,0.3l0,0c0,0,0,0.1,0,0.1l-0.1,0.6
			c0,0.2-0.1,0.5-0.1,0.7c0,0.3,0,0.7-0.1,1l0,0c0.2,0.1,0.4,0.1,0.7,0.1c1.6-0.2,3.2-0.4,5-0.6l0.1,0l-0.7,3.9h-0.1
			c-2.4,0.1-4.9,0.2-7.2,0.3l-0.4,0c-0.6,0.1-1.1,0.2-1.7,0.2l-0.2,0.4c0,0.1,0.1,0.1,0.1,0.2c0,0.4,0,0.8,0,1.2l0,0.4l0.1,0.8v0
			c0,0.1,0,0.1,0,0.2l0,0c0.1,0,0.2,0.1,0.4,0l0.7,0c0,0,0.1,0,0.1,0l1-0.1c2.1-0.1,4.2-0.2,6.6-0.3l0.1,0l0,0.1l-1.2,6.8
			c0,0,0,0.1,0,0.1c0,0.4,0,0.7,0,1.1c0,1.4-0.1,2.9-0.4,4.3l0,0.3l0.6,0.2c0.4,0,0.8,0.1,1.3,0.2l1.1,0.1l0.2-1.1
			c0.2-0.9,0.4-1.9,0.5-2.8c0.5-3,0.9-6.2,1.4-9.4l0-0.1h0.1c3.3-0.2,6.4-0.3,9.2-0.5c0.1-0.3,0.1-0.7,0.2-1
			c0.1-0.6,0.2-1.3,0.3-1.9c0-0.1-0.1-0.2-0.1-0.3C195.5,14.6,195.2,14.6,194.8,14.5z"/>
		<path id="パス_38" class="st0" d="M210.6,30c-0.1-0.5-0.3-1-0.5-1.5c-0.2,0-0.4,0-0.6,0l0,0c-0.1,0-0.3,0-0.4,0
			c-0.3,0-0.5,0-0.8,0c-0.1,0-0.1,0-0.2,0c-0.2,0.1-0.4,0.1-0.5,0c-0.2,0-0.3,0-0.5,0c0-0.1,0-0.3,0.1-0.4c0-0.1,0-0.2,0-0.3
			c0-0.1,0-0.2,0-0.3c0-0.1-0.1-0.2-0.1-0.3c0-1.6-0.2-3.4-0.2-5c-0.1-0.5-0.2-1-0.3-1.4l-0.3,0c-0.9,0-1.7,0-2.6,0.1
			c-0.6,0.1-1.2,0.1-1.8,0c-0.6,0.1-1.3,0.2-1.9,0.3v0c0,1,0,2,0.1,3.1c0.5-0.1,1.1-0.1,1.6,0c0.7,0,1.4-0.1,2.2-0.1l0,0
			c0,1.5,0.2,3,0.3,4.4c-0.5,0-1.1,0.1-1.6,0.2c-0.1,0-0.2,0-0.4,0c-0.1,0.1-0.3,0.1-0.4,0l0,0l0,0c-0.7,0-1.4,0.1-2.1,0.2l0,0l0,0
			l0,0h0c0,1.2,0.1,2.5,0.2,3.7c0.5,0,1,0,1.5,0c2.8-0.1,5.7-0.1,8.6-0.5l0.1,0v0c0.2,0,0.4,0,0.6,0C210.5,31.4,210.5,30.7,210.6,30
			z"/>
	</g>
</g>
</svg>
