<?xml version="1.0" encoding="utf-8"?>
<!-- Generator: Adobe Illustrator 24.2.0, SVG Export Plug-In . SVG Version: 6.00 Build 0)  -->
<svg version="1.1" id="レイヤー_1" xmlns="http://www.w3.org/2000/svg" xmlns:xlink="http://www.w3.org/1999/xlink" x="0px"
	 y="0px" viewBox="0 0 118 60" style="enable-background:new 0 0 118 60;" xml:space="preserve">
<g id="グループ_751" transform="translate(-1078.488 -107.268)">
	<path id="パス_676" d="M1089.7,153.9c-0.3,0.1-0.3,0.1-1.4,0.1h-2.5v-1.2c0-0.3,0-0.7,0.1-1h-1.9c0.1,0.3,0.1,0.7,0.1,1v1.2h-2.7
		c-0.5,0-1,0-1.5-0.1c0,0.4,0.1,0.9,0.1,1.3v2c0,0.4,0,0.8-0.1,1.2h1.9c0-0.3,0-0.7,0-1.1v-1.8h6.8c-0.1,2.3-1.4,4.4-3.4,5.6
		c-0.9,0.6-1.9,1-3,1.2c0.5,0.5,0.9,1,1.1,1.7c1-0.3,1.9-0.7,2.8-1.3c1.5-0.9,2.8-2.2,3.5-3.9c0.5-1.1,0.8-2.2,0.9-3.4
		c0-0.3,0.1-0.5,0.2-0.8L1089.7,153.9z M1106.9,152.9c-0.5,0.1-1,0.2-1.5,0.1h-6.4c-0.6,0-1.2,0-1.8-0.1v1.8
		c0.6-0.1,1.2-0.1,1.8-0.1h6.7c-0.5,2.5-2.1,4.7-4.2,6.1c-0.9,0.6-2,1.1-3.1,1.4c0.5,0.5,0.9,1,1.2,1.7c2-0.8,3.8-2,5.2-3.6
		c1.4-1.7,2.4-3.7,2.9-5.9c0-0.2,0.1-0.4,0.2-0.6L1106.9,152.9z M1124.4,152.9c-0.5,0.1-1,0.2-1.5,0.1h-6.4c-0.6,0-1.2,0-1.8-0.1
		v1.8c0.6-0.1,1.2-0.1,1.8-0.1h6.7c-0.5,2.5-2.1,4.7-4.2,6.1c-0.9,0.6-2,1.1-3.1,1.4c0.5,0.5,0.9,1,1.2,1.7c2-0.8,3.8-2,5.2-3.6
		c1.4-1.7,2.4-3.7,2.9-5.9c0-0.2,0.1-0.4,0.2-0.6L1124.4,152.9z M1134.2,163.6c0-0.2,0-0.3,0-0.4c0.1-1.5,0.6-2.9,1.2-4.2l-1.1-0.5
		c-0.3,0.6-0.5,1.2-0.7,1.8c0-0.3,0-0.5,0-0.8c0-1,0.1-2.1,0.2-3.1c0.1-1.4,0.4-2.8,0.9-4.2l-1.8-0.2c0,0.4-0.1,0.9-0.2,1.3
		c-0.4,1.8-0.6,3.6-0.6,5.5c0,1.4,0.1,2.8,0.4,4.2c0,0.3,0.1,0.4,0.1,0.7L1134.2,163.6z M1136.1,155.2c0.8,0.1,1.7,0.2,2.5,0.2
		c1,0,2-0.1,3-0.2c0.7-0.1,0.9-0.1,1-0.1l-0.1-1.7c-1.2,0.3-2.5,0.4-3.8,0.4c-0.9,0-1.7,0-2.6-0.2L1136.1,155.2z M1137.1,157.5
		c-0.8,0.8-1.2,1.8-1.3,2.9c0,0.5,0.1,1,0.4,1.4c0.6,0.8,1.7,1.2,3.5,1.2c1,0,1.9-0.1,2.9-0.3c0.2,0,0.4-0.1,0.6-0.1l-0.1-1.8
		c-1.1,0.4-2.2,0.5-3.3,0.5c-1.5,0-2.2-0.4-2.2-1.2c0.1-0.8,0.4-1.5,1-2L1137.1,157.5z M1149.3,156.7c0.4-0.2,0.7-0.3,1.1-0.4
		c1.8-0.6,3.6-0.9,5.5-1c0.6,0,1.2,0.1,1.8,0.4c0.7,0.4,1.1,1.1,1.1,1.8c0,0.3,0,0.7-0.2,1c-0.4,0.9-1.2,1.7-2.1,2.1
		c-1.5,0.6-3,0.9-4.6,0.8c0.3,0.6,0.6,1.2,0.7,1.8c1.7-0.1,3.4-0.5,4.9-1.2c1.8-0.7,3.1-2.5,3.1-4.5c0-2.4-1.8-3.9-4.6-3.9
		c-1.9,0-3.8,0.3-5.6,0.8c-0.5,0.1-1.1,0.2-1.6,0.3L1149.3,156.7z M1167,153c0,0.3,0.1,0.6,0.1,0.9c0.1,3.9,0.3,5.9,0.9,7.3
		c0.6,1.3,1.3,2,2.3,2c1.2,0,2-1.1,2.7-3.9c-0.5-0.4-1-0.8-1.4-1.3c-0.1,0.9-0.4,1.7-0.7,2.5c-0.2,0.4-0.4,0.6-0.6,0.6
		c-0.4,0-0.9-0.9-1.1-2.4c-0.2-1.2-0.3-2.5-0.3-3.8c0-0.7,0-1.4,0.1-2.1L1167,153z M1174.1,154.3c0.8,1,1.5,2.2,2,3.4
		c0.5,1.3,0.8,2.7,0.9,4l1.7-0.7c-0.3-2.8-1.4-5.4-3.2-7.5L1174.1,154.3z M1183.8,155.3c0.8-0.1,1.5-0.2,2.3-0.3
		c3-0.2,3.6-0.3,4.7-0.4c-0.7,0.3-1.4,0.8-1.9,1.4c-0.8,0.9-1.3,2.1-1.3,3.3c0,1.4,0.8,2.7,2,3.4c1,0.5,2.1,0.8,3.3,0.9
		c0.2,0,0.3,0,0.5,0.1l0.3-1.9c-0.1,0-0.3,0-0.3,0c-0.7,0-1.4-0.2-2.1-0.4c-1.1-0.2-1.9-1.2-1.9-2.3c0-1.4,1-2.8,2.8-3.7
		c0.9-0.5,1.8-0.7,2.8-0.8c0.1,0,0.2,0,0.3,0l-0.1-1.8c-0.5,0.1-1.1,0.1-1.6,0.1c-3.9,0.2-6.2,0.3-7,0.4c-2.1,0.1-2.1,0.1-2.3,0.1
		c-0.1,0-0.2,0-0.5,0L1183.8,155.3z"/>
	<g id="グループ_300" transform="translate(1016.015 5.547)">
		<path id="パス_429" d="M77.3,107.1c0.1,0,0.1,0,0.2,0s0.1,0,0.2,0c0,0-0.1,0-0.1,0L77.3,107.1C77.4,107.1,77.3,107.1,77.3,107.1
			L77.3,107.1z"/>
		<path id="パス_430" d="M78.6,107.4c0.1,0,0.3,0,0.4,0h0c0,0,0,0,0,0l-0.2,0C78.8,107.3,78.7,107.3,78.6,107.4L78.6,107.4z"/>
		<path id="パス_431" d="M76.7,109.1L76.7,109.1z"/>
		<path id="パス_432" d="M76.7,109.2C76.7,109.1,76.7,109.1,76.7,109.2L76.7,109.2z"/>
		<g id="グループ_299" transform="translate(75.302 101.721)">
			<path id="パス_433" d="M1.5,5.9C1.4,6.1,1.4,6.2,1.3,6.3c-0.1,0.3-0.1,0.6,0,0.8c0,0.1,0,0.1,0,0.2c0,0,0,0,0,0.1c0,0,0,0,0,0
				c0.1,0.5,0.1,1,0.1,1.4c0,0.6,0,1.2-0.1,1.8c0,1.3-0.1,2.6-0.1,3.9c0,1.2,0,2.4,0.1,3.6c0.1,1.2,0.2,2.4,0.4,3.6
				c0.1,0.8,0.2,1.6,0.4,2.3C2.4,25,2.7,25.9,3,26.7c0.3,0.7,0.7,1.4,1.2,2c0.6,0.7,1.4,1.1,2.3,1.4c0.4,0.1,0.9,0.2,1.4,0.2
				c0.4,0,0.7,0,1.1,0c0.9-0.1,1.8-0.3,2.6-0.8c0.9-0.5,1.5-1.3,2-2.2c0.4-0.8,0.6-1.6,0.9-2.4c0.5-1.3,0.9-2.6,1.4-3.8
				c0.1-0.3,0.2-0.6,0.4-0.9c0.2-0.5,0.3-1,0.3-1.5c0.1-0.8,0.1-1.6,0.2-2.4c0.1-1.6,0.1-3.2,0.2-4.7c0-0.8,0-1.5-0.1-2.3
				c0-0.4-0.1-0.9-0.2-1.3c-0.1-0.3-0.2-0.6-0.3-0.9c0,0,0,0,0,0c-1,0-2,0-3,0.1c-0.1,0.2-0.1,0.5,0,0.7c0,0.1,0.1,0.2,0.1,0.2
				l0-0.1c0.2,0.4,0.3,0.8,0.3,1.2c0.1,0.7,0.1,1.5,0.1,2.2c0,0.9,0,1.8,0,2.6c0,0.8-0.1,1.6-0.1,2.3c-0.1,0.7-0.1,1.5-0.2,2.2
				c-0.1,0.6-0.4,1.2-0.6,1.7c-0.2,0.5-0.4,1.1-0.7,1.6c-0.5,1.2-0.8,2.4-1.3,3.6c-0.1,0.3-0.3,0.6-0.4,0.8
				c-0.1,0.1-0.1,0.1-0.2,0.2c-0.1,0.1-0.2,0.2-0.4,0.2c-0.3,0.1-0.7,0.2-1.1,0.3c-0.3,0-0.7,0-1,0C7.5,27,7.3,27,7,26.9
				c-0.1-0.1-0.2-0.1-0.4-0.2c-0.1-0.1-0.2-0.2-0.3-0.3c-0.2-0.3-0.4-0.7-0.6-1C5.4,24.2,5.2,23.1,5,22c0-0.4-0.1-0.7-0.1-1.1
				c-0.1-1.1-0.2-2.1-0.3-3.2c-0.1-1.2-0.1-2.4-0.1-3.6c0-1.3,0-2.5,0.1-3.8c0-0.7,0.1-1.3,0-2c0-0.7-0.1-1.4-0.2-2.1
				c0-0.1-0.1-0.2-0.1-0.3C3.7,6,3.3,6,2.8,5.9c-0.3,0-0.6,0-0.8-0.1c-0.1,0-0.3,0-0.4,0C1.5,5.8,1.5,5.9,1.5,5.9L1.5,5.9z
				 M13.5,8.1c0,0,0,0.1,0,0.1C13.5,8.2,13.5,8.2,13.5,8.1z"/>
			<path id="パス_434" d="M23.8,4.4c-0.1,0.3-0.2,0.6-0.3,0.9c-0.1,0.5-0.2,0.9-0.2,1.4c0,0.6,0,1.1,0,1.7c0,1.2,0,2.3,0,3.5
				c0.2,2.3,0.3,4.5,0.2,6.8c-0.1,0.9-0.3,1.7-0.5,2.5c-0.2,1.1-0.4,2.3-0.4,3.5c0,1,0.1,2.1,0.3,3.1c0.1,0.5,0.2,0.9,0.3,1.4
				c0.1,0.2,0.1,0.5,0.2,0.7c0,0,0,0.1,0,0.1c0.6-0.2,1.3-0.4,2-0.6c0.4-0.1,0.7-0.2,1.1-0.3c0,0,0-0.1,0-0.1
				c-0.1-0.4-0.2-0.8-0.3-1.1c-0.1-0.6-0.3-1.3-0.4-1.9c-0.1-1-0.1-2,0.1-2.9c0.2-1.4,0.6-2.8,0.8-4.2c0.1-1.4,0.1-2.8,0-4.2
				c-0.1-0.7-0.1-1.4-0.2-2.1c0-0.7,0-1.4,0-2s0-1.4,0-2.1c0-0.6,0-1.3,0-1.9c0.1-0.5,0.3-0.9,0.4-1.4c0.2-0.8-0.3-1.7-1.1-1.9
				c-0.1,0-0.3-0.1-0.4-0.1C24.6,3.3,24,3.7,23.8,4.4L23.8,4.4z"/>
			<path id="パス_435" d="M26.9,3.9c-1,0.2-1.9,0.5-2.8,0.8c-0.4,0.1-0.7,0.4-0.9,0.7c-0.4,0.7-0.2,1.7,0.6,2.1c0,0,0,0,0,0
				c0.4,0.2,0.8,0.3,1.2,0.2c0.9-0.4,1.8-0.6,2.8-0.8c0.5-0.1,0.9-0.1,1.4-0.1c0.6,0,1.2,0,1.8,0c1.1,0,2.3,0.1,3.4,0.2l0.4,0.1h0
				c0-0.1,0-0.3,0-0.4c0-0.7,0.1-1.3,0.1-2c0-0.2,0-0.5,0-0.7c-1.7-0.2-3.4-0.3-5.2-0.3c-0.1,0-0.3,0-0.4,0
				C28.5,3.7,27.7,3.7,26.9,3.9L26.9,3.9z"/>
			<path id="パス_436" d="M24.9,15.1c-0.9,0-1.6,0.7-1.5,1.6s0.7,1.6,1.6,1.5c1.3,0,2.5,0,3.8,0c1.2,0,2.4,0.1,3.6,0.3
				c0.9,0.1,1.7,0.2,2.6,0.4c0-0.1,0-0.3,0-0.4c0-0.6-0.1-1.1-0.1-1.7c0-0.4,0-0.7,0-1.1l-0.2,0c-1.5-0.2-3.1-0.4-4.6-0.6
				c-0.8-0.1-1.7-0.1-2.5-0.1S25.8,15.1,24.9,15.1L24.9,15.1z"/>
			<path id="パス_437" d="M41,9.3c-0.1,0.9-0.2,1.7-0.2,2.6c0,0.8,0,1.5-0.1,2.3c-0.1,1.6-0.2,3.2-0.3,4.8
				c-0.1,1.4-0.2,2.9-0.2,4.3c0,0.8,0.1,1.7,0.3,2.5c0.1,1,0.5,2,1.1,2.8c0.7,0.8,1.7,1.4,2.7,1.6c0.4,0.1,0.7,0.2,1.1,0.2
				c0.5,0.1,0.9,0.1,1.4,0.1c1.9-0.1,3.6-1.1,4.5-2.7c0.4-0.8,0.7-1.6,1-2.5c0.2-0.8,0.5-1.5,0.7-2.3c0.4-1.6,0.6-3.3,0.6-5
				c0.1-1.4,0-2.8-0.1-4.1c-0.1-0.6-0.1-1.2-0.2-1.9s0-1.2-0.1-1.8c0-0.3-0.1-0.5-0.2-0.8c-0.6,0.1-1.3,0.1-1.9,0.2
				c-0.3,0-0.6-0.1-0.8-0.2c-0.2,0.2-0.2,0.5-0.2,0.8c0,0.4,0,0.9,0,1.3s0,0.9,0.1,1.3c0,0.4,0.1,0.8,0.1,1.2
				c0.1,0.4,0.1,0.9,0.1,1.3c0,0.9,0,1.9,0,2.8c0,0.9-0.1,1.9-0.2,2.8c-0.2,0.8-0.4,1.7-0.7,2.5c-0.2,0.8-0.5,1.6-0.7,2.4
				c-0.1,0.3-0.3,0.6-0.5,0.8c-0.1,0.2-0.3,0.3-0.4,0.4c-0.1,0.1-0.3,0.2-0.4,0.2c-0.2,0.1-0.4,0.1-0.6,0.2c-0.3,0-0.7,0-1,0
				c-0.5-0.1-0.9-0.2-1.4-0.3c-0.1-0.1-0.3-0.1-0.4-0.2c-0.1-0.1-0.2-0.1-0.2-0.2c-0.1-0.1-0.1-0.2-0.2-0.3
				c-0.2-0.5-0.3-1.1-0.4-1.7c-0.1-1.1-0.2-2.2-0.1-3.3c0-0.6,0.1-1.2,0.1-1.8c0-0.7,0.1-1.3,0.1-2c0.1-1.3,0.2-2.7,0.2-4
				c0-1.4,0.1-2.8,0.2-4.1c0-0.1,0-0.3,0-0.4c-0.3-0.1-0.5-0.1-0.8-0.2c-0.6-0.2-1.3-0.3-1.9-0.5C41.1,8.5,41,8.9,41,9.3L41,9.3z"/>
			<path id="パス_438" d="M61.1,4.1c-0.4,0.1-0.7,0.4-0.9,0.7c-0.2,0.4-0.4,0.9-0.5,1.3c-0.2,0.6-0.3,1.2-0.3,1.8
				c0,0.8,0,1.5,0.1,2.3c0.1,1.7,0.1,3.3,0.1,5c0,1.6,0,3.2,0.1,4.7c0.1,1.5,0.2,3.1,0.4,4.6c0.1,0.7,0.1,1.4,0.1,2.1
				c0.1,0.8,0.1,1.6,0.2,2.4c0,0.4,0.2,0.8,0.5,1.1c0.6,0.6,1.6,0.6,2.2,0c0,0,0,0,0,0c0.3-0.3,0.5-0.7,0.5-1.1
				c-0.1-0.8-0.2-1.7-0.2-2.5c-0.1-0.8-0.1-1.6-0.1-2.4c-0.1-0.8-0.1-1.5-0.2-2.3s-0.1-1.5-0.1-2.2c-0.1-3.2,0-6.5-0.2-9.7
				c-0.1-0.8-0.1-1.7,0-2.5c0.1-0.3,0.2-0.6,0.3-0.9l0.1-0.2C63.1,6,63.1,5.6,63,5.2C62.8,4.3,61.9,3.9,61.1,4.1z"/>
			<path id="パス_439" d="M62.9,3.4c-1.1,0-2.2,0-3.3,0.1c-0.4,0-0.8,0.2-1.1,0.5c0,0.2,0,0.3,0,0.5c0,0.2,0,0.4-0.1,0.6
				c-0.1,0.2-0.2,0.4-0.3,0.6c0.2,0.6,0.8,1,1.4,1c1.1,0,2.2-0.1,3.3-0.1c0.5,0,1,0,1.5,0.1c0.5,0,1.1,0,1.6,0.1
				c2,0.1,3.9,0.4,5.9,0.6c0.1,0,0.3,0,0.4,0c0-0.1,0-0.3,0-0.4c0-0.1-0.1-0.3-0.1-0.4c0-0.2,0-0.4-0.1-0.6c0-0.2-0.1-0.4-0.2-0.6
				c-0.2-0.4-0.4-0.7-0.6-1.1c-1.8-0.2-3.5-0.4-5.3-0.5c-0.5,0-1-0.1-1.6-0.1C63.9,3.5,63.4,3.4,62.9,3.4L62.9,3.4z"/>
			<path id="パス_440" d="M67.7,14c-2.1,0.2-4.2,0.2-6.3,0.3c-0.9,0-1.6,0.7-1.6,1.6c0,0.9,0.7,1.6,1.6,1.6c1.6-0.1,3.2,0,4.8-0.1
				c0.9-0.1,1.8-0.1,2.7-0.3c0.6-0.1,1.2-0.2,1.8-0.3c0,0,0-0.1,0-0.1c-0.1-0.6-0.1-1.2-0.2-1.9c0-0.4-0.1-0.8-0.1-1.1
				C69.4,13.7,68.5,13.9,67.7,14L67.7,14z"/>
			<path id="パス_441" d="M78.7,4.3c-1,0.1-1.9,0-2.9,0c0,0.7,0.1,1.4,0.2,2.1c0.1,0.6,0.2,1.3,0.4,1.9c0.2,1.1,0.4,2.3,0.6,3.4
				c0.3,3.2,0.1,6.6,1.6,9.5c0.4,0.7,0.8,1.4,1.4,2c0.5,0.6,1.1,1.1,1.7,1.5c0.4,0.2,0.7,0.4,1.1,0.5c0.3,0.1,0.6,0.1,0.9,0.2
				c0.5,0.1,1,0.1,1.4,0.1c0.5,0,1-0.1,1.5-0.3c0.9-0.3,1.7-0.8,2.3-1.4c0.6-0.7,1.1-1.4,1.5-2.2c0.7-1.5,1.1-3.1,1.1-4.7
				c0-0.8,0.1-1.5,0.1-2.3c0-0.8,0-1.5-0.1-2.3c-0.1-1.4-0.1-2.8-0.1-4.1c0-0.7,0-1.4,0-2.1c-0.4-0.1-0.8-0.1-1.1-0.2
				c-0.6-0.2-1.2-0.4-1.9-0.6c-0.1,0.2-0.1,0.4-0.1,0.6c0,1.9,0,3.9,0.1,5.8c0,1,0.1,2.1,0.1,3.1c0,1.1-0.1,2.1-0.2,3.2
				c-0.1,0.6-0.3,1.2-0.5,1.8c-0.3,0.6-0.6,1.3-1,1.8c-0.1,0.1-0.2,0.2-0.4,0.3c-0.2,0.1-0.4,0.3-0.6,0.4c-0.3,0.1-0.5,0.2-0.8,0.2
				c-0.3,0-0.6,0-0.8,0c-0.3-0.1-0.6-0.1-1-0.2c-0.1-0.1-0.2-0.1-0.3-0.2c-0.3-0.3-0.7-0.6-0.9-1c-0.3-0.4-0.6-0.9-0.8-1.4
				c-0.3-0.9-0.6-1.9-0.7-2.9c-0.1-0.8-0.1-1.6-0.2-2.5c-0.1-1-0.1-2-0.3-3.1c-0.2-1.8-0.6-3.6-0.9-5.4c0-0.4-0.1-0.9-0.1-1.3
				L78.7,4.3L78.7,4.3z"/>
		</g>
	</g>
</g>
</svg>
