<?xml version="1.0" encoding="utf-8"?>
<!-- Generator: Adobe Illustrator 24.2.0, SVG Export Plug-In . SVG Version: 6.00 Build 0)  -->
<svg version="1.1" id="レイヤー_1" xmlns="http://www.w3.org/2000/svg" xmlns:xlink="http://www.w3.org/1999/xlink" x="0px"
	 y="0px" viewBox="0 0 160 60" style="enable-background:new 0 0 160 60;" xml:space="preserve">
<g id="グループ_751" transform="translate(-325.663 -106.844)">
	<path id="パス_674" d="M346.1,163.6c0-0.5-0.1-1-0.1-1.6v-3.7c0-0.3,0-0.6-0.1-1c0.2,0.1,0.3,0.2,0.5,0.2c1.7,0.8,3.4,1.6,5,2.7
		l1-1.7c-2-1.2-4.2-2.2-6.4-3v-2.6c0-0.5,0-1,0.1-1.5h-1.9c0.1,0.5,0.1,1,0.1,1.4v9c0,0.5,0,1-0.1,1.6H346.1z M349,152.9
		c0.6,0.6,1.1,1.3,1.5,2.1l1-0.5c-0.4-0.8-0.9-1.4-1.5-2.1L349,152.9z M353.1,153.5c-0.4-0.7-0.9-1.4-1.5-2l-0.9,0.5
		c0.6,0.6,1,1.3,1.4,2L353.1,153.5z M359.2,158.6c0.8-0.1,1.5-0.1,2.3-0.1h7.4c0.8,0,1.5,0,2.3,0.1v-1.9c-0.8,0.1-1.5,0.1-2.3,0.1
		h-7.5c-0.8,0-1.5,0-2.3-0.1V158.6z M384,155c0-0.2,0-0.2,0-1.1l0-0.8c0-0.4,0-0.9,0.1-1.3h-1.9c0.1,0.4,0.1,0.9,0.1,1.3v0.8
		c0,0.3,0,0.5,0,1.1h-3.5c-0.6,0-1.2,0-1.8-0.1v1.8c0.6-0.1,1.2-0.1,1.8-0.1h3.5c0,1-0.2,1.9-0.7,2.8c-0.8,1.3-2,2.3-3.4,2.8
		c0.5,0.4,1,0.9,1.3,1.5c1.5-0.7,2.7-1.8,3.6-3.1c0.7-1.2,1-2.6,1-3.9h2.9c0.6,0,1.2,0,1.8,0.1v-1.8c-0.6,0.1-1.2,0.1-1.8,0.1
		L384,155z M403.9,151.6c-0.5,0.3-1.1,0.5-1.7,0.7c-2,0.5-4,0.8-6,0.8c-0.2,0-0.4,0-0.9,0c0.2,0.5,0.4,1,0.5,1.5
		c1.3,0,2.6-0.1,3.9-0.3c0,1,0,1.5,0,2.1h-3.6c-0.6,0-1.1,0-1.7-0.1v1.7c0.6-0.1,1.1-0.1,1.7-0.1h3.5c0,0.3-0.1,0.6-0.2,0.9
		c-0.3,0.9-0.8,1.8-1.6,2.4c-0.6,0.5-1.4,0.9-2.2,1.2c0.5,0.4,0.9,0.9,1.2,1.5c0.5-0.2,0.9-0.4,1.3-0.7c0.9-0.6,1.7-1.3,2.3-2.2
		c0.5-0.9,0.9-2,0.9-3.1h3.1c0.6,0,1.1,0,1.7,0.1v-1.7c-0.6,0.1-1.1,0.1-1.7,0.1h-3c0-0.5,0-0.5,0-2.4c0.8-0.1,1.6-0.3,2.3-0.6
		c1-0.3,1-0.3,1.2-0.4L403.9,151.6z M419.9,161.8c0.2-1.3,0.4-2.3,0.6-3.8c0-0.5,0.1-1.1,0.3-1.6l-0.8-0.7c-0.3,0.1-0.7,0.1-1,0.1
		h-3.5c-0.4,0-0.9,0-1.3-0.1v1.6c0.4,0,0.8-0.1,1.2-0.1h3.5c-0.1,1.3-0.4,3.2-0.7,4.5h-4.1c-0.4,0-0.9,0-1.3-0.1v1.6
		c0.4,0,0.9-0.1,1.3-0.1h7.3c0.4,0,0.9,0,1.3,0.1v-1.6c-0.4,0.1-0.9,0.1-1.3,0.1L419.9,161.8z M439.7,154.1
		c-0.3,0.2-0.7,0.2-1.1,0.2l-5.1,0.6v-1.8c0-0.4,0-0.9,0.1-1.3h-1.9c0.1,0.4,0.1,0.9,0.1,1.3v1.9l-1.5,0.2c-0.4,0.1-0.8,0.1-1.2,0.1
		c-0.1,0-0.2,0-0.3,0l0.2,1.7c0.5-0.1,1-0.2,1.6-0.3l1.3-0.2v3.2c-0.1,0.6,0,1.2,0.1,1.8c0.2,0.6,0.6,1.1,1.2,1.3
		c0.8,0.2,1.7,0.3,2.5,0.2c1.2,0,2.3-0.1,3.5-0.2c0.3,0,0.6-0.1,0.9-0.1l-0.1-1.9c-1.4,0.4-2.8,0.6-4.3,0.5c-1.4,0-1.9-0.2-2-0.7
		c-0.1-0.4-0.1-0.8-0.1-1.2v-3.2c1.5-0.2,2.9-0.4,4.3-0.6c0.2,0,0.3,0,0.5-0.1c-0.3,0.4-0.3,0.5-0.5,0.8c-0.6,0.8-1.4,1.5-2.3,2
		c0.5,0.3,1,0.7,1.4,1.1c1.5-1,2.7-2.4,3.4-4.1c0.1-0.2,0.2-0.5,0.4-0.7L439.7,154.1z M447.5,155.4c0.6,1.1,1,2.2,1.3,3.4l1.6-0.5
		c-0.3-1.2-0.8-2.3-1.4-3.3L447.5,155.4z M450.5,154.8c0.5,1,1,2.1,1.3,3.3l1.5-0.5c-0.3-1.1-0.8-2.2-1.4-3.2L450.5,154.8z
		 M455.4,154.6c0,0.5-0.1,1.1-0.3,1.6c-0.4,2-1.6,3.7-3.2,4.9c-0.7,0.5-1.5,1-2.4,1.3c0.5,0.4,0.8,0.9,1.1,1.4
		c1.7-0.7,3.2-1.9,4.3-3.4c1-1.4,1.6-3,1.9-4.7c0-0.2,0.1-0.5,0.2-0.7L455.4,154.6z M468.4,163.6c0-0.5-0.1-1-0.1-1.6v-3.7
		c0-0.3,0-0.6-0.1-1c0.2,0.1,0.3,0.2,0.5,0.2c1.7,0.8,3.4,1.6,5,2.7l1-1.7c-2-1.2-4.2-2.2-6.4-3v-2.6c0-0.5,0-1,0.1-1.5h-1.9
		c0.1,0.5,0.1,1,0.1,1.4v9c0,0.5,0,1-0.1,1.6H468.4z"/>
	<g id="グループ_302" transform="translate(76.252 17.085)">
		<path id="パス_449" d="M254.8,97.5c-0.9,0.2-1.4,1.1-1.1,2c0.4,1.4,0.7,2.9,1,4.3c0.3,1.4,0.5,2.9,0.8,4.3
			c0.2,1.5,0.4,2.9,0.5,4.4c0-0.1,0-0.3-0.1-0.4c0.1,0.8,0.2,1.6,0.3,2.4c0-0.1,0-0.3-0.1-0.4c0.3,2.4,0.8,4.9,1.1,7.3
			c0,0.3,0.1,0.7,0.1,1c0,0.9,0.7,1.6,1.6,1.6s1.6-0.7,1.6-1.6c-0.1-1.4-0.3-2.8-0.6-4.2c-0.2-1.4-0.4-2.7-0.6-4.1c0,0,0,0.1,0,0.1
			c-0.1-0.6-0.2-1.3-0.3-1.9c0,0.1,0,0.1,0,0.2c0-0.3-0.1-0.6-0.1-0.9c-0.1-1-0.2-2-0.4-2.9c-0.1-1.2-0.4-2.4-0.6-3.6
			c-0.3-2.1-0.8-4.2-1.3-6.3c-0.2-0.7-0.8-1.2-1.6-1.2C255.1,97.4,255,97.5,254.8,97.5L254.8,97.5z"/>
		<path id="パス_450" d="M250.2,97.5c0,0.1,0,0.2,0,0.4c0,1,0,1.9,0.1,2.9c0,0,0.1,0,0.1,0c1.2,0.1,2.5,0.1,3.7,0.1
			c1.2,0,2.4,0,3.6,0.1c1.3,0.2,2.6,0.5,3.8,1c0.7,0.3,1.3,0.7,2,1.1c0.3,0.3,0.6,0.5,0.9,0.8c0.2,0.3,0.4,0.7,0.6,1
			c0.2,0.6,0.4,1.2,0.5,1.9c0.1,0.6,0.2,1.3,0.3,1.9c0.1,0.6,0.1,1.1,0.1,1.7c0,0.5,0,1-0.1,1.6c-0.2,1.1-0.4,2.1-0.8,3.1
			c-0.2,0.4-0.4,0.9-0.7,1.3c-0.5,0.6-1.1,1.1-1.7,1.6c-0.5,0.4-0.9,0.7-1.4,0.9c-0.5,0.3-1,0.5-1.5,0.8c-0.5,0.3-1,0.5-1.5,0.8
			c-0.5,0.3-1,0.6-1.6,0.8c0,0-0.1,0-0.1,0c-0.9,0.2-1.4,1.1-1.1,2c0.2,0.9,1.1,1.4,2,1.1l0,0c0.8-0.3,1.7-0.7,2.5-1.2
			c0.6-0.3,1.2-0.6,1.8-0.9c0.6-0.3,1.3-0.7,1.9-1c0.7-0.5,1.4-1,2.1-1.6c0.7-0.6,1.3-1.3,1.8-2.1c0.5-0.8,0.9-1.6,1.1-2.5
			c0.2-0.8,0.4-1.6,0.5-2.4c0.1-0.9,0.2-1.9,0.2-2.8c-0.1-0.9-0.2-1.9-0.4-2.8c-0.1-0.8-0.3-1.6-0.5-2.3c-0.1-0.3-0.2-0.6-0.4-1
			c-0.2-0.4-0.4-0.9-0.6-1.3c-0.4-0.6-0.9-1.2-1.5-1.7c-0.6-0.5-1.3-1-2-1.3c-0.8-0.4-1.6-0.7-2.5-1c-1.7-0.5-3.4-0.8-5.2-0.8
			c-1.9,0-3.9,0-5.8-0.1h-0.1C250.3,97.5,250.2,97.5,250.2,97.5L250.2,97.5z"/>
		<path id="パス_451" d="M283.8,98.8c-0.8,0.1-1.6,0.3-2.4,0.5c-0.9,0.3-1.7,0.7-2.5,1.1c-0.5,0.3-0.9,0.6-1.3,0.9
			c-0.5,0.4-0.9,0.9-1.3,1.5c-0.3,0.4-0.5,0.9-0.6,1.3c-0.1,0.4-0.3,0.8-0.4,1.2c-0.2,0.9-0.4,1.8-0.4,2.7c-0.1,0.8-0.1,1.6,0,2.4
			c0,0.9,0.1,1.9,0.3,2.8c0.1,0.8,0.3,1.6,0.6,2.4c0.1,0.4,0.2,0.7,0.4,1c0.4,0.9,0.8,1.8,1.3,2.6c0.5,0.7,1.1,1.4,1.8,1.9
			c0.5,0.4,1.1,0.7,1.7,0.9c0.9,0.3,1.9,0.5,2.9,0.4c0.1,0,0.2,0,0.3,0c0.3,0.2,0.6,0.4,1,0.3c0.9-0.1,1.7-0.2,2.6-0.3
			c0.7-0.1,1.3-0.2,1.9-0.4c0.8-0.3,1.5-0.7,2.2-1.1c0.8-0.5,1.5-1.1,2.1-1.8c0.6-0.7,1.1-1.5,1.4-2.4c0.3-0.8,0.5-1.5,0.7-2.3
			c0.2-0.8,0.3-1.7,0.4-2.5c0.1-0.8,0.2-1.5,0.1-2.3c0-0.9-0.1-1.7-0.3-2.6c-0.2-0.8-0.4-1.5-0.7-2.2c-0.3-0.9-0.8-1.7-1.3-2.5
			c-0.7-1-1.5-1.8-2.5-2.4c-0.8-0.5-1.7-0.8-2.5-1.1c-0.4-0.1-0.7-0.2-1.1-0.2c-0.5-0.1-1.1-0.2-1.6-0.2c-0.1,0-0.2,0-0.3,0
			C285.4,98.6,284.6,98.7,283.8,98.8L283.8,98.8z M287,101.9c0.3,0.1,0.7,0.1,1,0.2c0.4,0.1,0.8,0.2,1.2,0.4
			c0.5,0.2,0.9,0.5,1.4,0.8c0.3,0.3,0.6,0.5,0.9,0.9c0.4,0.6,0.7,1.2,1,1.9c0.2,0.4,0.3,0.8,0.4,1.2c0.1,0.5,0.3,1,0.3,1.5
			c0.1,0.5,0.1,1.1,0.1,1.6c0,0.6-0.1,1.2-0.1,1.7c-0.2,1.3-0.5,2.6-1,3.8c-0.2,0.4-0.4,0.8-0.7,1.2c-0.2,0.3-0.5,0.5-0.8,0.8
			c-0.7,0.5-1.4,0.9-2.2,1.2c-0.9,0.3-1.8,0.4-2.7,0.5c0.1,0,0.3,0,0.4-0.1c-0.4,0-0.8,0.1-1.3,0.1c-0.1,0-0.2,0-0.3,0
			c-0.3-0.2-0.6-0.3-1-0.4c-0.4,0-0.7,0-1.1,0c-0.2,0-0.5-0.1-0.7-0.2c-0.3-0.2-0.6-0.3-0.9-0.5c-0.2-0.2-0.4-0.4-0.6-0.6
			c-0.4-0.6-0.8-1.2-1-1.8c-0.3-0.6-0.5-1.2-0.6-1.8c-0.2-0.7-0.4-1.4-0.5-2.1c-0.2-1.5-0.2-3-0.1-4.5c0.1-0.9,0.3-1.8,0.7-2.7
			c0.1-0.2,0.2-0.5,0.4-0.7c0.2-0.2,0.3-0.4,0.5-0.5c0.6-0.4,1.3-0.8,2-1.1c1-0.4,2.1-0.6,3.2-0.8
			C285.6,101.9,286.3,101.9,287,101.9L287,101.9z M278.1,107.9l0,0.1L278.1,107.9z"/>
		<path id="パス_452" d="M298.6,102.2c0.1,0.3,0.1,0.7,0.2,1c0.4,3.3,0.2,6.6,0.3,9.9c0,0.9,0.1,1.7,0.3,2.6
			c0.2,0.9,0.4,1.7,0.8,2.5c0.3,0.7,0.8,1.3,1.4,1.8c0.3,0.3,0.7,0.5,1,0.7c0.4,0.3,0.9,0.5,1.4,0.6c0.3,0.1,0.7,0.2,1,0.3
			c0.2,0,0.3,0.1,0.5,0.1c0.3,0,0.6,0.1,0.9,0.1c0.3,0,0.6,0,0.8-0.1c0.5-0.1,0.9-0.2,1.3-0.5c0.4-0.2,0.9-0.5,1.2-0.9
			c0.7-0.7,1.2-1.5,1.5-2.4c0.3-0.7,0.5-1.5,0.7-2.3c0.2-0.9,0.4-1.9,0.5-2.8c0.1-0.8,0.1-1.6,0.1-2.5c0.1-1.5,0.1-3,0.1-4.5
			c0-0.9,0-1.7-0.1-2.6c-0.4,0-0.8,0-1.2-0.2c-0.2-0.1-0.4-0.2-0.5-0.2h0c0,0-0.1,0-0.1,0c-0.4-0.1-0.8-0.2-1.2-0.3
			c-0.2,0.2-0.2,0.5-0.2,0.8c0.1,0.8,0.1,1.6,0.1,2.4c0,0.8,0,1.5,0,2.3c0,1.7-0.1,3.5-0.2,5.2c-0.2,1.3-0.6,2.7-1.1,3.9
			c-0.1,0.2-0.2,0.5-0.4,0.7c-0.1,0.2-0.3,0.3-0.5,0.5c-0.1,0.1-0.2,0.2-0.4,0.2c-0.2,0.1-0.3,0.1-0.5,0.1c-0.1,0-0.3,0-0.4,0
			c-0.4-0.1-0.9-0.2-1.3-0.4c-0.3-0.1-0.6-0.3-0.9-0.5c-0.2-0.2-0.3-0.3-0.5-0.5c-0.1-0.2-0.2-0.4-0.3-0.6c-0.3-0.8-0.5-1.6-0.6-2.4
			c-0.1-0.9-0.1-1.7-0.1-2.6c0-1.1,0-2.2,0-3.3c0-1.1,0-2.2-0.1-3.2c-0.1-1.3-0.2-2.5-0.4-3.8c-0.5,0-1.1,0-1.6,0
			c-0.5,0-1,0-1.6-0.1C298.6,101.6,298.5,101.9,298.6,102.2L298.6,102.2z"/>
		<path id="パス_453" d="M322.1,94.9c-0.7,0.4-1.4,0.8-1.9,1.4c-0.3,0.4-0.7,0.8-0.9,1.2c-0.2,0.4-0.4,0.9-0.6,1.4
			c-0.3,0.7-0.4,1.5-0.6,2.2c-0.2,0.9-0.3,1.8-0.4,2.6c-0.2,1.7-0.3,3.3-0.4,5c0,0.8-0.1,1.7-0.1,2.5c-0.1,0.8-0.1,1.6-0.1,2.4
			c0,0.9,0.1,1.8,0.3,2.7c0.1,0.3,0.2,0.6,0.3,0.9c0.2,0.5,0.4,1,0.7,1.4c0.3,0.4,0.6,0.7,0.9,1c0.6,0.4,1.2,0.8,1.9,1
			c0.7,0.3,1.5,0.4,2.2,0.6c0.9,0.2,1.8,0.2,2.7,0.2c0.9,0,1.7-0.2,2.5-0.5c0.4-0.1,0.8-0.3,1.2-0.5c0.5-0.2,0.9-0.5,1.3-0.9
			c0.7-0.6,1.3-1.2,1.8-2c0.2-0.3,0.4-0.5,0.6-0.8c0.3-0.4,0.5-0.9,0.6-1.4c0.3-0.7,0.5-1.5,0.7-2.2c0.3-1.5,0.5-3.1,0.5-4.7
			c0-0.3,0-0.5,0-0.8c0-0.5-0.2-0.9-0.5-1.3c-0.4-0.3-0.8-0.5-1.3-0.5c-0.7-0.1-1.4-0.1-2-0.2c-1-0.1-2.1,0-3.1,0.1
			c0.1,0.2,0.1,0.5,0.2,0.7c0.2,0.7,0.3,1.4,0.3,2.1c0,0.1,0,0.3,0,0.4c1-0.1,2.1-0.1,3.1,0c0,0.7-0.1,1.4-0.2,2.1
			c-0.2,1.2-0.5,2.3-0.9,3.5c-0.2,0.4-0.5,0.9-0.8,1.3c-0.4,0.5-0.9,1-1.4,1.4c-0.2,0.1-0.4,0.3-0.7,0.4c-0.5,0.2-1.1,0.4-1.7,0.5
			c-0.7,0.1-1.4,0.1-2.1,0c-0.8-0.1-1.5-0.3-2.3-0.6c-0.2-0.1-0.4-0.2-0.6-0.3c-0.1-0.1-0.2-0.1-0.2-0.2c-0.1-0.2-0.3-0.4-0.4-0.6
			c-0.2-0.4-0.3-0.9-0.4-1.4c-0.1-1.9,0-3.7,0.1-5.6c0.1-1.9,0.2-3.9,0.4-5.8c0.1-1.3,0.4-2.6,0.8-3.9c0.2-0.3,0.4-0.7,0.6-1
			c0.2-0.2,0.4-0.4,0.6-0.6c0.2-0.1,0.4-0.3,0.6-0.4c0.1,0,0.2-0.1,0.2-0.1c0.1,0,0.2,0,0.4,0c0.2,0.1,0.5,0.1,0.7,0.2
			c0.2,0.1,0.4,0.2,0.6,0.3c0.1,0.1,0.2,0.2,0.3,0.3c0.1,0.1,0.2,0.3,0.3,0.4c0,0.1,0.1,0.2,0.1,0.4c0.1,0.8,0,1.6,0.1,2.4
			c0.2,0,0.3-0.1,0.5-0.1c0.3-0.1,0.7-0.2,1-0.2c0.6-0.1,1.1-0.2,1.7-0.3h0c0-0.5,0-1,0-1.5c0-0.7-0.2-1.4-0.5-2.1
			c-0.6-1.4-1.8-2.4-3.3-2.8c-0.4-0.1-0.8-0.2-1.2-0.2c-0.1,0-0.3,0-0.4,0C323.3,94.5,322.7,94.6,322.1,94.9L322.1,94.9z"/>
		<path id="パス_454" d="M340.1,99.2c-0.6,0-1.2,0.1-1.8,0.2c-0.3,0-0.6,0-0.8-0.2c-0.1,0.4-0.1,0.7-0.1,1.1
			c-0.1,0.9-0.1,1.9-0.1,2.8c-0.1,1.7,0,3.4-0.1,5.1c0,1.6,0.1,3.3,0.2,4.9c0,1.7,0,3.4,0.2,5.1c0,0.2,0.1,0.3,0.1,0.5v0h0
			c0.2,0,0.3-0.1,0.5-0.1l0.6-0.1c0.4-0.1,0.9-0.2,1.3-0.3c0.1,0,0.2,0,0.3-0.1c0.1-0.2,0.3-0.4,0.4-0.5c0-0.1,0-0.2-0.1-0.3
			c-0.1-1.4-0.1-2.8-0.1-4.2c0-1.5-0.2-3.1-0.2-4.6s0-3.1,0-4.6c0-1.5,0.1-3.1,0.3-4.6c0-0.1,0-0.1,0-0.2
			C340.5,99.1,340.3,99.1,340.1,99.2L340.1,99.2z"/>
		<path id="パス_455" d="M349.9,107.4c-0.8,0-1.6,0.1-2.5,0.2c-0.9,0.1-1.9,0.2-2.8,0.2c-1.1,0-2.1,0.1-3.2,0.2
			c-1.1,0.1-2.2,0.1-3.3,0.2c-0.4,0-0.8,0.2-1.1,0.5c-0.6,0.6-0.6,1.7,0,2.3c0,0,0,0,0,0c0.3,0.3,0.7,0.5,1.1,0.5
			c1.1-0.1,2.1-0.1,3.2-0.2s2.1-0.1,3.2-0.2c1,0,2-0.1,2.9-0.2c0.8-0.1,1.7-0.2,2.5-0.2c0.4,0,0.8-0.2,1.1-0.5
			c0.6-0.6,0.6-1.7,0-2.3C350.8,107.5,350.4,107.4,349.9,107.4C350,107.4,349.9,107.4,349.9,107.4L349.9,107.4z"/>
		<path id="パス_456" d="M352,95.2c-0.7,0.1-1.4,0.1-2,0.2c-0.4,0-0.8,0-1.2,0c0.3,3.3,0.7,6.5,0.9,9.8c0.1,1.7,0.1,3.4,0.1,5.1
			c0,1.6,0,3.1-0.2,4.7c-0.1,1.3-0.2,2.7-0.2,4c0,1.2,0.1,2.4,0.2,3.6c0,0.1,0,0.2,0,0.3c0.1,0,0.2,0,0.4,0c0.3,0,0.6,0,0.9,0
			c0.4-0.2,0.9-0.2,1.3-0.2c0.2,0,0.4,0,0.6,0h0.1c0,0,0-0.1,0-0.1c-0.1-1.5-0.2-2.9-0.1-4.4c0-1.6,0.2-3.3,0.3-4.9
			c0.1-1.6,0.1-3.2,0-4.8c0-1.7-0.1-3.4-0.2-5.1c-0.1-1.4-0.2-2.8-0.4-4.2C352.2,97.9,352.1,96.6,352,95.2
			C352,95.2,352,95.2,352,95.2L352,95.2z"/>
		<path id="パス_457" d="M359.7,98.2c-0.3,0.3-0.5,0.7-0.5,1.1c-0.2,1.3-0.2,2.7-0.3,4s-0.2,2.7-0.3,4c-0.1,2.4-0.1,4.9-0.1,7.4
			v0.5c0,0.3,0.1,0.7,0.3,0.9h0.2c0.3,0,0.6,0,0.8,0c0.5,0,1.1,0,1.6,0c0.2-0.3,0.3-0.6,0.3-0.9c0-2.6,0-5.2,0.1-7.8
			c0.1-1.4,0.2-2.7,0.3-4s0.1-2.7,0.3-4c0-0.4-0.2-0.8-0.5-1.1C361.4,97.6,360.4,97.5,359.7,98.2C359.7,98.2,359.7,98.2,359.7,98.2
			L359.7,98.2z"/>
		<path id="パス_458" d="M361.6,98.3c-0.4,0.1-0.8,0.4-1,0.7c-0.2,0.4-0.3,0.8-0.2,1.3c0.6,2.7,1.5,5.4,2.7,7.9
			c0.3,0.5,0.6,1.1,1,1.6c0.4,0.6,0.8,1.1,1.1,1.7c0.3,0.5,0.6,0.9,0.9,1.4c0.4,0.6,0.6,1.3,1,2c0.5,0.8,1.4,1,2.2,0.6
			c0.4-0.2,0.6-0.6,0.7-1c0.1-0.4,0-0.9-0.2-1.3c-0.4-0.8-0.7-1.5-1.1-2.3c-0.3-0.6-0.7-1.2-1.1-1.8c-0.4-0.6-0.8-1.2-1.2-1.9
			c-0.4-0.6-0.7-1.3-1-1.9c-0.4-0.9-0.7-1.8-1-2.7c-0.3-1-0.6-2.1-0.8-3.2c-0.2-0.7-0.9-1.2-1.6-1.2
			C361.8,98.3,361.7,98.3,361.6,98.3L361.6,98.3z"/>
		<path id="パス_459" d="M367.7,95.4c-0.2,0-0.3,0.1-0.5,0.1v0c-0.1,0.8-0.2,1.6-0.2,2.3c0,0.4,0,0.8,0,1.2c0,0.8,0.1,1.5,0.1,2.3
			c0,1.6,0.1,3.2,0.1,4.7c0,1.4,0,2.8,0.1,4.2c0.1,1.5,0,2.9,0.2,4.4c0,0.4,0.2,0.8,0.5,1.2c0.6,0.6,1.7,0.6,2.3,0
			c0.3-0.3,0.5-0.7,0.5-1.2c-0.1-1.4-0.1-2.9-0.2-4.3c-0.1-1.4-0.1-2.8-0.1-4.2c0-1.6,0-3.2-0.1-4.7c0-0.8,0-1.5-0.1-2.3
			c0-0.4,0-0.8,0-1.2c0-0.6,0-1.1,0.1-1.7c-0.2-0.1-0.3-0.3-0.4-0.5c0,0-0.1,0-0.1,0c-0.3-0.1-0.6-0.2-0.9-0.3c-0.2,0-0.3,0-0.5,0
			c-0.2,0-0.3,0-0.5-0.1C367.9,95.4,367.8,95.4,367.7,95.4L367.7,95.4z"/>
		<path id="パス_460" d="M377.4,101.2c-0.1,0-0.1,0-0.2,0c-0.2,1.8-0.3,3.6-0.3,5.3c-0.1,1.6-0.1,3.2,0.1,4.7
			c0,0.4,0.1,0.8,0.2,1.2c0.1,0.3,0.2,0.5,0.3,0.8c0.2,0.3,0.4,0.7,0.6,1c0.5,0.8,1.1,1.5,1.8,2.1c0.5,0.4,1.1,0.8,1.7,1
			c0.4,0.2,0.9,0.3,1.4,0.3c0.7,0.1,1.3,0,2-0.3c0.4-0.2,0.9-0.4,1.3-0.6c0.7-0.4,1.2-1,1.7-1.6c0.3-0.5,0.6-1.1,0.8-1.7
			c0.5-1.2,0.9-2.5,1-3.9c0.1-1.1,0.2-2.3,0.2-3.4c0-0.5,0-1.1-0.1-1.6c-0.1-0.5-0.1-1-0.1-1.5h-0.3c-0.1,0-0.3,0-0.4,0h-0.2
			c-0.1,0-0.1,0-0.2,0h-1.4c-0.2,0-0.4,0-0.7-0.1c0,0,0,0,0,0.1c0,0.5,0,1.1,0.1,1.6c0.1,0.6,0.1,1.1,0.1,1.7c0,1.1-0.1,2.1-0.2,3.2
			c-0.2,1.1-0.5,2.2-1,3.2c-0.1,0.3-0.3,0.6-0.5,0.9c-0.1,0.1-0.2,0.2-0.4,0.4c-0.2,0.1-0.4,0.3-0.6,0.4c-0.2,0.1-0.3,0.1-0.5,0.2
			c-0.1,0-0.2,0-0.3,0c-0.2,0-0.4-0.1-0.5-0.1c-0.1-0.1-0.2-0.1-0.3-0.2c-0.4-0.3-0.7-0.6-1-1c-0.4-0.5-0.7-1-0.9-1.5
			c-0.1-0.2-0.1-0.4-0.2-0.6c-0.1-0.7-0.1-1.3-0.1-2c0-0.8,0-1.6,0-2.4c0-1.8,0.1-3.6,0.3-5.4c-0.3,0-0.5,0-0.8,0
			C379,101.2,378.2,101.2,377.4,101.2L377.4,101.2z"/>
		<path id="パス_461" d="M390.5,92.8c-0.1,1.1-0.1,2.2-0.1,3.3c1.8,0.5,3.6,1,5.4,1.4c1.1,0.2,2.2,0.4,3.3,0.6c1,0.1,2,0.2,3,0.3
			c1,0.1,1.9,0.3,2.9,0.5c0.6,0.1,1.1,0.3,1.7,0.4c0.6,0.1,1.3,0.2,1.9,0.3c0-0.2,0-0.4,0-0.5c0-0.3,0-0.6,0-0.8
			c0-0.6,0-1.1,0.1-1.7c0,0,0-0.1,0-0.1l0,0l-0.3,0c-0.7-0.1-1.4-0.3-2-0.4c-0.7-0.2-1.4-0.3-2.2-0.4c-1.5-0.3-3.1-0.4-4.6-0.6
			c-1.4-0.2-2.8-0.5-4.1-0.8c-1.4-0.3-2.8-0.7-4.2-1.1c-0.1,0-0.3-0.1-0.4-0.1C390.6,92.8,390.6,92.8,390.5,92.8L390.5,92.8z"/>
		<path id="パス_462" d="M395.4,96c0,0.7-0.1,1.3-0.1,2c0,0.6,0.1,1.2,0.1,1.8c0.1,1.4,0.3,2.8,0.6,4.2c0.4,2.5,1,4.9,1.4,7.3
			c0.2,2,0.3,4.1,0.2,6.1c0,0.2,0,0.4,0.1,0.6c1-0.1,2-0.1,3-0.2h0c0-0.1,0.1-0.3,0.1-0.4c0-1.3,0-2.6,0-3.9
			c-0.1-1.5-0.2-2.9-0.5-4.3c-0.2-1.4-0.6-2.8-0.8-4.2c-0.3-1.3-0.5-2.7-0.7-4c-0.1-0.8-0.2-1.6-0.2-2.3c0-0.9,0-1.8,0-2.7
			c0-0.9-0.7-1.6-1.6-1.6S395.4,95.1,395.4,96L395.4,96z"/>
	</g>
</g>
</svg>
