<?xml version="1.0" encoding="utf-8"?>
<!-- Generator: Adobe Illustrator 24.2.0, SVG Export Plug-In . SVG Version: 6.00 Build 0)  -->
<svg version="1.1" id="レイヤー_1" xmlns="http://www.w3.org/2000/svg" xmlns:xlink="http://www.w3.org/1999/xlink" x="0px"
	 y="0px" viewBox="0 0 118 60" style="enable-background:new 0 0 118 60;" xml:space="preserve">
<g id="グループ_751" transform="translate(-897.544 -106.326)">
	<path id="パス_675" d="M937.3,153.4l0.6-0.2c-0.3-0.8-0.7-1.5-1.2-2.2l-1,0.4c0.4,0.5,0.8,1.1,1,1.8c-0.2,0-0.5,0-0.7,0l-3.1,0
		c-0.3,0-0.5,0-0.7,0l0.1-0.2c0-0.1,0-0.1,0.1-0.2c0.1-0.3,0.3-0.6,0.4-0.8c0.1-0.2,0.1-0.3,0.2-0.4l-1.9-0.4
		c-0.1,0.7-0.4,1.3-0.7,1.9c-0.9,1.6-2.1,3-3.6,4.1c0.5,0.3,1,0.7,1.4,1.2c1.3-1,2.4-2.2,3.3-3.6l4.2-0.1c-1,3.5-3.7,6.3-7.2,7.5
		c0.5,0.4,0.9,0.9,1.2,1.5c1.9-0.8,3.6-2,5-3.5c1.3-1.5,2.3-3.3,2.8-5.3c0.1-0.3,0.2-0.6,0.3-0.8L937.3,153.4z M939.8,152.6
		c-0.3-0.8-0.7-1.5-1.2-2.1l-1,0.3c0.5,0.7,0.9,1.4,1.2,2.2L939.8,152.6z M945.2,155.1c0.6,1.1,1,2.2,1.3,3.4l1.6-0.5
		c-0.3-1.2-0.8-2.3-1.4-3.3L945.2,155.1z M948.2,154.5c0.5,1,1,2.1,1.3,3.3l1.5-0.5c-0.3-1.1-0.8-2.2-1.4-3.2L948.2,154.5z
		 M953,154.3c0,0.5-0.1,1.1-0.3,1.6c-0.4,2-1.6,3.7-3.2,4.9c-0.7,0.5-1.5,1-2.4,1.3c0.5,0.4,0.8,0.9,1.1,1.4
		c1.7-0.7,3.2-1.9,4.3-3.4c1-1.4,1.6-3,1.9-4.7c0-0.2,0.1-0.5,0.2-0.7L953,154.3z M971.1,151.3c-0.5,0.3-1.1,0.5-1.7,0.7
		c-2,0.5-4,0.8-6,0.8c-0.2,0-0.4,0-0.9,0c0.2,0.5,0.4,1,0.5,1.5c1.3,0,2.6-0.1,3.9-0.3c0,1,0,1.5,0,2.1h-3.6c-0.6,0-1.1,0-1.7-0.1
		v1.7c0.6-0.1,1.1-0.1,1.7-0.1h3.5c0,0.3-0.1,0.6-0.2,0.9c-0.3,0.9-0.8,1.8-1.6,2.4c-0.6,0.5-1.4,0.9-2.2,1.2
		c0.5,0.4,0.9,0.9,1.2,1.5c0.5-0.2,0.9-0.4,1.3-0.7c0.9-0.6,1.7-1.3,2.3-2.2c0.5-0.9,0.9-2,0.9-3.1h3.1c0.6,0,1.1,0,1.7,0.1V156
		c-0.6,0.1-1.1,0.1-1.7,0.1h-3c0-0.5,0-0.5,0-2.4c0.8-0.1,1.6-0.3,2.3-0.6c1-0.3,1-0.3,1.2-0.4L971.1,151.3z M987.1,161.4
		c0.2-1.3,0.4-2.3,0.6-3.8c0-0.5,0.1-1.1,0.3-1.6l-0.8-0.7c-0.3,0.1-0.7,0.1-1,0.1h-3.5c-0.4,0-0.9,0-1.3-0.1v1.6
		c0.4,0,0.8-0.1,1.2-0.1h3.5c-0.1,1.3-0.4,3.2-0.7,4.5h-4.1c-0.4,0-0.9,0-1.3-0.1v1.6c0.4,0,0.9-0.1,1.3-0.1h7.3
		c0.4,0,0.9,0,1.3,0.1v-1.6c-0.4,0.1-0.9,0.1-1.3,0.1L987.1,161.4z"/>
	<g id="グループ_298" transform="translate(517.061 -185.65)">
		<path id="パス_421" d="M397.6,297.3c-1.9,0.1-3.7,0.4-5.6,0.9c-0.9,0.3-1.7,0.5-2.5,0.8c-0.4,0.2-0.9,0.3-1.3,0.5
			c-0.4,0.1-0.7,0.3-1.1,0.5c-0.7,0.4-1.3,1.1-1.8,1.8c-0.3,0.4-0.5,0.8-0.7,1.3c-0.4,0.8-0.8,1.7-1.1,2.6c-0.5,1.7-0.9,3.5-1.1,5.3
			c-0.1,0.8-0.1,1.7-0.1,2.5c0,0.7,0.2,1.4,0.4,2c0.2,0.5,0.4,1.1,0.6,1.6c0.4,0.8,0.9,1.6,1.5,2.3c0.6,0.7,1.4,1.3,2.1,1.8
			c1.4,1,2.9,1.8,4.6,2.4c1.7,0.5,3.4,0.9,5.2,1c0.8,0.1,1.7,0.1,2.5,0.1c0.5,0,1.1-0.1,1.6-0.2c0.4-0.1,0.9-0.2,1.3-0.3
			c0.9-0.2,1.7-0.6,2.5-1c0.6-0.3,1.1-0.7,1.6-1.1c0.6-0.5,1-1,1.5-1.6c0.7-0.9,1.2-1.9,1.4-2.9c0.2-1,0.3-2,0.3-2.9
			c0-0.6,0-1.2-0.1-1.8c-0.1-0.7-0.2-1.5-0.5-2.2c-0.1-0.3-0.4-0.7-0.6-0.9c-0.4-0.3-0.8-0.6-1.3-0.7c-0.5-0.2-1.1-0.4-1.6-0.4
			c-1,0-2.1,0-3.1,0c-1,0-2,0.1-2.9,0.2c-0.8,0.1-1.5,0.2-2.3,0.3c0,0.6,0,1.2,0,1.8c0,0.5,0,1.1,0,1.6v0.1c0.2,0,0.3-0.1,0.5-0.1
			c0,0-0.1,0-0.1,0.1c0.5-0.1,0.9-0.2,1.4-0.3c1.1-0.1,2.2-0.2,3.3-0.3c1.1-0.1,2.2-0.1,3.4,0c0.2,0,0.3,0.1,0.5,0.2
			c-0.1-0.1-0.3-0.1-0.4-0.2c0.1,0.1,0.3,0.1,0.4,0.2c0.1,0.2,0.1,0.4,0.1,0.6c0.1,0.5,0.1,0.9,0.1,1.4c0,0.6,0,1.3-0.1,1.9
			c-0.1,0.5-0.2,1-0.3,1.5c-0.2,0.4-0.4,0.7-0.6,1c-0.3,0.4-0.7,0.8-1.1,1.1c-0.5,0.4-1.1,0.7-1.7,0.9c-0.4,0.2-0.9,0.3-1.3,0.4
			c-0.5,0.1-0.9,0.2-1.4,0.3c-1.4,0.1-2.8,0-4.2-0.2c-1.1-0.2-2.3-0.5-3.4-0.9c-0.6-0.3-1.3-0.6-1.9-0.9c-0.6-0.4-1.3-0.8-1.9-1.2
			c-0.4-0.3-0.7-0.6-1-1c-0.4-0.5-0.7-1.1-1-1.7c-0.2-0.5-0.3-1-0.4-1.5c-0.1-0.5-0.1-1.1,0-1.6c0-0.5,0.1-1,0.1-1.5
			c0.1-0.8,0.3-1.7,0.5-2.5c0.2-0.8,0.4-1.5,0.7-2.3c0.4-0.8,0.8-1.7,1.3-2.4c0.1-0.1,0.2-0.2,0.3-0.3c0.3-0.2,0.6-0.3,0.9-0.5
			c1-0.4,2-0.7,3-1c0.5-0.2,1.1-0.3,1.6-0.5c0.6-0.1,1.2-0.2,1.8-0.3c0.3,0,0.6-0.1,0.9-0.1c0.5,0,1.1,0,1.6,0
			c0.9,0,1.9,0.1,2.8,0.2c0.3,0.1,0.6,0.1,0.9,0.2c0.1,0.1,0.2,0.1,0.4,0.2c0.2-0.2,0.5-0.5,0.7-0.7c0.3-0.4,0.7-0.8,1-1.2
			c0.2-0.2,0.4-0.5,0.5-0.7c-0.8-0.5-1.8-0.9-2.8-1.1c-0.6-0.1-1.2-0.1-1.8-0.2c-0.6,0-1.3-0.1-2-0.1
			C398,297.2,397.8,297.2,397.6,297.3L397.6,297.3z M389.9,302.4c-0.1,0-0.1,0-0.2,0.1C389.8,302.5,389.9,302.5,389.9,302.4z
			 M406.1,315.5c0,0,0,0.1,0,0.1C406.1,315.5,406.1,315.5,406.1,315.5z"/>
		<path id="パス_422" d="M416.7,301.9c-0.3,0.1-0.5,0.2-0.7,0.3c-0.2,0.1-0.4,0.3-0.6,0.5c-0.2,0.2-0.3,0.4-0.5,0.6
			c-0.2,0.2-0.3,0.5-0.5,0.7c-0.4,0.9-0.8,1.8-1,2.7c-0.1,0.4-0.2,0.9-0.3,1.3c-0.2,1.1-0.4,2.1-0.4,3.2c0.2,1.8,1,3.4,2.3,4.6
			c1.5,1.2,3.4,1.8,5.3,1.6c0.7,0,1.5-0.2,2.1-0.5c0.9-0.4,1.7-0.9,2.4-1.6c0.6-0.5,1.2-1.1,1.8-1.7c0.9-0.9,1.5-2,1.8-3.2
			c0.4-2-0.7-3.6-1.9-5c-0.7-0.9-1.6-1.6-2.5-2.1c-1.1-0.5-2.3-0.8-3.5-0.8c-0.2,0-0.3,0-0.5,0c-0.3-0.4-0.8-0.6-1.3-0.6
			c-0.2,0-0.4,0-0.7,0c-0.1,0-0.2,0-0.3,0C417.5,301.8,417.1,301.9,416.7,301.9L416.7,301.9z M421.2,305.9c0.4,0.1,0.8,0.1,1.2,0.3
			c0.2,0.1,0.4,0.2,0.6,0.4c0.5,0.4,1,0.9,1.4,1.5c0.2,0.3,0.5,0.7,0.6,1c0.1,0.2,0.1,0.3,0.1,0.5c0,0.1,0,0.1,0,0.2
			c0,0.1-0.1,0.2-0.1,0.4c-0.1,0.3-0.3,0.6-0.5,0.8c-0.8,0.9-1.6,1.7-2.5,2.5c-0.2,0.2-0.5,0.3-0.7,0.4c-0.3,0.1-0.6,0.2-0.9,0.3
			c-0.5,0-1,0-1.5-0.1c-0.4-0.1-0.7-0.2-1.1-0.3c-0.1-0.1-0.2-0.1-0.4-0.2c-0.3-0.2-0.5-0.5-0.7-0.7c-0.1-0.2-0.2-0.4-0.3-0.6
			c-0.1-0.3-0.2-0.6-0.3-1c0-0.4,0-0.8,0.1-1.3c0.2-1.2,0.4-2.4,0.8-3.6c0.4,0,0.9-0.1,1.2-0.3l0,0c0.2,0,0.3-0.1,0.5-0.1
			C419.6,305.8,420.4,305.8,421.2,305.9L421.2,305.9z"/>
		<path id="パス_423" d="M435.2,302.2l-0.8,0.1c-1.3,0.3-2.5,1-3.4,2c-0.5,0.5-0.9,1.1-1.2,1.8c-0.2,0.4-0.3,0.8-0.4,1.2
			c-0.1,0.6-0.1,1.3,0,1.9c0.2,1.6,1,3,2.1,4.1c0.7,0.7,1.5,1.1,2.5,1.4c0.7,0.2,1.3,0.3,2,0.4c0.8,0,1.6-0.1,2.4-0.3
			c0.7-0.2,1.4-0.6,2-1c0.5-0.3,1-0.7,1.4-1.1c0.5-0.6,0.9-1.2,1.2-2c0.2-0.6,0.3-1.2,0.3-1.8c0-0.3-0.1-0.7-0.2-1
			c-0.1-0.3-0.2-0.6-0.4-0.9c-0.3-0.5-0.6-1-1-1.5c-0.6-0.6-1.2-1.1-2-1.5c-0.8-0.4-1.7-0.6-2.7-0.7l-0.1,0c0,0,0,0,0-0.1
			c-0.1-0.4-0.4-0.8-0.8-1c-0.2-0.1-0.5-0.2-0.8-0.2C435.5,302.1,435.3,302.1,435.2,302.2L435.2,302.2z M433.9,306.2
			c0,0,0.1,0.1,0.1,0.1c0.3,0.3,0.7,0.5,1.2,0.5c0.7-0.1,1.4-0.1,2.2,0c0.3,0.1,0.6,0.1,0.9,0.3c0.3,0.1,0.6,0.3,0.8,0.5
			c0.2,0.2,0.4,0.4,0.6,0.5c0.1,0.2,0.2,0.4,0.3,0.5c0,0.1,0.1,0.2,0.1,0.4c0,0.1,0,0.1,0,0.2c0,0.2-0.1,0.4-0.2,0.5
			c-0.1,0.2-0.2,0.4-0.3,0.5c-0.2,0.2-0.3,0.3-0.5,0.5c-0.4,0.3-0.9,0.5-1.3,0.8c-0.4,0.1-0.8,0.2-1.2,0.3c-0.3,0-0.6,0-0.8,0
			c-0.4-0.1-0.8-0.2-1.2-0.3c-0.2-0.1-0.4-0.2-0.6-0.3c-0.2-0.2-0.4-0.4-0.5-0.6c-0.2-0.3-0.4-0.6-0.5-0.9c-0.1-0.3-0.2-0.6-0.3-1
			c0-0.2,0-0.5,0-0.7c0-0.1,0.1-0.3,0.1-0.4c0.1-0.3,0.3-0.5,0.5-0.8C433.5,306.6,433.7,306.4,433.9,306.2L433.9,306.2z"/>
		<path id="パス_424" d="M450.9,299.1c-1.1,0.5-2,1.4-2.6,2.4c-0.6,1.3-1,2.7-1,4.1c-0.1,0.8-0.1,1.6-0.1,2.4c0,0.8-0.1,1.6,0,2.5
			c0.1,0.9,0.2,1.8,0.3,2.7c0.1,0.7,0.3,1.4,0.5,2.2c0.5,1.7,1.8,3.2,3.4,4c0.9,0.4,1.8,0.7,2.7,0.9c0.9,0.2,1.9,0.3,2.9,0.4
			c0.4,0,0.8,0,1.3,0c0.4,0,0.7-0.1,1-0.2c0.4-0.1,0.9-0.3,1.2-0.6c0.7-0.4,1.3-1,1.8-1.6c-0.2-0.2-0.4-0.4-0.6-0.6
			c-0.2-0.2-0.3-0.5-0.5-0.7c-0.1-0.1-0.1-0.2-0.2-0.2c0,0-0.1-0.1-0.1-0.2c-0.3-0.3-0.5-0.7-0.8-1c0,0-0.1-0.1-0.1-0.1
			c0,0.1,0,0.2-0.1,0.2c-0.1,0.2-0.2,0.4-0.3,0.5c-0.2,0.2-0.4,0.4-0.5,0.5c-0.2,0.2-0.4,0.3-0.7,0.4c-0.1,0-0.2,0.1-0.4,0.1
			c-0.7,0-1.3,0-2-0.1c-1-0.2-2-0.4-3-0.8c-0.3-0.1-0.6-0.3-0.9-0.5c-0.2-0.1-0.3-0.3-0.5-0.5c-0.2-0.3-0.4-0.6-0.5-0.9
			c-0.4-1-0.6-2.1-0.8-3.2c-0.1-1-0.1-2.1-0.1-3.2c0-1,0.1-2,0.2-3.1c0.1-0.6,0.2-1.2,0.4-1.8c0.1-0.4,0.4-0.7,0.7-0.9
			c0.4-0.3,0.8-0.5,1.2-0.7c0.2-0.1,0.4-0.1,0.6-0.2c0.3,0,0.6,0,0.9,0c0.8,0.1,1.5,0.3,2.3,0.6c0.6,0.3,1.1,0.6,1.6,1
			c0.3,0.3,0.6,0.5,0.9,0.8c0.1,0.1,0.3,0.2,0.4,0.3c0.1-0.2,0.1-0.4,0.2-0.5c0-0.1,0.1-0.1,0.1-0.2c0-0.7,0-1.3,0-2
			c0-0.4,0-0.8,0-1.2c-0.2-0.2-0.5-0.3-0.7-0.5c-0.8-0.5-1.7-0.9-2.6-1.1c-0.9-0.3-1.8-0.4-2.7-0.5c-0.1,0-0.1,0-0.2,0
			C452.8,298.3,451.8,298.6,450.9,299.1L450.9,299.1z"/>
		<path id="パス_425" d="M466,300c-0.4,0.1-0.7,0.2-1.1,0.3c-0.2,0-0.3,0.1-0.5,0.1c-0.5,0.3-1,0.3-1.5,0.2c0.3,1,0.4,2,0.6,3
			c0.2,1.6,0.3,3.2,0.5,4.7c0.1,0.9,0.2,1.8,0.4,2.8c0.1,0.7,0.3,1.4,0.4,2.1c0,0.2,0,0.4,0.1,0.6c0.5-0.1,1-0.1,1.4-0.2
			c0.6-0.1,1.3-0.1,1.9-0.1c0-0.1,0-0.2,0-0.2c-0.2-1.3-0.4-2.6-0.6-4c-0.2-1.7-0.3-3.4-0.5-5.1c-0.1-1-0.3-2-0.4-3.1
			c-0.1-0.4-0.1-0.7-0.2-1c0,0,0,0,0,0l0.1-0.1L466,300L466,300z"/>
		<path id="パス_426" d="M474.8,304.1c-0.1,0-0.2,0-0.3,0.1c-1.2,0.1-2.5,0.1-3.7,0.1c-0.7,0-1.5,0.1-2.2,0.1
			c-0.5,0-1,0.1-1.6,0.2c-0.7,0.1-1.3,0.3-1.9,0.6c-0.1,0.1-0.3,0.1-0.4,0.2c-0.8,0.5-1.1,1.5-0.6,2.3c0.1,0.3,0.4,0.5,0.6,0.6
			c0.4,0.2,0.9,0.3,1.3,0.2l0.6-0.3c0.4-0.2,0.9-0.3,1.3-0.3c1.2-0.1,2.4-0.2,3.7-0.2c1.3,0,2.7,0,4-0.3c0.9-0.3,1.4-1.2,1.2-2.1
			c-0.2-0.7-0.9-1.2-1.6-1.2C475.1,304.1,474.9,304.1,474.8,304.1L474.8,304.1z"/>
		<path id="パス_427" d="M477.5,294.7c-0.5,0-0.9,0.1-1.4,0.1c-0.6,0.1-1.2,0.1-1.8,0.2c0,0.9-0.1,1.8,0,2.7
			c0,0.8,0.1,1.6,0.1,2.4c0,1.7,0,3.4,0,5.1c0,1.7,0,3.5-0.1,5.2c-0.1,1.7-0.2,3.4-0.3,5.1c0,0.7,0,1.4,0,2.1c0.1,0,0.3,0,0.4-0.1
			s0.3,0,0.4,0c0.1,0,0.1,0,0.2,0c0.1,0,0.2-0.1,0.3-0.1c0.4-0.1,0.7-0.1,1.1-0.2c0.3,0,0.5-0.1,0.8-0.1h0.1c0-0.6,0-1.2,0-1.8
			c0-1.7,0.1-3.4,0.3-5.1c0.1-1.7,0.1-3.4,0.1-5.1c0-1.7,0-3.4,0-5.1c0-0.8,0-1.5-0.1-2.3c0-0.9,0-1.8,0-2.7c0-0.1,0-0.2,0-0.3
			C477.6,294.6,477.5,294.7,477.5,294.7L477.5,294.7z"/>
		<path id="パス_428" d="M495.9,300.8c-0.7,0.1-1.4,0.3-2.1,0.4c-0.3,0.1-0.7,0.1-1,0c0,0.5,0.1,0.9,0.2,1.4c0.1,1,0.2,2,0.3,3
			c0,1.1-0.1,2.2-0.2,3.3c-0.1,1.1-0.6,2.2-1.3,3.1c-0.2,0.2-0.4,0.4-0.5,0.6c0,0-0.1,0-0.1,0.1c-0.2,0-0.4,0-0.6,0
			c-0.3-0.1-0.6-0.1-0.9-0.2c-0.3-0.1-0.6-0.3-0.8-0.5c-0.3-0.3-0.6-0.6-0.9-0.9c-0.2-0.4-0.5-0.7-0.7-1.1c-0.2-0.5-0.3-1-0.4-1.5
			c-0.1-1.3-0.1-2.6-0.1-4c0-0.8,0.1-1.6,0.1-2.4c-0.5,0.1-0.9,0.2-1.4,0.2c-0.5,0.1-1,0.1-1.4-0.2c-0.2-0.1-0.4-0.3-0.5-0.4
			c-0.1,1.2-0.1,2.4-0.2,3.6c0,0.8,0,1.7,0,2.5c0.1,0.9,0.2,1.9,0.5,2.8c0.2,0.7,0.6,1.5,1,2.1c0.6,0.8,1.4,1.6,2.2,2.2
			c0.7,0.5,1.6,0.8,2.4,1c0.5,0.1,1,0.2,1.6,0.1c1.1-0.1,2.2-0.6,2.9-1.5c0.8-0.9,1.4-2,1.8-3.2c0.4-1.1,0.6-2.3,0.6-3.4
			c0.1-1,0.1-2.1,0.1-3.1c-0.1-1-0.2-2.1-0.4-3.1c0-0.3-0.1-0.6-0.1-0.9L495.9,300.8L495.9,300.8z M491.4,312.6
			c-0.1,0-0.1,0-0.2,0.1L491.4,312.6z"/>
	</g>
</g>
</svg>
