<?xml version="1.0" encoding="utf-8"?>
<!-- Generator: Adobe Illustrator 24.2.0, SVG Export Plug-In . SVG Version: 6.00 Build 0)  -->
<svg version="1.1" id="レイヤー_1" xmlns="http://www.w3.org/2000/svg" xmlns:xlink="http://www.w3.org/1999/xlink" x="0px"
	 y="0px" viewBox="0 0 100 60" style="enable-background:new 0 0 100 60;" xml:space="preserve">
<g id="グループ_751" transform="translate(-156.412 -107.893)">
	<path id="パス_673" d="M163.2,154.6l-0.2-1.2c-0.1-0.4-0.1-0.9-0.2-1.3l-1.8,0.3c0.2,0.4,0.3,0.9,0.3,1.3l0.2,1.2l-2.6,0.4
		c-0.5,0.1-1,0.1-1.5,0.2l0.3,1.7c0.5-0.1,1-0.2,1.5-0.3l2.6-0.4l0.4,2.3l-3.4,0.5c-0.5,0.1-1,0.1-1.5,0.1l0.3,1.7
		c0.5-0.1,0.9-0.2,1.4-0.3l3.5-0.5l0.5,2.8c0.1,0.5,0.2,1,0.2,1.5l1.9-0.3c-0.2-0.5-0.3-1-0.3-1.5l-0.5-2.7l3.3-0.5l0.6-0.1l0.2,0
		c0.2,0,0.4-0.1,0.6-0.1l-0.3-1.7c-0.5,0.1-1,0.3-1.5,0.3l-3.3,0.5l-0.4-2.3l3-0.5l0.8-0.1l0.1,0c0.2,0,0.2,0,0.4,0l-0.2-1.2
		l0.7-0.3c-0.3-0.8-0.7-1.5-1.2-2.2l-1,0.4c0.4,0.6,0.8,1.2,1.1,1.8c-0.2,0-0.6,0.1-0.9,0.2L163.2,154.6z M170,153.3
		c-0.3-0.8-0.7-1.5-1.2-2.1l-1,0.4c0.5,0.7,0.9,1.4,1.2,2.2L170,153.3z M185.1,153c-0.5,0.1-1,0.2-1.5,0.1h-6.4
		c-0.6,0-1.2,0-1.8-0.1v1.8c0.6-0.1,1.2-0.1,1.8-0.1h6.7c-0.5,2.5-2.1,4.7-4.2,6.1c-0.9,0.6-2,1.1-3.1,1.4c0.5,0.5,0.9,1,1.2,1.7
		c2-0.8,3.8-2,5.2-3.6c1.4-1.7,2.4-3.7,2.9-5.9c0-0.2,0.1-0.4,0.2-0.6L185.1,153z M196.7,164c0-0.5-0.1-1-0.1-1.6v-3.7
		c0-0.3,0-0.6-0.1-1c0.2,0.1,0.3,0.2,0.5,0.2c1.7,0.8,3.4,1.6,5,2.7l1-1.7c-2-1.2-4.2-2.2-6.4-3v-2.6c0-0.5,0-1,0.1-1.5h-1.9
		c0.1,0.5,0.1,1,0.1,1.4v9c0,0.5,0,1-0.1,1.6H196.7z M220.5,154.5c-0.3,0.2-0.7,0.2-1.1,0.2l-5.1,0.6v-1.8c0-0.4,0-0.9,0.1-1.3h-1.9
		c0.1,0.4,0.1,0.9,0.1,1.3v1.9l-1.5,0.2c-0.4,0.1-0.8,0.1-1.2,0.1c-0.1,0-0.2,0-0.3,0l0.2,1.7c0.5-0.1,1-0.2,1.6-0.3l1.3-0.2v3.2
		c-0.1,0.6,0,1.2,0.1,1.8c0.2,0.6,0.6,1.1,1.2,1.3c0.8,0.2,1.7,0.3,2.5,0.2c1.2,0,2.3-0.1,3.5-0.2c0.3,0,0.6-0.1,0.9-0.1l-0.1-1.9
		c-1.4,0.4-2.8,0.6-4.3,0.5c-1.4,0-1.9-0.2-2-0.7c-0.1-0.4-0.1-0.8-0.1-1.2v-3.2c1.5-0.2,2.9-0.4,4.3-0.6c0.2,0,0.3,0,0.5-0.1
		c-0.3,0.4-0.3,0.5-0.5,0.8c-0.6,0.8-1.4,1.5-2.3,2c0.5,0.3,1,0.7,1.4,1.1c1.5-1,2.7-2.4,3.4-4.1c0.1-0.2,0.2-0.5,0.4-0.7
		L220.5,154.5z M228.4,155.8c0.6,1.1,1,2.2,1.3,3.4l1.6-0.5c-0.3-1.2-0.8-2.3-1.4-3.3L228.4,155.8z M231.4,155.2
		c0.5,1,1,2.1,1.3,3.3l1.6-0.5c-0.3-1.1-0.8-2.2-1.4-3.2L231.4,155.2z M236.2,155c0,0.5-0.1,1.1-0.3,1.6c-0.4,2-1.6,3.7-3.2,4.9
		c-0.7,0.5-1.5,1-2.4,1.3c0.5,0.4,0.8,0.9,1.1,1.4c1.7-0.7,3.2-1.9,4.3-3.4c1-1.4,1.6-3,1.9-4.7c0-0.2,0.1-0.5,0.2-0.7L236.2,155z
		 M249.2,164c0-0.5-0.1-1-0.1-1.6v-3.7c0-0.3,0-0.6-0.1-1c0.2,0.1,0.3,0.2,0.5,0.2c1.7,0.8,3.4,1.6,5,2.7l1-1.7
		c-2-1.2-4.2-2.2-6.4-3v-2.6c0-0.5,0-1,0.1-1.5h-1.9c0.1,0.5,0.1,1,0.1,1.4v9c0,0.5,0,1-0.1,1.6H249.2z"/>
	<g id="グループ_301" transform="translate(-194.855 -250.755)">
		<path id="パス_442" d="M424.6,365.4c-0.1,0.8-0.2,1.7-0.2,2.5c0,0,0,0,0.1,0c2.6,0.2,5.2,0.2,7.9,0.2c1.2,0,2.3,0,3.5,0.1
			c1,0.1,2.1,0.1,3.1,0.2c0.2,0,0.4,0,0.6-0.1c0-0.3,0-0.7,0-1c0-0.5,0.1-1,0.1-1.5c0-0.3,0-0.7,0-1c-0.2-0.1-0.5-0.2-0.8-0.2
			c-1,0-2-0.1-3-0.1c-1.2-0.1-2.5-0.1-3.7-0.1c-2.5,0-5,0-7.4-0.2C424.7,364.5,424.6,364.9,424.6,365.4L424.6,365.4z"/>
		<path id="パス_443" d="M380.7,362.2c-0.9-0.2-1.8-0.2-2.6-0.2c-1.1,0-2.1,0.1-3.2,0.4c-1,0.2-2,0.5-3,0.8c-1,0.4-2,0.8-3,1.3
			c-0.8,0.4-1.6,0.8-2.3,1.4c-0.4,0.3-0.8,0.6-1.1,1c-0.4,0.4-0.7,0.9-1,1.4c-0.3,0.6-0.6,1.3-0.9,1.9c-0.4,0.9-0.6,1.9-0.9,2.8
			c-0.2,1.1-0.3,2.2-0.3,3.3c0,1,0.1,2,0.4,3c0.6,2,1.4,4,2.4,5.8c0.5,0.9,1.1,1.8,1.7,2.6c0.3,0.3,0.6,0.7,0.9,1
			c0.4,0.4,0.9,0.8,1.4,1.2c0.8,0.5,1.6,1,2.5,1.3c0.7,0.3,1.4,0.5,2.1,0.7c0.6,0.1,1.2,0.2,1.8,0.2c0.9,0,1.9-0.1,2.8-0.3
			c0.9-0.2,1.8-0.6,2.6-1c0.4-0.2,0.7-0.4,1-0.7c0.5-0.3,0.9-0.7,1.3-1.1c0.6-0.5,1.1-1.1,1.6-1.8c1-1.4,1.9-2.8,2.8-4.2
			c0.3-0.6,0.8-1.1,1.1-1.7c0.2-0.3,0.4-0.7,0.4-1.1c0-0.2,0-0.4,0.1-0.6c0-0.2,0.1-0.4,0-0.7c0-0.5-0.2-1-0.5-1.4
			c-0.3-0.4-0.5-0.7-0.9-1c-0.5-0.4-1-0.8-1.5-1.1c-0.8-0.4-1.6-0.7-2.5-0.7c-1,0-2.1,0.1-3,0.4c-0.8,0.2-1.6,0.4-2.5,0.5
			c-0.8,0.1-1.5,0.1-2.3,0.2c-0.5,0-1,0.1-1.5,0.1c0,0.5,0.1,1.1,0.1,1.6c0.1,0.6,0.1,1.2,0,1.7c0,0.2-0.1,0.3-0.1,0.5
			c0.5,0,1,0,1.5-0.1c0.8,0,1.6-0.1,2.4-0.2c0.8-0.1,1.7-0.3,2.5-0.4c0.6-0.1,1.2-0.3,1.8-0.4c0.4,0,0.7-0.1,1.1,0
			c0.2,0,0.3,0.1,0.5,0.1c0.3,0.1,0.5,0.3,0.7,0.4c0.1,0.1,0.3,0.2,0.4,0.3c-0.2,0.3-0.3,0.5-0.5,0.8c-0.3,0.5-0.6,1-1,1.5
			c-0.6,1-1.2,2-1.9,2.9c-0.6,0.7-1.2,1.4-2,2c-0.5,0.4-1,0.7-1.6,1c-0.6,0.2-1.2,0.4-1.8,0.6c-0.5,0-1,0.1-1.4,0
			c-0.6-0.1-1.3-0.2-1.9-0.4c-0.8-0.4-1.7-0.8-2.4-1.3c-0.5-0.5-1-1-1.4-1.5c-1-1.4-1.8-2.9-2.4-4.5c-0.4-0.9-0.6-1.9-0.8-2.8
			c-0.1-0.9-0.1-1.8-0.1-2.8c0.2-1.3,0.6-2.7,1.1-3.9c0.2-0.5,0.5-1.1,0.9-1.5c0.2-0.2,0.3-0.4,0.5-0.5c1.1-0.7,2.3-1.4,3.5-1.9
			c0.8-0.3,1.5-0.5,2.3-0.8c0.7-0.2,1.4-0.3,2-0.4c1-0.1,2-0.1,3-0.1c0.9,0.2,1.8,0.5,2.6,0.8c0.5,0.2,1,0.5,1.5,0.7
			c0.1-0.4,0.3-0.8,0.5-1.2c0.3-0.8,0.7-1.5,1.1-2.3c-1-0.5-1.9-0.9-2.9-1.3c-0.4-0.2-0.9-0.3-1.3-0.4
			C380.8,362.3,380.8,362.3,380.7,362.2L380.7,362.2z"/>
		<path id="パス_444" d="M394.6,368.2c-0.1,0.5-0.1,1-0.2,1.5c0,0.8,0,1.7,0,2.5c0,1.5,0,3.1,0,4.6c0,1.5,0.2,2.9,0.4,4.4
			c0.1,0.8,0.2,1.5,0.2,2.3c0,0.4,0,0.7,0.1,1.1c0,0.5,0,1,0.2,1.5c0.6,0,1.1-0.1,1.7-0.1c0.3,0,0.7,0,1,0l1,0
			c0.1-0.3,0.1-0.6,0-0.9c0,0,0,0,0-0.1c0-0.5-0.1-1.1-0.1-1.6c0-0.7-0.1-1.3-0.2-2c-0.1-1.3-0.3-2.6-0.4-4c-0.1-1.4,0-2.8-0.1-4.2
			s-0.1-2.8,0-4.2c0.1-0.4,0.1-0.8,0.2-1.2c0-0.2,0.1-0.4,0.1-0.6c-1,0-1.9,0-2.9,0c-0.3,0-0.6-0.1-0.8-0.3
			C394.7,367.4,394.6,367.8,394.6,368.2L394.6,368.2z M398.8,384.8c0,0.1,0,0.1,0,0.2C398.8,384.9,398.8,384.8,398.8,384.8z"/>
		<path id="パス_445" d="M407.5,362.5c-0.4,0.2-0.7,0.7-0.9,1.1c-0.2,1.2-0.4,2.4-0.5,3.5c-0.1,0.9-0.1,1.8-0.1,2.8c0,2,0,4-0.1,6
			c0,1.9,0,3.8-0.2,5.7c-0.1,1.9-0.2,3.9-0.3,5.8c0,0.9,0,1.8,0,2.7c0,1,0.8,1.9,1.8,1.9s1.9-0.8,1.9-1.8c0,0,0-0.1,0-0.1
			c0-1.8,0-3.7,0.1-5.5c0.1-2,0.3-3.9,0.3-5.9c0-0.9,0-1.8,0-2.8c0-1,0-2,0-3c0-1,0-2,0-3c0-0.9,0-1.8,0.1-2.8
			c0-0.5,0.1-1.1,0.2-1.6c0.1-0.3,0.1-0.6,0.2-1c0.1-0.5,0.1-1-0.2-1.5c-0.2-0.4-0.7-0.7-1.1-0.9c-0.2,0-0.3-0.1-0.5-0.1
			C408.1,362.2,407.8,362.3,407.5,362.5L407.5,362.5z"/>
		<path id="パス_446" d="M407,363.8c-0.3,1,0.3,2,1.3,2.3c1,0.2,2,0.4,3,0.6c1,0.2,2.1,0.4,3.2,0.5c1,0.1,2,0.1,3,0.1
			c1-0.1,2-0.2,3-0.4c0-0.2,0-0.4,0-0.6c0-0.9,0-1.9,0-2.8c0-0.1,0-0.2,0-0.3c-0.2,0-0.4,0-0.6,0c-0.4,0.1-0.8,0.1-1.2,0.2
			c-1.6,0.2-3.2,0.1-4.7,0c-0.7-0.1-1.3-0.3-2-0.4c-0.9-0.2-1.7-0.3-2.6-0.5c-0.2,0-0.3-0.1-0.5-0.1
			C408,362.4,407.2,362.9,407,363.8L407,363.8z"/>
		<path id="パス_447" d="M406.7,375.5c-0.3,1,0.3,2,1.3,2.3c0.6,0.2,1.3,0.3,1.9,0.4c0.7,0.1,1.5,0.2,2.2,0.3
			c1.2,0.1,2.5,0.2,3.7,0.2c0.1,0,0.2,0,0.3,0c0.1-0.3,0.2-0.6,0.2-0.8c0.2-0.5,0.3-1.1,0.5-1.6c0.1-0.2,0.2-0.5,0.3-0.7
			c-0.4-0.4-0.8-0.6-1.4-0.6c-0.8,0-1.7-0.1-2.5-0.1c-0.7,0-1.4-0.1-2.1-0.2c-0.7-0.1-1.5-0.3-2.2-0.4c-0.2,0-0.3-0.1-0.5-0.1
			C407.7,374.2,407,374.7,406.7,375.5L406.7,375.5z"/>
		<path id="パス_448" d="M432.4,365.5c-0.4,0.3-0.7,0.7-0.9,1.1c-0.4,1-0.7,1.9-0.9,2.9c-0.2,0.9-0.3,1.8-0.5,2.7
			c-0.3,1.9-0.7,3.7-1,5.6c-0.2,1-0.3,2.1-0.4,3.1c-0.1,0.9-0.2,1.8-0.3,2.7c-0.1,1.6-0.1,3.3-0.1,4.9v0.2h0
			c0.9-0.1,1.7-0.2,2.6-0.3c0.4,0,0.8-0.1,1.2-0.1c0-1.3,0-2.5,0.1-3.8c0.1-1.6,0.3-3.2,0.5-4.8c0.3-2,0.7-4.1,1-6.1
			c0.2-1,0.3-2,0.5-3c0.2-1.1,0.6-2.2,1-3.2c0.1-0.5,0.1-1-0.2-1.5c-0.2-0.4-0.7-0.7-1.1-0.9C433.4,365.2,432.9,365.3,432.4,365.5
			L432.4,365.5z M432.7,379.5c0,0.1,0,0.3-0.1,0.4C432.7,379.7,432.7,379.6,432.7,379.5z"/>
	</g>
</g>
</svg>
