<?xml version="1.0" encoding="utf-8"?>
<!-- Generator: Adobe Illustrator 24.2.0, SVG Export Plug-In . SVG Version: 6.00 Build 0)  -->
<svg version="1.1" id="レイヤー_1" xmlns="http://www.w3.org/2000/svg" xmlns:xlink="http://www.w3.org/1999/xlink" x="0px"
	 y="0px" viewBox="0 0 270 36" style="enable-background:new 0 0 270 36;" xml:space="preserve">
<path id="パス_2169" d="M7.8,8c-1.5,0-3,0-4.4,0c-1.9,0-2,0.5-2,1.7c0,0.7,0,1.4,0,2.1v5.5c0,1,0,2,0,3c0,1,0.3,1,2,1
	c2.1,0,2.4,0,2.4-1.1c0-0.7-0.1-2-0.1-3v-4c0-0.6,0.5-1.1,1.1-1.1c0,0,0,0,0,0h15.5c0.8,0,1.6,0.1,1.6,1c-0.3,2.2-0.9,4.3-1.8,6.4
	c-2.5,5.3-6.9,9.4-12.3,11.7c-0.4,0.2-0.7,0.3-0.7,0.7c0,0.6,1.7,3.1,2.6,3.1c1.4,0,6.4-3.8,7.6-4.8c5.6-4.9,7.8-10,9.2-17.2
	c0.1-0.5,0.2-1,0.4-1.6c0.1-0.3,0.2-0.7,0.2-1c0-0.6-0.4-0.9-1.2-1.6c-0.4-0.4-0.9-0.7-1.5-0.8c-0.3,0-0.5,0-0.8,0
	C25.2,8,24.5,8,23.9,8h-5.8C17.5,8,17,7.5,17,6.9c0,0,0,0,0-0.1V5.1c0-2.3,0-2.8,0.4-3.2c0.2-0.2,0.5-0.4,0.5-0.6
	c0-0.4-1.2-0.5-1.5-0.5c-0.4,0-3-0.2-3.4-0.2c-0.3,0-0.6,0-0.6,0.4c0,0.2,0,0.3,0,0.5c0.1,1.2,0.2,2.5,0.2,3.7v1.6
	c0,0.6-0.5,1.1-1.1,1.1c0,0,0,0-0.1,0L7.8,8z M55.1,5.3c-1.7,0-3.4-0.1-5.2-0.1c-1.1,0-1.1,0.4-1.1,2.3c0,1.8,0,2.2,1.2,2.2
	c1.7,0,3.3-0.1,5-0.1h14.2c0.7,0,1.4,0.1,1.4,0.8c0,0.3,0,0.6-0.1,1c-0.7,4.6-3,8.7-6.6,11.7c-2.9,2.4-6.3,4.2-10,5.3
	c-0.4,0.1-0.7,0.2-0.7,0.6c0,0.6,1.4,3.3,2.4,3.3c0.5,0,0.9-0.2,1.3-0.4c2.7-1.1,5.3-2.4,7.7-4.1c6.5-4.6,9.3-9.9,10.7-17.6
	c0.3-1.7,0.7-2.2,0.7-2.6s-1.7-2.6-2.7-2.6c-0.1,0-0.6,0.1-0.7,0.1c-0.8,0.1-2.8,0.1-3.6,0.1L55.1,5.3z M102.3,5.3
	c-1.7,0-3.4-0.1-5.2-0.1c-1.1,0-1.1,0.4-1.1,2.3c0,1.8,0,2.2,1.2,2.2c1.7,0,3.3-0.1,5-0.1h14.2c0.7,0,1.4,0.1,1.4,0.8
	c0,0.3,0,0.6-0.1,1c-0.7,4.6-3,8.7-6.6,11.7c-2.9,2.4-6.3,4.2-10,5.3c-0.4,0.1-0.7,0.2-0.7,0.6c0,0.6,1.4,3.3,2.4,3.3
	c0.5,0,0.9-0.2,1.3-0.4c2.7-1.1,5.3-2.4,7.7-4.1c6.5-4.6,9.3-9.9,10.7-17.6c0.3-1.7,0.7-2.2,0.7-2.6s-1.7-2.6-2.7-2.6
	c-0.1,0-0.6,0.1-0.7,0.1c-0.8,0.1-2.8,0.1-3.6,0.1L102.3,5.3z M153.8,8.6c0.4,0,0.6,0.3,0.6,0.7c-0.2,2.6-0.6,5.2-1.3,7.8
	c-1.1,4.1-3.4,8.6-5.4,8.6c-2,0-2.6-3.7-2.6-5.2c-0.1-4.9,2.7-9.5,7.2-11.5C152.9,8.9,153.3,8.7,153.8,8.6z M157.7,4
	c-9.1-0.1-16.5,7.3-16.6,16.4c0,0.1,0,0.3,0,0.4c0,2,0.4,3.9,1.2,5.7c1.1,2,3,3.8,5.4,3.8c2.2,0,4-1.5,5.3-3.1
	c3.8-4.6,5.2-11.7,5.7-17.6c0-0.7,0-1.6,1-1.6c0.5,0.1,1,0.2,1.5,0.4c4.2,1.4,6.4,5.3,6.4,9.6c0,5.7-4.1,9.2-9.4,10.4
	c-0.4,0.1-1,0.2-1,0.6c0,0.9,1.6,3.4,2.7,3.4c1.5-0.3,3-0.9,4.4-1.6c4.8-2.5,7.9-7.5,7.8-12.9c0.1-3.7-1.4-7.2-4-9.8
	C165.2,5.3,161.5,3.8,157.7,4z M205.9,7.4c-0.1-0.5,0.3-1,0.8-1.1c0.1,0,0.2,0,0.3,0h6.6c1.6,0,3.2,0.1,4.8,0.1c1.1,0,1-0.5,1-2.1
	c0-1.6,0-2.1-1-2.1c-1.6,0-3.2,0.1-4.8,0.1h-19.7c-1.6,0-3.2-0.1-4.8-0.1c-1.1,0-1,0.5-1,2.1s0,2.1,1,2.1c1.6,0,3.2-0.1,4.8-0.1h6.5
	c0.8,0,1.1,0.4,1.1,1.1v20.4c0,0.8-0.3,1.1-1.1,1.1h-8.3c-1.7,0-3.4-0.1-5-0.1c-1,0-1,0.5-1,2.1c0,1.6,0,2.1,1,2.1
	c1.7,0,3.4-0.1,5-0.1h23.3c1.7,0,3.4,0.1,5,0.1c1,0,1-0.5,1-2.1c0-1.6,0-2.1-1-2.1c-1.7,0-3.4,0.1-5,0.1h-8.3
	c-0.8,0-1.1-0.3-1.1-1.1L205.9,7.4z M262.8,4.3c1.6,0,3.2,0.1,4.8,0.1c0.9,0,0.9-0.4,0.9-1.8s0-1.8-0.9-1.8c-1.6,0-3.2,0.1-4.8,0.1
	h-23.8c-1.6,0-3.2-0.1-4.8-0.1c-0.9,0-0.9,0.4-0.9,1.8c0,1.3,0,1.8,0.9,1.8c1.6,0,3.2-0.1,4.8-0.1H262.8z M242,12
	c-0.6,0-1.1-0.5-1.1-1.1v-0.4c0-0.6,0.5-1.1,1.1-1.1h18c0.6,0,1.1,0.5,1.1,1.1v0.4c0,0.6-0.5,1.1-1.1,1.1H242z M250.5,15
	c0.8,0,1,0.3,1.2,1c0,0.2,0,0.4,0.1,0.6c0,0.8-0.4,1-1.1,1h-4.9c-1.3,0-2.6,0-3.9-0.1c-0.6,0-1-0.2-1-0.9v-0.7
	c0-0.8,0.4-1.1,1.1-1.1H250.5z M255.9,16.7c0-0.4,0-0.6,0.4-0.8c0.2-0.2,0.6-0.3,0.6-0.6c0-0.1,0-0.1,0-0.2c0,0-0.1-0.1-0.1-0.1
	s0,0,0.1,0h2.6c1.2,0,2.3,0,3.5,0c1.6,0,2.2-0.5,2.2-2.1c0-0.5,0-1.1,0-1.6v-1.2c0-0.6,0-1.1,0-1.6c0-1.6-0.6-2.1-2.2-2.1
	c-1.2,0-2.3,0.1-3.5,0.1h-17c-1.2,0-2.4-0.1-3.5-0.1c-1.5,0-2.2,0.4-2.2,2c0,0.6,0.1,1.3,0.1,2v5.3c0,6-0.6,11.4-3.7,16.7
	c-0.2,0.3-0.4,0.6-0.5,1c0,0.8,2.4,1.9,3.2,1.9c0.5,0,0.6-0.2,1.2-1.4c1.9-3.8,3.1-7.9,3.5-12.1c0-0.5,0.4-0.6,0.8-0.6
	c1.4,0,2.8-0.1,4.3-0.1h1.6c0.6,0,1,0.2,1,0.9V22c-0.2,2.5-1.3,4.9-3,6.8c-1.3,1.3-2.8,2.3-4.4,3.2c-0.3,0.1-0.9,0.3-0.9,0.8
	c0,0.5,1.6,2.6,2.6,2.6c0.9,0,5.9-2.6,8.3-8.1c0.2-0.6,0.8-1,1.5-1h5.8c1.2,0,1.7,0,1.7,0.7c0,1.3-0.3,2.6-0.7,3.8
	c-0.4,0.8-1.1,0.9-2.3,0.9c-0.9,0-2.4-0.1-2.6-0.1c-0.6,0-0.6,0.5-0.6,1.3c0,2.7,1.2,2.5,2.9,2.5c2.2,0,4.9,0.1,6-2.2
	c1-2.7,1.6-5.5,1.7-8.4c0-1.1-0.6-1.5-1.7-1.5c-0.9,0-1.8,0.1-2.6,0.1h-6.8c-0.7,0-1-0.4-1-1.1c0-0.3,0.1-0.5,0.1-0.8
	c0.1-0.2,0.2-0.3,0.4-0.4c0.3-0.1,0.5-0.1,0.8-0.1h9.8c1.4,0,2.8,0.1,4.2,0.1c0.8,0,0.9-0.4,0.9-1.7c0-1.3,0-1.7-0.9-1.7
	c-1.3,0-2.8,0.1-4.2,0.1H257C256.3,17.7,255.9,17.4,255.9,16.7z"/>
</svg>
