<?xml version="1.0" encoding="utf-8"?>
<!-- Generator: Adobe Illustrator 24.2.0, SVG Export Plug-In . SVG Version: 6.00 Build 0)  -->
<svg version="1.1" id="レイヤー_1" xmlns="http://www.w3.org/2000/svg" xmlns:xlink="http://www.w3.org/1999/xlink" x="0px"
	 y="0px" viewBox="0 0 350 80" style="enable-background:new 0 0 350 80;" xml:space="preserve">
<style type="text/css">
	.st0{fill-rule:evenodd;clip-rule:evenodd;}
</style>
<g id="グループ_1105" transform="translate(-272.568 -375.888)">
	<path id="パス_2126" class="st0" d="M454.7,409.2c-0.1,0.6-0.4,1.6-0.5,2.1v2.9h-0.3v2.6h-0.3v2.9h-0.3v2.4h-0.3v2.1h-0.3v2.1
		h-0.3v2.4h-0.3c-0.1,2.9-0.2,5.7-0.3,8.6h-0.3v2.6h-0.3v2.1h-0.3v2.1h-0.3v4.7h-0.3c-0.3,1.4-0.3,2.8,0,4.2l0.8-0.3v0.3h0.5v0.3
		h1.3v-0.3c0.7-0.1,0.8,0.5,1.3,0.5V453h1v-0.3c0.9-1,0.1-2.7,0.5-4.2c0.4-1.5,0.6-3.7,1-5.2v-1.8h0.3v-2.9h0.3v-2.6h0.3V434h0.3
		v-2.4h0.3v-2.9h0.3v-2.9h0.3v-2.1h0.3v-2.4h0.3v-3.1h0.3v-3.7l1-6.3h9.1v-0.3h2.4v-0.3h1.8c1.4-0.5,2.8-0.7,4.2-0.8v-1h0.3
		l-0.3-0.8c-0.1-0.6,0.3-0.8,0.3-0.8c0.1-0.2-0.1-0.4-0.3-0.5l0.3-0.5l-0.3-2.1l-9.4,0.3v0.3l-6.8,0.5l1-6.3
		c0.1-2.4,0.2-4.9,0.3-7.3c0.3-3.3,0.2-6.6-0.3-9.9h-0.5v0.5l-1.3-0.3v-0.3c-0.2-0.1-0.4,0.1-0.5,0.3c-0.3,0.1-0.6,0-0.8-0.3l-1,0.3
		v-0.3h-1.3v0.3h-0.3v2.1h-0.3v2.4h-0.3v2.1c-1.2,4.3-1.1,10.3-1,15.9l-2.6,0.3v-0.3h-1v-0.3l-0.8,0.3v-0.3l-1.8,0.3v-0.3
		c-0.7-0.1-1.4,0-2.1,0.3l-0.3,1h-0.3l0.3,0.8h-0.3v1.3h-0.3l0.3,0.5h-0.3c-0.1,1-0.2,1.9-0.3,2.9l7.8,0.8
		C454.7,409.2,454.4,409,454.7,409.2z"/>
	<path id="パス_2127" class="st0" d="M504.8,389.6h0.3v1.8h0.3v1.6h0.3v1.3h0.3v1.3h0.3c0.1,0.5,0.2,1,0.3,1.6h0.3l0.3,0.8
		c0.7,0,1.4-0.2,2.1-0.5v-0.3h0.8v-0.3h0.5v-0.3h1v-0.3c0.3-0.2,0.7-0.3,1-0.3c-0.1-2.5-0.6-5-1.6-7.3v-1h-0.3v-1h-0.3v-1H510v-1
		h-0.3v-1.3c-0.3-0.6-0.6-1.2-0.8-1.8l-2.4,0.5v0.5c-1.4,0.1-1.9,0.8-2.9,1.3c0.2,0.9,0.5,2.1,0.8,2.9
		C504.6,387.7,504.7,388.6,504.8,389.6z"/>
	<path id="パス_2128" class="st0" d="M492.7,396.1v1.3h0.3l0.3,1.8h0.3l0.3,0.8h1.6v0.3l0.8-0.3v0.3c0.4,0.1,0.5-0.3,0.5-0.3h0.3
		v0.3h0.3V400l1.6,0.3c-0.1-2.1-0.2-4.2-0.3-6.3c0.3-0.9,0.3-1.9,0.3-2.9h-0.3c0-0.4,0.2,0.1,0.3-0.3v-1.8h-0.3
		c-0.1-1.2-0.2-2.4-0.3-3.7c-0.5,0-0.9,0.1-1.3,0.3v0.3l-1.8,0.3v0.3h-1.8v0.3c-1.6,0.5-0.6,1.9-1,3.4h-0.3c0.2,2,0.3,4,0.5,6
		L492.7,396.1z"/>
	<path id="パス_2129" class="st0" d="M281.6,399.3l0.6,0.5c-0.2,0.3-0.4,0.6-0.6,0.9l0.2,0.1l-0.1,1.6l0.2,0.1l-0.4,0.4l0.4,0.4
		l-0.2,0.5l0.2,0.1l-0.3,0.7l0.4,0.4c0,0.5-0.4,0.4-0.4,0.4l0,0.8l0.2,0.1l-0.2,0.5l0.2,0.1l-0.3,0.7l0.6-0.1
		c0.2,0.5-0.3,0.1,0.1,0.6l0.2-0.5l0.5,0.2l0.4-0.4l0.6,0.5l0.1-0.2l0.5,0.2l0.4-0.4l1,0.4l0.1-0.2c0.7-0.1,1.3,0,2-0.1
		c0.7-2.1,0.3-2.8,0.3-4.4l0.4-2.4c-0.1-1.2-0.1-2.4,0-3.6c1.6,0.3,3.2,0.5,4.9,0.5l1,0.4l0.1-0.2l1.8,0.4l0.1-0.2l0.7,0.3l0.1-0.2
		l0.7,0.3l0.1-0.2l0.7,0.3l0.1-0.2l1.6,0.3l0.1-0.2l1.6,0.3l0.1-0.2l0.5,0.2l0.1-0.2l1.6,0.3l0.1-0.2l0.5,0.2l0.1-0.3l0.7,0.3
		l0.1-0.2l2.5,0.7c2.4,0.3,4.7,0.9,6.9,1.8c-1.1,2.8-2.6,5.4-4.4,7.8l-0.7,2c-1.7,2.2-3.2,5.4-4.9,7.6c-0.5,1-1,2.1-1.5,3.1
		l-5.8,9.2l-0.2-0.1l-0.8,1.4l-0.2-0.1l-0.3,0.7l-0.2-0.1l-0.3,0.7l-0.2-0.1l-0.3,0.7l-0.2-0.1l-0.3,0.7l-0.2-0.1l-0.3,0.7l-0.2-0.1
		l-1.6,2.7c-1.1,1.1-1.9,2.4-2.6,3.8c0.8,0.3,1.4,0.7,2,1.3L292,443l0.3-0.2l1.1,0.7l-0.1,0.2c0.8,0.7,1.3,0.3,1.6,0.9
		c1.6,0.4,0.9-0.4,1.9-1.2l0.6-0.1l0-0.8l0.2,0.1l0.2-0.5l0.2,0.1l0.3-0.7l0.2,0.1l0.5-1.2l0.6-0.1l0.3-0.7l0.6-0.1l1.1-2.1l0.5,0.2
		l-0.1-0.6l0.2,0.1c0.8-0.7,1.4-1.5,1.8-2.4l0.5,0.2l0.8-1.4l0.2,0.1l0.4-1l0.2,0.1l0.2-0.5l0.2,0.1l0.7-1.1l0.2,0.1l0.2-0.5
		l0.2,0.1l0.3-0.7l0.2,0.1l0.3-0.7l0.2,0.1l0.3-0.7l0.2,0.1l0.2-0.5l0.2,0.1c0.2-0.3-0.1,0-0.2-0.3c0.2-0.5,0.4-0.4,0.4-0.4l0.5-1.2
		l0.3,0.1l0.1-0.2l-0.2-0.1c0.1-0.3,0.2,0.2,0.3-0.2l0-0.8l0.2,0.1l0.4-1l0-0.8c0,0,0.3,0.1,0.4-0.4l-0.2-0.1l0.1-0.2l0.2,0.1
		l-0.1-0.6l0.2,0.1l0.7-1.7l0.2,0.1l0.6-1.5l0.2,0.1l0-0.8l0.2,0.1l0.5-1.2l0.2,0.1l0.6-1.5l0.2,0.1l0.7-2l0.2,0.1l0.4-1l0.2,0.1
		l1-2.7l0.2,0.1l0.7-1.7l0.2,0.1l0.3-0.7l0.2,0.1l0.1-1.1c0,0,0.3,0.1,0.4-0.4l-0.2-0.1l0.1-0.2l0.2,0.1l0.4-1l0.2,0.1l0.1-0.2
		l-0.2-0.1l0.1-0.2l0.2,0.1l0.5-1.2l0.2,0.1c0.2-0.8,0.5-1.7,0.7-2.5l0.1-0.2l0.2,0.1c0.4-1.4,0.9-2.8,1.3-4.2l-0.2-0.1
		c0.1-0.4,0.1,0.1,0.3-0.2c0.1-0.3-0.2,0-0.2-0.3l0.6-0.9c-0.1-0.3-0.2-0.6-0.2-0.9c-0.8-0.5-1.5-1.5-2.7-1.6l-15.4-1.4l-0.2-4
		l-0.4-0.4l0.1-1.1l-0.4-0.4l0.1-1.1l-0.4-0.4l0.2-0.5c0-0.2-0.3-0.3-0.3-0.7l-1-0.4c-0.3-0.2,0.2-0.2-0.1-0.3l-0.1,0.2l-1.5-0.6
		l-0.4,0.4l-0.9-0.6l-0.1,0.2l-0.7-0.3l-0.4,0.4c-0.3,0-0.6-0.2-0.6-0.5l-0.8,0c-0.2,2-0.2,3.9,0,5.9l-0.3,0.7l0.2,0.1l-0.3,1.6
		l0.2,0.1l-0.2,0.5l-3.1,0.2l-0.7-0.3l-0.1,0.2l-0.5-0.2l-0.1,0.2l-1.6-0.3l-0.1,0.2l-0.7-0.3l-0.1,0.2l-0.7-0.3l-0.1,0.2l-0.7-0.3
		l-0.1,0.2l-2.6-0.4l-0.1,0.2l-0.5-0.2l-0.1,0.2l-1.6-0.3l-0.1,0.2l-2.5-0.1c-0.4,0.5-0.2,0.4-0.8,0.5l-0.1,0.2l0.5,0.2l-0.4,0.4
		l0.2,0.1l0,0.8c-0.3,0.2-0.2-0.2-0.3,0.2l0.5,0.8l-0.5,1.2c0,0,0.2,0.1,0.1,0.6c-0.5,0-0.2-0.1-0.6,0.1l0.5,0.2l-0.3,0.7
		C281.8,398,282.7,398.1,281.6,399.3z"/>
	<g id="グループ_1110" transform="translate(583.417 386.851)">
		<path id="パス_2130" class="st0" d="M17.3,54.7h0.5l0.3-0.5h0.8l0.5-0.8H20l0.5-0.8h0.8v-0.3c0.3-0.3,0.7-0.4,1-0.5v-0.5
			c1-0.1,0.7-0.3,1.6-0.5c0.3-0.7,0.7-1.3,1.3-1.8h0.3v-0.5l0.5-0.3v-0.5l0.5-0.3l0.3-1l0.5-0.3l0.3-1l0.5-0.3
			c0.1-0.3,0.2-0.7,0.3-1l0.5-0.3c0.1-0.3,0.2-0.7,0.3-1l0.5-0.3l0.3-1.3h0.3v-0.5h0.3v-1.8h0.3v-0.8h0.3v-1.3h0.3l-0.3-0.8
			c0.1-1.1,0.2-2.3,0.3-3.4h0.3v-2.6h0.3v-2.4H32v-0.5h0.3v-0.3H32v-1.6h0.3c0.2-0.6-0.3-0.7-0.3-1h0.3l0.3-0.8h-0.3
			c0-0.6,0.3-0.5,0.3-0.5V20c0.4-2,0.5-4,0.3-6h-0.3v-1.8h-0.3v-1.3H32v-1h-0.3V9h-0.3V8h-0.3V7.2h-0.3V6.4h-0.3l-1-5.5h-0.3V0.7
			l-4.2,0.8h-0.8v0.3h-0.3V1.4h-0.3v0.3L23.3,2c0.2,2.2,1.3,3.6,1.8,5.5v12.3c-0.1,3.1-0.2,6.3-0.3,9.4h-0.3V32h-0.3v1.8h-0.3v1
			h-0.3v1h-0.3v0.8h-0.3v0.5h-0.3V38h-0.3v0.8h-0.3v0.8h-0.3v0.8H22v0.5h-0.3v0.5l-0.5,0.3v0.5l-0.5,0.3V43L20,43.5V44l-1.3,1.1v0.5
			l-0.8,0.5v0.3h-0.5l-0.8,1l-1,0.3l-0.3,0.5h-0.5l-0.5,0.5h-0.5V49h-0.5v0.3h-0.5v0.3h-0.5v0.3h-0.5V50h-0.5v0.3l-1,0.3v0.3l-1,0.3
			v0.3H8.5v0.3H7.7c-0.5,0.2-1.3,0.6-1.8,0.8c0,1.8,0.3,4.7,0,5.7h0.5v0.3l2.4-0.5v-0.3h0.8v-0.3h0.8v-0.3h0.3v0.3h0.3v-0.3h1
			l0.3-0.5l0.8,0.3l0.3-0.5h1.3V56H15v-0.3l1.8-0.3L17.3,54.7z"/>
		<path id="パス_2131" class="st0" d="M6.6,27.6c1-0.3,0.8-0.8,1.8-1c0.2-0.6,0.5-1.2,1-1.6c-0.2-1.6-1-1.8-1.3-3.1H7.7l-0.3-1.3
			H6.9c-0.1-0.9-0.2-1-0.8-1.3v-0.3H5.9l-3.9,4.2H1.4l-0.8,1H0.4c-0.1-2.3-0.3-5-0.3-7.6v-2.4c0.4-1.6,0.5-3.3,0.3-5H0.1V7.4h-0.3
			v-1h-0.3V3.3c-0.3-0.7-0.5-1.4-0.5-2.1h-0.3V0.9c-1.7,0-3.3,0.1-5,0.3v0.3h-0.3c-0.2,1.3-0.2,2.6,0,3.9h0.3v3.1
			c1.1,6.5-0.5,15.4,1,20.6v1.8c0.2,1,0.3,2.1,0.5,3.1l0.5,0.3v0.3c0.8-0.4,0.3-0.4,1.6-0.5l0.3-0.8c0.8-0.2,0.9-0.6,1.8-0.8V32
			c1.1-0.3,1.3-0.9,2.6-1v-0.5c1.8-0.5,2.3-2.2,4.4-2.4L6.6,27.6z"/>
	</g>
	<path id="パス_2132" class="st0" d="M409.1,442.3c0.4-0.9,0.9-1.2,1-2.4h0.5c0.3-1.8,2.4-4.5,1.6-5.5v-0.3l0.5,0.3
		c0.3-0.8,0.1-0.4,0-1.3c0.3,0.3,0.1,0,0.3,0.5h0.3v-1h0.5v-0.5c-0.5-0.2-0.2,0-0.5-0.3l-0.3-0.3l0.8-0.3l-0.3-0.8h0.3l0.3-1.3h0.5
		c0-0.4-0.1-0.7-0.3-1h0.5v-1h0.3v-0.3h-0.3v-0.8c0.3,0.2,0.3,0.3,0.5,0.5l0.8-3.9h0.5c-0.5-0.4,1-3.7,1-5l0.8-0.3l-0.3-0.8h0.3
		c0.2-0.6,0.2-1.2,0-1.8h0.5c0-1.1-0.2-1.6,0.8-1.8c0.1-0.4,0.1-0.7,0.3-1h-0.3v-0.3h0.3V411h0.3v-0.3h-0.3c0,0,0-1,0.3-0.5v0.3h0.3
		l0.3-1.6h0.3v-1.3h0.3l-0.3-0.8c0.5-1.1,0.7-2.2,0.5-3.4h-0.3l0.3-1l-0.5-0.3v-0.5c-0.4-0.1-0.8-0.3-1-0.5v-0.3h-0.5v-0.3h-1v-0.3
		h-2.3c-2.1,0-4.9-0.2-6.5,0.3h-4.4v0.3h-1.3v0.3h-0.5v0.3l-0.8-0.3v0.3h-1.3v-0.3H401v0.3h-0.8v0.3h-1.6v0.3h-0.3
		c-0.3-0.1,0.1-0.4-0.3-0.3c-0.2,0.1,0,0.4-0.8,0.5v-0.5h-0.3v0.3l-1.6-0.3v0.5H395v-0.3c-0.7-0.2-0.8,0.7-1,0.8l-1.6,0.3
		c0.6,1.4,1,3.3,0.3,4.2c0.1,0.9,1.1,0.8,0,1.6c0.3,0.3,0,0.1,0.5,0.3c0,0.4,0.1,0.9,0.3,1.3c7.7,1.3,14-2.4,21.7-2.4l-0.5,3.1h-0.3
		v0.8h-0.3l-0.3,1.6h-0.3l-0.3,1H413v0.5h-0.3v0.8h-0.3v0.5h-0.3l-0.5,1.6h-0.3v0.8h-0.3v0.5h-0.3l-0.5,1.6h-0.3v0.8h-0.3l-0.3,1
		h-0.3v0.8h-0.3v0.5h-0.3v0.8h-0.3v0.5h-0.3c-0.1,0.5-0.2,1-0.3,1.6c-1.9,4.4-3.3,9.1-4.2,13.8l1.3,0.3v0.5l2.3,0.3l0.3,0.5h1
		C409.2,442.2,408.7,442.2,409.1,442.3z"/>
	<path id="パス_2133" class="st0" d="M545.6,436.3h0.5v0.3l1,0.3l0.3,0.5h0.5v0.3c1,0.3,1.1-0.4,1.3-0.5h0.5
		c0.2-1.8,1.5-1.8,1.8-3.4c0.3-0.3,0.1,0,0.3-0.5c-0.3-0.2-0.4-0.4-0.5-0.5h-0.5l-0.5-0.8h-0.5l-0.5-0.8h-0.5l-0.3-0.5l-6-3.1v-1
		h0.3c0-2.2-0.4-5.3,0.3-7.1c1.9,0.2,4.5,0.3,6.8,0.3c0-1.6,0.2-3.2,0.5-4.7c-0.3-0.2,0,0-0.3-0.3c-1.8-0.7-4.3-0.1-6.5-0.8H542
		v-0.3c-0.5-0.6-0.2-1.5-0.5-2.4h-0.3c-0.1-0.6-0.2-1.2-0.3-1.8h-0.3c-0.1-0.7-0.2-1.4-0.3-2.1h-0.3v-1h-0.3
		c-0.1-0.6-0.2-1.2-0.3-1.8h-0.3v-0.8h-0.3v-0.8h-0.3c-0.4-1-0.2-1.7-1-2.4v-0.3c-1.9,0.6-3.8,0.8-5.7,0.8c0.1,0.7,0.2,1.4,0.3,2.1
		c0.1,1-0.3,0-0.3,0.5h0.3l-0.3,0.5h0.3v0.8h0.3v1.6h0.3v0.3c-0.1,0.2-0.4,0-0.3,0.5h0.3v1h0.3l-0.3,0.8h0.3v1.8h0.3v1.8h0.3v0.3
		l-0.8,0.3c0.1,1.8,0.4,3.7,0.8,5.5h0.8c0,2.4-0.1,4.7-0.5,7.1h-4.4v0.3l-2.3,0.5v0.3h-0.5v0.3l-1,0.3l-0.5,0.8h-0.5l-0.3,0.5
		l-1.6,0.5l-0.3,0.5h-0.5l-0.3,0.5l-1.6,1.3c-0.2,0.9-1,3.5-0.5,5h0.3v0.5h0.3v0.8h0.3v0.5l0.5,0.3v0.5l0.5,0.3v0.5l0.8,0.5v0.5
		l0.5,0.3l1,1.3h0.5l0.8,1l2.3,0.8c1.6,0.6,3.3,0.8,5,0.5c3.8-1.1,9-6,9.4-10.4C543.1,434.9,544.4,435.5,545.6,436.3z M530.5,436.1
		l-0.3,0.5c-0.6,0.4-1.3,0.5-1.8,1c-0.5,0-1.1-0.1-1.6-0.3c0.1-0.9,0.8-4.3,1.3-4.7c0.7-0.6,3-0.8,4.4-0.8
		C532.5,434.2,531.6,435,530.5,436.1L530.5,436.1z"/>
	<path id="パス_2134" class="st0" d="M356.7,435.3h0.5v0.5c0,0,1,0,0.5-0.3h-0.3v-0.3c0.3,0.1,0.6,0.1,1,0.3v0.3h0.8l0.3,0.5
		l1-0.3v0.3h0.5v0.3h0.3v-0.3l0.5,0.3l6.3-13.6l0.5-2.6h0.3v-0.8h0.3v-1h0.3v-1h0.3v-1h0.3v-1h0.3v-1.3h0.3v-1.3h0.3v-1.6h0.3v-2.1
		h0.3l0.3-3.4c-0.3-0.8-0.6-1.6-1-2.4l-1-0.3v-0.3c-1-0.3-5.3,0.1-6,0.3h-2.1c-3.2,0.9-7,1.4-10.2,2.4h-1.3v0.3h-1.3v0.3
		c-1.3,0.4-2.6-0.2-3.4,0.5c-1.1,0-1.7-0.1-2.1,0.5c-0.2,0.1-0.4-0.1-0.3,0.3h0.3c0,0.8-0.6,2.2-0.3,3.4h0.3l-0.3,0.8h0.3l-0.3,0.3
		l0.3,0.3l-0.3,0.5c0.3,0.2,0,0,0.3,0.3c2.9-0.1,5.8-0.6,8.6-1.6l4.7-0.8c2.2-1,4.6-1.5,7.1-1.6c-0.4,5.6-1.7,11.1-3.9,16.2
		l-0.5,2.4h-0.3l-0.5,2.6H358v0.8c-0.5,1.2-1.4,2.9-1,4.2h-0.3L356.7,435.3z"/>
	<path id="パス_2135" class="st0" d="M480.7,417.5H480v0.3l-1,0.3v0.3c-1.4,0.5-2.6-0.5-3.7,0.5H475c-0.1,0.1,0.4,0.6,0.3,1H475
		v3.1h-0.3v0.3h0.3l0.3,0.8c2.2,0.9,5.4,0.4,7.6-0.3h1.6v-0.3h0.8v-0.3h1.6V423h2.9v0.3c0.3,0.1,0.6,0,0.8-0.3
		c0.7-0.2,1.3,0.3,1.6,0.3V423h0.5l0.3-0.5l3.4-0.3c-0.3-0.5-0.4-1-0.3-1.6h0.3v-0.3l-0.5-0.3c0.2-0.8,0.2-1.6,0-2.3h-0.3l0.3-0.3
		l-0.3-0.3l0.3-0.8l-2.6,0.3c-0.8-0.1-2.7-0.6-3.9-0.3v0.3h-1.6v0.3h-1.8v0.3h-5L480.7,417.5z"/>
	<path id="パス_2136" class="st0" d="M491.7,437.9h1.8v-0.3l5.2-0.5v-0.3l0.8-0.3c-0.2-1.3-0.3-2.6-0.5-3.9h-0.3v-1h-0.3l0.3-1
		l-0.8-0.3v-0.3l-3.4,0.8v0.3h-0.8c-2.2,0.9-5.4,0.8-8.6,0.8h-3.4c-1.3-0.4-2.6-0.6-3.9-0.5v0.5h-0.5v1.8l-0.5,0.3l0.3,0.5v0.8h-0.3
		v0.8h0.3c0,0.4-0.2-0.1-0.3,0.3v0.8h-0.3c0,0.4,0.1,0.7,0.3,1c1.7-0.1,3.3,0.1,5,0.5c2,0.2,4,0.2,6-0.3h2.3v-0.3h1.6V437.9z"/>
</g>
</svg>
