<?xml version="1.0" encoding="utf-8"?>
<!-- Generator: Adobe Illustrator 24.2.0, SVG Export Plug-In . SVG Version: 6.00 Build 0)  -->
<svg version="1.1" id="レイヤー_1" xmlns="http://www.w3.org/2000/svg" xmlns:xlink="http://www.w3.org/1999/xlink" x="0px"
	 y="0px" viewBox="0 0 330 66" style="enable-background:new 0 0 330 66;" xml:space="preserve">
<style type="text/css">
	.st0{fill-rule:evenodd;clip-rule:evenodd;}
</style>
<g id="グループ_1127" transform="translate(-1038.671 -719.479)">
	<path id="パス_2150" class="st0" d="M1095,730h-0.2v-1.5h-0.2v-0.5h-0.2v-1h-0.2c-0.5-0.4-0.7-1.1-0.7-1.7
		c-0.5,0.1-0.2,0-0.5,0.2h-0.2l-0.2-1.2h-0.2l-0.7-1h-0.5v-0.2l-0.7-0.5v-0.5l-0.5,0.2c-0.2-0.2-0.2-0.3-0.5-0.5v-0.5h-0.5v-0.2
		c-0.3-0.1,0,0.1-0.2,0.2h-0.2v-0.2h-0.7V721l-1.5-0.5v-0.2h-0.2c-0.5,0.3-1.4,0-2.2,0.2v0.2l-1.5-0.2v0.2h-0.5v0.2h-1.5v0.2h-0.5
		l-0.2,0.5l-0.7-0.2v0.2l-1,0.2l-0.2,0.5h-0.5l-0.2,0.5c-0.5,0.5-1.1,0.8-1.7,1v0.7c-0.9,0.3-0.8,0.7-1.7,1v0.7l-0.7,0.2
		c-0.1,0.4-0.2,0.7-0.5,1h-0.2v1.5h-0.2v1h-0.2l0.2,1.5h-0.2v1.2h0.2v0.5h0.2l-0.2,0.7h0.2v1.7l0.5,0.2l0.2,1l0.5,0.2v0.7l0.7,0.2
		l0.2,0.7h0.2c0.4,0.4,0.3,0.5,1,0.7l0.2,1l-2.2-0.2v0.2h-1v0.2h-0.2v-0.2l-0.7-0.2l-0.2,0.5c-0.3,0.1-0.4-0.4-1-0.2v0.2h-1.2v0.2
		h-0.2l-0.2-0.5c-0.4-0.1-0.4,0.2-0.5,0.2h-1.2v0.2c-0.6,0.1-1.3-0.5-2.2-0.2v0.2h-1v0.2h-0.5v0.2l-1.2-0.2v0.2h-0.7v0.2h-1.7v0.2
		c-0.3,0-0.4-0.5-1-0.2l-0.2,0.5c-0.3,0.1-0.1-0.1-0.2-0.2l-0.5,0.2c-0.3-0.2,0.1-0.3-0.2-0.2v0.2h-0.7v0.2h-0.2v-0.2h-1.7
		c-0.2,0.2-0.5,0.3-0.7,0.2v-0.2l-0.7-0.2v0.2h-0.5v0.2l-0.5-0.2c-0.5,0-0.5,0.2-0.5,0.2h-1.2v0.5c-0.2,0.3-0.2-0.2-0.2-0.2
		l-2.7,0.2v0.2h-0.5v0.2h-1v0.2l-0.7-0.2l-0.2,0.5h-0.2c-0.6-0.5-2,0-2.9-0.2v-0.2h-0.2v0.2h-1.9v-0.2l-0.7,0.2v-0.2h-0.2
		c0.2,2.3,0.3,4.7,0.5,7c0.8,0.2,1.5,0.8,2.7,0.5v-0.2h0.7v-0.2h0.2v0.2l1.5,0.2v-0.5c0.3,0,0.7,0.1,1,0.2c0.1,0,0.1-0.5,0.5-0.5
		v0.2h0.5v0.2l1.5-0.2v-0.2h1.7l0.2-0.5l0.7,0.2v-0.2h0.2v0.2h0.7l0.5-0.2c0.3,0-0.1,0.3,0.2,0.2v-0.2h0.7v-0.2h1.2v-0.2l0.5,0.2
		v-0.2h1V749c0.9,0.2,1.8,0.2,2.7,0v-0.2c0.3-0.1,0.6,0,0.7,0.2h1v-0.2h0.2c0.2,0.2,0.5,0.3,0.7,0.2v-0.2h0.5v-0.2l0.7,0.5
		c0.5,0,0.4-0.6,1.2-0.5v0.2l0.5-0.2c0.3,0.1-0.1,0.3,0.2,0.2c0,0,0.1-0.3,0.5-0.2c0.1,0.2,0.3,0.3,0.5,0.2v-0.2h1v-0.2l0.7,0.2
		v-0.2h1v0.2h0.2v-0.2h1.5V748h0.7v-0.2c0.7,0.2,1.5,0.2,2.2,0c0.2,0.3,0,0,0.2,0.2c-0.2,2-1.6,3.1-1.7,5.1h-0.5
		c0,0.4-0.2,0.9-0.5,1.2h-0.2v1.2l-0.7,0.2c-0.2,0.7-0.4,0.5-0.5,0.7l-0.2,1.9h-0.2v0.5l-0.5-0.2l-0.2,1.2c0,0.3,0.2-0.1,0.2,0.2
		h-0.5l0.2,0.7c-1.1,0.3-0.8,0.7-1.2,1.7h-0.2v1c-0.1,0.2-0.3,0-0.5,0.7h-0.5c-0.1,1.3-0.7,1.7-1,2.9h-0.5c-0.1,1.5-0.8,1.7-1,3.2
		l-0.7,0.2l-0.2,1.9h-0.7v0.7c-0.5,0.1-0.2,0-0.5,0.2h-0.2l0.2,0.5h-0.5l0.2,0.7c-0.5,0.1-0.2,0-0.5,0.2h-0.2c0.4,0.5,0.1,0.6,0,1.2
		h-0.5c-0.1,0.9-0.2,1-1,1.2c-0.2,1.1-1.7,2.6-1.2,3.9h0.2v0.5h0.2l0.2,0.7l7.8,2.2c0-0.7,0.1-1.4,0.5-1.9h0.2v-0.2h-0.2v-0.2h0.2
		V781l0.7-0.2l0.5-2.2h-0.2v-0.2h0.2v-0.5l0.5-0.2l0.2-1.7l0.5-0.2v-1.5l0.5-0.2v-0.7l0.5-0.2l0.2-1.9h0.5l0.5-2.2l0.5-0.2l0.2-1
		h0.2v-1l0.7-0.5l0.7-2.2h0.7c-0.1-0.8,0.2-1.6,0.7-2.2l0.5-0.2c0.5-0.9-0.4-1.3,1-1.7l0.2-1.7h0.2v-0.5h0.2l-0.2-0.5l0.7-0.5
		l-0.2-0.7l0.5-0.5V755l0.5-0.2l-0.2-1.2l0.7-0.2c0.1-0.7,0.4-1.3,0.7-1.9v-1.2l0.5-0.2c0.2-0.5-0.3-0.7-0.2-1h0.2l0.2-0.7h0.2v-0.5
		h0.2l0.2-2.2c0.4-0.8,0.6-1.6,0.7-2.4c0.3,0,0.7,0.1,1,0.2v0.2l0.5-0.2l0.2,0.5l0.7-0.2v-0.2c0.3-0.1,0.5,0.2,0.5,0.2l0.5-0.2v0.5
		c0.2-0.1,0.5-0.5,0.5-0.5h2.4v-0.5h1l0.2-0.5h0.5v-0.5l1-0.2l0.2-0.7h0.5l0.2-0.5h0.2l0.2-0.7l0.5-0.2l0.2-0.7l-0.2-0.5h0.5
		c0.6-0.5,0.8-1.2,0.7-1.9l0.7-0.2l0.2-1.5l0.5-0.2v-1.7h0.2v-0.2h-0.2v-0.7h0.2v-0.2c-0.2-0.3-0.3,0.1-0.2-0.2h0.5V731
		C1094.7,730.5,1095.2,730.7,1095,730z M1087.5,732.7c-0.5,0.6,0.1,1.8-0.2,2.7h-0.2v0.5h-0.2l-0.2,0.7c-0.6,0.1-1.3,0.1-1.9,0v-0.2
		h-0.2v0.2h-2.2c-0.1-0.5,0-0.2-0.2-0.5v-0.2l-1.7-0.2l-0.2-1l-0.5-0.2l-0.2-1.7h-0.2c0-0.5,0.5-0.3,0.5-0.5V732h-0.2v-1h-0.2
		l0.2-0.5c-0.1-0.8-0.2-1.6-0.2-2.4l1.2-0.2v-0.5h1.5l0.5-0.7c0.6-0.1,0.4,0.9,1.2,0c2.7,0,1.7,1.4,3.2,2.4c-0.1,0.5-0.1,1,0,1.5
		h0.5v1h0.2v0.2c-0.1,0.1-0.4,0-0.2,0.5l0.5,0.2L1087.5,732.7z"/>
	<path id="パス_2151" class="st0" d="M1367.4,770.4c-1.5-0.2-1.1-0.8-1.7-1.7l-0.7-0.5v-0.5l-1-0.5c-0.6-0.8,0-1.1-1.2-1.5v-0.5
		c-0.5,0.1-0.2,0-0.5,0.2h-0.2v-1c-0.7-0.2-0.5-0.3-1.2-0.5v-0.7h-0.2v-0.2h-1v-0.2h-0.2v-0.7c-1.3-0.4-0.7-1.1-2.2-1.5v-0.5h-0.7
		l-0.2-1c-0.7-0.2-0.8-0.3-1-1c-0.7-0.2-0.6-0.4-0.7-0.5l-0.7,0.2v-0.7c-0.4-0.7-1.1-1.1-1.9-1.2c0-1.4-0.5-1.5-1.7-1.7v-0.5h-0.5
		v-0.5h-0.7c-0.1-0.9-0.3-0.7-0.5-1.5h-0.5c0-0.4-0.3-0.8-0.7-1v-1h0.2v-0.2h0.7l0.2-1.2h0.5v-1.2h0.2v-0.2l0.7,0.2v-0.2h0.2
		c0.2-0.4-0.2-0.5-0.2-0.5v-0.2h0.2l-0.2-0.7l1.2-0.5v-0.7h0.2v-0.7l0.5-0.2c0.4-0.8-0.4-0.6,0.7-1l0.2-0.7h0.2v-1l0.7-0.5l-0.2-0.7
		c0.2-0.7,0.7-1,0.7-1.9l0.7-0.2c0.1-0.5,0-0.6,0.2-1h0.2V736h0.2l-0.2-0.5h0.2V735l0.5-0.2v-0.5l1-0.5c0.1-0.7,0.2-1.5,0.2-2.2
		l0.5-0.2v-0.7l0.7-0.5V728l-0.5-0.2v-1.5h-0.2v-0.5h-0.2l-0.5-0.7c-0.6-0.3-1.3-0.3-1.9-0.2v0.2h-0.5v0.2h-1.7v0.2l-0.7-0.2
		c-0.6,0-1.6,0.3-1.7,0.2c-0.1,0-0.2-0.7-1-0.5l-0.2,0.5l-1.9-0.2l-0.2,0.5l-0.7-0.2v-0.2h-1.7l-2.2,0.2v-0.2h-1.2l-0.2-0.5
		l-1.2,0.2v0.2l-1-0.2v-0.2c-0.3-0.1-0.6,0-0.7,0.2l-2.7-0.5v-0.2h-1.5v0.2h-0.2l-0.5,2.4h-0.2v1h-0.2l0.2,0.5l-0.5,0.2
		c0,0.3,0.1,0.7,0.2,1l2.2-0.2c0.1,0,0.1,0.7,0.7,0.5l0.2-0.5h0.5v0.5c1.2-0.3,2.4-0.4,3.6-0.2v0.2c0.2,0,0.8-0.4,1.5-0.2v0.2h0.5
		v0.2c0.4,0.1,0.4-0.2,0.5-0.2h2.7v-0.2h0.2v0.2h1.2v0.2c0.7-0.1,1.3-0.3,1.9-0.5c0.5-0.1,0.7,0.3,1,0.2c0,0,0.1-0.3,0.7-0.5
		l0.2,0.7h-0.2v0.5h-0.2c-0.1,0.6-0.2,1.1-0.2,1.7h-0.5c-0.1,1.3-0.6,1.1-1,1.9v1l-0.5,0.2v1h-0.2l-0.2,0.7l-0.5,0.2
		c0.1,0.3,0.1-0.1,0.2,0.2c-0.1,0.4-0.4,0.3-0.5,0.5v0.5l-1.2,0.7l-0.2,1.5l-0.7,0.2c-0.3,0.6-0.5,1.3-0.5,1.9h-0.7l-0.2,0.7
		l-0.5,0.2l0.2,0.7c-0.7,0.2-0.5,0.3-1.2,0.5v1.2c-0.7,0.2-0.6,0.1-0.7,0.7c-0.6,0.2-0.4,0.1-0.7,0.5h-0.2v0.5l-0.7,0.5v0.7
		l-0.7,0.5v0.5h-0.2v0.5h-0.2c-0.3,0.7-0.7,1.2-1.2,1.7v1.2h-0.7l-0.2,0.7h-0.2v0.5h-0.2l0.2,1l-1.2,1l0.2,0.7h-0.2v0.5l-1.2,0.7
		l-0.2,1.9c-0.7,0.2-0.5,0.3-1.2,0.5v1h-0.5l-0.2,0.7h-0.2c0,0.2,0.5,0.5,0.2,1h-0.2v0.2h-0.7c-0.1,1.3-0.5,1.2-0.7,2.2h-0.5
		l-0.2,1.2h-0.5l-0.2,1.2h-0.5c0,0.4-0.2,0.9-0.5,1.2h-0.2v1.5l-0.2,0.2l0.7,0.5v0.2l1,0.2l0.5,0.7h0.5l0.5,0.7h0.5v0.2h0.5v0.2
		c0.7,0.4,0.4-0.2,0.7,0.7c0.6,0.1,0.5,0.3,1,0.5c0.2-0.3,0.5-0.5,0.7-0.7v-1h0.2v-0.5l0.5-0.2c0.4-0.6-0.3-0.4,0.7-0.7
		c0.3-1.1,0.6-0.4,0.2-1.5h0.5l0.2-1h0.5c0-0.4,0.1-0.8,0.2-1.2h0.5c0-0.7,0.2-1.3,0.5-1.9h0.2l0.2-1.7l0.5-0.2l0.2-1l0.5-0.2v-0.5
		h0.2l0.2-2.4h0.5c0.4-0.2,0.5-1.5,0.7-1.9l0.5-0.2v-0.7h0.5v-0.5l0.5-0.2l0.2-0.7h0.5c0.3-0.3,0.4-0.8,0.5-1.2h0.2
		c0.1,0.2,0.5,0.4,0.5,0.5l0.2,1.2l0.7,0.5v0.5l0.5,0.2v0.5h0.2l0.2,0.7c0.5,0.1,0.9,0.4,1.2,0.7v0.2l0.7,0.2v0.5h0.2
		c0.4,0.7-0.2,0.4,0.7,0.7v0.7c1,0.1,1.2,0.3,1.2,1.5h0.2v-0.5c0.5,0.1,0.2,0,0.5,0.2h0.2v0.7c0.7,0.2,0.6,0.1,0.7,0.7h0.5l0.2,0.7
		l1,0.7v0.2h0.7v0.2l1,0.7v0.5c1,0.3,0.3,0.2,0.7,0.7h0.2v0.2h0.5l1.2,1.5h0.5l1,1.2c0.5,0.3,0.3-0.1,0.7,0.5h0.7
		c0.2,0.7,0.1,0.6,0.7,0.7v0.7c1.3,0.2,0.8,0.5,1.5,1c0.4,0.3,0.6,0,1,0.5h2.2l0.2-0.7l0.7-0.5v-0.5l1.5-1.2
		C1368.3,771.5,1367.7,771.4,1367.4,770.4z"/>
	<path id="パス_2153" class="st0" d="M1221.5,742.5v-0.7h-0.2l0.2-1.7h-0.2v-1l-0.5-0.2c-0.1-0.9-0.2-1.8-0.2-2.7
		c0-0.1,0.3-0.1,0.2-0.5h-0.2v-0.5h-0.2c-0.1-0.3,0-0.6,0.2-0.7c0.1-0.6-0.2-0.7-0.2-0.7c-0.2-0.7,0.2-1.1,0.2-1.5h-0.2v-0.5h-0.2
		c-0.5-1.3,0-2.6,0-4.1c-1.4-0.1-5.7-1.3-6.3-1.9h-0.2l0.2,1.5h0.2l-0.2,0.7h0.2v3.4h0.2v0.2h-0.2v0.5h0.2v1h-0.5v0.2h0.5
		c0.2,0.3-0.2,0.2-0.2,0.2l0.2,0.5h-0.2v1.2h-0.2v1h0.2c-0.1,0.3-0.2,0.6-0.2,1h0.7c-0.1,1.1-0.5,1-0.2,1.9h-0.5l0.2,1.2h0.2l-0.2,1
		h-0.2l0.2,0.7h0.2c0,0.4-0.4,0.3-0.5,0.5v0.5h0.5c-0.3,2,0,2.5,0,4.6h-0.5v2.2c0,0.1,0.3,0.1,0.2,0.5h-0.2v1h-0.2l0.2,1.5v1.7h-0.2
		c0.1,0.9,0.2,1.8,0.2,2.7h-0.5v1.2l0.5,0.2c0.1,0.2,0,0.4-0.2,0.5c0.1,0.3,0.2,0.6,0.2,1h-0.7c0.2,0.6,0.3,1.3,0.2,1.9
		c-0.2,0.2-0.3,0.5-0.2,0.7c0.2,0.2,0.3,0.5,0.2,0.7h-0.2v2.2h-0.2v1h-0.2v1h-0.2c0,0.2,0.1,0.4,0.2,0.5c0.1,0.6-0.2,0.7-0.2,0.7
		l0.2,0.5h-0.2v2.2h-0.2l0.2,1.9c-0.2,1,0,2.6-0.5,3.9c0.3,0.1,0.4,0.4,0.5,0.5h0.5v0.2h1v0.2h1v0.2h1.5l0.2,0.5l2.4,0.2
		c-0.1-0.9-0.2-1.8-0.2-2.7h0.2V776h0.2v-1.7h0.2v-1h0.2l-0.2-1l0.5-0.2v-1.2h0.2v-4.1c0,0-0.4-0.1-0.2-0.7c0.1-0.3,0.3,0.1,0.2-0.2
		c0-0.2-0.5-0.1-0.5-0.5h0.2c0-0.4-0.2-0.5-0.2-0.5c-0.1-0.6,0.2-0.6,0.2-1c0-0.4,0-0.8-0.2-1.2l0.7-0.2c-0.4-0.6,0.2-3.7,0.2-4.9
		h0.5v-1.5l0.2-0.2c-0.3-0.4-0.2,0.2-0.5-0.2h0.5v-1.2h-0.2c0-1.1-0.1-1.5,0.7-1.7c-0.1-1.8-0.2-3.6-0.2-5.3h-0.2l0.2-1
		c0-0.3-0.2,0.1-0.2-0.2l0.5-0.2l-0.2-0.5h0.2V744h-0.2l0.2-1.5L1221.5,742.5z"/>
	<g id="グループ_1135" transform="translate(0 3.52)">
		<path id="パス_2152" class="st0" d="M1268.4,732.8h-0.2v-0.5h-0.2v-1h-0.2l0.2-2.4h-0.2l-0.2-0.7h0.5v-0.5h-0.7
			c0.1-0.2,0.3-0.4,0.5-0.5c-0.1-0.7-0.1-0.9-0.5-1.2v-0.2h-0.7v-0.2h-0.2c-0.3,0.2,0.1,0.3-0.2,0.2v-0.2h-0.7v-0.2h-1.5V725h-0.5
			v-0.2h-1.2v-0.2c-0.4,0-0.8,0.1-1.2,0.2c0.2,2.1,0.3,4.2,0.5,6.3h0.2v1.2h-0.2c-0.1,0.3,0,0.6,0.2,0.7c0.3,1.1,0,2.4,0.2,3.2h-0.5
			c-0.1,0.9-0.2,1.8-0.2,2.7l-0.7,0.5c-0.4,0.8,0.3,2.2,0.2,2.7h-0.2v0.7l-0.5,0.2v1.2h-0.5l0.2,1.5h-0.2v0.5h-0.2v0.7h0.2v0.2h-0.2
			v1.2h-0.2c-0.1,0.7,0.6,0.5,0.5,1h-0.2l-0.2,1.5h-0.2c0,0.3,0.4,0.4,0.2,1h-0.2v1h-0.2l0.2,0.7h-0.2c0,0.3,0.4,0.4,0.2,1h-0.2v0.5
			h-0.2v2.4h-0.5c0.1,1.1,0,2.1-0.2,3.2l0.2,0.5h-0.2v0.5h-0.2c0,0.4,0.4,0.3,0.5,0.5l-0.2,0.5h0.2v1l-1,0.7
			c-0.1,0.4,0.2,0.5,0.2,0.5l-0.2,4.1h-0.2v0.5h-0.2l0.2,0.7l-0.7,0.5l0.2,0.5h-0.2v0.5h-0.2c-0.2,0.3-0.2,0.4-0.2,1
			c1.8,0.2,3.1,0.8,4.4,1c0.1-0.9,0.5-2.8,1-3.2h0.5V770l0.7-0.5l0.2-1.7h0.2c0.2-0.3,0.3-0.6,0.2-1h0.5c0-0.6,0-1.2,0.2-1.7h0.2
			v-0.7h0.2l0.2-0.7h0.5v-1h-0.2v-0.2h0.2l0.2-1h0.2l0.2-1.2l0.5-0.2l0.2-1.7h0.2v-0.5h0.2c0.1-0.4-0.7-0.7-0.5-1.2l0.7-0.5
			c-0.1-1-0.2-1.9-0.2-2.9h0.2v-0.7h0.2l-0.2-0.5l0.5-0.2c0.2-0.6-0.2-0.9-0.2-1.2h0.5c0.1-0.4-0.7-0.4-0.5-1.2h0.2v-1.5
			c0.1-0.3,0.2,0.1,0.2-0.2c-0.1-0.2-0.4,0-0.2-0.5h0.2l0.2-2.9h-0.2v-1l0.5-0.2c0.4-0.9-0.2-1.6,0-2.2l0.5-0.2
			c0.1-0.2,0-0.4-0.2-0.5c0,0,0,0,0,0c0-0.2,0.1-0.4,0.2-0.5c0-0.3-0.1,0.1-0.2-0.2v-0.7h-0.2v-1c0.9-0.4-0.3-0.6,0-1.9
			c0-0.1,0.3-0.1,0.2-0.5h-0.2V734C1268,733.8,1268.7,733.8,1268.4,732.8z"/>
		<path id="パス_2154" class="st0" d="M1247.2,748.4c0.3-0.9,0.4-1.8,0.2-2.7h-0.2v-1.9c-0.1-0.2-0.6,0-0.5-1h0.2l-0.2-0.2
			c0-0.3,0.4-0.6,0.2-1.2h-0.2v-1.7c0-0.3,0.1-0.7,0.2-1c-0.2-0.2-0.3-0.5-0.2-0.7h0.2c0.3-1.1-0.7-1-0.5-1.9h0.2
			c0.2-0.8-0.3-1.2-0.2-1.7h0.2c0-0.3-0.4-0.6-0.2-1.2c0-0.1,0.3-0.1,0.2-0.5h-0.2v-1c0.1-0.9,0.2-1.8,0.2-2.7c-1,0-1.2,0.1-1.7,0.5
			l-0.2,0.5l-2.9,0.2v0.5l-1.2,0.2c-0.2,0.3,0,0-0.2,0.2l-0.2,1.2h0.2v0.2h-0.2v0.2c0.2,0.1,0.3,0.3,0.2,0.5l-0.2,0.5h0.2l0.2,1.7
			h-0.7v1.2c0,0.1,0.4,0.1,0.5,0.5h-0.2v0.5h-0.2c0,0.3,0.4,0.4,0.2,1c0,0.1-0.3,0.1-0.2,0.5h0.2v1h0.2c0,0.3-0.4,0.6-0.2,1.2
			l0.5,0.2c0,0-0.8,1.6-0.7,1.9l0.5,0.2l0.2,1.9h-0.5c0.1,0.3,0.1,0.7,0.2,1h-0.2v1.2h0.2l-0.2,1.9h0.2v0.7h0.2
			c0.3,1-0.3,2.5,0.2,3.2c0.2,0.8,0.3,0.5,0.7,1c2.5-0.2,3.8-2.1,6.3-2.2c0.1-1,0.2-1.9,0.2-2.9l0.5-0.2v-0.2h-0.2
			C1248.2,748.3,1248.2,748.4,1247.2,748.4z"/>
	</g>
	<path id="パス_2155" class="st0" d="M1203.8,744.5l-0.5-0.2V743h-0.2l-0.2-0.7l0.5-0.2l0.2,0.2l-0.2-1h-0.2l0.2-1.9l-0.5-0.2
		v-0.5h-0.2c-0.1-0.7,0.5-0.6,0.5-0.7c0.1-0.4-0.2-0.4-0.2-0.5v-3.2h-0.2c0.1-1.1,0.2-2.3,0.2-3.4h-0.2l-0.2-0.7
		c-2.2,0.1-4.2,0.8-6.1,0.5c-0.3,0.3-0.6,0.5-1,0.7c0,1-0.2,2.3,0.2,2.9l0.7,0.5c0.1,1.4,0.2,2.8,0.2,4.1h0.2v0.7h0.2v1.9h0.2v1h0.2
		v1.5h0.2v1h0.2v1.7l0.5,0.2v1.9h0.5v1c1.1,0.3,0.9,0.9,1.9,1.2c0.8-0.9,2-1.3,2.7-2.4h0.5c0-0.8-0.2-1.6-0.5-2.4L1203.8,744.5z"/>
	<path id="パス_2156" class="st0" d="M1172.5,771.9h-0.5l-0.2-0.5h-0.7v-0.2c-0.3-0.3-0.6-0.4-1-0.5c-0.2-0.7-0.3-0.8-1-1v-0.5
		c-0.4-0.1-0.8-0.3-1.2-0.5c-0.2-0.7-0.1-0.1,0-0.7h-0.5v-0.5h-1V767h-0.5c0.5-0.5-0.6-1-0.7-1.7c-0.2,0.1-0.4,0.3-0.5,0.5
		c-0.9-0.8,0.1-0.5-0.2-1.2l-1.9-1.5l0.2-0.5l-0.7,0.2v-0.2c-0.6-0.4,0-0.4-1-0.7c-0.1-0.3-0.5-1.1-0.5-1.2c0.1-0.3,0.2,0.1,0.2-0.2
		h-1V760l-0.7-0.2l-0.7-1h-0.7c-0.1-0.9-0.3-0.9-1-1.2c0.1-0.4,0.2-0.7,0.5-1h0.2v-0.7h0.2v-0.5h0.2c0.3-0.4,0.1-0.3,0.7-0.5
		c-0.1-0.7,0.1-1.4,0.5-1.9l0.5-0.2v-0.5l0.5-0.2v-0.5h0.2c0.3-0.3,0.5-0.8,0.5-1.2h0.7l0.2-1.7h0.7l0.2-1c0,0,0.9,0,0.5-0.2
		c-0.1-0.3-0.2,0.1-0.2-0.2l0.7-0.2l0.2-1.5c0.5-0.1,0.2,0,0.5-0.2h0.2l-0.2-0.7l0.5-0.2v-0.7l0.5-0.2v-1h0.2V742h-0.2v-0.2h0.2
		v-0.5h0.2c0.1-0.4-0.2-0.4-0.2-0.5v-0.2h0.2v-0.7h0.2v-0.7l0.5-0.2c0.3-0.7,0.3-1.5,0-2.2c-0.2-0.9-0.8-0.8-1.2-1.5h-2.2V735h-0.2
		l-0.7,0.2l-0.2-0.5h-1.9v-0.2h-1.7v-0.2l-0.7,0.2v-0.2h-0.5V734l-1.5,0.2V734c-0.2-0.1-2.2-0.2-2.2-0.2c-0.2,0.2-0.5,0.3-0.7,0.2
		c0,0,0-0.2-0.5-0.2l-1,0.2v-0.2h-1.5l-0.2-0.5c-0.8-0.3-0.7,0.4-1,0.5l-0.7-0.2v-0.2l-1.5,0.2v-0.5l-1.2-0.2v0.2h-0.7v0.2
		c-0.6,0.2-1.1-0.2-1.5-0.2v0.2h-0.2v-0.2l-0.7,0.2v-0.2c-0.6-0.1-1.2-0.4-1.7-0.7c-0.6,0-0.9,0-1.2,0.2v0.2l-0.7,0.2v0.5
		c-0.2,0.2-0.5,0.2-0.7,0.5h-0.2l0.2,0.5h-0.2v1h0.2v0.2h-0.2l0.2,0.7h-0.2v1.7c0.7,0.2,1.3,0.4,1.9,0.7h1v0.2h0.5v0.2h1.5v0.2
		l1,0.2v0.2h1.2v0.2h0.2c0.1-0.2,0.3-0.3,0.5-0.2c0,0,0,0,0,0v0.2l1.7,0.2v-0.2h1.5v0.2h0.5v0.2c1,0.3,0.8-0.8,1.7-0.5l0.2,0.5
		c0.7-0.3,1.4-0.4,2.2-0.2v0.2h0.5v0.2h0.2v-0.2l4.1,0.2c-0.2,1.1-0.2,0.6-0.7,1.2h-0.2v0.7h-0.2v0.5l-0.5,0.2v0.7l-0.5,0.2v0.7
		l-1,0.7l0.2,0.5l-0.5,0.2l-0.2,1.5l-0.7,0.2c0,0.6,0,0.8-0.2,1.2h-0.2v0.5h-0.2v1.5h-0.2c-0.2,0.3-0.3,0.6-0.2,1l-0.7,0.2
		c-0.3,0.6-0.5,1.3-0.5,1.9h-0.5c-0.1,0.5,0,0.6-0.2,1h-0.2v0.5l-0.5,0.2v0.5l-0.5,0.2v1.2h-0.2c-0.2,0.3-0.3,0.6-0.2,1
		c-0.5,0.1-0.2,0-0.5,0.2h-0.2c-0.3,0.5,0.1,1.2-0.2,1.7l-1.2,0.7c-0.1,0.2,0.5,0.5,0.2,1l-0.5,0.2l-0.2,0.7h-0.2v0.7l-0.7,0.5v0.5
		h-0.2c-0.1,0.2,0.3,0.4,0,1h-0.2l-0.7,1h-0.5c-0.1,0.7-0.1,0.9-0.5,1.2c-0.2,0.7-0.1,0.6-0.7,0.7l-0.2,1.5l-1,0.2
		c0,1.1,0,1.1-0.5,1.7h-0.2v0.5h-0.2c0,0.3,0.2,0.4,0.2,1c-0.5,0.1-0.2,0-0.5,0.2h-0.2l-0.2,1.7c0,0-0.8-0.1-0.5,0.2
		c0,0.2,0.4-0.1,0.2,0.2l-0.5,0.2v1l-0.5,0.2v1l-0.7,0.5c-0.4,0.8,0.4,0.6-0.5,1.2c0.1,0.5,0,0.2,0.2,0.5c0.7,0.7,1.4,0.1,2.4,0.5
		v0.2c0.5,0.2,1.1,0.3,1.7,0.2l0.2-0.7l1.5-0.5v-0.7h0.5l0.2-1.5c0.8-0.2,0.9-0.6,1.5-1l0.2-1.5h0.5c0.3-1.1,0.9-1.3,1-2.7h0.5
		c0.2-0.7,0.4-0.6,0.5-1.5h0.5l0.7-1.2h-0.2v-0.2l0.5-0.2c0.4-0.6,0.6-1.3,0.5-1.9l0.7-0.2c0.1-1.1,0.4-0.6,0.5-1.7h0.5
		c0.1-0.6,0.2-1.1,0.2-1.7h0.5v-1h0.2c0.3-0.3,0.5-0.8,0.5-1.2l1,0.7v0.2h0.5v0.2l0.7,0.2v-0.2h0.2c1,0.7,1.8,1.6,2.4,2.7h0.7l0.2,1
		h0.7v0.2c0.7,0.2,0.6,0.1,0.7,0.7c1.3,0.4,0.8,1.3,2.2,1.7v0.5h0.5c0,0.1-0.1,0.8,0.2,0.5c0,0,0-0.5,0.2-0.2v0.5h0.2l0.5,0.7h0.5
		l0.5,0.7h0.2v0.5l0.7,0.2c0.6,0.5,0.5,1,1.5,1.2v0.5h0.5v0.5l1.2,0.2c0.1,0.6,0.3,0.5,0.5,1c1.2-0.2,0.9-0.7,1.9-1
		c0.2-0.7,0.4-0.7,0.7-1.2h0.5c0.2-0.6,0.6-1.2,1.2-1.5v-0.7l-0.7-0.2L1172.5,771.9z"/>
	<path id="パス_2157" class="st0" d="M1313.6,744h-0.2v-0.2l0.2-0.2c-0.9,0.1-1.3,0.3-1.7,0h-1.2v0.2h0.2v0.2c0,0-1.3-0.7-2.2-0.2
		l-0.2,0.5c-0.8,0.3-0.8-0.4-1.2-0.5c-1,0.7-1.2,0.1-2.7,0.5v0.2l-0.5-0.2v0.2l-3.2,0.2v0.2c-0.3,0.1-0.6,0-0.7-0.2h-1.2v0.2
		l-0.5-0.2c-0.2,0.1-0.1,0.4-0.5,0.5V745h-0.2v0.2c-0.8,0.2-0.8-0.4-1-0.5c-0.5-0.1-0.1,0.3-0.2,0.5c-0.3,0.1,0,0-0.2-0.2
		c-0.4,0-0.5,0.2-0.5,0.2c-0.3,0.1-0.6,0-0.7-0.2l-0.7,0.2V745l-0.7,0.2v0.2h-0.5v0.2c-0.8,0.2-1.7,0.2-2.4-0.2h-2.4v0.2h-0.5v0.2
		h-1v0.2h-0.2v-0.2h-2.4l-0.2,0.7c-0.2,0.2-0.2,0-0.2,0.5c0.2,1.3,0.2,2.6,0,3.9h-0.2v0.2h0.2v0.7h0.2v-0.2c0.4,0.2,1,0.3,1.5,0.2
		v-0.2h0.5v0.2c0.6,0.1,0.7-0.2,0.7-0.2h1.5v0.2l1.2-0.2v0.5l1.2-0.2v0.2h1c0.3-0.1-0.1-0.2,0.2-0.2l0.5,0.2c0,0,0.1-0.3,0.5-0.2
		v0.2h0.5V752h1.7v0.5c1.1-0.1,0.7-0.4,1.9-0.5v0.5c0.2-0.4,1,0,1.7,0V752l5.3-0.2v0.5c0.7-0.1,0.7,0,1-0.5h1.2l-0.2-0.5h0.7v0.2
		l0.7,0.2v-0.2h0.5l0.2-0.5l2.7,0.2h0.2V751h0.7v-0.2h1.7v-0.2h0.2c0-1.3-0.3-3.6,0-5.1h0.2V745h-0.2L1313.6,744z"/>
	<path id="パス_2158" class="st0" d="M1120.7,756.2l-0.7,0.2l0.2,0.5h-0.2v0.2c-0.5-0.4-0.7,0.1-1.5,0.2v0.7h-1l0.2,0.5h-0.5
		l-0.2,0.5h-0.7l-0.2,0.5l-1.7,1.2v0.2l-0.7-0.2v0.2h-0.5v0.7h-0.2v0.2l-0.7-0.2c-0.2,0.3,0,0-0.2,0.2c-0.1-0.7-0.4-1.3-0.7-1.9
		v-1.5h-0.2v-2.2h-0.2l-0.2-0.7h-0.2c0-0.4,0.4-0.3,0.5-0.5l-0.2-0.7h-0.2v-0.7h-0.2v-1h-0.2c0.1-0.7,0.2-1.5,0.2-2.2l-0.7-0.5v-1
		h0.2V749h-0.2v-2.2h-0.2v-0.5h-0.2v-0.7h-0.2l0.2-0.5c0-0.1-0.3-0.1-0.2-0.5c0.2-0.2,0.3-0.5,0.2-0.7h-0.2l-0.2-2.4
		c-0.3-0.2,0,0-0.2-0.2l-4.4,0.2v0.2h-1v0.2h-0.2l-0.2-0.2c-0.1,0.5-0.2,0.7-0.5,1l0.5,2.2l0.5,0.2c0.1,0.3-0.1,0-0.2,0.2v1h0.2
		l-0.2,0.7h0.2v0.7h0.2v0.5h0.2l-0.2,2.9l0.5,0.2v0.2h-0.2v1.5h0.2v2.4h0.2v1.5h0.2c0,0.3-0.5,0.7-0.2,1.2l0.5,0.2v1.7
		c-0.1,0.3-0.2-0.1-0.2,0.2l0.5,0.2l-0.2,0.7h0.2v0.7h0.2v1.2h0.2v0.7h0.2c0.1,0.3-0.5,0.4-0.2,1l0.5,0.2v1.2h0.2v0.7h0.2l0.2,1.9
		h0.2v0.5l0.7,0.5l0.2,1.5h0.2l1.2,1.5c1.5,0.1,2.9-0.8,3.4-2.2h0.5l0.2-0.7l1.2-0.2c0.3-0.9,1.2-1.5,2.2-1.5
		c0.2-0.8,0.5-0.6,0.7-1.5c0.9-0.2,1.3-0.9,1.9-1.5v-0.2h0.5l0.2-0.5h0.2l0.2-1c1.1-0.3,1.1-1.1,1.7-1.9l0.5-0.2v-0.7
		c0-0.1,0.4-0.2,0.5-0.5h0.7c-0.2-2.1-1.4-3.2-1.5-5.3C1121.1,755.3,1121.3,755.8,1120.7,756.2z"/>
</g>
</svg>
