<?xml version="1.0" encoding="utf-8"?>
<!-- Generator: Adobe Illustrator 24.2.0, SVG Export Plug-In . SVG Version: 6.00 Build 0)  -->
<svg version="1.1" id="レイヤー_1" xmlns="http://www.w3.org/2000/svg" xmlns:xlink="http://www.w3.org/1999/xlink" x="0px"
	 y="0px" viewBox="0 0 524 182" style="enable-background:new 0 0 524 182;" xml:space="preserve">
<path id="パス_2168" d="M11.2,17.5c-2.9,0-5.8-0.1-8.7-0.1c-1.7,0-1.6,0.7-1.6,4.2c0,1.9-0.1,3.2,1.7,3.2c2.3,0,5.6-0.2,8.6-0.2
	h28.1c1.3,0,2.5-0.1,2.5,0.9c0,0.8-3.5,4-4.2,4.7c-2.7,2.5-5.5,5-8.4,7.4c-0.4,0.4-1,0.7-1.6,0.7c-0.8,0-1.2-0.5-1.7-1
	C25,36.5,21.7,33,20.7,33c-1.3,0-5,3-5,4c0,0.6,0.9,1.3,1.3,1.7c4.7,4.2,8.8,9.1,12.1,14.5c0.3,0.5,0.7,1.2,1.3,1.2
	c1.4,0,5.6-2.7,5.6-4c0-0.6-2-3.4-2.5-4.1c-0.4-0.6-1-1.2-1-1.9c0-0.9,0.7-1.4,1.3-1.9c6.2-5.2,12.1-10.7,17.8-16.3
	c0.6-0.6,1.2-1.1,1.8-1.7c1.1-1,2.1-1.9,2.1-2.3c0-0.8-3.4-5-4.7-5c-0.2,0-0.5,0-0.7,0.1c-1.2,0.2-2.5,0.2-3.8,0.2L11.2,17.5z
	 M83.6,17.5c-2.9,0-5.8-0.1-8.7-0.1c-1.7,0-1.6,0.7-1.6,4.2c0,1.9-0.1,3.2,1.7,3.2c2.3,0,5.6-0.2,8.6-0.2h28.1
	c1.3,0,2.5-0.1,2.5,0.9c0,0.8-3.5,4-4.2,4.7c-2.7,2.5-5.5,5-8.4,7.4c-0.4,0.4-1,0.7-1.6,0.7c-0.8,0-1.2-0.5-1.7-1
	C97.4,36.5,94,33,93,33c-1.3,0-5,3-5,4c0,0.6,0.9,1.3,1.3,1.7c4.7,4.2,8.8,9.1,12.1,14.5c0.3,0.5,0.7,1.2,1.3,1.2
	c1.4,0,5.6-2.7,5.6-4c0-0.6-2-3.4-2.5-4.1c-0.4-0.6-1-1.2-1-1.9c0-0.9,0.7-1.4,1.3-1.9c6.2-5.2,12.1-10.7,17.8-16.3
	c0.6-0.6,1.2-1.1,1.8-1.7c1.1-1,2.1-1.9,2.1-2.3c0-0.8-3.4-5-4.7-5c-0.2,0-0.5,0-0.7,0.1c-1.2,0.2-2.5,0.2-3.8,0.2L83.6,17.5z
	 M164.1,5.8c-0.6,0-0.8,0.5-0.8,1c0,0.1,0.1,1.5,0.1,2.6c0,2.9-0.3,5.8-0.7,8.6c-0.2,1.4-0.8,1.8-2.1,2.1c-3.7,0.7-7.4,1.6-11.2,2
	c-0.8,0.1-1.9,0.1-1.9,1.1c0,0.4,1.1,7,2.7,7c0.5-0.1,1-0.2,1.4-0.5c1.2-0.5,6.7-2.3,7.7-2.3c0.5,0,0.9,0.3,0.9,0.8c0,0,0,0,0,0.1
	c0,1-1.2,3.9-1.7,5.1c-2.7,7-6.7,13.3-12,18.6c-0.5,0.4-0.8,0.9-0.9,1.5c0,1.5,4.3,4.1,5.5,4.1c0.5,0,0.9-0.3,1.1-0.7
	c2-2,5.2-7,6.6-9.5c3.8-6.2,6.7-13,8.6-20c0.5-1.9,1.2-2.4,5-2.4c4.1,0,4.3,2.8,4.3,6.1c0,4.4-1.1,11.3-3,15.1
	c-1.7,3.3-3.3,4.2-7,4.2c-1.3,0-2.3-0.3-3-0.3c-0.7,0-0.9,0.5-0.9,1.1c0.1,1.7,0.5,3.3,1.2,4.8c0.7,1.4,1.6,1.5,3.1,1.5
	c5.4,0,10-2.3,12.7-7.2c2.9-5.4,4-14.4,4-20.5c0-3.8-0.8-7.6-4.2-9.8c-2.3-1.5-4.9-1.5-7.6-1.5h-0.8c-0.7,0.1-1.4-0.4-1.5-1.1
	c0-0.1,0-0.2,0-0.2c0-0.3,0.1-0.5,0.1-0.8c0.2-1.1,0.3-2,0.5-2.7c0.3-2.4,0.5-3.5,1.7-4.4c0.3-0.3,0.6-0.5,0.6-0.9
	c0-0.7-1.2-0.9-1.7-1.1C169.8,7,164.8,5.8,164.1,5.8z M191.4,5.8c-0.8,0-3.2,2-3.2,2.8c0,0.3,0.3,0.7,0.6,0.9
	c1.7,1.6,3.3,3.3,4.8,5.2c0.3,0.3,0.6,0.7,0.9,0.7c0.9,0,3.2-2,3.2-3.1C197.7,11.5,192.1,5.8,191.4,5.8z M197.7,1
	c-0.7,0-3.2,2-3.2,2.8c0,0.3,0.4,0.7,0.7,0.9c1.7,1.7,3.2,3.3,4.8,5.2c0.3,0.4,0.5,0.7,0.9,0.7c0.8,0,3.2-2,3.2-3.1
	C204,6.8,198.4,1,197.7,1L197.7,1z M186.8,13.1c-1.1,0-4.8,2.2-4.8,3.4c0.1,0.4,0.3,0.8,0.6,1.1c4.2,4.5,6.4,8.8,9,14.3
	c0.3,0.7,0.7,1.5,1.5,1.5c1.3,0,5.6-2.5,5.6-4C198.7,27.8,189.3,13.1,186.8,13.1L186.8,13.1z M232.5,16c-2.5,0-5-0.1-7.4-0.1
	c-3.1,0-3.3,0.9-3.3,2.8c0,1.1,0.1,2.3,0.1,3.5v9.2c0,1.7-0.1,3.3-0.1,5c0,1.6,0.5,1.7,3.4,1.7c3.5,0,4.1,0,4.1-1.9
	c0-1.1-0.1-3.3-0.1-5.1v-6.7c0-1,0.8-1.9,1.9-1.9c0,0,0,0,0,0h26c1.3,0,2.6,0.1,2.6,1.7c0,2.5-1.9,8.2-2.9,10.7
	c-4,8.8-11.8,15.7-20.6,19.6c-0.6,0.3-1.2,0.5-1.2,1.1c0,1.1,2.9,5.2,4.4,5.2c2.3,0,10.7-6.4,12.7-8.1c9.4-8.2,13.1-16.8,15.4-28.7
	c0.2-0.9,0.4-1.7,0.7-2.6c0.2-0.6,0.3-1.1,0.4-1.7c0-0.9-0.7-1.5-1.9-2.6c-0.6-0.7-1.5-1.2-2.5-1.4c-0.4,0-0.9,0-1.3,0.1
	c-1.1,0.1-2.1,0.2-3.2,0.1h-9.7c-1,0-1.9-0.8-1.9-1.8c0,0,0-0.1,0-0.1v-2.9c0-3.9-0.1-4.7,0.7-5.4c0.3-0.3,0.8-0.7,0.8-1
	c0-0.7-2-0.8-2.5-0.8c-0.7,0-5-0.3-5.7-0.3c-0.5,0-1,0.1-1,0.7c0,0.3,0,0.5,0.1,0.8c0.2,2,0.3,4.1,0.3,6.2v2.7c0,1-0.8,1.9-1.8,1.9
	c0,0-0.1,0-0.1,0L232.5,16z M305.1,11.5c-2.9,0-5.8-0.1-8.6-0.1c-1.9,0-1.8,0.7-1.8,3.8c0,3-0.1,3.6,2,3.6c2.8,0,5.6-0.1,8.4-0.1
	h23.8c1.2,0,2.3,0.1,2.3,1.4c0,0.5-0.1,1.1-0.1,1.6c-1.1,7.7-5,14.6-11,19.6c-4.9,4-10.6,7.1-16.7,8.8c-0.6,0.1-1.2,0.3-1.2,1.1
	c0,1.1,2.4,5.6,4,5.6c0.8-0.1,1.5-0.3,2.2-0.6c4.5-1.8,8.9-4.1,12.9-6.8c10.9-7.6,15.6-16.5,17.9-29.5c0.5-2.9,1.1-3.6,1.1-4.3
	s-2.9-4.3-4.5-4.3c-0.2,0-0.9,0.1-1.2,0.1c-1.3,0.1-4.6,0.1-6,0.1L305.1,11.5z M377.4,11.5c-2.9,0-5.8-0.1-8.6-0.1
	c-1.9,0-1.8,0.7-1.8,3.8c0,3-0.1,3.6,2,3.6c2.8,0,5.6-0.1,8.4-0.1h23.8c1.2,0,2.3,0.1,2.3,1.4c0,0.5-0.1,1.1-0.1,1.6
	c-1.1,7.7-5,14.6-11,19.6c-4.9,4-10.6,7.1-16.7,8.8c-0.6,0.1-1.2,0.3-1.2,1.1c0,1.1,2.4,5.6,4,5.6c0.8-0.1,1.5-0.3,2.2-0.6
	c4.5-1.8,8.9-4.1,12.9-6.8c10.9-7.6,15.6-16.5,17.9-29.5c0.5-2.9,1.1-3.6,1.1-4.3s-2.9-4.3-4.5-4.3c-0.2,0-0.9,0.1-1.2,0.1
	c-1.3,0.1-4.6,0.1-6,0.1L377.4,11.5z M435.1,15.5c0.1,1.6,0.4,3.2,0.7,4.8c0.2,0.7,0.5,2.2,1.5,2.2c0.3,0,0.7-0.1,1-0.1
	c4.3-1.1,10.3-2.1,14.8-2.7c0.7-0.1,3.8-0.6,4.2-0.6s1,0.2,1,0.8c0,0.3-0.4,0.8-1.1,1.6c-4.7,5.3-7.3,12.1-7.4,19.2
	c0,13.1,9.8,16.7,21.2,16.7c1.1,0,1.7-0.1,2.1-1.1c0.6-1.8,0.9-3.6,1-5.5c0-1.1-0.5-1.1-1.5-1.1c-0.7,0-2.2,0.1-3.3,0.1
	c-6.8,0-11.8-1.9-11.8-9.6c0.1-4.1,1.2-8.2,3.2-11.8c2.4-4.7,6.5-8.2,11.4-10c3.8-1.3,7.2-1.3,11.1-1.4c1.6-0.1,3,0.1,3-1.4
	c-0.1-1.6-0.3-3.3-0.6-4.9c-0.1-0.8-0.3-1.7-1.3-1.7c-0.3,0-0.6,0-0.9,0.1c-5,0.8-10.1,1.5-15.2,2.1c-9.7,1.1-19.5,2.1-29.3,2.7
	C436,13.9,435.1,13.7,435.1,15.5z M485.7,19.4c-0.8,0-3.4,1.7-3.4,2.5c0.1,0.3,0.2,0.6,0.5,0.9c1.6,1.8,3,3.6,4.4,5.6
	c0.3,0.3,0.5,0.9,1,0.9c0.8,0,3.4-1.9,3.4-2.8C491.5,25.6,486.4,19.4,485.7,19.4z M477.6,23.1c-0.7,0-3.4,1.7-3.4,2.5
	c0,0.3,0.4,0.7,0.6,0.9c1.5,1.8,2.9,3.7,4.3,5.6c0.3,0.3,0.5,0.8,0.9,0.8c0.7,0,3.4-1.8,3.4-2.8C483.4,29.3,478.3,23.1,477.6,23.1z
	 M505.4,47.6c0,0.6,0.7,1,1.2,1.3c3.9,2.4,7.3,5.5,10.2,9.1c0.3,0.4,0.8,1,1.3,1c1.5,0,4.9-3.7,4.9-5.2C523,52.2,511.5,43,510,43
	C508.8,43,505.4,46.5,505.4,47.6z M5.8,160.3c0,1.8,1.6,5,2.6,6.5c4.4,6.1,11.9,7,18.8,7c4,0,16.5-0.8,20.1-1.9
	c1.3-0.4,1.6-1.2,1.6-2.5c0-4.4-0.5-5.5-1.5-5.5c-0.3,0-0.7,0.1-1,0.2c-6.5,1.6-13.2,2.4-20,2.3c-6.3,0-12-1-13.4-8.1
	c-0.1-0.7-0.3-1.3-1.2-1.3C11.8,157.1,5.8,158.6,5.8,160.3z M12.5,137.2c0,0.6,0.3,1.2,0.9,1.4c3.3,1.3,11.6,1.7,15.3,1.7
	c4.1,0,8.1-0.3,12.1-0.8c1.5-0.3,1.9-0.4,1.9-2c0-2.7-0.1-5.8-1.7-5.8c-0.3,0-0.6,0.1-0.9,0.1c-4,0.9-8,1.3-12.1,1.3
	c-3.8,0-7.7-0.4-11.4-1.4c-0.6-0.2-1.3-0.3-1.9-0.4c-1.3,0-1.4,1.2-1.6,2.3C12.8,134.8,12.6,136,12.5,137.2z M117.1,128.1
	c-0.7,0-3.6,1.4-3.6,2.2c0,0.4,0.7,1.2,0.9,1.6c1,1.5,2.1,3.3,2.9,4.8c0.6,1,0.7,1.4,1.3,1.4c0.8,0,3.6-1.5,3.6-2.5
	c0-0.7-2.1-3.8-2.5-4.4C119.3,130.5,117.7,128.1,117.1,128.1L117.1,128.1z M124,123.4c-0.7,0-3.6,1.4-3.6,2.3c0,0.2,0.1,0.4,0.2,0.5
	c1.5,2.2,2.7,4,4,6.3c0.2,0.4,0.4,0.9,0.9,0.9c0.7,0,3.6-1.5,3.6-2.6c0-0.6-2-3.7-2.5-4.4C126.1,125.7,124.7,123.4,124,123.4z
	 M89.6,126.6c-2.3,0.3-4.4,0.5-4.4,1.4c0,0.3,0.1,0.5,0.2,0.8c0.5,1.4,0.9,2.9,1.3,4.4c0.7,2.9,2.5,9.8,3.4,12.4
	c0.1,0.3,0.2,0.7,0.2,1.1c0,1.1-0.8,1.5-1.6,2.1c-5.3,3.3-10,7.9-10,14.6c-0.1,4.3,2.3,8.3,6.1,10.4c4.4,2.5,9,2.8,13.9,2.8
	c3.5,0,14.8-0.4,17.8-0.9c1.7-0.3,1.9-1,1.9-2.8v-0.8c0-1.5-0.1-4.3-1-4.3c-0.2,0-0.5,0-0.7,0.1c-1,0.2-5.8,0.9-7,1.1
	c-3.5,0.4-7,0.6-10.5,0.7c-3,0.1-6.1-0.3-9-1.1c-2.1-0.7-4.4-2.5-4.4-4.9c0-6,10.1-11.1,14.7-13.5c4.5-2.4,9.2-4.5,13.9-6.3
	c0.5-0.1,1.3-0.3,1.3-1c0-1.1-3.2-6.8-4.4-6.8c-0.6,0.1-1.2,0.4-1.7,0.7c-1.6,1-10.3,6.3-11.5,6.3c-1.1,0-1.3-1.1-1.5-2
	c-0.8-4-1.7-8-2.1-12.1c-0.1-1.5,0-2.5-1.9-2.5C91.7,126.3,90.7,126.4,89.6,126.6L89.6,126.6z M172,123.6c-1.1-0.4-2.2-0.8-3.3-1.1
	c-0.7,0-0.8,0.6-1,1.3c-0.5,1.9-2,6.7-2.6,9c-0.2,0.7-0.5,1.6-1.5,1.6c-0.3,0-0.6-0.1-0.9-0.2c-1.6-0.7-3.1-1.5-4.6-2.3
	c-0.4-0.4-1-0.6-1.5-0.7c-1.4,0-2.5,4.6-2.5,5.8c0,1.2,1.3,1.8,6,3.6c0.9,0.3,2.1,0.7,2.1,2.2c-0.1,0.5-0.2,1-0.3,1.5
	c-0.2,1-0.5,1.9-0.6,2.6c-0.4,1.9-0.6,2.9-1.7,2.9c-1,0-3.4-1.3-4.3-1.9c-0.5-0.4-1.1-0.6-1.7-0.7c-1.7,0-2.3,5.3-2.3,5.7
	c0,0.9,0.5,1.2,1.3,1.6c1.3,0.7,2.6,1.2,4,1.6c1.5,0.5,2.7,0.9,2.7,2.3c0,0.7-0.3,3.2-0.3,4.9c0,10.2,6,16,16.1,16
	c8.9,0,18.5-3.6,18.5-14c-0.1-4-0.8-8-2.2-11.7c-0.5-1.5-0.7-2.5-1.8-2.5c-0.7,0-5.7,0.9-5.7,2.5c0,0.4,0.1,0.8,0.3,1.2
	c1.1,3.1,2.3,6.4,2.3,9.7c0.1,1.7-0.4,3.4-1.5,4.8c-2.1,2.3-6.7,3.1-9.7,3.1c-5.8,0-8.9-3.1-8.9-8.9c0-2.9,0-4.6,1.8-4.6
	c0.4,0,0.7,0.1,1.1,0.1c1.6,0.2,4.8,0.7,6.3,0.7c1.1,0,1.5-0.5,1.9-1.5c0.5-1.4,0.8-3,0.9-4.5c0-0.7-0.2-1.1-2-1.1c-2,0-4-0.1-6-0.3
	c-0.9-0.1-2.3-0.1-2.3-1.5c0-0.5,0.9-4.8,1.1-5.6c0.3-0.9,0.7-1.6,1.8-1.6c0.2,0,0.4,0.1,0.6,0.1c3,0.5,6.1,0.8,9.1,1
	c0.9,0,1.2-0.5,1.5-1.5c0.4-1.4,0.7-2.9,0.7-4.4c0-1.3-1-1.3-2.3-1.3c-2.3-0.1-4.6-0.3-6.8-0.5c-0.9-0.1-1.8-0.4-1.8-1.5
	c0-0.3,0.1-0.6,0.2-0.9c0.5-1.6,1.1-3.3,1.7-4.9c0.9-2.4,1.4-2.5,2.3-2.9c0.3-0.2,0.6-0.4,0.6-0.7C176.5,125,173.1,124,172,123.6
	L172,123.6z M244.3,123.6c-1.1-0.4-2.2-0.8-3.4-1.1c-0.7,0-0.8,0.6-1,1.3c-0.5,1.9-2,6.7-2.6,9c-0.2,0.7-0.5,1.6-1.5,1.6
	c-0.3,0-0.6-0.1-0.9-0.2c-1.6-0.7-3.1-1.5-4.6-2.3c-0.4-0.4-1-0.6-1.5-0.7c-1.4,0-2.5,4.6-2.5,5.8c0,1.2,1.3,1.8,6,3.6
	c0.9,0.3,2.1,0.7,2.1,2.2c-0.1,0.5-0.2,1-0.3,1.5c-0.2,1-0.5,1.9-0.6,2.6c-0.4,1.9-0.6,2.9-1.7,2.9c-1,0-3.4-1.3-4.3-1.9
	c-0.5-0.4-1.1-0.6-1.7-0.7c-1.7,0-2.3,5.3-2.3,5.7c0,0.9,0.5,1.2,1.3,1.6c1.3,0.7,2.6,1.2,4,1.6c1.5,0.5,2.7,0.9,2.7,2.3
	c0,0.7-0.3,3.2-0.3,4.9c0,10.2,6,16,16.1,16c8.9,0,18.5-3.6,18.5-14c-0.1-4-0.8-8-2.2-11.7c-0.5-1.5-0.7-2.5-1.8-2.5
	c-0.7,0-5.7,0.9-5.7,2.5c0,0.4,0.1,0.8,0.3,1.2c1.1,3.1,2.3,6.4,2.3,9.7c0.1,1.7-0.4,3.4-1.5,4.8c-2.1,2.3-6.7,3.1-9.7,3.1
	c-5.8,0-8.9-3.1-8.9-8.9c0-2.9,0-4.6,1.8-4.6c0.4,0,0.7,0.1,1.1,0.1c1.6,0.2,4.8,0.7,6.3,0.7c1.1,0,1.5-0.5,1.9-1.5
	c0.5-1.4,0.8-3,0.9-4.5c0-0.7-0.2-1.1-2-1.1c-2,0-4-0.1-6-0.3c-0.9-0.1-2.3-0.1-2.3-1.5c0-0.5,0.9-4.8,1.1-5.6
	c0.3-0.9,0.7-1.6,1.8-1.6c0.2,0,0.4,0.1,0.6,0.1c3,0.5,6.1,0.8,9.1,1c0.9,0,1.2-0.5,1.5-1.5c0.4-1.4,0.7-2.9,0.7-4.4
	c0-1.3-1-1.3-2.3-1.3c-2.3-0.1-4.6-0.3-6.8-0.5c-0.9-0.1-1.8-0.4-1.8-1.5c0-0.3,0.1-0.6,0.2-0.9c0.5-1.6,1.1-3.3,1.7-4.9
	c0.9-2.4,1.4-2.5,2.3-2.9c0.3-0.2,0.6-0.4,0.6-0.7C248.9,125,245.5,124,244.3,123.6L244.3,123.6z M305.2,136c-2.5,0-5-0.1-7.4-0.1
	c-3.1,0-3.3,0.9-3.3,2.8c0,1.1,0.1,2.3,0.1,3.5v9.2c0,1.7-0.1,3.3-0.1,5c0,1.6,0.5,1.7,3.4,1.7c3.5,0,4.1,0,4.1-1.9
	c0-1.1-0.1-3.4-0.1-5.1v-6.7c0-1,0.8-1.9,1.9-1.9c0,0,0,0,0,0h26c1.3,0,2.6,0.1,2.6,1.7c0,2.5-1.9,8.2-2.9,10.7
	c-4,8.8-11.8,15.7-20.6,19.6c-0.6,0.3-1.2,0.5-1.2,1.1c0,1.1,2.9,5.2,4.4,5.2c2.3,0,10.7-6.4,12.7-8.1c9.4-8.2,13.1-16.8,15.4-28.7
	c0.2-0.9,0.4-1.7,0.7-2.6c0.2-0.6,0.3-1.1,0.4-1.7c0-0.9-0.7-1.5-1.9-2.6c-0.6-0.7-1.5-1.2-2.5-1.4c-0.4,0-0.9,0-1.3,0.1
	c-1.1,0.1-2.1,0.2-3.2,0.1h-9.7c-1,0-1.9-0.8-1.9-1.8c0,0,0-0.1,0-0.1v-2.9c0-3.9-0.1-4.7,0.7-5.4c0.3-0.3,0.8-0.7,0.8-1
	c0-0.7-2-0.8-2.5-0.8c-0.7,0-5-0.3-5.7-0.3c-0.5,0-1,0.1-1,0.7c0,0.3,0,0.5,0.1,0.8c0.2,2,0.3,4.1,0.3,6.2v2.7c0,1-0.8,1.9-1.8,1.9
	c0,0-0.1,0-0.1,0L305.2,136z M377.8,131.5c-2.9,0-5.8-0.1-8.6-0.1c-1.9,0-1.8,0.7-1.8,3.8c0,3-0.1,3.6,2,3.6c2.8,0,5.6-0.1,8.4-0.1
	h23.8c1.2,0,2.3,0.1,2.3,1.4c0,0.5-0.1,1.1-0.1,1.6c-1.1,7.7-5,14.6-11,19.6c-4.9,4-10.6,7.1-16.7,8.8c-0.6,0.1-1.2,0.3-1.2,1.1
	c0,1.1,2.4,5.6,4,5.6c0.8-0.1,1.5-0.3,2.2-0.6c4.5-1.8,8.9-4.1,12.9-6.8c10.9-7.6,15.6-16.5,17.9-29.5c0.5-2.9,1.1-3.6,1.1-4.3
	c0-0.7-2.9-4.3-4.5-4.3c-0.2,0-0.9,0.1-1.2,0.1c-1.3,0.1-4.6,0.1-6,0.1L377.8,131.5z M450.1,131.5c-2.9,0-5.8-0.1-8.6-0.1
	c-1.9,0-1.8,0.7-1.8,3.8c0,3-0.1,3.6,2,3.6c2.8,0,5.6-0.1,8.4-0.1h23.8c1.2,0,2.3,0.1,2.3,1.4c0,0.5-0.1,1.1-0.1,1.6
	c-1.1,7.7-5,14.6-11,19.6c-4.9,4-10.6,7.1-16.7,8.8c-0.6,0.1-1.2,0.3-1.2,1.1c0,1.1,2.4,5.6,4,5.6c0.8-0.1,1.5-0.3,2.2-0.6
	c4.5-1.8,8.9-4.1,12.9-6.8c10.9-7.6,15.6-16.5,17.9-29.5c0.5-2.9,1.1-3.6,1.1-4.3c0-0.7-2.9-4.3-4.5-4.3c-0.2,0-0.9,0.1-1.2,0.1
	c-1.3,0.1-4.6,0.1-6,0.1L450.1,131.5z M513.8,164.2c3.3,0,5.9,2.6,6,5.8c0,0,0,0.1,0,0.1c0,3.3-2.7,6-6,6c-3.3,0-6-2.7-6-6
	S510.5,164.2,513.8,164.2L513.8,164.2z M513.8,160.9c-5.1,0-9.3,4.2-9.3,9.3c0,5.1,4.2,9.3,9.3,9.3s9.3-4.2,9.3-9.3l0,0
	C523.1,165.1,519,160.9,513.8,160.9C513.8,160.9,513.8,160.9,513.8,160.9L513.8,160.9z"/>
</svg>
