<?xml version="1.0" encoding="utf-8"?>
<!-- Generator: Adobe Illustrator 24.2.0, SVG Export Plug-In . SVG Version: 6.00 Build 0)  -->
<svg version="1.1" id="レイヤー_1" xmlns="http://www.w3.org/2000/svg" xmlns:xlink="http://www.w3.org/1999/xlink" x="0px"
	 y="0px" viewBox="0 0 1114 920" style="enable-background:new 0 0 1114 920;" xml:space="preserve">
<style type="text/css">
	.st0{fill:#EADFD3;}
	.st1{fill:#EAE7D3;}
	.st2{fill:#E0D4C6;}
</style>
<g id="グループ_1138" transform="translate(-85.472 -399.448)">
	<g id="グループ_449" transform="translate(85.472 800.162)">
		<path id="パス_188" class="st0" d="M212.6,65.7C207,41.8,185.9,6.3,161.8-3c-45.3-17.6-62.9-17.9-96.8-1.7
			C12.1,20.7-1.2,79.4,3.5,107s19.7,52.7,51.3,71.7c42.3,25.4,74.5,12.3,104.6-4.4C190.8,156.8,226.4,136.5,212.6,65.7z
			 M124.9,108.3c-14.5,7.2-21.2,3-31.8-2.3c-5.9-6.7-13.2-20.8-5.5-32.4c10.7-15.9,14.5-17.3,30.9-14.3c13.3,2.4,18.9,1.9,23.9,18.1
			C146,90.8,137.9,101.9,124.9,108.3L124.9,108.3z"/>
	</g>
	<g id="グループ_681" transform="translate(1096.005 399.448) rotate(45)">
		<path id="パス_188-2" class="st1" d="M107.9,32.6c-3.2-13.4-15-33.3-28.5-38.5C54-15.8,44.2-16,25.2-6.9
			C-4.5,7.3-12,40.3-9.4,55.7s11,29.5,28.7,40.2c23.7,14.2,41.7,6.9,58.6-2.5C95.6,83.6,115.6,72.3,107.9,32.6z M58.7,56.4
			c-8.1,4-11.9,1.7-17.8-1.3c-3.3-3.7-7.4-11.7-3.1-18.2c6-8.9,8.1-9.7,17.3-8c7.5,1.4,10.6,1.1,13.4,10.2
			C70.5,46.6,66,52.9,58.7,56.4L58.7,56.4z"/>
	</g>
	<path id="パス_653" class="st2" d="M1195.9,1214.2c-4.1-17.6-19.7-43.7-37.4-50.6c-33.3-13-46.3-13.2-71.2-1.2
		c-39,18.6-48.8,61.9-45.3,82.2c3.5,20.3,14.5,38.8,37.7,52.7c31.1,18.7,54.8,9.1,77-3.3C1179.9,1281.2,1201.7,1238.4,1195.9,1214.2
		z M1140.1,1250.9c-10.7,5.3-20,5.9-35.9-12.5c-11.9-13.8-4.9-22.6,0.8-31.1c7.9-11.7,17.3-12.4,29.4-10.2
		c9.8,1.8,17.4,7.9,21.1,19.8C1161,1234.6,1149.7,1246.2,1140.1,1250.9L1140.1,1250.9z"/>
</g>
</svg>
