<svg xmlns="http://www.w3.org/2000/svg" width="1108.798" height="607.352" viewBox="0 0 1108.798 607.352">
  <g id="グループ_1138" data-name="グループ 1138" transform="translate(-85.472 -556.448)">
    <g id="グループ_449" data-name="グループ 449" transform="translate(85.472 800.162)">
      <path id="パス_188" data-name="パス 188" d="M6045.34,3034.339c-5.641-23.863-26.747-59.358-50.765-68.7-45.3-17.627-62.894-17.885-96.787-1.666-52.949,25.343-66.28,84.077-61.576,111.69s19.66,52.682,51.285,71.689c42.3,25.415,74.487,12.319,104.631-4.442C6023.565,3125.418,6059.118,3105.161,6045.34,3034.339Zm-87.659,42.609c-14.529,7.161-21.24,3.019-31.778-2.263-5.894-6.69-13.237-20.834-5.463-32.387,10.7-15.922,14.505-17.288,30.917-14.267,13.307,2.446,18.913,1.929,23.915,18.122C5978.7,3059.461,5970.656,3070.55,5957.681,3076.948Z" transform="translate(-5835.335 -2952.108)" fill="#eadfd3"/>
    </g>
    <g id="グループ_681" data-name="グループ 681" transform="translate(1096.005 556.448) rotate(45)">
      <path id="パス_188-2" data-name="パス 188" d="M5953.036,2998.2c-3.161-13.374-14.991-33.268-28.452-38.5-25.391-9.88-35.25-10.024-54.246-.934-29.676,14.2-37.147,47.123-34.511,62.6s11.019,29.527,28.743,40.179c23.707,14.244,41.748,6.9,58.643-2.49C5940.832,3049.243,5960.758,3037.889,5953.036,2998.2Zm-49.13,23.881c-8.144,4.014-11.9,1.692-17.811-1.269-3.3-3.75-7.419-11.677-3.062-18.152,6-8.924,8.13-9.69,17.328-8,7.458,1.371,10.6,1.081,13.4,10.157C5915.686,3012.276,5911.178,3018.491,5903.906,3022.077Z" transform="translate(-5835.335 -2952.108)" fill="#eae7d3"/>
    </g>
    <path id="パス_653" data-name="パス 653" d="M847.787,427.645c-4.142-17.565-19.683-43.681-37.352-50.552-33.331-12.968-46.281-13.157-71.208-1.223-38.963,18.642-48.779,61.866-45.317,82.178s14.474,38.764,37.739,52.747c31.127,18.711,54.806,9.067,76.987-3.263C831.772,494.66,853.5,451.831,847.787,427.645Zm-55.8,36.646c-10.685,5.27-19.976,5.855-35.871-12.545-11.943-13.82-4.926-22.594.792-31.092,7.878-11.719,17.333-12.434,29.413-10.212,9.781,1.8,17.384,7.862,21.061,19.77C812.88,448.06,801.532,459.589,791.983,464.291Z" transform="translate(345.559 642.518)" fill="#e0d4c6"/>
  </g>
</svg>
