<?xml version="1.0" encoding="utf-8"?>
<!-- Generator: Adobe Illustrator 24.2.0, SVG Export Plug-In . SVG Version: 6.00 Build 0)  -->
<svg version="1.1" id="レイヤー_1" xmlns="http://www.w3.org/2000/svg" xmlns:xlink="http://www.w3.org/1999/xlink" x="0px"
	 y="0px" viewBox="0 0 950 470" style="enable-background:new 0 0 950 470;" xml:space="preserve">
<style type="text/css">
	.st0{fill:#F2EFE6;}
	.st1{fill:#E0D4C6;}
</style>
<g id="グループ_1148" transform="translate(-231.989 -6943.357)">
	<g id="グループ_873" transform="translate(1180.108 7142.508) rotate(90)">
		<path id="パス_188" class="st0" d="M265.3,102.2c-7.1-29.9-33.6-74.5-63.7-86.2C144.7-6.1,122.6-6.4,80.1,14
			C13.7,45.8-3,119.4,2.9,154.1s24.7,66.1,64.3,89.9c53.1,31.9,93.5,15.5,131.3-5.6C237.9,216.5,282.5,191.1,265.3,102.2z
			 M155.3,155.7c-18.2,9-26.6,3.8-39.9-2.8c-7.4-8.4-16.6-26.1-6.9-40.6c13.4-20,18.2-21.7,38.8-17.9c16.7,3.1,23.7,2.4,30,22.7
			C181.6,133.8,171.6,147.7,155.3,155.7L155.3,155.7z"/>
	</g>
	<path id="パス_2093" class="st1" d="M403,7011.7c-4.6-19.3-21.7-48.1-41.1-55.7c-36.7-14.3-50.9-14.5-78.4-1.3
		c-42.9,20.5-53.7,68.1-49.9,90.5c3.8,22.4,15.9,42.7,41.5,58.1c34.3,20.6,60.3,10,84.8-3.6C385.4,7085.5,409.3,7038.4,403,7011.7z
		 M341.6,7052.1c-11.8,5.8-22,6.4-39.5-13.8c-13.1-15.2-5.4-24.9,0.9-34.2c8.7-12.9,19.1-13.7,32.4-11.2c10.8,2,19.1,8.7,23.2,21.8
		C364.6,7034.2,352.1,7046.9,341.6,7052.1z"/>
</g>
</svg>
