<?xml version="1.0" encoding="utf-8"?>
<!-- Generator: Adobe Illustrator 27.2.0, SVG Export Plug-In . SVG Version: 6.00 Build 0)  -->
<svg version="1.1" id="レイヤー_1" xmlns="http://www.w3.org/2000/svg" xmlns:xlink="http://www.w3.org/1999/xlink" x="0px"
	 y="0px" width="484px" height="154px" viewBox="0 0 484 154" style="enable-background:new 0 0 484 154;" xml:space="preserve">
<path id="パス_2229" d="M10.1,15.5c-2.7,0-5.3-0.1-8.1-0.1c-1.6,0-1.5,0.7-1.5,3.9c0,1.7-0.1,3,1.6,3c2.1,0,5.2-0.2,7.9-0.2h26
	c1.2,0,2.3-0.1,2.3,0.8c0,0.7-3.2,3.7-3.9,4.3c-2.5,2.4-5.1,4.6-7.8,6.9c-0.4,0.4-0.9,0.7-1.5,0.7c-0.7,0-1.1-0.4-1.6-0.9
	c-0.8-0.8-3.9-4-4.8-4c-1.2,0-4.6,2.8-4.6,3.7c0,0.6,0.8,1.2,1.2,1.6c4.4,3.9,8.1,8.4,11.2,13.4c0.2,0.5,0.6,1.1,1.2,1.1
	c1.3,0,5.1-2.5,5.1-3.7c0-0.6-1.9-3.2-2.3-3.8c-0.4-0.6-0.9-1.1-0.9-1.8c0-0.8,0.6-1.3,1.2-1.8c5.7-4.8,11.2-9.9,16.4-15.1
	c0.6-0.6,1.1-1.1,1.7-1.5c1.1-0.9,1.9-1.7,1.9-2.1c0-0.7-3.1-4.7-4.3-4.7c-0.2,0-0.4,0-0.6,0.1c-1.2,0.2-2.3,0.2-3.5,0.2L10.1,15.5z
	 M77,15.5c-2.7,0-5.3-0.1-8.1-0.1c-1.6,0-1.5,0.7-1.5,3.9c0,1.7-0.1,3,1.6,3c2.1,0,5.2-0.2,7.9-0.2h26c1.2,0,2.3-0.1,2.3,0.8
	c0,0.7-3.2,3.7-3.9,4.3c-2.5,2.4-5.1,4.6-7.8,6.9c-0.4,0.4-0.9,0.7-1.5,0.7c-0.7,0-1.1-0.4-1.6-0.9c-0.8-0.8-3.9-4-4.8-4
	c-1.2,0-4.6,2.8-4.6,3.7c0,0.6,0.8,1.2,1.2,1.6c4.4,3.9,8.1,8.4,11.2,13.4c0.2,0.5,0.6,1.1,1.2,1.1c1.3,0,5.1-2.5,5.1-3.7
	c0-0.6-1.9-3.2-2.3-3.8c-0.4-0.6-0.9-1.1-0.9-1.8c0-0.8,0.6-1.3,1.2-1.8c5.7-4.8,11.2-9.9,16.4-15.1c0.6-0.6,1.1-1.1,1.7-1.5
	c1.1-0.9,1.9-1.7,1.9-2.1c0-0.7-3.1-4.7-4.3-4.7c-0.2,0-0.4,0-0.6,0.1c-1.2,0.2-2.3,0.2-3.5,0.2L77,15.5z M151.5,4.7
	c-0.6,0-0.7,0.4-0.7,0.9c0,0.1,0.1,1.4,0.1,2.4c0,2.7-0.3,5.4-0.7,8c-0.2,1.3-0.7,1.7-2,1.9c-3.4,0.6-6.9,1.5-10.4,1.9
	c-0.7,0.1-1.8,0.1-1.8,1c0,0.4,1.1,6.4,2.5,6.4c0.5-0.1,0.9-0.2,1.3-0.4c2.3-0.9,4.7-1.6,7.1-2.2c0.4,0,0.8,0.3,0.8,0.8
	c0,0,0,0,0,0.1c-0.3,1.6-0.9,3.2-1.6,4.7c-2.5,6.5-6.2,12.3-11.1,17.2c-0.5,0.4-0.8,0.9-0.9,1.4c0,1.4,4,3.8,5.1,3.8
	c0.4,0,0.8-0.3,1.1-0.6c1.9-1.9,4.8-6.4,6.1-8.8c3.5-5.8,6.2-12,7.9-18.5c0.4-1.7,1.1-2.2,4.6-2.2c3.8,0,4,2.6,4,5.6
	c0,4-1,10.5-2.8,14c-1.6,3.1-3.1,3.8-6.5,3.8c-1.2,0-2.2-0.2-2.8-0.2c-0.7,0-0.9,0.5-0.9,1.1c0.1,1.5,0.5,3.1,1.1,4.5
	c0.6,1.3,1.5,1.4,2.9,1.4c4.9,0.2,9.4-2.4,11.7-6.7c2.7-5,3.7-13.3,3.7-19c0-3.5-0.7-7-3.8-9.1c-2.2-1.4-4.5-1.4-7-1.4H158
	c-0.7,0.1-1.3-0.4-1.4-1c0-0.1,0-0.1,0-0.2c0-0.3,0.1-0.5,0.1-0.7c0.2-1,0.3-1.9,0.4-2.5c0.3-2.2,0.4-3.2,1.6-4.1
	c0.3-0.2,0.6-0.4,0.6-0.8c0-0.7-1.1-0.9-1.6-1C156.8,5.8,152.2,4.7,151.5,4.7z M176.8,4.7c-0.7,0-3,1.9-3,2.6c0,0.3,0.3,0.6,0.6,0.9
	c1.6,1.5,3,3.1,4.4,4.8c0.2,0.2,0.6,0.7,0.9,0.7c0.8,0,3-1.9,3-2.9C182.6,10,177.4,4.7,176.8,4.7z M182.6,0.3c-0.6,0-3,1.9-3,2.6
	c0,0.3,0.4,0.7,0.6,0.9c1.6,1.5,3,3.1,4.4,4.8c0.3,0.4,0.5,0.7,0.9,0.7c0.7,0,3-1.9,3-2.9C188.5,5.6,183.3,0.3,182.6,0.3z
	 M172.5,11.4c-1,0-4.4,2-4.4,3.2c0.1,0.4,0.3,0.8,0.6,1.1c3.9,4.2,6,8.2,8.3,13.3c0.2,0.6,0.6,1.4,1.4,1.4c1.2,0,5.1-2.3,5.1-3.7
	C183.5,25.1,174.9,11.4,172.5,11.4L172.5,11.4z M214.8,14.1c-2.3,0-4.6-0.1-6.8-0.1c-2.9,0-3,0.8-3,2.6c0,1.1,0.1,2.1,0.1,3.2v8.6
	c0,1.5-0.1,3.1-0.1,4.7c0,1.5,0.4,1.6,3.1,1.6c3.2,0,3.8,0,3.8-1.7c0-1.1-0.1-3.1-0.1-4.7V22c0-1,0.8-1.7,1.7-1.7c0,0,0,0,0,0h24.1
	c1.2,0,2.4,0.1,2.4,1.6c0,2.4-1.7,7.6-2.7,9.9c-3.7,8.2-10.9,14.5-19,18.2c-0.6,0.2-1.1,0.4-1.1,1.1c0,1,2.7,4.8,4.1,4.8
	c2.1,0,9.9-6,11.7-7.5c8.7-7.6,12.2-15.5,14.3-26.6c0.2-0.8,0.4-1.6,0.6-2.4c0.2-0.5,0.3-1.1,0.4-1.6c0-0.9-0.7-1.4-1.8-2.4
	c-0.6-0.7-1.4-1.1-2.3-1.3c-0.4,0-0.8,0-1.2,0.1c-1,0.1-2,0.2-3,0.1h-9c-0.9,0-1.7-0.7-1.7-1.7c0,0,0,0,0-0.1V9.7
	c0-3.6-0.1-4.3,0.7-5c0.2-0.2,0.7-0.6,0.7-0.9c0-0.7-1.9-0.7-2.3-0.7c-0.6,0-4.6-0.3-5.3-0.3c-0.4,0-0.9,0.1-0.9,0.6
	c0,0.2,0,0.5,0.1,0.7c0.2,1.9,0.3,3.8,0.2,5.7v2.5c0,0.9-0.7,1.7-1.7,1.7c0,0,0,0-0.1,0L214.8,14.1z M282,9.9c-2.7,0-5.3-0.1-8-0.1
	c-1.7,0-1.7,0.7-1.7,3.5c0,2.8-0.1,3.3,1.9,3.3c2.6,0,5.1-0.1,7.8-0.1h22c1.1,0,2.2,0.1,2.2,1.3c0,0.5-0.1,1-0.1,1.5
	c-1,7.1-4.6,13.5-10.2,18.1c-4.5,3.7-9.8,6.5-15.4,8.2c-0.6,0.1-1.1,0.3-1.1,1c0,1,2.2,5.1,3.7,5.1c0.7-0.1,1.4-0.3,2-0.6
	c4.2-1.6,8.2-3.8,11.9-6.3c10-7.1,14.4-15.3,16.6-27.3c0.5-2.7,1.1-3.3,1.1-4s-2.7-4-4.2-4c-0.2,0-0.9,0.1-1.1,0.1
	c-1.2,0.1-4.3,0.1-5.6,0.1L282,9.9z M349,9.9c-2.7,0-5.3-0.1-8-0.1c-1.7,0-1.7,0.7-1.7,3.5c0,2.8-0.1,3.3,1.9,3.3
	c2.6,0,5.1-0.1,7.8-0.1h22c1.1,0,2.2,0.1,2.2,1.3c0,0.5-0.1,1-0.1,1.5c-1,7.1-4.6,13.5-10.2,18.1c-4.5,3.7-9.8,6.5-15.4,8.2
	c-0.6,0.1-1.1,0.3-1.1,1c0,1,2.2,5.1,3.7,5.1c0.7-0.1,1.4-0.3,2-0.6c4.2-1.6,8.2-3.8,11.9-6.3c10-7.1,14.4-15.3,16.6-27.3
	c0.5-2.7,1.1-3.3,1.1-4s-2.7-4-4.2-4c-0.2,0-0.9,0.1-1.1,0.1c-1.2,0.1-4.3,0.1-5.6,0.1L349,9.9z M402.3,13.7c0.1,1.5,0.3,3,0.7,4.5
	c0.2,0.7,0.5,2,1.4,2c0.3,0,0.6-0.1,0.9-0.1c4-1.1,9.5-1.9,13.7-2.5c0.6-0.1,3.5-0.6,3.9-0.6s0.9,0.2,0.9,0.7c0,0.3-0.4,0.7-1.1,1.5
	c-4.3,4.9-6.7,11.2-6.8,17.8c0,12.1,9,15.4,19.6,15.4c1.1,0,1.5-0.1,2-1.1c0.6-1.6,0.9-3.4,0.9-5.1c0-1-0.5-1.1-1.4-1.1
	c-0.7,0-2,0.1-3.1,0.1c-6.3,0-10.9-1.7-10.9-8.9c0.1-3.8,1.1-7.6,3-10.9c2.2-4.3,6-7.6,10.5-9.2c3.5-1.2,6.7-1.2,10.3-1.3
	c1.5-0.1,2.8,0.1,2.8-1.3c-0.1-1.5-0.3-3-0.6-4.5c-0.1-0.7-0.2-1.5-1.2-1.5c-0.3,0-0.5,0-0.8,0.1c-4.6,0.7-9.4,1.4-14.1,1.9
	c-9,1.1-18,2-27.1,2.5C403.1,12.2,402.3,12,402.3,13.7L402.3,13.7z M449.1,17.3c-0.7,0-3.2,1.6-3.2,2.4c0.1,0.3,0.2,0.6,0.4,0.8
	c1.4,1.6,2.8,3.3,4,5.1c0.2,0.3,0.5,0.8,0.9,0.8c0.7,0,3.2-1.7,3.2-2.6C454.5,23,449.8,17.2,449.1,17.3L449.1,17.3z M441.6,20.7
	c-0.7,0-3.2,1.5-3.2,2.3c0,0.3,0.4,0.7,0.6,0.9c1.4,1.7,2.7,3.4,4,5.2c0.2,0.3,0.4,0.7,0.9,0.7c0.7,0,3.2-1.7,3.2-2.6
	C447,26.4,442.3,20.7,441.6,20.7L441.6,20.7z M467.4,43.4c0,0.6,0.7,0.9,1.1,1.2c3.6,2.3,6.8,5.1,9.4,8.4c0.3,0.4,0.7,0.9,1.2,0.9
	c1.4,0,4.5-3.4,4.5-4.8c0-1.6-10.7-10.1-12.1-10.1C470.5,39.1,467.4,42.4,467.4,43.4L467.4,43.4z M22.3,126c0-1,0.7-1.8,1.6-2
	l11.2-2.2c0.4-0.1,1.8-0.4,2.2-0.4c0.2,0,0.4,0.1,0.4,0.3c0,0,0,0.1,0,0.1c0,0.8-6,6.4-6.9,7.4c-0.4,0.4-1.1,0.9-1.1,1.4
	c0,1.4,3.7,3.7,4.8,3.7c1.1,0,1.9-1.1,2.5-1.8c2.9-3.3,5.8-6.6,8.6-10.1c0.9-1.1,1.8-2.2,2.8-3.3c0.3-0.3,0.5-0.8,0.6-1.2
	c0-1.2-3.4-4.5-4.6-4.5c-0.1,0-6.3,1.4-7.1,1.5l-13.3,2.6c-0.7,0.2-1.4-0.3-1.6-0.9c0-0.1,0-0.2,0-0.4V112c0-1.8,0-3.5,0.1-5.3
	c-0.1-0.6,0.1-1.2,0.5-1.7c0.3-0.4,0.5-0.8,0.6-1.3c0-0.6-1.2-0.7-1.6-0.8c-0.7-0.1-5.6-0.7-5.9-0.7c-0.5,0-0.7,0.2-0.7,0.6
	c0,0.2,0.1,0.6,0.1,0.7c0.2,2.1,0.3,4.1,0.2,6.2v8c0,0.9-0.6,1.6-1.5,1.8l-4.5,0.9c-2.2,0.4-3.9,0.7-5.3,0.9
	c-3.2,0.5-4.1,0.7-4.1,1.7c0.1,1.4,0.4,2.7,0.7,4c0.2,0.8,0.4,1.4,1.2,1.4c0.4,0,7.4-1.5,8.5-1.7l3.2-0.6c0.7-0.2,1.4,0.2,1.6,0.9
	c0,0.1,0,0.2,0,0.4v11.7c0,2.8,0.2,5.9,2.5,7.5c2,1.5,7,1.7,10.7,1.7h3c2,0,8.7-0.3,11-0.4c0.7,0,1.4-0.1,2-0.4
	c1.1-0.6,1.1-2.1,1.1-3.7c0-1.4,0-3.1-1.2-3.1c-0.2,0-0.6,0.1-0.9,0.1c-4.5,0.3-11,1.1-15.5,1.1c-6.6,0-6-0.9-6-7.3L22.3,126z
	 M77.1,113.6c-2,0-4.2-0.1-6.2-0.1c-1.4,0-1.5,0.6-1.5,3.2c0,2.4,0.2,3.4,1.6,3.4c0.8,0,4.5-0.2,6.2-0.2l8.7-0.1
	c0.7,0,1.3,0.5,1.3,1.2c0,0,0,0,0,0.1c-0.3,2-0.9,4-1.6,6c-2.7,7.4-7.3,13.8-13.5,18.7c-0.4,0.3-0.9,0.6-0.9,1.1c0,1.1,3.5,4,4.7,4
	c1.1,0,4.8-3.9,5.7-4.8C87.8,139.3,92,131,93.9,122c0.2-0.9,0.4-2.2,2-2.2l6.3-0.1c2.8,0,3.7-0.1,3.7,1.6c-0.3,5-0.9,9.9-1.9,14.8
	c-0.9,4.4-2.2,6.1-5.9,6.1c-1.5,0-2.9-0.2-3.5-0.2c-0.6-0.1-1.1,0.3-1.1,0.9c0,0.1,0,0.1,0,0.2c0.3,1.5,0.8,3,1.6,4.3
	c0.3,0.9,1.2,1.4,2.2,1.2c1.2,0,2.4-0.1,3.6-0.2c3.8-0.6,6.4-1.7,8.1-5.4c1.9-4.2,2.9-12.8,3.5-17.6c0.1-1.2,1-8.1,1-8.7
	c0-1.2-2.2-3.6-3.5-3.6c-0.1,0-5,0.2-6.8,0.2l-6,0.1c-0.8,0.1-1.4-0.5-1.5-1.3c0-0.1,0-0.1,0-0.2c0-0.6,0.4-4.3,0.5-5.2
	c0.2-1.9,0.1-2,0.9-2.7c0.2-0.2,0.7-0.7,0.7-1.1c0-0.4-0.6-0.6-0.9-0.7c-0.6-0.2-6.1-1.2-6.4-1.2c-0.9,0-0.8,0.8-0.8,1.4
	c-0.1,1.5-0.4,8.1-0.5,9.4c-0.1,0.9-0.9,1.6-1.9,1.6L77.1,113.6z M164.3,119.3c0-1.4,0.5-1.9,1.4-2.8c3-3,5.8-6.1,8.5-9.3
	c0.5-0.8,1.4-1.4,2.4-1.5c0.3-0.1,0.6-0.2,0.6-0.6c0-0.7-1.7-1.8-2.4-2.2c-1.9-1.2-3.8-2.5-4.2-2.5s-0.8,0.6-1,0.9
	c-2.4,3.8-5.2,7.4-8.4,10.5c-6.3,6.1-16.2,13-24.4,16.4c-0.4,0.2-1,0.4-1,1.1c0,1.2,3.8,5,4.8,5c1.6,0,11.5-6.6,13.3-7.9
	c0.5-0.4,1.8-1.4,2.4-1.4c1.2,0,1,1.4,1,1.7v16.9c0,2.7-0.1,5.3-0.1,8c0,1.6,0.6,1.8,4,1.8c2.3,0,3.1-0.2,3.1-1.9
	c0-2.7-0.1-5.4-0.1-8.1L164.3,119.3z M225.8,100.7c-1-0.4-2-0.7-3.1-1c-0.6,0-0.7,0.6-0.9,1.2c-0.5,1.8-1.9,6.2-2.4,8.3
	c-0.2,0.7-0.4,1.5-1.4,1.5c-0.3,0-0.6-0.1-0.8-0.2c-1.4-0.6-2.9-1.4-4.2-2.2c-0.4-0.3-0.9-0.6-1.4-0.7c-1.3,0-2.3,4.3-2.3,5.3
	c0,1.1,1.2,1.7,5.6,3.3c0.9,0.3,2,0.7,2,2c-0.1,0.5-0.1,0.9-0.2,1.4c-0.2,0.9-0.4,1.7-0.6,2.4c-0.4,1.8-0.6,2.7-1.6,2.7
	c-1.4-0.3-2.8-0.9-4-1.7c-0.5-0.3-1-0.5-1.6-0.6c-1.5,0-2.2,4.9-2.2,5.3c0,0.8,0.5,1.1,1.2,1.5c1.2,0.6,2.4,1.1,3.7,1.5
	c1.4,0.4,2.5,0.8,2.5,2.2c0,0.6-0.2,3-0.2,4.5c0,9.4,5.5,14.8,14.9,14.8c8.2,0,17.1-3.3,17.1-13c-0.1-3.7-0.8-7.4-2-10.9
	c-0.5-1.4-0.7-2.4-1.7-2.4c-0.7,0-5.3,0.8-5.3,2.3c0,0.4,0.1,0.8,0.2,1.1c1.2,2.9,1.9,5.9,2.1,9c0.1,1.6-0.4,3.2-1.4,4.4
	c-1.9,2.2-6.2,2.9-9,2.9c-5.4,0-8.2-2.9-8.2-8.2c0-2.7,0-4.2,1.7-4.2c0.3,0,0.7,0.1,1,0.1c1.5,0.2,4.4,0.6,5.8,0.6
	c1.1,0,1.4-0.5,1.7-1.4c0.5-1.3,0.8-2.7,0.8-4.2c0-0.6-0.2-1.1-1.9-1.1c-1.9,0-3.7-0.1-5.6-0.2c-0.9-0.1-2.2-0.1-2.2-1.4
	c0-0.5,0.9-4.4,1.1-5.1c0.2-0.8,0.7-1.5,1.7-1.5c0.2,0,0.4,0.1,0.6,0.1c2.8,0.5,5.6,0.8,8.4,0.9c0.9,0,1.1-0.5,1.4-1.4
	c0.4-1.3,0.6-2.7,0.7-4c0-1.2-0.9-1.2-2.1-1.2c-2.1-0.1-4.2-0.2-6.3-0.5c-0.9-0.1-1.7-0.4-1.7-1.4c0-0.3,0.1-0.6,0.2-0.9
	c0.5-1.5,1-3,1.5-4.5c0.9-2.2,1.3-2.3,2.2-2.7c0.3-0.2,0.6-0.4,0.6-0.7C230,101.9,226.8,101,225.8,100.7L225.8,100.7z M282.1,112.1
	c-2.3,0-4.6-0.1-6.8-0.1c-2.9,0-3,0.8-3,2.6c0,1.1,0.1,2.1,0.1,3.2v8.6c0,1.6-0.1,3.1-0.1,4.6c0,1.5,0.4,1.6,3.1,1.6
	c3.2,0,3.8,0,3.8-1.7c0-1.1-0.1-3.1-0.1-4.7V120c0-1,0.8-1.7,1.7-1.7c0,0,0,0,0,0h24.1c1.2,0,2.4,0.1,2.4,1.6c0,2.4-1.7,7.6-2.7,9.9
	c-3.7,8.2-10.9,14.5-19,18.2c-0.6,0.2-1.1,0.4-1.1,1.1c0,1,2.7,4.8,4.1,4.8c2.1,0,9.9-6,11.7-7.5c8.7-7.6,12.2-15.5,14.3-26.6
	c0.2-0.8,0.4-1.6,0.6-2.4c0.2-0.5,0.3-1.1,0.4-1.6c0-0.9-0.7-1.4-1.8-2.4c-0.6-0.7-1.4-1.1-2.3-1.3c-0.4,0-0.8,0-1.2,0.1
	c-1,0.1-2,0.2-3,0.1h-9c-0.9,0-1.7-0.7-1.7-1.7c0,0,0,0,0-0.1v-2.7c0-3.6-0.1-4.3,0.7-5c0.2-0.2,0.7-0.6,0.7-0.9
	c0-0.7-1.9-0.7-2.3-0.7c-0.6,0-4.6-0.3-5.3-0.3c-0.4,0-0.9,0.1-0.9,0.6c0,0.2,0,0.5,0.1,0.7c0.2,1.9,0.3,3.8,0.2,5.7v2.5
	c0,0.9-0.7,1.7-1.7,1.7c0,0,0,0-0.1,0L282.1,112.1z M349.3,107.9c-2.7,0-5.3-0.1-8-0.1c-1.7,0-1.7,0.7-1.7,3.5
	c0,2.8-0.1,3.3,1.9,3.3c2.6,0,5.1-0.1,7.8-0.1h22c1.1,0,2.2,0.1,2.2,1.3c0,0.5-0.1,1-0.1,1.5c-1,7.1-4.6,13.5-10.2,18.1
	c-4.5,3.7-9.8,6.5-15.4,8.2c-0.6,0.1-1.1,0.3-1.1,1c0,1,2.2,5.1,3.7,5.1c0.7-0.1,1.4-0.3,2-0.6c4.2-1.6,8.2-3.8,11.9-6.3
	c10-7.1,14.4-15.3,16.6-27.3c0.5-2.7,1.1-3.3,1.1-4s-2.7-4-4.2-4c-0.2,0-0.9,0.1-1.1,0.1c-1.2,0.1-4.3,0.1-5.6,0.1L349.3,107.9z
	 M416.2,107.9c-2.7,0-5.3-0.1-8-0.1c-1.7,0-1.7,0.7-1.7,3.5c0,2.8-0.1,3.3,1.9,3.3c2.6,0,5.1-0.1,7.8-0.1h22c1.1,0,2.2,0.1,2.2,1.3
	c0,0.5-0.1,1-0.1,1.5c-1,7.1-4.6,13.5-10.2,18.1c-4.5,3.7-9.8,6.5-15.4,8.2c-0.6,0.1-1.1,0.3-1.1,1c0,1,2.2,5.1,3.7,5.1
	c0.7-0.1,1.4-0.3,2-0.6c4.2-1.6,8.2-3.8,11.9-6.3c10-7.1,14.4-15.3,16.6-27.3c0.5-2.7,1.1-3.3,1.1-4s-2.7-4-4.2-4
	c-0.2,0-0.9,0.1-1.1,0.1c-1.2,0.1-4.3,0.1-5.6,0.1H416.2z M475.1,138.2c3,0,5.5,2.4,5.5,5.4c0,0,0,0.1,0,0.1c0,3-2.5,5.5-5.5,5.5
	c-3,0-5.5-2.5-5.5-5.5C469.6,140.7,472.1,138.2,475.1,138.2z M475.1,135.1c-4.8,0-8.6,3.9-8.6,8.6c0,4.8,3.9,8.6,8.6,8.6
	s8.6-3.9,8.6-8.6l0,0C483.7,139,479.9,135.2,475.1,135.1C475.1,135.1,475.1,135.1,475.1,135.1L475.1,135.1z"/>
</svg>
