<?xml version="1.0" encoding="utf-8"?>
<!-- Generator: Adobe Illustrator 27.2.0, SVG Export Plug-In . SVG Version: 6.00 Build 0)  -->
<svg version="1.1" id="レイヤー_1" xmlns="http://www.w3.org/2000/svg" xmlns:xlink="http://www.w3.org/1999/xlink" x="0px"
	 y="0px" width="351px" height="152px" viewBox="0 0 351 152" style="enable-background:new 0 0 351 152;" xml:space="preserve">
<path id="パス_2228" d="M61.5,19c0-0.8,0.6-1.5,1.4-1.5c0,0,0.1,0,0.1,0h6.3c0.8,0,1.5,0.6,1.5,1.4c0,0,0,0.1,0,0.1v0.4
	c0,0.8-0.6,1.5-1.4,1.5c0,0-0.1,0-0.1,0H63c-0.8,0-1.5-0.6-1.5-1.4c0,0,0-0.1,0-0.1L61.5,19z M53.6,17.5c0.8,0,1.5,0.6,1.5,1.4
	c0,0,0,0.1,0,0.1v0.4c0,0.8-0.6,1.5-1.4,1.5c0,0-0.1,0-0.1,0h-6.3c-0.8,0-1.5-0.6-1.5-1.4c0,0,0-0.1,0-0.1V19c0-0.8,0.6-1.5,1.4-1.5
	c0,0,0.1,0,0.1,0H53.6z M71.1,38.4c0.6,0,1.2,0.5,1.2,1.2v0.3c0,0.6-0.4,1.1-1,1.2c0,0-0.1,0-0.1,0h-8.4c-0.6,0-1.1-0.4-1.2-1
	c0,0,0-0.1,0-0.1v-0.3c0-0.6,0.5-1.2,1.2-1.2H71.1z M61.5,33c0-0.6,0.5-1.2,1.2-1.2h8.4c0.6,0,1.2,0.5,1.2,1.2v0.2
	c0,0.6-0.4,1.1-1,1.2c0,0-0.1,0-0.1,0h-8.4c-0.6,0-1.1-0.4-1.2-1c0,0,0-0.1,0-0.1L61.5,33z M78.7,32.8c0-0.9,0.1-1.8,0.1-2.7
	c0-1.9-1-2.5-2.8-2.5c-1.7,0-3.3,0.1-5,0.1h-8.4c-0.9,0-1.2-0.4-1.2-1.2v-0.3c0-0.9,0.4-1.2,1.2-1.2h5.1c1.9,0,3.8,0.1,5.6,0.1
	c1.4,0,3.5-0.1,3.5-2c0-0.6-0.1-1.2-0.1-2.2v-3.3c0-1.1,0.1-1.6,0.1-2.2c0-1.9-2.1-2-3.5-2c-1.9,0-3.7,0.1-5.6,0.1h-5.1
	c-0.9,0-1.2-0.4-1.2-1.2v-0.4c0-0.9,0.4-1.2,1.2-1.2h12.6c2.5,0,5.1,0.1,7.7,0.1c1.4,0,1.4-0.7,1.4-2.4S84.4,6,83,6
	c-2.5,0-5.1,0.1-7.7,0.1h-12c-1.2,0-1.7-0.5-1.7-1.7c-0.1-0.7,0.1-1.4,0.6-1.8c0.4-0.3,0.7-0.5,0.7-0.9c0-0.7-1.1-0.7-1.7-0.8
	c-1-0.1-4.6-0.5-5.4-0.5c-0.6,0-1.1,0.1-1.1,0.9c0,0.1,0.1,0.4,0.1,0.6c0.1,0.9,0.2,1.7,0.2,2.6c-0.1,1.2-0.6,1.7-1.7,1.7H41.2
	c-2.5,0-5.1-0.1-7.7-0.1c-1.4,0-1.4,0.6-1.4,2.4s0,2.4,1.4,2.4c2.6,0,5.1-0.1,7.7-0.1h12.6c0.8,0,1.2,0.3,1.2,1.2v0.4
	c0.1,0.6-0.3,1.1-0.8,1.2c-0.1,0-0.2,0-0.3,0h-5.1c-1.9,0-3.7-0.1-5.6-0.1c-1.4,0-3.5,0.1-3.5,2c0,0.6,0.1,1.2,0.1,2.2v3.4
	c0,1.1-0.1,1.6-0.1,2.2c0,1.9,2.1,2,3.5,2c1.9,0,3.7-0.1,5.6-0.1h5.1c0.6-0.1,1.1,0.3,1.2,0.8c0,0.1,0,0.2,0,0.3v0.3
	c0.1,0.6-0.3,1.1-0.8,1.2c-0.1,0-0.2,0-0.3,0H41.1c-1.6,0-3.2-0.1-4.7-0.1c-1.1,0-1.1,0.6-1.1,2.2c0,1.7,0,2.2,1.1,2.2
	c1.6,0,3.1-0.1,4.7-0.1h12.8c0.6-0.1,1.1,0.3,1.2,0.8c0,0.1,0,0.2,0,0.3v0.3c0,0.8-0.4,1.1-1.2,1.1H39.9c-2.6,0-5.3-0.1-7.9-0.1
	c-1.3,0-1.2,0.7-1.2,2c0,1.3-0.1,2.1,1.2,2.1c2.7,0,5.3-0.1,7.9-0.1h13.9c0.6-0.1,1.1,0.3,1.2,0.8c0,0.1,0,0.2,0,0.3V40
	c0,0.8-0.4,1.1-1.2,1.1h-9.7c-2.5,0-5-0.1-7.6-0.1c-1.4,0-1.5,0.4-1.5,2.2s0.1,2.2,1.5,2.2c2.5,0,5.1-0.1,7.6-0.1h9.1
	c1.2,0,1.6,0.4,1.7,1.6c-0.1,2.4-0.4,3.2-3.5,3.2c-1.5,0-2.7-0.2-3.5-0.2c-0.9,0-1.2,0.6-1.2,1.4c0,4.9,2,4.6,3.8,4.6
	c4.5,0,10.9-0.1,10.9-6.1c0-0.6,0-2.2-0.1-2.9c0.1-1.2,0.5-1.6,1.7-1.6h8.1c0.6,0,0.7,0.3,1,0.7c0.3,0.7,1.2,0.7,3,0.7
	c2.6,0,3.6,0.1,3.6-1.4c0-1.2-0.2-2.8-0.2-4.4v-0.8c-0.1-0.8,0.4-1.5,1.2-1.7c0.2,0,0.3,0,0.5,0c1.3,0,2.6,0.1,3.9,0.1
	c1.2,0,1.2-0.7,1.2-2.1c0-1.3,0.1-2-1.2-2s-2.6,0-4,0.1C79.3,34.4,78.8,33.9,78.7,32.8L78.7,32.8z M122,21.5c-1.6,0-1.6-0.7-3.2-3.8
	c-0.1-0.2-0.1-0.4-0.1-0.6c0-0.7,0.5-0.9,1.1-0.9H131c0.6,0.1,1.2,0.2,1.2,1c0,0.2,0,0.3-0.1,0.5c-0.4,0.8-0.8,1.6-1.2,2.4
	c-0.4,1-1.4,1.6-2.5,1.4L122,21.5z M136.4,10.7c-0.2,0.3-0.5,0.5-0.9,0.6c-1.1-0.1-1.5-0.7-1.5-1.7V5.4c0-1.5,0.1-2.4,0.7-2.9
	c0.4-0.3,0.7-0.5,0.7-0.9c0-0.7-1.1-0.8-1.6-0.9c-0.9-0.1-4.2-0.4-5-0.4c-0.6,0-1.1,0.1-1.1,0.9v0.6c0.2,1.4,0.3,2.8,0.2,4.3v3.5
	c0,1.2-0.5,1.7-1.7,1.7h-1.8c-1.2,0-1.7-0.5-1.7-1.7V6c0-1.8,0.1-2.9,0.7-3.4c0.5-0.4,0.7-0.5,0.7-0.9c0-0.7-0.9-0.8-1.5-0.9
	c-1-0.1-4.3-0.5-5.2-0.5c-0.6,0-1.1,0.2-1.1,0.9c0,0.2,0.1,0.4,0.1,0.6c0.2,2,0.2,4,0.2,6v1.9c0,1.2-0.6,1.7-1.7,1.7h-3
	c-0.2,0-0.3-0.1-0.3-0.2c0-0.1,0-0.2,0.1-0.2c0.6-0.2,2-0.9,2-1.6s-3.2-5-3.9-5.8c-0.2-0.3-0.4-0.6-0.6-0.7
	c-0.7-0.9-0.9-1.2-1.6-1.2c-1.1,0-4.3,1.5-4.3,2.4c0,0.3,0.4,0.7,0.6,1c1.4,1.6,2.6,3.3,3.8,5.1c0.1,0.2,0.1,0.4,0.1,0.6
	c0,0.6-0.4,0.7-0.9,0.7h-0.7c-2,0-4.1-0.1-6.1-0.1c-1.4,0-1.4,0.7-1.4,2.6s0,2.5,1.4,2.5c2.6,0,5.1-0.1,7.8-0.1h1.6
	c1-0.1,1.9,0.5,2.3,1.4c0.4,0.8,0.8,1.5,1.2,2.4c0.1,0.2,0.1,0.4,0.1,0.6c0,0.9-1,0.9-1.1,0.9h-1.4c-2.5,0-5-0.1-7.6-0.1
	c-1.4,0-1.4,0.8-1.4,2.5c0,1.4-0.1,2.4,1.3,2.4c2.5,0,5.1-0.1,7.6-0.1h10c0.8,0,1.2,0.3,1.2,1.2v0.5c0,0.9-0.4,1.2-1.2,1.2h-7
	c-2.4,0-4.8-0.1-7.1-0.1c-1.4,0-1.4,0.6-1.4,2.4c0,1.7-0.1,2.4,1.4,2.4c2.4,0,4.8-0.1,7.1-0.1h7c0.8,0,1.2,0.3,1.2,1.2v0.5
	c0.1,0.6-0.3,1.1-0.8,1.2c-0.1,0-0.2,0-0.3,0h-13.4c-2.6,0-5.3-0.1-7.9-0.1c-1.4,0-1.4,0.7-1.4,2.5c0,1.8,0,2.5,1.4,2.5
	c2.7,0,5.3-0.1,7.9-0.1h7.5c0.2,0,0.6,0.1,0.6,0.4c0,0.2-0.1,0.4-0.2,0.5c-4.8,3.1-9.9,5.5-15.2,7.4c-1.4,0.4-2.2,0.7-2.2,1.4
	c0,1.2,2.1,4.3,3.4,4.3c0.9,0,3.8-1.4,5.1-1.9c5.1-2.3,9.9-5.2,14.3-8.7c0.2-0.1,0.4-0.2,0.6-0.2c0.6,0,0.7,0.4,0.7,0.9v0.4
	c0,2.8-0.2,5.6-0.2,8.4c0,2,0.7,2.1,3.5,2.1c2.9,0,3.5-0.1,3.5-2.2c0-2.8-0.2-5.6-0.2-8.3v-0.6c0.1-0.4,0.2-0.9,0.7-0.9
	c0.2,0,0.5,0.1,0.6,0.2c3.7,3.1,7.8,5.7,12.1,7.8c1.3,0.6,6.2,2.9,7.4,2.9c1.2,0,3.5-2.8,3.5-4.1c0-0.7-0.6-1.1-2-1.5
	c-5.5-1.7-10.7-4.2-15.4-7.4c-0.2-0.1-0.3-0.3-0.2-0.4c0-0.4,0.3-0.5,0.6-0.5h7.9c2.6,0,5.3,0.1,7.9,0.1c1.4,0,1.4-0.7,1.4-2.5
	s0-2.5-1.4-2.5c-2.7,0-5.3,0.1-7.9,0.1h-13.9c-0.9,0-1.2-0.4-1.2-1.2v-0.6c0-0.8,0.4-1.1,1.2-1.1h7.4c2.4,0,4.7,0.1,7.1,0.1
	c1.4,0,1.4-0.7,1.4-2.4s0-2.4-1.4-2.4c-2.4,0-4.8,0.1-7.1,0.1h-7.4c-0.9,0-1.2-0.4-1.2-1.2v-0.5c0-0.9,0.4-1.2,1.2-1.2h10.5
	c2.5,0,5.1,0.1,7.6,0.1c1.4,0,1.3-0.9,1.3-2.4c0-1.7,0.1-2.5-1.4-2.5c-2.5,0-5,0.1-7.6,0.1h-1.6c-0.6-0.1-1.2-0.2-1.2-0.9
	c0-0.2,0.1-0.4,0.2-0.6c0.2-0.6,0.6-1.2,0.8-1.7c0.3-0.4,0.7-0.7,1.2-0.7c0.3-0.1,0.9-0.2,0.9-0.7c0-0.1-0.1-0.2-0.2-0.4
	c-0.1-0.1-0.1-0.2,0.1-0.2h2.4c2.6,0,5.1,0.1,7.8,0.1c1.4,0,1.4-0.7,1.4-2.5c0-1.9,0-2.6-1.4-2.6c-2.2,0-4.5,0.1-6.7,0.1
	c-0.5,0-0.9-0.2-0.9-0.8c0-0.2,0.1-0.4,0.2-0.6c0.6-1.1,1.9-3.2,2.5-4.3c0.3-0.3,0.7-0.5,1.2-0.6c0.1,0,0.8-0.1,0.8-0.6
	c0-0.9-5.3-2.9-5.6-2.9c-0.4,0-0.6,0.3-0.7,0.6C139.8,5.1,138.2,8,136.4,10.7z M193.1,29.7c2.1,4.2,5.1,7.9,8.8,10.9
	c0.7,0.6,3.2,2.6,4,2.6c1.2,0,4.1-3.2,4.1-4.5c0-0.5-0.6-0.9-1-1.2c-3.6-2.3-6.8-5.3-9.3-8.8c-2.4-3.5-4.5-8.8-4.5-10.2
	c0-0.9,0.7-1.2,1.4-1.2H209c1.2,0,1.7,0.5,1.7,1.7v27c0,2,0.1,3.4-2.4,3.4c-0.9,0-1.5-0.1-2.4-0.2c-0.5-0.1-0.9-0.1-1.4-0.1
	c-1.1,0-1.4,0.9-1.4,1.9c0,4.8,1.4,4.8,4.2,4.8c7.9,0,9.9-1.6,9.9-7c0-1.4-0.1-2.9-0.1-4.4V19.2c0-1.7,0.1-3.5,0.1-5.3
	c0-2.4-1.3-2.8-3.4-2.8c-1.8,0-3.7,0.1-5.5,0.1h-11.3c-1.2,0-1.7-0.6-1.7-1.7V5.3c0-1.7,0.1-2.4,0.9-2.9c0.3-0.2,0.7-0.4,0.7-0.9
	c0-0.6-0.6-0.7-1.1-0.8c-1-0.1-5.1-0.4-6.1-0.4c-0.7,0-1.2,0.2-1.2,1c0,0.4,0.1,1.1,0.1,1.3c0.1,1,0.1,2.1,0.1,3.1v3.7
	c0,1.2-0.5,1.7-1.7,1.7H176c-1.8,0-3.7-0.1-5.5-0.1c-2.2,0-3.3,0.4-3.3,2.9c0,1.7,0.1,3.5,0.1,5.3v27.2c0,2.7-0.2,5.3-0.2,7.9
	c0,1.7,0.8,1.8,3.5,1.8c2.7,0,3.3-0.1,3.3-1.9c0-2.5-0.1-5.1-0.1-7.8V19.1c0-1.2,0.5-1.7,1.7-1.7h11.3c0.7,0,1.5,0.3,1.5,1.2V19
	c-1.3,8.1-5.3,14.5-12.4,18.8c-0.7,0.4-1.5,0.8-1.5,1.6c0,1.4,2.6,4.7,4,4.7c2,0,10.2-7.9,13.1-14.3c0.1-0.3,0.4-0.5,0.7-0.5
	C192.7,29.2,193,29.4,193.1,29.7z M284.1,24.6c0-0.5-0.6-0.8-0.9-1c-4.6-2.5-8.7-5.5-12.5-9.1c-0.3-0.3-0.7-0.9-1.2-0.9
	c-0.9,0-3.7,2.4-3.7,3.2c0,1.7,13.1,11.6,15,11.6C282,28.4,284.1,25.5,284.1,24.6L284.1,24.6z M253.5,17.5c0-0.5-1.1-1.3-1.9-1.9
	c-1.1-0.8-2.6-2.1-3.1-2.1c-0.3,0-0.6,0.2-0.7,0.5c-3.5,3.8-7.7,6.9-12.3,9.3c-0.5,0.2-1.5,0.7-1.5,1.4c0,0.8,2.1,3.7,3.3,3.7
	c0.9-0.2,1.8-0.6,2.5-1.1c4.1-2.3,7.8-5.2,11.2-8.5c0.3-0.4,0.7-0.6,1.2-0.7h0.6C253,18.1,253.5,18,253.5,17.5z M264.1,6.4
	c-1.2,0-1.6-0.4-1.7-1.6c0.1-1.2,0-2,0.7-2.5c0.4-0.3,0.7-0.4,0.7-0.9c0-0.7-1.2-0.7-1.8-0.8c-1.2-0.1-4-0.4-5.2-0.4
	c-0.6,0-1.2,0.1-1.2,0.8c0,0.2,0.1,0.4,0.1,0.6c0.1,1.1,0.2,2.1,0.2,3.2c-0.1,1.2-0.6,1.6-1.7,1.6h-10.7c-2.2,0-4.5-0.1-6.7-0.1
	c-1.7,0-3.4,0.4-3.4,2.5c0,0.7,0.1,1.9,0.1,3.3v3.1c0,0.8-0.2,1.7-0.2,2.5c0,1.5,1.1,1.4,3.2,1.4c2,0,3.2,0.1,3.2-1.4
	c0-0.7-0.2-1.8-0.2-2.6v-1.4c-0.1-0.8,0.4-1.6,1.3-1.7c0.2,0,0.3,0,0.5,0h36c1.2,0,1.7,0.6,1.7,1.7v1.6c0,0.8-0.1,1.9-0.1,2.6
	c0,1.4,1.1,1.4,3.2,1.4c2.3,0,3.2,0,3.2-1.4c0-0.7-0.1-1.8-0.1-2.5v-3.3c0-1.4,0.1-2.5,0.1-3.3c0-2-1.7-2.5-3.4-2.5
	c-2.2,0-4.5,0.1-6.7,0.1L264.1,6.4z M251.9,47.9c-0.8,0.1-1.6-0.5-1.7-1.4c0-0.1,0-0.2,0-0.3v-4.6c0-1.1,0.6-1.6,1.7-1.7h14.4
	c1,0,1.7,0.8,1.7,1.7c0,0,0,0,0,0v4.6c0,0.9-0.7,1.7-1.6,1.7c0,0-0.1,0-0.1,0H251.9z M251,33.4c2.5-1.9,4.8-3.9,7-6.1
	c0.3-0.3,0.7-0.5,1.2-0.6c0.4,0,0.8,0.2,1.1,0.6c2.5,2.4,4.3,4,7,6.1c0.2,0.1,0.3,0.3,0.2,0.6c0,0.2-0.1,0.4-0.6,0.5h-15.7
	c-0.3,0-0.6-0.1-0.6-0.5C250.7,33.7,250.9,33.5,251,33.4z M275.4,38.9c1.2,0.8,6.7,4.2,7.9,4.2c1.1,0,3.4-3.2,3.4-4.3
	c0-0.6-1.2-1.1-1.7-1.4c-7.9-3.6-15.2-8.5-21.5-14.5c0-0.1-0.1-0.2-0.1-0.2c0-0.1,0.1-0.3,0.2-0.3c0.3-0.1,0.6-0.4,0.6-0.7
	c0-0.7-0.9-1.2-1.7-1.6c-0.2-0.1-0.5-0.2-0.9-0.4c-0.9-0.5-1.8-1-2.8-1.2c-0.5,0-0.9,0.6-1.2,0.9c-6.3,7.6-15.6,13.9-24.6,17.9
	c-0.6,0.2-1.7,0.7-1.7,1.5c0,0.9,2.1,4.2,3.7,4.2c1.1,0,6.5-3.2,7.8-3.9c0.2-0.1,0.4-0.1,0.6-0.1c0.6,0,0.8,0.4,0.9,1v11.1
	c0,1.2-0.1,2.8-0.1,3.6c0,1.3,0.7,1.2,3,1.2c2.5,0,3.2,0.1,3.1-1.4c0.1-0.8,0.4-1.1,1.2-1.1h15.4c0.7,0,1.1,0.3,1.1,1.1v0.3
	c0,1.3,0.9,1.2,3.1,1.2c2.4,0,3.1,0,3.1-1.2c0-0.2-0.1-3.1-0.1-3.6V39.8c0-0.6,0.2-1.1,0.8-1.1C275,38.7,275.2,38.9,275.4,38.9z
	 M300.4,42.8c0,0.6,0.7,0.9,1.1,1.2c3.6,2.3,6.8,5.1,9.4,8.4c0.3,0.4,0.7,0.9,1.2,0.9c1.4,0,4.5-3.4,4.5-4.8
	c0-1.5-10.7-10.1-12.1-10.1C303.6,38.5,300.4,41.8,300.4,42.8z M44.1,114.1c-1.4-1.1-3.9-3.2-4.7-3.2c-1,0-3.7,3.1-3.7,4
	c0,0.7,0.7,1.2,1.1,1.5c2.9,2.1,5.6,4.5,8.2,6.9c0.4,0.4,0.8,0.6,1.4,0.7c1.2,0,3.9-3,3.9-4.2c0-0.7-3.1-3.3-4.8-4.6
	C45.1,114.9,44.6,114.5,44.1,114.1z M15,138.7c0,0.2,0.1,0.6,0.1,0.9c0,0.1,0.1,2.7,0.1,2.7c0,0.2-0.1,0.5-0.4,0.5
	c-0.3,0-0.5-0.2-0.7-0.4c-1-0.8-2-1.4-3.2-1.9c-0.7,0-1.3,0.5-1.4,1.2c0,0.5,0.4,0.9,0.7,1.2c1.6,1.3,2.9,2.9,3.8,4.8
	c0.5,1.1,0.9,2.4,2.3,2.4c1.7,0,5.5-1.5,5.5-4.5c0-0.6-0.4-6.2-0.6-7.5c-0.1-0.9-0.2-3.3-0.2-4.1c-0.1-0.8,0.3-1.5,1-1.9
	c3.4-1.8,7.1-2.9,10.9-3c3.5,0,7.4,1.9,7.4,5.8c0,4.5-5.3,5.7-8.9,5.7c-1.7-0.1-3.4-0.3-5.1-0.6c-0.9,0-1.1,0.8-1.1,1.6
	c0,1.5,0.4,3.1,1,4.5c0.3,0.6,1.6,0.7,2.6,0.7h0.7c3.7,0,9.3-0.6,12.5-2.8c3.1-2,5-5.5,5-9.2c0-7.4-6.6-11.7-13.5-11.7
	c-3.5,0.1-7,0.7-10.3,2c-0.5,0.3-1,0.4-1.6,0.6c-0.8,0-0.9-1.4-0.9-2.4v-0.9c0-2.9,0.1-3.3,2.4-3.7c4.7-0.8,5.8-0.8,5.8-2.4
	c0-1.1-0.2-5.1-1.6-5.1c-0.4,0-0.7,0.2-1.1,0.3c-0.6,0.2-3.5,1.1-3.9,1.1c-0.6,0-1-0.5-1.1-1.1c0-0.2,0.1-0.6,0.1-0.9
	c0.1-0.6,0.1-1.1,0.2-1.4c0.2-1.9,0.2-2.7,1.2-3.4c0.2-0.2,0.6-0.6,0.6-1c0-0.6-0.9-0.7-1.2-0.8c-1.2-0.2-5.4-1.1-6.3-1.1
	c-0.6,0-0.8,0.4-0.8,0.9c0,0.2,0.1,1.7,0.1,2.9c0,1.7-0.1,3.5-0.1,5.2c0.1,0.7-0.1,1.3-0.5,1.9c-0.6,0.5-1.5,0.8-2.3,0.7
	c-1.9,0.2-4.1,0.4-6,0.4c-1.2,0.1-1.3,0.3-1.3,2c0,4.5,1,4.6,1.8,4.6c0.9,0,5.1-0.7,6.3-1c0.1,0,0.2-0.1,0.4-0.1
	c0.7,0,1.4,0.6,1.4,1.3c0,0,0,0.1,0,0.1v0.6c0,0.9-0.1,1.9-0.1,2.8v2.1c0,1.9-0.2,2-2.6,3.4c-3.4,2.1-6.7,4.3-10.2,6.3
	c-0.7,0.4-1.4,0.6-1.4,1.3c0,1.2,2.5,5.9,3.7,5.9c0.4-0.1,0.7-0.3,0.9-0.5c1.1-0.9,8.4-6.9,9.2-6.9C14.9,136.9,14.9,137.6,15,138.7
	L15,138.7z M76.8,112.9c-2.7,0-5.3-0.1-8.1-0.1c-1.6,0-1.5,0.7-1.5,3.9c0,1.7-0.1,3,1.6,3c2.1,0,5.2-0.2,7.9-0.2h26
	c1.2,0,2.3-0.1,2.3,0.8c0,0.7-3.2,3.7-3.9,4.3c-2.5,2.4-5.1,4.7-7.8,6.9c-0.4,0.4-0.9,0.7-1.5,0.7c-0.7,0-1.1-0.4-1.6-0.9
	c-0.8-0.8-3.9-4-4.8-4c-1.2,0-4.6,2.8-4.6,3.7c0,0.6,0.8,1.2,1.2,1.6c4.4,3.9,8.1,8.4,11.2,13.4c0.2,0.5,0.6,1.1,1.2,1.1
	c1.3,0,5.1-2.5,5.1-3.7c0-0.6-1.9-3.2-2.3-3.8c-0.4-0.6-0.9-1.1-0.9-1.8c0-0.8,0.6-1.3,1.2-1.8c5.7-4.8,11.2-9.9,16.4-15.1
	c0.6-0.6,1.1-1.1,1.7-1.6c1.1-0.9,1.9-1.7,1.9-2.1c0-0.7-3.1-4.7-4.3-4.7c-0.2,0-0.4,0-0.6,0.1c-1.2,0.2-2.3,0.2-3.5,0.2L76.8,112.9
	z M143.8,112.9c-2.7,0-5.3-0.1-8.1-0.1c-1.6,0-1.5,0.7-1.5,3.9c0,1.7-0.1,3,1.6,3c2.1,0,5.2-0.2,7.9-0.2h26c1.2,0,2.3-0.1,2.3,0.8
	c0,0.7-3.2,3.7-3.9,4.3c-2.5,2.4-5.1,4.7-7.8,6.9c-0.4,0.4-0.9,0.7-1.5,0.7c-0.7,0-1.1-0.4-1.6-0.9c-0.8-0.8-3.9-4-4.8-4
	c-1.2,0-4.6,2.8-4.6,3.7c0,0.6,0.8,1.2,1.2,1.6c4.4,3.9,8.1,8.4,11.2,13.4c0.2,0.5,0.6,1.1,1.2,1.1c1.3,0,5.1-2.5,5.1-3.7
	c0-0.6-1.9-3.2-2.3-3.8c-0.4-0.6-0.9-1.1-0.9-1.8c0-0.8,0.6-1.3,1.2-1.8c5.7-4.8,11.2-9.9,16.4-15.1c0.6-0.6,1.1-1.1,1.7-1.6
	c1.1-0.9,1.9-1.7,1.9-2.1c0-0.7-3.1-4.7-4.3-4.7c-0.2,0-0.4,0-0.6,0.1c-1.2,0.2-2.3,0.2-3.5,0.2L143.8,112.9z M249.2,99.2
	c-0.7,0-3,1.8-3,2.6c0,0.2,0.4,0.6,0.6,0.8c1.2,1.3,2.5,2.5,3.7,4c0.7,0.8,1.2,1.6,1.6,1.6c0.8,0,3-1.9,3-2.9
	C255,104.6,249.8,99.2,249.2,99.2L249.2,99.2z M243.5,104c-0.6,0-3,1.9-3,2.6c0,0.3,0.4,0.7,0.6,0.9c1.3,1.3,2.6,2.7,3.8,4
	c0.7,0.9,1.1,1.4,1.5,1.4c0.8,0,3-1.9,3-2.8C249.4,109.3,244.2,104,243.5,104L243.5,104z M205.4,134c0,1.7,1.4,4.6,2.4,6
	c4,5.6,10.9,6.5,17.4,6.5c3.7,0,15.4-0.7,18.6-1.8c1-0.2,1.7-1.2,1.5-2.2c0-0.6-0.1-2.5-0.2-3.1c-0.1-0.8-0.1-2-1.2-2
	c-0.3,0-0.6,0.1-0.9,0.2c-6.1,1.5-12.3,2.2-18.5,2.2c-5.8,0-11-0.9-12.3-7.4c-0.1-0.7-0.3-1.2-1.1-1.2
	C211,131,205.4,132.5,205.4,134z M213.2,107.2c-1.1,0-1.2,1.1-1.5,2.2c-0.2,1.1-0.4,2.1-0.6,3.2c0,0.6,0.4,1.1,1,1.3
	c3.6,1.4,12.2,1.8,16.2,1.8c3.1,0,6.3-0.2,9.4-0.6c1.2-0.2,1.4-0.6,1.4-2.1c0-2.7-0.1-5-1.6-5c-0.3,0-0.5,0-0.8,0.1
	c-3.3,0.6-6.6,1-10,1c-4,0.1-8-0.4-11.8-1.6C214.4,107.4,213.8,107.2,213.2,107.2z M280.4,103.4c0,0.3,0.1,0.5,0.2,0.7
	c0.5,1.3,0.9,2.7,1.2,4.1c0.6,2.5,2.4,9.1,3.1,11.3c0.2,0.3,0.3,0.7,0.2,1.1c0,0.7-0.4,1.3-1.1,1.6c-5.1,3.3-10.7,7.7-10.7,14.5
	c0,4,2.2,7.6,5.7,9.5c4.1,2.4,8.1,2.7,12.7,2.7c3,0,14.7-0.4,17-1c1.2-0.3,1.3-1,1.3-2.6v-0.7c0-1.3-0.1-3.8-0.9-3.8
	c-0.2,0-0.4,0-0.6,0.1c-5.3,1-10.8,1.5-16.2,1.6c-2.8,0.1-5.6-0.3-8.2-1.1c-1.9-0.7-4.1-2.2-4.1-4.5c0-2.4,1.4-4,3-5.6
	c2.6-2.5,7.9-5.5,11.2-7.3c4.9-2.8,10-5.1,15.3-7.1c0.5-0.2,1.2-0.4,1.2-1c0-0.9-1.3-3-1.8-3.8c-0.4-0.6-1.4-2.5-2.2-2.5
	c-0.6,0.1-1.1,0.3-1.6,0.6c-1.6,1.1-11.5,6.9-12.6,6.9c-1.1,0-1.2-1.1-1.4-1.9c-0.9-3.7-1.5-7.4-1.9-11.1c-0.1-1.4,0-2.4-1.7-2.4
	c-1,0-2,0.1-3,0.3C282.5,102.5,280.4,102.5,280.4,103.4z M341.9,137.7c3,0,5.5,2.4,5.5,5.4c0,0,0,0.1,0,0.1c0,3-2.5,5.5-5.5,5.5
	c-3,0-5.5-2.5-5.5-5.5C336.4,140.1,338.9,137.7,341.9,137.7z M341.9,134.6c-4.8,0-8.6,3.9-8.6,8.6c0,4.8,3.9,8.6,8.6,8.6
	c4.8,0,8.6-3.9,8.6-8.6l0,0C350.6,138.4,346.7,134.6,341.9,134.6C342,134.6,341.9,134.6,341.9,134.6L341.9,134.6z"/>
</svg>
