<?xml version="1.0" encoding="utf-8"?>
<!-- Generator: Adobe Illustrator 27.2.0, SVG Export Plug-In . SVG Version: 6.00 Build 0)  -->
<svg version="1.1" id="レイヤー_1" xmlns="http://www.w3.org/2000/svg" xmlns:xlink="http://www.w3.org/1999/xlink" x="0px"
	 y="0px" width="314px" height="246px" viewBox="0 0 314 246" style="enable-background:new 0 0 314 246;" xml:space="preserve">
<path id="パス_2227" d="M50.6,8.4c-2.7,0-5.3-0.1-8.1-0.1c-1.6,0-1.5,0.7-1.5,3.9c0,1.7-0.1,3,1.6,3c2.1,0,5.2-0.2,7.9-0.2h26
	c1.2,0,2.3-0.1,2.3,0.8c0,0.7-3.2,3.7-3.9,4.3c-2.5,2.4-5.1,4.6-7.8,6.9c-0.4,0.4-0.9,0.7-1.5,0.7c-0.7,0-1.1-0.4-1.6-0.9
	c-0.8-0.8-3.9-4-4.8-4c-1.2,0-4.6,2.8-4.6,3.7c0,0.6,0.8,1.2,1.2,1.6c4.4,3.9,8.1,8.4,11.2,13.4c0.2,0.5,0.6,1.1,1.2,1.1
	c1.3,0,5.1-2.5,5.1-3.7c0-0.6-1.9-3.2-2.3-3.8c-0.4-0.6-0.9-1.1-0.9-1.8c0-0.8,0.6-1.3,1.2-1.8c5.7-4.8,11.2-9.9,16.4-15.1
	c0.6-0.6,1.1-1.1,1.7-1.5c1.1-0.9,1.9-1.7,1.9-2.1c0-0.7-3.1-4.7-4.3-4.7c-0.2,0-0.4,0-0.6,0.1c-1.2,0.2-2.3,0.2-3.5,0.2L50.6,8.4z
	 M123.8,8.4c-2.7,0-5.3-0.1-8.1-0.1c-1.5,0-1.5,0.7-1.5,3.9c0,1.7-0.1,3,1.6,3c2.1,0,5.2-0.2,7.9-0.2h26c1.2,0,2.3-0.1,2.3,0.8
	c0,0.7-3.2,3.7-3.9,4.3c-2.5,2.4-5.1,4.6-7.8,6.9c-0.4,0.4-0.9,0.7-1.5,0.7c-0.7,0-1.1-0.4-1.6-0.9c-0.8-0.8-3.9-4-4.8-4
	c-1.2,0-4.6,2.8-4.6,3.7c0,0.6,0.8,1.2,1.2,1.6c4.4,3.9,8.1,8.4,11.2,13.4c0.2,0.5,0.6,1.1,1.2,1.1c1.3,0,5.1-2.5,5.1-3.7
	c0-0.6-1.9-3.2-2.3-3.8c-0.4-0.6-0.9-1.1-0.9-1.8c0-0.8,0.6-1.3,1.2-1.8c5.7-4.8,11.2-9.9,16.4-15.1c0.6-0.6,1.1-1.1,1.7-1.5
	c1.1-0.9,1.9-1.7,1.9-2.1c0-0.7-3.1-4.7-4.3-4.7c-0.2,0-0.4,0-0.6,0.1c-1.2,0.2-2.3,0.2-3.5,0.2L123.8,8.4z M207.7,8
	c0.7,0,1,0.5,1,1.1c-0.3,4.1-0.9,8.1-2,12.1c-1.7,6.3-5.2,13.4-8.3,13.4c-3.2,0-4-5.8-4-8.1c-0.2-7.6,4.2-14.7,11.2-17.9
	C206.3,8.4,207,8.2,207.7,8L207.7,8z M213.7,0.8c-14.6,0-25.7,11.5-25.7,26c-0.1,3,0.6,6.1,1.9,8.8c1.7,3.2,4.6,5.9,8.4,5.9
	c3.4,0,6.1-2.3,8.2-4.8c6-7.1,8.1-18.2,8.8-27.2c0.1-1.1,0.1-2.4,1.5-2.4c0.8,0.1,1.6,0.3,2.4,0.6c6.4,2.2,9.9,8.2,9.9,14.8
	c0,8.9-6.4,14.2-14.5,16.1c-0.6,0.1-1.6,0.2-1.6,0.9c0,1.4,2.5,5.2,4.2,5.2c1.5,0,5.3-1.7,6.8-2.5c7.5-3.9,12.2-11.6,12.1-20
	c0.1-5.7-2.2-11.2-6.3-15.2C225.4,2.6,219.8,0.8,213.7,0.8L213.7,0.8z M23.3,94c-1,0-0.9,1.4-1.1,2.2c-0.3,2.7-0.7,5.3-1.3,7.9
	c-0.6,1.3-1.2,1.5-5.6,1.5c-2.5,0-6.1-0.2-7-0.2c-0.3,0-1.3-0.1-1.3,1.6c0.1,1.4,0.3,2.8,0.7,4.1c0.1,0.8,0.8,1.3,1.6,1.2
	c1.2,0,6.1-0.6,7.5-0.6c0.4,0,0.9-0.1,1.3-0.1c0.5-0.1,0.9,0.3,1,0.8c0,0,0,0.1,0,0.1c0,0.5-0.1,1-0.3,1.6c-0.8,3.5-2,7-3.4,10.3
	c-0.4,0.9-0.7,1.8-0.9,2.7c0,1.7,3.5,3.5,5,3.5c0.7,0,1.3-0.8,1.7-1.4c3.2-4.3,9.6-7.8,15-7.8c3.7,0,6.1,2.8,6.1,6.4
	c0,8.2-9.9,10-16.3,10c-2.4,0-4.2-0.4-5-0.4c-0.7,0-1.3,0.5-1.3,1.2c0,0,0,0.1,0,0.1c0.1,1.4,0.4,2.8,0.8,4.1
	c0.4,1.3,0.7,1.6,2.7,1.6c4.4-0.1,8.7-0.7,13-1.7c7.2-1.9,12.5-6.7,12.5-14.5c0-7.6-5-12.8-12.6-12.8c-4.3,0-7.1,1.2-10.8,3.3
	c-0.2,0.1-0.4,0.2-0.7,0.2c-0.4,0-0.6-0.2-0.6-0.6c0-0.4,0.1-0.8,0.2-1.1c0.4-1.4,0.7-2.5,0.9-3.3c0.7-2.9,0.8-3.3,2.9-3.6
	c3.5-0.4,10.8-1.5,14.1-2.1c1.6-0.3,2.2-0.5,2.2-1.5c-0.1-1.3-0.2-2.6-0.6-3.8c-0.2-0.9-0.4-1.7-1.2-1.7c-0.6,0-1.1,0.2-1.7,0.4
	c-2.4,0.8-9.7,2.7-12,2.7c-0.5,0.1-1-0.3-1-0.8c0,0,0-0.1,0-0.1c0.1-0.5,0.2-1,0.4-1.6c0.2-0.5,0.2-0.9,0.4-1.2
	c0.1-1,0.6-1.9,1.3-2.5c0.3-0.2,0.5-0.5,0.6-0.9C30.4,95.8,23.9,94,23.3,94L23.3,94z M117.8,101.2c-1.1,0-4.7,2.2-4.7,3.3
	c0,0.4,0.2,0.8,0.6,1.1c4.2,4.4,5.8,7.9,8.3,13.3c0.3,0.6,0.6,1.4,1.4,1.4c1.2,0,5.1-2.3,5.1-3.7C128.5,115,120.1,101.2,117.8,101.2
	L117.8,101.2z M95.3,95.1c-0.7,0-0.7,0.7-0.7,1.2c0,0.7,0.1,1.4,0.1,2.1c0,2.7-0.2,5.4-0.6,8c-0.2,1.3-0.8,1.6-2,1.9
	c-3.4,0.8-6.8,1.5-10.3,1.9c-0.8,0.1-1.9,0.1-1.9,1c0,0.3,1.1,6.4,2.6,6.4c0.4-0.1,0.9-0.2,1.3-0.4c2.3-0.9,4.7-1.6,7.1-2.2
	c0.4,0,0.8,0.3,0.8,0.7c0,0,0,0.1,0,0.1c-0.4,1.6-0.9,3.1-1.5,4.6c-2.5,6.5-6.2,12.3-11,17.3c-0.5,0.4-0.8,0.9-0.9,1.4
	c0,1.4,4,3.8,5,3.8c0.4-0.1,0.8-0.3,1.1-0.6c2.3-2.8,4.4-5.8,6.2-8.9c3.5-5.7,6.1-11.9,7.9-18.4c0.4-1.7,1.1-2.2,4.6-2.2
	c3.7,0,3.9,2.5,3.9,5.6c0,4-0.9,10.4-2.7,14c-1.5,3-3.1,3.8-6.4,3.8c-1.2,0-2.3-0.2-2.9-0.2s-0.8,0.4-0.8,1.1c0.1,1.5,0.5,3,1.1,4.4
	c0.7,1.3,1.5,1.5,2.9,1.5c4.9,0.2,9.4-2.4,11.7-6.7c2.7-5,3.7-13.3,3.7-19c0-3.4-0.7-7-3.8-9c-2.2-1.4-4.5-1.4-7.1-1.4
	c-0.2,0-0.5,0.1-0.7,0.1c-0.7,0.1-1.3-0.4-1.4-1.1c0-0.1,0-0.1,0-0.2c0-0.2,0.1-0.5,0.1-0.7c0.2-1.1,0.3-1.9,0.4-2.7
	c0.4-2.2,0.5-3.2,1.7-4c0.2-0.2,0.5-0.4,0.5-0.7c0-0.7-1.1-0.9-1.6-1C100.6,96.2,95.9,95.1,95.3,95.1z M162.4,105
	c-1,0-1.1,0.9-1.1,2.7c0,0.4-0.1,0.9-0.1,1.4c-0.2,4.5-0.7,9.1-1.5,13.5c-0.4,2-0.9,4.1-1.4,6.1c-0.3,0.7-0.5,1.4-0.6,2.2
	c0,1.8,4.2,2.4,4.7,2.4c0.9,0,1.4-0.7,1.9-1.3c3.9-4.9,10.5-10.4,17-10.4c4,0,7.4,2.3,7.4,6.6c0,5.3-4.6,7.2-9,8.3
	c-2.7,0.7-5.5,1.1-8.2,1.2c-0.8,0.1-1.5,0.1-1.5,1.1c0.1,1.4,0.5,2.8,1.1,4c0.6,1.2,0.9,1.7,2.3,1.7c2.7-0.3,5.4-0.8,8.1-1.7
	c7.5-2.2,14.1-6,14.1-14.8c0-7.8-5.9-12.9-13.5-12.9c-5.9,0-9.6,2.5-14.2,5.7c-0.2,0.2-0.5,0.3-0.8,0.4c-0.4,0-0.6-0.4-0.6-0.7
	c0-0.4,0.1-0.9,0.2-1.3c0.6-2.9,1-5.8,1.5-8.6c0.2-1.2,0.3-1.8,1.3-2.4c0.2-0.1,0.6-0.3,0.6-0.7c0-0.5-0.7-0.7-1.1-0.9
	C166.6,106,164.5,105.5,162.4,105L162.4,105z M166.3,97.9c0,0.7,0.8,1,1.4,1.4c2.8,1.5,5.4,3.3,7.8,5.3c0.5,0.4,1.3,1.2,2,1.2
	c1.3,0,3.8-3.8,3.8-4.9c0-1.1-3.6-3-4.5-3.6c-1.1-0.7-6.1-3.9-7.1-3.9C168.3,93.4,166.3,97.1,166.3,97.9L166.3,97.9z M245.9,92
	c-0.6,0-0.7,0.6-0.9,1.3c-0.4,1.8-2.3,6.6-3.3,8c-0.6,0.7-2.2,0.8-3.8,0.8H236c-1.8,0-3.4-0.1-4.5-0.1c-1.6,0-1.8,0.4-1.8,2.9
	c0,3.2,0.2,3.5,1.6,3.5c1.9,0,3.3-0.2,4.3-0.2c0.9,0,1.4,0.2,1.4,0.7c0,1.2-9,13.6-10.4,15.2c-0.3,0.4-0.8,0.9-0.8,1.4
	c0,1.1,4.2,3.6,5.3,3.6c0.4,0,0.7-0.3,0.9-0.6c1.5-2.6,3.2-5,5.2-7.3c2.4-2.5,8.1-5.5,11.6-5.5c1.3-0.1,2.5,0.8,2.7,2.1
	c0.2,0.6,0.3,1.1,0.3,1.7c0,0.7-0.5,1.1-1.1,1.4c-1.3,0.6-2.6,1.3-3.8,2c-4.3,2.5-8.8,5.6-8.8,11.2c0,4.2,2.4,7.2,6.2,8.9
	c3.3,1.4,6.3,1.6,9.8,1.6c2.7,0,9.5-0.2,11.9-0.8c1.4-0.3,1.4-0.8,1.4-2.7c0-3.5-0.4-4.2-1.2-4.2c-0.4,0-0.8,0-1.2,0.1
	c-3.8,1-7.6,1.5-11.5,1.6c-3,0-9-0.4-9-4.5c0-3.8,6.4-6.6,6.7-6.6c0.6,0,0.8,0.5,0.8,1.1c0,1.3-0.1,2.7-0.1,4c0,1.6,1.1,1.7,3.8,1.7
	c2.4,0,2.7-0.2,2.7-2.5c0-1.9-0.1-3.8-0.1-5.7v-0.8c0-1.2,0.5-1.6,1.6-2c2.4-1.1,4.8-2.1,7.3-3c0.3-0.1,0.6-0.2,0.9-0.3
	c1.2-0.4,1.9-0.6,1.9-1.4c0-1.1-1.5-5.8-2.7-5.8c-0.6,0.1-1.1,0.3-1.6,0.6c-1,0.6-6.5,3.5-7.3,3.5c-0.6,0-0.8-0.5-0.9-1.1
	c-0.8-3.9-3.1-5.6-7.1-5.6c-2.3,0.1-4.6,0.6-6.8,1.6c-0.3,0.2-0.7,0.3-1.1,0.4c-0.3,0-0.5-0.2-0.5-0.4c0.6-1.3,1.3-2.5,2.1-3.6
	c0.4-0.6,1.1-1,1.9-1c3.9-0.4,7.8-1.1,11.7-1.9c1.3-0.2,3.3-0.5,3.3-1.5c-0.1-1.1-0.2-2.2-0.5-3.3c-0.2-0.9-0.5-1.9-1.6-1.9
	c-0.5,0-1.1,0.2-1.5,0.4c-2.3,0.8-4.8,1.4-7.2,1.7c-0.3,0-0.6-0.2-0.7-0.5c0,0,0-0.1,0-0.1c0.1-0.5,0.3-1,0.6-1.4
	c0.8-1.4,1.1-1.7,2-2.1c0.3-0.1,0.7-0.4,0.7-0.7C252.8,94.8,246.4,92,245.9,92z M49.6,205.2c2.2,0,4.4,0.1,6.6,0.1
	c1.6,0,1.5-0.6,1.5-2.6s0.1-2.6-1.5-2.6c-2.2,0-4.5,0.1-6.6,0.1H26.7c-2.2,0-4.4-0.1-6.6-0.1c-1.5,0-1.5,0.6-1.5,2.6s0,2.6,1.5,2.6
	c2.2,0,4.4-0.1,6.6-0.1H49.6z M45.1,221.9c2.1,0,4.3,0.2,6.4,0.2c1.5,0,1.5-0.6,1.5-2.6s0-2.6-1.5-2.6c-2.2,0-4.3,0.1-6.4,0.1H30.6
	c-2.1,0-4.3-0.1-6.4-0.1c-1.6,0-1.5,0.6-1.5,2.6s-0.1,2.6,1.5,2.6c2.1,0,4.3-0.2,6.4-0.2H45.1z M45.2,213.5c2.1,0,4.3,0.1,6.4,0.1
	c1.6,0,1.5-0.6,1.5-2.6s0.1-2.5-1.5-2.5c-2.1,0-4.3,0.1-6.4,0.1H30.6c-2.2,0-4.3-0.1-6.4-0.1c-1.5,0-1.5,0.6-1.5,2.5
	c0,2,0,2.6,1.5,2.6c2.2,0,4.3-0.1,6.4-0.1H45.2z M46.1,196.6c1.9,0,3.7,0.1,5.6,0.1c1.6,0,1.5-0.7,1.5-2.6c0-2,0.1-2.7-1.5-2.7
	c-1.9,0-3.7,0.1-5.6,0.1H29.9c-1.9,0-3.7-0.1-5.6-0.1c-1.6,0-1.5,0.7-1.5,2.7c0,1.9-0.1,2.6,1.5,2.6c1.9,0,3.7-0.1,5.6-0.1H46.1z
	 M30.6,237.2c-1,0-1.7-0.8-1.7-1.7c0,0,0,0,0,0v-3.1c0-1,0.8-1.7,1.7-1.7c0,0,0,0,0,0H45c1,0,1.7,0.8,1.7,1.7v3.1
	c0,1-0.8,1.7-1.7,1.7H30.6z M46.6,243.8c0,1.5,1,1.4,3.2,1.4c2.5,0,3.3,0,3.3-1.5s-0.1-3-0.1-4.5v-7c0-1.3,0.1-2.6,0.1-3.9
	c0-2.2-1.4-2.7-3.3-2.7c-1.5,0-3,0.1-4.5,0.1H30.4c-1.5,0-3-0.1-4.5-0.1c-2,0-3.3,0.5-3.3,2.8c0,1.3,0.1,2.5,0.1,3.8v6.9
	c0,1.5-0.1,3-0.1,4.5s0.9,1.4,3.2,1.4c2.6,0,3.3,0.1,3.2-1.8c0-0.8,0.4-1.1,1.1-1.1h15.3c0.7,0,1.1,0.3,1.1,1.1V243.8z M9,235
	c0,2.8-0.1,5.5-0.1,8.2c0,1.9,0.7,1.9,3.3,1.9c2.7,0,3.3-0.1,3.3-2c0-2.7-0.2-5.5-0.2-8.2v-23.1c0-2,0.1-3.3,0.7-3.8
	c0.4-0.4,0.7-0.4,0.7-0.9c0-0.7-1.1-0.7-1.6-0.8c-0.4-0.1-0.7-0.2-0.7-0.7c0-0.1,0.1-0.3,0.1-0.4c1.8-3.4,3.3-6.9,4.7-10.5
	c0.5-1.2,0.5-1.4,1.4-1.8c0.4-0.1,0.9-0.4,0.9-0.8c0-0.7-0.7-0.9-1.3-1.1c-0.7-0.2-5-1.7-5.4-1.7c-0.7,0-1,0.6-1.2,1.2
	c-2.3,8.2-6.4,15.9-11.9,22.4c-0.4,0.6-1.1,1.2-1.1,1.9c0,1.1,2.3,4.7,3.5,4.7c0.9,0,2.5-2.1,3.3-3.3c0.2-0.2,0.4-0.7,0.8-0.7
	S9,216,9,216.3L9,235z M116.9,194.8c-0.6,0-3,1.7-3,2.5c0,0.3,0.3,0.6,0.6,0.9c1.5,1.5,3,3.2,4.4,4.8c0.2,0.3,0.5,0.7,0.9,0.7
	c0.7,0,3-1.9,3-2.8C122.8,200.3,117.7,194.8,116.9,194.8L116.9,194.8z M110.1,199.5c-0.6,0-3,1.7-3,2.5c0,0.3,0.4,0.7,0.6,0.9
	c1.5,1.5,3,3.2,4.3,4.9c0.2,0.2,0.5,0.7,0.9,0.7c0.8,0,3-1.9,3-2.8C115.9,204.9,110.8,199.5,110.1,199.5L110.1,199.5z M90.3,194.4
	c-0.9,0-0.9,0.6-0.9,1.6v0.7c0,2.5-0.6,8.5-0.7,11.3c-0.4,4.9-0.6,9.8-0.6,14.7c0,4.5,0.3,10.5,3.1,14.3c2.5,3.3,6.8,4.8,10.9,4.8
	c8.1,0,15.1-4.9,18.8-11.8c0.9-1.6,2.5-5.5,2.5-7.3c0-1.9-3.8-5-5.1-5c-0.9,0-1,1.1-1.2,2c-0.5,3.3-1.8,6.5-3.8,9.2
	c-2.7,3.4-7.2,6-11.7,6c-6.7,0-6.6-7.5-6.6-12.3c-0.1-7.6,0.5-15.1,1.7-22.6c0.3-1.5,0.5-1.9,1.4-2.5c0.2-0.2,0.3-0.3,0.3-0.6
	c0-0.7-1.2-0.9-2.1-1.1C94.4,195.2,92.4,194.7,90.3,194.4L90.3,194.4z M151.5,202.6c0,0.6,0.6,6.5,2,6.5c0.3,0,0.6-0.1,0.9-0.1
	c4.5-1.1,9.1-2,13.7-2.5c0.7-0.1,3.5-0.6,4-0.6c0.4,0,0.9,0.2,0.9,0.7c0,0.4-0.8,1.2-1.1,1.5c-4.3,4.9-6.7,11.2-6.8,17.8
	c0,12.1,9.1,15.4,19.6,15.4c0.7,0,1.4,0,1.8-0.6c0.7-1.8,1.1-3.6,1.1-5.5c0-1-0.5-1.1-1.4-1.1c-0.6,0-2,0.1-3.1,0.1
	c-6.3,0-10.9-1.7-10.9-8.9c0.1-3.8,1.1-7.6,3-10.9c2.2-4.3,6-7.6,10.6-9.2c3.5-1.2,6.6-1.2,10.3-1.3c1.4-0.1,2.7,0.1,2.7-1.3
	c-0.1-1.5-0.2-3-0.5-4.5c-0.2-0.7-0.3-1.6-1.2-1.6c-0.2,0-0.5,0-0.7,0.1c-4.7,0.7-9.4,1.4-14.1,1.9c-9.1,1.1-18.1,2-27.2,2.5
	C152.3,201.1,151.5,200.9,151.5,202.6L151.5,202.6z M249,234.6c0,1-0.5,2.1-1.7,2.1c-1.9,0-4.8-1.1-4.8-3.3c0-1.4,1.2-2.5,2.7-2.5
	c0,0,0,0,0,0C247.2,230.9,248.9,232.5,249,234.6L249,234.6z M254.8,194.4c-0.8,0.1-1.6,0.3-2.4,0.7c-3.6,1.4-11.7,2.3-15.7,2.3h-1.5
	c-1.9,0-1.9,0.1-1.9,1.6c0,1.1,0.2,5.7,1.6,5.7c1,0,9.7-1.8,11.2-2.2c0.5-0.1,1-0.2,1.5-0.2c0.5,0,1.1,0.2,1.1,0.7
	c0,0.6-1.1,1.7-1.6,2.2c-5.7,6.3-12.9,13.9-19.3,19.5c-0.6,0.4-1.5,1.1-1.5,1.9c0,1,3.2,4.5,4.5,4.5c0.3,0,0.5-0.2,0.7-0.4
	c2.2-2.5,4.5-5.1,6.9-7.4c4-3.9,8.2-6.1,13.9-6.1c5.4,0,10.5,2.5,10.5,8.5c0,6.3-5.9,9.5-7.5,9.5c-0.5,0-0.7-0.4-0.7-0.8
	c0.1-1.4-0.3-2.8-1.1-4c-1.9-2.7-4.9-4.4-8.2-4.4c-4.2-0.1-7.8,3.3-7.9,7.5c0,6.3,7.3,8.4,12.5,8.4c10,0,19.7-5.7,19.7-16.7
	c0.2-5.1-2.7-9.9-7.4-12c-2.4-1.2-5-1.8-7.6-1.9c-0.9,0-1.7,0.1-2.5,0.2c-0.3,0.1-0.5,0.1-0.8,0.1c-0.6,0-1.1-0.3-1.1-0.8
	c0.1-0.4,0.3-0.8,0.6-1.1c2.7-3.1,5.7-5.9,9-8.3c0.7-0.5,1.4-0.9,1.4-1.3C260.9,199.1,257.3,194.4,254.8,194.4z M304.5,229.1
	c3,0,5.5,2.4,5.5,5.4c0,0,0,0.1,0,0.1c0,3-2.5,5.5-5.5,5.5c-3,0-5.5-2.5-5.5-5.5C299,231.6,301.5,229.1,304.5,229.1z M304.5,226
	c-4.8,0-8.6,3.9-8.6,8.6c0,4.8,3.9,8.6,8.6,8.6c4.8,0,8.6-3.9,8.6-8.6c0,0,0,0,0,0C313.1,229.9,309.3,226.1,304.5,226
	C304.5,226.1,304.5,226.1,304.5,226L304.5,226z"/>
</svg>
