<?xml version="1.0" encoding="utf-8"?>
<!-- Generator: Adobe Illustrator 24.2.0, SVG Export Plug-In . SVG Version: 6.00 Build 0)  -->
<svg version="1.1" id="グループ_695" xmlns="http://www.w3.org/2000/svg" xmlns:xlink="http://www.w3.org/1999/xlink" x="0px"
	 y="0px" viewBox="0 0 82 90" style="enable-background:new 0 0 82 90;" xml:space="preserve">
<style type="text/css">
	.st0{fill:#1A1311;}
</style>
<path id="パス_1" class="st0" d="M76.3,66.7c-0.6-5,1.6-7.2,3-15.9c1.9-11.7-3.6-18.8-7.9-23.2c-5.7-5.8-13-8.2-18.2-10
	c-5.9-2-9-3.9-10.4-7.5c-2-5.4-1.3-8.2-3-8.2c-1.5,0-0.8,5.3-3.6,9.2C31,18.5,16.9,18.2,7.5,31.3c-9.1,12.6-4.2,22.5-2.7,29.8
	c0.9,4.3,1.2,6.4,0.4,9c-0.6,2.5-2.2,4.6-4.4,6c3.4,3.7,10.2,3.2,13.3,1.2s5.7-6.6,5-14.8c7.2,0.9,14.5,1.2,21.8,1
	c11.4-0.4,17.6-0.7,21.7-1.9c-0.4,10,1.5,12.7,5.7,14.7c4.5,2.2,9.9,0,12.8-2.6C79.3,72.8,76.8,71.2,76.3,66.7z"/>
<path id="パス_2" class="st0" d="M26.8,67c-1.4,0-2.5,1.1-2.5,2.5s1.1,2.5,2.5,2.5s2.5-1.1,2.5-2.5l0,0C29.3,68.2,28.2,67,26.8,67
	z"/>
<circle id="楕円形_1" class="st0" cx="55.2" cy="69.2" r="2.5"/>
<path id="パス_3" class="st0" d="M44.2,74.6c-0.9-0.3-1.9-0.5-2.8-0.5c-0.6,0-1.1,0.1-1.7,0.2c-1.3,0.3-2.3,1.2-2.8,2.5
	c-0.6,1.7,0,3.5,1.5,4.4l0.1,0.1l-0.1,0.1c-0.3,0.2-0.5,0.4-0.7,0.7c-0.6,0.8-0.9,1.8-0.7,2.7c0.2,1,0.8,1.9,1.6,2.4
	c1,0.5,2.1,0.8,3.2,0.8c0.8,0.1,1.7,0,2.5-0.3l0,0v0l0-1.8c0,0,0,0,0,0c-2.2,0.5-3.3,0.4-4.4-0.1c-0.5-0.3-0.8-0.7-0.9-1.2
	c-0.1-0.5,0-1.1,0.3-1.6c0-0.1,0.1-0.1,0.1-0.2c0.3-0.5,0.7-1,2.3-0.9c0.3,0,0.6,0,0.8,0c0.1,0,0.3,0,0.4,0c0,0,0,0,0.1,0
	c0,0,0-0.1,0-0.2v-0.2c0-0.1,0-0.2,0-0.3l0-0.8c0,0,0,0-0.1,0l-0.3,0c-0.9,0-1.9-0.1-2.7-0.5c-0.9-0.4-1.3-1.5-0.9-2.4
	c0,0,0,0,0-0.1c0.3-0.7,0.9-1.1,1.6-1.2c1-0.1,1.9-0.1,2.9,0.2c0.1,0,0.5,0.1,0.7,0.1l0.1-0.9C44.2,75.4,44.2,74.8,44.2,74.6z"/>
<path id="パス_4" class="st0" d="M44.4,74.5L44.4,74.5L44.4,74.5c-1.5-0.7-3.2-0.8-4.7-0.4c-1.3,0.3-2.4,1.3-2.9,2.6
	c-0.7,1.7,0,3.6,1.5,4.5c-0.3,0.2-0.5,0.4-0.7,0.7c-0.6,0.8-0.9,1.8-0.7,2.8c0.2,1,0.8,1.9,1.7,2.5c1,0.5,2.1,0.8,3.3,0.8
	c0.3,0,0.5,0,0.7,0c0.6,0,1.2-0.1,1.8-0.3c0,0,0.1,0,0.1-0.1c0,0,0-0.1,0-0.1l0-1.8l0,0c0-0.1-0.1-0.1-0.2-0.1
	c-2.2,0.5-3.2,0.4-4.3-0.1c-0.4-0.2-0.8-0.7-0.9-1.1c-0.1-0.5,0-1.1,0.3-1.5c0-0.1,0.1-0.1,0.1-0.2c0.3-0.4,0.6-1,2.1-0.9
	c0.3,0,0.6,0,0.8,0c0.1,0,0.3,0,0.4,0c0.1,0,0.1,0,0.2-0.1c0.1-0.1,0.1-0.2,0.1-0.3v-0.2c0-0.1,0-0.2,0-0.3l0-0.8
	c0-0.1-0.1-0.2-0.2-0.2l-0.3,0c-0.9,0-1.8-0.1-2.7-0.5c-0.9-0.4-1.2-1.4-0.9-2.2c0,0,0,0,0-0.1c0.3-0.6,0.9-1,1.5-1.1
	c0.9-0.1,1.9-0.1,2.8,0.2c0.8,0.1,0.8,0.1,0.8,0.1l0,0l0.1-1l0,0C44.4,75.2,44.4,74.9,44.4,74.5z M43.4,76.4
	c-0.9-0.2-1.9-0.3-2.9-0.2c-0.7,0.1-1.3,0.6-1.6,1.2c-0.4,0.9-0.1,2,0.8,2.4c0,0,0,0,0.1,0c0.9,0.3,1.8,0.5,2.7,0.5l0.3,0
	c0,0,0.1,0,0.1,0l0,0.8c0,0.1,0,0.2,0,0.3v0.2c0,0,0,0.1,0,0.2c0,0,0,0-0.1,0c-0.1,0-0.3,0-0.4,0c-0.2,0-0.5,0-0.8,0
	c-1.6-0.1-2,0.5-2.2,0.9c0,0.1-0.1,0.1-0.1,0.2c-0.3,0.5-0.4,1.1-0.3,1.6c0.1,0.5,0.5,1,0.9,1.2c1.1,0.6,2.2,0.6,4.4,0.1
	c0,0,0,0,0,0l0,1.8v0l0,0c-0.8,0.3-1.7,0.4-2.5,0.3c-1.1,0-2.2-0.3-3.2-0.8c-0.8-0.5-1.4-1.4-1.6-2.4c-0.2-1,0.1-2,0.7-2.7
	c0.2-0.3,0.5-0.5,0.7-0.7l0.1-0.1l-0.1-0.1c-1.5-0.9-2.2-2.8-1.5-4.4c0.5-1.2,1.5-2.1,2.8-2.5c0.6-0.1,1.1-0.2,1.7-0.2
	c1,0,1.9,0.2,2.8,0.5c0,0.2,0,0.8,0,0.9l-0.1,0.9C44,76.4,43.5,76.4,43.4,76.4z"/>
<path id="パス_5" class="st0" d="M53.7,83.1c-0.2,0.1-0.4,0.2-0.5,0.3c-0.1,0.1-0.3,0.2-0.4,0.1c-0.2,0-0.4,0-0.6,0
	c-0.6,0.1-0.9,0.7-0.8,1.3c0,0.1,0.1,0.1,0.1,0.2c0.9,0.8,2.3,0.8,3.1-0.1c0.3-0.3,0.5-0.7,0.6-1.1c0-0.1,0-0.1,0-0.2
	C54.9,83.1,54.3,82.9,53.7,83.1z"/>
</svg>
