<?xml version="1.0" encoding="utf-8"?>
<!-- Generator: Adobe Illustrator 24.2.0, SVG Export Plug-In . SVG Version: 6.00 Build 0)  -->
<svg version="1.1" id="レイヤー_1" xmlns="http://www.w3.org/2000/svg" xmlns:xlink="http://www.w3.org/1999/xlink" x="0px"
	 y="0px" viewBox="0 0 92 92" style="enable-background:new 0 0 92 92;" xml:space="preserve">
<style type="text/css">
	.st0{fill:#EADFD3;}
</style>
<g id="グループ_1079" transform="translate(0)">
	<path id="パス_188" class="st0" d="M89.5,36.5c-2.4-10-11.2-25-21.4-28.9C49.1,0.2,41.7,0.1,27.5,6.9C5.2,17.6-0.4,42.3,1.6,53.9
		s8.3,22.2,21.6,30.2c17.8,10.7,31.3,5.2,44-1.9C80.4,74.8,95.3,66.3,89.5,36.5z M52.7,54.5c-6.1,3-8.9,1.3-13.4-1
		c-2.5-2.8-5.6-8.8-2.3-13.6c4.5-6.7,6.1-7.3,13-6c5.6,1,8,0.8,10.1,7.6C61.5,47.1,58.1,51.8,52.7,54.5L52.7,54.5z"/>
</g>
</svg>
