<?xml version="1.0" encoding="utf-8"?>
<!-- Generator: Adobe Illustrator 24.2.0, SVG Export Plug-In . SVG Version: 6.00 Build 0)  -->
<svg version="1.1" id="グループ_1079" xmlns="http://www.w3.org/2000/svg" xmlns:xlink="http://www.w3.org/1999/xlink" x="0px"
	 y="0px" viewBox="0 0 110 110" style="enable-background:new 0 0 110 110;" xml:space="preserve">
<style type="text/css">
	.st0{fill:#D1B694;}
</style>
<path id="パス_188" class="st0" d="M107.7,43.5c-2.9-12.2-13.6-30.2-25.9-35c-23.1-9-32-9.1-49.3-0.8C5.6,20.6-1.2,50.5,1.2,64.6
	s10,26.8,26.1,36.5c21.6,12.9,38,6.3,53.3-2.3C96.6,89.9,114.7,79.6,107.7,43.5z M63.1,65.2c-7.4,3.6-10.8,1.5-16.2-1.2
	c-3-3.4-6.7-10.6-2.8-16.5c5.5-8.1,7.4-8.8,15.8-7.3c6.8,1.2,9.6,1,12.2,9.2C73.8,56.3,69.7,62,63.1,65.2z"/>
</svg>
