<?xml version="1.0" encoding="utf-8"?>
<!-- Generator: Adobe Illustrator 24.2.0, SVG Export Plug-In . SVG Version: 6.00 Build 0)  -->
<svg version="1.1" id="レイヤー_1" xmlns="http://www.w3.org/2000/svg" xmlns:xlink="http://www.w3.org/1999/xlink" x="0px"
	 y="0px" viewBox="0 0 160 110" style="enable-background:new 0 0 160 110;" xml:space="preserve">
<style type="text/css">
	.st0{fill:#EADFD3;}
</style>
<g id="グループ_701" transform="matrix(0.966, -0.259, 0.259, 0.966, -839.729, -215.982)">
	<path id="パス_660" d="M833.7,491.7c-2.8-5.3-1.3-8.7-3.5-19.2c-2.9-13.9-12.1-19.6-18.8-22.7c-8.9-4.1-18.2-3.6-24.8-3.3
		c-7.5,0.3-11.8-0.5-14.9-4c-4.6-5.2-5.1-8.7-7-7.9c-1.7,0.7,1.4,6.3,0,11.9c-2.7,10.6-18.7,16.4-23.6,35.1
		c-4.8,18.1,5,27.1,9.8,34.6c2.9,4.5,4.1,6.7,4.4,9.9c0.3,3.1-0.5,6.2-2.4,8.6c5.4,2.7,12.9-0.8,15.4-4.4s3.6-10-0.8-18.8
		c8.5-2.2,16.8-4.9,24.9-8.3c12.7-5.4,19.5-8.5,23.6-11.5c3.8,11.4,7.2,13.6,12.8,14.1c6,0.5,11.1-4.3,13.2-8.5
		C839.7,497.2,836.3,496.5,833.7,491.7z"/>
	<path id="パス_661" d="M778.2,513.4c-1.6,0.6-2.3,2.3-1.7,3.9s2.3,2.3,3.9,1.7c1.6-0.6,2.3-2.3,1.7-3.9
		C781.5,513.6,779.8,512.8,778.2,513.4C778.2,513.4,778.2,513.4,778.2,513.4z"/>
	<path id="パス_662" d="M812.2,506.4c1.6-0.6,2.3-2.3,1.7-3.9s-2.3-2.3-3.9-1.7c-1.6,0.6-2.3,2.3-1.7,3.9
		C808.9,506.2,810.7,507,812.2,506.4C812.2,506.4,812.2,506.4,812.2,506.4z"/>
	<path id="パス_663" class="st0" d="M807.3,547.2c0.2,0,0.3,0,0.5-0.1c0.6-0.1,1.3-0.2,1.9-0.3c0.1,0,0.2,0,0.3-0.1
		c0.6-0.1,1.1-0.3,1.6-0.5c0.2,0,0.3-0.1,0.5-0.1c0.6-0.2,1.2-0.4,1.8-0.7c0.1,0,0.1-0.1,0.2-0.1c0.5-0.2,1-0.5,1.6-0.8
		c0.1-0.1,0.3-0.2,0.4-0.2c0.5-0.3,1.1-0.6,1.6-1c0,0,0.1,0,0.1-0.1c0.5-0.3,0.9-0.7,1.4-1c0.1-0.1,0.2-0.2,0.3-0.3
		c0.4-0.4,0.9-0.8,1.3-1.2c5.6-6,8.8-10.9,6.2-18.7c-1.3-3.8-2.4-6.1-3.9-7.7c-0.4-0.4-0.8-0.8-1.2-1.2c-0.2-0.2-0.5-0.4-0.7-0.5
		c-0.6-0.4-1.1-0.7-1.7-0.9c-0.9-0.4-1.8-0.7-2.7-1l-0.1,0c-0.6-0.2-1.2-0.4-1.8-0.6c-0.1,0-0.1,0-0.2-0.1c-0.6-0.2-1.2-0.4-1.8-0.5
		c-0.1,0-0.1,0-0.2-0.1c-0.6-0.2-1.2-0.3-1.8-0.4l-0.2,0c-0.7-0.1-1.4-0.1-2.1-0.2h0c-0.5,0-1.1,0-1.6,0.1c-0.1,0-0.2,0-0.3,0
		c-0.5,0.1-1.1,0.2-1.7,0.3c-0.1,0-0.2,0.1-0.3,0.1c-0.6,0.2-1.2,0.3-1.9,0.6c-0.1,0-0.2,0.1-0.3,0.1c-0.7,0.3-1.4,0.5-2.2,0.9
		c-1.6,0.7-3.2,1.6-4.7,2.5c-1.3,0.8-2.5,1.8-3.6,2.8c-1,0.9-1.9,1.9-2.7,3c-0.4,0.5-0.7,1-1,1.5c-0.5,0.8-0.9,1.6-1.2,2.4
		c-0.3,0.7-0.5,1.4-0.7,2.2c-0.1,0.5-0.2,1-0.3,1.5c-0.2,1.4-0.3,2.8-0.1,4.2c0.1,0.8,0.2,1.7,0.4,2.5c0.4,1.5,0.9,2.9,1.7,4.1
		c1.2,1.9,2.8,3.5,4.6,4.7c1.2,0.8,2.4,1.5,3.7,2.1c1.1,0.5,2.2,1,3.4,1.5l0,0c0.5,0.2,0.9,0.3,1.4,0.5c0.2,0,0.3,0.1,0.5,0.1
		c0.3,0.1,0.6,0.2,1,0.2c0.2,0,0.4,0.1,0.6,0.1c0.3,0,0.6,0.1,0.9,0.1c0.2,0,0.4,0,0.7,0c0.3,0,0.6,0,0.8,0c0.1,0,0.2,0,0.3,0
		C806.2,547.3,806.8,547.2,807.3,547.2z M803.7,522.8c1.3-3.1,4.3-3.6,6.1-3.7c0.2,0,0.4,0,0.5,0s0.3,0,0.4,0c0.2,0,0.4,0,0.5,0.1
		c0.2,0,0.4,0.1,0.6,0.1c0.1,0,0.3,0.1,0.4,0.1c0.2,0.1,0.3,0.2,0.4,0.3c0.1,0.1,0.2,0.1,0.3,0.2c0.1,0.1,0.2,0.2,0.3,0.3
		c0.1,0.1,0.2,0.2,0.2,0.3c0.1,0.1,0.2,0.3,0.3,0.4c0.1,0.1,0.1,0.2,0.2,0.3c0.1,0.2,0.1,0.3,0.2,0.5c0,0.1,0.1,0.2,0.1,0.3
		c0.1,0.2,0.1,0.4,0.1,0.6c0,0.1,0,0.2,0.1,0.2c0,0.2,0.1,0.5,0.1,0.7l0,0.1c0.1,0.8,0,1.7-0.4,2.4c-0.1,0.3-0.2,0.5-0.4,0.8
		c-0.4,0.8-1,1.4-1.7,2c-0.2,0.2-0.5,0.3-0.7,0.5c-0.3,0.1-0.6,0.3-0.9,0.4c-0.1,0-0.2,0.1-0.3,0.1c-0.2,0.1-0.5,0.2-0.8,0.2
		c-0.1,0-0.3,0.1-0.5,0.1c-0.2,0-0.5,0.1-0.8,0.1c-0.2,0-0.4,0-0.5,0c-0.3,0-0.5,0-0.8,0c0,0-0.1,0-0.1,0c-0.2,0-0.4,0-0.5,0
		s-0.4,0-0.5,0c-0.2,0-0.5-0.1-0.7-0.1c-0.2,0-0.3-0.1-0.5-0.1c-0.2-0.1-0.5-0.2-0.7-0.3c-0.1-0.1-0.2-0.1-0.4-0.2
		c-0.3-0.2-0.6-0.4-0.8-0.7c-0.4-0.4-0.7-1-0.8-1.6C801.7,525.7,803,524.4,803.7,522.8L803.7,522.8z"/>
	<path id="パス_664" d="M848.5,515.9c3.5-1.9,7.1-4.3,10.8-5.8c3.1-1.2,5.8-0.3,8.4-2.2c0.7-0.6,1.2-1.5,1.9-2
		c1.9-1.5,4.4-1.6,6.5-2.5c2.7-1.1,5.2-3,7.7-4.4c0.4-0.2,0.5-0.8,0.3-1.2c-0.2-0.4-0.7-0.5-1.1-0.3c-3.3,2.1-6.8,3.8-10.4,5.1
		c-2.5,0.8-3,1.7-5,3.1c-2.8,1.9-6.1,1.6-9.1,3c-3.7,1.7-7.2,3.9-10.8,5.8C846.7,515,847.5,516.4,848.5,515.9z"/>
	<path id="パス_665" d="M867,540.6c-3.1,0.6-6.3,1-9.5,1.3c-4.5,0.2-8.8-2.1-12.6-4.1c-1-0.5-1.8,0.9-0.8,1.4
		c4.8,2.5,9.7,4.8,15.2,4.1c6.6-0.7,13.5-3.3,19.3,1.2c0.9,0.6,1.7-0.8,0.8-1.4C875.5,540.1,871.7,539.8,867,540.6z"/>
	<path id="パス_666" d="M849.9,525.3c-0.5-1-1.9-0.1-1.4,0.8c1,1.9,4.6,4.5,6.5,2.2c1.8-2.3,1.4-6-1.4-7.1c-1-0.4-1.4,1.2-0.4,1.6
		c0.8,0.3,1.3,1.1,1.3,2c0.1,0.9-0.2,1.7-0.7,2.5C852.5,528.3,850.4,526.2,849.9,525.3z"/>
	<path id="パス_667" d="M872.3,521c0.1,0.7-0.3,1.4-1,1.7c-0.7,0.3-1.6-0.1-1.5-1c0.2-1.1-1.4-1.5-1.6-0.4c-0.3,1.4,0.6,2.8,2,3.2
		c0.3,0.1,0.5,0.1,0.8,0.1c1.7-0.2,3-1.8,2.9-3.5c0-0.5-0.4-0.8-0.8-0.8C872.7,520.2,872.3,520.5,872.3,521L872.3,521z"/>
	<path id="パス_668" d="M893.5,518.8c-0.7-0.8-1.8,0.3-1.2,1.2c0.6,0.8-0.6,1.6-1.2,1.7c-1.2,0.2-1.1-1.1-1.1-1.9
		c0-1.1-1.6-1.1-1.7,0c-0.1,1,0.1,2.1,0.8,2.9c0.7,0.7,1.8,0.9,2.8,0.5C893.7,522.5,894.8,520.5,893.5,518.8z"/>
	<path id="パス_669" d="M865.9,516.9c0.8,0.6,1.8-0.5,1.1-1.1c-1.8-1.5-4.5-1.3-6.1,0.5c-0.6,0.9-0.7,2-0.5,3c0,0.1,0,0.1,0,0.2
		l-1.2-0.1c-1-0.1-1,1.4,0,1.5l1.5,0.1c0.3,1.4,0.4,2.8,0.3,4.2c-0.1,1,1.5,1,1.5,0c0.1-1.4,0-2.7-0.2-4.1c0.6,0,1.2,0.1,1.8,0.2
		c1,0.1,1-1.5,0-1.5l-2.1-0.2c-0.1-0.4-0.2-0.9-0.2-1.4C862.1,516.3,864.6,515.8,865.9,516.9z"/>
	<path id="パス_670" d="M879.7,516.7c-0.7,1-0.1,2.6,0.6,4c-0.4,0.1-0.9,0.1-1.4,0.1c-1-0.1-1,1.4,0,1.5c0.7,0.1,1.4,0,2.1-0.2
		c0.2,0.4,0.4,0.7,0.5,1.1c0.3,0.9,1.8,0.5,1.5-0.4c-0.1-0.4-0.3-0.9-0.5-1.3c0.3-0.1,0.6-0.2,0.8-0.4c0.9-0.4,0.1-1.7-0.8-1.3
		c-0.2,0.1-0.5,0.2-0.7,0.3l-0.2-0.4c-0.2-0.4-0.8-1.4-0.7-1.9c0.1-0.6,1.4-1.2,1.8-0.6c0.6,0.8,1.9,0,1.3-0.8
		C883.1,515.1,880.6,515.3,879.7,516.7z"/>
</g>
</svg>
