<?xml version="1.0" encoding="utf-8"?>
<!-- Generator: Adobe Illustrator 24.2.0, SVG Export Plug-In . SVG Version: 6.00 Build 0)  -->
<svg version="1.1" id="レイヤー_1" xmlns="http://www.w3.org/2000/svg" xmlns:xlink="http://www.w3.org/1999/xlink" x="0px"
	 y="0px" viewBox="0 0 1114 920" style="enable-background:new 0 0 1114 920;" xml:space="preserve">
<style type="text/css">
	.st0{fill:#EADFD3;}
	.st1{fill:#EAE7D3;}
	.st2{fill:#E0D4C6;}
</style>
<g id="グループ_1138" transform="translate(-85.472 -399.448)">
	<g id="グループ_449" transform="translate(85.472 800.162)">
		<path id="パス_188" class="st0" d="M954.6,174.3c30.1,16.7,62.3,29.8,104.6,4.4c31.6-19,46.6-44.1,51.3-71.7
			s-8.6-86.3-61.5-111.7c-33.9-16.2-51.5-15.9-96.8,1.7c-24.1,9.3-45.2,44.8-50.8,68.7C887.6,136.5,923.2,156.8,954.6,174.3z
			 M989.1,108.3c-13-6.4-21.1-17.5-17.5-30.9c5-16.2,10.6-15.7,23.9-18.1c16.4-3,20.2-1.6,30.9,14.3c7.7,11.6,0.4,25.7-5.5,32.4
			C1010.3,111.3,1003.6,115.5,989.1,108.3L989.1,108.3z"/>
	</g>
	<g id="グループ_681" transform="translate(1096.005 399.448) rotate(45)">
		<path id="パス_188-2" class="st1" d="M-548,719.3c9.4-16.9,16.7-34.9,2.5-58.6c-10.7-17.7-24.8-26.1-40.2-28.7
			c-15.4-2.6-48.4,4.9-62.6,34.6c-9.1,19-8.9,28.8,1,54.2c5.2,13.5,25.1,25.3,38.5,28.5C-569.1,757-557.8,737-548,719.3z
			 M-585,700.1c-3.5,7.3-9.8,11.8-17.3,9.8c-9.1-2.8-8.8-5.9-10.2-13.4c-1.7-9.2-0.9-11.3,8-17.3c6.5-4.3,14.5-0.2,18.2,3.1
			C-583.3,688.2-581,692-585,700.1L-585,700.1z"/>
	</g>
	<path id="パス_653" class="st2" d="M128.2,1294c22.2,12.4,45.9,22,77,3.3c23.2-13.9,34.2-32.4,37.7-52.7
		c3.5-20.3-6.3-63.6-45.3-82.2c-24.9-12-37.9-11.8-71.2,1.2c-17.7,6.9-33.3,33-37.4,50.6C83.2,1238.4,105,1281.2,128.2,1294z
		 M144.8,1250.9c-9.6-4.7-20.9-16.3-15.4-34c3.7-11.9,11.3-18,21.1-19.8c12.1-2.2,21.5-1.5,29.4,10.2c5.7,8.5,12.7,17.3,0.8,31.1
		C164.8,1256.8,155.5,1256.2,144.8,1250.9L144.8,1250.9z"/>
</g>
</svg>
