<?xml version="1.0" encoding="utf-8"?>
<!-- Generator: Adobe Illustrator 24.2.0, SVG Export Plug-In . SVG Version: 6.00 Build 0)  -->
<svg version="1.1" id="グループ_49" xmlns="http://www.w3.org/2000/svg" xmlns:xlink="http://www.w3.org/1999/xlink" x="0px"
	 y="0px" viewBox="0 0 82 66" style="enable-background:new 0 0 82 66;" xml:space="preserve">
<style type="text/css">
	.st0{fill:#D1B694;}
	.st1{fill:#FFFFFF;}
</style>
<path id="パス_237" class="st0" d="M73,28.4c-5.7-6.1-13.1-8.8-18.4-10.8c-6-2.2-9.1-4.3-10.4-8C44,9,43.8,8.3,43.7,7.7
	c-0.1-0.2-0.1-0.4-0.2-0.6c-0.1-0.4-0.2-0.7-0.2-1.1c-0.1-0.2-0.1-0.4-0.1-0.7C43.1,5.1,43,4.8,43,4.6c-0.1-0.4-0.1-0.7-0.2-1
	c0-0.2-0.1-0.3-0.1-0.4c0-0.2-0.1-0.4-0.1-0.6c0-0.1-0.1-0.2-0.1-0.3S42.4,2,42.4,1.9s-0.1-0.2-0.1-0.2c-0.1-0.1-0.1-0.2-0.2-0.2
	c-0.1,0-0.1-0.1-0.2-0.1c-0.1-0.1-0.3-0.1-0.4-0.1c-1.6,0-1,5.4-3.9,9.3c-5.6,7.4-20,6.7-30,19.8C-2.3,42.9,1,53.6,3.7,60.7
	C3.8,60.8,3.9,61,4,61.1c0.1,0,0.1,0.1,0.2,0.1c0.1,0.1,0.3,0.2,0.4,0.3c0.1,0,0.1,0.1,0.2,0.1l0,0c0.6,0.3,1.3,0.5,2,0.7
	c4.8,1.4,14.6,2.6,24.5,2.6c15.5,0,26.8-0.7,33.1-2.7c6.2-1.9,14.8-5.6,15.9-9.8C83.2,40.7,77.3,33.1,73,28.4z"/>
<g>
	<path class="st1" d="M18.3,43.1c-0.4-0.2-0.8-0.3-1.1-0.5c-0.2-0.1-0.3-0.1-0.5-0.2c-0.7-0.2-1.4-0.5-1.4-1.1
		c0-0.7,1.2-0.8,1.5-0.8c0.9,0,1.8,0.3,2.6,0.7l0.2,0.1l0.2-1.8h-0.1c-0.9-0.3-1.8-0.5-2.8-0.5c-1.7,0-3.5,0.8-3.5,2.5
		c0,1.6,1.5,2.1,2.9,2.6c0.2,0.1,0.4,0.1,0.5,0.2c0.9,0.3,1.4,0.7,1.4,1.2c0,0.7-0.5,1-1.6,1c-1,0-2.1-0.4-2.9-1.1l-0.2-0.2v2
		l0.1,0.1c0.9,0.4,2,0.7,3,0.7c1.7,0,3.6-0.3,3.6-2.6C20.1,44.3,19.4,43.4,18.3,43.1z"/>
	<polygon class="st1" points="21.9,40.7 25,40.7 25,48 26.9,48 26.9,40.7 30,40.7 30,39.1 21.9,39.1 	"/>
	<path class="st1" d="M36,39.1c-2.5,0-4.6,2-4.6,4.5c0,2.7,1.8,4.4,4.6,4.4c2.9,0,4.6-1.7,4.5-4.4C40.5,41.1,38.5,39.1,36,39.1z
		 M38.6,43.3v0.2c0,1.4-0.5,3-2.6,2.9c-1.7,0-2.6-1-2.6-2.9c0-0.7,0.2-3,2.6-3c0.1,0,0.2,0,0.2,0C37.7,40.7,38.7,41.9,38.6,43.3z
		 M36,40.3c-0.2,0-0.5,0-0.7,0.1C35.6,40.3,35.8,40.3,36,40.3s0.5,0,0.7,0.1C36.5,40.3,36.3,40.3,36,40.3z"/>
	<path class="st1" d="M49.3,46.2c-0.3-0.7-0.7-1.3-1.1-1.8c-0.1-0.2-0.2-0.4-0.3-0.5c1-0.4,1.7-1.3,1.6-2.4c0-2.2-2.1-2.5-3.6-2.5
		c-0.4,0-0.8,0-1.2,0c-0.5,0-0.9,0-1.4,0h-0.1v9h1.9v-3.7c0.2,0,0.5,0,0.7,0c0.5,0.2,0.9,0.8,1.2,1.2v0.1c0.2,0.4,0.4,0.8,0.7,1.2
		c0.2,0.4,0.4,0.7,0.6,1.1V48h2.1l-0.1-0.2C49.9,47.2,49.6,46.7,49.3,46.2z M46.1,40.4c1,0,1.4,0.4,1.4,1.2c0,0.9-0.6,1.3-2.1,1.3
		c0,0-0.1,0-0.2,0h-0.1L45,40.4C45.4,40.4,45.7,40.4,46.1,40.4z M47.8,41.7C47.8,41.7,47.8,41.7,47.8,41.7c0,0.1,0,0.2,0,0.3
		C47.8,41.9,47.8,41.8,47.8,41.7z"/>
	<polygon class="st1" points="55.3,42.7 53.2,39 50.9,39 54.2,44.4 54.2,48.1 56.1,48.1 56.1,44.4 59.7,39 57.5,39 	"/>
	<path class="st1" d="M61.4,45.4c-0.7,0-1.2,0.5-1.2,1.2s0.5,1.2,1.2,1.2c0.7,0,1.2-0.5,1.2-1.2S62.1,45.4,61.4,45.4z"/>
	<path class="st1" d="M67.5,39L67.5,39c-0.9,0.3-1.7,0.7-2.8,1.1h-0.1v1.7l0.2-0.1c0.8-0.3,1.3-0.5,1.9-0.8v7h1.9V39H67.5z"/>
</g>
</svg>
