<?xml version="1.0" encoding="utf-8"?>
<!-- Generator: Adobe Illustrator 24.2.0, SVG Export Plug-In . SVG Version: 6.00 Build 0)  -->
<svg version="1.1" id="グループ_58" xmlns="http://www.w3.org/2000/svg" xmlns:xlink="http://www.w3.org/1999/xlink" x="0px"
	 y="0px" viewBox="0 0 82 66" style="enable-background:new 0 0 82 66;" xml:space="preserve">
<style type="text/css">
	.st0{fill:#D1B694;}
	.st1{fill:#FFFFFF;}
</style>
<path id="パス_252" class="st0" d="M73,28.4c-5.7-6.1-13.1-8.8-18.4-10.8c-6-2.2-9.1-4.3-10.4-8C44,9,43.8,8.3,43.7,7.7
	c-0.1-0.2-0.1-0.4-0.2-0.6c-0.1-0.4-0.2-0.7-0.2-1.1c-0.1-0.2-0.1-0.4-0.1-0.7C43.1,5.1,43,4.8,43,4.6c-0.1-0.4-0.1-0.7-0.2-1
	c0-0.2-0.1-0.3-0.1-0.4c0-0.2-0.1-0.4-0.1-0.6c0-0.1-0.1-0.2-0.1-0.3c0-0.1-0.1-0.3-0.1-0.4c0-0.1-0.1-0.2-0.1-0.2
	c-0.1-0.1-0.1-0.2-0.2-0.2c-0.1,0-0.1-0.1-0.2-0.1c-0.1-0.1-0.3-0.1-0.4-0.1c-1.6,0-1,5.4-3.9,9.3c-5.6,7.4-20,6.7-30,19.8
	C-2.3,42.9,1,53.6,3.7,60.7C3.8,60.8,3.9,61,4,61.1c0.1,0,0.1,0.1,0.2,0.1c0.1,0.1,0.3,0.2,0.4,0.3c0.1,0,0.1,0.1,0.2,0.1l0,0
	c0.6,0.3,1.3,0.5,2,0.7c4.8,1.4,14.6,2.6,24.5,2.6c15.5,0,26.8-0.7,33.1-2.7c6.2-1.9,14.8-5.6,15.9-9.8C83.2,40.7,77.3,33.1,73,28.4
	z"/>
<g>
	<path class="st1" d="M16.6,43.1c-0.4-0.2-0.8-0.3-1.2-0.5c-0.2-0.1-0.3-0.1-0.5-0.2c-0.7-0.2-1.4-0.5-1.4-1.1
		c0-0.8,1.1-0.8,1.5-0.8c0.9,0,1.8,0.3,2.6,0.7l0.2,0.1l0.2-1.8l-0.1,0c-0.9-0.4-1.8-0.5-2.8-0.5c-1.7,0-3.5,0.8-3.5,2.5
		c0,1.6,1.5,2.1,2.9,2.6c0.2,0.1,0.4,0.1,0.6,0.2c0.8,0.3,1.4,0.6,1.4,1.2c0,0.7-0.5,1-1.6,1c-1.1,0-2.1-0.4-2.9-1.1l-0.2-0.2v2
		l0.1,0c0.9,0.5,2,0.7,3,0.7c1.7,0,3.6-0.3,3.6-2.6C18.5,44.3,17.7,43.4,16.6,43.1z"/>
	<polygon class="st1" points="20.2,40.7 23.3,40.7 23.3,48 25.2,48 25.2,40.7 28.3,40.7 28.3,39.1 20.2,39.1 	"/>
	<path class="st1" d="M34.4,39c-2.5,0-4.6,2-4.6,4.5c0,2.8,1.7,4.4,4.6,4.4c2.9,0,4.5-1.6,4.5-4.4C38.9,41,36.9,39,34.4,39z
		 M34.6,40.5c1.4,0.1,2.5,1.4,2.3,2.8l0,0.2c0,1.3-0.4,2.9-2.6,2.9c-1.6,0-2.6-1.1-2.6-2.9c0-0.7,0.2-3,2.6-3v0
		C34.5,40.5,34.5,40.5,34.6,40.5z"/>
	<path class="st1" d="M47.7,46.2c-0.4-0.6-0.7-1.2-1.1-1.8c-0.1-0.2-0.2-0.3-0.3-0.5c1-0.3,1.7-1.3,1.6-2.4c0-2.2-2-2.5-3.6-2.5
		c-0.4,0-0.8,0-1.2,0c-0.4,0-0.9,0-1.4,0h-0.2v9h1.9l0-3.7c0.2,0,0.5,0,0.7,0.1c0.5,0.1,0.9,0.8,1.1,1.2l0,0.1
		c0.2,0.4,0.5,0.8,0.7,1.2c0.2,0.4,0.4,0.7,0.6,1.1l0,0.1h2.1l-0.1-0.2C48.3,47.2,48,46.7,47.7,46.2z M45.9,41.6
		c0,0.9-0.7,1.3-2.1,1.3c-0.1,0-0.2,0-0.2,0h-0.1l0-2.5c0.4,0,0.7,0,1.1,0C45.5,40.4,45.9,40.8,45.9,41.6z"/>
	<polygon class="st1" points="53.6,42.7 51.5,39 49.3,39 52.6,44.4 52.6,48 54.5,48 54.5,44.4 57.9,39 55.7,39 	"/>
	<path class="st1" d="M59.7,45.5c-0.7,0-1.2,0.5-1.2,1.2c0,0.7,0.5,1.2,1.2,1.2c0,0,0,0,0,0c0.7,0,1.2-0.5,1.2-1.2
		C60.9,46,60.4,45.5,59.7,45.5z"/>
	<path class="st1" d="M70.3,46.3h-4.2c0.4-0.4,0.9-0.8,1.4-1.1c1.2-0.8,2.7-1.8,2.7-3.4c0-1.7-1.2-2.8-3.2-2.8c-1.1,0-2.1,0.4-3,1.2
		l-0.1,0.1l0.8,1.8l0.2-0.2c0.5-0.7,1.2-1.2,2.1-1.3c0.4,0,1.3,0.1,1.3,1.1c0,1-0.9,1.6-1.8,2.3c-0.2,0.1-0.3,0.2-0.5,0.4
		c-0.9,0.7-1.7,1.5-2.2,2.5l0,0l0,1h6.6L70.3,46.3z"/>
</g>
</svg>
