<?xml version="1.0" encoding="utf-8"?>
<!-- Generator: Adobe Illustrator 24.2.0, SVG Export Plug-In . SVG Version: 6.00 Build 0)  -->
<svg version="1.1" id="レイヤー_1" xmlns="http://www.w3.org/2000/svg" xmlns:xlink="http://www.w3.org/1999/xlink" x="0px"
	 y="0px" viewBox="0 0 82 66" style="enable-background:new 0 0 82 66;" xml:space="preserve">
<style type="text/css">
	.st0{fill:#D1B694;}
	.st1{fill:#FFFFFF;}
</style>
<g id="グループ_1225" transform="translate(-3369.25 -245.314)">
	<path id="パス_282" class="st0" d="M3442.3,273.8c-5.7-6.1-13.1-8.8-18.4-10.8c-6-2.2-9.1-4.3-10.4-8c-0.2-0.7-0.4-1.3-0.6-1.9
		c-0.1-0.2-0.1-0.4-0.2-0.6c-0.1-0.4-0.2-0.7-0.2-1.1c-0.1-0.2-0.1-0.4-0.1-0.7c-0.1-0.3-0.1-0.6-0.2-0.8c-0.1-0.4-0.1-0.7-0.2-1
		c0-0.2-0.1-0.3-0.1-0.4c0-0.2-0.1-0.4-0.1-0.6c0-0.1-0.1-0.2-0.1-0.3c0-0.1-0.1-0.3-0.1-0.4c0-0.1-0.1-0.2-0.1-0.2
		c-0.1-0.1-0.1-0.2-0.2-0.2c-0.1,0-0.1-0.1-0.2-0.1c-0.1-0.1-0.3-0.1-0.4-0.1c-1.6,0-1,5.4-3.9,9.3c-5.6,7.4-20,6.7-30,19.8
		c-9.7,12.7-6.4,23.3-3.7,30.4c0.1,0.2,0.2,0.3,0.3,0.4c0.1,0,0.1,0.1,0.2,0.1c0.1,0.1,0.3,0.2,0.4,0.3c0.1,0,0.1,0.1,0.2,0.1l0,0
		c0.6,0.3,1.3,0.5,2,0.7c4.8,1.4,14.6,2.6,24.5,2.6c15.5,0,26.8-0.7,33.1-2.7c6.2-1.9,14.8-5.6,15.9-9.8
		C3452.5,286,3446.5,278.4,3442.3,273.8z"/>
	<g>
		<path class="st1" d="M3385.3,288.4c-0.4-0.2-0.8-0.3-1.2-0.5c-0.2-0.1-0.3-0.1-0.5-0.2c-0.7-0.2-1.4-0.5-1.4-1.1
			c0-0.8,1.1-0.8,1.5-0.8c0.9,0,1.8,0.3,2.6,0.7l0.2,0.1l0.2-1.8l-0.1,0c-0.9-0.4-1.8-0.5-2.8-0.5c-1.7,0-3.4,0.8-3.4,2.5
			c0,1.6,1.5,2.1,2.9,2.6c0.2,0.1,0.4,0.2,0.6,0.2c0.8,0.3,1.4,0.6,1.4,1.2c0,0.7-0.5,1-1.6,1c-1.1,0-2.1-0.4-2.9-1.1l-0.2-0.2v2
			l0.1,0c0.9,0.5,2,0.7,3,0.7c1.7,0,3.6-0.3,3.6-2.6C3387.1,289.7,3386.4,288.7,3385.3,288.4z"/>
		<polygon class="st1" points="3388.9,286 3392,286 3392,293.3 3393.9,293.3 3393.9,286 3397,286 3397,284.4 3388.9,284.4 		"/>
		<path class="st1" d="M3403.1,284.3c-2.5,0-4.6,2-4.6,4.5c0,2.8,1.7,4.4,4.6,4.4c2.9,0,4.5-1.6,4.5-4.4
			C3407.6,286.4,3405.6,284.3,3403.1,284.3z M3405.6,288.7l0,0.2c0,1.3-0.4,2.9-2.6,2.9c-1.6,0-2.6-1.1-2.6-2.9c0-0.7,0.2-3,2.6-3v0
			c0.1,0,0.1,0,0.2,0C3404.7,286,3405.7,287.3,3405.6,288.7z"/>
		<path class="st1" d="M3416.3,291.5c-0.4-0.6-0.7-1.2-1.1-1.8c-0.1-0.2-0.2-0.3-0.3-0.5c1-0.3,1.7-1.3,1.6-2.4c0-2.2-2-2.5-3.6-2.5
			c-0.4,0-0.8,0-1.2,0c-0.4,0-0.9,0-1.4,0h-0.2v9h1.9l0-3.7c0.2,0,0.5,0,0.7,0.1c0.5,0.1,0.9,0.8,1.1,1.2l0,0.1
			c0.2,0.4,0.5,0.8,0.7,1.2c0.2,0.4,0.4,0.7,0.6,1.1l0,0.1h2.1l-0.1-0.2C3417,292.5,3416.7,292,3416.3,291.5z M3414.6,287
			c0,0.9-0.7,1.3-2.1,1.3c-0.1,0-0.2,0-0.2,0h-0.1l0-2.5c0.4,0,0.7,0,1.1,0C3414.1,285.7,3414.6,286.1,3414.6,287z"/>
		<polygon class="st1" points="3422.2,288 3420.2,284.3 3417.9,284.3 3421.2,289.7 3421.2,293.4 3423.1,293.4 3423.1,289.7 
			3426.5,284.3 3424.4,284.3 		"/>
		<path class="st1" d="M3428.4,290.8c-0.7,0-1.2,0.5-1.2,1.2s0.5,1.2,1.2,1.2c0,0,0,0,0,0c0.7,0,1.2-0.5,1.2-1.2
			C3429.6,291.3,3429,290.8,3428.4,290.8z"/>
		<path class="st1" d="M3437.4,289.8v-5.7h-1.9l-3.8,5.8v1.1h4.2v2.2h1.6v-2.2l1.4,0v-1.3H3437.4z M3435.8,289.8h-2.4l2.4-3.6V289.8
			z"/>
	</g>
</g>
</svg>
