<?xml version="1.0" encoding="utf-8"?>
<!-- Generator: Adobe Illustrator 24.2.0, SVG Export Plug-In . SVG Version: 6.00 Build 0)  -->
<svg version="1.1" id="レイヤー_1" xmlns="http://www.w3.org/2000/svg" xmlns:xlink="http://www.w3.org/1999/xlink" x="0px"
	 y="0px" viewBox="0 0 220 100" style="enable-background:new 0 0 220 100;" xml:space="preserve">
<style type="text/css">
	.st0{fill:#B11818;stroke:#B11818;stroke-width:0.6;stroke-linecap:round;stroke-linejoin:round;}
	.st1{fill:#B11818;stroke:#B11818;stroke-width:0.8;stroke-linecap:round;stroke-linejoin:round;}
	.st2{fill:#B11818;stroke:#B11818;stroke-linecap:round;stroke-linejoin:round;}
</style>
<g id="グループ_174" transform="translate(0.4 0.5)">
	<g id="グループ_156" transform="translate(93.318 39.728)">
		<g id="グループ_153">
			<path id="パス_198" class="st0" d="M7.4,0.7c-0.3,0-0.3,0.1-0.6,0.1S6.4,0.7,6.1,0.7c-0.2,0-0.4,0-0.6,0C5.3,0.8,5.1,0.9,4.9,1
				S4.5,1,4.3,1.1S4.1,1.5,3.9,1.6C3.8,1.7,3.6,1.8,3.5,2C3.4,2.1,3.1,2.2,3,2.4C2.9,2.6,2.9,2.8,2.8,3c-0.1,0.2,0,0.4,0,0.6
				c0,0.2,0,0.4,0,0.6c0,0.3-0.2,0.3-0.2,0.7s0,0.3,0,0.7S3,6.1,2.8,6.3s-0.4,0-0.7,0s-0.3,0-0.6,0C1.3,6.3,1,6.4,1,6.5
				c0,0.3,0.1,0.3,0.1,0.7s0,0.3,0,0.7c0,0.1,0.2,0.2,0.3,0.2c0.3,0,0.3,0.1,0.6,0.1S2.4,8,2.6,8.2s0.2,0.2,0.2,0.5S2.7,9.1,2.7,9.4
				S2.8,9.7,2.8,10s-0.1,0.3-0.1,0.6s0.1,0.3,0.1,0.6s0,0.3,0,0.6s-0.1,0.3-0.1,0.6s0,0.3,0,0.6s0.1,0.3,0.1,0.6s-0.1,0.3-0.1,0.6
				s0,0.3,0,0.6s0.2,0.3,0.2,0.6s0,0.3,0,0.6s-0.1,0.3-0.1,0.6s0,0.3,0,0.6s-0.1,0.3-0.1,0.6c0,0.2,0.2,0.4,0.3,0.5
				C3,18.9,3.2,18.9,3.4,19c0.5,0,0.5,0,0.9,0c0.2,0,0.3-0.2,0.5-0.3s0.1-0.3,0.1-0.5c0-0.3,0.3-0.3,0.3-0.6s0-0.3,0-0.6
				s0-0.3,0-0.6S5,16,5,15.7s0.1-0.3,0.1-0.6s-0.2-0.3-0.2-0.6s0-0.3,0-0.6s0.2-0.3,0.2-0.6S5,13,5,12.7s0-0.3,0-0.6
				s0.2-0.3,0.2-0.6s-0.1-0.3-0.1-0.6s0.1-0.3,0.1-0.6S5.1,9.9,5.1,9.6s0-0.3,0-0.6s0-0.3,0-0.6c0-0.1,0-0.1,0.1-0.1
				c0.4,0,0.4,0,0.7,0s0.4,0.1,0.7,0.1S7,8.1,7.4,8.1c0.1,0,0.4-0.1,0.4-0.2c0-0.3-0.1-0.3-0.1-0.7s0.2-0.3,0.2-0.7
				c0-0.2-0.2-0.3-0.4-0.4C7,6.1,7,6.2,6.6,6.2S6.3,6.2,5.9,6.2S5.6,6.2,5.2,6.2c-0.1,0,0,0,0-0.1c0-0.3-0.1-0.3-0.1-0.6
				S5,5.2,5,4.9s0.1-0.3,0.1-0.6c0-0.2,0-0.4,0.1-0.6c0-0.2,0.1-0.4,0.2-0.5C5.5,3,5.6,2.9,5.8,2.8C6,2.7,6.2,2.7,6.4,2.7
				c0.2,0,0.2,0.2,0.5,0.2s0.2-0.3,0.5-0.3c0.1,0,0.4,0,0.4-0.1c0-0.4-0.2-0.4-0.2-0.8S7.7,1.3,7.7,1C7.7,0.8,7.5,0.7,7.4,0.7z"/>
		</g>
		<g id="グループ_154" transform="translate(9.889 5.257)">
			<path id="パス_199" class="st0" d="M6.3,0.8c-0.2,0-0.5-0.2-0.7-0.1c-0.2,0-0.5,0.1-0.7,0.2C4.5,1,4.1,1.2,3.6,1.3
				C3.4,1.5,3.4,1.7,3.2,1.9S2.7,2,2.6,2.2C2.4,2.4,2.3,2.5,2.2,2.7C2.1,2.9,2,3,2,3.2C1.8,3.4,1.7,3.6,1.6,3.7
				c-0.1,0.2,0,0.4-0.1,0.6S1.4,4.7,1.3,4.9S1.2,5.3,1.2,5.5s0.1,0.4,0.1,0.6S1,6.5,1,6.7s0.2,0.4,0.2,0.6S1.1,7.7,1.2,7.9
				C1.2,8.1,1,8.3,1,8.5s0.1,0.4,0.1,0.6s0.2,0.4,0.2,0.6s0.1,0.4,0.2,0.6s0,0.4,0.1,0.6c0.1,0.2,0.2,0.4,0.2,0.6
				c0.1,0.2,0.3,0.2,0.5,0.4c0.1,0.2,0.2,0.3,0.4,0.5c0.2,0.2,0.3,0.3,0.5,0.4c0.2,0.1,0.3,0.4,0.5,0.5c0.2,0.1,0.4,0.2,0.7,0.2
				c0.2,0.1,0.4,0.1,0.7,0.2c0.2,0,0.5,0,0.7,0c0.2,0.1,0.4,0.1,0.7,0.1c0.2,0,0.5,0,0.7,0.1c0.2,0,0.4-0.3,0.6-0.4s0.5,0.1,0.7,0
				s0.4-0.3,0.6-0.4c0.2-0.1,0.4-0.2,0.6-0.3c0.2-0.1,0.3-0.4,0.4-0.5l0,0c0.1-0.1,0.4-0.2,0.5-0.4c0.1-0.2,0.2-0.3,0.3-0.5
				c0.1-0.2,0.1-0.4,0.2-0.6c0.1-0.2,0.2-0.3,0.3-0.5c0.1-0.2,0.2-0.4,0.2-0.6s-0.2-0.4-0.1-0.6s0.1-0.4,0.1-0.6s0.1-0.4,0.1-0.6
				c0-0.2,0-0.4,0-0.6s0.1-0.4,0.1-0.6s-0.1-0.4-0.1-0.6s0-0.4-0.1-0.6s0-0.4-0.1-0.6s-0.2-0.4-0.3-0.5C11,4.1,10.9,4,10.8,3.8
				c-0.1-0.2,0.1-0.5,0-0.7c-0.1-0.2-0.2-0.4-0.3-0.5c-0.1-0.2-0.3-0.3-0.4-0.4C9.9,2,9.6,2,9.4,1.9S9.1,1.5,8.9,1.4s-0.5,0-0.7-0.1
				C8,1.2,7.8,1.1,7.6,1C7.4,1,7.2,0.7,7,0.7C6.8,0.7,6.5,0.8,6.3,0.8z M6.3,11.7c-0.2,0-0.4-0.2-0.5-0.2c-0.2,0-0.4,0-0.5-0.1
				c-0.2-0.1-0.3-0.1-0.5-0.2c-0.1-0.1-0.3-0.2-0.4-0.4c-0.1-0.1-0.4-0.2-0.5-0.4S3.8,10,3.7,9.8C3.6,9.6,3.6,9.4,3.5,9.2
				c0-0.2-0.2-0.4-0.2-0.6s0.1-0.4,0-0.6c0-0.2-0.2-0.4-0.2-0.6s0.1-0.4,0.1-0.6S3.4,6.2,3.4,6S3.3,5.6,3.4,5.4S3.6,5,3.7,4.8
				s0-0.5,0.1-0.7C3.9,4,4,3.8,4.2,3.7c0.1-0.1,0.4-0.1,0.5-0.2c0.1-0.1,0.3-0.2,0.5-0.3c0.2-0.1,0.3-0.3,0.5-0.3
				c0.2,0,0.4-0.1,0.6-0.1C6.5,2.8,6.7,3,6.8,3C7,3,7.2,3.1,7.4,3.2c0.2,0.1,0.4,0,0.6,0.1c0.2,0.1,0.3,0.2,0.4,0.4
				C8.5,3.8,8.7,4,8.8,4.2c0.1,0.2,0,0.4,0.1,0.7C8.9,5,9,5.2,9,5.4c0,0.2,0.1,0.4,0.1,0.6s0.1,0.4,0.1,0.6S9.2,7.1,9.2,7.3
				S9.1,7.7,9.1,7.9c0,0.2,0.3,0.4,0.2,0.6S9.1,9,9,9.2c0,0.2,0,0.4,0,0.6c-0.1,0.2-0.2,0.4-0.3,0.5c-0.1,0.2-0.1,0.4-0.3,0.6
				c-0.1,0.1-0.3,0.2-0.5,0.3c-0.2,0.1-0.4,0.1-0.6,0.1c-0.2,0.1-0.3,0.1-0.5,0.2C6.7,11.6,6.5,11.7,6.3,11.7L6.3,11.7z"/>
		</g>
		<g id="グループ_155" transform="translate(25.034 5.278)">
			<path id="パス_200" class="st0" d="M9.5,1.6C9.3,1.4,9.1,1.3,9,1.2c-0.2-0.1-0.4,0-0.6-0.1C8.2,1,8,1,7.8,0.9
				C7.6,0.8,7.4,0.8,7.2,0.7c-0.2,0-0.4,0-0.6,0c-0.2,0-0.5,0-0.7,0C5.7,0.7,5.5,0.8,5.3,0.9C5,1,4.8,1,4.6,1.1
				C4.4,1.2,4.2,1.3,4,1.5C3.8,1.6,3.6,1.8,3.4,1.9C3.3,1.6,3.5,1.6,3.5,1.2c0-0.2-0.2-0.3-0.3-0.3C2.9,0.9,2.9,1,2.5,1S2.2,1,1.9,1
				c-0.2,0-0.4,0-0.5,0.1C1.2,1.2,1.3,1.4,1.3,1.6c0,0.3-0.1,0.3-0.1,0.6s0,0.3,0,0.6s0,0.3,0,0.6S1,3.8,1,4.1s0.1,0.3,0.1,0.6
				s0,0.3,0,0.6s0,0.3,0,0.6s0.2,0.3,0.2,0.6S1.1,6.9,1.1,7.3s0,0.3,0,0.6c0,0.3,0.1,0.3,0.1,0.6S1.1,8.8,1.1,9.1s0.1,0.3,0.1,0.6
				s-0.1,0.3-0.1,0.6S1.2,10.7,1.2,11s0.1,0.3,0.1,0.6S1.1,12,1.1,12.3s0.2,0.3,0.2,0.6c0,0.2,0,0.3,0.1,0.4s0.2,0.3,0.4,0.3
				c0.5,0,0.5,0,0.9,0c0.2,0,0.3-0.2,0.4-0.3c0.1-0.1,0.2-0.3,0.1-0.4c0-0.3,0.2-0.3,0.2-0.6s0-0.3,0-0.6S3.4,11.3,3.4,11
				s0-0.3,0-0.6s0-0.3,0-0.6s0.2-0.3,0.2-0.6S3.6,8.8,3.6,8.5s0-0.3,0-0.6c0-0.3-0.1-0.3-0.1-0.6s0.1-0.3,0.1-0.6s0.1-0.3,0.1-0.6
				c0-0.2-0.3-0.5-0.2-0.7c0-0.2,0.3-0.4,0.4-0.6c0-0.2,0.1-0.4,0.2-0.6C4,3.8,4.3,3.7,4.4,3.6s0.3-0.4,0.5-0.5
				C5.1,3,5.3,2.9,5.5,2.9c0.2,0,0.4,0,0.6,0.1c0.2,0,0.5,0,0.7,0c0.2,0,0.5,0.1,0.7,0.2C7.7,3.4,7.9,3.5,8,3.7c0,0,0.2,0.1,0.2,0.1
				V3.6c0.1,0,0.1,0,0.1,0c0.2-0.3,0.3-0.2,0.6-0.4l0.5-0.5c0.1-0.1,0.4-0.3,0.3-0.5C9.7,1.9,9.6,1.7,9.5,1.6z"/>
		</g>
	</g>
	<g id="グループ_167" transform="translate(0 74.29)">
		<g id="グループ_157" transform="translate(0 0.132)">
			<path id="パス_201" class="st1" d="M1.7,23.8c0.3,0,0.3-0.1,0.6-0.1s0.3-0.1,0.6-0.1s0.3,0.2,0.6,0.2s0.3-0.2,0.6-0.2
				s0.3,0.1,0.6,0.1s0.3,0.2,0.6,0.2s0.3-0.1,0.6-0.1s0.3,0.1,0.6,0.1s0.3-0.1,0.6-0.1s0.3,0,0.6,0s0.3,0.1,0.6,0.1s0.3-0.1,0.6-0.1
				s0.3-0.1,0.6-0.1s0.3,0.1,0.6,0.1s0.3,0,0.6,0s0.3,0.2,0.6,0.2s0.3-0.1,0.6-0.1s0.3-0.1,0.6-0.1s0.3,0.1,0.6,0.1s0.3-0.2,0.6-0.2
				s0.3,0.2,0.6,0.2c0.3,0,0.6-0.3,0.6-0.6c0-0.3-0.2-0.3-0.2-0.5s0.3-0.3,0.3-0.5s0-0.3,0-0.5s-0.3-0.4-0.6-0.4
				c-0.3,0-0.3-0.2-0.6-0.2s-0.3,0.2-0.6,0.2s-0.3,0-0.6,0s-0.3,0-0.6,0s-0.3-0.3-0.6-0.3s-0.3,0.2-0.6,0.2S11.1,21,10.8,21
				s-0.3,0-0.6,0s-0.3-0.1-0.6-0.1s-0.3,0.3-0.6,0.3s-0.3,0-0.6,0S8,20.9,7.7,20.9H7.1c-0.3,0-0.3,0.2-0.6,0.2S6.2,21,5.8,21
				s-0.3,0.2-0.6,0.2s-0.3-0.1-0.6-0.1c-0.3,0-0.6-0.2-0.6-0.6c0-0.3,0-0.3,0-0.7s0.3-0.3,0.3-0.7s0-0.3,0-0.7S4,18.3,4,17.9
				s0-0.3,0-0.7s0.1-0.3,0.1-0.6s0-0.3,0-0.7s0.1-0.3,0.1-0.7S4.1,15,4.1,14.7s0-0.3,0-0.7c0-0.2,0.1-0.4,0.4-0.5c0,0,0,0,0.1,0
				c0.3,0,0.3-0.1,0.6-0.1s0.3,0.1,0.6,0.1s0.3,0,0.6,0s0.3-0.1,0.6-0.1s0.3,0,0.6,0s0.3,0.1,0.6,0.1s0.3-0.1,0.6-0.1
				s0.3,0.1,0.6,0.1s0.3,0,0.6,0s0.3,0,0.6,0s0.3,0.2,0.6,0.2s0.3-0.1,0.6-0.1s0.3,0,0.6,0s0.3,0,0.6,0c0.3,0,0.4-0.3,0.4-0.6
				s0.1-0.3,0.1-0.5s0-0.3,0-0.5s-0.1-0.3-0.1-0.5c0-0.3-0.2-0.5-0.4-0.5c0,0,0,0,0,0c-0.3,0-0.3,0.1-0.6,0.1s-0.3-0.1-0.6-0.1
				s-0.3-0.1-0.6-0.1S11.2,11,10.9,11s-0.3-0.2-0.6-0.2S9.9,11,9.6,11S9.3,10.9,9,10.9s-0.3-0.2-0.6-0.2s-0.3,0-0.6,0
				s-0.3,0.1-0.6,0.1s-0.3,0-0.6,0s-0.3-0.2-0.6-0.2s-0.3,0-0.6,0s-0.3,0.2-0.6,0.2c-0.3,0-0.6-0.3-0.6-0.6C4,10,4,10,4,9.7
				s0.2-0.3,0.2-0.6S4.2,8.7,4.2,8.4s0-0.3,0-0.6S4,7.5,4,7.2s0.1-0.3,0.1-0.6s0.1-0.3,0.1-0.6S3.9,5.6,3.9,5.3s0.2-0.3,0.2-0.6
				S4,4.3,4,4c0-0.3,0.3-0.5,0.6-0.5c0.3,0,0.3-0.1,0.6-0.1s0.3,0,0.6,0s0.3,0.1,0.6,0.1s0.3,0,0.6,0s0.3-0.1,0.6-0.1S8,3.5,8.3,3.5
				s0.3,0,0.6,0s0.3-0.2,0.6-0.2s0.3,0,0.6,0s0.3,0.1,0.6,0.1h0.6c0.3,0,0.3,0.1,0.6,0.1s0.3-0.1,0.6-0.1s0.3,0,0.6,0s0.3,0,0.6,0
				s0.3-0.2,0.6-0.2s0.3-0.1,0.6-0.1c0.3,0,0.6-0.1,0.6-0.4s0-0.3,0-0.5s0-0.3,0-0.5s-0.2-0.3-0.2-0.5s-0.2-0.6-0.5-0.6
				c-0.3,0-0.3,0.2-0.6,0.2s-0.3,0-0.6,0s-0.3-0.2-0.6-0.2s-0.3,0.1-0.6,0.1s-0.3,0-0.6,0s-0.3-0.2-0.6-0.2s-0.3,0.1-0.6,0.1
				S10.3,0.7,10,0.7S9.7,0.8,9.3,0.8s-0.3,0-0.6,0s-0.3,0-0.6,0S7.8,0.8,7.4,0.8s-0.3,0-0.6,0S6.5,0.7,6.2,0.7S5.8,0.8,5.5,0.8
				S5.2,0.7,4.9,0.7S4.6,0.8,4.2,0.8S3.9,0.7,3.6,0.7s-0.3,0-0.6,0S2.6,0.8,2.3,0.8S2,0.7,1.7,0.7C1.4,0.7,1.1,1,1.1,1.3
				C1.1,1.6,1,1.6,1,1.9s0.1,0.3,0.1,0.6s0.1,0.3,0.1,0.6S1.1,3.5,1.1,3.8s0,0.3,0,0.6s0,0.3,0,0.6s0.1,0.3,0.1,0.6S1.3,6,1.3,6.3
				S1.1,6.6,1.1,6.9s0.3,0.3,0.3,0.6S1.1,7.9,1.1,8.2s0.2,0.3,0.2,0.6S1.1,9.1,1.1,9.4S1.3,9.7,1.3,10s0,0.3,0,0.6S1.1,11,1.1,11.3
				S1,11.6,1,11.9s0.2,0.3,0.2,0.6S1,12.9,1,13.2s0.2,0.3,0.2,0.6s-0.2,0.3-0.2,0.6s0,0.3,0,0.6s0.1,0.3,0.1,0.6s0.2,0.3,0.2,0.6
				s0,0.3,0,0.6s-0.1,0.3-0.1,0.6s0,0.3,0,0.6s-0.1,0.3-0.1,0.6s0.1,0.3,0.1,0.6s0.1,0.3,0.1,0.6s0,0.3,0,0.6S1.1,21,1.1,21.3
				s0,0.3,0,0.6s0.1,0.3,0.1,0.6S1,22.9,1,23.2C1.1,23.5,1.4,23.8,1.7,23.8z"/>
		</g>
		<g id="グループ_158" transform="translate(19.864 0.122)">
			<path id="パス_202" class="st1" d="M9.1,16.8c-0.1-0.3-0.2-0.3-0.3-0.6S8.6,16,8.5,15.7s0-0.3-0.1-0.6s-0.1-0.3-0.2-0.6
				s-0.2-0.3-0.3-0.6c-0.1-0.3-0.1-0.3-0.2-0.6s-0.1-0.3-0.2-0.6S7.5,12.3,7.4,12s0-0.3-0.1-0.6s-0.1-0.3-0.2-0.6s0-0.3-0.1-0.6
				S6.8,9.9,6.7,9.6s0-0.3-0.1-0.6S6.4,8.7,6.3,8.4s0.1-0.4,0-0.7S6,7.5,5.9,7.2s0.1-0.4,0-0.7S5.8,6.3,5.7,6S5.4,5.7,5.3,5.4
				s0.1-0.4,0-0.7S5.1,4.5,5,4.2S4.8,3.9,4.7,3.6s0.1-0.4,0-0.7S4.4,2.7,4.3,2.4s0-0.3-0.1-0.6s0.1-0.4,0-0.7
				C4.1,0.9,3.8,0.8,3.6,0.8c-0.3,0-0.3-0.1-0.7-0.1S2.6,0.8,2.2,0.8s-0.3,0-0.7,0c-0.2,0-0.4,0-0.5,0.1C1,1.1,1,1.3,1.1,1.5
				c0.1,0.3,0.2,0.3,0.3,0.6s0,0.3,0.1,0.6S1.6,3,1.7,3.3s0,0.4,0.1,0.7S1.9,4.2,2,4.5c0.1,0.3,0.2,0.3,0.3,0.6s0,0.3,0.1,0.6
				S2.7,6,2.8,6.3S2.7,6.7,2.8,7S2.9,7.3,3,7.6s0.3,0.2,0.4,0.5S3.2,8.5,3.3,8.8s0.1,0.3,0.2,0.6S3.9,9.6,4,9.9
				c0.1,0.3-0.1,0.4,0,0.7c0.1,0.3,0.3,0.2,0.4,0.5s0.1,0.3,0.2,0.6s0.1,0.3,0.2,0.6s-0.1,0.4,0,0.7s0.3,0.2,0.4,0.5s0,0.3,0.1,0.6
				s0.1,0.3,0.2,0.6s0,0.3,0.1,0.6S5.9,15.7,6,16s0.1,0.3,0.2,0.6S6,17,6.1,17.3s0.1,0.3,0.2,0.6s0.3,0.2,0.4,0.5s-0.1,0.4,0,0.7
				s0.3,0.2,0.4,0.5s0,0.3,0.1,0.6s0.2,0.3,0.3,0.6s0.1,0.3,0.2,0.6s-0.1,0.4,0,0.7s0.1,0.3,0.2,0.6c0.1,0.3,0.3,0.2,0.4,0.6
				c0,0.2,0.2,0.3,0.4,0.3c0.3,0,0.3,0.1,0.5,0.1s0.3,0,0.5,0s0.3,0.1,0.5,0.1c0.2,0,0.4-0.3,0.5-0.5c0.1-0.3,0.1-0.3,0.2-0.6
				s0.1-0.3,0.2-0.6s0-0.3,0.1-0.6s0.2-0.3,0.3-0.6s0.1-0.3,0.2-0.6s0-0.3,0.1-0.6s0.1-0.3,0.2-0.6s0.2-0.3,0.3-0.6s0-0.3,0.1-0.7
				s0.2-0.3,0.3-0.6s0.1-0.3,0.2-0.6s0.1-0.3,0.2-0.6s0.3-0.3,0.4-0.6s0-0.3,0.1-0.6s0.1-0.3,0.2-0.6s0.1-0.3,0.2-0.6
				s-0.1-0.4,0-0.7s0.2-0.3,0.3-0.6s0.1-0.3,0.2-0.6s0-0.3,0.1-0.6s0.2-0.3,0.3-0.6s0-0.4,0.1-0.7s0.2-0.3,0.3-0.6s0.2-0.3,0.3-0.6
				s0-0.3,0.1-0.7s0.3-0.3,0.4-0.6s-0.1-0.4,0-0.7s0.2-0.3,0.3-0.6s0.3-0.3,0.4-0.6s0.1-0.3,0.2-0.6s0-0.3,0.1-0.7s0.1-0.3,0.2-0.6
				s0.2-0.3,0.3-0.6s0.1-0.3,0.2-0.6s-0.1-0.4,0-0.7s0.1-0.3,0.2-0.6c0.1-0.1,0-0.3-0.1-0.4c-0.1-0.1-0.2-0.4-0.4-0.4
				c-0.3,0-0.3,0.1-0.7,0.1s-0.3,0-0.7,0s-0.3,0.1-0.7,0.1c-0.2,0-0.5,0.1-0.5,0.3c-0.1,0.3-0.2,0.3-0.3,0.6s0.2,0.4,0.1,0.7
				S14.5,2.7,14.4,3s0,0.3-0.1,0.6s-0.2,0.3-0.3,0.6s0,0.3-0.1,0.6s-0.1,0.3-0.2,0.6S13.5,5.7,13.4,6s-0.1,0.3-0.2,0.6
				s0,0.3-0.1,0.6S13,7.5,12.9,7.8s-0.1,0.3-0.2,0.6s0.1,0.4,0,0.7s-0.1,0.3-0.2,0.6s-0.2,0.3-0.3,0.6s-0.1,0.3-0.2,0.6
				s-0.2,0.3-0.3,0.6s0,0.3-0.1,0.6s-0.1,0.3-0.2,0.6s-0.1,0.3-0.2,0.6s0,0.3,0,0.6s0,0.3-0.1,0.6s-0.3,0.2-0.4,0.5
				s-0.1,0.3-0.2,0.6s-0.1,0.3-0.2,0.6s0,0.3,0,0.7c-0.1,0.2-0.3,0.3-0.5,0.3C9.4,17.1,9.2,17,9.1,16.8z"/>
		</g>
		<g id="グループ_159" transform="translate(43.573 0.122)">
			<path id="パス_203" class="st1" d="M1.7,23.6c0.3,0,0.3,0.2,0.6,0.2s0.3-0.2,0.6-0.2s0.3,0,0.6,0s0.3,0.2,0.6,0.2h0.6
				c0.3,0,0.3,0,0.6,0s0.3,0,0.6,0s0.3-0.2,0.6-0.2s0.3,0.2,0.6,0.2s0.3-0.2,0.6-0.2s0.3,0.2,0.6,0.2s0.3-0.1,0.6-0.1s0.3,0,0.6,0
				s0.3,0.1,0.6,0.1s0.3-0.2,0.6-0.2s0.3,0.1,0.6,0.1s0.3,0,0.6,0s0.3,0.1,0.6,0.1s0.3-0.1,0.6-0.1s0.3,0.1,0.6,0.1s0.3-0.1,0.6-0.1
				c0.3,0,0.4-0.2,0.4-0.5c0-0.3,0.1-0.3,0.1-0.5s0-0.3,0-0.5s0.1-0.3,0.1-0.5c0-0.3-0.3-0.5-0.6-0.5c-0.3,0-0.3,0.1-0.7,0.1
				S14.1,21,13.8,21s-0.3,0-0.6,0s-0.3,0.1-0.6,0.1s-0.3,0-0.6,0s-0.3,0-0.7,0s-0.3,0.1-0.7,0.1s-0.3-0.1-0.7-0.1s-0.3,0-0.7,0
				S8.9,21,8.5,21s-0.3,0.2-0.7,0.2S7.6,21,7.2,21s-0.3,0.1-0.7,0.1s-0.3-0.2-0.7-0.2s-0.3,0.2-0.7,0.2S4.9,21,4.6,21
				c-0.3,0-0.4-0.2-0.4-0.5c0-0.3-0.2-0.3-0.2-0.6s0.2-0.3,0.2-0.6s-0.1-0.3-0.1-0.6s-0.1-0.3-0.1-0.6s0.2-0.3,0.2-0.6
				S3.9,17,3.9,16.6S4,16.3,4,16s0.2-0.3,0.2-0.7S4.1,15,4.1,14.7s0.1-0.3,0.1-0.7c0-0.3,0.1-0.5,0.4-0.5c0.3,0,0.3,0,0.6,0
				s0.3,0.1,0.6,0.1s0.3-0.1,0.6-0.1s0.3-0.1,0.6-0.1s0.3,0.1,0.6,0.1s0.3,0,0.6,0s0.3,0.2,0.6,0.2s0.3-0.1,0.6-0.1s0.3-0.1,0.6-0.1
				s0.3,0.1,0.6,0.1s0.3-0.2,0.6-0.2s0.3,0.2,0.6,0.2s0.3,0,0.6,0s0.3-0.2,0.6-0.2c0.3,0,0.7-0.1,0.7-0.4c0-0.3,0-0.3,0-0.5
				s-0.2-0.3-0.2-0.5s0.2-0.3,0.2-0.5c0-0.3-0.3-0.4-0.6-0.4c-0.3,0-0.3,0-0.6,0s-0.3,0-0.6,0s-0.3-0.3-0.6-0.3s-0.3,0.2-0.6,0.2
				s-0.3-0.1-0.6-0.1s-0.3,0-0.6,0S9.3,10.7,9,10.7S8.7,11,8.4,11s-0.3,0-0.6,0s-0.3-0.2-0.6-0.2s-0.3,0-0.6,0S6.2,11,5.9,11
				s-0.3-0.2-0.6-0.2s-0.3,0.2-0.6,0.2c-0.3,0-0.6-0.3-0.6-0.6C4,10,4,10,4,9.7s0-0.3,0-0.6s0.3-0.3,0.3-0.6s0-0.3,0-0.6
				S4,7.5,4,7.2s0-0.3,0-0.6s0.1-0.3,0.1-0.6s0-0.3,0-0.6S4.2,5,4.2,4.6S4.1,4.3,4.1,4c0-0.2,0.2-0.5,0.4-0.5c0,0,0,0,0.1,0
				c0.3,0,0.3,0,0.7,0s0.3-0.1,0.7-0.1s0.3,0.1,0.6,0.1s0.3,0,0.6,0s0.3-0.1,0.6-0.1h0.7c0.3,0,0.3,0.1,0.7,0.1s0.3-0.1,0.7-0.1
				s0.3,0.1,0.7,0.1s0.3,0,0.7,0s0.3,0,0.7,0s0.3,0.2,0.7,0.2s0.3-0.1,0.7-0.1s0.3,0,0.7,0s0.3,0,0.7,0s0.3-0.2,0.7-0.2
				c0.3,0,0.6-0.2,0.6-0.4c0-0.3,0-0.3,0-0.5s-0.1-0.3-0.1-0.5s0.1-0.3,0.1-0.5c0-0.3-0.3-0.4-0.5-0.4c-0.3,0-0.3-0.1-0.6-0.1
				s-0.3-0.1-0.6-0.1s-0.3,0.1-0.6,0.1s-0.3-0.2-0.6-0.2S12.2,1,11.9,1s-0.3-0.1-0.6-0.1s-0.3-0.2-0.6-0.2s-0.3,0-0.6,0
				S9.7,0.9,9.3,0.9s-0.3,0-0.6,0S8.4,0.8,8.1,0.8s-0.3,0-0.6,0S7.1,0.9,6.8,0.9s-0.3,0-0.6,0s-0.3,0-0.6,0S5.2,0.7,4.9,0.7
				S4.6,0.7,4.3,0.7s-0.3,0-0.6,0S3.3,0.9,3,0.9S2.7,0.8,2.3,0.8S2,0.7,1.7,0.7c-0.3,0-0.4,0.4-0.4,0.7c0,0.3-0.2,0.3-0.2,0.6
				s0.1,0.3,0.1,0.6S1.1,3,1.1,3.3s0.1,0.3,0.1,0.6s0,0.3,0,0.6S1.1,4.9,1.1,5.2s0,0.3,0,0.6s0.1,0.3,0.1,0.6S1.1,6.8,1.1,7.1
				s0,0.3,0,0.6s0.2,0.3,0.2,0.6s0,0.3,0,0.6S1.2,9.4,1.2,9.7s0,0.3,0,0.6S1,10.7,1,11s0.1,0.3,0.1,0.6s0,0.3,0,0.6s0,0.3,0,0.6
				s0.2,0.3,0.2,0.6s0.1,0.3,0.1,0.6s-0.3,0.3-0.3,0.6s0,0.3,0,0.6s0,0.3,0,0.6s0.2,0.3,0.2,0.6s-0.1,0.3-0.1,0.6s0.2,0.3,0.2,0.6
				s0,0.3,0,0.6S1.1,19,1.1,19.3s0.1,0.3,0.1,0.6s0,0.3,0,0.6S1,20.9,1,21.3s0.1,0.3,0.1,0.6S1,22.2,1,22.6s0.1,0.3,0.1,0.6
				C1.1,23.5,1.4,23.6,1.7,23.6z"/>
		</g>
		<g id="グループ_160" transform="translate(66.249 0.134)">
			<path id="パス_204" class="st1" d="M16.8,7.3c0-0.2,0-0.4,0-0.6s0-0.4,0-0.6s-0.2-0.4-0.2-0.6c-0.1-0.2-0.1-0.4-0.2-0.6
				c-0.1-0.2,0-0.5-0.1-0.6S16,3.9,15.9,3.7c-0.1-0.2-0.3-0.3-0.4-0.5c-0.1-0.2-0.2-0.3-0.4-0.5c-0.1-0.1-0.3-0.3-0.5-0.4
				c-0.2-0.1-0.3-0.2-0.5-0.3c-0.2-0.1-0.3-0.3-0.5-0.4s-0.5,0-0.7-0.1s-0.3-0.4-0.5-0.4s-0.4,0-0.6,0s-0.4-0.3-0.6-0.3
				s-0.4,0.1-0.6,0.1S10.2,1,10,1C9.7,1,9.7,0.8,9.3,0.8S9,0.9,8.7,0.9S8.4,0.7,8.1,0.7C7.7,0.7,7.7,1,7.4,1s-0.3,0-0.6,0
				S6.4,0.8,6.1,0.8H5.5c-0.3,0-0.3,0-0.6,0s-0.3,0-0.6,0S3.9,1,3.6,1S3.2,0.7,2.9,0.7S2.6,0.9,2.3,0.9S1.9,0.7,1.6,0.7
				C1.3,0.7,1.1,1,1.1,1.3c0,0.3,0,0.3,0,0.6S1.1,2.2,1.1,2.6s0.2,0.3,0.2,0.6S1.2,3.5,1.2,3.8s0,0.3,0,0.6S1,4.7,1,5.1
				s0.1,0.3,0.1,0.6S1.1,6,1.1,6.3s0.1,0.3,0.1,0.6s0.1,0.3,0.1,0.6S1.2,7.9,1.2,8.2s0,0.3,0,0.6S1.1,9.1,1.1,9.4s0.1,0.3,0.1,0.6
				s0.1,0.3,0.1,0.6S1.1,11,1.1,11.3s0,0.3,0,0.6s0.1,0.3,0.1,0.6s0,0.3,0,0.6s0,0.3,0,0.6s0.1,0.3,0.1,0.6s-0.1,0.3-0.1,0.6
				s0,0.3,0,0.6S1.1,16,1.1,16.3s0.2,0.3,0.2,0.6s-0.1,0.3-0.1,0.6s0.1,0.3,0.1,0.6S1,18.5,1,18.8s0.2,0.3,0.2,0.6s-0.2,0.3-0.2,0.6
				s0,0.3,0,0.6s0.2,0.3,0.2,0.6S1.1,21.7,1.1,22s0.1,0.3,0.1,0.6s0.1,0.3,0.1,0.6c0,0.3,0.1,0.5,0.3,0.5c0.3,0,0.3-0.2,0.6-0.2
				s0.3,0.1,0.6,0.1s0.3,0.2,0.6,0.2c0.3,0,0.5-0.4,0.5-0.6c0-0.3,0.1-0.3,0.1-0.6S4,22.3,4,22s0-0.3,0-0.6s0.1-0.3,0.1-0.6
				S4,20.4,4,20S4,19.7,4,19.4s0.1-0.3,0.1-0.6s0-0.3,0-0.6s0.2-0.3,0.2-0.6s-0.1-0.3-0.1-0.6S4,16.5,4,16.2s0.1-0.3,0.1-0.6
				s-0.2-0.3-0.2-0.6s0.2-0.3,0.2-0.6c0-0.3,0.1-0.4,0.4-0.4c0.3,0,0.3-0.2,0.6-0.2s0.3,0.3,0.6,0.3s0.3,0,0.6,0s0.3-0.2,0.6-0.2
				s0.3,0.2,0.6,0.2s0.3-0.2,0.6-0.2c0.3,0,0.3,0,0.6,0c0.2,0,0.4,0.2,0.5,0.3c0.1,0.3-0.1,0.4,0.1,0.7s0.3,0.2,0.5,0.5
				s0,0.3,0.2,0.6s0.1,0.3,0.3,0.6s0.1,0.3,0.2,0.6s0.4,0.2,0.5,0.4s0.1,0.3,0.3,0.6s-0.1,0.4,0.1,0.7s0.1,0.3,0.3,0.6
				s0.4,0.2,0.5,0.4s0,0.4,0.1,0.6s0.3,0.2,0.5,0.5s0.1,0.3,0.2,0.6s0.2,0.2,0.4,0.5s0.1,0.3,0.3,0.6s-0.1,0.4,0.1,0.7
				s0.1,0.3,0.3,0.6c0.1,0.2,0.4,0.1,0.6,0.1c0.3,0,0.3,0,0.6,0s0.3,0.1,0.6,0.1s0.3,0,0.6,0s0.3,0.1,0.6,0.1c0.2,0,0.4-0.2,0.4-0.3
				c0.1-0.2,0.1-0.4,0.1-0.5c-0.1-0.3-0.2-0.3-0.3-0.5s-0.2-0.2-0.4-0.5s0-0.3-0.2-0.6S16.1,21,16,20.7s-0.2-0.2-0.4-0.5
				s-0.1-0.3-0.3-0.6s-0.1-0.3-0.2-0.6s-0.3-0.2-0.4-0.5s0-0.3-0.2-0.6s-0.1-0.3-0.3-0.6s-0.2-0.3-0.3-0.5s0-0.4-0.1-0.6
				s-0.2-0.2-0.4-0.5s-0.2-0.3-0.3-0.6s-0.1-0.3-0.3-0.6s-0.3-0.2-0.5-0.5s0.1-0.6,0.4-0.7c0.2-0.1,0.4-0.2,0.6-0.3s0.3-0.3,0.5-0.4
				c0.2-0.1,0.4-0.2,0.6-0.3c0.2-0.1,0.2-0.4,0.4-0.5c0.2-0.1,0.3-0.3,0.5-0.4c0.2-0.2,0.3-0.3,0.4-0.5c0.1-0.2,0.1-0.4,0.2-0.6
				s0.3-0.3,0.4-0.5s0-0.5,0-0.7c0.1-0.2,0.1-0.4,0.2-0.6c0-0.2,0.2-0.4,0.2-0.6S16.8,7.5,16.8,7.3z M4,4c0-0.3,0.3-0.5,0.5-0.5
				c0.3,0,0.3,0.1,0.7,0.1s0.3-0.1,0.7-0.1h0.6c0.3,0,0.3,0.2,0.6,0.2s0.3-0.1,0.7-0.1c0.3,0,0.3-0.1,0.7-0.1s0.3,0.1,0.7,0.1
				s0.3,0,0.7,0c0.2,0,0.4,0,0.7,0s0.4,0.2,0.6,0.2s0.5-0.1,0.7,0S12,4,12.2,4.1s0.5,0.1,0.6,0.2S13,4.8,13.1,5s0.4,0.3,0.5,0.5
				c0.1,0.2,0.2,0.4,0.3,0.6c0.1,0.2-0.1,0.5,0,0.7C14,6.9,14,7.1,14,7.3c0,0.2-0.2,0.4-0.2,0.6s0.2,0.5,0.1,0.7
				c-0.1,0.2-0.2,0.4-0.3,0.6c-0.1,0.2-0.3,0.3-0.5,0.5c-0.1,0.2-0.3,0.3-0.4,0.5c-0.2,0.1-0.3,0.2-0.5,0.3
				c-0.2,0.1-0.4,0.2-0.6,0.2c-0.2,0.1-0.3,0.4-0.6,0.4S10.6,11,10.4,11s-0.4,0.2-0.6,0.2c-0.3,0-0.3-0.2-0.7-0.2s-0.3,0.1-0.7,0.1
				s-0.3,0-0.7,0c-0.3,0-0.3-0.1-0.6-0.1s-0.3,0.2-0.7,0.2s-0.3-0.1-0.7-0.1s-0.3,0-0.7,0s-0.3-0.1-0.7-0.1c-0.3,0-0.5-0.1-0.5-0.4
				c0-0.3,0.1-0.3,0.1-0.6S4,9.7,4,9.4S3.9,9.1,3.9,8.8S4,8.5,4,8.2s0-0.3,0-0.6S4.1,7.3,4.1,7S4,6.7,4,6.4S3.9,6.1,3.9,5.8
				s0.1-0.3,0.1-0.6s0.1-0.3,0-0.6S4,4.3,4,4L4,4z"/>
		</g>
		<g id="グループ_161" transform="translate(87.796 0.122)">
			<path id="パス_205" class="st1" d="M8.8,10.7c-0.1-0.3-0.2-0.2-0.4-0.5s0-0.4-0.1-0.7S8.2,9.2,8.1,9C7.9,8.7,7.9,8.7,7.8,8.4
				S7.7,8.1,7.5,7.8S7.4,7.5,7.3,7.2S7,7,6.8,6.7S6.8,6.4,6.6,6.1S6.5,5.8,6.4,5.5S6.1,5.3,5.9,5S5.8,4.8,5.7,4.5S5.6,4.2,5.4,3.9
				S5.3,3.6,5.1,3.3S5.1,3,5,2.7S4.8,2.4,4.6,2.1S4.4,1.9,4.3,1.6S4.2,1.3,4,1c0-0.1-0.1-0.2-0.2-0.2C3.5,0.8,3.5,1,3.2,1
				S2.9,0.9,2.6,0.9s-0.3,0-0.6,0S1.6,0.8,1.3,0.8C1.1,0.8,1,0.9,1,1.1c0,0,0,0.1,0,0.1c0.1,0.3,0.1,0.3,0.3,0.6s0,0.4,0.1,0.6
				s0.3,0.2,0.4,0.5s0.2,0.3,0.3,0.5s0.1,0.3,0.2,0.6s0.2,0.3,0.3,0.6s0.2,0.3,0.3,0.5s0,0.3,0.2,0.6S3.6,6,3.7,6.3S3.7,6.6,3.8,6.9
				s0.3,0.2,0.4,0.5s0,0.4,0.1,0.7s0.3,0.2,0.4,0.5S5,8.8,5.2,9.1s0,0.4,0.1,0.6s0.3,0.2,0.4,0.5s0,0.4,0.1,0.7s0.4,0.2,0.5,0.5
				s0.1,0.3,0.3,0.6s0,0.4,0.1,0.6s0.1,0.3,0.3,0.6s0.1,0.3,0.3,0.6s0.1,0.3,0.3,0.6c0,0,0.3,0,0.3,0.1c0,0.3-0.2,0.3-0.2,0.6
				s0.2,0.3,0.2,0.6S7.5,16,7.5,16.3s0.1,0.3,0.1,0.6s0,0.3,0,0.6s-0.1,0.3-0.1,0.6s0.2,0.3,0.2,0.7s-0.1,0.3-0.1,0.6s0,0.3,0,0.6
				s-0.1,0.3-0.1,0.6s0.1,0.3,0.1,0.7s-0.1,0.3-0.1,0.7s0.1,0.3,0.1,0.7s0.1,0.3,0.1,0.7c0,0.2,0,0.2,0.2,0.2c0.3,0,0.3,0,0.6,0
				s0.3,0.1,0.6,0.1s0.3-0.1,0.6-0.1s0.3-0.1,0.6-0.1c0.2,0,0.3,0,0.3-0.2c0-0.3,0-0.3,0-0.6s-0.1-0.3-0.1-0.6s0-0.3,0-0.6
				s0-0.3,0-0.7s-0.1-0.3-0.1-0.6s0.1-0.3,0.1-0.6s0-0.3,0-0.7s0.1-0.3,0.1-0.6s-0.2-0.3-0.2-0.6s0.1-0.3,0.1-0.6s-0.1-0.3-0.1-0.7
				s0.2-0.3,0.2-0.7s-0.2-0.3-0.2-0.7s0.2-0.3,0.2-0.7c0,0,0,0,0-0.1c0.1-0.3-0.1-0.4,0.1-0.7s0.3-0.2,0.5-0.5s0.1-0.3,0.2-0.6
				s0-0.3,0.2-0.6s0.3-0.2,0.5-0.5s0-0.4,0.1-0.7s0.2-0.2,0.4-0.5s0.3-0.2,0.5-0.5s0-0.3,0.2-0.6s0.3-0.2,0.4-0.5s0-0.3,0.2-0.6
				s0.1-0.3,0.3-0.6s0.3-0.2,0.4-0.5s0.1-0.3,0.2-0.6s0.1-0.3,0.2-0.6s0.2-0.2,0.4-0.5s0.1-0.3,0.3-0.6s0.3-0.2,0.4-0.5
				s0.1-0.3,0.2-0.6s0.1-0.3,0.2-0.6s0.2-0.2,0.4-0.5S16.6,2,16.7,1.8s0.3-0.2,0.5-0.5c0.1-0.2-0.1-0.5-0.3-0.6c0,0,0,0,0,0
				c-0.3,0-0.3,0.2-0.6,0.2s-0.3-0.3-0.6-0.3s-0.3,0-0.6,0s-0.3,0.2-0.6,0.2c-0.1,0-0.3-0.1-0.3,0c-0.1,0.3,0.1,0.4-0.1,0.7
				s-0.2,0.3-0.3,0.6s-0.1,0.3-0.3,0.6S13,2.9,12.9,3.2s0.1,0.4-0.1,0.7s-0.3,0.2-0.4,0.5s-0.2,0.3-0.3,0.6s-0.2,0.3-0.3,0.5
				s0.1,0.4,0,0.7s-0.2,0.3-0.3,0.6s-0.3,0.2-0.5,0.5s-0.1,0.3-0.3,0.6s0.1,0.4-0.1,0.7s-0.3,0.2-0.5,0.5s0,0.4-0.1,0.7
				s-0.2,0.3-0.3,0.5s-0.1,0.3-0.2,0.6C9.4,10.9,8.9,10.9,8.8,10.7z"/>
		</g>
		<g id="グループ_162" transform="translate(117.655 0)">
			<path id="パス_206" class="st1" d="M17.3,17.2c0,0.2-0.1,0.4-0.1,0.6S17,18.2,17,18.4s-0.2,0.4-0.3,0.6s-0.1,0.4-0.2,0.6
				s-0.3,0.3-0.4,0.5s-0.1,0.5-0.2,0.6s-0.3,0.3-0.4,0.5s-0.2,0.4-0.3,0.6s-0.3,0.4-0.4,0.5s-0.5,0.1-0.7,0.2s-0.3,0.3-0.5,0.4
				s-0.4,0.2-0.5,0.3s-0.4,0.3-0.6,0.3s-0.4,0.1-0.6,0.2s-0.4,0.1-0.6,0.1s-0.4,0.2-0.6,0.2s-0.4-0.2-0.7-0.2s-0.4,0.1-0.6,0.1
				s-0.4,0.1-0.7,0.1s-0.4-0.2-0.6-0.3s-0.4-0.1-0.6-0.1s-0.4-0.1-0.6-0.2S6.2,23.4,6,23.4S5.6,23.1,5.5,23S5,23,4.8,22.9
				s-0.3-0.3-0.5-0.4S4,22.2,3.8,22.1s-0.4-0.2-0.6-0.3s-0.3-0.3-0.4-0.5s-0.2-0.4-0.4-0.6c-0.1-0.2-0.3-0.4-0.4-0.5
				c-0.1-0.2-0.1-0.5-0.1-0.7c-0.1-0.2-0.2-0.4-0.3-0.6c-0.1-0.2-0.2-0.4-0.2-0.6s0-0.4-0.1-0.7s0-0.4,0-0.7S1,16.6,1,16.3
				s0.1-0.4,0.1-0.7s0-0.4,0-0.7s0.1-0.4,0.1-0.7s-0.1-0.4-0.1-0.7s0-0.4,0-0.7s0.2-0.4,0.2-0.7S1.1,12,1.1,11.8S1,11.3,1,11.1
				s0.1-0.4,0.1-0.7s0-0.4,0-0.7s0-0.4,0-0.7s0.2-0.4,0.2-0.6S1.1,8,1.1,7.8s0.3-0.4,0.3-0.6s-0.1-0.5,0-0.7s0.3-0.4,0.4-0.6
				s0-0.5,0.1-0.7C1.8,5.1,1.9,4.9,2,4.6c0.1-0.2,0.4-0.3,0.5-0.5s0.2-0.4,0.3-0.6s0.4-0.2,0.6-0.3s0.1-0.5,0.3-0.6S4,2.4,4.2,2.2
				S4.7,2.1,4.8,2C5,1.9,5.2,1.8,5.4,1.7S5.8,1.5,6,1.4s0.4-0.1,0.6-0.2S7,0.9,7.2,0.8S7.7,1,7.9,0.9s0.4-0.2,0.6-0.3S9,0.9,9.2,0.9
				s0.4-0.1,0.6-0.1s0.4,0.1,0.6,0.1S10.9,1,11.1,1c0.2,0,0.5-0.1,0.7,0s0.4,0.2,0.6,0.3s0.4,0.2,0.6,0.3s0.3,0.3,0.5,0.4
				c0.2,0.1,0.4,0.2,0.6,0.3s0.3,0.3,0.5,0.4s0.4,0.2,0.5,0.4s0.4,0.2,0.5,0.4s0.2,0.4,0.3,0.6s0.2,0.4,0.3,0.6s0.1,0.4,0.2,0.6
				s0.3,0.3,0.4,0.5S17,6.1,17,6.4s0,0.5,0,0.7s0.1,0.4,0.1,0.6S17.2,8,17,8c-0.1,0-0.3,0-0.6,0c-0.2,0-0.4,0-0.6,0
				s-0.4,0.1-0.6,0.1c-0.2,0-0.4,0-0.6-0.1c-0.3,0-0.5-0.1-0.5-0.2c0-0.2,0-0.5,0-0.7s-0.3-0.4-0.4-0.6s-0.1-0.5-0.2-0.7
				s-0.4-0.3-0.5-0.5S13,4.9,12.8,4.8s-0.5-0.1-0.6-0.3S12,4.1,11.8,4c-0.2-0.1-0.4-0.2-0.6-0.3c-0.2-0.1-0.5,0.1-0.7,0
				s-0.4-0.3-0.6-0.3c-0.2,0-0.4,0-0.7,0.1C9,3.5,8.7,3.5,8.5,3.6C8.3,3.6,8,3.5,7.8,3.5S7.5,3.9,7.2,3.9C7,4,6.8,4.1,6.6,4.2
				C6.4,4.3,6.1,4.2,5.9,4.4S5.7,4.8,5.5,4.9S5.1,5.2,5,5.3S4.8,5.8,4.7,6C4.7,6.2,4.6,6.4,4.5,6.6C4.5,6.8,4.3,7,4.2,7.2
				c0,0.2,0,0.4,0,0.7c0,0.2,0,0.4,0,0.7c0,0.2-0.1,0.4-0.1,0.6c0,0.2,0,0.4,0,0.7c0,0.2-0.2,0.4-0.2,0.7c0,0.2,0,0.4,0,0.7
				c0,0.2,0.1,0.4,0.1,0.7c0,0.2-0.1,0.4-0.1,0.7s0.2,0.4,0.2,0.7c0,0.2-0.2,0.4-0.2,0.7c0,0.2,0,0.4,0,0.7c0,0.2,0.2,0.4,0.2,0.6
				c0,0.2-0.2,0.5-0.2,0.7c0,0.2,0.1,0.4,0.1,0.7c0,0.2,0.3,0.4,0.3,0.6c0,0.2-0.1,0.5-0.1,0.7c0,0.2,0.3,0.4,0.4,0.6
				c0.1,0.2,0.1,0.4,0.2,0.6C5,19,5.1,19.2,5.2,19.3c0.1,0.2,0.1,0.5,0.2,0.7s0.5,0.2,0.7,0.3s0.3,0.4,0.5,0.5
				C6.8,20.9,7,21,7.2,21.1c0.2,0.1,0.4,0.2,0.6,0.3c0.2,0.1,0.5-0.2,0.7-0.1c0.2,0,0.4,0.1,0.7,0.1c0.2,0,0.4,0.2,0.6,0.2
				c0.2,0,0.4-0.1,0.6-0.1c0.2,0,0.3-0.3,0.5-0.4s0.5,0,0.6-0.1s0.3-0.4,0.4-0.5c0.2-0.1,0.3-0.2,0.5-0.3c0.2-0.3,0.5-0.6,0.7-0.9
				c0.1-0.2,0.4-0.2,0.5-0.4s0.2-0.4,0.3-0.6s0-0.4,0-0.6s0.1-0.4,0.2-0.6c0.1-0.3,0.3-0.2,0.5-0.2c0.1,0,0.3,0,0.6,0
				c0.2,0,0.4,0.1,0.7,0.1c0.2,0,0.4-0.1,0.6-0.1C17,16.8,17.4,16.8,17.3,17.2z"/>
		</g>
		<g id="グループ_163" transform="translate(142.236 0.122)">
			<path id="パス_207" class="st1" d="M13.6,10.8c-0.3,0-0.3,0-0.6,0S12.6,11,12.3,11s-0.3-0.1-0.6-0.1s-0.3-0.2-0.6-0.2
				s-0.3,0.2-0.6,0.2s-0.3-0.2-0.6-0.2s-0.3,0-0.6,0s-0.3,0.1-0.6,0.1s-0.3,0.1-0.6,0.1H7.2c-0.3,0-0.3-0.2-0.6-0.2S6.3,11,6,11
				s-0.3,0-0.6,0S5,10.8,4.7,10.8S4,10.6,4,10.3s0.2-0.3,0.2-0.6V9C4.1,8.7,4,8.7,4,8.4s0.2-0.3,0.2-0.6s0-0.3,0-0.6s0-0.3,0-0.6
				S4.1,6.2,4.1,5.8s0-0.3,0-0.6S4.1,4.9,4.1,4.6s0-0.3,0-0.6S4,3.6,4,3.3S4,3,4,2.7S4,2.4,4,2s0.1-0.3,0.1-0.6
				c0-0.3-0.3-0.6-0.7-0.6c-0.3,0-0.3-0.1-0.6-0.1S2.6,0.8,2.3,0.8S2,0.8,1.8,0.8c-0.3,0-0.6,0.3-0.5,0.6c0,0.3,0.1,0.3,0.1,0.6
				S1,2.4,1,2.7S1.1,3,1.1,3.3s0,0.3,0,0.6s0.1,0.3,0.1,0.6s0,0.3,0,0.6S1.2,5.5,1.2,5.9s0.1,0.3,0.1,0.6S1.1,6.8,1.1,7.1
				s0.1,0.3,0.1,0.6s0.1,0.3,0.1,0.6S1.1,8.7,1.1,9.1s0,0.3,0,0.6s0,0.3,0,0.6s0,0.3,0,0.6S1,11.3,1,11.6s0.2,0.3,0.2,0.6
				s-0.1,0.3-0.1,0.6s0,0.3,0,0.6s0.2,0.3,0.2,0.6s0,0.3,0,0.6s-0.1,0.3-0.1,0.6s0,0.3,0,0.6s-0.2,0.3-0.2,0.6s0.1,0.3,0.1,0.6
				s0.1,0.3,0.1,0.6s0,0.3,0,0.6S1.1,19,1.1,19.3s0.2,0.3,0.2,0.6s-0.1,0.3-0.1,0.6s0,0.3,0,0.6s-0.1,0.3-0.1,0.6s0.1,0.3,0.1,0.6
				s0,0.3,0,0.6s0.2,0.7,0.6,0.7c0.3,0,0.3-0.1,0.6-0.1s0.3-0.1,0.6-0.1s0.3,0.1,0.6,0.1c0.3,0,0.6-0.2,0.6-0.6c0,0,0,0,0,0
				c0-0.3,0-0.3,0-0.6s0.1-0.3,0.1-0.6s-0.2-0.3-0.2-0.6s0.2-0.3,0.2-0.6S4,20.2,4,19.9s0.2-0.3,0.2-0.6s-0.2-0.3-0.2-0.6
				S3.9,18.3,3.9,18s0.2-0.3,0.2-0.6S4,17,4,16.7s0.2-0.3,0.2-0.6s-0.2-0.3-0.2-0.6s0-0.3,0-0.7s0.2-0.3,0.2-0.7
				c0-0.3,0.2-0.5,0.5-0.5c0,0,0,0,0.1,0c0.3,0,0.3,0,0.6,0s0.3,0,0.6,0s0.3-0.2,0.6-0.2s0.3,0.2,0.6,0.2s0.3-0.2,0.6-0.2
				c0.3,0,0.3,0.2,0.6,0.2s0.3-0.1,0.6-0.1s0.3,0,0.6,0s0.3,0.1,0.6,0.1s0.3-0.2,0.6-0.2s0.3,0.1,0.6,0.1s0.3,0,0.6,0
				s0.3,0.1,0.6,0.1s0.3-0.1,0.6-0.1c0.3,0,0.5,0.2,0.5,0.5c0,0,0,0,0,0c0,0.3,0.1,0.3,0.1,0.6s0.1,0.3,0.1,0.6s-0.1,0.3-0.1,0.6
				s0,0.3,0,0.6s-0.1,0.3-0.1,0.6s0.1,0.3,0.1,0.6s0.1,0.3,0.1,0.6s-0.1,0.3-0.1,0.6s0,0.3,0,0.6s0.1,0.3,0.1,0.6s0,0.3,0,0.6
				s0,0.3,0,0.6s0.1,0.3,0.1,0.7s-0.1,0.3-0.1,0.7c0,0.3,0.2,0.5,0.5,0.5c0,0,0,0,0.1,0c0.3,0,0.3,0.1,0.6,0.1s0.3-0.2,0.6-0.2
				s0.3,0.1,0.6,0.1c0.3,0,0.5-0.3,0.5-0.7s0.2-0.3,0.2-0.6S17,22.2,17,21.9s0.2-0.3,0.2-0.6s0-0.3,0-0.6S17,20.3,17,19.9
				s0.2-0.3,0.2-0.6s-0.1-0.3-0.1-0.6S17,18.4,17,18s0.2-0.3,0.2-0.6S17,17.1,17,16.8s0.1-0.3,0.1-0.6s0.2-0.3,0.2-0.6
				s-0.1-0.3-0.1-0.6s0.1-0.3,0.1-0.6s-0.1-0.3-0.1-0.6s0-0.3,0-0.6s0.1-0.3,0.1-0.6s-0.1-0.3-0.1-0.6S17,11.3,17,11
				s0.1-0.3,0.1-0.6s0-0.3,0-0.6s0.2-0.3,0.2-0.6s-0.1-0.3-0.1-0.6s-0.1-0.3-0.1-0.6s0.1-0.3,0.1-0.6S17,6.9,17,6.5s0.2-0.3,0.2-0.6
				s0-0.3,0-0.6S17,4.9,17,4.6s0.3-0.3,0.3-0.6s0-0.3,0-0.6S17,3,17,2.7s0.2-0.3,0.2-0.6s-0.2-0.3-0.2-0.6s-0.1-0.5-0.4-0.5
				c-0.3,0-0.3,0-0.6,0s-0.3-0.3-0.6-0.3s-0.3,0.2-0.6,0.2c-0.3,0-0.6,0.2-0.6,0.5s0,0.3,0,0.6S14,2.3,14,2.7s0.3,0.3,0.3,0.6
				s0,0.3,0,0.6S14,4.2,14,4.5s0,0.3,0,0.6s0.2,0.3,0.2,0.6s-0.2,0.3-0.2,0.6s0.2,0.3,0.2,0.6s-0.1,0.3-0.1,0.6s0.1,0.3,0.1,0.6
				s0,0.3,0,0.6S14,9.3,14,9.6s0,0.3,0,0.6S13.9,10.8,13.6,10.8z"/>
		</g>
		<g id="グループ_164" transform="translate(167.892 0.122)">
			<path id="パス_208" class="st1" d="M1.7,23.6c0.3,0,0.3,0.2,0.6,0.2s0.3-0.1,0.6-0.1s0.3-0.1,0.6-0.1c0.3,0,0.5-0.2,0.5-0.4
				c0,0,0,0,0-0.1c0-0.3-0.1-0.3-0.1-0.6S4,22.2,4,21.9s0.1-0.3,0.1-0.6s0.1-0.3,0.1-0.6s0-0.3,0-0.6s-0.1-0.3-0.1-0.6s0-0.3,0-0.6
				s-0.2-0.3-0.2-0.6s0.1-0.3,0.1-0.6s0.2-0.3,0.2-0.6S4,16.5,4,16.1s0.2-0.3,0.2-0.6s0-0.3,0-0.6s-0.1-0.3-0.1-0.6S4,13.9,4,13.6
				v-0.6c0-0.3,0.2-0.3,0.2-0.6S4,12,4,11.7s0-0.3,0-0.6s0.2-0.3,0.2-0.6S4,10,4,9.7s0.2-0.3,0.2-0.6s0-0.3,0-0.6S4,8.1,4,7.8
				s0.2-0.3,0.2-0.6s0-0.3,0-0.6s0-0.3,0-0.6S4.1,5.6,4.1,5.2s0-0.3,0-0.6S4.1,4.3,4.1,4s0-0.3,0-0.6S4,3,4,2.7S4,2.3,4,2
				S4,1.7,4,1.4c0-0.3-0.2-0.6-0.5-0.6c-0.3,0-0.3,0-0.6,0S2.6,0.7,2.3,0.7S2,0.8,1.7,0.8c-0.3,0-0.6,0.2-0.6,0.5
				c0,0.3,0.1,0.3,0.1,0.6s0.1,0.3,0.1,0.6S1,3,1,3.3s0.1,0.3,0.1,0.6s0,0.3,0,0.6s0.1,0.3,0.1,0.6s0,0.3,0,0.6S1.2,6.2,1.2,6.5
				s0.1,0.3,0.1,0.6S1.1,7.4,1.1,7.8s0.1,0.3,0.1,0.6S1.3,8.7,1.3,9S1.1,9.4,1.1,9.7s0,0.3,0,0.6s0,0.3,0,0.6s0,0.3,0,0.6
				S1,11.9,1,12.3s0.2,0.3,0.2,0.6s-0.1,0.3-0.1,0.6s0,0.3,0,0.6s0.2,0.3,0.2,0.6s0,0.3,0,0.6s-0.1,0.3-0.1,0.6s0,0.3,0,0.6
				s-0.2,0.3-0.2,0.6s0.1,0.3,0.1,0.6s0.1,0.3,0.1,0.6s0,0.3,0,0.6S1.2,19.6,1.2,20s0.2,0.3,0.2,0.6s-0.1,0.3-0.1,0.6s0,0.3,0,0.6
				s-0.1,0.3-0.1,0.6s0.1,0.3,0.1,0.6C1.2,23.5,1.4,23.6,1.7,23.6z"/>
		</g>
		<g id="グループ_165" transform="translate(180.525 0.178)">
			<path id="パス_209" class="st1" d="M3.5,0.7c-0.3,0-0.3,0-0.6,0s-0.3,0-0.6,0S2,0.8,1.7,0.8S1.3,1,1.3,1.3
				c0,0.3-0.1,0.3-0.1,0.6s0,0.3,0,0.6s0.1,0.3,0.1,0.6S1.1,3.5,1.1,3.9s0.2,0.3,0.2,0.6S1.1,4.8,1.1,5.1s0.2,0.3,0.2,0.6
				S1,6.1,1,6.4s0.3,0.3,0.3,0.6s0,0.3,0,0.6S1.1,8,1.1,8.3S1.1,8.7,1.1,9s0.1,0.3,0.1,0.6s0,0.3,0,0.6s0.1,0.3,0.1,0.6
				s-0.1,0.3-0.1,0.6s-0.1,0.3-0.1,0.6S1,12.5,1,12.8s0,0.3,0,0.6s0.1,0.3,0.1,0.6s0,0.3,0,0.6s0.2,0.3,0.2,0.6S1.2,15.7,1.2,16
				S1,16.4,1,16.7s0.2,0.3,0.2,0.6S1,17.6,1,18s0,0.3,0,0.6s0.1,0.3,0.1,0.6s0.1,0.3,0.1,0.6s0,0.3,0,0.6S1,20.9,1,21.2
				s0.2,0.3,0.2,0.6s0,0.3,0,0.6s-0.2,0.3-0.2,0.6c0,0.3,0.3,0.4,0.6,0.4c0.3,0,0.3,0.2,0.6,0.2H3c0.3,0,0.3-0.1,0.6-0.1
				s0.3,0.2,0.6,0.2s0.3,0,0.6,0s0.3,0,0.6,0s0.3-0.1,0.6-0.1s0.3,0,0.6,0s0.3-0.1,0.6-0.1s0.3,0,0.6,0s0.3-0.1,0.6-0.1s0.3,0,0.6,0
				s0.3,0.1,0.6,0.1s0.3,0.1,0.6,0.1s0.3,0,0.6,0s0.3,0.1,0.6,0.1s0.3-0.2,0.6-0.2s0.3,0.1,0.6,0.1s0.3-0.1,0.6-0.1s0.3-0.1,0.6-0.1
				s0.3,0.3,0.6,0.3c0.3-0.1,0.6-0.3,0.6-0.7c0-0.3,0-0.3,0-0.5s-0.1-0.3-0.1-0.5s0-0.3,0-0.5c0-0.3-0.2-0.5-0.4-0.5c0,0,0,0-0.1,0
				c-0.3,0-0.3,0.1-0.6,0.1s-0.3-0.2-0.6-0.2S13.4,21,13,21s-0.3,0.1-0.6,0.1s-0.3-0.2-0.6-0.2s-0.3,0-0.6,0s-0.3,0-0.6,0H9.8
				c-0.3,0-0.3-0.1-0.6-0.1s-0.3,0.2-0.6,0.2S8.2,21,7.9,21s-0.3,0-0.6,0s-0.3,0.2-0.6,0.2s-0.3,0-0.6,0s-0.3-0.1-0.7-0.1
				s-0.3,0-0.7,0c-0.3,0-0.5-0.4-0.5-0.7c0-0.3-0.1-0.3-0.1-0.6S4,19.5,4,19.2s0-0.3,0-0.6s0.1-0.3,0.1-0.6s-0.2-0.3-0.2-0.6
				S4,17,4,16.6s0-0.3,0-0.6s0.1-0.3,0.1-0.6S4.1,15,4.1,14.7s0-0.3,0-0.6s0.2-0.3,0.2-0.6s-0.1-0.3-0.1-0.6S4,12.5,4,12.2
				s0.1-0.3,0.1-0.6s0-0.3,0-0.6s0-0.3,0-0.6s0.1-0.3,0.1-0.6S3.9,9.3,3.9,9s0.2-0.3,0.2-0.6S4,8,4,7.7s0.2-0.3,0.2-0.6S4,6.8,4,6.4
				S3.9,6.1,3.9,5.8s0.2-0.3,0.2-0.6S4,4.8,4,4.5s0.2-0.3,0.2-0.6S3.9,3.6,3.9,3.2s0-0.3,0-0.6s0.2-0.3,0.2-0.6s0-0.3,0-0.6
				C4.1,1,3.9,0.7,3.5,0.7z"/>
		</g>
		<g id="グループ_166" transform="translate(200.902 0.178)">
			<path id="パス_210" class="st1" d="M14.9,2.9c-0.2-0.2-0.2-0.4-0.4-0.6S14.1,2.2,14,2.1s-0.3-0.3-0.5-0.4s-0.4-0.2-0.6-0.3
				s-0.4,0-0.7-0.1s-0.4,0-0.6-0.1S11.2,1,11,1c-0.2,0-0.4-0.1-0.6-0.1S10,0.7,9.7,0.7s-0.4,0-0.6,0c-0.3,0-0.3,0.2-0.7,0.2
				S8.1,0.7,7.8,0.7s-0.3,0-0.7,0s-0.3,0-0.7,0S6.1,0.8,5.8,0.8S5.5,0.9,5.2,0.9S4.8,0.8,4.5,0.8H3.8c-0.3,0-0.3,0.1-0.7,0.1
				S2.9,0.7,2.5,0.7S2.2,0.9,1.9,0.9c-0.2,0-0.4-0.1-0.5,0.1S1.3,1.3,1.3,1.5C1.3,1.8,1,1.8,1,2.1s0.3,0.3,0.3,0.6s0,0.3,0,0.6
				S1.1,3.7,1.1,4s0.1,0.3,0.1,0.6s0.1,0.3,0.1,0.6s0,0.3,0,0.6s0.1,0.3,0.1,0.6S1.2,6.8,1.2,7.1S1.1,7.5,1.1,7.8S1,8.1,1,8.4
				S1,8.7,1,9s0.1,0.3,0.1,0.6s0,0.3,0,0.6s0.2,0.3,0.2,0.6s-0.1,0.3-0.1,0.6S1,11.9,1,12.2s0.2,0.3,0.2,0.6S1,13.2,1,13.5
				s0,0.3,0,0.6s0.1,0.3,0.1,0.6s0.1,0.3,0.1,0.6V16c0,0.3-0.2,0.3-0.2,0.6s0.2,0.3,0.2,0.6s0,0.3,0,0.6s-0.2,0.3-0.2,0.6
				s0.2,0.3,0.2,0.6s-0.2,0.3-0.2,0.6v0.6c0,0.3,0.1,0.3,0.1,0.6S1,21.4,1,21.7s0,0.3,0,0.6s0,0.3,0,0.6c0,0.2,0.1,0.4,0.3,0.5
				c0.1,0.1,0.3,0.2,0.5,0.3c0.3,0,0.3-0.1,0.7-0.1s0.3,0,0.7,0s0.3-0.1,0.7-0.1s0.3,0,0.7,0s0.3,0.1,0.7,0.1s0.3,0.1,0.7,0.1
				s0.3,0,0.7,0s0.3,0.1,0.7,0.1s0.3-0.2,0.7-0.2s0.3,0.1,0.7,0.1s0.3-0.1,0.7-0.1c0.2,0,0.4-0.1,0.6-0.1s0.5,0.2,0.7,0.2
				s0.4-0.1,0.6-0.2s0.4-0.1,0.6-0.2s0.4-0.2,0.6-0.3s0.4-0.1,0.6-0.2s0.4-0.1,0.6-0.2s0.3-0.3,0.5-0.4s0.5-0.1,0.7-0.2
				s0.2-0.4,0.4-0.5c0.1-0.2,0.2-0.4,0.3-0.5c0.1-0.2,0.4-0.2,0.5-0.4s0.2-0.4,0.3-0.6s0.2-0.4,0.3-0.6s0.2-0.4,0.2-0.6
				s0.2-0.4,0.2-0.6s-0.1-0.5,0-0.7s0.2-0.4,0.2-0.6s0.1-0.4,0.1-0.6S17,15.8,17,15.6s0-0.4,0-0.6s0.1-0.4,0.1-0.6s0-0.4,0-0.6
				s0.2-0.4,0.2-0.6s-0.1-0.4-0.1-0.6c0-0.2-0.1-0.2-0.1-0.5s0-0.2,0-0.5s0.1-0.4,0.1-0.7s-0.2-0.4-0.2-0.7s0.1-0.4,0.1-0.7
				s0-0.4,0-0.7s0-0.4,0-0.7S17,7.8,17,7.6S16.9,7.2,16.9,7s0.1-0.5,0-0.7s-0.3-0.4-0.3-0.6s-0.2-0.4-0.3-0.6s-0.1-0.4-0.2-0.6
				s-0.2-0.4-0.3-0.6c-0.1-0.2-0.3-0.3-0.4-0.5C15.2,3.3,15.1,3.1,14.9,2.9z M4,4.1c0-0.2,0.2-0.3,0.4-0.4s0.2-0.3,0.4-0.3
				c0.3,0,0.3,0.1,0.6,0.1s0.3,0,0.6,0s0.3-0.1,0.7-0.1s0.3-0.1,0.7-0.1S7.7,3.4,8,3.4s0.3,0,0.7,0c0.2,0,0.4,0.1,0.7,0.1
				s0.4,0,0.7,0.1s0.5-0.1,0.7-0.1s0.4,0.3,0.6,0.4c0.2,0.1,0.4,0.2,0.6,0.3c0.2,0.1,0.4,0.2,0.5,0.4c0.2,0.1,0.4,0.2,0.6,0.3
				c0.2,0.1,0.3,0.3,0.5,0.4c0.1,0.2,0.2,0.4,0.2,0.6c0.1,0.2,0.2,0.4,0.2,0.6c0.1,0.2,0.2,0.4,0.2,0.6s-0.1,0.4,0,0.7
				s0.3,0.4,0.3,0.6s-0.1,0.4-0.1,0.6s0.2,0.4,0.2,0.6s-0.2,0.4-0.2,0.6s0.3,0.4,0.3,0.6s0,0.4,0,0.6c0,0.3-0.2,0.3-0.2,0.6
				c0,0.2,0.1,0.4,0.1,0.6s0.1,0.4,0.1,0.6s0,0.4-0.1,0.6s0.1,0.4,0.1,0.6s-0.1,0.4-0.1,0.6s-0.1,0.4-0.2,0.6S14,16.4,14,16.6
				s-0.1,0.4-0.1,0.6s0,0.4-0.1,0.6c-0.1,0.2-0.1,0.4-0.2,0.6c-0.1,0.2,0,0.5-0.1,0.6s-0.3,0.3-0.5,0.4s-0.4,0.2-0.6,0.3
				s-0.2,0.4-0.4,0.5s-0.5,0-0.7,0.1c-0.2,0.1-0.4,0.2-0.6,0.2c-0.2,0.1-0.4,0.2-0.6,0.2c-0.2,0-0.4,0.2-0.6,0.2s-0.4,0-0.7,0
				c-0.3,0-0.3-0.2-0.6-0.2s-0.3,0.2-0.6,0.2s-0.3,0-0.7,0s-0.3-0.2-0.7-0.2s-0.3,0.2-0.7,0.2s-0.3-0.2-0.7-0.2
				c-0.2,0-0.3-0.1-0.4-0.2C4.2,20.6,4,20.5,4,20.3C4,20,4.2,20,4.2,19.7s0-0.3,0-0.6s0-0.3,0-0.6s-0.1-0.3-0.1-0.6s0-0.3,0-0.6
				s-0.1-0.3-0.1-0.6s0-0.3,0-0.6S4,15.6,4,15.3s0-0.3,0-0.6S4,14.4,4,14.1s0.1-0.3,0.1-0.6s0-0.3,0-0.6s0.1-0.3,0.1-0.6
				s-0.2-0.3-0.2-0.6s0.1-0.3,0.1-0.6S4,10.7,4,10.4S4,10,4,9.7s0.3-0.3,0.3-0.6S4.1,8.8,4.1,8.5s0-0.3,0-0.6S4,7.6,4,7.2
				s0-0.3,0-0.6S4.1,6.3,4.1,6S4,5.7,4,5.4s0.3-0.3,0.2-0.6S4,4.4,4,4.1z"/>
		</g>
	</g>
	<g id="グループ_173" transform="translate(29.054)">
		<g id="グループ_168">
			<path id="パス_211" class="st2" d="M13.9,13.4c-0.3,0-0.3,0-0.5,0c-0.2,0-0.4-0.1-0.6-0.1s-0.1,0.4-0.2,0.6s-0.4,0.3-0.4,0.5
				c0,0.3,0.4,0.3,0.4,0.5c0,0.2-0.1,0.3,0,0.5s0.1,0.4,0.3,0.5c0.2,0.1,0.4,0.1,0.6,0c0.3,0,0.3,0.1,0.5,0.1l0.1,0
				c0.3,0,0.3-0.4,0.5-0.4s0.3,0.3,0.5,0.3s0.3-0.1,0.5-0.1s0.3-0.3,0.5-0.3c0.2,0,0.2,0.4,0.3,0.5s0.5,0.2,0.5,0.3
				c0,0.3-0.3,0.3-0.3,0.6s0.1,0.3,0.1,0.6c0,0.2,0,0.3-0.1,0.5s-0.1,0.3-0.1,0.5s0.2,0.4,0.1,0.5s0,0.4,0,0.5s-0.5,0.2-0.5,0.4
				s0,0.3,0,0.5s0.1,0.4,0,0.5s-0.4,0.1-0.5,0.3s0,0.4-0.1,0.5s-0.1,0.4-0.2,0.5s-0.3,0.2-0.4,0.3s-0.1,0.4-0.3,0.5
				s-0.3,0.2-0.4,0.3s-0.5-0.1-0.6,0s-0.2,0.3-0.4,0.4s-0.3,0.2-0.4,0.3s-0.4,0-0.5,0s-0.3,0.2-0.5,0.2s-0.3-0.1-0.5-0.1
				s-0.3,0-0.5,0s-0.3,0.2-0.5,0.2c-0.2,0-0.4-0.1-0.5-0.1s-0.4,0-0.5,0s-0.3-0.1-0.5-0.1s-0.3-0.2-0.5-0.2s-0.5,0.2-0.6,0.1
				S7.3,24,7.1,24s-0.2-0.3-0.4-0.4s-0.4-0.1-0.6-0.2S6.1,22.9,6,22.8s-0.4-0.1-0.5-0.2s-0.3-0.2-0.4-0.4s-0.3-0.3-0.4-0.4
				s0-0.4,0-0.6s0-0.3-0.1-0.5s-0.2-0.3-0.3-0.5s0-0.3,0-0.5s-0.3-0.3-0.3-0.5s0.2-0.4,0.2-0.5s0.1-0.3,0.1-0.5S4,17.9,4,17.7
				c0-0.2,0.3-0.3,0.3-0.5s0-0.3,0-0.5S4,16.3,4,16.2s0.1-0.3,0.1-0.5s0-0.3,0-0.5s0-0.3,0-0.5s-0.3-0.3-0.3-0.5s0-0.3,0-0.5
				s0.2-0.3,0.2-0.5s0.2-0.3,0.2-0.5S3.9,12.2,3.9,12S4,11.7,4,11.5s0.1-0.3,0.1-0.5s0.2-0.3,0.2-0.5S4.2,10.1,4.2,10
				s0.2-0.3,0.2-0.5S4,9.1,4.1,8.9s0.4-0.3,0.4-0.5S4.6,8.1,4.6,8S4.3,7.6,4.4,7.4S4.7,7.1,4.8,7C4.8,6.8,4.9,6.7,5,6.5
				c0.1-0.2,0.1-0.3,0.2-0.5C5.4,6,5.5,5.8,5.6,5.7c0.1-0.1,0.2-0.3,0.3-0.4S6.2,5.1,6.3,5s0.2-0.3,0.4-0.4S7,4.4,7.2,4.3
				s0.4,0,0.5-0.1S8,4,8.2,3.9s0.3-0.4,0.5-0.4s0.4,0.2,0.6,0.2s0.3-0.3,0.5-0.3s0.4,0.2,0.6,0.2s0.4-0.3,0.5-0.3s0.3,0.1,0.5,0.1
				s0.3,0.3,0.5,0.3s0.4-0.2,0.5-0.1s0.4,0,0.5,0s0.2,0.5,0.3,0.5s0.4,0,0.5,0s0.3,0.2,0.4,0.3s0.3,0.1,0.5,0.2s0.1,0.4,0.2,0.5
				s0.3,0.1,0.4,0.3s0.4,0.1,0.5,0.3s0,0.4,0.1,0.6s0.3,0.2,0.4,0.4s0.3,0.3,0.3,0.4s-0.2,0.4-0.1,0.6c0.1,0.4,0.6,0.4,0.8,0.4
				c0.1-0.1-0.2-0.1-0.1-0.1s0.1-0.1,0.1,0L17.1,8c0.2,0,0.2,0.3,0.5,0.3c0.1,0,0.3-0.1,0.5-0.1s0.3,0.1,0.5,0.1
				C18.8,8.3,18.9,8,19,8s0.1,0,0.2-0.2c0.1-0.1,0.4-0.2,0.3-0.3c0-0.2-0.4-0.3-0.5-0.4s0.1-0.4,0-0.6s0-0.4-0.1-0.5
				s-0.4-0.2-0.5-0.4s0-0.4-0.1-0.5s-0.2-0.3-0.3-0.5s-0.3-0.2-0.4-0.4s-0.1-0.4-0.2-0.5s-0.4-0.2-0.5-0.3S17,3.1,16.8,3
				s-0.4-0.1-0.6-0.2S16.1,2.4,16,2.3s-0.4,0-0.6-0.1S15.2,1.9,15,1.8s-0.4-0.1-0.5-0.1S14.2,1.5,14,1.4s-0.3-0.1-0.5-0.2
				s-0.4,0-0.5-0.1s-0.4,0.1-0.6,0.1s-0.3,0-0.5-0.1S11.5,1,11.4,1S11,0.7,10.8,0.7s-0.4,0.1-0.5,0.1s-0.4,0-0.5,0S9.4,0.9,9.3,0.9
				S8.9,1,8.7,1S8.3,0.9,8.2,0.9S7.9,1.2,7.7,1.2s-0.4-0.1-0.6,0S6.9,1.5,6.7,1.5S6.5,1.9,6.3,2S5.9,2,5.8,2S5.4,2.1,5.3,2.2
				S5.1,2.6,5,2.7s-0.4,0-0.5,0.2S4.3,3.2,4.2,3.3S3.9,3.5,3.8,3.6S3.5,3.9,3.4,4S3,4.1,2.9,4.3S2.6,4.5,2.5,4.7S2.4,5.1,2.3,5.2
				s0,0.4-0.1,0.6S2.1,6.1,2.1,6.3S1.6,6.5,1.6,6.6s0.2,0.4,0.2,0.6S1.5,7.6,1.5,7.7S1.4,8.1,1.4,8.3s0,0.4,0,0.5s0,0.3,0,0.5
				s0,0.4,0,0.5s-0.1,0.3-0.1,0.5s-0.1,0.3-0.1,0.5s0.1,0.4,0.1,0.5s0.1,0.4,0.1,0.5s-0.3,0.3-0.3,0.5s0,0.4,0,0.5s0.3,0.4,0.3,0.5
				s-0.2,0.4-0.2,0.5S1,14.5,1,14.6s0.2,0.4,0.2,0.5s0.1,0.4,0.1,0.5s0.1,0.4,0.1,0.5s-0.1,0.4-0.1,0.5S1,17.1,1,17.3
				s0.1,0.4,0.1,0.5s0.4,0.3,0.4,0.5s-0.2,0.4-0.2,0.5s0,0.4,0,0.5s0.2,0.3,0.3,0.5s-0.1,0.4-0.1,0.6s0.1,0.3,0.1,0.5s0,0.4,0,0.5
				s0.1,0.3,0.2,0.5s0.3,0.3,0.4,0.4s0.3,0.2,0.4,0.4s-0.1,0.5,0,0.6s0.3,0.2,0.4,0.4s0.3,0.2,0.4,0.3s0.2,0.3,0.3,0.4
				S3.8,25,4,25.1c0.1,0.1,0.3,0.2,0.4,0.3s0.4,0,0.6,0.1s0.1,0.5,0.3,0.6s0.3,0.1,0.5,0.2s0.3,0.1,0.5,0.2s0.4,0,0.5,0.1
				S7,27,7.1,27s0.5-0.3,0.6-0.2s0.3,0.4,0.4,0.4s0.3,0.1,0.5,0.1s0.4,0,0.5,0s0.4,0,0.5,0s0.4-0.2,0.5-0.2s0.3,0.2,0.5,0.2
				s0.3-0.2,0.5-0.2s0.4,0.1,0.5,0.1s0.3-0.2,0.5-0.3s0.4,0.2,0.6,0.2s0.3-0.3,0.4-0.3s0.3-0.3,0.4-0.4s0.4,0,0.5-0.1s0.4,0,0.6,0
				s0.1-0.4,0.3-0.5s0.3-0.1,0.5-0.2s0.4-0.1,0.5-0.2s0.1-0.4,0.2-0.5s0.3-0.2,0.4-0.3s0.2-0.2,0.4-0.4s0.3-0.2,0.4-0.4
				s0.3-0.2,0.4-0.4s0.1-0.4,0.2-0.5s0.3-0.3,0.3-0.4s0.1-0.4,0.1-0.5s0.3-0.3,0.3-0.4s0.1-0.3,0.2-0.5s0-0.4,0.1-0.5
				s0.1-0.3,0.2-0.5s-0.1-0.4-0.1-0.6s0.3-0.3,0.3-0.5s0-0.4,0-0.5s0.1-0.4,0.1-0.5c0-0.2-0.2-0.2-0.2-0.5s0.1-0.3,0.1-0.5
				s-0.2-0.3-0.2-0.5s-0.1-0.2-0.1-0.5s0.2-0.3,0.2-0.5s0.1-0.3,0.1-0.5s-0.1-0.3-0.1-0.5c0-0.2-0.1-0.4-0.2-0.6
				c-0.1-0.2-0.3-0.3-0.4-0.4c-0.2-0.1-0.3,0.1-0.5,0.1c-0.3,0-0.3-0.1-0.5-0.1s-0.3,0-0.5,0s-0.3-0.2-0.5-0.2s-0.3,0-0.5,0
				s-0.3-0.1-0.5-0.1s-0.3,0.2-0.5,0.2s-0.3,0.1-0.5,0.1s-0.3-0.3-0.5-0.3L13.9,13.4z"/>
		</g>
		<g id="グループ_169" transform="translate(28.532 1.264)">
			<path id="パス_212" class="st2" d="M9.5,0.9C9.3,0.9,9.2,0.7,9,0.7S8.7,0.8,8.5,0.9S8.1,0.7,7.9,0.7C7.8,0.8,7.7,1,7.5,1.1
				s-0.4,0-0.5,0s-0.4,0-0.5,0.1S6.1,1.3,5.9,1.3S5.7,1.7,5.6,1.8S5.2,1.8,5.1,1.9S4.7,2,4.6,2.1S4.3,2.3,4.2,2.4S4,2.8,3.9,2.9
				S3.6,3.1,3.4,3.2S3.2,3.5,3.1,3.6S2.8,3.8,2.6,3.9S2.6,4.3,2.5,4.5S2.2,4.7,2.1,4.9S2,5.2,1.9,5.4s0,0.4,0,0.6S1.6,6.2,1.6,6.4
				S1.7,6.8,1.6,7S1.4,7.3,1.4,7.5s0,0.4,0,0.5S1.3,8.3,1.3,8.5s0.1,0.4,0.1,0.5S1,9.4,1,9.6s0.4,0.4,0.4,0.5s0,0.4,0,0.5
				S1.1,11,1.1,11.2s0,0.4,0,0.5s0,0.4,0,0.5s0.2,0.4,0.2,0.5s0,0.4,0,0.5s-0.1,0.4-0.1,0.5s0.1,0.4,0.1,0.5s0,0.4,0,0.5
				s-0.2,0.4-0.2,0.5s0.2,0.4,0.2,0.5s-0.1,0.4-0.1,0.5s0,0.4,0,0.5s0.2,0.3,0.2,0.5s0,0.4,0,0.5s0.1,0.3,0.2,0.5s-0.2,0.4-0.1,0.6
				s0.4,0.3,0.4,0.4s0.1,0.3,0.2,0.5c0.1,0.2,0.1,0.3,0.2,0.5s0,0.4,0.1,0.5s0.2,0.3,0.4,0.4s0.1,0.4,0.2,0.6s0.4,0.1,0.5,0.2
				s0.1,0.4,0.2,0.5s0.5,0,0.6,0.1s0.3,0.2,0.4,0.3s0.2,0.4,0.3,0.4s0.3,0.3,0.4,0.3S5.9,24,6.1,24s0.3,0.2,0.4,0.3s0.4,0,0.5,0
				s0.2,0.4,0.4,0.4s0.4-0.2,0.6-0.2c0.2,0,0.3,0,0.5,0.1S8.8,24.9,9,25S9.3,25,9.5,25S9.8,25,10,24.9s0.3-0.2,0.5-0.2
				s0.3-0.1,0.5-0.1s0.3-0.1,0.5-0.2s0.4,0.2,0.6,0.2s0.2-0.4,0.4-0.5s0.4,0,0.5-0.1s0.4,0.1,0.6,0s0.2-0.4,0.3-0.5s0.3-0.2,0.4-0.3
				s0.4-0.1,0.5-0.2s0.1-0.4,0.2-0.5s0.4-0.1,0.5-0.2s0.3-0.2,0.4-0.3c0.1-0.1,0-0.4,0.1-0.6s0.3-0.2,0.4-0.3s0-0.4,0.1-0.6
				s0.2-0.3,0.3-0.4s0-0.4,0.1-0.5s0-0.3,0.1-0.5s0.2-0.3,0.3-0.5s0.2-0.3,0.2-0.5s0.1-0.3,0.1-0.5s-0.2-0.4-0.2-0.6
				s0.1-0.3,0.1-0.5s0.1-0.3,0.2-0.5s0-0.4,0-0.5s-0.2-0.4-0.2-0.5s0.3-0.4,0.3-0.5s0-0.4,0-0.5s-0.3-0.4-0.3-0.5s-0.1-0.4-0.1-0.5
				s0-0.4,0-0.5s0-0.4,0-0.5s0.1-0.4,0.1-0.5s0.2-0.4,0.2-0.5s0-0.4,0-0.5s0-0.4,0-0.5s-0.1-0.4-0.1-0.5s0.1-0.4,0.1-0.5
				S17.5,8.2,17.5,8s0.1-0.4,0-0.5s0.1-0.4,0.1-0.6s0-0.4,0-0.5s-0.4-0.3-0.4-0.4s0.1-0.4,0.1-0.6S17.1,5,17,4.8s-0.3-0.2-0.4-0.4
				s-0.3-0.2-0.4-0.3C16,4,16.2,3.6,16,3.5c-0.1-0.1-0.3-0.2-0.4-0.4S15.2,3,15.1,2.9s-0.2-0.3-0.3-0.4s-0.4-0.1-0.5-0.2
				S14,2.1,13.9,2s-0.3-0.1-0.5-0.2S13.1,1.6,13,1.5s-0.2-0.4-0.4-0.4S12.2,1.2,12,1.2s-0.4,0-0.5,0s-0.3-0.4-0.4-0.4
				s-0.4,0.2-0.5,0.2S10.2,0.7,10,0.7S9.7,0.9,9.5,0.9z M9.5,22.7c-0.2,0-0.3-0.2-0.5-0.2s-0.3,0-0.5,0S8.2,22.3,8,22.2
				c-0.2,0-0.4,0.1-0.5,0.1S7.2,22.1,7.1,22s-0.2-0.2-0.4-0.3s-0.3-0.2-0.4-0.3s-0.4,0-0.5-0.1S5.6,21,5.5,20.9s-0.2-0.3-0.3-0.5
				C5.1,20.3,5,20.2,4.9,20c-0.1-0.1-0.3-0.2-0.4-0.4c-0.1-0.2-0.1-0.3-0.2-0.5c-0.1-0.2-0.2-0.3-0.2-0.5s0.1-0.4,0.1-0.5
				S4,17.8,3.9,17.6c0-0.2,0-0.3,0-0.5c0-0.2,0-0.3,0-0.5S3.7,16.2,3.7,16s0.1-0.4,0.1-0.5S3.7,15.1,3.7,15s0.2-0.4,0.2-0.5
				s-0.1-0.3-0.1-0.5s0.1-0.3,0.1-0.5S3.7,13,3.7,12.8S4,12.5,4,12.3S3.6,12,3.6,11.8s0-0.4,0-0.5s0.3-0.4,0.3-0.5s0-0.4,0-0.5
				s0-0.4,0-0.5S3.8,9.3,3.8,9.1c0-0.2,0-0.4,0.1-0.5S4,8.3,4,8.1s0-0.4,0-0.5S4.1,7.2,4.1,7s0.3-0.3,0.4-0.4s0-0.4,0-0.5
				c0.1-0.1,0.2-0.3,0.3-0.4C4.9,5.5,5,5.4,5.2,5.2c0.1-0.1,0.1-0.4,0.2-0.5s0.3-0.2,0.4-0.3S6,4.2,6.2,4.1s0.4,0,0.6-0.1
				S6.9,3.6,7,3.5s0.3-0.1,0.5-0.2S7.8,3.2,8,3.2c0.2,0,0.4,0.1,0.5,0S8.8,3.1,9,3.1s0.3,0.2,0.5,0.2S9.8,3.1,10,3.1
				c0.2,0,0.3,0.3,0.5,0.3s0.4-0.2,0.6-0.2s0.3,0.1,0.5,0.1s0.2,0.3,0.4,0.4s0.3,0.2,0.4,0.3s0.5-0.1,0.6,0s0.2,0.3,0.3,0.4
				s0.3,0.1,0.5,0.3s0,0.5,0.1,0.6s0.5,0.1,0.6,0.2c0.1,0.2,0.2,0.3,0.3,0.5c0.1,0.2-0.1,0.4,0,0.6s0.1,0.3,0.1,0.5s0.1,0.3,0.2,0.5
				s0.2,0.3,0.2,0.5s0.1,0.3,0.1,0.5c0,0.2,0.1,0.3,0.1,0.5S15,9.5,15.1,9.7s0.3,0.3,0.3,0.5s-0.1,0.4-0.1,0.5S15,11.1,15,11.3
				s0.2,0.3,0.2,0.5s0,0.4,0,0.5s-0.2,0.4-0.2,0.5s0.2,0.4,0.2,0.5s-0.2,0.4-0.2,0.5S15,14.3,15,14.4s0.3,0.4,0.3,0.5
				s-0.2,0.4-0.2,0.5s0.2,0.4,0.2,0.5s-0.1,0.4-0.1,0.5s0.1,0.4,0,0.5s0,0.4,0,0.5c0,0.2-0.2,0.3-0.2,0.5s-0.2,0.3-0.2,0.5
				c-0.1,0.2-0.1,0.3-0.2,0.5c-0.1,0.2,0.1,0.4,0,0.6c-0.1,0.1-0.2,0.3-0.3,0.4c-0.1,0.1-0.3,0.2-0.4,0.3s-0.2,0.3-0.3,0.4
				s-0.1,0.4-0.2,0.5s-0.4,0-0.6,0.1s-0.3,0.2-0.4,0.2s-0.2,0.4-0.3,0.5s-0.3,0.2-0.4,0.3s-0.3,0.1-0.5,0.1s-0.3,0.1-0.5,0.1
				s-0.4-0.1-0.5-0.1S9.7,22.7,9.5,22.7z"/>
		</g>
		<g id="グループ_170" transform="translate(54.644 0.662)">
			<path id="パス_213" class="st2" d="M10.3,0.7c-0.2,0-0.4,0.1-0.5,0.1s-0.4,0-0.5,0S8.9,1,8.7,1.1S8.3,0.8,8.2,0.9
				S7.9,1.2,7.7,1.2S7.4,1.3,7.2,1.4S6.9,1.6,6.8,1.6S6.5,1.8,6.3,1.9s-0.4-0.1-0.6,0S5.5,2.2,5.4,2.3S5,2.3,4.9,2.4
				S4.7,2.8,4.6,2.9S4.1,2.9,4,3C3.9,3.1,3.8,3.4,3.7,3.5S3.3,3.6,3.2,3.7S3,4.1,2.9,4.2S2.6,4.4,2.5,4.6S2.4,4.9,2.3,5.1
				S2,5.3,1.9,5.5C1.9,5.6,2,5.9,1.9,6.1S1.6,6.3,1.6,6.5S1.5,6.9,1.5,7s0,0.4-0.1,0.5S1.2,7.9,1.2,8.1s0,0.4,0,0.5S1.5,9,1.5,9.2
				S1.1,9.5,1.1,9.7s0.1,0.4,0.1,0.5s0.2,0.4,0.2,0.5s-0.1,0.3-0.1,0.5S1,11.7,1,11.8s0.1,0.4,0.1,0.5S1,12.7,1,12.9s0,0.4,0,0.5
				s0,0.4,0,0.5s0.1,0.4,0.1,0.5S1,14.9,1,15s0,0.4,0,0.5s0.4,0.4,0.4,0.5s-0.3,0.4-0.2,0.5s0,0.4,0,0.5s0.1,0.4,0.1,0.5
				s0,0.4,0,0.5s0.3,0.3,0.3,0.5s-0.2,0.4-0.2,0.6s0.2,0.3,0.3,0.5s-0.1,0.4,0,0.5s0.1,0.4,0.1,0.5s0.1,0.4,0.2,0.5
				c0.1,0.2,0.4,0.2,0.5,0.3s0,0.4,0.1,0.6s0.2,0.3,0.3,0.5s0.2,0.3,0.3,0.5s0.3,0.2,0.5,0.3s0.3,0.2,0.5,0.3
				c0.1,0.1,0.3,0.1,0.5,0.3s0.2,0.3,0.3,0.4s0.3,0.2,0.4,0.3s0.4,0,0.5,0.1s0.3,0.1,0.5,0.1s0.2,0.5,0.3,0.5s0.4,0,0.5,0.1
				s0.3,0.1,0.5,0.1S8,26,8.2,26s0.4,0.1,0.5,0.1s0.4-0.3,0.6-0.2s0.3,0.3,0.5,0.3s0.4,0,0.5,0s0.3-0.2,0.5-0.3s0.4,0.1,0.5,0.1
				s0.3-0.3,0.5-0.3s0.4,0.1,0.5,0.1s0.3-0.3,0.5-0.3s0.3,0,0.5-0.1s0.4,0.2,0.6,0.1s0.3-0.2,0.5-0.3s0.2-0.3,0.4-0.4
				s0.3-0.2,0.4-0.3s0.4,0,0.5-0.1s0.3-0.2,0.5-0.3s0.1-0.4,0.2-0.6s0.3-0.2,0.4-0.3s0.5,0,0.6-0.1s0.2-0.3,0.3-0.4s0.3-0.3,0.4-0.4
				s0.1-0.4,0.2-0.5s0-0.4,0.1-0.5s0.1-0.3,0.2-0.5s0.1-0.3,0.2-0.5S19,20,19,19.8s0.2-0.3,0.2-0.5s-0.2-0.4-0.2-0.6
				s0.1-0.3,0.1-0.5s0.2-0.3,0.2-0.5s0-0.4,0.1-0.5s-0.1-0.4-0.1-0.5s0-0.4,0-0.5s0.1-0.4,0.1-0.5s-0.1-0.4-0.1-0.5s0.1-0.4,0.1-0.5
				s-0.1-0.4-0.1-0.5s-0.1-0.4-0.1-0.5s0.1-0.4,0.1-0.5s0-0.4,0-0.5s0-0.4,0-0.5s0.3-0.4,0.3-0.5s-0.4-0.4-0.4-0.5s-0.1-0.4-0.1-0.5
				s0.3-0.4,0.3-0.5s0-0.4,0-0.5s-0.1-0.4-0.1-0.5s0-0.4,0-0.5S19,7.8,18.9,7.6s0.1-0.4,0-0.5s-0.1-0.3-0.1-0.5s0-0.4,0-0.6
				s-0.4-0.2-0.5-0.4s-0.1-0.3-0.2-0.5s0-0.4-0.1-0.6s-0.2-0.3-0.3-0.4s-0.2-0.3-0.3-0.4s-0.5,0-0.6-0.1s-0.1-0.4-0.2-0.5
				S16.1,3.1,16,3s-0.2-0.4-0.3-0.5s-0.4-0.1-0.5-0.1S15,1.9,14.9,1.8s-0.4,0.1-0.6,0s-0.4,0-0.5-0.1s-0.3-0.1-0.5-0.2
				S13,1.3,12.8,1.3s-0.3-0.4-0.4-0.4S12,1,11.8,1s-0.4,0-0.5,0S11,0.9,10.8,0.9S10.5,0.7,10.3,0.7z M10.3,23.3
				c-0.2,0-0.4,0.1-0.5,0.1s-0.4,0-0.5-0.1s-0.4,0.1-0.6,0.1S8.4,23,8.2,23s-0.4,0.1-0.6,0s-0.3-0.1-0.5-0.2s-0.4-0.1-0.5-0.2
				s-0.3-0.2-0.5-0.3S6,21.9,5.9,21.7s-0.4-0.1-0.5-0.2S5.3,21.1,5.2,21s-0.4-0.2-0.5-0.3s0.1-0.4,0-0.6s-0.3-0.3-0.3-0.4
				s0.1-0.4,0.1-0.6s-0.2-0.3-0.2-0.5s0.1-0.3,0.1-0.5s-0.1-0.3-0.1-0.5s0.1-0.3,0.1-0.5S4.1,16.7,4,16.6s0.2-0.3,0.2-0.5
				s-0.1-0.3-0.1-0.5s0-0.3,0-0.5s0.2-0.3,0.2-0.5S4.2,14.1,4.2,14s-0.4-0.3-0.4-0.5s0.3-0.4,0.3-0.5s-0.1-0.4-0.1-0.5
				s-0.2-0.4-0.2-0.5s0.1-0.4,0.1-0.5s0.2-0.3,0.2-0.5s-0.1-0.4-0.1-0.5S4.3,10,4.3,9.8s0-0.4,0-0.5s0-0.3,0-0.5s0-0.4,0-0.5
				S4.5,8,4.6,7.8s0.1-0.3,0.1-0.5S4.4,6.8,4.5,6.7S4.9,6.5,5,6.3c0.1-0.1,0.2-0.3,0.3-0.4c0.1-0.2,0.2-0.3,0.3-0.4
				c0.1-0.1,0.2-0.2,0.4-0.4S6,4.7,6.2,4.6s0.5,0,0.6-0.1S7,4.1,7.1,4s0.4,0,0.6-0.1S8,3.8,8.2,3.8s0.3-0.1,0.5-0.1S9,3.3,9.2,3.3
				s0.4,0.2,0.6,0.2s0.4,0,0.5,0s0.3,0.1,0.5,0.1s0.4-0.1,0.5-0.1s0.4,0,0.5,0s0.4,0,0.5,0.1s0.3,0.3,0.4,0.3s0.3,0.2,0.5,0.3
				s0.4,0,0.6,0.1s0.4,0.1,0.5,0.3s0,0.5,0.2,0.6s0.3,0.2,0.4,0.3c0.1,0.1,0.2,0.2,0.3,0.4c0.1,0.1,0,0.4,0.1,0.5
				c0.1,0.1,0.1,0.3,0.2,0.4c0.1,0.2,0.4,0.2,0.5,0.4S16,7.6,16,7.8s0.1,0.3,0.1,0.5s0.3,0.3,0.3,0.5s-0.1,0.4-0.1,0.5
				s0.3,0.3,0.3,0.5s-0.2,0.4-0.2,0.5s0.2,0.3,0.2,0.5s-0.1,0.3-0.1,0.5s-0.3,0.3-0.3,0.5s0.1,0.3,0.1,0.5s0.2,0.3,0.2,0.5
				s0,0.3,0,0.5s-0.2,0.4-0.2,0.5s-0.1,0.4-0.1,0.5s0.3,0.4,0.3,0.5s0,0.4,0,0.5s-0.4,0.3-0.4,0.5s0,0.4,0,0.5s-0.1,0.3-0.1,0.5
				s0.1,0.4,0.1,0.5s0.1,0.4,0.1,0.5s0,0.4-0.1,0.5s-0.1,0.4-0.1,0.5s-0.2,0.3-0.3,0.5s-0.2,0.3-0.3,0.4s0.1,0.4,0,0.6
				c-0.1,0.1-0.2,0.3-0.3,0.4c-0.1,0.1-0.3,0.2-0.4,0.3s-0.2,0.2-0.4,0.3s-0.2,0.3-0.3,0.5s-0.3,0.2-0.4,0.3s-0.4,0.1-0.5,0.2
				s-0.3,0.3-0.4,0.4s-0.4,0-0.5,0.1s-0.3,0.2-0.5,0.3s-0.3,0.1-0.5,0.2s-0.4,0-0.5,0S10.5,23.3,10.3,23.3L10.3,23.3z"/>
		</g>
		<g id="グループ_171" transform="translate(112.468 1.202)">
			<path id="パス_214" class="st2" d="M18,0.7c-0.4,0-0.4,0-0.8,0c-0.2,0-0.5-0.1-0.6,0s-0.2,0.4-0.3,0.6s-0.3,0.3-0.3,0.5
				c0,0.3,0.2,0.3,0.2,0.5s-0.1,0.3-0.1,0.5s-0.1,0.3-0.1,0.5s0.2,0.3,0.2,0.5s-0.1,0.3-0.1,0.5s0.1,0.3,0.1,0.5s0,0.3,0,0.5
				s0,0.3,0,0.5s0,0.3,0,0.5s0,0.3,0,0.5s-0.2,0.3-0.2,0.5S16,7.9,16,8.2s0.1,0.3,0.1,0.5s0,0.3,0,0.5s0.2,0.3,0.2,0.5
				s-0.2,0.3-0.2,0.5s0.1,0.3,0.1,0.5c0,0.2-0.2,0.2-0.3,0.4s-0.2,0.2-0.4,0.2c-0.3,0-0.3-0.1-0.5-0.1s-0.3,0.1-0.5,0.1
				s-0.3-0.1-0.5-0.1s-0.3,0.3-0.5,0.3s-0.3-0.1-0.5-0.1s-0.3,0-0.5,0s-0.3-0.1-0.5-0.1s-0.3,0.3-0.5,0.3s-0.3-0.2-0.5-0.2
				s-0.3,0.1-0.5,0.1s-0.3-0.1-0.5-0.1s-0.3-0.1-0.5-0.1s-0.3,0.1-0.5,0.1s-0.3,0.3-0.5,0.3S8,11.4,7.8,11.4s-0.3,0.2-0.5,0.2
				S7,11.3,6.7,11.3s-0.3,0.1-0.5,0.1S6,11.3,5.7,11.3s-0.3,0.2-0.5,0.2s-0.3,0-0.5,0c-0.2,0-0.3-0.1-0.4-0.2
				c-0.1-0.1-0.4-0.3-0.4-0.4c0-0.3,0.3-0.3,0.3-0.5s-0.3-0.3-0.3-0.5s0.4-0.3,0.4-0.5s0-0.3,0-0.5s0-0.3,0-0.5S4.1,7.9,4.1,7.7
				s0.1-0.3,0.1-0.5s0-0.3,0-0.5S4,6.3,4,6.1s0.3-0.3,0.3-0.5s0-0.3,0-0.5S3.9,4.7,3.9,4.5s0.2-0.3,0.2-0.5S3.9,3.7,3.9,3.4
				s0.2-0.3,0.2-0.5s0-0.3,0-0.5s0.1-0.3,0.1-0.5c0-0.2-0.3-0.3-0.4-0.5S3.6,1.2,3.4,1.1S3.2,0.8,3,0.8c-0.4,0-0.4-0.1-0.8-0.1
				C2.1,0.8,2,1,1.8,1.1S1.3,1,1.2,1.2C1.1,1.4,1.1,1.6,1.1,1.8c0,0.3,0.2,0.3,0.2,0.5s0,0.3,0,0.5S1.2,3.1,1.2,3.4s0.1,0.3,0.1,0.5
				s0,0.3,0,0.5s0,0.3,0,0.5s0,0.3,0,0.5S1.3,5.7,1.3,6S1.1,6.3,1.1,6.5s0,0.3,0,0.5s0.3,0.3,0.3,0.5S1.2,7.9,1.2,8.1S1,8.4,1,8.7
				s0.1,0.3,0.1,0.5s0,0.3,0,0.5S1.1,10,1.1,10.2s0,0.3,0,0.5s0.2,0.3,0.2,0.5s0,0.3,0,0.5S1,12.1,1,12.4s0.3,0.3,0.3,0.5
				S1,13.1,1,13.4s0.3,0.3,0.3,0.5s0,0.3,0,0.5S1.2,14.7,1.2,15s0.1,0.3,0.1,0.5s0.1,0.3,0.1,0.5s-0.1,0.3-0.1,0.5s0,0.3,0,0.5
				s0.1,0.3,0.1,0.5s-0.1,0.3-0.1,0.5s0.2,0.3,0.2,0.5S1.1,19,1.1,19.2s0.3,0.3,0.3,0.5S1.2,20,1.2,20.3s0.2,0.3,0.2,0.5
				s-0.1,0.3-0.1,0.5v0.5c0,0.3-0.2,0.3-0.2,0.5s0.1,0.3,0.1,0.5s0.1,0.3,0.1,0.5S1.2,23.7,1.2,24c0,0.2,0.1,0.4,0.2,0.5
				c0.1,0.2,0.1,0.4,0.3,0.5c0.2,0.1,0.4,0.1,0.6,0.1c0.4,0,0.4,0,0.8,0c0.2,0,0.3-0.3,0.4-0.4s0.4-0.1,0.5-0.2s0.4-0.3,0.4-0.5
				c0-0.3-0.1-0.3-0.1-0.5s0-0.3,0-0.5s-0.3-0.3-0.3-0.5s0-0.3,0-0.5s0.3-0.3,0.3-0.5s0-0.3,0-0.5S4,20.7,4,20.4s-0.1-0.3-0.1-0.5
				s0.4-0.3,0.4-0.5s0-0.3,0-0.5s-0.1-0.3-0.1-0.5s0.1-0.3,0.1-0.5s0-0.3,0-0.5s0-0.3,0-0.5S4,16.5,4,16.3s0.1-0.3,0.1-0.5
				s0-0.3,0-0.5s0.1-0.3,0.1-0.5c0-0.2-0.2-0.4-0.1-0.5s0.4,0,0.5,0c0.3,0,0.3-0.1,0.5-0.1s0.3,0.2,0.5,0.2s0.3-0.2,0.5-0.2
				S6.5,14,6.7,14s0.3,0.2,0.5,0.2s0.3,0,0.5,0s0.3-0.2,0.5-0.2s0.3,0.2,0.5,0.2s0.3,0,0.5,0s0.3,0.1,0.5,0.1s0.3-0.1,0.5-0.1
				s0.3-0.1,0.5-0.1s0.3,0.3,0.5,0.3s0.3-0.3,0.5-0.3s0.3,0.2,0.5,0.2S12.7,14,13,14s0.3,0.2,0.5,0.2S13.8,14,14,14s0.3,0.1,0.5,0.1
				s0.3,0,0.5,0s0.3-0.2,0.5-0.2c0.2,0,0.3,0.1,0.5,0.3c0.1,0.1,0.2,0.3,0.2,0.5c0,0.3,0,0.3,0,0.5s0,0.3,0,0.5s-0.1,0.3-0.1,0.5
				s-0.1,0.3-0.1,0.5s0.3,0.3,0.3,0.5s-0.1,0.3-0.1,0.5s-0.2,0.3-0.2,0.5s0.2,0.3,0.2,0.5s-0.1,0.3-0.1,0.5s0.1,0.3,0.1,0.5
				s0.1,0.3,0.1,0.5s-0.1,0.3-0.1,0.5S16,21.2,16,21.4s0.1,0.3,0.1,0.5s0.1,0.3,0.1,0.5s0.1,0.3,0.1,0.5s-0.2,0.3-0.2,0.5
				s0.2,0.3,0.2,0.5c0,0.2-0.1,0.4,0,0.6c0.1,0.2,0.3,0.3,0.5,0.4c0.2,0.1,0.4,0,0.6,0c0.4,0,0.4,0.2,0.8,0.2c0.6,0,1.1-0.5,1.2-1.1
				c0,0,0,0,0-0.1c0-0.3-0.2-0.3-0.2-0.5s0.2-0.3,0.2-0.5s0-0.3,0-0.5s-0.1-0.3-0.1-0.5s-0.3-0.3-0.3-0.5s0.2-0.3,0.2-0.5
				s-0.2-0.3-0.2-0.5s0.2-0.3,0.2-0.5s0.1-0.3,0.1-0.5s0-0.3,0-0.5s-0.2-0.3-0.2-0.5s0.1-0.3,0.1-0.5s0.2-0.3,0.2-0.5
				s0.1-0.3,0.1-0.5S19,16.4,19,16.1s0.1-0.3,0.1-0.5S19,15.3,19,15s0-0.3,0-0.5s0.1-0.3,0.1-0.5s0-0.3,0-0.5S19,13.2,19,12.9
				s0.1-0.3,0.1-0.5s0.1-0.3,0.1-0.5s0.1-0.3,0.1-0.5S19,11.1,19,10.8s0.1-0.3,0.1-0.5s0.1-0.3,0.1-0.5s0.1-0.3,0.1-0.5
				s-0.1-0.3-0.1-0.5s0.1-0.3,0.1-0.5s-0.1-0.3-0.1-0.5s0.1-0.3,0.1-0.5s-0.3-0.3-0.3-0.5s0.4-0.3,0.4-0.5s-0.1-0.3-0.1-0.5
				s0-0.3,0-0.5S19,4.7,19,4.4s-0.2-0.3-0.2-0.5s0-0.3,0-0.5s0.4-0.3,0.4-0.5S19,2.6,19,2.3s-0.1-0.3-0.1-0.5c0-0.2,0.2-0.4,0.1-0.6
				c-0.1-0.2-0.2-0.3-0.4-0.4C18.4,0.7,18.2,0.7,18,0.7z"/>
		</g>
		<g id="グループ_172" transform="translate(140.808 1.091)">
			<path id="パス_215" class="st2" d="M18.4,0.7c-0.4,0-0.4,0.1-0.8,0.1c-0.2,0-0.4,0.1-0.6,0.2C16.9,1,17,1.3,16.9,1.5
				s-0.4,0.2-0.4,0.4c0,0.3,0.1,0.3,0.1,0.5s0.1,0.3,0.1,0.5s-0.3,0.3-0.3,0.5s0.3,0.3,0.3,0.5s-0.2,0.3-0.2,0.5s0,0.3,0,0.5
				s0.3,0.3,0.3,0.5s-0.2,0.3-0.2,0.5s0,0.3,0,0.5s-0.2,0.3-0.2,0.5s0.3,0.3,0.3,0.5s0,0.3,0,0.5s-0.1,0.3-0.1,0.5s0,0.3,0,0.5
				s-0.1,0.3-0.1,0.5s0.1,0.3,0.1,0.5s0,0.3,0,0.5s-0.1,0.3-0.1,0.5s0,0.3,0,0.5s0.3,0.3,0.3,0.5s-0.4,0.3-0.4,0.5s0.2,0.3,0.2,0.5
				s-0.2,0.3-0.2,0.5s0.3,0.3,0.3,0.5s-0.1,0.3-0.1,0.5s0.1,0.3,0.1,0.5s-0.3,0.3-0.3,0.5s0.1,0.3,0.1,0.5s0.2,0.3,0.2,0.5
				c0,0.2,0,0.4-0.1,0.5s0,0.4-0.1,0.5s0.1,0.4,0.1,0.6s-0.4,0.3-0.5,0.4s0.3,0.5,0.2,0.6s-0.5,0.2-0.6,0.3s0,0.4-0.1,0.5
				s-0.2,0.3-0.3,0.4s-0.1,0.4-0.2,0.5S15,22,14.8,22.1s-0.3,0.2-0.5,0.3s-0.4,0-0.5,0.1s-0.2,0.3-0.4,0.4s-0.3,0.1-0.5,0.2
				s-0.4,0-0.5,0s-0.3,0.1-0.5,0.2s-0.3,0.3-0.5,0.3s-0.4-0.1-0.5-0.1s-0.3,0.1-0.5,0.1s-0.4,0-0.5,0s-0.3-0.3-0.5-0.3
				s-0.4,0-0.5-0.1s-0.4,0.1-0.6,0s-0.3-0.2-0.5-0.3s-0.3-0.3-0.4-0.3s-0.4-0.1-0.5-0.1s-0.4,0-0.6-0.1S6,22.1,5.9,22
				s-0.3-0.2-0.4-0.3s-0.3-0.2-0.4-0.4S5,20.9,4.9,20.8s-0.1-0.4-0.1-0.5S4.5,20,4.4,19.8s-0.1-0.3-0.2-0.5S4.1,19,4.1,18.8
				s0-0.4,0-0.5s0.3-0.4,0.3-0.6S4,17.3,4,17.2c0-0.3,0.1-0.3,0.1-0.5s-0.2-0.3-0.2-0.5S4,15.8,4,15.6s0-0.3,0-0.5s0-0.3,0-0.5
				s0.2-0.3,0.2-0.5s0-0.3,0-0.5s0-0.3,0-0.5S4,12.6,4,12.4s0-0.3,0-0.5s0-0.3,0-0.5s0-0.3,0-0.5s0.2-0.3,0.2-0.5S4,10,4,9.7
				S4,9.4,4,9.2s0.1-0.3,0.1-0.5s0.1-0.3,0.1-0.5S4,7.8,4,7.6S4,7.3,4,7s0.1-0.3,0.1-0.5S4,6.2,4,6S3.9,5.7,3.9,5.4s0.4-0.3,0.4-0.5
				S4.2,4.6,4.2,4.4S4.1,4.1,4.1,3.8S4,3.6,4,3.3S4.1,3,4.1,2.8c0-0.2-0.2-0.3-0.3-0.4C3.8,2.2,3.6,2,3.5,2C3.4,1.9,3.2,1.6,3,1.6
				c-0.4,0-0.4,0.2-0.8,0.2c-0.2,0-0.4-0.1-0.5,0S1.6,2.2,1.5,2.3C1.4,2.4,1.3,2.6,1.3,2.8C1.3,3,1.2,3,1.2,3.3s0,0.3,0,0.5
				S1.1,4.1,1.1,4.3s0,0.3,0,0.5s0.2,0.3,0.2,0.5S1.1,5.6,1.1,5.9s0.3,0.3,0.3,0.5S1.3,6.7,1.3,6.9S1.2,7.2,1.2,7.5S1,7.7,1,8
				s0.2,0.3,0.2,0.5S1.1,8.8,1.1,9s0.1,0.3,0.1,0.5s0,0.3,0,0.5s0.2,0.3,0.2,0.5s0.1,0.3,0.1,0.5s-0.2,0.3-0.2,0.5s0.2,0.3,0.2,0.5
				s-0.3,0.3-0.3,0.5s0.2,0.3,0.2,0.5s-0.2,0.3-0.2,0.5s0.1,0.3,0.1,0.5S1,14.5,1,14.8s0.1,0.3,0.1,0.5s0.2,0.3,0.2,0.5
				s-0.1,0.3-0.1,0.5s-0.1,0.3-0.1,0.5s0,0.3,0,0.5c0,0.2,0.3,0.3,0.3,0.5s0,0.3,0,0.5S1.3,18.8,1.3,19s0,0.4,0,0.5s0.4,0.3,0.4,0.4
				s-0.1,0.4,0,0.6S2,20.8,2.1,21s0,0.4,0.1,0.5s0.3,0.2,0.4,0.4s0.2,0.3,0.3,0.4s0,0.4,0.1,0.5s0.4,0.2,0.5,0.3s0.2,0.3,0.3,0.4
				s0,0.5,0.2,0.6s0.3,0.2,0.5,0.3s0.3,0.2,0.4,0.3s0.3,0.1,0.5,0.2s0.4,0,0.5,0.1s0.2,0.3,0.4,0.4s0.3,0.2,0.5,0.3s0.4-0.2,0.6-0.1
				s0.3,0.3,0.4,0.4s0.4-0.2,0.6-0.2s0.3,0,0.5,0s0.3,0.3,0.5,0.3s0.4-0.1,0.5-0.1s0.3,0.1,0.5,0.1s0.3-0.2,0.5-0.2s0.4,0.1,0.5,0.1
				s0.4,0.2,0.6,0.2s0.4-0.1,0.5-0.1s0.4-0.1,0.5-0.1s0.3-0.3,0.5-0.3s0.3-0.1,0.5-0.2s0.4-0.1,0.5-0.1s0.4,0,0.6,0s0.1-0.5,0.3-0.6
				s0.3-0.1,0.5-0.2s0.4,0,0.5-0.1s0.1-0.4,0.3-0.5s0.2-0.3,0.3-0.4s0.3-0.2,0.4-0.3s0.3-0.2,0.4-0.4s0.3-0.2,0.4-0.4
				s0.1-0.4,0.2-0.5s0.1-0.3,0.2-0.5s0.1-0.3,0.2-0.5s0.2-0.3,0.3-0.5s0.2-0.3,0.3-0.5s-0.2-0.4-0.1-0.6s0.2-0.3,0.2-0.5
				s0.1-0.3,0.1-0.5s0.2-0.3,0.2-0.5s-0.3-0.4-0.3-0.5c0-0.3,0.3-0.3,0.3-0.5s0-0.3,0-0.5s-0.3-0.3-0.3-0.5s0-0.3,0-0.5
				s-0.1-0.3-0.1-0.5s0.1-0.3,0.1-0.5s0-0.3,0-0.5s0.2-0.3,0.2-0.5s-0.1-0.3-0.1-0.5s-0.1-0.3-0.1-0.5s-0.1-0.3-0.1-0.5
				s0.2-0.3,0.2-0.5s0.1-0.3,0.1-0.5s-0.2-0.3-0.2-0.5s0-0.3,0-0.5s0.1-0.3,0.1-0.5s-0.1-0.3-0.1-0.5s0.1-0.3,0.1-0.5
				s-0.2-0.3-0.2-0.5s0-0.3,0-0.5s-0.1-0.3-0.1-0.5s0.3-0.3,0.3-0.5s0.1-0.3,0.1-0.5S19.3,5.3,19.3,5s-0.1-0.3-0.1-0.5s0-0.3,0-0.5
				s0.3-0.3,0.3-0.5s-0.4-0.3-0.4-0.5s0.2-0.3,0.2-0.5s0.1-0.3,0.1-0.5c0-0.2,0-0.4-0.1-0.6C19.1,1,18.8,0.8,18.4,0.7L18.4,0.7z"/>
		</g>
		<path id="パス_216" class="st2" d="M99.6,19l0,0.3l-0.1,0.3l0,0.3l-0.2,0.3l-0.1,0.3l0.2,0.4l-0.5,0.2l0,0.4l-0.2,0.3l-0.3,0.2
			l-0.2,0.2v0.5l-0.4,0.1L97.6,23l-0.3,0.2L97,23.3l-0.2,0.3l-0.3,0.1l-0.3,0.2l-0.3,0l-0.3,0.1l-0.3,0.1l-0.4-0.1l-0.3,0l-0.3,0.1
			L93.8,24l-0.3,0.2L93.2,24l-0.3,0.2h-0.3l-0.3,0L91.9,24l-0.3,0.1l-0.3,0l-0.3-0.1l-0.3,0.1L90.2,24l-0.3,0.2l-0.3-0.1L89.3,24
			l-0.4,0l-0.1-0.4l-0.4,0l-0.1-0.3V23l-0.1-0.3l0.1-0.3L88,22l0-0.3l0.1-0.3l-0.1-0.3l0-0.3l0-0.3l0-0.3l0.2-0.3L88,19.5l0.3-0.3
			l0-0.3l-0.3-0.3l0.1-0.3l0.1-0.3l0.1-0.3l0.1-0.3l-0.1-0.3l0.1-0.3l-0.1-0.3l0.1-0.3l-0.1-0.3L88,15.3l0.3-0.3l-0.1-0.3l0.1-0.3
			l0-0.3L88,13.7l0.3-0.3L87.9,13l0.1-0.3l0-0.3l0-0.3l0.2-0.3l-0.2-0.3l0.1-0.3l0-0.3L88,10.4l-0.1-0.3l0-0.3l0.2-0.3l0.1-0.3
			l0-0.3l0.1-0.3l0-0.3l0-0.3l0-0.3l-0.2-0.3l0.2-0.3l0.1-0.3l0-0.3l0-0.3l-0.3-0.3L88,5.2l0.2-0.3l0.1-0.4l0.3-0.2l0.4,0l0.3-0.1
			l0.3-0.2L89.9,4l0.3,0.2L90.5,4l0.3,0.2l0.3-0.2l0.3,0L91.9,4l0.3,0.2l0.3,0l0.3,0L93.2,4l0.3,0l0.3,0l0.3,0.3L94.5,4l0.3,0
			l0.3,0.1l0.3,0.3l0.3,0l0.3,0.1l0.4,0l0.3,0.2L97,4.9L97.4,5l0.3,0.1l0.1,0.4l0.4,0l0.3,0.2L98.7,6l-0.1,0.4l0.4,0.1l-0.1,0.4
			l0.1,0.3l0.2,0.2l0.2,0.3L99.6,8l-0.1,0.4l0,0.3l0.2,0.3l0.2,0.3l0,0.3l0.3-0.1l0.3,0.1l0.3-0.2h0.3l0.3,0l0.3,0.2l0.3-0.2l0.3,0
			l0.3-0.2l0-0.3l-0.4-0.3l0.1-0.3l0-0.3l0.1-0.4L102,7.3l0.2-0.4L102,6.7l-0.2-0.3l-0.2-0.3l-0.1-0.3l-0.1-0.3l0-0.4l-0.3-0.2
			L101,4.6l-0.4-0.1l-0.2-0.2l-0.1-0.4l-0.4,0l-0.2-0.3l-0.2-0.3l-0.3-0.2L99,3l-0.2-0.3l-0.3-0.1l-0.3-0.1L98,2.3l-0.2-0.2
			l-0.4,0.1L97.1,2l-0.3-0.2l-0.3-0.1l-0.3,0l-0.3-0.1l-0.4,0.2l-0.3-0.2l-0.3-0.2l-0.3,0.3l-0.3-0.1l-0.3,0.1l-0.3-0.1l-0.3-0.1
			l-0.3,0l-0.3-0.1l-0.3,0.2L92,1.7l-0.3-0.2l-0.3-0.1l-0.3,0l-0.3,0.1l-0.3,0.1l-0.3,0.1l-0.3-0.1l-0.3,0.1l-0.3-0.2l-0.3-0.1
			l-0.3,0.3l-0.3-0.1l-0.3-0.1l-0.3,0.1l-0.3-0.1l-0.3,0.2l-0.4-0.2l-0.2,0.3l-0.4,0l-0.3,0.2l-0.1,0.3l-0.3,0.2l0.2,0.4l-0.2,0.3
			l0.3,0.3L85.3,4l0,0.3l0.1,0.3L85.2,5l0.1,0.3l-0.1,0.3L85.5,6l-0.1,0.3l-0.2,0.3l0.1,0.3l0.1,0.3l-0.2,0.3l0.2,0.3l-0.1,0.3
			l-0.1,0.3l0.1,0.3l0.1,0.3l-0.1,0.3l-0.1,0.3l0.1,0.3l0,0.3l-0.1,0.3l0.1,0.3l-0.2,0.3l0.1,0.3l0.1,0.3l0,0.3l-0.2,0.3l0.2,0.3
			l0,0.3l0,0.3l-0.3,0.3l0.1,0.3l0,0.3l0.2,0.3l0.1,0.3l-0.3,0.3l0.3,0.3l-0.2,0.3l-0.1,0.3l0.2,0.3l0.1,0.3l-0.2,0.3L85.2,18l0,0.3
			l0.3,0.3l0,0.3l-0.2,0.3l0.1,0.3l0.1,0.3l-0.3,0.3l0.3,0.3l-0.1,0.3l-0.1,0.3l0,0.3l0.2,0.3l0,0.3l0,0.3l0,0.3l0,0.3l0.1,0.3
			l-0.3,0.3l0.1,0.3l-0.1,0.3l0.3,0.3l-0.3,0.3l0.3,0.3v0.3l0.3,0.2l0.1,0.4l0.3,0.2l0.3,0.2l0.4-0.3l0.3,0l0.3,0l0.3,0.3l0.3-0.2
			l0.3,0l0.3,0.2l0.3-0.1l0.3-0.1l0.3,0l0.3,0l0.3,0.1l0.3-0.2l0.3,0.1l0.3-0.1l0.3,0l0.3-0.1l0.3,0.2l0.3-0.2l0.3,0.2l0.3,0.1
			l0.3-0.3l0.3,0.1l0.3,0.2l0.3-0.1l0.3-0.2l0.3,0.1l0.3-0.2l0.3,0l0.4,0.2l0.2-0.4l0.4,0.2l0.3-0.2l0.3-0.1l0.3,0l0.2-0.3l0.4,0.1
			l0.2-0.3l0.2-0.3l0.3-0.1l0.4,0l0.1-0.3l0.3-0.1l0.3-0.1l0.1-0.4l0.1-0.3l0.5,0l0-0.4l0.1-0.3l0.4-0.1l0.1-0.3l0.1-0.3l0-0.4
			l0.4-0.2l0.2-0.3l-0.1-0.4l0.4-0.2l-0.2-0.4l0.1-0.3l0.3-0.3l-0.3-0.4l0.4-0.3l0-0.3l-0.2-0.4l-0.3,0l-0.3,0.1l-0.4,0l-0.4,0
			l-0.4,0l-0.4-0.1l-0.4-0.1L99.6,19z"/>
	</g>
</g>
</svg>
