<?xml version="1.0" encoding="utf-8"?>
<!-- Generator: Adobe Illustrator 27.5.0, SVG Export Plug-In . SVG Version: 6.00 Build 0)  -->
<svg version="1.1" xmlns="http://www.w3.org/2000/svg" xmlns:xlink="http://www.w3.org/1999/xlink" x="0px" y="0px" width="190px"
	 height="200px" viewBox="0 0 190 200" style="enable-background:new 0 0 190 200;" xml:space="preserve">
<style type="text/css">
	.st0{fill:#B11818;}
</style>
<g id="レイヤー_1">
	<g id="レイヤー_1_00000018947212768300598510000016647890905746882201_">
	</g>
</g>
<g id="グループ_1378_00000049903022452455971620000009313554083189746327_">
	<g>
		<g id="グループ_1377_00000154386058241806199170000013729362778279282857_">
			<path id="パス_2373_00000106129805428911380060000017136278963344492679_" class="st0" d="M26.3280144,164.1630096
				c-0.2729988,0-0.2729988,0-0.5459995,0c-0.1929989,0-0.4569988-0.1430054-0.6119995-0.0529938
				s-0.1400013,0.4120026-0.2320004,0.572998s-0.4139996,0.2940063-0.4139996,0.4869995
				c0,0.2769928,0.4060001,0.2769928,0.4060001,0.5540009c0,0.1929932-0.1000004,0.3419952-0.0109997,0.5
				s0.1000004,0.4470062,0.2639999,0.5399933c0.1935844,0.0622406,0.3989811,0.0786743,0.6000004,0.0480042
				c0.257,0,0.257,0.1289978,0.5149994,0.1289978l0.0930023,0.0249939c0.2579994,0,0.2579994-0.3580017,0.5169983-0.3580017
				c0.2590008,0,0.2580013,0.3350067,0.5170021,0.3350067c0.2589989,0,0.2599983-0.1190033,0.5189991-0.1190033
				s0.2590008-0.2579956,0.5189991-0.2579956c0.1690006,0,0.2120018,0.3999939,0.3240013,0.5090027
				s0.4799995,0.1549988,0.4799995,0.3240051c0,0.3000031-0.2700005,0.3000031-0.2700005,0.6000061
				s0.1389999,0.3000031,0.1389999,0.6000061c0,0.173996-0.0470009,0.3439941-0.0530014,0.5090027
				s-0.0569992,0.3399963-0.0699997,0.5c-0.0129986,0.1600037,0.1710014,0.3659973,0.1500015,0.529007
				c-0.0210018,0.1630096-0.0160007,0.3569946-0.0470009,0.5180054s-0.4920006,0.2359924-0.5349998,0.3999939
				s0.0279999,0.352005-0.0289993,0.5090027c-0.0570011,0.1569977,0.0739994,0.3999939,0,0.548996
				c-0.0740013,0.1490021-0.4410019,0.1470032-0.5250015,0.2929993s-0.0249977,0.3679962-0.1209984,0.5090027
				s-0.0559998,0.3789978-0.163002,0.5130005c-0.1069984,0.1340027-0.2999992,0.1999969-0.4139977,0.326004
				c-0.1140003,0.1260071-0.1330013,0.371994-0.2600021,0.4830017c-0.1269989,0.1110077-0.2779999,0.227005-0.414999,0.3280029
				s-0.4720001-0.0850067-0.6169987,0c-0.1450005,0.0850067-0.2229996,0.2850037-0.375,0.3630066
				s-0.2860012,0.1999969-0.4430008,0.2630005s-0.3759995-0.0460052-0.5389996,0.0059967s-0.2940006,0.1860046-0.4610004,0.2250061
				s-0.3540001-0.0910034-0.5229988-0.0650024c-0.1690006,0.026001-0.3220005,0.0359955-0.493,0.048996
				c-0.1710014,0.0130005-0.3230019,0.1900024-0.4940014,0.1900024c-0.1859989,0-0.3589993-0.1069946-0.5419998-0.121994
				s-0.3669987,0.0299988-0.5489998,0s-0.3479996-0.1000061-0.5259991-0.1490021
				c-0.1780014-0.048996-0.3260002-0.1569977-0.5-0.2180023s-0.4740009,0.1880035-0.6420021,0.1109924
				c-0.1679993-0.0770111-0.2999992-0.2420044-0.4639988-0.3329926s-0.2290001-0.3289948-0.3810005-0.4340057
				c-0.1519985-0.105011-0.4239998-0.0540009-0.566-0.1730042s-0.0900002-0.4459991-0.2210007-0.5769958
				c-0.1309986-0.1309967-0.3829994-0.1190033-0.4919987-0.2489929c-0.1090012-0.1299896-0.2880001-0.2310028-0.3850002-0.371994
				s-0.2819996-0.2559967-0.3640003-0.4089966c-0.0819988-0.1529999,0.0419998-0.4120026-0.0249996-0.576004
				c-0.0670013-0.1640015-0.0130005-0.352005-0.066-0.5220032s-0.2240009-0.2890015-0.2639999-0.4640045
				c-0.0400009-0.1750031-0.0170002-0.3439941-0.0470009-0.5209961c-0.0299988-0.177002-0.2749996-0.3079987-0.2999992-0.4869995
				s0.184-0.3650055,0.1679993-0.5449982c-0.0159988-0.1799927,0.1079998-0.3480072,0.1000004-0.5269928
				s-0.3250008-0.3220062-0.3339996-0.5s0.3099995-0.3540039,0.2999992-0.5319977
				c-0.0099983-0.1779938-0.0279999-0.3399963-0.0319996-0.5180054s-0.2919998-0.3379974-0.2999992-0.5160065
				c-0.0080013-0.178009,0.1490002-0.345993,0.1479988-0.5240021c-0.0009995-0.178009-0.0109997-0.3430023-0.0119991-0.5220032
				s0.0189991-0.3439941,0.0189991-0.522995s-0.2769985-0.345993-0.2769985-0.5240021s0.0209999-0.352005,0.0209999-0.5220032
				s0.1999989-0.352005,0.1999989-0.5220032s0.1800003-0.3509979,0.1820011-0.5209961
				c0.0019989-0.1699982-0.3530006-0.3569946-0.3510017-0.5269928c0.0020008-0.1699982,0.1389999-0.3509979,0.1430016-0.5209961
				c0.0039997-0.1699982,0.059-0.352005,0.0649986-0.5200043c0.0060005-0.1679993,0.1760006-0.3450012,0.1840019-0.5130005
				c0.0079994-0.1679993-0.0950012-0.3569946-0.0840015-0.5249939s0.1890011-0.3370056,0.2000008-0.5
				s-0.3759995-0.3999939-0.3549995-0.5639954s0.3899994-0.3000031,0.4179993-0.4669952s0.0839996-0.3339996,0.1210003-0.5
				c0.0369987-0.1660004-0.2490005-0.4320068-0.2000008-0.5930023s0.3050003-0.2709961,0.3689995-0.4279938
				c0.0849266-0.1499176,0.1773777-0.2954254,0.2770004-0.4360046c0.0686188-0.1569061,0.1453896-0.3101044,0.2299995-0.4589996
				c0.1000004-0.1410065,0.2000008-0.2720032,0.3140011-0.4069977s0.1789989-0.3000031,0.3050003-0.4230042
				c0.1259995-0.1230011,0.3479996-0.1600037,0.4890003-0.2779999c0.1409988-0.1179962,0.2519989-0.2660065,0.3999996-0.3710022
				s0.2999992-0.1999969,0.4619999-0.2949982c0.1619987-0.0950012,0.3859997-0.0269928,0.5550003-0.1000061
				c0.1689987-0.0730133,0.2709999-0.2779999,0.4459991-0.3390045s0.2789993-0.3650055,0.4589996-0.4109955
				s0.4309998,0.25,0.6130009,0.2200012s0.3299999-0.3139954,0.5150013-0.3300018
				c0.1849995-0.0160065,0.3769989,0.1790009,0.5629997,0.1790009c0.1859989,0,0.355999-0.3000031,0.5279999-0.2870026
				c0.171999,0.0130005,0.3459988,0.1130066,0.5179977,0.1309967c0.1720009,0.0179901,0.3000011,0.3099976,0.4720001,0.3399963
				c0.1720009,0.0299988,0.3850021-0.1609955,0.552002-0.1190033s0.3759995-0.0180054,0.539999,0.0370026
				s0.1820011,0.4819946,0.3400002,0.552002s0.3999996-0.0469971,0.5500011,0.0370026
				c0.1499996,0.0839996,0.2659988,0.2200012,0.4099998,0.3179932c0.1439991,0.0979919,0.348999,0.1080017,0.4839993,0.2189941
				s0.0720005,0.4219971,0.1999989,0.5449982c0.1280022,0.1230011,0.335001,0.1399994,0.4480019,0.2740021
				c0.112999,0.1340027,0.3859978,0.1369934,0.4889984,0.2799988s-0.0129986,0.4210052,0.0790024,0.5709991
				c0.0919991,0.1499939,0.2999992,0.220993,0.3799992,0.3769989s0.2559986,0.2619934,0.3290005,0.423996
				s-0.1780014,0.4450073-0.1140003,0.6100006c0.1389999,0.3600006,0.6350002,0.375,0.7730007,0.3860016
				c0.0629997-0.076004-0.1700001-0.0619965-0.0720005-0.0619965s0.0629997-0.1109924,0.066-0.0140076l-0.0629997-0.1589966
				c0.2409992-0.0050049,0.2110004,0.2929993,0.4880009,0.2870026c0.1469994,0,0.3139992-0.0650024,0.4829998-0.0679932
				s0.3379993,0.1109924,0.4869995,0.1080017c0.2310009,0,0.4120007-0.2640076,0.4780006-0.2649994
				s0.1210003-0.029007,0.2259998-0.1640015c0.0750008-0.1000061,0.3589993-0.1750031,0.323-0.322998
				c-0.0309982-0.1820068-0.4330006-0.2779999-0.4750004-0.4530029s0.0949993-0.3999939,0.0410004-0.5670013
				s-0.0330009-0.3769989-0.1000004-0.5440063s-0.3840008-0.223999-0.4619999-0.3860016s-0.0109997-0.3999939-0.1000004-0.552002
				s-0.1739998-0.3179932-0.2749996-0.4669952s-0.2999992-0.2220001-0.4139996-0.3639984s-0.0790005-0.4060059-0.2000008-0.5390015
				s-0.3589993-0.1529999-0.4899998-0.2779999s-0.1359997-0.3939972-0.2759991-0.5090027s-0.4150009-0.0549927-0.5620003-0.1620026
				s-0.1560001-0.4170074-0.3100014-0.5140076c-0.1539993-0.0970001-0.4319992,0.0169983-0.5909996-0.0709991
				c-0.1589985-0.0879974-0.2360001-0.3309937-0.3999977-0.4089966c-0.1640015-0.0780029-0.3670006-0.0709991-0.5349998-0.1410065
				c-0.1680012-0.0700073-0.3000011-0.2259979-0.4750023-0.2859955c-0.1749992-0.0599976-0.3409996-0.1390076-0.5149994-0.1909943
				s-0.375-0.0130005-0.5509987-0.0559998c-0.1760006-0.0429993-0.4000015,0.1269989-0.5730019,0.0930023
				s-0.3509979-0.0480042-0.5299988-0.0740051s-0.3339996-0.2109985-0.5139999-0.2279968s-0.3479996-0.276001-0.5279999-0.2850037
				s-0.3730011,0.0570068-0.5529995,0.0570068s-0.3610001,0.0249939-0.5380001,0.0350037s-0.3450012,0.1600037-0.5209999,0.1790009
				s-0.3509998,0.0399933-0.526001,0.0690002c-0.1749992,0.029007-0.3999996-0.1529999-0.5679989-0.1139984
				s-0.3000011,0.2669983-0.4750004,0.3150024s-0.4099998-0.1000061-0.5779991-0.0440063
				c-0.1680012,0.0559998-0.2779999,0.2870026-0.4420013,0.3540039c-0.1639996,0.0670013-0.2209988,0.3650055-0.3809986,0.4420013
				s-0.3910007,0-0.5459995,0.0850067c-0.1550007,0.0850067-0.3770008,0.0610046-0.5279999,0.1549988
				c-0.151001,0.0939941-0.144001,0.4179993-0.2890015,0.5209961s-0.3999996,0.0480042-0.539999,0.1589966
				c-0.1400013,0.1109924-0.1650009,0.3480072-0.3000011,0.4660034c-0.1349983,0.1179962-0.2789993,0.2100067-0.3999996,0.3359985
				s-0.2999992,0.2100067-0.4200001,0.3410034c-0.1199999,0.1309967-0.3909998,0.151001-0.5,0.2890015
				c-0.1089993,0.1380005-0.257,0.276001-0.3569994,0.4219971c-0.1000004,0.1459961-0.092,0.3809967-0.1810007,0.5350037
				c-0.0889997,0.154007-0.0119991,0.3999939-0.0889997,0.5590057c-0.0769997,0.1590118-0.0939999,0.3379974-0.158,0.5059967
				s-0.4849997,0.2129974-0.5369997,0.3869934s0.1999998,0.4250031,0.1560001,0.6000061
				c-0.0440006,0.1750031-0.184,0.3220062-0.2160006,0.5c-0.0319996,0.1779938-0.1079998,0.3439941-0.1329994,0.526001
				c-0.0250006,0.1820068,0,0.3589935-0.0160007,0.5429993c-0.0159998,0.1840057-0.033,0.3540039-0.0459995,0.5379944
				c-0.0130005,0.1839905,0.0469999,0.3580017,0.0369997,0.5420074s-0.0900002,0.3509979-0.0999994,0.5339966
				c-0.0100002,0.1829987-0.1430006,0.352005-0.1480007,0.5359955c-0.0049992,0.1839905,0.1470003,0.3589935,0.1440001,0.5420074
				c-0.0029993,0.1830139,0.1430006,0.3580017,0.1410007,0.5420074c-0.0020008,0.1840057-0.2880001,0.3540039-0.2890005,0.5379944
				s-0.007,0.3560028-0.0080004,0.5399933c-0.0009995,0.1839905,0.3100004,0.3580017,0.3100004,0.5420074
				s-0.2150002,0.3580017-0.2150002,0.5420074s-0.1610003,0.3630066-0.1610003,0.5399933s0.2490005,0.3630066,0.2490005,0.5399933
				s0.0509996,0.3630066,0.052,0.5399933c0.0009995,0.1769867,0.0570002,0.3619995,0.059,0.5390015
				s-0.1269999,0.3650055-0.1240005,0.5410004c0.0030003,0.1759949-0.21,0.3699951-0.2059994,0.5460052
				c0.0039997,0.1760101,0.0570002,0.3639984,0.0640001,0.5399933s0.3639994,0.345993,0.3739996,0.5220032
				s-0.2220001,0.3769989-0.2080002,0.552002s-0.0139999,0.3690033,0,0.5440063s0.2510004,0.3350067,0.276,0.5099945
				c0.0250006,0.1749878-0.1259995,0.3869934-0.0939999,0.5599976s0.1000004,0.3509979,0.1459999,0.522995
				c0.0460005,0.1719971-0.0109997,0.3820038,0.04,0.5509949c0.0510006,0.1689911,0.1140003,0.352005,0.1780005,0.5180054
				s0.2919998,0.2700043,0.368,0.4320068s0.2929993,0.2409973,0.382,0.3999939
				c0.0889997,0.1589966-0.0710001,0.4600067,0.0299997,0.6100006s0.2950001,0.2290039,0.4070005,0.371994
				c0.1119995,0.1429901,0.2999992,0.2050018,0.4249992,0.3419952s0.2140007,0.2779999,0.3439999,0.4080048
				c0.1300011,0.1300049,0.0939999,0.4210052,0.2259998,0.5390015s0.3000011,0.2079926,0.4370003,0.3179932
				c0.137001,0.1100006,0.4370003,0.0079956,0.5809994,0.1100006c0.144001,0.102005,0.1160011,0.4680023,0.2660007,0.5619965
				s0.3439999,0.1300049,0.5,0.2160034s0.3339996,0.1360016,0.4950008,0.2120056
				c0.1609993,0.076004,0.368,0.0460052,0.5319996,0.1130066s0.2460003,0.3659973,0.4139996,0.423996
				s0.4580002-0.279007,0.6289997-0.2310028s0.2600002,0.4109955,0.4330006,0.4499969s0.3530006,0.0800018,0.5289993,0.1080017
				c0.1760006,0.0279999,0.3619995,0,0.5390015,0.0240021c0.1769981,0.0240021,0.3589993,0,0.5369987,0.0099945
				s0.3570004-0.223999,0.5349998-0.223999s0.3530006,0.1860046,0.5279999,0.1759949s0.3330002-0.1999969,0.507-0.2169952
				s0.3730011,0.1499939,0.5459995,0.121994s0.3129997-0.220993,0.4849987-0.2590027
				c0.1720009-0.0380096,0.4230003,0.2330017,0.592001,0.1860046s0.2819996-0.3000031,0.448-0.3540039
				s0.257-0.3000031,0.4200001-0.3670044s0.3809986,0.0119934,0.539999-0.0630035s0.420002,0.0460052,0.5750008-0.0370026
				s0.1469994-0.4519958,0.2999992-0.5440063s0.3300018-0.125,0.4750023-0.2250061s0.3899994-0.0639954,0.5289993-0.1719971
				s0.1000004-0.4309998,0.2290001-0.5469971s0.3250008-0.1549988,0.4510002-0.279007s0.2420006-0.25,0.3600006-0.3800049
				s0.2810001-0.2339935,0.3999996-0.3710022s0.2940006-0.2310028,0.3999996-0.3760071s0.0879993-0.375,0.1830006-0.5279999
				s0.2549992-0.2649994,0.3379993-0.4250031s0.0779991-0.3560028,0.1490002-0.522995s0.2910004-0.2720032,0.3500004-0.4450073
				s0.1270008-0.3399963,0.1739998-0.5169983s0.0489998-0.3589935,0.0849991-0.5390015s0.1310005-0.3439941,0.1580009-0.526001
				s-0.1399994-0.378006-0.1210003-0.5619965s0.2619991-0.3379974,0.2730007-0.5220032s0-0.3630066,0-0.5480042
				s0.0999985-0.3619995,0.0999985-0.5480042c0-0.2539978-0.218998-0.2539978-0.218998-0.5090027
				s0.1349983-0.2550049,0.1349983-0.5099945s-0.1699982-0.2550049-0.1699982-0.5099945s-0.0750008-0.2550049-0.0750008-0.5090027
				s0.2520027-0.2559967,0.2520027-0.5110016s0.072998-0.2559967,0.072998-0.5110016s-0.0719986-0.2559967-0.0719986-0.5119934
				c-0.0283737-0.2035522-0.105196-0.3973083-0.2240028-0.5650024c-0.1107521-0.1602173-0.2595329-0.2904358-0.4330006-0.3789978
				c-0.1550007-0.0899963-0.3519993,0.1000061-0.5450001,0.1000061c-0.2709999,0-0.2709999-0.0769958-0.5419998-0.0769958
				s-0.2719994,0-0.5440006,0s-0.2709999-0.1690063-0.5410004-0.1690063s-0.2720013-0.0130005-0.5440006-0.0130005
				s-0.2709999-0.052002-0.5419998-0.052002s-0.2709999,0.2449951-0.5429993,0.2449951s-0.2719994,0.0570068-0.5439987,0.0570068
				s-0.2709999-0.2590027-0.5430012-0.2590027L26.3280144,164.1630096z"/>
			<path id="パス_2374_00000068655638238560009680000010806059585345816752_" class="st0" d="M50.8620148,152.7920074
				c-0.1759987,0-0.3510017-0.2079926-0.5239983-0.1999969s-0.3400002,0.1069946-0.5130005,0.128006
				s-0.3769989-0.1499939-0.5489998-0.1190033s-0.2999992,0.2929993-0.4650002,0.3339996s-0.3590012,0-0.526001,0.0480042
				s-0.3689995,0.0070038-0.5320015,0.0679932s-0.3429985,0.1000061-0.5,0.1719971s-0.2179985,0.352005-0.3730011,0.4320068
				s-0.3670006,0.0540009-0.5169983,0.1439972s-0.3610001,0.0919952-0.5050011,0.1909943s-0.2770004,0.2250061-0.4150009,0.3320007
				s-0.1819992,0.3300018-0.3129997,0.4459991s-0.288002,0.1999969-0.4120026,0.326004s-0.2179985,0.3000031-0.3359985,0.4329987
				s-0.3710022,0.1730042-0.4799995,0.3139954s-0.0820007,0.3950043-0.1800003,0.5449982s-0.2420006,0.2799988-0.3269997,0.4400024
				s-0.1790009,0.3190002-0.25,0.4859924s0.0090027,0.3860016-0.0489998,0.5599976s-0.2439995,0.3000031-0.2900009,0.4790039
				s0.0900002,0.3829956,0.0559998,0.5659943s-0.2380028,0.3220062-0.2639999,0.5070038s0.0410004,0.3650055,0.0219994,0.5509949
				s-0.1170006,0.3500061-0.1299973,0.5359955c-0.0130005,0.1859894,0.0749969,0.3619995,0.0659981,0.5480042
				s-0.2929993,0.3480072-0.2999992,0.5339966s0.3759995,0.3679962,0.3720016,0.5540009
				c-0.0040016,0.1860046-0.0180016,0.3580017-0.0200043,0.5440063c-0.0019989,0.1860046-0.2549973,0.3580017-0.2559967,0.5440063
				c-0.0010033,0.1860046-0.0360031,0.3600006-0.0360031,0.5460052s-0.0059967,0.3609924-0.0059967,0.5469971
				s0.2139969,0.3619995,0.2139969,0.5480042s-0.0199966,0.3679962-0.0199966,0.5460052s-0.0800018,0.3679962-0.0800018,0.5469971
				s0.0909996,0.3670044,0.0919991,0.5460052s-0.0139999,0.3670044-0.0119972,0.5449982
				c0.0019989,0.1779938-0.2000046,0.371994-0.2000046,0.5500031s0.1880035,0.3639984,0.1940002,0.5410004
				c0.0060043,0.177002-0.060997,0.3710022-0.0519981,0.5480042s-0.0359993,0.3730011-0.0229988,0.548996
				c0.0129967,0.1759949,0.2289963,0.3500061,0.2469978,0.5269928s-0.0320015,0.371994-0.007,0.5480042
				s0.1269989,0.348999,0.1599998,0.522995s-0.1690025,0.4149933-0.125,0.5870056s0.3670006,0.2749939,0.4230003,0.4450073
				s0.1240005,0.3309937,0.1940002,0.5s0.1350021,0.3249969,0.2190018,0.4850006s0.0439987,0.3869934,0.1429977,0.5410004
				s0.25,0.2619934,0.3610001,0.4080048s0.0530014,0.4279938,0.1749992,0.5679932s0.420002,0.1000061,0.5519981,0.2339935
				c0.1320038,0.1339874,0.1000023,0.4109955,0.2300034,0.526001c0.1299973,0.1150055,0.4699974-0.0169983,0.6069984,0.0910034
				s0.2729988,0.1999969,0.4169998,0.3000031s0.1809998,0.3580017,0.3310013,0.447998s0.262001,0.2579956,0.4169998,0.3390045
				s0.4529991-0.1410065,0.612999-0.0700073s0.2719994,0.2359924,0.4350014,0.3000031s0.3600006,0,0.5270004,0.0509949
				s0.2470016,0.4109955,0.4169998,0.4519958s0.4059982-0.246994,0.5779991-0.2169952s0.3330002,0.0449982,0.507,0.0650024
				s0.3199997,0.2819977,0.4949989,0.2920074s0.3499985,0.0579987,0.526001,0.0579987s0.3510017-0.0599976,0.5250015-0.0700073
				s0.3330002-0.1719971,0.5060005-0.1929932s0.3349991-0.0709991,0.5060005-0.1000061s0.3199997-0.1289978,0.4889984-0.1690063
				s0.4199982,0.2259979,0.5870018,0.1750031s0.2299995-0.3999939,0.394001-0.4609985s0.362999-0.0119934,0.5219994-0.0820007
				s0.4459991,0.1130066,0.5999985,0.0319977s0.2000008-0.3730011,0.3470001-0.4640045s0.2729988-0.2149963,0.4169998-0.3139954
				s0.3909988-0.0590057,0.5279999-0.1670074s0.1119995-0.4089966,0.243-0.526001s0.4249992-0.0559998,0.5489998-0.1799927
				s0.3260002-0.2120056,0.4430008-0.3450012s0.0299988-0.4550018,0.1380005-0.6000061s0.348999-0.1999969,0.4449997-0.3540039
				s0.0219994-0.4069977,0.105999-0.5670013s0.2290001-0.2859955,0.2999992-0.4539948s0.0439987-0.3619995,0.0999985-0.5359955
				s0.0419998-0.3509979,0.0870018-0.529007s0.243-0.3079987,0.2779999-0.4900055s0.1529999-0.3390045,0.1790009-0.522995
				s0.105999-0.352005,0.125-0.5379944s-0.1720009-0.375-0.1580009-0.5610046s0.0999985-0.352005,0.1110001-0.5370026
				s0.1520004-0.3529968,0.1580009-0.5390015s-0.0079994-0.3600006,0-0.5460052s-0.2190018-0.3630066-0.2169991-0.548996
				s0.2830009-0.3569946,0.2849998-0.5429993s0.0149994-0.3600006,0.0159988-0.5460052s-0.2999992-0.3609924-0.2999992-0.5469971
				s-0.0870018-0.3619995-0.0870018-0.5480042s0.019001-0.3679962,0.019001-0.5460052s-0.0200005-0.3679962-0.0200005-0.5460052
				s0.1189995-0.3690033,0.118-0.5469971s0.2249985-0.3710022,0.2229996-0.548996s0-0.3699951,0-0.5469971
				s-0.0379982-0.3699951-0.0429993-0.5469971s-0.0750008-0.3670044-0.0830002-0.5429993s0.0670013-0.3760071,0.0550003-0.5529938
				s-0.3440018-0.3410034-0.3619995-0.5169983s0.0589981-0.3739929,0.0349998-0.548996s0.1409988-0.3999939,0.1080017-0.5720062
				s0-0.3860016-0.0429993-0.5579987s-0.3610001-0.2810059-0.4179993-0.451004s0.1389999-0.4470062,0.0680008-0.6130066
				s-0.2179985-0.3139954-0.2999992-0.4750061s-0.3240013-0.2319946-0.4239998-0.3860016s-0.3330002-0.1929932-0.4449997-0.3390045
				s0.0470009-0.5-0.0760002-0.6419983s-0.2869987-0.2319946-0.4189987-0.3650055s-0.394001-0.0919952-0.5239983-0.2070007
				s-0.1949997-0.3079987-0.3320007-0.4149933s-0.3549995-0.1000061-0.5-0.1999969s-0.2509995-0.2440033-0.4000015-0.3339996
				s-0.3289986-0.1139984-0.4840012-0.1999969s-0.2869987-0.1909943-0.4469986-0.2619934s-0.2249985-0.378006-0.3889999-0.4389954
				s-0.4109993,0.1199951-0.5779991,0.0690002s-0.3590012,0.022995-0.5289993-0.0180054s-0.2729988-0.3840027-0.4449997-0.4149933
				s-0.3810005,0.1999969-0.5550003,0.1779938s-0.3250008-0.25-0.5-0.2599945s-0.3530006,0.2570038-0.5279999,0.2570038
				 M50.8690186,174.9300079c-0.1699982,0-0.3390007-0.2200012-0.5060005-0.2339935s-0.3499985,0.0469971-0.5149994,0.0189972
				s-0.2900009-0.2559967-0.4529991-0.3000031s-0.3930016,0.1309967-0.5519981,0.0749969s-0.2869987-0.2070007-0.4399986-0.2769928
				s-0.2529984-0.2400055-0.4000015-0.322998s-0.2649994-0.1999969-0.4000015-0.2910004s-0.4099998-0.0180054-0.5400009-0.1260071
				s-0.1710014-0.3179932-0.2910004-0.4380035s-0.1619987-0.3329926-0.2729988-0.4669952
				c-0.1171951-0.1295776-0.2263985-0.2661591-0.3269997-0.4089966c-0.0999985-0.1490021-0.3050003-0.2299957-0.3839989-0.3919983
				c-0.0640869-0.1679382-0.1191673-0.3391876-0.1650009-0.5130005c-0.0579987-0.1620026-0.1599998-0.3190002-0.2060013-0.5
				s0.0849991-0.3739929,0.0519981-0.5570068s-0.223999-0.3170013-0.2480011-0.5
				c-0.0239944-0.1829987,0.0170021-0.3540039,0-0.5399933c-0.0149994-0.1699982-0.0119972-0.348999-0.0239983-0.5339966
				s-0.1720009-0.3419952-0.1800003-0.526001s0.1310005-0.3560028,0.1259995-0.5410004s-0.1850014-0.3480072-0.1879997-0.5319977
				s0.1720009-0.3560028,0.1699982-0.5410004c-0.0019989-0.1849976-0.0899963-0.3509979-0.0909958-0.5350037
				s0.0830002-0.3549957,0.0820007-0.5390015s-0.1000023-0.3549957-0.1000023-0.5390015s0.2779999-0.3619995,0.2779999-0.5370026
				s-0.3849983-0.3650055-0.3839989-0.5390015s0.0149994-0.3650055,0.0169983-0.5390015s0.2560005-0.3600006,0.2590027-0.5339966
				c0.0029984-0.173996,0.0419998-0.3609924,0.0469971-0.5339966c0.0050049-0.1730042,0.0160027-0.3609924,0.0240021-0.5330048
				s-0.2000008-0.375-0.1849976-0.5469971c0.0149994-0.1719971,0.0459976-0.3659973,0.0619965-0.5370026
				c0.0170021-0.1860046,0.1170044-0.3560028,0.1389999-0.526001c0.0240021-0.1849976-0.0379982-0.3769989-0.0069962-0.5449982
				c0.0339966-0.1829987,0.0899963-0.3580017,0.132-0.5240021s0.2999992-0.2850037,0.355999-0.447998
				s-0.0379982-0.3999939,0.0390015-0.5559998c0.1003304-0.1487732,0.2095261-0.2913666,0.3269997-0.427002
				c0.1115036-0.1363525,0.2306976-0.2662354,0.3569984-0.3890076c0.1100006-0.1340027,0.0820007-0.3999939,0.2120018-0.529007
				s0.2999992-0.1840057,0.4269981-0.2920074s0.2249985-0.2709961,0.362999-0.3670044s0.4129982,0.026001,0.5589981-0.0570068
				s0.1689987-0.4100037,0.3219986-0.4799957s0.3180008-0.1450043,0.4780006-0.1999969s0.3339996-0.1000061,0.5-0.1419983
				s0.362999,0.0679932,0.5299988,0.0399933s0.3260002-0.1100006,0.5-0.1239929s0.3390007,0.1999969,0.5089989,0.1999969
				s0.3429985-0.2339935,0.5110016-0.2200012s0.2999992,0.2579956,0.4690018,0.2859955s0.4000015-0.2489929,0.5610008-0.2079926
				s0.3390007,0.0930023,0.5,0.1490021s0.2470016,0.3000031,0.4000015,0.3739929s0.2550011,0.2250061,0.4000015,0.3079987
				s0.4669991-0.1000061,0.605999-0.0079956s0.2150002,0.2940063,0.3450012,0.3999939s0.3440018,0.1410065,0.4640007,0.2610016
				s0.012001,0.4839935,0.1230011,0.6179962s0.4900017,0.0930023,0.5859985,0.2409973
				c0.1035728,0.1557465,0.1980667,0.3173523,0.2830009,0.4839935c0.0769997,0.1569977-0.0789986,0.4259949-0.0180016,0.6000061
				s0.0670013,0.3410034,0.112999,0.5209961s0.1339989,0.3249969,0.1669998,0.5079956s0.2000008,0.3249969,0.2280006,0.5099945
				c0.0219994,0.1690063,0.0690002,0.348999,0.0849991,0.5339966s0.0999985,0.348999,0.1069984,0.5339966
				s-0.2999992,0.3679962-0.2939987,0.552002s0.3240013,0.3399963,0.3300018,0.5240021s-0.1119995,0.3560028-0.1090012,0.5410004
				s-0.2840004,0.3569946-0.2820015,0.5410004s0.237999,0.3500061,0.2400017,0.5339966s0.0400009,0.3540039,0.0400009,0.5379944
				s-0.1769981,0.3549957-0.1769981,0.5390015s0.2480011,0.3630066,0.2480011,0.5379944s-0.2459984,0.3619995-0.2480011,0.5370026
				s-0.0890007,0.3619995-0.0900002,0.5359955s0.2669983,0.3670044,0.2639999,0.5410004s-0.1699982,0.3600006-0.1749992,0.5330048
				s0.1819992,0.3699951,0.1739998,0.5420074s-0.0950012,0.3609924-0.105999,0.5330048s0.0660019,0.3739929,0.0499992,0.5460052
				s0.0270004,0.3769989,0.0050011,0.5469971s-0.2159996,0.3410034-0.2459984,0.5090027
				c-0.0340004,0.1829987-0.1599998,0.3359985-0.2000008,0.5c-0.0617981,0.1660767-0.1318855,0.328949-0.2099991,0.4880066
				c-0.0610008,0.1719971,0.0610008,0.4140015-0.0149994,0.5700073c-0.1024399,0.1500854-0.2136307,0.2939911-0.3330002,0.4309998
				c-0.0999985,0.147995-0.3059998,0.1999969-0.4210014,0.3450012c-0.1057549,0.1390228-0.2185707,0.272522-0.3380013,0.3999939
				c-0.1199989,0.1199951-0.0929985,0.3999939-0.2220001,0.5079956s-0.4309998-0.0130005-0.5690002,0.0829926
				s-0.2770004,0.1670074-0.4230003,0.25s-0.1599998,0.423996-0.3129997,0.4940033s-0.2910004,0.2189941-0.4510002,0.2749939
				s-0.3419991,0.0919952-0.5060005,0.1349945s-0.3400002,0.1000061-0.507,0.1269989s-0.3610001-0.0690002-0.5299988-0.0549927
				s-0.3429985,0.1430054-0.5130005,0.1430054"/>
			<path id="パス_2375_00000068676275650354818020000005960215422608865447_" class="st0" d="M78.1590118,151.9240112
				c-0.177002,0-0.3570023,0.1130066-0.5319977,0.121994s-0.3569946,0.0079956-0.5319977,0.0249939
				s-0.3250046,0.2319946-0.5,0.2590027c-0.1750031,0.0270081-0.4000092-0.2389984-0.576004-0.1999969
				s-0.3000031,0.3000031-0.4649963,0.345993c-0.1650085,0.04599-0.3270035,0.1289978-0.4940033,0.1829987
				s-0.3059998,0.1750031-0.4700012,0.2380066s-0.3000031,0.1849976-0.4550018,0.2570038s-0.427002-0.0839996-0.5830002,0
				s-0.2139969,0.3370056-0.3649979,0.4259949s-0.3940048,0.0310059-0.5400085,0.1289978
				c-0.1459961,0.0979919-0.1459961,0.3939972-0.2869949,0.5s-0.4630051-0.0209961-0.5999985,0.0930023
				s-0.1520004,0.3589935-0.2799988,0.4799957s-0.4179993,0.1000061-0.5379944,0.2319946
				c-0.1200027,0.1319885-0.1380005,0.3730011-0.2510071,0.5079956c-0.1129913,0.1349945-0.3349915,0.2089996-0.4369965,0.3540039
				s-0.1340027,0.3549957-0.2249985,0.5079956s-0.2779999,0.2709961-0.3559952,0.4329987
				c-0.0780029,0.1620026,0.0540009,0.4190063-0.0100021,0.5879974s-0.3089981,0.276001-0.3610001,0.451004
				s-0.052002,0.3619995-0.0930023,0.5410004s-0.0399933,0.3589935-0.0709991,0.5410004
				c-0.0309906,0.1820068-0.211998,0.3339996-0.2350006,0.5169983c-0.022995,0.1829987,0.0169983,0.3659973,0,0.5509949
				s0.3380051,0.3820038,0.326004,0.5670013s-0.3619995,0.3339996-0.3699951,0.5189972
				c-0.0080032,0.1849976,0.0619965,0.3580017,0.0569916,0.5429993c-0.0049973,0.1849976,0.1840057,0.3589935,0.1809998,0.5440063
				c-0.0029907,0.1850128-0.1319962,0.3529968-0.1349945,0.5379944s-0.1819992,0.3560028-0.1829987,0.5399933
				s0.1069946,0.3580017,0.1060028,0.5420074c-0.0010071,0.1840057-0.1100006,0.3580017-0.1100006,0.5420074
				s0.0399933,0.3589935,0.0399933,0.5440063s0.0060043,0.3639984,0.0060043,0.5410004s0.0830002,0.3639984,0.0830002,0.5410004
				s-0.151001,0.3659973-0.1500015,0.5429993s0.0230026,0.3650055,0.0250015,0.5420074s0.3820038,0.3589935,0.3860016,0.5350037
				s-0.2559967,0.3710022-0.25,0.5469971s-0.0419998,0.3670044-0.0339966,0.5429993
				c0.0079956,0.1759949,0.0999908,0.3609924,0.1119995,0.5359955c0.0119934,0.1750031,0.0089951,0.3670044,0.0249939,0.5420074
				c0.0160065,0.1750031,0.2799988,0.3329926,0.3000031,0.5079956s-0.2290039,0.3999939-0.1999969,0.5740051
				c0.0289917,0.1740112,0.2529907,0.3200073,0.2929993,0.4909973c0.0399933,0.17099-0.0579987,0.3890076-0.0070038,0.5579987
				s0.0839996,0.3580017,0.1470032,0.5240021c0.0629959,0.1660004,0.0999908,0.3580017,0.1769943,0.5189972
				s0.4309998,0.173996,0.5230026,0.3300018c0.0919952,0.1560059-0.0350037,0.4400024,0.0690002,0.5890045
				c0.1039963,0.1490021,0.1779938,0.3190002,0.2939911,0.4609985s0.1610031,0.345993,0.2870026,0.4799957
				s0.3440018,0.1719971,0.4779968,0.3000031c0.1340027,0.128006,0.3250046,0.1679993,0.4589996,0.2810059
				c0.1340027,0.1130066,0.326004,0.151001,0.4660034,0.2559967s0.1869965,0.3419952,0.3330002,0.4389954
				s0.2799988,0.223999,0.4309998,0.3130035s0.4000015,0.0119934,0.5519943,0.0930023
				c0.1520004,0.0810089,0.3450012,0.0769958,0.5050049,0.1490021s0.1860046,0.4680023,0.3499985,0.5310059
				s0.3709946,0.0249939,0.5390015,0.0789948s0.3479996,0.0709991,0.5179977,0.1159973
				c0.1700058,0.0449982,0.3070068,0.2559967,0.4800034,0.2920074s0.3550034,0.0709991,0.5289993,0.1000061
				s0.3899994-0.2599945,0.5660019-0.2420044s0.3310013,0.3000031,0.5070038,0.3059998s0.3590012,0.0169983,0.5360031,0.0169983
				s0.348999-0.253006,0.5240021-0.2610016s0.3600006,0.1000061,0.5339966,0.0829926s0.3160019-0.279007,0.4889984-0.3059998
				s0.3789978,0.1450043,0.5510025,0.1089935s0.2929993-0.2689972,0.4629974-0.3139954s0.3499985-0.029007,0.5159988-0.0829926
				s0.4430008,0.1880035,0.6060028,0.1260071s0.3079987-0.1999969,0.4680023-0.272995s0.2220001-0.3509979,0.3779984-0.4320068
				s0.2870026-0.1940002,0.4380035-0.2839966s0.3880005-0.0379944,0.5339966-0.1349945s0.322998-0.1600037,0.4629974-0.2649994
				s0.0820007-0.4539948,0.2170029-0.5679932s0.2799988-0.1999969,0.4079971-0.3179932s0.512001,0,0.6330032-0.1329956
				s0.2109985-0.3130035,0.3219986-0.4490051s0.2689972-0.2660065,0.3700027-0.4109955s0.1279984-0.3600006,0.2170029-0.5140076
				s0.0289993-0.3919983,0.1070023-0.5540009s0.1320038-0.3249969,0.1999969-0.4940033s0.1139984-0.3300018,0.1660004-0.5050049
				s0.2480011-0.3000031,0.2890015-0.4790039s0.2109985-0.326004,0.2429962-0.5070038s-0.1930008-0.3919983-0.1699982-0.5749969
				s0.1080017-0.3439941,0.1259995-0.5279999s0.1880035-0.3439941,0.1999969-0.5279999s0.0490036-0.3560028,0.0579987-0.5399933
				s-0.125-0.3619995-0.1190033-0.5460052s0-0.3560028,0-0.5399933s0.1169968-0.3549957,0.1190033-0.5399933
				s-0.1350021-0.3580017-0.1340027-0.5420074s0.1139984-0.3560028,0.1149979-0.5399933s-0.151001-0.3589935-0.151001-0.5429993
				s-0.0630035-0.3580017-0.0630035-0.5420074s0.0550003-0.3650055,0.0550003-0.5420074s-0.0159988-0.3639984-0.0159988-0.5410004
				s-0.0199966-0.3650055-0.0210037-0.5420074s0.2900009-0.3679962,0.288002-0.5449982s-0.3860016-0.3589935-0.3889999-0.5359955
				s-0.0559998-0.3619995-0.060997-0.5379944s0.3359985-0.3769989,0.3280029-0.5529938s0.0490036-0.3710022,0.038002-0.5460052
				s-0.0780029-0.3650055-0.0940018-0.5399933s0.0070038-0.375-0.0149994-0.548996s-0.4069977-0.3099976-0.4369965-0.4830017
				s0.052002-0.3760071,0.0130005-0.5480042s-0.0999985-0.345993-0.1460037-0.5149994s0.0449982-0.3999939-0.0189972-0.5659943
				s-0.4179993-0.2070007-0.5-0.3679962s-0.0999985-0.3350067-0.1940002-0.4909973s0.0400009-0.451004-0.0650024-0.6000061
				s-0.2350006-0.279007-0.3519974-0.4199982s-0.1949997-0.3130035-0.3219986-0.447998s-0.5080032,0.0070038-0.6419983-0.1199951
				s-0.1169968-0.3890076-0.2509995-0.5s-0.4000015-0.0509949-0.5410004-0.1569977s-0.163002-0.3659973-0.3089981-0.4640045
				s-0.375-0.052002-0.5270004-0.1419983s-0.1159973-0.5169983-0.2720032-0.6000061s-0.4219971,0.0540009-0.5820007-0.0180054
				s-0.3639984-0.0299988-0.5279999-0.0930023s-0.3239975-0.1130066-0.4909973-0.1670074s-0.314003-0.1560059-0.4840012-0.1999969
				s-0.276001-0.3710022-0.447998-0.4069977s-0.387001,0.1369934-0.560997,0.1100006s-0.3570023,0.0500031-0.5329971,0.0319977
				s-0.3410034-0.0879974-0.5169983-0.1000061s-0.3479996-0.2610016-0.5250015-0.2610016 M78.1470337,174.9070282
				c-0.1839981,0-0.3600006,0.1000061-0.5419998,0.0870056s-0.3559952-0.048996-0.534996-0.0769958
				s-0.4000092,0.125-0.576004,0.0820007s-0.2659988-0.3840027-0.4389954-0.4409943
				c-0.1730042-0.0569916-0.4190063,0.1000061-0.5870056,0.022995s-0.352005-0.1199951-0.5130005-0.2059937
				s-0.3590012-0.1269989-0.512001-0.227005s-0.348999-0.1640015-0.4930038-0.2779999
				c-0.1439972-0.1139984-0.1169968-0.4290009-0.25-0.5559998c-0.1329956-0.1269989-0.3999939-0.1150055-0.5089951-0.2429962
				s-0.0889969-0.3849945-0.189003-0.526001c-0.0999908-0.1410065-0.3999939-0.1699982-0.4869995-0.3240051
				c-0.0869904-0.154007,0.1110077-0.4409943,0.0429993-0.6060028c-0.0679932-0.1650085-0.2819977-0.2630005-0.3339996-0.4360046
				c-0.0519943-0.1730042,0.1180038-0.3809967,0.0790024-0.5590057s-0.215004-0.3000031-0.2430038-0.4850006
				s0.0810089-0.3540039,0.0600052-0.5350037s-0.1240005-0.3300018-0.1389999-0.5110016s0.0839996-0.3480072,0.072998-0.5299988
				c-0.010994-0.1819916-0.2409973-0.3309937-0.2480011-0.5110016c-0.0069962-0.1800079,0.1840057-0.3509979,0.1790009-0.5310059
				c-0.0049896-0.1800079-0.0559998-0.3439941-0.0589905-0.5240021c-0.003006-0.1800079-0.0410004-0.3450012-0.0429993-0.526001
				s0.1529999-0.345993,0.1519928-0.526001c-0.0009918-0.1800079-0.0599976-0.3470001-0.060997-0.5279999
				s-0.3700027-0.3480072-0.3700027-0.5279999s0.3420029-0.3560028,0.3420029-0.5269928s-0.0750046-0.3560028-0.0739975-0.5279999
				c0.0009918-0.1719971-0.1920013-0.3580017-0.1900024-0.5299988s0.1309967-0.3549957,0.1340027-0.526001
				c0.0029907-0.1710052,0.185997-0.3509979,0.1909943-0.5220032c0.0050049-0.1710052-0.0999908-0.3580017-0.0899963-0.5279999
				s0.125-0.348999,0.1349945-0.5180054c0.0100021-0.1690063-0.0169983-0.3560028,0-0.5249939
				s0.026001-0.3540039,0.0449982-0.5220032s-0.0369949-0.3630066-0.0110016-0.5299988
				c0.026001-0.1669922,0.2100067-0.3159943,0.2470093-0.4799957s0.0599976-0.3390045,0.1089935-0.5
				c0.0490036-0.1609955-0.2439957-0.4660034-0.1790009-0.6239929c0.0650024-0.1579895,0.3840027-0.2160034,0.4660034-0.3670044
				c0.0989685-0.1415558,0.2057953-0.2774353,0.3199997-0.4069977c0.0778427-0.1561584,0.1639633-0.3080292,0.2580032-0.4550018
				c0.1129913-0.1269989,0.2459946-0.2369995,0.3759918-0.3609924c0.1300049-0.1239929,0.1180038-0.4340057,0.2610016-0.5480042
				c0.1430054-0.1139984,0.4609985,0.0050049,0.6139984-0.0950012s0.2140045-0.3569946,0.375-0.4440002
				c0.1610031-0.0870056,0.3930054-0.0319977,0.5620041-0.1000061s0.3440018-0.1089935,0.5179977-0.1670074
				c0.1740036-0.0580139,0.3530045-0.0650024,0.5320053-0.1080017s0.2999954-0.3809967,0.4809952-0.4100037
				s0.4000015,0.2079926,0.5800018,0.1929932s0.3600006,0.0240021,0.5439987,0.0240021s0.3509979,0.1069946,0.5319977,0.1210022
				s0.3690033-0.0919952,0.5490036-0.0639954s0.3769989-0.0299988,0.5540009,0.0130005s0.3840027,0.0070038,0.5569992,0.0650024
				s0.2890015,0.2769928,0.4560013,0.348999s0.3119965,0.1809998,0.4729996,0.2669983s0.4140015,0.0200043,0.5670013,0.1199951
				s0.3610001,0.1450043,0.5,0.2590027s0.0479965,0.5,0.1809998,0.628006s0.3219986,0.1679993,0.4349976,0.3000031
				c0.1232681,0.1225281,0.2400894,0.251358,0.3499985,0.3860016c0.0999985,0.1430054,0.0390015,0.3699951,0.1240005,0.5249939
				c0.080368,0.1464081,0.1515045,0.2977142,0.2129974,0.4530029c0.0650024,0.1569977,0.4150009,0.2120056,0.4670029,0.3849945
				s-0.1660004,0.3999939-0.1269989,0.572998s0.0630035,0.3280029,0.0920029,0.5079956s0.2949982,0.3000031,0.3160019,0.4850006
				s-0.0859985,0.3540039-0.0709991,0.5359955s0.2669983,0.3269958,0.2770004,0.5090027s-0.1869965,0.3540039-0.1800003,0.5350037
				s0.211998,0.3390045,0.2170029,0.5189972s-0.0569992,0.348999-0.0540009,0.529007s-0.3150024,0.3509979-0.3130035,0.5310059
				s0.0749969,0.3450012,0.0759964,0.5249939s0.2269974,0.3470001,0.2269974,0.5269928s0.0370026,0.348999,0.0370026,0.5299988
				s-0.1699982,0.3549957-0.1699982,0.5269928s-0.0530014,0.3549957-0.0540009,0.5269928s0.3050003,0.3589935,0.3000031,0.5299988
				s-0.0410004,0.3580017-0.0439987,0.529007s-0.3440247,0.3330231-0.3440247,0.4990234s0.0429993,0.3569946,0.0360031,0.526001
				s-0.0630035,0.352005-0.072998,0.5209961s0.0719986,0.3609924,0.0579987,0.5299988s0.1320038,0.3730011,0.1119995,0.5410004
				s-0.0319977,0.3619995-0.0579987,0.5279999s-0.0579987,0.3589935-0.0940018,0.522995s-0.2369995,0.3090057-0.2850037,0.470993
				s-0.2369995,0.2810059-0.3000031,0.4389954s0.0879974,0.4250031,0.0059967,0.576004
				c-0.1044083,0.1436768-0.2165756,0.2815399-0.3359985,0.4129944c-0.0999985,0.1410065-0.3270035,0.1730042-0.4449997,0.3059998
				s-0.2429962,0.223999-0.3740005,0.3480072s-0.1719971,0.3450012-0.3150024,0.4589996s-0.2829971,0.227005-0.435997,0.3280029
				s-0.3610001,0.0939941-0.5220032,0.1809998s-0.2610016,0.2870026-0.4290009,0.3589935s-0.3740005,0.0310059-0.5479965,0.0890045
				s-0.3000031,0.253006-0.4830017,0.3000031s-0.3499985,0.1410065-0.5309982,0.1699982s-0.3740005,0-0.5579987,0.0099945
				s-0.3679962-0.2230072-0.552002-0.2230072"/>
			<path id="パス_2376_00000162325886245807118040000013315295001503080371_" class="st0" d="M144.6930084,152.506012
				c-0.3849945,0-0.3849945,0.0079956-0.7709961,0.0079956c-0.1920013,0-0.4700012-0.0899963-0.6260071,0
				s-0.1860046,0.3999939-0.279007,0.5619965s-0.2610016,0.3300018-0.2610016,0.522995
				c0,0.2700043,0.1950073,0.2700043,0.1950073,0.5410004s-0.1000061,0.2709961-0.1000061,0.5420074
				s-0.0839996,0.2709961-0.0839996,0.5420074s0.2310028,0.2709961,0.2310028,0.5420074s-0.0630035,0.2709961-0.0630035,0.5420074
				s0.0610046,0.2700043,0.0610046,0.5399933s0.0050049,0.2709961,0.0050049,0.5429993s0.0390015,0.2700043,0.0390015,0.5410004
				s0.0330048,0.2709961,0.0330048,0.5410004s-0.0440063,0.2720032-0.0440063,0.5429993s-0.2149963,0.2709961-0.2149963,0.5429993
				s-0.1730042,0.2709961-0.1730042,0.5420074s0.1419983,0.2720032,0.1419983,0.5440063s-0.0339966,0.2709961-0.0339966,0.5429993
				s0.2070007,0.2709961,0.2070007,0.5429993s-0.1849976,0.272995-0.1849976,0.5449982s0.1269989,0.272995,0.1269989,0.5449982
				c0,0.1699982-0.1849976,0.2449951-0.3000031,0.3569946s-0.1869965,0.1999969-0.3560028,0.1999969
				c-0.2640076,0-0.2640076-0.0769958-0.5279999-0.0769958s-0.2640076,0.0679932-0.5279999,0.0679932
				s-0.2640076-0.128006-0.5279999-0.128006s-0.2639923,0.2850037-0.529007,0.2850037
				c-0.2649841,0-0.2639923-0.1170044-0.5279846-0.1170044c-0.2640076,0-0.2640076,0.0189972-0.5280151,0.0189972
				c-0.2639923,0-0.2639923-0.1230011-0.5289917-0.1230011s-0.2640076,0.3370056-0.5279999,0.3370056
				s-0.2649994-0.1649933-0.529007-0.1649933c-0.2639923,0-0.2639923,0.1089935-0.5269928,0.1089935
				s-0.2639923-0.1369934-0.529007-0.1369934c-0.2649841,0-0.2639923-0.1499939-0.5279846-0.1499939
				c-0.2640076,0-0.2640076,0.0549927-0.5280151,0.0549927c-0.2639923,0-0.2649841,0.2610016-0.5299988,0.2610016
				c-0.2649841,0-0.2639923-0.2839966-0.5279846-0.2839966c-0.2640076,0-0.2650146,0.1880035-0.5299988,0.1880035
				c-0.2650146,0-0.2650146-0.2779999-0.5299988-0.2779999c-0.2650146,0-0.2650146,0.1450043-0.529007,0.1450043
				s-0.2649994-0.1239929-0.5299988-0.1239929s-0.2660065,0.2120056-0.5319977,0.2120056s-0.2659912,0-0.5319977,0
				c-0.1675873-0.0128784-0.3237457-0.0898895-0.4359894-0.2149963c-0.1110077-0.1109924-0.375-0.2669983-0.375-0.4369965
				c0-0.2700043,0.2999878-0.2700043,0.2999878-0.5410004s-0.2999878-0.2709961-0.2999878-0.5420074
				s0.3859863-0.2709961,0.3859863-0.5420074s-0.0299988-0.2709961-0.0299988-0.5420074s0.006012-0.2709961,0.006012-0.5420074
				s-0.1440125-0.2700043-0.1440125-0.5399933s0.1450043-0.2709961,0.1450043-0.5420074s0.0240021-0.2709961,0.0240021-0.5420074
				s-0.276001-0.2700043-0.276001-0.5410004s0.2850037-0.2720032,0.2850037-0.5429993s-0.0159912-0.2709961-0.0159912-0.5420074
				s-0.2880096-0.2720032-0.2880096-0.5429993s0.2200012-0.2720032,0.2200012-0.5440063s-0.223999-0.2709961-0.223999-0.5420074
				s0.1999969-0.2720032,0.1999969-0.5440063s0.0370026-0.272995,0.0370026-0.5449982s0.0770111-0.272995,0.0770111-0.5449982
				c0-0.1929932-0.3140106-0.3379974-0.4000092-0.4940033s-0.2700043-0.1499939-0.4300079-0.2440033
				s-0.2330017-0.2160034-0.4259949-0.2160034c-0.3850098,0-0.3850098-0.0659943-0.7689972-0.0659943
				c-0.1930084,0-0.2679901,0.1950073-0.423996,0.2850037s-0.5000076-0.0149994-0.6000061,0.1459961
				c-0.1054993,0.1794434-0.1671753,0.3812408-0.1800003,0.5890045c0,0.2680054,0.2099991,0.2680054,0.2099991,0.5359955
				s0.0390015,0.2689972,0.0390015,0.5370026s-0.1279984,0.2689972-0.1279984,0.5370026s0.1389999,0.2680054,0.1389999,0.5359955
				s-0.0449982,0.2680054-0.0449982,0.5359955s-0.0319977,0.2669983-0.0319977,0.5339966s-0.0429993,0.2680054-0.0429993,0.5350037
				s0.0849991,0.2680054,0.0849991,0.5350037s-0.2129974,0.2669983-0.2129974,0.5350037s0.0410004,0.2680054,0.0410004,0.5350037
				s0.3000031,0.2680054,0.3000031,0.5359955s-0.1999969,0.2680054-0.1999969,0.5370026s-0.1709976,0.2689972-0.1709976,0.5370026
				s0.1179962,0.2689972,0.1179962,0.5370026s-0.0210037,0.2680054-0.0210037,0.5359955s-0.0820007,0.2680054-0.0820007,0.5359955
				s0.0289993,0.2680054,0.0289993,0.5359955s0.2269974,0.2689972,0.2269974,0.5370026s0.0230026,0.2680054,0.0230026,0.5370026
				s-0.3099976,0.2689972-0.3099976,0.5379944s0.2570038,0.2680054,0.2570038,0.5370026s-0.2720032,0.2680054-0.2720032,0.5359955
				s0.2720032,0.2689972,0.2720032,0.5370026s0,0.2689972,0,0.5379944s-0.1269989,0.2689972-0.1269989,0.5379944
				s0.0749969,0.2689972,0.0749969,0.5370026s0.0690002,0.2689972,0.0690002,0.5379944s-0.125,0.2689972-0.125,0.5379944
				s0.0439987,0.2689972,0.0439987,0.5379944s0.0670013,0.2689972,0.0670013,0.5379944s-0.0910034,0.2680054-0.0910034,0.5359955
				s0.1809998,0.2689972,0.1809998,0.5379944s-0.3000031,0.2689972-0.3000031,0.5370026s0.3000031,0.2689972,0.3000031,0.5370026
				s-0.1999969,0.2700043-0.1999969,0.5390015s0.223999,0.2689972,0.223999,0.5379944s-0.1439972,0.2700043-0.1439972,0.5390015
				s0,0.2700043,0,0.5399933s-0.2310028,0.2689972-0.2310028,0.5379944s0.0999985,0.2700043,0.0999985,0.5399933
				s0.1380005,0.2700043,0.1380005,0.5410004s-0.0999985,0.2700043-0.0999985,0.5410004
				c0.0203018,0.1874695,0.0892487,0.3663788,0.1999969,0.5189972c0.0930023,0.1609955,0.1429977,0.4210052,0.2999954,0.5140076
				c0.1879883,0.0857697,0.3935852,0.1258698,0.6000061,0.1170044c0.3840027,0,0.3840027,0.0099945,0.7689972,0.0099945
				c0.1930084,0,0.272995-0.3280029,0.4279938-0.4179993s0.3940125-0.0540009,0.4869995-0.2149963
				c0.0930176-0.1609955,0.3640137-0.3350067,0.3640137-0.5269928c0-0.2619934-0.105011-0.2619934-0.105011-0.5240021
				s0.0299988-0.2619934,0.0299988-0.522995s-0.2879944-0.2619934-0.2879944-0.5240021s0-0.2619934,0-0.5240021
				s0.2659912-0.2619934,0.2659912-0.5240021s0.0429993-0.2599945,0.0429993-0.5209961s-0.1999969-0.2610016-0.1999969-0.5220032
				s-0.1380005-0.2630005-0.1380005-0.5249939s0.3570099-0.2619934,0.3570099-0.522995s-0.0469971-0.2619934-0.0469971-0.5240021
				s-0.1190186-0.2619934-0.1190186-0.5249939s0.0650024-0.2619934,0.0650024-0.5240021s0.0350037-0.2630005,0.0350037-0.5249939
				s0.0190125-0.2630005,0.0190125-0.526001s-0.2000122-0.2619934-0.2000122-0.5249939s0.1370087-0.2619934,0.1370087-0.5249939
				s0-0.2640076,0-0.5269928s0.1119995-0.2640076,0.1119995-0.5269928c0-0.1699982-0.220993-0.4230042-0.1089935-0.5339966
				s0.3639832-0.0390015,0.5329895-0.0390015c0.2640076,0,0.2640076-0.0809937,0.5279999-0.0809937
				s0.2639923,0.2299957,0.5269928,0.2299957s0.2650146-0.2050018,0.529007-0.2050018s0.2639923-0.128006,0.5279999-0.128006
				s0.2640076,0.1880035,0.5279999,0.1880035s0.2649994-0.0050049,0.529007-0.0050049
				c0.2639923,0,0.2639923-0.2440033,0.5289917-0.2440033s0.2640076,0.1889954,0.5279999,0.1889954
				s0.2649994,0.0449982,0.529007,0.0449982c0.2639923,0,0.2630005,0.0820007,0.5269928,0.0820007
				s0.2639923-0.1340027,0.529007-0.1340027c0.2649841,0,0.2639923-0.1490021,0.5279846-0.1490021
				c0.2640076,0,0.2640076,0.3000031,0.5280151,0.3000031c0.2639923,0,0.2649841-0.3439941,0.5289917-0.3439941
				s0.2649994,0.1710052,0.5289917,0.1710052c0.2640076,0,0.2650146-0.0890045,0.5299988-0.0890045
				c0.2650146,0,0.2650146,0.2369995,0.5299988,0.2369995c0.2650146,0,0.2640076-0.1900024,0.529007-0.1900024
				s0.2649994,0.1390076,0.5299988,0.1390076s0.2660065,0.0429993,0.5319977,0.0429993s0.2660065-0.1999969,0.5319977-0.1999969
				c0.1793671,0.0275116,0.3431244,0.1178894,0.4620056,0.2550049c0.1248169,0.122879,0.1990204,0.2880859,0.2079926,0.4629974
				c0,0.2619934-0.0330048,0.2619934-0.0330048,0.522995s0.0319977,0.2619934,0.0319977,0.5240021
				s-0.0579987,0.2610016-0.0579987,0.522995s-0.1410065,0.2619934-0.1410065,0.5240021s0.3099976,0.2619934,0.3099976,0.5240021
				s-0.1000061,0.2610016-0.1000061,0.5209961s-0.1710052,0.2610016-0.1710052,0.522995s0.1609955,0.2619934,0.1609955,0.5240021
				s-0.0879974,0.2619934-0.0879974,0.522995s0.1450043,0.2619934,0.1450043,0.5240021s0.0579987,0.2619934,0.0579987,0.5249939
				s-0.1179962,0.2619934-0.1179962,0.5240021s-0.2640076,0.2630005-0.2640076,0.5249939s0.0870056,0.2630005,0.0870056,0.526001
				s0.0740051,0.2619934,0.0740051,0.5249939s0.1329956,0.2619934,0.1329956,0.5249939s-0.1999969,0.2640076-0.1999969,0.5269928
				s0.1529999,0.2640076,0.1529999,0.5279999c0,0.1920013-0.0930023,0.4369965,0,0.5930023
				c0.1202393,0.164505,0.2774658,0.2984467,0.4589996,0.3910065c0.1560059,0.0899963,0.3760071-0.0209961,0.5679932-0.0209961
				c0.3860016,0,0.3860016,0.2359924,0.7709961,0.2359924c0.2065277-0.0167084,0.4060669-0.0825348,0.5820007-0.1920013
				c0.3856659-0.1812286,0.6189728-0.5821533,0.5859985-1.0070038c0-0.2689972-0.1629944-0.2689972-0.1629944-0.5370026
				s0.1750031-0.2680054,0.1750031-0.5370026s0.0359955-0.2680054,0.0359955-0.5370026s-0.052002-0.2680054-0.052002-0.5359955
				s-0.2570038-0.2680054-0.2570038-0.5350037s0.2259979-0.2680054,0.2259979-0.5350037s-0.2180023-0.2680054-0.2180023-0.5350037
				s0.2180023-0.2669983,0.2180023-0.5350037s0.0579987-0.2669983,0.0579987-0.5350037s-0.0079956-0.2669983-0.0079956-0.5350037
				s-0.2429962-0.2680054-0.2429962-0.5359955s0.0679932-0.2680054,0.0679932-0.5359955s0.154007-0.2689972,0.154007-0.5379944
				s0.0859985-0.2689972,0.0859985-0.5370026s-0.246994-0.2680054-0.246994-0.5359955s0.0679932-0.2680054,0.0679932-0.5359955
				s-0.0720062-0.2680054-0.0720062-0.5359955s-0.0079956-0.2680054-0.0079956-0.5359955s0.1269989-0.2689972,0.1269989-0.5379944
				s0.0099945-0.2689972,0.0099945-0.5370026s-0.1000061-0.2689972-0.1000061-0.5379944s0.052002-0.2680054,0.052002-0.5359955
				s0.0820007-0.2689972,0.0820007-0.5370026s0.0549927-0.2689972,0.0549927-0.5379944s-0.2299957-0.2689972-0.2299957-0.5379944
				s0.0740051-0.2680054,0.0740051-0.5370026s0.0540009-0.2689972,0.0540009-0.5370026s0.0709991-0.2700043,0.0709991-0.5390015
				s-0.0879974-0.2689972-0.0879974-0.5370026s0.1410065-0.2689972,0.1410065-0.5390015s-0.1190033-0.2669983-0.1190033-0.5350037
				s0.1000061-0.2700043,0.1000061-0.5390015s-0.3439941-0.2680054-0.3439941-0.5370026s0.3549957-0.2689972,0.3549957-0.5370026
				s-0.125-0.2700043-0.125-0.5390015s0.0079956-0.2689972,0.0079956-0.5379944s-0.0549927-0.2689972-0.0549927-0.5390015
				s-0.1999969-0.2700043-0.1999969-0.5390015s0-0.2700043,0-0.5390015s0.3699951-0.2700043,0.3699951-0.5390015
				s-0.1940002-0.2709961-0.1940002-0.5410004s-0.1230011-0.2709961-0.1230011-0.5410004
				c0-0.1929932,0.1950073-0.4299927,0.1000061-0.5859985c-0.1051483-0.1769257-0.250824-0.3263702-0.4250031-0.4360046
				c-0.1882935-0.0699615-0.3904877-0.0942841-0.5899963-0.0709991"/>
			<path id="パス_2377_00000179616119380161885040000003492110646328958348_" class="st0" d="M173.8070221,152.3590088
				c-0.3849945,0-0.3849945,0.072998-0.7700043,0.072998c-0.2013702,0.0126801-0.396637,0.0741119-0.5690002,0.1790009
				c-0.1600037,0.0930023-0.0679932,0.3999939-0.1609955,0.5639954s-0.3699951,0.2290039-0.3699951,0.4219971
				c0,0.2669983,0.1000061,0.2669983,0.1000061,0.5339966s0.0690002,0.2660065,0.0690002,0.5330048
				s-0.3430023,0.2660065-0.3430023,0.5330048s0.326004,0.2660065,0.326004,0.5330048s-0.1670074,0.2669983-0.1670074,0.5330048
				s-0.0319977,0.2669983-0.0319977,0.5350037s0.3059998,0.2669983,0.3059998,0.5339966s-0.1699982,0.2669983-0.1699982,0.5339966
				s0,0.2669983,0,0.5339966s-0.1849976,0.2669983-0.1849976,0.5339966s0.3000031,0.2669983,0.3000031,0.5350037
				s0,0.2669983,0,0.5339966s-0.0769958,0.2669983-0.0769958,0.5350037s0.0140076,0.2669983,0.0140076,0.5339966
				s-0.1289978,0.2680054-0.1289978,0.5350037s0.0820007,0.2680054,0.0820007,0.5350037s0.0160065,0.2669983,0.0160065,0.5350037
				s-0.1000061,0.2669983-0.1000061,0.5330048s-0.0379944,0.2680054-0.0379944,0.5350037s0.2720032,0.2669983,0.2720032,0.5339966
				s-0.378006,0.2669983-0.378006,0.5350037s0.173996,0.2680054,0.173996,0.5350037s-0.1690063,0.2680054-0.1690063,0.5350037
				s0.3170013,0.2680054,0.3170013,0.5359955s-0.1000061,0.2680054-0.1000061,0.5370026s0.0700073,0.2669983,0.0700073,0.5350037
				s-0.3190002,0.2680054-0.3190002,0.5370026s0.1060028,0.2689972,0.1060028,0.5379944s0.1620026,0.2689972,0.1620026,0.5370026
				c0,0.1840057-0.0410004,0.3659973-0.0509949,0.5429993s-0.0440063,0.3630066-0.0659943,0.5390015
				s0.1269989,0.3999939,0.0930023,0.5690002s-0.4450073,0.2700043-0.4920044,0.4409943s0.2570038,0.4609985,0.1999969,0.628006
				s-0.4949951,0.1889954-0.5690002,0.3509979s-0.0319977,0.3769989-0.1199951,0.5319977s-0.2400055,0.2640076-0.3430023,0.4109955
				s-0.1000061,0.371994-0.2149963,0.5079956s-0.1150055,0.3999939-0.2449951,0.5240021s-0.3249969,0.1999969-0.4669952,0.3079987
				s-0.4060059,0.048996-0.5590057,0.1459961s-0.2440033,0.2899933-0.3999939,0.3730011s-0.3430023,0.1130066-0.5119934,0.1799927
				s-0.3820038-0.0370026-0.5559998,0.0160065s-0.3240051,0.1210022-0.5,0.1589966s-0.3070068,0.3000031-0.4880066,0.3280029
				s-0.3679962-0.0720062-0.5509949-0.0599976s-0.3560028,0.1390076-0.5390015,0.1390076s-0.3730011,0.0440063-0.5500031,0.0330048
				s-0.3350067-0.3070068-0.5110016-0.3309937s-0.3549957-0.026001-0.529007-0.0639954s-0.3919983,0.0780029-0.5619965,0.0269928
				s-0.3179932-0.1929932-0.4839935-0.2590027s-0.2640076-0.2720032-0.4230042-0.352005s-0.375-0.052002-0.526001-0.147995
				s-0.4320068-0.026001-0.572998-0.1369934s-0.1849976-0.3529968-0.3150024-0.477005s-0.3300018-0.1920013-0.447998-0.3289948
				s-0.2929993-0.246994-0.3999939-0.3999939s-0.1069946-0.3710022-0.1999969-0.529007s-0.0540009-0.3760071-0.1289978-0.5410004
				s-0.2879944-0.2709961-0.348999-0.4429932s-0.1289978-0.3430023-0.177002-0.5189972s-0.1130066-0.3509979-0.147995-0.5310059
				s-0.022995-0.3659973-0.0460052-0.5469971s0.2709961-0.3809967,0.2599945-0.5639954s-0.2920074-0.3450012-0.2920074-0.529007
				c0-0.2689972,0.0659943-0.2689972,0.0659943-0.5390015s-0.1640015-0.2700043-0.1640015-0.5399933
				s0.1000061-0.2700043,0.1000061-0.5399933s0.0370026-0.2700043,0.0370026-0.5399933s-0.0379944-0.2709961-0.0379944-0.5420074
				s0.2079926-0.2700043,0.2079926-0.5399933s-0.022995-0.2700043-0.022995-0.5410004v-0.5399933
				c0-0.2709961-0.1829987-0.2709961-0.1829987-0.5420074s-0.0169983-0.2700043-0.0169983-0.5410004
				s0.0119934-0.2700043,0.0119934-0.5410004s0-0.2700043,0-0.5410004s0.1719971-0.2709961,0.1719971-0.5420074
				s-0.1470032-0.2700043-0.1470032-0.5410004s-0.0639954-0.2709961-0.0639954-0.5420074s0.1419983-0.2689972,0.1419983-0.5390015
				s0.1239929-0.2709961,0.1239929-0.5420074s-0.2709961-0.2700043-0.2709961-0.5410004s0.0549927-0.2700043,0.0549927-0.5410004
				s0.076004-0.2709961,0.076004-0.5420074s-0.1399994-0.2709961-0.1399994-0.5420074s-0.1000061-0.2709961-0.1000061-0.5420074
				s0.3999939-0.2720032,0.3999939-0.5429993s-0.0579987-0.2709961-0.0579987-0.5420074s-0.0820007-0.2720032-0.0820007-0.5429993
				s-0.1470032-0.272995-0.1470032-0.5449982s0.1549988-0.2720032,0.1549988-0.5440063
				c0-0.1929932-0.2440033-0.2910004-0.3339996-0.4470062c-0.0610962-0.1511536-0.1654663-0.2809143-0.3000031-0.3730011
				c-0.1560059-0.0910034-0.2810059-0.3179932-0.473999-0.3179932c-0.3840027,0-0.3840027,0.1929932-0.7689972,0.1929932
				c-0.1929932,0-0.3930054-0.1000061-0.548996-0.0059967s-0.1439972,0.3370056-0.2369995,0.5
				c-0.1062622,0.129364-0.1716919,0.287384-0.1880035,0.4539948c0,0.2640076-0.1620026,0.2640076-0.1620026,0.529007
				s0.0180054,0.2649994,0.0180054,0.529007s-0.1170044,0.2649994-0.1170044,0.529007s-0.022995,0.2649994-0.022995,0.5299988
				s0.1999969,0.2649994,0.1999969,0.5310059s-0.1829987,0.2649994-0.1829987,0.5310059s0.3500061,0.2649994,0.3500061,0.5299988
				s-0.0700073,0.2649994-0.0700073,0.5299988s-0.1000061,0.2649994-0.1000061,0.5299988s-0.2050018,0.2660065-0.2050018,0.5310059
				s0.1730042,0.2660065,0.1730042,0.5310059s-0.1529999,0.2660065-0.1529999,0.5310059s0.1000061,0.2649994,0.1000061,0.5310059
				s0.0220032,0.2649994,0.0220032,0.5310059s0.1759949,0.2660065,0.1759949,0.5310059s0.0590057,0.2660065,0.0590057,0.5319977
				s-0.1849976,0.2640076-0.1849976,0.529007s0.2120056,0.2649994,0.2120056,0.5310059s-0.3410034,0.2649994-0.3410034,0.5310059
				s0.1999969,0.2649994,0.1999969,0.5299988s-0.227005,0.2660065-0.227005,0.5319977s0.0850067,0.2660065,0.0850067,0.5319977
				s-0.1349945,0.2660065-0.1349945,0.5319977s0.1320038,0.2660065,0.1320038,0.5319977s0.1950073,0.2660065,0.1950073,0.5319977
				s-0.0700073,0.2660065-0.0700073,0.5330048s-0.1000061,0.2669983-0.1000061,0.5339966s0,0.2669983,0,0.5339966
				c0,0.1799927,0.2669983,0.3480072,0.276001,0.5249939s-0.0149994,0.3509979,0,0.526001s-0.1809998,0.3820038-0.154007,0.5559998
				s-0.0370026,0.378006,0,0.5509949s0.3630066,0.2799988,0.4100037,0.451004s-0.1080017,0.4060059-0.0509949,0.572998
				s0.3309937,0.2559967,0.3999939,0.4199982s0.0059967,0.3840027,0.0829926,0.5429993s0.3000031,0.2409973,0.3880005,0.3999939
				s0.2120056,0.2749939,0.3090057,0.423996s0.0310059,0.3999939,0.1380005,0.5469971s0.3679962,0.1529999,0.4839935,0.2879944
				s0.1710052,0.3119965,0.2949982,0.4400024s0.0399933,0.4759979,0.1730042,0.6000061s0.3339996,0.1699982,0.4750061,0.2799988
				s0.2649994,0.2519989,0.4120026,0.3529968s0.3350067,0.1490021,0.4889984,0.2409973s0.3829956,0.0410004,0.5420074,0.1230011
				s0.2330017,0.3390045,0.3999939,0.4120026s0.3000031,0.220993,0.470993,0.2839966s0.4389954-0.177002,0.6100006-0.1239929
				s0.2709961,0.3509979,0.4450073,0.3939972s0.4080048-0.1999969,0.5839996-0.1629944s0.3500061,0.0119934,0.5279999,0.0370026
				s0.3220062,0.2610016,0.5,0.2769928s0.3609924-0.0780029,0.5399933-0.0700073s0.352005,0.1349945,0.5319977,0.1349945
				s0.3500061-0.2310028,0.526001-0.2389984s0.3589935,0.0820007,0.5350037,0.0650024s0.3860016,0.1999969,0.5599976,0.1730042
				s0.3630066-0.0540009,0.5359955-0.0879974s0.3589935-0.0769958,0.5299988-0.1199951s0.2920074-0.2949982,0.4609985-0.3470001
				s0.3339996-0.1199951,0.5-0.1820068s0.3560028-0.0690002,0.5180054-0.1410065s0.4210052,0.0350037,0.5780029-0.0460052
				s0.1060028-0.5440063,0.2579956-0.6349945s0.3139954-0.147995,0.4600067-0.2489929s0.4089966-0.0379944,0.548996-0.147995
				s0.1490021-0.3699951,0.2819977-0.4880066s0.2180023-0.2700043,0.3419952-0.3999939s0.2779999-0.2129974,0.3939972-0.3480072
				s0.2850037-0.2169952,0.3919983-0.3600006s0.3110046-0.2149963,0.4080048-0.3650055s0.0800018-0.3659973,0.1679993-0.5220032
				s0.1329956-0.3240051,0.2100067-0.4859924s0.1439972-0.3159943,0.2120056-0.4819946s0.2059937-0.3000031,0.2640076-0.4660034
				s0.2129974-0.3070068,0.2599945-0.4799957s-0.1840057-0.4060059-0.1459961-0.5820007s0.2149963-0.3130035,0.2420044-0.4909973
				s0.0679932-0.345993,0.0859985-0.5249939s0.2160034-0.3419952,0.2250061-0.5220032s-0.2740021-0.3619995-0.2740021-0.5420074
				c0-0.2619934,0.2680054-0.2619934,0.2680054-0.5249939s0.0480042-0.2619934,0.0480042-0.5240021
				s-0.2859955-0.2619934-0.2859955-0.5240021s-0.0180054-0.2619934-0.0180054-0.5240021s-0.0549927-0.2610016-0.0549927-0.522995
				s0.1000061-0.2619934,0.1000061-0.5240021s-0.0119934-0.2619934-0.0119934-0.5249939s0.177002-0.2619934,0.177002-0.5249939
				s-0.0890045-0.2619934-0.0890045-0.5249939s-0.0899963-0.2619934-0.0899963-0.5240021s-0.0619965-0.2619934-0.0619965-0.5240021
				s0.2380066-0.2630005,0.2380066-0.526001s0.1360016-0.2619934,0.1360016-0.5249939s-0.1640015-0.2619934-0.1640015-0.5249939
				s-0.0279999-0.2619934-0.0279999-0.5249939s0.1239929-0.2630005,0.1239929-0.526001s-0.1260071-0.2619934-0.1260071-0.5249939
				s0.0619965-0.2619934,0.0619965-0.5249939s-0.1569977-0.2619934-0.1569977-0.5240021s-0.0469971-0.2630005-0.0469971-0.526001
				s-0.0659943-0.2619934-0.0659943-0.5240021s0.2799988-0.2630005,0.2799988-0.5249939s0.1000061-0.2630005,0.1000061-0.526001
				s-0.2640076-0.2630005-0.2640076-0.526001s-0.0549927-0.2630005-0.0549927-0.526001s0.0269928-0.2640076,0.0269928-0.5269928
				s0.2920074-0.2630005,0.2920074-0.526001s-0.3580017-0.2640076-0.3580017-0.5269928s0.1670074-0.2640076,0.1670074-0.529007
				s0.1000061-0.2640076,0.1000061-0.5279999c-0.0401001-0.6365662-0.525528-1.1555328-1.1580048-1.2380066"/>
			<path id="パス_2378_00000165221848393084120680000005646675288844829605_" class="st0" d="M113.367012,169.8960114
				l0.0490036,0.3509979l-0.0800018,0.3280029l-0.0329971,0.3399963l-0.2350006,0.2830048l-0.0820007,0.3220062l0.1800003,0.4320068
				l-0.4779968,0.1580048l0.0070038,0.3769989l-0.2109985,0.2649994l-0.2669983,0.2120056l-0.2429962,0.2140045v0.4819946
				l-0.4000015,0.0559998l-0.2539978,0.2180023l-0.2779999,0.1860046l-0.3209991,0.1089935l-0.2310028,0.2920074
				l-0.336998,0.0709991l-0.2850037,0.2200012l-0.3460007,0.0299988l-0.3170013,0.1439972l-0.3270035,0.1119995
				l-0.3550034-0.0749969l-0.3450012-0.0460052l-0.3320007,0.0690002l-0.3430023-0.1390076l-0.3359985,0.177002
				l-0.3310013-0.1000061l-0.3320007,0.2109985h-0.3310013l-0.3320007-0.0379944l-0.3320007-0.2259979l-0.3320007,0.0740051
				l-0.3320007,0.0149994l-0.3310013-0.1450043l-0.3330002,0.1390076l-0.3339996-0.0650024l-0.3339996,0.2319946
				l-0.3349991-0.0890045l-0.3199997-0.1179962l-0.3639984,0.0200043l-0.1299973-0.3999939l-0.439003-0.0220032
				l-0.1070023-0.3439941v-0.3450012l-0.0719986-0.3099976l0.0849991-0.326004l-0.2570038-0.3249969l0.0370026-0.3249969
				l0.0550003-0.3249969l-0.1360016-0.3249969l0.0319977-0.3249969l0.0299988-0.326004l0.0469971-0.3249969l0.1900024-0.326004
				l-0.2770004-0.326004l0.3069992-0.326004l-0.0279999-0.3269958l-0.3270035-0.3269958l0.1299973-0.3280029l0.0940018-0.3269958
				l0.0660019-0.3269958l0.0820007-0.326004l-0.1110001-0.326004l0.0719986-0.326004l-0.1259995-0.3269958l0.1520004-0.326004
				l-0.0619965-0.3269958l-0.2610016-0.3280029l0.3000031-0.3280029l-0.1419983-0.3269958l0.1480026-0.3280029l0.0169983-0.3269958
				l-0.2429962-0.3269958l0.2610016-0.3269958l-0.3460007-0.3280029l0.1200027-0.3280029l-0.0360031-0.3269958l-0.0360031-0.3280029
				l0.1689987-0.3280029l-0.2429962-0.3249969l0.1100006-0.3249969l0.026001-0.3269958l-0.0619965-0.3269958l-0.0579987-0.3289948
				l-0.0130005-0.3280029l0.1610031-0.3269958l0.0569992-0.3280029l-0.0429993-0.3289948l0.1269989-0.3280029l-0.0059967-0.3289948
				l-0.0189972-0.3289948l-0.0139999-0.3289948l-0.2450027-0.3289948l0.2350006-0.3280029l0.0749969-0.3300018l-0.0110016-0.3300018
				l-0.0139999-0.3320007l-0.2939987-0.3309937l0.0690002-0.3619995l0.2070007-0.3000031l0.0999985-0.3580017l0.336998-0.1629944
				l0.3570023-0.0359955l0.3000031-0.0599976l0.2919998-0.1889954l0.3310013-0.1349945l0.3320007,0.2250061l0.3320007-0.1670074
				l0.3310013,0.1690063l0.3330002-0.154007l0.3320007,0.0390015l0.3320007-0.0590057l0.3310013,0.177002l0.3330002,0.0330048
				l0.3330002,0.0399933l0.3349991-0.279007l0.3339996-0.0339966l0.3420029,0.0249939l0.3249969,0.2929993l0.3560028-0.2590027
				l0.3399963,0.0339966l0.3339996,0.0769958l0.2939987,0.2660065l0.3330002,0.0420074l0.3059998,0.1390076l0.3600006-0.0200043
				l0.2750015,0.2089996l0.3160019,0.1119995l0.3379974,0.0870056l0.3130035,0.1450043l0.137001,0.375l0.4120026,0.0379944
				l0.3000031,0.1929932l0.1999969,0.2640076l-0.0530014,0.4389954l0.4240036,0.1000061l-0.125,0.4360046l0.1299973,0.2799988
				l0.2409973,0.2369995l0.2249985,0.2570038l0.064003,0.3150024l-0.0999985,0.3560028l0.038002,0.3130035l0.2220001,0.2769928
				l0.1880035,0.2890015l0.0250015,0.3150024l0.3239975-0.0659943l0.3000031,0.052002l0.3079987-0.1589966h0.3050003
				l0.3079987,0.0220032l0.3310013,0.2480011l0.3150024-0.2299957l0.2919998-0.0339966l0.3440018-0.2079926l-0.0449982-0.3269958
				l-0.3919983-0.2709961l0.064003-0.3450012l-0.0110016-0.3339996l0.0589981-0.3549957l-0.4100037-0.2299957l0.2129974-0.4109955
				l-0.2369995-0.2709961l-0.1940002-0.2769928l-0.211998-0.2619934l-0.0530014-0.3339996l-0.1100006-0.3110046
				l-0.0210037-0.3730011l-0.288002-0.2100067l-0.1149979-0.3249969l-0.3600006-0.1349945l-0.2460022-0.2160034
				l-0.0579987-0.3999939l-0.4000015-0.0429993l-0.1600037-0.3000031l-0.1869965-0.2810059l-0.2630005-0.1900024
				l-0.3580017-0.0410004l-0.1930008-0.3000031l-0.3209991-0.0839996l-0.3259964-0.0599976l-0.2200012-0.2870026
				l-0.2529984-0.2389984l-0.3880005,0.125l-0.2639999-0.2259979l-0.2789993-0.2050018l-0.3190002-0.0749969l-0.3359985,0.0149994
				l-0.310997-0.1000061l-0.3580017,0.2400055l-0.3000031-0.1999969l-0.310997-0.1600037l-0.3379974,0.2709961l-0.3150024-0.1430054
				l-0.3219986,0.0709991l-0.3280258-0.0601501l-0.3259964-0.147995l-0.3270035,0.0359955l-0.3239975-0.0599976
				l-0.3249969,0.2350006l-0.3249969,0.0690002l-0.3270035-0.1719971l-0.3280029-0.1150055l-0.3270035-0.0149994
				l-0.3259964,0.0709991l-0.3259964,0.1349945l-0.3290024,0.0939941l-0.3270035-0.0749969l-0.3280029,0.1119995
				l-0.3280029-0.1629944l-0.3280029-0.1410065l-0.3280029,0.2859955l-0.3270035-0.1190033l-0.3290024-0.0870056
				l-0.3300018,0.0690002l-0.3300018-0.1430054l-0.3310013,0.2100067l-0.362999-0.2129974l-0.2389984,0.3419952
				l-0.3649979,0.0379944l-0.2570038,0.2369995l-0.0719986,0.352005l-0.3300018,0.253006l0.1679993,0.3710022l-0.1620026,0.3300018
				l0.3130035,0.3300018l-0.2429962,0.3300018l0.0370026,0.3269958l0.151001,0.3280029l-0.2649994,0.3280029l0.0999985,0.3280029
				l-0.1419983,0.3289948l0.3399963,0.3289948l-0.1240005,0.3300018l-0.1819992,0.3309937l0.1490021,0.3300018l0.1100006,0.3300018
				l-0.1589966,0.3289948l0.1579971,0.3300018l-0.1210022,0.3289948l-0.0709991,0.3280029l0.1389999,0.3289948l0.1100006,0.3280029
				l-0.0759964,0.3289948l-0.0930023,0.3280029l0.0749969,0.3289948l0.0090027,0.3289948l-0.1060028,0.3289948l0.1210022,0.3289948
				l-0.2529984,0.3300018l0.1110001,0.3300018l0.1110001,0.3309937l0.026001,0.3309937l-0.1709976,0.3300018l0.2340012,0.3300018
				l0.0139999,0.3300018l-0.0279999,0.3300018l-0.3259964,0.3289948l0.0650024,0.3300018l0.0479965,0.3300018l0.1819992,0.3309937
				l0.060997,0.3300018l-0.3280029,0.3320007l0.2850037,0.3309937l-0.2060013,0.3300018l-0.0889969,0.3309937l0.1900024,0.3300018
				l0.1070023,0.3309937l-0.1569977,0.329071l-0.1220016,0.3320007l-0.0279999,0.3309937L99.0720139,169.5l0.0370026,0.3309937
				l-0.1869965,0.3280029l0.0999985,0.3289948l0.0589981,0.3300018l-0.2689972,0.3309937l0.2829971,0.3320007l-0.1279984,0.3309937
				l-0.1139984,0.3309937l-0.0189972,0.3309937l0.1999969,0.3320007l-0.0370026,0.3320007l-0.0289993,0.3320007l0.0130005,0.3329926
				l-0.0210037,0.3329926l0.1360016,0.3320007l-0.2850037,0.3320007l0.0920029,0.3329926l-0.137001,0.3339996l0.2850037,0.3339996
				l-0.2649994,0.3350067l0.2929993,0.3000031v0.3350067l0.2939987,0.1840057l0.060997,0.3999939l0.2710037,0.2339935
				l0.3280029,0.1759949l0.3710022-0.3320007l0.3270035,0.0390015l0.3270035,0.0399933l0.3259964,0.2570038l0.3249969-0.1580048
				l0.3239975-0.0099945l0.3259964,0.1889954l0.3259964-0.0650024l0.3280029-0.0670013l0.3270035,0.0429993l0.3259964-0.029007
				l0.3270035,0.1239929l0.3280029-0.1710052l0.3270035,0.1000061l0.3280029-0.1150055l0.3280029-0.0410004l0.3280029-0.1150055
				l0.3280029,0.2140045l0.3280029-0.2230072l0.3280029,0.2420044l0.3300018,0.1199951l0.3300018-0.2859955l0.3310013,0.0679932
				l0.3249969,0.1580048l0.322998-0.052002l0.3099976-0.1999969l0.3310013,0.1000061l0.3000031-0.2189941l0.3290024,0.0509949
				l0.3560028,0.1600037l0.2460022-0.3869934l0.3740005,0.1779938l0.2900009-0.1609955l0.3199997-0.0639954l0.3280029-0.048996
				l0.2080002-0.3410034l0.4000015,0.1000061l0.1999969-0.3139954l0.2160034-0.2640076l0.3079987-0.1000061l0.3789978-0.0119934
				l0.1419983-0.348999l0.3259964-0.1049957l0.3180008-0.1300049l0.0879974-0.3739929l0.1190033-0.3249969l0.4810028-0.0149994
				l-0.0090027-0.4170074l0.1340027-0.2929993l0.439003-0.1080017l0.0660019-0.3379974l0.1080017-0.3090057l-0.0569992-0.378006
				l0.362999-0.1999969l0.1549988-0.2910004l-0.1340027-0.3869934l0.4000015-0.2149963l-0.1999969-0.3910065l0.0749969-0.3119965
				l0.3420029-0.2579956l-0.2639999-0.3809967l0.4000015-0.2610016l0.0199966-0.3280029l-0.1999969-0.3860016l-0.3339996,0.048996
				l-0.2789993,0.1109924l-0.3619995-0.0310059l-0.3659973-0.0149994l-0.3679962,0.0249939l-0.3639984-0.0870056
				l-0.4000015-0.1080017L113.367012,169.8960114z"/>
			<path id="パス_2379_00000030473754291853239590000002204387870656784290_" class="st0" d="M19.7200146,198.4060059v-4.6999969
				l-1.6210003,3.4299927h-0.7900009l-1.6599989-3.4299927v4.6999969h-1.0679998v-7.0370026h1.0679998l2.0549994,4.378006
				l2.0160007-4.378006h1.073v7.0370026H19.7200146z"/>
			<path id="パス_2380_00000106110833058839572970000007450125554738238122_" class="st0" d="M27.6860142,197.7110138
				c-0.490427,0.4941101-1.1619778,0.7655487-1.8579998,0.7510071c-0.6931648,0.0149841-1.3617878-0.2567444-1.8479996-0.7510071
				c-0.6920013-0.6920013-0.6819992-1.4730072-0.6819992-2.8269958s-0.0100021-2.1349945,0.6819992-2.8269958
				c0.4863815-0.4938965,1.1549835-0.7652435,1.8479996-0.75c0.6958961-0.0149231,1.3674698,0.2561646,1.8579998,0.75
				c0.6919994,0.6920013,0.671999,1.4730072,0.671999,2.8269958S28.3780136,197.0190125,27.6860142,197.7110138
				 M26.8760147,192.7000122c-0.5729084-0.579895-1.5074425-0.5855713-2.0873413-0.0126648
				c-0.0042458,0.0041962-0.0084648,0.0084229-0.0126591,0.0126648c-0.3470001,0.375-0.4160004,0.7709961-0.4160004,2.1840057
				s0.0690002,1.8079987,0.4160004,2.1840057c0.5752621,0.579895,1.5117054,0.5836639,2.0916042,0.0083923
				c0.0028114-0.0027771,0.0056076-0.0055847,0.0083961-0.0083923c0.3450012-0.3760071,0.4150009-0.7700043,0.4150009-2.1840057
				S27.2210159,193.0750122,26.8760147,192.7000122"/>
			<path id="パス_2381_00000143582718439970882400000010916951044739443894_" class="st0" d="M35.8190155,198.4060059v-4.6999969
				l-1.6210022,3.4299927h-0.7900009l-1.6599998-3.4299927v4.6999969h-1.0679989v-7.0370026h1.0680008l2.0550022,4.378006
				l2.0159988-4.378006h1.0680008v7.0370026H35.8190155z"/>
			<path id="パス_2382_00000110429220509066436700000004902958688040315524_" class="st0" d="M44.9930153,198.4060059v-4.6999969
				l-1.6209984,3.4299927H42.582016l-1.6600037-3.4299927v4.6999969h-1.0699997v-7.0370026h1.0680008l2.0550003,4.378006
				l2.0160027-4.378006h1.0680008v7.0370026H44.9930153z"/>
			<path id="パス_2383_00000157303275045138020940000011685277276476085157_" class="st0" d="M51.7220154,195.506012v2.8999939
				H50.655014v-2.8999939l-2.0999985-4.1410065h1.1660004l1.4720001,3.0930023l1.4729996-3.0930023h1.1669998L51.7220154,195.506012
				z"/>
			<path id="パス_2384_00000142176942355148034320000012190638930454059395_" class="st0" d="M65.4490128,197.6610107
				l-0.4350052,0.4450073l-2.7379951-2.7369995l-2.7269974,2.7369995l-0.4360008-0.4450073l2.7280006-2.727005l-2.7280006-2.7279968
				l0.4360008-0.4450073l2.7270012,2.7369995l2.737999-2.7369995l0.4350052,0.4340057l-2.7280045,2.7389984L65.4490128,197.6610107z
				"/>
			<path id="パス_2385_00000036934298638006376820000015073222877450220416_" class="st0" d="M75.9150162,198.4060059v-3.072998
				h-2.8560028v3.072998h-1.0660019v-7.0370026h1.0680084v3h2.8559952v-3h1.0660019v7.0370026H75.9150162z"/>
			<path id="パス_2386_00000111175478328694665780000008726210559194547106_" class="st0" d="M84.4930115,198.4060059
				l-0.4850006-1.4140015h-2.7769928l-0.4850006,1.4140015h-1.1350021l2.5780029-7.0370026h0.8610001l2.5800018,7.0370026
				H84.4930115z M82.6450119,192.9600067l-1.0999985,3.1230011h2.1640015L82.6450119,192.9600067z"/>
			<path id="パス_2387_00000108267635522779955750000017460993311235788164_" class="st0" d="M92.4780121,198.4060059
				l-3.2509995-4.9519958v4.9519958h-1.0680008v-7.0370026h0.9779968l3.2560043,4.9370117v-4.9420013h1.0680008v7.0419922
				H92.4780121z"/>
			<path id="パス_2388_00000075122764577097585480000014989677504799923842_" class="st0" d="M101.3140182,197.7400055
				c-0.4935684,0.4548798-1.1484909,0.693573-1.8190002,0.6629944h-2.4710007v-7.0369873h2.4689941
				c0.6704559-0.0314178,1.3255692,0.2070007,1.8190002,0.6620026c0.6145401,0.7973022,0.8718872,1.8132935,0.7109985,2.8070068
				c0.1594467,1.0228119-0.0965424,2.066925-0.7109985,2.8999939 M100.5800095,192.7940216
				c-0.309906-0.3282471-0.7493896-0.5022125-1.1999969-0.4750061h-1.2869949v5.1199951h1.2939987
				c0.4506073,0.0272064,0.8900909-0.146759,1.1999969-0.4750061c0.3536682-0.6516571,0.4856491-1.4007111,0.3759995-2.1340027
				c0-0.9689941-0.0110016-1.6309967-0.3759995-2.0359955"/>
			<path id="パス_2389_00000001623027424405121960000007811493840842851004_" class="st0" d="M110.2770157,198.4060059v-4.6999969
				l-1.6210022,3.4299927h-0.7900009l-1.6600037-3.4299927v4.6999969h-1.0679932v-7.0370026h1.0680008l2.0550003,4.378006
				l2.0159988-4.378006h1.0680008v7.0370026H110.2770157z"/>
			<path id="パス_2390_00000110429708925027651880000011324296209665095580_" class="st0" d="M119.0430145,198.4060059
				l-0.4840012-1.4140015h-2.7770004l-0.4889984,1.4140015h-1.1360016l2.5790024-7.0370026h0.8600006l2.5800018,7.0370026
				H119.0430145z M117.1930161,192.9560089l-1.0999985,3.1230011h2.1640015L117.1930161,192.9560089z"/>
			<path id="パス_2391_00000042700666707668098110000016009622630469659012_" class="st0" d="M126.8520126,197.7400055
				c-0.4935684,0.4548798-1.1484909,0.693573-1.8190002,0.6629944h-2.4710007v-7.0369873h2.4710007
				c0.6704559-0.0314178,1.3255692,0.2070007,1.8190002,0.6620026c0.6146545,0.7972412,0.8720093,1.8132935,0.7109985,2.8070068
				c0.1594467,1.0228119-0.0965424,2.066925-0.7109985,2.8999939 M126.1200104,192.7940216
				c-0.309906-0.3282471-0.7493896-0.5022125-1.1999969-0.4750061h-1.2939987v5.1199951h1.2939987
				c0.4506073,0.0272064,0.8900909-0.146759,1.1999969-0.4750061c0.3536682-0.6516571,0.4856491-1.4007111,0.3759995-2.1340027
				c0-0.9689941-0.0110016-1.6309967-0.3759995-2.0359955"/>
			<path id="パス_2392_00000099620910251508024070000007394969872627050151_" class="st0" d="M130.3800049,198.4060059v-7.0370026
				h4.5v0.9589996h-3.4289856v2.0549927h2.9249878v0.9499969h-2.9249878v2.1139984h3.4289856v0.9589996L130.3800049,198.4060059z"/>
			<path id="パス_2393_00000086672720073500806930000011193442866796619404_" class="st0" d="M145.5930176,197.6610107
				c-1.0371857,1.0467224-2.7220764,1.0685272-3.7859955,0.048996c-0.6909943-0.6920013-0.6819916-1.4730072-0.6819916-2.826004
				s-0.0090027-2.1349945,0.6819916-2.8269958c0.486084-0.4944763,1.1548004-0.7662354,1.8480072-0.7510071
				c1.2934418-0.0542755,2.4098511,0.8981628,2.5599976,2.1840057h-1.0769958
				c-0.1078339-0.7279205-0.7478027-1.2569733-1.4830017-1.2259979c-0.3909607-0.004715-0.7664032,0.152771-1.0370026,0.4349976
				c-0.3470001,0.375-0.4250031,0.7709961-0.4250031,2.1849976s0.0780029,1.8179932,0.4250031,2.1940002
				c0.2722015,0.278595,0.647583,0.4320679,1.0370026,0.423996c0.4359894,0.0110779,0.8550262-0.1690216,1.1470032-0.4929962
				c0.2541656-0.3112183,0.3813171-0.7069855,0.3560028-1.1080017v-0.394989h-1.5v-0.9100037h2.5709991v1.0769958
				c0.0706177,0.7211304-0.1582642,1.4396057-0.6329956,1.9869995"/>
			<path id="パス_2394_00000049927522725884076950000001572162446381938847_" class="st0" d="M153.0610199,197.7110138
				c-0.4904327,0.4941101-1.161972,0.7655487-1.8580017,0.7510071c-0.693161,0.0149841-1.3618011-0.2567444-1.8480072-0.7510071
				c-0.6920013-0.6920013-0.6820068-1.4730072-0.6820068-2.8269958s-0.0099945-2.1349945,0.6820068-2.8269958
				c0.4863892-0.4938965,1.1549835-0.7652435,1.8480072-0.75c0.6958923-0.0149231,1.3674774,0.2561646,1.8580017,0.75
				c0.6920013,0.6920013,0.6719971,1.4730072,0.6719971,2.8269958S153.7530212,197.0190125,153.0610199,197.7110138
				 M152.2510223,192.7000122c-0.574295-0.5785217-1.5088501-0.5819397-2.0873718-0.0076294
				c-0.0025482,0.002533-0.0050964,0.0050812-0.0076294,0.0076294c-0.3470001,0.375-0.4160004,0.7709961-0.4160004,2.1840057
				s0.0690002,1.8079987,0.4160004,2.1840057c0.5766449,0.5785217,1.5131073,0.5800323,2.0916138,0.0033875
				c0.0011292-0.0011292,0.0022583-0.0022583,0.0033875-0.0033875c0.3450012-0.3760071,0.4149933-0.7700043,0.4149933-2.1840057
				S152.5960083,193.0750122,152.2510223,192.7000122"/>
			<path id="パス_2395_00000045613656969428662480000000132322247961011624_" class="st0" d="M160.3840179,197.7110138
				c-0.4904327,0.4941101-1.161972,0.7655487-1.8580017,0.7510071c-0.693161,0.0149841-1.3618011-0.2567444-1.8480072-0.7510071
				c-0.6920013-0.6920013-0.6820068-1.4730072-0.6820068-2.8269958s-0.0099945-2.1349945,0.6820068-2.8269958
				c0.4863892-0.4938965,1.1549835-0.7652435,1.8480072-0.75c0.6958923-0.0149231,1.3674774,0.2561646,1.8580017,0.75
				c0.6920013,0.6920013,0.6719971,1.4730072,0.6719971,2.8269958S161.0760193,197.0190125,160.3840179,197.7110138
				 M159.5740204,192.7000122c-0.5729065-0.579895-1.5074463-0.5855713-2.0873413-0.0126648
				c-0.0042419,0.0041962-0.0084686,0.0084229-0.0126648,0.0126648c-0.3470001,0.375-0.4160004,0.7709961-0.4160004,2.1840057
				s0.0690002,1.8079987,0.4160004,2.1840057c0.5752563,0.579895,1.5117035,0.5836639,2.0915985,0.0084076
				c0.0028229-0.0027924,0.0056152-0.0056,0.0084076-0.0084076c0.3450012-0.3760071,0.4149933-0.7700043,0.4149933-2.1840057
				S159.9190063,193.0750122,159.5740204,192.7000122"/>
			<path id="パス_2396_00000042735057511163595770000007916309658776369337_" class="st0" d="M167.8660126,197.7400055
				c-0.4930878,0.4550018-1.1477509,0.6937561-1.8179932,0.6629944h-2.470993v-7.0369873h2.470993
				c0.6701813-0.031601,1.3250427,0.2068634,1.8179932,0.6620026c0.6153412,0.7969208,0.8731079,1.8131409,0.7120056,2.8070068
				c0.1596069,1.0229645-0.0967865,2.0672607-0.7120056,2.8999939 M167.1350098,192.7940216
				c-0.309906-0.3282471-0.7493896-0.5022125-1.1999969-0.4750061h-1.2940063v5.1199951h1.2940063
				c0.4506073,0.0272064,0.8900909-0.146759,1.1999969-0.4750061c0.3536682-0.6516571,0.4856567-1.4007111,0.3760071-2.1340027
				c0-0.9689941-0.0110016-1.6309967-0.3760071-2.0359955"/>
			<path id="パス_2397_00000070825375232565190920000006636330891448816019_" class="st0" d="M173.1630096,198.4610138
				c-0.9256287,0.068634-1.8350677-0.2703094-2.4900055-0.9279938l0.7109985-0.6999969
				c0.4751587,0.4727783,1.1313171,0.717392,1.8000031,0.6710052c0.9190063,0,1.4530029-0.3999939,1.4530029-1.0769958
				c0.0173645-0.2722015-0.0835876-0.5386658-0.2769928-0.7310028c-0.2145233-0.1862335-0.4870148-0.2922668-0.7709961-0.3000031
				l-0.8300018-0.1179962c-0.4922485-0.0468903-0.9582367-0.2437592-1.3350067-0.5639954
				c-0.3555298-0.3538971-0.5422974-0.8432159-0.5130005-1.3439941c-0.0015869-1.1487579,0.9283752-2.0812836,2.0771332-2.0828552
				c0.0919189-0.0001373,0.1837463,0.0058289,0.2748718,0.0178528c0.8072205-0.0462036,1.5976257,0.2433167,2.1840057,0.8000031
				l-0.6820068,0.6719971c-0.4149933-0.3828735-0.9684753-0.579422-1.5319977-0.5440063
				c-0.8300018,0-1.2850037,0.4750061-1.2850037,1.1000061c-0.0115509,0.2462769,0.0865784,0.4850311,0.2680054,0.6519928
				c0.2277222,0.1803131,0.5013885,0.2932587,0.7899933,0.326004l0.8000031,0.1190033
				c0.4820251,0.034256,0.9415131,0.2173615,1.3150024,0.5240021c0.394043,0.3731689,0.6033478,0.9011993,0.5720062,1.4429932
				c0,1.2940063-1.0570068,2.0650024-2.5299988,2.0650024"/>
			<path id="パス_2398_00000178918668996229490890000001628894128981197239_" class="st0" d="M128.3540039,104.8280106
				c-0.1559296-1.2185211-0.7375107-2.34272-1.6419907-3.1740036c-1.4923935,0.2261658-2.919632,0.767128-4.1869965,1.586998
				c-1.1511536,0.6588364-2.3517685,1.227211-3.5910034,1.6999969c-1.4830017,0.5390015-3.0859985,1.0059967-4.6340027,1.4589996
				c-1.4449997,0.4209976-2.8089981,0.8199997-4.0630035,1.2649994c-4.1949997,1.5594254-8.6581955,2.2691803-13.1299973,2.0879974
				c-5.4567108-0.1599808-10.729538-2.008194-15.0920029-5.2900009l-0.1839981-0.1360016l-0.1569977-0.1660004
				c-0.4240036-0.4499969-0.8209991-0.8349991-1.1880035-1.1920013c-2.144722-1.7322311-3.4791718-4.2730331-3.6880035-7.0220032
				c-0.110939-0.4140015-0.2696762-0.8136902-0.4729919-1.1910019c-0.1730042-0.3679962-0.3480072-0.7419968-0.5-1.1259995
				l-0.1170044-0.3759995c-0.3524704-1.5697708-0.6152267-3.1583481-0.7870026-4.7580032
				c-0.5479965-6.1470032,0.6310043-9.5080032,4.8550034-13.8330002c5.1259995-5.2480011,11.8580017-7.2109985,17.7649994-8.6389999
				l0.447998-0.1090012l0.3069992,0.0360031c0.1689987-0.0179977,0.4869995-0.0670013,0.689003-0.0999985
				c0.4000015-0.0619965,0.711998-0.1090012,0.9929962-0.1340027c1.2521973-0.3101273,2.4036865-0.9368362,3.3440018-1.8199997
				l0.1299973-0.0900002c0.1750031-0.1160011,0.3300018-0.2150002,0.4690018-0.2999992l0.0619965-0.0390015
				c0.0370026-0.2109985,0.0739975-0.4570007,0.0910034-0.5680008c0.1401367-0.6960793,0.2134705-1.4039536,0.2190094-2.1139755
				c0.0210037-0.2589989,0.0400009-0.5,0.0749969-0.7799988c-0.2949982-0.2849998-0.8619995-0.7190018-1.3379974-1.0820007
				c-0.2333374-0.1779976-0.4786682-0.3666687-0.7360001-0.5660019c-0.6259995-0.1419983-1.0439987-0.2639999-1.3949966-0.368
				c-0.590538-0.1824493-1.1963272-0.3113022-1.8099976-0.3849983c-0.9116745-0.0955276-1.8288116-0.1286049-2.7450027-0.098999
				c-3.3711014-0.2298241-6.6452637-1.2261314-9.572998-2.913002c-0.8000031-0.5390015-1.6210022-1.0429993-2.4909973-1.5769997
				c-0.677002-0.4150009-1.3529968-0.8310013-2.0189972-1.262001c-2.5680008-1.6640015-4.1060028-4.0270004-5.5940018-6.3110008
				l-0.3240051-0.5c-2.5299988-3.8639984-2.4869995-6.6949997-3.3409958-11.0999985
				c-0.534996-2.757,1.4339981-7.9430008,3.5660019-10.3810005c1.2897797-1.4239502,2.7125702-2.7215042,4.2490005-3.875
				c1.0181351-0.7791462,1.9926071-1.6137409,2.9189987-2.5c2.385849-2.5648336,5.8610916-3.8233814,9.3359909-3.3809977
				c1.2521896,0.1307802,2.5112076,0.1848812,3.7699966,0.1619997c0.526001,0,1.0510025,0,1.5739975,0.0139999
				c2.4838028,0.0819378,4.8546448,1.0573292,6.6770096,2.7470016c1.1513672,0.9204102,2.4738998,1.6032581,3.8909988,2.0089989
				c1.8432541,0.5749054,3.5791779,1.4496231,5.1380005,2.5890007c0.366127,0.0913563,0.7389832,0.1532211,1.1149979,0.1849995
				c0.2080002,0.0230007,0.4150009,0.0400009,0.6210022,0.0580006c1.406517,0.0255489,2.7810211,0.4241314,3.9830017,1.1550007
				c0.7511978-0.8074284,1.3924179-1.7105789,1.9069977-2.6860008c0.2399979-0.3999996,0.4789963-0.8059998,0.7300034-1.2000008
				c0.3594513-0.5439625,0.7820663-1.0434399,1.2590027-1.4880009c0.1100006-0.1099987,0.2509995-0.2479992,0.3389969-0.3470001
				c-0.0146942-0.7426071-0.0879211-1.4829025-0.2190018-2.2139988c-0.1272736-0.7658644-0.2137299-1.5379543-0.2590027-2.3129997
				c-0.0005722-0.029582-0.0039139-0.0590448-0.0100021-0.0880003c-0.3118896-0.2672024-0.650322-0.5017595-1.0100021-0.6999998
				c-0.4000015-0.2449999-0.8539963-0.5229998-1.3130035-0.8690004c-0.1159973-0.0880003-0.2490005-0.1689997-0.3809967-0.2519999
				c-0.90522-0.484169-1.642067-1.2318239-2.112999-2.1440001c-0.6363144-1.1168723-1.6044006-2.0080686-2.7699966-2.5500002
				c-1.6035309-0.8781867-3.3370285-1.4946175-5.1350021-1.826c-0.887001-0.2149999-1.8000031-0.438-2.7929993-0.734
				c-0.4410019-0.131-0.8820038-0.2690001-1.3249969-0.4070001c-1.7030182-0.6135664-3.4720917-1.0253768-5.2710037-1.2269996
				c-0.678093-0.010932-1.3558044,0.0389342-2.0250015,0.149c-1.7359848,0.3328714-3.5256653,0.2565179-5.2269974-0.223
				c-0.1169968,0.03-0.2580032,0.069-0.3649979,0.1c-0.5857391,0.1827143-1.1890488,0.3033768-1.8000031,0.36
				c-2.0148926,0.1325223-4.0190887,0.3954051-6,0.7869999c-2.2173157,0.541455-4.372757,1.3105381-6.4319992,2.2949998
				c-0.7720032,0.3340001-1.5419998,0.6680002-2.3160019,0.9820004c-0.4000015,0.164-0.8240051,0.316-1.25,0.4689999
				c-0.8257294,0.2241998-1.6046753,0.5943685-2.3000031,1.0929999c-0.8562164,0.9388986-1.7667847,1.8267579-2.7269974,2.6589999
				c-1.448555,1.1345959-2.6719437,2.5302925-3.6070023,4.1149998c-0.6499481,1.2350845-1.4022522,2.4135408-2.2489929,3.5229998
				c-0.5330048,0.7380009-1.0360031,1.4349995-1.4530029,2.1399994c-0.2080002,0.3519993-0.4239998,0.7059994-0.6409988,1.0610008
				c-0.8667679,1.247385-1.5409775,2.6180515-2,4.066c-0.8245659,3.4908428-1.3187447,7.0515461-1.4760017,10.6350002
				c-0.0159988,0.3740005-0.0400009,0.7519989-0.0629997,1.1310005c-0.2009048,1.3615685-0.1040115,2.750515,0.2840004,4.0709991
				c0.5999985,1.5250015,1.0919991,3.0740013,1.5639992,4.572998c0.3740005,1.1889992,0.7280006,2.3120003,1.1339989,3.4210014
				c0.4580498,1.4707375,1.2930489,2.7959824,2.4220009,3.8440018c1.1700592,1.0109329,1.9692688,2.3834343,2.2709961,3.9000015
				c0.1620026,0.6380005,0.1620026,0.6380005,0.5700073,0.8610001c0.4577789,0.2383919,0.8908844,0.5214348,1.2929993,0.8450012
				c0.3084717,0.2356262,0.6417847,0.436821,0.9939957,0.5999985l3.8669968,2.0359993l-3.6469879,2.4129982
				c-0.2940063,0.1940002-0.5360031,0.3650017-0.7470093,0.5140038c-0.4681702,0.3535004-0.9706955,0.6590347-1.5,0.9119949
				c-0.3483658,0.1390915-0.6605682,0.3555374-0.9129944,0.6330032c-0.4466553,0.4370651-0.9300995,0.8348694-1.4449997,1.1889954
				c-0.9410019,0.6470032-1.2890015,1.0490036-1.8089981,3.3470001l-0.0810013,0.2819977
				c-0.1854362,0.5086441-0.281189,1.0456085-0.2830009,1.586998c0.0317802,1.1619873-0.3784943,2.2927475-1.1479988,3.1640015
				c0,0.0650024,0.0079994,0.1279984,0.012001,0.1839981c0.0769997,1.1549988,0.1730003,2.5930023-0.9199982,3.6500015
				c-0.882,0.8539963-1.1220016,2.0159988-1.257,3.8610001c-0.1160011,1.5800018-0.2770004,3.1640015-0.4339981,4.6999969
				l-0.1469994,1.4580002c-0.3130875,1.7018204-0.218853,3.4535904,0.2750015,5.1119995
				c0.0789986,0.1999969,0.1599998,0.4000015,0.2410011,0.6050034c0.4023972,0.9253387,0.7245789,1.883522,0.9630013,2.8639984
				c0.3090057,1.7451782,1.0652847,3.3804016,2.1949997,4.7460022c1.081337,1.5779953,2.1556625,3.1610031,3.2229996,4.7490005
				c1.4089966,2.0879974,2.8190002,4.1750031,4.2509995,6.2470016l0.0400009,0.0329971
				c4.2533875,1.3086395,8.2705994,3.2878723,11.9000015,5.862999c2.8150024,1.8539963,6.1809998,2.8199997,10.5999985,3.0419998
				c1.3178787,0.1340332,2.6492615,0.003479,3.9160004-0.3840027c1.7424545-0.6744385,3.6120834-0.9568024,5.4759979-0.8270035
				c3.2109985,0.0950012,6.6100006-0.0419998,9.7109985-1.6070023c0.7539368-0.357872,1.542778-0.6370163,2.3540039-0.8330002
				c0.1750031-0.0479965,0.3499985-0.0999985,0.5230026-0.1460037c0.8333511-0.2285156,1.6813202-0.39991,2.538002-0.5130005
				c1.7770004-0.2750015,2.7450027-0.461998,3.6090012-1.4189987c1.3525848-1.3362732,2.954155-2.3942413,4.7139969-3.1139984
				c0.7085724-0.3260193,1.4001312-0.6878204,2.071991-1.0839996c0.7770081-0.4810028,0.8630066-0.5999985,0.6520081-1.5920029
				c-0.4090424-1.9312592-0.5823059-3.9050064-0.5159912-5.8779984"/>
			<path id="パス_2399_00000155867361124237415880000008832261621922277249_" class="st0" d="M156.6740112,108.5390091
				c-0.9889984,0.3160019-1.3999939,1.3440018-2.0330048,2.0250015c-0.69664,0.5645218-1.6045227,0.7977905-2.4869995,0.6389999
				c-0.9103851-0.3538055-1.8985138-0.4590683-2.8630066-0.3050003c-0.6511383,0.1508026-1.2756042,0.3996429-1.852005,0.737999
				c-0.5322418,0.4172134-0.9894562,0.9221191-1.352005,1.4930038c-0.3589935,0.5490036-0.0639954,1.3450012-0.1679993,1.9670029
				c-0.1505127,0.5850677-0.1484528,1.1989594,0.0059967,1.7829971c0.1089935,0.3440018,0.4490051,0.4860001,0.6369934,0.7789993
				c0.2967682,0.4839554,0.6878662,0.9032745,1.1499939,1.2330017c0.4210815,0.4114304,0.901825,0.7569809,1.4259949,1.0250015
				c0.552002,0.2210007,1.0119934,0.8639984,1.6459961,0.9700012c0.6171875,0.1938705,1.2503204,0.3327484,1.8919983,0.4150009
				c0.6000061-0.0059967,1.1499939-0.9449997,1.779007-1.0500031c0.6000061-0.0999985,1.4140015,0.6159973,2.0189972,0.4229965
				s0.973999-1.0130005,1.5169983-1.276001c1.1428375-0.5189438,2.2511139-1.1108322,3.3179932-1.7720032
				c0.4559937-0.4550018,0.1000061-1.5,0.4190063-2c0.3500061-0.5429993,1.6000061-0.6309967,1.7680054-1.1999969
				c0.1840057-0.6090012-0.1889954-1.3649979-0.2330017-1.9720001c-0.0149994-0.3479996-0.3529968-0.6070023-0.4620056-0.9499969
				c-0.1636505-0.579689-0.4735718-1.1075821-0.8999939-1.5329971c-0.4515839-0.3957596-0.9849243-0.6870117-1.5619965-0.8529968
				c-0.5478821-0.2494812-1.1385803-0.3913879-1.7400055-0.4179993c-0.6179962-0.0100021-1.2940063-0.3600006-1.9290009-0.1579971"
				/>
			<path id="パス_2400_00000057127311351488641750000001544786189521448103_" class="st0" d="M186.4480133,152.4670105
				c1.9078674-0.0325165,3.4808502,1.4877625,3.5133667,3.3956299s-1.4877625,3.4808502-3.3956299,3.5133667
				c-0.0392456,0.0006714-0.0784912,0.0006714-0.1177368,0c-0.6099854,0.0033875-1.2098846-0.1557312-1.7380066-0.4609985
				c-1.651886-0.9573517-2.21492-3.0725403-1.2575684-4.7244263
				C184.0715179,153.122345,185.2133484,152.4653778,186.4480133,152.4670105 M186.4480133,153.0400085
				c-1.594986-0.0051117-2.8921204,1.2837372-2.8972321,2.8787384c-0.0051117,1.594986,1.2837372,2.8921204,2.8787231,2.8972321
				c1.5950012,0.0051117,2.8921356-1.2837372,2.8972473-2.8787384c0.0024567-0.7690735-0.3019409-1.50737-0.8457336-2.051239
				C187.9487457,153.3361053,187.2132568,153.0300446,186.4480133,153.0400085 M185.6640167,157.7810059h-0.6000061v-3.7189941
				h1.2890015c0.32547-0.016983,0.6515198,0.0198364,0.9649963,0.1089935c0.1847076,0.068634,0.3426971,0.194397,0.451004,0.3589935
				c0.1097412,0.1572723,0.1690369,0.344223,0.1699982,0.5359955c0.0054016,0.2714539-0.1034546,0.5326996-0.3000031,0.7200012
				c-0.2064514,0.1994171-0.478302,0.3170319-0.7649994,0.3309937c0.1524353,0.0648346,0.2889252,0.1620941,0.3999939,0.2850037
				c0.1752472,0.2040253,0.3325043,0.4228516,0.4700012,0.654007l0.4490051,0.7250061h-0.7330017l-0.326004-0.5829926
				c-0.1476593-0.2956543-0.3358002-0.5692902-0.5590057-0.8130035c-0.1531219-0.1294708-0.3497162-0.1959686-0.5500031-0.1860046
				h-0.3580017L185.6640167,157.7810059z M185.6640167,154.5670013v1.1179962h0.7339935
				c0.2356415,0.016983,0.4715271-0.0296326,0.6829987-0.1349945c0.1446075-0.0925598,0.227066-0.2567291,0.2149963-0.4279938
				c0.0169067-0.1715698-0.0633392-0.3382263-0.2079926-0.4320068c-0.2318115-0.0997772-0.4843292-0.141983-0.7359924-0.1230011
				H185.6640167z"/>
		</g>
	</g>
</g>
</svg>
