<?xml version="1.0" encoding="utf-8"?>
<!-- Generator: Adobe Illustrator 27.5.0, SVG Export Plug-In . SVG Version: 6.00 Build 0)  -->
<svg version="1.1" xmlns="http://www.w3.org/2000/svg" xmlns:xlink="http://www.w3.org/1999/xlink" x="0px" y="0px" width="220px"
	 height="228px" viewBox="0 0 220 228" style="enable-background:new 0 0 220 228;" xml:space="preserve">
<style type="text/css">
	.st0{fill:#FFFFFF;}
</style>
<g id="レイヤー_1">
	<g id="レイヤー_1_00000089574885430322460330000005128841763674020251_">
	</g>
</g>
<g id="グループ_1361_00000017500352217629638090000004065167557976352134_">
	<g>
		<g id="グループ_1359_00000003062801406647034130000014795214654864657035_">
			<path id="パス_2261_00000117662657289419829870000015278232645900041626_" class="st0" d="M31.0589943,187.8280029
				c-0.3139992,0-0.3139992,0-0.6289978,0c-0.2200012,0-0.5230007-0.1640015-0.7000008-0.0599976
				s-0.1590004,0.4730225-0.2670002,0.65802s-0.4759998,0.3379822-0.4759998,0.5599976
				c0,0.3179932,0.4669991,0.3179932,0.4669991,0.6369934c0,0.2209778-0.1139984,0.3930054-0.0119991,0.571991
				c0.1019993,0.1790161,0.118,0.5130005,0.3000011,0.6199951c0.2215462,0.0717468,0.4567566,0.0909119,0.6870003,0.0559998
				c0.2999992,0,0.2999992,0.1480103,0.5919991,0.1480103l0.1079998,0.0289917c0.3000011,0,0.3000011-0.4119873,0.5939999-0.4119873
				s0.2999992,0.3849792,0.593998,0.3849792c0.2940025,0,0.3000031-0.1369934,0.6000023-0.1369934
				s0.2999992-0.2999878,0.6000023-0.2999878c0.1949997,0,0.2439957,0.4570007,0.3719978,0.5849915
				c0.1280022,0.1280212,0.5529976,0.178009,0.5529976,0.3720093c0,0.3459778-0.310997,0.3459778-0.310997,0.690979
				s0.159996,0.3450012,0.159996,0.6910095c0,0.1999817-0.0550003,0.394989-0.060997,0.5839844
				c-0.0060043,0.1889954-0.0660019,0.3910217-0.0800018,0.5800171s0.2000008,0.42099,0.1709976,0.6080017
				c-0.0289993,0.1869812-0.0179977,0.4100037-0.0529976,0.6000061s-0.5659981,0.269989-0.6150017,0.4539795
				c-0.048996,0.1839905,0.0320015,0.3999939-0.0339966,0.585022c-0.0660019,0.1849976,0.0839996,0.4559937,0.0049973,0.6309814
				c-0.0790024,0.1750183-0.5090027,0.1690063-0.5999985,0.3370056c-0.0910034,0.1679993-0.0300026,0.4230042-0.1389999,0.5840149
				c-0.1090012,0.1609802-0.0650024,0.4360046-0.1870041,0.5910034c-0.1219978,0.1549988-0.3419991,0.2339783-0.4779968,0.3739929
				c-0.1360016,0.1399841-0.151001,0.427002-0.3000031,0.5559998c-0.1489983,0.1289978-0.3179989,0.2599792-0.4749985,0.3760071
				c-0.1570015,0.1159973-0.5440006-0.1000061-0.7089996,0.0059814c-0.1650009,0.1060181-0.257,0.3280029-0.4309998,0.4170227
				c-0.1739998,0.0889893-0.3290005,0.2269897-0.5100021,0.2999878c-0.1809998,0.072998-0.4319992-0.0529785-0.6189995,0.007019
				s-0.3390007,0.2129822-0.5299988,0.2590027c-0.1910019,0.04599-0.406002-0.105011-0.6000023-0.0750122
				s-0.3689995,0.0410156-0.5659981,0.0559998c-0.1970005,0.0150146-0.3710022,0.2189941-0.5690002,0.2189941
				c-0.2130013,0-0.4110012-0.1239929-0.6220016-0.1409912c-0.2109985-0.0170288-0.4230003,0.0350037-0.6299992,0
				s-0.3999996-0.1180115-0.6060009-0.1710205c-0.2059994-0.053009-0.3729992-0.1799927-0.572998-0.25
				c-0.2000008-0.0700073-0.5440006,0.2149963-0.7370014,0.1270142c-0.1929989-0.0880127-0.348999-0.2780151-0.532999-0.3829956
				c-0.184-0.105011-0.2639999-0.3770142-0.4379997-0.5c-0.1740017-0.1230164-0.4880009-0.0630188-0.651001-0.2000122
				s-0.1000004-0.5119934-0.2539997-0.6629944c-0.1540012-0.151001-0.4400005-0.1369934-0.566-0.2869873
				c-0.1259995-0.1500244-0.3299999-0.2650146-0.4420013-0.427002c-0.1119995-0.1620178-0.322998-0.2940063-0.4189987-0.4700012
				s0.0489998-0.473999-0.0279999-0.6620178c-0.0769997-0.1879883-0.0149994-0.3999939-0.0760002-0.6000061
				s-0.257-0.3320007-0.3000011-0.5329895c-0.0429993-0.2010193-0.0189991-0.3999939-0.0539989-0.6000061
				s-0.3150005-0.3540039-0.3409996-0.5599976c-0.0250015-0.1900024,0.2109985-0.4190063,0.1919994-0.6260071
				c-0.0170002-0.1910095,0.1240005-0.3999939,0.1110001-0.6060181c-0.0130005-0.2059937-0.375-0.3699951-0.3840008-0.5749817
				c-0.0089989-0.2050171,0.3560009-0.4070129,0.3490009-0.6119995c-0.007-0.2050171-0.0330009-0.3900146-0.0380001-0.6000061
				c-0.0050011-0.210022-0.335001-0.3880005-0.3380013-0.5930176c-0.0029984-0.2049866,0.1700001-0.3999939,0.1680012-0.6000061
				c-0.0020008-0.2000122-0.012001-0.3999939-0.0139999-0.6000061c-0.0020008-0.2000122,0.0229988-0.3999939,0.0229988-0.6000061
				s-0.3179989-0.3999939-0.3179989-0.6000061s0.0240002-0.3999939,0.0249996-0.6000061s0.2269993-0.3999939,0.2269993-0.6000061
				s0.2080002-0.3999939,0.210001-0.6000061s-0.4060001-0.4109802-0.3999996-0.6059875
				c0.0059986-0.1950073,0.157999-0.3999939,0.1639996-0.6000061s0.0669994-0.3999939,0.0739994-0.6000061
				s0.2000008-0.3999939,0.2119999-0.5899963c0.012001-0.1900024-0.1089993-0.4100037-0.1000004-0.6000061
				c0.0090008-0.1900024,0.217001-0.3869934,0.2330017-0.5800171c0.0159988-0.1929932-0.4300003-0.4559937-0.4080009-0.6470032
				c0.026001-0.2059937,0.448-0.3469849,0.4810009-0.5369873c0.032999-0.1900024,0.1000004-0.3829956,0.1399994-0.5700073
				c0.0459995-0.2000122-0.2870007-0.5-0.2299995-0.6809998c0.0569992-0.1809998,0.3500004-0.3120117,0.4229984-0.4920044
				c0.0977669-0.1722107,0.2045841-0.3391113,0.3200016-0.5c0.0779991-0.1803284,0.1657963-0.3562622,0.2629986-0.5270081
				c0.1120014-0.1629944,0.2310009-0.3139954,0.3600006-0.4679871c0.1290016-0.1540222,0.2070007-0.3420105,0.3509998-0.4859924
				c0.144001-0.1440125,0.3999996-0.1849976,0.5620003-0.3200073s0.289999-0.3059998,0.4639988-0.4259949
				s0.3470001-0.2350159,0.531002-0.3399963c0.1839981-0.105011,0.4440002-0.0310059,0.6369991-0.1190186
				c0.1929989-0.0879822,0.3129997-0.3190002,0.5130005-0.3899841c0.2000008-0.0710144,0.3210011-0.4190063,0.5270004-0.4720154
				c0.2059994-0.0529785,0.4950008,0.2879944,0.7059994,0.2520142c0.2110023-0.0360107,0.3790016-0.3600159,0.5909996-0.3780212
				c0.2120018-0.0180054,0.4330006,0.2050171,0.6459999,0.2050171c0.2000008,0,0.4099998-0.3399963,0.6080017-0.32901
				c0.197998,0.0110168,0.3999977,0.1289978,0.5999985,0.1499939s0.3470001,0.3569946,0.5430012,0.3910217
				c0.1960011,0.0339966,0.441-0.1849976,0.6340008-0.1369934c0.1929989,0.0480042,0.4319992-0.0209961,0.6209984,0.0429993
				c0.1890011,0.0639954,0.2089996,0.5539856,0.3910007,0.6340027c0.1820011,0.0799866,0.4549999-0.0540161,0.6299992,0.0429993
				c0.1750011,0.0969849,0.3070011,0.2519836,0.4729996,0.3649902c0.1660004,0.1130066,0.4000015,0.1239929,0.5550003,0.2520142
				c0.1550026,0.1279907,0.0830002,0.4839783,0.2270012,0.6260071c0.144001,0.1419983,0.3829994,0.1609802,0.5139999,0.3150024
				c0.1310005,0.1539917,0.4440002,0.1569824,0.5620003,0.3209839s-0.0160027,0.4840088,0.0909996,0.6570129
				s0.3430023,0.2529907,0.4370003,0.4329834s0.2929993,0.3000183,0.3780022,0.4869995
				c0.0849991,0.1870117-0.2060013,0.5110168-0.1310043,0.7000122c0.1590042,0.4140015,0.7300034,0.4320068,0.8889999,0.4429932
				c0.0699997-0.0859985-0.1999969-0.0710144-0.0839996-0.0710144c0.1160049,0,0.0730019-0.1269836,0.0770035-0.0149841
				l-0.0730019-0.1830139c0.2770004-0.0059814,0.2410011,0.3359985,0.5590019,0.3300171
				c0.1709976,0,0.3619995-0.0750122,0.5559998-0.07901s0.3889999,0.1280212,0.5589981,0.125
				c0.2669983-0.0050049,0.4749985-0.2999878,0.5510025-0.2999878c0.0759964,0,0.1389999-0.0339966,0.2579956-0.1889954
				c0.0870018-0.1119995,0.413002-0.2000122,0.3720016-0.3710022c-0.0349998-0.210022-0.5-0.3210144-0.5459976-0.5209961
				c-0.0460014-0.2000122,0.1100006-0.4550171,0.0479965-0.6520081c-0.0619965-0.196991-0.0379982-0.4329834-0.1139984-0.625
				c-0.0760002-0.1919861-0.4410019-0.2579956-0.5309982-0.4440002c-0.090004-0.1860046-0.0139999-0.4549866-0.1170044-0.6340027
				c-0.1029968-0.1789856-0.1999969-0.3659973-0.3149986-0.5369873c-0.1150017-0.1710205-0.3460007-0.2550049-0.4770012-0.4179993
				c-0.1309967-0.1629944-0.0909958-0.4660034-0.2299957-0.6190186c-0.1389999-0.1529846-0.413002-0.177002-0.564003-0.3200073
				c-0.1509972-0.1430054-0.1569977-0.4530029-0.3180008-0.5849915c-0.1609993-0.132019-0.4759979-0.0630188-0.6449966-0.1860046
				c-0.1690025-0.1230164-0.1809998-0.4790039-0.3560028-0.5899963s-0.5,0.0189819-0.6790009-0.0820007
				c-0.1790009-0.1010132-0.2719994-0.381012-0.4599991-0.4710083s-0.4239998-0.0809937-0.6149998-0.1609802
				c-0.191-0.0800171-0.3490009-0.2600098-0.546999-0.32901c-0.1980019-0.0690002-0.3910007-0.1600037-0.592001-0.2200012
				s-0.4300003-0.0149841-0.6330013-0.0639954c-0.2029991-0.0489807-0.4539986,0.1459961-0.657999,0.1069946
				s-0.3999996-0.0549927-0.6079998-0.0849915c-0.2080002-0.0300293-0.3850002-0.2420044-0.5919991-0.2619934
				c-0.2070007-0.019989-0.4000015-0.3179932-0.6060009-0.3280029s-0.4289989,0.065979-0.6369991,0.065979
				s-0.4140015,0.0290222-0.618,0.0400085c-0.2040024,0.0109863-0.4000015,0.1839905-0.6000023,0.2059937
				c-0.2000008,0.0219727-0.3999977,0.04599-0.5999985,0.0789795s-0.4550018-0.1749878-0.6540012-0.1309814
				s-0.3490009,0.3070068-0.5450001,0.3619995s-0.4710007-0.1170044-0.6639996-0.0509949
				c-0.1930008,0.0660095-0.3210011,0.3309937-0.5080013,0.4079895c-0.1869984,0.0770264-0.2549992,0.4190063-0.4389992,0.507019
				c-0.184,0.0879822-0.448,0-0.6269989,0.1000061c-0.1790009,0.1000061-0.4330006,0.0700073-0.6060009,0.1779785
				c-0.1730003,0.1080017-0.1669998,0.4810181-0.3319988,0.6000061c-0.1650009,0.1190186-0.4620018,0.0549927-0.6210003,0.1820068
				c-0.1590004,0.1270142-0.1900005,0.3999939-0.342001,0.5370178c-0.1520004,0.1369934-0.3209991,0.2399902-0.4659996,0.3849792
				s-0.3479996,0.2420044-0.4839993,0.3919983s-0.448,0.1740112-0.573,0.3320007
				c-0.125,0.15802-0.3000011,0.3179932-0.4099998,0.4859924c-0.1100006,0.1679993-0.1060009,0.4370117-0.2080002,0.6140137
				c-0.1020012,0.177002-0.0150013,0.4570007-0.1000004,0.6430054c-0.085001,0.1860046-0.1070004,0.3869934-0.1809998,0.5809937
				c-0.0740013,0.1940002-0.5570011,0.2449951-0.6170006,0.4450073s0.2280006,0.4880066,0.1779995,0.6929932
				c-0.0499992,0.2049866-0.2099991,0.3699951-0.2479992,0.5780029s-0.1219997,0.394989-0.151001,0.6000061
				c-0.0289993,0.2049866,0,0.4119873-0.0179996,0.6229858s-0.0380001,0.4070129-0.0550003,0.6180115
				s0.0550003,0.4119873,0.0440006,0.6239929c-0.0109997,0.2119751-0.1000004,0.3999939-0.1119995,0.6139832
				c-0.012001,0.2140198-0.1650009,0.3999939-0.1700001,0.6150208c-0.0050011,0.2149963,0.1689987,0.4119873,0.164999,0.6239929
				c-0.0039997,0.2119751,0.1650009,0.4100037,0.1630001,0.6219788c-0.0019989,0.2120056-0.3330002,0.4070129-0.3330002,0.6180115
				s-0.0089989,0.4100037-0.0089989,0.6210022s0.355999,0.4109802,0.355999,0.6229858s-0.2469997,0.4110107-0.2469997,0.6230164
				s-0.1849995,0.4169922-0.1849995,0.6199951c0,0.2029724,0.2859993,0.4169922,0.2859993,0.6199951
				c0,0.2029724,0.059,0.4179993,0.0610008,0.6210022c0.0019989,0.2030029,0.0639992,0.4169922,0.066,0.6199951
				c0.0019989,0.2029724-0.1459999,0.4190063-0.1420002,0.6219788c0.0039997,0.2030029-0.2410011,0.4250183-0.2360001,0.6270142
				c0.0049992,0.2019958,0.0650005,0.4190063,0.073,0.6210022s0.4179993,0.3999939,0.4300003,0.6000061
				c0.0119991,0.2000122-0.2539997,0.4339905-0.2390003,0.6349792s-0.0160007,0.4240112,0,0.625
				c0.0160007,0.2010193,0.2889996,0.3860168,0.3169994,0.5859985c0.0279999,0.2000122-0.1449986,0.4450073-0.1089993,0.6440125
				c0.0359993,0.1989746,0.1219997,0.3999939,0.1690006,0.6000061c0.046999,0.2000122-0.0130005,0.4389954,0.0459995,0.6329956
				s0.1310005,0.3999939,0.1999989,0.6000061c0.0690002,0.2000122,0.3360004,0.3099976,0.4230003,0.5
				s0.3369999,0.2769775,0.4390011,0.4570007c0.1019993,0.1799927-0.0810013,0.5279846,0.0349998,0.6999817
				c0.1159992,0.1719971,0.3389988,0.2630005,0.4669991,0.428009c0.1280003,0.164978,0.3470001,0.2349854,0.4890003,0.3919983
				c0.1420002,0.1569824,0.2460003,0.3200073,0.3999996,0.4700012c0.1540012,0.1499939,0.1060009,0.4830017,0.2590008,0.618988
				c0.1529999,0.1360168,0.342001,0.2390137,0.5,0.3659973c0.157999,0.1270142,0.5,0.0079956,0.6680012,0.1260071
				c0.1679993,0.1180115,0.132,0.5379944,0.3059998,0.6459961s0.3949986,0.1499939,0.5739994,0.2480164
				c0.1789989,0.0979919,0.3839989,0.1560059,0.5679989,0.243988c0.184,0.0880127,0.4220009,0.052002,0.6110001,0.1289978
				c0.1890011,0.0769958,0.2830009,0.4210205,0.4759998,0.4880066c0.1930008,0.0670166,0.5270004-0.3209839,0.7230015-0.2649841
				c0.1959991,0.0559998,0.2999992,0.4719849,0.5,0.5159912c0.1999989,0.0440063,0.4059982,0.0920105,0.6069984,0.125
				c0.2010002,0.03302,0.4169998,0.0050049,0.6210022,0.0270081c0.2039986,0.0219727,0.4119987,0,0.6169987,0.0119934
				s0.407999-0.257019,0.6130009-0.257019c0.204998,0,0.4059982,0.2130127,0.6079979,0.2000122s0.3830013-0.2279968,0.5830002-0.25
				c0.2000008-0.0220032,0.427002,0.1730042,0.6270008,0.1399841c0.1999989-0.0329895,0.3589993-0.2539978,0.5570011-0.2999878
				c0.197998-0.0460205,0.4860001,0.2680054,0.6800003,0.2139893c0.1940002-0.0539856,0.322998-0.34198,0.5159988-0.4069824
				s0.2999992-0.3470154,0.4820004-0.4219971c0.1820011-0.0750122,0.4379997,0.0140076,0.6210003-0.0720215
				c0.1830006-0.0859985,0.4819984,0.052002,0.6609993-0.0429993s0.1679993-0.5189819,0.3409996-0.625
				c0.1730003-0.1059875,0.3790016-0.1439819,0.5460014-0.2590027c0.1669998-0.1149902,0.447998-0.072998,0.6079979-0.1999817
				c0.1599998-0.1270142,0.1100006-0.5,0.2630005-0.6289978s0.3740005-0.178009,0.5180016-0.3200073
				c0.1439972-0.1420288,0.2779999-0.2879944,0.4129982-0.4380188c0.1349983-0.1499939,0.3230019-0.2689819,0.454998-0.4249878
				c0.1320038-0.1560059,0.3380013-0.2669983,0.4599991-0.4330139c0.1220016-0.1659851,0.1000023-0.4309998,0.2099991-0.6059875
				c0.1100006-0.1750183,0.2919998-0.3000183,0.3889999-0.4890137s0.090004-0.4089966,0.170002-0.6000061
				s0.3349991-0.3110046,0.3999977-0.5099792c0.0650024-0.1990051,0.1460037-0.3910217,0.2000046-0.6000061
				c0.0540009-0.2090149,0.0569992-0.4120178,0.0999985-0.6190186s0.1500015-0.3999939,0.1809998-0.6049805
				c0.0309982-0.2050171-0.1599998-0.434021-0.1389999-0.6459961c0.0209999-0.2120056,0.2999992-0.3880005,0.3129997-0.6000061
				s0-0.4170227,0-0.6300049c0-0.2130127,0.118-0.4160156,0.118-0.6289978c0-0.2920227-0.2509995-0.2920227-0.2509995-0.585022
				s0.1539993-0.2929993,0.1539993-0.5859985s-0.1949997-0.2929993-0.1949997-0.5859985s-0.0849991-0.2929993-0.0849991-0.5859985
				s0.2890015-0.2929993,0.2890015-0.5859985s0.0839996-0.2940063,0.0839996-0.5879822
				c0-0.2940063-0.0820007-0.2940063-0.0820007-0.5880127c-0.0329208-0.2338257-0.1213913-0.4563904-0.2580032-0.6489868
				c-0.1281204-0.1843872-0.2998962-0.3341675-0.5-0.4360046c-0.1800003-0.1000061-0.4059982,0.1130066-0.6259995,0.1130066
				c-0.3119965,0-0.3119965-0.0890198-0.6240005-0.0890198c-0.3119965,0-0.3129959-0.0059814-0.625-0.0059814
				c-0.3119965,0-0.3119965-0.1940002-0.6219978-0.1940002s-0.3120003-0.0140076-0.625-0.0140076
				s-0.3120003-0.0610046-0.6240005-0.0610046s-0.3110008,0.2829895-0.6219978,0.2829895
				c-0.3110008,0-0.3130035,0.0639954-0.6270027,0.0639954s-0.3109989-0.2999878-0.6229992-0.2999878L31.0589943,187.8280029z"/>
			<path id="パス_2262_00000109743070814694228560000017514253099934190778_" class="st0" d="M59.2529945,174.7600098
				c-0.2000008,0-0.4000015-0.2390137-0.5999985-0.2279968c-0.1999969,0.0109863-0.3909988,0.1229858-0.5900002,0.1470032
				c-0.1990013,0.0239868-0.4329987-0.1719971-0.6300011-0.1369934s-0.3409996,0.3370056-0.5349998,0.3840027
				s-0.4129982,0-0.5999985,0.0549927s-0.4230003,0.0090027-0.6110001,0.0789795
				c-0.1879997,0.0700073-0.394001,0.1150208-0.5779991,0.2000122s-0.2509995,0.3999939-0.4290009,0.5
				s-0.4210014,0.0619812-0.5929985,0.164978s-0.4150009,0.1060181-0.5810013,0.2200012
				c-0.1660004,0.1140137-0.3180008,0.2579956-0.4770012,0.382019c-0.1590004,0.1239929-0.2089996,0.3789978-0.3600006,0.5119934
				s-0.3310013,0.2319946-0.4729996,0.3739929s-0.2509995,0.3450012-0.3860016,0.5s-0.4269981,0.1999817-0.5519981,0.3609924
				c-0.125,0.1609802-0.0999985,0.4539795-0.2060013,0.6269836s-0.2789993,0.3210144-0.3759995,0.5
				c-0.0970001,0.1790161-0.2070007,0.3670044-0.2879982,0.559021c-0.0809975,0.1919861,0.0099983,0.4429932-0.0559998,0.6439819
				c-0.0659981,0.2010193-0.2809982,0.3439941-0.3330002,0.5500183c-0.052002,0.2059937,0.0999985,0.440979,0.0629997,0.651001
				c-0.0369987,0.2099915-0.2729988,0.3699951-0.2999992,0.5820007s0.0460014,0.4199829,0.0250015,0.6340027
				c-0.0209999,0.2139893-0.1349983,0.3999939-0.1500015,0.6159973s0.0870018,0.4159851,0.0760002,0.6300049
				c-0.0110016,0.2139893-0.3370018,0.3999939-0.3440018,0.6130066s0.4319992,0.4230042,0.4280014,0.6369934
				s-0.0209999,0.4109802-0.0239983,0.6260071c-0.0029984,0.2149963-0.2929993,0.4100037-0.2939987,0.6239929
				s-0.0410004,0.4129944-0.0410004,0.6269836c0,0.2140198-0.0060005,0.4150085-0.0060005,0.6300049
				c0,0.2150269,0.2459984,0.4150085,0.2459984,0.6289978c0,0.2140198-0.0239983,0.4230042-0.0239983,0.6280212
				c0,0.2049866-0.0919991,0.4230042-0.0919991,0.6279907c0,0.2050171,0.1049995,0.4219971,0.1069984,0.6270142
				c0.0019989,0.2049866-0.0169983,0.4230042-0.0149994,0.6279907c0.0019989,0.2050171-0.2350006,0.427002-0.230999,0.631012
				c0.0040016,0.2039795,0.2159996,0.4179993,0.2229996,0.6219788c0.007,0.20401-0.0699997,0.4259949-0.0600014,0.6289978
				s-0.0410004,0.4290161-0.026001,0.632019s0.2630005,0.3999939,0.2840004,0.6000061s-0.0359993,0.4279785-0.0079994,0.6300049
				c0.0279999,0.2019958,0.1459999,0.3999939,0.1839981,0.6000061s-0.1949997,0.4769897-0.144001,0.6749878
				s0.4210014,0.3160095,0.4860001,0.5110168s0.1430016,0.3800049,0.2229996,0.5709839
				c0.079998,0.1910095,0.1549988,0.3730164,0.2519989,0.5580139s0.0509987,0.4440002,0.1640015,0.6210022
				s0.2869987,0.2999878,0.4160004,0.4700012c0.1290016,0.1699829,0.0600014,0.4920044,0.2000008,0.6519775
				c0.1399994,0.1600037,0.4819984,0.1180115,0.6339989,0.2690125s0.1139984,0.4719849,0.2639999,0.6049805
				s0.5400009-0.019989,0.7000008,0.1000061c0.1599998,0.1200256,0.3139992,0.2330017,0.4790001,0.3470154
				c0.1650009,0.1139832,0.2080002,0.4119873,0.3800011,0.5149841s0.2999992,0.3000183,0.4790001,0.3890076
				c0.1790009,0.0890198,0.5219994-0.1619873,0.7000008-0.0799866s0.3120003,0.2709961,0.5,0.3410034
				s0.4129982,0,0.6049995,0.0589905c0.1920013,0.059021,0.2840004,0.4730225,0.4799995,0.5200195
				s0.4659996-0.2850037,0.6640015-0.25s0.3829994,0.0509949,0.5830002,0.0749817
				c0.2000008,0.0240173,0.368,0.3240051,0.5690002,0.3359985s0.4000015,0.0660095,0.5999985,0.0660095
				s0.4000015-0.0690002,0.5999985-0.0809937s0.3829994-0.2000122,0.5820007-0.2210083s0.3849983-0.0820007,0.5820007-0.1170044
				s0.3670006-0.1470032,0.5610008-0.1940002s0.4830017,0.2600098,0.6749992,0.2000122s0.2639999-0.4590149,0.4519997-0.5290222
				s0.4169998-0.0130005,0.5999985-0.0950012s0.5130005,0.1300049,0.6909981,0.0370178
				c0.1779938-0.0930176,0.2259979-0.4290161,0.4000015-0.5320129s0.314003-0.2479858,0.4800034-0.3619995
				c0.1660004-0.1139832,0.447998-0.0679932,0.6069946-0.1919861c0.1589966-0.1240234,0.1279984-0.4700012,0.2789993-0.6000061
				s0.487999-0.0639954,0.6310043-0.2070007c0.1429977-0.1430054,0.3739929-0.2430115,0.5089951-0.3999939
				c0.1350021-0.1570129,0.0340042-0.5240173,0.1579971-0.6870117c0.1240082-0.1629944,0.4000092-0.2330017,0.5120087-0.4060059
				s0.0249939-0.4689941,0.1209946-0.6519775c0.0960007-0.1830139,0.2639999-0.32901,0.3450012-0.5220032
				c0.0810013-0.1930237,0.0510025-0.4160156,0.1169968-0.6159973c0.0660095-0.2000122,0.0480042-0.3999939,0.1000061-0.6080017
				c0.0519943-0.2080078,0.2789917-0.3529968,0.3190002-0.5620117c0.0399933-0.2089844,0.1759949-0.3899841,0.2059937-0.6000061
				c0.0300064-0.2099915,0.1220093-0.3999939,0.1440048-0.617981c0.0219955-0.2180176-0.2000046-0.4320068-0.1819992-0.6450195
				c0.0180054-0.2129822,0.1170044-0.3999939,0.1279984-0.6170044s0.1740036-0.4060059,0.1809998-0.618988
				c0.0069962-0.2130127-0.0089951-0.4140015,0-0.6280212c0.0089951-0.2139893-0.2509995-0.4169922-0.2490005-0.6309814
				s0.3249969-0.4100037,0.3269958-0.6239929s0.0180054-0.4140015,0.0180054-0.6270142
				c0-0.2129822-0.3410034-0.4159851-0.3410034-0.6300049c0-0.2139893-0.0999908-0.414978-0.0999908-0.6289978
				c0-0.2139893,0.0219955-0.4219971,0.0219955-0.6269836c0-0.2050171-0.0230026-0.4230042-0.0230026-0.6280212
				c0-0.2049866,0.1370087-0.4239807,0.1350021-0.6289978c-0.0020065-0.2049866,0.2589951-0.4259949,0.2569962-0.6300049
				s0-0.4249878,0-0.6289978c0-0.2039795-0.0429993-0.4249878-0.048996-0.6279907s-0.0859985-0.4219971-0.0999985-0.625
				s0.0779953-0.4320068,0.064003-0.6350098c-0.0140076-0.2029724-0.4000092-0.3919983-0.4160004-0.5939941
				c-0.0160065-0.2019958,0.0679932-0.4299927,0.0399933-0.6319885c-0.0279999-0.2020264,0.1620026-0.4570007,0.1240082-0.6570129
				c-0.038002-0.1999817,0-0.4440002-0.0490036-0.6409912c-0.0490036-0.1970215-0.4150009-0.322998-0.4800034-0.5180054
				c-0.0649948-0.1950073,0.1590042-0.5140076,0.0780029-0.7000122c-0.0810013-0.1859741-0.25-0.3609924-0.348999-0.5449829
				c-0.098999-0.184021-0.3720016-0.2680054-0.4869995-0.4440002s-0.3820038-0.2220154-0.512001-0.3900146
				s0.0550003-0.5780029-0.086998-0.7380066c-0.1420059-0.1600037-0.3290024-0.2669983-0.4810028-0.4190063
				s-0.4530029-0.1059875-0.5999985-0.2380066c-0.1469955-0.1319885-0.2249985-0.3540039-0.3819962-0.4769897
				c-0.1570053-0.1230164-0.4070053-0.1159973-0.5720062-0.230011c-0.1649933-0.1139832-0.2890015-0.2799988-0.4609985-0.3840027
				s-0.3779907-0.1309814-0.5559959-0.223999c-0.1780014-0.0929871-0.3300018-0.2189941-0.5139999-0.2999878
				c-0.1839981-0.0810242-0.2579994-0.434021-0.4469986-0.5c-0.1889992-0.0660095-0.4729996,0.1380005-0.6650009,0.0789795
				c-0.1920013-0.0589905-0.4119987,0.026001-0.6069984-0.0209961s-0.3139992-0.440979-0.512001-0.4759827
				s-0.4370003,0.2269897-0.637001,0.1999817s-0.3740005-0.2869873-0.5760002-0.2999878s-0.4000015,0.2999878-0.605999,0.2999878
				 M59.2590027,200.2109985c-0.2000008,0-0.3889999-0.2530212-0.5810013-0.2690125s-0.4000015,0.0540161-0.5929985,0.0220032
				c-0.192997-0.0319824-0.3330002-0.2949829-0.5200005-0.3429871s-0.4510002,0.151001-0.6339989,0.0859985
				s-0.3300018-0.2380066-0.5060005-0.3179932s-0.2910004-0.276001-0.4599991-0.3710022s-0.2999992-0.223999-0.4640007-0.335022
				c-0.1640015-0.1109924-0.4710007-0.019989-0.6209984-0.144989s-0.2000008-0.3650208-0.3339996-0.5
				c-0.1339989-0.1350098-0.1870003-0.382019-0.3139992-0.5370178c-0.1343384-0.1486206-0.2595673-0.3052368-0.375-0.4689941
				c-0.1110001-0.17099-0.3510017-0.2640076-0.4420013-0.4509888c-0.0737686-0.1928101-0.1371918-0.3894348-0.1899986-0.5890198
				c-0.0660019-0.1869812-0.1839981-0.3670044-0.2369995-0.572998s0.0999985-0.4289856,0.0610008-0.6399841
				c-0.0359993-0.1940002-0.2579994-0.3640137-0.2859993-0.5760193c-0.0250015-0.1999817,0.0200005-0.4069824,0-0.6199951
				c-0.0180016-0.1999817-0.0139999-0.3999939-0.0279999-0.6139832c-0.012001-0.2000122-0.2000008-0.3919983-0.2070007-0.6000061
				s0.151001-0.4100037,0.144001-0.6220093c-0.007-0.2119751-0.2120018-0.3999939-0.2159996-0.6119995
				s0.2000008-0.4089966,0.2000008-0.6210022s-0.0999985-0.3999939-0.0999985-0.6149902
				c0-0.2150269,0.0999985-0.40802,0.0940018-0.6190186s-0.112999-0.4079895-0.112999-0.6199951
				c0-0.2119751,0.3199997-0.4159851,0.3199997-0.6170044c0-0.2009888-0.4430008-0.4190063-0.4410019-0.6199951
				s0.0159988-0.4190063,0.019001-0.618988c0.0030022-0.2000122,0.2939987-0.4129944,0.2999992-0.6130066
				s0.0480003-0.4160156,0.0540009-0.6140137s0.0180016-0.414978,0.0270004-0.6130066
				c0.0099983-0.2129822-0.2249985-0.4309998-0.2130013-0.6289978c0.0139999-0.2139893,0.0540009-0.4199829,0.0719986-0.6170044
				c0.019001-0.2139893,0.1339989-0.4089966,0.1590004-0.6049805c0.0279999-0.2120056-0.0429993-0.4320068-0.007-0.625
				c0.0379982-0.2109985,0.0999985-0.4120178,0.151001-0.6000061c0.0540009-0.2070007,0.3419991-0.3269958,0.4090004-0.5140076
				s-0.0429993-0.4590149,0.0449982-0.6390076c0.114975-0.1713562,0.2405548-0.3353271,0.3759995-0.4909973
				c0.128334-0.1567688,0.2652092-0.3063049,0.4099998-0.447998c0.1269989-0.1540222,0.0940018-0.4580078,0.243-0.6080017
				c0.1489983-0.1500244,0.3429985-0.2109985,0.4910011-0.335022c0.1480026-0.1239929,0.2589989-0.3119812,0.4179993-0.4219971
				c0.1590004-0.1099854,0.473999,0.0310059,0.6430016-0.0650024s0.1930008-0.4719849,0.3699989-0.552002
				c0.1769981-0.0799866,0.3650017-0.1659851,0.5480003-0.2309875s0.3839989-0.1140137,0.5730019-0.1620178
				s0.4169998,0.0769958,0.6090012,0.0450134c0.1920013-0.0320129,0.375-0.1270142,0.5699997-0.1430054
				c0.1949997-0.0160217,0.3889999,0.2349854,0.5849991,0.2349854s0.4000015-0.2689819,0.5870018-0.2529907
				s0.348999,0.2999878,0.5400009,0.3280029c0.1910019,0.0279846,0.4570007-0.2860107,0.644001-0.2380066
				c0.1870003,0.0479736,0.3899994,0.1059875,0.5719986,0.17099s0.2840004,0.3500061,0.4599991,0.4299927
				s0.2929993,0.2579956,0.4620018,0.3540039s0.5359993-0.1199951,0.7000008-0.0090027s0.2470016,0.3380127,0.4000015,0.4620056
				c0.1529999,0.1240234,0.4000015,0.1629944,0.5329971,0.3000183c0.1330032,0.1369934,0.0140076,0.5570068,0.1410065,0.7109985
				s0.5629959,0.1059875,0.673996,0.2769775c0.1190796,0.1790466,0.2279205,0.3646545,0.326004,0.5559998
				c0.0879974,0.1809998-0.0920029,0.4900208-0.0210037,0.6889954c0.0709991,0.1990051,0.0770035,0.3910217,0.1299973,0.6000061
				c0.0490036,0.1910095,0.1529999,0.3739929,0.1910095,0.585022c0.0359955,0.1929932,0.2350006,0.3719788,0.2619934,0.5849915
				c0.0250092,0.2000122,0.0790024,0.3999939,0.1000061,0.6140137c0.0169983,0.1999817,0.1089935,0.3999939,0.121994,0.6139832
				c0.0130005,0.2000122-0.3470001,0.4219971-0.3379974,0.6340027s0.3720016,0.3900146,0.3789978,0.6000061
				c0.0070038,0.210022-0.1289978,0.4100037-0.125,0.6220093c0.0040054,0.2119751-0.3269958,0.4100037-0.3239975,0.6219788
				c0.0029984,0.2120056,0.2739944,0.3999939,0.2750015,0.6130066s0.0469971,0.4070129,0.0469971,0.6190186
				s-0.1999969,0.4079895-0.1999969,0.618988s0.2850037,0.4179993,0.2839966,0.6190186
				c-0.0009918,0.2009888-0.2829971,0.4159851-0.2839966,0.6170044c-0.0009995,0.2009888-0.0999985,0.4159851-0.0999985,0.6159973
				c0,0.1999817,0.3079987,0.4219971,0.2999954,0.6219788c-0.0079956,0.2000122-0.1949921,0.4129944-0.1999969,0.6119995
				s0.2089996,0.4250183,0.1999969,0.6230164c-0.0089951,0.197998-0.1100006,0.414978-0.1230011,0.6130066
				c-0.0139923,0.2139893,0.076004,0.4299927,0.0579987,0.6269836c-0.0199966,0.2140198,0.0299988,0.4330139,0.0050049,0.6289978
				c-0.0279999,0.2120056-0.2470016,0.3910217-0.2830048,0.5840149c-0.0379944,0.2109985-0.1829987,0.3869934-0.2319946,0.5780029
				c-0.0540009,0.2070007-0.1750031,0.3729858-0.2409973,0.5599976c-0.0660095,0.1869812,0.0690002,0.4750061-0.0180054,0.6549988
				c-0.1175232,0.1741943-0.2454224,0.341156-0.3829956,0.5c-0.1100006,0.1699829-0.3510056,0.2349854-0.4830017,0.3999939
				c-0.1320038,0.164978-0.2400055,0.3089905-0.3890038,0.4579773s-0.105999,0.460022-0.2550011,0.5840149
				s-0.4949989-0.0140076-0.6549988,0.1000061s-0.3170013,0.190979-0.4850006,0.2869873s-0.1839981,0.4869995-0.3600006,0.5670166
				c-0.1760025,0.0799866-0.3339996,0.2519836-0.5180016,0.3169861s-0.3930016,0.1060181-0.5810013,0.1540222
				s-0.3909988,0.1139832-0.5839996,0.1470032c-0.1930008,0.0329895-0.4140015-0.0800171-0.6080017-0.0639954
				c-0.1940002,0.0159912-0.394001,0.164978-0.5900002,0.164978"/>
			<path id="パス_2263_00000051341083231750352440000001752490640565972150_" class="st0" d="M90.6249924,173.7619934
				c-0.1999969,0-0.4100037,0.1300049-0.6110001,0.1400146c-0.2009964,0.0099792-0.4110031,0.0090027-0.6110001,0.0289917
				c-0.1999969,0.0200195-0.375,0.2669983-0.5739975,0.3000183c-0.1989975,0.0329895-0.4649963-0.2740173-0.6620026-0.2330017
				c-0.1970062,0.0409851-0.3399963,0.3459778-0.5339966,0.3999939c-0.1940002,0.0539856-0.3759995,0.1489868-0.5680008,0.2109985
				c-0.1920013,0.0619812-0.3519974,0.1999817-0.5400009,0.2729797s-0.3389969,0.2130127-0.5230026,0.2950134
				s-0.4909973-0.1000061-0.6699982,0s-0.2460022,0.3869934-0.4199982,0.4899902
				c-0.173996,0.1030273-0.4520035,0.0350037-0.6200027,0.1470032s-0.1679993,0.4530029-0.3300018,0.5750122
				c-0.1620026,0.1219788-0.5319977-0.0240173-0.6869965,0.1069946c-0.1549988,0.1309814-0.1740036,0.4119873-0.3209991,0.552002
				c-0.1469955,0.1399841-0.4800034,0.1199951-0.6190033,0.2669983s-0.1589966,0.4279785-0.288002,0.5829773
				s-0.3850021,0.2400208-0.5,0.4060059c-0.1149979,0.1660156-0.1529999,0.4089966-0.2570038,0.585022
				c-0.1040039,0.1759949-0.3199997,0.3110046-0.4100037,0.5s0.0619965,0.4819946-0.012001,0.6759949
				s-0.3550034,0.3169861-0.4150009,0.5180054c-0.0599976,0.2009888-0.0589981,0.4169922-0.1060028,0.6229858
				s-0.0459976,0.4120178-0.0820007,0.6210022c-0.0360031,0.2090149-0.2430038,0.3829956-0.2699966,0.5939941
				c-0.0270081,0.2109985,0.0199966,0.4210205,0,0.6329956c-0.0200043,0.2120056,0.3889999,0.4389954,0.3749924,0.651001
				s-0.4160004,0.3850098-0.4249954,0.6000061c-0.0090027,0.2150269,0.0709991,0.4120178,0.0649948,0.6239929
				c-0.0060043,0.2120056,0.211998,0.4129944,0.2080002,0.625s-0.1520004,0.4070129-0.1539993,0.6190186
				s-0.2099991,0.4079895-0.2109985,0.6210022c-0.0009995,0.2129822,0.1220016,0.4100037,0.1220016,0.6219788
				c0,0.2120056-0.1259995,0.4110107-0.1259995,0.6239929c0,0.2130127,0.0449982,0.4120178,0.0449982,0.6239929
				c0,0.2120056,0.0069962,0.4179993,0.0069962,0.6220093c0,0.2039795,0.1000061,0.4179993,0.1000061,0.6219788
				c0,0.20401-0.1740036,0.4200134-0.1720047,0.6230164s0.026001,0.42099,0.0279999,0.6239929
				c0.0019989,0.2029724,0.4400024,0.4119873,0.4440002,0.6139832s-0.2929993,0.4259949-0.2869949,0.6289978
				c0.0059967,0.2030029-0.0480042,0.4219971-0.0390015,0.6239929c0.0089951,0.2019958,0.1149979,0.4150085,0.1289978,0.6159973
				c0.0139999,0.2010193,0.0100021,0.4210205,0.0289993,0.6230164s0.3209991,0.3829956,0.3470001,0.5839844
				c0.026001,0.2010193-0.262001,0.4609985-0.2269974,0.6600037s0.2910004,0.3670044,0.336998,0.5639954
				s-0.0670013,0.4470215-0.0090027,0.6410217s0.0999985,0.4119873,0.1699982,0.6000061
				c0.0699997,0.1879883,0.1139984,0.4100037,0.1999969,0.6000061s0.5,0.1999817,0.5999985,0.3789978
				c0.0999985,0.1789856-0.0400009,0.5059814,0.0800018,0.677002c0.1200027,0.17099,0.1999969,0.3670044,0.336998,0.5289917
				c0.137001,0.1620178,0.185997,0.3999939,0.3310013,0.552002s0.3939972,0.2000122,0.5479965,0.3439941
				c0.1539993,0.1440125,0.3740005,0.1929932,0.5270004,0.322998s0.375,0.1730042,0.5360031,0.2940063
				s0.2149963,0.3930054,0.3830032,0.5050049s0.3219986,0.257019,0.5,0.3600159s0.4540024,0.0130005,0.6340027,0.1059875
				c0.1800003,0.0930176,0.4000015,0.0880127,0.5800018,0.1710205s0.2139969,0.5379944,0.4000015,0.6109924
				s0.427002,0.0279846,0.6200027,0.0899963c0.1930008,0.0619812,0.4000015,0.0820007,0.5999985,0.1340027
				s0.3529968,0.2940063,0.5510025,0.3349915c0.1980057,0.0410156,0.4089966,0.0820007,0.6090012,0.1130066
				s0.447998-0.2999878,0.6500015-0.2779846s0.3809967,0.3410034,0.5830002,0.3509827
				c0.2020035,0.0100098,0.413002,0.0200195,0.6159973,0.0200195s0.4000015-0.2900085,0.5999985-0.3000183
				s0.4140015,0.1159973,0.6139984,0.1000061s0.362999-0.3209839,0.5619965-0.3509827s0.435997,0.1659851,0.6330032,0.125
				c0.1970062-0.0410156,0.336998-0.309021,0.5319977-0.3609924c0.1949997-0.052002,0.4000015-0.03302,0.5940018-0.1000061
				c0.1940002-0.0670166,0.5080032,0.2160034,0.6999969,0.1439819c0.1919937-0.071991,0.3539963-0.2299805,0.538002-0.3129883
				s0.2549973-0.3999939,0.4339981-0.5s0.3300018-0.223999,0.5-0.3260193
				c0.1699982-0.1019897,0.4459991-0.0440063,0.6139984-0.1569824c0.1679993-0.1130066,0.3710022-0.1820068,0.5319977-0.3000183
				c0.1609955-0.117981,0.0999985-0.5220032,0.2490005-0.6519775c0.1490021-0.1300049,0.3219986-0.2260132,0.4690018-0.3650208
				s0.5889969-0.0059814,0.7269974-0.1539917s0.2429962-0.3590088,0.3710022-0.5160217s0.3089981-0.3049927,0.4260025-0.4719849
				c0.1170044-0.1670227,0.1460037-0.4140015,0.2490005-0.5910034s0.0329971-0.4500122,0.1220016-0.6360168
				s0.1520004-0.3739929,0.2259979-0.5679932s0.1299973-0.3789978,0.1900024-0.5799866
				c0.0600052-0.2010193,0.2850037-0.3460083,0.3330002-0.5509949c0.0479965-0.2050171,0.2419968-0.375,0.2789993-0.5830078
				c0.0370026-0.2079773-0.2229996-0.4499817-0.1949997-0.6600037c0.0279999-0.2099915,0.1240005-0.3999939,0.1439972-0.6069946
				s0.2160034-0.3999939,0.2310028-0.6069946s0.0559998-0.4089966,0.0660019-0.6199951s-0.1439972-0.4169922-0.137001-0.6279907
				s0-0.4089966,0-0.6210022s0.1350021-0.40802,0.137001-0.6199951c0.0019989-0.2120056-0.1539993-0.4120178-0.1529999-0.6230164
				s0.1309967-0.4100037,0.1309967-0.6210022s-0.1740036-0.4119873-0.1740036-0.6239929
				c0-0.2119751-0.0709991-0.4109802-0.0709991-0.6229858s0.0619965-0.4190063,0.0619965-0.6220093
				c0-0.2029724-0.0169983-0.4190063-0.0179977-0.6229858c-0.0009995-0.20401-0.0220032-0.4190063-0.0230026-0.6220093
				c-0.0009995-0.2029724,0.3330002-0.4230042,0.3310013-0.6260071s-0.4440002-0.4140015-0.447998-0.6159973
				s-0.064003-0.4159851-0.0699997-0.617981s0.3860016-0.434021,0.3769989-0.6360168s0.0559998-0.427002,0.0429993-0.6279907
				c-0.0130005-0.2010193-0.0889969-0.4200134-0.1080017-0.6210022c-0.0190048-0.2010193,0.0090027-0.4299927-0.0159988-0.631012
				c-0.0250015-0.2009888-0.4680023-0.3549805-0.5-0.5539856s0.0589981-0.4320068,0.0139999-0.6300049
				s-0.1090012-0.3999939-0.1669998-0.5920105c-0.0579987-0.1919861,0.0510025-0.4589844-0.0220032-0.6499939
				c-0.0730057-0.190979-0.4810028-0.2380066-0.5709991-0.4239807c-0.0899963-0.1860046-0.1159973-0.3850098-0.2220001-0.5639954
				c-0.1060028-0.1790161,0.0449982-0.5169983-0.0759964-0.6880188c-0.1209946-0.17099-0.2689972-0.3200073-0.4000015-0.4830017
				s-0.2249985-0.3599854-0.3700027-0.5140076c-0.1450043-0.1539917-0.5839996,0.0079956-0.7389984-0.1390076
				s-0.1340027-0.4459839-0.288002-0.5759888s-0.4609985-0.059021-0.6220016-0.1809998
				c-0.1610031-0.1220093-0.1869965-0.4210205-0.3550034-0.53302s-0.4309998-0.0599976-0.6050034-0.1629944
				s-0.1340027-0.5939941-0.314003-0.6869812c-0.1800003-0.0930176-0.4840012,0.0610046-0.6679993-0.0220032
				s-0.4179993-0.0339966-0.6070023-0.1060181c-0.189003-0.071991-0.3720016-0.1300049-0.5650024-0.1919861
				c-0.1930008-0.0620117-0.3600006-0.1790161-0.5550003-0.2310181s-0.3170013-0.4259949-0.5159988-0.46698
				c-0.1989975-0.0410156-0.4440002,0.1560059-0.6439972,0.125s-0.4110031,0.0579834-0.6119995,0.0369873
				s-0.3919983-0.1000061-0.5999985-0.1109924s-0.4000015-0.2999878-0.5999985-0.2999878 M90.6349564,200.1830139
				c-0.211998,0-0.4140015,0.1170044-0.6230011,0.1000061s-0.4089966-0.0559998-0.6149979-0.0890198
				c-0.2060013-0.0329895-0.4580002,0.1440125-0.6610031,0.0939941c-0.2030029-0.0499878-0.3069992-0.4400024-0.5049973-0.5059814
				c-0.197998-0.0660095-0.4820023,0.1089783-0.6750031,0.026001c-0.1930008-0.0830078-0.4000015-0.1380005-0.5889969-0.2369995
				s-0.413002-0.1450195-0.5889969-0.2600098s-0.4000015-0.1889954-0.5660019-0.3190002s-0.1350021-0.493988-0.288002-0.6390076
				c-0.1529999-0.144989-0.4540024-0.1329956-0.5839996-0.2799988s-0.0999985-0.4419861-0.2180023-0.6000061
				c-0.1180038-0.1579895-0.4629974-0.1940002-0.5599976-0.3719788c-0.0970001-0.178009,0.1279984-0.507019,0.0500031-0.7000122
				s-0.3239975-0.2999878-0.3840027-0.5c-0.0600052-0.1999817,0.1360016-0.4389954,0.0910034-0.6430054
				s-0.2470016-0.348999-0.2799988-0.5570068c-0.0299988-0.190979,0.0940018-0.4069824,0.0699997-0.6149902
				s-0.1429977-0.3789978-0.1600037-0.5880127c-0.0169983-0.1929932,0.0999985-0.3999939,0.0839996-0.6080017
				s-0.2770004-0.3800049-0.2860031-0.5879822c-0.0090027-0.2080078,0.211998-0.3999939,0.2070007-0.6100159
				c-0.0049973-0.2099915-0.0650024-0.3999939-0.0690002-0.6000061s-0.0469971-0.3999939-0.0490036-0.6000061
				s0.177002-0.3999939,0.1750031-0.6059875c-0.0019989-0.2060242-0.0699997-0.3999939-0.0699997-0.6060181
				c0-0.2059937-0.4250031-0.3999939-0.4250031-0.6069946s0.3929977-0.4079895,0.3929977-0.6059875
				s-0.086998-0.4089966-0.0859985-0.6060181c0.0009995-0.196991-0.2200012-0.4119873-0.2180023-0.6089783
				s0.151001-0.40802,0.1539993-0.6000061c0.0029984-0.1920166,0.2139969-0.3999939,0.2190018-0.6000061
				s-0.1110001-0.4120178-0.0999985-0.6069946c0.0110016-0.1950073,0.1439972-0.3999939,0.1549988-0.6000061
				s-0.0189972-0.4089966,0-0.6000061s0.0289993-0.4060059,0.052002-0.6000061
				c0.0240021-0.2090149-0.0429993-0.4179993-0.012001-0.6090088c0.0329971-0.2070007,0.2409973-0.3639832,0.2819977-0.552002
				c0.0459976-0.2049866,0.0690002-0.3899841,0.1259995-0.5749817s-0.2809982-0.5360107-0.2060013-0.7170105
				s0.4410019-0.2489929,0.5360031-0.4219971c0.1132202-0.163208,0.2361069-0.3194885,0.3679962-0.4679871
				c0.0908279-0.1794434,0.1909637-0.3540039,0.3000031-0.5230103c0.1299973-0.1459961,0.2829971-0.2720032,0.4329987-0.414978
				c0.1500015-0.1430054,0.1340027-0.5,0.3000031-0.6289978s0.5299988,0.0059814,0.7060013-0.1100159
				s0.2460022-0.4100037,0.4309998-0.5099792c0.1849976-0.1000061,0.4520035-0.0370178,0.6460037-0.1199951
				c0.1940002-0.0830078,0.3949966-0.125,0.5999985-0.1910095c0.2050018-0.065979,0.4059982-0.0749817,0.6119995-0.125
				c0.2060013-0.0499878,0.3430023-0.4379883,0.552002-0.4709778s0.4560013,0.2389832,0.6669998,0.2219849
				s0.413002,0.0270081,0.625,0.0270081s0.4000015,0.1239929,0.6119995,0.1399841
				c0.211998,0.0160217,0.4229965-0.1059875,0.6299973-0.072998c0.2070007,0.03302,0.4339981-0.0359802,0.637001,0.0140076
				c0.2030029,0.0500183,0.4420013,0.0079956,0.6409988,0.0740051s0.3310013,0.3190002,0.5240021,0.3999939
				s0.3580017,0.2070007,0.5429993,0.3070068s0.4749985,0.0230103,0.651001,0.1380005
				c0.1760025,0.1150208,0.4150009,0.1660156,0.5800018,0.3000183s0.0550003,0.5759888,0.2080002,0.7209778
				s0.3690033,0.1940002,0.5,0.3410034c0.1412125,0.1407166,0.2747421,0.2889404,0.4000015,0.4440002
				c0.1169968,0.1640015,0.0449982,0.4250183,0.1419983,0.6000061c0.0922394,0.1681519,0.174057,0.3418274,0.2450027,0.5200195
				c0.0749969,0.1809998,0.4769974,0.243988,0.5370026,0.4429932c0.0600052,0.1989746-0.1910019,0.4549866-0.1460037,0.6589966
				c0.0449982,0.2039795,0.072998,0.3760071,0.1060028,0.5829773c0.0330048,0.2070007,0.3389969,0.3500061,0.362999,0.5580139
				c0.0220032,0.1919861-0.0999985,0.4069824-0.0820007,0.6149902s0.3059998,0.3770142,0.3190002,0.585022
				s-0.2149963,0.4079895-0.2070007,0.6159973c0.0079956,0.2079773,0.2440033,0.3890076,0.2490005,0.6000061
				s-0.0660019,0.3999939-0.0619965,0.6080017s-0.3619995,0.3999939-0.3600006,0.6109924s0.0859985,0.3999939,0.086998,0.6000061
				s0.2610016,0.3999939,0.2610016,0.6059875c0,0.2060242,0.0429993,0.3999939,0.0429993,0.6080017
				s-0.1949997,0.40802-0.1999969,0.6060181s-0.060997,0.4079895-0.0619965,0.6000061
				c-0.0009995,0.1919861,0.3509979,0.4129944,0.348999,0.6099854c-0.0019989,0.1970215-0.0459976,0.4110107-0.0500031,0.6069946
				c-0.0040054,0.1960144-0.4150009,0.3999939-0.4199982,0.6000061s0.0490036,0.4089966,0.0410004,0.6000061
				s-0.0719986,0.3999939-0.0839996,0.6000061s0.0830002,0.4150085,0.0670013,0.6090088s0.151001,0.4289856,0.1289978,0.6229858
				s-0.0370026,0.4150085-0.0680008,0.6060181c-0.0329971,0.2070007-0.0660019,0.4119873-0.1070023,0.6000061
				c-0.0410004,0.1879883-0.2720032,0.3549805-0.3280029,0.5409851s-0.2720032,0.322998-0.3470001,0.5050049
				s0.0999985,0.4880066,0.0070038,0.6620178c-0.1197128,0.1653442-0.2489319,0.3236084-0.387001,0.473999
				c-0.1139984,0.1619873-0.375,0.1999817-0.5100021,0.3519897s-0.2799988,0.257019-0.4300003,0.3999939
				c-0.1500015,0.1430054-0.1999969,0.3999939-0.3619995,0.5270081c-0.1620026,0.1269836-0.3259964,0.2619934-0.5,0.3769836
				c-0.1740036,0.1150208-0.4140015,0.1090088-0.5999985,0.2080078s-0.3000031,0.3299866-0.4929962,0.4129944
				c-0.1929932,0.0829773-0.4300003,0.0359802-0.6299973,0.1000061c-0.1999969,0.0639954-0.3499985,0.2909851-0.5550003,0.3399963
				c-0.2050018,0.0489807-0.4000015,0.1619873-0.6110001,0.1999817s-0.4290009,0-0.6399994,0.0130005
				s-0.4229965-0.2569885-0.6350021-0.2569885"/>
			<path id="パス_2264_00000129208135612193397860000009359113368085017508_" class="st0" d="M167.0849915,174.4290161
				c-0.4429932,0-0.4429932,0.0090027-0.8859863,0.0090027c-0.2210083,0-0.5400085-0.1000061-0.7189941,0
				c-0.1790161,0.1000061-0.2140198,0.4609985-0.3210144,0.644989c-0.1069946,0.184021-0.2999878,0.3789978-0.2999878,0.6000061
				c0,0.3110046,0.223999,0.3110046,0.223999,0.6220093c0,0.3109741-0.1100159,0.3110046-0.1100159,0.6229858
				c0,0.3120117-0.1000061,0.3110046-0.1000061,0.6230164c0,0.3119812,0.2650146,0.3110046,0.2650146,0.6219788
				c0,0.3110046-0.0720215,0.3120117-0.0720215,0.6239929c0,0.3120117,0.0710144,0.3099976,0.0710144,0.6199951
				s0.0050049,0.3120117,0.0050049,0.6239929c0,0.3120117,0.0449829,0.3110046,0.0449829,0.6220093
				c0,0.3109741,0.0370178,0.3110046,0.0370178,0.6219788c0,0.3110046-0.0500183,0.3120117-0.0500183,0.6239929
				c0,0.3120117-0.2469788,0.3120117-0.2469788,0.6230164s-0.2000122,0.3119812-0.2000122,0.6239929
				c0,0.3119812,0.1629944,0.3119812,0.1629944,0.625c0,0.3129883-0.0390015,0.3110046-0.0390015,0.6229858
				c0,0.3120117,0.2369995,0.3130188,0.2369995,0.625c0,0.3120117-0.2120056,0.3130188-0.2120056,0.6260071
				c0,0.3130188,0.1459961,0.3139954,0.1459961,0.6270142c0,0.1940002-0.2129822,0.2810059-0.3410034,0.4089966
				c-0.1279907,0.1279907-0.2149963,0.2349854-0.4089966,0.2349854c-0.2999878,0-0.2999878-0.0879822-0.6059875-0.0879822
				s-0.3000183,0.0780029-0.6069946,0.0780029c-0.3070068,0-0.3000183-0.1470032-0.6069946-0.1470032
				c-0.3070068,0-0.3000183,0.3269958-0.6069946,0.3269958c-0.3070068,0-0.3000183-0.1350098-0.6069946-0.1350098
				c-0.3070068,0-0.3000183,0.0220032-0.6069946,0.0220032c-0.3070068,0-0.3000183-0.1409912-0.6080017-0.1409912
				c-0.3080139,0-0.3000183,0.3869934-0.6080017,0.3869934c-0.3080139,0-0.3000183-0.1889954-0.6080017-0.1889954
				c-0.3080139,0-0.3000183,0.125-0.6000061,0.125c-0.3000183,0-0.3000183-0.15802-0.6080017-0.15802
				c-0.3080139,0-0.3000183-0.1719971-0.6069946-0.1719971c-0.3070068,0-0.3000183,0.0639954-0.6060181,0.0639954
				s-0.2999878,0.3000183-0.6089783,0.3000183s-0.3000183-0.3269958-0.6080017-0.3269958
				c-0.3080139,0-0.3000183,0.2160034-0.6080017,0.2160034c-0.3080139,0-0.3049927-0.3190002-0.6090088-0.3190002
				c-0.3039856,0-0.2999878,0.1659851-0.6089783,0.1659851s-0.3000183-0.1430054-0.6090088-0.1430054
				s-0.3059998,0.2440186-0.6109924,0.2440186s-0.3059998-0.0050049-0.6109924-0.0050049
				c-0.1921082-0.0154114-0.3710022-0.1037903-0.5-0.2470093c-0.1279907-0.1279907-0.4309998-0.3079834-0.4309998-0.5
				c0-0.3110046,0.3450012-0.3110046,0.3450012-0.6219788c0-0.3110046-0.348999-0.3120117-0.348999-0.6230164
				s0.4440002-0.3110046,0.4440002-0.6229858c0-0.3120117-0.0350037-0.3110046-0.0350037-0.6230164
				c0-0.3119812,0.007019-0.3110046,0.007019-0.6229858c0-0.3120117-0.1650085-0.3099976-0.1650085-0.6210022
				s0.1660156-0.3110046,0.1660156-0.6230164c0-0.3119812,0.0279846-0.3110046,0.0279846-0.6219788
				c0-0.3110046-0.3179932-0.3110046-0.3179932-0.6220093c0-0.3109741,0.3280029-0.3119812,0.3280029-0.6239929
				c0-0.3119812-0.0180054-0.3119812-0.0180054-0.6229858s-0.3320007-0.3120117-0.3320007-0.6239929
				c0-0.3120117,0.2539978-0.3130188,0.2539978-0.625c0-0.3120117-0.2569885-0.3120117-0.2569885-0.6239929
				c0-0.3120117,0.2290039-0.3120117,0.2290039-0.6239929c0-0.3120117,0.0429993-0.3130188,0.0429993-0.6270142
				s0.0879822-0.3129883,0.0879822-0.6260071c0-0.2219849-0.3609924-0.3890076-0.4639893-0.5679932
				c-0.1030273-0.1789856-0.3099976-0.1730042-0.4949951-0.2789917c-0.1849976-0.1060181-0.2669983-0.2489929-0.4890137-0.2489929
				c-0.4419861,0-0.4419861-0.0769958-0.8840027-0.0769958c-0.2219849,0-0.3079834,0.2250061-0.4869995,0.3289795
				c-0.1789856,0.1040039-0.5780029-0.0180054-0.6849976,0.1670227c-0.121582,0.2060852-0.1925354,0.4381409-0.2070007,0.677002
				c0,0.3079834,0.2409973,0.3079834,0.2409973,0.6159973c0,0.3079834,0.0460205,0.3089905,0.0460205,0.617981
				s-0.1470032,0.3080139-0.1470032,0.6159973c0,0.3080139,0.1589966,0.309021,0.1589966,0.6170044
				c0,0.3080139-0.0509949,0.3070068-0.0509949,0.6150208c0,0.3079834-0.0379944,0.3070068-0.0379944,0.6149902
				c0,0.3080139-0.0490112,0.3070068-0.0490112,0.6140137c0,0.3069763,0.1000061,0.3079834,0.1000061,0.6149902
				s-0.243988,0.3070068-0.243988,0.6140137c0,0.3069763,0.0469971,0.3079834,0.0469971,0.6159973
				c0,0.3079834,0.3469849,0.3079834,0.3469849,0.6149902s-0.2290039,0.309021-0.2290039,0.6170044
				c0,0.3080139-0.1999817,0.309021-0.1999817,0.6180115s0.1359863,0.3089905,0.1359863,0.6170044
				c0,0.3079834-0.0239868,0.3079834-0.0239868,0.6159973c0,0.3079834-0.1000061,0.3079834-0.1000061,0.6159973
				c0,0.3079834,0.0339966,0.3079834,0.0339966,0.6159973c0,0.3079834,0.2599792,0.3079834,0.2599792,0.6170044
				c0,0.3089905,0.026001,0.3079834,0.026001,0.6170044c0,0.3089905-0.3559875,0.3089905-0.3559875,0.617981
				s0.2999878,0.309021,0.2999878,0.6170044c0,0.3080139-0.3129883,0.309021-0.3129883,0.6170044
				c0,0.3080139,0.3129883,0.309021,0.3129883,0.6170044c0,0.3080139,0,0.309021,0,0.6180115
				s-0.1459961,0.3089905-0.1459961,0.617981s0.0870056,0.309021,0.0870056,0.6180115s0.07901,0.3079834,0.07901,0.6170044
				c0,0.3089905-0.1430054,0.3099976-0.1430054,0.618988c0,0.309021,0.0499878,0.309021,0.0499878,0.6180115
				s0.0769958,0.3089905,0.0769958,0.617981s-0.1000061,0.3080139-0.1000061,0.6159973
				c0,0.3080139,0.2080078,0.3099976,0.2080078,0.6190186c0,0.3089905-0.3450012,0.3089905-0.3450012,0.6170044
				c0,0.3079834,0.34198,0.3089905,0.34198,0.617981s-0.2319946,0.309021-0.2319946,0.6190186s0.257019,0.3089905,0.257019,0.617981
				s-0.1660156,0.3099976-0.1660156,0.6199951v0.6190186c0,0.3099976-0.2659912,0.3099976-0.2659912,0.618988
				c0,0.309021,0.1119995,0.3099976,0.1119995,0.6199951s0.1600037,0.3110046,0.1600037,0.6220093
				c0,0.3109741-0.1140137,0.3110046-0.1140137,0.6219788c0.0235901,0.2170105,0.1039734,0.4239502,0.2330017,0.6000061
				c0.1069946,0.1849976,0.1650085,0.4830017,0.348999,0.5899963c0.2148438,0.0984192,0.4498901,0.1446533,0.6860046,0.1350098
				c0.4420166,0,0.4420166,0.0109863,0.8840027,0.0109863c0.2220154,0,0.3130188-0.3769836,0.4920044-0.4799805
				c0.1790161-0.1029968,0.4519958-0.0620117,0.559021-0.2470093c0.1069946-0.1849976,0.4190063-0.3849792,0.4190063-0.6059875
				c0-0.3000183-0.1199951-0.3000183-0.1199951-0.6000061c0-0.3000183,0.0339966-0.3000183,0.0339966-0.6000061
				c0-0.3000183-0.3320007-0.3000183-0.3320007-0.6000061c0-0.3000183,0-0.3000183,0-0.6000061
				c0-0.3000183,0.3059998-0.3000183,0.3059998-0.6000061c0-0.3000183,0.0489807-0.3000183,0.0489807-0.6000061
				c0-0.3000183-0.2330017-0.3000183-0.2330017-0.6000061c0-0.3000183-0.1589966-0.3000183-0.1589966-0.6000061
				c0-0.3000183,0.4100037-0.3000183,0.4100037-0.6000061c0-0.3000183-0.0529785-0.3000183-0.0529785-0.6000061
				c0-0.3000183-0.1369934-0.3000183-0.1369934-0.6000061c0-0.3000183,0.0740051-0.3000183,0.0740051-0.6000061
				c0-0.3000183,0.0409851-0.3000183,0.0409851-0.6000061c0-0.3000183,0.0220032-0.3000183,0.0220032-0.6000061
				c0-0.3000183-0.2319946-0.3000183-0.2319946-0.6000061c0-0.3000183,0.1570129-0.3000183,0.1570129-0.6000061
				c0-0.3000183,0.0059814-0.3000183,0.0059814-0.6060181s0.1280212-0.2999878,0.1280212-0.6059875
				c0-0.1940002-0.2530212-0.4850159-0.125-0.6130066c0.1279907-0.1280212,0.4179993-0.0450134,0.6130066-0.0450134
				c0.2999878,0,0.2999878-0.09198,0.6059875-0.09198s0.3000183,0.2630005,0.6069946,0.2630005
				c0.3070068,0,0.3000183-0.2359924,0.6069946-0.2359924c0.3070068,0,0.3000183-0.1470032,0.6069946-0.1470032
				c0.3070068,0,0.3000183,0.21698,0.6069946,0.21698c0.3070068,0,0.3000183-0.0050049,0.6069946-0.0050049
				c0.3070068,0,0.3000183-0.2810059,0.6080017-0.2810059c0.3080139,0,0.3000183,0.2160034,0.6069946,0.2160034
				c0.3070068,0,0.3000183,0.052002,0.6080017,0.052002c0.3080139,0,0.3000183,0.1000061,0.6060181,0.1000061
				s0.2999878-0.1539917,0.6080017-0.1539917c0.3079834,0,0.2999878-0.1710205,0.6059875-0.1710205
				s0.3000183,0.3399963,0.6069946,0.3399963c0.3070068,0,0.3049927-0.3999939,0.6090088-0.3999939
				c0.3039856,0,0.2999878,0.2000122,0.6080017,0.2000122c0.3079834,0,0.2999878-0.1000061,0.6080017-0.1000061
				c0.3079834,0,0.3049927,0.2720032,0.6089783,0.2720032c0.3040161,0,0.3000183-0.2189941,0.6090088-0.2189941
				s0.2999878,0.1609802,0.6089783,0.1609802s0.3000183,0.0490112,0.6109924,0.0490112
				c0.3110046,0,0.3059998-0.2250061,0.6109924-0.2250061c0.2064514,0.0315247,0.3950195,0.1353455,0.5320129,0.2929993
				c0.1426392,0.1412964,0.2278137,0.3305054,0.2389832,0.5310059c0,0.2999878-0.0390015,0.2999878-0.0390015,0.6000061
				c0,0.2999878,0.0370178,0.2999878,0.0370178,0.6000061c0,0.2999878-0.0670166,0.2999878-0.0670166,0.6000061
				c0,0.2999878-0.1609802,0.2999878-0.1609802,0.6000061c0,0.2999878,0.3559875,0.2999878,0.3559875,0.6000061
				c0,0.2999878-0.1139832,0.2999878-0.1139832,0.6000061c0,0.2999878-0.2000122,0.2999878-0.2000122,0.6000061
				c0,0.2999878,0.1849976,0.2999878,0.1849976,0.6000061c0,0.2999878-0.1000061,0.2999878-0.1000061,0.6000061
				c0,0.2999878,0.1670227,0.2999878,0.1670227,0.6000061c0,0.2999878,0.0669861,0.2999878,0.0669861,0.6000061
				c0,0.2999878-0.1349792,0.2999878-0.1349792,0.6000061c0,0.2999878-0.3000183,0.2999878-0.3000183,0.6000061
				c0,0.2999878,0.1000061,0.2999878,0.1000061,0.6000061c0,0.2999878,0.0859985,0.2999878,0.0859985,0.6000061
				c0,0.2999878,0.1530151,0.2999878,0.1530151,0.6000061c0,0.2999878-0.2340088,0.2999878-0.2340088,0.6059875
				s0.1759949,0.3000183,0.1759949,0.6060181c0,0.2209778-0.1069946,0.5,0,0.6809998
				c0.1377258,0.1894531,0.3182983,0.3436584,0.5270081,0.4499817c0.1789856,0.1000061,0.4320068-0.0239868,0.6529846-0.0239868
				c0.4429932,0,0.4429932,0.2709961,0.8860168,0.2709961c0.2373047-0.0191956,0.4666138-0.094635,0.6690063-0.2200012
				c0.4432983-0.2085266,0.7112732-0.6696167,0.6730042-1.15802c0-0.3089905-0.1870117-0.3089905-0.1870117-0.6170044
				c0-0.3079834,0.2000122-0.3079834,0.2000122-0.6170044c0-0.3089905,0.0419922-0.3089905,0.0419922-0.6170044
				c0-0.3079834-0.0599976-0.3079834-0.0599976-0.6159973c0-0.3079834-0.2949829-0.3079834-0.2949829-0.6149902
				s0.2590027-0.3080139,0.2590027-0.6150208s-0.2510071-0.3070068-0.2510071-0.6149902
				c0-0.3080139,0.2510071-0.3070068,0.2510071-0.6140137c0-0.3069763,0.065979-0.3079834,0.065979-0.6149902
				s-0.0090027-0.3070068-0.0090027-0.6150208c0-0.3079834-0.2779846-0.3079834-0.2779846-0.6159973
				c0-0.3079834,0.0769958-0.3079834,0.0769958-0.6170044c0-0.3089905,0.1779785-0.3089905,0.1779785-0.617981
				s0.1000061-0.3080139,0.1000061-0.6170044c0-0.309021-0.2839966-0.3080139-0.2839966-0.6159973
				c0-0.3080139,0.0780029-0.3080139,0.0780029-0.6159973c0-0.3080139-0.0829773-0.3080139-0.0829773-0.6159973
				c0-0.3080139-0.0079956-0.3080139-0.0079956-0.6159973c0-0.3080139,0.144989-0.309021,0.144989-0.6180115
				s0.0119934-0.3089905,0.0119934-0.617981s-0.1159973-0.3080139-0.1159973-0.6170044
				c0-0.309021,0.059021-0.3080139,0.059021-0.6170044c0-0.309021,0.1000061-0.3080139,0.1000061-0.6170044
				c0-0.309021,0.0629883-0.309021,0.0629883-0.6180115s-0.2649841-0.3089905-0.2649841-0.617981
				s0.0859985-0.3080139,0.0859985-0.6170044c0-0.309021,0.0619812-0.309021,0.0619812-0.6180115
				s0.0820007-0.3089905,0.0820007-0.617981s-0.1000061-0.309021-0.1000061-0.6180115s0.1620178-0.3099976,0.1620178-0.618988
				c0-0.309021-0.1369934-0.3080139-0.1369934-0.6159973c0-0.3080139,0.1149902-0.309021,0.1149902-0.6180115
				s-0.3999939-0.3089905-0.3999939-0.617981s0.40802-0.3080139,0.40802-0.6170044
				c0-0.309021-0.1430054-0.3099976-0.1430054-0.6190186c0-0.3089905,0.0090027-0.3099976,0.0090027-0.618988
				c0-0.309021-0.0639954-0.309021-0.0639954-0.6190186s-0.223999-0.3099976-0.223999-0.6199951s0-0.3089905,0-0.618988
				s0.4249878-0.3099976,0.4249878-0.6199951s-0.2229919-0.3110046-0.2229919-0.6210022s-0.1410217-0.3110046-0.1410217-0.6220093
				c0-0.2219849,0.223999-0.4949951,0.1199951-0.6739807c-0.1212769-0.2025757-0.2884216-0.3738403-0.4880066-0.5
				c-0.2164917-0.0799255-0.448761-0.107666-0.6779785-0.0809937"/>
			<path id="パス_2265_00000180345700605086202630000011597008503790771376_" class="st0" d="M200.5469971,174.2619934
				c-0.4420166,0-0.4420166,0.0840149-0.8840027,0.0840149c-0.2318726,0.0141602-0.4567566,0.0848999-0.6549988,0.2059937
				c-0.184021,0.1069946-0.0780029,0.4639893-0.1849976,0.6479797s-0.4250183,0.2630005-0.4250183,0.4850159
				c0,0.3059998,0.1170044,0.3059998,0.1170044,0.6130066s0.07901,0.3070068,0.07901,0.6130066
				s-0.3930054,0.3059998-0.3930054,0.6119995s0.3739929,0.3070068,0.3739929,0.6130066s-0.1920166,0.3059998-0.1920166,0.6130066
				s-0.0369873,0.3070068-0.0369873,0.6139832c0,0.3070068,0.3519897,0.3070068,0.3519897,0.6140137
				c0,0.3069763-0.1999817,0.3070068-0.1999817,0.6139832c0,0.3070068,0,0.3070068,0,0.6130066
				s-0.2120056,0.3070068-0.2120056,0.6140137c0,0.3069763,0.3500061,0.3070068,0.3500061,0.6149902
				c0,0.3080139,0,0.3070068,0,0.6140137c0,0.3069763-0.0870056,0.3070068-0.0870056,0.6139832
				c0,0.3070068,0.0149841,0.3070068,0.0149841,0.6140137c0,0.3069763-0.1470032,0.3079834-0.1470032,0.6159973
				c0,0.3079834,0.0930176,0.3070068,0.0930176,0.6139832c0,0.3070068,0.0189819,0.3070068,0.0189819,0.6150208
				c0,0.3079834-0.117981,0.3059998-0.117981,0.6119995s-0.0429993,0.3079834-0.0429993,0.6159973
				c0,0.3079834,0.3129883,0.3070068,0.3129883,0.6130066s-0.4339905,0.3070068-0.4339905,0.6139832
				c0,0.3070068,0.1999817,0.3080139,0.1999817,0.6159973c0,0.3080139-0.1999817,0.3080139-0.1999817,0.6150208
				s0.3649902,0.3079834,0.3649902,0.6159973c0,0.3079834-0.1199951,0.3079834-0.1199951,0.6159973
				c0,0.3079834,0.0809937,0.3079834,0.0809937,0.6159973c0,0.3079834-0.3670044,0.3079834-0.3670044,0.6159973
				c0,0.3079834,0.1220093,0.3089905,0.1220093,0.617981s0.1860046,0.309021,0.1860046,0.6190186
				c0,0.2099915-0.0469971,0.4199829-0.059021,0.6229858c-0.0119934,0.2030029-0.0499878,0.4170227-0.0740051,0.6190186
				c-0.0239868,0.2019958,0.1440125,0.4539795,0.1060181,0.6549988c-0.0379944,0.2009888-0.5119934,0.3089905-0.5650024,0.5059814
				s0.2949829,0.5299988,0.2259827,0.7220154c-0.0690002,0.1919861-0.5690002,0.21698-0.6539917,0.3999939
				c-0.085022,0.1829834-0.0360107,0.4339905-0.1380005,0.6119995c-0.1020203,0.1779785-0.276001,0.2999878-0.3940125,0.4719849
				c-0.117981,0.1719971-0.1130066,0.428009-0.2469788,0.5840149c-0.1340027,0.1560059-0.132019,0.4599915-0.2820129,0.6000061
				c-0.1499939,0.1399841-0.3729858,0.2250061-0.5369873,0.3529968s-0.4660034,0.0559998-0.6419983,0.1679993
				s-0.2799988,0.3329773-0.4660034,0.4279785s-0.3930054,0.1300049-0.5870056,0.2070007s-0.4400024-0.0419922-0.6400146,0.0180054
				c-0.1999817,0.0600281-0.3729858,0.1400146-0.5780029,0.184021c-0.2049866,0.0440063-0.3519897,0.3479919-0.5599976,0.3760071
				c-0.2079773,0.0279846-0.4239807-0.0820007-0.6340027-0.0679932c-0.2099915,0.0140076-0.4089966,0.1589966-0.618988,0.1589966
				c-0.210022,0-0.4290161,0.0509949-0.6329956,0.0379944c-0.20401-0.0130005-0.3850098-0.3520203-0.5870056-0.3800049
				c-0.2020264-0.0280151-0.4070129-0.0299988-0.6069946-0.072998c-0.2000122-0.0429993-0.4510193,0.0889893-0.6470032,0.0299988
				c-0.1960144-0.059021-0.3650208-0.2210083-0.5549927-0.3000183c-0.1900024-0.07901-0.3000183-0.3129883-0.4869995-0.4060059
				c-0.1870117-0.0929871-0.4309998-0.0589905-0.6000061-0.1690063c-0.1690063-0.1099854-0.5-0.0299988-0.65802-0.1569824
				c-0.1579895-0.1270142-0.2120056-0.4060059-0.3609924-0.5490112c-0.1489868-0.1429749-0.3800049-0.2209778-0.5149841-0.3779907
				c-0.1350098-0.1570129-0.3370056-0.28302-0.4570007-0.45401s-0.1230164-0.4259949-0.2260132-0.6080017
				s-0.0619812-0.4309998-0.1489868-0.6219788c-0.0870056-0.1910095-0.3309937-0.3110046-0.3999939-0.5079956
				s-0.1480103-0.3950195-0.2000122-0.6000061c-0.052002-0.2050171-0.1300049-0.3999939-0.1699829-0.6100159
				c-0.0400085-0.2099915-0.0270081-0.4199829-0.053009-0.6289978c-0.026001-0.2089844,0.3110046-0.4369812,0.3000183-0.6479797
				c-0.0110168-0.2109985-0.3359985-0.3999939-0.3359985-0.6069946c0-0.3099976,0.0759888-0.3099976,0.0759888-0.6199951
				s-0.1889954-0.3110046-0.1889954-0.6210022s0.1170044-0.3099976,0.1170044-0.6199951s0.0429993-0.3110046,0.0429993-0.6220093
				c0-0.3109741-0.0440063-0.3110046-0.0440063-0.6219788c0-0.3110046,0.2400208-0.3110046,0.2400208-0.6210022
				s-0.026001-0.3110046-0.026001-0.6210022s0-0.3110046,0-0.6210022s-0.210022-0.3110046-0.210022-0.6220093
				c0-0.3109741-0.0189819-0.3110046-0.0189819-0.6219788c0-0.3110046,0.0140076-0.3110046,0.0140076-0.6220093
				c0-0.3109741,0-0.3110046,0-0.6219788c0-0.3110046,0.1999817-0.3110046,0.1999817-0.6230164
				c0-0.3119812-0.1690063-0.3110046-0.1690063-0.6219788c0-0.3110046-0.072998-0.3110046-0.072998-0.6220093
				c0-0.3109741,0.1640015-0.3099976,0.1640015-0.6199951s0.1419983-0.3119812,0.1419983-0.6229858
				s-0.3119812-0.3110046-0.3119812-0.6210022s0.0629883-0.3110046,0.0629883-0.6220093
				c0-0.3109741,0.0870056-0.3119812,0.0870056-0.6229858s-0.1600037-0.3120117-0.1600037-0.6230164
				s-0.1199951-0.3119812-0.1199951-0.6229858s0.4609985-0.3120117,0.4609985-0.6239929
				c0-0.3120117-0.065979-0.3120117-0.065979-0.6230164s-0.1000061-0.3119812-0.1000061-0.6239929
				c0-0.3119812-0.1690063-0.3129883-0.1690063-0.6260071c0-0.3129883,0.1789856-0.3129883,0.1789856-0.6260071
				c0-0.2219849-0.2810059-0.3339844-0.3849792-0.5130005c-0.0699768-0.1740112-0.1900635-0.3233032-0.3450012-0.4289856
				c-0.1790161-0.1000061-0.3220215-0.3659973-0.5440063-0.3659973c-0.4420166,0-0.4420166,0.2219849-0.8840027,0.2219849
				c-0.2210083,0-0.4519958-0.1099854-0.631012-0.0059814c-0.1789856,0.1040039-0.164978,0.3869934-0.2720032,0.5709839
				c-0.1219482,0.148468-0.197113,0.3298035-0.2160034,0.5209961c0,0.3000183-0.1860046,0.3000183-0.1860046,0.6080017
				c0,0.3080139,0.0200195,0.3049927,0.0200195,0.6090088c0,0.3039856-0.1350098,0.2999878-0.1350098,0.6080017
				c0,0.3079834-0.026001,0.2999878-0.026001,0.6089783s0.223999,0.3000183,0.223999,0.6090088
				s-0.2099915,0.3049927-0.2099915,0.6109924s0.3999939,0.2999878,0.3999939,0.6089783s-0.0809937,0.3049927-0.0809937,0.6090088
				c0,0.3039856-0.1090088,0.2999878-0.1090088,0.6089783s-0.2359924,0.3059998-0.2359924,0.6109924
				s0.2000122,0.3049927,0.2000122,0.6100159c0,0.3049927-0.1759949,0.3049927-0.1759949,0.6099854
				c0,0.3050232,0.1170044,0.3049927,0.1170044,0.6100159c0,0.3049927,0.026001,0.3049927,0.026001,0.6109924
				s0.1999817,0.2999878,0.1999817,0.6099854s0.0679932,0.3000183,0.0679932,0.6100159s-0.2129822,0.2999878-0.2129822,0.6089783
				s0.243988,0.3049927,0.243988,0.6100159c0,0.3049927-0.3930054,0.3049927-0.3930054,0.6099854
				c0,0.3050232,0.2319946,0.3049927,0.2319946,0.6100159c0,0.3049927-0.2609863,0.3059998-0.2609863,0.6109924
				s0.1000061,0.3059998,0.1000061,0.6109924s-0.1549988,0.3059998-0.1549988,0.6109924s0.1519775,0.3059998,0.1519775,0.6119995
				s0.2230225,0.3059998,0.2230225,0.6119995s-0.0800171,0.3059998-0.0800171,0.6119995s-0.117981,0.3070068-0.117981,0.6139832
				c0,0.3070068,0,0.3070068,0,0.6140137c0,0.2070007,0.3070068,0.3999939,0.3169861,0.6000061
				c0.0100098,0.2000122-0.0169983,0.3999939,0,0.6059875c0.0169983,0.2060242-0.2070007,0.4380188-0.1759949,0.6390076
				c0.0310059,0.2010193-0.0429993,0.4330139,0,0.632019s0.4170227,0.322998,0.4710083,0.5189819
				c0.0539856,0.1960144-0.1239929,0.4660034-0.059021,0.65802c0.0650024,0.1919861,0.3800049,0.2999878,0.4570007,0.4830017
				c0.0769958,0.1829834,0.0079956,0.440979,0.1000061,0.6239929c0.0920105,0.1829834,0.3460083,0.276001,0.4460144,0.4539795
				c0.1000061,0.178009,0.242981,0.3160095,0.3549805,0.4869995c0.1119995,0.1710205,0.0360107,0.4660034,0.15802,0.6289978
				s0.4239807,0.1759949,0.5570068,0.3309937c0.1329956,0.1549988,0.1999817,0.3590088,0.3389893,0.5
				c0.1390076,0.1410217,0.0460205,0.5480042,0.2000122,0.684021c0.1539917,0.1359863,0.3840027,0.1999817,0.5449829,0.321991
				c0.1610107,0.1220093,0.3049927,0.2900085,0.473999,0.4060059c0.1690063,0.1160278,0.3850098,0.1710205,0.5620117,0.2770081
				s0.440979,0.0469971,0.6229858,0.1409912c0.1820068,0.0940247,0.2680054,0.3900146,0.4559937,0.473999
				c0.1879883,0.0840149,0.348999,0.2530212,0.5420227,0.3260193c0.1929932,0.072998,0.5-0.2000122,0.6999817-0.1419983
				c0.2000122,0.0579834,0.3110046,0.3999939,0.5110168,0.4530029c0.1999817,0.053009,0.4689941-0.2270203,0.6719971-0.1880188
				s0.3999939,0.0140076,0.6059875,0.0429993c0.2060242,0.0289917,0.3699951,0.3000183,0.5760193,0.3179932
				c0.2059937,0.0180054,0.4140015-0.0899963,0.6210022-0.0799866c0.2070007,0.0099792,0.3999939,0.1539917,0.6109924,0.1539917
				s0.3999939-0.2649841,0.6000061-0.2739868s0.4119873,0.0939941,0.6149902,0.0749817
				c0.2030029-0.0189819,0.4429932,0.2270203,0.6440125,0.2000122c0.2009888-0.0270081,0.4169922-0.0630188,0.6159973-0.1000061
				c0.1989746-0.0370178,0.4119873-0.0890198,0.6089783-0.1380005c0.196991-0.0490112,0.3359985-0.3380127,0.5299988-0.3999939
				c0.1940002-0.0620117,0.3829956-0.1380005,0.5740051-0.2090149c0.1910095-0.0709839,0.4100037-0.0789795,0.6000061-0.1609802
				s0.4830017,0.039978,0.6640015-0.0540161s0.1210022-0.6239929,0.3000183-0.7290039
				c0.1789856-0.105011,0.3609924-0.17099,0.5289917-0.2859802c0.1680298-0.1149902,0.4700012-0.0440063,0.6300049-0.1710205
				c0.1600037-0.1269836,0.1719971-0.4239807,0.3240051-0.5610046c0.1520081-0.1369934,0.2510071-0.3099976,0.3940125-0.4559937
				c0.1429749-0.1459961,0.3190002-0.243988,0.4519958-0.3999939c0.1329956-0.1559753,0.3280029-0.25,0.4509888-0.4140015
				c0.1230164-0.1640015,0.3569946-0.2479858,0.4689941-0.4199829s0.0920105-0.4200134,0.1929932-0.6000061
				c0.1010132-0.1800232,0.1530151-0.3730164,0.2420044-0.559021c0.0890198-0.1860046,0.1650085-0.3639832,0.2430115-0.5539856
				s0.2369995-0.3410034,0.2999878-0.5360107c0.0630188-0.1949768,0.2449951-0.3529968,0.3000183-0.5509949
				c0.0549927-0.197998-0.2120056-0.46698-0.1690063-0.6690063c0.0429993-0.2019958,0.2469788-0.3599854,0.2789917-0.5639954
				c0.0320129-0.2039795,0.0780029-0.3999939,0.1000061-0.6000061s0.2480164-0.3939819,0.2579956-0.6000061
				c0.0100098-0.2059937-0.3150024-0.4159851-0.3150024-0.6229858c0-0.3000183,0.3080139-0.3000183,0.3080139-0.6000061
				c0-0.3000183,0.0549927-0.3000183,0.0549927-0.6000061c0-0.3000183-0.3280029-0.3000183-0.3280029-0.6000061
				c0-0.3000183-0.0209961-0.3000183-0.0209961-0.6000061c0-0.3000183-0.0630188-0.3000183-0.0630188-0.6000061
				c0-0.3000183,0.1199951-0.3000183,0.1199951-0.6000061c0-0.3000183-0.0149841-0.3000183-0.0149841-0.6000061
				c0-0.3000183,0.1999817-0.3000183,0.1999817-0.6000061c0-0.3000183-0.1000061-0.3000183-0.1000061-0.6000061
				c0-0.3000183-0.1000061-0.3000183-0.1000061-0.6000061c0-0.3000183-0.072998-0.3000183-0.072998-0.6000061
				c0-0.3000183,0.2749939-0.3000183,0.2749939-0.6000061c0-0.3000183,0.1560059-0.3000183,0.1560059-0.6000061
				c0-0.3000183-0.1879883-0.3000183-0.1879883-0.6000061c0-0.3000183-0.03302-0.3000183-0.03302-0.6000061
				c0-0.3000183,0.1430054-0.3000183,0.1430054-0.6000061c0-0.3000183-0.144989-0.3000183-0.144989-0.6000061
				c0-0.3000183,0.0709839-0.3000183,0.0709839-0.6000061c0-0.3000183-0.1799927-0.3000183-0.1799927-0.6000061
				c0-0.3000183-0.0539856-0.3000183-0.0539856-0.6000061c0-0.3000183-0.0760193-0.3000183-0.0760193-0.6000061
				c0-0.3000183,0.3220215-0.3000183,0.3220215-0.6000061c0-0.3000183,0.1099854-0.3000183,0.1099854-0.6000061
				c0-0.3000183-0.2999878-0.3000183-0.2999878-0.6000061c0-0.3000183-0.0630188-0.3000183-0.0630188-0.6000061
				c0-0.3000183,0.0310059-0.3000183,0.0310059-0.6060181s0.3359985-0.2999878,0.3359985-0.6000061
				c0-0.2999878-0.4119873-0.2999878-0.4119873-0.6059875s0.1919861-0.3000183,0.1919861-0.6069946
				c0-0.3070068,0.1119995-0.3000183,0.1119995-0.6069946c-0.0471497-0.7312317-0.6045532-1.3271484-1.3309937-1.4230042"/>
			<path id="パス_2266_00000088121188586222891140000002168055515522212261_" class="st0" d="M131.0870056,194.4160156
				l0.0559998,0.3999939l-0.0920105,0.3769836l-0.0370026,0.3900146l-0.2710114,0.3249817l-0.0929871,0.3699951l0.2070007,0.5
				l-0.5500183,0.1820068l0.007019,0.4330139l-0.2420044,0.2999878l-0.3070068,0.2440186l-0.2789917,0.2460022v0.5539856
				l-0.4620056,0.0639954l-0.2909851,0.2510071l-0.3200073,0.2140198l-0.3690033,0.125l-0.2659988,0.3349915l-0.387001,0.0820007
				l-0.3270035,0.2520142l-0.4000015,0.0350037l-0.3639984,0.1659851l-0.375,0.1280212l-0.4089966-0.0859985l-0.4000015-0.053009
				l-0.3799973,0.07901l-0.3949966-0.1589966l-0.3860016,0.1999817l-0.3799973-0.1119995l-0.3820038,0.2430115h-0.3809967
				l-0.3809967-0.0429993l-0.3820038-0.2610168l-0.3820038,0.0859985l-0.3809967,0.0169983l-0.3809967-0.1669922
				l-0.3820038,0.1589966l-0.3840027-0.0740051l-0.3840027,0.2659912l-0.3840027-0.1000061l-0.3679962-0.1349792
				l-0.4189987,0.0229797l-0.1500015-0.4589844l-0.5-0.026001l-0.1220016-0.3999939V198.98703l-0.0830002-0.3560181l0.0999985-0.375
				l-0.2949982-0.3739929l0.0419998-0.3729858l0.0630035-0.3739929l-0.1549988-0.3730164l0.0360031-0.3739929l0.0339966-0.3739929
				l0.0550003-0.3739929l0.2180023-0.3739929l-0.3180008-0.375l0.3519974-0.375l-0.0319977-0.375l-0.3759995-0.3760071
				l0.1500015-0.3769836l0.1080017-0.3760071l0.0759964-0.375l0.0940018-0.375l-0.1279984-0.375l0.0830002-0.375l-0.1449966-0.375
				l0.1740036-0.3760071l-0.0709991-0.375l-0.3000031-0.3770142l0.3430023-0.3769836l-0.163002-0.3760071l0.1699982-0.3760071
				l0.0199966-0.3760071l-0.2799988-0.3760071l0.3000031-0.3760071L117.4840012,187.375l0.1389999-0.3769836l-0.0410004-0.3760071
				l-0.0429993-0.3770142l0.1949997-0.3760071l-0.2799988-0.3739929l0.1269989-0.3739929l0.0299988-0.375l-0.0709991-0.3769836
				l-0.0670013-0.3770142l-0.0149994-0.3769836l0.1849976-0.3760071l0.0660019-0.3760071l-0.0500031-0.3789978l0.1460037-0.3770142
				l-0.0070038-0.3779907l-0.0220032-0.3780212l-0.0159988-0.3789978l-0.2809982-0.3769836l0.2699966-0.3780212l0.0859985-0.3789978
				l-0.0130005-0.3789978l-0.0159988-0.3809814l-0.336998-0.381012l0.0790024-0.4159851l0.2369995-0.3480225l0.1119995-0.4119873
				l0.387001-0.1870117l0.4110031-0.0409851l0.3389969-0.0690002l0.336998-0.2170105l0.3799973-0.1560059l0.3820038,0.2590027
				l0.3809967-0.1919861l0.3809967,0.1950073l0.3820038-0.178009l0.3809967,0.0450134l0.3820038-0.0679932l0.3799973,0.1999817
				l0.3830032,0.0379944l0.3830032,0.0460205l0.3919983-0.3000183l0.3840027-0.039978l0.3919983,0.0299988l0.3740005,0.3370056
				l0.4089966-0.3000183l0.3909988,0.0379944l0.3840027,0.0899963l0.3379974,0.3000183l0.3830032,0.0480042l0.3509979,0.1600037
				l0.413002-0.0230103l0.3170013,0.2400208l0.362999,0.1289978l0.3890076,0.1000061l0.3589935,0.1659851l0.1569977,0.4320068
				l0.473999,0.0429993l0.3410034,0.2220154l0.2319946,0.2999878l-0.0599976,0.5l0.4869995,0.1180115l-0.1429901,0.5
				l0.1490021,0.321991l0.276001,0.2720032l0.2600098,0.2940063l0.072998,0.3630066l-0.1110077,0.4089966l0.0429993,0.3590088
				l0.2549896,0.3190002l0.2160034,0.3320007l0.029007,0.3619995l0.371994-0.0760193l0.3420105,0.0599976l0.3540039-0.1829834
				h0.3499908l0.3539886,0.0249939l0.381012,0.2850037l0.3609924-0.2640076l0.3359985-0.0390015l0.3999939-0.2390137
				l-0.052002-0.3760071L134.25,182.2000122l0.0740051-0.3999939l-0.0130005-0.3840027l0.0679932-0.4079895l-0.4720001-0.2640076
				l0.2450104-0.4720154l-0.2720032-0.3119812l-0.2230072-0.3179932l-0.2429962-0.3000183l-0.0610046-0.3840027
				l-0.1259918-0.3580017l-0.0250092-0.4289856l-0.3309937-0.2400208l-0.1320038-0.375l-0.4140015-0.1549988l-0.2819977-0.2469788
				l-0.0670013-0.4570007l-0.4619904-0.0500183l-0.1840057-0.3429871l-0.2149963-0.322998l-0.3000031-0.2180176
				l-0.4120026-0.0469971l-0.220993-0.3429871l-0.3690186-0.1000061l-0.375-0.0690002l-0.2599945-0.3080139l-0.2899933-0.2749939
				l-0.4470062,0.1440125l-0.3000031-0.2600098l-0.3209991-0.2359924l-0.3659973-0.0859985l-0.3860016,0.0169983
				l-0.3570023-0.1119995l-0.4120026,0.2740173l-0.3430023-0.223999l-0.3570023-0.184021l-0.3880005,0.3110046l-0.362999-0.164978
				l-0.3700027,0.0820007l-0.375-0.085022l-0.375-0.1690063l-0.3759995,0.0410156l-0.3739853-0.0730286l-0.3740005,0.2700195
				l-0.3730011,0.0789795l-0.3759995-0.1999817l-0.3769989-0.1329956l-0.375-0.0169983l-0.375,0.0820007l-0.375,0.1549988
				l-0.3779984,0.1069946l-0.3759995-0.0859985l-0.3759995,0.1289978l-0.3779984-0.1870117l-0.3769989-0.1619873
				l-0.3769989,0.3289795L117.715004,174.125l-0.3779984-0.1000061l-0.3789978,0.07901l-0.3789978-0.1640015l-0.3799973,0.2409973
				l-0.4179993-0.2449951l-0.2750015,0.3930054l-0.4189987,0.0440063l-0.2949982,0.2729797l-0.0830002,0.3999939
				l-0.3789978,0.2910156l0.1940002,0.4259949l-0.1869965,0.3800049l0.3590012,0.3779907l-0.2789993,0.3789978l0.0429993,0.3770142
				l0.1729965,0.3760071l-0.3000031,0.3769836l0.1200027,0.3780212l-0.1640015,0.3779907l0.3909988,0.3780212l-0.1419983,0.3789978
				l-0.2099991,0.3800049l0.1709976,0.3789978l0.1269989,0.3800049l-0.1829987,0.3779907l0.1809998,0.3789978l-0.1380005,0.3780212
				l-0.0820007,0.3779907l0.1600037,0.3770142l0.1259995,0.3779907l-0.086998,0.3770142l-0.1070023,0.3779907l0.0859985,0.3770142
				l0.0110016,0.3779907l-0.1230011,0.3780212l0.1399994,0.3789978l-0.2910004,0.3789978l0.1279984,0.3789978l0.1279984,0.3800049
				l0.0289993,0.3809814l-0.1999969,0.3800049l0.2689972,0.3789978l0.0149994,0.3789978l-0.0319977,0.3789978l-0.3740005,0.3789978
				l0.0739975,0.3789978l0.0559998,0.3789978l0.2089996,0.3789978l0.0699997,0.381012l-0.3769989,0.3809814l0.3280029,0.3800049
				l-0.2369995,0.3800049l-0.0999985,0.3800049l0.2190018,0.3789978l0.1230011,0.3800049l-0.1800003,0.381012l-0.1399994,0.3809814
				l-0.0319977,0.381012l0.3659973,0.3800049l0.0429993,0.3800049l-0.2149963,0.3779907l0.1169968,0.3780212l0.0680008,0.3789978
				l-0.3089981,0.3800049l0.3249969,0.3819885l-0.1470032,0.3800049l-0.1299973,0.3800049l-0.0230026,0.381012l0.2350006,0.3819885
				l-0.0429993,0.382019l-0.0329971,0.3809814l0.0149994,0.3829956l-0.0240021,0.382019l0.1559982,0.3809814l-0.3270035,0.382019
				l0.1050034,0.3829956l-0.1569977,0.3829956l0.3270035,0.3849792l-0.3000031,0.3850098l0.336998,0.3479919v0.3860168
				l0.3379974,0.2120056l0.0709991,0.4530029l0.3119965,0.269989l0.3759995,0.2000122l0.427002-0.382019l0.3759995,0.0450134
				l0.375,0.04599l0.375,0.2950134l0.3730011-0.1809998l0.3730011-0.0119934l0.3740005,0.21698l0.375-0.0740051l0.3769989-0.0769958
				l0.375,0.0490112l0.375-0.03302l0.3759995,0.1419983l0.3769989-0.1999817l0.3759995,0.1170044l0.3769989-0.132019
				l0.3769989-0.0480042l0.3769989-0.1309814l0.3769989,0.2460022l0.3759995-0.257019l0.3779984,0.2780151l0.3789978,0.1380005
				l0.3799973-0.3280029l0.3789978,0.0769958l0.3740005,0.1809998l0.3720016-0.059021l0.3560028-0.2330017l0.3799973,0.1170044
				l0.3410034-0.2510071l0.3779984,0.0580139l0.4100037,0.1829834l0.2829971-0.4429932l0.4290009,0.2000122l0.3340073-0.1849976
				l0.3669891-0.0740051l0.3769989-0.0559998l0.2389984-0.3919983l0.4589996,0.1159973l0.2330017-0.3609924l0.2480011-0.3000183
				l0.3539886-0.1170044l0.4360046-0.0130005l0.1629944-0.3999939l0.3740082-0.1210022l0.3659973-0.1489868l0.0999908-0.4299927
				l0.1360168-0.3739929l0.552002-0.0169983l-0.0090027-0.4790039l0.1529846-0.3370056l0.5-0.1239929l0.0750122-0.3890076
				l0.125-0.3540039l-0.0660095-0.4349976l0.4169922-0.2270203l0.178009-0.3339844l-0.1539917-0.4440002l0.4579926-0.2480164
				l-0.2310028-0.4490051l0.0859985-0.3589783l0.3930054-0.3000183l-0.3000183-0.4379883l0.4609985-0.3000183l0.0220032-0.3779907
				l-0.2289886-0.4429932l-0.3830109,0.0559998l-0.3199921,0.1279907l-0.4170074-0.0369873l-0.42099-0.0160217l-0.4219971,0.0290222
				l-0.4179993-0.1000061l-0.4639893-0.1230164L131.0870056,194.4160156z"/>
			<path id="パス_2267_00000102506555239393556370000006848293395747521160_" class="st0" d="M23.463995,227.1759949v-5.4069824
				l-1.862999,3.9419861h-0.9080009l-1.907999-3.9419861v5.4069824h-1.2270012v-8.0870056h1.2270012l2.362999,5.0320129
				l2.316-5.0320129h1.2280006v8.0870056H23.463995z"/>
			<path id="パス_2268_00000134970093534127088150000010820376650155279257_" class="st0" d="M32.6189957,226.3819885
				c-1.1875172,1.1491394-3.0724831,1.1491394-4.2600002,0c-0.7940006-0.7999878-0.782999-1.6929932-0.782999-3.2489929
				s-0.0110016-2.4530029,0.782999-3.2489929c1.1875172-1.1491089,3.0724831-1.1491089,4.2600002,0
				c0.7999992,0.8000183,0.7719994,1.6920166,0.7719994,3.2489929
				C33.390995,224.6900024,33.4139938,225.5859985,32.6189957,226.3819885 M31.6879959,220.6229858
				c-0.6628304-0.6649475-1.7392082-0.6666565-2.4041595-0.0038452c-0.0012817,0.0012817-0.0025635,0.0025635-0.0038414,0.0038452
				c-0.3999977,0.4309998-0.4779987,0.8860168-0.4779987,2.5100098s0.0799999,2.0780029,0.4779987,2.5099792
				c0.6628304,0.6649475,1.7392101,0.666687,2.4041615,0.0038452c0.0012817-0.0012817,0.0025616-0.0025635,0.0038395-0.0038452
				c0.4000015-0.4320068,0.4769974-0.8859863,0.4769974-2.5099792S32.0849953,221.0539856,31.6879959,220.6229858"/>
			<path id="パス_2269_00000012444649779867905060000017530863372165762983_" class="st0" d="M41.9659958,227.1759949v-5.4069824
				l-1.862999,3.9419861h-0.9080009l-1.9080009-3.9419861v5.4069824h-1.2269974v-8.0870056h1.2269974l2.3619995,5.0320129
				l2.3170013-5.0320129h1.2269974v8.0870056H41.9659958z"/>
			<path id="パス_2270_00000140727442201085979980000005041501937809769859_" class="st0" d="M52.5069962,227.1759949v-5.4069824
				l-1.862999,3.9419861h-0.9080009l-1.9080009-3.9419861v5.4069824h-1.2269974v-8.0870056h1.2269974l2.362999,5.0320129
				l2.3160019-5.0320129h1.2280006v8.0870056H52.5069962z"/>
			<path id="パス_2271_00000154404391850509286370000014772132839949570743_" class="st0" d="M60.2419968,223.848999v3.3280029
				h-1.2270012v-3.3280029l-2.4189987-4.7599792h1.3409996l1.6920013,3.5549927l1.6920013-3.5549927h1.3409996
				L60.2419968,223.848999z"/>
			<path id="パス_2272_00000108273080561846435810000012482279397840075665_" class="st0" d="M76.0179901,226.3250122
				l-0.5,0.5119934l-3.1469955-3.1459961l-3.1339951,3.1459961l-0.5-0.5119934l3.1349945-3.1340027l-3.1349945-3.1350098
				l0.5-0.5119934l3.1339951,3.1459961l3.1469955-3.1459961l0.5,0.5l-3.1349945,3.1470032L76.0179901,226.3250122z"/>
			<path id="パス_2273_00000150784276167515807980000010760931558745925051_" class="st0" d="M88.0449982,227.1759949v-3.5319824
				h-3.2820053v3.5319824h-1.2269974v-8.0870056h1.2269974v3.4530029h3.2819977v-3.4530029h1.2330017v8.0870056H88.0449982z"/>
			<path id="パス_2274_00000111186788584132012190000006326812987296412073_" class="st0" d="M97.9029922,227.1759949
				l-0.5559998-1.6239929h-3.1919937l-0.5569992,1.6239929h-1.3060074l2.9639969-8.0870056h0.9889984l2.9639969,8.0870056
				H97.9029922z M95.7779922,220.9179993l-1.2600021,3.5890198h2.4869995L95.7779922,220.9179993z"/>
			<path id="パス_2275_00000009551305109571442710000002510445233163975101_" class="st0" d="M107.0779953,227.1759949
				l-3.7360001-5.690979v5.690979h-1.2249985v-8.0870056h1.125l3.7369995,5.6790161v-5.6790161h1.2269974v8.0870056H107.0779953z"/>
			<path id="パス_2276_00000003819023562706874450000017208365494161110687_" class="st0" d="M117.234993,226.4150085
				c-0.5672455,0.5223389-1.3197021,0.7962952-2.0899963,0.7609863h-2.8399963v-8.0870056h2.8399963
				c0.7701645-0.0357056,1.5226517,0.2379456,2.0899963,0.7600098c0.8740005,0.875,0.8170013,2.0570068,0.8170013,3.2259827
				c0,1.1690063,0.0569992,2.4649963-0.8170013,3.3399963 M116.3939896,220.7359924
				c-0.3548813-0.3759155-0.8579407-0.5754395-1.3740005-0.5450134h-1.4879913v5.8829956h1.487999
				c0.5161896,0.0300598,1.0192261-0.1698303,1.3740005-0.54599c0.4067078-0.7490234,0.5583572-1.6101379,0.4319992-2.4530029
				c0-1.1130066-0.012001-1.8730164-0.4319992-2.3390198"/>
			<path id="パス_2277_00000178203220413943952690000004297248051698521737_" class="st0" d="M127.5359955,227.1759949v-5.4069824
				l-1.862999,3.9419861h-0.9079971l-1.9079971-3.9419861v5.4069824h-1.2269974v-8.0870056h1.2269974l2.3619995,5.0320129
				l2.3170013-5.0320129h1.2269974v8.0870056H127.5359955z"/>
			<path id="パス_2278_00000060029873625123414180000013973444515204356771_" class="st0" d="M137.6109924,227.1759949
				l-0.5559998-1.6239929h-3.1920013l-0.5569916,1.6239929H132l2.9629822-8.0870056h0.9900055l2.9640045,8.0870056H137.6109924z
				 M135.4869995,220.9179993l-1.2610168,3.5890198h2.4869995L135.4869995,220.9179993z"/>
			<path id="パス_2279_00000057111764757216343740000017240495614425047951_" class="st0" d="M146.5849915,226.4150085
				c-0.5672913,0.5222168-1.3197021,0.7962036-2.0899963,0.7609863h-2.8410034v-8.0870056h2.8410034
				c0.7701416-0.0354614,1.5225525,0.2381287,2.0899963,0.7600098c0.8730164,0.875,0.8170166,2.0570068,0.8170166,3.2259827
				c0,1.1690063,0.0559998,2.4649963-0.8170166,3.3399963 M145.7430115,220.7359924
				c-0.3545837-0.3757629-0.8572693-0.5752869-1.3730164-0.5450134h-1.4920044v5.8829956h1.4890137
				c0.5158691,0.0299072,1.0185242-0.1700134,1.3729858-0.54599c0.407135-0.7488708,0.5591431-1.6100159,0.4330139-2.4530029
				c0-1.1130066-0.0130005-1.8730164-0.4330139-2.3390198"/>
			<path id="パス_2280_00000090290353869328878140000003688613098565860527_" class="st0" d="M150.6390076,227.1759949v-8.0870056
				h5.1679993v1.1000061h-3.9410095v2.3619995h3.3619995v1.0910034h-3.3619995v2.4299927h3.9410095v1.1000061
				L150.6390076,227.1759949z"/>
			<path id="パス_2281_00000055688166406349431690000002375641264978720153_" class="st0" d="M168.117981,226.3250122
				c-1.1911011,1.2046814-3.1287231,1.230072-4.3509827,0.0570068c-0.7940063-0.8000183-0.78302-1.6929932-0.78302-3.2489929
				s-0.0109863-2.4530029,0.78302-3.2489929c0.5595703-0.5668335,1.3276672-0.87854,2.1239929-0.8619995
				c1.4866333-0.0628967,2.7699585,1.0319824,2.9419861,2.5099792h-1.2380066
				c-0.1230469-0.8352356-0.8564148-1.4430542-1.6999817-1.4089966c-0.4494019-0.0054321-0.8809814,0.1755676-1.1920166,0.5
				c-0.3999939,0.4309998-0.4889832,0.8860168-0.4889832,2.5100098s0.0910034,2.0899963,0.4889832,2.5220032
				c0.3127441,0.3205261,0.7442932,0.4971924,1.1920166,0.4880066c0.5012817,0.0126953,0.9829712-0.1948853,1.3179932-0.5679932
				c0.2922058-0.3570557,0.4383545-0.811554,0.4089966-1.2720032v-0.45401h-1.7270203v-1.0449829h2.95401v1.2369995
				c0.0818787,0.8288879-0.1810608,1.6549377-0.7270203,2.2839966"/>
			<path id="パス_2282_00000133506963844830981840000012853062679428530333_" class="st0" d="M176.7049866,226.3819885
				c-1.1875,1.1491394-3.0724792,1.1491394-4.2599792,0c-0.7940063-0.7999878-0.78302-1.6929932-0.78302-3.2489929
				s-0.0109863-2.4530029,0.78302-3.2489929c1.1875-1.1491089,3.0724792-1.1491089,4.2599792,0
				c0.7950134,0.8000183,0.7720032,1.6920166,0.7720032,3.2489929
				C177.4769897,224.6900024,177.5,225.5859985,176.7049866,226.3819885 M175.7739868,220.6229858
				c-0.6628113-0.6649475-1.7391968-0.6666565-2.4041443-0.0038452c-0.0012817,0.0012817-0.0025635,0.0025635-0.0038452,0.0038452
				c-0.3999939,0.4309998-0.4779968,0.8860168-0.4779968,2.5100098s0.0799866,2.0780029,0.4779968,2.5099792
				c0.6628113,0.6649475,1.7391968,0.666687,2.4041443,0.0038452c0.0012817-0.0012817,0.0025635-0.0025635,0.0038452-0.0038452
				c0.3999939-0.4320068,0.4770203-0.8859863,0.4770203-2.5099792S176.17099,221.0539856,175.7739868,220.6229858"/>
			<path id="パス_2283_00000088091297821278670340000013485969568185981335_" class="st0" d="M185.1210022,226.3819885
				c-1.1875305,1.1491394-3.0724792,1.1491394-4.2600098,0c-0.7940063-0.7999878-0.7829895-1.6929932-0.7829895-3.2489929
				s-0.0110168-2.4530029,0.7829895-3.2489929c1.1875305-1.1491089,3.0724792-1.1491089,4.2600098,0
				c0.7949829,0.8000183,0.7720032,1.6920166,0.7720032,3.2489929
				C185.8930054,224.6900024,185.9159851,225.5859985,185.1210022,226.3819885 M184.1900024,220.6229858
				c-0.6628418-0.6649475-1.7392273-0.6666565-2.4041748-0.0038452c-0.0012817,0.0012817-0.0025635,0.0025635-0.0038452,0.0038452
				c-0.3999939,0.4309998-0.4779968,0.8860168-0.4779968,2.5100098s0.0800171,2.0780029,0.4779968,2.5099792
				c0.6628418,0.6649475,1.7392273,0.666687,2.4041748,0.0038452c0.0012817-0.0012817,0.0025635-0.0025635,0.0038452-0.0038452
				c0.3999939-0.4320068,0.4769897-0.8859863,0.4769897-2.5099792S184.5870056,221.0539856,184.1900024,220.6229858"/>
			<path id="パス_2284_00000062165449290117837400000016144157096250213763_" class="st0" d="M193.7200012,226.4150085
				c-0.5675049,0.522583-1.3203735,0.7965698-2.0910034,0.7609863h-2.8390198v-8.0870056h2.8390198
				c0.7704773-0.0358582,1.5233459,0.237793,2.0910034,0.7600098c0.8739929,0.875,0.8169861,2.0570068,0.8169861,3.2259827
				c0,1.1690063,0.0570068,2.4649963-0.8169861,3.3399963 M192.8789978,220.7359924
				c-0.3548889-0.3759155-0.8579407-0.5754395-1.3739929-0.5450134h-1.4880066v5.8829956h1.4880066
				c0.5161743,0.0300598,1.0192261-0.1698303,1.3739929-0.54599c0.4067078-0.7490234,0.5583496-1.6101379,0.4320068-2.4530029
				c0-1.1130066-0.0119934-1.8730164-0.4320068-2.3390198"/>
			<path id="パス_2285_00000044879903466927528290000007145327524345860017_" class="st0" d="M199.8070068,227.2440186
				c-1.0639648,0.0787048-2.1092529-0.3110046-2.8619995-1.0670166l0.8179932-0.8070068
				c0.545105,0.5438843,1.2988281,0.8253784,2.0669861,0.7720032c1.0559998,0,1.6690063-0.4539795,1.6690063-1.2369995
				c0.0202026-0.3130493-0.0957031-0.6196289-0.3179932-0.8410034c-0.2466736-0.2125854-0.5594177-0.3330994-0.8849792-0.3410034
				l-0.9550171-0.1359863c-0.5653992-0.0534973-1.100647-0.2797546-1.5329895-0.6480103
				c-0.4091187-0.4062195-0.6243286-0.9684143-0.5910034-1.5440063c0-1.4089966,1.0220032-2.3739929,2.6999817-2.3739929
				c0.9278564-0.0533142,1.8363953,0.2796936,2.5100098,0.9200134l-0.7839966,0.7720032
				c-0.4767151-0.4399414-1.1126099-0.6657715-1.7600098-0.625c-0.9539795,0-1.4769897,0.54599-1.4769897,1.2619934
				c-0.013092,0.2827148,0.0992737,0.5567932,0.3070068,0.7489929c0.2624207,0.2065735,0.5771484,0.3360596,0.9089966,0.3739929
				l0.9199829,0.1369934c0.5536499,0.0387878,1.0815735,0.2484131,1.5110168,0.6000061
				c0.4528809,0.4291382,0.6936035,1.0360718,0.6579895,1.6589966c0,1.4869995-1.2160034,2.3729858-2.9079895,2.3729858"/>
			<path id="パス_2286_00000018224200966630407030000001163704077277016470_" class="st0" d="M148.3099976,119.6380005
				c-0.1784058-1.4004822-0.8464966-2.6927032-1.8860168-3.6480026c-1.7150269,0.2605515-3.3551788,0.8822556-4.8119812,1.8239975
				c-1.3231201,0.7582092-2.7033081,1.4121857-4.128006,1.9560013c-1.7050018,0.6200027-3.5460052,1.1559982-5.326004,1.677002
				c-1.6589966,0.4840012-3.2269897,0.9420013-4.6689911,1.4530029c-4.8205872,1.7932892-9.9499054,2.6091385-15.0889969,2.4000015
				c-6.2712479-0.183609-12.3312302-2.3074799-17.3450012-6.0790024l-0.2109985-0.1559982l-0.1790009-0.1920013
				c-0.4869995-0.5169983-0.9440002-0.9589996-1.3669968-1.3690033c-1.9349976-1.8799973-3.7639999-3.6549988-4.2389984-8.0699997
				c-0.1257935-0.4761963-0.3077316-0.9357529-0.5419998-1.3690033c-0.1999969-0.4229965-0.4000015-0.8529968-0.5739975-1.2939987
				l-0.1350021-0.4319992c-0.4032364-1.8041687-0.7037125-3.629776-0.9000015-5.4680023
				c-0.6289978-7.0650024,0.7249985-10.927002,5.5800018-15.9000015c5.8899994-6.0309982,13.6269989-8.2870026,20.4160004-9.9280014
				l0.5149994-0.125l0.3519974,0.0410004c0.1949997-0.0199966,0.5599976-0.0770035,0.7919998-0.112999
				c0.4580002-0.0719986,0.8190002-0.1259995,1.1409988-0.1539993c1.7590027-0.5230026,1.8720016-0.6090012,3.8440018-2.0920029
				l0.1490021-0.0999985c0.1999969-0.1340027,0.3799973-0.2480011,0.5390015-0.3499985l0.0709991-0.0449982
				c0.0429993-0.2429962,0.0859985-0.5250015,0.0999985-0.6520004c0.1611557-0.7997589,0.2448807-1.6131821,0.25-2.4290009
				c0.0250015-0.3000031,0.0459976-0.5719986,0.0859985-0.9000015c-0.3389969-0.3280029-0.9909973-0.8259964-1.5370026-1.2440033
				c-0.2666702-0.2039948-0.5490036-0.4206696-0.8470001-0.6500015c-0.7180023-0.163002-1.1999969-0.3000031-1.5999985-0.4229965
				c-0.6782379-0.2097931-1.3740768-0.3577271-2.0790024-0.4420013c-1.0479813-0.1078033-2.1020584-0.1445541-3.1549988-0.1100006
				c-3.8738022-0.263649-7.6361847-1.4087791-11-3.3479996c-0.9179993-0.6189995-1.862999-1.2000008-2.862999-1.8120003
				c-0.7770004-0.4770012-1.5540009-0.9550018-2.3199997-1.4500008c-2.9509964-1.9129982-4.7190018-4.6279984-6.4290009-7.2529984
				l-0.3710022-0.5730019c-2.9089966-4.4399986-2.8600006-7.6940002-3.8410034-12.7519989
				c-0.6139984-3.1689987,1.6490021-9.1289997,4.0999985-11.9309998c1.4805908-1.6349087,3.1136398-3.1249752,4.8769989-4.4499855
				c1.169838-0.8968639,2.2895203-1.8573112,3.3539963-2.8770008c2.7413864-2.9491615,6.7355576-4.3971901,10.7299957-3.8900003
				c1.4388199,0.150753,2.8855515,0.2128706,4.3320007,0.1859999c0.5999985,0,1.2070007,0.0050001,1.8089981,0.0170002
				c2.853775,0.093689,5.577919,1.213953,7.6719971,3.1550007c1.3236618,1.0570526,2.8435669,1.8414764,4.4720001,2.3080006
				c2.1168671,0.6609898,4.11026,1.6664753,5.9000092,2.9759998c0.4213257,0.1047096,0.8503723,0.175602,1.2829895,0.2119999
				c0.2369995,0.0270004,0.4750061,0.0459995,0.7120056,0.066c1.6169434,0.0296745,3.1970673,0.4879398,4.5789948,1.3279991
				c0.8623505-0.9283981,1.5986786-1.9663219,2.1900024-3.0869999c0.276001-0.4629993,0.5510101-0.9260006,0.8390045-1.3810005
				c0.4137573-0.6249523,0.8994141-1.1992092,1.446991-1.7110004c0.1260071-0.125,0.2890015-0.2849998,0.3890076-0.3999996
				c-0.0160217-0.8533173-0.0999451-1.7040062-0.2510071-2.5440006c-0.147644-0.8799715-0.2477875-1.7672567-0.3000031-2.657999
				c-0.0005341-0.0336046-0.0042114-0.0670843-0.0110016-0.1000004c-0.3581238-0.3063202-0.7472229-0.5744381-1.1610107-0.8000002
				c-0.4609985-0.283-0.9819946-0.6000004-1.5090027-1c-0.1329956-0.1000004-0.2859955-0.1940002-0.4379883-0.2889996
				c-1.0401001-0.5569725-1.8869629-1.4160566-2.4290161-2.4639997c-0.5249939-1.1619997-1.522995-1.927-3.1819916-2.9309998
				c-1.8424377-1.0093846-3.8341522-1.7182975-5.9000092-2.0999999c-1.019989-0.247-2.0729904-0.5-3.2109909-0.842
				c-0.5049973-0.151-1.0139999-0.3099999-1.5220032-0.4679999c-1.9546432-0.7047482-3.9851456-1.1779767-6.0499649-1.4100003
				c-0.7795563-0.0141379-1.5587769,0.0427641-2.3280029,0.17c-1.9946442,0.3832204-4.0512009,0.2955616-6.0059967-0.256
				c-0.1340027,0.035-0.3000031,0.08-0.4199982,0.114c-0.6741409,0.2106467-1.3686676,0.3494183-2.0719986,0.414
				c-2.3136368,0.1514517-4.6150894,0.4520768-6.8899994,0.9c-2.5486755,0.6239507-5.0261383,1.5093081-7.3930054,2.6420002
				c-0.8850021,0.3839998-1.7710037,0.7670002-2.6610031,1.1290002c-0.4609985,0.1869998-0.9459991,0.3629999-1.4369965,0.5380001
				c-0.9471512,0.2577872-1.8403244,0.6835418-2.637001,1.2569995c-0.9841385,1.0789752-2.0309525,2.0990729-3.1350021,3.0549998
				c-1.6645584,1.3039751-3.0704193,2.9079094-4.1450043,4.7290001c-0.7471924,1.4192009-1.6115265,2.7735672-2.5839996,4.0489998
				c-0.6119995,0.8479996-1.1909943,1.6490002-1.6689911,2.4599991c-0.2410049,0.3999996-0.4889984,0.8099995-0.7389984,1.2180004
				c-0.9966812,1.4338684-1.7720184,3.0094929-2.3000031,4.6739998c-0.9494247,4.011198-1.5186081,8.1029644-1.6999969,12.2209988
				c-0.0190048,0.4309998-0.0460052,0.8650017-0.0720062,1.2999992c-0.2314377,1.5645409-0.1202087,3.1606865,0.326004,4.6780014
				c0.6930008,1.7529984,1.2550049,3.5340004,1.8000031,5.2560005c0.4299927,1.3660011,0.8379974,2.6559982,1.2999954,3.9309998
				c0.5271835,1.690094,1.4868927,3.2130737,2.7840042,4.4179993c1.344162,1.163475,2.2624969,2.7415314,2.6100006,4.4849968
				c0.1849976,0.7330017,0.1849976,0.7330017,0.6539917,0.9900055c0.5261917,0.2737885,1.0239563,0.5990448,1.4860001,0.9710007
				c0.354393,0.2720337,0.7373047,0.5047379,1.1419983,0.6940002l4.4440002,2.3399963l-4.1899948,2.7670059
				c-0.3379974,0.2220001-0.6159973,0.4189987-0.8590012,0.5910034c-0.5387573,0.4062958-1.1169968,0.7573929-1.7260056,1.0479965
				c-0.4004669,0.1598129-0.7594757,0.4083862-1.0499954,0.7269974c-0.5116272,0.5021744-1.0656891,0.9592056-1.6559982,1.3659973
				c-1.0820007,0.7440033-1.4810028,1.2070007-2.0800018,3.8479996l-0.0919952,0.322998
				c-0.2133865,0.5848694-0.3233643,1.2024155-0.3250046,1.8249969c0.036293,1.3354187-0.435463,2.6348724-1.3199997,3.6360016
				c0.0059967,0.0739975,0.0099945,0.1470032,0.0139999,0.2109985c0.0889969,1.3280029,0.2000046,2.9800034-1.0569992,4.1949997
				c-1.0139999,0.9810028-1.2900009,2.3160019-1.4449997,4.4369965c-0.1319962,1.8150024-0.3190002,3.637001-0.5,5.4000015
				l-0.1689987,1.6760025c-0.2279968,2.288002-0.3499985,4.1729965,0.3150024,5.8740005
				c0.0906677,0.2320023,0.1833344,0.465332,0.2779999,0.6999969c0.4623413,1.0633545,0.8327026,2.1643906,1.1069946,3.2910004
				c0.5650024,2.5920029,0.9410019,3.1419983,2.5220032,5.4540024c1.2433319,1.814003,2.4766693,3.6333389,3.6999969,5.4580002
				c1.6199951,2.4000015,3.2399979,4.8000031,4.8860016,7.1789932c0.0145187,0.0136108,0.0298843,0.0263062,0.0459976,0.0379944
				c5.1380005,1.3999939,9.6060028,4.0630188,13.6709976,6.7380066c3.2340012,2.1300049,7.0999985,3.2409973,12.1750031,3.5
				c1.5144653,0.1526794,3.0441742,0.0024109,4.5-0.4419861c2.0022888-0.7755737,4.1509933-1.0999451,6.2929993-0.9500122
				c3.6910019,0.1090088,7.5999985-0.0480042,11.1600037-1.8469849c0.8667603-0.4110107,1.7735443-0.7316895,2.7059937-0.9570007
				c0.1999969-0.0559998,0.3999939-0.1100159,0.6000061-0.1679993c0.957428-0.2628784,1.9316864-0.4599915,2.9159851-0.5899963
				c2.0429993-0.3160095,3.1549988-0.5310059,4.1470032-1.631012c1.5550232-1.5352783,3.3956757-2.7511292,5.4179993-3.5789795
				c0.81427-0.3743896,1.6089478-0.789917,2.381012-1.2450104c0.8930054-0.5530014,0.9920044-0.6910019,0.7479858-1.8290024
				c-0.469574-2.2198105-0.6683655-4.4883499-0.59198-6.7559967"/>
			<path id="パス_2287_00000090294671999966648750000004991651690722630539_" class="st0" d="M180.8569946,123.9020004
				c-1.1369934,0.362999-1.6109924,1.5439987-2.3370056,2.3270035c-0.7998047,0.6494217-1.8432007,0.9174805-2.8569946,0.7340012
				c-1.04599-0.2180023-2.1529846-0.711998-3.2909851-0.3499985c-0.7483826,0.173172-1.4659729,0.459465-2.1280212,0.848999
				c-0.6114502,0.4791641-1.1366577,1.0591583-1.5529785,1.7149963c-0.4140015,0.631012-0.0750122,1.5460205-0.1940002,2.2610168
				c-0.1727295,0.6723938-0.1703186,1.3778076,0.0069885,2.0489807c0.125,0.3950195,0.5160217,0.5580139,0.7319946,0.8950195
				c0.3409424,0.5560913,0.7901611,1.0379639,1.3210144,1.4169922c0.4840698,0.4729004,1.0370178,0.869751,1.6399841,1.177002
				c0.6340027,0.2539978,1.1620178,0.9930115,1.8910217,1.1159973c0.7095947,0.2225037,1.4374084,0.3821106,2.1749878,0.4770203
				c0.6900024-0.007019,1.3210144-1.0859985,2.0429993-1.2070007c0.6849976-0.1140137,1.6260071,0.7079773,2.3210144,0.4859924
				c0.6949768-0.2220154,1.118988-1.1640015,1.743988-1.4670105c1.3134155-0.5953979,2.5867615-1.2755127,3.8120117-2.0359802
				c0.5249939-0.5230103,0.1119995-1.7279968,0.4830017-2.3000183c0.3999939-0.6239929,1.8339844-0.7250061,2.0310059-1.3789978
				c0.2109985-0.6999817-0.2170105-1.5679932-0.2680054-2.2659912c-0.0169983-0.3999939-0.3999939-0.6999969-0.5310059-1.0920029
				c-0.186676-0.6656723-0.5409546-1.2723312-1.0290222-1.762001c-0.5203857-0.4551773-1.1351013-0.789505-1.7999878-0.9789963
				c-0.6296997-0.2870026-1.3086853-0.4503021-2-0.4810028c-0.7109985-0.012001-1.4869995-0.4150009-2.2170105-0.1819992"/>
			<path id="パス_2288_00000042730354688947512770000000937772039851816337_" class="st0" d="M215.0780029,174.3850098
				c0.6977844-0.0028992,1.3834839,0.182251,1.9849854,0.5359802c0.6061707,0.3467102,1.1090698,0.8485718,1.4570007,1.45401
				c1.0951843,1.8981628,0.4442444,4.3247681-1.453949,5.4199524c-0.6044617,0.3487549-1.2901917,0.5319214-1.9880371,0.5310364
				c-0.7019043,0.0040283-1.3922119-0.178894-2-0.5299988c-1.8982239-1.1017456-2.5438538-3.5337219-1.4420776-5.4319153
				C212.3479004,175.1374207,213.659668,174.3831787,215.0780029,174.3850098 M215.0780029,175.0440063
				c-1.8346863-0.0077515-3.3282776,1.4732361-3.3360291,3.3079224c-0.0077515,1.8346558,1.4732666,3.3282471,3.3079224,3.3359985
				c1.8346863,0.007782,3.3282776-1.4732361,3.3360291-3.3079224c0.0037537-0.8858643-0.3465271-1.7365723-0.9729309-2.3630066
				C216.8018799,175.3849487,215.9571228,175.0329285,215.0780029,175.0440063 M214.178009,180.4920044h-0.6900024v-4.2730103
				h1.4799805c0.3742981-0.0192261,0.7492065,0.022644,1.1100159,0.1239929
				c0.4243469,0.1672363,0.7058716,0.5739441,0.7129822,1.0299988c0.0068665,0.3114014-0.1171875,0.6113892-0.34198,0.8269958
				c-0.2377625,0.2288818-0.5503845,0.3638916-0.8800049,0.3800049c0.1740723,0.0747986,0.3297119,0.1867676,0.4559937,0.3280029
				c0.2011719,0.2344055,0.3818359,0.4856873,0.539978,0.7510071l0.5160217,0.8330078h-0.8430176l-0.3739929-0.6690063
				c-0.1703186-0.3397522-0.3866882-0.6543884-0.6430054-0.9349976c-0.1755981-0.1493225-0.401825-0.2255554-0.6319885-0.2130127
				h-0.4109802V180.4920044z M214.178009,176.7990112v1.2850037h0.8429871
				c0.270813,0.0193481,0.5418701-0.0341492,0.7850037-0.1549988c0.1665955-0.1061707,0.2617493-0.2949524,0.2480164-0.4920044
				c0.0202637-0.1982727-0.0719604-0.3912659-0.2390137-0.5c-0.2669067-0.1143188-0.5574341-0.1626587-0.8469849-0.1410217
				L214.178009,176.7990112z"/>
		</g>
	</g>
</g>
</svg>
