<?xml version="1.0" encoding="utf-8"?>
<!-- Generator: Adobe Illustrator 24.2.0, SVG Export Plug-In . SVG Version: 6.00 Build 0)  -->
<svg version="1.1" id="レイヤー_1" xmlns="http://www.w3.org/2000/svg" xmlns:xlink="http://www.w3.org/1999/xlink" x="0px"
	 y="0px" viewBox="0 0 464 146" style="enable-background:new 0 0 464 146;" xml:space="preserve">
<style type="text/css">
	.st0{fill:#FFFFFF;}
</style>
<path id="パス_2117" class="st0" d="M8.1,5.7c-1,0-2,0-3,0c-1.3,0-1.3,0.4-1.3,1.1c0,0.5,0,0.9,0,1.4V12c0,0.7,0,1.4,0,2
	c0,0.6,0.2,0.7,1.3,0.7c1.4,0,1.6,0,1.6-0.8c0-0.5-0.1-1.4-0.1-2.1V9.2c0-0.4,0.3-0.8,0.8-0.8c0,0,0,0,0,0H18c0.5,0,1.1,0.1,1.1,0.7
	c-0.2,1.5-0.6,2.9-1.2,4.3c-1.7,3.6-4.7,6.4-8.3,7.9c-0.2,0.1-0.5,0.2-0.5,0.5c0,0.4,1.2,2.1,1.8,2.1c0.9,0,4.3-2.6,5.1-3.3
	c3.8-3.3,5.3-6.7,6.2-11.6c0.1-0.4,0.2-0.7,0.3-1.1c0.1-0.2,0.1-0.5,0.2-0.7c0-0.4-0.3-0.6-0.8-1.1c-0.3-0.3-0.6-0.5-1-0.6
	c-0.2,0-0.4,0-0.5,0c-0.4,0-0.9,0.1-1.3,0.1h-3.9c-0.4,0-0.7-0.3-0.8-0.7c0,0,0,0,0,0V3.8c0-1.6,0-1.9,0.3-2.2
	C14.8,1.6,15,1.4,15,1.3c0-0.3-0.8-0.3-1-0.3c-0.3,0-2-0.1-2.3-0.1c-0.2,0-0.4,0-0.4,0.3c0,0.1,0,0.2,0,0.3c0.1,0.8,0.1,1.7,0.1,2.5
	V5c0,0.4-0.3,0.7-0.7,0.8c0,0,0,0,0,0H8.1z M42,3.9c-1.2,0-2.3-0.1-3.5-0.1c-0.8,0-0.7,0.3-0.7,1.5c0,1.2,0,1.5,0.8,1.5
	c1.1,0,2.2-0.1,3.4-0.1h9.6c0.5,0,0.9,0.1,0.9,0.6c0,0.2,0,0.4-0.1,0.6c-0.4,3.1-2,5.9-4.4,7.9c-2,1.6-4.3,2.8-6.7,3.6
	c-0.2,0.1-0.5,0.1-0.5,0.4c0,0.4,1,2.2,1.6,2.2c0.3,0,0.6-0.1,0.9-0.2c1.8-0.7,3.6-1.6,5.2-2.8c4.4-3.1,6.3-6.7,7.2-11.9
	c0.2-1.2,0.5-1.5,0.5-1.7S55,3.8,54.3,3.8c-0.1,0-0.4,0.1-0.5,0.1c-0.5,0.1-1.9,0.1-2.4,0.1H42z M75.7,3.9c-1.2,0-2.3-0.1-3.5-0.1
	c-0.8,0-0.7,0.3-0.7,1.5c0,1.2,0,1.5,0.8,1.5c1.1,0,2.2-0.1,3.4-0.1h9.6c0.5,0,0.9,0.1,0.9,0.6c0,0.2,0,0.4-0.1,0.6
	c-0.4,3.1-2,5.9-4.4,7.9c-2,1.6-4.3,2.8-6.7,3.6c-0.2,0.1-0.5,0.1-0.5,0.4c0,0.4,1,2.2,1.6,2.2c0.3,0,0.6-0.1,0.9-0.2
	c1.8-0.7,3.6-1.6,5.2-2.8c4.4-3.1,6.3-6.7,7.2-11.9c0.2-1.2,0.5-1.5,0.5-1.7s-1.2-1.7-1.8-1.7c-0.1,0-0.4,0.1-0.5,0.1
	c-0.5,0.1-1.9,0.1-2.4,0.1H75.7z M122,1.3c-0.3,0-1.3,0.8-1.3,1.1c0,0.1,0.1,0.2,0.2,0.4c0.6,0.6,1.3,1.4,1.9,2.1
	c0.1,0.1,0.2,0.3,0.4,0.3c0.4,0,1.3-0.8,1.3-1.2C123.9,3,123,2,122,1.3z M119.2,3.2c-0.3,0-1.3,0.8-1.3,1.1c0,0.1,0.1,0.2,0.2,0.4
	c0.6,0.7,1.3,1.4,1.8,2.2c0.1,0.1,0.2,0.3,0.4,0.3c0.3,0,1.3-0.8,1.3-1.2C121,4.9,120.2,3.9,119.2,3.2z M114.5,9.2
	c-0.1,0.1-0.1,0.1-0.2,0.1c-0.1,0-0.2-0.1-0.2-0.3V5c0-0.7,0-1.2,0-1.6c-0.1-0.5,0-1,0.3-1.4c0.1-0.1,0.1-0.2,0.1-0.4
	c0-0.4-1.1-0.5-2.3-0.6c-0.2,0-0.8-0.1-0.9-0.1c-0.3,0-0.4,0.1-0.4,0.4c0,0.1,0,0.4,0,0.5c0,0.7,0.1,1.4,0.1,2.1v15.4
	c0,1.2-0.1,2.4-0.1,3.6c0,0.9,0.5,0.9,1.5,0.9c1.6,0,1.7-0.2,1.7-1.4c0-1.1-0.1-2.1-0.1-3.2v-7.4c0-0.2,0.1-0.4,0.3-0.4
	c0.1,0,0.2,0,0.3,0.1c1.4,1,2.7,2,3.9,3.2c0.1,0.2,0.4,0.3,0.6,0.4c0.5,0,1.8-1.4,1.8-1.9s-1.5-1.6-1.9-1.9
	c-0.5-0.5-3.2-2.6-3.8-2.6C115,8.6,114.7,9,114.5,9.2z M141.7,10.3c-1.1,0-3-0.1-3.3-0.1c-0.7,0-0.8,0.2-0.8,1.7
	c0,0.8,0,1.4,0.7,1.4c1.1,0,2.3-0.1,3.4-0.1h12.4c1.1,0,2.2,0.1,3.4,0.1c0.7,0,0.7-0.5,0.7-1.4c0-1.5,0-1.7-0.8-1.7
	c-0.4,0-2.1,0.1-3.3,0.1L141.7,10.3z M174.8,8c-1.1,0-2.6-0.1-3.4-0.1c-0.7,0-0.7,0.4-0.7,1.4c0,1.2,0.1,1.6,0.7,1.6
	c0.9,0,2.2-0.1,3.4-0.1h5.3c0.4,0,0.6,0.3,0.6,0.7c0,0.2-0.1,0.5-0.1,0.7c-0.6,3.7-3.1,6.9-6.5,8.4c-0.2,0.1-0.7,0.3-0.7,0.5
	c0.5,0.9,1.3,1.6,2.2,2c0.8-0.3,1.6-0.8,2.4-1.3c3.2-2.4,5.3-6,5.7-10c0.1-0.5,0.2-0.9,0.8-0.9h3.8c1.2,0,2.3,0.1,3.5,0.1
	c0.6,0,0.7-0.3,0.7-1.4c0-1.2,0-1.5-0.7-1.5c-1.2,0-2.4,0.1-3.6,0.1h-3.6c-0.6,0-0.8-0.5-0.8-1c0-1.2,0-2.4,0-3.6V3.1
	c0-0.5,0-0.6,0.3-0.9c0.1-0.1,0.1-0.2,0.1-0.3c0-0.2-0.2-0.3-0.4-0.3c-0.4-0.1-2.4-0.3-2.8-0.3c-0.1,0-0.3,0.1-0.3,0.2
	c0,0,0,0,0,0.1c0,0.1,0,0.2,0,0.3c0.1,0.5,0.1,3.8,0.1,4.5v0.4c0,0.6-0.1,1.3-0.8,1.3L174.8,8z M208.3,10.2c-1.2,0-2.7-0.1-3.4-0.1
	c-0.7,0-0.7,0.5-0.7,1.6c0,0.9,0,1.4,0.7,1.4c0.9,0,2.2-0.1,3.4-0.1h5.5c0.3,0,0.5,0.2,0.5,0.4c0,0,0,0,0,0
	c-0.1,0.5-0.3,0.9-0.5,1.3c-1.3,3-3.1,4.6-6,6.1c-0.3,0.1-0.6,0.3-0.6,0.5c0.4,0.9,1.2,1.5,2.1,1.9c0.6,0,2.6-1.5,3.2-1.9
	c2.3-1.8,4-4.4,4.8-7.2c0.2-0.7,0.3-1.2,1.2-1.2h4.1c1.2,0,2.3,0,3.5,0c0.7,0,0.8-0.3,0.8-1.4c0-1.2,0-1.5-0.7-1.5
	c-1,0-2.3,0.1-3.5,0.1h-3.8c-0.5,0-0.6-0.3-0.6-0.7c0-0.5,0-1,0-1.5c0-0.5-0.1-1-0.1-1.5c0-0.5,0.3-0.6,0.7-0.8
	c0.6-0.1,1.2-0.3,1.7-0.5c0.5-0.1,2.3-0.8,2.6-0.8c0.1,0,0.2,0,0.2,0c0.1,0,0.2,0,0.3,0c0.2,0,0.4-0.1,0.4-0.3
	c0-0.3-1.1-1.4-1.3-1.6c-0.2-0.2-0.8-0.9-1.1-0.9c-0.2,0-0.3,0.1-0.5,0.2c-1.1,0.6-2.4,1-3.6,1.2c-2.7,0.6-5.5,0.9-8.2,0.9
	c-0.4,0-1-0.1-1.3-0.1c-0.3,0-0.5,0.1-0.5,0.5c0.1,0.6,0.2,1.2,0.5,1.7c0.2,0.5,0.3,0.6,0.9,0.6c1.9,0,5.5-0.4,5.7-0.4
	c0.6,0,0.6,0.5,0.6,1.9c0,0.8,0,1.8-0.8,1.8L208.3,10.2z M246.9,8.7c-1.1,0-2.2,0-2.7,0c-0.6,0-0.6,0.5-0.6,1.2c0,0.9,0,1.3,0.6,1.3
	c0.7,0,1.7-0.1,2.6-0.1h3.8c0.4,0,0.7,0.1,0.7,0.6c0,0.1-0.1,0.5-0.1,0.5l-0.5,4.7c-0.1,0.4-0.4,0.7-0.8,0.6h-6.5
	c-0.7,0-2.2-0.1-2.6-0.1c-0.6,0-0.7,0.5-0.7,1.4c0,0.5,0,1.2,0.7,1.2c0.6,0,1.7-0.1,2.6-0.1h11c0.9,0,1.8,0.1,2.6,0.1
	c0.8,0,0.8-0.5,0.8-1.2c0-0.9,0-1.4-0.7-1.4c-0.9,0-1.8,0.1-2.7,0.1h-0.7c-0.3,0-0.6-0.3-0.6-0.6c0,0,0,0,0-0.1l0.6-5
	c0-0.1,0.1-0.7,0.2-1.2c0.1-0.4,0.1-0.5,0.1-0.8c0-0.6-0.9-1.4-1.6-1.4c-0.1,0-0.3,0-0.4,0c-0.3,0-0.6,0-0.9,0L246.9,8.7z
	 M289.7,4.1c-0.5,0-2.1,0.9-2.1,1.4c0,0.2,0.1,0.3,0.2,0.5c1.5,1.7,2.8,3.6,3.6,5.8c0.1,0.3,0.3,0.6,0.6,0.6c0.5,0,2.2-1,2.2-1.6
	C294.4,10.1,290.7,4.1,289.7,4.1z M279.9,1.4c-0.3,0-0.3,0.3-0.3,0.5c0,0.3,0,0.6,0,0.9c0,1.2-0.1,2.3-0.3,3.5
	c-0.1,0.6-0.4,0.7-0.9,0.8c-1.5,0.4-3,0.6-4.5,0.8c-0.4,0-0.8,0-0.8,0.4c0,0.1,0.5,2.8,1.1,2.8c0.2,0,0.4-0.1,0.6-0.2
	c1-0.4,2-0.7,3.1-0.9c0.2,0,0.3,0.1,0.4,0.3c0,0,0,0,0,0.1c-0.2,0.7-0.4,1.4-0.7,2c-1.1,2.8-2.7,5.4-4.8,7.5
	c-0.2,0.2-0.3,0.4-0.4,0.6c0,0.6,1.7,1.6,2.2,1.6c0.2,0,0.4-0.1,0.5-0.3c1-1.2,1.9-2.5,2.7-3.9c1.5-2.5,2.7-5.2,3.4-8
	c0.2-0.8,0.5-1,2-1c1.6,0,1.7,1.1,1.7,2.5c0,2.1-0.4,4.2-1.2,6.1c-0.4,1.1-1.6,1.8-2.8,1.6c-0.5,0-1-0.1-1.3-0.1s-0.4,0.2-0.4,0.5
	c0,0.7,0.2,1.3,0.5,1.9c0.2,0.5,0.7,0.7,1.2,0.6c2.1,0.1,4.1-1,5.1-2.9c1.2-2.2,1.6-5.8,1.6-8.3c0-1.5-0.3-3.1-1.6-3.9
	c-0.9-0.5-2-0.7-3.1-0.6c-0.1,0-0.2,0-0.3,0c-0.3,0-0.6-0.2-0.6-0.5c0,0,0,0,0-0.1c0-0.1,0-0.2,0.1-0.3c0.1-0.5,0.1-0.8,0.2-1.2
	c0.2-0.9,0.2-1.4,0.7-1.8c0.1-0.1,0.2-0.2,0.2-0.3c0-0.3-0.5-0.4-0.7-0.4C282.3,1.9,280.2,1.4,279.9,1.4z M311,5.8
	c-0.4,0-0.5,0.4-0.5,1.2c0,0.2,0,0.4,0,0.6c-0.1,2-0.3,3.9-0.6,5.9c-0.2,0.9-0.4,1.8-0.6,2.6c-0.1,0.3-0.2,0.6-0.3,0.9
	c0,0.8,1.8,1.1,2.1,1.1c0.4,0,0.6-0.3,0.8-0.6c1.7-2.1,4.6-4.5,7.4-4.5c1.7,0,3.2,1,3.2,2.9c0,2.3-2,3.1-3.9,3.6
	c-1.2,0.3-2.4,0.5-3.6,0.5c-0.4,0-0.7,0.1-0.7,0.5c0.1,0.6,0.2,1.2,0.5,1.8c0.2,0.5,0.4,0.8,1,0.8c1.2-0.1,2.4-0.4,3.5-0.7
	c3.3-1,6.1-2.6,6.1-6.4c0-3.4-2.6-5.6-5.9-5.6c-2.6,0-4.2,1.1-6.2,2.5c-0.1,0.1-0.2,0.1-0.4,0.2c-0.2,0-0.3-0.2-0.3-0.3
	c0-0.2,0-0.4,0.1-0.6c0.3-1.2,0.4-2.5,0.6-3.8c0.1-0.5,0.1-0.8,0.6-1.1c0.1-0.1,0.2-0.1,0.2-0.3c0-0.2-0.3-0.3-0.5-0.4
	C312.9,6.2,312,6,311,5.8L311,5.8z M312.8,2.7c0,0.3,0.4,0.4,0.6,0.6c1.2,0.7,2.3,1.4,3.4,2.3c0.2,0.2,0.6,0.5,0.9,0.5
	c0.6,0,1.7-1.6,1.7-2.1c0-0.5-1.6-1.3-2-1.6c-1-0.7-2-1.2-3.1-1.7C313.6,0.7,312.8,2.3,312.8,2.7L312.8,2.7z M17.9,67.5
	c-0.4,0-2,1.1-2,1.6c0,0.2,0.1,0.4,0.3,0.5c2,2.6,3.7,5.4,5.1,8.4l0.1,0.2c0.2,0.3,0.3,0.7,0.6,0.7c0.5,0,2.5-0.9,2.5-1.7
	c0-0.6-2.4-4.5-2.9-5.2c-0.9-1.4-2-2.8-3.1-4.1C18.4,67.7,18.2,67.5,17.9,67.5z M8.6,67c-0.2,0-0.4,0.4-0.5,0.6c-1.6,3.7-4,7-7,9.8
	C1.1,77.5,1,77.6,1,77.8c0,0.5,1.9,1.7,2.3,1.7c0.5,0,1.3-1,1.6-1.3c2.3-2.6,4.3-5.4,5.9-8.5c0.1-0.3,0.3-0.5,0.6-0.6
	c0.1-0.1,0.2-0.2,0.2-0.3c0-0.3-0.5-0.5-0.8-0.7C10.2,67.6,9.4,67.3,8.6,67z M56.4,67.9c-0.2,0-0.4,0.1-0.5,0.3
	c-3.8,4.9-10.6,10-16.6,11.7c-0.4,0.1-0.8,0.2-0.8,0.5c0.2,0.6,0.5,1.1,0.8,1.6c0.2,0.3,0.8,1.4,1.1,1.4c0.1,0,0.2-0.1,0.3-0.2
	c0.2-0.5,0.2-0.5,1.1-0.9c5.5-2.4,10.5-5.9,14.7-10.2c0.4-0.4,1.4-1.4,1.4-1.9C57.9,69.9,57,67.9,56.4,67.9z M40.5,63.5
	c-0.6,0-1.7,1.7-1.7,2.1c0,0.2,0.2,0.4,0.4,0.5c1.3,0.8,2.4,1.6,3.6,2.5c0.3,0.3,0.7,0.6,1.1,0.7c0.5,0,1.8-1.5,1.8-2.1
	c0-0.4-1.3-1.3-1.6-1.5C42.9,64.9,41.7,64.2,40.5,63.5z M88.3,62.3c-0.3,0-1.3,0.8-1.3,1.1c0,0.1,0.1,0.2,0.2,0.4
	c0.6,0.6,1.3,1.4,1.9,2.1c0.1,0.1,0.2,0.3,0.4,0.3c0.4,0,1.3-0.8,1.3-1.2C90.1,64,89.3,63,88.3,62.3z M85.5,64.2
	c-0.3,0-1.3,0.8-1.3,1.1c0,0.1,0.1,0.2,0.2,0.4c0.6,0.7,1.3,1.4,1.8,2.2c0.1,0.1,0.2,0.3,0.4,0.3c0.3,0,1.3-0.8,1.3-1.2
	C87.3,65.9,86.5,64.9,85.5,64.2z M80.7,70.2c-0.1,0.1-0.1,0.1-0.2,0.1c-0.1,0-0.2-0.1-0.2-0.3V66c0-0.7,0-1.2,0-1.6
	c-0.1-0.5,0-1,0.3-1.4c0.1-0.1,0.1-0.2,0.1-0.4c0-0.4-1.1-0.5-2.3-0.6c-0.2,0-0.8-0.1-0.9-0.1c-0.3,0-0.4,0.1-0.4,0.4
	c0,0.1,0,0.4,0,0.5c0,0.7,0.1,1.4,0.1,2.1v15.4c0,1.2-0.1,2.4-0.1,3.6c0,0.9,0.5,0.9,1.5,0.9c1.6,0,1.7-0.2,1.7-1.4
	c0-1.1-0.1-2.1-0.1-3.2v-7.4c0-0.2,0.1-0.4,0.3-0.4c0.1,0,0.2,0,0.3,0.1c1.4,1,2.7,2,3.9,3.2c0.1,0.2,0.4,0.3,0.6,0.4
	c0.5,0,1.8-1.4,1.8-1.9s-1.5-1.6-1.9-1.9c-0.5-0.5-3.2-2.6-3.8-2.6C81.2,69.6,80.9,70,80.7,70.2z M114.6,71.3c-0.1,0-0.3,0-0.4-0.1
	c-1.3-0.7-2.6-1.2-4-1.5c-0.7,0-1.4,1.9-1.4,2.2c0,0.3,0.3,0.5,0.6,0.5c1.1,0.3,2.2,0.8,3.2,1.3c0.2,0.1,0.4,0.3,0.4,0.5
	c0,0.3-0.3,0.6-0.4,0.8c-2,2.4-4.6,4.2-7.5,5.4c-0.1,0-0.1,0.1-0.2,0.1c-0.4,0.1-0.8,0.3-0.8,0.6c0,0.4,1.3,2,1.9,2
	c0.6,0,3.7-1.9,4.3-2.3c1.8-1.2,3.4-2.7,4.8-4.4c0.2-0.2,0.4-0.4,0.7-0.4c0.5,0,1.5,1.1,1.9,1.5c0.2,0.2,0.4,0.4,0.7,0.4
	c0.5,0,1.8-1.7,1.8-2.2c0-0.4-1.6-1.6-2-1.9c-0.3-0.2-0.5-0.4-0.5-0.8c0-0.2,0.1-0.3,0.2-0.5c1-1.9,1.9-3.9,2.6-5.9
	c0.1-0.4,0.3-0.7,0.6-0.9c0.1-0.1,0.3-0.2,0.3-0.4c0-0.3-0.9-0.6-1.4-0.8c-0.6-0.3-1.2-0.5-1.9-0.6c-0.2,0-0.3,0.4-0.3,0.6
	c-0.4,2.1-1.1,4.2-2.2,6.1C115.2,70.9,115.1,71.3,114.6,71.3L114.6,71.3z M149.6,69.9c0-0.5,0.2-0.9,0.6-1.2c1.3-1.3,2.5-2.6,3.7-4
	c0.2-0.4,0.6-0.6,1.1-0.6c0.1-0.1,0.3-0.1,0.3-0.3c0-0.3-0.8-0.8-1.1-1c-0.6-0.4-1.2-0.8-1.8-1.1c-0.2,0-0.4,0.3-0.4,0.4
	c-1,1.7-2.3,3.2-3.7,4.6c-3.1,3-6.7,5.4-10.6,7.2c-0.2,0.1-0.4,0.2-0.4,0.5c0.4,0.9,1.2,1.7,2.1,2.2c0.7,0,5-2.9,5.8-3.5
	c0.2-0.2,0.8-0.6,1.1-0.6c0.5,0,0.4,0.6,0.4,0.8v7.3c0,1.2-0.1,2.3-0.1,3.5c0,0.7,0.3,0.8,1.8,0.8c1,0,1.4-0.1,1.4-0.8
	c0-1.2-0.1-2.3-0.1-3.5L149.6,69.9z M187.6,62.3c-0.3,0-1.3,0.8-1.3,1.1c0,0.1,0.1,0.2,0.2,0.4c0.6,0.6,1.3,1.4,1.9,2.1
	c0.1,0.1,0.2,0.3,0.4,0.3c0.4,0,1.3-0.8,1.3-1.2C189.5,64,188.6,63,187.6,62.3L187.6,62.3z M184.8,64.2c-0.3,0-1.3,0.8-1.3,1.1
	c0,0.1,0.1,0.2,0.2,0.4c0.6,0.7,1.3,1.4,1.8,2.2c0.1,0.1,0.2,0.3,0.4,0.3c0.3,0,1.3-0.8,1.3-1.2C186.7,65.9,185.8,64.9,184.8,64.2
	L184.8,64.2z M180.1,70.2c-0.1,0.1-0.1,0.1-0.2,0.1c-0.1,0-0.2-0.1-0.2-0.3V66c0-0.7,0-1.2,0-1.6c-0.1-0.5,0-1,0.3-1.4
	c0.1-0.1,0.1-0.2,0.1-0.4c0-0.4-1.1-0.5-2.3-0.6c-0.2,0-0.8-0.1-0.9-0.1c-0.3,0-0.4,0.1-0.4,0.4c0,0.1,0,0.4,0,0.5
	c0,0.7,0.1,1.4,0.1,2.1v15.4c0,1.2-0.1,2.4-0.1,3.6c0,0.9,0.5,0.9,1.5,0.9c1.6,0,1.7-0.2,1.7-1.4c0-1.1-0.1-2.1-0.1-3.2v-7.4
	c0-0.2,0.1-0.4,0.3-0.4c0.1,0,0.2,0,0.3,0.1c1.4,1,2.7,2,3.9,3.2c0.1,0.2,0.4,0.3,0.6,0.4c0.5,0,1.8-1.4,1.8-1.9s-1.5-1.6-1.9-1.9
	c-0.5-0.5-3.2-2.6-3.8-2.6C180.6,69.6,180.3,70,180.1,70.2L180.1,70.2z M211.8,67.2c0.3,0,0.4,0.2,0.4,0.5c-0.1,1.8-0.4,3.5-0.9,5.3
	c-0.8,2.8-2.3,5.8-3.6,5.8c-1.4,0-1.7-2.5-1.7-3.5c-0.1-3.3,1.8-6.4,4.9-7.8C211.1,67.4,211.4,67.3,211.8,67.2L211.8,67.2z
	 M214.3,64c-6.1,0-11.2,4.9-11.2,11c0,0.1,0,0.2,0,0.3c0,1.3,0.3,2.6,0.8,3.8c0.7,1.5,2.1,2.5,3.7,2.6c1.4-0.1,2.7-0.9,3.6-2.1
	c2.6-3.1,3.5-7.9,3.8-11.9c0-0.5,0-1.1,0.6-1.1c0.4,0,0.7,0.1,1,0.2c2.7,1,4.4,3.6,4.3,6.5c0,3.9-2.8,6.2-6.3,7
	c-0.3,0.1-0.7,0.1-0.7,0.4c0,0.6,1.1,2.3,1.8,2.3c1-0.2,2-0.6,2.9-1.1c3.3-1.7,5.3-5.1,5.3-8.7c0-2.5-0.9-4.9-2.7-6.6
	C219.5,64.9,216.9,64,214.3,64L214.3,64z M239.9,81.4c0,1-0.1,2-0.1,3.1c0,0.7,0.2,0.7,1.4,0.7c1.1,0,1.4,0,1.4-0.7
	c0-1-0.1-2-0.1-3.1v-1.9c0-0.1,0.1-0.3,0.2-0.3c0.1,0,0.1,0,0.2,0.1c0.3,0.4,1.8,2.5,2.2,2.5c0.5,0,1.4-1.3,1.4-1.7
	c0-0.2-0.1-0.3-0.3-0.4c-1-0.8-1.9-1.7-2.7-2.8c-0.1-0.1-0.1-0.2-0.1-0.2c0-0.2,0.2-0.3,0.4-0.4h0.2c0.7,0,1.6,0.1,2,0.1
	c0.5,0,0.5-0.3,0.5-1.1c0-0.9,0-1.2-0.5-1.2c-0.6,0-1.3,0.1-2,0.1h-0.9c-0.5,0-0.7-0.2-0.7-0.8c0-0.3,0-0.5,0.3-0.6
	c0.2-0.1,0.4-0.2,0.4-0.4c0-0.3-0.4-0.3-0.6-0.4c-0.4,0-1.9-0.2-2.3-0.2c-0.2,0-0.4,0.1-0.4,0.4c0,0.1,0,0.2,0,0.3
	c0,0.3,0.1,0.6,0.1,1c0,0.5-0.2,0.7-0.7,0.7H238c-0.7,0-1.5-0.1-2.1-0.1c-0.5,0-0.5,0.3-0.5,1.2c0,0.8,0,1.2,0.5,1.2
	c0.5,0,1.4-0.1,2.1-0.1h0.2c0.2,0,0.5,0.1,0.5,0.4c0,0.1,0,0.2-0.1,0.2c-0.9,1.5-1.9,2.8-3.1,4.1c-0.2,0.2-0.5,0.4-0.5,0.7
	c0,0.5,1.2,1.5,1.7,1.5c0.6,0,2.5-3.1,2.8-3.8c0.1-0.1,0.1-0.1,0.2-0.1c0.1,0,0.2,0.1,0.2,0.2L239.9,81.4z M250.5,79.4
	c0-0.4,0.3-0.8,0.8-0.8c0,0,0,0,0,0h0.9c0.4,0,0.8,0.3,0.8,0.8c0,0,0,0,0,0v1.1c0,0.4-0.3,0.7-0.8,0.8h-0.9c-0.4,0-0.7-0.3-0.8-0.8
	V79.4z M250.5,74.5c0-0.4,0.3-0.7,0.8-0.8h0.9c0.4,0,0.7,0.3,0.8,0.8v0.9c0,0.4-0.3,0.7-0.8,0.8h-0.9c-0.4,0-0.7-0.3-0.8-0.8V74.5z
	 M250.5,69.6c0-0.4,0.3-0.7,0.8-0.8h0.9c0.4,0,0.7,0.3,0.8,0.8v0.9c0,0.4-0.3,0.7-0.8,0.8h-0.9c-0.4,0-0.7-0.3-0.8-0.8V69.6z
	 M251.3,66.3c-0.3,0-0.5-0.1-0.5-0.5c0-0.1,0-0.1,0-0.2c0.3-0.9,0.5-1.5,0.7-2c0.2-0.8,0.3-1,0.7-1.2c0.2-0.1,0.4-0.1,0.4-0.3
	c0-0.4-0.5-0.5-0.9-0.6c-0.6-0.2-1.3-0.4-1.9-0.5c-0.2,0-0.2,0.2-0.3,0.4c-0.5,2.5-1.4,4.9-2.6,7.1c0,0.1-0.1,0.1-0.1,0.1
	s-0.1-0.1-0.1-0.1c0-0.3,0.1-0.5,0.1-0.8c0-0.7-0.6-1-1.3-1c-0.4,0-0.4,0.2-0.4,0.6c-0.1,1.3-0.2,1.5-0.6,1.5h-0.2
	c-0.3,0-0.4-0.2-0.4-0.7v-2.6c0-0.4,0-0.8,0-1.2c0-0.8-0.6-1-1.3-1c-0.5,0-1,0-1.5,0c-0.5,0-0.7-0.2-0.8-0.7v-0.1
	c0-0.2,0.1-0.3,0.2-0.5c0.2-0.2,0.5-0.3,0.5-0.5c0-0.2-0.5-0.3-0.6-0.3c-0.3,0-2-0.2-2.2-0.2c-0.3,0-0.4,0.1-0.4,0.5
	c0,0.2,0.1,0.8,0.1,1.1c0,0.5-0.2,0.7-0.7,0.7c-0.4,0-0.9,0-1.2,0c-0.5,0-0.5,0.4-0.5,1.1c0,0.8,0,1.2,0.5,1.2
	c0.2,0,0.8-0.1,1.1-0.1c0.3,0,0.6,0.1,0.6,0.5v0.2c-0.3,1.7-1.1,3.2-2.3,4.3c-0.1,0.1-0.2,0.3-0.2,0.4c0,0.6,1.3,1.3,1.7,1.3
	s1.1-0.9,1.3-1.2c1.1-1.5,1.8-3.3,2.1-5.1c0-0.3,0.3-0.5,0.5-0.5c0,0,0,0,0,0c0.5,0,0.8,0.2,0.8,0.8v2.1c0,0.4,0,0.7,0,1.1
	c0,1.7,0.6,1.7,2.1,1.7h0.5c0.2,0,0.5,0,0.7,0h0.2c0.3,0,0.6,0.2,0.8,0.5c0.2,0.3,0.8,1.2,1.2,1.2c0.2,0,0.5-0.3,0.6-0.5
	c0-0.1,0.1-0.1,0.1-0.1c0.1,0,0.1,0.1,0.1,0.2v8.8c0,1.1-0.1,2.1-0.1,3.2c0,0.9,0.3,0.9,1.4,0.9c1.3,0,1.4-0.1,1.4-0.8
	c0.1-0.4,0.2-0.6,0.6-0.6h5c0.9,0,1.8,0.1,2.5,0.1c0.6,0,0.6-0.3,0.6-1.3s0-1.3-0.6-1.3c-0.6,0-1.6,0.1-2.5,0.1H256
	c-0.5,0-0.7-0.2-0.7-0.8v-1.1c0-0.5,0.2-0.7,0.7-0.8c0.4,0,1.2,0.1,1.6,0.1c0.6,0,0.6-0.3,0.6-1.3c0-1.1,0-1.3-0.6-1.3
	c-0.5,0-1.1,0.1-1.6,0.1c-0.5,0-0.7-0.2-0.7-0.7v-0.9c0-0.5,0.2-0.7,0.7-0.7c0.5,0,1.3,0.1,1.6,0.1c0.6,0,0.5-0.4,0.5-1.3
	c0-1,0.1-1.3-0.5-1.3c-0.5,0-1.2,0-1.6,0.1c-0.5-0.1-0.7-0.2-0.7-0.8v-0.9c0-0.5,0.2-0.8,0.7-0.8c0.8,0,1.5,0.1,2.3,0.1
	c0.5,0,0.5-0.3,0.5-1.3c0-1,0-1.3-0.6-1.3c-0.7,0-1.6,0.1-2.5,0.1c-0.3,0-0.5-0.1-0.5-0.4c0-0.1,0-0.2,0.1-0.2
	c0.4-0.9,0.8-1.7,1.1-2.6c0.1-0.2,0.3-0.3,0.5-0.3c0.2,0,0.4-0.1,0.4-0.3c0-0.3-0.5-0.4-0.9-0.6c-0.6-0.2-1.2-0.4-1.8-0.6
	c-0.2,0-0.2,0.2-0.3,0.4c-0.4,1.4-0.9,2.8-1.4,4.1c-0.1,0.4-0.6,0.7-1,0.6L251.3,66.3z M285.9,77.6c0.3,0,0.5,0.2,0.5,0.4
	c0,0,0,0.1,0,0.1v0.1c0,0.3-0.2,0.5-0.5,0.5c0,0,0,0,0,0h-9.7c-0.3,0-0.5-0.2-0.5-0.5v-0.1c0-0.3,0.2-0.5,0.5-0.5c0,0,0,0,0,0H285.9
	z M285.9,74.9c0.3,0,0.5,0.2,0.5,0.5c0,0,0,0,0,0v0.1c0,0.3-0.2,0.5-0.4,0.5c0,0-0.1,0-0.1,0h-9.7c-0.3,0-0.5-0.2-0.5-0.5
	c0,0,0,0,0,0v-0.1c0-0.3,0.2-0.5,0.5-0.5H285.9z M286.4,72.8c0,0.3-0.2,0.5-0.4,0.5c0,0-0.1,0-0.1,0h-9.7c-0.3,0-0.5-0.2-0.5-0.5
	c0,0,0,0,0,0v-0.1c0-0.3,0.2-0.5,0.5-0.5h9.7c0.3,0,0.5,0.2,0.5,0.5c0,0,0,0,0,0V72.8z M284.3,81.1c-0.2,0.3-0.7,0.9-0.7,1.2
	c0,0.9,6.6,2.8,7.7,2.8c0.6,0,1.2-1.4,1.2-1.8c0-0.4-0.4-0.5-0.7-0.5c-2-0.4-4-1-6-1.8c-0.1-0.1-0.1-0.1-0.1-0.2
	c0-0.1,0.1-0.1,0.2-0.2c0.7,0,1.4,0.1,2.1,0.1c0.8,0,1.3-0.2,1.3-1.1c0-0.6-0.1-1.1-0.1-1.7v-5c0-0.6,0.1-1.1,0.1-1.7
	c0-0.9-0.5-1.1-1.3-1.1c-0.7,0-1.4,0.1-2.1,0.1h-9.6c-0.7,0-1.4-0.1-2.1-0.1c-0.9,0-1.3,0.2-1.3,1.1c0,0.6,0,1.1,0,1.7v5
	c0,0.6,0,1.1,0,1.7c0,0.9,0.5,1.1,1.3,1.1c0.6,0,1.3,0,1.9-0.1c0.1,0,0.2,0.1,0.2,0.2c0,0.1,0,0.1-0.1,0.2c-1.8,0.7-3.6,1.3-5.5,1.6
	c-0.5,0.1-1,0.2-1,0.5c0,0.4,0.5,1.8,1.2,1.8c0.3,0,0.6-0.1,0.9-0.2c2-0.4,3.9-1.1,5.8-1.9c0.1-0.1,0.2-0.1,0.3-0.1
	c0.1,0,0.1,0,0.2,0c0.1,0,0.3,0,0.4,0.1c0.2,0,0.3-0.1,0.3-0.2c0-0.2-0.5-0.8-0.8-1.2c-0.1-0.1-0.3-0.4-0.3-0.5
	c0-0.2,0.2-0.3,0.4-0.3h6.2c0.1,0,0.2,0.1,0.2,0.2c0,0,0,0,0,0C284.4,81,284.3,81.1,284.3,81.1L284.3,81.1z M289.9,61.3
	c-1.7,0.8-3.6,1.5-5.5,1.9c-0.1,0-0.1,0-0.2,0c-0.4,0-0.5-0.3-0.5-0.6c0-0.3,0.1-0.6,0.4-0.8c0.2-0.1,0.4-0.2,0.4-0.3
	c0-0.4-0.6-0.3-0.8-0.4c-0.5,0-1.7-0.1-2.2-0.1c-0.3,0-0.5,0.1-0.5,0.4c0,0.1,0,0.2,0,0.3c0.1,0.6,0.1,1.2,0.1,1.9v2.4
	c0,0.5-0.1,0.9-0.1,1.4c0,1.9,2,2,3.4,2h4.8c1.2,0,2.1,0.1,2.7-0.7c0.6-0.8,0.9-1.7,1-2.7c0-0.7-1.5-0.9-2-0.9
	c-0.5,0-0.5,0.2-0.6,0.7c-0.2,1.3-0.7,1.3-1.6,1.3h-3.5c-1.3,0-1.4-0.1-1.5-1c-0.1-0.3,0.2-0.7,0.5-0.7c0,0,0,0,0.1,0
	c2.2-0.4,4.4-1.1,6.5-1.9c0.1,0,0.1,0,0.2,0c0.1,0,0.2,0,0.3,0.1c0.1,0,0.2,0.1,0.2,0.1c0.2,0,0.4-0.1,0.4-0.3
	c-0.2-0.4-0.4-0.8-0.7-1.1c-0.1-0.2-0.2-0.3-0.3-0.4c-0.2-0.3-0.4-0.6-0.7-0.6C290.1,61.2,290,61.2,289.9,61.3L289.9,61.3z
	 M273.7,67.6c0,0.5,0,0.9,0,1.4c0,0.6,0.3,0.7,1.5,0.7s1.4-0.2,1.4-0.7c0-0.4-0.1-0.9-0.1-1.3v-0.9c0-0.8,0-1.1,0.3-1.3
	c0.1-0.1,0.3-0.2,0.3-0.4c0-0.1-0.1-0.2-0.3-0.2c-0.1,0-0.1-0.1-0.1-0.1c0-0.1,0-0.1,0.1-0.1c0.6-0.5,1-0.8,1.3-1.1
	c0.4-0.3,0.6-0.5,0.8-0.6c0.2,0,0.5,0,0.5-0.3c0-0.2-0.5-0.5-0.8-0.8c-0.4-0.4-0.9-0.6-1.4-0.8c-0.2,0-0.4,0.2-0.5,0.3
	c-1.9,1.9-4.1,3.4-6.5,4.5c-0.5,0.2-1.1,0.5-1.1,0.8c0,0.4,0.9,1.6,1.5,1.6c0.9-0.3,1.7-0.7,2.5-1.2c0.1,0,0.2-0.1,0.2-0.1
	c0.3,0,0.4,0.2,0.4,0.5L273.7,67.6z M309.7,65.2c-1.2,0-2.3-0.1-3.5-0.1c-0.8,0-0.8,0.3-0.8,1.6c0,1.2,0,1.4,0.8,1.4
	c1.1,0,2.2-0.1,3.4-0.1h9.6c0.5,0,0.9,0.1,0.9,0.6c0,0.2,0,0.5-0.1,0.7c-0.5,3.1-2,5.9-4.4,7.9c-2,1.6-4.3,2.8-6.7,3.6
	c-0.2,0.1-0.5,0.1-0.5,0.4c0,0.5,1,2.3,1.6,2.3c0.3,0,0.6-0.1,0.9-0.2c1.8-0.7,3.6-1.6,5.2-2.8c4.3-3,6.3-6.5,7.2-11.6
	c0.2-1.1,0.4-1.3,0.4-1.6c0-0.3-0.7-1-0.9-1.3c-0.4-0.4-0.7-0.8-1.3-0.8c-0.4,0-1.6,0.1-2.4,0.1H309.7z M325.7,60.1
	c-0.3,0-1.3,0.8-1.3,1.1c0,0.1,0.1,0.2,0.2,0.3c0.7,0.7,1.4,1.4,2,2.2c0.1,0.1,0.2,0.2,0.4,0.2c0.3,0,1.3-0.9,1.3-1.2
	C327.6,61.7,326.7,60.8,325.7,60.1L325.7,60.1z M323.2,62.1c-0.3,0-1.3,0.8-1.3,1.1c0,0.1,0.1,0.2,0.2,0.4c0.7,0.7,1.4,1.4,2,2.2
	c0.1,0.1,0.2,0.2,0.4,0.2c0.4,0,1.3-0.9,1.3-1.2C325.1,63.8,324.2,62.9,323.2,62.1L323.2,62.1z M343.2,69.1c-1.2,0-2.3-0.1-3.5-0.1
	c-0.8,0-0.8,0.2-0.8,1.6c0,1.1,0,1.3,0.8,1.3c1.2,0,2.3-0.1,3.4-0.1h10c0.4,0,1.2-0.1,1.2,0.6c-0.2,0.6-0.4,1.2-0.7,1.8
	c-1.9,3.3-4.8,6-8.3,7.7c-0.3,0.1-0.9,0.4-0.9,0.7c0,0.5,1.2,2,1.9,2c0.8,0,3.8-2.1,4.5-2.7c2.2-1.8,4.1-3.9,5.6-6.4
	c0.6-1.2,1.2-2.4,1.6-3.6c0.1-0.4,0.3-0.7,0.4-1.1c-0.4-0.8-1.1-1.5-1.9-1.8c-0.2,0-0.3,0-0.5,0.1c-0.6,0.1-1.8,0.1-2.4,0.1
	L343.2,69.1z M345.1,63.2c-1.1,0-2.4-0.1-3.2-0.1c-0.7,0-0.7,0.3-0.7,1.6c0,1,0,1.3,0.8,1.3c1.1,0,2.1-0.1,3.2-0.1h6.6
	c1.1,0,2.1,0.1,3.2,0.1c0.7,0,0.7-0.4,0.7-1.3c0-1.3-0.1-1.6-0.7-1.6c-0.7,0-2.1,0.1-3.2,0.1H345.1z M392.6,67.9
	c-0.2,0-0.4,0.1-0.5,0.3c-3.8,4.9-10.6,10-16.6,11.7c-0.4,0.1-0.8,0.2-0.8,0.5c0.2,0.6,0.5,1.1,0.8,1.6c0.2,0.3,0.8,1.4,1.1,1.4
	c0.1,0,0.2-0.1,0.3-0.2c0.2-0.5,0.2-0.5,1.1-0.9c5.5-2.4,10.5-5.9,14.7-10.2c0.4-0.4,1.4-1.4,1.4-1.9
	C394.1,69.9,393.1,67.9,392.6,67.9L392.6,67.9z M376.6,63.5c-0.6,0-1.7,1.7-1.7,2.1c0,0.2,0.2,0.4,0.4,0.5c1.3,0.8,2.4,1.6,3.6,2.5
	c0.3,0.3,0.7,0.6,1.1,0.7c0.5,0,1.8-1.5,1.8-2.1c0-0.4-1.3-1.3-1.6-1.5C379,64.9,377.9,64.2,376.6,63.5L376.6,63.5z M424.4,62.3
	c-0.3,0-1.3,0.8-1.3,1.1c0,0.1,0.1,0.2,0.2,0.4c0.6,0.6,1.3,1.4,1.9,2.1c0.1,0.1,0.2,0.3,0.4,0.3c0.4,0,1.3-0.8,1.3-1.2
	C426.3,64,425.4,63.1,424.4,62.3L424.4,62.3z M421.6,64.2c-0.3,0-1.3,0.8-1.3,1.1c0,0.1,0.1,0.2,0.2,0.4c0.6,0.7,1.3,1.4,1.8,2.2
	c0.1,0.1,0.2,0.3,0.4,0.3c0.3,0,1.3-0.8,1.3-1.2C423.5,65.9,422.6,64.9,421.6,64.2L421.6,64.2z M416.9,70.2
	c-0.1,0.1-0.1,0.1-0.2,0.1c-0.1,0-0.2-0.1-0.2-0.3V66c0-0.7,0-1.2,0-1.6c-0.1-0.5,0-1,0.3-1.4c0.1-0.1,0.1-0.2,0.1-0.4
	c0-0.4-1.1-0.5-2.3-0.6c-0.2,0-0.8-0.1-0.9-0.1c-0.3,0-0.4,0.1-0.4,0.4c0,0.1,0,0.4,0,0.5c0,0.7,0.1,1.4,0.1,2.1v15.4
	c0,1.2-0.1,2.4-0.1,3.6c0,0.9,0.5,0.9,1.5,0.9c1.6,0,1.7-0.2,1.7-1.4c0-1.1-0.1-2.1-0.1-3.2v-7.4c0-0.2,0.1-0.4,0.3-0.4
	c0.1,0,0.2,0,0.3,0.1c1.4,1,2.7,2,3.9,3.2c0.1,0.2,0.4,0.3,0.6,0.4c0.5,0,1.8-1.4,1.8-1.9s-1.5-1.6-1.9-1.9
	c-0.5-0.5-3.2-2.6-3.8-2.6C417.4,69.6,417.1,70,416.9,70.2L416.9,70.2z M447.1,62.6c-0.2,0-0.3,0.2-0.3,0.4c0,0.1,0.1,0.6,0.1,1.1
	c0,1.2-0.1,2.3-0.3,3.5c-0.1,0.6-0.3,0.7-0.9,0.8c-1.5,0.3-3,0.6-4.5,0.8c-0.3,0-0.8,0-0.8,0.4c0,0.2,0.5,2.8,1.1,2.8
	c0.2,0,0.4-0.1,0.6-0.2c1-0.4,2-0.7,3.1-0.9c0.2,0,0.3,0.1,0.4,0.3c0,0,0,0,0,0c-0.2,0.7-0.4,1.4-0.7,2.1c-1.1,2.8-2.7,5.4-4.8,7.5
	c-0.2,0.2-0.3,0.4-0.4,0.6c0,0.6,1.7,1.6,2.2,1.6c0.2,0,0.4-0.1,0.5-0.3c1-1.2,1.9-2.5,2.7-3.8c1.5-2.5,2.7-5.2,3.5-8.1
	c0.2-0.8,0.5-1,2-1c1.6,0,1.7,1.1,1.7,2.5c0,2.1-0.4,4.2-1.2,6.1c-0.4,1.2-1.6,1.9-2.8,1.7c-0.5,0-0.9-0.1-1.2-0.1
	c-0.3,0-0.4,0.2-0.4,0.5c0,0.7,0.2,1.3,0.5,1.9c0.3,0.6,0.6,0.6,1.2,0.6c2.1,0.1,4.1-1,5.1-2.9c1.2-2.2,1.6-5.8,1.6-8.3
	c0.2-1.5-0.5-3-1.7-3.9c-0.9-0.5-2-0.7-3.1-0.6h-0.3c-0.3,0-0.6-0.2-0.6-0.5c0,0,0-0.1,0-0.1c0-0.1,0-0.2,0.1-0.3
	c0.1-0.4,0.1-0.8,0.2-1.1c0.1-1,0.2-1.4,0.7-1.8c0.1-0.1,0.2-0.2,0.2-0.4c0-0.3-0.5-0.4-0.7-0.4C449.4,63.2,447.4,62.6,447.1,62.6
	L447.1,62.6z M458.1,62.6c-0.3,0-1.3,0.8-1.3,1.1c0,0.1,0.1,0.3,0.2,0.4c0.7,0.7,1.3,1.3,1.9,2.1c0.1,0.1,0.2,0.3,0.4,0.3
	c0.4,0,1.3-0.8,1.3-1.2C460,64.3,459.1,63.4,458.1,62.6L458.1,62.6z M460.7,60.7c-0.3,0-1.3,0.8-1.3,1.1c0,0.1,0.2,0.3,0.3,0.4
	c0.7,0.7,1.3,1.3,1.9,2.1c0.1,0.2,0.2,0.3,0.4,0.3c0.3,0,1.3-0.8,1.3-1.2C462.5,62.4,461.7,61.5,460.7,60.7L460.7,60.7z M456.3,65.6
	c-0.4,0-1.9,0.9-1.9,1.4c0,0.2,0.1,0.3,0.2,0.5c1.5,1.7,2.8,3.7,3.6,5.8c0.1,0.3,0.3,0.6,0.6,0.6c0.5,0,2.2-1,2.2-1.6
	C461.1,71.5,457.3,65.6,456.3,65.6L456.3,65.6z M7.8,127.4c-0.3,0-0.6-0.1-0.6-0.5c0-0.1,0-0.1,0-0.2c0.1-0.4,0.2-0.8,0.3-1.1
	c0.2-0.9,0.3-1.1,0.7-1.3c0.2-0.1,0.5-0.2,0.5-0.5c0-0.3-0.5-0.4-1.8-0.7c-0.2-0.1-1.1-0.3-1.3-0.3c-0.4,0-0.4,0.4-0.4,0.7
	c-0.6,3.4-2.1,6.6-4.2,9.4c-0.1,0.2-0.4,0.5-0.4,0.7c0,0.6,1.6,1.3,2.1,1.3c0.8,0,2.5-3.4,2.9-4.2c0.2-0.4,0.6-0.7,1-0.6h3.9
	c0.5,0,0.8,0.2,0.8,0.8v2.9c0,0.5-0.2,0.8-0.8,0.8H7.4c-1.1,0-2.1-0.1-3.2-0.1c-0.8,0-0.7,0.4-0.7,1.4c0,1.1,0,1.4,0.7,1.4
	c1.1,0,2.1-0.1,3.2-0.1h3.3c0.5,0,0.8,0.2,0.8,0.8v3.9c0,0.5-0.2,0.7-0.8,0.7H5c-1.1,0-2.2-0.1-3.4-0.1c-0.7,0-0.7,0.3-0.7,1.4
	c0,1.1,0,1.4,0.7,1.4c1.1,0,2.3-0.1,3.4-0.1h15.8c1.1,0,2.2,0.1,3.4,0.1c0.7,0,0.7-0.4,0.7-1.4c0-1,0.1-1.4-0.7-1.4
	c-1.1,0-2.3,0.1-3.4,0.1h-5.6c-0.5,0-0.8-0.2-0.8-0.7v-3.9c0-0.5,0.2-0.8,0.8-0.8h3.4c1.1,0,2.2,0.1,3.2,0.1c0.7,0,0.7-0.4,0.7-1.4
	c0-1,0-1.4-0.7-1.4c-1.1,0-2.2,0.1-3.2,0.1h-3.4c-0.5,0-0.8-0.2-0.8-0.8v-2.9c0-0.5,0.2-0.8,0.8-0.8h4.6c1.1,0,2.2,0.1,3.3,0.1
	c0.7,0,0.6-0.4,0.6-1.4c0-1,0.1-1.4-0.6-1.4c-1.1,0-2.2,0.1-3.3,0.1h-4.6c-0.5,0-0.8-0.2-0.8-0.7v-2c0-0.9,0-1.5,0.3-1.7
	c0.2-0.2,0.4-0.2,0.4-0.4c0-0.3-0.5-0.4-0.7-0.4c-0.4-0.1-2.2-0.2-2.6-0.2c-0.3,0-0.5,0.1-0.5,0.4c0,0.1,0,0.2,0,0.3
	c0.1,0.6,0.1,1.3,0.1,2v2.1c0,0.5-0.2,0.7-0.8,0.7L7.8,127.4z M44.8,140.1c0.6,0,1.3,0,1.3,0.5c0,1.5-1.1,1.8-2.3,1.8
	c-0.7,0-1.9-0.2-1.9-1.1C41.9,140.2,44,140.1,44.8,140.1L44.8,140.1z M45.8,123.2c-0.2,0-0.4,0.1-0.4,0.3c0,0.1,0,0.3,0.1,0.4
	c0.1,0.5,0.2,2.3,0.2,2.7c0,0.7-0.7,0.7-3.1,0.7c-1.3,0-3.6-0.2-4.2-0.2c-0.5,0-0.5,0.4-0.5,0.8c0,0.7,0.1,1.3,0.3,2
	c0.2,0.2,0.8,0.2,1.6,0.2h0.8c1.5,0,3.6-0.1,4.6-0.1c0.7,0,0.7,1.1,0.7,1.9c0,0.6-0.4,0.7-1.4,0.7h-1.2c-1,0-2.5-0.1-2.9-0.1
	c-0.4,0-0.5,0.2-0.5,0.6c0,0.6,0.1,1.3,0.4,1.9c0.2,0.5,0.7,0.5,1.8,0.5c1.2,0,2.7-0.1,3.2-0.1c0.7,0,0.6,1,0.6,1.9
	c0,0.3,0,0.8-0.5,0.8c-0.2,0-0.8-0.1-1.1-0.1c-2.2,0-5.2,0.9-5.2,3.6c0,2.5,2.3,3.5,4.5,3.5c2.2,0,4.3-0.7,4.9-3
	c0.1-0.2,0.1-0.6,0.5-0.6c1,0.4,2,0.9,2.8,1.6c0.2,0.2,0.5,0.4,0.8,0.4c0.6,0,1.5-1.4,1.5-2c0-1-3.6-2.5-4.5-2.8
	c-1.2-0.4-1.3-0.2-1.3-3c0-0.8,0.5-0.8,1.6-0.9c0.9-0.1,1.9-0.3,2.8-0.5c0.5-0.1,0.5-0.4,0.5-1.3c0-1-0.1-1.6-0.5-1.6
	c-0.2,0-0.3,0-0.5,0.1c-1.1,0.3-2.3,0.5-3.5,0.6c-0.3,0-0.4-0.3-0.4-0.4c-0.1-0.5-0.1-1-0.1-1.4c0-0.8,0.6-0.7,1.2-0.8
	c1.4-0.2,3.1-0.4,4.5-0.7c0.5-0.1,0.8-0.2,0.8-0.7c0-0.5-0.1-2.2-0.7-2.2c-0.3,0-0.7,0.1-1,0.2c-1,0.3-2,0.5-2.9,0.6
	c-0.2,0-1.2,0.2-1.3,0.2c-0.5,0-0.6-0.4-0.6-0.8c0.1-2.2,0.5-1.7,0.5-2.2c0-0.3-0.4-0.4-1.1-0.4C47.4,123.3,46.2,123.2,45.8,123.2
	L45.8,123.2z M75.9,122.7c-0.3,0-0.4,0.1-0.4,0.4c0,0.2,0,0.5,0,0.8c0,1.2-0.1,2.8-0.1,3.5c0,0.3,0,0.6-0.1,0.8
	c-0.3,0.6-3.8,1.2-4.6,1.4c-0.3,0.1-0.9,0.1-0.9,0.5c0.1,0.6,0.3,1.2,0.6,1.8c0.1,0.4,0.4,0.8,0.8,0.8c1.1-0.3,2.2-0.6,3.3-1.1
	c0.2-0.1,0.3-0.1,0.5-0.1c0.2,0,0.4,0.2,0.4,0.4s-0.1,0.5-0.1,0.7c0,0.4-0.1,0.9-0.3,1.3c-1.2,2.2-2.5,4.5-4,6.6
	c-0.2,0.3-0.4,0.6-0.5,1c0,0.5,1.6,1.8,2,1.8c0.2,0,0.3-0.2,0.4-0.3c0.3-0.5,1.1-2,1.4-2.5c0.3-0.4,0.5-0.8,0.6-0.8s0.2,0.2,0.2,0.4
	c0,1.2-0.2,4.2-0.2,4.5c0,0.5,0.5,0.5,1.1,0.5c2,0,2-0.3,2-0.5c0-0.3-0.1-1.8-0.1-2.9c0-0.5-0.1-1.3-0.1-1.4c0-0.6-0.1-3.9,0-4.3
	c0.4-0.6,0.9-1.2,1.5-1.7c0.9-0.9,1.9-1.8,2.9-2.6c0.6-0.6,1.3-0.9,2.1-1.1c0.8,0,0.8,0.9,0.8,1.5c0,2.4-0.4,4.9-0.4,7.3
	c0,1.7,0.2,4.3,2.5,4.3c1.4-0.1,2.7-0.7,3.8-1.6c0.3-0.2,1.3-0.9,1.3-1.3c0-0.4-0.8-2.5-1.2-2.5c-0.2,0-0.4,0.1-0.5,0.3
	c-0.5,0.5-1.6,1.7-2.4,1.7c-0.6,0-0.6-0.9-0.6-1.6c0-1.1,0.1-2.3,0.1-3.5c0.1-1.4,0.1-2.8,0.1-4.2c0.1-0.9-0.1-1.8-0.5-2.6
	c-0.5-0.7-1.4-1.2-2.3-1.2c-1.5,0.2-2.9,0.8-3.9,1.9c-0.6,0.5-1.7,1.5-2.3,2.1c-0.1,0.1-0.1,0.1-0.2,0.1c-0.2,0-0.2-0.1-0.2-0.3
	c0-0.1,0-0.3,0.1-0.4c0.1-0.2,0.6-1.1,0.7-1.3c0.1-0.1,0.2-0.2,0.2-0.3c-0.1-0.5-0.5-1-0.9-1.2c-0.2-0.1-0.4-0.2-0.4-0.5
	c0-0.4,0.2-1.7,0.2-2.2c0.2-1.1,0.1-1.2,0.5-1.5c0.1-0.1,0.2-0.2,0.2-0.4c0-0.2-0.2-0.2-0.3-0.3C78.5,123,76.2,122.7,75.9,122.7
	L75.9,122.7z M112.3,140.1c0.6,0,1.3,0,1.3,0.5c0,1.5-1.1,1.8-2.3,1.8c-0.7,0-1.9-0.2-1.9-1.1C109.4,140.2,111.5,140.1,112.3,140.1
	L112.3,140.1z M113.3,123.2c-0.2,0-0.4,0.1-0.4,0.3c0,0.1,0,0.3,0.1,0.4c0.1,0.5,0.2,2.3,0.2,2.7c0,0.7-0.7,0.7-3.1,0.7
	c-1.3,0-3.6-0.2-4.2-0.2c-0.5,0-0.5,0.4-0.5,0.8c0,0.7,0.1,1.3,0.3,2c0.2,0.2,0.8,0.2,1.6,0.2h0.8c1.5,0,3.6-0.1,4.6-0.1
	c0.7,0,0.7,1.1,0.7,1.9c0,0.6-0.4,0.7-1.4,0.7h-1.2c-1,0-2.5-0.1-2.9-0.1c-0.4,0-0.5,0.2-0.5,0.6c0,0.6,0.1,1.3,0.4,1.9
	c0.2,0.5,0.7,0.5,1.8,0.5c1.2,0,2.7-0.1,3.2-0.1c0.7,0,0.6,1,0.6,1.9c0,0.3,0,0.8-0.5,0.8c-0.2,0-0.8-0.1-1.1-0.1
	c-2.2,0-5.2,0.9-5.2,3.6c0,2.5,2.3,3.5,4.5,3.5c2.2,0,4.3-0.7,4.9-3c0.1-0.2,0.1-0.6,0.5-0.6c1,0.4,2,0.9,2.8,1.6
	c0.2,0.2,0.5,0.4,0.8,0.4c0.6,0,1.5-1.4,1.5-2c0-1-3.6-2.5-4.5-2.8c-1.2-0.4-1.3-0.2-1.3-3c0-0.8,0.5-0.8,1.6-0.9
	c0.9-0.1,1.9-0.3,2.8-0.5c0.5-0.1,0.5-0.4,0.5-1.3c0-1-0.1-1.6-0.5-1.6c-0.2,0-0.3,0-0.5,0.1c-1.1,0.3-2.3,0.5-3.5,0.6
	c-0.3,0-0.4-0.3-0.4-0.4c-0.1-0.5-0.1-1-0.1-1.4c0-0.8,0.6-0.7,1.2-0.8c1.4-0.2,3.1-0.4,4.5-0.7c0.5-0.1,0.8-0.2,0.8-0.7
	c0-0.5-0.1-2.2-0.7-2.2c-0.3,0-0.7,0.1-1,0.2c-1,0.3-2,0.5-2.9,0.6c-0.2,0-1.2,0.2-1.3,0.2c-0.5,0-0.6-0.4-0.6-0.8
	c0.1-2.2,0.5-1.7,0.5-2.2c0-0.3-0.4-0.4-1.1-0.4C114.9,123.3,113.7,123.2,113.3,123.2L113.3,123.2z M142.6,124
	c-0.4,0-0.4,0.3-0.4,0.7v0.3c0,1.1-0.2,3.7-0.3,4.9c-0.2,2.1-0.2,4.3-0.2,6.4c0,2,0.1,4.6,1.4,6.2c1.2,1.4,2.9,2.1,4.8,2.1
	c3.5-0.1,6.6-2.1,8.2-5.2c0.5-1,0.9-2.1,1.1-3.2c0-0.8-1.6-2.2-2.2-2.2c-0.4,0-0.5,0.5-0.5,0.9c-0.2,1.5-0.8,2.8-1.6,4
	c-1.2,1.6-3.1,2.5-5.1,2.6c-2.9,0-2.9-3.3-2.9-5.4c0-1.5,0.2-10.1,1.2-10.8c0.2-0.1,0.3-0.2,0.3-0.4c0-0.2-0.4-0.4-0.5-0.4
	C144.6,124.4,143.6,124.2,142.6,124L142.6,124z M181.1,139.9c-0.4,0-1.7,1.6-1.7,2c0,0.6,0.9,1.2,1.3,1.5c1.5,1,4,1.2,5.8,1.2
	c1.4,0,2.8-0.1,4.2-0.4c0.3-0.2,0.3-0.8,0.3-1.4c0-1.1,0-1.7-0.5-1.7c-0.1,0-0.2,0-0.3,0.1c-1.2,0.4-2.5,0.6-3.8,0.5
	c-1.6,0-3.7-0.2-4.9-1.6C181.4,140.1,181.2,139.9,181.1,139.9L181.1,139.9z M183.1,133.7c0,0.5,0.1,0.6,0.7,0.6c0.4,0,0.7,0,1,0
	c1.5,0,2.9,0.2,4.3,0.7c0.2,0.1,0.4,0.1,0.6,0.1c0.3,0,0.4-0.1,0.5-0.4c0.3-0.6,0.4-1.2,0.5-1.9c0-0.2-0.1-0.5-0.4-0.5
	c-1.8-0.5-3.6-0.8-5.4-0.8C183.6,131.5,183.1,131.4,183.1,133.7L183.1,133.7z M179.5,122.2c-0.3,0-0.3,0.3-0.3,0.7
	c-0.2,1.7-0.5,3.3-1,4.9c-0.2,0.4-0.6,0.4-2.4,0.4c-1.2,0-2.3-0.1-2.5-0.1c-0.3,0-0.4,0.2-0.4,0.5c0,0.7,0.1,1.3,0.2,2
	c0.2,0.5,0.6,0.5,1.1,0.5c0.8,0,2-0.1,2.4-0.1c0.3,0,0.5,0.1,0.5,0.4c-0.1,0.2-0.1,0.5-0.2,0.7c-1.2,3.5-2.8,6.8-4.8,10
	c-0.2,0.3-0.4,0.6-0.5,0.9c0,0.6,1.9,1.5,2.3,1.5c0.4,0,0.6-0.4,1-1c2-3.8,3.7-7.8,5-11.9c0.2-0.8,0.3-0.9,1.1-1.1
	c1.5-0.3,3-0.6,4.4-1.1c0.5-0.1,0.5-0.5,0.5-1c0-0.4,0-2.1-0.5-2.1c-0.2,0-0.4,0.1-0.6,0.1c-1,0.4-2.1,0.8-3.1,1
	c-0.2,0-0.4-0.2-0.4-0.4c0-0.1,0.6-2.1,0.6-2.4c0.2-0.6,0.2-0.7,0.6-0.9c0.1-0.1,0.2-0.1,0.2-0.3c0-0.3-0.8-0.5-1-0.6
	C181.6,122.7,179.8,122.2,179.5,122.2L179.5,122.2z M207.7,139.1c1.3,0,2.4,1,2.4,2.3c0,0,0,0,0,0.1c0,1.3-1.1,2.4-2.4,2.4
	c-1.3,0-2.4-1.1-2.4-2.4C205.3,140.2,206.4,139.1,207.7,139.1L207.7,139.1z M207.7,137.8c-2.1,0-3.8,1.7-3.8,3.8s1.7,3.8,3.8,3.8
	s3.8-1.7,3.8-3.8C211.5,139.5,209.8,137.8,207.7,137.8C207.8,137.8,207.8,137.8,207.7,137.8z"/>
</svg>
